<?xml version="1.0" standalone="no"?>
<!DOCTYPE svg PUBLIC "-//W3C//DTD SVG 20010904//EN"
 "http://www.w3.org/TR/2001/REC-SVG-20010904/DTD/svg10.dtd">
<svg version="1.0" xmlns="http://www.w3.org/2000/svg"
 width="700.000000pt" height="700.000000pt" viewBox="0 0 700.000000 700.000000"
 preserveAspectRatio="xMidYMid meet">
<metadata>
Created by potrace 1.11, written by Peter Selinger 2001-2013
</metadata>
<g transform="translate(0.000000,700.000000) scale(0.100000,-0.100000)"
fill="#000000" stroke="none">
<path d="M0 6305 l0 -695 204 0 c154 0 205 3 208 13 2 6 4 223 3 480 0 306 3
471 10 475 5 4 228 7 495 7 l485 0 2 208 2 207 -705 0 -704 0 0 -695z"/>
<path d="M5592 6795 c0 -142 4 -205 12 -206 6 -1 225 -2 488 -3 262 0 480 -5
485 -9 4 -5 9 -223 9 -485 1 -263 2 -482 3 -489 1 -8 58 -11 206 -11 l205 1 0
703 0 704 -705 0 -705 0 2 -205z"/>
<path d="M3754 6560 c-23 -15 -858 -621 -1239 -898 -145 -106 -1219 -885
-1250 -906 -16 -12 -32 -24 -35 -27 -3 -3 -27 -22 -55 -41 -27 -19 -104 -74
-170 -122 -66 -48 -159 -115 -207 -149 -48 -34 -88 -65 -88 -68 0 -5 67 -57
189 -146 13 -10 180 -134 370 -276 703 -523 831 -617 841 -617 9 0 62 42 167
133 15 13 96 82 178 152 139 118 219 186 271 232 12 10 41 34 65 55 50 42 79
65 238 202 137 116 220 187 235 201 6 6 38 33 71 60 33 28 71 59 84 70 13 11
29 25 35 30 6 6 40 35 76 65 36 30 67 57 70 60 3 3 68 59 145 124 77 65 154
130 170 145 17 15 73 62 125 106 52 44 97 82 100 85 3 3 64 55 135 115 72 60
137 116 146 124 9 9 39 36 68 59 28 24 51 47 51 52 0 6 -151 252 -265 430 -67
105 -109 172 -284 452 -106 169 -196 310 -200 312 -4 3 -21 -3 -37 -14z"/>
<path d="M4483 4898 c-131 -111 -240 -205 -243 -208 -3 -3 -95 -82 -205 -175
-110 -94 -211 -180 -225 -191 -48 -42 -275 -236 -325 -279 -236 -201 -391
-334 -409 -350 -6 -5 -38 -32 -71 -59 -33 -28 -67 -57 -76 -65 -9 -9 -134
-115 -277 -236 -143 -121 -261 -224 -261 -230 0 -5 83 -65 184 -132 l184 -123
358 177 c197 97 545 268 773 381 228 112 602 297 830 409 228 112 465 229 526
260 l112 55 -131 202 c-435 673 -496 766 -501 766 -3 0 -112 -91 -243 -202z"/>
<path d="M4328 3211 c-664 -333 -1210 -609 -1213 -612 -4 -4 9 -17 27 -30 61
-42 322 -231 391 -283 37 -28 78 -69 92 -91 45 -77 48 -192 8 -273 -15 -30
-643 -905 -662 -922 -4 -3 -10 -13 -16 -22 -5 -9 -74 -105 -152 -213 -79 -107
-143 -198 -143 -200 0 -3 283 -5 628 -5 l628 0 61 128 c54 110 160 333 238
497 41 86 125 157 230 196 20 7 153 10 395 10 230 -1 387 3 425 10 114 21 255
104 318 186 12 16 24 30 28 33 14 11 68 118 83 165 23 74 24 107 25 503 l1
362 285 0 c157 0 285 3 285 8 0 4 -29 52 -65 107 -35 55 -85 134 -110 175 -49
78 -65 104 -228 361 -54 85 -103 163 -110 173 -7 11 -58 92 -113 180 -56 89
-108 162 -115 162 -8 1 -557 -271 -1221 -605z m948 8 c140 -32 208 -96 179
-166 -44 -104 -319 -147 -467 -72 -128 65 -93 193 63 230 82 20 164 23 225 8z"/>
<path d="M0 704 l0 -704 704 0 703 0 1 205 c0 113 -3 206 -7 206 -3 1 -226 2
-496 3 l-490 1 -1 490 c-1 270 -2 493 -3 497 0 4 -93 7 -206 6 l-205 -1 0
-703z"/>
<path d="M6592 1396 c-4 -6 -7 -229 -7 -496 l0 -485 -495 0 -495 0 -1 -208 -1
-207 704 0 703 0 0 704 0 703 -200 0 c-137 0 -203 -3 -208 -11z"/>
</g>
</svg>
