<?xml version="1.0" standalone="no"?>
<!DOCTYPE svg PUBLIC "-//W3C//DTD SVG 20010904//EN"
 "http://www.w3.org/TR/2001/REC-SVG-20010904/DTD/svg10.dtd">
<svg version="1.0" xmlns="http://www.w3.org/2000/svg"
 width="587.000000pt" height="587.000000pt" viewBox="0 0 587.000000 587.000000"
 preserveAspectRatio="xMidYMid meet">
<metadata>
Created by potrace 1.11, written by Peter Selinger 2001-2013
</metadata>
<g transform="translate(0.000000,587.000000) scale(0.100000,-0.100000)"
fill="#000000" stroke="none">
<path d="M5258 5864 c-2 -1 -58 -5 -125 -9 -67 -3 -154 -7 -195 -10 -75 -5
-257 -15 -363 -20 -33 -1 -125 -6 -205 -10 -80 -4 -161 -8 -180 -10 -19 -2
-102 -6 -185 -10 -82 -4 -153 -9 -156 -11 -4 -2 -5 -37 -4 -76 4 -85 14 -260
20 -373 3 -44 7 -129 10 -190 3 -60 8 -146 10 -190 3 -44 7 -123 10 -175 3
-52 7 -135 10 -185 9 -148 14 -243 21 -385 4 -74 8 -148 9 -165 2 -16 3 -38 4
-48 1 -17 9 -18 94 -12 159 9 259 15 357 20 52 2 131 7 175 9 44 3 134 8 200
12 66 3 145 7 175 9 30 2 120 7 200 11 80 4 159 8 175 10 17 1 47 2 68 3 32 1
37 4 33 19 -3 9 -8 82 -11 162 -3 80 -8 163 -10 185 -2 22 -7 101 -10 175 -3
74 -8 164 -10 200 -2 36 -7 119 -10 185 -4 66 -8 149 -10 185 -2 36 -6 121
-10 190 -3 69 -8 150 -10 180 -2 30 -7 113 -10 185 -3 71 -8 131 -10 133 -4 5
-54 10 -57 6z"/>
<path d="M1847 5853 c-1 -1 -76 -4 -167 -7 -91 -4 -217 -8 -280 -11 -289 -12
-356 -15 -515 -21 -93 -3 -195 -7 -225 -9 -30 -1 -72 -3 -93 -4 l-37 -1 5 -97
c2 -54 7 -163 10 -243 11 -288 15 -397 20 -505 2 -60 7 -180 10 -265 3 -85 8
-198 10 -250 2 -52 7 -171 10 -265 3 -101 10 -172 16 -176 6 -3 23 -5 37 -3
15 1 110 5 212 9 102 3 228 8 280 10 100 4 280 11 538 21 87 3 186 7 222 9 36
2 91 4 122 4 l57 1 -4 133 c-3 72 -7 186 -10 252 -10 243 -15 366 -30 765 -5
135 -17 426 -20 510 -2 36 -3 84 -4 107 l-1 43 -81 -3 c-44 -1 -81 -3 -82 -4z"/>
<path d="M2271 5831 c-5 -3 -12 -87 -16 -186 -3 -99 -8 -225 -10 -280 -6 -131
-14 -366 -20 -535 -2 -74 -7 -184 -9 -245 -3 -60 -8 -184 -12 -275 -3 -91 -7
-191 -8 -222 -3 -47 0 -58 13 -59 9 -1 57 -2 106 -4 116 -3 381 -14 515 -20
117 -6 277 -12 540 -20 96 -3 201 -8 232 -10 38 -3 60 0 65 8 4 7 8 41 9 77 1
62 10 299 19 520 2 58 7 175 10 260 3 85 8 209 10 275 3 66 7 174 10 240 2 66
7 189 10 273 l7 152 -44 1 c-23 0 -74 2 -113 4 -80 3 -336 13 -535 20 -74 2
-180 7 -235 10 -55 3 -179 8 -275 11 -96 3 -194 7 -217 8 -24 1 -47 0 -52 -3z"/>
<path d="M1817 3914 c-1 -1 -33 -5 -70 -9 -37 -3 -76 -8 -85 -10 -9 -1 -48 -6
-87 -10 -38 -4 -82 -9 -98 -11 -15 -2 -51 -7 -80 -9 -28 -3 -86 -9 -127 -15
-88 -11 -143 -17 -225 -25 -33 -4 -71 -8 -85 -10 -27 -4 -93 -11 -180 -20 -30
-4 -66 -8 -80 -10 -14 -2 -52 -6 -85 -10 -199 -20 -187 -15 -180 -78 3 -29 8
-63 10 -77 2 -14 7 -52 10 -85 3 -33 7 -76 10 -95 2 -19 7 -56 10 -82 8 -72
14 -124 26 -223 11 -93 12 -103 24 -220 4 -38 9 -78 11 -88 2 -10 6 -48 9 -85
4 -37 8 -78 10 -92 4 -25 22 -176 31 -255 2 -22 6 -62 9 -90 3 -27 7 -61 10
-75 2 -14 7 -56 10 -93 4 -37 8 -78 11 -90 2 -12 5 -37 6 -55 l1 -34 61 7 c34
3 75 8 91 10 17 2 95 12 175 20 80 9 156 18 170 20 14 2 52 6 85 10 33 3 76 8
95 10 19 2 55 6 80 9 25 3 68 8 95 11 28 3 106 13 175 21 69 8 148 17 175 20
28 2 66 6 85 9 49 6 163 18 177 18 7 0 11 3 9 6 -2 3 -7 38 -10 76 -4 39 -9
81 -11 95 -4 26 -12 92 -20 175 -3 28 -7 66 -10 85 -2 19 -7 60 -10 90 -4 30
-8 66 -10 80 -2 14 -6 54 -10 90 -4 36 -8 76 -10 90 -2 14 -6 50 -10 80 -3 30
-7 71 -10 90 -2 19 -7 58 -10 85 -3 28 -7 66 -10 85 -3 19 -7 60 -10 90 -2 30
-7 73 -10 95 -7 58 -13 112 -20 180 -4 33 -8 70 -10 83 -2 13 -7 53 -11 90 -3
37 -8 74 -9 82 -2 8 -4 23 -4 33 -1 14 -9 17 -42 15 -22 -2 -41 -4 -42 -4z"/>
<path d="M3597 3884 c-1 -1 -60 -5 -132 -9 -197 -10 -421 -23 -515 -30 -30 -2
-109 -7 -175 -11 -66 -3 -138 -8 -160 -9 -22 -1 -96 -6 -165 -10 -69 -4 -138
-9 -155 -10 -16 -1 -52 -3 -79 -4 l-48 -1 6 -107 c4 -60 9 -142 11 -183 9
-139 14 -234 20 -335 3 -55 8 -127 10 -160 2 -33 7 -107 10 -165 3 -58 8 -134
10 -170 2 -36 7 -112 10 -170 3 -58 8 -132 10 -165 3 -33 8 -117 11 -186 3
-69 7 -134 8 -145 3 -21 2 -21 181 -10 61 4 144 9 185 11 119 7 261 16 315 20
28 2 106 7 175 10 69 3 152 8 185 10 33 2 107 7 165 10 58 4 123 8 145 10 22
2 60 4 84 4 l43 1 -7 118 c-3 64 -8 142 -10 172 -4 66 -13 222 -20 345 -2 50
-7 119 -10 155 -2 36 -7 112 -11 170 -3 58 -7 134 -9 170 -3 36 -7 110 -10
165 -3 55 -7 127 -10 160 -5 70 -18 300 -19 331 0 14 -7 20 -23 20 -13 0 -25
-1 -26 -2z"/>
<path d="M3939 3796 c0 -34 -2 -104 -4 -156 -4 -97 -12 -359 -20 -645 -3 -88
-7 -216 -10 -285 -2 -69 -7 -215 -11 -325 -3 -110 -7 -228 -8 -263 -2 -34 0
-65 4 -67 8 -5 143 -11 450 -20 340 -10 779 -25 918 -30 99 -4 102 -3 103 18
4 82 7 159 13 362 4 127 9 277 11 335 2 58 7 191 10 295 3 105 7 242 10 305 2
63 7 199 10 303 l5 187 -62 1 c-35 1 -85 2 -113 4 -27 1 -151 5 -275 9 -124 4
-274 9 -335 11 -60 2 -202 7 -315 10 -113 4 -244 8 -292 9 l-88 3 -1 -61z"/>
<path d="M3467 1864 c-1 -1 -63 -5 -137 -8 -74 -4 -169 -9 -210 -11 -77 -4
-202 -11 -390 -20 -58 -3 -141 -8 -185 -10 -68 -4 -295 -16 -375 -19 -21 -1
-24 -5 -23 -36 1 -32 6 -126 18 -355 2 -44 7 -134 10 -200 3 -66 7 -147 10
-180 3 -33 7 -112 10 -175 8 -171 15 -316 20 -395 2 -38 7 -133 11 -210 6
-127 11 -215 13 -239 1 -8 317 -3 506 9 39 2 122 6 185 10 63 3 151 7 195 10
44 2 136 7 205 11 69 3 145 8 170 9 25 2 80 4 122 5 43 2 82 8 86 14 5 6 8 25
7 41 -1 17 -5 86 -9 155 -4 69 -9 157 -11 195 -3 39 -7 120 -10 181 -2 61 -7
154 -10 205 -6 123 -13 256 -20 404 -4 66 -8 145 -10 175 -6 88 -18 341 -19
392 l-1 48 -78 -2 c-43 -2 -79 -3 -80 -4z"/>
<path d="M3909 1853 c-2 -11 -6 -108 -14 -338 -11 -327 -14 -414 -20 -625 -3
-113 -8 -248 -10 -300 -2 -52 -7 -187 -11 -300 -3 -113 -8 -208 -10 -211 -12
-20 40 -28 221 -33 110 -3 263 -8 340 -11 77 -3 208 -8 290 -10 253 -8 497
-16 563 -20 61 -3 62 -3 63 23 3 54 7 151 13 347 3 110 8 250 11 310 2 61 7
193 10 295 3 102 7 241 10 310 16 484 16 520 3 521 -35 2 -204 8 -398 14 -118
4 -264 9 -325 11 -60 2 -182 6 -270 8 -88 3 -229 8 -312 11 -84 4 -154 3 -154
-2z"/>
<path d="M563 1817 c-1 -37 -12 -361 -18 -527 -2 -63 -7 -209 -10 -325 -3
-116 -8 -245 -10 -288 -2 -43 -7 -185 -10 -315 -3 -130 -8 -251 -10 -267 -8
-59 -50 -53 485 -70 96 -3 229 -8 295 -10 66 -3 249 -8 408 -11 l287 -7 1 69
c1 38 3 101 4 139 4 97 14 400 20 580 4 141 7 215 20 605 3 85 8 212 10 283
l4 127 -72 1 c-40 1 -97 3 -127 4 -30 1 -152 5 -270 9 -118 4 -267 9 -330 11
-64 3 -201 7 -305 10 -105 3 -231 8 -281 10 l-91 5 0 -33z"/>
</g>
</svg>
