<svg xmlns="http://www.w3.org/2000/svg" viewBox="-10 0 800 1001"><path d="M23 1001v-45l84-15 14-9q-1-4-1-11 0-41 67-71l-54-196q-2-5-4-17t-2-18q0-26 16-48.5t47-22.5q15 0 31 6.5t27 19.5l150 168 15-92-31-242-115 102-29 1L-7 273l15-21 40 17-9-25-49-33 13-24 72 35 27 36 13 43 118 111 62-61q21-21 45.5-46.5T398 271l54-13-7-26-40 15-24-63-31-2q12-28 24.5-55T399 72q1-3 1-6.5t1-6.5q6-27 27.5-43T489 0q36 0 67 12t50 34.5Q625 69 625 99q0 28-16.5 55T565 218v38l103 25q26 6 33.5 25t11.5 33l77 240-34 41-163-65-12 159 20 2v190l49 35 85 15v45h-89l-136-38-197 29q-39 6-67.5 7.5T212 1001q-31 0-54-13l-47 13zm530-795q20-28 36.5-55.5T606 95q0-26-20-43t-47.5-25Q511 19 490 19q-25 0-44 10t-27 33l78 44q5-4 11-7t13-3q13 0 20 9.5t7 20.5q0 7-5.5 16.5T533 158l-14 18zM415 748l148-33 13-165-144-62 8-25 43 4-17-21-48-12 4-28 72 8 36 26 21 39 33 11 40-111 20 1 76 157-5 9-170-52-26-44-31-23-51-8-1 8 45 12 27 36-4 6-51-5-2 5q34 14 67.5 28t67.5 27q42 17 83 32.5t82 31.5l20-25-74-229q-4-13-11-28.5T665 298l-119-29v-47l-48-41 22-31q3-5 7-11.5t4-10.5q0-3-2-8.5t-9-5.5q-12 0-21 12l-85-48-40 91 19 1 20 55 45-15 15 62-76 16q-13 3-29.5 16t-32 29.5Q320 350 309 361l-74 74q-24-23-44-41t-40-36.5Q131 339 106 316l-19-52-22-32-53-28-4 7 47 31 14 42-6 5-46-21-4 5 228 219h19l136-118 35 275zm23-613q-11 0-19-3.5t-16-8.5q5-6 14.5-8t12.5-2q19 0 32 20-7 1-13 1.5t-11 .5zm260 387l-65-125-32 97zM204 842l44-22-61-184 28-63q-10-6-26-6-20 0-31.5 14.5T146 619q0 7 2 16.5t4 17.5zm62-30l123-56-158-175-24 54zm-38 109l356-20V731h-9l-169 36-220 102zm421 61h67v-14l-72-9-58-41-369 20-49-60q-29 15-29 41t12.5 39q12.5 13 30 18t31.5 5q16 0 47-2t54-5l207-28zm-607 0h67l31-8q-10-11-14-23l-12 8-72 9z" fill="currentColor"/></svg>