<svg xmlns="http://www.w3.org/2000/svg" viewBox="0 0 537.5 594.7"><path d="M441.2 240.9l-19.8 57.4c37.4 6.4 62.3 14.5 74.6 24.2-28-37-46.3-64.2-54.8-81.6zM295.8 453.2l-122.4-85.4H146c11.1 20.8 15.1 62.9 12.1 126.2l137.7-40.8zm97-5.8l-156.9 40.8c-61.6 32.3-94.4 55.5-98.2 69.5 39.5-17.9 81.4-20.5 125.6-8 44.2 12.5 81.6 9.9 112.2-8 20.9-26.7 26.6-58.1 17.3-94.3zM357.7 84c-1.7-2.6-.6-6.8 3.2-12.8 3.8-6 8.2-9.7 13.1-11.2s8.1-.9 9.6 1.9 1.2 6.7-1 11.8c-2.1 5.1-6.5 10.7-13.1 16.9-6.6 6.2-11.6 8.6-15 7.3-3.4-1.3-4.7-3.5-3.8-6.7.8-3.1 3.2-5.5 7-7.2zm12.1-15.9c-3.4 3-6 6.2-7.7 9.6-1.7 3.4-1.2 4.6 1.6 3.5 2.8-1.1 2.8.2 0 3.8-2.8 3.6-2.8 4.8 0 3.5 2.8-1.3 5.7-3.7 8.9-7.3 3.2-3.6 5.1-7.4 5.7-11.5.8-4.1-2.1-4.6-8.5-1.6zm-10.2-16c19.1-8.9 31.6-7.9 37.3 3.2 5.7 11.1 2.9 22.3-8.6 33.8-11.5 11.5-15.1 20.2-10.8 26.1 4.3 6.4 13.5 2.7 27.7-11.2 14.2-13.8 21.4-30.3 21.4-49.4 0-20-10.6-32.7-31.9-38.3s-39-6.6-53.2-3.2c-14.2 3.4-23.7 11.1-28.4 23 24.2 3.9 39.7 9.2 46.5 16zm-3.2 37c-2.6 1.7-3.3 3.4-2.2 5.1 1.1 1.7 2.5 1.8 4.5.3 1.9-1.5 1.1-3.3-2.3-5.4zm-62.5-11.5v-5.1l7-5.7c7.2-4.3 16.4-2.1 27.4 6.4l10.2.6v5.7L327.7 77c-11.1 4.7-21.3 4.7-30.6 0l-3.2.6zm6.4-5.1c1.7 1.3 3.8 2.3 6.4 3.2-1.7-2.6-1.7-4.9 0-7-3.8.9-6 2.1-6.4 3.8zm13.4 3.9c3.4 0 6.8-.4 10.2-1.3L315 70c1.7 2.5 1.3 4.7-1.3 6.4zm-30.6 23.5c-.4-1.3-.4-2.1 0-2.6.4-.4 1.1-.6 1.9-.6 1.3 0 2.7.9 4.1 2.6 1.5 1.7 2.8 2.3 3.8 1.9 1.1-.4 1.6-1.3 1.6-2.6s.3-2.1 1-2.6c.6-.4 1.2.4 1.6 2.6.4 2.1-.4 3.8-2.6 5.1-2.1 1.3-4.3.7-6.4-1.6-2-2.3-3.7-3-5-2.2zm15.3 15.3l-12.8 1.9c-1.3.9-1.7 1.6-1.3 2.2.4.6 1.5.7 3.2.3 1.7 0 3.7-.5 6.1-1.6 2.4-.9 3.9-1.9 4.8-2.8zm.6-1.9c.9-.4-.3-.7-3.5-1-3.2-.2-6.1-.5-8.6-1-2.6-.4-4-.2-4.5.6-.4.9 0 1.5 1.3 1.9l15.3-.5zm56.1-51c-12.3-8.9-28.3-14-47.8-15.3-2.1 2.6-4.7 6-7.7 10.2 8.1-2.6 15.7-1.8 23 2.2 7.2 4 13.4 6.3 18.5 6.7v4.5c-7.7-1.3-15.2-3.6-22.6-7-7.4-3.4-14.6-3.4-21.4 0-6.8 6.4-13.8 17.6-21 33.8 7.7 3 11.3 6.6 10.8 10.8 7.7.4 12.9 1.8 15.6 4.1 2.8 2.3-.7 6.1-10.5 11.2-2.6 12.3 4.1 17.6 20.1 15.9 15.9-1.7 23.9 6.2 23.9 23.6-.4 16.2-11.5 24.2-33.2 24.2-23.8 0-35.5 6.8-35.1 20.4-2.1 41.2-.1 66.1 6.1 74.6s24.8 63.1 55.8 163.9l59.9-13.4 5.7-113.5-21-14c-15.7 0-30.2-3-43.4-8.9-9.8-6.4-14-14.7-12.8-24.9l12.8-26.1c-7.2-8.1-8.3-14.5-3.2-19.1 26.4 15.7 45.1 34.4 56.1 56.1l15.9 7c15.3-43.4 25.5-71.2 30.6-83.5 5.1-12.3-.5-18.6-16.9-18.8-16.4-.2-27.5-.5-33.5-1-6-.4-8.7-17.6-8.3-51.6-1.7-4.7-4.5-10.2-8.3-16.6-3.8-6.4-2.1-12.8 5.1-19.1 7.2-6.4 13.1-14.1 17.5-23.3 4.5-9.1 3.6-15.2-2.6-18.2s-12.5-1-19.1 6.1c-6.3 7-9.4 6.7-9-1zm35.8 101.4c30.2-.4 52.5 8.1 66.9 25.5 38.3 59.1 64.8 109.2 79.7 150.5 0 9.8-6.4 15.7-19.1 17.9-17 0-51.6-8.5-103.9-25.5-2.6 28.9-4 62.1-4.5 99.5 14.5 34 13.8 66.5-1.9 97.6 16.6-12.8 28.5-8.1 35.7 14 7.2 22.1 20.8 30.9 40.8 26.5 20-4.5 35.5 3.9 46.5 25.2H0c3-10.2 9.6-15 19.8-14.3s20.4-1.3 30.6-5.7c10.2-4.5 21.3-7.8 33.2-9.9-1.7-33.6 10.6-53.8 37-60.6L102 371.6c-4.3-28.5 11.1-42.9 45.9-43.4 12.8 0 27.2 7.4 43.4 22.3l110.3 81.6c-23.8-82.9-38.8-129.5-45-140-6.2-10.4-9.2-22.6-9.2-36.7 3.4-11.5-12.3-1.5-47.2 30-28.5 25.1-49.3 36.6-62.5 34.4-17.4-5.1-44.8-40.8-82.3-107.1-14-8.9-27.4-17.2-40.2-24.9-8.5-7.2-11.5-15.9-8.9-26.1L23 137.6c-6-8.9-6.2-15.5-.6-19.8 23.8 19.6 39.5 40.4 47.2 62.5 3.4 9.8 15.7 25.5 37 47.2s34.9 38.7 40.8 51c31-31.9 63.1-61.6 96.3-89.3 10.2-17.4 35.7-26.1 76.5-26.1l-3.2-15.3c-4.3.9-10.8 1.1-19.8.6-8.5.4-12.8-3-12.8-10.2 0-7.7-1.4-12.3-4.1-14-2.8-1.7-3-3.5-.6-5.4 2.3-1.9 2.9-2.7 1.6-2.2-2.6-.4-4-1.5-4.5-3.2-.4-1.7.6-3.4 3.2-5.1-2.6-2.1-5.6-3.8-9.2-5.1-3.6-1.3-3.3-6.2 1-14.7 7.2-13.2 14-23.6 20.4-31.2 10.2-34 27.4-52.6 51.6-55.8 24.2-3.2 46.2-1.1 66 6.4 19.8 7.4 29.6 22.6 29.6 45.6 0 22.5-5.2 40.2-15.6 52.9s-21.6 21.5-33.5 26.1l.6 31.2z"/></svg>