<svg xmlns="http://www.w3.org/2000/svg" viewBox="-10 0 943.412 1001"><path d="M51.412 1001q-27-22-46.5-59.5t-13.5-78.5q6-44 27-61t46-18l60-460h-6l-45-51 28-67 10 7 8-16 20 9 24-184 29 3-25 193 11 4 27 36 13 43 123 100 115-88q17-14 38-24t53-18l54-13-6-26-41 15-24-63-31-2 50-110 2-13q8-28 28.5-43.5t58.5-15.5q37 0 67.5 12t49.5 34.5q19 22.5 19 52.5 0 28-16 55t-44 64v38l103 25q26 6 33 25t12 33l71 242-35 176v98l-42 13v13l-41 9v-76l15-43 14-189-61-185-41 158-12 159 20 2v190l50 35 84 15v45h-89l-135-38-198 29q-39 6-67.5 7.5t-33.5 1.5q-31 0-53-13l-47 13h-89v-45l84-15 14-9v-11q0-40 66-71l-54-196q-1-5-3.5-17t-2.5-18q0-26 15.5-48.5t47.5-22.5q15 0 31.5 6.5t27.5 19.5l149 168 15-92-58-249-137 105h-30l-180-143-7-16-57 440q24 7 41.5 29t10.5 67q-6 41-34 72.5t-60 45.5zm651-795q20-28 36.5-55.5t16.5-55.5q0-26-20-43t-47-25q-27-8-49-8-24 0-44 10t-27 33l79 44q4-4 10-7t13-3q13 0 20.5 9.5t7.5 20.5q0 7-5.5 16.5t-9.5 15.5l-14 18zm128 666l13-3v-15l35-11v-80l36-186-68-231q-4-13-10.5-29t-20.5-19l-119-29v-47l-49-41 23-31q3-5 6.5-11.5t3.5-10.5q0-3-1.5-8.5t-9.5-5.5q-11 0-20 12l-86-48-40 91 19 1 21 55 45-15 15 62-74 16q-46 10-83 39l-122 94-135-105-19-52-22-32-39-18-4 8 33 20 17 41-18 30 13 36 171 137h18l147-110h11l64 273-17 99 148-33 13-165 45-171 24 1 70 203-18 190-16 42zm-243-737q-11 0-19-3.5t-15-8.5q5-6 14.5-8t11.5-2q19 0 32 20-7 1-13 1.5t-11 .5zm-465 172l22-1 15-28-12-28-39-22-19 43zm231 535l44-22-60-184 28-63q-12-6-27-6-19 0-31 14.5t-12 37.5q0 7 2.5 16.5t4.5 17.5zm62-30l124-56-159-175-24 54zm-38 109l356-20V731h-8l-170 36-220 102zm-322 53q24-14 43.5-39.5t23.5-53.5q5-37-10.5-53t-35.5-19q-19-3-38 8.5t-24 49.5q-4 28 8.5 57.5t32.5 49.5zm743 8h67v-14l-72-9-58-41-368 20-50-60q-29 15-29 41t12.5 39q12.5 13 29.5 18t32 5q17 0 46-2.5t52-6.5l206-30zm-607 0h67l31-8q-10-11-14-23l-12 8-72 9z" fill="currentColor"/></svg>