<svg xmlns="http://www.w3.org/2000/svg" viewBox="0 0 456.5 594.5"><path d="M238.2 401.3c-38.6-8.9-82.8-17.2-132.6-24.7 21.2 12.7 32.4 46.6 33.9 101.6 33.3-31.5 66.2-57.2 98.7-76.9zm-83.3 148.1c13.6-21.2 36.4-37.5 68.4-49 32-11.5 60.7-23.6 86.1-36.3 34.8-34.3 44.9-63.7 30.3-88.2-26.3 5.2-52.4 14.1-78.3 26.8-43.7 24.9-88.9 63.2-135.4 115l28.9 31.7zm214.5-266.6l52.9 11.3-35.3-68.5c-4.2 7.1-10.1 26.1-17.6 57.2zm-5.5-103.9l-34 65.8 21.9 27.5c9.4-39 21.6-66.3 36.7-81.8-4.8-4.7-13.3-8.2-24.6-11.5zM95.7 78.2l29.6 20.5c13.6-24.9 27-48.4 40.2-70.5 2.4-4.2.7-8.2-4.9-12-5.2-3.3-9.4-3.3-12.7 0-15.5 20.2-32.9 40.9-52.2 62zM92.9 93c-7.5 16.5-9.2 26.1-4.9 28.9 3.3 2.4 11.5-2.6 24.7-14.8L92.9 93zm172.8 53.6c-7.1.9-13.2 1.1-18.3.4-5.2-.7-7.9-3.3-8.1-7.8s-1.1-8.3-2.5-11.6c-1.4-3.3-1.1-5.6 1.1-7.1 2.1-1.4 2-2.1-.4-2.1-1.4 0-2.2-.9-2.5-2.8s.6-3.8 2.5-5.6c-1.4-1.4-3.9-2.1-7.4-2.1-3.5 0-6.3-3.5-2.5-10.6 11.8-17.4 19.3-30.3 22.6-38.8 14.1-23 29.6-36.6 46.6-40.6 16.9-4 33.6-1.6 50.1 7.1s25.3 22.7 26.5 42c1.2 19.3-2.1 37.5-9.9 54.7-7.8 17.2-19.4 23.4-34.9 18.7-8 16 .9 19.6 26.6 20.7l24.2-46.1c11.3-20.7 26-27.5 44.1-20.5 18.1 7.1 18.9 25.9 2.5 56.4l-13.4-5.6c11.8-21.6 12.2-32.7 3.2-37.4-10.7-5.5-19.2 4.3-27.7 25l-16.8 31.4c13.1 2.4 21.1 11.3 30 18.3 10.8 8.5 28.7 47.7 53.6 117.8 5.6 21.6-1.9 31.3-22.6 28.9L365.8 306c-5.6 25.9-8.5 43.5-8.5 52.9v-.7c13.6 48.4 8.5 80.6-15.5 96.6 10.8-8 19.3-9.6 25.4-4.9 6.1 4.7 8.5 16.7 7.1 36L360.2 572l-2.1 22.6h-53.6v-13.4l27.5-3.5 4.9-84.6-187.6 101.4H45.6v-14.1l54.3-23.3c-5.2-14.6-2.6-27.7 7.8-39.5l-39.5-110c-5.2-17.4-3.8-30.4 4.2-39.1 8-8.7 25.2-10.5 51.5-5.3 43.7 8.5 87.5 16.2 131.2 23.3-1.4-39.5-3.5-69.9-6.3-91.3-2.8-21.4-12.5-44.3-28.9-68.8-8 17.4-21.6 37.6-40.9 60.7-16.5 20.2-31.3 22.6-44.4 7.1l-48.7-59.3-42.3-38.1-24 38.1c-4.7 6.1-8.9 8.9-12.7 8.5l-5.6-4.9c-2.4-3.3-1.2-8 3.5-14.1L33 187c-9.4-21.2-.5-32.7 26.8-34.6 14.1-22.6 21.4-44 21.9-64.2L65.5 79c-3.3-2.4-3.3-5.2 0-8.5L86 68.4 147.4.7c4.2-1.9 10.8.5 19.8 7.1 9.4 6.1 13.9 11.5 13.4 16.2L138 105l4.9 19.8c-1.9 4.2-4.5 5.2-7.8 2.8L121 114.9c-19.3 8-36 21.2-50.1 39.5 8 12.7 12.9 27.5 14.8 44.4 45.6 42.8 69.6 64.2 71.9 64.2v-1.4l50.1-72.7c20.2-16.9 41.6-26.3 64.2-28.2 2-5.1-.1-9.8-6.2-14.1zm50.1-12c-6.6-2.8-10.2-7.4-10.9-13.8-.7-6.3 2-12.3 8.1-18 6.1-5.6 11.1-12.5 14.8-20.5 3.8-8 3.1-13.3-2.1-15.9-5.2-2.6-10.3-1.9-15.5 2.1-5.2 4-8.5 3.6-9.9-1.1-16-7.5-25.7-11.4-29.3-11.6-3.5-.2-7.2 3.4-10.9 10.9 8-.9 16.1.7 24.3 4.9s9.8 7.1 4.6 8.5c-15.5-8.5-21.7-10.3-35.3-5.6l-14.1 23.2c7.1 3.8 9.8 8.8 5.6 13.5 5.6.5 9.6 1.8 12 3.9 2.4 2.1 0 5.1-7.1 8.8 0 8.5 6 12.1 18 10.9 12-1.2 18.2 5.2 18.7 19 .5 13.9-5.9 21.3-19 22.2-17.9 2.8-35 11.1-51.5 24.7 23 18.3 37.7 45.3 44.1 80.8 6.3 35.5 9.1 66 8.1 91.3l66.3-19c4.2-14.1 8.2-32.9 12-56.4-8.5-3.3-21.9-6.6-40.2-9.9L295.3 308l-14.8-7.8 11.3-19c-9.9-12.2-12.3-23.4-7.4-33.5 4.9-10.1 14.9-14 30-11.6l34-62.5-8.6-2.4c-23.1-.8-31.1-13-24-36.6zM251 84.3c3.9-8.5 8.9-8.2 14.3-8.7s11.2 1.8 20.1 7.5H296v3.5h-10.6c-6.1 4.2-13.5 4.9-19.4 5.4-5.8.6-10.3-2-15-7.7zm11.9-4c-1.4-.9-3.5 0-6.3 2.8 2.4 3.3 5.4 4.9 9.2 4.9-5.3-1.3-6.2-3.9-2.9-7.7zm2.8 7.8c4.7 0 9.6-.9 14.8-2.8-4.2-2.4-8.2-4-12-4.9 3.8 3.2 2.8 5.8-2.8 7.7zm38.1 2.1c-1.4-2.4-.5-6.2 2.8-11.6 3.3-5.4 6.9-8.7 10.9-9.9 4-1.2 6.6-.5 7.8 2.1 1.2 2.6.9 6.1-.7 10.6s-5.2 9.4-10.6 14.8c-5.4 5.4-9.6 7.5-12.7 6.3-3.1-1.2-4.2-3.1-3.5-5.6.7-2.6 2.7-4.8 6-6.7zm9.9-14.8c-2.4 3.3-4.2 6.3-5.6 9.2-1.4 2.8-1.1 3.8 1.1 2.8 2.1-.9 2.1.2 0 3.5s-2.1 4.5 0 3.5c2.1-.9 4.6-3.2 7.4-6.7 2.8-3.5 4.5-7.1 4.9-10.6.4-3.5-2.2-4.1-7.8-1.7zm-7.8-19.8c18.8-4.7 30-2 33.5 8.1s-.4 23.2-11.6 39.1c-11.3 16-10 24.5 3.9 25.4 13.9.9 23.3-12.6 28.2-40.6 4.9-28-3.9-46.1-26.5-54.3-22.6-8.2-41.9-3.9-57.8 13l30.3 9.3zm-2.8 38.8c-2.4 1.4-3.1 2.9-2.1 4.6.9 1.6 2.2 1.8 3.9.4 1.6-1.4 1-3.1-1.8-5z"/></svg>