<svg xmlns="http://www.w3.org/2000/svg" viewBox="-10 0 952 1068"><path d="M145 1068v-45l84-15 14-9q-1-4-1-11 0-41 67-71l-54-196q-2-5-4-17t-2-18q0-26 16-48.5t47-22.5q15 0 31 6.5t27 19.5l150 168 14-92-30-242-115 102-30 1-176-145-10-25-9-7-22 2-35 61q-18 32-35 70t-26 61l-56-33q17-19 42-52.5T74 445l37-66-17-34-2-13 19-44 14-7 8 4 10-15 26 12 48-83-17-56q-9-1-18-1.5t-17 .5l3-25h18.5l23.5 2q19-14 33-30.5T265 58l34-58 83 48-33 58q-6 11-13.5 31T324 185q8 11 13.5 20t8.5 16l-20 14q-3-5-7.5-13T308 205l-58 13-47 81 24 31 13 44 120 99 57-55q21-20 45.5-46t56.5-34l54-13-6-26-41 15-23-63-32-2 50-110 2-13q8-28 28.5-43.5T610 67q37 0 67.5 12t49.5 34.5q19 22.5 19 52.5 0 28-16 55t-43 64v38l58 15q74-80 173-127l10 21q-88 41-156 112l17 4q26 6 40 27t21 34l92 167-31 51-194-23-14 177 20 2v190l50 35 84 15v45h-89l-136-38-197 29q-39 6-67.5 7.5T334 1068q-31 0-54-13l-47 13zm162-900q4-20 11-39t15-32l25-42-52-30-25 42q-8 13-20 28.5T233 125q20 6 40 17 10 5 18.5 12t15.5 14zm367 105q20-28 37-55.5t17-55.5q0-26-20.5-43T660 94q-27-8-49-8-24 0-43.5 10T541 129l78 44q5-4 10.5-7t13.5-3q13 0 20 9.5t7 20.5q0 7-5.5 16.5T655 225l-14 18zM537 815l148-33 15-181-15-7-40 30-40-5-38-31-2-29 35-42 4 3 9-13 21 9q17-45 42-86.5t56-77.5l-64-16v-47l-49-41 23-31q3-5 6.5-11.5T652 195q0-3-1.5-8.5T641 181q-11 0-20 12l-86-48-40 91 19 1 21 55 45-15 15 62-77 16q-13 3-29.5 16t-32 29.5Q441 417 430 428l-67 68-132-107-19-52-17-25-49-28-5 9 45 29 11 33-24 36 15 8 7 20 168 140h18l125-108h13l34 265zM237 202l56-13q-12-12-33-25-10-6-19.5-10t-18.5-6zm323 0q-11 0-19.5-3.5T525 190q5-6 14.5-8t11.5-2q19 0 32 20-7 1-12.5 1.5t-10.5.5zM145 386l17-1 19-35-8-23-48-31-17 35 1 9 16 34zm755 224l21-34-85-154q-7-13-21-33.5T787 365l-29-6q-33 36-59.5 78.5T655 526l39 17 18 2 27-99h17l104 104-3 16-169-7-38-20-5 15 2 2-7 9-37-32-25 31 1 16 30 25 34 4 42-31 27 11zm-61-60l-88-87-21 83zm-213-11q2-8 3-11l-10-5-4 6zM326 909l44-22-61-184 28-63q-10-6-26-6-20 0-31.5 14.5T268 686q0 7 2 16.5t4 17.5zm62-30l123-56-158-175-24 54zm-38 109l356-20V798h-9l-169 36-220 102zm421 61h67v-14l-72-9-58-41-369 20-49-60q-29 15-29 41t12.5 39q12.5 13 30 18t31.5 5q17 0 47.5-2t53.5-5l207-28zm-607 0h67l31-8q-10-11-14-23l-12 8-72 9z" fill="currentColor"/></svg>