<svg xmlns="http://www.w3.org/2000/svg" viewBox="0 0 477.6 594.7"><path d="M263.7 475l-103.5-72.3H137c9.7 17.6 13.3 53.2 10.8 106.8L263.7 475zm82.5-4.8L213 504.7c-52.1 27.3-79.8 46.9-83 58.8 33.4-15.1 68.8-17.3 106.2-6.7 37.4 10.6 69 8.4 94.9-6.7 17.6-22.8 22.6-49.4 15.1-79.9zM316 162.8c-1.4-2.2-.5-5.8 2.7-10.8 3.2-5 6.9-8.2 11.1-9.4 4.1-1.3 6.8-.7 8.1 1.6 1.3 2.3 1 5.7-.8 10s-5.4 9.1-10.8 14.3c-5.4 5.2-9.6 7.3-12.7 6.2-3.1-1.1-4.2-3-3.5-5.7.7-2.7 2.6-4.7 5.9-6.2zm10.2-14c-2.9 2.9-4.9 5.8-6.2 8.6-1.3 2.9-.7 3.9 1.6 3 2.3-.9 2.3.2 0 3.2-2.3 3.1-2.3 4 0 3 2.3-1.1 4.9-3.1 7.5-6.2 2.7-3.1 4.2-6.3 4.6-9.7.4-3.4-2.1-4-7.5-1.9zm-8.6-12.9c16.2-7.5 26.7-6.6 31.5 2.7 4.9 9.3 2.4 18.9-7.3 28.6-9.7 9.7-12.6 17.1-8.6 22.1 3.2 5.4 10.9 2.2 22.9-9.4 12-11.7 18.1-25.8 18.1-42.3s-9-27.1-27-31.8c-18-4.7-33-5.6-45-2.7-12 2.9-20 9.3-24 19.4 20.5 3.1 33.6 7.6 39.4 13.4zm-2.2 31.3c-2.2 1.4-2.9 2.9-2.2 4.3.7 1.4 1.9 1.5 3.5.3 1.7-1.3 1.2-2.8-1.3-4.6zm-52.8-9.7v-4.3l5.4-4.9c6.1-3.6 13.8-1.8 23.2 5.4l9.2.5v4.9l-9.7-2.2c-9.3 4-17.8 4-25.3 0l-2.8.6zm4.8-4.4c1.4 1.1 3.2 2 5.4 2.7-1.4-2.2-1.4-4.1 0-5.9-2.8.7-4.6 1.8-5.4 3.2zm11.4 3.3c2.9 0 5.8-.4 8.6-1.1l-7.5-4.3c1.4 2.1 1 3.9-1.1 5.4zm-25.9 19.9c-.4-1.1-.3-1.8.3-2.2.5-.4 1.2-.5 1.9-.5s1.7.7 3 2.2c1.3 1.4 2.4 2 3.5 1.6 1.1-.4 1.5-1.1 1.3-2.2-.2-1.1.1-1.8.8-2.2.7-.4 1.2.4 1.3 2.2.2 1.8-.6 3.2-2.4 4.3-1.8 1.1-3.5.6-5.1-1.3-1.7-2-3.2-2.6-4.6-1.9zm13.5 13l-11.3 1.6c-.7.7-.9 1.3-.5 1.9.4.5 1.3.6 2.7.3 1.4 0 3.1-.4 5.1-1.3 1.9-1 3.2-1.8 4-2.5zm.5-1.7c.4-.4-.8-.6-3.5-.8-2.7-.2-5-.4-7-.8s-3.2-.2-3.8.5c-.5.7-.1 1.3 1.3 1.6l13-.5zm47.4-43.1c-10.8-7.5-24.4-11.9-41-12.9-1.8 2.2-4 5-6.5 8.6 6.8-2.2 13.3-1.5 19.4 1.9 6.1 3.4 11.3 5.3 15.6 5.7v3.8c-6.5-1.1-12.8-3.1-18.9-5.9-6.1-2.9-12-2.9-17.8 0-6.1 5.4-12 14.9-17.8 28.6 6.1 2.5 9 5.4 8.6 8.6 6.5.7 10.9 2.1 13.2 4 2.3 2-.4 5.1-8.4 9.4-2.2 10.4 3.4 14.9 16.7 13.5 13.3-1.4 20 5.8 20 21.6-.4 12.6-10.2 18.9-29.4 18.9s-28.5 5.8-27.8 17.3c-2.2 34.9-.6 55.9 4.6 63.1 5.2 7.2 20.9 53.4 47.2 138.6l50.7-11.3c1.8-63.3 9.4-113.6 22.9-151 13.5-37.4 12.9-56.3-1.6-56.6-14.6-.4-24.4-.7-29.4-1.1s-7.4-14.9-7-43.7c-1.4-4-3.8-8.6-7-14s-1.8-10.8 4.3-16.2c6.1-5.4 11.1-12 15.1-19.7 4-7.7 3.2-12.9-2.2-15.4s-10.9-.8-16.4 5.1c-5.3 5.9-7.8 5.6-7.1-.9zM78.7 100.3c-7.7-47.8-5.2-53.8 37.7-51.8 3.6-7.2 8.8-8.8 15.6-4.9-4.3 23.4-13.3 42.4-27 57.2 6.8 47.8 10.6 84.8 11.3 111.1 43.1 10.4 79.4 18.3 108.9 23.7 11.5-4 31.1-4.7 58.8-2.2l-2.2-16.7c-3.6.7-9.3.9-17.3.5-7.2.4-10.8-2.5-10.8-8.6 0-6.5-1.2-10.4-3.5-11.9-2.3-1.4-2.5-3-.5-4.6 2-1.6 2.4-2.2 1.3-1.9-2.2-.4-3.4-1.3-3.8-2.7s.5-2.9 2.7-4.3c-1.8-1.8-4.3-3.2-7.5-4.3-3.2-1.1-3.1-5.2.5-12.4 6.1-11.1 11.9-20 17.3-26.4 8.6-28.8 23.2-44.6 43.7-47.4 20.5-2.9 39.2-1.1 56.1 5.4s25.3 19.4 25.3 38.8c0 19.1-4.5 34-13.5 44.8-9 10.8-18.3 18.2-28 22.1v26.4c25.5-.4 44.4 4.9 56.6 15.6 32 46.4 52.7 84.8 62 115.4 5.8 32.7 1.8 75.5-11.9 128.3 4.7 14.4 7 26.8 7 37.2 0 10.1-9 15.1-27 15.1-2.2 14.7-5.1 22.2-8.9 22.4-3.8.2-5.7-9.1-5.7-27.8s4.1-34.1 12.4-46.4c.7-53.9 3.6-91.5 8.6-112.7-26.6-39.9-43.7-64.9-51.2-74.9-16.5 40.3-25.2 91.7-25.9 154.2 12.2 28.8 11.7 56.3-1.6 82.5 14.4-10.8 24.5-6.8 30.5 11.9 5.9 18.7 17.3 26.2 34.2 22.4 16.9-3.8 30 3.3 39.4 21.3H13.5c2.9-9 8.6-13.1 17.3-12.4s17.2-.8 25.6-4.6c8.4-3.8 17.7-6.6 27.8-8.4-1.4-28.4 9-45.5 31.3-51.2L99.7 406c-3.6-24.1 9.3-36.3 38.8-36.7 10.8 0 23 6.3 36.7 18.9l93.3 69c-19.8-70.1-32.4-109.5-37.7-118.4-5.4-8.8-8.1-25.1-8.1-48.8-17.6-13.3-40.4-22.6-68.5-27.8-28-5.2-53.7-16.3-77.1-33.2-5-31.8-4.5-74.8 1.6-128.7zm398.9-18.9c0 3.6-13.1 6.5-39.4 8.6-26.2 2.2-34.6-5.1-70.2-9.2s-111.1 4.5-179.4 13.5c-56.1 4.3-92.5 1.1-109.2-9.7C62.8 73.9 45.3 70.8 27 75.5 9 74.4 0 69 0 59.3s5.9-18 17.8-24.8C2.7 19.4-.4 9.2 8.6 3.8 18 .9 25.3 9 30.7 28 36.5 9 42.7-.3 49.3 0s10.3 3.4 11.1 9.2c.7 5.8-5 18.5-17.3 27.1 17.2 2.3 28.1 6.8 39.7 15.6 24.8 14.4 63.6 18 103.8 12.2 85.2-8.6 161.8-14.6 187-8.1 25.2 6.5 33.5 11.3 67.3 14.6 15.5 1.8 27.7 5.4 36.7 10.8z"/></svg>