<svg xmlns="http://www.w3.org/2000/svg" viewBox="-10 0 863 1102"><path d="M11 1102v-45l81-12 37-11 20-28q8-34 17-73.5t17.5-76.5q8.5-37 14.5-64t9-37q11-44 32-65 6-6 23.5-11t27.5-5q37 0 76.5 19.5t72.5 48q33 28.5 53 54.5l11-71-3-12-23 32-23-19 37-51v-2l-9-7-3-28 3-3-30-133-97 110-199 7-15 18-33 6v347H60q0-39-12.5-63.5T24 879q-12-26-23-55.5T-10 751q0-37 15.5-72T38 614q-2-10-1.5-19.5T41 571l8-3-1-4q-12-17-25.5-46.5T-.5 453q-9.5-35-9.5-67 0-43 11-72.5T24 258q11-23 23.5-47.5T60 147h48v379l39 5 25 25 141-19 80-120q12-18 37-27.5t57-17.5l55-13-7-26-30 11-53 35-18-40 52-13-15-41-31-2 49-110 2-13q8-28 28.5-43.5T579 101q20 0 42 5 8-12 16.5-27T657 50q22-28 36-39t32-11q16 0 22.5 7.5T754 26q0 16-17.5 23.5T706 58q2 4 4.5 14.5t2.5 22q0 11.5-7 16.5-11 9-30 4.5T644 105l-4 6q32 11 53 34t21 55q0 28-13.5 63T660 335l-14-4-1 26 65 14 70-99 24 17-64 89 17 4q27 6 34.5 25t12.5 39l49 196-34 41-137-8-4 90v158h33l20 93q4 20-2 36t-17 23q-7 5-21.5 11.5t-29.5 11q-15 4.5-24 4.5l-14-39 29-15q9-4 8-10t-5-14l-16-34-210 83q-40 16-71 22.5t-48 6.5q-35 0-61-20.5t-26-57.5q0-5 1-8-4 6-7.5 11.5t-5.5 8.5l-9 66zM686 45q5-1 17-2.5t21.5-5.5q9.5-4 9.5-11 0-10-11-8-15 1-37 27zm6 51q6-7 0-24t-8-24q-7 9-15.5 19.5T652 91q9 4 19.5 6.5T692 96zm-40 218q20-28 32-59t12-59q0-26-20-43t-47.5-25q-27.5-8-48.5-8-25 0-44 10t-27 33l78 44q5-4 11-7t13-3q13 0 20 9.5t7 20.5q0 7-5.5 16.5T623 259l-14 18zM60 540l26-9V169h-7q-2 31-13 53l-22 44q-11 23-21.5 52.5T12 386q0 44 15.5 86T60 540zm435 79l20-23 4 3 9-15 21 9 150-207-72-16 1-52-41-36 23-31q3-5 7-11.5t4-10.5q0-3-2-8.5t-10-5.5q-11 0-20 12l-85-48-41 91 20 1 20 55 45-15 15 62-77 16q-19 4-44.5 14.5T406 429l-85 127-154 14-26-25-33-2v11l36 14 10 34 16-1 179-8 113-128zm33-383q-11 0-19-3.5t-16-8.5q5-6 14.5-8t12.5-2q20 0 31 20-7 1-12.5 1.5t-10.5.5zm30 451l42-31 213 7 20-26-46-190q-3-13-10.5-29T755 399l-26-6-153 212 32 17 67-6 36-136 23 1 45 136-5 8-169 13-37-20-9 12 8 8-7 8-42-34-26 31 2 15 30 26zm135-72l63-6-33-111zM75 562l11-2v-12l-18 5zm33 68l23-7 11-13-12-33-22-10v1l-55 11v14l4 17 16 8zm430-19l5-7-11-5-3 4zM79 967h7V638l-20-6-11-8q-14 28-28.5 60T12 751q0 39 10 67.5T44 871q11 23 22 44t13 52zm430-174l152-32 4-87-62-3-44 32-39-5-6-5-1 1 8 30zM30 1083h156q1-7 3-22t3-25q11-17 24.5-44t24.5-53.5q11-26.5 17-42.5 11-29 17-64t7-61l11-5q15 4 34 25t35.5 45q16.5 24 24.5 36l90-63q-20-25-50-51.5T362 712q-35-19-72-19-7 0-21.5 5.5T250 708q-9 9-15 23.5T224 765q-3 9-9 35.5t-14.5 63q-8.5 36.5-17.5 76t-17 74.5l-26 34-42 12-68 9zm290-67q75-41 163.5-63.5T659 924V780l-157 35-216 152zm-76-41q7-7 16-14t21-15l91-64q-7-10-20-28.5t-27.5-36Q310 800 298 793q-1 27-7.5 57.5T276 903q-4 10-12.5 30T244 975zm404 111q13-5 30.5-13t24.5-13q8-7 11-19.5t0-24.5l-18-74q-98 1-194.5 24.5T316 1039l-45-59q-29 16-29 45 0 26 21 41.5t49 15.5q16 0 49-8t68-22l217-86 25 54q6 13 4.5 23.5T667 1058l-25 13z" fill="currentColor"/></svg>