<svg xmlns="http://www.w3.org/2000/svg" viewBox="0 0 402.9 594.3"><path d="M202.5 417c-35.4-8.2-75.9-15.7-121.7-22.6 19.4 11.6 29.8 42.7 31.1 93.2 30.7-28.9 60.9-52.4 90.6-70.6zm-76.3 135.9c12.5-19.4 33.4-34.4 62.8-45s55.6-21.7 78.9-33.3c31.9-31.5 41.2-58.5 27.8-80.9-24.2 4.7-48.1 12.9-71.8 24.6-40.1 22.9-81.5 58-124.2 105.5l26.5 29.1zm103.5-342.3c-16.4 2.6-29 8.5-44 21.1 40.7 23.6 47.6 129.8 46.7 159.9l63.6-19.1c3.9-12.9 4.8-27.8 8.2-49.4-7.8-3-22.6-8-40.5-12.5s-26.4-10.9-25.6-19.1c.4-7.3 2.2-13.6 5.2-18.8 3-5.2 7.9-8.8 14.6-11 6.7-2.2 25.8 11.7 51.6 38.5 8.6-35.8 17.1-62.4 30.9-76.7-12.5-8.2-27.4-14-44.6-17.5-25.1 13.9-47.1 15.4-66.1 4.6zm93.2 97.7l48.5 10.4-32.4-62.8c-5.5 5.2-10.9 22.7-16.1 52.4zM214.8 107.1c-11.6 11.6-18.8 22-21.4 31.1 9.9 2.2 12.5 6.3 7.8 12.3 10.4.4 15.5 2.2 15.5 5.2 0 1.3-5 2.6-14.9 3.9 3 2.6 3.9 6.7 2.6 12.3 1.3 3.5 4.7 4.3 10.4 2.6 15.5-7.3 25.5-7 29.8 1 4.3 8 4.1 16.3-.6 24.9 11.2 4.7 22.6 3.7 34.3-3.2-12.1-16.4-18.8-32.4-20.1-47.9v-.6c11.2-9.5 16.8-16.6 16.8-21.4-1.7-2.2-3.5-3.2-5.2-3.2-4.3 3.9-8.6 4.6-12.3 5.8-8.7 2.8-10.8-5.8-12.3-16.2-6.3-4.8-24.8-5.7-30.4-6.6zm-4.5 13.6c4.3-9.1 14.2-8.6 29.8 1.3-15.6 8.2-25.5 7.7-29.8-1.3zM46.6 249.5C41 246 36.2 242 32.4 237.2c-10.4 16-15.5 34.1-15.5 54.4 0 20.3 9.9 38.2 29.8 53.7v-95.8zm16.2-18.2c41.8 39.3 63.8 58.9 66 58.9v-1.3l45.9-66.6c18.5-15.5 38.2-24.2 58.9-25.9 3.9-9.9 3.7-16.2-.6-18.8-8.6 0-13.8 1.9-15.5 5.8-9.9 13.8-16.2 20.7-18.8 20.7-4.7 0-7.8-2.4-9.1-7.1l8.4-26.5c-4.3-6-5.6-11.6-3.9-16.8.4-4.3-1.1-6.9-4.5-7.8-1.7-.9-4.3-1.8-7.8-2.9-3.5-1.1 2.2-11.8 16.8-32 6.9-8.2 16-18.2 27.2-30.1C237 69 258 67 288.6 74.7l60.2-64.1C363.4-2.3 374.2-3 387 6.2c13.8 9.9 12.8 19.6 6.1 29.1-6.7 9.5-15 12.1-24.9 7.8L332 103.9c-6.9-19-13.8-28.5-20.7-28.5l-6.5 7.1c3 2.2 6.8 7.5 11.3 16.2 4.5 8.6 5.3 19.7 2.3 33.3-3 13.6-11 24.7-23.9 33.3-12.9 8.6-14 17-3.2 25.2 16 4.3 36.2 12.5 60.8 24.6 9.9 8.6 26.3 45.1 49.2 109.4 5.2 19.8-1.7 28.7-20.7 26.5l-60.8-21.4c-5.2 23.7-7.8 39.9-7.8 48.5v-.6c12.5 44.4 7.8 74-14.2 88.6 9.9-7.3 17.7-8.8 23.3-4.5 5.6 4.3 7.8 15.3 6.5 33l-12.9 78.9-1.9 20.7h-49.2v-12.3l25.2-3.2 4.5-77.6L121 594.3H25.9v-12.9L75.7 560c-4.7-13.4-2.4-25.5 7.1-36.2L46.6 422.9c-4.7-16-3.5-27.9 3.9-35.9 7.3-8 23.1-9.6 47.2-4.9 40.1 7.8 80.2 14.9 120.4 21.4 5.5-42.6-13.3-145.2-32.4-146.9-7.3 16-19.8 34.5-37.5 55.6-15.1 18.5-28.7 20.7-40.8 6.5l-44.6-54.4v113.2C20.9 356 0 327.1 0 290.9c0-27.6 5.6-48.7 16.8-63.4l-.6-2.6c-6.5-16.8-5.6-27.8 2.6-33v1.3C6.3 178.5 0 156.1 0 125.9c0-36.2 20.9-65.8 62.8-88.6v194zm-16.2-35.6V71.5C26.7 87 16.8 105.8 16.8 127.8s6 40.1 18.1 54.4l11.7 13.5zm270.2-132c12.9 1.3 14.9 3.3 17.1 14.1L363.7 30c11.2 5.2 14.8 3.4 18.7-.4 3.9-3.9 6.5-10.2-2.4-14.3-10-4.6-10.1-3.9-21.7 2.7l-41.5 45.7zm-79.3 258.9l122.3-218.1 16.8 9.1L254 333.5l-16.5-10.9zm64-187c-16.8-21.1-37.5-38.2-62.1-51.1-5.6 2.6-9.7 6.5-12.3 11.6 22.4 3.5 32.6 6.4 30.4 22 3.9-3 7.8-4.5 11.6-4.5 9.9.4 15.2 4.4 16.1 13.4 1.2 12.7-4.9 12.1-13.5 22.8 2.2 8.6 6.8 10.6 13.9 5.8 7.2-4.7 12.5-11.4 15.9-20zm3.9-11.7c.9-15.5-3-27-10.8-31.4l-9.1 10.1 19.9 21.3zm-32.6-31.3l8.3-8.8c-7.8-3-16-4.3-24.6-3l16.3 11.8z"/></svg>