<svg xmlns="http://www.w3.org/2000/svg" viewBox="0 0 413 594.4"><path d="M360.4 287.5c11.5-6.6 16.7-14.3 15.6-23-1.1-8.8-4.8-11.1-11.1-7s-7.8 14.1-4.5 30zm11.5 32.1c1.1 34 4.1 52.4 9 55.1 4.9 2.7 9 1.6 12.3-3.3 3.4-4.9-3.8-22.2-21.3-51.8zM44.5 559.8c1.6 10.4 7.1 16 16.5 16.9s24.4-6.7 45.2-22.6c42.2-28.5 87.2-63.6 134.9-105.3 6.6-7.1 9.9-14.5 9.9-22.2 0-8.2-7.1-22.5-21.4-42.8-19.2 4.4-54.7 31.4-106.5 81-51.9 49.7-78.1 81.3-78.6 95zM19.8 403.5c43.9 48.8 66.9 73.8 69.1 74.9 20.3-20.3 44.7-42.2 73.2-65.8-20.3-15.4-60.3-25-120.1-28.8-18.1-1.7-25.5 4.9-22.2 19.7zM121 566.4c2.2 3.8 8.4 5.6 18.5 5.3 10.1-.3 29.9-12.3 59.2-36.2 29.3-23.9 45.4-38.5 48.1-44-48.8 19.8-90.7 44.8-125.8 74.9zm1.6-510.9c28 1.1 44.4 4.7 49.4 10.7 2.7-4.9 7.5-7.7 14.4-8.2 6.9-.5 11.7 3.8 14.4 13.2 1.1 5.5-1.4 14.8-7.4 28 8.8 10.4 17.8 14 27.1 10.7 13.7-10.4 17-27.8 9.9-52.2s-24.7-36.9-52.7-37.4-46.3 11.1-55.1 35.2zm-4.1 31.3c1.1-13.2 12.3-16.2 33.7-9-17 13.1-28.2 16.1-33.7 9zm53.5-8.2C143.5 66 125.4 63.8 117.7 72c-11 26.3-13.2 38.7-6.6 37 6.6-1.6 11.8 3.6 15.6 15.6 2.7 8.8 6.6 13.4 11.5 14 18.1-11 31.9-11 41.5 0 9.6 11 7.3 26.1-7 45.2-15.4 18.1-25.9 34.3-31.7 48.5-5.8 14.3 7.8 65.3 40.7 153 6.6 0 21.1-6.3 43.6-18.9v-.8c-4.9-30.7-7.4-50.5-7.4-59.2 0-41.1 15.1-87.2 45.2-138.2-15.4-15.9-33.7-24.7-55.1-26.3-14.3-13.7-23.9-27.4-28.8-41.1 8.2-13.7 11.7-22.9 10.3-27.6-1.4-4.7-3.7-4.8-7-.4-3.1 4.4-6.7 6.3-10.5 5.8zm55.9-49.4c8.8-5.5 12.1-10.8 9.9-16-2.2-5.2-5.2-6-9-2.5-3.9 3.6-4.2 9.7-.9 18.5zm6.6 5.8c9.9 4.9 18.1 17.6 24.7 37.8l-14.8 2.5c.5 24.1-7.1 39.5-23 46.1l-9 4.9 32.9 9c33.5 9.3 52.4 17.8 56.8 25.5 7.7 6.6 22.8 39.5 45.2 98.7 7.1-17 16.6-23.4 28.4-19.3 11.8 4.1 17.6 12.2 17.3 24.3-.3 12.1-6.7 21.9-19.3 29.6l39.5 83.1v1.6l-33.7 14 3.3 10.7-18.1 4.9c-1.6-53.2-2.5-82.8-2.5-88.8-3.3 19.7-9 47.4-17.3 83.1 9.3 4.9 15.4 11.1 18.1 18.5 2.7 7.4 5.6 12.6 8.6 15.6s4 5.3 2.9 7c-1.6 1.6-3.6 1.6-5.8 0-2.2-1.6-4.4-4.4-6.6-8.2-2.2-3.8-4.1-6.6-5.8-8.2-1.1-1.1-2.1-1.5-2.9-1.2s-1 1.5-.4 3.7c4.4 9.3 8.6 15.5 12.8 18.5 4.1 3 9.5 7.8 16 14.4 1.6 1.6 2.1 2.9 1.2 3.7-.8.8-1.8 1.2-2.9 1.2.5 2.7-.8 3.6-4.1 2.5 1.1 3.3 0 4.4-3.3 3.3.5 2.2 0 3.3-1.6 3.3-1.1 0-2.2-.3-3.3-.8-4.4-5.5-9.5-10.4-15.2-14.8-5.8-4.4-9.7-8.2-11.9-11.5-3.3-4.9-5.8-10.7-7.4-17.3-1.6-6.6-3.8-13.7-6.6-21.4 0-26.3 2.5-55.4 7.4-87.2-3.3 17-10.4 45.5-21.4 85.6 7.7 8.2 11.2 16.7 10.7 25.5s0 15.5 1.6 20.2c1.6 4.7 1.4 7.3-.8 7.8-2.2 1.1-4.1.4-5.8-2.1s-2.5-6-2.5-10.7c0-4.7-.5-8.6-1.6-11.9-1.1-1.6-2.2-2.5-3.3-2.5-1.1 0-1.6 1.4-1.6 4.1.5 11 1.9 19.1 4.1 24.3 2.2 5.2 5.5 12.5 9.9 21.8.5 2.2.3 3.6-.8 4.1-1.1.5-2.5.5-4.1 0 0 2.7-1.4 3.3-4.1 1.6-.5 3.3-2.2 3.6-4.9.8-1.1 2.7-2.2 3.6-3.3 2.5-1.6-.5-2.7-1.6-3.3-3.3-2.2-6.6-5.3-13.4-9.5-20.6-4.1-7.1-6.2-12.9-6.2-17.3-.5-6-.3-12.8.8-20.2 1.1-7.4 3.3-15.2 6.6-23.4 2.2-59.2 9-97.3 20.6-114.4 4.4-4.9 6.6-11 6.6-18.1 0-7.7-5.3-20.2-16-37.4-10.7-17.3-20.4-33-29.2-47.3-11.5 6-22.5 26.6-32.9 61.7-4.4 19.2-6.6 38.1-6.6 56.8 0 27.4 6 54 18.1 79.8 11 11.5 16.5 30.7 16.5 57.6 9.3 7.1 14 14.5 14 22.2l-1.6 19.7c8.8 14.8 13.2 26.1 13.2 33.7 0 19.2-11.5 40.9-34.6 65-8.8 3.3-13.2 1.4-13.2-5.8 11-18.1 16.5-37.6 16.5-58.4-1.1-11.5-5.5-17.3-13.2-17.3-68 57-108.3 85.8-120.9 86.4H56c-16.5 0-28-9-34.6-27.1 0-13.7 17.3-38.7 51.8-74.9-2.2-8.2-24.7-33.2-67.5-74.9-7.1-8.2-7.7-20-1.6-35.4 6-15.4 17-21.7 32.9-18.9l123.4 20.6c-18.1-41.7-32.6-87.5-43.6-137.4 8.8-24.1 19.7-44.2 32.9-60.1 13.2-15.9 17.3-29.3 12.3-40.3-15.4 0-26.1 11.8-32.1 35.4l-18.9-5.8c9.9-14.8 13.7-26.1 11.5-33.7-3.3-5.5-5.9-11.2-7.8-17.3-1.9-6-5.9-8.2-11.9-6.6-9.3-3.3-8.2-18.4 3.3-45.2-1.6-4.9 1.8-16.6 10.3-35s29.2-28.1 62.1-29.2c16.5.5 28.8 3.3 37 8.2 2.7-11.5 8.4-17.1 16.9-16.9 8.5.3 13.4 4.7 14.8 13.2 1.4 8.7-2.8 15.9-12.7 22z"/></svg>