<svg xmlns="http://www.w3.org/2000/svg" viewBox="-10 0 792.143 1001"><path d="M77 1001q-36 0-61.5-20.5T-10 923q0-21 12.5-39T47 845l211-147 6-75q-5-32-10.5-69T243 482.5q-5-34.5-8-61t-3-36.5q0-5 2-21.5t9.5-37q7.5-20.5 22.5-39t42-29.5l-6-26-29 11-29 57-37-25 47-47-17-44-31-2 50-110 2-13q7-28 28-43.5T345 0q36 0 67 12t50 34.5Q481 69 481 99q0 28-16 55t-44 64v38q16-1 32 0t35 6q21 5 44 31t46 64q23 38 44 81-4-8-6.5-18t-2.5-21q0-24 14.5-45.5T675 332q24 0 36.5 10.5t17 25.5q4.5 15 4.5 29 0 26-20.5 48T674 480l99 43q8 4 9 13.5t-5 16q-6 6.5-19 1.5l-50-27 41 58q4 10-3 17t-16 8.5q-9 1.5-12-3.5l-72-111q13 45 19 77t7 61.5q1 29.5 0 66.5l42 97-27 12-20-39-6 21 25 55-31 15-41-69 11-48-8-32-8-33-16 36v105h-30l-3-44-14 17 1 61-34 1-10-80 28-40q8-42 16.5-88.5T565 558q-3-8-4.5-16.5t.5-13.5l3-3q-17-32-36-61.5T488 410l-39 145-5 109v158h34l20 93q5 20-1.5 35.5T478 974q-7 5-21.5 11.5t-29 11Q413 1001 404 1001l-14-39 29-15q8-5 7-10.5t-5-13.5l-15-34-211 83q-40 16-71 22.5t-47 6.5zm332-795q20-28 36.5-55.5T462 95q0-26-20-43t-47.5-25Q367 19 346 19q-24 0-43.5 10T275 62l79 44q5-4 11-7t13-3q13 0 20 9.5t7 20.5q0 7-5 16.5T390 158l-14 18zM276 692l152-32 4-110 47-180q28 28 52 66t47 77q9-9 21-18.5t21-16.5q-11-26-28.5-58.5t-37-63q-19.5-30.5-38-52T485 279q-22-7-45.5-6.5T403 275v-53l-49-41 23-31q3-5 6.5-11.5T387 128q0-3-1.5-8.5T376 114q-11 0-20 12l-86-48-40 91 19 1 21 55 45-15 15 62q-25 4-40.5 19.5t-23.5 35q-8 19.5-11 37t-3 26.5q0 9 2.5 34t7 59q4.5 34 10 70.5T282 622zm19-557q-12 0-20-3.5t-15-8.5q5-6 14.5-8t11.5-2q19 0 32 20-7 1-13 1.5t-10 .5zm365 318q10-7 23.5-23.5T697 400q0-30-25-30-13 0-18 9.5t-5 20.5q0 11 2.5 25t8.5 28zm-1 387l7-3-21-46 11-41 10-3 24 44 6-3-37-82q0-48-5.5-96.5T632 511l-34 37q12 38 23 93.5T641 746l-11 43zm-134-2l8-1-1-50 27-33 9 1 5 49h7l-1-90q6-15 12.5-30t11.5-31q-5-21-10-42.5t-9-43.5q-9 44-19 89.5T546 744l-27 35zM87 915q75-41 163.5-63.5T426 823V679l-158 35L53 866zm328 70q14-5 31-13t24-13q8-7 11-19.5t0-24.5l-18-74q-98 1-195 24.5T83 938l-45-59q-14 8-22 20t-8 25q0 26 21.5 41.5T78 981q17 0 50-8t67-22l218-86 25 54q6 13 4.5 23.5T433 957l-24 13z" fill="currentColor"/></svg>