<svg xmlns="http://www.w3.org/2000/svg" viewBox="-10 0 1273 936.951"><path d="M965 936.951l-4-41 51-11 22-24 8-61q-11-6-34-19t-50-28q-27-15-53.5-30t-46-25.5q-19.5-10.5-26.5-13.5-20-9-42-24.5t-37.5-36q-15.5-20.5-17.5-44.5-1-21 11.5-55.5t30-71q17.5-36.5 33.5-64.5t21-36q-40 2-74 3t-78-3q-16-1-47-5.5t-65-9q-34-4.5-60-8.5t-32-5q0 6-.5 32.5t-3.5 62.5q-3 36-10 71t-18 60q-11 25-28 28t-48 7q-31 4-69 8t-77 7.5q-39 3.5-72 6.5l-20-10h-21l-13 15H66v84H42v-90l-21-9-10-10-11-50 12-13v-17l30-7v-44l-4-1-33-19-8-11-7-46 7-13 8-1 1-19 36-6v-99q0-14 2.5-43t19.5-49q12-14 25.5-21t23.5-11q0-3 1-5.5t2-5.5q11-35 31.5-61.5t47-38q26.5-11.5 55.5-2.5 26 8 48 31.5t49 60.5l36 10 30-19q19-12 50-14t71 9q25 8 58.5 23t70 30q36.5 15 69.5 22 21 4 59.5 6.5t79 4.5q40.5 2 67.5 7 49 9 71.5 38.5t22.5 75.5q0 20-14 54.5t-37 76.5q-23 42-49.5 84t-50.5 78q8 3 7.5 3t7.5 4q22 2 56.5 7t67.5 11q33 6 51 10 26 7 62 19t61 21l35 1 34 34-9 160h-44q-5-23-10.5-48.5t-11-44.5q-5.5-19-8.5-22-3-2-20.5-5.5t-38-7q-20.5-3.5-35.5-5.5 8 8 15 14.5t11 10.5l36 17 12 31-76 117-50 28zm-810-747l65-62q-2-6-3.5-12.5t.5-12.5q3-13 14.5-17t22.5-1q6 2 13.5 10t12.5 14l13 18 38-23q-20-28-41.5-51.5t-49.5-31.5q-25-8-46.5 6.5t-37.5 38q-16 23.5-22 44.5-7 24-3 45.5t24 34.5zm828 729h46l42-24q3-4 14.5-21t25.5-39q14-22 27-42l-8-21-21-8q-16-14-35.5-31t-37-32q-17.5-15-27.5-22-21-16-48.5-33t-55.5-32.5q-28-15.5-51-24.5 25-38 53-82.5t51.5-87.5q23.5-43 38.5-77.5t15-52.5q0-38-18-63.5t-59-31.5q-41-6-93.5-9t-112.5-13q-23-4-53.5-15t-60.5-23.5q-30-12.5-53-23t-32-12.5q-25-7-56.5-8t-53.5 15l-30 23-45-13-53 34-23-30q-10-12-18-16-3-2-9-2t-8 8q-2 7-.5 12t6.5 11l-71 68 76 65 6-18 59-4-1-47 75 4q-2 19-4 43t-2 35q0 11 .5 41t1.5 70q1 40 2 83 1 21-16 36.5t-44 18.5q-7 0-35.5 3t-65 6.5q-36.5 3.5-68.5 6.5l-48-24-28-9-48 10v8l-10 13 8 35 6 5 29 14h25l11-13 27-1 22 9q36-3 76.5-6.5t79-7.5q38.5-4 67-8t40.5-8q15-5 23.5-33.5t13.5-68q5-39.5 6-78.5t1-64l3-12q34 5 78 11.5t85 12q41 5.5 67 7.5 33 3 77.5 2.5t99.5-2.5q-18 30-38 65t-36.5 70q-16.5 35-26.5 64t-9 45q1 23 16 40t33.5 28.5q18.5 11.5 30.5 17.5 7 3 31 16t57.5 32q33.5 19 71 39.5t70.5 38.5l-17 83-31 26-35 7zm-618-465q-2-54-3-102.5t0-79.5q1-12 1.5-28.5t1.5-26.5l-39-3 2 43-67 5-10 29-92-79-12-5q-17-11-27-26t-11-36q-7 4-16 10.5t-14 14.5q-8 11-10.5 29t-2.5 47v92l43 14 35 28q39 13 84.5 28.5t83.5 28q38 12.5 53 17.5zm-156-231q-4-7-3-16.5t2-11.5q7-19 27-25-2 16-4 23-4 11-9 18t-13 12zm111 288q22-2 32.5-14t12.5-24l-223-76-42-33-28-10h-6v12h4l27 23 2 39 17-2 17 12q69 27 107.5 42t55 21.5q16.5 6.5 20.5 8zm-303-144l25-1v-11l-26 1zm30 76h23l15-10-4-40-19-15-58 1 5 38 7 7zm110 83q23-2 59-5.5t63-5.5l-148-59-23-14-12-2-19 19-11-1v37l11-3 38 10zm1065 308h16l7-135-22-21-31-2q-26-11-63.5-24.5t-63.5-18.5q-14-3-38-7.5t-50-9.5q-26-5-45-7 19 11 45 27t41 27q8 6 20.5 16.5t25.5 21.5q17 1 45.5 5t52.5 8.5q24 4.5 29 8.5 4 2 9.5 20.5t11 43q5.5 24.5 10.5 47.5z" fill="currentColor"/></svg>