<svg xmlns="http://www.w3.org/2000/svg" viewBox="0 0 594.5 554.9"><path d="M188.8 331.4c-32.9-8.1-72.7-22.8-119.5-43.9 4.5 9.8 7.1 24 7.9 42.7 46.8-2.1 83.9-1.7 111.6 1.2zM87.6 86.4c-18.7 11-29.3 18.3-31.7 21.9-2.4 3.7-2.4 11 0 21.9 4.1-8.9 11.5-16.8 22.2-23.5 10.8-6.7 14.9-7.4 12.5-2.1-19.1 11-29.1 21.7-29.9 32.3l11 34.1c6.9-8.1 12.4-8.9 16.5-2.4 4.5-4.5 8.5-7.3 12.2-8.5 3.7-1.2 4.5 2.8 2.4 12.2 7.7 5.7 14.5 2 20.4-11 5.9-13 14.8-18.5 26.8-16.5s20.6 4.5 25.9 7.3c2 5.3 2.4 18.9 1.2 40.8 1.6 12.2 8.1 21.1 19.5 26.8l64 2.4c44.7 6.5 79.8 19.3 105.4 38.4 20.3 12.6 25.2 24.8 14.6 36.6-24.8 44.7-38.4 80.2-40.8 106.7 2 4.1 7.7 6.3 17.1 6.7 10.2 3.7 19.5 1.4 28-6.7 4.1-23.6 17.5-48.8 40.2-75.6 26.4-31.7 39.8-55.5 40.2-71.3 8.5-26-9.3-45.5-53.6-58.5-61.8-13-119-40.2-171.9-81.7-26.8-9.8-50.8-11.2-71.9-4.3-7.7 7.7-15.3 9.4-22.9 5.2-7.5-4.3-12.2-11.5-14-21.6-1.8-10.2-5.1-19.8-9.8-28.9-4.7-9.1-10.2-11.9-16.5-8.2s-9.5 9.4-9.8 17.4c.1 8-2.4 11.3-7.3 10.1zm-56.1 1.2c-.4-9.8 1.6-20.3 6.1-31.7 10.6-19.5 24.5-34.8 41.7-46S113-3 128.4 4.7c15.4 7.7 26.2 19.7 32.3 36 5.7 15.4 7.3 33.5 4.9 54.2 26-11.8 52.2-10.4 78.6 4.3 47.5 32.1 89.2 54.2 124.9 66.4 14.6 5.3 33.7 11.4 57.3 18.3 43.5 12.2 64.8 33.1 64 62.8-10.2 41.8-33.3 81.3-69.5 118.2 21.9-.8 52.2 5.9 90.8 20.1 9.8 2.8 16.5 4.3 20.1 4.3 29.3-10.6 45.3-6.7 48.1 11.6 3.3 26 7.7 45.5 13.4 58.5 1.2 9.8 1.4 17.7.6 23.8-11.8-3.3-20.5-11.2-26.2-23.8-2.4-7.3-8.7-17.9-18.9-31.7-4.1-11-42.1-16.3-114-15.8l-28-1.2c26.4 6.5 59.5 23 99.3 49.4 22.8-11.8 37.2-5.3 43.3 19.5 1.2 13.4 6 24.1 14.3 32 8.3 7.9 13.1 16.6 14.3 25.9 1.2 9.3 1.6 15 1.2 17.1-12.6 2.8-26.6-8.5-42.1-34.1-11.8-15.4-23.6-26.4-35.3-32.9l-88.4-23.8c-34.5-9.8-59.7-18.1-75.6-25-17.9-8.1-26.4-18.7-25.6-31.7 0-18.3 7.1-42 21.3-71 14.2-29.1 21.3-45 21.3-47.8-7.7-21.9-39.8-36.6-96.3-43.9l-45.1-3c8.9 25.2 15.6 53.4 20.1 84.7 5.7 14.6 2 24.2-11 28.6-49.6 12.6-96.1 13-139.6 1.2-.8 13.8-2 27.4-3.7 40.8-9.8 10.6-17.9 9.3-24.4-3.7 2-11-.8-23.8-8.5-38.4-15-7.3-21.7-16.5-20.1-27.4 1.6-11 6.9-16.9 15.8-17.7l-3-23.2c-11.8-2.4-19.1-8.8-21.9-19.2-2.8-10.4.8-18.8 11-25.3l-6.7-26.2c-3.3-8.9-9.3-27-18.3-54.2-8.9-23.2.4-47.8 28.4-73.8zm8 29.9c-13 2.4-18.3 17.5-15.8 45.1 8.9 22.3 16.9 44.1 23.8 65.2 11 11 16.5 22.8 16.5 35.3 47.9 10.6 90.8 24.2 128.6 40.8-3.7-12.6-8.3-26.8-14-42.7-8.9-9.8-14.6-24.6-17.1-44.5-1.6-15.4-1.6-30.7 0-45.7-.8-3.3-6.5-7.5-17.1-12.8l-7.9 8.5c-5.7 10.6-10.6 18.2-14.6 22.9-4.1 4.7-8.4 5.7-13.1 3-4.7-2.6-8.5-4-11.6-4-3 0-4.8-1.6-5.2-4.9-.4-3.3-1.4-3.7-3-1.2-1.2 1.2-2.7 1.3-4.6.3-1.8-1-2.9-2.9-3.4-5.8-2.4 0-5 1.9-7.6 5.8-2.6 3.9-6.4 2.5-11.3-4-7.4-23.3-14.9-43.9-22.6-61.3zM68.7 148c-3.7-7.3-3.8-14-.3-20.1 3.5-6.1 10.7-11.6 21.6-16.5l4.9-6.7 3.7 1.2-5.5 7.9c-11.4 11.4-18.5 22.5-21.3 33.5l-3.1.7zm42.7-51.9c-4.1 0-7.2-3.4-9.4-10.1-2.2-6.7-2.4-12.5-.6-17.4 1.8-4.9 4.3-7.1 7.3-6.7s6.1 2.9 9.1 7.6c3 4.7 5.1 11.5 6.1 20.4 1 8.9-.2 14.5-3.7 16.8-3.5 2.2-6.1 2.1-7.9-.3-1.8-2.3-2.1-5.8-.9-10.3zm-5.5-18.8c0 4.5.9 8.3 2.7 11.6 1.8 3.3 3.1 3.5 4 .6.8-2.8 1.8-2 3 2.4 1.2 4.5 2.2 5.1 3 1.8.8-3.3.6-7.2-.6-11.9s-3.4-8.3-6.4-11c-3-2.6-4.9-.5-5.7 6.5zM80.3 73c9.3-22.8 20-32.7 32-29.9 12 2.8 21.3 15.1 28 36.9 6.7 21.7 9.6 20.6 8.8-3.4-.8-24-9.1-41.1-25-51.5-15.8-10.4-32.9-7.3-51.2 9.1S46 65.7 46.8 79.1c.8 13.4 12 11.4 33.5-6.1zm34.7 27.4c-.8 2.8-.2 4.3 1.8 4.3s3-1 3-3c.1-2.1-1.5-2.5-4.8-1.3z"/></svg>