<svg xmlns="http://www.w3.org/2000/svg" viewBox="-10 0 838 1035"><path d="M29 1035v-45l81-12 38-11 20-28q8-32 17.5-68.5t18-71q8.5-34.5 15-60T228 704q11-44 32-65 6-6 23.5-11t27.5-5q38 0 76 16t71 40q33 24 52 50l6-72-51-220q-4 5-20.5 22.5t-40 40q-23.5 22.5-48 42t-46 30Q289 582 276 575q-15-8-46.5-28t-68-44Q125 479 96 459l-7-17-13-10-15 2-12-16-42 52-17-16 46-55-7-14-2-11 18-36 23-14 21 9 21-27-10-29 1-11 19-32 11-5 6 4 12-14 23 12L361 0q18 15 43 36.5t51 43q26 21.5 47 39.5l6-13 2-13q7-28 27.5-43.5T597 34q36 0 67 12t50 34.5q19 22.5 19 52.5 0 28-16 55t-44 64v38l30 6q30 6 44 25.5t18 41.5q4 22 4 37 0 25-11 68.5T733 559q16-13 36-13t38.5 13.5Q826 573 826 594q0 17-12.5 34T784 646q38 25 44 65l-38 15q-2-17-22.5-43T712 641h-3q-4 16-8 30.5t-5 26.5v158h34l20 93q5 20-1.5 35.5T730 1008q-7 5-21.5 11.5t-29 11Q665 1035 656 1035l-14-39 29-15q8-5 7-10.5t-5-13.5l-15-34-211 83q-40 16-71 22.5t-47 6.5q-36 0-61.5-20.5T242 957v-8q-4 6-7 11.5t-5 8.5l-9 66zm460-889l5-10q-17-14-41-32.5T405 66q-24-19-42-33v1l-52 64q46 8 90 19.5t88 28.5zm172 94q20-28 36.5-55.5T714 129q0-26-20-43t-47.5-25Q619 53 598 53q-24 0-43.5 10T527 96l79 44q5-4 10.5-7t12.5-3q14 0 21 9.5t7 20.5q0 7-5 16.5T642 192l-14 18zM532 649q11-2 33.5-7.5t50-12q27.5-6.5 51-13T702 607q11-40 21.5-82.5t18-76.5q7.5-34 7.5-48 0-11-5-31t-17-37q-12-17-35-20l-37-5v-51l-49-41 23-31q3-5 6.5-11.5T639 162q0-3-1.5-8.5T628 148q-11 0-20 12l-86-48-40 91 19 1 21 55 44-15 16 62-77 16q-39 8-60.5 21.5T412 371l-60 75q-30 38-53 48t-62-13l-101-59-16-43-13-20-35-18-16 8-12 26v6l12 24 9 14 14-7 17 13 10 18q31 22 67.5 46.5t67 43Q271 551 282 556q12 5 37.5-11.5t56-43.5q30.5-27 58-55.5T477 397zM325 453l78-97q15-19 42.5-31t60.5-20l54-13-6-26-41 15-24-63-31-2 24-52q-47-16-93-28.5T297 114L191 244l19 31 7 35zm221-284q-11 0-19-3.5t-15-8.5q5-6 14.5-8t11.5-2q19 0 32 20-7 1-13 1.5t-11 .5zm-389 81l8-10-15-10-7 10zm-19 65h14l17-25-4-20-36-29-17 27v8l10 27zm121 160q18 8 31 4t21-14L206 321l-9-41-16-24-6 7 6 32-16 22 11 8 4 17q26 45 41 71t23 38.5q8 12.5 10.5 17t4.5 6.5zm-29-16l-61-105-7-21-7-7h-22l-5-4-19 23 7 3 19 26 14 36q16 9 39.5 23t41.5 26zm505 150q10 4 21.5 6.5t20.5-1q9-3.5 9-16.5 0-7-6-11t-11-5q-8-1-16 6.5T735 609zM48 1016h156q1-7 3-22t4-25q12-17 25-43.5t24-53.5q11-27 17-43 10-29 17-56t9-53l11-5q15 4 33.5 22t35 38q16.5 20 23.5 30l90-63q-21-23-50.5-46.5t-64-38.5Q347 642 311 642q-8 0-22 6t-18 10q-10 7-15.5 22T245 714q-3 9-9.5 34T220 807q-9 34-18.5 71T184 947l-25 34-42 12-69 9zm480-290l152-32q3-17 11-48l-160 39zM339 949q75-41 163.5-63.5T678 857V713l-158 35-215 152zm-76-41q7-7 15.5-14t20.5-15l91-63q-7-9-19.5-24t-26-29Q331 749 319 743q-1 26-7.5 49T295 836q-4 10-13 30t-19 42zm404 111q14-5 31-13t24-13q8-7 11-19.5t0-24.5l-18-74q-98 1-195 24.5T335 972l-45-59q-14 8-22 20t-8 25q0 26 21.5 41.5T330 1015q17 0 50-8t67-22l218-86 25 54q6 13 4.5 23.5T685 991l-24 13z" fill="currentColor"/></svg>