<svg xmlns="http://www.w3.org/2000/svg" viewBox="0 0 502 579.4"><path d="M157.9 266.6c7.1-4.7 10.6-8.9 10.6-12.4-20.1-20.5-41.4-66.7-60.7-81.2-9.5-3.2-17.1 3.1-19.1 14.9 13.7 24.8 57.4 56.8 69.2 78.7zm290.3 113c-31.9 6.3-67.7 26.1-107.3 59.4S275 497.1 262 513.5s-19.5 26.7-19.5 31c1.2 9.5 8.5 14 21.9 13.6l79.4-45.3c4.3-5.1 2.3-5.6.3-9.9-13.4-.4.7-7.9-39.5 10.3-13.4 7.9-19.1 6.5-17.1-4.1 0-4.7 15-14.8 44.9-30.2 30-15.4 57.7-24.5 83.4-27.5 25.6-3 39.8-11.6 42.6-26 2.6-14.4-.8-29.7-10.2-45.8zm-89.3 21.8c-22.1-1.6-51.5-2.1-88.4-1.5-36.9.6-55.3 4-55.3 10.3 3.9 17.3 28 32.1 72.1 44.3 21.3-17.6 45.2-35.3 71.6-53.1zm-65.1-231.1c-6.7.4-11.9-1.9-15.7-6.8-3.7-4.9-4.4-11.1-2.1-18.6 2.4-7.5 3.3-15.5 2.7-23.9-.6-8.5-3.6-12.4-9.2-11.8s-9.5 3.6-11.8 9.2c-2.4 5.5-5.3 6.9-8.9 4.1-17.3 2.4-27.6 4.2-30.7 5.6-3.2 1.4-4.7 6-4.7 13.9 6.7-4.7 14.6-7.2 23.6-7.4 9.1-.2 12.2 1.3 9.5 4.4-18.9.8-29.8 4.9-32.5 12.4V178c6.3-.8 8.9 1.8 7.7 7.7 5.5-2.8 9.7-3.4 12.4-2.1 2.8 1.4 2 4.8-2.4 10.3 4.7 7.1 11.9 6.9 21.6-.6 9.7-7.5 17.4-2.8 23.4 14.2 20.5-9.9 40.2-10.8 59.1-3 13.8 14.2 9.7 25.3-12.4 33.4-22.1 8.1-28.2 19.6-18.3 34.6 9.9 15 27.5 32.9 52.9 53.8s41.4 32.9 47.9 36.1c6.5 3.2 11 1.3 13.6-5.6 2.6-6.9-7.4-35.5-29.9-85.7-22.5-50.3-40.9-75.6-55.3-76s-25.1-4.9-32.2-13.6l-8.3-11.2zm20.7 6.5c29.6 1.2 51.4 13.8 65.6 37.8 14.2 24 32.1 65.8 53.8 125.3 18.9-21.7 33.1-29.6 42.6-23.6 13 9.5 11.8 21.7-3.5 36.7l29 55-22.5 13.6c-7.9 9.1-8.1 19.9-.6 32.5 15.8 8.3 20.3 19.1 13.6 32.5-11 7.9-15.8 22.3-14.2 43.2-1.6 24-2.4 36.3-2.4 36.7-.8 4.3-2.2 7.6-4.1 9.8-2 2.2-8.1 3.3-18.3 3.3-14.2 0-21.3-2.3-21.3-6.8s3.1-9.1 9.2-13.6 9.3-12.8 9.5-24.8c.2-12-1.1-22.1-3.8-30.2-2.8-8.1-8.9-12.7-18.3-13.9l-20.7 1.2c3.9 13.4.8 21.9-9.5 25.4-10.6 1.6-16 7.1-16 16.6 1.6 30.7-4.5 46.1-18.3 46.1h-25.4c-12.2 0-15.9-3-10.9-8.9 4.9-5.9 11.2-10.1 18.9-12.7 7.7-2.6 11.6-6.8 11.8-12.7.2-5.9-3.4-10.6-10.9-14.2-61.5 41.8-100.7 54.4-117.7 37.8-5.1-7.9-7.5-16.4-7.1-25.4.4-9.1 16.8-33.3 49.1-72.7-55.6-18.1-80.6-39.6-75.1-64.4 1.2-26 56-33.9 164.4-23.6 8.7-1.6 13-5.9 13-13 0-9.1-9.2-20-27.5-32.8-18.3-12.8-35.1-29.8-50.3-50.8-15.2-21.1-31.6-29.3-49.4-24.5-23.6 16.2-49.9 30.5-78.6 43.2-8.7 6.7-17.1 4.3-27.2-5.3-31.3-30-46-67.8-70.4-86.9-7.1-2.6-13.8-7.1-20.1-14.8L13 229.4l-10.3-16 38.5-32.9c5.1-18.1 16.2-31.5 33.9-31.5 5.5-16.9 17.9-25.4 37.2-25.4L252.5 0l8.9 14.2L230 42l14.4 28-21.5 16.4-22.8-15.2-77.7 72.2c11.7 25.1 58.1 62.4 78.6 96.2l57.9-27.2-3-7.7c-5.9 4.3-11 7.5-15.4 9.5-4.3 2-7.2 1-8.6-3-1.4-3.9-4.1-6.8-8.3-8.6-4.1-1.8-5.3-3.5-3.5-5.3 1.8-1.8 1.7-2.1-.3-.9-2.4 1.2-4.1.7-5.3-1.5-1.2-2.2-1.4-4.4-.6-6.8-2 0-4.4.9-7.4 2.7s-5-.9-6.2-8c1.6-20.1 2-34.3 1.2-42.6.8-26 7.8-45 21-57.1 13.2-12 28.1-19 44.6-21 16.6-2 29.3 3.1 38.1 15.1 8.9 12 13 25 12.4 39-.6 14-5 27.3-13.3 39.9l10.2 20.7zM214.6 162c0-6.7 2.2-11.7 6.5-15.1 4.3-3.4 11.6-4.2 21.9-2.7l9.5-5.9 1.8 2.4-8.9 4.7c-3.2 5.9-7.2 10.6-12.1 14.2-5 3.6-11.2 4.4-18.7 2.4zm7.7-10.1c-2 .8-3 2.8-3 5.9 2.8 1.2 5.9.8 9.5-1.2-5.1.9-7.3-.7-6.5-4.7zm6.5 4.8c4.3-2.4 7.7-5.7 10.1-10.1-3.5.4-7.1 1-10.6 1.8 3.5.8 3.7 3.5.5 8.3zm34.3-17.8c-2.8-.8-3.8-4.2-3.3-10.3.6-6.1 2.2-10.7 4.7-13.9 2.6-3.2 4.9-3.9 7.1-2.4 2.2 1.6 3.5 4.7 4.1 9.5.6 4.7-.2 10.5-2.4 17.4-2.2 6.9-4.7 10.8-7.7 11.8s-4.7.2-5.3-2.4c-.5-2.5.4-5.7 2.8-9.7zm1.2-15.3c-.8 3.5-1 6.7-.6 9.5s1.2 3.2 2.4 1.2 1.7-1.1 1.5 2.7c-.2 3.7.4 4.6 1.8 2.7 1.4-2 2.5-5 3.3-9.2.8-4.1.4-7.6-1.2-10.3-1.7-2.9-4.1-1.8-7.2 3.4zm-16.6-13c13.8-13.4 24.6-16.8 32.5-10.3 7.9 6.5 10.8 19.2 8.9 38.1-2 18.9.7 19.1 8 .6s6.7-34.7-1.8-48.5c-8.5-13.8-22.1-17.7-40.8-11.8-18.7 5.9-30 14-33.7 24.2-3.7 10.2 5.2 12.8 26.9 7.7zm16.6 33.1c-1.2 2.4-1.1 3.8.3 4.4 1.4.6 2.5 0 3.3-1.8.7-1.7-.5-2.6-3.6-2.6zM0 0"/></svg>