<svg xmlns="http://www.w3.org/2000/svg" viewBox="0 0 593.3 310.6"><path d="M391 22.3c-15.2-1.3-36.6-1.3-64.3 0-32.5 4.8-51.8 9.5-57.8 14.3-3 3-4.6 6.3-4.6 9.7 0 2.6 1.3 5.9 3.9 9.7 3.5 5.6 5.4 8.9 5.9 9.7 10 12.6 26.2 21.7 48.7 27.3 22.5 5.6 48.1 8.9 76.7 9.7-1.3-22.5-1.8-41.4-1.6-56.5.1-15.1-2.2-23.1-6.9-23.9zM95.2 61.9c-1.3 6.1-4.4 9.9-9.4 11.4s-10.1.1-15.3-4.2c-5.2-4.3-11.4-7.6-18.5-9.7-7.1-2.2-11.3-.9-12.3 3.9s.2 9.1 3.9 13c3.7 3.9 4 6.7 1 8.4-3.5 13.9-5.1 22.3-4.9 25.3.2 3 3.6 5.9 10.1 8.4-1.7-6.9-1.5-14.1.6-21.4 2.2-7.4 4.1-9.1 5.8-5.2-4.3 14.3-3.9 23.6 1.3 27.9l20.8 8.4c1.7-5.2 4.5-6.7 8.4-4.6 0-4.3.6-7.7 1.9-10.1 1.3-2.4 3.7-1 7.2 4.2 6.9-.9 8.8-6.3 5.5-16.2-3.3-10 4.2-16 22.4-18.2l-3.9.6c-.9-28.2 6.5-36.2 22.1-24 10 19.9 16.9 33.9 20.8 41.9 3.9 8 13.3 8.8 28.3 2.3 14.9-6.5 38.2-11.9 69.9-16.2-1.7-25.1-7.1-40.7-16.2-46.8-10.4-3.5-28.2-8-53.3-13.6-25.1-5.6-47.7 1.3-67.6 20.8-8.6 8.3-18.2 12.8-28.6 13.7zM66 123c-5.6-2.2-9.1-5.4-10.4-9.7-1.3-4.3-.2-10.4 3.2-18.2L57.5 86l2.6-.7 1.3 9.1c3.9 4.3 6.5 8.8 7.8 13.3 1.3 4.6.2 9.7-3.2 15.3zm-6.5-9.1c-.4 1.3.9 2.8 3.9 4.5 2.2-2.2 2.8-5 1.9-8.4 0 4.3-1.9 5.6-5.8 3.9zm5.8-3.9c-.4-3.9-1.9-7.6-4.5-11-.9 3-1.5 6.3-2 9.7 2.2-3.5 4.4-3 6.5 1.3zm-3.2-31.8c-2.2 1.7-5.5 1.5-10.1-.7-4.5-2.2-7.7-4.9-9.4-8.1-1.7-3.2-1.6-5.5.3-6.8 1.9-1.3 4.9-1.5 8.8-.6 3.9.9 8.3 3.2 13.3 7.1 5 3.9 7.3 7.1 6.8 9.7-.4 2.6-1.8 3.8-4.2 3.6s-4.2-1.6-5.5-4.2zm-13-6.5c2.6 1.7 5.2 3 7.8 3.9 2.6.9 3.2.4 1.9-1.3-1.3-1.7-.4-1.9 2.6-.7 3 1.3 3.9 1.1 2.6-.6-1.3-1.7-3.5-3.5-6.5-5.2-3-1.7-6-2.5-8.8-2.3-2.8.2-2.7 2.3.4 6.2zm-15 9.7c-6.5-15.2-6-24.8 1.6-28.9s18.4-2.7 32.5 4.2c14.1 6.9 14.9 4.9 2.6-6.2-12.3-11-25.1-15.3-38.3-12.7C19.3 40.4 12.1 50 11.1 66.7c-1.1 16.7 2 27.9 9.1 33.8 7.1 5.9 11.8-.5 13.9-19.1zm31.2-3.2c1.3 1.7 2.5 2.2 3.6 1.3 1.1-.9 1.1-1.8 0-2.9-1.1-1.1-2.3-.6-3.6 1.6zM215.5 216c-20.8 20.8-49.2 38.8-85.1 53.9-.9 2.6-2.7 6-5.5 10.1s-8.1 7.9-15.9 11.4c-7.8 3.5-13.2 6.9-16.2 10.4-4.8 2.2-6.3 1.1-4.5-3.2.9-3.5 6.9-8 18.2-13.6 2.6-3.9 2.2-5.4-1.3-4.5-7.4.9-19.5 10.2-36.4 27.9-1.7 1.7-3.1 2.5-4.2 2.3-1.1-.2-1.6-1.4-1.6-3.6-2.2 0-3.2-1.1-3.2-3.2-2.2 0-3.3-1.3-3.3-3.9-1.7-.4-2.3-1.6-1.6-3.6.7-1.9 4.2-5.7 10.7-11.4 12.1-16.9 29.5-25.1 52-24.7h-.6c26-23.8 49.8-42.2 71.5-55.2l-9.7-20.8c-31.6 24.7-56.1 40.1-73.4 46.1-.9 2.6-2.7 6-5.5 10.1s-8.1 7.9-15.9 11.4c-7.8 3.5-13.2 6.9-16.2 10.4-4.8 1.7-6.3.4-4.5-3.9.9-3 6.9-7.6 18.2-13.6 2.6-3.5 2.2-4.8-1.3-3.9-7.4.9-19.5 10.2-36.4 27.9-1.7 1.7-3 2.5-3.9 2.3-.9-.2-1.3-1.6-1.3-4.2-2.6 0-3.9-.9-3.9-2.6-2.2 0-3.2-1.3-3.2-3.9-1.7-.4-2.3-1.6-1.6-3.6.6-1.9 4.2-6 10.7-12 12.1-16.5 29.5-24.5 52-24 27.7-26 53.1-45.9 76-59.8-24.3-20.8-38.8-41.2-43.5-61.1l-13 2.6c1.7 6.1 2.8 11.2 3.2 15.3.4 4.1-1.2 6.6-4.9 7.5-3.7.9-6.7 2.2-9.1 3.9-2.4 1.7-4.2 1.8-5.5.3-1.3-1.5-1.7-1.4-1.3.3.4 1.3-.2 2.2-1.9 2.6-1.7.4-3.3 0-4.6-1.3-1.3 1.3-1.6 3.5-1 6.5.6 3-1.8 4.1-7.5 3.3-15.6-7.4-27.1-11.9-34.4-13.6-20.8-8.2-33.9-19.2-39.3-32.8S-.8 67.1 2.2 53.2c3-13.9 10.5-22.6 22.4-26.3C36.5 23.2 48 23.6 59 28.2 69.6 32.3 79 40 86.8 50.9c12.1-1.3 21.4-5.6 27.9-13 15.6-20.4 34.9-29 57.8-26 23 3 48.7 8.2 77.3 15.6 37.7-10.8 61.7-16 72.1-15.6 13-2.2 35.1-3.5 66.3-3.9 27.3 0 47.9-.6 61.7-1.9 13-7.8 42.5-8 88.4-.7 8.2 0 16-.4 23.4-1.3 10-3 16 0 18.2 9.1 2.2 9.1 5.6 21.8 10.4 38 4.8 16.2 2.4 30.2-7.1 41.9-5.2 1.3-10-6.1-14.3-22.1-3.9-16.5-13.2-31.2-27.9-44.2-15.6 1.7-44 5.2-85.1 10.4-15.2 6.1-30.3 10.2-45.5 12.3l.6 29.2c8.7 1.3 21.9 5.4 39.6 12.3 18.2-3 50.3 5.4 96.2 25.3 21.7-6.1 32.5-2.4 32.5 11 0 6.5 3 17.1 9.1 31.8s6.3 26.9.6 36.4c-5.6 9.5-10.4 14.3-14.3 14.3-4.3-5.2-8.3-17-12-35.4-3.7-18.4-9-30.4-15.9-36.1-13-3.5-24.9-6.5-35.7-9.1-10.8-2.6-19.3-3.7-25.3-3.3-13.4.4-25.1.3-35.1-.3-10-.7-26.4-1.8-49.4-3.6-19.5 0-36.9-1.9-52.3-5.8-15.4-3.9-29.1-8-41.3-12.3l-.6 20.8-25.3-9.7c-.9 6.5-4.1 9.3-9.7 8.4-5.6.9-9.3-5.4-11-18.8-25.1 2.6-43.2 5.6-54.3 9.1-11 3.5-19.6 8.2-25.7 14.3 6.1 8.7 10.7 16.6 14 23.7 3.3 7.1 8 17.9 14.3 32.2 6.2 14.5 8.2 25.1 6.1 32.1z"/></svg>