<svg xmlns="http://www.w3.org/2000/svg" viewBox="-10 0 1188 623.629"><path d="M15 623.629l-25-13 37-71 36-27 44-13 107-116q15-28 32.5-61t30-59.5q12.5-26.5 12.5-35.5l4-42-44 6-16 39-59-3q-2 6-4.5 12.5t-4.5 13.5l-93-72-13-6q-50-29-32-90 8-29 28-51t46-30.5q26-8.5 56 .5 16 5 31 15.5t29 25.5l38 41 19-6q1-1 14-10.5t33-19q20-9.5 42-9.5 28 0 67.5 7t74 16q34.5 9 50.5 15l272-48v25l351-32v168h-51l-14-66q-5-27-28-27-5 0-13 2l-245 57v37l351 87v149h-51l-14-67q-4-19-18-25.5t-30-9.5l-142-25-50 4-46-17v17l-254-82-97 10-34 139-162 233-26-9 8-39-23 14-21 49-28-6 19-70 29-30 41-22 72-114 26-104-76 122-225 223-21-17 18-39-25 9zm52-464l63-51q-2-5-3.5-10.5t.5-10.5q3-10 14.5-14t22.5 0q5 2 14 10.5t14 13.5l11 13 34-17-35-37q-11-11-23-20t-32-15q-24-7-44 4t-34 29.5q-14 18.5-19 35.5-5 18-3 37.5t20 31.5zm1074 15h16v-131l-330 33v62l243-56q5-1 9-1.5t8-.5q20 0 29 11.5t14 32.5zm-336 101v-221l-244 44 30 113zm-791 329l32-45 42-15 5 7-21 46 5 3 211-213 93-154 187-25-31-114q-20-5-54-13t-67.5-13.5q-33.5-5.5-51.5-5.5-22 0-42.5 12.5t-30.5 24.5l-38 6-51 27-25-28-8.5-8.5-8.5-5.5q-2-1-6.5-1t-6.5 5q-3 9 7 20l-69 56 71 55q1-4 3-7t3-7l58 3 17-41 77-10-7 80-76 150q-24 24-39 41t-30.5 34q-15.5 17-39.5 41l-54 17-32 22-29 54zm111-415q-6-6-5-15.5t2-11.5q6-18 30-23-2 15-4 23-3 11-9 17t-14 10zm1016 223h16v-119l-330-80v60l50 17 49-2 146 26q29 5 41.5 18t16.5 30zm-928 195l20-47 39-21 7 4-10 45 5 1 152-221 31-130-54 7-33 140q-17 26-27 42t-20 31.5q-10 15.5-27 42.5l-49 26-27 26-14 53z" fill="currentColor"/></svg>