<svg xmlns="http://www.w3.org/2000/svg" viewBox="0 0 441.7 594.2"><path d="M159.2 0c-6.9-.1-14 1.5-21.7 5.2-15.3 7.3-27.9 18.4-36.2 33.1-8.2 14.7-7.8 33.5 0 56.8 4.1 7.3 7.8 20.5 12.4 39.3 4.1 5.5 8 7.7 10.3 5.2 2.3-2.5 3.9-4.7 6.2-5.2 0 2.3.7 4 2.1 5.2 1.4 1.1 3.2 1.4 4.1 0 1.4-1.4 1.3-1 1 1-.2 2.1 1.7 3.2 5.2 4.1 3.4.9 6.9 3.5 10.3 6.2 3.4 2.7 7.5 1.6 11.4-2.1 3.9-3.7 7.7-7.4 11.4-12.4 2.7-.5 3 .4 2.1 3.1-18.3 17.9-27.6 34.6-28.9 50.6-12.4 30.7-20 52.2-22.7 64.1-17.7 16-35.5 30.5-52.7 44.4-9.4-.5-16.8.1-23.8 2.1-7 1.9-12.7 4.4-17.6 7.2-4.1 2.4-9.4 7.5-14.5 14.5S7.4 334.6 2.1 338.9c-1.2 1.9-2.1 3.7-2.1 5.2 0 1.4 1.7 2.1 4.1 2.1-1.6 3.8-1.2 5.1 2.1 4.1-.8 3.8.9 5.1 4.1 4.1-.4 1.4-.8 3.2 0 4.1.8 1 2.1.4 4.1-1 7-7.7 12.9-14 16.5-18.6 3.7-4.6 10.9-9.2 20.7-14.5.7-.1.5 0 1 0 .5 1.5 1 3 2.1 4.1-.2.4.3.6 0 1-2.5 1.9-6 4-10.3 6.2-4.3 2.2-7.5 4.6-9.3 7.2-1.8 2.6-1 4.8 1 6.2 1.6 1.9 3.8.5 7.2-3.1 3.5-3.6 9.4-6.4 17.6-9.3 6-2.1 11.3-6.9 15.5-13.4 25.6-14.1 46.3-28.3 59.9-42.4 14.2-13.3 29.6-38.8 46.5-75.4-6 29.8-12.2 54.6-18.6 73.4-11.9 11.3-30.3 29.1-47.5 45.5-7.3.6-14.1 2.1-19.6 4.1-6.9 2.5-12.9 5-17.6 8.3-3.9 2.7-7.9 7.2-12.4 14.5-4.5 7.2-9.5 13.9-14.5 18.6-1.1 2-1.2 2.7-1 4.1.1 1.4.6 2.3 3.1 2.1-1.3 3.9-.1 5.4 3.1 4.1-.5 3.8.9 5.4 4.1 4.1-.3 1.4.1 2.2 1 3.1.9.9 2.2.5 4.1-1 6.3-8.1 11.2-14.9 14.5-19.6 3.3-4.8 10.2-9.5 19.6-15.5 1.7.7 3.4 1.6 5.2 2.1-.1.7-.5 1-1 2.1-2.3 2.1-6.2 4.8-10.3 7.2-4.1 2.5-6.6 4.5-8.3 7.2-1.6 2.7-1.2 5 1 6.2 1.8 1.7 4 .7 7.2-3.1s8.5-6.8 16.5-10.3c6.3-2.8 11.7-9 15.5-16.5 16.6-10.5 36.7-27.4 61-50.6 3.2-1.8 7.9-8.9 13.4-21.7 5.5-12.8 12-35.7 20.7-68.2 19.2 2.7 48.9 19.1 87.8 47.5-2.7 51.8-10.3 99.8-21.7 144.7-6.9 7.8-8.5 17-6.2 28.9-11.5 40.8-20.3 71.8-25.8 92-5.5 20.2-12.3 31.9-19.6 35.1-36.6 12.8-59 22.8-68.2 31-2.3 8.2 1.8 11 11.4 8.3 12.8.9 24.4 1 35.1-1 10.8-2.1 25.2-4.3 44.4-5.2 11.9-1.4 14.7-11.8 8.3-31 31.6-58.2 49-104.1 52.7-138.5h74.4c10.1 53.1 16.8 96.9 18.6 131.3-5 8.2-18.3 13.2-38.2 15.5-19.9 2.3-30 8.5-30 18.6-4.1 5 2.7 8.4 19.6 9.3C385 589 398 587 403.1 587c5.5 0 14.6.7 27.9 2.1 11.9-1.4 12.8-12.7 4.1-35.1 10.1-72.8 8.7-118.6-4.1-136.4-1.4-65.5-8-116.2-21.7-151.9-29.8-59.5-61.8-103.4-94-132.3-32.4-28.9-57.4-42.4-75.5-40.4s-29.8-2.3-36.2-12.4c3.7-16.9 3.1-31.6-1-44.4-4.1-12.8-11.6-22.4-23.8-30C172.7 2.4 166 .1 159.2 0zM154 15.5c7.1-.5 13.5 1.6 19.6 6.2 12.4 9.2 18.3 22.6 17.6 41.3-.7 18.8-3.1 19.2-7.2 2.1-4.1-17.2-10.8-27.6-20.7-31-9.8-3.4-19.2 3.1-27.9 19.6-18.8 11.5-27.9 12.4-27.9 2.1s7.7-21 23.8-32c8-5.5 15.6-7.8 22.7-8.3zm6.2 28.9c3.7.1 6.7 2.6 9.3 8.3 3.4 7.6 5.2 15.2 5.2 22.7 0 7.6 2 14 7.2 18.6 5.3 4.6 10.3 5.2 14.5 1 11.5 13.3 26.8 18.3 46.5 15.5 19.7-2.7 55 25.8 105.4 85.8l-32 40.3C259 197.3 219.1 180 197.4 185c-21.8 5-27.2-.5-17.6-16.5 12.8-17.9 15.3-30.6 9.3-39.3-6-8.7-12.1-9.3-19.6-1-7.6 8.2-14.3 10.2-20.7 5.2 1.8-6.9.9-9.8-2.1-9.3s-6.2 2.5-10.3 6.2c-.5-5.5-3.9-6.9-10.3-4.1l-4.1-14.5-4.1-10.3c0-7.8 7.7-14.8 23.8-21.7 2.7-4.1 0-4.5-8.3-1-8.2 3.4-14.6 8.1-19.6 14.5-2.7-7.3-3.6-12.2-1-14.5 2.5-2.3 11.9-7.1 27.9-14.5 3.7 1.8 5.7 0 6.2-6.2s3.8-10.1 9.3-12.4c1.2-.7 2.7-1.2 4-1.2zm-38.3 67.2c7.3-.9 12.1-3.7 15.5-8.3 3.4-4.6 6.3-10.1 7.2-16.5l6.2-8.3-2.1-2.1-7.2 8.3C132 88 125.2 91 121.9 95.1c-3.2 4.1-2.7 10.1 0 16.5zm37.3-64.1c-2.5-.5-4.6 1.5-6.2 5.2-1.6 3.7-1.6 7.9 0 13.4s3.5 8.3 6.2 8.3c-1.4 3.2-.6 6 1 8.3s3.5 2.6 6.2 1 4.4-5.3 4.1-12.4c-.2-7.1-1.8-12.6-4.1-16.5-2.3-3.9-4.7-6.8-7.2-7.3zm-1.1 7.3c1-.8 2-1.1 3.1 0 2.3 2.3 4.5 5.4 5.2 9.3.7 3.9.7 6.8 0 9.3-.7 2.5-2.2 2.6-3.1-1-.9-3.7-1.2-5.2-2.1-3.1-.9 2.1-2.8 1.7-4.1-1-1.4-2.7-2.1-5.1-2.1-8.3.9-2.8 2.1-4.4 3.1-5.2zm7.3 22.7c.7.2 1 1.2 1 2.1 0 1.8-.5 2.3-2.1 2.1-1.6-.2-2.5-.8-2.1-3.1 1.4-.5 2.5-1.3 3.2-1.1zm-25.9 11.4c-1.4 4.6-4 8.7-7.2 12.4-2.3 3.2-4.6 5-8.3 4.1-.5-3.2-.9-5.3 0-6.2 1.4 4.6 4.1 4.8 8.3 2.1 2.3-5.5.9-7.7-4.1-7.2 3.2-1.4 7.2-3.4 11.3-5.2zm220.1 129.2c28.4 28.4 45.7 87.5 51.7 177.8H305.9c12.8-50.4 19.1-98.7 18.6-146.8l35.1-31z"/></svg>