<svg xmlns="http://www.w3.org/2000/svg" viewBox="-10 0 736.48 1001"><path d="M226 1001v-52l67-13q18-4 25-17.5t10-30.5l39-142-4-50 17-46h-16l126-209-146-66-15 144-106 186-26-6 2-38-20 16-14 52-28-1 9-73 24-35 37-27 43-81L77 688l-22-8 10-38-22 12-24 48-29-7 23-69 30-29 51-15 92-103q5-31 12-67t13-64.5q6-28.5 10-37.5 6-14 21-29.5t22-22.5l-39-19-35 25-49-34q-10 9-20 17L80 137l-8-11q-10-19-10-36 0-23 17.5-44T123 12.5Q149 0 174 0q35 0 62 24t38 75l11 55 22 8q6-1 13-3t16-2q14 0 31.5 3t32.5 12q15 9 40 28.5t54.5 44.5q29.5 25 57 49t47.5 43q20 19 26 27 84 36 84 114 0 17-7.5 38.5T692 562q-2 23-2 40.5t1 47.5q11 43 21 104t13.5 126.5Q729 946 720 1001H554v-52l67-13q14-3 24.5-10.5T656 907v-6l-1-6-60-209-5-36H486l-111 351zm40-851l-10-51q-3-14-12-32t-25-31.5Q203 22 180 22q-26 0-48 11T96.5 61Q83 78 83 96q0 11 4 20l81-10q1-9 5.5-16.5T189 82q16 0 25.5 13t11.5 34l2 17zM150 714h8l13-49 35-28 7 4-3 46h6l96-173 14-167 179 79 95-62q-19-17-49.5-43.5t-64-54Q453 239 426.5 218T390 190q-11-7-24-9.5t-24-2.5q-21 0-33 4l-35-14-59-4-5-37q-1-8-5-17t-12-9q-4 0-6.5 4.5T184 115v8l-88 12 32 84q2-2 5.5-4t6.5-4l48 33 36-26 68 38q-13 13-30 32t-24 33q-5 8-10.5 36t-11 62.5Q211 454 206 484l-95 104-59 20-28 25-18 52 9 1 22-44 39-21 7 5-12 44 5 1 171-181 10-141 19 1-12 174-39 72-43 34-24 29zm-25-542q-6 0-6-2 0-17 13-24t18-7q7 0 19 5-12 16-22 22t-22 6zm273 458h272q-1-16-1-32.5t3-35.5q3-20 10.5-43.5T690 479q0-36-16.5-57.5t-35-32Q620 379 614 377l-103 69zm175 350h130q8-49 4-110t-14-119.5Q683 692 671 650h-62l5 35 59 208q2 4 2 8v9q0 19-16 29t-36 14l-50 10zm-328 0h118l105-330h-69l-18 49 2 50-40 146q-5 28-18.5 41.5T295 953l-50 10z" fill="currentColor"/></svg>