<svg xmlns="http://www.w3.org/2000/svg" viewBox="0 0 424.4 598.8"><path d="M396.9 69.1s0 .1 0 0c0 1.8-3.1 30.2-6.2 39.3-7.3 21.5-22.8 33.4-38.6 66.9-.6.7-1.3 1-2.2 1-7.3 0-23.7-23.5-53.6-42.2-14.6-9.1-18.1-7.4-32.7-10.1-5.9-1.1-13.2-5.9-13.2-6.2-.1-.2 145.5-48.7 146.5-48.7zm-243 78.9c.1 0 .1.1 0 0-20.7 21.6-41 69.9-52.6 88.5-.4.6-1 .8-1.9.8-5.1 0-17.5-8.4-23.1-10.5-20.1-7.6-42.2-19.4-46.6-35.2-.1-.3 120.8-43.6 124.2-43.6zm78.2-24.6c10.3 6.9 30.8 8.2 30.8 20.6 0 .3-1.7 4.8-3.7 10-5 12.5-10.9 81.1-14.1 87.6-3.6 7.2-20.8 12.7-31 17.6-4.8 2.3-10.2 4.5-12 4.9-.5.1-.8.1-1.1.1-1.9 0-1.1-2-1.5-8.4C198.2 234 168.1 145 168.1 145l64-21.6zm11.7 137.2c4.5 0 7.6 3 11.3 14.1l.3 71.9.3 57.2h-98.3l29.4-109c4-8 5.7-10.2 9.8-13 4.7-3.2 30.6-17.8 43-20.6 1.6-.4 2.9-.6 4.2-.6zm-242-78.5c-5.1 12.3.8 26.5 15.5 33.1 9.2 4.1 26.1 17.2 57.2 38.8 13.6 9.5 20.2 11.7 24.4 11.7 3.1 0 4.8-1.2 7.1-1.6 17.6-2.7 53.2-83.9 57.2-83.9 2.4 0 34.7 69.1 12.9 75.9-4.6.1-7.3 11.8 0 11.8.4 0 .8 0 1.2-.1 2.2 1.9-10.8 15.6-11.5 26.6-.1 1.1.7 1.3 1.8 1.3s2.4-.2 3.6-.2c2.4 0 4.3.9 2.3 6.3l-14.8 39.3-18.4 72.1c4.4.1 4.4.4 8.2.4 1.8 0 4.4-.1 8.6-.2 1.1 0-18.5 105.7-23.5 126.4-6 24.9-32.8 41.4-55.6 44-25.2 2.9-20.8 12.7-19.8 13.2 2.5 1.4 95.1 1.8 95.1 1.8 6.5-5.6 7.2-15.9.4-23.9 4.3-14.7 7.9-36.2 11.4-42.5 1.9-3.4 23.2-50.8 27.5-91.2 1.2-11.3-3.1-26.7 9.7-26.8l28.7-.4c14.7 25.2 34.1 102.2 28.4 139.7-3.1 20.7-34 29.7-40.5 31.1-13.5 3-19.2 5.5-22.4 9.9-1.2 1.7-2.2 3.4-2.2 3.7 0 .1 8 .1 19.4.1 26.5 0 71-.2 73.6-.2 13.9-.1.5-24.7-.1-37.3.2-28.1 6.7-80.4-2.3-116.5-5.7-11.6-8.5-20.9-14.1-32.5-1.2-8.5-.7-11.8-.2-12.2 0 1.7 0 2.6.1 2.6 0 0 0-.1.1-.2.3-1.5.2-2.4 0-2.4h-.1c.2-18 4.8-126.3-12.6-161 5.1-26 5.6-63 14.8-76.4 2.9-4.2 4.1-6.2 5.8-6.2 2.4 0 5.8 4.4 16.6 12.8 9.5 7.4 48 37.1 60.1 37.1.4 0 .8 0 1.2-.1 10.2-2.2 17.5-18.9 25.6-35.2 8.2-16.6 14.9-29.7 22.1-51.2 6.6-20.1 20.3-48.4 20.3-53.1 0-2-1.4-7.7-3.1-12.7-1.7-5-4.4-6.8-4.5-8.1-.3-.4-415.2 136.4-415.2 136.4z"/><path d="M215.6 101c-5.9-1.6-9.6-4.9-11.4-10.1-1.7-5.1-.2-10.5 4.6-16.1 4.8-5.6 8.2-12.1 10.3-19.5 2.1-7.4.7-11.9-4.3-13.3-5-1.4-9.6 0-13.8 4.2-4.2 4.2-7.1 4.4-8.7.8-15.1-3.9-24.3-5.6-27.5-5-3.2.6-6 4.2-8.4 10.8 7.2-1.9 14.7-1.8 22.5.5 7.8 2.2 9.5 4.2 5.2 6-15.2-4.5-25.2-4.1-29.8 1.3l-8.8 22.7c5.9 1.6 7.4 4.6 4.5 9 4.8-.5 8.4 0 10.9 1.5 2.4 1.5.8 4.3-4.7 8.2 1.3 7.3 6.7 9.9 16.1 7.7 9.5-2.2 14.7 2.6 15.8 14.2 1.2 11.8 57 4.7 27.5-22.9zm10.9-5.3c3.9 10.8 10.9 18.9 21 24.3l-69.3 14.9c-7.4 1.6-1.4-8.5-4.7-16.1-6.6 1.8-12.1 2.9-16.7 3.2-4.5.3-7.1-1.4-7.8-5.3-.7-3.8-2-7-3.9-9.6-1.9-2.6-2.1-4.5-.5-5.8 1.6-1.3 1.4-1.7-.5-1.4-1.3.2-2.1-.5-2.6-2.2-.5-1.7 0-3.4 1.3-4.9-1.5-1-3.8-1.3-7-.7-3.2.6-4.4-2.3-3.5-8.7 8-16.2 12.7-28.2 14.3-36 8.9-21.9 20.7-35.8 35.2-41.6C196.4 0 211.1-1.3 225.9 2c14.9 3.1 24.2 11 28.1 23.6 3.9 12.6 3.3 24.8-1.7 36.5S238.7 85 226.5 95.7zm-74.8-25.2c1.9-6.2 5.1-10 9.8-11.3 4.7-1.3 11.3-.3 19.8 3.2l9.5-1.7.5 2.9-9.5 1.7c-4.5 4.4-9.3 7.3-14.5 8.7-5.2 1.3-10.4.1-15.6-3.5zm9.1-7c-1.4-.4-3 .9-4.7 3.8 2.4 2.5 5.3 3.3 8.8 2.4-4.7-.2-6.1-2.3-4.1-6.2zm4 6.1c4.5-.8 8.5-2.3 12-4.6-3.5-1-6.9-1.9-10.3-2.6 3.4 2.4 2.8 4.8-1.7 7.2zm33.8-3.9c-1.7-2-1.4-5.5.9-10.5 2.2-5 5.1-8.3 8.6-9.9 3.5-1.6 5.9-1.4 7.2.5 1.3 1.9 1.6 4.9.8 9s-3.2 8.8-7.3 14.3-7.5 7.9-10.3 7.2c-2.7-.7-4.1-2.2-4-4.5.1-2.3 1.4-4.4 4.1-6.1zm6.8-14.1c-1.8 2.9-3.1 5.8-3.9 8.6-.8 2.8-.3 3.6 1.7 2.4 1.9-1.2 2.1-.2.5 2.9s-1.4 3.9.5 2.6c1.9-1.3 3.8-3.6 5.7-6.9 1.9-3.3 2.8-6.4 2.8-9.3-.1-3-2.5-3.1-7.3-.3zm-10-14.9c16.1-7.4 26.4-7.1 30.9.9 4.5 8.1 3.1 19.6-4.5 34.7s-5.4 16 6.4 2.8 16.3-26.9 13.4-41c-2.8-14.1-13.1-21.6-30.8-22.6s-29.8 2.4-36.1 10.1c-6.2 7.7.6 12.7 20.7 15.1zm3.4 32.9c-1.7 1.3-2.2 2.6-1.3 3.9.9 1.3 2 1.2 3.4-.4 1.3-1.5.6-2.7-2.1-3.5z"/></svg>