<svg xmlns="http://www.w3.org/2000/svg" viewBox="0 0 526.8 624.2"><path d="M423.6 0c-5.9 0-11.9.6-18 1.7-17.8 3.3-33.8 16.2-48.1 38.6-3.3 8.2-11.2 20.3-23.8 36.2-2.2 7.1-1.4 10.5 2.5 10.3 3.8-.3 6.6.4 8.2 2.1-1.8 1.4-2.8 2.8-2.9 4.4l-20.3-.1c-15.5.6-32.7 7.5-49.8 20.7-43.1 37-63.8 80.5-63.3 129.7 0 7.7 5.1 10.4 14.5 9.3 31.7-13.8 96.7-40.4 118.8-53 12.4 21.2 18.6 54.3 18.6 99.3l-34.5 6.6c-83.3 8.2-131.5 21.4-144.6 39.4-18.1 10.4-31.5 46.9-40.3 109.3-13.1 65.7-37.8 100-74 102.7l-60.8 23L0 590.9c4.4 3.8 8.5 5.8 12.3 5.8l111.8-5.8c7.7-25.2 22.9-56.6 45.6-94.1 22.7-37.5 31.6-70.8 26.7-99.9 10.4 37.3 20 85.5 28.8 144.6 1.6 14.2-15.6 27.1-51.8 38.6-16.4 1.1-24.7 6.3-24.7 15.6l84.7-3.3c18.6 0 27.9-7.4 27.9-22.2-6-13.1-6.7-40-2.1-80.5 4.7-40.5-.4-73.4-15.2-98.6l144.6-5.7c47.1 0 70.7-12.1 70.7-36.2l-4.1-80.5c0-30.7 8.2-57 24.7-78.9l17.3 73.1-24.7 113.4c-4.9 7.7-8.4 14.9-10.3 21.8-1.9 6.8-3.2 13-3.7 18.5 0 4.4 1.2 10.3 3.7 17.7 2.5 7.4 4 14.4 4.5 21 1.1 1.6 2.2 2.7 3.3 3.3 1.1.5 1.9-.3 2.5-2.5 2.7 2.7 4.4 2.5 4.9-.8 2.7 2.7 4.4 2.5 4.9-.8 1.1 1.1 2.2 1.5 3.3 1.2 1.1-.3 1.6-1.8 1.6-4.5-2.7-8.8-4.8-15.8-6.2-21-1.4-5.2-1.5-13-.4-23.4.5-2.7 1.1-4.1 1.6-4.1 1.1 0 2.2.8 3.3 2.5 0 2.7-.3 6.6-.8 11.5s-.1 8.8 1.2 11.5c1.4 2.7 3.2 3.3 5.3 1.6 1.6-.5 2.1-3 1.2-7.4-.8-4.4-.3-10.7 1.6-18.9 1.9-8.2-.1-17-6.2-26.3 25.2-33.4 38.1-75.6 38.6-126.6-2.7-36.2-9.9-66.6-21.4-91.2-15.9-15.3-35.1-25.5-57.5-30.4-14.2-12.1-12.1-24.2 6.6-36.6s27.5-28.2 26.7-47.7c-.8-19.5-9.2-32.3-25.1-38.6-10-4-20.8-6.1-32.1-6.1zm-7.7 10.9c6.2-.1 13.3.8 21.3 2.7 19.7 4.7 29.7 14.8 30 30.4.3 15.6-7.7 29.6-23.8 41.9-16.2 12.3-18.4 11-6.6-4.1 11.8-15.1 15.9-27.4 12.3-37-3.6-9.6-15.2-11.9-34.9-7-21.9-6-28.5-12.7-19.7-20.1 5.2-4.4 12.3-6.6 21.4-6.8zm-37.8 27.3h.3c3.6.3 13.6 3.7 30 10.3 1.6 4.4 5.2 4.8 10.7 1.2 5.5-3.6 10.8-4.2 16-2.1 5.2 2.2 5.9 7.1 2.1 14.8-3.8 7.7-8.9 14.1-15.2 19.3-6.3 5.2-9 10.8-8.2 16.8.8 6 4.5 10.4 11.1 13.2 1.6 9.9 6.2 18.1 13.6 24.7 7.4 6.6 20.1 14 38.2 22.2-28.5 48.2-42.7 83-42.7 104.4 0 0 1.5 7.4 3.4 17.7 3 16.3 7.1 39.8 8.1 53 .5 6.6-1 11.8-3.3 15.6-5.4 8.8-34.5 12.9-87.1 12.3-43.3 4.4-93.7 4.9-151.2 1.6 6-18.1 37.5-30.4 94.5-37 56.4 0 84.6-16.7 84.6-50.1 0-23-12.3-60-37-110.9 31.8-8.8 44.9-18.4 39.4-28.8 2.2-15.3-1.6-23.6-11.5-24.7-11 1.1-17.3-2.2-18.9-9.9 8.2-3.3 11.2-6 9-8.2-2.2-2.2-6-3.6-11.5-4.1 3.8-3.8 2.5-7.4-4.1-10.7l14.8-23c6.6-4.9 17.8-3.6 33.7 4.1 5.5-.5 4-2.9-4.5-7s-16.9-5.9-25.1-5.3c3.8-6.3 7.4-9.4 10.8-9.4zM430.8 49c-1.2 0-2.6.2-4.2.7-4.4 1.4-8.2 4.5-11.5 9.4-3.3 4.9-4.1 8.5-2.5 10.7-3.3 1.6-5.3 3.7-6.2 6.2-.8 2.5.3 4.4 3.3 5.7 3 1.4 7.4-.7 13.1-6.2 5.8-5.5 9.5-10.3 11.1-14.4 1.6-4.1 1.9-7.4.8-9.9-.6-1.3-2-2.1-3.9-2.2zm-3 5.7c2.2 0 3.2 1.1 2.8 3.3-.5 3.6-2.2 6.8-4.9 9.9-2.7 3-5.3 5.1-7.8 6.2-2.5 1.1-2.5.1 0-2.9s2.5-4.1 0-3.3-2.9-.3-1.2-3.3c1.6-3 3.6-5.9 5.7-8.6 2.3-.9 4.1-1.3 5.4-1.3zm-54.7 1.2c-.5 0-1.1 0-1.6.1-5.5.5-9.9 4.1-13.1 10.7 5.5 4.9 11.1 7.1 16.8 6.6 5.8-.5 11.9-2.7 18.5-6.6h10.7v-3.3h-10.7c-8.5-5-15.3-7.5-20.6-7.5zm-3.9 4c.2 0 .4 0 .6.1-2.7 4.4-1.6 6.9 3.3 7.4 6-1.6 7.1-4.1 3.3-7.4 3.8 1.6 7.7 3.3 11.5 4.9-4.9 1.6-9.9 2.5-14.8 2.5-3.8.5-6.9-.5-9-3.3 1.9-2.8 3.6-4.2 5.1-4.2zM411.7 74c2.7 1.6 3.3 3.1 1.6 4.5-1.6 1.4-2.9 1.2-3.7-.4-.7-1.6 0-3 2.1-4.1zm-68 28.7c.1.8.3 1.6.6 2.6 1.1 2.7 1.6 6.2 1.6 10.3 0 4.1 2.6 6.6 7.8 7.4s11.6.7 19.3-.4c2.7 11.5 1 16.8-5.3 16-6.3-.8-17 .6-30.8 7l-95.7 70c13.3-30.9 24.8-57.3 34.2-78.8 14.9-5 29.2-12.4 43.6-14.5 5.7-.9 3-11.2 4.1-17.7 1.5-.2 13.1-1.3 20.6-1.9zM34.8 623.2v1h2.1c-.6-.4-1.5-.6-2.1-1z"/></svg>