<svg xmlns="http://www.w3.org/2000/svg" viewBox="-10 0 735 1002"><path d="M292 1002l-15-45 54-32q24-12 24-29 0-1-1-8t-4-11q-17-24-36.5-52.5t-34-51Q265 751 261 745q-10-20-15-43l-100 299H-10v-48l74-11q17-2 24.5-16t11.5-29l35-155 5-43q4-15 9.5-33t9.5-23q23-33 61.5-50.5T294 563q23-8 47.5-15t45.5-15.5q21-8.5 32-23.5l2-33-42-138-204 73-27-17-6-31 148-180 12-28 27-20 61-5 7 22-43 12-12 18 33-3 8 21-61 29q-11 14-30 39t-32 43l82-45q25-24 74-35l37-9v-37l-36 3-7-57-25-7 64-81 4-10q18-33 56-33 32 0 60 14t44.5 35.5Q630 71 630 95q0 30-19.5 52T556 198l-1 20 74 20q21 6 29.5 22t11.5 28l55 192-27 143 14 26v33l-28 54-24-7 15-42-7-20-17 29-25-6 12-61 11-147-47-145-36 125-3 72q0 3 2.5 17.5t5.5 32q3 17.5 5.5 30.5l2.5 13q0 20-11 41.5T527 693q-17 2-50.5 3.5t-68.5 4q-35 2.5-55 5.5 10 17 26 55t32.5 88.5Q428 900 437 955zm255-817q23-20 45.5-42T615 95q0-25-20-42.5t-45-27Q525 16 512 16t-25 5q-12 5-20 18l55 53q7-4 16-4 11 0 17 8t6 17q0 8-6 15.5T541 142l-15 12zm132 537l20-41-3-29-15-28 25-148-54-183q-2-10-8.5-22.5T627 255l-89-22v-35l-31-44 25-21q14-11 14-21 0-3-2.5-6.5T534 102q-5 0-14 7l-61-57-51 66 15 5 5 50 40-4v66l-53 13q-15 3-34 11t-28 19l-120 64-6-10 87-113 54-26-1-5-39 4-5-5 18-28 41-12-1-6-46 7-22 19-14 29q-17 21-42 52t-51 63q-26 32-46 57l2 16 19 10 212-78 47 158-3 45q-20 23-55.5 33.5T300 578q-23 7-55.5 22.5T187 639q36 6 76 18t78 31q30-3 67-5.5t69-5q32-2.5 48-3.5 20-1 27.5-16.5T560 627l-2.5-12.5-5.5-30q-5.5-30-5.5-31.5t-2.5-16l5-79 43-138h22l52 160-14 147-9 55 5 1 19-34h7l13 31-14 40zM487 106q-19-1-28.5-5.5T441 86q6-3 14-3 15 0 21.5 5.5T487 106zM7 981h129l104-313q-13-5-31-10t-34-6q-3 7-7.5 21t-8.5 29l-6 42-36 159q-7 26-18 39t-27 15l-65 9zm295-3l114-38q-9-51-25-99t-33-84q-17-36-25-50-28-20-74-33 1 5 4 18t7 26q4 13 8 20 3 5 17 27t33.5 51q19.5 29 36.5 54 4 6 6.5 14.5T374 898q0 13-11 24t-25 18l-41 23z" fill="currentColor"/></svg>