<svg xmlns="http://www.w3.org/2000/svg" viewBox="-10 0 695 1001"><path d="M-6 1001v-48l73-11q17-2 25-16t12-29l-9-155 5-43q4-15 9.5-33t9.5-23q23-33 61.5-50t73.5-30q23-8 47.5-15t45.5-15.5q21-8.5 32-23.5l2-33-42-138-165 62L64 259 3 230l8-21 33 3-11-18-43-11 6-23 62 6 26 20 16 23 100 115 102-58q25-24 74-35l37-9v-37l-36 3-7-57-25-7 64-81 4-10q18-33 56-33 32 0 60 14t44.5 35.5Q590 71 590 95q0 30-19.5 52T516 198l-1 20 74 20q21 6 29 22t12 28l55 192-27 143 14 26v33l-28 54-24-7 15-42-7-20-17 29-25-6 12-61 11-147-47-145-36 125-3 72q0 3 2.5 17.5t5.5 32q3 17.5 5.5 30.5l2.5 13q0 20-11 41.5T487 693q-12 1-36.5 3t-53.5 4q-29 2-55.5 4.5T299 709l41 292H161v-48l69-11q17-2 19-15t2-26q-8-20-18.5-46.5t-20.5-52Q202 777 195 760l-45 241zm513-816q23-20 45.5-42T575 95q0-25-20-42.5t-45-27Q485 16 472 16t-25 5q-12 5-20 18l55 53q7-4 16-4 11 0 17 8t6 17q0 8-6 15.5T501 142l-15 12zm132 537l20-41-3-29-15-28 25-148-54-183q-3-10-9-23t-16-15l-89-22v-35l-31-44 25-21q14-11 14-21 0-3-2.5-6.5T494 102q-5 0-14 7l-61-57-51 66 15 5 5 50 40-4v66l-53 13q-15 4-34 11.5T313 278l-117 67L90 222l-17-25-22-19-46-7-1 6 41 12 18 28-4 6-39-4-2 5 56 24 108 135 171-67 46 158-2 45q-20 23-55.5 33.5T260 578q-23 7-55.5 22.5T147 639q36 6 76 18t78 31q30-3 67-5.5t69-5q32-2.5 48-3.5 20-1 27.5-16.5T520 627l-2.5-12.5-5.5-30q-5.5-30-5.5-31.5t-2.5-16l5-79 43-138h22l52 160-14 147-9 55 5 1 19-34h7l13 31-14 40zM447 106q-20-1-29-5.5T401 86q6-3 14-3 15 0 21.5 5.5T447 106zM11 981h127l44-244q-2-43 10-70-13-5-27.5-9.5T135 652q-3 7-7.5 21t-8.5 29l-6 42 8 159q-7 26-18 39t-27 15l-65 9zm167 0h142l-41-281q-14-7-33.5-15T209 673q-2 5-6 24.5t-2 33.5l68 172q0 20-7 36t-23 18l-61 9z" fill="currentColor"/></svg>