<svg xmlns="http://www.w3.org/2000/svg" viewBox="0 0 524.9 594.5"><path d="M423.3 111.4c-6.6-2.7-10.2-7.1-11.1-13.1-.8-6 1.9-11.6 8.2-16.8 6.3-5.2 11.3-11.6 15.1-19.2 3.8-7.6 3.1-12.6-2-14.7-5.2-2.2-10.5-1.5-16 2s-9 3.1-10.6-1.2c-16.4-6.6-26.3-10-29.9-10.2-3.5-.3-7.2 2.9-11.1 9.4 8.2-.5 16.5 1.2 25 5.3s10 6.4 4.5 7c-15.8-7.6-27-9-33.6-4.1l-14.7 22.9c6.6 3.3 7.9 6.8 4.1 10.6 5.5.5 9.3 1.9 11.5 4.1 2.2 2.2-.8 4.9-9 8.2 1.6 7.6 7.9 10.9 18.8 9.8 9.8 1.1 13.6 9.3 11.5 24.6 5.5 10.4-7.6 19.9-39.3 28.7 24.6 50.8 36.8 87.6 36.8 110.5 0 33.3-28.1 49.9-84.3 49.9-56.8 6.6-88.2 18.8-94.2 36.8 57.3 3.3 107.5 2.7 150.7-1.6 52.4.5 81.3-3.5 86.8-12.3 2.2-3.8 3.3-9 3.3-15.6L432.3 262c0-21.3 14.2-56 42.6-104-18-8.2-30.7-15.6-38.1-22.1-7.3-6.5-11.8-14.7-13.5-24.5zM371.7 122c-7.6 1.1-14.1 1.2-19.2.4-5.2-.8-7.8-3.3-7.8-7.4 0-4.1-.5-7.5-1.6-10.2-1.1-2.7-.8-4.8.8-6.1 1.6-1.4 1.4-2-.8-2-1.6 0-2.6-1-2.9-2.9-.3-1.9.7-3.7 2.9-5.3-1.6-1.6-4.4-2.3-8.2-2-3.8.3-4.6-3.1-2.5-10.2 12.6-15.8 20.5-27.8 23.7-36 14.3-22.5 30.2-35.3 48-38.6 17.7-3.3 34.5-1.8 50.4 4.5 15.8 6.3 24.2 19.1 25 38.5.8 19.4-8.1 35.2-26.6 47.5-18.6 12.3-20.7 24.4-6.6 36.4 22.4 4.9 41.5 15 57.3 30.3 11.5 24.6 18.6 54.9 21.3 90.9-.5 50.8-13.4 92.8-38.5 126.1 6 9.3 8.1 18 6.1 26.2-1.9 8.2-2.5 14.5-1.6 18.8.8 4.4.4 6.8-1.2 7.4-2.2 1.6-4 1.1-5.3-1.6-1.4-2.7-1.8-6.6-1.2-11.5.5-4.9.8-8.7.8-11.5-1.1-1.6-2.2-2.5-3.3-2.5-.5 0-1.1 1.4-1.6 4.1-1.1 10.4-1 18.2.4 23.3 1.4 5.2 3.4 12.1 6.1 20.9 0 2.7-.5 4.2-1.6 4.5-1.1.3-2.2-.1-3.3-1.2-.5 3.3-2.2 3.5-4.9.8-.5 3.3-2.2 3.5-4.9.8-.5 2.2-1.4 3-2.5 2.5s-2.2-1.6-3.3-3.3c-.5-6.6-2-13.5-4.5-20.9-2.5-7.4-3.7-13.2-3.7-17.6.5-5.5 1.8-11.6 3.7-18.4 1.9-6.8 5.3-14.1 10.2-21.7l24.6-113-17.2-72.9c-16.4 21.8-24.6 48-24.6 78.6l4.1 80.2c0 24-23.5 36-70.4 36l-144.1 5.7c14.7 25.1 19.8 57.9 15.1 98.3-4.6 40.4-4 67.1 2 80.2 0 14.7-9.3 22.1-27.8 22.1l-84.3 3.3c0-9.3 8.2-14.5 24.6-15.6 36-11.5 53.2-24.3 51.6-38.5-8.7-59-18.3-107-28.7-144.1 4.9 28.9-4 62.1-26.6 99.5-22.7 37.4-37.8 68.6-45.4 93.8l-111.4 5.7c-3.8 0-7.9-1.9-12.3-5.7L5.7 578l60.6-22.9c36-2.7 60.6-36.8 73.7-102.4 8.7-62.2 22.1-98.5 40.1-108.9 13.1-18 61.1-31.1 144.1-39.3l34.4-6.6c0-57.3-10.1-95.3-30.3-113.8-12 18-31.9 35.2-59.8 51.6-36 7.6-63.3 13.4-81.9 17.2-2.7 10.4-7.9 17.5-15.6 21.3-7.6 3.8-12.8 7.5-15.6 11.1-2.7 3.5-4.9 4.8-6.6 3.7-2.2-.5-2.7-2.2-1.6-4.9s3.7-5.5 7.8-8.2c4.1-2.7 7-4.9 8.6-6.6 1.1-2.2 1.2-3.5.4-4.1-.8-.5-2.3-.3-4.5.8-8.7 6-14.5 11.2-17.2 15.6-2.7 4.4-6.8 10.4-12.3 18-1.6 1.6-3 2.2-4.1 1.6-1.1-.5-1.6-1.4-1.6-2.5-2.7 1.6-4.1.5-4.1-3.3-2.7 1.6-3.8.5-3.3-3.3-2.2.5-3.3.3-3.3-.8-.5-1.1-.3-2.5.8-4.1 4.4-4.9 8.5-10.8 12.3-17.6 3.8-6.8 7.4-11.3 10.6-13.5 4.4-3.8 9.8-7.2 16.4-10.2 6.6-3 14.2-5 22.9-6.1l78.6-27.8c26.7-27.3 53.5-49.7 80.2-67.1 14.2-5.5 24.4-7.8 30.7-7 6.6.9 8.4-4.4 5.6-15.9zM357 66.4c3.3-6.6 7.6-10.1 13.1-10.6s12.8 1.9 22.1 7.4h10.6v3.3h-10.6c-6.6 3.8-12.7 6-18.4 6.6-5.7.4-11.3-1.8-16.8-6.7zm11.5-6.6c-1.6-.5-3.5.8-5.7 4.1 2.2 2.7 5.2 3.8 9 3.3-5-.6-6.1-3-3.3-7.4zm3.2 7.4c4.9 0 9.8-.8 14.7-2.5-3.8-1.6-7.6-3.3-11.5-4.9 3.9 3.3 2.8 5.8-3.2 7.4zm39.3 2.4c-1.6-2.2-.8-5.7 2.5-10.6 3.3-4.9 7.1-8.1 11.5-9.4 4.4-1.4 7.1-.8 8.2 1.6 1.1 2.5.8 5.7-.8 9.8-1.6 4.1-5.3 8.9-11.1 14.3-5.7 5.5-10.1 7.5-13.1 6.1-3-1.4-4.1-3.3-3.3-5.7.8-2.4 2.9-4.4 6.1-6.1zm9.9-13.9c-2.2 2.7-4.1 5.6-5.7 8.6-1.6 3-1.2 4.1 1.2 3.3 2.5-.8 2.5.3 0 3.3s-2.5 4 0 2.9 5-3.1 7.8-6.1c2.7-3 4.4-6.3 4.9-9.8.5-3.7-2.2-4.4-8.2-2.2zm-8.2-18c19.7-4.9 31.3-2.6 34.8 7 3.5 9.6-.5 21.8-12.3 36.8-11.7 15-9.6 16.4 6.6 4.1 16.1-12.3 24-26.2 23.7-41.8-.3-15.6-10.2-25.7-29.9-30.3-19.7-4.6-33.8-3.3-42.6 4.1-8.7 7.4-2.2 14.1 19.7 20.1zm-2.5 36c-2.2 1.1-2.9 2.5-2 4.1.8 1.6 2 1.8 3.7.4 1.6-1.3 1.1-2.8-1.7-4.5z"/></svg>