<svg xmlns="http://www.w3.org/2000/svg" viewBox="0 0 481.3 635.1"><path d="M321 0h-.7c-7.2.4-14.4 4.1-17.8 10.5-5 8.9-4.7 19.8-1.7 29.3 4.1 14.5 14.2 26.2 25 36.3 11.5 10.7 23.2 21.3 34.6 32-.2 1.2-2 .4-2.7.3-22.4-2.8-44.8-5.6-67.2-8.3 4.4 43.2 1.5 64.2-23.1 96.1-1.8 5.7-1.1 8.4 2 8.2 3.1-.2 5.3.3 6.6 1.6-1.5 1.1-2.2 2.3-2.3 3.5l-16.3-.1c-12.4.4-26.2 6-39.9 16.6-34.5 29.6-51.1 64.5-50.7 103.9 0 6.2 4.1 8.4 11.6 7.5 25.4-11.1 77.5-32.3 95.2-42.4 9.9 17 14.9 43.5 14.9 79.5l-27.7 5.3c-66.7 6.6-105.3 17.1-115.9 31.6-14.5 8.3-25.2 37.5-32.3 87.6-10.5 52.7-30.3 80.1-59.3 82.3L4.6 599.9 0 608.4c3.5 3.1 6.8 4.6 9.9 4.6l89.5-4.6c6.1-20.2 18.3-45.3 36.5-75.4 18.2-30.1 25.4-56.7 21.4-80 8.3 29.8 16 68.5 23 115.9 1.3 11.4-12.5 21.7-41.5 30.9-13.2.9-19.8 5-19.8 12.5l67.8-2.6c14.9 0 22.4-5.9 22.4-17.8-4.8-10.5-5.4-32-1.6-64.5 3.7-32.5-.3-58.8-12.2-79l115.9-4.6c37.7 0 56.6-9.7 56.6-29l-3.3-64.5c0-24.6 6.6-45.7 19.8-63.2l13.8 58.6-19.8 90.9c-4 6.1-6.7 12-8.2 17.4-1.5 5.5-2.5 10.4-3 14.8 0 3.5 1 8.2 3 14.1s3.2 11.5 3.6 16.8c.9 1.3 1.8 2.2 2.6 2.6.9.4 1.5-.2 2-2 2.2 2.2 3.5 2 3.9-.7 2.2 2.2 3.5 2 4-.7.9.9 1.8 1.2 2.6 1 .9-.2 1.3-1.4 1.3-3.6-2.2-7-3.8-12.6-4.9-16.8-1.1-4.2-1.2-10.4-.3-18.8.4-2.2.9-3.3 1.3-3.3.9 0 1.8.7 2.6 2 0 2.2-.2 5.3-.7 9.2-.4 4-.1 7 1 9.2 1.1 2.2 2.5 2.6 4.3 1.3 1.3-.4 1.7-2.4 1-5.9-.7-3.5-.2-8.6 1.3-15.1 1.5-6.6-.1-13.6-4.9-21.1 20.2-26.8 30.5-60.6 30.9-101.4-2.2-29-7.9-53.3-17.1-73.1-12.7-12.3-28.1-20.4-46.1-24.4-2-1.7-3.6-3.4-4.8-5.1 42.4-71.6 84.9-143.2 127.3-214.9-2.3-4.7-6.8-8.4-12.1-8.9-1-.1-2.2-.5-2.6.7-24.3 32.9-48.5 66-72.9 98.9-1.7 2.1-4.2 4-7 3.3-5.4-1.3-9.9-4.8-14.4-8-15.3-11.6-29-24.9-42.7-38.2-3.8-3.9-8-7.5-11.5-11.7-6.5-8.8-11.4-19.7-10-30.9.6-4.9 2.1-10.7 7.1-13 3.5-1.3 7.5-1.3 11-.1 4.3 1.5 6.2 7.6 3.1 11.2-1.1 1.2-2.6 3.3-4.5 2.8-1.8-1.2-1.7-3.7-2.9-5.3-.9-1.7-3-3.5-4.9-2.3-2.8 1.1-3.4 4.6-2.8 7.2.5 3.8 2.9 7.6 6.8 8.7 4.9 1.2 10.9.7 14.2-3.4 3.9-4.8 5.5-11.7 3.6-17.6C337 6.1 331.7 2.2 326 .7c-1.6-.4-3.3-.7-5-.7zm130.6 49.1l-100.2 169c-4-3-8.4-5.8-11.6-9.8.7-2.8 3.4-4.4 5.2-6.5 4.2-4.5 9.5-8.9 10.7-15.2.9-5.4-1.8-10.7-5.5-14.4-3.7-3.7-9.6-4.2-14.4-2.3-1.3.2-2.5 1.4-3.7 1.3-7.5-6-19.3-9.8-28.8-11-1.8.2-.8-2-1.1-3.1.1-14.9 1.8-29.3 1-44.2 30.8 3.8 61.7 7.7 92.5 11.5l55.9-75.3zM296.3 170.2c12.7 1.3 24.7 6.9 34.8 14.5-1.4 2.8-1.6 4.8-.6 6.2-2.6 1.3-4.3 3-4.9 4.9-.7 2 .2 3.5 2.6 4.6 1.3.6 2.9.4 4.7-.6-2.7 5.8-5.2 11.7-1.1 15.9l8.5 8.7c1.3 7.9 4.9 14.5 10.9 19.8 5.9 5.3 16.1 11.2 30.6 17.8-22.8 38.6-34.2 66.5-34.2 83.6 0 0 1.2 5.9 2.7 14.2 2.4 13 5.7 31.9 6.5 42.5.4 5.2-.8 9.5-2.6 12.5-4.3 7.1-27.6 10.3-69.8 9.9-34.7 3.5-75.1 3.9-121.1 1.3 4.8-14.5 30.1-24.4 75.7-29.6 45.2 0 67.8-13.4 67.8-40.2 0-18.4-9.9-48.1-29.6-88.9 25.5-7 36-14.7 31.6-23 1.8-12.3-1.3-18.9-9.2-19.8-8.8.9-13.8-1.8-15.1-7.9 6.6-2.6 9-4.8 7.2-6.6-1.8-1.8-4.8-2.8-9.2-3.3 3.1-3.1 2-5.9-3.3-8.6l11.9-18.4c5.3-4 14.3-2.8 27 3.3 4.4-.4 3.2-2.3-3.6-5.6-6.8-3.3-13.5-4.7-20.1-4.3.6-1 1.2-2 1.9-2.9zm2.6 9.6c-.4 0-.9 0-1.3.1-4.4.4-7.9 3.3-10.5 8.6 4.4 4 8.9 5.7 13.5 5.3 4.6-.4 9.5-2.2 14.8-5.3h8.6v-2.6h-8.6c-6.8-4.1-12.3-6.1-16.5-6.1zm41.6 1.7c.9 0 1.7.1 2.6.5.6.2 1.1.7 1.5 1.3-.6 2.2-1.8 4.2-3.5 6.1-2.2 2.4-4.3 4.1-6.3 4.9-2 .9-2 .1 0-2.3s2-3.3 0-2.6c-2 .7-2.3-.2-1-2.6.7-1.3 1.5-2.6 2.4-3.9 1.3-.8 2.8-1.4 4.3-1.4zm-44.7 1.5c.2 0 .3 0 .5.1-2.2 3.5-1.3 5.5 2.6 5.9 4.8-1.3 5.7-3.3 2.6-5.9 3.1 1.3 6.2 2.6 9.2 3.9-4 1.3-7.9 2-11.9 2-3.1.4-5.5-.4-7.2-2.6 1.6-2.3 3-3.4 4.2-3.4zm34.1 11.3c2.2 1.3 2.6 2.5 1.3 3.6s-2.3 1-3-.3c-.6-1.3-.1-2.4 1.7-3.3zm-54.5 23c0 .6.2 1.3.5 2.1.9 2.2 1.3 4.9 1.3 8.2 0 3.3 2.1 5.3 6.3 5.9 4.2.7 9.3.6 15.5-.3 2.2 9.2.8 13.5-4.3 12.8-5-.7-13.7.5-24.7 5.6l-76.7 56.1c10.6-24.8 19.9-45.9 27.4-63.2 11.9-4 23.4-9.9 34.9-11.6 4.6-.7 2.4-9 3.3-14.2 1.2 0 10.4-.9 16.5-1.4zm-247.5 417v.8h1.7c-.5-.4-1.3-.5-1.7-.8z"/></svg>