<svg xmlns="http://www.w3.org/2000/svg" viewBox="-10 0 671 1005"><path d="M265 1005l-13-41 50-29q9-5 15-12t6-14q0-2-1-7.5t-4-10.5q-13-19-31-44.5T254 799q-15-22-17-28-4-9-7.5-19t-5.5-19l-91 271H-10v-43l67-10q15-2 22.5-15.5T90 909l32-140 4-39q4-14 9-30t8-21q20-31 56.5-47t67.5-27q32-11 65.5-19.5T382 557l2-30-39-124-185 66-25-15-6-30 135-164 11-25 24-18 56-5 6 21-39 10-10 16 29-3 8 19-55 27q-10 14-27 36t-30 39l75-41q22-22 66-32l35-8v-34l-34 3-6-52-22-6 48-61V94h156q-14-15-26.5-32.5T516 28q0-11 9-19.5T548 0q13 0 22.5 6.5T580 24q0 8-6 14t-11 9l-8-10q3-1 6.5-4.5T565 26q0-11-17-11-15 0-15 15 0 12 13 30t29 34l49-91h29L509 274v19l65 18q19 5 26.5 20t10.5 25l50 174-24 130 13 24v30l-26 50-23-8 14-38-7-18-16 26-23-5 11-55 11-134-43-132-32 114-4 65q1 3 3 16t5 29q3 16 5 28t2 13q0 18-10 37.5T479 724q-16 1-46.5 3t-62 4.5Q339 734 321 736q9 16 24 50.5t29.5 80Q389 912 398 962zm234-743l81-153H414v33h94v15h-5v15q14 0 14 15 0 17-8 33t-16 30zm119 489l18-39-2-25-14-26 22-135-49-166q-3-9-7.5-20.5T570 326l-82-20v-30l-13-26q8-13 17-30.5t9-27.5q0-7-5-9t-9-1v-25h-80l-35 45 13 4 5 45 36-3v60l-48 11q-14 3-31 10t-26 18l-109 58-5-9 79-102 50-24-2-5-36 4-3-6 16-25 37-11-1-5-42 7-20 17-12 26q-16 20-38.5 48T188 377q-24 29-42 51l2 15 18 9 193-71 43 144-3 41q-18 21-50.5 30T275 619q-22 7-51 21t-52 35q33 5 69 15.5t70 29.5q28-2 61-4.5t62-5q29-2.5 43-3.5 20-2 26-18.5t5-23.5q0-3-2-15t-5-27-5-27q-2-12-2-14l5-71 38-126h22l48 146-14 134-8 48 4 2 19-31h6l11 28-12 37zM443 191q-17-1-25.5-5.5T402 172q5-3 12-3 13 0 19.5 5.5T443 191zM7 986h117l95-285q-12-5-28.5-9t-30.5-5q-3 7-7.5 19t-7.5 26l-6 39-32 144q-12 45-41 49l-59 9zm268-3l104-34q-8-46-23-90t-30-76.5Q311 750 303 736q-11-8-28.5-16T236 707q1 7 6.5 28.5T253 765q3 4 14.5 22t26 40q14.5 22 26 39t13.5 19q4 6 5.5 13.5T340 910q0 12-9.5 22T308 949l-37 21z" fill="currentColor"/></svg>