<svg xmlns="http://www.w3.org/2000/svg" viewBox="-10 0 938 1001"><path d="M55 1001V315H40L9 291l-17-34-2-13 19-44 14-7 8 4 10-15 14 7V0h36v207l10 4 24 31 13 44 120 99q49-59 79.5-89.5T376 258l-40-19-35 25-48-34q-4 5-10 9t-11 8l-41-110-8-11q-10-19-10-36 0-23 17.5-44t43-33.5Q259 0 285 0q35 0 63.5 25T386 99l10 55 22 8 7-2 27-16q14-9 39-10.5t47 1.5l190 26 130 158 29 10 22 24 19 67-24 10-19-47-19-10 11 43-24 9-37-63-125-133-115-8q32 26 66 56t60.5 54q26.5 24 33.5 33 44 19 64 46t20 68q0 21-16 54.5t-39.5 69Q741 637 720 665l47 76q25 42 40 77t21.5 78q6.5 43 6.5 105H646v-52l66-13q15-3 25.5-10.5T748 907q0-8-6-17t-11-16l-88-125h-67l-90 252H323v-52l81-13q19-4 25.5-17.5T439 888l44-219 119-167v-61l-184-89-131 137-30 1L91 345v656zm323-851l-11-51q-3-14-12-32t-24.5-31.5Q315 22 291 22q-26 0-48 11t-35.5 28Q194 78 194 96q0 11 4 20l81-10q1-9 5.5-16.5T300 82q16 0 25.5 13t11.5 34l2 17zM261 471h18l133-140 205 95 96-63-187-163 174 12 128 142 29 57 9-5-12-46 5-5 30 14 20 46 6-2-16-52-22-19-30-10-132-157-181-22q-19-2-38-1t-30 6q-15 7-24.5 14.5T428 184l-43-16-58-4-6-37q-2-8-5.5-17t-11.5-9q-5 0-7 4.5t-2 9.5v8l-87 12 31 84q3-2 6.5-4t5.5-4l48 33 37-26 67 38q-20 17-58.5 57.5T261 408L129 301l-19-52-17-25-49-28-5 9 10 5 35 24 11 33-4 6v48zm-25-299q-5 0-5-2 0-17 13-24t18-7q6 0 18 5-11 16-21.5 22t-22.5 6zM43 298l17-1 19-35-8-23-48-31-18 35 2 9 16 34zm451 432h241l-40-70q23-29 47.5-64t41.5-67q17-32 17-50 0-32-18.5-59.5T726 377l-104 69v65L505 674zm171 250h151q2-79-17-131t-34-77l-14-23h-82l83 122q2 4 9.5 16t7.5 23q0 19-17 29t-38 14l-49 10zm-324 0h134l82-231h-67l-32 146q-7 28-19 41t-29 17l-69 10z" fill="currentColor"/></svg>