<svg xmlns="http://www.w3.org/2000/svg" viewBox="0 0 348.4 594.5"><path d="M293.2 386.1V274.4c-3.8-16.3-13-24.5-27.6-24.5-24.7 10-37 20.1-37 30.1-5 34.3-10.5 70.1-16.3 107.3l80.9-1.2zm-37.1-237.3c2.1 17.6 9.2 42.1 21.3 73.4 18 18.4 28.1 40.5 30.4 66.2 2.3 25.7 5.8 63.7 10.4 113.9 0 6.7 2.7 17.5 8.2 32.3 5.4 14.9 7.1 54.9 5 120.2 8.8 14.2 6.9 24.3-5.6 30.1-15.5.8-33.5 2.3-54 4.4-12.1.8-18.2-.6-18.2-4.4 0-3.8 2.5-7.1 7.5-10 5-2.9 16.7-6.7 35.2-11.3 10-8.4 15.1-19.3 15.1-32.6-12.1-61.1-20.1-103.4-23.9-126.8h-55.2c-10.9 3.3-16.9 19.5-18.2 48.3-8.4 31-24.9 67.4-49.6 109.2 1.3 14.2-1 23.9-6.9 28.9-13 0-23.9.6-32.6 1.9-8.8 1.3-22.8 1.9-42.1 1.9.8-9.2 8.9-14.8 24.2-16.6 15.3-1.9 28-9.2 38.3-22 10.3-12.8 16.6-28.1 19.1-46.1 7.5-31 18.6-76.2 33.3-135.6l11.9-67.8-15.7 1.9 11.9-32.6c-8 1.3-12.1-1-12.6-6.9-.4-5.9 3.1-9.8 10.7-11.9 2.5-9.6-3.8-20.6-18.8-33-15.1-12.3-25.9-22.5-32.6-30.4-9.6 26.8-25.5 55-47.7 84.7-7.1-.4-16.8-5.6-29.2-15.7-12.3-10-25.2-22.2-38.6-36.4v368.5H18.9v-371C5.9 222.2-.4 213 .1 195.9c2.9-14.6 9.2-18 18.8-10v-40.8h18.2V179c5 10.5 9 20.7 11.9 30.8 15.5 13 32.2 25.5 50.2 37.7 8.8-27.2 19.3-53.6 31.4-79.1.4-13 3.6-23.4 9.4-31.4l-7.5-10c-5 4.6-9.7 8-14.1 10-4.4 2.1-7.7 1.6-10-1.6-2.3-3.1-5-5.3-8.2-6.6-3.1-1.3-4.2-2.8-3.1-4.7 1-1.9.7-2.2-.9-.9-1.3.8-2.5.5-3.8-.9-1.3-1.5-1.5-3.2-.6-5.3-2.1 0-4.5.8-7.2 2.5s-5.1-.4-7.2-6.3c.4-17.6-.4-30.1-2.5-37.7-1.3-23 3.9-40.3 15.4-51.8s25-18.9 40.5-22.3c15.5-3.3 27.8-.2 37 9.4s14.1 20.6 14.8 33c.6 12.3-2.2 25.2-8.5 38.6 3.8 15.5 11.7 22.3 23.9 20.4 12.1-1.9 25.7.3 40.8 6.6 18.8-1.7 44.4 25.3 76.6 81 10.9 13 18.8 44.4 23.9 94.2 3.3 5.4 6.5 11.5 9.4 18.2 0 9.6-.4 16.1-1.3 19.5-.8 3.3-3.6 9.8-8.2 19.5-2.1 5.9-4.8 9.4-8.2 10.7-7.5-23.4-10-47.1-7.5-70.9-11.9-55.6-34.3-99.7-67.4-132.8zm-101.6-21.3l-5.7 28.9c-2.9 12.6-1 20.9 5.7 25.1 30.6 21.3 51.7 42.5 63.4 63.4 3.3 5.4 6.9 8.2 10.7 8.2 9.6 0 22.2-8 37.7-23.9-18-46.9-28.5-83.1-31.4-108.6-18.4-6.7-33.2-8.8-44.3-6.3-11.1 2.5-20.2-4.6-27.3-21.3-5 1.7-9.5.5-13.5-3.5s-5-9.4-3.1-16.3 2.2-14 .9-21.3c-1.3-7.3-4.6-10.6-10-9.7-5.4.8-9.2 4-11.3 9.4-2.1 5.4-4.6 6.9-7.5 4.4-16.3 2.9-25.9 5.3-28.9 7.2-2.9 1.9-4 6.2-3.1 12.9 5.9-4.6 13.1-7.6 21.7-9.1s11.2-.5 7.8 2.8C99.8 72.2 90.6 77 88.5 84.2l1.3 23.2c6.7-.8 9.6 1.3 8.8 6.3 4.2-2.5 7.7-3.7 10.7-3.5 2.9.2 2.9 3.5 0 9.7 4.2 5.4 10.6 4.4 19.1-3.1 8.6-7.5 17.3-4 26.1 10.7zM89.8 93.6c-.8-6.3.7-11 4.7-14.1 4-3.1 10.8-4.9 20.4-5.3l8.2-5.6 1.9 2.5-8.8 5c-2.1 5.9-5.2 10.6-9.4 14.1s-9.9 4.6-17 3.4zm5.6-10.1c-1.3.4-2.1 2.3-2.5 5.6 3.3 1.3 6.5.6 9.4-1.9-4.1 1.8-6.4.5-6.9-3.7zm6.9 3.8c3.8-2.5 6.9-5.6 9.4-9.4-3.8.4-7.5 1.3-11.3 2.5 4.7.4 5.3 2.7 1.9 6.9zm30.8-18.2c-2.5-.8-3.9-3.9-4.1-9.1-.2-5.2.9-9.4 3.5-12.6 2.5-3.1 4.8-4.1 6.9-2.8 2.1 1.3 3.8 3.9 5 7.8 1.3 4 1.2 9.2-.3 15.7s-3.7 10-6.6 10.7c-2.9.6-4.9-.1-6-2.2-1-2.1-.5-4.6 1.6-7.5zm0-15.1c-.4 3.3-.4 6.4 0 9.1.4 2.7 1.4 3.2 2.8 1.6 1.5-1.7 2.1-.8 1.9 2.5-.2 3.3.2 4.1 1.3 2.2 1-1.9 1.8-4.7 2.2-8.5.4-3.8-.1-6.9-1.6-9.4s-3.7-1.7-6.6 2.5zm-16.3-8.8c12.1-13.4 22.1-17.5 29.8-12.2 7.7 5.2 11.5 16.1 11.3 32.6-.2 16.5 2.3 16.4 7.5-.3s3.3-30.7-5.6-41.7c-9-11.1-22.2-13.4-39.5-6.9-17.4 6.5-27.3 14.4-29.8 23.9-2.6 9.3 6.2 10.9 26.3 4.6zm17.6 27.7c-.8 2.1-.5 3.5.9 4.1 1.5.6 2.5 0 3.1-1.9.7-1.9-.7-2.7-4-2.2z"/></svg>