<svg xmlns="http://www.w3.org/2000/svg" viewBox="0 0 531.2 594.8"><path d="M295.9 453.2l-122.4-85.4H146c11.1 20.8 15.1 63.1 12.1 126.9l137.8-41.5zm96.9-5.7l-156.9 40.8c-61.6 32.3-94.4 55.5-98.2 69.5 39.5-17.9 81.4-20.5 125.6-8 44.2 12.5 81.6 9.9 112.2-8 20.9-26.8 26.7-58.2 17.3-94.3zM357.7 84c-1.7-2.6-.6-6.8 3.2-12.8 3.8-6 8.2-9.7 13.1-11.2s8.1-.9 9.6 1.9 1.2 6.8-1 12.1c-2.1 5.3-6.5 10.9-13.1 16.9-6.6 6-11.6 8.3-15 7-3.4-1.3-4.7-3.5-3.8-6.7.9-3.1 3.2-5.5 7-7.2zm12.1-16c-3.4 3-6 6.2-7.7 9.6-1.7 3.4-1.2 4.6 1.6 3.5 2.8-1.1 2.8.3 0 4.1s-2.8 5 0 3.5 5.7-4 8.9-7.7c3.2-3.6 5.1-7.4 5.7-11.5.8-3.9-2.1-4.4-8.5-1.5zm-10.2-15.3c19.1-9.4 31.6-8.5 37.3 2.6 5.7 11.1 2.9 22.3-8.6 33.8-11.5 11.5-15.1 20.2-10.8 26.1 4.3 6.4 13.5 2.8 27.7-10.8 14.2-13.6 21.4-30.2 21.4-49.7 0-20-10.6-32.7-31.9-38.3s-39-6.6-53.2-3.2c-14.2 3.4-23.7 11.1-28.4 23 24.2 3.8 39.7 9.3 46.5 16.5zm-3.1 36.4c-2.6 1.7-3.3 3.4-2.2 5.1 1.1 1.7 2.6 1.8 4.5.3 1.8-1.5 1.1-3.3-2.3-5.4zM294 77.6v-5.1l7-5.7c7.2-4.3 16.4-2.1 27.4 6.4l10.2.6v5.7l-10.8-1.9c-11.1 4.3-21.3 4.3-30.6 0H294zm6.3-4.5c1.7.9 3.8 1.7 6.4 2.6-1.7-2.6-1.7-4.9 0-7-3.8 1.3-5.9 2.7-6.4 4.4zm13.4 3.2c3.4 0 6.8-.4 10.2-1.3l-8.9-5c1.7 2.5 1.3 4.6-1.3 6.3zm-30.6 23.6c-.4-1.3-.4-2.1 0-2.6.4-.4 1.1-.6 1.9-.6 1.3 0 2.7.9 4.1 2.6 1.5 1.7 2.8 2.3 3.8 1.9 1.1-.4 1.6-1.3 1.6-2.6s.3-2.1 1-2.6c.6-.4 1.2.4 1.6 2.6.4 2.1-.4 3.8-2.6 5.1-2.1 1.3-4.3.7-6.4-1.6-2-2.3-3.7-3-5-2.2zm15.3 15.3l-12.8 1.9c-1.3.9-1.7 1.6-1.3 2.2.4.6 1.5.7 3.2.3 1.7 0 3.7-.5 6.1-1.6 2.4-1 4-1.9 4.8-2.8zm.7-1.9c.9 0-.3-.2-3.5-.6-3.2-.4-6.1-.9-8.6-1.3s-4-.2-4.5.6c-.4.9 0 1.5 1.3 1.9l15.3-.6zm56.1-51c-12.3-8.9-28.3-14-47.8-15.3-2.1 2.6-4.7 6-7.7 10.2 8.1-2.6 15.7-1.8 23 2.2 7.2 4 13.4 6.3 18.5 6.7v4.5c-7.7-1.3-15.2-3.6-22.6-7-7.4-3.4-14.6-3.4-21.4 0-6.8 6.4-13.8 17.6-21 33.8 7.7 3 11.3 6.6 10.8 10.8 7.7.4 12.9 1.8 15.6 4.1 2.8 2.3-.7 6.3-10.5 11.8-2.6 11.9 4.1 17 20.1 15.3 15.9-1.7 23.9 6.8 23.9 25.5-.4 14.9-12 22.3-34.8 22.3-22.7 0-33.9 6.8-33.5 20.4-2.1 41.2-.1 66.1 6.1 74.6 6.2 8.5 24.8 63.1 55.8 163.9l59.9-13.4c1.7-74.8 10.6-134.3 26.8-178.5 16.2-44.2 15.6-66.5-1.6-67-17.2-.4-28.8-.9-34.8-1.3-6-.4-8.7-17.6-8.3-51.7-1.7-4.7-4.5-10.2-8.3-16.6-3.8-6.4-2.1-12.8 5.1-19.1 7.2-6.4 13.1-14.1 17.5-23.3 4.5-9.1 3.6-15.2-2.6-18.2s-12.5-1-19.1 6.1c-6.5 7.2-9.5 6.9-9.1-.8zm86.1 178.6c-20 53.1-30.4 116.7-31.2 190.7 14.5 34 13.8 66.5-1.9 97.6 16.6-12.8 28.5-8.1 35.7 14 7.2 22.1 20.8 30.9 40.8 26.5 20-4.5 35.5 3.9 46.5 25.2H0c3-10.2 9.6-15 19.8-14.3 10.2.6 20.4-1.3 30.6-5.7 10.2-4.5 21.3-7.8 33.2-9.9-1.7-33.2 10.6-53.4 37-60.6L102 371.6c-4.3-28.5 11.1-42.9 45.9-43.4 12.8 0 27.2 7.4 43.4 22.3l110.3 81.6c-23.8-82.9-38.8-129.6-45-140-6.2-10.4-9.2-22.6-9.2-36.7l1.9-12.1c-14 .9-35.8 7-65.4 18.5-29.5 11.5-66.4 17.6-110.6 18.5-5.1-33.2 31.9-78.2 111-135.2 12.8-18.3 30.9-27.6 54.5-28.1 23.6-.4 35.2 1.8 34.8 6.7-.4 4.9-9.4 8-26.8 9.2 0 20-5.5 30.4-16.6 31.2-11.1.9-22.5 1.7-34.4 2.6-17.9 25.1-39.3 49.3-64.4 72.7 33.6-17.4 68.2-32.9 103.9-46.6 15.7-16.6 44-25.1 84.8-25.5l-3.2-19.8c-4.3.9-10.8 1.3-19.8 1.3-8.5 0-12.8-3.6-12.8-10.8 0-7.7-1.4-12.2-4.1-13.7-2.8-1.5-3-3.3-.6-5.4 2.3-2.1 2.9-3 1.6-2.6-2.6-.4-4-1.5-4.5-3.2-.4-1.7.6-3.4 3.2-5.1-2.6-2.1-5.6-3.7-9.2-4.8-3.6-1.1-3.3-6.1 1-15 7.2-13.2 14-23.6 20.4-31.2 10.2-34 27.4-52.6 51.7-55.8 24.2-3.2 46.2-1 66 6.7 19.8 7.7 29.7 22.7 29.7 45.3s-5.2 40.2-15.6 52.9c-10.4 12.8-21.6 21.5-33.5 26.1l.6 31.2c30.2-.4 52.5 8.1 67 25.5 38.3 59.5 62.5 102.7 72.7 129.4-2.6 33.2-8.1 74.6-16.6 124.3 5.5 17 8.3 31.5 8.3 43.4 0 12.3-10.6 18.5-31.9 18.5-2.6 17.4-6.1 26.3-10.5 26.5-4.5.2-6.7-10.7-6.7-32.8 0-22.1 4.9-40.4 14.7-54.8 0-51 2.8-91.4 8.3-121.2-28.3-36.7-46.5-63.9-55-81.3z"/></svg>