<svg xmlns="http://www.w3.org/2000/svg" viewBox="-10 0 761 1001"><path d="M-10 1001v-45l84-15 14-9q-1-4-1-11 0-41 67-71l-54-196q-1-5-3.5-17T94 619q0-26 15.5-48.5T157 548q15 0 31 6.5t27 19.5l150 168 15-92-58-249-260 93-33-21-8-35 187-234 37-18h84l13 38-18 36-80 11q-14 20-38.5 50T159 379l115-66q17-14 37.5-24t53.5-18l54-13-6-26-41 15-24-63-31-2 50-110 2-13q8-28 28-43.5T456 0q36 0 67 12t50 34.5Q592 69 592 99q0 28-16.5 55T532 218v38l103 25q26 6 33 25t12 33l71 242-36 176v98l-41 13v13l-42 9v-76l16-43 14-189-61-185-41 158-12 159 20 2v190l50 35 84 15v45h-89l-135-38-198 29q-39 6-67.5 7.5T179 1001q-31 0-53-13l-47 13zm530-795q20-28 36.5-55.5T573 95q0-26-20-43t-47-25q-27-8-49-8-25 0-44.5 10T386 62l78 44q5-4 11-7t13-3q13 0 20.5 9.5T516 126q0 7-5.5 16.5T501 158l-15 18zm128 666l13-3v-15l34-11v-80l37-186-68-231q-4-13-11-28.5T632 298l-118-29v-47l-49-41 22-31q4-5 7.5-11.5T498 128q0-3-1.5-8.5T487 114q-10 0-21 12l-85-48-40 91 19 1 20 55 45-15 16 62-77 16q-19 4-43 14.5T286 327l-152 80-7-12 106-141 79-9q1-3 3-7.5t7-14.5q-1-4-3.5-9.5T315 203h-65l-27 15q-21 27-48 60.5t-54.5 67Q93 379 72 404.5T43 440l2 20 24 13 267-97 63 273-17 99 148-33 13-165 45-171 23 1 71 203-18 190-16 42zM405 135q-11 0-19-3.5t-15-8.5q5-6 14.5-8t11.5-2q19 0 32 20-7 1-13 1.5t-11 .5zM171 842l44-22-61-184 29-63q-12-6-27-6-19 0-31 14.5T113 619q0 7 2.5 16.5T120 653zm62-30l124-56-159-175-24 54zm-38 109l356-20V731h-8l-170 36-220 102zm421 61h67v-14l-72-9-58-41-368 20-50-60q-29 15-29 41t12.5 39q12.5 13 29.5 18t32 5q17 0 47.5-2t53.5-5l207-28zM9 982h67l31-8q-10-11-14-23l-12 8-72 9z" fill="currentColor"/></svg>