<svg xmlns="http://www.w3.org/2000/svg" viewBox="-10 0 764 1003"><path d="M-10 1003l87-141V304h-2l-24-19-12-26-2-10 15-33 10-6 6 3 8-11 1 1V2h34v215l11 5 19 26 9 31 92 76q14-18 32-38.5t34.5-37.5q16.5-17 28.5-24 26-16 53-19l-19-30h-37l-19-43q-5 1-11.5 1.5T292 166l19-96V59q1-31 22.5-45T387 0q40 0 66.5 22.5T480 82q0 21-9 46l-17 43 13 19q22-1 51 3t57 26l109 90 36 161 22 17 12 27-3 54-23 3-3-40-13-13-3 30-19 1-14-53-42-137-77-56q9 32 19 67.5t17.5 63Q601 461 602 468q15 21 22 35.5t9 28.5q2 14 2 36 0 14-6 32.5t-8 37.5q-1 10-2 18t-1 16q0 8 1 17.5t1 21.5q6 24 12.5 60.5T644 850q5 42 5 82 0 18-1 36.5t-4 34.5H501v-43l55-11q12-3 20.5-8.5T585 925q0-6-1-10l-50-174-4-30h-80l-92 292H217v-43l66-11q15-3 21-14.5t8-25.5l33-117-4-42 14-39h-11l124-247-91-138-113 111-23 1-130-114v537l88 142h-36L94 893l-68 110zm450-842l15-40q2-7 4-16t2-19q0-29-20-48t-55-19q-23 0-38.5 10T328 58l61 29q7-11 17-11t16 9.5q6 9.5 6 19.5 0 5-2 11t-5 13l-5 13zm296 398h5l2-40-13-24-23-17-38-160-110-89q-14-11-31.5-16t-56.5-5q-10 0-16-6l-18-26-40-28 12-28q4-10 4-17 0-10-7-10-5 0-8 4.5t-4 8.5l-68-30-14 73q3-1 6-.5t5-.5l19 44 38-2 34 57q-18 2-36 6.5T345 269q-12 8-30 26.5t-37 40Q259 357 244 375l-101-82-15-40-13-19-37-22-3 7 7 5 26 18 9 25-6 9v26l133 117h14l122-120 107 161 97-3-49-174 12-6 99 68 43 147 9 47h4l3-36 7-2 20 20zM348 120q-7 0-14.5-3t-7.5-6q0-7 10.5-9.5T349 99q10 0 15 4t9 11q-15 6-25 6zM77 288h12l14-25-5-17-35-21-13 25 1 6 12 24zm297 406h226v-17q0-8 .5-18t1.5-21q2-17 8-36t6-33q0-26-5-47.5T585 474l-103 2zm145 291h109q3-27 3-58 0-37-5-77.5T614 772q-7-37-13-61h-52l5 29 49 174q1 4 1 7v6q0 16-13 24.5T561 963l-42 9zm-286 0h112l88-274h-58l-15 41v42l-32 121q-4 24-15 34.5T288 963l-55 9z" fill="currentColor"/></svg>