<svg xmlns="http://www.w3.org/2000/svg" viewBox="0 0 450.9 627.2"><path d="M397.3 408.8c0-10.6-.9-32.1-2.8-64.4-1.8-32.3-4.3-53.8-7.3-64.4-3-10.6-5.9-18.8-8.7-24.6-2.8-5.8-9.5-7.3-20.1-4.5-18.5 7.4-33.5 21.5-45 42.2-8.8 33.2-18 70.4-27.7 111.4l111.6 4.3zm-99-311.5c-6 0-10.5-2.3-13.5-6.9-3-4.6-3.2-10.2-.7-16.6 2.5-6.5 3.8-13.6 3.8-21.5 0-7.4-2.4-11-7.3-10.7-4.8.2-8.5 2.7-11.1 7.3-2.5 4.6-5.2 5.5-8 2.8-15.7.9-24.9 2-27.7 3.1-2.8 1.2-4.4 5.2-4.8 12.1 6-3.7 12.9-5.3 20.8-4.8 7.8.5 10.6 1.8 8.3 4.2-16.6-.9-26.3 2.3-29.1 9.7l-1.4 22.8c5.5 0 7.4 2.5 5.5 7.6 5.5-1.8 9.5-2.2 11.8-1 2.3 1.2 1.4 4-2.8 8.7 3.7 6.5 9.8 7.3 18.3 2.4 8.5-4.8 15.3-.3 20.4 13.5 0 9.2-3.5 16.3-10.4 21.1-6.9 4.8-9 13.5-6.2 26 1.8 11.1 20.3 34.8 55.4 71.3 1.4 6.5 7.8 6.2 19.4-.7 17.1-8.8 25.5-20.3 25.3-34.6-.2-14.3-.3-27.9-.3-40.8 0-12.9-.1-23.8-.3-32.5-.2-8.8-8.9-12.5-26-11.1-17 1.1-30.1-9.2-39.4-31.4zm-69.9-12.4c.9-6 3.3-10.4 7.3-13.2 3.9-2.8 10.3-3.2 19-1.4l9-4.2 1.4 2.1-8.3 4.2c-2.8 5.1-6.5 9-11.1 11.8-4.6 2.7-10.4 3-17.3.7zm7.6-9c-1.4.9-2.3 2.8-2.8 5.5 2.3 1.4 5.1 1.2 8.3-.7-4.5.5-6.4-1.2-5.5-4.8zm5.6 4.8c3.7-1.8 6.9-4.4 9.7-7.6-3.2-.5-6.2-.2-9 .7 3.2.9 3 3.2-.7 6.9zm31.1-13.2c-2.3-.9-3-4-2.1-9.3.9-5.3 2.7-9.3 5.2-12.1 2.5-2.8 4.7-3.3 6.6-1.7s2.9 4.5 3.1 8.7c.2 4.2-.9 9.3-3.5 15.6-2.5 6.2-5 9.6-7.3 10-2.3.5-3.8-.6-4.5-3.1-.6-2.6.2-5.3 2.5-8.1zm2.8-13.8c-1.4 3.2-2 6-1.7 8.3.2 2.3 1 2.8 2.4 1.4s1.8-.5 1.4 2.8c-.5 3.2-.1 4 1 2.4 1.2-1.6 2.2-4.3 3.1-8 .9-3.7.9-6.9 0-9.7-.9-2.7-3-1.8-6.2 2.8zM261 41.2c13.4-11.1 23.4-13.5 30.1-7.3 6.7 6.2 8.5 17.7 5.5 34.3-3 16.6-.8 17 6.6 1 7.4-15.9 7.7-30.2 1-42.9s-18.5-17-35.3-12.8c-16.8 4.2-27.1 10.6-30.8 19.4-3.7 8.8 3.9 11.6 22.9 8.3zm13.1 30.5c-1.4 1.8-1.5 3.1-.3 3.8 1.2.7 2.2.3 3.1-1s0-2.3-2.8-2.8zm138.4 348.9h-10.4V458c12 16.6 12 50.3 0 101.1-2.3 16.2-.5 32.1 5.5 47.8 4.6 10.2-.1 15.1-14.2 14.9-14.1-.2-26.2 0-36.3.7-10.2.7-18.7 1-25.6 1-7.4 0-10.8-1.7-10.4-5.2.5-3.5 5.8-8.2 15.9-14.2 16.6-1.8 27.8-5.8 33.6-11.8 5.8-6 8.2-17.5 7.3-34.6-1.8-18-5.8-51-11.8-99-6.9-14.3-11.1-26.3-12.5-36l-33.9-1.4c-4.2 8.3-9.5 16.8-15.9 25.6-6.5 8.8-9.7 16.8-9.7 24.2 1.4 27.2-12.7 63.9-42.2 110.1-5.1 5.5-6.9 15.2-5.5 29.1.9 11.1-5.4 15-19 11.8-13.6-3.2-26.4-2.8-38.4 1.4-12 4.2-21.3 5-28 2.4-6.7-2.5-9.2-5.2-7.6-8 1.6-2.8 8-5.5 19-8.3 21.2-10.2 35.5-17.1 42.9-20.8 7.4-3.7 13.4-13.6 18-29.8 4.6-17.5 12.9-43.8 24.9-78.9-.9-17.1 2.5-36.7 10.4-58.8l31.8-120.4-14.5-1.4c4.2-12.5 7.4-21.2 9.7-26.3-12.5-7.8-12.5-14.5 0-20.1-.9-8.8-5.5-18.7-13.8-29.8-17.5-16.2-27.9-28.6-31.1-37.4-20.3 16.2-42.7 32.8-67.1 49.8-6 6.9-11.1 8.5-15.2 4.8-27.7-9.2-54.2-24-79.6-44.3-4.6.9-8.8-.7-12.5-4.8L56.1 521.6c-2.3 22.1-.9 40.4 4.2 54.7 10.6 24 17.5 38.3 20.8 42.9-4.2 1.8-8.3 3.2-12.5 4.2-5.1-11.5-8.9-20.3-11.4-26.3s-7.5-9.7-14.9-11.1c-5.1 0-9.8 3.1-14.2 9.3-4.4 6.2-9.6 15.8-15.6 28.7-6-.5-10.2-2.3-12.5-5.5 9.7-15.7 18.5-29.3 26.3-40.8 8.3-15.2 13.6-33.9 15.9-56.1L63 184.5c-11.1-20.8-10.4-35.8 2.1-45C68.3 91 70.6 50.9 72 19.1c5.1-4.6 9.7-4.4 13.8.7l-6.9 130.8c8.8 9.2 13.2 19.1 13.2 29.8 29.1 13.8 56.5 26.1 82.4 36.7 21.2-24.9 38.8-41.8 52.6-50.5 3.7-7.8 17.3-18.5 40.8-31.8l-4.8-10.4c-5.5 3.7-10.5 6.5-14.9 8.3-4.4 1.8-7.3.7-8.7-3.5-1.4-4.2-3.3-7-5.9-8.7-2.5-1.6-3.1-3.1-1.7-4.5 1.4-1.4 1.2-1.6-.7-.7-1.8.9-3.1.3-3.8-1.7-.7-2.1-1-4-1-5.9-1.4 0-3.5.6-6.2 1.7-2.8 1.2-4.4-1-4.8-6.6 2.8-18 3.9-30.7 3.5-38.1 2.3-23.1 9.6-39.5 21.8-49.1C252.9 5.9 266.5.7 281.5 0s26 4.5 32.9 15.6c6.9 11.1 9.7 22.7 8.3 35-1.4 12.2-6.2 23.6-14.5 34.3 5.5 21.7 15.7 31.8 30.5 30.5 30.5-6.5 50.5 1.7 60.2 24.6 9.7 22.8 22.6 50.6 38.8 83.4 6 15.2 9.5 42.2 10.4 81 4.2 12.5 4 24.9-.3 37.4-4.4 12.5-12.8 21-25.3 25.6-7.4-.5-7.6-4.4-.7-11.8 12.5-16.2 15.9-27.7 10.4-34.6-13.8 21.2-19.7 27-17.7 17.3 2.1-9.7 8-20.1 17.7-31.1-2.3-11.5-5.3-23.4-9-35.6-3.7-12.2-6-25.5-6.9-39.8-15.7-23.5-28.6-48-38.8-73.4-2.8 5.5-3.2 13.8-1.4 24.9 1.8 11.1.9 28.1-2.8 51.2 7.8 4.2 14.7 12.5 20.4 24.9 5.8 12.5 9.6 34.8 11.4 67.1l7.4 94.1z"/></svg>