<svg xmlns="http://www.w3.org/2000/svg" viewBox="-10 0 753.889 1001"><path d="M24 1001l-34-5 80-570-16-9-7-7-6-36 4-11 8-1-3-14 32-5L130 9l34 5-47 331 14 4 28 13h105l62-94q11-18 33-32.5t49-14.5h20v-21l-37-3-8-51q-5-1-11.5-1.5T359 143l32-69q0-4-.5-9.5T390 54q-1-20 16.5-37T470 0q46 0 70 25t24 59q0 13-5 29t-16 33l-26 39v29h23q29 0 43 6t21 16.5q7 10.5 14 21.5l63 148-8 128 13 24v19q33 8 47 32t10 46q-4 16-15 27t-32 6q-19-3-26-18t-4-30q2-11 6.5-17t6.5-11q0-5-2-7l-15 31-22-7-5-7q-6 6-11 13.5t-7 11.5q-4-16-12-27t-15-16q1-1 5-6t15-11l5-48 7-103-53-102-18 70-3 35q23 21 35.5 43t12.5 56q0 14-6 32.5t-8 37.5q-3 25-3 51v23.5l2 26.5q6 24 12.5 60.5t11 78.5q4.5 42 4.5 82 0 18-1 36.5t-3 34.5H461v-43l55-11q12-3 20.5-8.5T545 923v-10l-50-174-5-30h-60l-93 292H197v-43l63-11q15-3 20-15t9-25l32-117-3-42 14-39h-71l156-261-5-43-26-70-111 110-152-18-12 5h-7zm483-833l22-33q5-8 10-21t5-27q0-25-18.5-46.5T470 19q-35 0-48 11t-13 25q0 5 .5 8.5t.5 5.5h65q2-2 5-3.5t10-1.5q13 0 20 9.5t7 20.5q0 18-12 32l-16 25zm149 455l18-35-2-27-16-25 9-124-64-148q-7-11-16-20.5t-38-9.5h-30q-16 0-16-21v-30l-31-29 18-30q3-5 7.5-14t4.5-13q0-5-2.5-10.5T486 81q-6 0-8.5 2t-3.5 3h-72l-19 45q3 0 7 1t6 1l7 51 41 3v51h-37q-30 0-44.5 15T340 281l-66 96H160l-36-18-20-7-41 3 1 7h38l22 16 3 32 145 16 110-112 15 3 33 90 3 36 98-10 3-35 23-86 17-4 64 124-12 149 9-4 11-19 6 1 7 28q-4 2-11 9t-8 12l7 12zM427 112q-6 0-14-2t-8-7q0-5 6.5-8t13.5-3q9 0 15 3.5t11 8.5q-5 3-10.5 5.5T427 112zM87 418h17l9-7-3-29-14-10-41 3 5 24 6 9zm204 274h270q-1-7-1-15.5V660q0-27 3-52 2-17 8-36t6-33q0-26-11.5-46T533 450l-102 10zm329-73q7-10 11.5-17.5T649 586v-.5l-1-1.5q-13 1-21.5 7T609 605q3 2 6 5t5 9zm79 55q13 2 20-4.5t10-18.5q4-21-9-38t-35-24l-1 2q12 8 9 23-2 7-6 13t-6 16q-2 10 1.5 19.5T699 674zM480 983h108q2-14 3-28.5t1-29.5q0-37-5-77.5T574.5 770q-7.5-37-13.5-61h-51l4 29 49 174q2 4 2 7v6q0 16-13.5 24.5T521 961l-41 9zm-267 0h112l88-274h-60l-12 41v42l-33 121q-13 45-40 48l-55 9z" fill="currentColor"/></svg>