<svg xmlns="http://www.w3.org/2000/svg" viewBox="0 0 374.5 594.5"><path d="M222 43c-.4 0-.8 0-1.1.1-2.3.7-5 3.5-5.1 5.2 0 .5.5 6.5 6.5 7 4.6.4 17.7-2.4 18.2-2.9 2-2-12.9-9.4-18.5-9.4zm58-25.1c13 5.3 25.1 25.7 30.4 44.8 3.7 13.2 5.9 36.1 1 58.3-1.9 8.4-16 15.3-22.7 1.3-3.3-6.8-24.4-37.2-21.9-39.4 20.2-17.1 14.1-46.3-4.3-35.1-4.9 3-5-4.3-5-6.6 0-5.8-27.1-14.3-27.1-14.9 0-2.6 15.8-22.4 49.6-8.4zm-57.5 16.3c1 0 24.2 9.7 24.2 9.7 3.3 5.4 3.5 16.3 9.9 16.3 1.2 0 6.8-6.2 9.2-3.8 6.5 6.4-12.3 23.6-12.3 25.4 0 3.2 19.2 34.2 23.3 43.9 5 9.2 7.4 12.9 16.4 15.8 4.5 1.5 7.4 2.6 6.4 4.8-5.1 11-13.3 107.1-13.5 107.3-.2.2-58.3 23.5-58.3 23.5l2.1-29.4c1.2-31-2-43.8-15.8-64.5-4.7-7.1-8.9-14.8-9.9-16.9-10.5-20.2 17.4-23.5 26.7-27 17.8-6.7 18.8-7.6 15.6-13.6-.9-1.6-12.7-25.9-13.6-27-1.1-1.3-3.6-1.9-7-1.9-2.8 0-14.1 2.2-15.7 2.2-3.5 0-5-2-3.4-9.2 1.3-5.8-.2-6.3 2.3-6.3 3.8 0 6.9-2 6.9-4.3 0-2.6-1.9-4.1-6.4-5.1-2-.4-3.8-1.4-4-2.1-.2-.7-.9-3.1-1.6-5.4-1.3-4.1-1.3-4.1 8.3-18 5-7.7 9.7-14.2 10.2-14.4-.1 0-.1 0 0 0zm90.1 155.7c2.8 0 4.8 21.5 6 64 .6 19.9 1.8 42.5 2.7 50.3 2.7 23.2 2.6 24.6-3.4 32.1-2.8 3.5-5.9 7-6.8 7.8-1.1.9-2.3 1.4-3 1.4-.3 0-.5-.1-.5-.3-.2-1-1.4-97.3-1.4-110.3 0-15.2 2.4-36.4 4.8-42.8.5-1.4 1.1-2.2 1.6-2.2zm-29 84.9c1.2 0 1.9 1.8 2.5 6.4.9 6.9-.4 108.8-1.4 112.8l-.6 2.5H178.3l26.3-55.9c19.1-40.4 18.9-40.1 36.4-49 10.6-5.5 39.4-16.8 42.6-16.8zM256.7 0c-1.1 0-2.3 0-3.4.1-21.3 1.6-27.4 3.7-39.2 23.8-3.4 5.9-10.5 16.4-15.6 23.2-9.7 13-10.9 16.1-7.4 20 1.3 1.4 6.9 4.2 2.7 10.6-2.5 3.9 1.1 10.7 1.5 13.5.5 3.6 2.5 6.4-1.6 11.9-5.5 7.2-2.9 9.8.2 11.8 2.4 1.6 4.2 2.4 6 2.4 2.5 0 1.1-5.3 6.8-7.2 6.6-2.1 10.8-4.6 13.9-4.6 3.7 0 8.6 12.5 9 13.6.7 1.7-24.9 7.3-33.9 12.1-10.1 5.4-17.9 13.3-33.8 34.5-20.8 27.7-29.7 38.8-33 41-1.4.9-2.4 1.3-3.9 1.3-1.2 0-2.8-.3-5.1-.7-3.4-.7-26.1-9.9-32.4-12.3-23.7-9-27.7-11.8-27.7-20 0-8.5-2.2-14-7.4-19.1l-4.7-4.5 3-75.2c-.2-.2-15.2-1.8-15.2-1.8L34 100.2 13.6 79.9l-4.7 9.2c0 .9 24.4 25.9 24.4 25.9l-2 34.6c-.1 1.4-.7 1.9-1.6 1.9-1.4 0-3.5-1.2-5.4-2.2-2-1-4.1-1.6-6.1-1.6-2.4 0-4.6.7-6.5 2.2-3.7 2.9-3.7 5.9 0 8.4 7.9 5.4 8.4 6.5 7.6 14.5-.7 7.1-.6 7.6 2.7 11.7C26.1 189.7 1.8 577 .6 588.7l-.6 5.8h5.3c2.9 0 7.8-.3 11-.7 5.5-.7 5.7-.8 6.3-4.7 1.3-8.1 27.9-381.6 28.3-382 0 0 .1-.1.2-.1.9 0 4.6 2 8.8 4.8 25.5 16.9 45.8 24.2 67.6 24.2h.3c14 0 19.8-4.1 47.7-34 9.8-10.5 16.6-17 17.8-17h.1c26.3 17.7 21.1 81.2 18.2 88.7-1.8 4.5-18.2 38.6-36.6 75.6-18.3 37-33.1 67.5-32.9 67.7.2.2 46.4 1.9 46.4 1.9l-10.1 68.9c-6.7 34.9-14.4 57.2-23.4 67.4-4.6 5.2-9.9 8.2-25.8 14.3-14.7 5.7-25.3 12.1-25.8 15.6-.2 1.3 4.4 8.3 4.4 8.3l85-.6c.4-5.7 3.6-8.1 1.3-17.2-3.7-14.5-1.7-23.6 8.6-48.1 19-45.1 22.6-59.1 24-91.5l.7-17.4 35.1 1.4c0 6.5 3.1 22.6 6.7 35 5.2 17.9 10.6 43.8 12.4 59.5 1.5 13.2.3 22.5-4.2 33.9-4.8 12-11.7 14.1-31.1 23.5-17.7 8.6-18 12.8-18 18.9 0 1.6 30.8 2.7 54.7 2.7 13.7 0 25.2-.4 27.4-1.2 3.3-1.3 9.8-12.5 4.2-24.5-6.6-14-6.9-40.6-3.8-84.2 1.8-26.4 1.8-27-3.4-44.7-3.7-12.7-4.5-26.3-2.9-51.9 1.5-23.5 1.8-24.9 5-24.9 1.7 0 3.1 1.5 5.1 5.1 2.8 5.2 6 7.5 10.7 7.5 1.3 0 2.7-.2 4.3-.5 5.1-1.1 14.5-5.6 21.2-10 1.5-1 2.8-1.6 3.3-1.6.2 0 .3.1.3.2 0 .5-2 6.9-4.4 14.2-4.7 14-5.2 18.6-3.2 30.3 2.3 13.5 8.3 21.9 17.2 24.4 2.7.8 4.7 1.2 6.1 1.2 2.4 0 3.3-1.2 4-4.2.6-2.3.9-17.6.7-34.6-.4-31.2-1.9-44.5-5.2-47-.8-.6-3.9-3.1-6.9-5.6-2.9-2.4-7.6-5.7-10.4-7.2-3.3-1.8-5.3-3.8-5.8-5.6-.4-1.6-.4-11 .1-21 .9-20.2-.3-58.5-2.3-69.6-.9-4.8-1.1-15-.6-31 .7-26.5-.2-39-3.8-51.1-2.2-7.4-17.9-24-18.3-25.8-.5-2.1 5.6-23.2 5.5-38.8-.3-38.7-11.1-66.6-35.2-81.9-5.8-3.1-21.2-9.5-35.2-9.5z"/></svg>