<svg xmlns="http://www.w3.org/2000/svg" viewBox="-10 0 811 1001"><path d="M-10 1001v-27h53l86-625-11-5-14-13-5-9 3-36 7-9 7 1 2-16 22 5L175 8l34 5-36 260 9 1 14 11 21 25 108 44 56-86q12-18 34-32.5t48-14.5h20v-21l-37-3-7-51q-5-1-11.5-1.5T415 143l32-69q-2-10-2-20 0-20 17.5-37T526 0q46 0 69.5 25T619 84q0 13-4.5 29T599 146l-26 39v29h23q42 0 55 13.5t22 30.5l64 111v166l32 21 5 28h27v21h-26v19l-10 11-52-5-7-9v-4l-11-12h-57q-1 1-1 3-3 24-3 47.5t2 53.5q6 22 12.5 56t11.5 74.5q5 40.5 5 80.5 0 29-3 54h123v27zm573-833l22-33q4-8 9-21t5-27q0-25-18-46.5T526 19q-35 0-48.5 11T464 55q0 10 2 14h65q2-2 5-3.5t10-1.5q13 0 19.5 9.5T572 94q0 17-11 32l-16 25zm196 456l5-5-1-32-7-26-36-21V375l-64-111q-6-11-15.5-20.5T603 234h-30q-17 0-17-21v-30l-31-29 19-30q3-5 7-14t4-13q0-5-2-10.5T542 81q-7 0-9 2l-3 3h-72l-19 45q2 0 6 1t7 1l7 51 41 3v51h-37q-30 0-44 15t-23 28l-64 94-118-49-28-33-20-12-38-7-1 8 36 10 18 20-5 30 152 82 110-110 14 3 33 90 4 36 98-10 3-35 23-88 15-3 68 99 6 143 3 35h7l2-9h7l4 9-9 28 7 9zM483 112q-7 0-14.5-2t-7.5-7q0-5 6-8t14-3q15 0 25 12-5 3-10 5.5t-13 2.5zM154 344l8-4 4-23-11-15-39-11-2 24 3 11 6 5zm488 240h49l-4-33-9-144-53-73-18 70-3 35q23 21 35 43t12 56q0 10-3 21.5t-6 24.5zM78 974h175v-26l63-11q15-2 19.5-14t8.5-26l33-107-3-42 13-39 34-104h-37q-7 14-20.5 25T338 641q-12 0-25.5-11T292 605h-22v-21h22q6-15 19.5-26t26.5-11q12 0 26 11t20 26h44l44-136-5-43-25-70-111 110-163-87-7 1zm368-390h177q4-12 6.5-24t2.5-21q0-26-11-46t-32-43l-102 10zm-108 38q5 0 15-8t15-20q-5-12-15-20t-15-8q-5 0-15 8t-15 20q5 12 15 20t15 8zm76 70h202q-1-19-.5-41t2.5-43q0-2 1-3H441zm121 281h109q2-14 3-28t1-29q0-37-5-76.5t-12.5-74Q623 731 617 709h-51l4 29 49 164q1 4 1 7v7q0 17-13 24.5T577 952l-42 8zm-136 1h118v-26l55-11q12-2 20.5-8t8.5-15q0-7-1-11l-50-164-4-30h-60zm-130-1h112l87-264h-59l-15 41 3 42-33 111q-6 24-16 35.5T324 952l-55 8z" fill="currentColor"/></svg>