<svg xmlns="http://www.w3.org/2000/svg" viewBox="0 0 431.7 643"><path d="M376.6 344c-.5-16-2.5-31.8-6.2-47.5-3.6-15.7-2.8-33.5 2.5-53.3-2.9-28.5-3.9-54.4-2.9-77.6-10.2 16.4-16.2 45-18.1 85.6 3.4 14.5 5.8 51.5 7.3 111 7.2-6.8 13-12.8 17.4-18.2zm-31.2 18.2c1-33.4 1-55.9 0-67.5-1-11.6-4.4-18.6-10.2-21l-56.6 26.8c-14.5 21.3-26.8 41.8-37 61.7h103.8zm-.8 18.1H235.8L221.3 426h119c3.9.5 5.3-14.7 4.3-45.7zm-79-84.9c-3.9-15-6-33.6-6.5-55.9-1.5-24.2-8-50.1-19.6-77.6-6.3 12.1-16.2 27.5-29.7 46.1s-25.4 30.6-35.6 35.9c-12.1-2.4-33.4-15-63.9-37.7-6.8-3.9-12.8-7.3-18.1-10.2L54.4 618.3h91.4c0-6.8 7.5-11.1 22.5-13.1 26.6-4.4 44.5-15.7 53.7-34.1 9.7-42.6 13.8-75.7 12.3-99.4-2.4-10.2-1.9-20.3 1.5-30.5h-33.4c7.3-26.1 12.8-46.4 16.7-60.9h-17.4c-13.5 1.5-21.3 4.8-23.2 10.2 0 2.9-.5 4.4-1.5 4.4s-1.5-1.5-1.5-4.4l-60.2-8.7c-3.4-7.3-3.4-14.5 0-21.8l60.2-8.7c0-2.4.5-3.6 1.5-3.6s1.5 1.2 1.5 3.6c1.9 4.8 9.7 8.5 23.2 10.9h26.1c11.6-23.2 24.2-45.5 37.8-66.8zm5-265.5c19.3 5.3 30.2 10.6 32.7 16 2.9-3.4 7.5-4.4 13.8-2.9 6.3 1.5 8.7 6.5 7.3 15.2 0 4.8-3.6 11.4-10.9 19.6 2.4 9.2 7.5 13.5 15.2 13.1 12.1-5.3 17.9-18 17.4-38.1S335 19.8 314.2 14c-20.8-5.9-35.3-.6-43.6 15.9zm-12.3 22.5c2.9-9.2 11.9-9.2 26.8 0-15.4 6.7-24.4 6.7-26.8 0zm77.6 199.5c2.4-17.9 5-36.2 7.6-54.8 2.7-18.6 8.8-35.7 18.5-51.2 7.7-13.1 3.9-18.7-11.6-17.1-15.5 1.7-27.1-1.2-34.8-8.7-7.7-7.5-12.6-16-14.5-25.4-1.9-9.4-2.2-15.8-.7-19.2 9.2-8.7 13.7-15 13.4-18.9-.2-3.9-2.1-4.4-5.4-1.5-3.4 2.9-6.5 3.6-9.4 2.2-18.9-15-31.7-20.6-38.5-16.7-13.5 17.9-17.4 26.8-11.6 26.8 4.8.5 7.5 5.6 8 15.2.5 7.3 2.4 10.4 5.8 9.4 18.9-6.8 28.8-1.5 29.7 16 .5 7.3-2.7 13.8-9.4 19.6-22.3 1.9-33.3 4.8-33 8.7.2 3.9 1.6 10.4 4 19.6 6.3 18.9 12.3 46.2 18.1 82-1 20.8 1.7 36.3 8 46.4 20.3-3.6 38.9-14.5 55.8-32.4zm-84.8 366.4c1-6.8 7.7-11.4 20.3-13.8 24.7-2.4 39.9-13.5 45.7-33.4 2.9-43.5 1.5-76.7-4.4-99.4-4.4-10.2-5.8-20.3-4.4-30.5H280c-4.4 10.6-7.3 21.3-8.7 31.9 2.4 17.9 1.3 33.4-3.3 46.4-4.6 13.1-11.5 29.7-20.7 50.1-3.4 7.7-6.8 16.2-10.2 25.4 3.9 13.1 2.2 20.8-5.1 23.2h19.1zm180.6 0V643H0l.7-24.7h34.8l37.7-425.2c-8.7-5.8-12.6-15.4-11.6-28.7 1-13.3 6.3-20.2 16-20.7l2.2-27.6 20.3 2.2-3.6 36.3c9.2 1.9 16.4 12.8 21.8 32.7 25.6 11.6 44.3 18.9 55.9 21.8 18.9-25.6 33.1-48.1 42.8-67.5 5.3-14 13.8-22.7 25.4-26.1 27.1-1 40.1-5.8 39.2-14.5-10.2-.5-17.5-.5-22.1 0-4.6.5-7.6-1.6-9.1-6.2s-2.3-9.4-2.5-14.5c-.2-5.1-2.8-7.6-7.6-7.6-5.8-3.9-1.9-15 11.6-33.4-.5-3.9 4.2-12.5 14.1-25.8S293.9-3.3 320 3c26.1 6.3 39.2 26.1 39.2 59.5 0 33.9-13.8 46.7-41.4 38.5 9.2 10.6 18.7 14.8 28.7 12.3 9.9-2.4 21.9-.5 35.9 5.8 15 6.3 19.1 47.4 12.3 123.3 2.4 18.9 2.4 38.7 0 59.5-2.4 20.8-.7 40.9 5.1 60.2H415v18.1h-13c-2.9 4.4-7.7 7.4-14.5 9.1-6.8 1.7-12.5 1.5-17.1-.7-4.6-2.2-8.3-5-11.2-8.3v60.9h-8c-1.5 6.3-2.2 14.8-2.2 25.4 5.8 16.9 7.6 32.3 5.4 46.1-2.2 13.8-6.4 31.6-12.7 53.3-1.5 8.2-3.1 16.9-5.1 26.1 6.3 12.6 6 21.3-.7 26.1h95.8zM175.6 358.6l-55.9 7.3v10.9l55.9 6.5v-24.7zm5.1 4.3v16.7c4.8-2.9 10.2-4.4 16-4.4v-8c-5.9.1-11.2-1.4-16-4.3z"/></svg>