<svg xmlns="http://www.w3.org/2000/svg" viewBox="0 0 366.7 603.2"><path d="M317.8 352.5c1.7-11.3 3.7-18.2 5.9-20.8-6.1-33-8.9-63.2-8.5-90.5.4-21.7-.2-42.6-2-62.5-7.8 28.7-15.4 53-22.8 72.9 5.2 18.2 8.3 51.9 9.1 101h18.3zm-31.2 0c1.3-19.5-.4-49.7-5.2-90.5l-46.9 7.2c-13 33-25.4 60.8-37.1 83.4h89.2zm1.9 16.9h-98.3l-16.3 49.5h117.9l-3.3-49.5zM142 361.6c-3.9-6.5-12.4-10.4-25.4-11.7-15.6 0-24.5 3.9-26.7 11.7 2.2 6.9 11.1 10.4 26.7 10.4 13-.9 21.5-4.3 25.4-10.4zM296.3 57.4c1.3-3 0-8.5-3.9-16.3-3.9-7.8-11-13.5-21.2-16.9-10.2-3.5-18.5-4.3-24.7-2.6-6.3 1.7-13.6 6.1-21.8 13 16.5 2.2 40.4 9.8 71.6 22.8zm-.6 12.4l-23.4-11.1c-4.8 9.6-7.1 18.2-6.8 26.1.2 7.8 2.8 13.6 7.8 17.3 5 3.7 10 1.1 15-7.8 4.9-9 7.4-17.1 7.4-24.5zm-86.6-2.6v-2.6L213 62c3-6.5 10.6-6.3 22.8.7h11.1l-1.3 4.6-9.1-2c-10.9 5.2-18.9 6.1-24.1 2.6l-3.3-.7zm5.8-2c.9.4 2.4 1.1 4.6 2-1.3-2.6-1.5-4.6-.7-5.9-2.6.9-3.9 2.2-3.9 3.9zm10.5 1.4c2.6-.9 5.4-2 8.5-3.3l-8.5-2.6c2.1 1.7 2.1 3.7 0 5.9zm-13.1-9.8c0-1.7 1.3-3.5 3.9-5.2 2.6-1.7 6.2-1.8 10.7-.3 4.6 1.5 10.1 3.4 16.6 5.5l2 3.3c-6.5-.9-11.9-2.2-16.3-3.9-4.3-1.8-9.9-1.6-16.9.6zm55.4 54c-7.8-3-12-10-12.7-20.8-.7-10.9 2.1-22.4 8.1-34.5-17.8-5.6-33.2-9.8-46.2-12.4-4.3 10.4-9.8 21.5-16.3 33.2 5.6 0 7.8 2.4 6.5 7.2 2.2-1.7 5.3-.9 9.4 2.6 4.1 3.5 1.2 5-8.8 4.6 1.7 2.2 2.5 4.3 2.3 6.5-.2 2.2 2.3 2.7 7.5 1.6s9.3-2.1 12.4-2.9c3-.9 6.6.9 10.7 5.2s4.7 16.3 1.6 35.8c-11.3 2.6-20.2 6.8-26.7 12.7-6.5 5.9-8.7 15.7-6.5 29.6 5.2 13.9 13.7 40.2 25.4 78.8l46.2-11.7c7.8-26.1 17.2-56.4 28-91.2-6.1-6.9-16.7-14.1-31.9-21.5-9.9-1.7-12.9-9.3-9-22.8zm11.1 5.3c10 6.5 21.5 14.5 34.5 24.1 13.9 7.8 21.3 18.2 22.1 31.3 3.9 27.4 3.9 51 0 71 2.6 20 3.6 39.6 2.9 58.9-.7 19.3.8 31.2 4.2 35.5 3 4.3 5 9.3 5.9 15h18.2v17.6h-16.9c-4.3 3.9-9.2 5.9-14.7 5.9-5.4 0-10.3-2-14.7-5.9h-20.8c0 10 .4 29.7 1.3 59.3 9.6 15.2 9.3 60.4-.7 135.5 12.2 16.9 13 27.8 2.6 32.6-9.1-1.7-27.8-1.7-56 0-14.3 3-21.3 1.7-20.8-3.9 2.6-6.1 8.9-9.8 18.9-11.1 14.3-4.8 25.4-11.3 33.2-19.5 3.5-45.6.7-80.5-8.5-104.9-5.2-9.6-6.7-18.7-4.6-27.4H213c7.4 22.1 1.3 65.8-18.2 130.9 2.6 26.1-1.7 38.2-13 36.5-20-.4-34.5.1-43.6 1.6-9.1 1.5-13.9 2.3-14.3 2.3-11.3 1.3-18.5-.9-21.5-6.5 5.6-6.5 15.3-11.5 29-15s27.7-9.3 42-17.6c5.6-39.1 8.5-73.8 8.5-104.2-4.8-13-4.8-22.6 0-28.7h-33.2l25.4-59.9H152c-10.4 7.4-22.1 11.9-35.2 13.7-15.6 0-25.1-2.1-28.3-6.2-3.3-4.1-5.5-7.7-6.8-10.7h-9.8V357h9.8c1.3-3.9 3.6-7.9 6.8-12 3.3-4.1 12.7-6.2 28.3-6.2 13 1.7 24.7 6.1 35.2 13h28l26.7-54.7-7.8-3.3 17.6-20.8c-8.7-6.5-7.2-11.7 4.6-15.6-2.6-26.5-10-45.8-22.1-58-5.6 17.8-10.5 32.7-14.7 44.6-4.1 11.9-13.7 22.9-28.7 32.9s-46.1 20.8-93.5 32.6l-24.7 20.8V389h19.5c-13 16.5-19.5 30.4-19.5 41.7v172.6H18.2v-172C18.7 419.1 12.6 405 0 389h18.2v-59.3c-5.6-9.6-7.4-18.9-5.2-28-13-5.2-11.3-10.6 5.2-16.3V90h18.9v198.7c4.3-.9 12.6.2 24.7 3.3 40.4-15.6 69.9-28.7 88.6-39.1 15.2-40.8 28.4-74.5 39.7-101 12.6-10.9 26.3-19.3 41-25.4 2.2-10.4.2-18.2-5.9-23.4l-7.8 3.3c0 6.5-4 13.6-12 21.2s-14.3 10.7-18.9 9.4c-4.6-1.3-6.6-3.4-6.2-6.2.4-2.8 3.3-3.8 8.5-2.9 5.2.9 9.6-2.5 13-10.1 3.5-7.6 4.1-14 2-19.2.4-2.6-.2-4.7-2-6.2-1.7-1.5-1.5-2.9.7-4.2-2.6-.9-2.8-2.6-.7-5.2-9.1 0-10.7-4.5-4.9-13.4 5.9-8.9 9.9-18.8 12-29.6-4.3-2.2-6.9-7.1-7.8-14.7-.9-7.6.2-12.4 3.3-14.3 3-2 3.3-2.8.7-2.6-2.6.2-4.2-.3-4.9-1.6-.7-1.3-.1-2.6 1.6-3.9 1.7-1.3 3.7-2.2 5.9-2.6 2.2-.4 4.2.3 6.2 2.3 2 2 2.5 3.8 1.6 5.5 2.2 5.2 1.6 9.6-1.6 13s-3.6 7.6-1 12.4c13.9-13.9 25.5-21.3 34.8-22.1 9.3-.9 19.5 1.1 30.6 5.9 11.1 4.8 18.5 11.2 22.1 19.2 3.7 8 5.1 16.6 4.2 25.7 6.5-10 11.4-14.7 14.7-14 3.3.7 4.9 2.7 4.9 6.2 0 3-4.6 5.9-13.7 8.5 5.2 4.8 5 8.5-.7 11.1l6.5 27.4-9.8 1.3-2-30.6c-2.6 17.4-9.1 30.4-19.5 39.1-3.2.5-5.4 2.2-6.2 4.9z"/></svg>