<svg xmlns="http://www.w3.org/2000/svg" viewBox="-10 0 730 1024"><path d="M24 1024V623l-34-65h34V373l-10-3-15-11-6-8-2-36 5-10h8l-1-16h21V30h34v259h10l16 12 25 22 135 54 56-86q12-18 34-32.5t48-14.5h21v-21l-22-2-52 34-18-40 52-13-5-33q-5-1-11.5-1.5T335 166l25-57h-15V93q-5-4-12-13t-7-21q0-13 9.5-20.5T345 28q0-4-7-4-3 0-10-.5t-7-6.5q0-7 7-12t23-5q16 0 25.5 7t9.5 16q0 9-3 16 10-7 25.5-11.5T445 23q33 0 54.5 13.5T531 71q3-1 7-2.5t8-1.5q18 0 25 10.5t7 20.5q0 16-10 24t-21 14l33 24-30 35-25-36-33 49v29h23q42 0 55 13.5t22 30.5l64 111v166l32 21 4 28h28v21h-26v19l-10 11-52-5-7-9v-4l-11-12h-57q-1 1-1 3-3 24-3 47.5t2 53.5q6 24 12.5 60.5T579 871q5 42 5 82 0 18-1 36.5t-4 34.5H436v-43l55-11q12-3 20.5-8.5T520 946q0-6-1-10l-50-174-4-30h-60l-93 292H172v-43l62-11q16-3 20.5-15t8.5-25l33-117-3-42 13-39 34-104h-37q-7 14-20.5 25T257 664q-12 0-25.5-11T211 628h-22v-21h22q6-15 19.5-26t26.5-11q12 0 26 11t20 26h44l44-136-5-43-25-70-111 110-184-90-8 1v179h35l-35 67v399zM384 89h131q-6-19-23.5-33T445 42q-34 0-47.5 11T384 78zm294 558l5-5-1-32-7-26-36-21V398l-64-111q-6-11-15.5-20.5T522 257h-30q-16 0-16-21v-30l-31-29 18-30q3-5 7.5-14t4.5-13q0-6-3-11h-94l-20 45q3 0 7 1t6 1l8 51 41 3v51h-38q-30 0-44.5 15.5T315 304l-64 94-143-59-33-29-21-9-40-2 1 8 37 6 21 16-1 31 175 87 110-110 14 3 33 90 4 36 98-10 3-35 23-88 14-3 69 99 6 143 3 35h7l2-9h7l4 9-9 28 7 9zM483 191l21-33q5-8 10-21t5-27v-1h-29q1 2 1.5 4t.5 4q0 17-11 32l-17 25zm-81-56q-6 0-14-2t-8-7q0-5 6.5-8t13.5-3q9 0 15 3.5t11 8.5q-4 3-10 5.5t-14 2.5zM51 365l7-5v-23l-12-14-41-6 1 25 5 10 7 4zm510 242h48l-3-33-9-144-53-73-18 70-3 35q23 21 35 43t12 56q0 10-3 21.5t-6 24.5zm-196 0h177l6-24 3-21q0-26-11-46t-32-43l-102 10zm-108 38q5 0 15-8t15-20q-5-12-15-20t-15-8q-5 0-15 8t-15 20q5 12 15 20t15 8zm76 70h202q-1-19-.5-41t2.5-43q0-2 1-3H359zm121 291h109q2-14 3-28.5t1-29.5q0-37-5-77.5T549.5 793q-7.5-37-13.5-61h-52l5 29 49 174q1 4 1 7v6q0 16-13 24.5T496 984l-42 9zm-266 0h112l87-274h-59l-15 41 3 42-33 121q-12 45-40 48l-55 9z" fill="currentColor"/></svg>