<svg xmlns="http://www.w3.org/2000/svg" viewBox="0 0 357.5 594.5"><path d="M226.6 50.4c3 0 3.4 6.5-.8 14.1-2 3.5-3.6 5.4-4.3 5.4-.5 0-.6-.9-.1-2.8.4-1.6 0-2.8-.8-2.8-2.6 0-1.8-6.5 1.4-10.5 1.7-2.3 3.4-3.4 4.6-3.4zm-38.4 18.2c1 0 2.2.4 3.5 1.3 1.5 1 1.2 1.7-1.4 3.5-2 1.4-3.1 2.1-3.8 2.1-.8 0-1-1.1-1-3.4 0-2.2 1-3.5 2.7-3.5zm29.8 3.5c.4 0 .9.2 1.3.7 1.1 1.1 1.1 2 0 3.1-.6.6-1 .8-1.4.8-.4 0-.7-.3-1.1-.8-1.1-1.9-.2-3.8 1.2-3.8zm-42-.5c.7 0 1.6.9 2.8 2.7 1.3 2.1 1.4 2.7.3 2.7h-.3c-3.5-.2-5.2-1.5-4.4-3.5.5-1.3 1-1.9 1.6-1.9zm51.6-27.1c-3.4 0-9.8 7.4-10.9 12.5-.5 2.1-1 4.5-1.3 5.3-.3.9.1 2.4.7 3.4.7 1.1.3 3.2-1 5.2-1.2 1.8-1.8 4.3-1.3 5.4.5 1.4 1.6 2.1 2.8 2.1 3.5 0 9.1-4.9 12.7-12 5-9.9 4.1-21.9-1.7-21.9zM206.3 65c-.6 0-1.3.1-2.1.4-1.3.5-5.4.7-10 .7-1.3 0-2.6 0-4-.1-1.4 0-2.6-.1-3.8-.1-9.5 0-12.7 1.8-15.1 7.5-1.8 4.2-1.7 4.6 1.2 6.2 1.7.9 5 1.7 7.4 1.8h.1c4.4 0 15.2-5.9 18.8-10.3 1-1.3 3.8-2.7 6-3.2 2.3-.5 3.8-1.5 3.3-2.3-.2-.4-1-.6-1.8-.6zm21.9-23.4c2.1 0 4 .7 5.5 2.3 4.3 4.3 2.4 14.5-6.3 34.2-2.9 6.5-3.1 8-1.6 13 1.4 4.5 2.9 6.2 7.7 8.6 5 2.4 6.4 4.1 8.5 9.7 2.7 7.6 8.3 11.7 15.8 11.8 5.7 0 6.3.5 13.4 9.9 12.3 16.5 27.1 51.9 32.2 77 3.5 17.5 3.2 19.7-4 26.4-7.1 6.6-10.9 8.7-24.3 13.7-4.8 1.8-8 3.3-10.6 3.3-6.1 0-9.4-8.3-25-40.5-10.9-22.4-22.1-44.5-25.1-49-5.8-9.1-6.4-11.8-3.2-16.2 2.1-3 4.7-11.6 5.9-19.7.5-3.3-.3-5.3-3.6-8.9-2.8-3-4.9-4.4-8.1-4.4-2.4 0-5.4.7-9.8 2.1-3.2 1-6.7 1.6-9.2 1.6-.8 0-1.4-.1-1.9-.2-4.6-1.2-6.3-5.9-3.2-9.3 3.8-4.2 2.7-5.8-4-5.8-5.5 0-6.2-.3-5.5-2.8.5-2-.3-3.3-3-4.5-2-.9-3.7-2.1-3.7-2.6 0-2.7 6.1-22.4 7.5-24 2.8-3.3 8.3-4.7 19.2-4.7h1.1c10.6 0 13.9-1.7 6.6-3.6-2.7-.7-7.6-1.1-12.4-1.1-4.4 0-8.7.3-11 .9-1.2.3-2.1.6-2.6.6-1.1 0-.8-.9.2-3.7.8-2.3 2.4-4.9 3.5-5.9 1.2-1 6.7-1.5 12.7-1.5 6.5 0 13.8.6 17.2 1.7 1.5.5 2.6.8 3.6.8 1.9 0 3.4-1.2 6.9-4.3 3.6-3.1 7.4-4.9 10.6-4.9zM50 198.6c15.8 13.9 77.9 52.3 77.9 52.3l-45.1 16.5c-1.9.7-4.3 1-6.7 1-6.9 0-14.5-2.4-14.5-4.3 0-2.5-1.4-14.3-4.4-30.3-3.1-15.9-7.5-35.2-7.2-35.2zm257.2 55.5c.8 0 1.4.2 1.8.5 5.7 4.7 18.1 71.8 21.4 116.1l1 13.1-79-.9c-4-4 5.7-73.4 13.5-96 4.4-12.7 5.9-14.5 18.8-22.2 12.1-7.3 19.1-10.6 22.5-10.6zM229 0h-.2c-13.4 0-16.1.5-26.6 4.6-15.8 6.2-24.2 13.9-31.7 29-3.1 6.4-7 17-8.6 23.7-1.6 6.6-4.5 17.8-6.5 24.9-4.7 16.4-4.3 19.6 2.3 20.6 2.7.4 5 1.5 5.1 2.5.3 4 .7 4.6 2.7 4.6 1.2 0 1.8.8 1.3 2-1 2.7 7.5 17.6 10.8 18.6.2.1.6.1 1 .1 2.1 0 6.3-.9 10.2-2.2 4.7-1.6 8.9-2.9 9.2-2.9s1.3 1.8 2 4.1c1.3 3.8.7 4.9-12.8 19.5-7.8 8.5-15.6 18.3-17.4 21.9-3.3 6.7-8.3 23.6-10.8 36.9-1.6 8.7-5.8 17.3-8.9 17.3-.3 0-.6-.1-.9-.3-18.7-12.5-79.3-34.5-88.5-45.6-6.8-8-10.1-24.3-13-28.7-14.6-22-7.3-13.1-17.2-67.7L19.6 21.4 0 23.6l10.8 71.8c6.5 42.9 7.7 43.1.8 48.5-7.2 5.7-7 20.8 3 33.3l11.5 10.9 11.3 67c1.7 10.4-18.7 3.6-17.7 26.9.6 13.4 24.4 14 24.9 16l11.6 51.2 20.5-2.8-9.5-50.8c-.1-.6 16.7-4 27.1-5.5 20.1-3 36.5-7.2 57.2-14.6 16.7-5.9 23.6-12.5 32.5-31 5.7-11.8 14.1-35.4 15.4-43.1.4-2.3 2.4-3.4 5-3.4 2.7 0 6 1.2 8.7 3.5 5.1 4.3 8.3 10 13.7 24.3 2 5.3 4.9 11.9 6.5 14.5 3.1 5.2 2.5 10.1-1.2 10.1-3.5 0-8.9 5.8-8.9 9.5 0 2.5 1.3 3.8 5.5 5.5l5.5 2.2-4.2 14.3c-4.7 16-4.5 16.7 5.1 16.7h5.5l-1 6.7c-.5 3.7-13.8 80.1-14.3 84.8-.5 4.7-2.5 11.8-4.4 15.8-2.3 4.9-3.4 9.8-3.4 15.1 0 4.3-.9 10.4-2 13.5-1.1 3.1-5.3 24.1-9.4 46.7-6.4 35.5-8.1 42.7-13 54.1-5.3 12.3-12.6 21.7-16.9 21.7-.8 0-15.8 7.3-23.5 9.4-15.2 4-24.6 8.2-31.5 14.1-7.7 6.5-6.3 9 8.2 9 4.1 0 9.3-.2 15.5-.6 13.3-.8 21.2-1.1 28.8-1.1 4.8 0 9.5.1 15.3.4h2.2c9.7 0 16.2-2.9 19.6-8.6 1.3-2.2 3.1-9.7 3.9-16.5 1.1-9.6 2.9-15.6 7.6-26 23.1-51 26.8-62.6 32.7-102.7 2-13.5 3.9-27.9 4.4-27.9l48.6.3c1.7 0-3.5 20.5-1.1 24.5 3.4 5.6 4.3 8.3 9.9 30.5 6 24 9.8 49.4 10.2 69.6.4 16.5.2 18.1-2.9 23-5.9 9.5-13.3 12.8-43.5 19.1-13.2 2.7-21.6 7.4-22.9 12.6-1.1 4.6.7 6.5 7.4 7.6 2.6.4 18 .7 35.6.7h6c49.4-.2 50.3-.7 47.1-25.8-1.4-10.7-1.4-18.1-.2-32.3 5.8-69.3 5.4-83.2-3.5-106.3-2.7-6.9-4.8-14-4.8-15.7 0-1.7 1.7-9.5 3.7-17.2 4.2-16.3 4.1-21-1.7-67.7s-12.5-81.4-18.2-93.7c-1.2-2.6-2.6-7.9-3.1-11.8-2.6-19.2-7.8-50-28.1-86.9-9.8-17.8-20.2-23.1-25.2-25.1-3-1.2-6.7-2.2-8.2-2.2-4.4 0-8.5-4.6-10.2-11.4-1.6-6.2-1.5-6.6 4-14.9C267.8 69 271.9 57 272 42.9c0-10.2-.6-13.4-3.9-20.6C260 5 251.4 0 229 0zm-17 37.6c-19.9-1.1-26.8-5.6-20.5-13.4s18.2-11.8 35.9-11.9c17.6-.1 28.4 6.8 32.2 20.7 3.8 13.9.1 28.1-11.3 42.6s-13.7 13.8-7-2.3c6.7-16 7.5-28 2.5-35.8-5.1-7.7-15.7-7.7-31.8.1z"/></svg>