<svg xmlns="http://www.w3.org/2000/svg" viewBox="-10 0 624 1001"><path d="M182 1001v-43l66-11q15-3 21-14.5t8-25.5l33-117-4-42 14-39h-11l123-244-67-110-81 131-182 22-14-7H73l-9 10h-4l6 62-18 1-6-62h-2l-28-12-8-7-7-35 8-9v-12l29-6-2-28-8-1-23-15-6-7-5-32 5-10 6-1v-14l23-5-10-100q-1-14-.5-34.5T22 150q7-11 16.5-17.5T57 124l2 20q-10 3-15 8.5T36 165q-5 8-5 21.5t1 33.5l9 97h3l30 9 25 21 153 53 64-128q11-23 26-33t35-15v-24l-48-3-8-51q-5-1-11.5-1.5T297 143l32-69q0-4-.5-9.5T328 54q-1-20 16.5-37T408 0q46 0 70 25t24 59q0 27-21 62l-16 28v36q33 5 60.5 30t32.5 75q5 51 5 86t1 45q22 32 29 59.5t7 60.5q0 14-6 32.5t-8 37.5q-1 10-2 18t-1 16q0 8 1 17.5t1 21.5q6 24 13 60.5t11.5 78.5q4.5 42 4.5 82 0 18-1.5 36.5T609 1001H465v-43l56-11q12-3 20.5-8.5T550 923q0-6-1-10l-50-174-4-30h-80l-93 292zm265-833l21-33q5-8 10-21t5-27q0-25-18-46.5T410 19q-35 0-48.5 11T348 55q0 10 2 14h65q2-2 5-3.5t10-1.5q12 0 19 9.5t7 20.5q0 17-11 32l-17 25zM41 499h17l8-11 19-1 15 7 175-21 84-143h12l81 125 93-20q-2-35-3-54.5t-2-33.5q-1-14-2-30-3-36-19-56t-35.5-28q-19.5-8-33.5-8v-34l-42-37 18-30q3-5 7.5-14t4.5-13q0-5-2.5-10.5T424 81q-6 0-8.5 2t-3.5 3h-72l-19 45q3 0 7 1t6 1l7 51 52 3v49q-20 1-38 14t-25 28l-85 172-140 15-35-20-19-6-34 7v6l-7 9 6 24 5 6zm324-387q-6 0-14-2t-8-7q0-5 6.5-8t13.5-3q9 0 15 3.5t11 8.5q-5 3-10.5 5.5T365 112zM206 438l27-1 11-24-147-53-30-23-20-8H26l-17 2v7h35l21 17 1 23 12-1 12 9zM30 393h16l10-8-2-28-13-9H0l4 26 4 5zm77 58l75-9-93-41-14-10-12 2-14 10 3 24 26 7zm232 241h226v-35l2-21q2-17 8-36t6-33q0-26-6.5-57.5T547 452l-100 19zm145 291h108q2-14 3-28.5t1-29.5q0-37-5-77.5T579.5 770q-6.5-37-13.5-61h-52l5 29 48 174q2 4 2 7v6q0 16-13.5 24.5T525 961l-41 9zm-286 0h112l88-274h-59l-14 41v42l-32 121q-4 24-15 34.5T253 961l-55 9z" fill="currentColor"/></svg>