<svg xmlns="http://www.w3.org/2000/svg" viewBox="-10 0 776.225 1001"><path d="M246.225 1001v-43l66-11q15-3 20.5-14.5t7.5-25.5l33-117-3-42 13-39h-10l124-247-87-128-144 97-169-24-14-8-14 4 34 123-23 5-35-125h-10l-28-12-7-9-8-34 8-23 21-5-16-56-4.5-18-6.5-29q-6.5-29-3-26 0-16 6.5-34t23-30.5q16.5-12.5 46.5-12.5 19 0 31 6.5t17 11.5l-12 20q-3-4-12.5-9.5t-25.5-5.5q-29 0-38.5 18.5t-9.5 34.5q0 7 2.5 22t5.5 28.5q3 13.5 4 16.5l16 57 2-1 26 7 29 17 135 19 129-106q10-8 21.5-14t21.5-8l-18-31-42-3-8-51-23-3 32-69q-2-10-2-20 0-20 17.5-37t63.5-17q46 0 69.5 25t23.5 59q0 29-20 62l-24 32 8 13q23 0 56.5 2t60.5 24l113 120 17 164 21 17 12 27-4 55-22 2-3-40-12-11-3 29h-20l-13-53-22-139-82-87 39 142q22 32 31 61t9 62q0 14-6 32.5t-8 37.5q-3 19-3 34 0 8 .5 18.5t1.5 20.5q6 24 12.5 60.5t11 78.5q4.5 42 4.5 82 0 18-1 36.5t-4 34.5h-143v-43l55-11q12-3 20.5-8.5t8.5-15.5q0-6-1-10l-49-174-5-30h-79l-93 292zm222-833l21-33q5-8 10-21t5-27q0-25-18-46.5t-56-21.5q-34 0-47.5 11t-13.5 25q0 5 .5 8.5t.5 5.5h65q2-2 5-3.5t10-1.5q13 0 20 9.5t7 20.5q0 18-12 32l-10 22zm280 421h5l2-40-13-23-23-18-18-161-113-120q-14-11-43.5-14.5t-67.5-3.5l-41-60 11-25q3-5 7-14t4-13q0-5-2-10.5t-11-5.5q-7 0-9 2l-3 3h-72l-21 45 15 2 7 51 41 3 29 54q-31 6-58 26l-130 110-144-20-36-18-19-5-32 6-6 14 6 23 5 5 18 8h16l28-6 15 7 170 21 151-105 96 146 95-17-43-155 17-7 101 102 19 146 9 48 4-1 3-35 7-2 20 20zm-362-477q-7 0-14.5-2t-7.5-7q0-5 6-8t13-3q9 0 15 3.5t11 8.5q-5 3-10 5.5t-13 2.5zm16 580h227q-1-4-1-8.5V675q0-8 .5-18t1.5-21q2-17 8.5-36t6.5-33q0-26-7.5-57t-28.5-57l-98 17zm-141 291h113l87-274h-58l-15 41v42l-31 121q-5 24-15.5 34.5t-24.5 13.5l-56 9zm286 0h109q2-14 3-28.5t1-29.5q0-37-5-77.5t-12-77.5q-7-37-14-61h-51l4 29 49 174q1 4 1 7v6q0 16-13 24.5t-30 11.5l-42 9z" fill="currentColor"/></svg>