<svg xmlns="http://www.w3.org/2000/svg" viewBox="0 0 480.5 594.5"><path d="M427.6 392.1c3-42.7 2.2-74.1-2.6-94.4-4.8-20.2-10-36.5-15.7-48.6l-46.4 28.7c-12.6 41.8-24.6 79.9-35.9 114.3h100.6zM276.8 130.3l-3.9-9.1c-7.8 2.6-14 4.1-18.6 4.6-4.6.4-7.4-1.1-8.5-4.6-1.1-3.5-2.7-6.5-4.9-9.1-2.2-2.6-2.5-4.6-1-5.9 1.5-1.3 1.4-1.7-.3-1.3-1.3 0-2.3-.8-2.9-2.3-.7-1.5-.3-2.9 1-4.2-1.7-1.3-4.1-1.5-7.2-.7-3 .9-4.6-2-4.6-8.5 7-17 10.9-29.2 11.8-36.6 7-22.6 17.5-37.4 31.7-44.4 14.1-7 28.7-9.5 43.8-7.5 15 2 24.9 9 29.7 21.2 4.8 12.2 5.3 24.3 1.6 36.2-3.7 12-11.6 23.6-23.8 34.9 3.9 11.8 11.3 19.4 22.2 22.9 11.3-4.4 27.2-1.3 47.7 9.1 20 10 39.8 34 59.4 71.8 9.1 17.4 15 37.2 17.6 59.4 0 10.4 2 19.4 5.9 26.8 4.8 9.6 7.2 17.2 7.2 22.9 0 5.7-.7 10.7-2 15-3.9 1.7-7 4.2-9.1 7.5-2.2 3.3-5 6-8.5 8.2-1.3 1.3-3-5.7-5.2-20.9l-1.3-15.7c1.7-18.3 0-33.6-5.2-46-5.2-12.4-9.4-25.8-12.4-40.2-16.5-20.5-31.1-39-43.8-55.5 11.3 46.6 21.8 76.4 31.3 89.5 12.2 31.3 20.7 70.5 25.5 117.5-3 18.3-4.1 33.7-3.3 46.4 9.1 28.3 12.6 74.7 10.4 139.1 7 27.4 3.9 41.1-9.1 41.1-3.9 0-11 .4-21.2 1.3s-18.4 1.3-24.5 1.3c-17 0-28.9-3.7-35.9-11.1 2.6-3.5 7.6-5.7 15-6.5 8.7-.4 14.8-1.7 18.3-3.9 1.7-.9 9.4-3.5 22.9-7.8 10-3 13.6-16.5 10.8-40.5-2.8-23.9-8.2-51.8-16-83.6-5.2-9.6-7.4-18.7-6.5-27.4H341c9.6 27-7.6 75.3-51.6 145 4.4 22.2 1.1 31.8-9.8 28.7-1.7 3-4.4 4.6-7.8 4.6-1.3 0-3.6-.4-6.9-1.3-3.3-.9-5.9-1.5-7.8-2-2-.4-4.2-.7-6.9-.7-3 0-9.1 1.1-18.3 3.3-9.1 2.2-16.5 3-22.2 2.6-9.6-5.7-14.4-10.2-14.4-13.7s6.7-6.3 20.2-8.5c15.7-3 27-5.9 34-8.5 16.5-4.8 30.7-25.2 42.4-61.4 11.8-36.1 17.6-59.9 17.6-71.2 0-8.3-1.7-15.9-5.2-22.9 1.3-10.4 14.8-52 40.5-124.7-4.4-30-32.2-65.5-83.6-106.4-7.8-5.7-14.1-3.7-18.9 5.9-17 18.3-33.5 35-49.6 50.3-5.2 7-13.7 12.4-25.5 16.3-17.8 0-41.4-.9-70.5-2.6-4.8 1.3-11.3.7-19.6-2l12.4 22.2-11.8 6.5-17-31.3c-15.7-5.7-25.7-11.4-30-17.3-4.4-5.9-6.7-12-7.2-18.3-.4-6.3 1.1-12.7 4.6-19.3-.9-8.3-9.6-29.4-26.1-63.3C-3.8 99.4 3.6 88 24 89.8v17c-7 1.7-9.4 5.8-7.2 12.1s4.8 12.5 7.8 18.6L56 198.8c10.4 3.5 18.5 10.2 24.2 20.2 6.5 4.8 13.9 7.2 22.2 7.2 29.6 0 55.7-4.1 78.4-12.4 13.1-18.7 25.7-35.5 37.9-50.3 8.6-15.2 28-26.3 58.1-33.2zm12.4 4.5c-18.7 6.1-30 13.9-34 23.5 10 5.2 22.6 13 37.9 23.2 15.2 10.2 36.8 37.5 64.6 82l40.5-29.4c-5.2-24.8-11.1-47.6-17.6-68.2-6.5-20.7-13.8-31.6-21.9-32.6-8.1-1.1-17.3-3.8-27.8-8.2-10-5.2-16.5-13.5-19.6-24.8-6.1-1.3-10.2-4.5-12.4-9.5-2.2-5-1.2-10.4 2.9-16.3s7.1-12.6 8.8-20.2c1.7-7.6 0-11.9-5.2-12.7-5.2-.9-9.8.9-13.7 5.2-3.9 4.4-6.7 5-8.5 2-15.7-2.6-25-3.6-28.1-2.9-3 .7-5.7 4.5-7.8 11.4 7.4-2.6 15-3.2 22.9-1.6 7.8 1.5 9.8 3.4 5.9 5.6-15.7-3-26.1-1.7-31.3 3.9l-8.5 23.5c7.8.9 10.7 3.7 8.5 8.5 4.8-.9 8.5-.8 11.1.3 2.6 1.1 1.3 4-3.9 8.8 1.7 7 7.8 8.3 18.3 3.9 10.4-4.5 16.7 3.7 18.9 24.6zm-45.1-60c1.7-6.1 4.9-10 9.5-11.8s11.2-1.3 19.9 1.3l9.1-2.6 1.3 3.3-9.8 2.6c-4.4 4.4-9 7.5-14 9.5-5 1.9-10.3 1.1-16-2.3zm8.5-7.9c-1.3 0-2.6 1.5-3.9 4.6 2.2 2.2 5.2 2.6 9.1 1.3-4.8 0-6.5-2-5.2-5.9zm5.2 5.9c3.9-.9 7.8-2.6 11.8-5.2-3.9-.9-7.6-1.5-11.1-2 3.9 2.2 3.7 4.6-.7 7.2zm33.3-6.5c-1.7-1.7-1.7-5.2 0-10.4s4.2-8.8 7.5-10.8 5.7-2 7.2 0 2.1 4.9 1.6 8.8c-.4 3.9-2.5 8.8-6.2 14.7-3.7 5.9-6.9 8.6-9.5 8.2-2.6-.4-4-1.9-4.2-4.2-.2-2.5 1-4.6 3.6-6.3zm5.9-14.4c-1.7 3-2.9 6-3.6 8.8-.7 2.8-.1 3.6 1.6 2.3 1.7-1.3 2-.3.7 2.9-1.3 3.3-1 4.1 1 2.6 2-1.5 3.7-4 5.2-7.5s2.2-6.7 2-9.8c-.3-3-2.6-2.8-6.9.7zm-11.8-14.4c15.7-8.3 26-8.6 31-1s4.5 19.2-1.6 34.6c-6.1 15.5-3.7 16.1 7.2 2S336 45 331.6 31.3c-4.4-13.7-15.3-20.4-33-19.9-17.6.4-29.4 4.8-35.3 13.1-5.8 8.3 1.5 12.6 21.9 13zm6.6 32.7c-1.7 1.3-2.1 2.5-1 3.6s2.2.9 3.3-.7c1-1.5.3-2.5-2.3-2.9z"/></svg>