<svg xmlns="http://www.w3.org/2000/svg" viewBox="0 0 357.7 594.5"><path d="M293.6 248.8c7.6-49.6 13.9-80.8 18.9-93.6 5-12.8 1.8-22.9-9.4-30.3-11.3-7.4-18.5-18.5-21.7-33.2-3.2-14.7-2.5-25.2 2.3-31.5 4.8-6.3 5.7-10.4 2.9-12.3-2.9-1.9-6.8 0-11.7 5.7-20.2-14.9-34.1-20.2-41.8-16-13.4 17.2-17.2 25.9-11.4 26.3 5 0 7.6 4.6 8 13.7.4 7.6 2.5 10.7 6.3 9.2 15.6-1.9 23.7.6 24 7.4v10.3c.8 13-7.3 21.1-24.3 24.3-17 3.2-23.6 10.4-19.7 21.5 3.8 11.1 10.5 28.8 20 53.2 9.5 24.4 11.4 46.5 5.7 66.4l51.9-21.1zm-81.3 151.1h79c10.7-80.1 13.5-126.1 8.6-137.9-22.5 11.1-42.5 18.9-60.1 23.5-15.6 53.4-24.8 91.5-27.5 114.4zm28.1-373.7c20.6 6.5 32.2 12.4 34.9 17.7 5.3-4.6 10.9-5.6 16.6-3.1 5.7 2.5 6.1 8.6 1.1 18.3-5 9.7-6.3 17-4 21.7 2.3 4.8 7.1 6.4 14.3 4.9 12.2-4.6 18.1-16.7 17.7-36.3-.4-19.6-11.2-32.3-32.3-38.1-21.1-5.7-37.3-.7-48.3 14.9zM230.7 48c3.1-8.8 12.2-8.6 27.5.6-15.3 6.4-24.5 6.2-27.5-.6zm84.7 70.4c16.8.4 28.8 7.2 36.1 20.6 6.5 18.7 7.8 47.9 4 87.6 3.1 11.8 3.1 25.4 0 40.6-3.1 15.3-5.2 26.3-6.3 33.2 2.7 31.3 1.8 50.4-2.6 57.2-4.4 6.9-8.7 12.8-12.9 17.7-8.4-3.8-9.2-12.6-2.3-26.3 6.9-13.7 7.4-18.7 1.7-14.9-1.5 3.4-3 8.3-4.3 14.6-1.3 6.3-3.9 9.3-7.7 8.9 2.3-10.3 3.7-18.4 4.3-24.3.6-5.9 2.5-11.1 5.7-15.5s5.2-8.7 6-12.9v-.6c-5.7-25.6-5.9-53.8-.6-84.7-1.5-15.3-4-37.6-7.4-67-8 21-13.5 41.1-16.6 60.4-3.1 19.3-2.4 34.2 2 44.9 4.4 10.7 3.3 56.5-3.1 137.3v25.2c10.7 29.8 13 77.4 6.9 143.1 6.9 21.4 1.5 31.1-16 29.2-14.5 0-29.4.5-44.6 1.4-15.3 1-21.4-.7-18.3-4.9.4-7.2 4.6-11.3 12.6-12 27.9-6.1 40.8-21.3 38.9-45.5-1.9-24.2-4.8-48.4-8.6-72.4-5-14.5-6.5-27.5-4.6-38.9h-42.9c6.9 22.9-3.4 67.7-30.9 134.5 6.1 16 6.3 28.6.6 37.8-39.7.8-63.8 1-72.4.6-8.6-.4-13.1-1.5-13.4-3.4 4.2-12.6 22.7-22.5 55.5-29.8 6.1-14.1 12-37.5 17.7-70.1 5.7-32.6 8.6-55.8 8.6-69.5H186c5-16.8 11.5-39.8 19.7-69 8.2-29.2 17.1-65.9 26.6-110.2-9.5-27.9-19.6-55.5-30.3-83-21.4 3.4-48.6 4.4-81.8 2.9-12.2-4.6-31.3-17.7-57.2-39.5-14.9 1.1-31.9-6.1-50.9-21.7 3.1-4.6 7.2-4.8 12.3-.6 5.2 4.2 12.3 6.9 21.5 8-8-7.2-15.4-11.4-22-12.6-6.7-1.1-12.7-1-18 .6-2.7 1.1-4.5-.4-5.4-4.6-1-4.2.3-7.6 3.7-10.3 20.6-.8 34.7 1.8 42.3 7.7 7.6 5.9 15.5 12.7 23.5 20.3 30.1 11.8 51.5 21.9 64.1 30.3l63.5-9.7c15.3-10.3 30.1-15.8 44.6-16.6 5.3-2.7 8.4-6.2 9.2-10.6.8-4.4-1-6.7-5.2-6.9-4.2-.2-8.8.1-13.7.9-5 .8-8.2-1.1-9.7-5.7s-2.3-9.3-2.3-14.3-2.7-7.4-8-7.4c-5.3-3.4-1.3-14.3 12-32.6-.4-3.8 4.5-11.7 14.6-23.7S266.7-3 291.9 2.8c25.2 5.7 37.8 22.3 37.8 49.8 0 28.2-11.8 42.3-35.5 42.3 2.3 9.2 9.3 17 21.2 23.5z"/></svg>