<svg xmlns="http://www.w3.org/2000/svg" viewBox="-10 0 758 1001"><path d="M228 1001v-43l66-11q15-3 20.5-14.5T323 907l33-117-4-42 14-39h-11l124-236-53-133-144 33-173-40-63-4-30-14-26-28 17-20 26 21 26 6h27v-3l-14-6H45v-29h42l42 24 150 15 95-37q6-7 22-14t33.5-13q17.5-6 25.5-7v-24l-48-3-8-51q-4-1-10.5-1.5T376 143l32-69q-2-10-2-20 0-20 17.5-37T487 0q46 0 69.5 25T580 84q0 29-20 62l-16 28v34q23 0 53 6t50 36l52 98 16 164 21 16 12 28-3 56h-22l-4-39-12-11-3 28h-20l-14-52-22-140-46-86 4 142q23 32 31.5 61t8.5 62q0 14-6 27t-8 32q-3 19-3 34v18.5l2 20.5q6 24 13 60.5t11.5 78.5q4.5 42 4.5 82 0 18-1.5 36.5T655 1001H511v-43l55-11q13-3 21.5-8.5T596 923q0-6-1-10l-50-174-4-30h-80l-93 292zm297-833l22-33q5-8 10-21t5-27q0-25-18.5-46.5T488 19q-35 0-48 11t-13 25q0 5 .5 8.5t.5 5.5h65q2-2 5-3.5t10-1.5q13 0 20 9.5t7 20.5q0 17-11 32l-17 25zm206 432h4l3-40-13-23-23-18-18-162-55-101q-10-15-28.5-22.5T544 226h-15v-35l-43-37 19-30q3-5 7-14t4-13q0-5-2-10.5T503 81q-7 0-9 2l-3 3h-72l-20 45q3 0 7 1t7 1l7 51 52 3v51q-19 3-48 13.5T382 275l-98 38-157-20-47-26H54v9h19l34 16v13H58l-28-7-23-17-3 4 20 19 26 12 65 5 166 33 157-37 56 147 95-17-5-155 19-8 60 109 21 140 8 48h4l3-36 7-2 21 20zM444 112q-7 0-14.5-2t-7.5-7q0-5 6-8t13-3q16 0 26 12-4 3-10 5.5t-13 2.5zm-59 580h226q-1-4-1-8.5V675q0-16 3-39 2-17 8-30.5t6-27.5q0-26-7-57.5T591 463l-97 17zm145 291h108q2-14 3-28.5t1-29.5q0-37-5-77.5T624.5 770q-7.5-37-13.5-61h-51l5 29 48 174q2 4 2 7v6q0 16-13.5 24.5T571 961l-41 9zm-286 0h112l87-274h-58l-14 41v42l-32 121q-4 24-15 34.5T299 961l-55 9z" fill="currentColor"/></svg>