<svg xmlns="http://www.w3.org/2000/svg" viewBox="-10 0 687 1001"><path d="M160 1001v-41l72-18q15-3 16.5-15t1.5-25l-7-157 148-272-54-145-130 90L53 281l-34-8-29-34 3-25 27-43h25l31 21 11 38 124 98 76-70q6-6 20-13.5t29-13.5q15-6 23-7v-24l-43-3-7-51q-5-1-11.5-1.5T285 143l32-69q0-4-.5-9.5T316 54q-1-20 16.5-37T396 0q46 0 69.5 25T489 84q0 29-20 62l-16 28v34q22 0 55 8.5t55 36.5q10 14 20.5 27t24.5 33l69 102-16 42-142-14v11q22 32 31 52t9 54q0 14-6 35.5t-8 40.5q-1 10-2 18t-1 16q0 8 .5 18.5T544 709l120 188-60 86-37 18h-50l-4-40 39-9 20-20 8-41-123-146-5-36h-93l-25 44-21 184 1 64zm275-833l21-33q5-8 10-21t5-27q0-25-18-46.5T398 19q-35 0-48.5 11T336 55q0 5 .5 8.5t.5 5.5h65q2-2 5.5-3.5T418 64q12 0 19 9.5t7 20.5q0 17-11 32l-17 25zm-28 296l95-17v-6l-87-9 1-20 29-6-16-9-34 1-3-22 50-9 30 10 22 22h6l-3-107 17-6 107 120-2 7-126-1-27-24-25-10-37 5 1 6 34-1 24 18-1 6-35 6v4l223 20 9-26-62-88q-16-23-29.5-40.5T543 257q-10-11-31-21t-59-10h-15v-35l-42-37 18-30q3-5 7-14t4-13q0-5-2-10.5T412 81q-7 0-9 2l-3 3h-72l-19 45q3 0 6.5 1t6.5 1l7 51 47 3v51q-19 3-43 13.5T295 275l-81 76L74 237l-8-26-32 7v11l25-4 5 33-14 2-3-20-25 5-2-35 41-12-21-13H26L8 218l-3 16 23 26 38 11 145 122 133-93zm-54-352q-7 0-14.5-2t-7.5-7q0-5 6-8t14-3q8 0 14.5 3.5T377 104q-5 3-10.5 5.5T353 112zm164 288l78-1-82-89zM292 692h232v-17q0-8 .5-18t1.5-21q1-17 7.5-39t6.5-36q0-26-7-49t-29-49l-97 17zm238 293h34l30-18q3-4 19-27.5t29-43.5L520 710l-47-1 5 29 122 150-15 53-30 26-26 5zm-355-2h121l-1-46 22-189 21-39h-53l-22 41 5 158q1 24-8 35.5T236 957l-61 15z" fill="currentColor"/></svg>