<svg xmlns="http://www.w3.org/2000/svg" viewBox="0 0 367.1 594.8"><path d="M274.7 385.6l-8.8-101.2c-7.1-8.4-12.8-12.6-17-12.6-2.1 0-4.2.4-6.3 1.3-8 2.9-15.9 5.9-23.9 8.8-8 4.6-12.4 10.1-13.2 16.3l-28.9 97.4 98.1-10zm-2.5-228.8c-2.9 15.1-3.6 26.6-1.9 34.6l48.4 18.2c-16-26.8-31.5-44.4-46.5-52.8zm-18.9 55.9c-6.3-2.9-12.6-4.4-18.9-4.4l-14.4.7c-5.9.8-13.2-4.4-22-15.7-.4-8 6.5-11.9 20.7-11.9l35.8 10.7c.4-26.8 2.5-44.2 6.3-52.2s-4.8-16.3-25.8-25.1V94.6c-5.4-2.5-8.4-6.3-8.8-11.3-.4-5 1.9-9.7 6.9-14.1s9.1-9.8 12.3-16.3c3.1-6.5 2.5-10.7-1.9-12.6-4.4-1.9-8.8-1.3-13.2 1.9-4.4 3.1-7.2 2.8-8.5-.9-13.8-6-22-9.1-24.8-9.3-2.7-.2-6 2.6-9.7 8.5 7.1-.4 14 1 20.7 4.4 6.7 3.4 8.2 5.2 4.4 5.7-13.4-6.3-22.8-7.3-28.3-3.1l-12.6 18.9c5.9 2.9 6.9 6.1 3.1 9.4 5 .4 8.5 1.5 10.4 3.1 1.9 1.7-.3 4-6.6 6.9.4 6.7 5.9 9.4 16.3 8.2 10.5-1.3 15.1 4.2 13.8 16.3 0 9.6-5.2 14.7-15.7 15.1-10.5.4-16.6 6.1-18.2 17 0 11.3 2.8 22.8 8.5 34.6 5.7 11.7 11.5 25 17.6 39.9s8.6 26.9 7.5 36.1c-1 9.2.3 14 4.1 14.5 13.4-.4 24.1-2.9 32.1-7.5 8.5-2.6 11.4-18.4 8.9-47.3zm14.5 43.4c10.5 15.1 15.7 33.3 15.7 54.7 7.1 56.6 12.2 89.9 15.1 99.9 15.1 12.6 33.1 49.7 54.1 111.3 14.7 10.9 18.2 19.7 10.7 26.4-8 8.4-19.9 23.5-35.8 45.3l-23.3-.6c.8-7.5 3.9-12.2 9.1-13.8 5.2-1.7 11-6.7 17.3-15.1 2.1-8.8 4.2-18.4 6.3-28.9-30.2-54.5-51.3-89-63.5-103.7-8.8-4.2-13.2-13.2-13.2-27l-71 6.9c-8.4 10.9-10.7 19.9-6.9 27 3.4 19.3-14.9 58.2-54.7 116.9 7.1 18 5.7 28.9-4.4 32.7-11.7-1.3-28.1-.1-49 3.5s-34.8 4.3-41.5 2.2c5-10.1 14.5-17 28.3-20.7 15.1-.8 28.5-6.5 40.2-17 15.5-16.3 30.2-52.4 44-108.1 18-75.4 31.6-123.8 40.9-145.2h-17l19.5-29.5c-9.2-.8-12.8-4.6-10.7-11.3 0-8 5.2-11.5 15.7-10.7 2.5-5.9.5-14.8-6-26.7-6.5-11.9-14.1-30.1-22.9-54.4-14.2 18.9-37.5 36-69.8 51.5-21.8-10.9-40.6-28.1-56.6-51.5-11.3-10.1-22-17.4-32.1-22-4.2-4.6-6.3-9-6.3-13.2.8-5 2.1-9.6 3.8-13.8 0-10.1 3.8-14.2 11.3-12.6 7.5 1.7 18.2 15.9 32.1 42.7 17.2 13 34.6 27 52.2 42.1 18.4-19.3 38.8-40.9 61-64.7 8.8-12.2 19.7-18.2 32.7-18.2V104c-6.7.4-12.2.3-16.3-.3-4.2-.6-6.5-2.7-6.9-6.3-.4-3.6-1.2-6.6-2.2-9.1-1-2.5-.6-4.3 1.3-5.3s1.8-1.6-.3-1.6c-1.7 0-2.5-.6-2.5-1.9 0-1.7.6-3.1 1.9-4.4-1.3-1.3-3.5-1.9-6.6-1.9s-3.7-2.9-1.6-8.8c10.5-13.4 17-23.7 19.5-30.8C191.3 15.2 204.6 4.5 219 1.5c14.5-2.9 28.4-1.7 41.8 3.8 13.4 5.4 21 14.2 22.6 26.4 1.7 12.2-.7 23.2-7.2 33S260.8 83 249.5 90.2v17c32.7 13 57.5 31.4 74.5 55.3s26.2 43.4 27.7 58.5c1.5 15.1-.9 22.6-7.2 22.6-10.1-1.7-35-9.8-74.8-24.5l-1.9 37zm-88-200.5c2.9-5 6.7-7.8 11.3-8.2 4.6-.4 10.5 1.5 17.6 5.7h8.8v3.1h-8.8c-4.6 3.4-9.4 5.1-14.5 5.3-5 .3-9.8-1.7-14.4-5.9zm10-5c-1.3 0-2.9 1-5 3.1 1.7 2.5 4.4 3.8 8.2 3.8-4.2-1.3-5.3-3.6-3.2-6.9zm3.2 6.9c3.4 0 7.3-.8 11.9-2.5-3.4-1.7-6.5-3.1-9.4-4.4 2.5 2.9 1.6 5.2-2.5 6.9zm32.6 1.9c-1.7-2.1-1.2-5.2 1.6-9.4s5.9-6.8 9.4-7.9c3.6-1 5.8-.5 6.6 1.6.8 2.1.6 4.9-.6 8.5-1.3 3.6-4.3 7.5-9.1 11.9s-8.5 6.1-11 5c-2.5-1-3.5-2.6-2.8-4.7.6-2.1 2.6-3.8 5.9-5zm7.6-12c-2.1 2.1-3.7 4.4-4.7 6.9s-.7 3.4.9 2.5c1.7-.8 1.7.1 0 2.8-1.7 2.7-1.7 3.7 0 2.8 1.7-.8 3.8-2.6 6.3-5.3 2.5-2.7 4-5.6 4.4-8.5.4-2.9-1.9-3.3-6.9-1.2zm-6.9-15.7c16.3-3.4 26-1 28.9 6.9 2.9 8-.3 18.2-9.7 30.8-9.4 12.6-7.5 13.7 5.7 3.5 13.2-10.3 19.5-22.1 18.9-35.5-.6-13.4-9-21.9-25.1-25.5-16.1-3.6-27.9-2.4-35.2 3.5-7.5 5.8-2 11.3 16.5 16.3zM225 62.5c-2.5 1.3-3.4 2.5-2.5 3.8.8 1.3 1.9 1.3 3.1 0 1.3-1.3 1.1-2.5-.6-3.8z"/></svg>