<svg xmlns="http://www.w3.org/2000/svg" viewBox="-10 0 871 1001"><path d="M143 1001v-43l66-11q15-3 20-15t9-25l31-117-2-42 14-39h-11l105-236-37-151-173 5L48 169 8 132-7 94l29-12 9 24 11 11 3-1-10-25-14-23-31-14L4 28l37 14 24 22 33 63 95 120 90-7q12-4 30.5-7.5t37-5.5q18.5-2 29.5-3v-24l-43-3-7-51q-5-1-11.5-1.5T306 143l32-69q0-4-.5-9.5T337 54q-1-20 16.5-37T417 0q46 0 69.5 25T510 84q0 29-20 62l-16 28v45q17 2 35 7.5t36 10.5l113 10 96-120 33-63 24-22 36-14 14 26-30 14-15 23-9 25 3 1 10-11 10-24 28 12-15 38-40 37-117 158-170-5-14 132q22 32 31 61t9 62q0 14-1.5 20t-3.5 26q-1 10-1 18v16l4.5 25q4.5 25 5.5 27 6 24 12.5 60.5T570 848q5 42 5 82 0 18-1.5 36.5T570 1001H426v-43l56-11q12-3 20.5-8.5T511 923q0-6-1-10l-50-174-4-30h-80l-93 292zm313-833l21-33q5-8 10-21t5-27q0-25-18-46.5T419 19q-34 0-48 11t-14 25q0 5 .5 8.5t.5 5.5h65q2-2 5-3.5t11-1.5q12 0 19 9.5t7 20.5q0 17-11 32l-17 25zm-66 296l94-17 15-144 176 6 116-151 44-36 9-24-7-3-7 18-27 25-14-7 14-45 19-25 26-12-5-7-26 11-21 19-25 62-104 132-131-12q-14-5-29.5-10t-47.5-8v-45l-42-37 18-30q3-5 7-14t4-13q0-5-2-10.5T433 81q-7 0-9 2l-3 3h-72l-19 45q3 0 6.5 1t6.5 1l7 51 47 3v51q-24 2-57 7.5T291 257l-107 9L81 134 55 72 34 53 8 42l-4 7 25 12 19 25 15 45-15 7-26-25-7-18-8 3 9 24 44 36 116 151 177-6zm-16-352q-7 0-14.5-2t-7.5-7q0-5 6.5-8t13.5-3q8 0 14.5 3.5T398 104q-5 3-11 5.5t-13 2.5zm-73 580h223q-5-10-6.5-17.5T516 662q0-9 .5-18.5T518 623q2-16 3.5-23.5T523 578q0-26-9-57.5T484 463l-93 17zm144 291h108q2-14 3-28.5t1-29.5q0-37-5-77.5T540 770q-7-37-14-61h-51l5 29 48 174q1 4 1.5 7t.5 6q0 16-13.5 24.5T486 961l-41 9zm-286 0h112l87-274h-58l-14 41v42l-32 121q-6 23-16 34t-24 14l-55 9z" fill="currentColor"/></svg>