<svg xmlns="http://www.w3.org/2000/svg" viewBox="0 0 436.7 631.5"><path d="M11.7 0c-1.1 0-2.1.9-2.1 3.1-2.9-1.5-3.8-.8-3.1 2.1-2.9-.8-3.8.2-3.1 3.1-1.1-.4-2.4.3-3.1 1s-.1 2.3 1 4.1c5.8 6.2 10 10.2 13.4 13.4 3.5 3.3 7.4 9.9 11.4 18.6.4 2.6.7 3.8 0 4.1-.7.4-1.6.1-3.1-1-1.5-2.2-3.5-5.5-5.2-9.3-1.6-3.8-3.2-6.6-5.2-8.3-2-1.6-4.1-.8-5.2 1-1.5 1.5-.7 3.1 2.1 6.2 2.7 3.1 5 8.2 7.2 15.5 1.1 3.6 3.6 7.4 6.2 10.3 4.9 12.4 10 25.2 16.5 51.7 9.5 38.5 14.5 53.9 20.7 57.9 10.6 6.8 40.4 13.2 64.1 14.5 19.2 1.1 28.3 5.4 34.1 14.5 3.8 5.9 14.1 46.6 16.5 65.1 1.4 10.4-1.3 15.7-8.3 18.6-8.6 3.6-7.6 17.1 1 20.7 2.7 1.1 4.1 2.4 4.1 3.1 0 .7-2.7 4.3-6.2 8.3-3.5 4-7.8 9.4-9.3 12.4-3.2 6.2-2.3 6.5 9.3 7.2l7.2 1v7.2c-.3 4.1-2.3 14.1-4.1 22.7-1.8 8.6-4.5 22.8-6.2 31-1.7 8.2-5.3 28.7-7.2 45.5-4.7 41.5-13.2 100.7-17.6 116.8-2 7.2-5.3 15.7-7.2 18.6-4 6-30 24.6-40.3 28.9-22 9.3-24.2 10.2-25.8 14.5-.9 2.4-.6 5.3 0 6.2.5.7 2.8 1 6.2 1 10 0 29.8-2.8 47.5-7.2 36.9-9.1 37.8-9.6 37.2-30-.3-9.9 1.2-13.7 11.4-39.3 19.2-48.3 20.6-54.6 21.7-77.5 1.3-26.3 1.5-25.7 26.9-26.9 6.2-.3 11.4-1 15.5-1 2.9 0 4.7-.2 5.2 0 1.6.5 2.8 2.7 2.1 7.2-.6 3.6-.5 12.2 1 19.6 6.8 33.9 11.8 85.6 9.3 95.1-4 15-9.6 19.3-43.4 34.1-22.8 10-28.8 17.1-16.5 18.6 2.4.3 12.6 0 25.8 0 15.5 0 35.3.4 51.7 0 10.4-.2 11.1-3 7.2-17.6-2.9-11.3-2.2-22.6 3.1-73.4 4.1-38.8 4.3-47.5 0-63-1.9-7-3.5-14.8-3.1-17.6.4-2.8.7-34.4 0-70.3-1-47.7-2.3-67.6-4.1-75.4-3.1-13.7-1.8-33.1 5.2-66.1 6.7-31.8 8.1-34.6 13.4-40.3 11.8-12.5 22-16.8 62-21.7 50.4-6.2 50-5.4 53.7-33.1 1.4-10.4 2.4-30.3 3.1-44.4 1.2-24.4 1.4-26.6 6.2-34.1.3-.4-.1-.6 0-1 .1-.5.1-.5 0-1 2.9-3.1 6.1-5.4 7.2-9.3 2.2-7.3 4.5-13.4 7.2-16.5 2.7-3.1 3.5-4.7 2.1-6.2-1.1-1.8-3.2-1.6-5.2 0s-3.5 3.4-5.2 7.2c-1.6 3.8-3.7 7.1-5.2 9.3-1.5 1.1-2.4 1.4-3.1 1-.7-.4-.4-1.6 0-4.1 4-8.8 7.9-14.3 11.4-17.6 3.5-3.3 7.6-8.3 13.4-14.5 1.1-1.8 1.8-3.4 1-4.1s-2-.4-3.1 0c.7-2.9-.2-4.9-3.1-4.1.7-2.9-.2-3.5-3.1-2.1 0-2.2-1-3.1-2.1-3.1s-2.7 1-4.1 2.1c-3.3 4.7-7.1 8.9-12.4 13.4-5.3 4.6-8.5 8.8-10.3 12.4-2.2 4.4-4.7 9.3-6.2 15.5-.9 3.9-.8 9.6-1 14.5-.1.3.1.7 0 1-2.7 15.5-1.3 26.8-5.2 44.4-2.8 12.7-5.2 24.4-5.2 26.9 0 7.3-3.4 13.7-8.3 15.5-7.1 2.7-16.8 3.4-50.6 7.2-14.5 1.6-24.2 3.1-31 3.1-8.1 0-11.7-1.6-16.5-4.1-2.8-1.4-9.6-2.6-15.5-3.1l-10.3-1c-5.2-5.4-8.5-10.7-5.2-16.5l13.4-10.3c13.4-12.4 19.6-24.9 19.6-39.3 0-17.3-5-25.1-20.7-32-6.7-3-15.8-5.2-24.8-5.2-6.1 0-12 .6-16.5 2.1-11.3 3.8-21.7 13.7-31 28.9-4.3 7-10.5 16-13.4 20.7-7 10.9-8.2 16.8-3.1 17.6 2.8.4 3.8.8 3.1 3.1-.5 1.7.1 3.5 1 4.1 1 .6 1.5 2.3 1 3.1-1.7 2.8 2.9 15.8 6.2 17.6 1.8 1 15.9 1.1 16.5 4.1.6 3.3-.3 4.2-10.3 5.2-6 .6-17.3 2.3-24.8 4.1-6.9 1.7-10.4 3.1-14.5 3.1-3.4 0-7.1-1-13.4-2.1-8-1.4-19.6-2.6-25.8-3.1-6.3-.5-15.3-2.2-19.6-3.1l-7.2-2.1L67.2 126C45.9 78.9 44.4 74.5 46.8 63c-.2-.5-.7-.6-1-1 0-6.5.2-13.5-1-18.6-1.5-6.2-4-11.1-6.2-15.5-1.8-3.6-5-7.8-10.3-12.4-5.3-4.6-9.1-8.7-12.4-13.4C14.3 1 12.8 0 11.7 0zm217 53.7c7.1 0 14.1 1.9 20.7 5.2 9.3 4.7 14.4 11 15.5 20.7 1.3 11.2-3.8 21.6-14.5 32-5.9 5.7-10.7 8.3-12.4 8.3-1.2 0-1.1-.9 1-4.1 12.7-19.3 15.2-31.3 8.3-38.2-2.9-2.9-4.6-4.1-10.3-4.1-1.4 0-3.2 1-5.2 1h-2.1c-12.2 0-21.9-4.5-22.7-10.3-.4-2.9.9-4.4 7.2-7.2 4.1-1.9 9.4-3.3 14.5-3.3zm-32 20.7l12.4 5.2c6.8 2.5 13.1 5.1 13.4 6.2.2.6.4 1 1 1 .9 0 2-.9 4.1-2.1 3.2-1.9 6.9-3.1 9.3-3.1 4.2 0 6.2 3 6.2 8.3 0 4.7-2 8.9-11.4 19.6-7.8 8.9-10.4 20.4-2.1 22.7 5.4 1.5.1 21.7 14.5 22.7 3.8.3 10.3 4.3 16.5 9.3 9.2 7.3 10.3 9.6 10.3 14.5 0 7.1-8.7 59.7-13.4 80.6-3.9 17.5-5.3 19.4-17.6 23.8-6 2.1-21.8 4.1-33.1 4.1-1.8 0-3.7.1-5.2 0-9.4-.6-9.2 1.4-17.6-42.4-9.9-52.2-11-72.7-5.2-78.5 1.4-1.4 7.3-4 13.4-6.2 6.2-2.2 12.7-5 13.4-6.2 2.1-3.3 1.7-9.1-1-14.5-2-4-3.7-5.2-8.3-5.2-8.2 0-14.5-2.5-14.5-6.2 0-1.7.7-3.6 2.1-4.1 3.7-1.4 3.6-4.4-1-6.2-2.4-.9-4.1-2.2-4.1-4.1 0-1.8-.9-4.1-2.1-4.1-5.9-.3-.8-5.9 3.1-12.4 5.4-9.2 7.1-9.9 13.4-10.3 3.7 0 9.2 2.9 12.4 4.1 6.3 2.4 9.3 3.1 10.3 3.1.5 0 1.5-.6 1-1-6.4-6.3-22.3-9.3-23.8-9.3h-5.2l4.1-5.2 4.7-4.1zM237 84.7c-4.2 0-13.4 8.4-13.4 12.4 0 1.6-1.6 4.6-3.1 6.2-2.2 2.4-1.7 3.1 0 5.2.9 1.1 1.2 2.1 2.1 2.1 1 0 2.9-.7 5.2-2.1 10.4-6.1 17.3-23.8 9.2-23.8zm-41.4 5.2c-3 0-5.5.8-8.3 3.1l-4.1 4.1 4.1 3.1c2.8 1.2 5.7 2.1 9.3 2.1 2.4 0 4.5-.2 7.2-1 2.8-.9 6.9-3 9.3-3.1 4.2-.2 4.8-.9 0-2.1-2.7-.7-7.4-2.6-10.3-4.1-2.8-1.5-5-2.1-7.2-2.1zm38.3 0c.5-.1.7 0 1 0 3.2 0 2 4.1-2.1 9.3-2.2 2.7-3.2 4.1-4.1 4.1-.9 0-1.2-2.2-1-5.2.3-5.9 2-7.1 6.2-8.2zM192.5 93c.2 0-1 1.4-1 3.1 0 1.7 1.3 3.1 1 3.1-.2 0-1.1-.5-4.1-2.1-.9-.5-1.5-.6 1-2.1 2.3-1.2 3-2 3.1-2zm6.2 0c.4 0 .7.3 2.1 1 1.7.9 5.2 2.8 5.2 3.1 1.5.3-4.1 1.6-6.2 2.1-1.9.4-2.8 0-3.1 0-.6 0 1.8-.1 2.1-2.1.1-1.7-1-4.1-.1-4.1zm24.8 12.4c.9 0 2.1-.4 2.1 0s-1.2 1.5-2.1 2.1c-.3.2-.8 0-1 0-.5 0-1-.4-1-1 0-1 1.1-1.1 2-1.1zm16.6 194.3c8.4 0 14.8.9 15.5 2.1.6 1 1.5 31 2.1 66.1l1 63-27.9 3.1c-25.6 2.6-34.3 4.1-40.3 4.1-3.1 0-6.1-.6-9.3-1l-8.3-1 1-6.2c.3-3.6 3.6-24.6 7.2-45.5s6.7-44 7.2-51.7c1.7-24 4.6-27.9 25.8-31 7.6-1 17.9-2 26-2z"/></svg>