<svg xmlns="http://www.w3.org/2000/svg" viewBox="-10 0 626 1001"><path d="M19 1001l-22-32-7-32 10-70 15-170 23-21 178 3 36-151-104-237h10l-13-38 1-42-31-117q-4-13-8.5-25.5T87 54L21 43V0h140l93 291h79l4-30 50-173q1-4 1-11 0-9-8.5-15T359 54l-55-11V0h143q3 17 4 34.5t1 35.5q0 40-5 82t-11.5 78.5Q429 267 423 291q-2 10-6 27t-4 25v17l2 17q2 20 3 26t1 20q0 34-9 63t-31 61l11 132 178-3 23 21 15 170 10 70-7 32-22 32-26-13 17-29-1-28-6-25h-3l-2 15 5 26-30 6-9-40 13-54-9-90-14-16-100 10q-17 5-39 10.5t-39 7.5v45l19 29q11 17 16 32.5t5 28.5q0 35-23.5 60t-69.5 25q-46 0-63.5-17T210 946q0-9 2-19l-32-70q6 0 12-1t11-1l8-51 40-3v-24q-17-2-45-6.5t-46-9.5l-76-8-14 16-8 90 12 54-9 40-30-6 6-26-3-15h-3l-6 25-1 28 17 29zm334-710h51q7-24 14-60.5t12-77q5-40.5 5-78.5 0-15-1-29.5T431 18H322v13l42 8q17 3 30 11.5T407 75v7l-1 7-49 173zm-175 0h58L149 18H36v13l55 8q14 3 24 14t16 35l32 121v42zm183 247q22-26 30.5-58t8.5-58q0-14-1.5-21.5T396 377q-3-21-3-39 0-10 8-29H179l89 211zM24 988l7-4-14-25-2-30 14-46 15 2 8 36-4 19 8 1 6-24-17-55 10-103 18-22 96 7q15 6 44.5 11.5T267 763v50l-43 3-8 51q-2 0-6 1t-7 1l20 46h72l3 3 9 2q8 0 10.5-5.5T320 903q0-4-4-13t-7-13l-23-30 43-38v-45q31-2 50.5-7t34.5-11l119-9 18 22 10 103-16 55 5 24 8-1-4-19 8-36 15-2 14 46-2 30-14 25 8 4 14-24 7-28-15-69-14-160-13-14-186 5-14-144-95-17-37 161-185-5-14 14-14 160-15 69 7 28zm268-6q37 0 55-21.5t18-47.5q0-13-4.5-26.5T351 865l-26-33-18 18 20 25q5 5 8 14.5t3 16.5q0 11-6.5 21T312 937q-7 0-10-2t-5-3h-65q0 1-.5 4.5t-.5 9.5q0 14 13 25t48 11zm-47-73q-7 0-13-3t-6-8q0-6 7.5-8t14.5-2q7 0 13 2.5t10 6.5q-5 4-11 8t-15 4z" fill="currentColor"/></svg>