<svg xmlns="http://www.w3.org/2000/svg" viewBox="0 0 429.6 587.5"><path d="M222 71.9c.8 0 1 .8.4 2.3-.5 1.3 0 3.4 1 4.7 1.2 1.4 1.7 2.1 1.2 2.1s-1.7-.5-3.9-1.4c-4-1.6-4.4-3.2-1.7-5.9 1.2-1.2 2.3-1.8 3-1.8zm10.7.3c.5 0 1.2.2 2.2.5 1.9.6 4.9 2 6.5 3.1 2.7 1.9 2.4 2.2-3.2 3.7-3.8 1-6 1.6-7.1 1.6-1.3 0-1-.7.2-2.2 1.1-1.3 1.5-3.5 1-4.8-.5-1.3-.5-1.9.4-1.9zm-5.6-5.2c-4.7 0-8.5 1.5-11.6 4.6-5.9 5.9-5.8 7.3.5 11.2 3.3 2 7.4 3 11.8 3 5 0 10.5-1.3 16-3.9 4.6-2.2 10.9-3.9 13.8-3.9 3 0 5.4-.7 5.4-1.6 0-.9-2.8-1.6-6.2-1.6-3.4 0-10-1.8-14.6-3.9-5.8-2.5-10.8-3.9-15.1-3.9zm64-1.8c2.1 0 3.3 1.2 2.5 3.8-2.1 6.7-5.4 11.9-9.6 15.2-2.7 2.1-4.9 3.1-6.1 3.1-1.5 0-1.5-1.6 1.2-4.4 1.6-1.7 1.6-2.2 0-2.8-3.2-1.2-2.3-4.5 2.6-9.8 3.1-3.3 6.9-5.1 9.4-5.1zm-19.6 23.9c1.3 0 2.4 1.1 2.4 2.4 0 1.3-1.1 2.4-2.4 2.4-1.3 0-2.4-1.1-2.4-2.4.1-1.3 1.1-2.4 2.4-2.4zm21.1-30.5c-7.9 0-20.3 11.6-20.3 21.3 0 2.4-.9 5-2 5.7-4.6 3-6.4 6.7-4.3 9.1 1.2 1.5 2.8 2.2 4.7 2.2 3 0 6.9-1.8 11.7-5.5 12.8-9.8 20.1-25.5 14.3-31.2-1.1-1.1-2.5-1.6-4.1-1.6zm-8.4-45.5c29.8 0 53.3 23.2 55.8 33.9 4.6 19.8-5.6 40.8-28.3 58.1-8.7 6.6-14.2 10-16.3 10-1.2 0-1.2-1.2.1-3.5 1.1-1.9 5.7-9 10.3-15.8 8.2-12 13.5-25 13.5-32.7 0-2.1-1.1-6.4-2.5-9.6-3.1-7.2-9.1-10.2-21.7-10.2-2.5 0-5.3.1-8.4.4h-1.3c-13.4 0-44.6-13-41.4-15.5 14-11 27.7-15.1 40.2-15.1zm-50.9 32.2c.7 0 1.4.1 2.3.2 6.9 1.1 31.4 11.2 34.4 14.2 1 1 2.1 1.6 3.4 1.6 2 0 4.7-1.3 9.3-4 3-1.8 6.3-2.7 9.3-2.7 6.5 0 11.9 3.9 12 10.3 0 5.8-9.1 21.1-18.9 31.5-6.1 6.5-9.7 11.8-10.3 15.3-1.3 6.9 2.6 16.3 7.9 18.7 3.3 1.5 4 2.9 4 8 0 8.7-6.8 14.1 17.7 25.3 17.4 8 28.8 13.8 15.4 42.5-15.2 32.6-7.9 93.3-8.2 149.6l-63 26.6h-.1c-9.8 4.4 8.1-24.1-11.7-95.1-8-28.7-31.7-77.3-27.3-98.7 2.3-11.3 33.1-16.9 36.8-21.1 9.1-10.6 6.6-17.4 2.8-25.5-3.8-8-4.7-8.4-21.8-9.2-8.3-.4-12.2-1.3-14.6-3.5-4.6-4.1-4.2-9.4.8-11.7 6-2.7 4.3-6.9-3.7-9.5-5.2-1.6-6.4-2.6-5.1-4.1 2.1-2.5.5-6.8-3.3-8.8-2.7-1.5-2.4-2.5 5.1-14.5 4.4-7.1 9.2-13.9 10.5-14.9 1.6-1.3 4.9-1.9 8.9-1.9 5.4 0 12.1 1.1 17.9 3.2 8.5 3.1 12.2 4.4 13.7 4.4 1 0 .9-.6.6-1.5-1.1-3.7-19.3-12-29-13.2l-9-1.1 5.3-5.5c3.4-3.7 5.1-4.9 7.9-4.9zm-118 322.3c4.2 0 10.5 3.4 16.2 6.4 14.6 7.7 65.4 25.5 78.3 33.9l-70.6 64.7h-.1c-1.9 0-20.1-59.7-27.7-89.8-2.8-11.6-.6-15.2 3.9-15.2zm193.1 19.9h1.1c4 .1 20.4-.7 23.7 27.7 2 17.5-5.3 40.4-18.4 55.7-15.3 17.8-100.3 1.9-144.4 50.4-.1.1-.2.2-.4.2-3.4 0-20.4-18.7-20.4-18.7 8.7-21.9 114.1-115.3 158.8-115.3zM126 520.3c3.9 0 8 3.8 15.6 11.8 9 9.4 8.5 5.4 8.5 8.5 0 11.7-41.8 26.8-50.6 26.8-.9 0-1.4-.2-1.6-.5-3.8-9.3 2.5-25.5 15.1-37.7 6-5.8 9.5-8.9 13-8.9zm223.1-360.6c0-.2-20.2-9.7-31.5-9.7-1.6 0-13.9-4.2-10.6-20.2.3-1.3 4.9-6.4 10.9-11.2 24.7-19.9 35.7-40.5 35.6-66.5-.1-25.6-11.6-39.4-40.6-48.4-7.6-2.5-18.8-3.7-29.5-3.7-8.1 0-15.9.7-21.7 2.2-19.6 4.9-44.2 28.1-57.2 53.8-2 3.9-8.1 13.8-13.7 22-7.8 11.6-10 16-9.6 19.7.4 3.9 1.3 4.9 5.2 5.6 4.2.7 4.7 1.4 4.3 5.7-.3 3.5.3 5.2 2.3 6 2.3.9 2.4 1.3.6 2.4-1.8 1.1-1.8 2.7-.4 8.2 1 3.8 2.2 9.1 2.7 11.9 1.4 7.6 4.2 9.1 17.7 9.1h1.7c14.8 0 18.7 8.4 7 11.5-18.3 4.9-42.7 23.6-30.1 52 9.5 21.6 33.2 94.9 39.8 136.3-4.4 6.1-8.3 32.9-9.4 32.9-11.2 0-74.7-27.8-104.5-38.3-2.7-.9-5.4-1.4-8.2-1.4-17.2 0-34.2 17.8-28.3 48.2 5 25.8 33.8 108.3 33.8 108.3-14.1 14.6-30.7 29.9-30.7 50.7 0 4.1-2 7.2-11 16.4-6.1 6.3-11.1 12.7-11 14.2.5 8.2 4.2 10 11.1 10 2.8 0 6.2-.3 10.2-.6 22.3-1.6 48-5.3 60.5-8.8 12.6-3.5 34.7-17.3 35.8-17.3 6.7 0 106.4-46.1 109.4-47.1 3.5-1.2 7.4-1.8 11.2-1.8 5.2 0 10.1 1.1 13.5 3.2 9.4 5.8 16.1 17.7 3.6 38.3-12.3 20.3-11 31.5-.3 31.5 2.1 0 4.6-.4 7.5-1.4 12.3-4 29.4 6.2 28-34-1.2-33.1 23.9-70.4 20.5-76.5-6.4-11.7-13-13.3-17.7-13.3-1.8 0-3.4.3-4.6.3-1 0-1.7-.2-2.1-.8-2.9-5.6 15.3-28.7 5.7-54.8-18.8-51.3-19.4-65.6-20.2-86.2-2.8-68.5-.1-91 14.5-119.9 5.8-12.1 3.2-12.7-.2-38.5z"/><path d="M199.7 230.9c-1.3 0-8 10-17.4 22.7-34.4 34.2-57.4 51.3-69.1 51.3-9.7 0-26-12.9-49.1-38.7-3.7-3.7-12.7-16.1-27-37.2-8-7.7-17.2-13.9-27.5-18.6-6.4-6.7-9.6-13.1-9.6-19.1l4.5-16.1-2-10.6c0-3.7 1.5-6.9 4.5-9.6h2c11 5 33.1 8 44.4 51.2 2.3 9.4 17.6 15.7 47.3 43.9 6.7 8.7 11.4 13.1 14 13.1 0 0 14.7-5.3 28-28.2 33.5-26.9 43.4-49.7 51.1-58.9l5.9 54.8zM379.8 284.2c.2.5-.2 1.1-1 .7-18.5-9.9-19.6-14.7-88.8-29.7-6.2-1.3-13.5-9-14.3-12.5-5.4-22.8-25.1-28.5-34.9-30.8-9.7-2.3-16.1 3.4-19 6.3-5.7 5.6 12 21.1 10.1 28.6-4.5 17.7 23.4 20 38.4 27.1 37.4 17.9 133 64.8 145.5 55.6 13.8-10.3 18.7-1.1 8.4-37.1 0 0-7.7-21.9-7.7-22-2.2-6.2-42.6-90-57.4-104.1-22.9-21.8-37.3 2.6-34.1 10.3 4.4 11 52.8 102 54.8 107.6z"/></svg>