<svg xmlns="http://www.w3.org/2000/svg" viewBox="0 0 311.3 594.7"><path d="M289 391.9c1.3-15.2 1.3-36.7 0-64.5-4.8-32.6-9.6-51.9-14.3-58-3-3-6.3-4.6-9.8-4.6-2.6 0-5.9 1.3-9.8 3.9-5.6 3.5-8.9 5.4-9.8 5.9-12.6 10-21.7 26.3-27.4 48.9s-8.9 48.2-9.8 76.9c22.6-1.3 41.5-1.8 56.7-1.6 15.3.2 23.3-2.1 24.2-6.9zM249.2 95.5c-6.1-1.3-9.9-4.5-11.4-9.4-1.5-5-.1-10.1 4.2-15.3 4.3-5.2 7.6-11.4 9.8-18.6 2.2-7.2.9-11.3-3.9-12.4-4.8-1.1-9.1.2-13 3.9-3.9 3.7-6.7 4-8.5 1-13.9-3.5-22.4-5.1-25.4-4.9-3 .2-5.9 3.6-8.5 10.1 6.9-1.7 14.1-1.5 21.5.7s9.1 4.1 5.2 5.9c-14.3-4.3-23.7-3.9-28 1.3l-8.5 20.8c5.2 1.7 6.7 4.6 4.6 8.5 4.3 0 7.7.7 10.1 2 2.4 1.3 1 3.7-4.2 7.2.9 6.9 6.3 8.8 16.3 5.5 10-3.3 16.1 4.2 18.2 22.5l-.7-3.9c28.2-.9 36.3 6.5 24.1 22.2-20 10-34 16.9-42 20.8-8 3.9-8.8 13.4-2.3 28.3 6.5 15 11.9 38.3 16.3 70 25.2-1.7 40.8-7.2 46.9-16.3 3.5-10.4 8-28.2 13.7-53.4 5.6-25.2-1.3-47.8-20.8-67.8-8.2-8.8-12.8-18.3-13.7-28.7zM188 66.1c2.2-5.6 5.4-9.1 9.8-10.4 4.3-1.3 10.4-.2 18.2 3.3l9.1-1.3.7 2.6-9.1 1.3c-4.3 3.9-8.8 6.5-13.4 7.8-4.6 1.3-9.7.2-15.3-3.3zm9.1-6.5c-1.3-.4-2.8.9-4.6 3.9 2.2 2.2 5 2.8 8.5 2-4.3 0-5.6-2-3.9-5.9zm3.9 5.9c3.9-.4 7.6-2 11.1-4.6-3-.9-6.3-1.5-9.8-2 3.5 2.2 3.1 4.4-1.3 6.6zm32-3.3c-1.7-2.2-1.5-5.5.7-10.1s4.9-7.7 8.1-9.4c3.3-1.7 5.5-1.6 6.8.3 1.3 2 1.5 4.9.7 8.8-.9 3.9-3.3 8.4-7.2 13.4-3.9 5-7.2 7.3-9.8 6.8-2.6-.4-3.8-1.8-3.6-4.2.2-2.4 1.6-4.3 4.3-5.6zm6.5-13c-1.7 2.6-3 5.2-3.9 7.8-.9 2.6-.4 3.3 1.3 2 1.7-1.3 2-.4.7 2.6s-1.1 3.9.7 2.6c1.7-1.3 3.5-3.5 5.2-6.5 1.7-3 2.5-6 2.3-8.8s-2.4-2.7-6.3.3zm-9.8-15c15.2-6.5 24.9-6 29 1.6 4.1 7.6 2.7 18.5-4.2 32.6-6.9 14.1-4.9 15 6.2 2.6 11.1-12.4 15.3-25.2 12.7-38.4-2.6-13.2-12.3-20.4-29-21.5-16.7-1.1-28 2-33.9 9.1-5.9 7.2.5 11.8 19.2 14zm3.3 31.3c-1.7 1.3-2.2 2.5-1.3 3.6.9 1.1 1.8 1.1 2.9 0 1.1-1.1.5-2.3-1.6-3.6zM94.8 216c-20.8-20.9-38.8-49.3-54-85.4-2.6-.9-6-2.7-10.1-5.5s-7.9-8.1-11.4-16c-3.5-7.8-6.9-13.2-10.4-16.3-2.2-4.8-1.1-6.3 3.3-4.6 3.5.9 8 6.9 13.7 18.2 3.9 2.6 5.4 2.2 4.6-1.3-.9-7.4-10.2-19.5-28-36.5C.6 67-.2 65.6 0 64.5c.2-1.1 1.4-1.6 3.6-1.6 0-2.2 1.1-3.3 3.3-3.3 0-2.2 1.3-3.3 3.9-3.3.4-1.7 1.6-2.3 3.6-1.6 2 .7 5.8 4.2 11.4 10.8C42.7 77.6 51 95 50.5 117.6v-.6c23.9 26.1 42.3 50 55.4 71.7l20.8-9.8c-24.8-31.7-40.2-56.2-46.3-73.6-2.6-.9-6-2.7-10.1-5.5s-7.9-8.1-11.4-16C55.4 76 52 70.6 48.5 67.5c-1.7-4.8-.4-6.3 3.9-4.6 3 .9 7.6 6.9 13.7 18.2 3.5 2.6 4.8 2.2 3.9-1.3-.9-7.4-10.2-19.5-28-36.5-1.7-1.7-2.5-3-2.3-3.9.2-.9 1.6-1.3 4.2-1.3 0-2.6.9-3.9 2.6-3.9 0-2.2 1.3-3.3 3.9-3.3.4-1.7 1.6-2.3 3.6-1.6 2 .7 6 4.2 12.1 10.8 16.5 12.2 24.5 29.5 24.1 52.1 26.1 27.8 46 53.2 59.9 76.2 20.8-24.3 41.3-38.9 61.2-43.7l-2.6-13c-6.1 1.7-11.2 2.8-15.3 3.3-4.1.4-6.6-1.2-7.5-4.9-.9-3.7-2.2-6.7-3.9-9.1-1.7-2.4-1.8-4.2-.3-5.5 1.5-1.3 1.4-1.7-.3-1.3-1.3.4-2.2-.2-2.6-2-.4-1.7 0-3.3 1.3-4.6-1.3-1.3-3.5-1.6-6.5-1-3 .7-4.1-1.8-3.3-7.5 7.4-15.6 11.9-27.1 13.7-34.5 8.3-20.8 19.2-34 32.9-39.4 13.7-5.4 27.5-6.6 41.4-3.6 13.9 3 22.7 10.5 26.4 22.5 3.7 11.9 3.3 23.5-1.3 34.5-4.6 11.1-12.3 20.5-23.1 28.3 1.3 12.2 5.6 21.5 13 28 20.4 15.6 29.1 35 26.1 58s-8.3 48.9-15.6 77.5c10.9 37.8 16.1 61.9 15.6 72.3 2.2 13 3.5 35.2 3.9 66.5 0 27.4.7 48 2 61.9 7.8 13 8 42.6.7 88.6 0 8.3.4 16.1 1.3 23.5 3 10 0 16.1-9.1 18.2-9.1 2.2-21.8 5.6-38.1 10.4-16.3 4.8-30.3 2.4-42-7.2-1.3-5.2 6.1-10 22.2-14.3 16.5-3.9 31.3-13.2 44.3-28-1.7-15.6-5.2-44.1-10.4-85.3-6.1-15.2-10.2-30.4-12.4-45.6l-29.3.7c-1.3 8.7-5.4 21.9-12.4 39.7 3 18.2-5.4 50.4-25.4 96.4 6.1 21.7 2.4 32.6-11.1 32.6-6.5 0-17.2 3-31.9 9.1-14.8 6.1-26.9 6.3-36.5.7-9.6-5.6-14.3-10.4-14.3-14.3 5.2-4.3 17-8.4 35.5-12.1 18.5-3.7 30.5-9 36.2-16 3.5-13 6.5-25 9.1-35.8 2.6-10.9 3.7-19.3 3.3-25.4-.4-13.5-.3-25.2.3-35.2.7-10 1.8-26.5 3.6-49.5 0-19.5 2-37 5.9-52.4 3.9-15.4 8-29.2 12.4-41.4l-20.8-.7 9.8-25.4c-6.5-.9-9.3-4.1-8.5-9.8-.9-5.6 5.4-9.3 18.9-11.1-2.6-25.2-5.6-43.3-9.1-54.4-3.5-11.1-8.3-19.7-14.3-25.7-8.7 6.1-16.6 10.7-23.8 14-7.2 3.3-17.9 8-32.3 14.3-14.7 6.4-25.3 8.5-32.3 6.3z"/></svg>