<svg xmlns="http://www.w3.org/2000/svg" viewBox="-10 0 584 1003"><path d="M143 1003v-43l66-11q15-3 20-15t8-25l31-117-1-42 13-39h-10l104-236-36-151-181-8L48 179 8 142l-15-38 29-12 9 24 11 11 3-1-10-25-14-23-31-14L4 38l37 14 24 22 33 63 94 99h2l-38-90-32-44-9-40 31-6 4 25 9 12h3l-4-26-11-25-27-20 18-22 33 20 20 26 22 68 55 120h19q23-4 47.5-5.5T376 226v-24l-43-3-8-51q-5-1-11-1.5t-12-1.5l32-69q-2-10-2-20 0-20 17.5-37T413 2q46 0 69.5 25T506 86q0 13-5 29t-16 33l-15 28v45q24 0 36.5 15t16 39q3.5 24-.5 49l-21 132q22 32 31 61t9 62q0 14-1 20t-3 26q-2 10-2 18v16l4.5 25q4.5 25 5.5 27 6 24 13 60.5t11.5 78.5q4.5 42 4.5 82 0 18-1 36.5t-4 34.5H426v-43l55-11q12-3 20.5-8.5T510 925q0-6-1-10l-49-174-5-30h-79l-93 292zm68-767l39-1-55-118-15-65-17-23-23-16-6 6 23 17 13 29 7 46-15 5-22-30-4-20-7 2 4 25 37 44zm240-66l22-33q5-8 9.5-21t4.5-27q0-25-18-46.5T414 21q-35 0-48 11t-13 25q0 5 .5 8.5t.5 5.5h65q2-2 5-3.5t10-1.5q13 0 20 9.5t7 20.5q0 18-12 32l-16 25zm-62 296l95-17 21-144q3-23-7.5-45.5T455 238v-45l-43-37 19-30q3-5 7-14t4-13q0-5-2-10.5T429 83q-7 0-9 2l-3 3h-72l-20 45q3 0 7 1t6 1l8 51 47 3v51q-24 2-51 4.5t-47 6.5l-112 4L81 144 55 82 34 63 8 51l-4 8 25 12 19 25 15 45-15 7-26-25-7-18-8 2 9 24 44 37 108 130 184 7zm-19-352q-7 0-14.5-2t-7.5-7q0-5 6-8t13-3q9 0 15 3.5t11 8.5q-4 3-10 5.5t-13 2.5zm-69 580h223q-9-19-9-30 0-17 3-39 1-16 2.5-23.5T522 580q0-26-8.5-57.5T483 465l-93 17zM158 985h113l87-274h-58l-15 41v42l-31 121q-7 23-16.5 34T213 963l-55 9zm286 0h109q2-14 3-28.5t1-29.5q0-37-5-77.5T540 772q-7-37-14-61h-51l4 29 49 174q1 4 1 7v6q0 16-13 24.5T486 963l-42 9z" fill="currentColor"/></svg>