<svg xmlns="http://www.w3.org/2000/svg" viewBox="-10 0 709 1001"><path d="M-10 1001v-43l66-11q15-3 20-15t9-25l30-117-1-42 14-39h-11l102-238-40-117q-10-29-8-58t15-49q13-20 37-23v-24l-43-3-8-51q-5-1-11-1.5t-12-1.5l32-69q-2-10-2-20 0-20 17.5-37T260 0q46 0 69.5 25T353 84q0 29-20 62l-16 28v45q17 2 50.5 6.5T424 234l19 1 56-120 21-69 20-26 33-20 18 22-26 20-11 25-5 26 4 1 8-12 5-26 30 7-8 40-33 44-37 90h2l71-101 33-63 24-23 36-13 15 25-31 15-15 23-9 24 3 2 10-11 10-25 28 12-15 38-40 37-85 140-181 7-26 130q23 32 31.5 61t8.5 62q0 14-1 20t-3 26q-1 10-1.5 18t-.5 16q0 8 4.5 25t6.5 27q6 24 12.5 60.5t11 78.5q4.5 42 4.5 82 0 18-1 36.5t-3 34.5H273v-43l55-11q12-3 21-8.5t9-15.5q0-6-1-10l-50-174-5-30h-79l-93 292zm511-765l40-98 37-44 5-26-8-1-3 19-23 30-15-4 7-47 13-28 24-17-6-6-24 15-16 23-15 65-55 118zm-203-68l22-33q5-8 10-21t5-27q0-25-18-46.5T261 19q-34 0-47.5 11T200 55q0 5 .5 8.5t.5 5.5h65q2-2 5-3.5t10-1.5q13 0 20 9.5t7 20.5q0 18-12 32l-16 25zm-62 296l94-17 28-142 186-7 85-132 43-36 10-24-8-3-7 18-27 25-14-6 15-46 18-25 26-12-4-7-26 11-21 20-26 61-80 114-112-5q-13-3-33.5-6t-42.5-5.5q-22-2.5-38-3.5v-45l-43-37 19-30q3-5 7-14t4-13q0-5-2-10.5T276 81q-7 0-9 2l-3 3h-72l-20 45q3 0 7 1t7 1l7 51 47 3v51q-26 5-37.5 22.5T191 300q0 22 6 41zm-19-352q-7 0-14.5-2t-7.5-7q0-5 6-8t13-3q9 0 15 3.5t11 8.5q-5 3-10 5.5t-13 2.5zm-69 580h221q-4-10-6-17.5t-2-12.5v-18.5l2-20.5q2-16 3.5-23.5T368 578q0-26-8.5-57.5T329 463l-92 17zm144 291h108q2-14 3-28.5t1-29.5q0-37-5-77.5T386.5 770q-7.5-37-13.5-61h-51l4 29 49 174q2 4 2 7v6q0 16-13.5 24.5T333 961l-41 9zM5 983h113l87-274h-58l-15 41v42l-31 121q-7 23-16.5 34T61 961l-56 9z" fill="currentColor"/></svg>