<svg xmlns="http://www.w3.org/2000/svg" viewBox="0 0 445.4 595"><path d="M132.5 389.9h97.4l-3.9-65.6c7.8-24.2 5.4-47.8-7.1-70.8l-57.1 7.8-29.3 128.6zm57.1-307.7c1.3-.9.4-3-2.6-6.5s-2.3-7.5 2.3-12 8-9.7 10.4-15.6 1.4-9.5-2.9-11-8.5.1-12.7 4.9c-4.1 4.8-6.2 4.5-6.2-.6-8.7-4.3-19.5-6.3-32.5-5.8-1.3 1.7-2.8 3.9-4.5 6.5 4.8-2.2 9.8-2.2 15.3 0 5.4 2.2 9.6 3.2 12.7 3.2v2.6c-4.8-.4-9.7-1.4-14.9-2.9-5.2-1.5-10-1.2-14.3 1-4.3 4.3-8.2 11.7-11.7 22.1 4.8 1.3 7.4 3.2 7.8 5.8 5.2 0 8.8.6 10.7 1.9 1.9 1.3-.1 3.9-6.2 7.8-1.3 7.4 3.7 9.7 14.9 7.1 11.3-2.6 16 3.5 14.3 18.2-17.3 24.2-23.8 49.5-19.5 75.9 4.3 26.4 6.7 46.3 7.1 59.7L213 236c-1.3-8.2 1.1-20.1 7.1-35.7 6.1-15.6 9.2-31.7 9.4-48.4.2-16.7-2.1-26.5-6.8-29.5-4.8-3-10.8-4.7-18.2-4.9-7.4-.2-11.8-2.9-13.3-8.1-1.5-5.1-2-14.2-1.6-27.2zm-9.1-27.3c-.9-1.7-.2-4.5 1.9-8.4 2.2-3.9 4.8-6.3 7.8-7.1 3-.9 5.2-.5 6.5 1 1.3 1.5 1.4 3.9.3 7.1-1.1 3.2-3.6 6.9-7.5 11s-7.1 5.8-9.7 5.2c-2.6-.6-3.8-1.9-3.6-3.9.3-2 1.7-3.6 4.3-4.9zm7.8-10.4c-2.2 2.2-3.6 4.3-4.2 6.5-.6 2.2-.1 2.8 1.6 1.9 1.7-.9 1.7 0 0 2.6s-1.7 3.4 0 2.3 3.5-2.9 5.2-5.5c1.7-2.6 2.7-5.1 2.9-7.5.3-2.3-1.6-2.4-5.5-.3zm-7.8-9c12.1-6.5 20.4-6.6 25-.3 4.5 6.3 3.4 13.3-3.6 21.1-6.9 7.8-8.9 13.4-5.8 16.9 3 3.9 8.7 1.7 16.9-6.5s12.3-18.6 12.3-31.2c0-12.5-7.6-20.2-22.7-23-15.1-2.8-26.8-2.8-35.1 0-8.2 2.8-13.2 7.9-14.9 15.3 13.9 1.2 23.2 3.8 27.9 7.7zm.7 23.3c-1.3.4-1.7 1.2-1.3 2.3s1.2 1.1 2.3 0c1-1.1.7-1.8-1-2.3zm-42.9-4.5l-.6-2.6 4.5-4.5c4.8-3 11-2.2 18.8 2.6h7.1v3.9l-7.1-1.3c-7.4 3.5-14.3 4.1-20.8 1.9h-1.9zm3.9-2.6c.9 0 2.4.2 4.5.6-1.3-1.3-1.5-2.8-.6-4.5-2.6 1.3-3.9 2.6-3.9 3.9zm9.1.6c2.2 0 4.5-.4 7.1-1.3l-6.5-2.6c1.4 1.8 1.2 3.1-.6 3.9zm-18.8 16.3c-.4-.4-.5-.9-.3-1.3s1-.6 2.3-.6l1.6 1.6c1.1 1.1 2.1 1.4 2.9 1 .9-.4 1.2-1.1 1-1.9-.2-.9 0-1.4.6-1.6.6-.2 1 .4 1 1.9s-.5 2.6-1.6 3.2c-1.1.6-2.3.3-3.6-1-1.3-1.3-2.6-1.8-3.9-1.3zm11 9l-7.8 1.9c-1.3.4-1.6.9-1 1.3.6.4 1.2.6 1.6.6 1.3-.4 2.8-1 4.5-1.6 1.9-.5 2.7-1.3 2.7-2.2zm.7-1.3c.4 0-.5-.1-2.9-.3-2.4-.2-4.3-.4-5.8-.6-1.5-.2-2.4.1-2.6 1-.2.9.1 1.1 1 .6l10.3-.7zm57.1 9.1c-3.5 15.6 1.1 23.4 13.6 23.4 13 0 23.4 3.2 31.2 9.7 7.8 6.5 17 10.5 27.6 12 10.6 1.5 23.7 6 39.3 13.3 7.8-16.4 24.7-36.6 50.6-60.4 1.7-7.4 3-14.1 3.9-20.1s2.4-11.5 4.5-16.2c1.3-3.5 4.1-7.6 8.4-12.3 4.3-4.8 8.2-9.7 11.7-14.9.9-1.3 1.7-1.5 2.6-.6.9-.4 1.3.2 1.3 1.9 3-1.3 4.3-.4 3.9 2.6 2.6-1.3 3.7-.4 3.2 2.6.9-.9 1.6-1 2.3-.3.6.6.5 1.6-.3 2.9-5.2 6.9-9.2 12.1-12 15.6-2.8 3.5-5.7 9.7-8.8 18.8-.4 2.6-.4 3.9 0 3.9.9 0 1.9-.6 3.2-1.9.9-1.7 2.1-4.4 3.6-8.1 1.5-3.7 3-6.4 4.5-8.1 1.5-1.7 3.1-1.9 4.9-.6 1.3.9.8 2.9-1.6 6.2-2.4 3.2-4.2 8.5-5.5 15.9-1.3 7.4-5.8 13.6-13.6 18.8v.5c-22.1 34.6-34.2 53-36.3 55.2 13.8-14.3 33.8-33.3 59.7-57.1 1.7-6.9 3-13.5 3.9-19.8.9-6.3 2.4-11.8 4.5-16.6 1.3-3.5 4.2-7.6 8.8-12.3 4.5-4.8 8.3-9.7 11.4-14.9 1.3-1.3 2.2-1.7 2.6-1.3 1.3-.4 1.7.4 1.3 2.6 3-1.7 4.1-1.1 3.2 1.9 3-1.3 4.3-.2 3.9 3.2.9-1.3 1.6-1.5 2.3-.6.6.9.5 2.2-.3 3.9-5.2 6.5-9.2 11.5-12 14.9-2.8 3.5-5.5 9.5-8.1 18.2-.9 2.6-.9 3.9 0 3.9.4 0 1.5-.4 3.2-1.3 1.3-2.6 2.5-5.6 3.6-9.1s2.5-5.9 4.2-7.5c1.7-1.5 3-1.6 3.9-.3 1.7.9 1.3 2.8-1.3 5.8s-4.4 8.3-5.5 15.9c-1.1 7.6-5.5 14-13.3 19.1-21.6 34.6-45.4 63-71.4 85-23.4-2.6-58.2-10.6-104.5-24 0 16-2.6 31.6-7.8 46.7-5.2 15.1-6.7 27.7-4.5 37.6 15.1 31.6 18.2 59.7 9.1 84.4l6.5 111c14.3 16.4 18.6 35.4 13 56.8-5.6 21.4-9.1 36.9-10.4 46.4-1.7 10.4-1.3 20.9 1.3 31.5 2.6 10.6.4 19.1-6.5 25.6-48.5 0-76.2-.3-83.1-1-6.9-.6-9.5-2.8-7.8-6.5 1.7-3.7 10.6-7.2 26.6-10.7 16-3 27.6-7.6 34.7-13.6 7.1-6.1 9.8-16.4 8.1-31.2-1.7-14.7-5.4-47-11-96.7-7.4-13.4-11.7-23.2-13-29.2h-39.6c-3.9 3.5-8.9 9.4-14.9 17.8-6.1 8.4-8.9 16.1-8.4 23 7.8 19 3.1 41.5-14 67.5S97.2 558.4 99.2 569c1.9 10.6-.5 19.1-7.5 25.6-48.5 0-76.2-.3-83.1-1-6.9-.6-9.6-2.8-8.1-6.5s10.5-7.2 26.9-10.7c16-6.9 27.9-12.4 35.7-16.6 7.8-4.1 13.2-14.1 16.2-29.9 3-15.8 10-40.4 20.8-73.7-1.7-16 1.1-32.9 8.4-50.6L144.8 255c-2.2-20.8-5.5-44.8-10.1-72-4.5-27.3 1.6-52.1 18.5-74.6 6.5-2.2 8-5.4 4.5-9.7-7.4.9-13.3 1.2-17.9 1-4.5-.2-7-2.8-7.5-7.8-.4-5-1.7-7.8-3.9-8.4-2.2-.6-1.9-1.6.6-2.9 2.6-1.3 2.6-1.7 0-1.3-1.7 0-2.9-.5-3.6-1.6-.6-1.1.1-2.3 2.3-3.6-1.7-1.3-3.9-2.3-6.5-2.9-2.6-.6-2.8-3.8-.6-9.4 4.3-8.2 8.2-14.7 11.7-19.5 5.2-23.8 16.1-37.3 32.8-40.6 16.7-3.2 32.7-2.6 48 1.9s23 14.8 23 30.8c0 15.1-2.8 26.1-8.4 32.8-5.4 7.1-14.3 13-26.4 18.2z"/></svg>