<svg xmlns="http://www.w3.org/2000/svg" viewBox="-10 0 605 1001"><path d="M144 1001v-43l55-11q12-3 21-8.5t9-15.5q0-2-.5-4.5t-.5-5.5l-11-92-157-99-13-30v-23l117-198-2-35-9 3q-35 15-72.5 22T8 466l-18-10q3-29 18.5-67t36-72Q65 283 81 263q11-14 33-23t48-14l15-2v-24l-43-3-7-51q-5-1-11.5-1.5T103 143l32-69q-2-10-2-20 0-20 17.5-37T214 0q46 0 69.5 25T307 84q0 29-20 62l-16 28v47q14 1 29 2.5t30 4.5q35 7 71 19t55 16q25-28 45-66t31-69l-17-81 23-7 14 32 5-17-16-46 26-9 28 58-11 38q-7 66-27 118.5T509 329l-12 8q-24 3-43.5 2.5t-48-5Q377 330 327 322l-34 132q18 16 29 36t11 53q0 23-5.5 40T315 616.5q-7 16.5-12 38.5t-5 54q-1 11-1.5 33t-1.5 45l87 58 44 3 15 40-49 95-37 18h-54v-40l39-9 20-23-2-16-65-43v60q0 18-1.5 36.5T288 1001zM19 450q57 3 102.5-15t76.5-37l72-2v-6h-39l-2-9 25-23 41-2v-6l-49-2-26 25q-51 17-81.5 26t-49 13Q71 416 54 417q7-16 26.5-46.5T129 306h9l22 71q16-4 30.5-9t22.5-8l30-25 61 4 10-36q63 11 96 15t50 3.5q17-.5 31-1.5 26-50 49.5-110T571 94l11-34-20-44-6 3 14 38-11 32-9 2-16-36-5 2 15 68q-7 32-26.5 73.5T470 274l-15 6q-19-3-57-16.5T322 244q-14-2-34-3.5t-32 .5v-50l-43-37 19-30q3-5 7-14t4-13q0-5-2-10.5T230 81q-7 0-9 2l-3 3h-72l-19 45q2 0 6 1t7 1l7 51 47 3v51l-33 5q-15 3-36 11t-31 19q-19 23-37.5 54.5t-31 63.5Q13 423 8 446zm234-282l21-33q5-8 10-21t5-27q0-25-18-46.5T215 19q-34 0-47.5 11T154 55q0 5 .5 8.5t.5 5.5h65q2-2 5-3.5t10-1.5q13 0 20 9.5t7 20.5q0 17-11 32l-17 25zm-82-56q-7 0-14.5-2t-7.5-7q0-5 6-8t14-3q15 0 25 12-5 3-10 5.5t-13 2.5zM81 397q9-1 25-4t38-9l-16-52q-27 32-35 45t-12 20zm100 67l95-17 21-80-36 2-14 12h36l2 24-86 7q-3 2-8.5 6t-12.5 8zm93 228q1-31 10-55.5t18.5-47Q312 567 312 544q0-26-10.5-47T274 463l-92 17L70 670v6zm-61 103l-5-45-63-50-71-6 6 18zm-6-70l-1-21-31-2zm-44 258h108q2-14 3-28.5t1-29.5q0-37 .5-77.5t1-77.5q.5-37 1.5-61l-51-3v32l19 174q1 4 1.5 7t.5 6q0 16-13.5 24.5T204 961l-41 9zm154 2h35l30-18q3-4 15.5-30.5T421 887l-9-24-33 2-84-57-2 40 80 53v37l-30 29-26 5z" fill="currentColor"/></svg>