<svg xmlns="http://www.w3.org/2000/svg" viewBox="0 0 296.6 596"><path d="M133 87.8c-.8-1.6 0-4.4 2.5-8.3 2.5-3.9 5.2-6.2 8.3-6.8 3.1-.6 5.1-.1 6.2 1.5 1 1.6.8 4-.6 7.1-1.4 3.1-4.2 6.6-8.3 10.5-4.1 3.9-7.3 5.3-9.5 4.3-2.3-1-3.1-2.5-2.5-4.3.6-1.9 1.9-3.2 3.9-4zm8.7-10.5c-2.1 2.1-3.7 4.1-4.9 6.2-1.2 2.1-.9 2.9.9 2.5 1.8-.4 1.8.4 0 2.5s-1.8 2.8 0 2.2c1.8-.6 3.7-2.2 5.5-4.6 1.8-2.5 3-4.9 3.4-7.4.4-2.6-1.2-3-4.9-1.4zm-6.2-9.2c11.5-5.3 19-4.6 22.5 2.2s1.5 13.7-5.9 20.6c-7.4 7-9.7 12.3-6.8 16 2.5 4.1 8.2 2 17.2-6.5s13.8-18.6 14.2-30.5c0-11.9-6.6-19.7-19.7-23.4-13.1-3.7-24-4.6-32.6-2.8-8.6 1.8-14.6 6.5-17.9 13.9 15.3 2.5 24.9 6 29 10.5zM133 90.9c-1.2.4-1.7 1.2-1.5 2.5.2 1.2.9 1.4 2.2.6 1.2-.9 1-1.9-.7-3.1zm-38.8-8.6v-3.1l4.3-3.1c4.9-2.9 10.5-1.4 16.6 4.3l6.9.6v3.7l-6.8-1.8c-7 2.9-13.3 2.7-19.1-.6h-1.9zm3.7-2.5c.8.4 2.3.8 4.3 1.2-1.2-1.2-1.2-2.7 0-4.3-2 1.2-3.4 2.3-4.3 3.1zm8 1.8c2.1 0 4.3-.2 6.8-.6l-4.9-3.1c.8 1.7.2 2.9-1.9 3.7zM86.8 96.4c0-.8.1-1.4.3-1.8.2-.4.7-.6 1.5-.6.4 0 1.1.6 2.2 1.8 1 1.2 1.8 1.6 2.5 1.2.6-.4.9-1 .9-1.8s.2-1.3.6-1.5c.4-.2.7.4.9 1.8.2 1.4-.3 2.5-1.5 3.1-1.2.6-2.5.2-3.7-1.2-1.2-1.5-2.4-1.8-3.7-1zm9.9 9.3l-8 .6c-.8.8-1 1.4-.6 1.8.4.4.8.4 1.2 0 1.2 0 2.6-.2 4-.6 1.5-.4 2.6-1 3.4-1.8zm.6-1.3c.4 0-.4-.2-2.5-.6-2.1-.4-3.9-.7-5.5-.9-1.6-.2-2.5 0-2.5.6s.2.9.6.9h9.9zm-12.9 114l-9.7-31.5c-9.4 9.4-22.9 26.8-31.6 37.4 5.8-.8 23.6-4.3 41.3-5.9zm23.7 203.2C95.8 437.2 94 445 112.4 445c4.1 0 20.6 7.7 22.2 9.4-2.9-7-7.7-22.5-6.5-32.8h-20zm68 94.8c-7.4 16-3.6 46.3 2.6 64.7 0 8.6-3 13.1-8.9 13.6-6 .4-10.9-.2-14.8-1.8-3.9-1.6-9.5-1.2-16.9 1.2H88.7c-2.9-1.2-5.4-3-7.7-5.2s-1.5-5.1 2.2-8.6 10.7-3.5 20.9-5.7 25.3-7.2 33.5-11.5 11.2-33.9 1.8-63.5c-25.5-14.8-48-20.4-66.1-24.9-18.1-4.5-23.8-22.2-17.2-53 7.4-39.4 19.9-84 37.6-133.7.4-14.8-.8-30.6-3.7-47.4-22.2 7.4-39.2 12.1-51.1 14.2-13.1 2.5-26.1 1.6-38.8-2.5 9.9-24.6 20.7-42.8 31.4-57.8s22.7-30.4 30.5-40.7c7.8-10.3 15.1-14.1 28.7-13.7 11.9.4 18.2-1.7 18.8-6.5.6-4.7-1.4-6.6-6.2-5.5-4.7 1-8.9 1.1-12.6.3-3.7-.8-5.5-3.7-5.5-8.6s-.8-7.9-2.5-8.9c-1.6-1-1.3-2.2.9-3.4 2.3-1.2 3-1.6 2.2-1.2-3.3-.4-5-1.1-5.2-2.2-.2-1 .7-2.2 2.8-3.4-1.2-1.2-3.1-2.3-5.5-3.1-2.5-.8-2.5-3.9 0-9.2 4.9-7.8 9.4-14.2 13.6-19.1 7-20.1 18.2-31.1 33.6-33 15.4-1.8 29.4-.3 41.9 4.6 12.5 4.9 18.6 14.4 18.2 28.3-.4 14-4 24.8-10.8 32.6-6.8 7.8-13.9 12.9-21.3 15.4-3.3 15.6 2.1 23.6 16 24 14.4.4 24.3 2.7 29.9 6.8 5.5 4.1 25.2 6.4 58.8 6.8 4.5-20.1 9.6-46.4 15.4-78.8-7.8-12.3-9.4-28.1-4.9-47.4 4.5-.4 6.5 3.2 5.9 10.8-.6 7.6.9 13.9 4.6 18.8 3.7-9.9 5.1-18.4 4.3-25.6-.8-7.2-3.1-14.3-6.8-21.3-2.1-3.7-2.5-6.7-1.2-8.9 1.2-2.3 3.9-3 8-2.2 9 13.1 13.7 25.6 13.9 37.3s-2 24.1-6.5 37.3c2.5 26.7 3.6 46.8 3.4 60.4-.2 13.6-3 24.9-8.3 46.2-16.8 4.1-37.1 4.7-86.3 1.8-4.1 0-21.1 16.1-25.5 36-4.3 19.9-6.3 36-5.9 48.4 11.9 20.5 16 42.5 12.3 65.9v88.1c-10.1.6-7.1 8.6-8.2 16.6 5.7 23 7.1 28 4.2 42 5.7 4.1 18.9 19.2 28 20.1 15.6 1.2 23.7 1.5 24.3 8.9s-.8 14-4.3 19.7c-3.5 5.7-5.2 17.9-5.2 36.3 0 5.8-6.4 22-19.1 26.7-12 4.4-19.8 7.7-19.4-2.9 2.5-19.5 13.7-4.4 15.9-29.6 4.4-20.3-11.7-35.6-20.3-43zm-75.7-279.5c2.1 16.8 3.5 31 4.3 42.5l51.1-10.5c7-60.4 18.8-80.3 29.3-88.8 8.6-7.3 11.5-15.7 6.7-23-6-4.3-16.3-6.7-31.1-7.1-14.8-.8-21.4-11.3-19.7-31.4-.4-2.9-1.8-6.3-4.3-10.2-2.5-3.9-1.3-7.8 3.4-11.7 4.7-3.9 8.5-8.6 11.4-14.2 2.9-5.5 2.5-9.3-1.2-11.4-3.7-2.1-7.7-.9-12 3.4s-6.5 4-6.5-.9c-7-5.3-16.4-8.6-28.3-9.9-1.6 1.6-3.3 3.7-4.9 6.2 4.5-1.6 9-1.1 13.6 1.5 4.5 2.7 8.2 4.2 11.1 4.6v3.1c-4.5-1.2-8.9-3-13.2-5.2-4.3-2.3-8.7-2.4-13.2-.3-4.5 4.1-9 10.9-13.6 20.3 4.5 2.5 6.6 4.7 6.2 6.8 4.9.8 8.2 2 9.9 3.4 1.6 1.4-.6 3.8-6.8 7.1-1.6 7 2.2 9.8 11.4 8.3 9.2-1.4 14.3 3.6 15.1 15.1l-4.3 13.6c-25.5 0-33 2.6-39.2 10l20.1 59.6 7.4-.6c7.4-9 20.7-13.1 40-12.3 1.6 3.3-1.2 5.4-8.6 6.5s-12.9 4-16.6 8.9c10.7 1.2 19.3.7 25.9-1.5 6.6-2.3 11-4.6 13.2-7.1 2.3-2.5 4.8-4 7.7-4.6 2.9-.6 4.5 1.1 4.9 5.2-7 11.5-16 18.3-27.1 20.3-11.1 2.5-23.2 3.3-36.3 2.5-4.4 1.1-6.2 1.8-5.8 1.8zm3.7 54.2c-15.2 46.4-25.7 86-31.4 118.9h96.1v-75.1c2.1-22.6-1.2-41.3-9.9-56.1l-54.8 12.3z"/></svg>