<svg xmlns="http://www.w3.org/2000/svg" viewBox="-10 0 612 1001"><path d="M279 1001v-43l56-11q12-3 20.5-8.5T364 923q0-2-.5-4.5t-.5-5.5l-10-92-158-99-12-30v-23l116-198-2-35-36-114q-50 8-79.5 12.5t-49.5 5q-20 .5-44-2.5l-12-8q-29-62-48.5-114.5T2 96l-12-38L18 0l26 9-16 46 5 17 14-32 23 7-17 81q11 31 30.5 69t45.5 66q19-4 55-16t71-19q15-3 29.5-4.5T313 221v-21l-43-3-8-51q-5-1-11.5-1.5T238 143l32-69q0-4-.5-9.5T269 54q-1-20 16.5-37T349 0q46 0 69.5 25T442 84q0 29-20 62l-16 28v48q5 1 11.5 2t11.5 2q26 5 48 14t33 23q16 20 36.5 54t36.5 72q16 38 19 67l-19 10q-34 2-72.5-3.5T438 439l-6-3-4 18q18 16 29 36t11 53q0 23-5.5 40t-12 33.5q-6.5 16.5-12 38.5t-5.5 54q0 11-1 33t-2 45l88 58 44 3 14 40-49 95-37 18h-53v-40l38-9 21-23-3-16-65-43v60q0 18-1.5 36.5T423 1001zm294-551l10-4q-4-23-17-55t-31-63.5Q517 296 497 273q-10-11-30-19t-37-11q-9-2-20.5-3.5T391 237v-46l-42-37 18-30q3-5 7.5-14t4.5-13q0-5-2.5-10.5T365 81q-6 0-8 2t-4 3h-72l-19 45q3 0 7 1t6 1l7 51 47 3v54q-12-2-32-.5t-34 3.5q-38 6-76 19.5T130 280l-15-6q-28-34-47-75.5T42 125l14-68-5-2-16 36-9-2-11-32 14-38-6-3L3 60l11 34q7 56 30.5 116T94 320q15 1 32.5 1.5t51-3.5q33.5-4 96.5-15l11 36 63-4 31 25q7 3 21 8t30 9l22-71h10q30 34 49.5 64.5T538 417q-17-1-36-5t-49-13q-30-9-81-26l-27-25-50 2 1 6 42 2 25 23-2 9h-40v6l73 2q31 19 76 37t103 15zM388 168l21-33q5-8 10-21t5-27q0-25-18-46.5T351 19q-34 0-48 11t-14 25q0 10 2 14h65q1-2 4-3.5t11-1.5q12 0 19 9.5t7 20.5q0 17-11 32l-17 25zm-82-56q-7 0-14.5-2t-7.5-7q0-5 6.5-8t13.5-3q9 0 15 3.5t11 8.5q-5 3-11 5.5t-13 2.5zm202 285q-5-7-12.5-20T462 332l-17 52q22 6 38 9t25 4zm-193 67l95-17 6-20q-10-5-16-9.5t-8-5.5l-85-7 2-24h35l-13-12-37-1 18 59zm95 228q0-31 9.5-55.5t18.5-47q9-22.5 9-45.5 0-26-11-47t-27-34l-92 17-112 190v6zm-62 103l-5-45-63-50-70-6 5 18zm-6-70l-1-21-30-2zm-44 258h108q2-14 3-28.5t1-29.5q0-37 .5-77.5T412 770q1-37 2-61l-52-3v32l19 174q1 4 1.5 7t.5 6q0 16-13.5 24.5T339 961l-41 9zm154 2h35l30-18q2-3 8.5-16.5t15-30.5l16.5-33-10-24-33 2-84-57-2 40 80 53v37l-30 29-26 5z" fill="currentColor"/></svg>