<svg xmlns="http://www.w3.org/2000/svg" viewBox="0 0 322.6 594.7"><path d="M291 150.6c13.9-12.6.8-36.5-39.2-71.5 5.5 56.9 18.5 80.7 39.2 71.5zm-165.7 49.9C109.7 217.8 90.9 233 69 246.1c3 2.5 4.4 5.3 4.4 8.2 13.5 6.3 27.2 13.3 41.1 20.9-.8-18.6 2.8-43.5 10.8-74.7zm153.1 184.1V272c-3.8-16-12.9-24-27.2-24-25.3 9.7-37.9 19.6-37.9 29.7-5.1 34.6-10.5 70.6-16.4 108.1l81.5-1.2zm-138.6-291c-5.5 1.7-10.2.5-14.2-3.5s-5.1-9.5-3.2-16.4c1.9-7 2.3-14.1 1.3-21.5-1.1-7.4-4.3-10.6-9.8-9.8-5.5.8-9.3 4-11.4 9.5-2.1 5.5-4.8 7-8.2 4.4-16 3-25.5 5.4-28.5 7.3-3 1.9-4.2 6.4-3.8 13.6 6.3-5.1 13.7-8.2 22.1-9.5 8.4-1.3 11-.4 7.6 2.5-16.4 3-25.6 7.8-27.7 14.6l1.3 23.4c6.7-.8 9.9 1.3 9.5 6.3 4.2-2.5 7.8-3.7 10.8-3.5 3 .2 2.7 3.5-.6 9.8 4.2 5.5 9.9 5.2 17.1-.9 7.2-6.1 16.7-3.3 28.5 8.5 4.6 9.7 7.4 12.5 8.2 8.5.8-4 6.1-5 15.8-2.8 9.7 2.1 9.5 24-.6 65.8 12.2 15.6 30.1 32.5 53.8 50.6 13.5 0 28-8 43.6-24-38.4-61.6-67.2-97.8-86.6-108.8-9.6 1.2-17.8-6.8-25-24.1zm33.6 13.3l62-58.2c39.2 21.9 64.7 44.4 76.5 67.4s9.5 40.4-7 52.2c-29.9 13.5-49.5 3.8-58.8-29.1-9.3-32.9-13.9-55.2-13.9-67l-44.9 45.5c16 11.4 41.1 45.3 75.3 101.8 19 18.6 29.4 40.8 31.3 66.7 1.9 25.9 5.2 64.2 9.8 114.8 0 7.2 2.7 18.1 8.2 32.9 5.5 14.8 7.4 55.2 5.7 121.4 8.4 13.9 6.3 23.8-6.3 29.7-15.2 1.3-33.1 2.7-53.8 4.4-12.6.8-19-.6-19-4.4 0-3.8 2.5-7.1 7.6-9.8 5.1-2.7 16.9-6.6 35.4-11.7 10.1-8.4 15.2-19.2 15.2-32.3-12.2-62-20-104.8-23.4-128.4H217c-11 3.4-17.1 19.6-18.3 48.7-8.4 31.2-24.9 68.1-49.3 110.7.8 13.9-1.5 23.4-7 28.5-13.5 0-24.7.7-33.5 2.2-8.9 1.5-22.8 2-41.7 1.6.4-9.3 8.3-14.8 23.7-16.4 15.4-1.7 28.2-9.1 38.6-22.1 10.3-13.1 16.8-28.7 19.3-46.8 7.6-31.2 18.8-76.7 33.5-136.6l12-67.7-15.8 1.3 12-32.3c-9.3 0-13.9-3.3-13.9-9.8 0-6.5 4-9.8 12-9.8v-5.7c-19.4-11.8-32.5-21.9-39.2-30.4-3.4 28.7-7 53.5-10.8 74.6-4.6 11.4-11.4 17.1-20.2 17.1-21.1-8.9-36.5-17.1-46.2-24.7-9.7-7.6-19.2-14.1-28.5-19.6l-24 25.9C10.4 289.8 5.4 285 4.5 277l10.8-12.6c-3-9.7-8-18.3-15.2-25.9-.8-16.9 5.1-26.4 17.7-28.5 9.3 5.1 19.4 9.5 30.4 13.3 2.5 0 4.8-.4 7-1.3l73.4-78.4c-7.2-4.2-13.9-9.5-20.2-15.8-5.1 4.6-9.7 8-13.9 10.1-4.2 2.1-7.6 1.7-10.1-1.3s-5.3-5.2-8.2-6.6c-3-1.5-4-3.2-3.2-5.1.8-1.9.4-2.2-1.3-.9-.8.8-1.9.5-3.2-.9-1.3-1.5-1.7-3.3-1.3-5.4-2.1 0-4.4.9-7 2.8-2.5 1.9-5.1-.1-7.6-6 .8-18.1.2-31-1.9-38.6-1.3-23.2 3.8-40.6 15.2-52.2 11.3-11.5 24.8-19 40.4-22.4 15.6-3.4 28.1-.2 37.6 9.5s14.5 20.8 15.2 33.2c.6 12.4-2.2 25.4-8.5 38.9 3.4 15.6 10.8 23.6 22.1 24h.7zM65.9 94.3C64.6 87.9 66 83.2 70 80s10.9-5 20.6-5.4l8.9-5.7 1.3 2.5-8.2 5.7C90.1 83 86.7 87.6 82.5 91c-4.4 3.5-9.9 4.5-16.6 3.3zm5.6-10.1c-1.3.4-2.1 2.3-2.5 5.7 3 1.3 5.9.6 8.9-1.9-4.2 1.6-6.4.4-6.4-3.8zm6.4 3.7c3.8-2.5 7.2-5.7 10.1-9.5-3.8.8-7.6 1.7-11.4 2.5 4.2.5 4.6 2.8 1.3 7zm31-17.7c-2.1-1.3-3.3-4.5-3.5-9.8-.2-5.3.9-9.4 3.5-12.3 2.5-3 4.8-3.9 7-2.8 2.1 1.1 3.7 3.6 4.7 7.6 1.1 4 .8 9.3-.6 15.8-1.5 6.5-3.7 10.1-6.6 10.8-3 .6-4.8-.1-5.7-2.2-.9-2.2-.5-4.5 1.2-7.1zm.6-15.1c-.8 3-1.1 5.9-.6 8.9.4 3 1.4 3.5 2.8 1.6 1.5-1.9 2.1-1.2 1.9 2.2-.2 3.4.3 4.1 1.6 2.2 1.3-1.9 2.1-4.7 2.5-8.5.4-3.8-.1-7-1.6-9.5-1.4-2.6-3.7-1.6-6.6 3.1zm-17.1-9.5c12.6-13.1 22.9-17 30.7-11.7 7.8 5.3 11.5 16.1 11.1 32.6-.4 16.4 2 16.2 7.3-.6s3.4-30.9-5.7-42.1c-9.1-11.2-22.2-13.5-39.5-7s-27.2 14.5-29.7 24c-2.6 9.5 6 11.1 25.8 4.8zm18.4 27.8c-.8 2.1-.5 3.5.9 4.1 1.5.6 2.4 0 2.8-1.9.5-1.9-.8-2.6-3.7-2.2z"/></svg>