<svg xmlns="http://www.w3.org/2000/svg" viewBox="-10 0 713 1001"><path d="M259 1001v-43l66-11q15-3 20-15t9-25l32-117-3-42 14-39h-11l81-226-98-121 7 133-32 14-192-46-12-8-30 4H91l-12-7-76 57-13-18 70-52-3-4-5-35 11-24 46-6 29 11 205-152-17-29-42-3-8-51q-5-1-11-1.5t-12-1.5l32-69q-2-10-2-20 0-20 17.5-37T364 0q46 0 69.5 25T457 84q0 29-20 62l-22 29L598 40l12 17-11 9q12 28 29.5 45.5T663 143q17 14 28.5 31t11.5 43q0 26-16 49t-53 23q-31 0-54.5-25T556 177q0-22 3-44.5t4-40.5L429 192q22 1 46.5 13t40.5 41l97 174q19 35 29.5 58.5T653 530q0 14-5 40.5t-7 46.5q-1 9-2 17.5t-1 16.5q0 8 .5 28t1.5 30q6 24 12.5 60.5T664 848q5 42 5 82 0 18-1 36.5t-4 34.5H521v-43l55-11q12-3 20.5-8.5T605 923q0-6-1-10l-50-174-4-30h-58l-93 292zm144-833l21-33q5-8 10-21t5-27q0-25-18-46.5T365 19q-34 0-47.5 11T304 55q0 5 .5 8.5t.5 5.5h65q2-2 5-3.5t10-1.5q13 0 20 9.5t7 20.5q0 18-12 32l-10 22zm230 103q28 0 39.5-17.5T684 217q0-21-11-36t-27.5-28.5Q629 139 613 122t-26-42l-4 3q-1 9-5 38.5t-4 54.5q0 50 17.5 72.5T633 271zm-277-52l42-31-27-39 11-25q3-5 7-14t4-13q0-5-2-10.5T380 81q-7 0-9 2l-3 3h-72l-20 45q3 0 7 1t7 1l7 51 41 3zm-35-107q-7 0-14.5-2t-7.5-7q0-5 6-8t13-3q9 0 15 3.5t11 8.5q-5 3-10 5.5t-13 2.5zm24 379l13-6-11-148 18-7 116 140 106-55-89-164q-9-16-28.5-29.5T410 206q-17 12-25.5 18.5t-16 12.5q-7.5 6-20 15.5T312 280q-3 13-5.5 29t-1.5 23l16 96-16 7-146-21-35-21-18-6-32 4-7 14 4 23 5 6 17 8 16 1 28-4 15 8zm-45-73l-13-81q-2-12 .5-24.5T293 293L157 394l6 3zm116 274h204v-36q0-9 .5-19t1.5-20q2-16 7-44t5-42q0-26-9.5-46.5T596 434l-114 57zM274 983h113l87-274h-58l-15 41v42l-31 121q-7 23-16.5 34T330 961l-56 9zm265 0h109q3-27 3-58 0-37-5-77.5T634 770q-7-37-13-61h-52l5 29 49 174q1 4 1 7v6q0 16-13 24.5T581 961l-42 9z" fill="currentColor"/></svg>