<svg xmlns="http://www.w3.org/2000/svg" viewBox="-10 0 625 1001"><path d="M-5 1001l-5-236h69V509l-22-9-7-7-8-35 8-9v-12l29-6v-26h-3l-22-16-8-7-4-34 6-10 6-1v-16l23-5h2V58h30v260l19 6 25 21 141 53 43-126q11-23 26.5-33t34.5-15v-24l-48-3-8-51q-5-1-11.5-1.5T298 143l32-69q0-4-.5-9.5T329 54q-1-20 16.5-37T409 0q46 0 70 25t24 59q0 27-21 62l-16 28v36q33 5 61 30t32 75q4 51 4 86t2 45q22 32 29 59.5t7 60.5q0 14-6 32.5t-8 37.5q-1 10-2 18t-1 16q0 8 1 17.5t1 21.5q6 24 12.5 60.5T610 848q5 42 5 82 0 18-1.5 36.5T610 1001H466v-43l56-11q12-3 20.5-8.5T551 923q0-6-1-10l-50-174-4-30h-80l-93 292H183v-43l66-11q15-3 20.5-14.5T278 907l33-117-4-42 14-39h-11l123-244-67-110-53 143-186 10-14-7H98l-9 10v254h69l-5 236zm453-833l21-33q5-8 10-21t5-27q0-25-18-46.5T411 19q-34 0-48 11t-14 25q0 10 2 14h65q1-2 4-3.5t11-1.5q12 0 19 9.5t7 20.5q0 17-11 32l-17 25zM66 499h18l7-11 19-1 16 7 174-10 56-155 13-2 79 129 98-21q-3-35-3.5-54.5t-1-33.5q-.5-14-2.5-30-4-36-19.5-56t-35-28q-19.5-8-33.5-8v-34l-42-37 18-30q3-5 7.5-14t4.5-13q0-5-2.5-10.5T425 81q-6 0-8 2t-4 3h-72l-19 45q3 0 7 1t6 1l7 51 52 3v49q-20 1-35.5 14T335 278l-63 173-142 14-34-20-20-6-33 7v6l-7 9 6 24 4 6zm300-387q-6 0-14-2t-8-7q0-5 6.5-8t13.5-3q9 0 15 3.5t11 8.5q-5 3-10.5 5.5T366 112zM232 438l28-1 8-24-138-53-30-23-19-8H59l-17 2v7h35l21 17 2 23 11-1 12 9zM63 393h17l9-8-2-27-13-9H34l3 25 5 5zm69 58l73-9-82-39-15-10-12 2-7 5v30l14 4zm208 241h226v-17q0-8 .5-18t1.5-21q1-17 7.5-36t6.5-33q0-26-6.5-57.5T548 452l-100 19zm145 291h108q2-14 3-28.5t1-29.5q0-37-5-77.5T580 770q-7-37-14-61h-51l5 29 48 174q1 4 1.5 7t.5 6q0 16-13.5 24.5T526 961l-41 9zm-286 0h112l88-274h-59l-14 41v42l-32 121q-4 24-15 34.5T254 961l-55 9zm-185-2h120l5-196H9z" fill="currentColor"/></svg>