<svg xmlns="http://www.w3.org/2000/svg" viewBox="0 0 363.6 594.6"><path d="M337.4 294.1c-25.4 5.6-42.2 14-50.4 25.2l-23.9 98.2H340l4.5-73c6-25 3.7-41.8-7.1-50.4zM148 245.6c-25.4-9-46.1-20.7-62-34.9l-9.7 5.8v45.9c25 0 48.9-5.6 71.7-16.8zm-45.9 323.8V427.2H25.2v142.2h76.9zm171.3-446.6c-3.9-2.6-6.7-6.9-8.4-12.9-6 1.7-11.2 2.8-15.5 3.2-4.3.4-7-1.1-8.1-4.5-1.1-3.4-2.6-6.4-4.5-8.7s-2.2-4.2-.6-5.5c1.5-1.3 1.4-1.7-.3-1.3-1.3 0-2.3-.8-2.9-2.3-.6-1.5-.3-3.1 1-4.8-1.7-.9-4.1-1-7.1-.3-3 .6-4.3-1.8-3.9-7.4 6.9-15.5 11-26.7 12.3-33.6 7.3-20.7 18-33.7 32-39.1 14-5.4 28.2-6.8 42.7-4.2 14.4 2.6 23.8 9.8 28.1 21.7 4.3 11.8 4.5 23.2.6 33.9-3.9 10.8-11 20.7-21.3 29.7-5.2 15.9.6 25.2 17.5 27.8 22.8 14.2 28.7 67.9 17.5 160.9 11.2 24.1 12.5 49.6 3.9 76.3 1.7 33.2 1.3 60.5-1.3 82.1 11.2 22 11.6 63.3 1.3 124.1 7.3 14.7 7.5 25.6.6 33h-76.3c4.3-12.1 17.2-18.7 38.8-20 8.2-5.2 13.8-11.8 16.8-20l-5.8-91.8c-4.3-6.9-6.5-14.9-6.5-23.9h-50.4c-2.2 6.9-5.8 14.4-11 22.6 1.7 24.6-8.8 59.7-31.7 105.4 5.6 17.2 1.5 26.7-12.3 28.4-12.5-1.3-33.8-.2-64 3.2-1.7-12.5 10.8-20.7 37.5-24.6 14.2-10.8 22.2-20.3 23.9-28.4 10.3-54.7 15.5-84.2 15.5-88.5 0-7.8 2.6-17.2 7.8-28.4l28.4-116.3c-11.6-3.9-12.3-28.4-1.9-73.7-6-25-11-39.4-14.9-43.3-18.1 21.5-34.5 39-49.1 52.4-12.9 12.5-29.3 22.3-49.1 29.4-19.8 7.1-45.2 12.4-76.3 15.8V402H128v192.6H0V402h51.7V288.9c-6.9 3-12.2-1.8-15.8-14.5-3.7-12.7 1.6-21.9 15.8-27.5V212c-5.6-6.5-9.5-11-11.6-13.6-2.2-2.6-2.5-8.7-1-18.4s5.7-17.1 12.6-22.3V89.8h24.6v80.8l14.9 20.7c35.3 17.7 61.8 29.9 79.5 36.8 19.8-19.8 40.5-41.2 62-64 9.5-18.1 23-31.9 40.7-41.3zm31-30.4c-5.2-.9-8.7-3.8-10.7-8.7-1.9-5-.9-10 3.2-15.2s7-11.1 8.7-17.8c1.7-6.7.1-10.7-4.8-12-5-1.3-9.3 0-12.9 3.9s-6.4 4.1-8.1.6c-15.1-3-24.2-4.3-27.5-3.9-3.2.4-5.7 3.7-7.4 9.7 6.9-1.7 14.2-1.6 22 .3s9.5 3.6 5.2 4.8c-14.7-3.4-24.1-2.8-28.4 1.9l-7.8 21.3c6 1.3 8 4.1 5.8 8.4 4.3-.4 7.8 0 10.3 1.3 2.6 1.3 1.1 3.9-4.5 7.8 1.7 6.5 6.7 8.3 14.9 5.5 8.2-2.8 14.2 1.8 18.1 13.9 7.8 9.5 8 15.9.6 19.4-5.6 5.6-11.4 14.4-17.5 26.5 2.6 22 6.9 38.1 12.9 48.5 6 10.3 9 21.1 9 32.3-8.2 34.5-5 51.1 9.7 49.8l40.7-10.3c-3-5.6-1.9-18.5 3.2-38.8-1.3-44-2.8-71.1-4.5-81.4-3-16.8-9-28.5-18.1-35.2-8.8-6.6-12.9-17.5-12.1-32.6zm-63.3-27.2c1.3-5.6 4.2-9 8.7-10.3 4.5-1.3 11.1-.2 19.7 3.2l9.7-1.9v2.6l-9 1.9c-4.3 3.9-8.8 6.5-13.6 7.8-4.7 1.3-9.9.2-15.5-3.3zm8.4-6.4c-1.3 0-2.6 1.3-3.9 3.9 2.2 2.2 5 2.8 8.4 1.9-4.3 0-5.8-1.9-4.5-5.8zm4.5 5.8c4.3-.4 8.2-1.9 11.6-4.5-3.4-.9-6.9-1.5-10.3-1.9 3.5 2.1 3 4.2-1.3 6.4zm33-3.9c-1.7-1.7-1.6-4.8.3-9.4 1.9-4.5 4.4-7.6 7.4-9.4 3-1.7 5.3-1.7 6.8 0s1.9 4.5 1.3 8.4c-.6 3.9-2.7 8.3-6.1 13.3-3.4 5-6.6 7.2-9.4 6.8-2.8-.4-4.2-1.7-4.2-3.9s1.3-4.1 3.9-5.8zm5.1-12.9c-1.3 2.6-2.3 5.2-2.9 7.8-.6 2.6 0 3.3 1.9 2.3 1.9-1.1 2.2-.2.6 2.6-1.5 2.8-1.4 3.6.3 2.3 1.7-1.3 3.4-3.4 5.2-6.5 1.7-3 2.4-5.8 1.9-8.4-.3-2.7-2.6-2.7-7-.1zm-10.3-14.2c15.5-6.5 25.6-6 30.4 1.3 4.7 7.3 3.9 18-2.6 32s-4.3 14.8 6.5 2.3 14.3-25.2 10.7-38.1c-3.7-12.9-14.1-19.7-31.3-20.4-17.2-.6-28.7 2.6-34.3 9.7-5.7 7 1.2 11.5 20.6 13.2zm5.2 31c-1.7.9-2 1.9-1 3.2 1.1 1.3 2.2 1.2 3.2-.3 1.1-1.5.4-2.5-2.2-2.9z"/></svg>