<svg xmlns="http://www.w3.org/2000/svg" viewBox="-10 0 891 1001"><path d="M-5 1001V867h67v-95h-72V647h72v-87h-72V435h72v-85h-72V218h72v-83H-5V6h132v67h172V6h132v127l30 12 20 28 15 43 92 88 33-45q8-14 19-26t35-15l20-2-6-19-34 9-25-49q-7 0-14-.5t-14-.5l44-95 1-12q12-49 80-49 47 0 82 23.5T844 87q0 28-21 60l-29 41v29l22 13q25 16 25 53v8l-17 170 50 236h-26l33 304H707v-45l68-12q28-4 28-24v-5l-1-6-59-212h-39l-91 304H460v-45l69-12q19-3 26-15t10-26l26-123-4-43 17-40h-54l122-219-9-64-33 28-11 3-133-44-41 3-34-8-39-43 3-3h-11v85h73v125h-73v87h73v125h-73v95h67v134H299v-62H127v62zm786-826l27-38q7-11 12.5-24t5.5-30q0-21-17-35t-40-21q-23-7-41-7-19 0-37.5 6.5T666 51l68 40q11-8 21-8 11 0 17.5 8t6.5 19q0 5-5 14.5T764 139l-10 12zM15 118h47V73h46V23H15zm349 0h48V23h-93v50h45zm326 355l117-27 14-153q0-2 .5-4t.5-3q0-31-19-43l-28-16v-35l-42-36 20-27q3-4 6-9.5t3-8.5q0-2-1.5-6t-6.5-4q-9 0-18 11l-76-43-33 73q4 0 7.5.5t7.5.5l22 44 38-13 14 57-36 4q-17 2-24.5 8.5T639 266l-40 57-12 4-105-99-14-49-16-24-35-15-3 7 27 19 17 41-6 5-32-14-1 4 61 50 93 118 33 7 74-80 12 11-84 86-99-25-60-33-3 3 24 25-3 7-44-1-26-18-6 5 26 27 28 6 51-5 127 45 113-106 46-7 5 15-39 5-70 63zM82 922h263V90H82zm605-803q-11 0-19.5-3.5T652 106q5-5 14.5-7t12.5-2q19 0 32 20-8 1-13.5 1.5t-10.5.5zm-323 99h51l-17-15 13-20 24 10-10-25-30-19 6-14h-37zM9 333h53v-98H9zm355 0h53v-98h-53zm186 31l-80-98-33-29v87l5-8 76 40zm-99-6l-14-14v6h-23l10 7zm-87 185h53v-91h-53zM9 543h53v-91H9zm575 135h266l-45-212-126 30zm-220 77h53v-91h-53zM9 755h53v-91H9zm717 227h135l-33-285h-65l58 211q1 4 1.5 7.5t.5 6.5q0 17-12 25.5T777 959l-51 9zm-247 0h123l84-285h-63l-18 43 3 43-27 126q-5 25-19 36.5T531 959l-52 9zm-160 2h93V884h-48v55h-45zm-304 0h93v-45H62v-55H15z" fill="currentColor"/></svg>