<svg xmlns="http://www.w3.org/2000/svg" viewBox="0 0 423.5 594.5"><path d="M164.1 44.3H43.6V553h119.9l.6-508.7zm194.1 42.2c1.4 1.8 1.4 3.3 0 4.4-1.4 1.1-2.3 1-2.7-.3-.5-1.4.4-2.7 2.7-4.1zm7.5-15c5.4-2.3 8.1-1.8 7.8 1.4-.2 3.2-1.7 5.9-4.4 8.2-2.7 2.3-5 4-6.8 5.1-1.8 1.1-1.8.5 0-2s1.8-3.4 0-2.7c-1.8.7-2.3-.1-1.4-2.4 1-2.4 2.5-4.9 4.8-7.6zm-6.8 11.6c-3.2 1.4-5.2 3.2-6.1 5.4-.9 2.3 0 3.9 2.7 4.8 2.7.9 6.5-.8 11.2-5.1 4.8-4.3 7.8-8.4 9.2-12.3 1.4-3.9 1.5-6.8.3-8.9-1.1-2-3.4-2.5-6.8-1.4s-6.5 4-9.2 8.5c-2.7 4.7-3.1 7.6-1.3 9zM393 259.5l4.1-47-55.2 43.6-6.8 30 57.9-26.6zM291.5 395c54.5 0 84.6-.6 90.2-1.7 5.7-1.1 8.9-15.9 9.5-44.3.7-28.4 1-46.4 1-54.1 0-7.7-11.5-6.7-34.4 3.1s-45 42.1-66.3 97zm34.7-314.6c4.1-1.8 5.2-3.9 3.4-6.1 2.7.9 5.4 2.3 8.2 4.1-3.6 1.3-7.5 2-11.6 2zm-2-6.2c-2.7 3.2-2 5.2 2 6.1-3.2 0-5.9-.9-8.2-2.7 2.3-2.2 4.4-3.4 6.2-3.4zM313.3 79c5 3.6 10 5.3 15 5.1 5-.2 9.8-1.7 14.3-4.4h6.8V77h-6.8c-6.8-5-12.6-7.3-17.4-6.8-4.8.4-8.8 3.4-11.9 8.8zm54.5 40.2c-5-2.7-7.6-6.8-7.8-12.3-.2-5.4 1.6-10.3 5.4-14.6 3.9-4.3 7.5-9.8 10.9-16.3 3.4-6.6 3.2-11-.7-13.3-3.9-2.3-8.1-.3-12.6 5.8s-8.9 9.2-12.9 9.2l6.1-13.6c-13.6-5.9-22-9.1-25.2-9.5-3.2-.5-6.8 3.2-10.9 10.9 6.4-2.3 13.2-1.5 20.4 2.4 7.3 3.9 9.1 6 5.4 6.5-13.6-6.8-22.9-7.9-27.9-3.4l-12.3 19.7c5 2.3 5.7 5 2 8.2 5.9.9 9.6 2.4 11.2 4.4 1.6 2-.3 4.2-5.8 6.5 0 7.3 5.2 10.1 15.7 8.5 10.4-1.6 15 7.6 13.6 27.6-29.5 10.9-39.4 22.9-29.6 36.1 9.8 13.2 16.7 29.7 20.8 49.7 20.4-19.5 34.1-35.2 40.9-47 6.8-11.8 15.7-20.2 26.6-25.2-5.9-7.3-17.5-10.9-34.7-10.9l1.4-29.4zM207.7 240.4c3.6.5 7.3 2.5 10.9 6.1 11.4 3.2 46.3-.2 104.9-10.2-4.5-17.7-12.3-34.7-23.2-51.1L239 166.9c-16.3-10.9-29.5-24.5-39.5-40.9-5.9-9.5-10.4-16.6-13.6-21.1v69.5h21.8v66zm-21.8 31.3v75.6h21.8v72.2h-21.8v102.8h21.8v72.2h-80.4V572h-49v21.8H0v-72.2h21.8V419.5H0v-72.2h21.8V247.2H0v-72.9h21.8V72.9H0V0h78.3v22.5h49V0h80.4v72.9h-4.8v16.3c20.4 19.1 36.5 36.3 48.4 51.8 24.1 6.4 39.7 9.9 47 10.6 7.3.7 16.6-3.5 27.9-12.6v-11c-5.9.9-11.1 1-15.7.3-4.5-.7-6.8-2.8-6.8-6.5 0-3.2-.7-6.1-2-8.9-1.4-2.7-1.2-4.5.3-5.4 1.6-.9 1.7-1.4.3-1.4-1.8 0-2.7-1.1-2.7-3.4 0-1.8.7-3.4 2-4.8-1.4-.9-3.6-1.4-6.8-1.4-2.7 0-3.2-2.7-1.4-8.2 10-15 16.6-25.9 19.8-32.7 11.8-19.5 19.5-35.1 43.4-34.5 14.8.4 23.5 0 34.6 5.9 11.1 5.9 19.1 14.7 20.7 27.4 1.6 12.7-1.3 28.1-8.5 37.4-8.4 11-13 16.2-22.1 25.1V138c35.9 6.8 48.1 27 36.8 60.6-6.8 19.1-9 40.4-6.5 64s1.5 74.5-3.1 152.5c.5 10 2.6 19.9 6.5 29.6s5.4 29.7 4.8 59.9c-.7 30.2.3 52.4 3.1 66.7 2.7 14.3-4.5 20.8-21.8 19.4-17.3-1.4-33.7-1.2-49.4.3-15.7 1.6-22.8-.6-21.5-6.5 1.4-5.9 11.6-12.1 30.6-18.7 19.1-6.6 28.8-19 29.3-37.1-5.4-40.4-10.2-65-14.3-73.9-4.1-8.9-5.9-21-5.4-36.4h-34.7c2.7 32.2-1.6 63.2-12.9 93-11.4 29.7-15.3 50.7-11.9 63 3.4 12.3-6.5 17.7-29.6 16.3-23.2-1.4-40.6-1.1-52.4.7-11.8-3.2-14.4-7.4-7.8-12.6 6.6-5.2 18.6-9.6 36.1-13.3 17.5-3.6 27.9-19.7 31.3-48.4 3.4-28.6 6.7-61.5 9.9-98.7-22.7 0-34.2-2.4-34.4-7.2-.2-4.8 6.9-21.3 21.5-49.7 14.5-28.4 27.2-57.1 38.1-86.1-28.6-1.4-51.6-2.2-69.1-2.4-17.5-.2-31.9 2.2-43.2 7.2-10.2.4-18.6-2.6-25.4-8.5zM0 0"/></svg>