<svg xmlns="http://www.w3.org/2000/svg" viewBox="0 0 282.6 607.3"><path d="M166 48.7c1.1 0 1.6.7 1.6 2.2 0 2.9-1 6-2.9 9.4-1.9 3.4-3.8 5.6-5.8 6.8-.5.3-.9.5-1.2.5-.7 0-.4-1.1.8-3.4 1.2-2.3 1.5-3.4.8-3.4-.3 0-.7.2-1.2.5-.6.4-1.1.6-1.4.6-.8 0-.9-.9-.4-2.7.7-2.6 2.3-5.4 4.7-8.3 2.3-1.5 3.9-2.2 5-2.2zM120 61c3.8 1 7.5 1.9 10.8 2.9-3.8 2.4-7.9 3.8-12.3 4.3-1.1.3-2.1.4-3.1.4-2.5 0-4.5-.9-6.3-2.6 1.2-2.5 2.5-3.7 3.7-3.7.2 0 .4 0 .6.1-1.9 3.4-.2 5.3 5 5.8 5-2.4 5.5-4.8 1.6-7.2zm33.9 7.2c2.4 1.4 3 2.8 1.8 4-.6.6-1.2.9-1.7.9s-1.1-.3-1.5-.9c-1-1.2-.5-2.6 1.4-4zM119 58c-1.6 0-3 .2-4.4.5-5 1.2-8.5 4.7-10.5 10.5 4.2 2.8 8.3 4.2 12.2 4.2 1.5 0 2.9-.2 4.4-.6 5.3-1.4 10.3-4.3 15.1-8.7l9.4-1.4v-2.2l-10.1 1.4c-6.3-2.5-11.7-3.7-16.1-3.7zm48.5-14.5c-1.3 0-2.8.4-4.6 1.3-3.6 1.7-6.5 4.9-8.7 9.7-2.2 4.8-2.3 8.2-.4 10.1-2.9 1.4-4.4 3.4-4.7 5.8-.2 2.4 1.1 3.8 4 4.3.3 0 .5.1.8.1 2.7 0 6.1-2.3 10-6.9 4.3-5 6.9-9.7 7.6-14.1.7-4.3.4-7.3-1.1-9-.6-.9-1.6-1.3-2.9-1.3zm-7.1-32.4c2 0 4 .1 6.1.2 18.5 1 29.1 8.4 31.7 22.4 2.6 13.9-2 27.4-14.1 40.4-5.6 6-9.1 9.1-10.4 9.1-1.5 0-.2-4 3.9-11.9 7.7-14.9 9.3-26.3 4.7-34.3-2.4-4.2-6.5-6.2-12.4-6.2-5.4 0-12.1 1.7-20.4 5.2-20.7-2.4-27.6-7.3-20.9-14.8 6-6.8 16.6-10.1 31.8-10.1zm6.6 29.6c1.2 0 2.3.1 3.5.4 5.3 1.2 6.7 5.5 4.3 13-2.4 7.5-6 13.9-10.8 19.5-4.8 5.5-6.4 10.8-4.7 15.9 1.7 5 5.6 8.3 11.9 9.7-1.6 8.6-2.7 13.2.3 20.9-7.4.5-15.6 1.1-23.5 1.8-1.6-12.9-6.4-17.4-13.2-17.4-2.1 0-4.4.4-6.9 1.2-3.5 1.1-6.5 1.6-9.1 1.6-5.5 0-8.7-2.5-9.7-7.4 5.8-3.8 7.5-6.4 5-7.6-2.4-1.2-6-1.8-10.8-1.8 2.4-4.3.5-7.2-5.8-8.7l9.4-21.6c3-3.3 7.8-4.9 14.2-4.9 4.9 0 10.7.9 17.5 2.8 3.8-1.4 1.8-3.2-6.1-5.4-4.8-1.3-9.5-1.9-14.1-1.9-3.1 0-6.2.3-9.3.9 2.9-6.2 5.9-9.6 9-10.1.3-.1.8-.1 1.3-.1 4 0 13.1 1.7 27.2 5.1.9 1.5 2 2.3 3.3 2.3 1.6 0 3.7-1.1 6-3.4 3.5-3.2 7.2-4.8 11.1-4.8zm17.7 206.8zM222 170c7.3 0 17.7 22.1 24.1 34.1 10.7 27.3 3.8 24.6 10.8 40-15.6 3.5-30.2 4.4-43 4.4-4.7 0-9.1-.1-13.3-.3-.2-7.2.5-14.6 1.8-21.8 4.5-16.8 7.9-33.6 13.4-49.8 2.4-4.6 4.4-6.6 6.2-6.6zm-128.6-4c.7 0 1.4.1 2 .4 12.8 14 21 56.8 25.6 85.9-19.4-2.9-42.2-5.6-51.9-13-7.5-5.7-7.6-6.8 5.7-34.1C86.5 193 82.9 166 93.4 166zm27.6 86.2zm65.9-117.3c8 0 15.6 1.8 21.7 7.8-4.9 14.7-21.6 85.9-23.1 104.2-.3.2-.6.3-.9.5-2.2-.1-4.2-.1-6-.1-6.4 0-11.1.6-13.7 2.7-3.6-.3-7.1-.7-10.1-.7-5.6 0-9.5 1.5-9.9 7.9-.5-.2-1.1-.4-1.6-.5l-.9-3.4c-14.2-16-14.7-70.2-28-89.7-6.6-24.2 23-19.8 37.6-25.1h1.1c10.2 0 22.4-3.6 33.8-3.6zM145 257.2zm45.3 14.3c10.6 8.1 5.4 142.2-4.5 142.2-3.8 1-26.5 1.9-45.3 1.9-12.4 0-23-.4-25.4-1.5 2.2-14.3 16.2-96.8 23.9-116.5.4-13.6 16.7-18.4 31.7-21.7 2.5 1.4 5.7 2.2 9.7 2.2 2.2 0 4.5-.2 7.2-.8-.2-2.5.8-4.4 2.7-5.8zM165.1 0c-9.7 0-19.3 1.8-28.8 5.5-15.1 5.8-27.5 19.5-37.1 41.1-1.4 7.2-6.5 19-15.1 35.3-.4 5.6.6 8.4 3.1 8.4.3 0 .6 0 .9-.1 1.3-.3 2.6-.5 3.7-.5 1.5 0 2.8.3 3.9.8-1.4 1.9-2 3.7-1.8 5.4.2 1.3.7 2 1.7 2 .3 0 .6-.1.9-.2 2.4 0 2.8.6 1.1 1.8-1.7 1.2-1.6 3 .4 5.4 1.9 2.4 3.2 5.5 4 9.4.6 3.4 2.9 5.1 6.8 5.1.5 0 1 0 1.5-.1 4.8-.5 11.5-1.9 20.2-4.3 5.3 0 6.5 2.6 3.7 7.9-9 .7-16.7 1.2-20.9 1.4-18.3 4.4-16.3 1-30.3 13.8-19.7 14.6-24 40.9-32.8 59.2-4.2 8.6-26.8 50.3-15.3 59.1 12.3 9.4 53 19 82.1 20.7.8.9 1.7 1.7 2.9 2.4-5.8 5.4-14.8 18.3-15.2 22.2-.1 1.3.7 1.6 2 1.6.9 0 2-.1 3.1-.1 2 0 4 .4 5.1 2.7 7 15.6-21.1 115.5-22.2 119.4 5.9 14-23.6 125-26.1 141.4-7.2 18.5-23.1 10.6-42.3 18.6-22.6 6.3-34.2 18.6-13.9 19.9l3.5 1.1h2.6c12.3 0 23.4-1.9 34.2-1.9 5.7 0 11.4.5 17.1 2.2 2.6.5 4.9.8 7 .8 18.7 0 18.8-19.9 14.2-35.3 2.6-19.9 24.9-63.7 31-95.7 1.8-9.7 4.1-42.9 14-42.9h.1l43.6 1c9 .2 15.4 22.8 19.7 29.2.2 21.4 18.3 95.6 10.4 113.9-15 7.8-25.7 4.5-35.8 9.5-12.4 4-28.1 16.6-18.9 19.5 1.5.1 3.1.1 4.7.1 14.4 0 31.2-2.3 46-2.3 3.6 0 7.1.1 10.4.5 4.5 1 8.2 1.5 11.1 1.5 15.9 0 12.2-13.4 8.5-29.8-2-21 1.2-41.6-1-62.5 4.3-18.2-1.4-44.5-8.4-61.5-5.7-16.7-17.9-32.1-15.7-51.8-.2-23.5 7.4-95.2 2.4-119.6-3-4.2-5.3-8.7-6.9-13.4 3.2-.3 6.8-.4 10.6-.4 12.7 0 27.7 1.2 40.4 1.2 15.8 0 27.8-1.8 26.6-10 5.5-31.6-17.5-76.1-33-110.2-2.6-15.5-14.8-30.1-32.3-30.1-2.6 0-26.2.9-28.1 1-.3-.2-.7-.3-1.3-.5-6.2-8.7-7.2-18-2.9-28.1 11.5-8.2 19.9-18 25.2-29.6 5.3-11.5 5.9-23.4 1.8-35.7-4-12.4-13.8-20.2-29.2-23.5C176.4.6 170.7 0 165.1 0z"/></svg>