<svg xmlns="http://www.w3.org/2000/svg" viewBox="0 0 559.8 594.5"><path d="M533.3 398.2c-2.7-41.5-7.3-72.3-13.9-92.6-6.5-20.3-20.4-47.5-41.6-81.8l-32.4 33.8c-.5 24.8-2.7 50.1-6.8 76s-8.1 48.6-12.2 67.9l106.9-3.3zM305.5 219.1c-13.1 9.9-27.3 22.5-42.6 37.8-15.3 15.3-26.8 25-34.5 29.1-19.8 23.4-40.1 42.1-60.8 56.1-11.7 4.5-17.6 10.1-17.6 16.9 7.2 5 7.2 10.4 0 16.2h34.5c9.5-9.5 21.4-15.1 35.8-16.9 25.2-32 45.7-53.8 61.5-65.6 7.3-22.9 15.1-47.5 23.7-73.6zm-92.6 177.1H35.8C43 412 72.7 419.9 125 419.9s81.6-8 87.9-23.7zm-43.3 47.3H80.4c-10.8 3.2-16.2 15.5-16.2 37.2 3.6 27.5 11.5 56.5 23.7 87.2h74.3c11.7-30.6 19.6-59.7 23.7-87.2 0-22.1-5.4-34.5-16.3-37.2zm129.8-296.7c-4.1 5.4-8.1 9.9-12.2 13.5-4.1 3.6-8 4.1-11.8 1.4-3.8-2.7-7.7-4.5-11.5-5.4-3.8-.9-5.5-2.5-5.1-4.7.5-2.3 0-2.7-1.4-1.4-1.4 1.4-2.8 1.5-4.4.3-1.6-1.1-2.4-2.8-2.4-5.1-2.3 0-4.6 1.5-7.1 4.4-2.5 2.9-6 1.2-10.5-5.1-5-19.8-9.7-33.8-14.2-41.9-8.6-25.2-8.2-45.7 1-61.5 9.2-15.8 22.1-27.6 38.5-35.5 16.4-7.9 31.3-7.8 44.6.3s22.2 19 26.7 32.8c4.5 13.7 4.7 29.9.7 48.3 7.7 13.1 18.4 18.6 32.1 16.6 13.7-2 37.2 10.7 70.3 38.2 33.1 27.5 64.5 70.5 94.3 129.1 13.5 35.1 21 84.7 22.3 148.7 12.2 18 13.5 62.9 4.1 134.5 8.6 21.6 7 33.1-4.7 34.5-13.1-.9-22.3-1.4-27.7-1.4-5 0-17.3 1.6-37.2 4.7-16.7-.9-23-3.8-18.9-8.8 0-10.4 9.8-16.6 29.4-18.6 19.6-2 31.9-7.1 36.8-15.2-1.8-34.2-7.7-77.5-17.6-129.8h-73c-3.6 34.2-21.2 80-52.7 137.2 6.3 18.5 3.8 28.6-7.4 30.4-18.9.5-33.8 1.8-44.6 4.1-10.8 2.3-22.3 2.9-34.5 2-9.5 2.7-13.1 0-10.8-8.1 9-8.1 31.5-18.5 67.6-31.1 7.2-3.2 13.5-14.6 18.9-34.5 5.4-19.8 13.7-49.8 25-89.9-2.3-11.7 0-21.4 6.8-29.1 11.3-44.2 18.2-91.9 21-143.3-38.8-27.5-63.8-40.1-75-37.9-7.7 2.3-13.7 8.6-18.2 18.9-4.5 10.4-9.7 25.7-15.5 46-.9 3.6-2.3 8.3-4.1 14.2-14.9 13.1-36 30.6-63.5 52.7-4.1 6.3-5.4 14.2-4.1 23.7 5.9 13.1 3.2 20.5-8.1 22.3-12.6 14.9-25.5 25.9-38.5 33.1V452c6.3 8.6 9.5 18 9.5 28.4-4.1 27.5-16.2 64.9-36.5 112.2H73.7C53 545.3 40.8 507.9 37.2 480.4c0-10.4 3.4-19.8 10.1-28.4v-21.6C24.3 426.3 8.5 407.9 0 375h60.2c-4.5-7.2-2.3-11.9 6.8-14.2 23.9-12.2 46-19.6 66.2-22.3 23.9-27 50.9-50.9 81.1-71.6 11.3-14.4 30.2-38.1 56.8-71 .9-15.8 11.5-31.1 31.8-46 .8-2.9-.3-4-3.5-3.1zM246 135.3c6.8-2.7 10.6-1.4 11.5 4.1 4.1-3.6 7.8-5.7 11.2-6.4 3.4-.7 4.2 2.8 2.4 10.5 6.8 5.9 14.2 4.3 22.3-4.7 8.1-9 15.4-8.9 22 .3 6.5 9.2 3 22.9-10.5 40.9 3.6 15.3 11.5 22.1 23.7 20.3 12.2-1.8 28.4-.9 48.7 2.7 5.9 4.5 25.5 17.8 58.8 39.9l29.1-37.8c-34.2-48.2-65.8-78-94.6-89.2-23 4.1-38.8-.5-47.3-13.5-4.5 4.1-9.7 3.7-15.5-1-5.9-4.7-8.8-11.2-8.8-19.3s-1.9-16.2-5.7-24.3c-3.8-8.1-8.6-10.9-14.2-8.4s-8.8 7-9.5 13.5c-.7 6.5-3 8.9-7.1 7.1-17.6 7.7-27.7 12.8-30.4 15.5-2.7 2.7-2.5 7.9.7 15.5 5.4-6.8 12.6-12.1 21.6-15.9 9-3.8 12.2-3.5 9.5 1-18 7.2-27 14.9-27 23l9.1 26.2zm-4.7-15.6c-2.7-6.8-2.4-12.4 1-16.9 3.4-4.5 10.3-8.3 20.6-11.5l8.1-8.8 2.7 2-8.1 8.8c-.5 6.8-2.6 12.6-6.4 17.6-3.8 5-9.8 7.9-17.9 8.8zm3.4-12.8c-1.4.5-1.8 2.7-1.4 6.8 4.5.5 7.9-.9 10.1-4.1-4.4 2.7-7.4 1.8-8.7-2.7zm8.8 2.7c3.6-4.1 6.1-8.6 7.4-13.5-4.1 1.8-7.9 3.6-11.5 5.4 5-.5 6.3 2.2 4.1 8.1zm29-28.4c-3.2-.5-5.6-3.6-7.4-9.5-1.8-5.9-1.8-10.8 0-14.9s4.2-5.7 7.1-5.1c2.9.7 5.5 3 7.8 7.1s3.6 9.9 4.1 17.6c.5 7.7-.8 12.4-3.7 14.2-2.9 1.8-5.3 1.5-7.1-1-1.9-2.4-2.1-5.3-.8-8.4zm-4.7-17.6c.5 4.1 1.4 7.5 2.7 10.5 1.4 2.9 2.5 3.3 3.4 1s1.9-1.5 3 2.4c1.1 3.8 2 4.4 2.7 1.7.7-2.7.7-6.1 0-10.1-.7-4.1-2.3-7.3-4.7-9.8-2.5-2.6-4.9-1.1-7.1 4.3zm-21.6-5.4c9.9-18 20.2-25.1 30.8-21.3 10.6 3.8 18.1 15 22.6 33.5s7.2 17.7 8.1-2.4c.9-20.1-5.5-35.1-19.3-45.3-13.7-10.1-29.3-9.2-46.6 2.7-17.3 11.9-26 23.5-26 34.8-.1 11.3 10.1 10.6 30.4-2zm29 25.7c-.5 2.7.2 4.3 2 4.7 1.8.5 2.7-.5 2.7-2.7.1-2.2-1.5-2.9-4.7-2z"/></svg>