<svg xmlns="http://www.w3.org/2000/svg" viewBox="-10 0 834.818 1001"><path d="M120 1001q-16-28-33-64t-29-69q-12-33-12-52 0-31 10.5-55T81 724q-28-4-54.5-20.5T-10 667v-34h49l13-39 31-29 51-15 83-91q6-30 12.5-64t13-61.5Q249 306 252 297q4-12 16-20t24.5-14q12.5-6 20.5-10l-28-14-34 25-49-34q-5 5-10.5 9t-10.5 8l-41-110-8-11q-9-19-9-36 0-23 17.5-44t43-33.5Q209 0 234 0q35 0 62.5 24T335 99l10 55 22 8q6-1 13-3t16-2q15 0 32.5 3t32.5 12q14 9 43 29t64 44.5q35 24.5 68.5 48.5t57.5 43q24 19 30 27 44 19 64.5 46t20.5 68q0 17-7.5 38.5T792 562q-3 23-3 40.5t2 47.5q11 43 20.5 104T824 880.5q3 65.5-5 120.5H654v-52l66-13q15-3 25.5-10.5T756 907q0-3-.5-6t-1.5-6l-60-209-4-36h-70l-25 84-44 267H394v-52l68-13q19-4 26.5-17.5T497 888l6-142-4-50 15-46h-16l92-209-123-44-8 77-122 110 30 39 15 40-6 72-27-4-3-54-1-1q-13 17-37 30.5T259 724q14 13 24.5 37t10.5 55q0 19-12 52t-29 69q-17 36-33 64zm207-851l-11-51q-3-14-11.5-32T280 35.5Q264 22 240 22q-25 0-47.5 11t-36 28Q143 78 143 96q0 8 5 20l80-10q1-9 5.5-16.5T250 82q15 0 24.5 13t11.5 34l2 17zm39 569l3-55-16-33-38-48 125-116 21-200h19l-11 109 136 50 94-62q-15-14-42-34t-59-42q-32-22-62.5-42.5T482 210q-23-15-31-20-11-7-24-9.5t-24-2.5q-22 0-34 4l-35-14-58-4-6-37q-1-8-5-17t-11-9q-5 0-7.5 4.5T244 115q0 5 1 8l-88 12 32 84q2-2 5.5-4t5.5-4l48 33 37-26 67 38q-23 6-49 18.5T270 301q-5 8-11 36t-12 62.5q-6 34.5-10 64.5l-86 93-59 19-29 25-11 32h13l12-23 39-21 7 5-11 39h10l156-163 51-146 55 20 5-81h19l-13 202-112 103-7 18 10 84 9 1 10-52 9-3 42 51 2 50zM186 172q-6 0-6-2 0-17 13-24t18-7q6 0 19 5-12 16-22.5 22t-21.5 6zm-46 461h127l-8-48 11-27 108-105 5-85-39-14-50 127zm392-3h238q-1-16-.5-32.5T772 562q2-20 9.5-43.5T789 479q0-32-17.5-59T714 377l-104 69zm-455 3h22l6-23-23 12zm595 347h131q8-49 3.5-110T792 750.5Q782 692 771 650h-62l5 35 59 208q2 4 2 8v9q0 19-16 29t-37 14l-50 10zm-259 0h125l39-250 23-80h-68l-16 49 3 50-7 146q-1 29-16 41.5T464 953l-51 10zM92 705h156q25 0 49.5-14t33.5-29v-3l-6-7h-13l-10 34h-26l-6-34H9v10q9 15 33.5 29T92 705zm39 276h78q14-26 29-58.5t25.5-62Q274 831 274 816q0-25-9-46t-21.5-33Q231 725 221 725H119q-10 0-22.5 12T75 770q-9 21-9 46 0 15 10.5 44.5t25.5 62q15 32.5 29 58.5z" fill="currentColor"/></svg>