<svg xmlns="http://www.w3.org/2000/svg" viewBox="0 0 314.4 594.9"><path d="M145.4 398.8h100.8l-14-79.4c10.2-23.6 9.6-43.4-1.8-59.2l-59.8 14.7-25.2 123.9zm46.5-343.2c-.8-2-.1-4.9 2.1-8.5 2.2-3.7 4.8-6 7.6-7s4.8-.7 5.8.9 1 4.1 0 7.3c-1 3.3-3.5 7-7.3 11.3s-6.9 6-9.2 5.2c-2.2-.8-3.2-2.2-2.7-4.3.4-2 1.6-3.7 3.7-4.9zm6.7-10.4c-1.6 1.6-2.8 3.7-3.7 6.1-.8 2.4-.4 3.3 1.2 2.4s1.6-.1 0 2.1-1.6 3 0 2.1c1.6-.8 3.5-2.4 5.5-4.9 2-2.4 3.2-5 3.4-7.6.2-2.5-1.9-2.6-6.4-.2zm-6.1-9.7c11.4-6.5 19.1-6.3 23.2.6 4.1 6.9 2.6 14.1-4.3 21.7-6.9 7.5-8.8 13.3-5.5 17.4 2.4 3.7 7.9.9 16.5-8.2 8.5-9.2 12.4-19.8 11.6-32.1-.4-12.2-7.3-19.8-20.8-22.9-13.4-3.1-24.5-3.4-33.3-.9-8.8 2.4-14.6 7.7-17.4 15.9 15.5 1.5 25.5 4.4 30 8.5zm-1.3 23.2c-1.2 1.2-1.5 2.3-.9 3.4.6 1 1.5 1 2.7 0 1.3-1.1.7-2.2-1.8-3.4zm-39-5.5v-3.1l3.7-3.7c4.5-2.8 10.4-1.8 17.7 3.1l6.1.6.6 3.1-6.7-1.2c-7.3 3.7-13.8 3.9-19.5.6l-1.9.6zm3.6-3.1c1.2.4 2.6 1 4.3 1.8-1.2-1.6-1.4-3.3-.6-4.9-2 .9-3.3 1.9-3.7 3.1zm8.6 1.8c2 0 4.3-.4 6.7-1.2l-6.1-3.1c1.2 1.7 1 3.1-.6 4.3zm-18.3 15.9c-.4-.8-.4-1.4 0-1.8.4-.4 1-.6 1.8-.6l1.5 1.8c1 1.2 1.9 1.6 2.7 1.2.8-.4 1.1-1.1.9-2.1-.2-1 0-1.6.6-1.8.6-.2 1 .5 1.2 2.1.2 1.6-.4 2.7-1.8 3.4-1.4.6-2.7.2-4-1.2-1.1-1.5-2.1-1.8-2.9-1zm10.3 8.6l-8.6 1.8c-.4.8-.5 1.4-.3 1.8.2.4.7.4 1.5 0 1.6 0 3.1-.4 4.3-1.2 1.3-.8 2.3-1.6 3.1-2.4zm0-.6c.4-.4-.4-.6-2.4-.6s-3.9-.2-5.5-.6c-1.2 0-2 .2-2.4.6-.4.4 0 .8 1.2 1.2l9.1-.6zm34.2-33.6c-8.5-5.7-18.9-8.6-31.1-8.6-1.2 1.6-2.6 3.9-4.3 6.7 4.9-1.6 9.7-1.3 14.4.9 4.7 2.2 8.7 3.4 11.9 3.4l.6 3.1c-5.3-.4-10.3-1.6-15-3.7-4.7-2-9.3-2-13.7 0-3.7 4.5-7.5 11.8-11.6 22 4.9 1.6 7.1 3.9 6.7 6.7 4.9 0 8.2.7 10.1 2.1 1.8 1.4-.1 4-5.8 7.6-1.2 7.7 2.9 10.5 12.2 8.2 9.4-2.2 14.8 2.5 16.2 14.4 1.4 11.8-5.4 17.7-20.5 17.7-12.2 3.3-13.9 14.9-5.2 34.8 8.8 19.9 13.9 53.5 15.6 100.8l56.8-12.8c-2.4-22.4 1.4-48.4 11.6-78.2 10.2-29.7 7.1-44.6-9.2-44.6-16.3 0-25.6-11.8-28.1-35.4-.8-3.3-2.5-6.9-5.2-11-2.6-4.1-1.8-8.1 2.4-12.2 4.3-4.1 7.6-9.1 10.1-15 2.4-5.9 1.6-9.7-2.4-11.3-4.1-1.6-7.9-.2-11.6 4.3-3.6 4.6-5.3 4.6-4.9.1zm-51.3 116.6c-24 18.7-57.2 38.1-99.5 58-13.4-29.7-19.2-54.4-17.4-73.9 1.8-19.5-1.6-33.1-10.4-40.6C3.3 94.8-.7 82.7.1 66c4.5-1.2 7 1.3 7.6 7.6.6 6.3 2.7 11.3 6.4 15 2-9 2-16.4 0-22.3-2-5.9-5.5-11.5-10.4-16.8-2-2-2.7-4.2-2.1-6.4.6-2.2 3-3.6 7-4C19.2 48.5 25.7 58 28.1 67.8c1.6 9.4 3.7 23 6.1 40.9 13 37 19.3 61.7 18.9 73.9 28.1-24.8 52.5-43.6 73.3-56.2 9.4-13 23.6-19.7 42.7-20.2l-1.8-9.2c-7.3.4-12.5.4-15.6 0s-4.8-2.6-5.2-6.7c-.4-4.1-1.4-6.5-3.1-7.3-1.6-.8-1.8-1.9-.6-3.4 1.2-1.4 1.4-1.9.6-1.5-1.6-.4-2.6-1.1-3.1-2.1-.4-1 .2-2.1 1.8-3.4-1.2-1.2-3.1-2.1-5.5-2.7-2.4-.6-2.4-3.6 0-8.9 4.5-9 8.3-15.9 11.6-20.8C153.5 17 164 4.1 179.6 1.4c15.7-2.6 30.3-1.9 44 2.1 13.6 4.1 20.7 14 21.1 29.9.8 14.2-2.3 25.6-9.5 34.2-7.1 8.5-14.4 14.2-21.7 17.1v.6c.8 6.1 2.1 11.6 4 16.5 1.8 4.9 14.4 8.3 37.6 10.4 15.1 2 25.4 11.4 31.1 28.1 14.2 42.7 23.2 74.1 26.9 94 2.4 15.9.4 44.4-6.1 85.5.4 17.9.2 32-.6 42.1-.4 9.8-5.1 19.9-14 30.5-4.1 0-6.7-1-7.9-3.1-1.2-2-.8-4.1 1.2-6.1 4.1-6.5 6.7-12.7 7.9-18.6 1.2-5.9.2-13.1-3.1-21.7-3.3 4.1-4.8 9.4-4.6 15.9.2 6.5-1.9 9.4-6.4 8.6-3.3-16.7-1.2-29.4 6.1-38.2 7.3-8.8 9.2-24.2 5.5-46.4-3.7-22.2-3.9-40-.6-53.4-14.2-25.6-25.9-49.5-34.8-71.4-15.1 43.2-18.6 74.9-10.7 95.3 7.9 20.4 8.7 42.3 2.1 66l17.7 92.8c6.1 25.2 7.3 52.1 3.7 80.6-3.7 28.5-3.3 57.6 1.2 87.3 5.3 9.8.5 14.5-14.4 14-14.9-.4-27.6-.4-38.2 0-10.6.4-19.5.6-26.9.6-7.7.4-11.3-.9-10.7-4 .6-3.1 6-7.4 16.2-13.1 17.5-1.6 29.2-5.1 35.1-10.4 5.9-5.3 8.4-15.7 7.6-31.1-2-18.3-7.9-59.6-17.7-124h-45.8c-10.2 8.5-14.6 19.7-13.1 33.6 1.4 13.8-4.9 34.9-18.9 63.2-14 28.3-22.1 52.4-24.1 72.4.4 10.6-5.4 14.7-17.4 12.2-12-2.4-21.8-2.8-29.3-1.2-7.5 1.6-19.2 2.4-35.1 2.4-12.2.4-17.1-2-14.7-7.3 2.4-5.3 9.6-9.2 21.4-11.6 17.9-7.7 30.5-12.7 37.9-15 7.3-2.2 14-11.5 20.2-27.8 5.3-16.3 13.4-56.6 24.4-120.9l29.9-151.4c.3-43.4-5.4-77.4-16.8-101.8z"/></svg>