<svg xmlns="http://www.w3.org/2000/svg" viewBox="-10 0 932 1001"><path d="M412 1001q-122 0-203.5-21T79 907q-48-52-68.5-142.5T-10 535q0-43 5.5-122.5T24 204L4 182l1-36 7-7h7v-16h21q4-19 8-37.5T57 47l19 2q-5 19-9 37.5T59 123h18l19 13 50 43 97 114 108-59q16-9 35.5-9t36.5-2v-23l-43-3-7-51q-5-1-11.5-1.5T349 143l32-69q-2-10-2-20 0-20 17.5-37T460 0q46 0 69.5 25T553 84q0 28-20 62l-16 28v49q17 2 36.5 2t36.5 9l98 59 92-114 50-43 19-13h15l-8-74 19-2 9 76h23v16h7l6 7 2 36-26 28-3 1q6 77 10 129.5t6 87.5q2 35 2.5 59.5t.5 46.5q0 137-29 227t-89 143q-60 53-155 75t-227 22zm87-833l21-33q5-8 10-21t5-27q0-25-18-46.5T462 19q-35 0-48.5 11T400 55q0 5 .5 8.5t.5 5.5h65q2-2 5.5-3.5T482 64q12 0 19 9.5t7 20.5q0 17-11 32l-17 25zm-62 291l95-17 10-145 163 59 113-147 18-17 10-1-2-27 18-21 31-4v-5l-35 1-18 12-43 38-106 130-108-64q-15-8-36.5-9.5T502 238v-47l-42-37 18-30q3-5 7-14t4-13q0-5-2-10.5T476 81q-7 0-9 2l-3 3h-72l-19 45q3 0 6.5 1t6.5 1l7 51 47 3v51q-24 2-46 3t-36 10l-118 64-111-130-43-38-18-12-35-1v5l31 4 18 21-2 27 10 1 18 17 118 147 169-57zm-20-347q-7 0-14.5-2t-7.5-7q0-5 6-8t14-3q8 0 14.5 3.5T441 104q-5 3-10.5 5.5T417 112zm461 89l10-3 22-23-2-23-38 4-11 12 2 28zm-828 0l17-5 2-28-11-12-38-4-2 23 22 23zm574 764q94-25 153.5-73T865 758q28-86 28-224 0-29-2-66t-6.5-97Q880 311 872 214l-17-6-14 1-11 11-118 159-153-57-10 127q22 32 33.5 56.5T594 563q0 14-1 20t-3 26q-1 10-1.5 18t-.5 16q0 8 4.5 25t6.5 27q6 22 13 56t11.5 74.5Q628 866 628 906q0 15-1 30t-3 29zm-428-11v-20l66-12q15-2 20-14.5t9-25.5l30-117-1-41 14-29h-11l99-227-41-146-162 57L96 220l-11-11-14-1-21 7-8-2Q19 341 14 419.5T9 535q0 118 15 203.5T79.5 878Q120 932 196 954zm158-276h223q-9-19-9-30 0-17 3-39 2-16 3-23.5t1-21.5q0-53-44-106l-93 18zm144 281h108q2-14 3-28.5t1-29.5q0-38-5-77t-12.5-73q-7.5-34-13.5-56h-51l4 19 49 173q2 4 2 7.5v6.5q0 16-13.5 24.5T539 937l-41 8zm-86 22q35 0 67.5-1t62.5-3h-63v-43l55-12q12-2 21-8t9-15v-5l-1-6-50-173-5-20h-79l-93 282h-31q24 2 51 3t56 1zm-200-22h112l87-264h-58l-15 31v41l-31 121q-7 24-16.5 35T267 937l-55 8z" fill="currentColor"/></svg>