<svg xmlns="http://www.w3.org/2000/svg" viewBox="0 0 513.4 594.7"><path d="M309.2 374.3l-8.1-98c-1.4-5.9-4.5-9.7-9.5-11.5L249 276.3c-4.5 3.2-7 7.7-7.4 13.5l-28.4 94.6 96-10.1zM270.7 91.8c-5.4-2.3-8.3-5.7-8.8-10.5-.5-4.7 1.8-9.2 6.8-13.5 5-4.3 9-9.7 12.2-16.2 3.2-6.5 2.5-10.7-2-12.5-4.5-1.8-8.8-1.1-12.8 2-4.1 3.2-6.8 2.7-8.1-1.4-13.5-5.4-21.7-8.2-24.7-8.4-2.9-.2-6.2 2.6-9.8 8.4 6.8-.5 13.6.9 20.6 4.1 7 3.2 8.4 5 4.4 5.4-13.5-6.3-23-7.2-28.4-2.7l-12.2 18.2c5.9 2.7 7 5.9 3.4 9.5 5 0 8.3.9 10.1 2.7 1.8 1.8-.5 3.8-6.8 6.1.5 6.8 5.9 9.5 16.2 8.1 10.4-1.4 14.9 4.1 13.5 16.2 0 9.5-5.1 14.3-15.2 14.5-10.1.2-16.1 5.7-17.9 16.6 0 10.8 2.8 22 8.4 33.5 5.6 11.5 11.4 24.4 17.2 38.9 5.9 14.4 8.2 26.1 7.1 35.1-1.1 9 .3 13.7 4.4 14.2 13.1-.5 25-3.2 35.8-8.1 5.4-2.3 7.8-20.2 7.1-53.7-.7-33.6.9-54.3 4.7-62.2 3.8-7.9-4.4-14.5-24.7-19.9l-.5-24.4zm-54.8-37.2c2.7-5.4 6.3-8.2 10.8-8.4 4.5-.2 10.4 1.7 17.6 5.7h9.5v2.7h-9.5c-4.1 3.2-8.7 5-13.9 5.4-5.1.5-10-1.3-14.5-5.4zm10.2-5.4c-1.4 0-2.9 1.1-4.7 3.4 1.4 2.3 3.8 3.4 7.4 3.4-4.1-.9-5-3.2-2.7-6.8zm2.7 6.8c3.6 0 7.7-.9 12.2-2.7-3.6-1.4-6.8-2.7-9.5-4.1 2.7 2.7 1.8 5-2.7 6.8zm32.4 2c-1.4-2.3-.8-5.4 1.7-9.5s5.5-6.5 9.1-7.4c3.6-.9 5.9-.3 6.8 1.7.9 2 .7 4.7-.7 8.1-1.4 3.4-4.4 7.2-9.1 11.5-4.7 4.3-8.3 5.9-10.8 4.7-2.5-1.1-3.4-2.7-2.7-4.7.6-2.1 2.5-3.5 5.7-4.4zm7.4-11.5c-2.3 1.8-3.8 3.9-4.7 6.4-.9 2.5-.6 3.4 1 2.7 1.6-.7 1.6.2 0 2.7s-1.6 3.3 0 2.4c1.6-.9 3.6-2.7 6.1-5.4 2.5-2.7 3.9-5.3 4.4-7.8.4-2.5-1.8-2.8-6.8-1zm-6.7-15.6c16.2-3.6 25.8-1.5 28.7 6.4 2.9 7.9-.3 17.9-9.8 30.1s-7.7 13.3 5.4 3.4c13.1-9.9 19.4-21.4 18.9-34.5-.5-13.1-8.7-21.3-24.7-24.7s-27.6-2.3-34.8 3.4c-7.2 5.7-1.7 11 16.3 15.9zm-1.4 30.5c-2.3.9-2.9 1.9-2 3 .9 1.1 1.9 1.2 3 .3 1.2-.9.8-2-1-3.3zM40.2 165.5C29.4 321.4 26.5 413 31.7 440.2c5.2 27.3 19.9 56.9 44.3 88.9l7.4.7c2.3-8.1 7.2-10.6 14.9-7.4 20.3 6.3 34.9 7.9 43.9 4.7 13.1-7.2 26.4-37.9 39.9-91.9 17.6-73 30.9-120.1 39.9-141.3h-16.2l18.9-28.4c-9-.9-12.4-4.7-10.1-11.5 0-7.7 5-11 14.9-10.1 2.7-5.9.9-14.5-5.4-26-6.3-11.5-13.7-29.2-22.3-53.1-14.4 18.9-39.7 37.2-75.7 54.7-41.1-13-69.7-31.1-85.9-54zm237.9 399.4c-1.4-9 10.1-17.1 34.5-24.3 12.6-4.5 20.5-14.2 23.7-29.1-8.6-46.4-19.2-76.6-31.8-90.6-8.1-4.1-12.2-12.8-12.2-26.4l-66.9 4.7c-8.1 10.8-10.4 19.6-6.8 26.4 3.6 18.9-11 54.1-43.9 105.4.9 19.4-4.3 28.6-15.5 27.7 59.9 6.4 99.5 8.5 118.9 6.2zm-23 29.8c-75.7-.5-129.3-8.9-160.9-25.3C62.7 553 40.6 534.6 28 514.3c-12.6-20.3-21.3-42.7-26-67C-2.7 423 1 327 13.1 159.4 5.9 148.6 2.6 139.3 3 131.7c-1.4-10.8 2.5-17.6 11.5-20.3V43.1h25.7v70.3c5 1.4 8.6 10.1 10.8 26.4 15.8 17.1 41.2 33.1 76.4 48 24.3-18.5 47.5-39.4 69.6-62.9 8.6-11.7 19.2-17.6 31.8-17.6v-6.1c-6.3.5-11.6.3-15.9-.3-4.3-.7-6.5-2.7-6.8-6.1-.2-3.4-.9-6.3-2-8.8-1.1-2.5-.8-4.2 1-5.1 1.8-.9 1.8-1.4 0-1.4s-2.7-.7-2.7-2c0-1.8.7-3.4 2-4.7-1.4-1.4-3.5-1.9-6.4-1.7-2.9.2-3.5-2.4-1.7-7.8C206.7 49.9 213 39.7 215.2 33c12.2-18 25.3-28.5 39.5-31.4 14.3-3 28-1.7 41.3 3.7 13.3 5.4 20.7 14 22.3 25.7 1.6 11.7-.8 22.4-7.1 32.1-6.3 9.7-15.1 17.9-26.4 24.7v19.6c11.7 1.4 24.6 5.6 38.5 12.8 14.4 15.3 35.1 37.9 62.2 67.6 24.3-9 50.7-23.9 79.1-44.6 3.2-12.2 5.9-22.1 8.1-29.7V43.1h25v68.3c7.7 2.7 11.7 9.5 12.2 20.3.5 7.7-3.2 16.9-10.8 27.7C511.7 327 516 422.8 512 446.6c-4.1 23.9-13.2 46.2-27.4 66.9-14.2 20.7-38.1 39.3-71.6 55.8-33.6 16.5-86.2 24.9-157.9 25.4zm110.2-40.6c23.4-3.6 48.4-16.4 75-38.5s41.2-47 43.9-74.7c2.7-27.7-1.1-119.5-11.5-275.4-23.9 23-53.4 41-88.5 54.1-35.6-27-60.8-50-75.7-68.9 0 26.6-2 59.3-6.1 98 10.8 14.9 16 32.7 15.5 53.4 7.2 55 12.2 87.4 14.9 97.3 14.9 11.7 25.2 52.3 31.1 121.7 10 13 10.4 24 1.4 33z"/></svg>