<svg xmlns="http://www.w3.org/2000/svg" viewBox="-10 0 1053 1001.044"><path d="M466 1001.044q-122 0-203.5-21t-129.5-73q-48-52-68.5-142.5T44 535.044q0-43 5.5-122.5t28.5-208.5l-20-22 2-36 6-7h7v-16h21q4-14 6.5-29t2.5-19q0-7-1-11-7 6-20.5 12.5t-31.5 6.5q-11 0-25-3t-24.5-12q-10.5-9-10.5-27 0-19 15.5-30t44.5-11q33-1 53 20.5t20 54.5q0 11-3 24t-7 24h18l19 13 50 43 97 114 108-59q16-9 36-9t37-2v-23l-43-3-8-51q-5-1-11.5-1.5t-12.5-1.5l32-69q0-4-.5-9.5t-.5-10.5q-1-20 16.5-37t63.5-17q46 0 70 25t24 59q0 26-21 62l-16 28v49q17 2 36.5 2t36.5 9l98 59 93-114 49-43 19-13h16q-4-11-6.5-24t-2.5-24q0-33 19.5-54.5T983 .044q29 0 44.5 11t15.5 30q0 18-11 27t-25 12q-14 3-25 3-17 0-31-6.5t-21-12.5v11q0 4 2.5 19t6.5 29h22v16h7l7 7 2 36-27 28-3 1q6 77 10 129.5t6 87.5q2 35 2.5 59.5t.5 46.5q0 137-29 227t-89 143q-60 53-155 75t-227 22zm-426-936h10q17 0 30-8t17-11q-13-29-47-29-43 2-43 24 0 12 14 19 10-3 22-5t25 1q-8 1-15 3.5t-13 5.5zm942 0h10q-6-3-13-5.5t-15-3.5q13-3 25.5-1t21.5 5q14-7 14-19 0-22-42-24-36 0-47 29 3 3 16 11t30 8zm-429 103l21-33q5-8 10-21t5-27q0-25-18-46.5t-55-21.5q-35 0-48.5 11t-13.5 25q0 10 2 14h65q2-2 5-3.5t10-1.5q12 0 19 9.5t7 20.5q0 17-11 32l-17 25zm439-128q-11 0-20-9 8-10 20-10 9 0 14.5 3.5t5.5 6.5q0 9-20 9zm-952 0q-8 0-14-3t-6-6q0-3 6-6.5t14-3.5q12 0 20 10-7 9-20 9zm451 419l95-17 10-145 163 59 113-147 18-17 10-1-1-27 17-21 31-4v-5l-35 1-17 12-43 38-107 130-108-64q-15-8-36.5-9.5t-44.5-3.5v-47l-42-37 18-30q3-5 7.5-14t4.5-13q0-5-2.5-10.5t-11.5-5.5q-6 0-8.5 2t-3.5 3h-72l-19 45q3 0 7 1t6 1l7 51 47 3v51q-24 2-46 3t-36 10l-118 64-111-130-43-38-18-12-35-1v5l31 4 18 21-2 27 10 1 18 17 118 147 169-57zm-20-347q-7 0-14.5-2t-7.5-7q0-5 6.5-8t13.5-3q9 0 15 3.5t11 8.5q-5 3-10.5 5.5t-13.5 2.5zm461 89l10-3 22-23-2-23-38 4-11 12 2 28zm-828 0l17-5 2-28-11-12-38-4-2 23 22 23zm574 764q94-25 153.5-73t87.5-134q28-86 28-224 0-29-2-66t-6.5-97q-4.5-60-12.5-157l-17-6-14 1-11 11-118 159-153-57-10 127q22 32 34 56.5t12 57.5q0 14-1.5 20t-3.5 26q-1 10-1 18v16l4 25q4 25 6 27 6 22 13 56t11.5 74.5q4.5 40.5 4.5 80.5 0 15-1 30t-3 29zm-428-11v-20l66-12q15-2 20-14.5t9-25.5l31-117-2-41 14-29h-11l99-227-40-146-162 57-124-159-11-11-13-1-22 7-8-2q-23 128-27.5 206.5t-4.5 115.5q0 118 15 203.5t55 139.5q40 54 116 76zm158-276h223q-4-10-6-17.5t-2-12.5v-18.5l2-20.5q2-16 3-23.5t1-21.5q0-52-43-106l-94 18zm-142 281h112l87-264h-58l-14 31v41l-32 121q-6 24-16 35t-24 14l-55 8zm286 0h108q2-14 3-28.5t1-29.5q0-38-5-77t-12.5-73q-7.5-34-13.5-56h-51l5 19 48 173q2 4 2 7.5v6.5q0 16-13.5 24.5t-30.5 11.5l-41 8zm-86 22q35 0 67.5-1t62.5-3h-63v-43l55-12q13-2 21.5-8t8.5-15v-5l-1-6-50-173-4-20h-80l-93 282h-31q24 2 51 3t56 1z" fill="currentColor"/></svg>