<svg xmlns="http://www.w3.org/2000/svg" viewBox="0 0 579 594.5"><path d="M70.2 31.2C45.5 46.8 35.7 58.9 40.9 67.6c-10 7.4-17.8 14.9-23.4 22.7.9 4.3 3.9 8.2 9.1 11.7 8.2.4 17.8-4.8 28.6-15.6 24.3 0 36.4-8 36.4-24-.4-21.3-7.6-31.7-21.4-31.2zm270.9 351.5l-7.8-94.2c-1.3-5.6-4.3-9.3-9.1-11l-40.9 11c-4.3 3-6.7 7.4-7.1 13l-27.3 91 92.2-9.8zm-37-271.6c-5.2-2.2-8-5.5-8.4-10.1-.4-4.5 1.7-8.9 6.5-13s8.7-9.3 11.7-15.6c3-6.3 2.4-10.3-1.9-12-4.3-1.7-8.4-1.1-12.3 1.9-3.9 3-6.5 2.6-7.8-1.3-13-5.2-20.9-7.9-23.7-8.1-2.8-.2-6 2.5-9.4 8.1 6.5-.4 13.1.9 19.8 3.9 6.7 3 8.1 4.8 4.2 5.2-13-6.1-22.1-6.9-27.3-2.6L243.8 85c5.6 2.6 6.7 5.6 3.2 9.1 4.8 0 8 .9 9.7 2.6 1.7 1.7-.4 3.7-6.5 5.8.4 6.5 5.6 9.1 15.6 7.8 10-1.3 14.3 3.9 13 15.6 0 9.1-4.9 13.8-14.6 14-9.7.2-15.5 5.5-17.2 15.9 0 10.4 2.7 21.1 8.1 32.2 5.4 11 10.9 23.5 16.6 37.4 5.6 13.9 7.9 25.1 6.8 33.8-1.1 8.7.3 13.2 4.2 13.6 12.6-.4 24-3 34.4-7.8 5.2-2.2 7.5-19.4 6.8-51.7-.6-32.3.9-52.2 4.5-59.8 3.7-7.6-4.2-14-23.7-19.2l-.6-23.2zm-52.6-35.7c2.6-5.2 6.1-7.9 10.4-8.1 4.3-.2 10 1.6 16.9 5.5h9.1v2.6h-9.1c-3.9 3-8.3 4.8-13.3 5.2-5 .4-9.7-1.3-14-5.2zm9.7-5.2c-1.3 0-2.8 1.1-4.5 3.2 1.3 2.2 3.7 3.2 7.1 3.2-3.9-.8-4.8-3-2.6-6.4zm2.6 6.5c3.5 0 7.4-.9 11.7-2.6-3.5-1.3-6.5-2.6-9.1-3.9 2.6 2.6 1.7 4.7-2.6 6.5zm31.2 1.9c-1.3-2.2-.8-5.2 1.6-9.1 2.4-3.9 5.3-6.3 8.8-7.1 3.5-.9 5.6-.3 6.5 1.6.9 1.9.7 4.5-.6 7.8-1.3 3.2-4.2 6.9-8.8 11-4.5 4.1-8 5.6-10.4 4.5-2.4-1.1-3.2-2.6-2.6-4.5.6-1.9 2.5-3.3 5.5-4.2zm7.1-11c-2.2 1.7-3.7 3.8-4.5 6.2-.9 2.4-.5 3.2 1 2.6 1.5-.6 1.5.2 0 2.6s-1.5 3.1 0 2.3c1.5-.9 3.5-2.6 5.8-5.2 2.4-2.6 3.8-5.1 4.2-7.5.5-2.4-1.7-2.8-6.5-1zm-6.5-15c15.6-3.5 24.8-1.4 27.6 6.2 2.8 7.6-.3 17.2-9.4 28.9s-7.4 12.8 5.2 3.2c12.6-9.5 18.6-20.6 18.2-33.1s-8.3-20.5-23.7-23.7c-15.4-3.2-26.5-2.2-33.5 3.2-6.9 5.5-1.7 10.6 15.6 15.3zm-1.2 29.3c-2.2.9-2.8 1.8-1.9 2.9.9 1.1 1.8 1.2 2.9.3 1-.9.7-1.9-1-3.2zM66.9 71.5c-11.3-1.3-15.4-5.4-12.3-12.3 3-6.9 8.2-8.8 15.6-5.5 7.3 3.1 6.3 9.1-3.3 17.8zm445.1-.7c-9.1-8.2-10.1-14.1-2.9-17.5 7.1-3.5 12.3-1.7 15.6 5.2s-1 11-12.7 12.3zM109.2 173.5c-10 32.5-25.8 79.9-47.4 142.3C46.6 360.4 39 397 39 425.6c0 28.2 6.1 50.2 18.2 66.3 27.7 25.6 50.9 40.9 69.5 46.1 2.2-6.1 9.5-8 22.1-5.8 12.6 1.3 23.2.4 31.8-2.6 12.6-6.9 25.3-36.4 38.3-88.4 16.9-70.2 29.7-115.4 38.3-135.8h-15.6l18.2-27.3c-8.7-.9-11.9-4.5-9.7-11 0-7.4 4.8-10.6 14.3-9.7 2.6-5.6.9-14-5.2-25-6.1-11-13.2-28-21.4-51-13.9 18.2-36.2 34.2-66.9 48.1-20.4-9.7-40.9-28.3-61.7-56zm361.9 2.6c-20.8 27.3-41.6 46.1-62.4 56.5-13-2.6-24-9.5-33.1-20.8-9.1-11.3-20.8-26-35.1-44.2 0 25.6-1.9 57-5.8 94.2 10.4 14.3 15.4 31.4 14.9 51.3 6.9 52.8 11.7 84 14.3 93.6 14.3 11.3 24.3 50.2 29.9 117 9.5 12.6 9.7 22.3.7 29.2 39-4.3 81.7-24.9 128-61.7 12.1-16 18.2-38.1 18.2-66.3 0-28.6-7.8-65.2-23.4-109.8-23.9-68.4-39.3-114.8-46.2-139zm-7.2-26C445.7 71.7 450.3 30.3 477.6 26c-3-15.2 3.7-23.7 20.1-25.7 16.5-1.9 24.7 5.1 24.7 21.1 26 17.3 37.3 31.8 33.8 43.5 8.2 7.8 15.8 16 22.7 24.7-.9 6.5-9.5 15.4-26 26.6-16.9-.9-36.8-8.2-59.8-22.1-5.6 8.7-7.4 19.3-5.2 31.8 4.8-1.3 7.1 2.8 7.1 12.3 1.7 3.5 3 7.8 3.9 13 0 3.5-1.3 6.5-3.9 9.1 21.2 62.4 38.9 113.4 53 153 14.1 39.6 22 78.9 23.7 117.9-1.7 25.6-8.9 49.4-21.4 71.5-56.7 60.2-143.8 90.8-261.2 91.6-117-.4-203.6-30.8-259.9-91-13-22.1-20.4-46.1-22.1-72.1 1.7-38.6 9.7-77.6 24-117.3 14.3-39.6 32.1-91.1 53.3-154.3-2.2-3.5-3.2-6.9-3.2-10.4.4-5.2 1.5-9.7 3.2-13.6 0-9.5 3.7-13.4 11-11.7-.9-10.8-4.1-20.6-9.7-29.2-23 13.9-42.7 21.2-59.1 22.1C10.2 105.7 1.3 96.8 0 90.3 6.9 81.2 14.5 73 22.7 65.6c-3-11.7 8.2-26.2 33.8-43.5C56.5 6.1 64.8-1 81.2 1s23.2 10.5 20.1 25.7c23.8 3.5 30.5 36.6 20.1 99.4-.4 6.1-1.9 13-4.5 20.8l8.4 16.9c16.5 12.1 33.1 25.3 50 39.6a5379 5379 0 0 0 57.8-60.4c8.2-11.3 18.4-16.9 30.5-16.9v-5.8c-6.1.4-11.2.3-15.3-.3-4.1-.6-6.3-2.6-6.5-5.8-.2-3.2-.9-6.1-1.9-8.4-1.1-2.4-.8-4 1-4.9 1.7-.9 1.7-1.3 0-1.3s-2.6-.6-2.6-1.9c0-1.7.6-3.2 1.9-4.5-1.3-1.3-3.4-1.8-6.2-1.6-2.8.2-3.4-2.3-1.6-7.5 10-13 16-22.7 18.2-29.2 11.7-17.3 24.4-27.4 38-30.2 13.6-2.8 26.9-1.6 39.6 3.6 12.8 5.2 19.9 13.4 21.4 24.7 1.5 11.3-.8 21.6-6.8 30.9s-14.5 17.2-25.3 23.7V126c11.3 1.3 23.4 7.6 36.4 18.8 18.2 19.9 35.3 40.9 51.3 63 16.5-15.6 33.4-29.2 50.7-40.9l8-16.8zM311.2 566c-1.3-8.7 9.7-16.5 33.1-23.4 12.1-4.3 19.7-13.6 22.7-27.9-8.2-44.6-18.4-73.6-30.5-87.1-7.8-3.9-11.7-12.3-11.7-25.3l-64.3 4.5c-7.8 10.4-10 18.8-6.5 25.3 3.5 18.2-10.6 52-42.2 101.4.9 18.6-4.1 27.5-14.9 26.6 15.6 3.9 46.4 6.3 92.3 7.1l22-1.2zM508.8 30.5c-13.9-.4-21 10-21.4 31.2 0 16 12.1 24 36.4 24 11.3 10.8 21 16 29.2 15.6 4.8-3.5 7.6-7.1 8.4-11-5.6-8.2-13.4-16-23.4-23.4 5.2-8.6-4.5-20.8-29.2-36.4z"/></svg>