<svg xmlns="http://www.w3.org/2000/svg" viewBox="0 0 595.3 506.7"><path d="M255.4 112.9c-39 20.5-82.2 29.1-129.7 26.1.4 45.6 12.9 78.6 37.6 99 24.7 20.5 48.1 32.8 70.1 37.1 17.8-51.3 26.6-94 26.6-128 0-13.5-1.6-24.9-4.6-34.2zm12.7 192.8c-31.3-6.9-58.1-16.8-80.5-29.5-53.3-29.3-79.9-69.5-79.9-120.4 0-10 1.2-20.5 3.5-31.3 2.3-40.1-5-60.2-22-60.2-12.4 0-27.2 9.5-44.6 28.4-19.3 23.2-27.8 36.7-25.5 40.5 6.6 4.6 14.7 3.1 24.3-4.6 9.7-7.7 22.4-11.8 38.2-12.2 9.7 5.4 13.1 16.2 10.4 32.4 0 8.1-3.9 24.1-11.6 48.1-7.7 23.9-11.6 44.8-11.6 62.5 0 24.3 6.2 49.6 18.5 75.9 8.5-19.3 23.5-29 45.2-29 40.1 0 81.8 18.3 125.1 55 15.5-22.7 19-41.3 10.5-55.6zm59.1-.5c-8.5 14.7-5 33.4 10.4 56.2 43.2-36.7 84.9-55 125.1-55 21.6 0 36.7 9.5 45.2 28.4 12.4-25.9 18.5-51.1 18.5-75.9 0-17.4-3.9-38.1-11.6-62.2s-11.6-40.2-11.6-48.4c-2.7-16.2.8-27 10.4-32.4 15.8.8 28.7 5 38.5 12.7 9.8 7.7 17.9 9.3 24 4.6 2.7-3.9-5.8-17.4-25.5-40.5-17-18.9-31.8-28.4-44.6-28.4-17 0-24.1 19.9-21.4 59.6 1.9 10.8 2.9 21.4 2.9 31.8 0 51-26.6 91.1-79.9 120.4-22.3 12.5-49.2 22.1-80.4 29.1zm13.3-192.3c-3.1 8.9-4.6 20.1-4.6 33.6 0 34.4 8.7 77.2 26.1 128.5 22-4.6 45.5-17.2 70.4-37.6 24.9-20.5 37.5-53.3 37.9-98.4-47.6 2.7-90.8-6-129.8-26.1zm-42.9 172.6c14.3.8 28.2-2.5 41.7-9.8l-18.5-62.5h-46.3L256 276.3c13.5 6.9 27.3 9.9 41.6 9.2zm23.2-95.6v-44.6H275v44.6h45.8zm0-58.5c2.7-23.9 1.6-39.2-3.2-45.7-4.8-6.6-7.4-14.5-7.8-23.7 7.3-5.8 11-14.3 11-25.5 0-15.4-7.7-23.2-23.2-23.2h.6c-15.4 0-23.2 7.7-23.2 23.2 0 11.2 3.7 19.9 11 26.1-.8 9.3-3.6 17.1-8.4 23.5-4.8 6.4-5.7 21.5-2.6 45.5h45.8zM297.6 0c25.5 0 38.2 12.2 38.2 36.5 0 15.1-2.5 23.9-7.5 26.6-5 2.7-4.2 7.1 2.3 13.3 17 15.4 37.4 27.4 61.4 35.9 21.2 6.6 45.2 10.4 71.8 11.6 7.3-2.7 5-33.8-6.9-93.2-2.3-10-.4-15.2 5.8-15.6 5.4.4 13.8 5.7 25.2 15.9 11.4 10.2 24.6 14.2 39.7 11.9 21.2-1.5 30.7 9.1 28.4 31.8 26.3 30.9 39.4 52.5 39.4 64.9 0 8.1-6.2 12.7-18.5 13.9-10.8-1.2-28-6-51.5-14.5-3.1 6.9-4.6 14.5-4.6 22.6 0 8.1 3.5 20.3 10.4 36.5s11.8 30.7 14.5 43.4c1.5 16.2 2.3 35.1 2.3 56.7 0 11.6-.7 28.1-2 49.5-1.4 21.4-2 37.3-2 47.8 0 34.7 6 65.6 18 92.6-7.7 12.4-18.3 12.4-31.8 0-6.9-54-16.2-91.9-27.8-113.5-6.6 2.7-9.8 12.2-9.8 28.4 0 21.6 5.2 51.9 15.6 90.9-2.7 6.9-7.3 11-13.9 12.2-6.6 1.2-14.9.6-24.9-1.7V392.6v-63.1c-8.9-3.9-26.8-1.2-53.9 8.1-23.9 13.9-35.9 32-35.9 54.4-1.2 22.4 10.4 56.2 34.7 101.3 2.3 5.8-1.7 8.7-12.2 8.7-10.8 0-17.6-3.5-20.3-10.4-16.2-69.9-29.3-104.8-39.4-104.8-6.2-1.2-8.6 3.4-7.2 13.6 1.4 10.2 10.1 43.1 26.3 98.7-2.7 3.9-8.2 5.7-16.5 5.5-8.3-.2-13.6-2.2-15.9-6.1-5.4-71.8-15.8-107.7-31.3-107.7-15.1 0-25.3 36.1-30.7 108.3-2.7 3.5-8.2 5.3-16.5 5.5-8.3.2-13.8-1.4-16.5-4.9 16.6-55.6 25.5-88.6 26.6-99 1.2-10.4-1.4-15.1-7.5-13.9-9.7.4-22.8 35.3-39.4 104.8-2.7 6.9-9.5 10.4-20.3 10.4-10.4 0-14.5-2.7-12.2-8.1 24.7-45.6 36.5-79.5 35.3-101.9 0-22-12.2-40.1-36.5-54.4-26.6-9.3-44.6-12-53.9-8.1v174.9c-9.7 2.3-17.9 2.9-24.6 1.7-6.8-1.2-11.5-5-14.2-11.6C97.8 455.1 103 424.6 103 403c0-16.2-3.1-25.7-9.3-28.4-12 21.6-21.4 59.4-28.4 113.5-13.5 12.4-24.1 12.4-31.8 0C45.9 461.5 52 430.6 52 395.5c0-10-.8-25.9-2.3-47.5-1.5-21.6-2.3-38-2.3-49.2 0-22 1-40.9 2.9-56.7 2.3-13.1 6.9-27.8 13.9-44 6.9-16.2 10.4-28.4 10.4-36.5 0-7.7-1.4-15.2-4.1-22.6-23.9 8.5-41.3 13.3-52.1 14.5C6.2 152.3 0 147.7 0 139.6c0-12.4 13.1-33.8 39.4-64.3-1.9-22.8 7.5-33.6 28.4-32.4 15.4 2.3 28.8-1.6 40-11.9 11.2-10.2 19.5-15.5 24.9-15.9 6.6.4 8.5 5.8 5.8 16.2-12 59.1-14.3 90.1-6.9 93.2 27-1.5 51-5.6 71.8-12.2 24.3-8.5 44.8-20.5 61.4-35.9 6.9-5.8 7.9-10.1 2.9-13-5-2.9-7.5-11.9-7.5-26.9C260 12.2 272.5 0 297.6 0z"/></svg>