<svg xmlns="http://www.w3.org/2000/svg" viewBox="-10 0 1193 1002"><path d="M151 1002l-4-15 30-39 6-12q0-7 3-32.5t5-46.5l6-198q-14-8-24-20.5T159 608q-2-5-2-11.5V583q0-20 3-38.5t6-27.5q0-2-4.5-30.5t-11.5-73q-7-44.5-15-95T120 222l-15 17-28 9-31 18-27 3-25-7-4-11 15-45 37-42 27-33 23-18q-5-1-10.5-4t-8.5-6q-5-6-5.5-15.5T75 69q15 1 24.5 11.5T113 102l17-1q0-11-4.5-19T121 63q0-4 2.5-7.5T130 52q8 0 11 7t3 11q1 5 1.5 14.5T148 99h2q1-3 4.5-12t5.5-16q1-5 5-15.5T178 45q5 0 7.5 4.5T188 59q0 7-2.5 13.5T181 81q-3 5-6.5 11t-4.5 14l18 7q5-5 18-15.5T233 86q4 15 .5 32.5T218 140q-5 2-12.5 2H194q4 6 5.5 13t3.5 13l3-1 12 6 29 14 142 4 131-56q9-5 22.5-5.5T566 128v-13l-29-1-5-30-13-1 18-40q0-2-.5-5.5T536 31q0-11 12.5-21T587 0q26 0 42.5 15T646 49q0 15-12 35l-14 17v27q10 1 21 1.5t21 5.5l133 55 122-4 26-14 15-6 11 3v-1q2-6 4-13t5-13h-11l-12-2q-12-4-16-21.5t1-32.5q13 1 26 11.5t18 15.5l19-7q-2-8-5-14t-6-11q-1-2-4.5-8.5T984 59q0-5 2.5-9.5T994 45q9 0 13 10.5t6 15.5q2 7 5 16l4 12h3q2-5 2.5-14.5t.5-14.5q1-4 4-11t10-7q4 0 6.5 3.5t2.5 7.5q0 11-4 19t-4 19l17 1q4-11 13-21.5t24-11.5q8 9 8 18.5t-5 15.5q-8 7-20 10l24 18 26 33 37 42 16 45-5 11-25 7-26-3-31-18-28-9-16-17q-7 46-15 96.5t-14.5 95q-6.5 44.5-11 73T1007 517q3 9 6 27.5t3 38.5q0 7-.5 13.5T1014 608q-5 18-15 30.5T976 659l6 198q2 21 4.5 46.5T989 936l7 12 30 39-5 15h-71l-19-37q1-4 1.5-8.5t1.5-7.5l-8-30q2-7 5.5-15.5T936 891l-5-56q0-1-1-15t-3-34q-2-20-4-38l-38 110q-1 21-1.5 46t-.5 32l6 12 31 39-5 15h-68l-19-37q1-4 1.5-8.5t1.5-7.5l-8-30q3-7 6.5-15.5T835 891v-63q0-1 5-20t11.5-45.5q6.5-26.5 12-50.5t6.5-35q-14 13-28.5 21T806 708l-44 149 10 91 23 43-6 11h-48l-22-40q1-4 1.5-9t1.5-8l-15-84 5-50-25 59 1 78 23 43-7 11h-47l-23-40q1-4 1.5-9t1.5-8l-5-71 11-88q-14-26-20-45.5t-5-47.5q-6 19-5.5 35t1.5 38l2 31q1 23 1 42.5T604 859q-12 0-18-12-5 12-18 12-11 0-11.5-18.5T556 797q0-12 3-33 2-20 1.5-36t-6.5-35q1 28-5 47.5T530 786l10 88-5 71q1 3 1.5 8t1.5 9l-22 40h-48l-6-11 23-43v-78l-24-59 4 50-14 84q1 3 1.5 8t1.5 9l-23 40h-47l-6-11 22-43 11-91-44-149q-22-2-36.5-10T302 677q1 11 6.5 35t12.5 50.5q7 26.5 12 45.5t5 20v63q1 4 4.5 12.5T349 919l-7 30q1 3 1.5 7.5t1.5 8.5l-19 37h-68l-5-15 30-39 7-12q-1-7-1.5-32t-.5-46l-38-110q-3 18-4.5 38t-2.5 34q-1 14-1 15l-5 56q1 4 4 12.5t5 15.5l-7 30q1 3 1.5 7.5t1.5 8.5l-19 37zM609 97l13-18q3-5 5.5-13t2.5-16q0-14-10.5-24T588 16q-19 0-27 4t-8 12v8h38q1-1 2.5-2t6.5-1q7 0 11 5.5t4 11.5q0 10-7 19l-9 14zm-35 168l55-10 6-88 158 55 138-13 12-5 18 7q4-25 5-28t1-4l-5-1-15 4-25 19-133 5-131-57q-8-5-23-5t-28-2v-32l-25-21 16-18q1-2 3.5-7.5T604 56q0-3-1-6t-6-3q-4 0-5.5 3.5T590 55h-44l-9 21q2 0 4 .5t4 .5l4 29 27 2v34q-14 2-29 3t-23 4l-129 58-153-5-28-18-9-3 6 27 10-3 12 8 158 15 154-56zM563 70q-4 0-8.5-1t-4.5-5q0-2 3.5-4t7.5-2q8 0 15 7-3 1-6 3t-7 2zm-463 34q-5-9-9-14t-12-8q-3 4 0 9t5 6q2 2 7 4t9 3zm973 0q9-2 16-7 2-1 4.5-6t.5-9q-13 5-21 22zm-878 23q6 0 11.5-.5t9.5-2.5q5-2 6-9t1-12q-8 5-15 10.5T195 127zm783 0q-7-8-13.5-13.5T950 103q0 5 1 12t5 9q5 2 10 2.5t12 .5zM665 988h24l-19-34 2-92 64-156q2-8 4-19t3-18q1-6 .5-10.5t-.5-9.5q0-10 8-10 4 0 6.5 4.5T760 665q0 7-.5 13.5T759 689q26 5 51 1t63-30q0-4 .5-7t.5-6q0-1-.5-3t-.5-3q0-12 8-12 10 0 10 23v12l-2 19v2q-3 20-11 46.5T862.5 784q-7.5 26-10.5 45l-1 66q-2 6-6 13.5t-5 11.5l8 29q0 7-2 13l13 26h34l-3-12-15-17-9-17v-87l74-205q26-2 38.5-14t17.5-32q3-12 3-27 0-20-3.5-37.5T989 514l51-320 23 13 12 17 27 9 26 16 23 3 13-5-14-37-36-39-22-28q-14-11-28.5-20t-33.5-9q-24 0-31.5 20T987 172q-10 52-20 99.5T948.5 353q-8.5 34-15.5 46-16 27-42 55t-58 50.5Q801 527 769 536q-33 9-69 26t-53 36q-20 20-31 39t-18 60q-1 8-1.5 23t0 28.5q.5 13.5.5 17.5-1 8-2 20.5t-1 24.5q0 14 2.5 26t6.5 12q4-1 4-13.5t-1-27.5q-1-12-1.5-25t-.5-20q-1-13-2-20t-1-15q0-8 3-25 2-15 9-28t20-20q-2 36 6.5 73t21.5 58l-11 88 6 72q-1 4-1.5 8.5T653 961zm-386 0h34l14-26q-1-2-1.5-6t-1.5-7l9-29q-2-4-6-11.5t-6-13.5v-66q-2-19-10-45t-16-52.5q-8-26.5-11-46.5v-2q-3-21-3-31 0-12 3.5-17.5t7.5-5.5q7 0 7 12v12l1 7q37 26 62 30t51-1v-24q0-17 2-21.5t7-4.5q8 0 8 10 0 5-1 9.5t0 10.5q1 7 3.5 18t3.5 19l65 156 1 92-19 34h24l13-27q-1-2-1.5-6.5T517 946l5-72-10-88q12-21 20.5-58t7.5-73q24 15 29 48 2 17 2 25t-1 15q-1 7-2 20 0 7-.5 20t-1.5 25q0 15-.5 27.5T570 849q4 0 6.5-12t2.5-26q0-12-1-24.5t-2-20.5q0-4 .5-17.5t.5-28.5q0-15-2-23-8-41-19-60t-30-39q-17-19-53-36t-69-26q-33-9-65-31.5T281 454q-26-28-41-55-11-17-25-79t-30-148q-4-18-11.5-38T142 114q-18 0-32.5 9T80 143l-21 28-37 39-14 37 14 5 23-3 26-16 27-9 12-17 23-13 50 320q-3 8-6 25.5t-3 37.5q0 7 .5 14t1.5 13q5 20 18 32t39 14l74 205v87l-10 17-14 17zm801-807q-9 0-17-3.5t-14-7.5q3-2 9-4.5t17-2.5h8q8 0 14 1.5t7 6.5q0 7-7.5 8.5T1080 181zm-988 0q-8 0-15.5-1.5T69 171q3-8 21-8h7q11 0 17.5 2.5t8.5 4.5q-6 4-14 7.5T92 181zm652 345l22-5q27-7 57.5-30t56-51q25.5-28 37.5-49 7-11 15-40.5t15.5-65Q955 250 960 221l-8-4-9-1-6 4-147 18-141-50-5 73zm-332-4l9-20 37 9q8 2 12-2.5t7-11.5l21-46 4-20 7-22h-6l57-136-27-81-139 52-166-18-8-6-8 1q6 29 13.5 64.5t15.5 65q8 29.5 14 40.5 13 21 38.5 49t56 51q30.5 23 57.5 30zm117-128h149l-48-124-56 10zm57 291q3-24 12.5-47t30.5-46q8-8 15.5-15t16.5-13l-10-20 26-20q15-9 10-20l-4-5-40-71-9-19h-59l-75 148q12 7 22.5 16t21.5 19q20 23 29.5 46t12.5 47zm86-134l57-26-46-116h-33l9 19 38 66q2 2 3 4t2 3q4 8-1 15.5T688 530l-20 14zm-186-2l73-140h-34l-8 23-5 21-24 50q-11 25-27 21l-31-9-3 8 26 11q16 6 33 15zm476 439h38l-4-12-14-17-10-17-8-88-7-192q0 2-2 2l-17 41q3 33 5.5 63t4.5 68l4 59-4.5 13.5L943 920l8 29q0 7-2 13zm-789 0h37l14-26q-1-2-1.5-6t-1.5-7l9-29q-2-4-5-11.5t-5-13.5l5-59q2-38 4-68t5-63l-16-41q-1 0-3-2l-7 192-8 88-9 17-15 17zm577 0h24l-19-34-8-105 38-141q-13 0-28-3l-21 51-11 105 15 85q-1 4-1.5 8.5T737 961zm-351 0h24l12-27q-1-2-1.5-6.5T432 946l15-85-10-105-22-51q-15 3-28 3l39 141-8 105z" fill="currentColor"/></svg>