<svg xmlns="http://www.w3.org/2000/svg" viewBox="-10 0 745 1001"><path d="M23 1001v-45l84-15 14-9q-1-4-1-11 0-41 67-71l-54-196q-2-5-4-17t-2-18q0-26 16-48.5t47-22.5q15 0 31 6.5t27 19.5l150 168 15-92-19-152-54-52-73 64-29 1L-7 273l15-21 40 17-9-25-49-33 13-24 72 35 27 36 13 43 118 111 36-35-90-88 15-21 40 17-9-26-49-32 13-25 72 36 27 35 13 44 14 13q17-18 37.5-35.5T398 271l54-13-7-26-40 15-24-63-31-2 49-110 2-13q8-28 28.5-43.5T489 0q36 0 67 12t50 34.5Q625 69 625 99q0 28-16.5 55T565 218v37l49 18q25 10 36 23.5t13 29q2 15.5 2 29.5 0 12-6.5 38t-16 60q-9.5 34-18.5 67-11 43-23.5 97T581 714l20 2v190l49 35 85 15v45h-89l-129-35-204 26q-39 5-67.5 7t-33.5 2q-31 0-54-13l-47 13zm530-795q20-28 36.5-55.5T606 95q0-26-20-43t-47.5-25Q511 19 490 19q-25 0-44 10t-27 33l78 44q5-4 11-7t13-3q13 0 20 9.5t7 20.5q0 7-5.5 16.5T533 158l-14 18zM415 748l148-33q8-50 20.5-104t23.5-97q17-67 26.5-106t9.5-52q0-17-5-35.5T608 292l-62-23v-47l-48-41 22-31q3-5 7-11.5t4-10.5q0-3-2-8.5t-9-5.5q-12 0-21 12l-85-48-40 91 19 1 20 55 45-15 15 62-76 16q-15 3-34.5 20T327 342l51 47 18-15 4 37 19 17 64-55q21-21 41.5-39.5T578 307l-1 17q-20 4-42 23t-38 35l-76 69q-28-28-60-56t-69-63l-19-52-22-32-53-29-4 8 47 31 14 41-6 6-46-21-4 5 228 218h19l138-112 4 19-135 111-29 2-10-9 17 131zm23-613q-11 0-19-3.5t-16-8.5q5-6 14.5-8t12.5-2q19 0 32 20-7 1-13 1.5t-11 .5zM241 492h19l67-59-46-44-46 46q-24-23-44-41t-40-36.5Q131 339 106 316l-19-52-22-32-53-28-4 7 47 31 14 42-6 5-46-21-4 5zm-37 350l44-22-61-184 28-63q-10-6-26-6-20 0-31.5 14.5T146 619q0 7 2 16.5t4 17.5zm62-30l123-56-158-175-24 54zm-38 109l356-20V731h-9l-169 36-220 102zm421 61h67v-14l-72-9-58-41-369 20-49-60q-29 15-29 41t12.5 39q12.5 13 30 17.5T213 980q16 0 47-2.5t54-5.5l207-26zm-607 0h67l31-8q-10-11-14-23l-12 8-72 9z" fill="currentColor"/></svg>