<svg xmlns="http://www.w3.org/2000/svg" viewBox="0 0 472.1 594.6"><path d="M341.3 0c47.6-.8 72.9 18.9 75.8 59.3 0 26.3-15.3 51.6-45.9 75.8-2.1 5.1-2.9 11.6-2.2 19.4.6 7.9 10.7 15.3 30.3 22.3 19.5 7 25.9 24.7 19.1 53.2l-11.5 192.4c4.2 20.4 4.2 45 0 73.9 10.6-6.8 16.8-2.5 18.5 12.7-5.1 18.7-4.5 33.8 1.9 45.2l34.4 21.7c16.1 11 13.6 16.6-7.6 16.6l-56.1-5.1c-24.6 4.7-140.2 7-346.7 7v-1.3c11-11.5 21.9-20 32.5-25.5 4.7-12.3 13.6-23.2 26.8-32.5 14.9-11.9 22.3-29.7 22.3-53.5 0-26.3-2.3-68-7-124.9 3.8-20.4 14-30.4 30.6-29.9 17.4 0 54.8 28.9 112.2 86.7 11.9-29.7 17.5-57.4 16.9-82.8-.6-25.5-2.4-41.2-5.4-47.2-26.3 9.8-48.2 16.8-65.6 21l-26.8-20.4c-29.7 17.8-47.6 26.8-53.5 26.8-17-12.7-32-27.9-44.9-45.6-13-17.6-29-43.6-48.1-78.1-7.2-1.7-15.7-15.5-25.5-41.4-3.8-3-5.7-6.6-5.7-10.8 3-2.5 5.8-3 8.6-1.3s7.3 10 13.7 24.9c3.8 2.1 5.3.8 4.5-3.8 0-8.5-11.5-24-34.4-46.5-1.3-1.7-2-3.4-2.2-5.1-.2-1.7 1.4-2.5 4.8-2.5 0-3 1.5-4.5 4.5-4.5 0-3 1.5-4.2 4.5-3.8 0-3.8 1.7-4.9 5.1-3.2 25.5 22.9 39.3 39.3 41.4 49.1 3 9.8 5.3 23.6 7 41.4 37.4 45.9 58.8 73.7 64.4 83.5l26.8-21v-1.3c-8.5-25.9-28.3-58.6-59.3-98.1-2.5-9.8-7.6-20.8-15.3-33.1v-2.5l3.2-3.2h2.5c3.4 2.1 9.3 11 17.8 26.8l3.2 1.3v-4.5c0-8.9-12.3-25.3-37-49.1v-3.8c0-1.3 1.5-1.9 4.5-1.9 0-3 1.5-4.5 4.5-4.5 0-3 .8-4.5 2.5-4.5l.6 1.3h1c.8-3 2.3-4.5 4.5-4.5 1.7 0 7 5.1 15.9 15.3 21.2 16.6 31.9 39.7 31.9 69.5 8.9 17.8 19.4 33.6 31.5 47.2s19.4 21.9 22 24.9c26.3-23.8 48.4-35.7 66.3-35.7 18.3-4.7 27.4-12.3 27.4-22.9l-19.8-2.5c-9.8 0-14.7-9.3-14.7-28l-3.2-17.8c-6.8-.4-10.2-2.5-10.2-6.4 0-4.2 13.8-28 41.4-71.4C297.9 10.9 318.3 0 341.3 0zm-33.2 30c0 10.2 20.8 16.1 62.4 17.8 5.1 3.8 7.6 10.2 7.6 19.1 0 10.2-7.9 27.4-23.6 51.6h2.5c27.2-17.4 40.8-38.2 40.8-62.4 0-17.8-7.1-29.2-21.3-34.1-14.2-4.9-28.8-7-43.7-6.4-14.7.7-23 5.5-24.7 14.4zm-36.3 51c4.2-6.4 8.9-9.6 14-9.6 5.5 0 10.5 1.3 15 3.8s11.8 4.7 22 6.4v1.9c-9.8.8-17 2.3-21.7 4.5-13.6 4.6-23.4 2.3-29.3-7zm44.6-5.1c-11.5-5.1-21-7.6-28.7-7.6-8.1 0-14.9 2.5-20.4 7.6-11.9 17.8-14.2 26.6-7 26.1 3 .4 5.1 5.9 6.4 16.6 8.5-1.7 12.7.6 12.7 7h-12.1c.8 10.6 10.2 15.9 28 15.9 10.6 0 15.9 7.8 15.9 23.3S302.8 191 286 197c-16.8 5.9-25.2 9.8-25.2 11.5 7.6 10.2 15.5 17 23.6 20.4 10.2-3 40.6-16.4 91.1-40.1 0-1.3-5-5.1-15-11.5s-13.9-16.8-11.8-31.2c-8.9-9.8-13.4-17.3-13.4-22.6 0-5.3 7.4-17.3 22.3-36 4.7-6.8 7.2-12 7.6-15.6.4-3.6-.4-6.8-2.5-9.6s-5.5-4.6-10.2-5.4c-4.7-.8-10.2 2.1-16.6 8.9-21.7-11-37-16.6-45.9-16.6-5.9 4.7-8.9 8.1-8.9 10.2 13.2 0 25.3 4.9 36.3 14.7.3 1.1-.1 1.8-1 1.8zm15.9 13.3c6.4-20 13.1-29.3 20.1-28 7 1.3 9.9 5.8 8.6 13.7-1.3 7.9-9.8 17.1-25.5 27.7-5.9 2.1-9.3 1.4-10.2-2.2-.8-3.6 1.5-7.3 7-11.2zm7-4.4l1.9 2.5-1.9 6.4c10.2-8.1 15.7-14.1 16.6-18.2.8-4 .5-6.7-1-8-1.5-1.3-4.4-.4-8.6 2.5-4.2 3.1-6.5 8-7 14.8zm-62.4-4.5l8.3 5.1c-3-3-2.8-6.2.6-9.6l-8.9 4.5zm15.9-3.2c1.7 3 1.5 5.5-.6 7.6l10.8-1.9c-2.5-2.5-5.9-4.4-10.2-5.7zm38.3 17.2c-1.3 4.2-.4 5.6 2.5 4.1 3-1.4 2.1-2.8-2.5-4.1zM222.1 253v2.5c16.6-7.2 28.5-13.2 35.7-17.8v-1.3h-1.3c-5.1 0-16.6 5.6-34.4 16.6zm79 19.1c3.8 19.1 5.7 45.5 5.7 79 0 34-5.5 63.1-16.6 87.3h.6c24.6 0 57.1-8.5 97.5-25.5 0-26.3 3-84.3 8.9-174-22.8 10.3-54.9 21.3-96.1 33.2zm-148.5 99.4l6.4 121.1c49.7-14 83.1-26.6 100-37.6 2.1-5.9 3.2-11 3.2-15.3-57.4-56.5-90.1-84.8-98.1-84.8-7.6.1-11.5 5.6-11.5 16.6zM124 550c-5.1 10.2-1.5 14.7 10.8 13.4 39.1-23.8 101.3-27.2 186.7-10.2 35.7 0 58-20.4 66.9-61.2v-53.5c-11 0-84.3 27.2-219.8 81.6-22.5 10.5-37.4 20.5-44.6 29.9z"/></svg>