<svg xmlns="http://www.w3.org/2000/svg" viewBox="0 0 364.3 596.4"><path d="M243.4.1c-28.3.8-59.7 8.3-76.6 33-7.4 10.8-13.1 23.9-10.6 37.2-6.8 15.6-21.5 27.6-23.8 45.1-2.2 14.1 19.2 11.2 13.9 24.9.3 10.3 11.7 20.4 7.9 27-6.6 28-14.3 57.6-34.2 79.4-7.9 13.8-21 4.6-32.2 4.3-13.8 8.1 5.1 21.2 15 20.1 22.1 1.8 38.8-16.6 48.7-34.2 12.2-20 21.2-42.4 28.5-64.2 12-4.7 24.1-9 27 7.5 9 23.7.5 48.9-2 73-9 61.5-18 123.1-27.4 184.6-34.1-42.5-68.2-85-102.4-127.4-13-13.2-34.3-13-50.8-7.5C10.7 308.6-4 323 1 339.2c30.2 62.4 57.2 126.5 76 193.4-23 8.8-46.2 17-69 26.1-9.2 5.4-4.7 16.2-2.8 24.2.6 8.3 7.9 14.8 16.3 13.3h302.6c4.2-2.5 14.6-4.5 16-5.6-5.7-4.7-3.3-13-9.4-17.6-6.1-7.2-12.1-14.3-18.2-21.5 11.9-66.1 18.6-133.3 19.2-200.5 13 .1 35.8 2 32.2-17.9.7-70.3.7-140.8-4.7-210.9C356.4 85.5 346 45.9 316.7 21 296.6 3.4 269.3-.6 243.4.1zm1.8 24.3c22.1-.7 46.9 2.8 62 20.7 22.5 26.5 27.3 62.7 29 96.2 3.2 60.9 4.1 121.9 3.5 182.9h-15v-150c-39.3-1.3-55.6-30.2-59.1-52.8 4.7-10.3 17.3-18.9 21.5-31.4 4.5-13.5-1.5-33.6-17.9-32.9-11.1.5-19.6 6.3-30.6-.4-13.5-8.2-31.6-9.7-47.2-13.1 12.9-18.8 32.6-18.5 53.8-19.2zm-64.9 36.7c19.2 3.4 39.4 7.1 54.5 20.3 5.3 7.1 15 9.7 19-.4 10.3-14.5 21.1 5.9 13.6 15.9-4.3 10.8-17.5 17.2-22.1 26 4.5 17.6 12.4 34.6 25.7 47.3 10.3 9.9 22.8 18.7 37.3 19.9-.5 63-.2 126.1-1.5 189.1-2 58.2-8.6 116.2-19.2 173.5-1.5 8.2 6 13.2 10.3 19.1H41.8c18.6-7.1 37.3-13.8 55.8-21.1 10-5.2 5.4-17.4 2.7-25.6-18.8-66.5-45.4-130.5-75.5-192.5 7.2-9.5 21.7-11 32-6.2 17.4 20.6 33.9 42 50.9 63 23.3 28.9 46.3 58 69.8 86.7 8.4 8.1 22.3-.2 20.9-11.3 12.3-83.3 26.8-166.3 36.4-250 3.6-25.8-5.6-53.2-23.8-71.7-11.7-10.6-31.6 14.8-38.1 0-8.5-8.6 19.2-4 6.4-11.6-15 2.5-4.4-18.8-18.2-22.2 3.1-8.7 9.8-14 18.2-7.4 13 3.2 26.2-1.6 38-6.7C206.8 84.7 203 82.5 196 82.5c-8.6 0-21.4 3.1-21.4 5.9 5.3-8.1 7-17.7 5.7-27.3z"/></svg>