<svg xmlns="http://www.w3.org/2000/svg" viewBox="-10 0 664.083 1001"><path d="M28.083 1001v-43l103-44-48-232q-3-13-7-33.5t-4-38.5q0-17 10-34l-17-58 8-15h19V281q0-34-9.5-50t-25.5-21q-3 5-5.5 9.5t-4.5 8.5q-12 25-15 47.5t-3 35.5h-26q-4-9-8-25.5t-5-32.5q-1-23 10-50.5t24-50.5q11-18 19-33t11-27q2-10 3-20t1-17h26q5 8 10.5 25.5t4.5 39.5q0 16-7.5 31.5t-15.5 30.5q12 6 29.5 28t17.5 74v219h19l61 91 99 121 25-303q3-33 19-55.5t37.5-39q21.5-16.5 40.5-31.5l-6-54-22 8-55 75-35-30 64-58-17-43-31-2 50-110 2-13q7-28 27.5-43.5t59.5-15.5q55 0 96 26t52 83l20 374h-54v441l79 34v43zm455-537h125l-18-355q-6-34-27.5-53.5t-49.5-28q-28-8.5-51-8.5-25 0-44 10t-27 33l78 44q5-4 11-7t13-3q13 0 20.5 9.5t7.5 20.5q0 7-5 19t-15 19zm-436 517h587v-12l-78-34V483h-97l25-324q11-8 15-17.5t4-13.5q0-3-1.5-8.5t-9.5-5.5q-11 0-21 12l-85-48-40 91 19 1 20 55 47-15 11 87q-33 22-62.5 48t-33.5 66l-31 333-12 5-117-145q-10-13-24-24.5t-31-11.5q-18 0-29 12t-11 31q0 15 5 37.5t8 36.5l49 236-107 48zm-36-694h5q-1-21 5.5-42.5t12.5-34.5q5-13 15-27.5t15-22.5q6-12 11.5-29.5t1.5-42.5h-5q-1 17-9 35t-17 32q-7 12-17 30.5t-15 35.5q-8 33-3 66zm399-152q-11 0-19-3.5t-15-8.5q5-6 14.5-8t11.5-2q19 0 32 20-7 1-13 1.5t-11 .5zm-313 424q16-11 33-11 12 0 21 3l-20-29h-40l-3 6z" fill="currentColor"/></svg>