<svg xmlns="http://www.w3.org/2000/svg" viewBox="-10 0 626 1001"><path d="M-10 1001v-43l103-44-48-232q-3-13-7-33.5T34 610q0-25 17-43.5T92 548q28 0 41 10.5t27 28.5l104 128 25-303q3-33 19-56.5t37.5-40.5q21.5-17 40.5-29l-7-54-21 8-55 75-35-30 64-58-17-43-31-2 50-112q-10-5-21-11t-11-16q0-8 4-13t4-8q0-5-7-5h-9q-1 0-4-.5t-3-3.5q0-2 8-7.5T317 0q12 0 17 6t5 12q0 11-5 12.5T329 41q0 5 3.5 7.5T338 53q8-28 36.5-40.5T441 0q32 0 63.5 10.5t52.5 39Q578 78 578 132q0 33-7.5 54.5t-16.5 40q-9 18.5-14 43.5 6 12 13.5 24.5T569 316q14 18 28.5 32.5T612 379q0 16-8.5 24t-21.5 8q-15 0-26.5-11T537 375v549l79 34v43zm19-20h587v-12l-78-34V308q0-39 10.5-67t20.5-53q10-25 10-56 0-38-13-61t-32.5-34q-19.5-11-39-14.5T442 19q-25 0-53 10t-36 33l78 44q5-4 11-7t13-3q13 0 20.5 9.5T483 126q0 7-5 19t-15 19q-5 10-11 24.5t-6 25.5q0 13 3.5 27t7.5 21v21q-25 0-50 13t-46.5 33.5Q339 350 325 371.5T309 411l-31 333-12 5-117-145q-10-13-24-24.5T94 568q-18 0-29 12t-11 31q0 15 5 37.5t7 36.5l50 236L9 969zm393-704q9-4 17.5-7.5T438 264q-4-5-7.5-17.5T427 215q0-14 6.5-30t12.5-26q11-8 15-17.5t4-13.5q0-3-2-8.5t-9-5.5q-7 0-11.5 3t-9.5 9l-85-48-40 91 19 1 20 55 47-15zm-30-142q-11 0-19-3.5t-16-8.5q5-6 14.5-8t12.5-2q19 0 32 20-7 1-13 1.5t-11 .5zm211 256q10 0 10-12-1-6-11.5-17T559 334q-8-11-13-18.5t-9-18.5v6q0 22 8 42t18 33q10 13 20 13z" fill="currentColor"/></svg>