<svg xmlns="http://www.w3.org/2000/svg" viewBox="0 0 482.5 594.5"><path d="M437 207c8 30.8 12.5 61.7 13.6 92.5l15.9-3.2c-4.2-31.9-14.1-61.7-29.5-89.3zM315.8 61.8c21.8 5.3 39.3 11.7 52.6 19.1 8.5-6.4 16.9-8.9 25.1-7.6 8.2 1.3 13.8 5.7 16.7 13.2 2.9 7.4 3.1 15.7.4 24.7s-9.3 18.3-19.9 27.9c0 12.2 5.7 22.6 17.1 31.1 11.4 8.5 23.1 1.2 35.1-21.9 12-23.1 13.3-44.9 4-65.4-9.3-20.5-23.7-34.2-43.1-41.1s-37.9-8.8-55.4-5.6C330.9 39.5 320 48 315.8 61.8zm54.2 72.6c14.4-11.7 22.6-21 24.7-27.9 2.1-6.9 1.1-12.1-3.2-15.6-4.3-3.5-9.8-2-16.7 4.4l-6.4 1.6c-21.8-11.2-43.1-18.6-63.8-22.3-5.8 15.4-14.9 33-27.1 52.6 10.6 0 14.9 4 12.8 12 3.2-2.7 8.6-1.1 16.3 4.8 7.7 5.8 2.5 8.2-15.6 7.2 2.7 3.2 3.5 7.2 2.4 12s3.2 6.4 12.8 4.8c8.5-1.1 19.5-5.1 33.1-12 13.6-6.9 21.7-21.5 24.3-43.9h4c-1.6 25-11.4 42.3-29.5 51.8 12.2 11.2 19.1 26.6 20.7 46.3 24.5 9.6 41.5 3.5 51-18.3-21.7-10.2-35-29.3-39.8-57.5zm-14.3 92.5c-12.8 47.3-24.2 132.1-34.3 254.4H307L196.2 333c-11.2-19.7-21.9-27.6-32.3-23.9-10.4 3.7-6.9 25.8 10.4 66.2 17.3 40.4 35.8 99.2 55.4 176.2L153.9 577v1.6h279.9l-19.9-15.9C429.3 510 437 444.1 437 364.9c0-79.2-5.8-131.3-17.5-156.3-14.9 23.4-36.2 29.5-63.8 18.3zm-62.2-114.8v-4l7.2-4.8c5.8-10.6 19.9-10.4 42.3.8l18.3.8-.8 6.4-16.7-2.4c-19.7 8.5-34.3 9.8-43.9 4l-6.4-.8zm9.5-4c2.7 1.1 5.8 2.1 9.6 3.2-2.7-3.2-2.9-6.6-.8-10.4-4.8 2.1-7.7 4.5-8.8 7.2zm20 2.4c4.8-.5 9.6-1.9 14.4-4l-13.6-5.6c3.2 3.7 2.9 6.9-.8 9.6zm-24-16c0-2.7 2.5-5.4 7.6-8.4 5.1-2.9 11.6-3.2 19.5-.8 8 2.4 17.8 5.7 29.5 10l4.8 4c-12.8-1.1-23-3.2-30.7-6.4s-17.9-2.6-30.7 1.6zM163.5 285.1c-31.9 5.8-41.7 11.2-29.5 15.9 9.5 3.8 19.4-1.5 29.5-15.9zM94.9 142.4c-49.4 140.9-74.4 211.3-75 211.3l30.3 8.8 44.7-220.1zM307 455c8.5-107.4 20.7-188.5 36.7-243.2-2.7-18.1-9.6-31.4-20.7-39.9l-13.6 4c-19.1 56.9-36.7 89.1-52.6 96.5-15.9 7.4-27.6 9.2-35.1 5.2-7.4-4-10.2-8-8.4-12 1.9-4 7.2-4.4 15.9-1.2 8.8 3.2 18.5-2.5 29.1-17.1 10.6-14.6 19.1-40.8 25.5-78.6 1.1-8 0-13-3.2-15.2-3.2-2.1-2.7-4.5 1.6-7.2-4.8-1.1-5.3-4.3-1.6-9.6-15.9.5-18.7-6.6-8.4-21.5 10.4-14.9 17.7-31.1 21.9-48.6-8-3.7-12.8-12-14.4-24.7-1.6-12.8.4-20.7 6-23.9s5.8-4.5.8-4c-5.1.5-8.1-.4-9.2-2.8-1.1-2.4 0-4.5 3.2-6.4 3.2-1.9 6.8-3.3 10.8-4.4 4-1.1 7.7-.1 11.2 2.8 3.5 2.9 4.7 6.5 3.6 10.8 3.7 8 2.5 14.9-3.6 20.7-6.1 5.8-6.8 12.5-2 19.9 12.2-22.3 29.4-34 51.4-35.1 22.1-1.1 43.3 2.3 63.8 10s36.3 25 47.4 51.8c11.2 26.8 3.7 60.5-22.3 100.9 27.6 43.1 41.5 86.7 41.5 130.8l-28.7 4c0 114.3-6.9 193.8-20.7 238.4l35.1 39.1H140.4l-4-28.7 74.2-25.5c-15.4-62.2-32.4-115.4-51-159.5-18.6-44.1-33.1-69-43.5-74.6-10.4-5.6-11.3-11.6-2.8-17.9 8.5-6.4 19.9-12 34.3-16.7l-40.7-107.7L61.4 384 0 362.5l89.3-256.8c8-8.5 14.1-7.7 18.3 2.4l59.8 161.1c12.2 5.8 20.5 16.5 24.7 31.9L307 455z"/></svg>