<svg xmlns="http://www.w3.org/2000/svg" viewBox="0 0 359.1 594.6"><path d="M182.6 500.6h-22.8L69 384.5c-12.7-20.3-24.2-27.1-34.6-20.3-10.4 6.8-6.3 24.9 12.1 54.3s35.4 75.6 51.1 138.7l-60.9 19h227.8L248 564.7c14.8-65.6 24-136 27.6-211.3 3.6-75.3-3.7-112.6-21.9-112s-32.6 13.4-43.2 38.4c-15.6 46.5-24.9 120.2-27.9 220.8zm47-266.5c5.1-5.5 13.3-8.5 24.7-8.9-10.2-15.2-15.2-27.7-15.2-37.4 11.8-11.4 16.3-19 13.3-22.8-3-3.8-8-3.2-15.2 1.9-14.8-15.7-28.6-21.8-41.2-18.4-3.4 11.8-7.2 19.9-11.4 24.1-4.2 4.2-8.5 10.6-12.7 19l12.1 5.7c0 16.5 6.1 24.2 18.4 23.2 12.2-1.1 21.2 3.5 27.2 13.6zM192.1 170c4.2-10.2 15.4-9.7 33.6 1.3-19.8 9.7-31 9.3-33.6-1.3zM340 17.1c-8.9-7.2-18.2-2.7-27.9 13.3-30 16.9-58.8 40.2-86.3 69.8-10.2 13.1-15.7 23.9-16.5 32.4 15.7 3 26 9.1 31.1 18.4 5.5-2.5 11-2.7 16.5-.6s8.5 6.7 8.9 13.6c.4 7-2.5 13.6-8.9 20-6.3 6.3-5.1 14.4 3.8 24.1 2.1-18.2 10.4-38.9 24.7-62.2 21.6-31.7 37-65.2 46.3-100.3C345.3 32.5 348 23 340 17.1zM349.5 5c10.6 11.8 12.4 22.4 5.4 31.7s-13.1 23.5-18.4 42.5c-5.3 19-21.5 49.1-48.5 90.1-8.9 15.2-13.3 29.2-13.3 41.9 35.1 6.8 50.6 42.1 46.3 106h-28.6c1.3 94.8-5.1 173.9-19 237.3l29.8 40H19.5L17 569.2l53.9-21.6c-12.3-48.7-27.5-88.7-45.7-120.3C7 395.8-1.3 375.6.2 366.7c1.5-8.9 9.4-17.3 23.8-25.4 14.4-8 30-5.3 47 8.2l92.6 118.7C167 371 179.7 302 201.7 261.4c10.6-20.7 10.2-30.5-1.3-29.2-18.6-1.7-27.3-6.9-26-15.5 1.3-8.7-1.7-14.1-8.9-16.2-7.2-2.1-6.3-9.3 2.5-21.6 8.9-12.3 12.9-20.3 12.1-24.1-.4-3 .6-6.1 3.2-9.5-6.8-2.5-10.8-8.8-12.1-18.7-1.3-9.9.3-16.3 4.8-19 4.4-2.7 4.8-3.9 1-3.5-3.8.4-6.2-.4-7.3-2.5s-.3-3.8 2.2-5.1c2.5-1.3 5.5-2.3 8.9-3.2 3.4-.8 6.5-.1 9.2 2.2 2.7 2.3 4.3 4.8 4.8 7.3.4 5.1-1.5 10.4-5.7 15.9s-3.2 10.2 3.2 14c3-11.8 7.4-22.3 13.3-31.4 5.9-9.1 16.1-19.9 30.5-32.4 14.4-12.5 29.3-23.9 44.7-34.3 15.4-10.4 27.3-19.7 35.5-27.9 8.1-8.3 19.2-8.9 33.2-1.7zm-57.1 296.4h15.9c0-19.5-2.1-36-6.3-49.5-4.2-13.5-15.2-22-33-25.4 16.8 10.6 24.7 35.5 23.4 74.9z"/></svg>