<svg xmlns="http://www.w3.org/2000/svg" viewBox="-10 0 595 995"><path d="M-10 995v-43l103-44-45-208q-3-13-6.5-33T38 629q0-25 15.5-43.5T94 567q25 0 38 8.5t30 29.5l104 128 21-190q4-40 18-67t34-41l-6-47-22 7-55 75-35-30 64-58-16-43-32-2 43-95q-10-5-20.5-11T249 214q0-8 3.5-12.5t3.5-7.5q0-5-6-5h-9q-2 0-5-.5t-3-3.5q0-2 8.5-8t22.5-6q11 0 16.5 6.5T286 190q0 11-5 12.5t-5 9.5q0 6 4.5 9t7.5 4q5-16 19.5-47t38.5-63q24-32 57-51-1-4-1.5-7.5T401 50q0-21 15-35.5T451 0q22 0 36.5 15T502 50q0 22-14 34 8 17 16 50.5t8 71.5q0 37-10.5 76T476 355q52 18 75 44t28.5 56q5.5 30 5.5 56v43h-73v-48q0-37-12.5-66.5T459 388l-16-3-6 49q23 14 38 43t15 75v366l79 34v43zm460-628q17-37 30-79t13-82q0-43-11-78.5T463 79q19-13 19-29 0-12-8.5-21.5T451 19q-12 0-21.5 9T420 50q0 5 2 10t5 13q-36 18-61 50t-40 63q-15 31-20 44l125 31-17 97zm-95 60q8-3 16-5t16-2q14 0 31 5l6-45-31-8 17-97-114-28-35 77 19 1 21 55 45-14zm-29-137q-21 0-35-12 5-6 14.5-8t11.5-2q12 0 18.5 4.5T349 288q-7 1-12.5 1.5t-10.5.5zm206 247h33v-33q0-21-5.5-46.5t-26-49Q513 385 469 370l-2 5q40 27 52.5 60.5T532 501zM9 975h541v-12l-78-34V551q0-50-21.5-80.5T386 440q-27 0-49.5 23T307 545l-26 218-12 4-118-145q-10-13-24-24.5T97 586q-19 0-30 12.5T56 629q0 15 5 37.5t8 36.5l47 212L9 963z" fill="currentColor"/></svg>