<svg xmlns="http://www.w3.org/2000/svg" viewBox="-10 0 784 995"><path d="M180 995v-43l103-44-45-208q-3-13-6.5-33t-3.5-38q0-20 9-35l-16-54 9-15h20L141 347 87 606l-19-4 6-27-23-5-5 27-17-4 5-27-12-3-14 25-18-4 144-281 138 222h26l59 87 99 121 21-190q4-40 18-67t34-41l-6-47-22 7-55 75-35-30 64-58-16-43-32-2 43-93q-10-5-20.5-11T439 216q0-8 3.5-12.5t3.5-7.5q0-5-6-5h-10q-1 0-4-.5t-3-3.5q0-3 8-8.5t23-5.5q11 0 16.5 6.5T476 192q0 11-5.5 12.5T465 214q0 6 4.5 8.5t7.5 4.5q6-17 20.5-48.5t38-63.5Q559 83 593 64q-1-4-1.5-7.5T591 50q0-21 15-35.5T641 0q22 0 36 15t14 35q0 22-13 34 8 17 16 50.5t8 71.5q0 37-10.5 76T666 355q52 18 74.5 44t28 56q5.5 30 5.5 56v43h-72v-48q0-37-12.5-66.5T649 388l-16-3-6 49q23 14 38 43t15 75v366l79 34v43zm460-628q17-37 30-79t13-82q0-43-11-78.5T653 79q19-13 19-29 0-12-8.5-21.5T641 19q-12 0-21.5 9T610 50q0 5 2 10t5 13q-36 18-61.5 50t-40 63Q501 217 496 230l125 31-17 97zm-95 60q8-3 16-5t16-2q14 0 31 5l6-45-31-8 17-97-114-28-35 77 19 1 21 55 45-14zm-29-137q-21 0-35-12 5-6 14.5-8t11.5-2q12 0 18.5 4.5T539 288q-7 1-12.5 1.5t-10.5.5zm206 247h33v-33q0-21-5.5-46.5t-26-49Q703 385 659 370l-2 5q40 27 52.5 60.5T722 501zM79 558l38-182-87 171zm120 417h541v-12l-78-34V551q0-50-21.5-80.5T576 440q-27 0-49.5 23T497 545l-26 218-12 4-118-145q-10-13-24-24.5T287 586q-19 0-30 12.5T246 629q0 15 5 37.5t8 36.5l47 212-107 48zm54-398q15-10 31-10h11.5l9.5 2-17-25h-40l-3 6z" fill="currentColor"/></svg>