<svg xmlns="http://www.w3.org/2000/svg" viewBox="0 0 537.2 594.6"><path d="M360.7 500.6h-22.8l-90.7-116.1c-12.7-20.3-24.2-27.1-34.6-20.3-10.4 6.8-6.3 24.9 12.1 54.3s35.4 75.6 51.1 138.7l-60.9 19h227.8l-16.5-11.4c14.8-65.6 24-136 27.6-211.3 3.6-75.3-3.7-112.6-21.9-112-18.2.6-32.6 13.4-43.2 38.4-15.7 46.4-25 120.1-28 220.7zm47-266.5c5.1-5.5 13.3-8.5 24.7-8.9-10.2-15.2-15.2-27.7-15.2-37.4 11.8-11.4 16.3-19 13.3-22.8-3-3.8-8-3.2-15.2 1.9-14.8-15.7-28.6-21.8-41.2-18.4-3.4 11.8-7.2 19.9-11.4 24.1-4.2 4.2-8.5 10.6-12.7 19l12.1 5.7c0 16.5 6.1 24.2 18.4 23.2 12.1-1.1 21.2 3.5 27.2 13.6zM370.2 170c4.2-10.2 15.4-9.7 33.6 1.3-19.8 9.7-31 9.3-33.6-1.3zM518.1 17.1c-8.9-7.2-18.2-2.8-27.9 13.3-30 16.9-58.8 40.2-86.3 69.8-10.2 13.1-15.7 23.9-16.5 32.4 15.7 3 26 9.1 31.1 18.4 5.5-2.5 11-2.7 16.5-.6s8.5 6.7 8.9 13.6c.4 7-2.5 13.6-8.9 20-6.3 6.3-5.1 14.4 3.8 24.1 2.1-18.2 10.4-38.9 24.7-62.2 21.6-31.7 37-65.2 46.3-100.3 13.6-13.1 16.3-22.6 8.3-28.5zM527.6 5c10.6 11.8 12.4 22.4 5.4 31.7s-13.1 23.5-18.4 42.5c-5.3 19-21.5 49.1-48.5 90.1-8.9 15.2-13.3 29.2-13.3 41.9 35.1 6.8 50.6 42.1 46.3 106h-28.6c1.3 94.8-5.1 173.9-19 237.3l29.8 40H197.6l-2.5-25.4 53.9-21.6c-12.3-48.7-27.5-88.7-45.7-120.3s-26.5-51.7-25.1-60.6c1.5-8.9 9.4-17.3 23.8-25.4 14.4-8 30-5.3 47 8.2l92.6 118.7c3.4-97.3 16.1-166.3 38.1-206.9 10.6-20.7 10.2-30.5-1.3-29.2-18.6-1.7-27.3-6.9-26-15.5s-1.7-14.1-8.9-16.2c-7.2-2.1-6.3-9.3 2.5-21.6 8.9-12.3 12.9-20.3 12.1-24.1-.4-3 .6-6.1 3.2-9.5-6.8-2.5-10.8-8.8-12.1-18.7-1.3-9.9.3-16.3 4.8-19 4.4-2.7 4.8-3.9 1-3.5-3.8.4-6.2-.4-7.3-2.5-1.1-2.1-.3-3.8 2.2-5.1 2.5-1.3 5.5-2.3 8.9-3.2 3.4-.8 6.5-.1 9.2 2.2 2.7 2.3 4.3 4.8 4.8 7.3.4 5.1-1.5 10.4-5.7 15.9s-3.2 10.2 3.2 14c3-11.8 7.4-22.3 13.3-31.4s16.1-19.9 30.5-32.4c14.4-12.5 29.3-23.9 44.7-34.3 15.4-10.4 27.3-19.7 35.5-27.9 8.2-8.1 19.3-8.7 33.3-1.5zm-57.1 296.4h15.9c0-19.5-2.1-36-6.3-49.5-4.2-13.5-15.2-22-33-25.4 16.8 10.6 24.7 35.5 23.4 74.9z"/><path d="M95.4 185.1L28.5 319.6l32 15.2 34.9-149.7zm.9-31.5l119.5 203-13.3 7.5-97.3-165.4-39.7 173.4-11.5-4.9 3.7-15.6-7.6-3.6-5.3 15-10.1-3.8 5.6-15.7-6.2-3.4-6.7 15-9.3-3.6 6.5-15.2-5.4-2.7-6.3 12.4L0 341.4l96.3-187.8z"/></svg>