<svg xmlns="http://www.w3.org/2000/svg" viewBox="-10 0 597 1016"><path d="M-10 1016v-43l103-44-45-208q-3-13-6.5-33T38 650q0-22 14.5-42T94 588q27 0 41 11t27 27l104 128 21-190q4-40 18-67t34-41l-6-47-22 7-55 75-35-30 64-58-16-43-32-2 50-108-7-49 3-5 169 7-97-107q-11-13-19.5-26T327 40q0-16 11-28t30-12q17 0 26.5 9.5T404 33q0 13-8.5 20.5T377 61h-10V44h7q11 0 11-12 0-5-4-9.5T368 18q-21 0-21 21 0 13 6 23t16 22l101 112 68-186h49L470 374q55 18 79 44.5t30 56.5q6 30 6 57v43h-73v-48q0-37-12.5-66.5T459 409l-16-3-6 49q23 14 38 43t15 75v366l79 34v43zm457-628L562 30h-13l-66 179-21 12-160-7 4 37 83 25q5-4 10.5-7t13.5-3q13 0 20 9.5t7 20.5q0 6-4.5 18T421 333l-9 46zm-92 60q8-3 16-5t16-2q14 0 31 5l6-45-31-8 11-65q11-8 14.5-17.5T422 297q0-3-1.5-8.5T411 283q-11 0-20 13l-95-28-35 77 19 1 21 55 45-14zm-29-137q-21 0-35-12 5-6 14.5-8t11.5-2q12 0 18.5 4.5T349 309q-7 1-12.5 1.5t-10.5.5zm206 247h33v-33q0-21-5.5-46.5t-26-49Q513 406 469 391l-2 5q40 27 52.5 60.5T532 522zM9 996h541v-12l-78-34V572q0-50-21.5-80.5T386 461q-27 0-49.5 23T307 566l-26 218-12 4-118-145q-10-13-24-24.5T97 607q-19 0-30 12.5T56 650q0 15 5 37.5t8 36.5l47 212L9 984z" fill="currentColor"/></svg>