<svg xmlns="http://www.w3.org/2000/svg" viewBox="0 0 380.7 619.1"><path d="M175.3 528.9h-21.9L66.3 417.4c-12.2-19.5-23.3-26-33.2-19.5-10 6.5-6.1 23.9 11.6 52.1 17.7 28.2 34 72.6 49.1 133.1l-58.5 18.3H254l-15.8-11c14.2-63 23.1-130.6 26.5-202.9 3.5-72.3-3.6-108.2-21-107.5-17.5.6-31.3 12.9-41.4 36.9-15.2 44.6-24.1 115.3-27 212zM220.4 273c4.9-5.3 12.8-8.1 23.8-8.5-9.7-14.6-14.6-26.6-14.6-36 11.4-11 15.6-18.3 12.8-21.9-2.8-3.7-7.7-3-14.6 1.8-14.2-15-27.4-20.9-39.6-17.7-3.2 11.4-6.9 19.1-11 23.2-4.1 4.1-8.1 10.2-12.2 18.3l11.6 5.5c0 15.8 5.9 23.3 17.7 22.2 11.7-1 20.5 3.3 26.1 13.1zm-35.9-61.6c4.1-9.7 14.8-9.3 32.3 1.2-19.1 9.4-29.9 9-32.3-1.2zm96.3 126.2H296c0-18.7-2-34.5-6.1-47.5s-14.6-21.1-31.7-24.4c16.3 10.1 23.8 34.1 22.6 71.9zm-29.3-94.5c2.4-7.7 5.3-15.1 8.5-22.2s39-72 107.2-194.7l-7.3-4.3c-47.9 88.2-81.4 131.8-100.5 131h-81l7.9 28c21.1.4 36 5.7 44.5 15.8 14.2-4.5 21.3-1.3 21.3 9.4 0 10.8-4.5 20-13.4 27.7 5.7 13.2 10 16.2 12.8 9.3zm-60.3 27.4l-25.6 50.6c-12.6 21.9-27.4 26-44.5 12.2 1.2-5.7 4.4-7.9 9.4-6.7 5.1 1.2 10.5-.8 16.1-6.1l24.4-54.2c-3.2-2-4.5-5.3-3.7-9.7 1.2-8.5-1.6-13.8-8.5-15.8s-6.1-8.9 2.4-20.7c8.5-11.8 12.4-19.5 11.6-23.2.8-2.8 1.6-5.1 2.4-6.7L163 140.8h67C190 88.4 170.9 53 172.9 34.7c0-20.3 11.6-31.9 34.7-34.7 21.9 4.1 33.3 14.2 34.1 30.5 1.2 6.9-2.8 16.5-12.2 28.6l-6.1-3.7 3.7-18.9c0-12.6-5.9-19.5-17.7-20.7-14.2-1.2-21.3 5.7-21.3 20.7 3.7 27.6 27 62.6 70.1 104.8 17.9-1.2 50.4-45.9 97.5-134.1l25 16.5c-78 139.3-118.8 215.9-122.5 229.7 37.4 4.9 54 38 50 99.3h-27.4c1.2 91-4.9 167-18.3 227.9l28.6 38.4H18.7l-2.4-24.4L68.1 574c-11.8-46.7-26.4-85.2-43.9-115.5-17.4-30.2-25.5-49.6-24-58.2 1.4-8.5 9-16.7 22.9-24.4s28.8-5.1 45.1 7.9l89 113.9c3.2-93.4 15.4-159.6 36.6-198.6 10-19.8 9.2-29.4-2.6-28.6z"/></svg>