<svg xmlns="http://www.w3.org/2000/svg" viewBox="-10 0 630.083 1016"><path d="M23.083 1016v-43l104-44-46-208q-3-13-6.5-33t-3.5-38q0-21 10-35l-16-54 8-15h19V324q0-34-9.5-50t-25.5-21q-3 5-5.5 9.5t-4.5 8.5q-12 25-15 47.5t-3 34.5h-26q-4-9-8-25t-5-32q-1-23 10-51t24-50q11-18 19-33t11-27q2-10 3-20t1-17h26q5 8 10.5 25.5t4.5 38.5q0 16-7.5 32t-15.5 31q12 6 29.5 28t17.5 74v219h19l58 87 99 121 21-190q5-40 19-67t33-41l-6-47-22 7-54 75-36-30 64-58-16-43-31-2 49-108-7-49 3-5 169 7-97-107q-11-13-19.5-26t-8.5-30q0-16 11-28t30-12q17 0 27 9.5t10 23.5q0 13-9 20.5t-19 7.5h-10V44h7q11 0 11-12 0-5-4-9.5t-13-4.5q-21 0-21 21 0 13 5.5 23t16.5 22l102 112 67-186h49l-116 364q55 18 78.5 44.5t29.5 56.5q6 30 6 57v43h-73v-48q0-37-12.5-66.5t-40.5-51.5l-15-3-7 49q23 14 38.5 43t15.5 75v366l79 34v43zm457-628l115-358h-12l-66 179-22 12-160-7 4 37 83 25q12-10 24-10 13 0 20 9.5t7 20.5q0 6-4 18t-15 19l-9 46zm-469-59h5q-1-20 5.5-41.5t12.5-34.5q5-13 15-27.5t15-22.5q6-13 11.5-30t1.5-42h-5q-1 17-9 35t-17 32q-7 12-17 30.5t-15 35.5q-8 33-3 65zm377 119q8-3 16-5t16-2q14 0 31 5l6-45-31-8 11-65q10-8 14.5-17.5t4.5-13.5q0-3-2-8.5t-10-5.5q-11 0-20 13l-95-28-34 77 19 1 20 55 45-14zm-29-137q-20 0-35-12 5-6 14.5-8t12.5-2q20 0 31 20-7 1-12.5 1.5t-10.5.5zm206 247h33v-33q0-21-5.5-46.5t-25.5-49q-20-23.5-64-38.5l-3 5q41 27 53 60.5t12 65.5zm-522 438h540v-12l-78-34V572q0-50-21-80.5t-65-30.5q-27 0-49.5 23t-29.5 82l-26 218-12 4-117-145q-11-13-24.5-24.5t-30.5-11.5q-18 0-29.5 12.5t-11.5 30.5q0 15 5 37.5t8 36.5l47 212-106 48zm53-398q7-4 14.5-7t17.5-3h11l10 2-18-25h-40l-3 6z" fill="currentColor"/></svg>