<svg xmlns="http://www.w3.org/2000/svg" viewBox="0 0 489.3 594.4"><path d="M329.9 43.2c-2.4 1 6.9 3.6 27.8 7.8 16.2 3.3 25.2 10.2 27.1 20.7 5.2-4.8 10.9-7.1 17.1-7.1 13.8 1.4 21.4 10.7 22.8 27.8-14.3 24.7-23.5 49.9-27.8 75.6 12.4 8.6 29.7 12.4 52.1 11.4 16.2 2.4 23.1-18.5 20.7-62.8-2.4-49.4-14.6-79.2-36.7-89.1-22.1-10-42.5-15.2-61.3-15.7-18.9-.5-32.8 10-41.8 31.4zm49.2 134c6.2-31.4 12.6-53.7 19.3-67 10.5-16.2 13-26.3 7.5-30.3s-12.5-1.5-21 7.5c-5.2 0-11.2-7.1-17.8-21.4-20-5.2-34.7-8.6-44.2-10l-25 43.5c5.7 7.1 8.3 12.1 7.8 15 14.3 1.4 21.4 4 21.4 7.8 0 1.9-6.9 3.6-20.7 5l3.6 5v11.4c1.4 5.2 6.4 6.4 15 3.6 21.9-10 36.6-8.1 44.2 5.7l-2.1 39.9c15.2 9 34.5 9 57.8 0-14.4 1-29.6-4.3-45.8-15.7zm48.5 34.3c-25.2 10.5-46.8 10.7-64.9.7-5.7 13.3-12.5 39.8-20.3 79.5-7.8 39.7-15.1 86.2-21.7 139.4-4.3 19.5-13.5 24.5-27.8 15L265 411.8l-72-108.4c-21.9-16.2-33-11.2-33.5 15L213 479.6c12.8 29.9 18.4 51 16.8 63.1-1.7 12.1-5.1 20.8-10.3 26h211.1c-18.1-18.1-23.3-41.4-15.7-69.9 7.6-28.5 14.5-68.9 20.7-121.2 6.2-52.3 8.4-90.9 6.8-115.9-1.8-24.9-6.7-41.7-14.8-50.2zm-274.5 10.7l2.9 9.3c12.4 6.7 22.3 17.8 29.9 33.5l20.7 22.1L300 424c20-132.2 37.3-213.7 52.1-244.6h-.7c2.9-9 2.4-18.1-1.4-27.1-10.9 1.4-20 4.3-27.1 8.6l-7.8 25c-14.3 2.4-24.2-.2-29.9-7.8l15-32.1c0-6.2-2.4-11.9-7.1-17.1l-.7-6.4.7-2.9c0-6.2-3.3-10.5-10-12.8-1.9-2.4-2.9-4.8-2.9-7.1 3.3-6.7 9.5-16.6 18.5-29.9 6.2-9 14.4-23.4 24.6-43.1C333.5 7 352.9-1.7 381.4.7c45.6 4.8 74.8 18.1 87.4 39.9 12.6 21.9 19.5 54.2 20.7 97 1.2 42.8-13.4 63.5-43.9 62 13.8 15.7 18.5 49.2 14.3 100.5-6.7 97.5-14.4 160.1-23.2 187.9-8.8 27.8-.8 56.7 23.9 86.6 9.5 8.6 9.5 15.2 0 20H177.3c-6.2-7.1-3-14.4 9.6-21.7 12.6-7.4 19.6-16.5 21-27.5 1.4-9.5-21.2-83.7-67.7-222.5-6.2-18.1-6.4-29.9-.7-35.7-16.6-27.1-17.8-45.2-3.6-54.2l-.7-2.1 17.9-8.7zM332.8 68.1c3.8 0 12.8 3.1 27.1 9.3v2.1h-13.5l-18.5 2.9c-7.6-1-11.4-2.1-11.4-3.6 2.7-6.6 8.2-10.2 16.3-10.7zM167.3 180.8c-6.2-9-15.9-8.8-29.2.7l10.7 30.7c18-11.9 24.2-22.4 18.5-31.4zm-67 43.5c11.4 1.9 22.1.5 32.1-4.3l-9.3-27.1-.7-.7c-11.9 9.5-19.3 20.2-22.1 32.1zm79.1-51.3c10.5 15.2 1.7 31.9-26.4 49.9-18.1 10.9-37.6 16.4-58.5 16.4-6.2 1.9-10.9 5-14.3 9.3-13.8 37.1-14 81.5-.7 133.3l-15 3.6c-11.9-43.7-13.1-86.5-3.6-128.4-37.6 18.1-51.6 52.1-42.1 102l-15 4.3C-9.5 304.9 10.2 263.3 63 238.6c8.1-4.3 15.2-9 21.4-14.3 9-19.5 20.2-34.2 33.5-44.2-3.8-11.4-5.9-22.8-6.4-34.2-1-13.3.6-24.2 4.6-32.8 4-8.6 8.1-15.2 12.1-20 4-4.8 9.6-7.4 16.8-7.8 3.8 7.1 1.9 15.2-5.7 24.2s-11.4 18.1-11.4 27.1c0 8.1 1.9 19 5.7 32.8 20.6-12.8 35.9-11.7 45.8 3.6z"/></svg>