<svg xmlns="http://www.w3.org/2000/svg" viewBox="-10 0 640 1001"><path d="M4 1001v-43l104-44-49-232q-3-13-7-33.5T48 610q0-17 10-34l-17-58 8-15h25l-20-65-25 47-18-8 28-53-47 5-2-19 54-6-17-54q-2-9-6-24.5T17 294q0-19 8.5-34.5T55 244q14 0 21.5 5.5T88 262l-16 10q-2-4-5.5-6T56 264q-11 0-15 8.5T37 294q0 14 3 28.5t5 21.5l14 43 10-21q5-9 14-23t22.5-24.5Q119 308 140 308t34.5 11q13.5 11 13.5 33 0 23-12 36t-28.5 20q-16.5 7-31.5 8l-47 5 26 82h23l61 91 99 121 25-303q3-33 19-55.5t37.5-39Q381 301 400 286l-6-54-22 8-55 75-35-30 64-58-17-43-31-2 50-110 2-13q7-28 27.5-43.5T437 0q55 0 96 26t52 83l20 185h-54v630l79 34v43zm475-726h106l-19-166q-6-34-27.5-53.5t-49.5-28Q461 19 438 19q-25 0-44 10t-27 33l78 44q5-4 11-7t13-3q13 0 20.5 9.5T497 126q0 7-5 19t-15 19zM24 981h586v-12l-78-34V294h-74l3-135q10-8 14-17.5t4-13.5q0-3-1.5-8.5T468 114q-11 0-21 12l-85-48-40 91 19 1 20 55 47-15 11 87q-33 22-62.5 48T323 411l-30 333-13 5-117-145q-10-13-24-24.5T108 568q-18 0-29 12t-11 31q0 15 5 37.5t8 36.5l49 236-106 48zm362-846q-11 0-19-3.5t-15-8.5q5-6 14.5-8t11.5-2q19 0 32 20-7 1-13 1.5t-11 .5zM73 401l41-4q17-2 36-12t19-33q0-11-8-17.5t-21-6.5q-23 0-35 18t-18 29zm0 158q16-11 33-11 11 0 22 3l-20-29H67l-2 6z" fill="currentColor"/></svg>