<svg xmlns="http://www.w3.org/2000/svg" viewBox="0 0 414.8 594.4"><path d="M272.1 45.8c-2.4.5 6.4 2.8 26.3 7.1 16.1 3.3 25.1 10.2 27 20.6 5.2-4.7 12.8-6.8 22.7-6 9.9.7 14.9 5.8 14.9 15.3s-4.3 21.3-12.8 35.5c4.3 25.1 12.1 37.7 23.4 37.7 12.8 0 21.3-23.2 25.6-69.6 0-31.3-9.9-51-29.8-59.3-19.9-8.3-38.6-12.4-56.1-12.4-17.5-.1-31.2 10.3-41.2 31.1zm61.9 66.1c10.4-11.8 15-20.5 13.9-25.9-1.2-5.4-3.7-6.5-7.5-3.2-4.7 4.3-9.7 6.4-14.9 6.4-5.2 0-11.1-7.1-17.8-21.3-19.9-5.2-34.6-8.5-44.1-9.9l-24.9 43.3c5.7 7.1 8.3 12.1 7.8 14.9 14.2 1.4 21.3 4 21.3 7.8 0 1.9-6.9 3.6-20.6 5l6.4 11.4c-.5 8.5 6.9 9.6 22 3.2 15.2-6.4 26.5-2.7 34.1 11 2.4 10.9.9 24.4-4.3 40.5 16.6 8.5 36.7 7.8 60.4-2.1-14.6-15.2-25.2-42.2-31.8-81.1zm41.2 96.7c-29.8 13.3-54.7 14.9-74.6 5-4.7 13.3-10.8 39.7-18.1 79.2-7.3 39.6-14.3 85.9-21 138.9-4.3 19.4-13.5 24.4-27.7 14.9l-27.7-34.1-71.8-108c-18.9-10.9-30.1-5.9-33.4 14.9L154.2 480c12.8 29.8 18.4 50.8 16.7 62.9-1.7 12.1-5.1 20.7-10.3 25.9h210.3c-18-18-23.2-41.2-15.6-69.6 7.6-28.4 14.4-68.7 20.6-120.8 6.2-52.1 8.9-91.2 8.2-117.2-.8-26.1-3.7-43.6-8.9-52.6zM259.4 77.1c1.9-5.2 5.7-7.7 11.4-7.5 5.7.2 15.6 3 29.8 8.2v1.4c-11.4 3.3-21 5.3-28.8 6-7.8.8-12-1.9-12.4-8.1zM51.2 274.6c24.6-15.6 27.5-35.3 8.5-59L17.1 158C5.7 144.4 0 130.6 0 116.9 2.8 98.4 12.6 93 29.1 100.6c12.8 8.5 22 20.1 27.7 34.8l32 86c6.2 19.9 15.3 31.9 27.4 35.9 12.1 4 22.4 14.3 30.9 30.9h.7l93.1 136.4c19.9-131.7 37.2-212.9 51.9-243.7h-.8c2.8-9 2.1-17.3-2.1-24.9-14.7 5.2-26.5 8.5-35.5 9.9-9 1.4-13.5-2.8-13.5-12.8 0-9.9-2.4-17.5-7.1-22.7l-2.1-5 2.1-4.3c0-6.2-3.3-10.4-9.9-12.8-1.9-2.4-2.8-4.7-2.8-7.1 3.3-6.6 9.5-16.6 18.5-29.8 6.2-9 14.4-23.7 24.9-44.1C274.7 7 294.2-2 322.6.4c45 4.7 72.1 16.3 81.4 34.8 9.2 18.5 12.6 43.2 9.9 74.3-2.6 31-14.3 54.1-35.2 69.3C398.1 202 405.2 242.7 400 301c-6.6 97.1-14.3 159.5-23.1 187.2-8.8 27.7-.8 56.5 23.8 86.3 9.5 8.5 9.5 15.2 0 19.9h-282c-6.2-7.1-3-14.3 9.6-21.7 12.6-7.3 19.5-16.5 21-27.4 1.4-9.5-21.8-86-69.6-229.5 1.3-7.5-8.2-21.3-28.5-41.2zm39 12.8c18.5-4.7 25.8-9.5 22-14.2-3.8-4.7-11.5-6.6-23.1-5.7-11.5 1-11.2 7.6 1.1 19.9z"/></svg>