<svg xmlns="http://www.w3.org/2000/svg" viewBox="0 0 382.2 594.4"><path d="M366.1 283.5c.5-36.1-6.4-64.9-20.7-86.3l-9.3 12.8c6.2 4.8 10.2 29.2 12.1 73.4h17.9zM218.5 43.2c-2.4 1 6.9 3.6 27.8 7.8 16.2 3.3 25.2 10.2 27.1 20.7 5.2-4.8 10.9-7.1 17.1-7.1 13.8 1.4 20.7 8.1 20.7 20 0 7.1-4.3 17.8-12.8 32.1 6.7 29 15.9 43.7 27.8 44.2 7.1-4.3 12.5-14.6 16-31 3.6-16.4 5.3-31.5 5.3-45.3 0-31.4-9.9-51.2-29.6-59.5-19.7-8.3-39-12.7-57.8-13.2-18.7-.6-32.6 9.9-41.6 31.3zm63.4 67c10.5-11.9 15.7-20.7 15.7-26.4-1.9-2.9-4-4.3-6.4-4.3-6.7 5.2-12.6 7.8-17.8 7.8-5.2 0-11.2-7.1-17.8-21.4-20-5.2-34.7-8.6-44.2-10l-25 43.5c5.7 7.1 8.3 12.1 7.8 15 14.3 1.4 21.4 4 21.4 7.8 0 1.9-6.9 3.6-20.7 5l3.6 5v11.4c1.4 5.2 6.4 6.4 15 3.6 21.9-10 36.6-8.1 44.2 5.7l-2.1 39.9c15.2 9 34.7 8.6 58.5-1.4-14.8-15.1-25.5-42.2-32.2-81.2zm34.3 101.3c-25.2 10.5-46.8 10.7-64.9.7-5.7 13.3-12.5 39.8-20.3 79.5-7.8 39.7-15.1 86.2-21.7 139.4-4.3 19.5-13.5 24.5-27.8 15l-27.8-34.2-72-108.4c-21.9-16.2-33-11.2-33.5 15l53.5 161.2c12.8 29.9 18.4 51 16.8 63.1-1.7 12.1-5.1 20.8-10.3 26H319c-18.1-18.1-23.3-41.4-15.7-69.9 7.6-28.5 14.5-68.9 20.7-121.2 6.2-52.3 8.4-90.9 6.8-115.9s-6.5-41.8-14.6-50.3zM74.4 264.9L95.1 287l93.4 137c20-132.2 37.3-213.7 52.1-244.6h-.7c2.9-9 2.4-18.1-1.4-27.1-10.9 1.4-20.9 4.8-29.9 10l-6.4 13.5c-10 3.8-15.7.5-17.1-10l3.6-23.5c0-3.8-2.4-8.3-7.1-13.5l-.7-6.4.7-2.9c0-6.2-3.3-10.5-10-12.8-1.9-2.4-2.9-4.8-2.9-7.1 3.3-6.7 9.5-16.6 18.5-29.9 6.2-9 14.4-23.4 24.6-43.1C222 6.9 241.4-1.8 269.9.6c45.6 4.8 73.1 16 82.4 33.9 9.3 17.8 13.5 39.7 12.8 65.6-.7 25.9-7.2 49.1-19.6 69.5 27.1 27.6 39.2 71.1 36.4 130.5h-33.5c-6.7 97.5-14.4 160.1-23.2 187.9-8.8 27.8-.8 56.7 23.9 86.6 9.5 8.6 9.5 15.2 0 20H65.9c-6.2-7.1-3-14.4 9.6-21.7 12.6-7.4 19.6-16.5 21-27.5 1.4-9.5-21.2-83.7-67.7-222.5-6.2-18.1-6.4-29.9-.7-35.7-16.6-27.1-17.8-45.2-3.6-54.2l-12.8-39.9C5 174.9 1.2 159.2.3 145.9c-1-13.3.6-24.2 4.6-32.8 4-8.6 8.1-15.2 12.1-20 4-4.8 9.6-7.4 16.8-7.8 3.8 7.1 1.9 15.2-5.7 24.2s-11.4 18.1-11.4 27.1c0 8.6 2.6 22.3 7.8 41.4l20 53.5c12.3 6.6 22.3 17.8 29.9 33.4zM221.3 68.1c3.8 0 12.8 3.1 27.1 9.3v2.1h-13.5l-18.5 2.9c-7.6-1-11.4-2.1-11.4-3.6 2.8-6.6 8.2-10.2 16.3-10.7z"/></svg>