<svg xmlns="http://www.w3.org/2000/svg" viewBox="-10 0 626 1001"><path d="M-10 1001v-43l103-44-48-232q-3-13-7-33.5T34 610q0-17 10-34l-18-58 9-15h24L8 338q-13-43-5.5-68.5T40 244q13 0 21 5.5T73 262l-17 10q-1-4-4.5-6T40 264q-21 0-21 22t8 47l52 170h25l61 91 99 121 25-303q3-33 19-55.5t37.5-39Q367 301 386 286l-7-54-21 8-55 75-35-30 64-58-17-43-31-2 50-110 2-13q7-28 27.5-43.5T423 0q55 0 96 26t52 83l20 374h-54v441l79 34v43zm455-537h125l-18-355q-6-34-27.5-53.5t-49.5-28Q447 19 424 19q-25 0-44 10t-27 33l78 44q5-4 11-7t13-3q13 0 20.5 9.5T483 126q0 7-5 19t-15 19zM9 981h587v-12l-78-34V483h-97l25-324q11-8 15-17.5t4-13.5q0-3-2-8.5t-9-5.5q-7 0-11.5 3t-9.5 9l-85-48-40 91 19 1 20 55 47-15 11 87q-33 22-62.5 48T309 411l-31 333-12 5-117-145q-10-13-24-24.5T94 568q-18 0-29 12t-11 31q0 15 4.5 37.5T66 685l50 236L9 969zm363-846q-11 0-19-3.5t-16-8.5q5-6 14.5-8t12.5-2q19 0 32 20-7 1-13 1.5t-11 .5zM59 559q14-11 33-11 12 0 21 3l-20-29H53l-3 6z" fill="currentColor"/></svg>