<svg xmlns="http://www.w3.org/2000/svg" viewBox="0 0 453.7 594.6"><path d="M212.4 54.9V19.4h-193V213h35.5V54.9h157.5zm180.2 310.9l-44.9 14.7 8 22.8c.9 5.8-1.1 8.3-6 7.4-33.5-17-63-26.6-88.4-28.8-8 0-11.8 2.9-11.4 8.7 4.5 13.8 31.7 33.9 81.7 60.3 29.9 17.9 51.6 28.8 65 32.8 26.8 3.6 40.2-8 40.2-34.8.1-19.6-14.7-47.3-44.2-83.1zm-318.9-14H36.2V233.2H0V0h233.2v34.8h102.5V73h-262v278.8zm310.9 0c-34.4-76.8-76.2-123.7-125.3-140.7-9.8-7.1-16.3-13.3-19.4-18.4-3.1-5.1-2.7-14.7 1.3-28.8 4-14.1 3.1-21.4-2.7-22.1-5.8-.7-10.5 4.1-14.1 14.4-25.9-6.3-40.5-8.7-43.9-7.4-3.4 1.3-5.7 6.9-7 16.8 8-5.8 16.8-8.6 26.1-8.4 9.4.2 12.3 1.7 8.7 4.4-19.2 0-30.8 4-34.8 12.1l-4.7 26.1c8.5 0 11.8 3.6 10.1 10.7 5.4-2.2 9.7-2.9 13.1-2 3.4.9 1.7 4.5-5 10.7 4.9 11.2 14.1 9.6 27.5-4.7 10.7-4.9 19.1-2.1 25.1 8.4s14.4 12.7 25.1 6.7c10.7-6 19-5.1 24.8 2.7 5.8 7.8-6 27.4-35.5 58.6l83.8 77.1 46.8-16.2zm-178.2-63.7c13-15.6 21.9-28 26.8-37.2 4.9-9.2.2-17.8-14.1-25.8-10.7 8.9-18.2 14.1-22.4 15.4s-7.7.1-10.4-3.7c-2.7-3.8-5.5-7.1-8.4-10.1-2.9-2.9-5.2-7.7-7-14.4-2.2-.9-4.9-.6-8 1-3.1 1.6-5.4-1.2-6.7-8.4 5.8-21.9 7.8-36.9 6-44.9 3.1-27.2 12.1-46.5 26.8-57.6 14.7-11.2 30.8-17 48.2-17.4 17.4-.4 30.8 5.8 40.2 18.8 9.4 13 14 27.4 13.7 43.2-.2 15.9-8.4 32.7-24.5 50.6 54 17.4 98.7 68.1 134 152.1 31.7 38 48.5 66.1 50.3 84.4 8.9 40.2-4 62.8-38.9 67.7-17 2.2-43.1-7.6-78.4-29.5-12.5-8-30.2-16.3-52.9-24.8 15.6 8 25.5 42.9 29.5 104.5 15.6 25.9 12.3 39.5-10.1 40.9-11.6-1.3-22.3-1.2-32.2.3-9.8 1.6-22.6 1.5-38.2-.3-13.4-1.8-16.1-5-8-9.7 8-4.7 22.3-10.4 42.9-17.1 8.5-5.4 12.1-16.3 10.7-32.8-14.3-30.8-26.8-61.6-37.5-92.5 3.1 25.5-5.6 61.6-26.1 108.5 8.9 30.8 5.1 44.7-11.4 41.5-17.9-1.8-30.8-1.7-38.9.3-8 2-20.8 3-38.2 3-10.3.9-17.4-.7-21.4-4.7 0-7.1 6.9-12.1 20.8-14.7 13-5.8 25-11.2 36.2-16.1 16.1-5.4 26.6-19.4 31.5-42.2 3.1-55.4 7.4-97.4 12.7-126 2.7-17.4 10.3-27.2 22.8-29.5 33.1 0 67 6.5 101.8 19.4l-85.1-78.4c-8.5 13-18 25.3-28.5 37.2-10.5 11.8-21.3 16-32.5 12.4-22.3-13.4-40.9-32.4-55.6-57-20.1-7.1-33.6-17.3-40.5-30.5-6.9-13.2-4.4-14.9 7.7-5 12.1 9.8 16.2 9.5 12.4-1-3.8-10.5-12.4-19.5-25.8-27.1-6.3-11.6-1.9-15 13.1-10.1s27.4 21 37.2 48.2c8.9 10.7 21.9 22.1 38.9 34.2 19.2 14.3 21.8 12.3 7.7-6-14.1-18.3-28-40.6-41.9-67-17.4-7.6-29.5-17.8-36.2-30.5-6.7-12.7-4-14.2 8-4.4 12.1 9.8 16.2 9.5 12.4-1-3.8-10.5-12.4-19.5-25.8-27.1-6.3-11.6-1.9-15 13.1-10.1s27.4 20.3 37.2 46.2c9.8 14.7 30.8 42.8 63 84.8zm-27.5-105.8c.4-13 9.2-18.1 26.1-15.4l10.1-4.7 1.3 2-10.7 4.7c-11.2 13.8-20.1 18.3-26.8 13.4zm40.9-41.6c10.7-13.8 20.2-17.3 28.5-10.4s10.1 20.2 5.4 39.9c-4.7 19.7-1 21 11.1 4s14.1-34.7 6-53.3c-8-18.5-22.8-25.5-44.2-20.8s-36.2 15.7-44.2 33.2l37.4 7.4z"/></svg>