<svg xmlns="http://www.w3.org/2000/svg" viewBox="-10 0 705 1001"><path d="M-10 1001v-43l82-11q15-2 26-20t12-31l1-232q2-31 25-64t70-42l190-34 21-233q3-34 24.5-52t41.5-34l-4-36-15 5-38 51-23-20 43-40-11-35-21-2 34-80 1-8q4-19 22-29.5T515 0q38 0 69 17.5T623 74l13 255h-43v97l17-9h48l37 20v162q-4 4-13 23t-17.5 41.5Q656 686 656 702q0 17 7.5 34.5t16 31.5q8.5 14 12.5 22l-10 133-16 23-7 55h-83l52-105 1-78-51-135H328l-13 31-10 209-16 23-7 55h-90l54-99-15-201 23-55q-24 3-30.5 19T212 698q-7 21-8 55t-6 58q-2 14-9 47t-12 58l-6 85zm540-692h85L604 74q-5-23-19.5-35T551 23.5Q532 20 516 20q-23 0-32 4.5T472 35l53 30q4-3 7-5t10-2q13 0 18 8.5t5 19.5q0 15-16 25zM5 983h149l5-67q4-23 10.5-57t10.5-57q3-15 5-38.5t4-46q2-22.5 7-34.5 8-22 20-40t49-18h308V329h-66l24-221q8-5 10.5-12t2.5-9q0-2-1-6t-7-4q-8 0-14 9l-58-33-27 66 13 1 13 40 32-11 8 63q-22 16-42.5 33.5T438 291l-25 250-198 33q-30 6-47.5 23t-26 37.5Q133 655 132 672l-2 230q-1 25-18 41t-32 18l-75 9zM481 92q-15 0-24-9 4-4 10-5t8-1q12 0 22 13-5 1-9 1.5t-7 .5zm122 892h38l6-45 16-23 9-122q-7-11-21.5-37T636 702q0-19 8.5-42t18.5-42q10-19 13-25l-1-143-24-14h-33l-25 14v211l56 154-1 85zm-376 0h37l7-45 15-23 9-204 21-48h257v-19H277l-26 62 15 199z" fill="currentColor"/></svg>