<svg xmlns="http://www.w3.org/2000/svg" viewBox="0 0 447 594.7"><path d="M367.9 391.9H191.7c-12.4 0-19.2 11.6-20.5 34.7l1.9 23.6c-1.2 12.4-.6 20.9 1.9 25.4s3.7 20.3 3.7 47.1c0 24-4.9 38.9-14.6 44.7-9.7 5.8-14.6 11.4-14.6 16.7h4.3l5.6-8.7h7.4l-3.7 8.7h13c5.8-5.4 7-10.2 3.7-14.6-3.3-4.3-2-9.7 4-16.1 6-6.4 7.5-16.6 4.7-30.7-.4-15.7 1.2-29.6 5-41.6 3.7-12 5-30.4 3.7-55.2 0-14.5 3.3-21.7 9.9-21.7h159.4l1.4-12.3zm75.7 81.3c2.1 1.7 3.2 3.3 3.4 5 .2 1.7-.6 3.3-2.5 5-1.9 1.7-3.9 5.5-6.2 11.5-2.3 6-3.5 14.9-3.7 26.7-.2 11.8.7 19.7 2.8 23.9 2.1 4.1.4 6.7-5 7.8-5.4 1-8.1 5.1-8.1 12.1 3.7 9.5 2.7 19.4-3.1 29.8h-48.4v-10.5c0-9.1 6-17.4 18-24.8 8.3-6.2 12.8-18.4 13.6-36.6l.6-32.3c-23.2-21.5-36.2-46.3-39.1-74.4H216.5c-6.2.4-9.3 5.4-9.3 14.9 1.2 21.9 0 38.9-3.7 50.9s-5.4 25.8-5 41.6c-.4 10.3.4 17.6 2.5 21.7 2.1 4.1.4 6.7-5 7.8-5.4 1-8.1 5.1-8.1 12.1 3.7 9.5 2.7 19.4-3.1 29.8h-48.4v-10.5c0-9.1 6-17.4 18-24.8 8.7-6.2 13-18.4 13-36.6 0-26.9-1.2-42.6-3.7-47.1s-3.1-13-1.9-25.4l-1.9-23.6c-1.7-31 5-46.5 19.9-46.5H369l9.9-101.7c0-7 2.9-10.5 8.7-10.5h47.1c5-.4 7.4 2.9 7.4 9.9v102.4c-15.7 14.1-23.6 29.6-23.6 46.5.3 18.8 8.5 34.3 25.1 45.9zm-8.1 4.9c-18.2-12.8-27.3-29.8-27.3-50.9 0-18.2 7.4-35.4 22.3-51.5v-89.3c0-4.1-1.7-6.2-5-6.2h-29.2c-4.1 0-6.2 2.3-6.2 6.8l-11.8 120.3c0 30.6 12.8 55.6 38.5 75.1l-1.9 40.3c0 24-4.9 38.9-14.6 44.7-9.7 5.8-14.6 11.4-14.6 16.7h4.3l5.6-8.7h7.4l-3.7 8.7h13c5.8-5.4 7-10.2 3.7-14.6s-2.4-9.7 2.8-16.1c5.2-6.4 7.1-23.1 5.9-49.9.3-5.7 3.8-14.2 10.8-25.4zM281.7 53.8v-3.1l5-4.3c4.5-2.9 10.5-1.4 18 4.3h6.8V55l-6.8-1.9c-7.9 3.3-14.7 3.3-20.5 0l-2.5.7zm4.3-3.1c1.2.4 2.7 1 4.3 1.9-1.2-1.7-1.2-3.3 0-5-2.4.8-3.9 1.9-4.3 3.1zm8.7 1.9h6.8l-6.2-4.3c1.2 1.6 1 3-.6 4.3zm-20.5 16.7c0-.8.2-1.6.6-2.2l.6-.9c.8 0 1.8.7 2.8 2.2 1 1.4 2 2.1 2.8 1.9.8-.2 1.1-.9.9-2.2-.2-1.2 0-1.9.6-1.9s1 .7 1.2 2.2c.2 1.4-.4 2.6-1.9 3.4-1.4.8-2.9.4-4.3-1.2-1.3-1.7-2.5-2.1-3.3-1.3zm11.2 10.6l-9.3 1.2c-.4.4-.6.8-.6 1.2s.8.6 2.5.6c.8-.4 2.1-.9 3.7-1.6 1.6-.5 2.9-1 3.7-1.4zm0-1.9c.4 0-.4-.2-2.5-.6-2.1-.4-3.8-.7-5.3-.9s-2.5 0-3.1.6c-.6.6-.3 1.1.9 1.6l10-.7zm43.4.6c7-8.7 10.5-16.4 10.5-23.3 0-6.8-2.5-10.2-7.4-10.2-3.3 0-5 3.3-5 9.9h-6.2c1.7-14.5-8.9-21.1-31.6-19.9l-3.7 4.3c5.4-2.1 10.4-1.6 15.2 1.6 4.8 3.1 9 4.7 12.7 4.7v3.1c-5.4-.8-10.5-2.5-15.5-5s-9.5-2.5-13.6 0c-4.5 4.5-9.1 12.2-13.6 23 4.5 2.5 6.8 5 6.8 7.4 5 .4 8.4 1.4 10.2 3.1 1.9 1.7-.3 4.3-6.5 8.1-2.1 8.3 2.2 11.7 12.7 10.2 10.5-1.4 15.9.8 16.1 6.8.2 6 .3 10 .3 12.1 5.4 5 11.4 6.2 18 3.7-.4-9-.2-22.2.6-39.6zm1.9 81.9c-1.2-17-2.1-26.7-2.5-29.2-7.9 2.5-15.3 0-22.3-7.4l-9.3 25.4c4.5 6.2 15.9 10 34.1 11.2zm18.6 8.1c-5.8 2.9-14.6 4.1-26.4 3.7-11.8-.4-22-3.3-30.7-8.7-9.9 33.9-13.2 86.4-9.9 157.6-37.2 2.5-66.5 5.8-87.8 9.9-21.3 4.1-38.8 8.9-52.4 14.3-15.7 3.3-24 15.7-24.8 37.2-7.4 37.6-13 73.9-16.7 108.9-3.7 34.9-11.7 57.1-23.9 66.4-12.2 9.3-30.1 17.5-53.7 24.5l.6.6h78.8c14.5-2.9 17-13 7.4-30.4l-.6-21.1c7.4-24.8 15-46.7 22.6-65.8 7.7-19 13.3-40.1 17.1-63.3 2.1-13.2 10.1-20.7 24.2-22.3h144.5c28.9-.8 42.6-39.5 40.9-116v-95.5h-9.2zm21.1 0v150.7c-5 48.4-19.2 72.6-42.8 72.6H171.2c-6.6 3.7-10.6 13.8-12.1 30.1-1.4 16.3-8.4 36.5-20.8 60.5-11.2 30.6-16.5 50-16.1 58.3.4 8.3 2.2 16 5.3 23.3s3.9 13.9 2.5 19.9c-1.4 6-8.2 9.6-20.2 10.9H0c-.4-10.3 5.6-17.2 18-20.5 22.3-7.4 38.8-16.1 49.3-26.1 10.5-9.9 17.7-30.9 21.4-63 3.7-32.1 9.1-66.5 16.1-103.3.8-25.6 10.8-42 29.8-49 17.8-6.6 37.4-11.9 58.9-15.8 21.5-3.9 45.9-7.1 73.2-9.6-1.7-43.4-.9-77.1 2.2-101.1s11.5-52.7 25.1-86.2c5-7.4 6-13.2 3.1-17.4h-5.6l-4.3 21.7h-18l8.1-23c-3.3-1.2-4.8-4.3-4.3-9.3 0-3.3-.9-5.5-2.8-6.5s-1.7-2.3.6-3.7c2.3-1.4 3.2-2 2.8-1.6-3.3-.4-5.2-1.1-5.6-2.2-.4-1 1-2.4 4.3-4-3.3-1.2-6.2-2.3-8.7-3.1-2.5-.8-2.5-4.1 0-9.9 5-9.1 9.5-16.3 13.6-21.7 2.1-7 5-14.3 8.7-21.7 3.7-7.4 12.6-12.8 26.7-16.1 14.1-3.3 30-1.8 47.8 4.7 17.8 6.4 26.6 25.5 26.4 57.4-.2 31.8-2 66.8-5.3 104.8h-11.1zm1.2-11.8c2.5-37.6 3.7-69.3 3.7-94.9s-6.9-41-20.8-46.2C340.6 10.5 327.8 9 316 11c-11.8 2.1-19.1 7.2-22 15.5 19.4.4 30 4.3 31.6 11.8 5.8-2.1 11.1-2.1 15.8 0 4.8 2.1 7 7.7 6.8 16.7-.2 9.1-3.4 17.6-9.6 25.4-2.1 7-1.7 32.5 1.2 76.3h31.8z"/></svg>