<svg xmlns="http://www.w3.org/2000/svg" viewBox="-10 0 715 1001"><path d="M-1 1001v-43l82-11q15-2 26.5-20t12.5-31l1-232q2-31 25-64t69-42l190-34 1-19-154-21-25 26-29 3-33-14-11-22 19-41 18 4-6-25-27-5-17-29 2-9 5-3-8-14 29-20-34-170-50 199-17-4 7-27-21-4-9 26-18-4 11-26-18-4-14 25-16-4L139 99l48 228 235 10 4-46q4-34 25.5-52t40.5-34l-4-36-15 5-37 51-24-20 44-40-12-35-21-2 34-80 1-8q5-19 22.5-29.5T524 0q37 0 69 17.5T632 74l14 255h-44v97l17-9h49l37 20v162q-4 4-13.5 23t-18 41.5Q665 686 665 702q0 17 7.5 34.5t16 31.5q8.5 14 12.5 22l-10 133-16 23-6 55h-84l52-105 1-78-51-135H337l-13 31-10 209-16 23-6 55h-91l54-99-15-201 23-55q-23 3-30 19t-12 33q-7 21-8 55t-5 58q-3 14-10 47t-12 58l-6 85zm541-692h85L613 74q-4-23-19-35t-34-15.5Q541 20 525 20q-22 0-31.5 4.5T481 35l53 30q4-3 7.5-5t9.5-2q13 0 18 8.5t5 19.5q0 15-15 25zM15 983h148l5-67q5-23 11-57t11-57q3-15 4.5-38.5t4-46Q201 695 205 683q8-22 20.5-40t48.5-18h309V329h-66l23-221q7-5 10-12t3-9q0-2-1-6t-7-4q-6 0-14 9l-57-33-28 66 13 1 13 40 32-11 8 63q-22 16-42.5 33.5T447 291l-13 128 80-85 11 10-93 101-21 16-127-3-72-15 1 10 4 6-3 7-32-17-13 27 3 11 26 14 25-4 26-29 178 23 13-3 95-88 12 11-101 93-20 3-4 34-198 33q-29 6-47 23t-26.5 37.5Q142 655 141 672l-2 230q-2 25-18.5 41T89 961l-74 9zM490 92q-15 0-24-9 4-4 10.5-5t7.5-1q13 0 22 13-5 1-8.5 1.5t-7.5.5zM79 316l43-161-87 151zm337 81l4-44-230-11 1 10 16 3 12 21 9-4zm-257-35l13-7-2-8-15 9zm23 40l20-1 11-13-12-20-9-3-17 2-20 11 10 19zm100 41l130-1 3-29-182-25-11 6-12 16-5 3 4 18zm330 541h38l6-45 16-23 9-122q-7-11-21.5-37T645 702q0-19 8.5-42t18.5-42q10-19 13-25V450l-25-14h-33l-25 14v211l56 154-1 85zm-376 0h38l6-45 15-23 10-204 20-48h258v-19H286l-26 62 15 199z" fill="currentColor"/></svg>