<svg xmlns="http://www.w3.org/2000/svg" viewBox="0 0 408.4 611.7"><path d="M306.7 131.7l-9.7 27.8c4.6 6.5 14.5 10.4 29.6 11.8 15.1 1.4 27.5-3.2 37.2-13.9 0-13-5.3-21.6-16-25.7-15.8 12-29.5 12-41.1 0zm-43.2 133.6c-16.7-.9-26.7-2.7-29.9-5.2-3.2-2.6-10.7-5.5-22.3-8.7-6.5.5-9.9 2.1-10.1 4.9-.2 2.8 3.1 5.6 10.1 8.4-2.8 8.4-1.2 14.4 4.9 18.1l48-3.5-.7-14zm3.5-45.9h-26.4c-3.2-2.3-7.2-5.5-11.8-9.4-4.6-3.9-11.4-6.4-20.2-7.3-8.8-.9-13.5-.1-13.9 2.4-.5 2.6 2.3 5.2 8.4 8-2.3 8.4 0 14.1 7 17.4l56.4 2.1.5-13.2zm52.2 138.3c31.5-.9 46.4-25.3 44.5-79.1V172.7c-7.4 8.4-18.9 12.3-34.4 11.8s-28-3.5-37.2-9c-12.1 37.1-16.5 81.9-13.2 134.3-30.2 2.8-56.9 6.4-80.4 10.8-23.4 4.4-42.3 9.6-56.7 15.7-18.6 3.7-26.7 18.1-24.4 43.1-6.5 58-10.2 107.9-11.1 149.6 0 16.7-8.8 30.4-26.4 41.1-9.3 9.7-26.4 18.1-51.5 25.1v.7H114c15.8-2.8 18.6-13.2 8.4-31.3v-23.7c8.4-26.9 15.4-51.3 21.2-73.1 5.8-21.8 8.2-45.7 7.3-71.7-4.6-20.9 3.5-35.7 24.4-38.5h143.9zm-54.3-104.2l.7-9.7H226c6 1.9 10.8 4.1 14.3 6.6 3.4 2.5 11.6 3.5 24.6 3.1zm11.2-217.1l-5.6 9.7 2.1 5.6-15.3 18.8c6 2.3 7.9 5.1 5.6 8.4 2.8.9 4.9 2.3 6.3 4.2h7.7c.5 3.2-1.7 4.8-6.6 4.5-4.9-.2-6.6.6-5.2 2.4 1.4 1.9 1.6 4.2.7 7-.9 2.8 2.9 3.6 11.5 2.4 8.6-1.2 16.4-.6 23.3 1.7 7 2.3 11.4 9.3 13.2 20.9 7.9 8.4 16.5 8.6 25.7.7-22.3-23.2-26.7-42-13.2-56.4 9.7-8.8 13.2-15.2 10.4-19.1-2.8-3.9-5.8-2.4-9 4.5-6.5 7.9-11.6 7.8-15.3-.3-3.9-8.2-15.9-13.2-36.3-15zm70.9 79.3h24.4c2.3-44.1-1-71.7-10.1-82.8-9-11.1-22.5-18.1-40.4-20.9-17.9-2.8-29.8 2.3-35.8 15.3 20.9 3.2 31.8 7.7 32.7 13.2.9 5.6 3 6.1 6.3 1.7 3.2-4.4 7.7-6.3 13.2-5.6 5.6.7 9 4.4 10.4 11.1 1.4 6.7-2.8 14.3-12.5 22.6-11.1 11.3-7.2 26.4 11.8 45.4zM269.8 60l-1.4-2.1 4.9-4.2c4.6-4.2 10.9-3.7 18.8 1.4l8.4 1.4h8.4v4.2l-4.2-.7-11.8-2.1c-7.4 4.2-14.1 4.4-20.2.7l-2.9 1.4zm3.5-2.8c1.4.9 3 1.4 4.9 1.4-1.4-1.4-1.6-3-.7-4.9-1.9 1-3.3 2.1-4.2 3.5zm9.7 1.4c2.3-.5 4.6-1.2 7-2.1l-6.3-2.8c1.4 1.9 1.2 3.5-.7 4.9zM272.6 51c-.9-1.9-1-3.4-.3-4.5.7-1.2 2.3-2.1 4.9-2.8 2.6-.7 5.7-.6 9.4.3 3.7.9 7.1 2.3 10.1 4.2 3 1.9 6.6 3 10.8 3.5l-.7 3.5c-6-.5-10.4-1.4-13.2-2.8-2.8-1.4-5.8-2.6-9-3.5-3.4-1-7.4-.3-12 2.1zM136.2 64.2L45.7 213.8l30.6 18.1 59.9-167.7zm195.6 336.1H166.3c2.3 28.8-1.6 57.1-11.8 84.9-10.7 35.3-16 57.4-16 66.5 0 9 1.6 17.5 4.9 25.4 3.2 7.9 1.9 14.8.5 20.9-1.4 6-8.6 12.8-21.6 13.7H.6c-2.8-11.1 3.7-21.6 19.5-24.9 24.1-7.9 42-17.9 53.6-29.9 11.6-9.3 19.8-22.5 19.3-39.7 1.9-50.6 2.6-96.3 8.2-137.1-5.6-30.6 7.2-49.9 32.2-57.8 19.5-7 40.8-12.6 64-17 23.2-4.4 45.5-7.8 66.8-10.1v-4.9l-52.9 2.8c-9.3-4.2-13.7-11.8-13.2-23-5.6-3.2-8-8.9-7.3-17 .7-8.1 6.4-11.7 17-10.8v-2.8c-11.6-.9-16.9-8.4-16-22.3-9.3-4.2-10.7-12.5-4.2-25.1L145.2 74.6 84.7 249.3c-23.2-8.8-42.2-20.2-57.1-34.1l93.2-146.8c16.7-28.8 27.8-31.8 33.4-9l47.3 130.8c16.2 0 30.6 6.3 43.1 18.8h25.1c3.7-18.1 8.7-36.3 15-54.6 6.3-18.3 12.6-29.6 19.1-33.8-1.4-6.5-4.4-10.3-9-11.5-4.6-1.2-11.8-.8-21.6 1l.7 6.3h-18.8l3.5-10.4c-3.2-3.7-3.5-7.7-.7-11.8-2.3-2.3-2.3-4.6 0-7-4.2-1.4-4.6-3.2-1.4-5.6l-2.1-1.4.7-3.5c-6.5-2.8-8.9-5.2-7.3-7.3 1.6-2.1 6.6-8.7 15-19.8l.7-7.7C272.8 12.2 290-1.7 315 .2c25.1 1.9 43.7 9.5 56 23 12.3 13.5 15.9 48.2 10.8 104.4h-16.7c8.8 7 12.8 21.3 11.8 43.1v104.9h24.7v99l-16.7 64.7c23.2 15.8 29.2 57.8 18.1 126v34.1h-16.3v11.8h-30.5l2-11.1h-19.4c-2.8-22.3 5.3-36.7 24.4-43.1 5.1-33.9.5-60-13.9-78.3-14.4-18.3-22.5-31-24.4-37.9-1.9-6.2.4-19.6 6.9-40.5zm-158.7-27.1c-6 .9-9 5.8-9 14.6H352v.7c-7.4 26.9-10.7 43.1-9.7 48.7.9 5.6 4.4 11.8 10.4 18.8 22.3 20.4 30.9 57.3 25.7 110.6-17.2 4.2-25.5 11.4-25.1 21.6h35.5c0-16.7 2.1-40 6.3-69.9 4.2-29.9-4.6-55.1-26.4-75.5l18.1-69.6v-80.7H377v14.6c-5.6 44.1-21.3 66.1-47.3 66.1H173.1z"/></svg>