<svg xmlns="http://www.w3.org/2000/svg" viewBox="0 0 568.3 594.5"><path d="M302.2 91.3c-.9 0-1.6.1-2.1.2h-.2c-7.6 2.4-6.6 3.1-10.4 5.1l-3.1 11.1c4 1.3 8.5 3.9 12.4 3.9.6 0 1.2-.1 1.7-.2 2.8-.7 30.1-14.2 30.5-14.7 1.4-1.5-21-5.4-28.8-5.4zm52.6-77.6c38.6 0 72.7 27.7 77.7 90.3 2.5 15.4-9 42.3-13.2 44.2-1.1.5-2.3.7-3.6.7-12.1 0-29.5-21.3-30.5-21.4-3.4-.2 15.9-25.7 8.1-43.1-1.4-3.2-6-13.7-18.8-13.7-2 0-4.2.3-6.6.8-1.1.3-2.3.6-3.5 1-7.4 2.5-8.3 9.4-10.8 10h-.2c-1 0 .6-2.8-3.1-8.2-5.9-8.5-26.2-9.6-40.7-9.6-5 0-9.3.1-12.2.1-1.6 0-2.7 0-3.3-.2-2.9-.6-4.7-1.6-2.7-7.2 8.1-22.7 27.1-37.4 48.9-42.7 5-.6 9.8-1 14.5-1zm-64.4 66.2c3.9 0 41.9.4 43.8.9 2.2 0 13.3 19.7 20.9 19.7h.3c1.2-.1 2.3-.3 3.3-.5 10.2-2.5 11-11.9 14.8-12.8.2 0 .4-.1.6-.1h.2c17.3 1 2.4 23.9-8 40.8-4.6 7.5 34.5 33.3 50.5 43.5l-42.1 17.1-4.6 1.2-20.1-19.2c-1-1-3.1-1.6-6-1.6-1.9 0-4.2.3-6.7.9-5.6 1.3-12.5 4.4-19.7 9.9-3.7 2.9-6.9 4.4-9.6 5.1-1 .2-1.8.3-2.6.3-10.1 0-9.7-16.5-9.7-16.5-2.2-1.8-6.4-2.2-7.8-3.5.2 0 3.1-.5 3.4-.5 7.4-1.8 14.8-6.6 16.1-9.5 2.1-1.8-2.8-8-6.3-8h-.3l-16.5 2.1c.2-8.5-10.1-11.2-9.7-13.1L290 79.9h.4zm-99.7 206.3l4.5 2.9c33.5 21.7 45.2 29.6 45.3 30.5 0 .6-.6 1-1.5 1h-.4c-1.1-.1-7.2-.7-13.7-1.3-18.9-1.8-24.4-5.9-30.5-22.7l-3.7-10.4zm-61.5-157.9l4.4 1.1-83.8 195.3-23.2-14.3 102.6-182.1zm188.4 210h.2c1.4 1.4-7.1 18.6-11.5 23.3-1 1-6.4 1.9-13.7 1.9-9.3 0-21.6-1.4-31.8-5.4-4.7-1.9-17.3-3.4-16.9-3.8 1.2-1.2 69.4-16 73.7-16zM426 193.4c19.8 17.9 28.4 64 30.4 171.9.9 49.7-.4 75.8-5 97.9-8.9 42.7-23.7 51.9-84 52.1-14.6.1-39.4 1.1-55.2 2.3-17.2 1.3-40.4 2-60.3 2-16.3 0-30.3-.5-37-1.4-21-3.1-39.6-12.1-45.9-22.3-1.9-3.1-3.2-6-2.8-6.4.4-.4 24.1-6.6 52.7-13.8 96.5-24.3 110.2-30.9 117.9-57.3 3.8-13.1 7.4-33.8 15.1-87.5 10.1-70.6 25.3-101.5 37.6-121.9l36.5-15.6zM127.8 512.2c7.6 0 10.6 1.8 23.3 14 6 5.8 13.3 11.7 16.3 13.3 4.4 2.3 11.2 3.4 26.9 3.4 13.8 0 34.5-.9 66.4-2.5 33.8-1.8 76.5-4 94.9-4.9 18.4-.9 51-2.6 72.3-3.8 17-.9 26.6-1.4 32.6-1.4 7.1 0 9 .7 12 2.2 3.1 1.6 7.6 5.2 10 8 4.3 5.1 13.2 22.3 13.2 25.4 0 .5-.8.7-2.5.7-2.2 0-5.9-.4-11.1-1.2-8.9-1.4-28.3-2.1-48.9-2.1-18.8 0-38.6.6-51.9 1.9-11.1 1-57.7 2.4-103.5 3.1-60.9.9-88.1 1.9-101.2 3.7-10.8 1.5-19.3 2.2-26.5 2.2-11.5 0-19.9-1.9-29.6-6.1-9.7-4.2-16.5-12.6-17.9-22.2-2.4-17.3 9.8-33.7 25.2-33.7zM360.9 0c-7.3 0-17.9.7-29.2 3.4-17.8 4.3-37.4 13.6-49 33.3-6.6 11.4-5.7 21.2-10.8 45.6-3.7 17.7-18.5 54.6-16 59.1 6.5 11.5 14.3.8 17.7 20.6 2.8 16.2 7.8 3.6 13.9 23.4 1.8 5.8 1.2 23.7 1 25.2 2.5 6 7.6 8 12.5 8 1.2 0 2.4-.1 3.6-.3h.1c6.4-1.5 15.9-27.9 18.7-30.1 2-1.6 7.7-3.8 11.6-4.8 1.2-.3 2.2-.5 2.9-.5.3 0 .5 0 .7.1 2.5.7 9.9 9.6 16.2 16.5-1 7.2-3.5 22.8-8.5 34.1-22.7 51.5-45 72.6-67.7 72.6-6.8 0-13.6-1.9-20.5-5.4-18.2-9.3-30.7-11-44-41.1l-12.3-27.9-51.9-136.6-18.5-3.6L0 317.3l55 34.4 85.6-198c1.1 0 42.2 107.2 42.2 107.2l-11.5 3.9c-6.3 2.1-4.8 13.5-6.2 19.7-2.8 12.6 3.2 24.2 25.8 40.3 21.6 15.5 18.8 5.3 15.7 17.3-.1.3-30.9 10.4-31.9 30.9-.7 14.1 7.1 16.7 13.2 16.7 3.5 0 6.5-.9 6.9-.9 1.2 0 23.1 4.1 46.4 4.1 7.4 0 14.9-.4 21.9-1.5 3.1-.5 6.1-.7 9-.7 23.5 0 36.6 14.9 36.9 15.2 1.7 1.6-6.1 12.5-12.8 17.8-15.9 12.5-32.6 18.1-86.5 28.7-58.3 11.5-79.8 18.3-100.2 31.6-19.1 12.4-28.6 26.3-33.2 48.4-4.4 20.9 2.5 42.7 16.7 52.9 7.1 5.1 9.8 5.8 30.1 7.8 6 .6 29.9.8 61 .8 61.4 0 150.9-1 185.6-2.4 29.2-1.2 50.4-1.8 67.7-1.8 19.9 0 34.7.8 51 2.5 14.5 1.5 30.2 2.4 42.1 2.4 1.9 0 3.7 0 5.4-.1 22.1-.6 26.2-2.1 30.7-10.8 5.7-11-2.6-20.2-41.3-45.7-29.3-19.3-45.4-34-48.1-43.7-3-10.9-2-26.2 4.5-67.6 5.6-35.9 6.2-45.6 4.6-75.3-2.5-46.1-8.3-89.8-18.8-142.5L438 168.5c6.4-25.9 13.4-67.8 7.8-87.7C433.3 22 402.4 7.4 370.5.5c-.8-.1-4.4-.5-9.6-.5z"/></svg>