<svg xmlns="http://www.w3.org/2000/svg" viewBox="-10 0 926 1001"><path d="M355 1001q-38 0-64.5-21T264 921q0-40 66-71l196-95 12-119-11 1-187 5-113-1-2-25 35-10-12-7-62 7-7-32 75-17 20 5-7-30-8 2-29-6-19-31 1-11 6-3-9-15 37-28-71-314-52 292-19-5 4-21-33-11-8 21-20-6 8-20-34-11-12 19-19-6L164 77h21l81 359 258 12-2-35q-3-34 12.5-56.5t39-39Q597 301 616 286l-7-54-22 8-54 75-35-30 64-58-17-43-31-2 50-110 2-13q7-28 27.5-43.5T653 0q55 0 96 26t52 83l21 374h-54l-12 139 9 92 18 2v190l48 35 85 15v45h-89l-136-38-234 29q-40 6-68.5 7.5T355 1001zm320-537h127l-20-355q-6-34-27.5-53.5t-49.5-28Q677 19 654 19q-25 0-44 10t-27 33l78 44q5-4 11-7t13-3q13 0 20 9.5t7 20.5q0 7-4.5 19T693 164zM545 751l201-36-9-93 11-139h-97l25-324q11-8 15-17.5t4-13.5q0-3-2-8.5t-9-5.5q-7 0-11.5 3t-9.5 9l-85-48-40 91 19 1 20 55 47-15 11 87q-22 15-44.5 31.5t-37 36.5Q539 385 542 412l7 113 76-81 13 15-121 126-192 19-37-25-34-9-59 11 2 11 56-7 33 20v6l-46 12v3h100l189-8 9-2 148-126 11 15-140 122zm57-616q-11 0-19-3.5t-16-8.5q5-6 14.5-8t12.5-2q19 0 32 20-7 1-13 1.5t-11 .5zM111 372l42-234L31 347zm417 140l-3-46-255-13 3 12 11 3 13 22 10-4zm-297-36l15-8-2-9-17 10zm25 44h8l19-7 8-9-13-22-23-2-7 1-22 13 11 20zm69 69l186-24 20-21-1-14-218-26-11 7-13 18h-1l8 38h-1zm46 332l393-20V731h-8l-220 40-207 98zm458 61h65v-14l-70-9-58-41-405 20-50-60q-29 15-29 41t12.5 39q12.5 13 30 18t32.5 5q16 0 46.5-2t53.5-5l245-28z" fill="currentColor"/></svg>