<svg xmlns="http://www.w3.org/2000/svg" viewBox="0 0 162.6 594.4"><path d="M111.8 140.1c-12-1.3-18.4 2.6-19.3 11.6C73.7 201.8 70.1 262 81.9 332.2c11.8 70.3 18.5 118.4 20.2 144.6 1.7 26.1.9 47.3-2.6 63.6C87.1 556.2 71 568.5 51.3 577H115c6.9-1.3 7.3-10.5 1.3-27.6 0-3 .2-38.1.6-105.4-1.3-59.1.4-103 5.1-131.7 7.3-19.3 6.2-40.9-3.2-64.9 3.9-29.1 4.9-60.4 3.2-93.8.5-7.3-2.9-11.8-10.2-13.5zM64.3 49.5c.9-3.4 3-5 6.4-4.8 3.4.2 9.4 2.2 18 6.1-6.9 1.7-12.6 2.9-17.3 3.5-4.8.7-7.1-.9-7.1-4.8zm57.8 70.7c-8.6-14.6-13.1-31.1-13.5-49.5 6.4-7.3 9.3-12.6 8.7-16.1-.6-3.4-2.5-4.1-5.5-1.9-2.1 2.6-4.9 3.9-8.4 3.9-3 0-6.6-4.3-10.9-12.9-11.6-3-20.3-4.9-26.3-5.8L51.4 63.6c3.9 1.7 6.2 4.7 7.1 9-.9 3.9-.2 7.9 1.9 12.2.4 5.6 5 6.7 13.8 3.5s16.6-1.2 23.5 6.1c.9 8.6 1.3 16.3 1.3 23.1 2.1-2.1 5-3.2 8.7-3.2 3.6.1 8.4 2 14.4 5.9zm-37.3 9l1.9-27.6c-6-3-10.1-3-12.2 0l-18.6 41.1c-4.7 7.3-9.4 8.6-14.1 3.9s-3.2-8.4 4.5-10.9l9.6-34.1c-4.7-1.3-7.4-3.4-8-6.4-.6-3-1.6-9.6-2.9-19.9-.9-3-3.2-5.4-7.1-7.1-1.3-1.3-1.9-2.8-1.9-4.5 1.7-3.9 5.4-9.9 10.9-18 6-7.7 11.6-17.3 16.7-28.9C68.8 5.2 80.7-.4 99.6 0c30.4 3.9 48.3 10.4 53.7 19.6 5.4 9.2 8.2 19.6 8.7 31.2.4 11.6.6 30.8.6 57.8v108h-21.8l-5.1 30.8c10.7 24 12 47.6 3.9 70.7-4.3 5.1-6.4 19.9-6.4 44.3v185.7c9 24.4 8.4 39.8-1.9 46.3H0c0-9.4 7.9-16.1 23.8-19.9 35.1-15.9 55.9-33 62.3-51.4 1.7-15-.6-44-7.1-87.1-6.4-43-13-88.7-19.9-136.9-6.9-48.2-2.1-96.7 14.1-145.5 0-6 3.6-14.1 10.9-24.4h.7zm54-7.7v77.1h10.3v-87.4c0-16.7-.2-35.6-.6-56.5-.4-18.4-6.6-30.1-18.6-35-12-4.9-23.2-7.4-33.7-7.4-10.5 0-18.3 5.1-23.5 15.4-1.3.4 4.1 1.9 16.1 4.5 9.4 2.1 14.8 6.2 16.1 12.2 3-2.6 7.5-3.7 13.5-3.5 6 .2 9.4 3.5 10.3 10 .9 6.9-1.7 14.6-7.7 23.1.2 16.6 6.2 32.5 17.8 47.5z"/></svg>