<svg xmlns="http://www.w3.org/2000/svg" viewBox="-10 0 275 1001"><path d="M42 1001v-52l80-21q16-5 22-11.5t6-18.5q0-15-2-23L64 440q-2-11-3-24.5T60 386q0-36 7.5-69T94 260l-6-49-20 7-47 68-31-27 56-53-13-38H4L47 65l2-12Q63 0 129 0q32 0 63 14.5T244 55q21 26 21 61v257h-15v628zm110-646h94V117q0-32-20.5-53.5t-47.5-33Q151 19 130 19q-22 0-40 8.5T67 56l68 39q4-4 8.5-6.5T157 86q15 0 21.5 9.5T185 115q0 5-4 16t-13 17zM62 981h169V373H129l20-229q9-7 13-15.5t4-12.5q0-3-2.5-8t-9.5-5q-7 0-9 3t-7 9L63 71l-35 82 17 1 18 51 39-14 9 79q-18 20-24.5 53.5T80 385q0 13 1 29.5t3 27.5l82 435q1 8 2 14t1 15q0 20-12.5 28.5T130 947l-68 20zm23-858q-10 0-17.5-3.5T54 111q5-5 13-6.5t10-1.5q18 0 28 18-6 1-11 1.5t-9 .5z" fill="currentColor"/></svg>