<svg xmlns="http://www.w3.org/2000/svg" viewBox="0 0 595.3 162.8"><path d="M140.3 111.3c-1.7-11.6 1.9-17.8 10.9-18.7C201.8 73.7 262.3 70.2 332.7 82c70.4 11.8 118.5 18.6 144.5 20.3 26 1.7 47.3.9 64-2.6 15.9-12.4 28.1-28.5 36.7-48.3v63.7c-1.3 6.9-10.7 7.3-28.3 1.3-2.6-.4-37.5-.2-104.9.6-59.6-1.3-103.8.4-132.6 5.1-19.3 7.3-40.8 6.2-64.4-3.2-29.2 3.9-60.7 4.9-94.6 3.2-6.8.6-11.1-3-12.8-10.8zM49.6 63.7c-3.4 1.3-5 3.6-4.8 7.1.2 3.4 2.3 9.4 6.1 18 1.7-6.9 2.9-12.7 3.5-17.4.6-4.7-1-7.3-4.8-7.7zm70.8 58.6c-14.6-9-31.3-13.5-50.2-13.5-6.9 6-12 8.7-15.4 8-3.4-.6-4.1-2.3-1.9-4.8 2.1-2.1 3.2-4.9 3.2-8.4 0-3-4.1-6.7-12.2-10.9-3-12-5.1-20.8-6.4-26.4l26.4-14.8c1.3 3.9 4.1 6.2 8.4 7.1 3.9-.9 8.2-.2 12.9 1.9 5.6.4 6.7 5 3.2 13.8-3.6 8.8-1.7 16.7 5.6 23.5 9 .9 16.9 1.3 23.8 1.3-2.1 2.1-3.2 5-3.2 8.7 0 3.6 1.9 8.5 5.8 14.5zm9-38l-28.3 1.9c-3-6-3-9.9 0-11.6L142.9 56c6.9-5.1 7.9-10 3.2-14.5s-8.2-3.1-10.3 4.2L101.1 56c-1.3-5.1-3.3-7.9-6.1-8.4-2.8-.4-9.3-1.3-19.6-2.6-3.4-.9-6-3.2-7.7-7.1-.9-1.3-2.1-1.9-3.9-1.9-3.9 1.7-9.9 5.4-18 10.9-7.7 6-17.4 11.5-29 16.4C5.2 68.3-.4 80.4 0 99.8c3.9 30.5 10.4 48.3 19.6 53.4s19.6 8 31.2 8.7c11.6.6 30.9 1 57.9 1h108.1V141l30.9-5.1c23.6 10.3 47.2 11.6 70.8 3.9 4.7-4.3 19.3-6.4 43.8-6.4H549c24.5 9 39.9 8.4 46.3-1.9V0c-9.9 0-16.5 7.9-20 23.8-15.9 35.2-33.3 56-52.1 62.4-15 1.3-44.1-1.2-87.2-7.4s-88.7-12.9-136.8-20c-48.1-7.1-96.5-2.5-145.4 13.8-6 .1-14.1 4-24.4 11.7zM121 139h77.9v10.3h-87.5c-16.7 0-35.6-.2-56.6-.6-18.9-.9-30.8-7.2-35.7-19s-7.3-23-7.1-33.5c.2-10.5 5.5-18.3 15.8-23.5.4-1.3 1.9 4.1 4.5 16.1 2.1 9.4 6.2 14.6 12.2 15.4-3 3.4-4.3 8-3.9 13.8.4 5.8 3.9 9.3 10.3 10.6 6.9.4 14.4-2.1 22.5-7.7 17.1.5 33 6.5 47.6 18.1z"/></svg>