<svg xmlns="http://www.w3.org/2000/svg" viewBox="-10 0 1116 769"><path d="M13 769V628l70-74v-23L46 371v-91q-27-22-41.5-55.5T-10 156q0-39 15-60t43-28l14-2 110-49 1 31 44 16 58-64 30 36-75 54-8 22 54 7q26-21 62.5-29.5T414 81q17 0 33 1t27 3l485 96q8 2 24 2 14 0 21-7t12-25l24-89h51v210h15v95q-4 4-13.5 23t-18 41.5Q1066 454 1066 470q0 17 7.5 34.5t16 31.5q8.5 14 12.5 22l-10 133-16 23-7 55h-98l52-105 1-78-55-144V337H187l-29 117 28 120-37 39-28-2-48 54v104zm387-497h672V79h-16l-22 78q-5 16-14 30.5T989 202q-10 0-17-1.5t-14-2.5l-482-94q-12-1-30.5-2.5T414 100q-32 0-68.5 7T287 136l-87-11 15-45-55-20-1-20-91 41 48 85q-12 9-12 20 0 8 5.5 10t8.5 2q4 0 13.5-4.5T149 179l251-23zM123 128q-20-11-20-31 0-3 2-12.5t7-14.5q6 7 9.5 15.5T125 105q0 5-.5 10.5T123 128zm-4 161h261V178l-227 18q-7 11-18.5 15t-18.5 4q-11 0-20.5-7T86 188q0-12 10-24L51 86q-22 7-32.5 26.5T8 157q0 24 13 55t38 54q25 23 60 23zm880 463h52l6-45 16-23 9-122q-7-11-21.5-37t-14.5-55q0-19 8.5-42t18.5-42q10-19 13-25v-70H400v15H118q-28 0-52-13v74l36 161v33l-70 76v112h21v-92l60-64 29 2 23-27-26-115 33-135h816v111l57 154-2 85z" fill="currentColor"/></svg>