<svg xmlns="http://www.w3.org/2000/svg" viewBox="0 0 595.3 417.6"><path d="M145.3 95.3c-1.3-11.2 2.4-17.3 11-18.2 48.4-18.2 106.3-20.4 173.8-6.8C397.5 84 443.7 91.5 468.5 93.1c24.9 1.5 45.1.8 60.6-2.3 10.8-12.1 21.6-30.3 32.4-54.5 2.2-7.3 3.5-5.2 3.9 6.5v59c-1.7 9.1-7.5 12.1-17.2 9.1s-46.8-4.1-111.2-3.2c-57.1-1.7-99.2-2.4-126.5-1.9-18.6 6.5-39.3 5.4-62.3-3.2-28.1 3.5-58.1 4.3-90.1 2.6-6.8.7-11.1-2.5-12.8-9.9zM59 49.9c-3.5.9-5.1 2.9-4.9 6.2.2 3.2 2.1 9 5.5 17.2 1.7-6.5 2.9-12 3.6-16.5.7-4.6-.7-6.9-4.2-6.9zm67.5 55.8c-13.8-8.6-29.8-13-48-13-6.9 6.1-11.9 8.8-14.9 8.1-3-.6-3.7-2.3-1.9-4.9 2.6-2.6 3.9-5.4 3.9-8.4S61.5 81 53.3 77.1c-3-11.2-5-19.7-5.8-25.3L72 37.6c1.7 3.5 4.5 5.8 8.4 7.1 3.9-1.3 8-.9 12.3 1.3 5.2.4 6.2 4.9 2.9 13.3s-1.2 15.9 6.2 22.4c8.2 1.3 15.8 1.7 22.7 1.3-2.6 2.2-3.9 5-3.9 8.4 0 3.5 2 8.2 5.9 14.3zm75.2 22H40.9l-11-14.9c-4.8-11.2-7.1-21.9-7.1-32.1 0-10.2 5-17.6 14.9-22.4.4-1.3 1.9 3.7 4.5 14.9 1.7 9.1 5.6 14.1 11.7 14.9-2.6 3.5-3.8 8-3.6 13.6.2 5.6 3.4 8.9 9.4 9.7 6.9.4 14.3-1.9 22-7.1 16.4.4 31.6 5.4 45.4 14.9h74.6v8.5zM557 143.3v59l-7.8 53.8c0 10.8 9.7 30.5 29.2 59-9.9 32.9-14.9 56.4-14.9 70.7h-24.6c16-14.3 24-29 24-44.1 0-21.2-6.1-42.2-18.2-62.9-15.1-15.6-24.2-27.2-27.2-35-5.6-37.6-10.6-61.4-14.9-71.3-2.2-11.7-11.7-17.3-28.5-16.9H131.6c-9.1 0-14.7 2.2-16.9 6.5-8.6 29.4-13 59.7-13 90.8.9 14.3 2.8 30.5 5.8 48.6-3.9 4.3-9.9 6.3-18.2 5.8-31.1 0-46.7 20.5-46.7 61.6v16.9H21.4v-1.3c0-3.9 1.1-7.3 3.2-10.4 10.8-13 16.2-23.6 16.2-31.8v-18.8c0-4.8 14.7-21.8 44.1-51.2L62.9 144H557v-.7zM219.8 118h28.5c22.9 10.4 45.4 11.9 67.4 4.5 19.5-2.2 79.5-2.2 180.3 0 30.7 1.3 52.2 2.7 64.5 4.2 12.3 1.5 19.1-6.8 20.4-25V0c-13.8 0-22.3 6.1-25.3 18.2-15.6 33.3-30 53.2-43.4 59.7-14.3 1.3-42-1.1-83.3-7.1-41.3-6.1-85-13.5-131-22.4-46-8.9-92.6-5.5-139.7 10.1-5.6 0-13.4 3.7-23.3 11h.6l-27.2 1.9c-2.6-5.6-2.6-9.5 0-11.7l39.6-17.5c6.9-4.8 8.1-9.4 3.6-13.9s-7.9-3.1-10.1 4.2l-33.1 9.7c-1.3-4.8-3.2-7.3-5.8-7.8-2.6-.4-8.9-1.5-18.8-3.2-3.5-.4-5.8-2.6-7.1-6.5-1.3-1.3-2.8-1.9-4.5-1.9-3.5 1.7-9.1 5.4-16.9 11-7.3 5.6-16.6 10.8-27.9 15.6C16 54 10.6 65.5 11 83.7c2.2 29 11 47.6 26.6 55.8l3.9 25.3 26.6 101.8v1.3l-43.4 48.6V347C8.2 367.7 0 386.7 0 404h14.3v13.6h26.6c1.3-7.3 4.5-13 9.7-16.9 6.1 0 9.1-1.3 9.1-3.9v-33.7c0-18.6 4.5-30.7 13.6-36.3 34.2-3.5 51.2-10.6 51.2-21.4-3-17.7-4.5-38.7-4.5-62.9 0-47.6 6.1-71.3 18.2-71.3h340.4c8.2 0 15.1 27.2 20.8 81.7 30.3 34.2 45.4 61 45.4 80.4 0 16-2.8 24-8.4 24-17.3 13.4-25.1 28.1-23.3 44.1H533v14.9h36.3v-15.6H581c3.5 0 5.6-1.5 6.5-4.5-.9-12.5-3-23.1-6.5-31.8 0-4.3 4.8-21.8 14.3-52.5-17.3-25.9-27-44.1-29.2-54.5 5.2-22 8.6-42.2 10.4-60.3l.6-70H219.8V118z"/></svg>