<svg xmlns="http://www.w3.org/2000/svg" viewBox="-10 0 830 1001"><path d="M23 1001v-45l85-15 13-9v-11q0-40 66-71l-54-196q-2-5-3.5-17t-1.5-18q0-26 15.5-48.5T191 548q14 0 30 6.5t28 19.5l150 168 14-92-31-242-115 102-29 1L-7 273l15-21 40 17-9-25-49-33 13-24 72 35 27 36 13 43 124 105 56-55q21-21 45.5-46.5T398 271l54-13-7-26-40 15-24-63-31-2 49-110 2-13q8-28 28.5-43.5T489 0q36 0 67 12t50 34.5Q625 69 625 99q0 28-16.5 55T565 218v38l59 15q36-40 80-72t92-55l10 21q-43 20-82.5 48.5T650 277l18 4q26 6 39.5 27t20.5 34l92 167-31 51-194-23-14 177 20 2v190l50 35 84 15v45h-88l-136-38-197 29q-40 6-68.5 7.5T212 1001q-31 0-53-13l-47 13zm530-795q20-28 36.5-55.5T606 95q0-26-20-43t-47.5-25Q511 19 490 19q-25 0-44 10t-27 33l78 44q5-4 11-7t13-3q13 0 20 9.5t7 20.5q0 7-5.5 16.5T533 158l-14 18zM415 748l149-33 14-181-14-7-41 30-40-5-37-31-3-29 36-42 4 3 8-13 21 9q35-93 98-164l-64-16v-47l-48-41 22-31q3-5 7-11.5t4-10.5q0-3-2-8.5t-9-5.5q-12 0-21 12l-85-48-40 91 19 1 20 55 45-15 15 62-76 16q-13 3-29.5 16T335 333.5Q319 350 309 361l-68 68-135-113-19-52-22-32-53-28-4 7 47 31 14 42-6 5-46-21-4 5 228 219h19l124-108h14l33 265zm23-613q-11 0-19-3.5t-16-8.5q5-6 14.5-8t12.5-2q19 0 32 20-7 1-13 1.5t-11 .5zm341 408l21-34-86-154q-7-12-21-32.5T665 298l-28-6q-67 72-104 167l39 17 18 2 27-99h18l104 104-4 16-169-7-38-20-5 15 2 2-7 9-36-32-26 31 2 16 29 25 35 4 42-31 27 11zm-61-60l-89-87-21 83zm-214-11q2-8 4-11l-10-5-5 6zM204 842l44-22-60-184 28-63q-12-6-26-6-19 0-31 14.5T147 619q0 7 2 16.5t4 17.5zm62-30l124-56-159-175-24 54zm-38 109l356-20V731h-8l-170 36-220 102zm421 61h67v-14l-72-9-58-41-368 20-50-60q-29 15-29 41t12.5 39q12.5 13 30 18t31.5 5q17 0 47.5-2t53.5-5l207-28zm-607 0h67l31-8q-10-11-14-23l-12 8-72 9z" fill="currentColor"/></svg>