<svg xmlns="http://www.w3.org/2000/svg" viewBox="-10 0 789 1008"><path d="M389 1008v-45l61-9q12-2 16.5-12t7.5-22l26-103v-38l11-34h-9l106-216-6-20-55 67-150 36-51 17-29-1-30-15 4-16H-10v-71h132q-4-7-4-18 0-28 17.5-50t37.5-22q20 0 38 22t18 50q0 10-5 18h50l19-14 28-13 146-53q14-24 31.5-51.5t31.5-49q14-21.5 20-27.5 9-8 18-9t20-3v-36l-13 5-38 49-24-20 37-37-9-28-21-1 32-73-4-35 2-4 116 3-62-66q-7-7-12.5-16T586 27q0-11 7-19t20-8q24 0 24 22 0 8-5.5 13T619 40h-7V29h5q7 0 7-8 0-9-11-9-14 0-14 14 0 9 3.5 15.5T613 55l64 68L718 7h43l-70 237q36 12 55 30t26 39q7 21 7 38v29h-55v-32q0-24-16-44t-34-34l-9-2v24q38 0 48 32.5t8 89.5l-3 98q19 28 27 48t8 50q0 12-5 32t-7 38q-1 8-2 15.5t-1 15.5q0 6 .5 15.5T740 745q8 32 16.5 87.5T765 942q0 16-1.5 33.5T760 1008H633v-45l48-10q10-2 17.5-7.5T706 932q0-6-1-9l-42-151-4-27h-62l-79 263zm278-755l75-234h-10l-43 119-14 10-104-3 2 19 52 15q3-3 7.5-4t9.5-1q9 0 15 7t6 14q0 4-3 12.5T650 220l-5 27zM345 615l53-18 143-38 123-153q11-15 31-28l3 18q-12 7-28 28l-57 71 9 24 81-16 1-94q1-21 0-44.5t-9.5-40Q686 308 664 308h-16v-44l-21-5 9-43q7-4 10-10.5t3-9.5q0-2-1-5.5t-7-3.5q-7 0-13 8l-62-18-24 51 13 1 13 36 37-9v68q-16 1-28 4t-16 8q-6 4-19.5 25t-30 49Q495 438 481 462l-147 49-31 15h48v4l137-43 84-110 16 49 40-54q14-20 25.5-28.5T672 330l6 16q-13 8-25.5 23T633 394L530 537l-126 37-53-8v7l30 3 5 11-39 16-25 3-24-7-1 5 23 9zm240-410q-13 0-23-8 3-4 9-5t8-1q12 0 21 13-5 1-8.5 1zm155 157h22v-15q0-20-15.5-47.5T687 258l-2 3q27 17 41 40t14 44zM396 559l124-37 57-80-11-28-70 91-145 43v6zm-259-66h72q-4-15-15-28t-21-13q-10 0-21 13t-15 28zm27 33h15q9 0 19.5-4.5T211 508h-76q2 10 12.5 13.5T164 526zm370 201h185v-30l2-17q2-15 7-36t5-34q0-23-6-43.5T702 523l-75 15zM8 580h324v-36H8zm343 11l14-6-1-3h-13zm57 398h95l75-244h-47l-12 36v38l-27 107q-10 41-35 44l-49 7zm244 0h91q3-24 3-51 0-34-4-70t-10.5-69q-6.5-33-11.5-54h-42l4 26 42 154q1 4 1 7v6q0 14-11 21.5T688 970l-36 7z" fill="currentColor"/></svg>