<svg xmlns="http://www.w3.org/2000/svg" viewBox="-10 0 763 1001"><path d="M36 1001v-20h66q-19-45-38.5-109.5T30.5 732Q17 657 17 582q0-77 18-147.5T79 306l-89-159 19-8 80 144q24-50 48-87t41-57l18 11q-18 23-43.5 63T102 306l88 155 177-43 4-81q2-32 15.5-60t40.5-48l-17-29-42-3-8-51q-5-1-11-1.5t-12-1.5l32-69q-2-10-2-20 0-20 17.5-37T448 0q46 0 69.5 25T541 84q0 13-4 29t-16 33l-23 31 10 14q25 1 50.5 13.5T600 246l97 174q19 35 29.5 58.5T737 530q0 14-5 40.5t-7 46.5q-1 9-2 17.5t-1 16.5q0 8 .5 28t1.5 30q6 24 12.5 60.5T748 848q5 42 5 82 0 18-1 36.5t-4 34.5H605v-43l55-11q12-3 20.5-8.5T689 923q0-6-1-10l-50-174-4-30h-58l-93 292H343v-43l66-11q15-3 20-15t9-25l32-117-3-42 14-39h-11l81-226-98-121-18 168-74 113-14 10-15 22-9 13-5 4 67 118-18 9-68-120-14 5-32-15-15-22 20-41-41-73-7 4-30 3-27-26-1-10 4-4-13-13 28-37-79-141q-23 55-39 119.5T37 582q0 79 14.5 154t34 138.5Q105 938 122 981h129v20zm452-834l20-32q5-8 10-21t5-27q0-25-18-46.5T449 19q-34 0-47.5 11T388 55q0 5 .5 8.5t.5 5.5h65q2-2 5-3.5t10-1.5q13 0 20 9.5t7 20.5q0 7-4.5 19T474 147zM285 689l8-2 18-9 8-11 14-20 15-14 69-111 19-185 13-7 116 140 106-55-89-164q-9-16-27-29.5T497 206l-44-57q24-44 24-52 0-5-2-10.5T464 81q-7 0-9 2l-3 3h-72l-20 45q3 0 7 1t7 1l7 51 41 3 28 48q-27 20-41 43.5T392 341l-13 160-56 111-39 14-16 17-12 23 8 13zm120-577q-7 0-14.5-2t-7.5-7q0-5 6-8t13-3q9 0 15 3.5t11 8.5q-5 3-10 5.5t-13 2.5zm95 580h204v-36q0-9 .5-19t1.5-20q2-16 7-44t5-42q0-26-9.5-46.5T680 434l-109 55zM234 504l8-7 122-23 2-37-168 39 6 11 11-1zm-68 5l12-11-4-9-14 15zm108 103l38-16 50-104-107 21-9 9-10 22zm-91-69h20l8-1 16-12 5-10-19-19-22 5-7 3-17 18zm440 440h109q3-27 3-58 0-37-5-77.5T718 770q-7-37-13-61h-52l5 29 49 174q1 4 1 7v6q0 16-13 24.5T665 961l-42 9zm-265 0h113l87-274h-58l-15 41v42l-31 121q-7 23-16.5 34T414 961l-56 9z" fill="currentColor"/></svg>