<svg xmlns="http://www.w3.org/2000/svg" viewBox="0 0 406.8 611.2"><path d="M186.7 422.4c8.6-41.2 15.2-79.9 19.7-116.1l56.4-19.7c5.4 14.5 7.2 57.9 5.4 130.4l-81.5 5.4zm74.1-148.1l-56.4 19c.9-51.2-4.4-85.4-16-102.9-11.5-17.4 1-28.6 37.7-33.6-.5-23.1-5.7-34.3-15.6-33.6-10 .7-14.7-1.9-14.3-7.8 5-2.7 6.7-5 5.1-6.8-1.6-1.8-4.4-3.2-8.5-4.1 3.2-3.2 2-6.1-3.4-8.8l12.9-18.3c5.4-3.6 14.5-1.8 27.2 5.4 3.2-.5 1.6-2.6-4.8-6.5-6.3-3.8-12.7-5.5-19-5.1 4.1-5.4 7.5-7.9 10.2-7.5 2.7.5 10.4 3.8 23.1 10.2.9 3.6 3.5 4 7.8 1 4.3-2.9 8.5-3.3 12.6-1s4.4 6.5 1 12.6c-3.4 6.1-7.5 11.2-12.2 15.3-4.8 4.1-7.4 8.6-7.8 13.6-.5 5 2 8.6 7.5 10.9l4.8 27.2c28.5 1.8 36.7 16.1 24.4 42.8l-16.3 78zM198.3 86.2c2.7-5.4 6.2-8.3 10.5-8.5 4.3-.2 9.8 2.2 16.6 7.1l8.8.7V89h-8.1c-5.4 1.8-10.5 2.7-15.3 2.7s-8.9-1.8-12.5-5.5zm9.5-4.7c-1.4-.5-3.2.5-5.4 2.7 1.8 2.7 4.5 4.1 8.1 4.1-4.1-1.4-5-3.6-2.7-6.8zm2.7 6.8c3.2 0 6.8-.5 10.9-1.4-2.7-2.7-5.7-4.3-8.8-4.8 1.8 2.8 1.1 4.8-2.1 6.2zm31.2 4.1c-1.8-1.8-1.4-4.9 1.4-9.2 2.7-4.3 5.7-6.8 8.8-7.5 3.2-.7 5.3 0 6.5 2 1.1 2 .9 4.8-.7 8.1-1.6 3.4-4.8 7.1-9.5 11.2-4.8 4.1-8.3 5.4-10.5 4.1-2.3-1.4-3.1-3.1-2.4-5.1.7-1.9 2.8-3.2 6.4-3.6zm6.8-10.9c-2.3 1.8-4 3.8-5.1 6.1-1.1 2.3-.7 3.1 1.4 2.4 2-.7 1.9.1-.3 2.4-2.3 2.3-2.4 3.1-.3 2.4 2-.7 4.3-2.2 6.8-4.4 2.5-2.3 4.1-4.9 4.8-7.8s-1.8-3.4-7.3-1.1zm-7.4 13.6c-2.3.5-3.2 1.5-2.7 3.1s1.1 1.7 2 .3c.9-1.4 1.1-2.5.7-3.4zm2.7-29.2c-16.7-6.3-21.4-12-13.9-17 7.5-5 18.7-5.3 33.6-1 14.9 4.3 22.2 13 21.7 26.1-.5 13.1-7.4 24.4-20.7 34-13.4 9.5-15.1 8.1-5.1-4.1s13.8-22.2 11.5-29.9c-2.2-7.7-11.3-10.4-27.1-8.1zm36.7 363.3c3.2-78.3.7-130.8-7.5-157.5 6.3-35.3 12-59.6 17-73 5-13.4 15.4-19.7 31.2-19 15.8.7 41-.3 75.4-3.1 8.6-3.6 11.8-9.7 9.5-18.3-3.2-29.9-9.7-59.8-19.7-89.6 2.3-10.4 3.4-18.8 3.4-25.1l11.5 7.5 4.8-14.3-15.6-5.4c0-5.9-3.8-10-11.5-12.2-7.7-2.3-13.8-.9-18.3 4.1L271.6 0l-4.1 13.6 91 23.8c-.9 9.5 2 19.9 8.8 31.2 3.2 29.9 6.1 57 8.8 81.5-22.6-.5-40.4-.5-53.3 0-12.9.5-22.9-1.2-29.9-5.1-7-3.8-13.4-5.2-19-4.1-5.7 1.1-9.7 0-12.2-3.4s-3.5-7.8-3.1-13.2c12.7-6.8 22.4-14.7 29.2-23.8 6.8-9.1 10-19.6 9.5-31.6s-6.9-21.1-19.4-27.2c-12.4-6.1-25.7-8.3-39.7-6.5-14 1.8-27.2 11.3-39.4 28.5-2.7 7.2-9.7 16.8-21.1 28.5-2.3 5.9-1.8 8.8 1.4 8.8s5.2.7 6.1 2c-1.4 1.4-2 2.8-2 4.4 0 1.6.7 2.4 2 2.4 1.8 0 1.8.5 0 1.4-1.8.9-2.2 2.6-1 5.1s1.5 5.5 1 9.2c0 3.6 2.2 5.8 6.5 6.5 4.3.7 10.1.8 17.3.3l3.4 14.3c-24.9 2.7-44 11.5-57.4 26.5-13.4 14.9-32 36.4-56 64.5-17.7 11.3-31.7 22-42.1 31.9-10.4 10-21.8 18.6-34.3 25.8-12.4 7.2-20 24.2-22.7 50.9 0 13.1 3.4 14.5 10.2 4.1 2.3-20.4 4.6-30.1 7.1-29.2 2.5.9 3.6 5.4 3.4 13.6-.2 8.1 2.8 7.5 9.2-2 3.2-20.8 11.8-33 25.8-36.7 28.5-13.6 50.7-29.2 66.5-46.9l52.3-47.5c8.1 13.6 13.6 41.4 16.3 83.5 0 27.6-3.6 56.7-10.9 87.3-7.2 30.6-12 50-14.3 58.4-2.3 8.4-.2 11.4 6.1 9.2-1.8 35.3-5.2 72.4-10.2 111.4-8.6 19.5-19.9 30.4-34 32.9-14 2.5-23.4 6.2-28.2 11.2-4.8 5-1.2 10.2 10.5 15.6 11.3-5.9 21.7-8 31.2-6.5 9.5 1.6 22-.3 37.3-5.8 8.1-.9 9.3-11.1 3.4-30.6 3.2-14.5 9.1-32.1 17.7-53 8.6-20.8 9.5-46.4 2.7-76.7l46.2-2c-.5 10 .9 17.2 4.1 21.7 3.2 4.5 9.5 36 19 94.4-9.5 15.8-20.9 26-34.3 30.6-13.4 4.5-19.1 12-17.3 22.4 9.1 2.3 16.4 1.6 22.1-2 5.7-3.6 22.5-6.6 50.6-8.8 11.8-2.3 13.1-14.3 4.1-36 .9-59.3-1.2-92.4-6.5-99.1-4.9-6.8-8.2-17-9.5-30.5z"/></svg>