<svg xmlns="http://www.w3.org/2000/svg" viewBox="-10 0 913 1010"><path d="M135 1010v-44l62-12q15-2 20-14t9-26l33-100-4-42 14-38 85-253-5-43-25-65-64 146-170 47-6 9-34 23-19 4-9-1-29-24-3-10 14-13-13-11 34-34 22-8 35-1 127-42 51-139q22-60 85-60h20v-21l-37-3-8-51q-5-1-11-2t-12-1l32-69q-2-12-2-20 0-20 17.5-37.5T408 37q46 0 69.5 25.5T501 122q0 13-4.5 29T481 184l-26 39v29l165-14 71-101 16-34-6-10 7-18-118-58 9-17 106 52q-1-8-1.5-15T702 25q8-1 18.5 1T734 37l2 6 1 6 17-7 23 10 16 13v30l110 55-8 18-106-53-3 7-33 26-77 157-114 21q-23 2-36 13t-18 30l-19 68-4 35q23 21 35.5 43t12.5 56q0 17-5.5 34.5T520 641q-3 20-3.5 33t0 26.5Q517 714 518 734q9 30 19 87t10 117q0 28-3 53l-5 19H399v-44l55-12q12-2 20.5-8t8.5-15q0-7-1-11l-50-157-4-29h-60l-96 276zM717 57l9-3q-1-4-2.5-11t-8.5-8zM445 206l21-33q5-8 10-21.5t5-26.5q0-25-18-47t-55-22q-35 0-48.5 11T346 93q0 10 2 14h65q2-2 5-3.5t10-1.5q12 0 19 10t7 20q0 17-11 32l-17 25zm327-97l3-17 1-22-6-8-17-4-22 11-11 21 20 15zM85 552l161-46 68-156 20-1 33 91 4 36 98-10 3-35 19-72q6-22 21-36.5t47-16.5l100-20 77-146 28-19-29-2-15-10-11 29-74 118-180 16q-17 0-17-21v-31l-31-28 19-31q3-4 7-13t4-13q0-5-2-11t-11-6q-7 0-9 2t-3 4h-72l-20 45q3 0 7 1t7 1l7 51 41 3v51h-37q-30 0-46.5 14.5T277 319l-54 152-130 42H47l-21 10-19 19 6 6 20-17 27-3zm280-402q-7 0-14.5-2t-7.5-8q0-4 6-7t13-3q9 0 15 3.5t11 8.5q-5 3-10 5.5t-13 2.5zm-69 566h202q0-17-.5-32.5T501 640q2-16 7.5-34t5.5-34q0-26-11-46t-32-43l-101 10zM35 588l7-2 29-18 1-8-16-16H37L5 569l19 16zm382 402h108q2-14 3-28t1-29q0-37-5-75.5T512 787q-7-32-13-53h-52l5 28 49 157q1 4 1 7v7q0 17-13 25t-30 11l-42 8zm-267 0h113l87-256h-59l-15 40 2 42-32 104q-13 45-40 49l-56 8z" fill="currentColor"/></svg>