<svg xmlns="http://www.w3.org/2000/svg" viewBox="-10 0 726 1001"><path d="M121 1001v-42l68-13 11-9v-10q0-38 55-67l-44-154q-2-5-3.5-16t-1.5-17q0-25 13-45.5t39-20.5q12 0 27.5 6t25.5 17l117 124 13-52-17-141-40-49-61 59-28 2-191-208v186H38V348h-48V0h361v43h262v62h-58q30 10 50 31.5t20 52.5q0 26-14 52t-36 60v34l40 17q32 13 37.5 35t5.5 41q0 13-5.5 38.5t-13.5 56q-8 30.5-15 58.5-10 36-21 76t-15 77l17 2v177l41 33 70 13v42h-78l-107-33-170 25q-32 4-56 6t-28 2q-24 0-44-12l-39 12zM56 533h30V87h509V61H333V19H8v310h48zm241-54l28-31-75-82 13-20 32 16-7-23-41-30 13-23 60 33 23 33 9 41 11 12q14-18 30.5-33.5T432 350l44-12-5-25-33 14-20-58-26-2 41-102 2-13q2-13 11-27t22-20H104v169l2-3 60 33 22 33 11 40zm264-190q16-26 30-51t14-52q0-24-17-39.5T548.5 123q-22.5-8-40.5-8-20 0-36 9t-23 31l65 42q10-10 20-10 11 0 17 9t6 19q0 6-4.5 15t-8.5 14l-12 17zM445 766l124-30q4-44 15-82t21-79q14-62 22-98.5t8-47.5q0-16-3.5-33.5T606 369l-51-22v-43l-40-38 18-29q3-4 6-10.5t3-9.5q0-3-1-8t-8-5q-7 0-10 3t-7 8l-71-45-34 84 16 1 18 52 37-14 13 59-63 15q-13 3-29 18.5T374 417l41 42 15-14 4 35 15 15 54-51q19-17 35-35.5t43-26.5l-1 19q-16 4-34.5 23T514 456l-64 61-107-110-15-49-18-30-44-26-3 6 38 29 13 39-6 4-38-19-3 5 190 203h14l115-104 3 19-111 102-25 1-8-8 14 122zm20-543q-17 0-28-11 4-5 12-7t9-2q16 0 26 18-5 2-10 2zM301 555h16l56-55-38-41-38 43-108-110-15-49-19-30-44-26-3 6 39 30 12 38-5 5-39-19-3 5zM141 348l-8-24-29-21v34l4-5zm130 505l36-20-51-145 24-58q-5-3-10.5-4t-11.5-1q-17 0-26.5 13t-9.5 35q0 7 2 15.5t4 16.5zm51-28l98-52-125-132-21 49zm-32 102l296-18V750h-7l-140 34-184 94zm350 57h56v-13l-61-9-48-38-305 19-42-57q-23 15-23 39t10 36q10 12 24.5 16.5T278 982q14 0 38.5-2.5T361 974l172-24zm-504 0h56l25-8q-4-5-6.5-10.5T206 955l-10 7-60 9z" fill="currentColor"/></svg>