<svg xmlns="http://www.w3.org/2000/svg" viewBox="-10 0 748 993"><path d="M18 993v-35q-3-13-15.5-28.5T-10 893q0-10 9.5-23t19-25q9.5-12 9.5-19 0-9-7.5-20T5 783q-8-12-8-25 0-9 7-16.5T18.5 727q7.5-7 7.5-15 0-9-8.5-23T1 661.5Q-7 648-7 639q0-12 11.5-26t23-27Q39 573 40 565t-8.5-21.5q-9.5-13.5-19-29T4 483q1-11 15-24t28-24.5Q61 423 61 417q0-9-7.5-21t-15-24.5Q31 359 31 349q0-11 14-25.5t28-27Q87 284 87 278q0-8-5.5-18.5t-9-22Q69 226 75 216q3-6 16-10.5t29-9q16-4.5 28.5-8.5t13.5-8q4-10 2.5-25t-3-28.5Q160 113 164 106q3-4 18-3.5t30.5.5q15.5 0 19.5-3 7-6 11-19.5t7.5-25.5q3.5-12 9.5-15 5-2 21 2t34.5 11Q334 60 349 65.5t18 5.5q12 2 26-5t27-11q-4-10-8.5-19L402 17l16-8q2 4 6.5 12.5T433 40q15-22 45.5-31T546 0q51 0 88 20t37 48q0 24-27 42.5T576 134q28 9 49.5 30t21.5 53q0 25-14 49t-36 57v33l40 15q32 12 37.5 33.5T680 445q0 12-5.5 36.5t-13.5 54q-8 29.5-15 55.5l-21 73.5-15 73.5 17 2v169l41 31 70 13v40h-78l-107-32-170 24q-32 4-56 6t-28 2q-24 0-44-12l-39 12h-73v-40l68-13 11-9v-9q0-35 55-64l-44-148q-2-5-3.5-15t-1.5-16q0-24 13-43.5t39-19.5q12 0 27.5 6t25.5 17l117 118 13-50-17-135-40-47-61 57-28 1-201-210 14-20 33 15-8-22-39-30 12-21 60 31 22 32 11 38 98 97 28-29-75-78 13-19 32 15-7-22-41-30 13-22 60 32 23 32 9 39 11 12q14-17 30.5-32.5T454 370l44-11-5-24-33 13-20-56-27-1 40-98 2-12q10-39 46-50-47-9-68-35-5 13-9.5 21t-5.5 11l-16-9q4-8 10.5-20.5T422 74q-5 1-25 8t-32 8q-6 0-20-4.5T314.5 75q-16.5-6-29-10T271 64q-8 9-12 27.5T245 118q-6 5-19.5 4.5t-25.5-2q-12-1.5-15 2.5-4 5-2.5 19.5t3 29.5q1.5 15-3.5 21-4 6-23.5 10.5T120 214q-19 6-22 14-3 9 1 19t8 19.5q4 9.5 2 17.5-2 9-17 21.5t-29 25Q49 343 50 352t8.5 21.5l15 25L80 421q6.5 22.5-15 23t-28 24q-6.5 23.5-13 18 1 10 10.5 26t18 31q8.5 15 7.5 23-2 12-14 25t-23 25.5Q12 629 13 640q2 14 16 32t16 43q0 8-7 16t-14.5 15.5Q16 754 17 761q1 8 8.5 19T40 803q7 12 7 25t-9.5 24l-19 22-8.5 22q1 7 7.5 19.5t13 24Q37 951 37 955v38zm528-877q43 0 73-14t30-34q0-19-30-33.5T546 20q-38 0-67 12t-34 29h-11v15h11q7 17 35.5 28.5T546 116zm37 195q16-24 30-48t14-50q0-23-17-38t-39.5-22.5Q548 145 530 145q-20 0-36 9t-23 29l65 40q5-4 9.5-6.5T556 214q11 0 17 8.5t6 18.5q0 5-4.5 14t-8.5 14l-12 16zM467 768l124-29q4-42 15-78t21-76q14-58 22-93t8-46q0-16-4-33t-25-25l-51-20v-42l-40-36 18-28q2-4 5.5-10t3.5-9q0-2-1-7.5t-8-5.5q-7 0-10 3t-7 8l-71-43-34 81 16 1 18 48 37-12 13 55-63 15q-13 3-29 18t-29 30l41 41 15-14 4 33 15 15 53-49q19-17 35.5-34t43.5-25l-1 18q-16 4-34 22t-32 31l-64 58-107-105-15-47-18-29-44-25-3 6 38 28 13 37-6 4-38-18-3 4 190 194h14l115-99 3 19-111 98h-25l-8-8 14 117zm20-519q-9 0-16-3t-12-8q4-5 12-6.5t9-1.5q17 0 26 17-5 1-10 1.5t-9 .5zM323 566h16l56-52-38-39-38 40-108-105-15-46-19-29-44-25-3 6 39 28 12 37-5 5-39-19-3 4zm-30 285l36-19-51-138 24-55q-5-4-10.5-5t-11.5-1q-17 0-26.5 12.5T244 679q0 7 2 14.5t4 15.5zm51-26l98-50-125-126-21 46zm-32 98l296-18V753h-7l-140 32-184 91zm350 54h56v-13l-61-8-48-37-305 18-42-54q-23 14-23 38 0 22 10 34t24.5 16q14.5 4 26.5 4 14 0 40.5-3t42.5-5l172-23zm-504 0h56l25-8q-4-4-6.5-9.5T228 949l-10 7-60 8z" fill="currentColor"/></svg>