<svg xmlns="http://www.w3.org/2000/svg" viewBox="0 0 489.7 597.3"><path d="M367.9 53.8c.9 12.8-6.3 32.1-33 31.9-20.7-.2-33.2-17-32-31.9 1.5-18.5 11.4-30.7 31.1-30.7 21.1-.1 32.5 10.5 33.9 30.7zm-59.2 118.8c1.1 0 2.6 1.1 3.3 3 .6 1.6.4 3-.4 3-2.1 0-4.2-2.2-4.2-4.3 0-1.2.5-1.7 1.3-1.7zm14.8.7c.3 0 .7.1 1 .2 1.6.6 3.3 1.1 3.8 1.1s.4.9-.3 2c-.9 1.4-2.6 2.1-4.2 2.1-2.2 0-4.1-1.2-3.3-3.2.5-1.4 1.8-2.2 3-2.2zm45.3-6.6c3.2 0 3.7.9 2.6 4.4-.7 2.4-3.2 6.4-5.4 8.9-2.5 2.8-5.2 4.5-6.3 4.5-.7 0-.8-.7.1-2.2.7-1.2.3-2.8-.9-3.6-3.3-2.1 4.9-12 9.9-12zm-15.1 20.4c.6 0 1 .4 1 1.2 0 1.1-.9 2.1-2 2.1s-2-.4-2-.9.9-1.4 2-2.1c.4-.2.8-.3 1-.3zm16.7-26.3c-5.2 0-15.7 10.9-15.7 16.3 0 2.2-1.4 5.7-3.2 7.6-1.8 1.9-2.7 4.9-2 6.6.7 1.9 1.8 2.9 3.4 2.9 2.7 0 6.7-2.7 12.4-8.2 12.3-11.8 15-25.2 5.1-25.2zm-6.7-39c27.9 1.3 41.6 11.3 43.7 32 1.5 14.4-5.3 28.6-20.4 42.4-7.4 6.7-11.8 10-13.6 10-.6 0-.9-.4-.9-1.2 0-.6 3.7-7.4 8.2-15 10.3-17.3 12.5-32.2 5.8-38.9-3.5-3.5-6.5-4.2-19.5-4.2-27.9 0-42.9-12.8-26.1-22.1 4.4-2.3 19.8-3.1 22.8-3zm-83.8 185c5.3 0 29.6 46.7 35.2 67.5 6.6 24.5 10.2 51.5 7.8 58.6-.2.7-.8 1-1.6 1-13.4 0-99.1-87.4-99.1-87.4l57.7-39.7zm41.9-157.4c4.8 0 11.4 2.4 21.8 7.3 7.2 3.4 10.3 4.9 12.8 4.9 1.9 0 3.3-.8 5.8-2.2 2.7-1.5 5.4-2.2 7.9-2.2 5.1 0 9.2 2.9 9.8 8 .8 6.8-3.5 14.9-14.5 27.3-10.8 12.1-11.9 20.8-3.7 28.9 3.7 3.7 5.4 19.7 9.7 28.1 15.1 30 22 64.1 24.9 123.9 1.2 25.2 1.7 47.1 1.1 48.6-.6 1.5-52.5 30.2-53.4 30.6-.1 0-.2.1-.2.1-.8 0-.9-1.9-.2-4.4 8-31.8-1-71.3-30.6-133.9-8.6-18.1-15.6-34.7-15.6-36.9 0-2.2 10.9-15.9 35.1-24.4 4.1-1.5 3-24.9-.3-27.6-1.6-1.3-9.9-1.4-15.4-1.4h-1.2c-7.3 0-10.6-1-13.4-4.1-3.6-4-3.6-4.2 1.2-7.9s4.8-3.9 1.1-6.8c-2.1-1.6-5-2.9-6.3-2.9-1.5 0-2-1.3-1.3-3.2.8-2-.1-4.3-2.3-5.8-3.3-2.4-3.3-2.9.8-9.6l4.3-7 7.6 4.4c4 2.3 6.2 3.3 8.8 3.3 1.9 0 4-.5 7.3-1.5 4.7-1.4 10.8-3 13.5-3.6 10-2.1 10.8-3.3 3-4.8-4.3-.8-12.1-3.1-17.2-5.1-4.4-1.7-6.7-2.6-8.5-2.6-2.1 0-3.7 1.1-6.9 3.6-2.9 2.2-4.4 3.2-4.9 3.2-.4 0-.1-.9.8-2.5 2.3-4.2 7.2-6.4 13.4-6.4 4.2 0 8.9 1 13.8 3 4.6 1.9 7.5 2.8 9 2.8 1.2 0 1.4-.6.6-1.9-2.2-3.5-13.2-8.3-22.1-9.6l-8.7-1.3 4.3-4.7c2.3-2.4 4.8-3.7 8.3-3.7zM215.3 376.1c2.5 0 5.4 2.3 9.7 7.1 3.6 4 85.1 87.2 85.1 87.2l-82.5 31.7c-.2 0-20.1-119.3-16.8-123.3 1.4-1.8 2.8-2.7 4.5-2.7zm178.8 83.2c9.9 1.5 14.9 32 9.1 54.5-6.7 25.8-13.6 29.6-37 40.7-34.9 16.6-144.5 8.4-146.3 5.5-12.7-19.4 60.1-48 60.1-48 46.4-21.9 112-52.7 114.1-52.7zM286.4 34.9l.3-28H262v31.9L216.9 17l-20.4 36.2L159.2 42l-10.1 37-40.1-4.6-2.9 40.4-41.2 1.4 1.9 39.4L29 166.2l10.3 37.4s-26.3 24.6-24.9 28l14.9 35.5-20 31.3 18.4 35.4L5 371.5l19.2 31.2-22.3 38.7 24.1 38-26 33.8L25.3 544 3.9 573.6l26 22.9 52.8.8-41.8-26.1 23.3-33.7L38.5 508l17.1-35.1L32 439.4l28.9-42.3-22.5-32.7L60.3 329l-17.7-30.2L58.8 264l-16.1-29.4 28.1-20.7S55.1 180.8 56 180.7l32.3-3.2-2.7-41 41.4 3.8 2-42.5 38.5 7.4 8.4-31.8 38.1 8.8L228.2 52l34 18.6-.2 34.9h24.1l.2-25.6s2.7 7.3 8.4 12.8c13.4 12.9 24.5 16.2 40.2 16.3.3 0 31.3-1.2 45.5-20.2 15.9-21.2 9.6-54.5 1-67.2C372 7.6 351-.6 333.8 0c-25 .9-42.3 12.5-47.4 34.9zm77.3 74.6c-8.2 0-16.1 1.2-22.7 3.7-17.8 6.7-33.8 22.8-45.4 45.7-2.5 4.9-7.9 13.6-12.1 19.5-8.8 12.3-9.9 19.3-3.2 20.3 2.8.4 4.5 2.1 4.6 4.6.1 2.2.4 4.4.7 4.9.2.5.7 3.2 1 5.9 1.5 14.5 3.7 20 8.8 22 2 .8 5.5 1.3 8.9 1.3 1.3 0 2.6-.1 3.7-.2 1.5-.2 2.8-.3 3.8-.3 2.5 0 3.6.6 3.6 1.8 0 1.5-27.2 10.3-32.5 12.1-14.6 5-19.1 17.6-29.2 26-13.3 11-17.6 12.5-20.5 12.5-3.1 0-55.5-67.8-57.3-74.5-5.2-19.7-11-30.2-13.7-34.8-6.5-11.1-23.2-24.6-25.1-20.1l-2.6 6c-.4.9 28.5 33.1 22.7 36.5-1 .6-3.7-1.5-8.1-5-4.7-3.8-13-7.7-16.1-7.7-1.8 0-3.3 4.3.1 7.4 30.3 27.5 13.1 20 30.1 33.2 9.6 7.5 13 34.5 41.2 80.3 0 0-16.2 14.8-16.9 13.9-16.7-22.2-35.7-37.8-53.6-56.7-3.6-13.2-7-38.1-14.8-47-11.1-12.6-18.5-16.6-22.4-16.6-4.1 0-4.3 4.3-1.1 7.5 17 17.1 25.7 44.8 19.7 44.8-1.6 0-4.2-1.9-8-6.5-5.8-7.1-13.3-11.3-16.6-11.3-2.2 0-2.7 1.9.4 5.9 22.2 28.3 12.5 28.4 27.1 34 9.1 3.5 17 36.5 61.5 82.7 5.4 5.6 4.3 42.5 9.1 66.3 14.2 71.4 26.3 103.7-7.1 124.8-20.8 13.2-10.6 14.8-33.8 20.7-18.4 4.7-19 10.7-11.9 17.2 4.4 4.1 8.4 5.5 14.5 5.5 6.9 0 122.3-10.7 170.1-10.7 50.3 0 97.6 2.6 125 7.6 14 2.6 25.6 3.9 33.4 3.9 4.7 0 8.1-.5 9.6-1.5 5.2-3.3-9.1-21.3-31.1-32.5-23.8-12.1-12-50.8-18.6-54.4-21.8-11.5-17.4-19.1-19-85-1-40.7-1.7-120.9-22.7-176.3-1.3-3.4-16.5-25-6-33.1 11.5-8.9 22.5-22.2 27.6-33.2 3.1-6.7 4.1-12.9 4.1-24.8 0-21.1-4.9-29.3-23.5-38.4-10.6-5.2-23.5-7.9-35.7-7.9z"/></svg>