<svg xmlns="http://www.w3.org/2000/svg" viewBox="-10 0 902 1025"><path d="M505 20l-1-19 56-1 1 20zm-76 9l-4-19 55-9 4 20zm203-4l-55-5 1-19 54 4zm70 14l-53-12 3-19 54 12zM359 53l-6-18 51-18 8 18zm410 9l-52-18 6-19 52 18zM295 87l-10-17 48-26 10 16zm535 5l-49-25 8-18 49 25zm-630 933v-44l62-12q15-2 20-14t9-26l33-100-4-42 14-38 85-253-5-43-25-65-75 171-194 8-54 29-76-14 2-29 64 3 14-10-40-6 3-28 88-3 144-14 60-161q22-60 85-60h20v-21l-37-3-8-51q-4-1-10.5-2t-12.5-1l32-69q-2-12-2-20 0-20 17.5-37.5T473 52q46 0 69.5 25.5T566 137q0 13-4.5 29T545 199l-25 39v29l180 19 75-107 37-80 26 8-9 39 14-10 21-60 28 9-15 76-48 45-83 159-128-6q-23 2-33 8t-15 26l-16 59-4 35q23 21 35.5 43t12.5 56q0 17-5.5 34.5T585 656q-2 20-3 33t-1 26.5q0 13.5 2 33.5 9 30 19 87t10 117q0 28-3 53l-5 19H464l-1-44 56-12q12-2 20.5-8t8.5-15q0-7-1-11l-50-157-4-29h-60l-96 276zm310-804l21-33q5-8 10-21.5t5-26.5q0-25-18-47t-55-22q-34 0-48 11t-14 26q0 10 2 14h65q1-2 4-3.5t11-1.5q12 0 19 10t7 20q0 17-11 32l-17 25zm-277-88l-12-15 43-34 13 15zM64 579l58-28 179-8 78-178 20-1 33 91 4 36 98-10 3-35 16-64q6-25 21-34t46-7l114 6 81-150 47-45 16-58-7-2-18 53-29 19-10-6 11-44-7-1-33 80-77 112-188-18q-17-1-17-21v-31l-31-28 19-31q3-4 7-13t4-13q0-5-2-11t-11-6q-7 0-9 2t-3 4h-72l-20 45q3 0 7 1t7 1l7 51 41 3v51h-37q-30 0-46.5 14.5T342 334l-63 175-149 14-86 1-1 7 44 6 2 11-28 20-57-3v7zm115-394l-14-14 40-38 14 13zm251-20q-7 0-14.5-2t-7.5-8q0-4 6-7t13-3q9 0 15 3.5t11 8.5q-4 3-10 5.5t-13 2.5zm-297 77l-16-11 34-43 17 11zm-39 61l-17-10 30-47 18 10zm-32 66l-18-9 25-49 18 8zm-28 68l-18-7 19-51 19 6zm-17 73l-19-4 11-54 20 4zm344 221h202q0-17-.5-32.5T566 655q2-16 7.5-34t5.5-34q0-26-11-46t-32-43l-102 10zm121 274h108q2-14 3-28t1-29q0-37-5-75.5T577.5 802q-6.5-32-13.5-53h-52l5 28 49 157q1 4 1 7v7q0 17-13 25t-30 11l-42 8zm-267 0h113l87-256h-59l-15 40 2 42-32 104q-13 45-40 49l-56 8z" fill="currentColor"/></svg>