<svg xmlns="http://www.w3.org/2000/svg" viewBox="-10 0 537 1001"><path d="M-10 1001v-43l66-11q15-3 20-15t9-25l30-117-1-42 14-39h-11l104-236-36-150h-3l-47 123-32 133 7 69-15 39-29-11 10-24v-15l-4-1-9 24-5 28 13 31-28 9-18-35-2-32 22-77 24-162 37-132q9-25 27-41t44-19l52-6v-50l-16-28q-21-35-21-62 0-34 24-59t70-25q46 0 63.5 17T366 54q0 5-.5 10.5T365 74l32 69q-6 1-12.5 1.5T373 146l-8 51-43 3v19q15 2 28 4.5t24 6.5q25 3 43 19t27 41l37 132 24 162 22 77-3 32-17 35-28-9 13-31-5-28-9-24-4 1v15l9 24-28 11-15-39 7-69-32-133-47-123h-3l-17 131q23 32 31.5 61t8.5 62q0 14-1 20t-3 26q-1 10-1.5 18t-.5 16q0 8 4.5 25t6.5 27q6 24 12.5 60.5t11 78.5q4.5 42 4.5 82 0 18-1 36.5t-3 34.5H273v-43l55-11q12-3 21-8.5t9-15.5q0-6-1-10l-50-174-5-30h-79l-93 292zm257-833l19-17-17-25q-11-15-11-32 0-11 7-20.5t19-9.5q7 0 10 1.5t5 3.5h65q2-4 2-14 0-14-13.5-25T284 19q-37 0-55 21.5T211 87q0 14 5 27t10 21zM49 715l9-2-12-26 4-32 19-43 16 5 2 37-7 18 8 3 10-24-11-71 31-139 54-138h27l37 161 95-17 20-144h27l54 138 31 139-11 71 10 24 8-3-7-18 2-37 16-5 19 43 4 32-12 26 9 2 11-26 2-28-26-69-26-159-35-133q-10-27-25.5-39.5T365 245q-12-4-26.5-5.5T306 236v-49l47-3 7-51q2 0 6-1t7-1l-19-45h-72q-1-1-3.5-3t-8.5-2q-9 0-11.5 5.5T256 97q0 4 4.5 13t7.5 14l18 30-42 37v47l-59 7q-21 3-36.5 15.5T123 300L87 433 62 592l-26 69 2 28zm280-603q-8 0-13.5-2.5T305 104q5-5 11-8.5t15-3.5q7 0 13.5 3t6.5 8q0 5-8 7t-14 2zM148 692h223q-9-19-9-30 0-17 3-39 2-16 3-23.5t1-21.5q0-26-8.5-57.5T331 463l-92 16zm144 291h108q2-14 3-28.5t1-29.5q0-37-5-77.5T386.5 770q-7.5-37-13.5-61h-51l4 29 49 174q2 4 2 7v6q0 16-13.5 24.5T333 961l-41 9zM5 983h113l87-274h-58l-15 41v42l-31 121q-7 23-16.5 34T61 961l-56 9z" fill="currentColor"/></svg>