<svg xmlns="http://www.w3.org/2000/svg" viewBox="-10 0 537 1001"><path d="M-10 1001v-43l66-11q15-3 20-15t9-25l32-198 115-218-47-168h-3l-47 123-32 133 7 69-15 39-29-11 10-24v-15l-4-1-9 24-5 28 13 31-28 9-18-35-2-32 22-77 24-162 37-132q15-52 71-61l52-8v-21l-27-2-60 36-24-38 64-24-4-26q-5-1-11.5-1.5T154 143l32-69q4-29 20.5-51.5T270 0q46 0 66 25t22 59l10 132h-46v8q29 0 55 7 25 6 42.5 18.5T444 290l37 132 24 162 22 77-3 32-17 35-28-9 13-31-5-28-9-24-4 1v15l9 24-28 11-15-39 7-69-32-133-47-123h-3l7 150q12 19 20 38t8 52q0 12-5.5 29T383 626.5q-6 17.5-6 32.5 0 8 4 25t6 27l11 38.5 17.5 78.5q17.5 78.5 8.5 102 0 18-1.5 36.5T419 1001H273v-43l55-11q12-3 21-8.5t9-15.5q0-6-1-10l-10-33q-40 5-87 8t-95 4l-35 109zm307-802h51l-8-112q-1-25-16-46.5T272 19q-35 0-48 15t-17 35h65q1-2 4-3.5t11-1.5q12 0 19 9.5t7 20.5q0 19-10 32zm-23 39q18 0 33-9v-13h-30l7-92q3-5 7-14t4-13q0-5-2.5-10.5T281 81q-6 0-8 2t-4 3h-72l-19 45q3 0 7 1t6 1l7 43 5 10 42 1v44q14 7 29 7zm-52-126q-7 0-14.5-2t-7.5-7q0-5 6.5-8t13.5-3q9 0 15 3.5t11 8.5q-5 3-10.5 5.5T222 112zM111 872q60-1 104.5-2.5t87-5.5q42.5-4 96.5-11-6-54-15-84t-16-58q-11-41-11-47 0-15 6-34.5t11.5-38Q380 573 380 562q0-26-7-45.5T353 481l-6-178h31l22 57 40-12-13-48q-8-28-23.5-39.5T367 245q-18-4-41-6-24 19-52 19-32 0-49-19l-40 6q-23 4-38.5 16T123 300l-13 48 39 12 23-57h27l54 192-116 217zM49 715l9-2-12-26 4-32 19-43 16 5 2 37-7 18 8 3 10-24-11-71 31-139 25-63-38-12-18 67-25 159-26 69 2 28zm452 0l11-26 2-28-26-69-26-159-18-66-37 12 25 62 31 139-11 71 10 24 8-3-7-18 2-37 16-5 19 43 4 32-12 26zM292 983h108q2-14 3-28.5t1-29.5q0-26-3-53l-36 6 10 34q2 4 2 7v6q0 16-13.5 24.5T333 961l-41 9zM5 983h113l29-91h-41l-5 21q-7 23-16.5 34T61 961l-56 9z" fill="currentColor"/></svg>