<svg xmlns="http://www.w3.org/2000/svg" viewBox="-10 0 819 1009"><path d="M34 1009v-45l69-12q20-3 26.5-15t9.5-26l33-228q5-39 10-60t14-31.5q9-10.5 30-15.5l73-19-10-26 174-51-17-121-125 67-171-82-14 10L15 941l-25-4 123-591-15-5-5-18 19-60 11-5 8 2 46-221 23 5-47 225 15 5 3 14v2l136 59 98-66q8-4 14.5-10t14.5-10l-24-20 59-53-12-25q-7 0-14-.5t-14-.5l42-92-31-15 8-30q-7-1-16-4t-10-9q1-5 6-9.5T446 0q7 0 16.5 4.5T472 20q0 7-4 15t-4 16l10 4q14-47 80-47 70 0 103.5 40.5T691 156v13l63-84q11-4 22.5-11T788 51q0-25-25-25-12 0-16.5 6.5T742 44q0 6 2.5 11.5T749 65l-49 19-6-18 30-13q-2-4-2-10 0-16 12.5-26.5T764 6q23 0 34 13.5T809 47q0 22-12 35.5T765 100l-74 100v68q10 6 16 14.5t11 16.5l74 130-23 48-173-45-8 56v15q0 52-11.5 86.5t-42.5 52Q503 659 445 659h-51v101h209V520q0-16 9-30.5t32-14.5q17 0 26.5 9.5T680 508q0 13-8.5 20.5T652 536h-9v-17h7q11 0 11-12 0-5-4-9.5t-13-4.5q-13 0-17 8.5t-4 17.5v490H259V717l-71 292zm561-713l76-101v-21q0-65-24-105.5T555 28q-20 0-38 6.5T492 59l64 23q6-6 13-6 12 0 19 8.5t7 18.5zm-28 186l10-55-17-4-19 6-14-9-21 29-17-12 21-28-3-2v-19l33-53 12-3 11 8 13-18V104q0-2-1-6t-7-4q-7 0-12 6l-70-23-33 73q4 0 8 .5t8 .5l21 44 39-13 14 74-60 6q-14 1-26.5 8T423 292l-113 78-145-63-7 23 163 76 128-71 12 2 21 144zm-53-355q-20 0-35-13 5-5 14.5-7t11.5-2q12 0 18.5 5t13.5 15q-7 1-12.5 1.5t-10.5.5zm-58 124q6-3 13.5-4.5T486 243l36-3-6-35-33 8zm155 55h60v-80zm-471 26l13-44-27-9-13 43zm621 125l13-26-71-120q-3-5-6-10.5t-6-10.5v33h-49l83 93-2 6-142-32-10 17zm-164-82l21-52h-19l-20 28 12 8v15zm86 19l-53-54-14 40zm-133 14l23-39-24-16-23 40zM355 642h87q23 0 45-3.5t40.5-16q18.5-12.5 29.5-40t11-76.5v-7H463l-147 45zM53 990h123l83-345v-3h74l-27-68-77 21q-20 5-26.5 23T189 686l-34 231q-5 25-18.5 36.5T105 967l-52 9zm225 2h96V659h-96zm116 0h23V797h186v-20H394zm42 0h167V814H436z" fill="currentColor"/></svg>