<svg xmlns="http://www.w3.org/2000/svg" viewBox="-10 0 1029 1001"><path d="M574 1001q-36 0-61.5-20.5T487 923q0-21 12-38.5t40-43.5l204-190-7-88-98-159-101 161-250 66-34 39-81-7-2-24H60q-24-27-39.5-59.5T1 515l-11-68h317l-11 68q-1 14-5.5 27t-9.5 27l193-61 76-161q9-21 31.5-43.5T643 271l54-14-7-22-40 19-31-60-31 3 37-114V70q4-33 28.5-51.5T729 0q51 0 87 25t36 72q0 24-10.5 50T812 208l17 57q6 6 18 20.5t23 32.5q11 18 16 37l63 236 15 157h34l20 93q1 4 1 7.5v7.5q0 14-6 25.5T998 899q-7 6-21.5 12.5t-29 11Q933 927 924 927l-14-39 29-15q7-4 7-10t-5-14l-14-33-223 145q-30 20-66 30t-64 10zm224-804q15-26 25-51t10-51q0-28-16.5-44.5t-42-24Q749 19 723 19q-29 0-52 12.5T643 71l83 35q5-5 11-9t14-4q11 0 19.5 8.5T779 121q0 6-3.5 16t-7.5 16l-13 19zM249 650l29-32 246-70 104-166 19-2 109 181 6 84 166-57-60-228q-5-16-16.5-34.5T828 292q-12-15-18-22l-16-56-59-35 19-32q2-4 4.5-11t2.5-11q0-2-1.5-8.5T750 110q-7 0-11.5 4.5T730 126l-91-39-29 94 19-2 27 53 43-20 19 57-74 20q-37 10-53 30.5T567 357l-77 164-209 65-44-16-4 9 32 21q-10 16-15.5 23.5T238 639h-51l1 8zm414-508q-16 0-29-9 5-7 14-9.5t11-2.5q2 0 4-.5t3-.5q15 0 27 16-18 6-30 6zM69 620h159q4-5 7-9.5t7-9.5l-26-21 16-25 29 11q11-25 16-54l7-45H13l7 45q5 29 18 59t31 49zm515 295q37-21 82-48t93-53q48-26 96-44t91-21l-15-138-178 57-208 195zm-9 66q28 0 63.5-10t64.5-29l230-151 25 54q4 9 4 19 0 15-9 19l-24 13 6 15q14-5 31-13t24-13q12-10 12-31 0-9-1-13l-18-74q-49 0-101.5 17.5t-105 44Q724 855 674 884.5T580 938l-50-62q-15 14-19.5 24.5T506 924q0 26 21 41.5t48 15.5z" fill="currentColor"/></svg>