<svg xmlns="http://www.w3.org/2000/svg" viewBox="-10 0 429 995"><path d="M73 995v-20h91q13-63 27-130t28-131H42v-19h321q9-23 22-72t13-117q0-29-6.5-63T376 377H221v144h89v19H42v-19h115q0-16-7.5-39.5T127 433L27 263q-14-23-25.5-51T-10 158q0-34 8-58t14-38l18 9q-5 13-13 34t-8 53q0 14 6.5 33.5t15 37Q39 246 44 254l100 169q16 27 24.5 54t8.5 44h24V192q-15-16-24-35t-9-42q0-27 12.5-53.5t36.5-44Q241 0 278 0q33 0 58.5 16t40 42Q391 84 391 112q0 35-12 63.5T348 241q3 6 13.5 33.5t23.5 67q13 39.5 22.5 83T417 506q0 53-7.5 95t-17 69.5Q383 698 379 709q6 19 15.5 50t17 65.5Q419 859 419 887q0 35-3 64.5t-6 43.5h-78v-20h62q1-10 3-32t2-56q0-27-7-59t-16-62q-9-30-16-52H239l-59 281zm259-765q18-34 29-60t11-58q0-35-26-64t-68-29q-29 0-49 14.5T198.5 70Q188 92 188 115q0 35 23.5 59.5t57 39Q302 228 332 230zM221 357h149q-12-39-24-69t-15-38q-27-2-56-12.5T221 209zm33-34v-20h88v20zM42 617v-20h197v20z" fill="currentColor"/></svg>