<svg xmlns="http://www.w3.org/2000/svg" viewBox="-10 0 784 1001"><path d="M254 1001v-43l66-11q15-3 21-14.5t8-25.5l33-117-3-42 13-39h-11l124-236-52-133-141 53-204-69-13 3-18 14h-3v46H55v-46h-1l-32-16-10-35 4-9 7-2-5-15 37-13v-15H0v-19h55v-8q-19-3-37-12.5T-10 179q5-4 14-9t20-10q-21-7-34-19 4-2 9-5.5t12-6.5q-3-4-5.5-9.5T1 106h21q2 9 7 16 4-1 7.5-2t7.5-2v-4q0-24 21-24 22 0 22 24v5q12 4 25.5 11t21.5 11l-9 17q-7-4-17.5-9.5T87 139v14q15 4 29.5 12t22.5 14q-2 2-7 5l-10 6q7 6 15 20l-21 4q-5-8-12-14-13 6-30 9v8h58v19H74v10l235 69 91-57q6-7 22-14t33.5-13q17.5-6 26.5-7v-24l-48-3-8-51q-5-1-11.5-1.5T402 143l32-69q0-4-.5-9.5T433 54q-1-20 16.5-37T513 0q46 0 70 25t24 59q0 27-21 62l-16 28v34q23 0 53.5 6t49.5 36l52 98 16 164 22 16 11 28-3 56h-22l-3-39-13-11-2 28h-20l-15-52-22-140-46-86 4 142q23 32 31.5 61t8.5 62q0 14-6 27t-8 32q-1 10-2 18t-1 16v18.5l2 20.5q6 24 13 60.5t11.5 78.5q4.5 42 4.5 82 0 18-1 36.5t-4 34.5H538v-43l55-11q12-3 20.5-8.5T622 923q0-6-1-10l-50-174-4-30h-80l-92 292zm298-833l21-33q5-8 10-21t5-27q0-25-18-46.5T515 19q-34 0-48 11t-14 25q0 10 2 14h65q1-2 4-3.5t11-1.5q12 0 19 9.5t7 20.5q0 17-11 32l-17 25zm205 432h5l2-40-13-23-23-18-18-162-55-101q-10-15-28-22.5t-57-7.5h-15v-35l-42-37 18-30q3-5 7.5-14t4.5-13q0-5-2.5-10.5T529 81q-6 0-8 2t-4 3h-72l-19 45q3 0 7 1t6 1l7 51 52 3v51q-19 3-47 13.5T409 275l-95 58-246-74-33 11 2 5 30-6 23 13 7 27 10-2 204 67 153-57 57 147 94-17-5-155 19-8 61 109 20 140 9 48h4l3-36 7-2 20 20zM470 112q-6 0-14-2t-8-7q0-5 6.5-8t13.5-3q9 0 15 3.5t11 8.5q-5 3-10.5 5.5T470 112zm-411 3h12v-1q0-9-6-9t-6 9zm12 36v-16q-2 0-3.5-.5T65 134h-6v16h6q3 0 6 1zm-27-3v-11q-11 3-18 6 4 2 8.5 3t9.5 2zm15 41q2 1 3 .5t3-.5h6v-19H59zm-15-2v-14q-6 2-11.5 3.5T25 179q4 2 8.5 4t10.5 4zm43-1q11-3 17-7-4-2-8.5-3.5T87 173zM62 328h10l15-10-7-27-15-8-38 9 6 21zm349 364h226v-35l2-21q2-17 8-30.5t6-27.5q0-26-7-57.5T618 463l-98 17zm145 291h109q2-14 3-28.5t1-29.5q0-37-5-77.5T652 770q-7-37-14-61h-51l4 29 49 174q1 4 1 7v6q0 16-13 24.5T598 961l-42 9zm-286 0h112l88-274h-58l-15 41v42l-32 121q-4 24-15 34.5T325 961l-55 9z" fill="currentColor"/></svg>