<svg xmlns="http://www.w3.org/2000/svg" viewBox="-10 0 517 1001"><path d="M-10 1001v-43l66-11q15-2 20.5-14.5T85 907l30-117-1-42 14-39 64-236-36-150h-4L93 443 76 550l7 69-16 39-28-11 10-24-1-15-3-1-10 24-4 27 13 32-29 9-17-35-3-33 22-76 10-136 49-129q9-25 27.5-41.5T148 230l49-4v-26l-43-3-7-51q-5-1-11.5-1.5T123 143l32-69q-2-10-2-20 0-20 23.5-37T246 0q46 0 69.5 25T339 84q0 29-20 62l-16 28v50q11 1 26.5 2t27.5 4q25 6 43 20.5t27 39.5l62 126 14 165 4 80-10 30-25 31-25-15 19-28 2-28-4-25h-3l-4 14 4 26-30 4-6-41 22-66-24-123-72-117h-3l-17 131q22 32 31 61t9 62q0 14-1 20t-3 26q-3 28 1 48t8 38q6 24 12.5 60.5t11 78.5q4.5 42 4.5 82 0 18-1 36.5t-4 34.5H241v-43l55-11q13-2 21.5-7.5T326 925q0-8-6-27l-60-189-6-36h-2l-10 36-97 292zm295-833l21-33q5-8 10-21t5-27q0-25-18-46.5T248 19q-35 0-54.5 11T174 55q0 5 .5 8.5t.5 5.5h78q2-2 5-3.5t10-1.5q12 0 19 9.5t7 20.5q0 17-11 32l-17 25zm184 540l16-23 9-27-9-73-14-159-61-126q-10-27-25.5-39T348 245q-13-2-27-3.5t-33-3.5v-47l-42-37 18-30q3-5 7-14t4-13q0-5-2-10.5T262 81q-6 0-8.5 2t-3.5 3h-84l-19 45q2 0 6 1t7 1l7 51 47 3v54q-7 0-25.5 1t-32.5 3q-21 2-36.5 15T94 300L46 430 34 563 8 632l3 28 11 26 8-2-11-26 4-32 19-43 15 5 3 37-7 18 8 3 9-24-11-71 18-113 66-135h27l42 176-16 58q25-5 49.5-18t43-29q18.5-16 24.5-31l1 1 20-157h26l80 132 23 133-27 66 4 26 8-1-2-20 11-34 15-2 9 46-3 32-17 23zM191 112q-7 0-14.5-2t-7.5-7q0-5 6-8t14-3q15 0 25 12-5 3-10 5.5t-13 2.5zm160 576q-4-17-4-33t1-32q1-16 2.5-23.5T352 578q0-22-6.5-48.5T325 479q-16 24-53.5 47T197 556q17 44 36.5 65.5T285 660q14 7 33 15t33 13zm-197 3q19-4 46.5-13.5T246 659q-18-13-33-32t-28-48zm106 292h123q2-14 3-28.5t1-29.5q0-37-5-77.5T370 770q-7-37-14-61-11-3-37-12.5T275 676l5 33 57 186q2 8 4.5 16t2.5 14q0 16-13 24t-30 12l-41 9zM5 983h127l92-274 5-26q-5 2-20 7.5t-32.5 11Q159 707 147 709l-15 41v42l-31 121q-6 23-16 34t-24 14l-56 9z" fill="currentColor"/></svg>