<svg xmlns="http://www.w3.org/2000/svg" viewBox="0 0 420.3 594.7"><path d="M290.5.1c47.3-1.3 71.2 14.1 71.8 46.1.6 32-13.3 58.9-41.7 80.6-2.9 3.3-4.4 6.3-4.4 8.8 0 11.7 6.9 18.4 20.7 20.1 18 8.4 29.7 19.2 35.1 32.6 31.8 62.7 47.9 102.1 48.3 117.9 0 13-6.1 44.8-18.2 95.4v11.9l10.7 36.4c0 9.6-6.5 19.9-19.4 30.7l-8.8-1.3c-14.6 31.4-22 61.7-22 91 0 12.5-6.9 19.2-20.7 20.1-13.8.8-21.5-1.7-23.2-7.5 17.6-47.3 18.3-70.9 2.2-70.9s-57.2 17.4-123.3 52.1c-53.5 24.3-92.6 34.1-117.3 29.5-6.7-1.3-10-4.2-10-8.8l22-28.2c0-15.9 10.2-34.3 30.7-55.2v-1.3c-23.4-67.8-35.1-107.9-35.1-120.5 0-10.5 5.2-20.7 15.7-30.7 5.4-2.9 10.5-4.4 15.1-4.4 2.9 0 40.4 13.6 112.3 40.8 4.2-.8 6.8-10.7 7.8-29.5s-9.7-61.5-32.3-128c-47.7 52.3-78 78.6-91 79-7.1 0-25.1-17.8-54-53.3-12.5-20.1-27.8-39.9-45.8-59.6C5.2 178.5 0 169.7 0 167.6l5.6-1.9c2.9 0 9.4 4.4 19.4 13.2h2.5v-1.3c-7.1-27.2-14.4-40.8-22-40.8V135H4.4c1.3-3.8 3.8-5.6 7.5-5.6 16.3 0 28.4 21.1 36.4 63.4 1.7 5 24.7 28.9 69 71.5 54.8-61.9 87.8-93.7 99.1-95.4l22.6-10c5.4-8.4-3.6-11.7-27-10-4.6 0-7.5-6.7-8.8-20.1L202 118l-4.4-11.9c-5 0-7.5-2.1-7.5-6.3 0-3.8 13.6-26.1 40.8-67.1C249.3 12.2 269.1 1.3 290.5.1zm-37 31.3c14.2 10.5 35.6 15.7 64 15.7 7.9 5.9 11.9 11.9 11.9 18.2 0 7.5-7.9 24-23.8 49.6v2.5c20.5-8.8 33.5-25.9 38.9-51.4 5.4-25.5-4.9-41.2-31.1-47.1-26.2-5.9-46.1-1.7-59.9 12.5zm-22.6 24.5v.6c0 1.7 5.4 3.1 16.3 4.4 12.1 5.9 18.4 9.6 18.8 11.3v1.3c-15.5-4.6-25.7-6.9-30.7-6.9h-3.8c-7.5-3.2-19.4 11.4-27.8 29.1l10.4 6.8-.2 8.7c0 2.9 3.8 4.2 11.3 3.8l-1.3 5.6c-5.9 1.7-7.7 3.8-5.6 6.3 0 6.7 10.2 10 30.7 10 8.4 4.6 12.5 11.7 12.5 21.3 0 9.6-7.3 15.7-22 18.2-14.6 2.5-22 9.4-22 20.7 0 11.3 6.4 37.1 19.1 77.5 12.8 40.4 18.7 77.9 17.9 112.6h1.3l71.5-26.3c-6.3-86.2-2.9-140.7 10-163.7-1.7-15.9-9-25.4-22-28.5-13-3.1-19.7-13.7-20.1-31.7-7.1-7.1-11.1-13.6-11.9-19.4 0-2.9 8.4-15.1 25.1-36.4 2.9-5.9 4.4-10.2 4.4-13.2v-3.1c-1.7-2.9-4-5.2-6.9-6.9h-8.8L282 63.6c-19.3-10.6-32.1-15.8-38-15.8h-1.3c-3.7 0-7.6 2.7-11.8 8.1zm70.9 5c4.6 2.1 6.9 4.8 6.9 8.2 0 9.2-8.4 19-25.1 29.5l-3.8 1.3-5-4.4c2.9-3.8 6.9-11.9 11.9-24.5 6.7-6.7 11.7-10.1 15.1-10.1zm-15.1 18.8l1.9 4.4-1.9 4.4 1.3 1.3h.6c9.6-5.4 14.4-12.3 14.4-20.7l-1.3-1.3h-.6c-5.8 0-10.6 4-14.4 11.9zm-49.6-10c20.9 5.4 32 8.8 33.2 10l-34.5 8.8c-10-1.7-15.1-4.6-15.1-8.8 3.1-6.6 8.5-10 16.4-10zm-10.6 8.8l3.1 3.8h1.9V81l-.6-5.6h-1.3l-3.1 3.1zm15-3.1l-1.3 7.5h1.3c5.9 0 9.2-1.5 10-4.4l-8.8-3.1h-1.2zm37.7 18.8l1.9 1.9 1.3-.6h1.3l-1.3-3.8h-1.3l-1.9 2.5zm64.6 130.5c-1.7 92.4 2 147.4 11 165 9 17.6 10.4 42.7 4.1 75.3H372l-4.4-13.8c2.9-5 5.6-31.4 8.2-79l8.8-60.9c-6.7-12.1-16.7-36.6-30.1-73.4l-9.4-13.2h-1.3zM118.6 376.5v.6c0 11.3 9.2 44.3 27.6 99.1 37.6-31.4 61.5-52.9 71.5-64.6l-91.6-38.9-7.5 3.8zm39.5 131.7c0 2.5 6.3 8.6 18.8 18.2 2.1 0 11.6-6.7 28.5-20.1 16.9-13.4 43-19.9 78.1-19.4 25.1 0 41.4-6.9 48.9-20.7 6.7-14.2 9.5-30 8.5-47.4s-7-26-17.9-26c-34.3 0-85.9 33.3-155 99.8l-9.9 15.6zm-52.7 55.9c12.1 13.8 30.7 8.6 55.8-15.7-4.6-5.9-14.8-13.2-30.7-22-16.7 13.4-25.1 26-25.1 37.7z"/></svg>