<svg xmlns="http://www.w3.org/2000/svg" viewBox="-10 0 757.378 1001"><path d="M227.378 1001v-43l66-11q15-3 20.5-14.5t7.5-25.5l33-117-3-42 13-39h-10l124-236-50-129-96 146-156-43-13 4-4 3 6 16-19 6-4-11h-19l-33-17-9-35 4-9 6-2-4-15 16-5q-29-13-60-35t-42-56q-16-47-9.5-107.5T9.378 62l19-7 103 316 11-4 163 43 66-130q10-21 31.5-38.5t51.5-19.5v-22l-48-3-8-51q-5-1-11.5-1.5t-11.5-1.5l31-69q0-4-.5-9.5t-.5-10.5q-1-20 16.5-37t63.5-17q46 0 70 25t24 59q0 27-21 62l-15 28v34q15 0 35 1.5t38.5 10.5q18.5 9 29.5 30l51 98 16 164 22 16 12 28-4 56h-22l-3-39-12-11-3 28h-20l-15-52-21-140-47-86 5 142q22 32 31 61t9 62q0 14-6.5 27t-8.5 32q-1 10-1.5 18t-.5 16v18.5l1 20.5q6 24 13 60.5t11.5 78.5q4.5 42 4.5 82 0 18-1 36.5t-4 34.5h-143v-43l55-11q12-3 20.5-8.5t8.5-15.5q0-6-1-10l-49-174-5-30h-79l-93 292zm297-833l21-33q5-8 10-21t5-27q0-25-18-46.5t-55-21.5q-34 0-48 11t-14 25q0 10 2 14h65q1-2 4-3.5t11-1.5q13 0 19.5 9.5t6.5 20.5q0 17-11 32l-17 25zm205 432h5l2-40-13-23-23-18-18-162-55-101q-8-16-27-23t-57-7h-16v-35l-42-37 19-30q2-5 6.5-14t4.5-13q0-5-2.5-10.5t-10.5-5.5q-7 0-9 2t-4 3h-71l-20 45q3 0 7 1t6 1l8 51 51 3v51q-31 0-52 15.5t-31 35.5l-72 141-179-47-33 11 3 4 29-6 24 14 6 26 10 1 151 35 100-153h11l56 149 94-17-5-155 20-8 60 109 20 140 9 48h4l3-36 7-2 20 20zm-287-488q-6 0-14-2t-8-7q0-5 6.5-8t13.5-3q9 0 15 3.5t11 8.5q-5 3-10.5 5.5t-13.5 2.5zm-333 252l-87-263q-9 51-12 98.5t9 85.5q10 28 36.5 47t53.5 32zm21 88l11-1 14-10-7-27-15-8-37 9 6 22zm253 240h226v-35l2-21q2-17 8.5-30.5t6.5-27.5q0-26-7.5-57.5t-28.5-57.5l-98 17zm-141 291h113l87-274h-58l-15 41v42l-32 121q-4 24-15 34.5t-25 13.5l-55 9zm286 0h109q2-14 3-28.5t1-29.5q0-37-5-77.5t-12-77.5q-7-37-14-61h-51l4 29 49 174q1 4 1 7v6q0 16-13 24.5t-30 11.5l-42 9z" fill="currentColor"/></svg>