<svg xmlns="http://www.w3.org/2000/svg" viewBox="-10 0 945.174 993"><path d="M18 993v-35q-3-13-15.5-28.5T-10 893q0-10 9.5-23t19-25q9.5-12 9.5-19 0-9-7.5-20T5 783q-8-12-8-25 0-9 7-16.5T18.5 727q7.5-7 7.5-15 0-9-8.5-23T1 661.5Q-7 648-7 639q0-12 11.5-26t23-27Q39 573 40 565t-8.5-21.5q-9.5-13.5-19-29T4 483q1-11 15-24t28-24.5Q61 423 61 417q0-9-7.5-21t-15-24.5Q31 359 31 349q0-11 14-25.5t28-27Q87 284 87 278q0-12-9.5-29.5T75 216q3-6 16-10.5t29-9q16-4.5 28.5-8.5t13.5-8q3-10 1.5-24.5t-3-28.5q-1.5-14 3.5-21 3-4 18-3.5t30.5.5q15.5 0 19.5-3 7-6 11-19.5t7.5-25.5q3.5-12 9.5-15 5-2 21 2t34.5 11Q334 60 349 65.5t18 5.5q12 2 26-5t27-11q-4-11-9.5-22T402 17l16-8q1 2 6 11t9 20q15-17 45.5-28.5T546 0q51 0 88 20t37 48q0 28-37 48t-88 20q-37 0-67.5-11.5T433 96q-4 11-8.5 19.5T418 128l-16-9q5-9 11.5-21.5T422 74q-5 1-25 8t-32 8q-6 0-20-4.5t-30.5-11q-16.5-6.5-29-10T271 64q-8 9-12.5 28T245 118q-6 5-19.5 4.5t-25.5-2q-12-1.5-15 2.5-4 5-2.5 19.5t3 29.5q1.5 15-3.5 21-4 6-23.5 10.5T120 214q-19 6-22 14-3 9 1 19t8 19.5q4 9.5 2 17.5-2 9-17 21.5t-29 25Q49 343 50 352t8.5 21.5l15 25L80 421q6.5 22.5-15 23t-28 24q-6.5 23.5-13 18 1 10 10.5 26t18 31q8.5 15 7.5 23-2 12-14 25t-23 25.5Q12 629 13 640q1 9 9 21t15.5 25.5Q45 700 45 715q0 8-7.5 16T23 746.5q-7 7.5-6 14.5 1 8 8.5 19T40 803q7 12 7 25t-9 24q-9 11-18.5 21.5T10 896q0 6 6.5 18.5T30 939q7 12 7 16v38zm528-877q43 0 73-14t30-34q0-19-30-33.5T546 20q-38 0-67 12t-34 29h-11v15h11q7 17 35.5 28.5T546 116zm-34 867q-35 0-61-20.5T425 906q0-22 13-40t45-39l206-142h3q-17-40-38-64.5T605 578l-61 127-18 14-168 51-81 56-14-22 29-26-21 1-49 36-17-21 55-54 48-3 42-13 125-61 53-122q-9-3-19-6t-21-6l-35 109-23 17-144 46-77 62-15-22 29-26h-21l-49 37-17-22 55-54 46-4 36-20 112-57 35-123q4-14 12-29.5t22-22.5l31-15-13-35-31 19-32-52-27 4 21-93v-11q2-38 32-62t67-24q48 0 79 23.5t31 69.5q0 21-13.5 49T574 338l10 38 46 5q29 3 61 31.5t64.5 70.5q32.5 42 61.5 87t52 81h11v154h33l20 92q5 20-1.5 36T914 956q-11 7-36 17t-39 10l-14-38 30-15q8-6 7-11.5t-5-13.5l-16-34-210 83q-40 16-71 22.5t-48 6.5zm48-660q8-14 19.5-35.5T591 244q0-37-27-55.5T502 170q-29 0-54 19t-28 47l75 13q3-4 8-8t16-4q10 0 17 7t7 18q0 5-3 13.5t-5 13.5l-7 20zM283 808l69-51 166-53 11-10 81-169 17 8-14 27q32 20 56 47t43 73l132-29q-22-35-50-77.5T735.5 492Q705 453 676 427t-53-28l-55-5-14-56-45-20 13-33q4-12 4-20 0-2-1.5-7.5T517 252q-8 0-11.5 4t-5.5 10l-81-16-19 75 17-3 27 46 36-20 27 66-39 19q-16 8-22 24t-9 26l-38 128-119 54-42 21-41 3-44 41 6 6 39-31 41-2 4 6-36 32 5 5 68-57 141-49 14-11 41-123 7 2q14 4 27.5 7.5T536 524q11-19 25-46t36-38v26q-9 5-22 26.5T546.5 545Q531 576 516 610t-27 65l-132 62-48 15h-43l-44 41 6 7 39-32 41-1 4 6-33 29zm158-523q-12 0-23-6 3-6 11-9.5t9-3.5h7q12 0 24 13-18 6-28 6zm82 612q74-40 162.5-63T861 805V669h-7l-160 35-206 144zm327 70q3-2 14.5-6t23-9q11.5-5 17.5-10 9-7 11.5-20t-.5-25l-17-74q-99 2-195.5 25T518 920l-45-59q-29 16-29 45 0 27 21.5 42.5T514 964q16 0 49.5-8.5T631 933l217-86 26 54q6 13 4.5 23.5T869 939l-25 13zM64 993V887h350v106zm20-20h310v-67H84z" fill="currentColor"/></svg>