<svg xmlns="http://www.w3.org/2000/svg" viewBox="-10 0 945.524 993"><path d="M18 993v-35q-3-13-15.5-28.5T-10 893q0-10 9.5-23t19-25q9.5-12 9.5-19 0-9-7.5-21T5 781q-8-12-8-23 0-9 7-16.5T18.5 727q7.5-7 7.5-15 0-9-8.5-23T1 661.5Q-7 648-7 639q0-12 11.5-26t23-27Q39 573 40 565t-8.5-21.5q-9.5-13.5-19-29T4 483q1-11 15-24t28-24.5Q61 423 61 417q0-9-7.5-21t-15-24.5Q31 359 31 349q0-11 14-25.5t28-27Q87 284 87 278q0-7-5-18t-8-23q-3-12 1-21 6-11 23-20t20-16q3-9 1.5-24t-3-29q-1.5-14 3.5-21 3-4 18-3.5t30.5.5q15.5 0 19.5-3 7-6 11-19.5t7.5-25.5q3.5-12 9.5-15 6-2 21.5 2t34 11Q290 60 305 65.5t18 5.5q12 2 26-5t27-11q-3-9-8.5-20T358 17l16-8q2 5 6.5 14l8.5 17q15-17 45.5-28.5T503 0q50 0 87 20t37 48q0 28-37 48t-87 20q-38 0-68.5-11.5T389 96q-4 9-8.5 18t-6.5 14l-16-9q5-9 11.5-22.5T378 74q-3 1-13.5 5t-23 7.5Q329 90 321 90q-7 0-21.5-5t-30-11q-15.5-6-28-9.5T227 64q-8 10-12.5 28T201 118q-6 5-19.5 4.5t-25.5-2q-12-1.5-15 2.5-4 5-3 20t2.5 29.5Q142 187 138 193q-6 8-20.5 15.5T98 228q-3 9 1 19t8 19.5q4 9.5 2 17.5-2 9-17 21.5t-29 25Q49 343 50 352t8.5 21.5l15 25L80 421q6.5 22.5-15 23t-28 24q-6.5 23.5-13 18 1 11 10.5 26.5t18 30.5q8.5 15 7.5 23-2 12-14 25t-23 25.5Q12 629 13 640q1 9 9 21t15.5 25.5Q45 700 45 715q0 8-7.5 16T23 746.5q-7 7.5-6 14.5 1 8 8.5 19T40 803q7 12 7 25t-9.5 24.5q-9.5 11.5-19 22T10 895q1 8 7.5 20.5t13 24Q37 951 37 955v38zm485-877q42 0 72.5-14T606 68q0-19-30.5-33.5T503 20q-39 0-68 12t-34 29h-11v15h11q7 17 35.5 28.5T503 116zM134 993l-23-15 35-68 44-18 36-26 121-210 73-188q5-14 12-29.5t22-23.5l31-15-13-35-31 20-32-53-27 4 21-93v-11q2-37 32-61.5t67-24.5q48 0 79 24t31 69q0 21-13.5 49T574 333l10 38 46 5q29 3 61.5 32.5T756 482q32 44 61 90.5t52 83.5h11v158h33l21 98q4 16-2.5 31T914 966q-11 7-36 17t-39 10l-14-39 28-14q10-5 8.5-12t-5.5-14l-15-33-210 83q-40 16-71 22.5t-48 6.5q-35 0-61-20.5T425 915q0-18 10-34.5t45-41.5l209-149h3q-17-40-44-71t-55-49l-67 154-12 24-138 159-59 79-21-16 19-34-20 7-34 50-23-15 35-68 44-18 36-26 94-159 70-174q-10-3-14-4.5t-15-4.5l-65 154-15 24-159 205-59 79-21-16 19-34-19 7zm426-675q8-13 19.5-35t11.5-43q0-38-27-56.5T502 165q-29 0-54 19t-28 47l75 13q3-5 8-8.5t16-3.5q10 0 17 7.5t7 17.5q0 5-3 13.5t-5 14.5l-7 19zM134 977l28-43 38-14 6 4-22 38 6 5 48-71 159-205 15-25 64-165q19 5 27.5 7.5T525 515q10-19 24.5-46t36.5-38v26q-9 5-23.5 31T531 552.5q-17 38.5-34.5 81T465 714L364 876l-41 29-41 15-28 52 7 5 28-43 38-14 6 4-22 38 6 5 48-71 137-165 7-12 90-203 17 8-14 28q32 19 61.5 53t48.5 80l132-29q-22-35-50-79t-58.5-85Q705 451 676 423.5T623 394l-55-5-14-56-45-20 13-33q4-12 4-19 0-2-1-8t-8-6q-8 0-11.5 4t-5.5 11l-81-17-19 75 17-3 27 46 36-20 27 66-41 21q-12 6-19.5 21t-9.5 27l-73 185-127 213-41 29-41 15-28 52zm307-696q-7 0-12.5-2t-10.5-5q3-6 11-9t9-3q3-1 7-1 12 0 24 13-9 3-16.5 5t-11.5 2zm82 626q74-41 162.5-63.5T861 815V674h-7l-160 35-206 149zm327 70q13-5 30.5-13t24.5-13q9-8 11.5-20t-.5-24l-17-74q-99 1-195.5 24.5T518 930l-45-59q-29 16-29 45 0 26 21.5 41.5T514 973q16 0 49.5-8t67.5-22l217-86 25 52q6 12 5 24t-9 16l-25 13z" fill="currentColor"/></svg>