<svg xmlns="http://www.w3.org/2000/svg" viewBox="0 0 589.4 594.5"><path d="M439.5 411.3c-37.5 14.2-64.9 27.2-82.4 39.1-17.4 11.8-43.1 28.8-76.9 50.7-33.8 22-47.9 37.9-42.3 47.8 8.2 14.6 26.3 17.6 54.3 8.7 28-8.8 53.5-11.1 76.6-6.8 23 4.3 43.2-2.8 60.4-21.3 16.7-46.4 20.2-85.8 10.3-118.2zM316 442.4c6.9-19-4.8-34.7-35.2-47.2-30.4-12.5-49.2-19.8-56.5-22-7.3-2.2-15.5 1.9-24.6 12.3-4.7 13.8 3.1 29.9 23.6 48.5 20.5 18.5 34.7 29.9 42.6 34.2 8 4.3 16.4 3.4 25.2-2.6 8.9-6 17.2-13.8 24.9-23.2zm87.9-307c-7.3-3.4-11.5-8.7-12.6-15.8-1.1-7.1 2.2-13.8 9.7-20 7.5-6.2 13.6-14 18.1-23.3s3.7-15.4-2.6-18.4c-6.2-3-12.6-2.3-19.1 2.3s-10.3 4.2-11.6-1c-19-8.6-30.6-12.9-34.9-12.9s-8.8 4.1-13.6 12.3c9.9-.9 19.7 1.1 29.4 5.8 9.7 4.7 11.5 7.8 5.5 9-19-9.5-32.1-11.2-39.4-5.2L316 96c7.3 3.4 8.6 7.8 3.9 12.9 6.5.4 11.1 1.9 13.9 4.5 2.8 2.6.1 5.8-8.1 9.7 0 9.9 6.5 14.5 19.4 13.9 12.9-.6 18.7 6.8 17.4 22.3-1.3 15.5-11 23.7-29.1 24.6-18.1.9-29.3 5.6-33.6 14.2.4 10.8 6.5 25.5 18.1 44.3 11.6 18.7 19 42.9 22 72.4 3 29.5 4.5 50.2 4.5 62 0 11.8.2 22.2.6 31 .4 8.8 4.2 14.1 11.3 15.8 7.1 1.7 21.5-4.2 43.3-17.8 21.8-13.6 33.1-22.9 33.9-28.1-.9-9.9-1.3-32.2-1.3-66.9s9.3-73.1 27.8-115.3l-23.3-9c-16.6-12.5-27.6-29.5-32.8-51.1zm15.5-4.5c2.6 15.1 9.9 27.4 22 36.8 25.8 4.3 43.9 15.1 54.3 32.3 2.6 6.9 5 22.2 7.1 45.9 0 14.6 1.8 32.3 5.5 53 3.7 20.7 7.6 42.9 12 66.6 10.8 15.5 24.1 45 40.1 88.5 9.9 3 19.6 12.1 29.1 27.1 0 27.1-3.7 40.7-11 40.7-3 0-6.9-3.9-11.6-11.6l-27.1-40.1c-27.6-41.8-45.4-78-53.6-108.6-9-45.2-16.6-83.6-22.6-115-9.9 21.1-14.3 48.1-13.2 81.1 1.1 33 4.2 59.4 9.4 79.5 5.2 20 7.1 39.1 5.8 57.2-1.7 24.6-6.2 46.3-13.6 65.3 19-10.3 28.4-3.9 28.4 19.4 9 9.5 19.6 13.5 31.7 12 12.1-1.5 23 1.6 33 9.4 5.6 5.6 5.2 9.7-1.3 12.3-6.9 0-19.2.6-36.8 1.9-17.7 1.3-47.6-.4-89.8-5.2-65.9 3.9-113 5.9-141.2 6.1-28.2.2-47.5-5.9-57.8-18.4-6.5-13.8-5.3-27.2 3.6-40.4s23.4-27 43.6-41.7c-25.4-14.6-43.9-29.3-55.6-43.9 1.3 22.8-21.5 56.6-68.5 101.5 6.9 32.7-4.1 47.2-33 43.3-9.5-3.9-20.6-3.9-33.3 0-12.7 3.9-26.3 6.5-40.7 7.8-14.4 1.3-23.8 1.3-28.1 0-4.3-1.3-6.2-3.8-5.8-7.4.4-3.7 8.8-8.1 25.2-13.2 16.4-5.2 33.1-11.5 50.1-19.1 17-7.5 31.8-22 44.3-43.3s25.8-50.9 40.1-88.9c6-14.2 13.4-30.2 22-47.8 18.1-19 34-23.7 47.8-14.2 31 9.5 60.5 22 88.5 37.5 8.2 5.2 11.4-2.4 9.7-22.6 0-27.1-3.2-52.3-9.7-75.6-6.5-23.3-11.4-38.8-14.9-46.5-6-9.9-12.5-14.6-19.4-14.2-6 9.9-24.3 36.2-54.9 78.8-35.8 40.5-62.2 68.1-79.5 82.7-12.5 28.4-25.6 45.9-39.4 52.3-13.8 6.5-22.4 5.8-25.8-1.9-5.2-4.3-4.7-14.4 1.3-30.4C97 406.4 111.2 396.5 128 390c31.9-49.1 57.5-81.2 76.9-96.3 17.7-27.6 35.5-55.4 53.6-83.4 10.3-19.8 20.8-31.9 31.3-36.2 10.6-4.3 22.9-6.9 37.2-7.8 14.2-.9 20-6.7 17.4-17.4-9 .9-16.6 1-22.6.3-6-.6-9-3.6-9-8.7 0-5.2-1-9.7-2.9-13.6-1.9-3.9-1.7-6.5.6-7.8 2.4-1.3 2.3-1.9-.3-1.9-1.7 0-2.7-1.2-2.9-3.6-.2-2.4.8-4.4 2.9-6.1-1.7-1.7-4.7-2.6-9-2.6s-5.2-4.1-2.6-12.3c14.2-19.4 23.3-34 27.1-43.9C342.5 22 361.1 6.5 381.6 2.2s40.1-2.6 58.8 5.2c18.7 7.8 29.2 20.4 31.3 37.8 2.2 17.4-1.4 33.3-10.7 47.5-9.1 14.3-23 27-41.6 38.2zM327 80.5c3.9-7.8 9-12 15.5-12.6 6.5-.6 14.9 2.3 25.2 8.7h12.9v3.9h-12.9c-6.9 4.7-13.9 7.4-21 8.1-7.1.6-13.6-2.1-19.7-8.1zm13.6-7.1c-1.7-.9-4.1.4-7.1 3.9 2.6 3.9 6.2 5.6 11 5.2-6.1-1.4-7.3-4.4-3.9-9.1zm3.9 9c6 0 11.6-1.1 16.8-3.2-4.3-2.2-8.6-4.1-12.9-5.8 3.8 3.9 2.5 6.9-3.9 9zm45.2 2.6c-1.7-3-.5-7.5 3.6-13.6 4.1-6 8.6-9.7 13.6-11 5-1.3 8.1-.5 9.4 2.3 1.3 2.8 1 6.8-1 12-1.9 5.2-6.2 10.9-12.9 17.1-6.7 6.2-11.7 8.6-15.2 7.1-3.4-1.5-4.8-3.8-4.2-6.8.6-3 2.8-5.4 6.7-7.1zM402 68.2c-3 3.4-5.4 6.9-7.1 10.3-1.7 3.4-1.2 4.6 1.6 3.6 2.8-1.1 2.8.2 0 3.9-2.8 3.7-2.8 4.8 0 3.6 2.8-1.3 5.8-3.9 9-7.8s5.2-7.8 5.8-11.6c.7-3.9-2.4-4.6-9.3-2zm-9.7-22c22.8-6 36.3-3.2 40.4 8.4 4.1 11.6-.5 26.5-13.9 44.6s-10.8 19.8 7.8 5.2c18.5-14.6 27.6-31.6 27.1-50.7-.4-19.2-12.2-31.4-35.2-36.8-23-5.4-39.6-3.8-49.8 4.8-10.1 8.6-2.3 16.8 23.6 24.5zm-3.2 44c-2.6 1.3-3.4 2.9-2.6 4.8.9 1.9 2.4 2 4.5.3s1.5-3.4-1.9-5.1z"/></svg>