<svg xmlns="http://www.w3.org/2000/svg" viewBox="-10 0 1049 1001"><path d="M-10 1001v-45l81-12 37-11 20-28q7-34 16-73.5t17.5-76.5q8.5-37 15-64t9.5-37q6-21 12-36l-89 57-29 39-79 16-9-33 57-18 13-18-42 10-10-28 100-34 143-117 119-176q13-17 37.5-27t56.5-18l55-13-7-26-40 15-24-63-31-2 49-110 2-13q7-28 28-43.5T558 0q36 0 66.5 12T674 46.5Q693 69 693 99q0 28-16 55t-43 64v38l102 25q28 7 34.5 25.5T782 339l58 185 86 164 35 28 45 18 33 75-26 15-31-52-20-8 18 34-36 19-54-87-129-166-59-167-40 158-5 109v158h33l20 93q5 20-1.5 36T691 974q-8 5-22 11.5t-29 11q-15 4.5-24 4.5l-14-39 27-14q9-5 9.5-10t-4.5-15l-16-34-210 83q-41 16-72 22.5t-47 6.5q-35 0-61-20.5T202 923q0-5 1-8-4 6-7.5 11.5T190 935l-9 66zm632-795q20-28 36.5-55.5T675 95q0-26-20-43t-47-25q-27-8-49-8-25 0-44.5 10T488 62l78 44q5-4 11-7t13-3q13 0 20 9.5t7 20.5q0 7-5 16.5T602 158l-14 18zm327 596l15-9-22-43 7-7 39 15 26 44 7-4-25-54-42-15-39-32-93-167-56-184q-5-13-11.5-28.5T734 298l-119-29v-47l-49-41 23-31q3-5 7-11.5t4-10.5q0-3-2-8.5t-10-5.5q-11 0-20 12l-85-48-41 91 20 1 20 55 45-15 15 62-77 16q-19 4-44.5 15T385 328L268 504 115 623l-85 26 2 7 48-11 4 10-23 35-49 15 3 7 58-12 25-37 200-131 131-161h7l59 251-7 70 152-32 5-110 45-171 23 1 60 168 128 172zM507 135q-11 0-19.5-3.5T472 123q5-6 14.5-8t12.5-2q20 0 31 20-7 1-12.5 1.5t-10.5.5zm-36 560l5-72-52-222-120 150-34 22q37 0 76 19.5t72 48q33 28.5 53 54.5zM9 982h156q1-7 2.5-22t3.5-25q12-17 25-43.5t24-53.5q11-27 17-43 11-30 16.5-64.5T261 670l11-5q15 4 34 25t36 45q17 24 24 36l90-63q-21-25-50.5-51.5t-65-45.5Q305 592 269 592q-8 0-22 5.5t-18 9.5q-9 9-15 23.5T203 664q-3 9-9 35.5t-14.5 63q-8.5 36.5-17.5 76T145 913l-26 34-42 12-68 9zm290-67q75-41 163.5-63.5T638 823V679l-157 35-216 152zm-76-41q7-7 16-14t21-15l91-64q-7-10-20-28.5t-27.5-36Q289 699 277 692q-1 27-7.5 57.5T255 802q-4 10-13 30t-19 42zm404 111q14-5 31-13t24-13q8-7 11-19.5t0-24.5l-18-74q-98 1-194.5 24.5T295 938l-45-59q-29 16-29 45 0 26 21 41.5t49 15.5q16 0 49-8t68-22l217-86 25 54q6 13 4.5 23.5T646 957l-25 13z" fill="currentColor"/></svg>