<svg xmlns="http://www.w3.org/2000/svg" viewBox="-10 0 896 1001"><path d="M-10 1001v-45l84-15 14-9q-1-4-1-11 0-41 67-71l-54-196q-1-5-3.5-17T94 619q0-26 15.5-48.5T157 548q15 0 31 6.5t27 19.5l150 168 15-92-53-240-200 4-48-229L24 80l23-17 31 31-1-27-33-47L70 0l53 60 12 42-3 61 63 156 201-33-8-29-40 14-24-63-31-1 49-111 2-13q7-28 28-43.5T432 24q36 0 66.5 12T548 70.5Q567 93 567 124q0 28-16 55t-43 64v43l207 33 63-156-3-61 12-42 53-60 26 20-33 47-1 27 30-31 24 17-55 105-48 229-182-4-41 145-12 159 20 2v190l50 35 84 15v45h-89l-135-38-198 29q-39 6-67.5 7.5T179 1001q-31 0-53-13l-47 13zm392-253l148-33 13-165 45-160 180 4 48-214 50-93-6-5-35 36-8-3-1-44 31-46-7-5-39 46-7 38 1 64-68 171-238-37v-55l-48-42 22-31q3-5 7-11.5t4-10.5q0-3-2-8.5t-10-5.5q-7 0-11 3.5t-9 9.5l-85-48-41 90 20 1 20 56 45-15 15 65-233 39-68-171 1-64-8-38-39-46-6 5 31 46-2 44-7 3-35-36-6 5 50 93 48 214 200-4 57 259zm114-518q20-28 36.5-55t16.5-56q0-26-20-42.5t-47-25Q455 43 433 43q-25 0-44.5 10T362 86l78 45q12-10 24-10 13 0 20 9.5t7 20.5q0 6-5 15.5T476 183l-14 17zm-115-70q-11 0-19.5-3.5T346 147q5-6 14.5-7.5T373 138q20 0 31 19-13 3-23 3zM171 842l44-22-61-184 29-63q-12-6-27-6-19 0-31 14.5T113 619q0 7 2.5 16.5T120 653zm62-30l124-56-159-175-24 54zm-38 109l356-20V731h-8l-170 36-220 102zm421 61h67v-14l-72-9-58-41-368 20-50-60q-29 15-29 41t12.5 39q12.5 13 29.5 18t32 5q17 0 46-2.5t51-6.5l207-30zM9 982h67l31-8q-10-11-14-23l-12 8-72 9z" fill="currentColor"/></svg>