<svg xmlns="http://www.w3.org/2000/svg" viewBox="-10 0 981 1031"><path d="M-10 1031v-45l81-12 37-11 20-28q8-32 17-68.5t18-71q9-34.5 15.5-60T188 700q7-23 14-39t18-26q7-6 24.5-11t26.5-5q38 0 76.5 16t71 40q32.5 24 52.5 50l5-72-20-87q-43 21-90 27t-89 4l-23-12q2-27 14-61t29.5-68q17.5-34 35.5-63t33-47q14-17 41-27t59-18l55-13-7-26-40 15-24-63-31-2 49-110 2-13q7-28 28-43.5T558 30q36 0 66.5 12T674 76.5Q693 99 693 129q0 28-16 55t-43 64v38q29-1 66 6 21 4 47.5 11t53.5 14q27 7 47.5 12.5T878 337q-4-22-6.5-46t-.5-49q1-7 3.5-34t4.5-49L846 59l28-9 17 40 7-21-20-57 32-12 35 73-14 46q4 62 14 136.5T971 407l-15 10q-44 6-101.5 1.5T704 399l-42 186-5 109v158h33l20 93q5 20-1.5 36t-17.5 23q-8 5-22 11.5t-29 11q-15 4.5-24 4.5l-14-39 29-15q9-4 8-10t-5-14l-16-34-210 83q-41 16-72 22.5t-47 6.5q-35 0-61-20.5T202 953q0-5 1-8-4 6-7.5 11.5T190 965l-9 66zm498-309l152-32 5-110 46-202q76 13 126 18t82 5q32 0 50-2-10-61-20.5-136T915 117l14-42-25-54-7 3 17 48-15 40-9 2-20-45-7 2 30 85q-1 17-2 37t-1.5 35.5Q889 244 889 249q0 10 1.5 29.5t4 39Q897 337 899 348l-17 8q-19-3-66.5-18T698 309q-23-4-46.5-5t-36.5 1v-53l-49-41 23-31q3-5 7-11.5t4-10.5q0-3-2-8.5t-10-5.5q-11 0-20 12l-85-48-41 91 20 1 20 55 45-15 15 62-77 16q-19 4-47 15t-39 25q-24 29-46.5 69T293 506.5Q276 546 271 574l12 5q64 5 125-15t111-49l89-5v-7h-49l-2-11 31-28 51-3-1-8-59-2-33 30q-55 19-106 35t-104 19q5-12 25-45t69-91h6l21 91q20-5 43-12t38-11l37-32 81 5 1 34-60 3-17 15h44l2 30-105 8q-9 5-23 12.5T472 557l23 95zm134-486q20-28 36.5-55.5T675 125q0-26-20-43t-47-25q-27-8-49-8-25 0-44.5 10T488 92l78 44q5-4 11-7t13-3q13 0 20 9.5t7 20.5q0 7-5 16.5T602 188l-14 18zm-115-71q-11 0-19.5-3.5T472 153q5-6 14.5-8t12.5-2q20 0 31 20-7 1-12.5 1.5t-10.5.5zM366 512q11-1 28.5-5t44.5-11l-15-65q-33 40-43.5 57T366 512zM9 1012h156q1-7 2.5-22t3.5-25q12-17 25-44t24-53.5q11-26.5 17-42.5 11-29 17.5-56t8.5-53l11-5q15 4 34 22t35 38q16 20 23 30l90-63q-21-23-50-46.5T342 653q-35-15-71-15-7 0-21.5 5.5T231 654q-9 9-15 23t-11 33q-3 9-9.5 34t-15 59q-8.5 34-18 71T145 943l-26 34-42 12-68 9zm290-67q75-41 163.5-63.5T638 853V709l-157 35-216 152zm-76-41q7-7 16-14t21-15l90-63q-7-9-19-24t-26-29q-14-14-26-20 0 26-8 48.5T255 832q-4 10-13 30t-19 42zm404 111q14-5 31-13t24-13q8-7 11-19.5t0-24.5l-18-74q-98 1-194.5 24.5T295 968l-45-59q-29 16-29 45 0 26 21 41.5t49 15.5q16 0 49-8t68-22l217-86 25 54q6 13 4.5 23.5T646 987l-25 13z" fill="currentColor"/></svg>