<svg xmlns="http://www.w3.org/2000/svg" viewBox="0 0 405.5 597.1"><path d="M364.3 144.2c.4 4.9-48.6 1.7-73.4 9.4-12.4-2.7-24.6-3.5-37.2-4-3.2 0-6.3-11.6-6.3-15.7 0-1.4 4.4-5.6 10.4-10.4 24.9-20.1 36.6-41.6 36.6-67.9-.1-25.9-12.5-39.9-41.8-49.1-7.7-2.4-18.4-3.1-29.2-3.1-8.2 0-16.1.6-21.9 2.1-19.8 5-45.3 28.3-58.5 54.3-2 3.9-8 13.6-13.6 21.9-7.9 11.7-9.8 16.1-9.4 19.8.4 4 1.3 5.6 5.2 6.3 4.2.7 4.6.8 4.2 5.2-.3 3.5.1 5.5 2.1 6.3 2.3.9 2.8 1 1 2.1-1.8 1.1-2.5 2.8-1 8.4 1 3.8 2.6 9.7 3.1 12.5 1.4 7.6 4.1 9.4 17.8 9.4h2.1c14.9 0 19.1 8.3 7.3 11.5-18.5 4.9-47.7 8.4-61.6 36.6-9.4 19-13.8 25.9-18.8 39.7-2.5 6.7-20.6 50.7-19.7 78.1.5 14.1 5.7 21.6 19.7 23.1 14 1 32.3-5.4 41.6-10 13.6-6.8 39.4-23.6 39.4-23.6s.3 57.8.6 78.7c-43.6-.3-71.8-38.6-124.7-39.2-21.5-.2-21.9 30.5-19.5 48.6 3.6 26.2 34.5 109.7 34.5 109.7-14.3 14.6-31.4 30.1-31.4 51 0 4.2-1.3 7.3-10.4 16.7C5.4 578.9-.1 585.7 0 587.2c1.4 12.1 12.5 9.8 21.9 9.4 22.6-1.6 47.9-5.9 60.6-9.4 12.7-3.5 35.4-17.8 36.6-17.8 6.8 0 107.7-46 110.7-47 8.2-3 17.2-2.8 25.1 1 9.5 5.9 15.8 17.8 3.1 38.6-12.4 20.5-10.8 32.4 0 32.4 2.2 0 4.4-1.2 7.3-2.1 12.5-4 29.6 7.3 28.2-33.4-1.2-33.5 24.3-72.1 20.9-78.3-6.5-11.8-13-12.3-17.8-12.5-2.1-.1-5.8 1.1-7.3-1-2.9-5.6 15.9-29 6.3-55.4-19-51.9-20-65.9-20.9-86.7-2.9-69.2-2.1-84.6 12.5-113.8C314 193.6 359 188.8 389.5 183c15.6-3.3 16.1-15.2 14.8-50.1-.8-22.4-5.5-51.9-9-73.8 6.3-5.3 9.6-9.2 10-15.3.6-9.2 0-9.8-.3-15.5.4-8 .5-17.3-2.3-21-2.4-3.1-9.4-3.5-15.3-3.6C380.2 3.6 365 6 362.6 9c-.1-7.6-7.8-11.3-14.1-7.7-3.3 20.1-1.3 46.1 17 61.2 2.3 31.1-3.1 49.9-1.2 81.7zM224.6 15.9c30.2 0 53.9 23.7 56.4 34.5 4.7 20-6.4 41.1-29.2 58.5-8.7 6.7-14.6 10.4-16.7 10.4-1.2 0-.3-.7 1-3.1 1.1-1.9 5.8-9.9 10.4-16.7 8.3-12.1 13.6-24.5 13.6-32.4 0-2.1-1.7-7.2-3.1-10.4-3.2-7.3-9.2-9.4-21.9-9.4-2.6 0-5.2-.2-8.4 0h-1c-13.5 0-45-13.1-41.8-15.7 13.8-11 28-15.7 40.7-15.7zm-52.3 33.5c.7 0 1.2-.1 2.1 0 7 1.1 32.5 11.6 35.5 14.6 1.1 1.1 1.8 1 3.1 1 2 0 4.8-1.4 9.4-4.2 3.1-1.9 6.4-2.1 9.4-2.1 6.6 0 12.5 4 12.5 10.4 0 5.9-10 20.8-19.8 31.3-6.2 6.6-9.8 12.2-10.4 15.7-1.3 7 3.1 16.4 8.4 18.8 3.4 1.5 4.2 3.2 4.2 8.4 0 8.8-7 13.7 17.8 25.1 17.6 8.1 29.2 13.8 15.7 42.8-15.4 33-8.1 94.5-8.4 151.4L188 389.8c-7.8-33.7-6.8-64.1-3.7-97.2 11.1-4.7 30.4-11.6 41.1-23.9 8-11.3-6.9-32.9-15.2-37.7 3.1-3.2 3.3-8.8-1.7-14.2-20 7.7-32 24.8-35.4 34.6-1.7 4.9 1.7 13.5.2 15.2-13.1-22.7-27.2-46.6-25.1-73.1.9-11.5 31.2-13.4 37.6-20.9s6-17.9 2.1-26.1c-3.8-8.1-4.7-8.6-21.9-9.4-8.4-.4-12.2-.9-14.6-3.1-4.6-4.2-4-9.2 1-11.5 6-2.7 4-6.8-4.2-9.4-5.2-1.7-6.5-2.6-5.2-4.2 2.1-2.6.7-7.3-3.1-9.4-2.8-1.5-2.3-2.5 5.2-14.6 4.5-7.2 9.1-13.5 10.4-14.6 1.6-1.3 5.3-2.1 9.4-2.1 5.4 0 11.9 1 17.8 3.1 8.6 3.1 12.1 4.2 13.6 4.2 1 0 1.3-.1 1-1-1.1-3.7-19.5-12.4-29.2-13.6l-9.4-1 5.2-6.3c3.7-3.8 5.7-4.2 8.4-4.2zm60.6 12.5c-8 0-20.9 12.2-20.9 21.9 0 2.5-1 5.6-2.1 6.3-4.7 3-6.2 5.9-4.2 8.4 1.2 1.5 2.2 3.1 4.2 3.1 3 0 7.7-2.6 12.5-6.3 13-9.9 20.4-25.6 14.6-31.3-1-1.1-2.5-2.1-4.1-2.1zm-2.1 7.3c2.1 0 3.9 1.6 3.1 4.2-2.1 6.7-6.2 11.3-10.4 14.6-2.7 2.1-5 3.1-6.3 3.1-1.6 0-1.7-1.3 1-4.2 1.6-1.7 1.6-2.5 0-3.1-3.2-1.2-1.8-4.1 3.1-9.4 3.3-3.4 7-5.2 9.5-5.2zm-64.7 2.1c-4.7 0-8.4 1.1-11.5 4.2-5.9 5.9-6.4 7.6 0 11.5 3.4 2.1 8.1 3.1 12.5 3.1 5 0 10.1-1.6 15.7-4.2 4.7-2.2 11.6-4.2 14.6-4.2s5.2-.2 5.2-1-2.8-2.1-6.3-2.1c-3.4 0-9.9-.9-14.6-3.1-5.7-2.7-11.3-4.2-15.6-4.2zm-5.3 4.2c.8 0 1.6 1.6 1 3.1-.5 1.3 0 2.9 1 4.2 1.2 1.5 1.6 2.1 1 2.1-.5 0-1.9-.1-4.2-1-4-1.6-4.9-3.5-2.1-6.3 1.4-1.3 2.7-2.1 3.3-2.1zm11.5 1c.5 0 1.1-.3 2.1 0 2 .6 4.6 2 6.3 3.1 2.7 1.9 2.5 2.6-3.1 4.2-3.8 1.1-6.2 1-7.3 1-1.3 0-1.3-.6 0-2.1 1.1-1.3 1.6-3.8 1-5.2-.5-1.2.2-1 1-1zM211 93.2c1.3 0 3.1.8 3.1 2.1s-1.8 3.1-3.1 3.1-2.1-1.8-2.1-3.1.8-2.1 2.1-2.1zm-79.3 144.3l23.4 39.6c-11.9 5.6-42.5 18.4-51.8 22.3 14.1-21.1 21.3-39.2 28.4-61.9zM53.3 377.3c32.5 0 64.7 22.2 95 37.7l-71 65.8c-3.4-13.7-43.9-103.5-24-103.5zm196.3 17.8c12.3 0 24 4.9 24 28.2 0 17.8-5.6 40.9-18.8 56.4-15.4 18-101.6 1.1-146.2 50.1-3.5 0-20.9-18.8-20.9-18.8 38.2-41.2 113.3-115.9 161.9-115.9zM63.7 528.8l25.1 20.9c-6.1 11-40.3 31.1-49.6 21.8-11.7-11.7 13.9-35 24.5-42.7z"/></svg>