<svg xmlns="http://www.w3.org/2000/svg" viewBox="0 0 288.3 596.2"><path d="M201.2 0c-6.7 0-13.4 1-20.2 3-14.3 4.1-26.7 15.6-37.3 34.6-1.9 6.5-7.5 16.8-16.7 31.1-.8 5.1-.1 7.7 2.1 7.9h.8c1.2-.2 2.4-.2 3.4-.1 1.4.1 2.5.5 3.5 1.1-1.5 1.6-2.2 3.2-2.1 4.8.1 1.2.5 1.8 1.3 1.9.2 0 .5 0 .8-.1 2.2.2 2.5.8.8 1.7-1.6 1-1.7 2.6-.1 5 1.6 2.4 2.5 5.3 2.9 8.9.3 3.2 2.2 4.9 5.8 5.2h1.4c4.4-.1 10.7-.8 18.8-2.3 4.1.4 5.4 2.2 3.9 5.5-2 .1-4.4.4-7.7 1.1-9.6 2.1-31.5 12.2-33.4 12.8-9.4 3.3 4.6-4.1-10.1 3.5s-26.9 14-33.5 17.1c-18 8.3-37.2 17.8-43.3 17.8-.7 0-1.2-.1-1.5-.3-2.3-1.5 21.5-31.2 30.3-48.2 4.4-8.5 9.9-10.5 26.7-11.9 7-.6 13.8-1.6 15-2.3 1.2-.7 9.7-3.2 10.5-5.8 4.2-13.5-7.8-17.6-19.1-21.8C93.3 71.7 87 78 76.3 86.7c-2.7 2.2-13 11.8-23 21.3-17.5 16.7-31.2 32.8-42.9 50.2-10.7 16-13.5 27.7-7.9 33.3 1.9 1.9 9.7 2.3 12.4 2.2 9.6-.5 67.8-18.6 79.6-23.9 24.3-11 29.2-12.8 29.9-12.3 14.2 10.6 23.1 53.4 20.1 73.4-.4 2.8-1.5 3.5-3 3.5-1.3 0-2.9-.5-4.7-.5-.7 0-1.3.1-2.1.2-9.5 2.3-6.2 15 1.8 15 .8 0 1.7-.1 2.6-.4h.2c3.2 0-31.3 39.5-11.8 39.5 1.7 0 3.8-.3 6.4-1h.2c2.1 0-.7 9.2-2.7 14.3-8.7 22.5-11.4 33.4-20.6 107.1-7.3 58.8-8.3 65-13.3 82.5-5.4 18.9-16 50.6-27.2 58.6C55 561 6.7 575.1 6.7 578.9c0 2.2 4.6 9.7 8.3 9.7.3 0 .5 0 .7-.1 13.5-4.1 30.6-5.8 41.2-5.8 4 0 7.1.2 8.7.7 5.4 1.5 9.9 2.1 13.7 2.1 9.8 0 14.8-4.1 17.9-7.5 3.8-4.2.5-9.4 3-21.5 3.7-18.1 5.6-18 8.6-23.9 5.1-10.1 20.7-32.7 30.8-64.3 5.9-18.6 3.7-49 6.5-49.1l53.2-1.7c-1.3.5-4.9 4.2 1.2 26.6 2.3 8.4 6.4 50.4 7.6 59.6 3.9 28.3 11.6 46.8 5.5 56.8-2.9 4.8-55.7 17.9-60.6 29.4-.9 2.3 5.6 6.2 9.4 6.3 1.6 0 28-5.5 43.5-6 2.4-.1 4.4-.1 6.1-.1 11 0 8.6 1.4 13.4 1.4 1.8 0 4.5-.2 9.3-.7 22.5-2.5 4.2-27.4 5.6-36.4 1-6.6-.8-81 1.1-96 2.3-19.1-11.4-39.5-7.1-67.2 4.5-28.9-4.9-125.5-3.4-151.8.4-7.6 9.7-63.3 12-71.1 1.3-4.3 2.3-6 3.5-6 1.1 0 2.4 1.4 4.2 3.5l7.1 58v35.3c0 23.1 1.4 40.8 8.8 70.5 4.2 16.7-5.3 33.7-4.7 36.9 1.3 7.1 5.7 14 11.3 17.9 2.5 1.8 3.7 2.5 4.8 2.5.7 0 1.4-.3 2.4-.9 2.8-1.6 3.8-4.2 7.2-19.3 2.3-9.9-.3-17.2-4.4-40.5-2.4-13.8-.2-53.6-4.6-70.3-4.4-16.7 1.9-45.6.2-60.5-2-17.8-1-38.1-7.9-56.9-3.4-9.2-29.2-23.2-52.4-28-4.9-8.4-5-17-.3-25.8 11.2-6.5 19.7-14.9 25.5-25 5.8-10.1 7.3-21 4.5-32.5s-11-19.5-24.8-23.8C218.2 1.8 213.1.8 207.9.3c-2.2-.2-4.4-.3-6.7-.3zm-5.9 9.7c2.3 0 4.8.1 7.4.3 1.8.2 3.7.4 5.6.7 16.8 2.4 25.9 10 27.2 23 1.3 13-4.1 24.9-16.1 35.8-5.6 5.1-9 7.6-10.2 7.5-1.4-.1.1-3.7 4.5-10.6 8.2-13 10.6-23.3 7-30.9-1.9-4-5.5-6.2-10.9-6.7-4.9-.4-11.2.6-19.1 3.1C172 28 166 23 172.8 16.7c5-4.7 12.4-7 22.5-7zm-33.1 24.8h.6c3.7.3 11.8 2.6 24.5 6.9.7 1.5 1.6 2.2 2.9 2.4 1.5.1 3.4-.7 5.8-2.6 3.3-2.6 6.8-3.8 10.3-3.5 1.1.1 2.1.3 3.2.7 4.7 1.5 5.7 5.6 2.9 12.2-2.8 6.6-6.6 12.3-11.5 16.9-4.8 4.7-6.7 9.4-5.6 14.1 1.1 4.8 4.5 8 10.1 9.9-2 7-3.3 11.1-1.9 17.2h-.2c-.8 0-1.5 0-2.3.1-4.6.2-8.4.3-11.5.3-2.9 0-5.2-.1-7.2-.2-.7-10.8-4.6-15-10.6-15.5-1.9-.2-4.1 0-6.4.5-3.3.7-6.1.9-8.5.7-5-.4-7.7-2.9-8.2-7.5 5.6-3.1 7.3-5.2 5.2-6.5-2.1-1.3-5.3-2.1-9.7-2.5 2.5-3.8 1-6.6-4.6-8.4l10.3-19c3-2.8 7.5-3.9 13.4-3.4 4.4.4 9.7 1.7 15.8 3.9 3.6-1 1.9-2.8-5.2-5.4-4.2-1.6-8.5-2.5-12.8-2.9-2.8-.3-5.7-.2-8.6 0 3.1-5.5 6.2-8.3 9.1-8.5.4.1.5.1.7.1zm44 5.7c-1.1 0-2.4.2-3.9.8-3.4 1.2-6.3 4-8.7 8.2-2.4 4.2-2.7 7.3-1.1 9.2-2.8 1.1-4.3 2.7-4.8 4.9-.4 2.2.7 3.6 3.3 4.3.2.1.5.1.7.1 2.5.2 5.8-1.6 9.7-5.5 4.4-4.3 7-8.4 8.1-12.3 1-3.9.9-6.7-.3-8.3-.6-.8-1.5-1.3-2.6-1.4h-.4zm-1.8 4.7h.4c1 .1 1.4.8 1.3 2.1-.2 2.6-1.4 5.4-3.4 8.3-2 2.9-4 4.9-5.8 5.8-.5.3-.9.4-1.1.4-.6-.1-.3-1.1 1-3 1.3-2 1.6-3 1-3-.2 0-.6.1-1.1.4-.6.3-1 .4-1.3.4-.7-.1-.7-.9-.1-2.5.9-2.4 2.5-4.8 5-7.2 1.7-1.1 3.1-1.6 4.1-1.7zM159 49.5c-.7 0-1.3.1-1.9.2-4.7.7-8.2 3.6-10.4 8.7 3.6 2.9 7.2 4.5 10.8 4.8 1.4.1 2.7.1 4.1-.2 5-.9 9.8-3.1 14.5-6.7l8.7-.6.2-2-9.4.5c-5.6-2.8-10.5-4.3-14.5-4.7H159zm2.8 2.9c3.4 1.2 6.7 2.4 9.7 3.5-3.7 1.9-7.6 2.9-11.6 3-1 .2-2 .2-2.9.1-2.2-.2-4.1-1.2-5.5-2.9 1.3-2.2 2.6-3.2 3.7-3.1.2 0 .4.1.6.1-2 2.9-.7 4.8 4.1 5.7 4.6-1.7 5.2-3.9 1.9-6.4zm30.4 9.3c2.1 1.5 2.5 2.8 1.3 3.8-.6.5-1.1.7-1.6.7s-.9-.4-1.3-.9c-.8-1.2-.3-2.4 1.6-3.6zm-3.4 64.1c7.9 0 15.8.4 22 1 2.5.2 16.3 5.4 18 8.2 3.3 5.7 3.4 16.3.2 30.4-1.5 6.6-9.5 57.3-11.4 63-5.5 16.3-10.1 7.9-21.1 12.9-5.4 2.5-7.8 2.9-17.2 3.1-2.7.1-5 .1-6.8.1-8.3 0-8.7-.9-9.8-5.8-1.7-7.5-3-16.8-4.8-35.7-2.5-26.2-6.2-39-14.5-50.1-5.6-7.5 5.8-21 17.9-24.5 6.6-1.9 17.1-2.6 27.5-2.6zm21.9 130.5h2.3c6.7 10.5 2.7 139.6 2.7 139.6l-86.9 3c2-.1 2.2-67.9 32.9-136.8 2.4-5.4 39.4-5.8 49-5.8z"/></svg>