<svg xmlns="http://www.w3.org/2000/svg" viewBox="-10 0 733 1010"><path d="M-10 1010v-45l84-15 14-9q-1-4-1-11 0-41 67-71l-54-196q-1-5-3.5-17T94 628q0-26 15.5-48.5T157 557q15 0 31 6.5t27 19.5l150 168 15-92-49-228-165-99v-38l123-160 6-46 20-40 64-48 7 9h173l-44 92q34 11 55.5 34t21.5 56q0 28-16.5 55T532 310v38l83 25q26 7 35 25.5t14 32.5l59 196-41 160 16 43-3 44-36 62-25-13 19-45-7-27-22 36-25-8 51-245-64-143-38 232 20 2v190l50 35 84 15v45h-89l-135-38-198 29q-39 6-67.5 7.5T179 1010q-31 0-53-13l-47 13zm667-93l25-45v-39l-18-47 40-164-56-184q-4-14-12.5-29T613 390l-99-29v-47l-49-41 22-31q4-4 7.5-11t3.5-11q0-3-1.5-8.5T487 206q-10 0-21 12l-85-48-40 91 19 1 20 55 45-15 12 79h-16l-186-69 81-144 68-81-4-4-42 29-7-4 7-44 40-38-1-2-4-5-47 37-16 36-9 55-118 151 1 24 165 101 50 235-17 99 148-33 44-253 21 1 74 160-52 235 5 2 26-43h8l12 43-18 44zM428 90h74l32-66H395zm-8 275l-7-41-41 15-24-63-31-2 50-110 2-13q9-39 44-52l-31-64-28 28-4 27 35-24 19 18-76 96-70 124zm100-67q20-28 36.5-55t16.5-56q0-26-20-43t-47-25q-27-8-49-8-25 0-44.5 10T386 154l78 44q5-4 11-7t13-3q13 0 20.5 9.5T516 218q0 7-5.5 16.5T501 250l-15 18zm-115-71q-11 0-19-3.5t-15-8.5q5-6 14.5-8t11.5-2q19 0 32 20-7 1-13 1.5t-11 .5zM171 851l44-22-61-184 29-63q-12-6-27-6-19 0-31 14.5T113 628q0 7 2.5 16.5T120 662zm62-30l124-56-159-175-24 54zm-38 109l356-20V740h-8l-170 36-220 102zm421 61h64v-14l-69-9-58-41-368 20-50-60q-29 15-29 41t12.5 39q12.5 13 29.5 18t32 5q17 0 47.5-2t53.5-5l207-28zm-604 0h64l31-8q-10-11-14-23l-12 8-69 9z" fill="currentColor"/></svg>