<svg xmlns="http://www.w3.org/2000/svg" viewBox="0 0 373.2 594.5"><path d="M99.5 494l98.8-36.2c-37.5-26-67.4-46.5-89.6-61.5-23.7-18.8-32.6-13.4-26.4 16.1L99.5 494zm178.6-30.4c-36.8 6.9-81.2 17.9-133.3 33-52.1 15.1-76.6 29.6-73.5 43.4 6.1 10.7 70.8 11.9 194.2 3.4 13-10.7 17.2-37.3 12.6-79.8zm-12.6-272.3c-6.5-3.1-10.2-7.8-11.2-14.1s1.8-12.3 8.3-17.8c6.5-5.6 11.9-12.5 16.1-21 4.2-8.4 3.4-13.9-2.3-16.4-5.7-2.5-11.4-1.7-16.9 2.3-5.6 4-8.9 3.7-10.1-.9-17.2-7.7-27.7-11.5-31.3-11.5s-7.8 3.6-12.4 10.9c9.2-.8 18.1 1 26.7 5.2 8.6 4.2 10.2 6.9 4.9 8-16.8-8.4-28.5-10-35-4.6l-14.9 24.7c6.5 3.1 7.7 6.9 3.4 11.5 5.7.4 9.9 1.7 12.4 4s-.7 5.6-9.5 9.8c1.5 8 8 11.3 19.5 9.8s16.4 4.6 14.6 18.4c-1.7 13.8-10.8 22.5-27.3 26.1-16.5 3.6-24.7 11.2-24.7 22.7 11.1 10.7 20.3 24.3 27.6 40.8 7.3 16.5 12.1 55.9 14.4 118.3v35l59.7-9.2c.4-50.2 7.9-101.9 22.4-155.1l17.2-25.8c-3.1-10.7-10.5-18.3-22.4-22.7-11.9-4.4-19.8-10.6-23.8-18.7-4-7.9-5.8-17.8-5.4-29.7zm14.3-4.6c-2.7 17.2 1.5 28.1 12.6 32.7 24.1 9.6 40.4 19.7 48.8 30.4 12.6 28.7 22.2 69.1 28.7 121.2 4.2 31 4.2 54.9 0 71.5-4.2 16.7-7.5 34.2-9.8 52.6.8 6.9 2 12.8 3.7 17.8 1.7 5 .9 13.3-2.6 25-3.4 11.7-12.3 19.1-26.4 22.1-8-9.2-11.5-17.4-10.3-24.7 1.1-7.3 4.6-15.7 10.3-25.3 6.1-24.1 7.5-54.6 4-91.3-2.7-50.5-6.7-84.2-12.1-100.8-5.4-16.7-9.6-19.2-12.6-7.8-14.9 60.5-20.7 108.9-17.2 145.3 5.4 30.6 4.8 58.8-1.7 84.4 10-5.4 17.4-1.8 22.4 10.6s16.4 20.6 34.2 24.4c17.8 3.8 24.2 9.2 19.2 16.1-11.1 2.3-22.6 3.4-34.5 3.4-11.5 0-28.7-4.4-51.7-13.2-28-3.1-58.4-4.6-91.3-4.6-38.7 0-85.2 1.5-139.6 4.6-25.7 3.8-41.6 5.9-48 6.3-6.3.4-7.8-3.8-4.3-12.6 3.4-8.8 22-15.3 55.7-19.5-9.2-13.8-5-28.7 12.6-44.8 3.1-5 5.9-11.5 8.6-19.5L57.2 387c0-16.5 11.3-24.7 33.9-24.7 18 10.3 54 34.1 108 71.2 1.5-86.2-7.9-136.3-28.1-150.5-11.9-20.7-27-34.9-45.4-42.8-18.4-7.9-44.2-32.5-77.5-73.8C51.2 153 63.8 139 86 124.5l82.7-58 21.8-21.8c16.5-10.3 25.4-12 26.7-4.9s2.2 14.1 2.6 21c-13 24.9-25.1 37.1-36.2 36.8-21.4 5-38.4 13.6-50.8 25.8-12.4 12.3-27.7 25.1-45.7 38.5 22.2 24.1 46.1 42.7 71.8 55.7 18.8 2.3 33.2 2.6 43.4.9 10.1-1.7 13.5-6.8 10.1-15.2-8 .8-14.7.9-20.1.3-5.4-.6-8.1-3.2-8.3-7.8-.2-4.6-.8-8.3-1.7-11.2-1-2.9-.7-5.2.9-6.9 1.5-1.7 1.1-2.6-1.1-2.6-1.9 0-2.9-1.1-2.9-3.2s1-3.9 2.9-5.5c-1.9-1.5-4.7-2.3-8.3-2.3-3.6 0-4.5-3.6-2.6-10.9 13-17.2 21.3-30.3 24.7-39.1 14.9-23.7 31.5-37.5 49.7-41.4 18.2-3.8 35.6-2.3 52.3 4.6 16.7 6.9 25.8 18.1 27.6 33.6 1.7 15.5-1.4 29.6-9.5 42.2-8 12.9-20.1 24-36.2 33.6zm-82.7-44.8c3.4-6.5 8-10.1 13.8-10.6 5.7-.6 13.2 2 22.4 7.8h11.5v3.4h-11.5c-6.5 4.2-12.8 6.6-19 7.2-6.1.5-11.8-2.1-17.2-7.8zm12.1-5.8c-1.5-.8-3.6.4-6.3 3.4 1.9 3.4 5.2 5 9.8 4.6-5.4-1.5-6.6-4.1-3.5-8zm3.4 8.1c5 0 10-1 14.9-2.9-3.8-2.3-7.9-4-12.1-5.2 3.9 3.5 3 6.2-2.8 8.1zm40.3 2.3c-1.5-2.7-.5-6.7 3.2-12.1 3.6-5.4 7.6-8.6 11.8-9.8 4.2-1.1 7-.5 8.3 2 1.3 2.5 1.1 6-.9 10.6-1.9 4.6-5.7 9.7-11.5 15.2-5.7 5.6-10.1 7.7-13.2 6.3-3.1-1.3-4.3-3.4-3.7-6 .5-2.6 2.5-4.7 6-6.2zm10.9-15c-2.7 3.1-4.8 6.1-6.3 9.2-1.5 3.1-1.1 4 1.4 2.9s2.5 0 0 3.4-2.5 4.6 0 3.4c2.5-1.1 5.2-3.4 8-6.9 2.9-3.4 4.5-6.9 4.9-10.3.4-3.4-2.3-4-8-1.7zm-8.7-19.5c20.3-5.4 32.2-2.9 35.6 7.5 3.4 10.3-.8 23.6-12.6 39.6-11.9 16.1-9.5 17.6 7.2 4.6 16.7-13 24.7-28.1 24.1-45.1-.6-17-11-28-31.3-32.7-20.3-4.8-34.9-3.4-43.9 4.3-9 7.6-2 14.9 20.9 21.8zm-2.8 39.1c-2.3 1.1-3.1 2.6-2.3 4.3.8 1.7 2 1.8 3.7.3 1.7-1.6 1.3-3.1-1.4-4.6zM227 78.7L206.3 0h122.9l-24.1 78.7H227zm83.3-64.9h-84.4l12.6 51.7h56.9l14.9-51.7z"/></svg>