<svg xmlns="http://www.w3.org/2000/svg" viewBox="0 0 595.3 392.8"><path d="M17.4 0h1.8c10.5-.4 24.9 3.4 43.4 11.5l83.2 10.9c15.3 2 20.1 9 14.5 21.1l-35 84.5c18.5-8.8 54.3-7.6 107.4 3.6 0-4.4 4.1-8 12.4-10.9 8.2-2.8 12.2 1.8 11.8 13.9 8-3.6 21.1-6.2 39.2-7.8-2.8 3.2-3 7.4-.6 12.7 51.9 6 114.6 14.5 188.2 25.3 27.7 1.2 47.5-1.4 59.1-7.8 15.7-11.7 29-25.7 39.8-42.2 4.4-2.4 8.2-3.2 11.5-2.4l1.2 4.2c-5.2 21.3-17.5 46-36.8 74.2-6 9.2-18.9 8.2-38.6-3-51.1 11.3-90.7 11.3-118.8 0L383 232.3c18.1 3.2 35.1 8.8 51 16.9 15.9 8 32.9 14.7 51 19.9 18.1 5.2 35.8-2 53.1-21.7 15.7-16.1 27.1-23.1 34.4-21.1l-3.6 18.1-30.2 42.2c-4 20.5-16.7 23.9-38 10.3-22.5-5.6-43.9-9.2-64.2-10.9-20.3-1.6-42.3-9.9-66.1-24.7l-4.8 6.6-87.6-33.2c-14.9 0-33.8-5.4-56.7-16.3-38.6 3.6-64.3 12.9-77.2 27.7l42.2 78.4c2.4 18.1-25.5 32.8-83.9 44-6 3.2-12.5 7.8-19.3 13.9-11.3 6.4-19.3 9.9-24.1 10.3-11.3.4-17.1-.8-17.5-3.6v-.6c0-1.6 8.2-7.2 24.7-16.9v-1.8l-7.2.6c-7.6 1.2-11.7.6-12.1-1.8v-.6c-.4-3.6 8.8-7.6 27.7-12.1l18.1-2.4 65.8-28.4c-13.7-26.9-29-52.7-45.8-77.2-6-11.7-11.1-22.7-15.1-33.2-6.4-6.8-10.7-6.8-12.7 0-14.1 21.3-29.6 33-46.5 35-18.5 1.2-31.2-11.5-38-38-3.2-26.1 8.6-46.5 35.6-60.9 8-7.2 14.7-12.1 19.9-14.5 4.8-.4 7.2 1.8 7.2 6.6H74c11.3-.8 17.1 1.6 17.5 7.2l1.2 10.9c1.6 2.4 3.8.8 6.6-4.8-4-16.5-1.6-33.2 7.2-50.1 7.2-22.5 14.7-42.8 22.3-60.9-23.5-4.8-46.8-10.8-69.8-18l-15.7 3.6C32.9 32 23 28 13.8 18.7l-.6-2.4h1.2l19.3 1.8 1.2-.6c-.4-4-10.5-6.8-30.2-8.4l-.6-1.2C3.7 3.8 8.2 1.2 17.4 0zm219 210c8.8 7.2 24.7 12.1 47.7 14.5l77.8 23.5 33.2-82c-37.8-6-79.8-11.9-126.1-17.5-20.1-5.6-30.2-2.8-30.2 8.4l-2.4 53.1zM44.6 154.5c8 7.6 10.5 16.5 7.2 26.5v7.2l-1.8 1.2-2.4-8.4c-8.9-7.6-9.9-16.5-3-26.5zm10.8 39.2h2.4c2.4-2 4-2.4 4.8-1.2.8 1.2.1 4-2.1 8.4s-4.2 7.5-6 9.3c-1.8 1.8-4.4 3.2-7.8 4.2-3.4 1-5.7.1-6.9-2.7-1.3-5.6 3.9-11.6 15.6-18zm-15.1 5.4l-3.6 6c-.8 4.4-.3 7.8 1.5 10.3 1.8 2.4 5.3 3 10.6 1.8 2.4-1.2 11.7-6.6 27.7-16.3 10.1-4 21.3-1.8 33.8 6.6 3.6 15.3 10.3 24.1 19.9 26.5 17.7-12.9 49.5-23.5 95.3-32l2.4-57.9c-43-10.9-77.2-11.7-102.6-2.4-12.9 4-19.3 11.7-19.3 22.9-4.4 8-10.7 10.1-18.7 6-.4-14.9-3.8-21.9-10.3-21.1-3.2.8-4.4 3.8-3.6 9h-3l-.6-8.4c-7.2.4-11.3-2.6-12.1-9-8 5.6-13.9 10.1-17.5 13.3l-1.2 4.8c-2.4 4-2.8 8.5-1.2 13.6 1.6 5 4.4 10.4 8.4 16h-3c-8.8-12.5-11.7-21.7-8.4-27.7-5.2 2-8.6 5.8-10.3 11.5l15.8 26.5zm4.9-40.4l-1.8 8.4c2-2.8 4-3.2 6-1.2l-4.2-7.2zm-1.9 12c1.6 3.2 3.6 6 6 8.4l.6-9.7c-1.9 2.2-4.1 2.6-6.6 1.3zm32 41.1c-10.9 6.4-20.7 10.9-29.6 13.3-12.9-1.2-17.7-9.2-14.5-24.1l-12.1-22.3c-6.4 4.8-9.9 15.1-10.3 30.8 4.4 20.5 14.7 31.2 30.8 32 12.2-1.8 24.1-11.6 35.7-29.7zm-32.6-3l1.2 4.2c2 .4 6.8-4.2 14.5-13.9h-6.6c-4.8 2-7.9 5.2-9.1 9.7z"/></svg>