<svg xmlns="http://www.w3.org/2000/svg" viewBox="-10 0 578 578"><path d="M279 578q-60 0-112.5-22.5t-92-62q-39.5-39.5-62-92T-10 289q0-60 22.5-112t62-92q39.5-40 92-62.5T279 0q60 0 112 22.5T483 85q40 40 62.5 92T568 289q0 60-22.5 112.5t-62.5 92q-40 39.5-92 62T279 578zM84 104h390q-37-39-87-62T279 19q-58 0-108 23t-87 62zM18 221h521q-7-27-19.5-51.5T491 123H66q-16 22-28.5 46.5T18 221zm-4 116h530q1-11 2.5-23t1.5-25q0-13-1.5-25t-2.5-24H14q-2 12-3.5 24T9 289q0 13 1.5 25t3.5 23zm52 117h425q34-43 49-97H18q7 27 19 51.5T66 454zm213 104q58 0 108-22.5t88-61.5H83q37 39 87.5 61.5T279 558z" fill="currentColor"/></svg>