<svg version="1" xmlns="http://www.w3.org/2000/svg" width="576" height="112" viewBox="0 0 432 84"><path d="M6.2 29.2A728.3 728.3 0 0 0 1 58.7c0 .7 1.1 1.3 2.4 1.3l46.3 2.5L200.5 71l80 4.5 71 4 61.3 3.5c9 .6 16.8.8 17.3.5 1.6-1.1 1-5.3-.9-5.9-.9-.3-9.6-1.9-19.2-3.6l-82-15-155-28.5A38924.4 38924.4 0 0 1 12 1c-.3 0-3 12.7-5.8 28.2zm38.5-15.7l43.3 8 76 13.9L270.5 55l77.7 14.2c15.8 2.9 28.6 5.3 28.5 5.5-.2.1-15.6-.7-34.2-1.7l-297-17.1c-20.3-1.2-37.2-2.3-37.4-2.4-.2-.2 1.6-10.3 4-22.4C15.7 12.7 16.7 9 18.1 9c1 0 12.9 2 26.6 4.5z"/></svg>