<svg xmlns="http://www.w3.org/2000/svg" viewBox="-10 0 1147 284"><path d="M-10 284q5-43 30.5-89t74-86Q143 69 217 44t176-25q142 0 238.5 9.5T782 48q35 5 65.5 9t70.5 4q75 0 130-20.5T1125 0l12 16q-24 21-82 43T918 81q-41 0-74-4t-65-10q-53-9-144.5-18.5T393 39q-92 0-156 19t-105.5 48Q90 135 66 166t-35.5 57.5Q19 250 14 262q23-2 74.5-5.5T207 249q67-4 137.5-6.5T477 240q82 0 162.5 4t150.5 8q49 3 94 5t76 2q55 0 102-6t70-12l5 18q-24 7-72.5 13.5T960 279q-33 0-76.5-2.5T789 271q-70-4-150-7.5T477 260q-52 0-116 2.5t-131.5 6Q162 272 100 276t-110 8z" fill="currentColor"/></svg>