<svg xmlns="http://www.w3.org/2000/svg" viewBox="0 0 590.9 185.5"><path d="M27.8 116.7c24.2-1.3 64.4-3.4 120.7-6.4 56.3-3 102.8-6.7 139.5-11.1 36.7-4.5 80.3-14.4 130.6-29.9 50.3-15.5 101.6-37.7 153.8-66.6 6.4-4.7 11.8-3.3 16.2 4.1 4.5 7.4 2.2 13.1-6.7 16.9-56.4 37-134.3 66.3-233.7 87.9-74.7 13.6-142.5 21-203.2 22.3-60.7 1.3-91.1 3.4-91.1 6.4s31.3 7.7 93.9 14.3c62.6 6.6 128 9 196.2 7.3 68.2-1.7 142.1-8.9 222-21.7 8.9-1.3 14.1 1.8 15.6 9.2 1.5 7.4-3.1 12-13.7 13.7-104 14.9-188.1 22.3-252.2 22.3s-121.5-3-172.3-8.9c-50.7-5.9-95.2-12.7-133.4-20.4-8.1-1.7-11.3-8.2-9.6-19.4 1.7-11.2 10.9-17.9 27.4-20z"/></svg>