<svg xmlns="http://www.w3.org/2000/svg" viewBox="-10 0 723 937"><path d="M64 937V462q-11-1-28.5-7.5T4 433q-14-15-14-44t14-44.5Q18 329 35.5 323t28.5-7v-13q0-149 71.5-226T352 0q145 0 216 77t71 226v13q11 1 28.5 7t31.5 21.5q14 15.5 14 44.5t-14 44q-14 15-31.5 21.5T639 462v475h-19V303q0-140-66.5-211.5T352 20q-136 0-202 71.5T84 303v634zm0-495V335q-9 1-22 5.5t-23 16Q9 368 9 389q0 20 10 31.5t23 16q13 4.5 22 5.5zm575 0q8-1 21.5-5.5T684 421q10-11 10-32 0-20-10-31.5t-23-16q-13-4.5-22-6.5z" fill="currentColor"/></svg>