<svg xmlns="http://www.w3.org/2000/svg" viewBox="0 0 289.6 309.5"><path d="M147.2 0c-11 0-21.9.7-28.6 2.1-49.8 10.5-84.9 53-89.9 109-1 10.6-1.1 10.9-5.9 12.6-6.4 2.3-19.3 16.5-21.2 23.4-2.7 9.6-1.9 22.4 1.9 30.5 4.1 8.8 13 17.8 19.7 20l4.8 1.6v110.2h38.1l.5-100.5c.5-87 .9-101.7 2.9-109.4 10.8-40 37.4-61.1 77-61.1h.2c39.1.1 63.7 18.4 75.3 56.3 2.1 6.8 2.4 20.8 2.8 110.9l.4 103.1 19.2.4 19.2.4V199.1l5.7-2.9c27.1-13.8 27-57-.2-70.9-5.2-2.7-5.5-3.3-5.6-9.8-.1-19.3-7.1-45-17.1-62.5C231.3 26.2 206.9 8.7 176 2.1 169.3.7 158.3 0 147.2 0z"/></svg>