<svg xmlns="http://www.w3.org/2000/svg" viewBox="-10 0 623 623"><path d="M119 591q-23 0-42.5-10.5T42 555q-13-13-21.5-32T12 482q0-31 11.5-48T46 409q-28-46-42-94t-14-94q0-46 15.5-87.5T52 61q31-31 72-46t88-15q49 0 101 16.5T415 65q7-11 23.5-22T484 32q24 0 44 10t34 25q29 31 29 73 0 30-11.5 47.5T557 213q28 46 42 94t14 94q0 47-15 88t-46 72q-31 31-72.5 46.5T392 623q-103 0-203-66-8 11-24.5 22.5T119 591zm419-43q29-28 42.5-66t13.5-82q0-64-30.5-133T474 139q-59-59-128-89.5T212 19q-43 0-80 13.5T66 75q-29 29-43 66.5T9 222q0 64 30.5 134T129 484q59 58 128.5 89T392 604q43 0 80-14t66-42zm7-353q8-4 17.5-15.5T572 143q0-38-24-62-13-13-28.5-21T484 52q-25 0-36.5 9.5T432 77q15 11 29 23t27 25q17 17 31 34.5t26 35.5zM119 571q26 0 37.5-9.5T171 545q-14-11-28-23t-28-25q-16-17-30-34t-27-35q-7 3-17 14.5T31 480q0 16 7 33t17 28q14 14 29 22t35 8z" fill="currentColor"/></svg>