<svg xmlns="http://www.w3.org/2000/svg" viewBox="0 0 381.9 364.4"><path d="M310.8 61.3C296 47.2 280 48.8 262.8 66c14.8 14.1 29.3 29.5 43.4 46 17.9-19 19.4-35.8 4.6-50.7zm28.4 246c21-40.7 14-83.7-20.9-129.2-35-45.5-73.5-84.9-115.7-118.3-42.2-33.4-89.5-28.4-141.8 15C27.3 133.7 30.7 181 71 216.6c40.3 35.7 86 66.7 136.9 93.3 51.1 26.5 94.8 25.7 131.3-2.6zm-170.5 20.2c-29.3 40-61.1 47.5-95.6 22.7-34.8-25.1-38.4-57-10.9-95.6-73-56.2-81.8-123.2-26.4-201 66.8-68.2 134.4-71.3 202.6-9.3C271.1 10.5 303 8.5 334 38.1c30.7 29.6 28.9 62.4-5.2 98.2 57.9 77.2 68.4 140.2 31.5 189.1-41.6 44.8-105.5 45.5-191.6 2.1zm-76.5-4.2c16.9 12.1 33.1 7.4 48.6-14-18.6-11-36.3-22.6-53.2-34.6-14.1 20-12.6 36.2 4.6 48.6z"/></svg>