<svg xmlns="http://www.w3.org/2000/svg" viewBox="0 0 169.1 594.5"><path d="M167.2 22.6c-6.2 7.5-23.3 23.9-51.2 49.2-6.6 8-9.3 17.7-8 29.2 15.9 12 27.3 25 34.2 39.2 6.9 14.2 13 33.4 18.3 57.8l6 396.6H3.1l6-396.6c4.9-24.4 10.8-43.6 17.9-57.8C34.1 126 45.6 113 61.5 101c.9-11.5-2-21.3-8.6-29.2C25 46.5 7.9 30.1 1.7 22.6-3.1 9.7 2.2 2.2 17.7 0c12.8 4.4 25 15.7 36.5 33.9 12 25.2 22.1 40.1 30.6 44.5 8-4.4 18.2-19.3 30.6-44.5C128.6 15.7 140.6 4.4 151.2 0c16 2.2 21.3 9.7 16 22.6zm-29.3 255.7v-43.2c2.2-30.1-2.7-56.5-14.6-79.1-12-22.6-25-37-39.2-43.2-13.3 6.2-25.9 20.6-37.9 43.2s-17.1 48.9-15.3 79.1v43.2h107zm0 54.5v-29.9H31v29.9h106.9zm6 237.8l-6-213.2H31l-6 213.2h118.9z"/></svg>