<svg xmlns="http://www.w3.org/2000/svg" viewBox="0 0 224.5 594.5"><path d="M224.5 440.2v154.3c-32.1 0-54.9-10.6-68.5-31.7-13.6-21.2-28.2-33.1-43.8-35.7-15.1 2.7-29.6 14.6-43.4 35.7C55 584 32.1 594.5 0 594.5V440.2h43.4c38.7-57.4 57.9-121.1 57.4-191.1.4-31.2-1.6-70.6-6-118.2-4.8-52.5-3.3-92.6 4.7-120.2 8.5-14.3 17.1-14.3 26.1 0 7.6 27.6 9.1 67.7 4.7 120.2-4.5 47.7-6.7 87.1-6.7 118.2-.4 69.9 18.7 133.6 57.4 191.1h43.5zm-112.3-70.1l-42.1 70.1h84.2l-42.1-70.1zm87.5 187v-92.2h-175v91.5c12.5 0 26.7-9.7 42.8-29.1 16-19.4 31-29.1 44.8-29.1S141 508 157 527.4c16 19.4 30.3 29.3 42.7 29.7z"/></svg>