<svg xmlns="http://www.w3.org/2000/svg" viewBox="0 0 590.8 594.5"><path d="M332.5 370.2l-42.1 70.1h83.5l-41.4-70.1zm86.8 186.9V465H245v91.5c12.5 0 26.7-9.7 42.7-29 16-19.4 30.9-29 44.7-29 13.8 0 28.6 9.7 44.4 29 15.9 19.3 30 29.2 42.5 29.6zm-98.2-308.4c-18.7.9-41.2.7-67.4-.7-50.7-2.2-92.8 0-126.2 6.7-37.4 9.8-70.8 9.1-100.1-2C4.2 239.3-4.2 228.9 2 221.3c4-6.7 16.9-4.2 38.7 7.3 21.8 11.6 52.1 11.3 90.8-.7-8.5-13.8-21.4-19.4-38.7-16.7-22.3 2.2-35.8 1.9-40.7-1-4.9-2.9-8.1-6.6-9.7-11-1.6-4.5 4.3-7.1 17.7-8 13.4-.9 29.8-.4 49.4 1.3 30.3 6.7 52.1 16.7 65.4 30 40.9-10.7 89.2-16.9 144.9-18.7-.4-12.9-2.2-37.4-5.3-73.4-4.5-52.4-3-92.2 4.6-119.4 8.9-14.7 17.6-14.7 26 0 7.6 27.2 9.1 67 4.7 119.5-3.1 36.1-4.9 60.3-5.3 72.8 8 0 21.1-.2 39.4-.7 45.4 0 85.2 2 119.5 6V81.1l87.5-1.3V250c-111.7.4-194.1 0-247-1.3-.9 69.9 18 133.8 56.7 191.6H444v154.2c-31.6 0-54.3-10.6-68.1-31.7-13.8-21.1-28.3-33.3-43.4-36.4-15.6 3.1-30.3 15.2-44.1 36.4-13.8 21.1-36.5 31.7-68.1 31.7V440.3h43.4c38.7-57.9 57.9-121.7 57.4-191.6zM570.8 99.1c-29.8-3.1-44.6 10-44.4 39.4.2 29.4.1 57-.3 82.8 14.2 5.8 29.2 9.3 44.7 10.7V99.1z"/></svg>