<svg xmlns="http://www.w3.org/2000/svg" viewBox="-10 0 1051 1214"><path d="M283 1214V805h132l97-132v-53H354l-115 34h-99l-99-46-51-56 34-29 80 47q11 7 35.5 12t46.5 5q22 0 39-2.5t30-8.5l-3-11q-6 1-19 2t-26.5 1.5q-13.5.5-18.5.5-19 0-37.5-6T116 543l19-38q10 4 23.5 8.5T183 518q22 0 43.5-5t35.5-7l83 36 167-25V0h20v514l109-16h226l25-296h125l24 418H532v53l97 132h134v409l-240-180zm249-611h489l-24-384h-87l-23 296H640l-108 17zm-387 34h92l113-34h162v-68l-170 25-81-37q-13 2-35.5 7t-45.5 5q-8 0-18.5-3l-17.5-5-5 10q18 15 50 15 7 0 22-1t30-1.5q15-.5 22-1.5 3 7 6 17t5 20q-17 10-43 15t-48 5q-24 0-48.5-6T87 580l-64-39-13 10 44 45zm295 168h164l-82-113zm-137 370l220-165 220 165V824H303z" fill="currentColor"/></svg>