<svg xmlns="http://www.w3.org/2000/svg" viewBox="0 0 581.5 373"><path d="M455.8 155.4l20.6 100.9L497 155.4h-41.2zM438 66.2l13.7 68.7h49.4l13.7-68.7H438zm122.2 34.3c0-19.7-6.6-29.7-19.9-30.2l-12.4 63.8c21.5.5 32.3-10.7 32.3-33.6zM169.6 66.2l-13.7 68.7h269.8l-14.4-68.7H169.6zm-149 34.3c0 22.9 11 34.1 33 33.6l-13-63.8c-13.4.4-20 10.5-20 30.2zm45.3-34.3l13.7 68.7H129l13.7-68.7H65.9zm85.8 89.2L107.8 373h-6.9L57.7 155.4C19.2 155.9 0 137.6 0 100.5 0 68.9 12.1 51.8 36.4 49l-4.8-24C27.5 10.3 30 2.1 39.1.3 48.3-1.1 53.7 2.8 55.6 12l6.9 33.6h84.4l6.9-33.6c1.8-9.2 7.1-13 15.8-11.7 9.2 1.8 11.9 10.1 8.2 24.7l-4.1 20.6h234.1L403.7 25c-4.1-14.6-1.6-22.9 7.6-24.7 9.2-1.4 14.6 2.5 16.5 11.7l6.9 33.6H519l6.9-33.6C527.7 2.8 533-1 541.7.3c9.2 1.8 11.9 10.1 8.2 24.7l-5.5 24c24.7 2.7 37.1 19.9 37.1 51.5 0 37.1-19.2 55.4-57.7 54.9L479.9 373H473l-43.9-217.6H151.7zm-67.3 0l19.9 100.9 20.6-100.9H84.4z"/></svg>