<svg xmlns="http://www.w3.org/2000/svg" viewBox="0 0 588.3 267.1"><path d="M157.2 49.4H26.8c11.9 98.9 24.2 161.4 37 187.4h56.3c11-26 23.4-88.5 37.1-187.4zm311 187.4h57c12.4-26.1 24.5-88.6 36.4-187.4H431.1c13.8 98.9 26.1 161.4 37.1 187.4zm-50.1-112.5L414 105H173.7l-4.1 19.2h248.5zm-6.2-37.1l-3.4-19.9H179.2l-3.4 19.9h236.1zm-7.5-37.8c1.8-16 4.2-28.3 7.2-36.7S422.2 0 434.6 0c7.8 0 14.8 4.2 20.9 12.7s20.5 12.7 42.9 12.7 37.1-4.2 43.9-12.7C549.2 4.2 558.1 0 569.1 0c12.8 0 19.2 13.3 19.2 39.8-19.7 151.5-38 227.2-54.9 227.2h-70.7c-13.7 0-26.1-34.3-37.1-103-3.7-14.6-10.8-22-21.3-22H184c-11.9.5-19 7.8-21.3 22-11 68.7-23.1 103-36.4 103H54.9C38.4 267 20.1 191.3 0 39.8 0 13.3 6.4 0 19.2 0c11 0 19.9 4.2 26.8 12.7 6.9 8.5 13.2 8.5 18.9 0C70.6 4.2 78.9 0 89.9 0s19.3 4.1 25.1 12.4c5.7 8.2 11.7 8.2 17.8 0C139 4.1 146 0 153.8 0c12.4 0 20.3 4.2 23.7 12.7 3.4 8.5 5.4 20.7 5.8 36.7h221.1z"/></svg>