<svg xmlns="http://www.w3.org/2000/svg" viewBox="0 0 437.9 594.5"><path d="M238.8 19.5h-39.1c-1.3 73.2-1.2 147.1.3 221.4 1.6 74.4 4 132 7.4 172.9 3.4 40.9 7.3 63.4 11.8 67.4 4.5-4 8.4-26.5 11.8-67.4 3.4-40.9 5.8-98.5 7.4-172.9 1.6-74.3 1.7-148.1.4-221.4zm-56 289.9v-33.7c-36 8.5-68.4 20.2-97.4 35.1-29 14.8-45.9 27.2-50.9 37.1 52.6-19.9 102.1-32.7 148.3-38.5zm72.2 0c46.3 5.8 95.7 18.6 148.3 38.4-4.9-9.9-21.8-22.2-50.6-37.1-28.8-14.8-61.3-26.5-97.7-35.1v33.8zm0-55.9c58 12.1 101.4 28.3 130.4 48.5s46.4 39.5 52.2 58c1.8 9.4-4.9 13-20.2 10.8-74.6-22.9-128.7-35.3-162.5-37.1-3.1 37.3-6.5 88.5-10.1 153.7-2.7 62.9-11.2 98.6-25.6 107.2-14.8-8.5-23.4-44.3-25.6-107.2-3.6-65.2-7.2-116.4-10.8-153.7-33.3 1.8-87.2 14.2-161.8 37.1C5.8 373-1.2 369.4.2 360c6.3-18.4 23.9-37.7 52.9-58 29-20.2 72.2-36.4 129.8-48.5-2.7-82.7-4.3-167.2-4.7-253.5h82.2c-.5 86.3-2.3 170.8-5.4 253.5z"/></svg>