<svg xmlns="http://www.w3.org/2000/svg" viewBox="-10 0 959 1175"><path d="M460 1175l-43-561q-58 4-103 18.5T220 675q-36 21-69.5 51.5t-61 60.5q-27.5 30-47 50T16 857q-9 0-17.5-8t-8.5-28q0-22 19.5-63t59-87.5Q108 624 167 584q48-33 107-57t134-32L371 0h197l-38 495q76 8 135 32t107 57q59 40 98 86.5t59 87.5q20 41 20 63 0 20-9 28t-17 8q-8 0-27-20t-46.5-50Q822 757 788 726.5T718 675q-49-28-94-42.5T522 614l-43 561zm-33-681q10-1 21-1.5t21-.5q10 0 20.5.5T510 494l37-474H392zM16 834q3 0 21-19.5T82.5 766q27.5-29 60-58t65.5-48q59-35 119-51.5T469 592q82 0 142.5 16.5T731 660q33 19 65.5 48t60 58q27.5 29 45.5 48.5t21 19.5q2 0 4-3t2-15q0-14-19.5-51.5t-58-83.5Q813 635 757 597q-54-38-126.5-61.5T469 512q-89 0-161 23.5T182 597q-57 38-95.5 84t-58 83.5Q9 802 9 816q0 12 2.5 15t4.5 3zm453 207l33-429h-65z" fill="currentColor"/></svg>