<svg xmlns="http://www.w3.org/2000/svg" viewBox="0 0 196.4 594.5"><path d="M196.4 587.4c-1.3 4.8-5.4 7.2-12.4 7.2h-18.2c-7.4 0-11.7-2.4-13-7.2V302.5c-1.3-15.2-8-25.2-20.2-29.9-35.1-11.7-65.4-31.1-90.7-58.2C16.6 187.2 2.6 121.4 0 16.9c7.4-7.4 14.1-7.4 20.2 0 9.1 73.7 23.7 125.3 43.9 154.8 20.2 29.5 50 49.7 89.4 60.5.4-66.3 1.5-138.1 3.3-215.3 0-11.3 6-16.9 17.9-16.9 11.9 0 17.9 5.6 17.9 16.9l3.8 570.5zM153.5 268v-18.9c-36.4-14.3-62.7-28.5-78.7-42.6-16-14.1-28.4-33.1-37.1-56.9-8.7-23.9-16.5-54.2-23.4-91.1 3 38.6 7.6 70.7 13.7 96.3 6.1 25.6 19.4 47.1 40 64.4 20.6 17.4 49.1 33.6 85.5 48.8zm29.9 304.4l-2.6-550.3c0-6.5-2-9.8-5.9-9.8-3.9 0-5.9 3.3-5.9 9.8l-3.3 550.3c0 7.4 2.9 11.1 8.8 11.1 6 0 8.9-3.7 8.9-11.1z"/></svg>