<svg xmlns="http://www.w3.org/2000/svg" viewBox="-10 0 388 1194"><path d="M184 1194q-17 0-30-4.5t-18-9.5l28-806q-21-7-39.5-29T100 281l-110 31V138l120 34q10-19 19-30L89 0h189l-40 142q5 6 10 13.5t8 16.5l122-34v174l-111-31q-6 42-24 64t-40 29l28 806q-5 5-17.5 9.5T184 1194zM146 128q18-12 38-12 19 0 37 12l31-108H115zm38 229q22 0 44-24.5t22-85.5q0-61-22-86t-44-25q-23 0-45 25t-22 86q0 61 22 85.5t45 24.5zM9 286l89-25v-14q0-32 6-56L9 164zm349 0V164l-95 27q3 12 5 26t2 30v6.5l-1 7.5zm-174 889q8 0 15.5-1t12.5-3l-28-794h-1l-27 794q3 2 9 3t19 1z" fill="currentColor"/></svg>