<svg xmlns="http://www.w3.org/2000/svg" viewBox="0 0 241.7 594.5"><path d="M120.5 64.6c6.2-1.8 11.2-5.4 15-11 3.8-5.5 5.4-15 5-28.3-13.3-6.2-26.4-6.2-39.3 0-.4 13.3 1.2 22.7 5 28.3 3.8 5.5 8.5 9.2 14.3 11zm0 21.3c-5.8 0-10.5 3.1-14.3 9.3-3.8 6.2-5.7 22.2-5.7 47.9 0 19.1 1.9 32.1 5.7 38.9 3.8 6.9 8.5 10.3 14.3 10.3 6.2 0 11.2-3.6 15-10.7 3.8-7.1 5.7-20 5.7-38.6 0-25.7-1.9-41.7-5.7-47.9-3.8-6.1-8.8-9.2-15-9.2zm57.3 51.2c1.3 5.8 4.9 10.5 10.7 14.3 5.8 3.8 15.1 5.7 28 5.7 6.2-13.3 6.2-26.6 0-39.9-12.9 0-22.2 1.9-28 5.7-5.9 3.7-9.4 8.5-10.7 14.2zm-113.2 0c-1.8-5.8-5.4-10.5-11-14.3-5.5-3.8-15-5.7-28.3-5.7-6.2 13.3-6.2 26.6 0 39.9 13.3 0 22.7-1.9 28.3-5.7 5.5-3.6 9.2-8.4 11-14.2zm18 28c-10.7 0-23.3 3.7-37.9 11s-26 9.2-34 5.7C3.6 174.2 0 159.3 0 137.1c0-24.4 3.6-39.3 10.7-44.6 8-3.6 19.3-1.8 34 5.3 14.6 7.1 27.3 10.7 37.9 10.7 6.7-8.4 10-17.1 10-26 0-10.7-3.6-23.3-10.7-37.9-7.1-14.6-9.1-26-6-34C81.7 3.6 96.5 0 120.5 0c22.6 0 37.7 3.6 45.3 10.7 3.1 8 1.1 19.3-6 34-7.1 14.6-10.7 27.3-10.7 37.9 0 8.9 3.3 17.5 10 26 10.7 0 23.3-3.6 37.9-10.7 14.6-7.1 26-8.9 34-5.3 7.1 5.3 10.7 20.2 10.7 44.6 0 22.2-3.6 37.1-10.7 44.6-8 3.6-19.3 1.7-34-5.7-14.6-7.3-27.3-11-37.9-11-10.7 31.1-18.4 58.8-23.3 83.2-1.3 46.2 1.3 161.6 8 346.2H98.5c6.7-184.2 9.1-299.6 7.3-346.2-2.6-24.4-10.4-52.1-23.2-83.2z"/></svg>