<svg xmlns="http://www.w3.org/2000/svg" viewBox="-10 0 864 623"><path d="M359 591q-23 0-42.5-10.5T282 555q-29-29-29-72 0-31 11.5-48.5T287 409q-57-94-57-188 0-41 12-78.5T279 76q-2-1-13-1-58 0-105.5 27T79 173.5Q45 218 27 272T9 380v40h-19v-49q0-54 19-109.5T64.5 159Q101 112 153 83.5T270 55q17 0 25 3 31-29 71.5-43.5T452 0q49 0 101 16.5T655 65q8-11 24.5-22T725 32q23 0 43 10t34 25q13 14 21.5 33t8.5 41q0 30-11.5 47T797 213q57 96 57 189 0 46-15.5 87T792 561q-31 31-72 46.5T632 623q-102 0-203-66-7 11-23.5 22.5T359 591zm419-43q29-28 43-66t14-81q0-65-31-134t-90-128q-59-59-128-89.5T452 19q-43 0-80 13.5T306 75q-29 29-42.5 66.5T250 222q0 64 30.5 133.5T370 484q59 58 128 89t134 31q43 0 80-14t66-42zm8-353q7-4 17-15.5t10-36.5q0-17-6.5-34T789 81q-14-13-29-21t-35-8q-26 0-37.5 9.5T672 77q15 11 29 23t28 25q16 17 30 34.5t27 35.5zM359 571q26 0 37.5-9.5T412 545q-15-11-29-23t-27-25q-17-17-31-34t-27-35q-7 3-16.5 14.5T272 480q0 16 6 33t17 28q14 14 29 22t35 8z" fill="currentColor"/></svg>