<svg xmlns="http://www.w3.org/2000/svg" viewBox="0 0 534 385.5"><path d="M470.8 86.5c-14.1-15.2-30.1-14.6-48.1 1.6 14.1 15.2 27.6 31.3 40.3 48.6 19.3-18 21.9-34.7 7.8-50.2zm13.9 240.8c27.9-29.6 24.6-69.5-9.8-119.6-34.4-50.1-73.4-94.6-116.8-133.6-43.4-38.9-87.9-33.9-133.6 15-45.6 48.9-47.7 93.8-6.2 134.6s88.4 76.7 140.6 107.7c52.2 31.1 94.1 29.7 125.8-4.1zm-247 8.3c16.5 13.1 32.9 9.5 49.1-10.9-17.6-12.1-34.3-24.6-50.1-37.7-15.1 19.3-14.8 35.5 1 48.6zM186.6 77.2C84.6-9.3 33.1 36.4 32.1 214.1l1.6 154.5-32 .5L0 241.5C-2 6.2 67.9-57.1 209.8 51.4 271.5-4.8 334.7-.3 399.5 64.8c34.8-31.7 66.8-31.7 96.1 0 28.9 31 25.3 63.6-10.9 97.7 53.4 79.9 63.4 139 30 177.2L495.1 363c-36.9 35.5-97.1 29.1-180.9-19.1-31.3 38.6-63.6 44.4-96.6 17.6-33.1-27.2-35-59.1-5.7-95.6-69.6-60.4-78-123.2-25.3-188.7z"/></svg>