<svg xmlns="http://www.w3.org/2000/svg" viewBox="0 0 153.1 594.5"><path d="M150.5 594.5H2.7l28.1-96.8C15.5 484.2 7.9 468 7.9 449.3c0-19.2 5.5-33.4 16.4-42.5-12.3-27.4-19.6-52.4-22-74.9-2.4-22.5-2.9-45-1.6-67.7C2.4 175.7 22.1 97.9 59.6 30.7L76.6 0l17 30.7c37.9 67.1 57.6 145 58.9 233.5 1.3 22.2.8 44.7-1.6 67.4-2.4 22.7-9.5 48-21.3 75.9 10.5 8.7 15.7 22.7 15.7 41.9 0 23.1-7.6 39.2-22.9 48.4l28.1 96.7zm-51-211.2c8.3-8.7 13.8-24.5 16.7-47.4 2.8-22.9 4.3-54.6 4.3-95.2.4-15.3-3.7-44-12.4-86.3C99.2 114.2 88.8 80 76.6 51.7 64.4 80 53.9 114.2 45.2 154.4c-4.4 24-8.5 52.8-12.4 86.3 0 40.6 1.4 72.3 4.3 95.2 2.8 22.9 8.4 38.7 16.7 47.4 15.1 4.3 30.4 4.3 45.7 0zM76.6 484c20.1 0 31.6-11.6 34.7-34.7-2.2-22.2-13.7-34-34.7-35.3-21.4 1.7-32.9 13.5-34.7 35.3 3.1 24.5 14.6 36 34.7 34.7zm41.2 88.3l-17.7-60.2H53l-17.7 60.2h82.5z"/></svg>