<svg xmlns="http://www.w3.org/2000/svg" viewBox="-10 0 342 1195"><path d="M26 1195l42-187q-33-36-33-86 0-47 29-81-29-32-51.5-84T-10 631q0-22 10.5-71.5t28.5-117q18-67.5 40-144T115 145q24-77 46-145 22 68 46 145t46 153.5q22 76.5 40 144t28.5 117Q332 609 332 631q0 74-23 126t-52 84q30 35 30 81 0 57-40 92l41 181zm52-367q35-32 83-32 23 0 44.5 8.5T244 827q27-29 47.5-78T312 631q0-17-9.5-60t-25-103.5q-15.5-60.5-35-130T202 197q-21-71-41-134-8 26-22.5 72t-32 103.5Q89 296 72 356.5t-31.5 116Q26 528 17.5 570T9 631q0 69 21 118t48 79zm83 201q44 0 75.5-31.5T268 922q0-44-31.5-75.5T161 815q-44 0-75.5 31.5T54 922q0 44 31.5 75.5T161 1029zM50 1175h213l-34-147q-29 20-68 20-43 0-76-25z" fill="currentColor"/></svg>