<svg xmlns="http://www.w3.org/2000/svg" viewBox="0 0 262.3 594.5"><path d="M218.4 594.5H46.5c-12.3 0-18.5-9-18.5-27.1s6.2-27.1 18.5-27.1C13.4 487.4-2 433.8.2 379.6c3.1-67.9 20.4-148.1 51.9-240.7S110 0 131.1 0c21.2 0 47.6 46.3 79.4 138.9 31.7 92.6 48.9 172.8 51.6 240.7 2.2 53.8-13.2 107.4-46.3 160.7 12.8 0 19.2 9 19.2 27.1s-5.5 27.1-16.6 27.1zm19.9-253.9c-7.5-50.7-19.4-101-35.7-150.8-16.3-49.8-31.1-90.3-44.3-121.4-13.3-31-22.3-46.6-27.2-46.6-4.8 0-14.3 15.7-28.4 47-14.1 31.3-30.6 79.8-49.6 145.5l185.2 126.3zm0 49.6c.9-7.1.9-16.3 0-27.8L46.5 236.1l-7.3 27.8 199.1 126.3zm-2 22.5L33.9 286.4c-6.2 33.5-9.3 64.6-9.3 93.2-.8 59.5 15.3 113.1 48.4 160.7h117c32.6-47.6 48.1-90.2 46.3-127.6zm-26.5 164.6c4 0 6-3.3 6-9.9 0-6.6-2.2-9.9-6.6-9.9H53.8c-4.8 0-7.3 3.3-7.3 9.9 0 6.6 2.4 9.9 7.3 9.9h156z"/></svg>