<svg xmlns="http://www.w3.org/2000/svg" viewBox="-10 0 429 1001"><path d="M83 1001q-46 0-46-36 0-9 8.5-23.5t18-27.5Q73 901 76 897q-35-29-60.5-92.5T-10 626q0-85 15-176t51-207q13-44 32-87t39.5-78Q148 43 168 21.5T204 0q16 0 36 21.5T280.5 78q20.5 35 39.5 78t32 87q36 116 51.5 207T419 626q0 119-27 182.5T328 901q5 5 13.5 17t16 25.5Q365 957 365 965q0 36-46 36zm316-400q-2-70-15.5-153T339 268q-14-44-31.5-87.5t-36-79.5Q253 65 235 43.5T204 22q-13 0-31 21.5T136.5 101q-18.5 36-36 79.5T69 268q-6 19-12 39t-10 39zm-3 97q3-33 3-72L42 366q-5 17-8 33l-6 32zM204 918q15 0 42-3.5t57-21q30-17.5 54.5-58.5T393 720L24 452Q9 548 9 626q0 88 15.5 143T64 855q24 31 51 44t51 16q24 3 38 3zM83 981h236q27 0 27-16 0-6-7-16.5t-14.5-21Q317 917 313 912q-32 19-62.5 22.5T204 938q-17 0-48-3.5T92 909q-1 2-10 13.5t-17 24Q57 959 57 965q0 16 26 16z" fill="currentColor"/></svg>