<svg xmlns="http://www.w3.org/2000/svg" viewBox="-10 0 302 1195"><path d="M150 1195q-74 0-117-43t-43-122q0-59 12.5-128.5t25-147Q40 677 40 595q0-83-12.5-158.5T2.5 293Q-10 225-10 164q0-79 43-121.5T150 0q50 0 81.5 17.5t46 43.5Q292 87 292 114q0 41-23.5 71.5T196 216q-17 0-37-2.5t-29-4.5q11 40 22 91t20.5 104.5q9.5 53.5 15.5 103t6 87.5q0 38-6 88t-15.5 104.5Q163 842 152 893.5T130 986q9-3 29-5t37-2q49 0 72.5 30.5T292 1081q0 26-14.5 52.5t-46 44Q200 1195 150 1195zm0-20q43 0 70-14.5t39.5-36Q272 1103 272 1081q0-33-18-58t-58-25q-23 0-49 4.5t-42 8.5q11-45 23.5-100.5t23-114q10.5-58.5 17-111T175 595q0-38-6.5-90.5t-17-110Q141 337 128.5 282T105 183q16 4 42 8.5t49 4.5q40 0 58-25t18-57q0-23-12.5-44.5T220 34q-27-14-70-14-65 0-103 36.5T9 164q0 53 12.5 123.5t25 149.5Q59 516 59 595q0 80-12.5 160t-25 151Q9 977 9 1030q0 71 38 108t103 37z" fill="currentColor"/></svg>