<svg xmlns="http://www.w3.org/2000/svg" viewBox="0 0 131.1 594.5"><path d="M36.2 297.2c0-51-2.9-94.1-8.6-129.4-5.7-35.3-7.5-62-5.4-80.3 2.1-18.3 7.2-34 15.3-47.2 8.1-13.2 20-19.8 35.7-19.8 10.6 0 19.3 2.9 26.1 8.6 6.8 5.7 10.2 14.3 10.2 25.8 0 14-5.5 21.5-16.6 22.3-8.9 0-14.4-2.7-16.6-8-2.1-5.3-6.2-8-12.1-8-5.5 0-10.3 3-14.3 8.9-4 6-6.4 16.1-7 30.6-.6 14.4 3.1 38.7 11.2 72.7s13 75.2 14.7 123.7C67 345.6 62.1 386.9 54 420.9c-8.1 34-11.8 58.2-11.2 72.7.6 14.4 3 24.6 7 30.6 4 5.9 8.8 8.9 14.3 8.9 5.9 0 10-2.7 12.1-8 2.1-5.3 7.6-8 16.6-8 11 .9 16.6 8.3 16.6 22.3 0 11.5-3.4 20.2-10.2 26.1-6.8 5.9-15.5 8.9-26.1 8.9-15.7 0-27.6-6.7-35.7-20.1-8.1-13.4-13.2-29.2-15.3-47.5-2.1-18.3-.3-45 5.4-80.3 5.8-35.2 8.7-78.3 8.7-129.3zm58 0c-.4-31.4-5.6-67.7-15.6-108.7S64.5 114.7 66.2 90c9.8 5.1 18.7 7.6 26.8 7.6 17.8 0 29.5-6.6 35.1-19.8 1.7-6.8 2.8-15.9 3.2-27.4 0-16.1-6.8-29.5-20.4-40.2C98.4 2.7 85.9-.7 73.1.1 57.8.1 44 4.8 31.7 14.1 13 32 2.7 54.6.8 82c-1.9 27.4-.3 56 4.8 85.7 5.1 29.7 7.6 72.9 7.6 129.4 0 56.9-2.5 100.3-7.6 130-5.1 29.7-6.7 58.2-4.8 85.4 1.9 27.2 12.2 49.9 30.9 68.2 12.3 8.9 26.1 13.4 41.4 13.4 12.7 1.3 25.3-2.1 37.6-10.2 13.6-10.6 20.4-24 20.4-40.2-.4-11.5-1.5-20.6-3.2-27.4-5.5-13.2-17.2-19.8-35.1-19.8-8.1 0-17 2.5-26.8 7.6-1.7-24.6 2.4-57.4 12.4-98.2 10.1-40.5 15.3-76.8 15.8-108.7z"/></svg>