<svg version="1" xmlns="http://www.w3.org/2000/svg" width="444" height="176" viewBox="0 0 333 132"><path d="M2.1 2.9C.8 6 .8 6 9.8 15.4 35 41.8 46.7 72.7 49.5 120.2l.7 11.8h283l-.7-3.8c-.3-2-2.2-7-4.1-11a76 76 0 0 0-39.8-34.3c-14.9-5.8-17.2-5.9-105.1-5.9h-80.3l-2.6-7.7A98.1 98.1 0 0 0 12.2.4L3.4-.3 2.1 2.9zM31.7 10c30.2 7.7 53.5 31.3 63.9 64.6l2.6 8.4H180c89.8 0 91.5.1 107 6.1a68.9 68.9 0 0 1 25.1 16.2 63.8 63.8 0 0 1 12.9 19.4c0 1.1-26.3 1.3-134.3 1.3H56.3l-1.1-15.7c-3-39.9-14.4-69.4-36.8-94.7l-7.8-8.9 6.6.7c3.6.3 10.2 1.5 14.5 2.6z"/></svg>