<svg xmlns="http://www.w3.org/2000/svg" viewBox="-10 0 1265.182 992"><path d="M305.182 992q-10-17-24-33.5t-22-16.5q-13 0-37 14.5t-42 27.5l-190-7q-1-9 3.5-26.5t16.5-36q12-18.5 34-31.5t58-13q15 0 29 2t25 5q10 2 21.5 4t33.5 2q20 0 46-4.5t60.5-20q34.5-15.5 79.5-49.5t103.5-93q58.5-59 131.5-150 70-87 118-150t80-107q32-44 54-75 25-35 41.5-57.5t34.5-40.5q44-44 93-74.5t90.5-46q41.5-15.5 65.5-15.5 20 0 29.5 22.5t13 56.5q3.5 34 3.5 69 0 55-4 78.5t-9 35.5q-7 15-36 48.5t-73 79q-44 45.5-97 96.5t-108 102q-55 51-106 95.5t-92 76.5q-41 32-64 45l-23-79q-21 6-55.5 29.5t-74.5 56.5q-40 33-79 67.5t-69 61.5l-35 31.5-25 19.5zm5-27l43-38q31-28 72.5-65t85-72.5q43.5-35.5 82.5-60t64-27.5l20 70q15-8 50.5-36.5t84-71q48.5-42.5 103-92.5t107.5-100.5q53-50.5 97-95t72.5-76.5q28.5-32 32.5-44t7.5-33.5q3.5-21.5 3.5-74.5 0-31-1.5-60.5t-7-49q-5.5-19.5-17.5-19.5-22 0-61.5 15t-85.5 44.5q-46 29.5-88 71.5-17 17-35.5 41.5t-39.5 53.5q-32 46-94 131t-157 202q-89 108-155.5 173t-116.5 97.5q-50 32.5-89.5 43.5t-75.5 11q-22 0-35.5-2.5t-24.5-5.5q-9-2-21-4t-28-2q-33 0-52.5 13.5t-28 30q-8.5 16.5-8.5 24.5l162 6q6-4 21.5-14t32.5-18.5q17-8.5 30-8.5 10 0 25 14.5t26 28.5z" fill="currentColor"/></svg>