<svg version="1" xmlns="http://www.w3.org/2000/svg" width="486.7" height="117.3" viewBox="0 0 365 88"><path d="M61.2 1C45.5 3.3 35.4 14.5 32.8 32.8L31.6 41H6V3H0l.2 40.7.3 40.8h5l.3-18.8L6 47h26v2.7c0 4.9 2.9 16.5 5.1 20.7a31.1 31.1 0 0 0 24 16.6c8.8 1.4 233 1.4 241.8 0a33.6 33.6 0 0 0 19.5-10 34.9 34.9 0 0 0 8.8-21.5l1.1-8.5H358l.2 18.7.3 18.8 2.8.3 2.7.3V3h-6v38h-25.9l-.6-5.8c-2-17.4-8.4-27.1-21.7-32.5L304.5.5l-119-.1C120 .3 64.1.6 61.2 1zm247 8.2c6.6 3.1 10 6.4 13.4 12.9 5 10 5.7 29.7 1.3 41.5a28.7 28.7 0 0 1-15.5 16c-4.7 1.8-9.8 1.9-120.3 2.2-70.8.2-118.1-.1-122.4-.7-13-1.8-20.8-8.2-24.4-19.9a82.7 82.7 0 0 1 .2-34.7c4-11.3 12-18 23.4-19.5 3.1-.4 58-.7 122.1-.6l116.5.1 5.7 2.7z"/></svg>