<svg xmlns="http://www.w3.org/2000/svg" viewBox="-10 0 1155 279"><path d="M222 279q-15 0-36.5-2.5t-42.5-14Q122 251 107.5 224T91 148H9v120h-19V8H9v120h82q2-47 17-73.5t36-38q21-11.5 42-14T222 0h691q15 0 36 2.5t42 14q21 11.5 35.5 38T1043 128h83V8h19v260h-19V148h-83q-1 49-15.5 76t-36 38.5Q970 274 949 276.5t-36 2.5zm0-20h691q13 0 31.5-2t36.5-12.5q18-10.5 30.5-35T1024 140q0-45-12.5-69.5T981 35q-18-11-36.5-13T913 20H222q-13 0-31.5 2t-37 13Q135 46 123 70.5T111 140q0 45 12 69.5t30.5 35q18.5 10.5 37 12.5t31.5 2z" fill="currentColor"/></svg>