<svg xmlns="http://www.w3.org/2000/svg" viewBox="-10 0 579 1001"><path d="M-10 1001v-43l103-44-45-208q-3-13-6.5-33T38 635q0-26 16-44t40-18q28 0 41 10.5t27 27.5l104 128 26-213-46-66 97-161-13-77-43 5-19-45-31-2 49-108 2-13q16-59 92-59 55 0 94.5 25.5T524 109l21 433h-55v382l79 34v43zm409-479h125l-18-413q-13-38-34-57.5T427 26q-24-6-46-6-24 0-46 9.5T306 62l78 44q5-4 11-7t13-3q13 0 20 9.5t7 20.5q0 7-7 17t-11 16zM9 981h541v-12l-78-34V542h-97l24-381q1-6 10-17.5t9-15.5q0-3-2-8.5t-10-5.5q-11 0-20 12l-86-48-39 88 19 1 15 42 46-6 22 100-94 157 41 56-29 253-12 4-118-145q-10-13-24-24.5T97 592q-19 0-30 12.5T56 635q0 15 5 37.5t8 36.5l47 212L9 969zm316-846q-11 0-19.5-3.5T290 123q5-6 14.5-8t11.5-2q12 0 18.5 5t13.5 15q-7 1-12.5 1.5t-10.5.5z" fill="currentColor"/></svg>