<svg xmlns="http://www.w3.org/2000/svg" viewBox="0 0 560 594.4"><path d="M432.1 262v-89.4c0-58.7-6.6-99.9-19.9-123.6-13.3-23.8-36.8-35.7-70.6-36-33.8-.2-52 11.1-54.8 33.9 14.9-2.3 26.3-1.6 34.2 2.1 7.9 3.7 12.1 9.1 12.6 16.1 1.4-9.3 6.1-13.7 14-13.3 10.7-1.9 16.2 1.9 16.4 11.2.2 9.3-2.3 18.2-7.7 26.5-5.4 8.4-9.4 14.9-12.2 19.6v153h88zM311.9 135.5c3.3 15.4 8.4 24.9 15.4 28.6h2.1v-57.3L349 76.1c2.3-8.4 1.6-12.6-2.1-12.6-4.7 0-7.7 4.2-9.1 12.6h-9.1c0-9.3-4.7-15.6-14-18.9-9.3-3.3-16-4.2-19.9-2.8-4 1.4-8.5 2.8-13.6 4.2-1.4 4.2-2.1 10.7-2.1 19.6-6.5 12.1-10 19.8-10.5 23.1 7.9 1.9 10.5 5.6 7.7 11.2h12.6c2.3.5 3.5 2.3 3.5 5.6-6.5.9-9.8 4.7-9.8 11.2 0 4.2 3.5 6.3 10.5 6.3h18.8zm12.6-69.1v4.2h-5.6c-15.4-5.6-27.5-4.9-36.3 2.1v-6.3c7.5-7 19.6-7.2 36.3-.7l5.6.7zm0 8.3l.7 3.5-7-.7c-11.6 4.7-19.1 7-22.4 7-3.7.5-6.8-.2-9.1-2.1l-4.2.7-.7-2.8c2.3-7 7.9-10.5 16.8-10.5 3.3 0 9.8 1.6 19.6 4.9h6.3zm-13.3 2.1c-3.7-1.4-7.5-2.3-11.2-2.8.9.9 1.4 1.9 1.4 2.8 0 1.4-.7 2.8-2.1 4.2 5.6-1.4 9.6-2.8 11.9-4.2zm-18.1-2.1c-1.9 0-4.2 1.6-7 4.9 3.3 1.4 6.3 1.9 9.1 1.4-1.9-.9-2.8-2.1-2.8-3.5s.2-2.3.7-2.8zm36.3 113.9h-13.3c-.5 31.2-3.5 51.1-9.1 59.7-5.6 8.6-12.6 20.6-21 36 1.9 11.6 10.2 23.5 25.1 35.6-9.3 28.4-19.8 51.6-31.4 69.5-11.6 17.9-18.2 43.4-19.6 76.5-72.6 22.4-130.4 43.5-173.2 63.6-21.4 12.6-29.1 23.4-23.1 32.5 6.1 9.1 12.3 12 18.9 8.7 49.4-28.4 93.5-37.5 132.4-27.2 38.9 10.2 76.5 16.5 112.8 18.9 34 2.3 53.3-15.8 58-54.5 1.4-93.6 10.5-170.4 27.2-230.5h-83.8v-88.8zm118.1-125l13.3 30 5.6-2.8-18.9-27.2zm-14-.7l11.2 55.2 12.6-2.8c-2.9-20.5-10.8-38-23.8-52.4zm4.9-37.8c16.3 1.4 19.1 10.5 8.4 27.2 8.4 7.5 18.9 22.1 31.4 44l-12.6 5.6 6.3 21.7-24.4 6.3v42.6c8.4 0 17.2 7.2 26.5 21.7 25.1 32.6 48 66.6 68.5 102 7.5 20.5 8.4 64.3 2.8 131.3v.7c3.7 7 7.5 15.6 11.2 25.8 1.9 4.2 3 9.3 3.5 15.4.5 4.7-.5 11.4-2.8 20.3-2.3 8.8-3 17-2.1 24.4-.5 2.8-1.4 4.7-2.8 5.6-1.4.9-3 .7-4.9-.7 0 1.4-.7 2.1-2.1 2.1-1.4 0-2.1-.5-2.1-1.4-.5.9-1.4 1.5-2.8 1.7-1.4.2-2.3-.3-2.8-1.7.5.5-.1 1-1.7 1.7-1.6.7-2.9-.8-3.8-4.5 1.9-11.2 3.5-19.9 4.9-26.2 1.4-6.3 1.2-15.5-.7-27.6-1.4-1.9-2.3-2.7-2.8-2.4-.5.2-.5 1.3 0 3.1-2.8 3.7-3.5 8.4-2.1 14 .9 4.7 1 8.6.3 11.9-.7 3.3-2.4 4.7-5.2 4.2-2.3-.5-3-3.7-2.1-9.8-.9-4.7-2.1-11.4-3.5-20.3-1.4-8.8 0-20.7 4.2-35.6-11.2-50.3-16.8-88.3-16.8-113.9-24.2-22.8-44.5-51.7-60.8-86.6v49.6h-16.1C415.1 336.9 407 409.8 407 495.9c13 1.4 18.7 6.3 17.1 14.7-1.6 8.4-4.5 16.3-8.7 23.8-4.2 10.2 5.4 22.4 28.6 36.3 11.2 0 17.2 2.1 18.2 6.3 8.4 1.4 12.3 6.1 11.9 14h-11.2c-2.8 3.3-19.1 4.2-48.9 2.8H54.9c-34.9-28.9-29.1-55.4 17.5-79.6 59.6-28.4 116.2-49.4 169.7-62.9 1.4-26.1 7.6-47.5 18.5-64.3 10.9-16.8 21.3-37.3 31.1-61.5-20.5-20-27-38.4-19.6-55.2-4.7 9.8-17.7 26.5-39.1 50.3-41.4 16.8-85.2 23.5-131.3 20.3L71 335.3c-10.7 1.9-19.3.3-25.8-4.5-6.5-4.9-11.6-8.5-15.4-10.8-5.1-.9-7.7-2.6-7.7-4.9 0-2.3 1.5-3.5 4.5-3.5s6.4.9 10.1 2.8c4.7 3.3 8.1 5.4 10.5 6.3 1.9.5 2.9.3 3.1-.3.2-.7-.6-1.7-2.4-3.1-9.3-5.6-16.8-8.5-22.4-8.7-5.6-.2-13-.8-22.4-1.7-2.3-.5-3.4-1.6-3.1-3.5.2-1.9 1-2.8 2.4-2.8-.9-.5-1.4-1.3-1.4-2.4 0-1.2.7-2 2.1-2.4-.5-.9-.7-2-.7-3.1 0-1.2.7-1.7 2.1-1.7-.9-2.3-.8-3.8.3-4.5 1.2-.7 2.9-1 5.2-1 5.6 2.3 12.2 3.7 19.9 4.2 7.7.5 13.6 1.4 17.8 2.8 5.1 2.3 9.3 5.1 12.6 8.4 7.5 6.1 13.7 11.9 18.9 17.5 31.2 2.3 55.3-.1 72.3-7.3s37.1-13.6 60.4-19.2c20-39.6 42.8-74.3 68.5-104.1 7.5-8.4 20.5-13.3 39.1-14.7-6.1-5.6-10.2-10.5-12.6-14.7-2.3-4.2-3.7-8.8-4.2-14h-13.3c-13 0-18.2-6.3-15.4-18.9l-3.5-.7c-.9-2.3-.7-4.9.7-7.7-1.9 0-3.5-.9-4.9-2.8l2.8-4.9c-6.1-.5-9.1-2.1-9.1-4.9 0-4.7 3.3-13 9.8-25.1-.5-6.5-.2-13.5.7-21 5.6-38.7 28.6-58 69.2-58s69.9 15.6 88 46.8c-6.3-13.4-2.8-20.7 10.7-22.1zm0 26.6c6.1-9.8 6.3-14.8.7-15-5.6-.3-5.9 4.7-.7 15z"/></svg>