<svg xmlns="http://www.w3.org/2000/svg" viewBox="-10 0 789 1001"><path d="M211 1001q-43 0-69-21.5T116 920q0-25 17-40t50-30l163-74q-7-10-20.5-34.5T312 686q0-25 11.5-52t27.5-51.5q16-24.5 30.5-43.5t20.5-28l-31-32-98 103-119 70-71 95-26-14 15-41-25 11-30 51-27-14 31-74 34-29 49-18 124-105 77-109q28-50 48-78t37.5-42q17.5-14 37.5-20l20-7-7-26-40 15-24-63-31-2 50-110 2-13q7-28 27.5-43.5T485 0q45 0 81.5 18.5T615 70l61-56 29 48-54 19 69 1-8 55-91-28q0 12 2 48.5t6 123.5l31 8q26 6 37.5 26t16.5 34l65 154-38 140 22 57-7 44-36 71-29-12 20-55-8-26-21 37-27-10 29-127 10-119-58-90 5 81h-36l-26 114-2 106 20 2v190l50 35 84 15v45h-89l-136-38-197 29q-39 6-66 7.5t-32 1.5zm284-526h125l-14-284q-1-23-2.5-49.5T602 95q0-26-20-43t-47.5-25Q507 19 486 19q-25 0-44 10t-27 33l78 44q5-4 11-7t13-3q13 0 20.5 9.5T545 126q0 7-6 16.5T529 158l-18 25zM361 769l198-54 3-111 25-110H471l23-313 22-31q4-5 7.5-11.5T527 128q0-3-2-8.5t-9-5.5q-7 0-11.5 3t-9.5 9l-85-48-40 91 19 1 20 55 45-15 15 62-36 10q-20 5-46 33t-69 101l-79 110-123 106-51 21-32 24-25 55 8 3 29-48 40-17 5 6-18 47 9 3 62-86 119-70 98-103-19-23 57-86 15 9-49 77 61 68q-10 12-25.5 33T368 590.5q-16 24.5-26.5 50T331 687q0 32 11.5 52t18.5 30zm73-634q-11 0-19-3.5t-16-8.5q5-6 14.5-8t12.5-2q19 0 32 20-7 1-13 1.5t-11 .5zm280 661l26-54 5-39-22-59 35-145-61-140q-5-13-15.5-30.5T658 307l-28-8 5 74 78 131-13 122-28 111 8 4 24-44 8 1 13 41-19 54zM224 921l356-20V731h-9l-193 53-196 85zm421 61h67v-14l-72-9-58-41-369 20-49-60q-29 15-29 41t12.5 39q12.5 13 29.5 18t32 5q17 0 45.5-2.5T306 972l207-30z" fill="currentColor"/></svg>