<svg xmlns="http://www.w3.org/2000/svg" viewBox="0 0 196.7 594.5"><path d="M97.9 181.8c-3.7 24.9-9.3 54.7-16.8 89.3-7.5 34.7-7.9 66.9-1.2 96.8 6.6 29.9 10 58.9 10 87.2s-3.3 54.8-10 79.7H126c6.2-29.1 9.3-53.1 9.3-72.2s-1.9-35.9-5.6-50.4c-3.7-14.5-1.2-36.8 7.5-66.9 8.7-30.1 13.1-52 13.1-65.7 0-17.4-5-34.9-14.9-52.3 2.5-24.5 4.6-39.6 6.2-45.4H97.9zm-8.1 366c.4 6.2.2 14.1-.6 23.7 14.9-6.2 22.8-10.4 23.7-12.5v-11.2H89.8zM104.1 38v3.1h-3.7c-9.1-3.7-16.2-3.3-21.2 1.2l-.6-3.7c4.6-4.2 11.8-4.4 21.8-.6h3.7zm0 5.6v1.9h-3.7c-7.1 2.5-11.6 3.7-13.7 3.7-2.1.4-3.9.2-5.6-.6h-2.5v-1.9c1.2-4.2 4.6-6.2 10-6.2 2.1 0 6 1 11.8 3.1h3.7zM96 44.8c-2.1-.8-4.2-1.5-6.2-1.9v1.9c0 .8-.2 1.7-.6 2.5 3.3-.8 5.5-1.6 6.8-2.5zm-10.6-1.2c-1.7 0-3.1 1-4.4 3.1 2.1.4 3.7.6 5 .6-.8-.8-1.2-1.5-1.2-1.9 0-.8.2-1.4.6-1.8zm74.1 118.3v-58.5c0-35.7-3.3-60.6-10-74.7-6.6-14.1-17.8-21.2-33.6-21.2-21.6 0-33.2 6-34.9 18.1 8.7-.4 15.6.1 20.5 1.6 5 1.5 7.5 5.1 7.5 10.9.8-4.6 3.3-6.8 7.5-6.8 6.2 0 9.3 3.3 9.3 10 0 5-1.6 9.3-4.7 13.1-3.1 3.7-5.5 6.8-7.2 9.3v98.4h45.6zm-109-17.5c0-27.8 12-41.7 36.1-41.7 7.1-1.2 10.9-3.6 11.5-7.2.6-3.5-.7-7.4-4-11.5H82.9c-7.9 0-10.8-3.7-8.7-11.2h-2.5c-.4-1.7-.2-3.1.6-4.4-1.2 0-2.1-.6-2.5-1.9l1.2-3.1c-3.7 0-5.6-.8-5.6-2.5 0-2.5 2.1-7.5 6.2-14.9 0-8.3.8-15.1 2.5-20.5C76.7 8.5 90.4 0 115.3 0c20.8 0 34.6 8.4 41.4 25.2S167 67.9 167 102.7c12.5 0 21 13.9 25.5 41.7 1.2 17.4 1.2 41.3 0 71.6 6.2 17.4 5.6 43.8-1.9 79.1 2.1 5.8 3.5 12.5 4.4 19.9.8 2.9 1 6.6.6 11.2 0 3.3-1.5 7.9-4.4 13.7-2.9 5.8-4.6 11-5 15.6-.8 1.7-1.8 2.7-2.8 3.1-1 .4-2.2.2-3.4-.6 0 .4-.4.6-1.2.6-.8 0-1.5-.2-1.9-.6 0 .4-.6.6-1.9.6-.8-.4-1.7-1-2.5-1.9.4.8 0 1.2-1.2 1.2s-1.9-1-1.9-3.1c2.5-7.5 4.8-13.3 6.8-17.4 2.1-4.2 3.1-10.4 3.1-18.7-.8-1.7-1.3-2.5-1.6-2.5s-.5.8-.9 2.5c-.4 2.5-.4 5.4 0 8.7-.4 3.7-1.1 6.6-2.2 8.7-1 2.1-2.4 2.9-4 2.5-1.2-.8-1.2-3.1 0-6.8-.4-3.7-.9-8.7-1.6-14.9-.6-6.2 2.6-14.5 9.6-24.9.4-17-.8-32.6-3.7-46.7-2.9-14.1-3.3-27-1.2-38.6-3.3-9.5-5.6-22.2-6.8-38h-60.4V62.9c2.1-3.3 4.9-7.2 8.4-11.5 3.5-4.4 5.3-7.8 5.3-10.3 0-2.9-1.2-4.4-3.7-4.4s-3.7 2.5-3.7 7.5H106c0-5.8-2.7-9.5-8.1-11.2-5.4-1.7-11.4-1.9-18.1-.6-2.1 3.7-3.1 8.1-3.1 13.1-4.2 7.5-6.2 12-6.2 13.7 4.6 1.2 6.2 3.5 5 6.8H83c1.2 0 1.9 1 1.9 3.1-3.9.4-5.9 2.7-6.3 6.9 0 2.5 2.1 3.7 6.2 3.7h15.6c3.7 7.1 4.8 13.8 3.1 20.2-1.7 6.4-7.5 9.6-17.4 9.6-8.7 1.2-12.6 8.3-11.5 21.2 1 12.9-1.1 23.9-6.5 33 3.3 7.5 9.1 11.2 17.4 11.2h62.9l1.2-6.2h7.5c-3.7 16.6-6.6 35.7-8.7 57.3 9.5 18.3 14.3 36.1 14.3 53.5 0 13.7-4.2 35.6-12.5 65.7s-10.9 52.3-7.8 66.6c3.1 14.3 4.9 31.1 5.3 50.4.4 19.3-2.9 47.8-10 85.6v18.7c3.3 15.4.4 24.7-8.7 28H11.3c-8.3 0-12-5.2-11.2-15.6H15c9.1-1.7 16.9-4.3 23.3-7.8 6.4-3.5 12.3-5.8 17.7-6.8 5.4-1 8.1-6.3 8.1-15.9 8.7-35.3 13.1-66.6 13.1-94 0-27-3.3-55-10-84-6.6-29.1-6.2-61.6 1.2-97.7 7.5-36.1 13.1-65.8 16.8-89-5-.8-9.3-2.3-13.1-4.4h-1.2c-.8 8.3-2.7 17.8-5.6 28.6.8 11.6-1.2 24.3-6.2 38s-8.7 28.8-11.2 45.4c5.8 11.6 7.9 20.4 6.2 26.5-1.7 6-2.7 10.9-3.1 14.6.8 3.7.4 5.8-1.2 6.2-1.7.4-2.9-.5-3.7-2.8-.8-2.3-1-5.1-.6-8.4.8-3.3 1.2-6.4 1.2-9.3-.4-1.2-.7-2-.9-2.2-.2-.2-.7.5-1.6 2.2-1.7 8.3-1.7 14.6 0 19s3.1 10.3 4.4 17.7c-.4 2.5-1.1 3.6-2.2 3.4-1-.2-1.3-.7-.9-1.6-1.2.8-2.3 1.2-3.1 1.2-.8 0-1.2-.2-1.2-.6-.4.4-1 .6-1.9.6-1.2-.4-1.7-.8-1.2-1.2-1.7.8-2.9.9-3.7.3-.8-.6-1.5-1.8-1.9-3.4 0-5-1-10.6-3.1-16.8s-2.9-10.8-2.5-13.7c.4-4.6 1.2-8.3 2.5-11.2 2.1-7.1 4.4-13.3 6.8-18.7-2.1-36.5 1.2-62.9 10-79.1.4-24.3 1.8-47.6 4.3-69.6z"/></svg>