<svg xmlns="http://www.w3.org/2000/svg" viewBox="-10 0 648 1001"><path d="M234 1001l-12-42 6-26-49-71 29-44q-33 3-38 3-35 0-58.5-19T88 751q0-21 16-35.5t43-25.5l140-59q2-34 11.5-74t18.5-78q9-38 9-62l-22-21-82 81-98 57-58 75-21-11 12-33-18 9-24 41-25-11 25-61 28-23 36-15 100-86 63-88q23-40 40-63.5t31-35q14-11.5 30-16.5l16-5-4-19-34 11-20-53-25-2 40-89 2-11q12-48 76-48 25 0 50.5 5.5t44 24.5Q507 49 509 89l7 136 25 8q22 5 30 22.5t13 28.5l54 126-30 114 17 47-6 36-33 58-26-10 16-45-4-21-17 31-26-9 23-104 12-96-42-67 3 59h-29l-21 94-2 86 16 1v151l36 29 69 11v46h-72l-95-26 45 67-48 70 5 27-11 42-28-3 5-33-7-6-12 18-24-17 62-93-51-70h-2v20q11 15 17.5 26.5T385 865q0 22-16 35t-39 13q-15 0-26.5-9T289 882l-1-5-20-45h17l4-18 22-1v-8l-31 4-43 59 60 91-22 19-13-18-6 6 4 32zm168-614h102l-11-246q-2-38-6-65t-23.5-41.5Q444 20 395 20q-44 0-54 27l59 37q10-8 20-8 11 0 17.5 9t6.5 18q0 14-10 26l-15 20zm-95 237l147-40 2-92 21-89h-95l19-256 18-25q9-9 9-17 0-3-1-7.5t-8-4.5q-10 0-17 10l-69-39-33 74 16 1 16 45 35-12 12 50-27 8q-16 5-38 27.5T257 339l-64 90-101 87-41 17-26 19-20 45 6 3 23-39 33-15 5 6-15 37 7 3 51-70 97-57 80-84-16-19 47-69 17 6-40 63 46 52q-4 44-19.5 99.5T307 624zm45-514q-9 0-15.5-2.5T324 100q5-5 12.5-6.5T346 92q9 0 14.5 4t11.5 12q-6 1-10.5 1.5t-9.5.5zm229 539l21-44 4-31-18-49 30-118-50-114q-5-10-13.5-25T535 250l-18-6 4 60 63 104-15 103-22 91 6 3 19-36h7l10 34-15 44zm-399 99l289-17V600h-7l-157 43-158 66zm342 57h55v-15l-59-7-47-34-301 17-41-50q-23 14-23 34 0 31 21.5 42.5T169 804q14 0 37-2.5t42-5.5l169-24zM407 991l7-31-8-27 47-71-47-71-25 3 51 72-64 93 5 5 14-18 19 13-5 31zM297 873l36-20q2 2 3 3.5t4 1.5q6 0 6-5 0-4-4-8l-12-17 17-13v-16l-24 4v19l-27 1-3 17h-10zm-53 118l5-1-4-30 19-14 14 19 5-5-65-94 38-53h-5q-6 1-11.5 2t-10.5 1l-31 47 46 71-8 26zm85-92q17 0 30-9t13-23q0-11-5.5-20.5T353 826l-8 5 6 8q2 3 4 6.5t2 8.5q-1 5-4 9.5t-10 4.5q-3 0-5-1.5t-4-2.5l-32 18q8 17 27 17zm-23-39q-6 0-10-4 5-4 13-4 6 0 10 1-6 7-13 7z" fill="currentColor"/></svg>