<svg xmlns="http://www.w3.org/2000/svg" viewBox="0 0 494.5 594.5"><path d="M388.7 216.9v-73.6c0-49-5.5-83.4-16.5-103.1-11-19.7-30.5-29.5-58.5-29.5s-43.1 9.5-45.5 28.4c12.4-1.9 21.7-1.4 28.1 1.4 6.4 2.9 9.9 7.2 10.7 13 1.2-7.3 5-11 11.6-11 8.9-1.5 13.3 1.6 13.3 9.6 0 7.9-2.1 15.3-6.4 22.3-4.2 7-7.5 12.2-9.8 15.6v126.8h73zm-99.6-104.2c2.7 12.4 6.9 20.1 12.7 23.2l1.7.6V88.9l16.2-25.5c1.9-7.3 1.4-11-1.7-11-3.9 0-6.4 3.7-7.5 11H303c0-8.1-3.9-13.4-11.6-15.9-7.7-2.5-13.2-3.3-16.5-2.3-3.3 1-7 2.2-11.3 3.8-1.5 3.5-2.1 8.9-1.7 16.2-5.8 9.7-8.7 15.8-8.7 18.5 6.6 1.9 8.7 5.2 6.4 9.8H270c1.9 0 2.9 1.4 2.9 4.1-5.4.8-8.1 4.1-8.1 9.8 0 3.5 2.9 5.2 8.7 5.2h15.6zm10.4-58v4.1h-4.6c-13.1-5-23.2-4.6-30.1 1.2v-4.6c6.2-5.8 16.2-6 30.1-.6h4.6zm0 7v3.5l-5.2-.6c-9.7 3.9-16 5.8-19.1 5.8-2.7 0-5-.6-6.9-1.7h-3.5l-.6-2.3c1.9-5.8 6.6-8.7 13.9-8.7 2.7 0 8.1 1.5 16.2 4.6l5.2-.6zm-11 1.7c-3.1-1.2-6.2-1.9-9.3-2.3.8 1.2 1.2 2.1 1.2 2.9 0 .8-.6 1.7-1.7 2.9 4.6-1.2 7.9-2.3 9.8-3.5zm-15-1.7c-1.5.4-3.7 1.7-6.4 4.1 3.1 1.2 5.8 1.5 8.1 1.2-1.5-.8-2.3-1.7-2.3-2.9 0-1.3.2-2 .6-2.4zm30.1 95c-12.7 0-23.6 2.7-32.4 8.1v23.7c10.8 19.7 9.3 35.9-4.6 48.7 2.3 8.5 9.3 16.8 20.9 24.9 2.3 25.5 2.2 45.7-.3 60.5-2.5 14.9-9 36-19.4 63.4-60.2 18.5-108.1 36.1-143.6 52.7-17.8 10.4-24.1 19.4-19.1 26.9s10.2 9.9 15.6 7.2c40.9-23.6 77.5-31.1 109.8-22.6 32.2 8.5 63.4 13.7 93.5 15.6 31.3 2.7 49.6-9.8 55-37.6-17.8-82.6-20.1-148.9-7-198.7h-68.3v-72.8zm-45.2 377c-4.6-1.5-5.8-4.2-3.5-8.1 4.2-4.6 10.4-4.8 18.5-.6-5.3 6.6-10.4 9.5-15 8.7zm-13.9-41.1c-2.3 1.2-2.3 4.1 0 8.7-1.5 1.5-2.5 2.9-2.9 4.1-.8 3.1.2 6.2 2.9 9.3 4.2 4.6 3.1 8.7-3.5 12.2l16.2 13.9c11.6 15.8 22.6 23 33 21.4 10.4-1.5 19.3-7.2 26.6-17.1 7.3-9.8 8.4-19.9 3.2-30.1-5.2-10.2-9.9-14.6-14.2-13-4.2 1.5-7.5 4.1-9.8 7.5-5.8-1.2-9.7-3.5-11.9-6.9-2.1-3.5-3-6.8-2.6-9.8h-37zM399.1 430c12 1.2 17.9 4.6 17.7 10.4-.2 5.8-4.9 13.3-14.2 22.6-7.7 6.6-4.6 15.1 9.3 25.5 14.7-.8 22.2 2.7 22.6 10.4 6.2 3.9 7.7 8.7 4.6 14.5l-8.7-3.5c-20.1-.4-44.8-6.2-74.1-17.4h-18c21.2 6.6 35.1 11.4 41.7 14.5-.8 25.5-3.9 43.8-9.3 55-5 13.5-10.3 21.8-15.9 24.9-5.6 3.1-10.7 5.6-15.3 7.5-5.4-5.4-3.8-10.1 4.9-14.2s11.7-6.7 9-7.8c-1.9 1.2-4.5 2.8-7.8 4.9-3.3 2.1-5.5 2.4-6.7.9 5-5.4 8.5-9.6 10.4-12.5 1.9-2.9 4.6-4.7 8.1-5.5 3.5-.8 5.6-2.5 6.4-5.2-1.2-17.8-1-30.3.6-37.6-13.1-.8-24.1-4.8-33-12.2 7.7 21.6 6.8 37.6-2.9 48.1-9.7 10.4-20.8 17.2-33.3 20.3-12.5 3.1-22.3 1.5-29.2-4.6-7-6.2-12-14.1-15.1-23.7-7.7-7.7-13.5-12.9-17.4-15.6-.4-3.9 1.2-6.6 4.6-8.1l.6-2.9c-3.1-2.7-4.6-5.8-4.6-9.3-10.4 5-21.6 7.9-33.6 8.7 1.5 7 1.7 19.5.6 37.6.8 2.3 2.9 4 6.4 4.9 3.5 1 6.2 2.8 8.1 5.5 1.9 2.7 5.4 6.8 10.4 12.2-1.2 1.9-3.4 1.7-6.7-.6-3.3-2.3-5.9-4.1-7.8-5.2-2.7 1.2.3 3.9 9 8.1 8.7 4.2 10.3 8.9 4.9 13.9-4.6-1.5-9.7-4-15.3-7.2-5.6-3.3-10.9-11.7-15.9-25.2-5.4-11.2-8.5-29.3-9.3-54.4 6.6-3.1 20.5-8.1 41.7-15.1H97.4c-29-23.9-24.1-46.1 14.5-66.6 49.4-23.6 96.3-40.9 140.7-52.1 10-21.6 16.1-39.3 18.2-53 2.1-13.7 2.6-30.6 1.4-50.7-9.7-3.5-17.6-14.3-23.7-32.4 8.1-10 12.9-18.9 14.5-26.6 1.5-7.7.8-10.6-2.3-8.7-11.2 18.1-30.3 40.3-57.3 66.6-22.4 17-69.5 21-141.3 12.2-9.3 1.9-16.7.8-22.3-3.5s-10.1-7.5-13.6-9.8c-4.6-.4-6.8-1.5-6.4-3.5 0-2.3 1.3-3.5 3.8-3.5s5.3.8 8.4 2.3c4.2 2.7 7.5 4.4 9.8 5.2 1.2.8 1.9.8 2.3 0 .4-.8-.4-1.5-2.3-2.3-8.1-5-14.6-7.6-19.4-7.8-4.8-.2-11.3-.7-19.4-1.4-2.3-.4-3.3-1.4-2.9-2.9.4-1.5 1.2-2.3 2.3-2.3-.8-.4-1.2-1.2-1.2-2.3s.8-1.9 2.3-2.3c-.8-.8-1.1-1.5-.9-2.3.2-.8.7-1.4 1.4-1.7-.4-1.9-.2-3.3.6-4.1.8-.8 2.1-1 4.1-.6 5 1.9 10.9 3 17.7 3.2 6.8.2 12.1 1.3 15.9 3.2 4.2 1.9 7.7 4.2 10.4 7 6.6 5 12 9.8 16.2 14.5 27.4 1.9 48.6-.2 63.4-6.4 14.9-6.2 32.3-11.6 52.4-16.2 17.4-34 41.7-63.5 73-88.6 9.7-7 22.2-10.8 37.6-11.6-5.4-5-9.1-9.3-11-12.7-1.9-3.5-2.9-7.1-2.9-11h-11c-10.8 0-15.1-5.4-12.7-16.2h-2.9c-.8-2.3-.6-4.4.6-6.4-1.5-.4-2.9-1.4-4.1-2.9l2.3-4.1c-5-.4-7.5-1.5-7.5-3.5 0-3.9 2.7-11 8.1-21.4-.8-5.4-.6-11 .6-16.8 4.2-32 23.3-48.2 57-48.4 33.8-.2 57.1 11.1 70.1 33.9C395 56.7 401.5 93 401.5 142.8c7 0 14.3 6 22 18 20.9 27 39.8 55.4 56.8 85.1 6.2 17 7 53.1 2.3 108.3v1.2c3.1 5.4 6.2 12.4 9.3 20.9 1.5 3.5 2.3 7.7 2.3 12.7.8 3.9.2 9.6-1.7 17.1-1.9 7.5-2.7 14.2-2.3 20 0 2.3-.6 4-1.7 4.9-1.2 1-2.5.7-4.1-.9 0 1.2-.6 1.8-1.7 2-1.2.2-1.9-.1-2.3-.9 0 .8-.6 1.2-1.7 1.2-1.2 0-1.9-.6-2.3-1.7.4.8-.2 1.4-1.7 1.7-1.5.4-2.5-1-2.9-4.1 1.5-9.3 2.9-16.4 4.1-21.4 1.2-5 1-12.5-.6-22.6-1.2-1.9-1.9-2.8-2.3-2.6-.4.2-.6 1.1-.6 2.6-1.9 3.5-2.3 7.3-1.2 11.6.8 3.9.8 7.1 0 9.8-.8 2.7-2.1 3.9-4.1 3.5-1.9-.4-2.5-2.9-1.7-7.5-.8-4.2-1.8-10-3.2-17.4-1.4-7.3-.1-17 3.8-29-9.3-42.1-13.9-73.7-13.9-95-20.1-18.5-36.9-42.5-50.4-71.8v41.1h-13.3c-13.8 49.9-10.1 116.7 10.7 200.4z"/></svg>