<svg xmlns="http://www.w3.org/2000/svg" viewBox="0 0 437.9 576.8"><path d="M338.2 204.8v-69.9c0-45.9-5.2-78.1-15.6-96.7-10.4-18.6-28.8-27.9-55.2-28.1-26.4-.2-40.9 8.6-43.4 26.5 11.7-1.8 20.6-1.3 26.8 1.6 6.2 2.9 9.5 7.1 9.8 12.6 1.5-7.3 5.1-10.7 10.9-10.4 8.4-1.5 12.7 1.5 12.8 9 .2 7.5-1.7 14.4-5.7 20.8s-7.3 11.4-9.8 15v119.6h69.4zm-94-98.3c2.2 11.7 6.2 18.9 12 21.8h1.6V83.6l15.3-24c1.8-6.6 1.1-9.8-2.2-9.8-3.3 0-5.5 3.3-6.6 9.8h-7.6c0-7.3-3.6-12.1-10.9-14.5-7.3-2.4-12.4-3.1-15.3-2.2-2.9.9-6.6 1.9-10.9 3-1.1 3.3-1.6 8.4-1.6 15.3-5.1 9.5-7.6 15.5-7.6 18 5.8 1.5 7.6 4.4 5.5 8.7h10.4c1.5.4 2.2 1.8 2.2 4.4-4.7.7-7.3 3.6-7.6 8.7 0 3.6 2.7 5.5 8.2 5.5h15.1zm9.3-54.6v3.3h-4.4c-12-4.4-21.3-3.8-27.9 1.6l-.5-4.9c6.2-5.5 15.7-5.6 28.4-.5l4.4.5zm.6 6.5v2.7l-4.9-.5c-9.1 3.6-15.1 5.5-18 5.5-2.5.4-4.9-.2-7.1-1.6l-3.3.5-.5-2.2c2.2-5.5 6.7-8.2 13.7-8.2 2.5 0 7.6 1.3 15.3 3.8h4.8zm-11 1.7c-2.5-1.1-5.3-1.8-8.2-2.2.4.7.5 1.6.5 2.7 0 .7-.5 1.6-1.6 2.7 4.8-1 7.9-2.1 9.3-3.2zm-13.6-1.7c-1.8 0-3.8 1.3-6 3.8 2.9 1.1 5.3 1.5 7.1 1.1-1.5-.7-2.2-1.6-2.2-2.7s.4-1.8 1.1-2.2zm28.4 89.1c-12 0-22.4 2.7-31.1 8.2v22.4c10.6 18.6 9.5 33.3-3.3 44.2 1.8 9.1 8.6 18.4 20.2 27.9 1.1 22.2-2.9 40.3-12 54.3s-18.4 34-27.9 59.8c-56.8 17.5-102 34-135.5 49.7-17.1 9.8-23.3 18.3-18.6 25.4 4.7 7.1 9.8 9.4 15.3 6.8 38.6-22.2 73.1-29.3 103.5-21.3 30.4 8 59.8 12.9 88.2 14.7 26.2 1.8 41.3-12.4 45.3-42.6 1.1-73.2 8-133.3 20.8-180.2h-65v-69.3zM141.6 464.3v66.1c-12.4 22.9-11.3 34.4 3.3 34.4 14.2 0 15.3-11.5 3.3-34.4v-66.1h-6.6zm63.9 0v66.1c-12 22.9-10.9 34.4 3.3 34.4 14.6 0 15.7-11.5 3.3-34.4v-66.1h-6.6zm79.2 0V520c11.7 26.6 14.7 42.7 9 48.3-5.6 5.6-12.5 8.5-20.5 8.5-8.4 0-15.4-2.8-21-8.5-5.6-5.6-2.6-21.6 9-47.8v-56.3h-40.4V520c11.7 26.6 14.7 42.7 9 48.3-5.6 5.6-12.7 8.5-21 8.5-8 0-14.8-2.8-20.5-8.5-5.6-5.6-2.8-21.6 8.5-47.8v-56.3h-40.4V520c11.7 26.6 14.7 42.7 9 48.3-5.6 5.6-12.5 8.5-20.5 8.5-8.4 0-15.4-2.8-21-8.5-5.6-5.6-2.6-21.6 9-47.8v-56.3H42.7c-27.3-22.6-22.6-43.3 14.2-62.3 46.6-22.2 90.7-38.6 132.2-49.2 9.8-20.4 19-37.1 27.6-50.2 8.6-13.1 12.3-29.1 11.2-48.1-17.8-14.9-21.3-32-10.4-51.3-6.9 13.1-18.8 28.9-35.5 47.5-32 13.5-66.3 18.8-102.7 15.8l-24-4.4c-8 1.5-14.6.3-19.7-3.6-5.1-3.8-9.3-6.6-12.6-8.5-4-.7-6-2-6-3.8.4-1.8 1.6-2.7 3.8-2.7 2.2 0 4.7.7 7.6 2.2 3.6 2.5 6.6 4.2 8.7 4.9 1.1.7 1.8.7 2.2 0 .4-.7-.4-1.6-2.2-2.7-7.3-4.4-13.1-6.6-17.5-6.8-4.4-.2-10.2-.6-17.5-1.4-1.8-.4-2.5-1.3-2.2-2.7.4-1.5.9-2.2 1.6-2.2-.7-.4-1-1-.8-1.9.2-.9.8-1.5 1.9-1.9-.7-.7-1-1.5-.8-2.5s.8-1.4 1.9-1.4c-.7-1.5-.7-2.5 0-3.3.7-.7 2-1.1 3.8-1.1 4.4 1.8 9.6 2.9 15.8 3.3 6.2.4 10.9 1.3 14.2 2.7 4 1.5 7.3 3.5 9.8 6 5.8 4.7 10.6 9.3 14.2 13.7 24.8 1.8 43.8-.1 57.1-5.7 13.3-5.6 29-10.7 47.2-15 15.3-31 33.1-58.1 53.5-81.4 5.8-6.6 15.8-10.4 30-11.5-4.7-4.4-8-8.2-9.8-11.5-1.8-3.3-2.9-6.9-3.3-10.9h-10.4c-10.2 0-14-4.9-11.5-14.7l-3.3-.5c-.4-1.8-.2-3.8.5-6-1.5 0-2.5-.7-3.3-2.2l2.2-3.8c-5.1-.4-7.6-1.6-7.6-3.8 0-3.6 2.7-10.2 8.2-19.7-.7-5.1-.5-10.6.5-16.4C216 15.1 233.9 0 265.5 0c31.7 0 53.7 10.7 66.1 32.2 12.4 21.5 18.4 55.7 18 102.7 6.6 0 13.5 5.6 20.8 16.9 20 25.5 37.9 52.1 53.5 79.7 6.2 16 6.9 50.2 2.2 102.7l.5.5c2.9 5.5 5.6 12.2 8.2 20.2 1.5 3.3 2.4 7.3 2.7 12 .7 3.6.2 8.9-1.6 15.8s-2.5 13.3-2.2 19.1c-.4 2.2-1 3.6-1.9 4.4-.9.7-2.3.5-4.1-.5.4 1.1-.1 1.6-1.4 1.6s-1.9-.4-1.9-1.1c-.4.7-1.1 1.2-2.2 1.4-1.1.2-1.6-.3-1.6-1.4 0 .4-.6.8-1.9 1.4-1.3.5-2.1-.6-2.5-3.6 1.5-8.7 2.7-15.6 3.8-20.5 1.1-4.9.7-11.9-1.1-21-.7-1.8-1.4-2.6-1.9-2.5-.5.2-.6 1-.3 2.5-2.2 2.9-2.7 6.6-1.6 10.9.7 3.6.8 6.7.3 9.3-.5 2.5-1.9 3.6-4.1 3.3-1.5-.4-1.8-2.9-1.1-7.6-1.1-3.6-2.2-8.9-3.3-15.8-1.1-6.9 0-16.2 3.3-27.9-8.4-39.3-12.6-69-12.6-89-18.9-17.8-35-40.4-48.1-67.7l.5 38.8h-12.6c-12.7 46.6-19.1 103.6-19.1 171 9.8 1.1 14.2 4.9 13.1 11.5-1.1 6.6-3.3 12.7-6.6 18.6-3.6 8 3.6 17.5 21.8 28.4 8.7 0 13.5 1.6 14.2 4.9 6.9 1.1 10 4.7 9.3 10.9h-8.2c-2.5 2.5-15.3 3.3-38.2 2.2h-39zm-15.3 0v66.1c-12 22.9-10.7 34.4 3.8 34.4 14.2 0 15.3-11.5 3.3-34.4v-66.1h-7.1z"/></svg>