<svg xmlns="http://www.w3.org/2000/svg" viewBox="0 0 440.8 594.4"><path d="M287.7 581c-5.4-3.9-6.1-11.3-2.2-22.1-29.9-30.9-43.2-56.2-39.7-75.8-3.9 12.8-5.6 36.1-5.2 69.9 5 7.8 20.7 17.2 47.1 28zm135.5-320.2l-6.6-49.3c-7.4-50-21.5-96.7-42.3-139.8-20.9-43.2-51.7-62.1-92.4-56.7-35.9 5.4-55.5 20.1-58.9 44.2 9.3-2.9 18.9-4 28.7-3.3 9.8.7 17.9 2.8 24.3 6.3l13.2-3.7c12.8-.5 19.1 5.6 19.1 18.4 0 11.8-4.4 24.8-13.2 39v96.4h25.8V177c27 0 47.5 2.5 61.4 7.4 14 4.9 26.1 30.4 36.4 76.5h4.5v-.1zm-248.1-55.9c-3.4-6.4-11.2-8.8-23.2-7.4-12 1.5-20.1 8.5-24.3 21-4.2 12.5-1.3 22.4 8.5 29.8 9.8 7.4 15.8 9.2 18 5.5 2.2-3.7-.5-8.3-8.1-14-7.6-5.6-8.5-12.3-2.6-19.9 5.9-7.6 12.3-7.7 19.1-.4 4.1-6.3 8.2-11.2 12.6-14.6zm10.4 9.6c4.4.5 6.1 2.9 5.2 7.4-2.9 4.9-8.3 6.4-16.2 4.4 3.3-6.9 7-10.9 11-11.8zM78.7 482.3l13.3-36c-1-39.7-.2-65.7 2.2-78 8.8-35.8 17.4-61.6 25.8-77.3 10.8-10.3 21.1-15.9 30.9-16.9l2.2-10.3-35.3 20.6C105 304.5 84.2 334 55.2 372.7c4.9 11.3 6.6 22.1 5.2 32.4-1.5 10.3-1.5 18 0 23.2 1.5 5.2 1 8.5-1.5 9.9-2.5 1-4.5 0-6.3-2.9-1.7-2.9-2.5-7.2-2.2-12.9.2-5.6.1-10.4-.4-14.4-1.5-2-2.7-2.8-3.7-2.6-1 .2-1.7 1.8-2.2 4.8-1 12.8-.2 22.3 2.2 28.7 2.5 6.4 5.4 14.7 8.8 25 0 2.9-.5 4.7-1.5 5.2-1.5.5-2.7 0-3.7-1.5-.5 4.4-2.2 5.2-5.2 2.2-1 3.9-2.9 4.4-5.9 1.5-1 2.5-2.2 3.4-3.7 2.9-1-.5-2.2-2-3.7-4.4-1.5-7.8-4-15.9-7.7-24.3-3.7-8.3-5.5-15.2-5.5-20.6-.5-6.9.2-14.6 2.2-23.2s5.9-18.5 11.8-29.8c24.5-52 42.7-88.6 54.5-109.7 10.8-10.8 21.1-18.9 30.9-24.3-2.5-5.9-1.7-13.6 2.2-23.2s10.4-16.8 19.5-21.7c9.1-4.9 18.2-6 27.2-3.3 9.1 2.7 16.6 6.7 22.4 12.1l21.3-11c12.3-9.3 28.9-14.2 50-14.7-4.4-5.9-7.1-11.3-8.1-16.2l-14 1.5c-13.2 1.5-19.1-4.7-17.7-18.4H216c-1-2.5-1-5.2 0-8.1-2 0-3.7-.7-5.2-2.2l2.2-5.9c-6.9.5-10.3-.5-10.3-2.9-.5-4.9 2-14.5 7.4-28.7-2-6.4-2.2-13.2-.7-20.6l-1.5-11c1-17.2 6.9-30.7 17.7-40.5C236.7 13.3 254.9 6 280.4 1c45.1-5.9 79.4 13 102.7 56.7 23.3 43.7 39.6 94.4 48.9 152.3l8.8 65.5h-18.4c12.8 54.5 12 87.6-2.2 99.3-25-13.7-45.9-26.7-62.6-39-10.8 30.4-15.7 55.7-14.7 75.8 7.4 48.1 9.6 84.1 6.6 108.2 8.3-5.9 14.6-5.5 18.8 1.1 4.2 6.6 7 13.9 8.5 21.7 4.4 5.9 14.7 15.2 30.9 28 10.3 0 15.9 2 16.9 5.9 7.8 1.5 11.3 5.9 10.3 13.2h-9.6c-21.6 5.4-61.6 5.6-120 .7-11.3 1.5-35.6 1.5-72.9 0-81.9 4.9-145.5 5.2-190.6.7-26 0-39-8.1-39-24.3L0 548.6c0-22.1 9.1-36.6 27.2-43.4l51.5-23.5v.6zm165.6-147.1l-19.1-48.6c-11.8-3.4-18.6-6-20.6-7.7-2-1.7-2-2.8 0-3.3-2-2.9-1.7-4.9.7-5.9-1-2.5-.2-4.2 2.2-5.2-2-2.5-2.3-4-1.1-4.8 1.2-.7 3.3-.6 6.3.4l7.4 2.2-5.2-10.3c0 3.4-2.1 5.9-6.3 7.4-4.2 1.5-10.2 2.7-18 3.7-5.9 5.9-7.8 10.5-5.9 14 17.7 6.4 28 11.5 30.9 15.5 9.8 13.2 18.6 26.7 26.5 40.5l2.2 2.1zm-.7 22.8c-12.8-5.9-23.8-17.7-33.1-35.3-2.5 16.2-5.8 28.8-9.9 37.9-4.2 9.1-4 21.7.4 37.9 9.3 6.4 16.7 11.5 22.1 15.5 5.3-19.7 12.1-38.4 20.5-56zm31.6 123.6c10.3 39.7 24 67.5 41.2 83.2 18.6-37.8 21.3-88.1 8.1-150.9 0-21.6 5.6-51 16.9-88.3-14.7-12.3-29.2-27-43.4-44.2-23.1 8.8-41.5 11.3-55.2 7.4l21.3 55.9c-12.8 26.5-21.8 52.7-27.2 78.7 6.4 4.9 15.2 12.3 26.5 22.1 7.9 4.9 11.8 17 11.8 36.1zm-50.7 94.9l-7.4-21.3c-37.3-14.2-82.9-17.2-136.9-8.8v-5.2c54-18.2 98.6-18.4 133.9-.7-2-10.3-3.6-19.9-4.8-28.7-1.2-8.8-.6-21.1 1.8-36.8-16.7-2.9-30.9-6.4-42.7-10.3-46.1 16.2-92.2 35.1-138.4 56.7-11.3 4.9-15.5 13.5-12.5 25.8-2.5 17.2 4.9 26 22.1 26.5 46.7 4.3 108.3 5.3 184.9 2.8zM133.2 316c-2.5 10.3-8.8 29.4-19.1 57.4l-5.9 58.9-2.2 37.5v-.7l41.9-14.7c-6.4-4.4-10.2-12.5-11.4-24.3-1.2-11.8 1-25 6.6-39.7 5.7-14.8 2.4-39.5-9.9-74.4zm247.3-42.7c-4.9 7.8-9.3 17.9-13.2 30.2 12.3 5.4 21.3 10.8 27.2 16.2-7.9-21.1-12.6-36.5-14-46.4zm-101.6-68.4c-8.8 3.9-18.6 5.4-29.4 4.4-10.8-1-19.3 2.6-25.4 10.7-6.1 8.1-10.2 13.4-12.1 15.8 3.4 7.8 9.8 13.5 19.1 16.9l3.7 12.5c15.2 3.9 26.5 4.7 33.9 2.2 4.4-1.5 3.9-3.2-1.5-5.2-15.7.5-25-.7-28-3.7-3.9-3.4-2.9-5.4 2.9-5.9 5.9 1.5 14.1 1.8 24.7 1.1 10.5-.7 19-.9 25.4-.4 6.4.5 13.5 4.9 21.3 13.2 11.8 11.3 24.5 21.3 38.3 30.2l18.4-43.4h-18.4v-59.6l-15.5-.7v32.4h-57.4v-20.5zM219.3 74.6c-1.5 3.9-1.2 10.3.7 19.1-5.9 13.7-8.8 22.3-8.8 25.8 8.3 1 11.5 4.4 9.6 10.3l13.2-1.5c2.5 0 3.9 2 4.4 5.9-6.9 1.5-9.8 5.6-8.8 12.5.5 4.4 4.4 6.4 11.8 5.9l19.9-2.9c2 10.3 6.4 19.4 13.2 27.2h6.6v-61.1c1.5-3.9 3.6-7.8 6.3-11.8 2.7-3.9 5.5-10.5 8.5-19.9 2.9-9.3 1-14-5.9-14-5.4.5-8.6 5.4-9.6 14.7H273c-1-9.8-8.6-15.3-22.8-16.6-14.2-1-24.5 1-30.9 6.4zm45.6.8l.7 5.2h-5.9c-17.2-3.9-29.7-1.5-37.5 7.4l-.7-6.6c6.9-8.3 19.4-10.3 37.5-5.9h5.9zm1.5 8.8l.7 3.7h-6.6c-11.3 6.9-18.9 10.3-22.8 10.3-3.9 1-7.1.7-9.6-.7l-4.4.7-1.5-2.2c2-7.8 7.6-12.3 16.9-13.2 2.9-.5 9.8.5 20.6 2.9l6.7-1.5zm-14 3.7c-3.9-1-7.8-1.2-11.8-.7 1 .5 1.7 1.5 2.2 2.9 0 1-.7 2.2-2.2 3.7 5.9-2 9.9-4 11.8-5.9zm-19.1 0c-2 1-4.2 3.2-6.6 6.6 3.9 1 7.1 1 9.6 0-2-1-2.9-2-2.9-2.9-.6-1.5-.6-2.7-.1-3.7zm105.2 495.3c-3.9-1.5-10.9-4.4-21-8.8s-21.3-20-33.9-46.7c-12.5-26.7-18.5-47-18-60.7-1-6.9-7.7-15.6-20.2-26.1-12.5-10.5-30.3-21.7-53.4-33.5-6.4-22.6-7.2-38.5-2.6-47.8 4.7-9.3 9-29.4 12.9-60.3-5.9-2.9-14.2-5.6-25-8.1-5.9-.5-5.9-12.3 0-35.3 11.3.5 20.9-.7 28.7-3.7 3.9-2.9 3.7-5.6-.7-8.1 4.9-2 5.4-4.9 1.5-8.8 3.9-4.4 3.3-6.6-1.8-6.6-5.2 0-5-2.9.4-8.8l-18.4-11c-5.9 2-13.2 8.6-22.1 19.9-7.8-6.4-13.6-7.6-17.3-3.7-3.7 3.9.1 9.1 11.4 15.5 6.4 8.3 8.6 18.3 6.6 29.8s-9.8 19.3-23.5 23.2c8.8 36.3 13.6 60.6 14.4 72.9.7 12.3-1.3 24.3-6.3 36.1-4.4 21.6-2.5 36.3 5.9 44.2 11.8 8.3 34.6 15 68.4 19.9-6.9 19.6-7.5 42.4-1.8 68.4 5.6 26 10.9 41.7 15.8 47.1l40.5 2.9c-29-12.2-44-21.1-45-27-1-5.9-1.6-17.4-1.8-34.6-.2-17.2 1.8-33.9 6.3-50 2-7.8.2-13.7-5.2-17.7-20.6-12.8-40.2-22.8-58.9-30.2v-7.4c4.9-2.9 9.8-4.7 14.7-5.2 9.8-.5 11.8 2.5 5.9 8.8l-9.6 2.2c15.2 5.9 33.4 15.2 54.5 28 11.3 5.9 15.9 14.5 14 25.8-3.4 11.8.1 25.8 10.7 41.9 10.5 16.2 18.3 26.4 23.2 30.5 4.9 4.2 6.3 9.7 4 16.6-2.2 6.9.9 12.3 9.2 16.2h37.5z"/></svg>