<svg xmlns="http://www.w3.org/2000/svg" viewBox="-10 0 736 1001"><path d="M157 1001q-42 0-68-21.5T63 920q0-25 16-40t48-29l3-44-43-116 25-130q2-11 9.5-29.5T146 506l41-18q-1-3-2.5-6.5T181 476q-5-1-15.5-8T145 447l-6 3-60 195 10 118-28 7-16-41-12 25 12 58-30 7-25-75 5-45 25-46 53-269 68-31q17-27 56-30 9 0 14 1l122-56 61-10-6-26-41 15-24-63-31-2 50-110 2-13q7-28 27.5-43.5T431 0q30 0 60.5 7.5t52 30.5Q565 61 567 109l8 172 32 8q26 6 37 26t17 34l65 154-38 140 22 57-8 44-36 71-28-12 19-55-8-26-20 37-28-10 29-127 10-119-57-90 4 81h-36l-26 114-2 106 20 2v187l49 35 85 15v48h-89l-105-29-5 29-129-23-94 14q-39 6-66 7.5t-32 1.5zm292-526h117l-18-364q-3-55-36.5-73.5T432 19q-25 0-44 10t-27 33l79 44q5-4 10.5-7t12.5-3q14 0 21 9.5t7 20.5q0 7-5 16.5T476 158l-19 25-12 217 5 14-5 44zm-35 73l-13-78-22-29-7-52 27-4 7 31 9-2-13-58 25-6 13-169 22-31q4-5 7.5-11.5T473 128q0-3-1.5-8.5T462 114q-11 0-21 12l-85-48-40 91 19 1 21 55 44-15 15 66-77 11-100 46q13 8 20 20.5t9 20.5l7 9 70-25 15 9-49 77 62 68-1 13zm-34-413q-11 0-19-3.5t-15-8.5q5-6 14.5-8t11.5-2q19 0 32 20-7 1-13 1.5t-11 .5zm280 661l26-54 5-39-22-59 36-145-62-140q-5-13-15-30.5T604 307l-28-8 5 73 79 132-14 122-27 111 7 4 24-44 8 1 13 41-19 54zM194 465l10-4-10-21q-9 0-17-6.5t-8-21.5q0-10 6.5-17.5T192 387q5 0 10.5 2.5t8.5 4.5l38-19q-2-8-11.5-22T197 341q-25 2-37.5 18T147 398q0 22 13 39.5t34 27.5zm270 520l3-11-79-33-9-148-5-9-86-37 4-14 96 39 71 166 88 18 2-8-74-35-40-154-117-55-6-20 2-73-3-28-12-39 14-2 10 27 121 33 12-10-25-133 5-45-15-50-6 2 9 48-4 9-13 3-9-5-5-23-8 1 7 35 24 32 15 97-12 6-113-61-48-15-5-31 28-8-11-36 12-7-23-25-54 28q-2-9-11-9-5 0-7.5 3.5T184 416q0 5 5 9t11 4h3l17 38-20 9q6 11 10 22l-58 24q-11 5-16 19t-6 22l-24 127q1 5 8.5 24.5t16.5 44q9 24.5 17 46.5l-6 46 25 46 8-5-19-45 2-7 12-6 9 2 14 28 9-4-14-33-25-22-27-118 28-107 18-1 33 86-10 38q-2 5-4 19t-2 23q0 19 18 30.5t49 20.5q31 9 68 20l32 149zM24 801l8-3-11-54 19-40 8 1 18 46 8-2-11-106 63-210 9-4q-2-8-4-15.5t-2-15.5q0-5 .5-10t1.5-10l-40 20-54 257-24 50-8 39zm266-360l38-58-41 14q4 5 8.5 10.5t6.5 8.5l-17 9zm-53-24q-3 0-5.5-.5t-3.5-.5q4-13 17-13 7 0 10 3-6 11-18 11zm111 97v-3l-55-60 3 11-28 8 2 10 43 15zm79 223l78-22 3-111 25-110h-80l20 103-27 22-84-22-13 103zm-94-45l11-100-17-4 2 22-2 72 4 9 .5.5 1.5.5zM199 818l37-16q-26-7-40-21t-14-46q0-9 2.5-20t5.5-22l8-26-24-58q-5 17-10.5 40t-9.5 38l26 111zm297 87l30-4V731h-8l-68 19 39 152zm-329 16l169-9-19-84q-4-2-19.5-7.5T265 810l-59 26 8 31-25 12-17-34-6 3 21 50-24 13-27-46-10 6zm236-13l24-1-30-81zm-248 73q17 0 46-2.5t52-6.5l92-13-7-31-178 10-52-59q-15 8-21 18t-6 22q0 26 12.5 39t30 18q17.5 5 31.5 5zm395-49v-3l-18-12-14-1zm-107 13l-9-22-30 2 1 4zm148 37h67v-17l-71-9-22-12-5 23-43-5v3z" fill="currentColor"/></svg>