<svg xmlns="http://www.w3.org/2000/svg" viewBox="-10 0 653 1001"><path d="M123 1001q-43 0-69-21.5T28 920q0-25 17-40t50-30l31-15 45-192-181-126 11-16 175 122 29-125 19 4-31 132 76 54q14-45 31-88.5t16-83.5l-62-72 111-171-11-41-41 15-24-63-31-2 50-110 2-13q7-28 27.5-43.5T397 0q46 0 73 12.5T511 46q10-15 24.5-28.5T569 4q22 0 31 11t9 24q0 23-26 38.5T529 94q16 13 37 25t35 14l-2 22q-14-2-32-11t-34-20l20 370h-36l-26 114-2 106 20 2v190l50 35 84 15v45h-89l-135-38-198 29q-39 6-66 7.5t-32 1.5zm284-526h125l-16-301q-2-30-4-57.5T500 67q-10-22-33.5-35T398 19q-25 0-44 10t-27 33l78 44q5-4 11-7t13-3q13 0 20.5 9.5T457 126q0 7-6 16.5T441 158l-18 25zM525 77q20-4 41-15t21-23q0-5-4-10t-14-5q-14 0-27 16t-20 27q1 2 1.5 4.5T525 77zM274 769l197-54 3-111 25-110H383l23-313 22-31q4-5 7.5-11.5T439 128q0-3-1.5-8.5T428 114q-11 0-21 12l-85-48-40 91 19 1 20 55 45-15 18 66-108 168 61 68q0 41-15.5 84t-31 87Q275 727 274 769zm72-634q-11 0-19-3.5t-15-8.5q5-6 14.5-8t11.5-2q19 0 32 20-7 1-13 1.5t-11 .5zM148 826l108-49q-3-34 8-70l-76-53zm-12 95l356-20V731h-9l-193 53-196 85zm421 61h67v-14l-72-9-58-41-368 20-50-60q-29 15-29 41t12.5 39q12.5 13 30 18t31.5 5q17 0 45.5-2.5T218 972l207-30z" fill="currentColor"/></svg>