<svg xmlns="http://www.w3.org/2000/svg" viewBox="-10 0 669 1001"><path d="M-10 1001v-43l82-11q15-2 26-20t12-31l1-232q0-24 14-49.5t43-42.5l-23-70-5 26-24-4 1-35-6 14-10 44-24-3 3-63 19-31 22-25q11-14 20-26t20-25q3-7 10-16.5t19-16.5l16-11 1-11q-9-4-25-19.5T166 262q0-23 15-40.5t44-17.5q21 0 32 13t13 26q1 3 8.5 13.5T293 276l-9 5 1 4 146-68 19-8-4-17-33 11-20-53h-26l41-91 1-11q14-48 76-48 25 0 51 5.5T580 30q18 19 20 59l16 296h-29l-14 76q4-2 8-2h9q31 0 38 18.5t7 40.5v40q0 17 8 30t16 19l-13 16q-10-8-20.5-25.5T615 558v-40q0-14-4-27t-21-13q-17 0-20.5 11.5T566 518v483H241V649q-16 6-21.5 20t-7.5 29q-5 29-10 71.5t-11.5 87Q184 901 174 938l-3 63zm520-632h85l-11-228q-2-38-5.5-65T555 34.5Q535 20 486 20q-43 0-53 27l59 37q10-8 19-8 10 0 17.5 9t7.5 18q0 5-3.5 13.5T525 129l-15 20zm-83 33l64-79V147l19-25q9-9 9-17 0-3-1-7.5t-8-4.5q-8 0-17 10l-69-39-33 74 16 1 16 45 36-12 12 50-43 15-138 64 1 6-17 9 1 6 28 20 111-49 17 6-40 63zm16-292q-9 0-15.5-2.5T415 100q4-5 12-6.5t10-1.5q16 0 26 16-6 1-11 1.5t-9 .5zM193 635l6-3-11-34 17-7 10 23 6-2-15-35-15-11-21-86 29-86h14l17 110 82-14q-14-6-14-30v-68h8l39 66v24l13-2-1-41-30-66-62-43-4-18 18-11-6-25 5-3-19-26-39 21q-2-7-8-7-7 0-7 7 0 6 5.5 8t9.5 2l16 34-18 8v17l-20 14q-16 11-20.5 21t-6.5 18q-6 21-13 47.5t-8 37.5q1 5 6.5 21.5t12 37Q175 554 181 572l-4 28zm47-362q1-4 4-7.5t10-3.5q5 0 7 1-3 5-6.5 7t-14.5 3zm132 197l45-55-49-53 30-45-79 36 19 13 33 70zm-140 82l169-34 118-133h-28v-35L376 493l-145 25-12 6-2 8 3 15zm200 73h65q36 0 42.5-17.5T546 560v-54.5l1-13.5 21-107h-25L413 529l-18 4 17 12zM93 537l10-45 20-24 5 3-3 41 8 1 4-33-1.5-4.5-.5-2.5 17-65q-4 6-8 12.5t-8 10.5l-26 28-18 27-5 49zm113 27l12-5-9-6-5-24 2-15 11-7-14-88-19 61 17 81zm126-80l1-22-21-36v34q0 8 4 15.5t16 8.5zm146 209l3-11-55-20-27-110-22-14-36 5 18 14 8 16 48 103zm-60 23l1-9-62-16-11-128-23-16-65 13 61 29 26 115zM5 983h149l3-44q10-44 16-92.5t10-92q4-43.5 10-71.5 4-22 19-40t50-18h49l-7-27-63-30-12 1q-4 2-9 3.5t-6 2.5l17 40-18 8-11-23-5 3 12 34-20 10-24-44v-5q-17 17-25 37t-8 37l-2 230q-1 25-18 41t-32 18l-75 9zm360-358h10l-14-29zm-65 356h61V737h185V631q-10 8-21 11t-22 3h-66l2 9 54 21-8 32-81-21-18-41h-20l3 38 62 15-5 30-94-14-17-69h-15zm-40 0h21V645h-21zm120 0h21V777h145v-21H380zm40 0h126V796H420z" fill="currentColor"/></svg>