<svg xmlns="http://www.w3.org/2000/svg" viewBox="0 0 372.3 594.9"><path d="M279.5 0c-1.7 0-3.5 0-5.3.1-28.6 1.1-44.3 15.4-47 42.9-.9 5.5-.9 10.3 0 14.4-4.6 9.2-6.6 15.6-6.2 19.2 0 1.4 2.3 2.1 6.9 2.1l-2.1 4.1c.9 1.4 2.1 2.1 3.4 2.1-.9 1.8-.9 3.7 0 5.5h2.7c-1.8 9.2 1.8 13.5 11 13h8.9c.5 3.7 1.6 6.9 3.4 9.6s5 6.2 9.6 10.3c-13.3 1.4-22.4 5-27.5 11-17.4 21.5-34.5 49.4-51.5 83.7l-23.3 6.2-13.7-22.7c-6.9-10.1-11.9-15.8-15.1-17.2-7.8-4.6-16-7.6-24.7-8.9-.9-2.3-.5-4.1 1.4-5.5 5.5 1.8 13.3 2.7 23.3 2.7 4.1.5 5.9-3.2 5.5-11 5.5-1.8 6-4.1 1.4-6.9 5.5-1.4 6-4.4 1.4-8.9l1.4-2.1c3.2-.5 4.8-2.3 4.8-5.5-2.3-2.7-6-8.2-11-16.5-1.4-7.3-4.6-14.3-9.6-20.9-5-6.6-12.4-10-22-10S85.8 93.5 75.1 99c-10.8 5.5-15 16.9-12.7 34.3C64.8 151 73 159.4 87.2 159c-.5 5-2.8 9.4-6.9 13-9.2.9-18.8 5.9-28.8 15.1-6.4 11.9-11.2 23.8-14.4 35.7-2.7-1.4-7.3-3.4-13.7-6.2-2.7-1.8-5.1-.1-7.2 5.1-2.1 5.3-1.7 9.5 1 12.7 5.5 1.4 10.5 3.2 15.1 5.5-5 22-7.1 50.8-6.2 86.5l-12.4 32.9.7-.7c12.4 5.5 20.6 2.1 24.7-10.3l2.1-34.3 4.8-52.9 6.2-15.1c4.1 1.4 11.2.9 21.3-1.4 3.2 11 3 21.5-.7 31.6-5.5 13.3-7.6 25.3-6.2 36 1.4 10.8 5.9 18.7 13.7 23.7-11.4 8.4-16.6 19.1-15.4 32.1 1.1 13 3.2 25.1 6.2 36 3 11 4.2 55.1 3.8 132.5-5.9 24.3-23.1 37.8-51.5 40.5-14.2 3.2-22 9.2-23.3 17.8h108.5c7.8-6.4 8-21.5.7-45.3 0-18.8 1.5-38.3 4.5-58.7 3-20.4 6.2-36.4 9.6-48 3.4-11.7 1.7-28.9-5.2-51.8H133v203.8h217.8V309.6c0-3.1 1-5.2 4.1-5.2 3.2 0 5.2 2 5.2 5.2v48.6h12.4v-53.8c0-8.3-5.5-12.4-16.5-12.4-11.8 0-17.6 4.1-17.6 12.4v5.2H336c-1-40.5 2.5-78.3 10.6-113.5h10.3l-.7-76.9c-2.3-42.6-9.4-73.3-21.3-92.3C323.8 9.1 305.3.1 279.5 0zm.8 9.3c21.5.2 37 8 46.4 23.4 10.1 16.5 16 45.5 17.8 87.2v65.2H282V77.3c1.8-3.2 4.2-7.8 7.2-13.7 3-5.9 4.2-12.3 3.8-19.2s-4.3-9.4-11.7-7.6c-5.5 0-8.7 3.2-9.6 9.6-.9-5-4.1-8.7-9.6-11-5.5-2.3-13.5-2.5-24-.7 1.4-16 14-24.5 37.8-25.4h4.4zm-32.8 30.5c2.7 0 6.4.6 10.9 1.8 6.6 1.8 10 6.2 10 13h6.9c.9-6.4 2.7-9.6 5.5-9.6 3.2 0 3.9 3 2.1 8.9l-11.7 22.6V117h-.7c-5.5-2.7-9.4-9.4-11.7-19.9l-13.8.8c-5 0-7.5-1.6-7.5-4.8 0-4.6 2.1-7.3 6.2-8.2 0-2.3-.7-3.7-2.1-4.1l-9.6.7c1.8-3.7.2-6.2-4.8-7.5 0-2.3 2.1-7.8 6.2-16.5-.5-6.4 0-11 1.4-13.7 3.7-1.4 6.9-2.5 9.6-3.4.8-.4 1.9-.6 3.1-.6zm.2 5c-5.1.1-9.2 1.5-12.3 4.4l.7 4.1c5.5-5.5 14-6.2 25.4-2.1h3.4v-3.4l-3.4-.7c-5.2-1.6-9.8-2.4-13.8-2.3zm-.6 5.7c-6.4.5-10.3 3.2-11.7 8.2l.7 1.4h2.7c1.8.9 4.1 1.4 6.9 1.4 2.3 0 7.5-1.8 15.8-5.5h4.1v-2h-4.1c-7.3-2.3-12.1-3.5-14.4-3.5zm1.4 3.5c2.7 0 5.3.4 7.5 1.4-1.4.9-4.1 2.1-8.2 3.4.9-.9 1.4-1.8 1.4-2.7 0-1-.3-1.7-.7-2.1zm-5.5.7v2.1c0 .5.7 1.2 2.1 2.1-1.8.5-4.1.2-6.9-.7 1.8-2.4 3.4-3.5 4.8-3.5zm-139.7 46c1.7 0 3.4.1 5.1.3 9.2 1.1 15.3 5.4 18.5 12.7-4.6.9-10.8 3.7-18.5 8.2-5.9-6.4-12.1-7.7-18.5-3.8-6.4 3.9-7.2 9.8-2.4 17.8 4.8 8 4 12.6-2.4 13.7-6.4 1.1-10.8-4.3-13-16.5-2.3-12.1.9-20.8 9.6-26.1 7-4.1 14.3-6.3 21.6-6.3zm25.5 19.8h.9l11.7 19.2c-5.9.9-7.7 2.7-5.2 5.5 2.5 2.7 1.9 5-1.7 6.9 2.3 2.7 2.1 4.8-.7 6.2.5 4.1-.5 6.4-2.7 6.9-7.3 0-13-1.1-17.2-3.4l-11 .7c-4.1 10.1-3 17.6 3.4 22.7-6.4 8.2-12.6 6.2-18.5-6.2 7.3-18.3 9.8-32 7.6-41.2-5.9-8.7-7-14.1-3.1-16.1 3.9-2.1 9 .8 15.4 8.6 9.5-6.6 16.5-9.8 21.1-9.8zm-2 8.5c-3.2 0-7 1.5-11.5 4.6 5.5 5 10.5 6.2 15.1 3.4 2.7-2.7 2.5-5.3-.7-7.6-.9-.3-1.9-.4-2.9-.4zm145.7 5.3v62.5l-17.2 26.1c-7.3-4.6-11-10.3-11-17.2 5.9-16 6.2-30.2.7-42.6l-.7-20.6c7.8-5 17.2-7.8 28.2-8.2zM81 183.7c3.2 11 8.5 16.4 15.8 16.1 7.3-.2 12.4-3.8 15.1-10.6 6.4 1.4 11.9 4.6 16.5 9.6-4.6 25.2-8.5 40.7-11.7 46.7-3.2 5.9-4.6 11.7-4.1 17.2-3.7-.5-8.7 0-15.1 1.4s-10.8 2.1-13 2.1c.5-.5.3-5.3-.3-14.4-.7-9.2-4.9-30-12.7-62.5l9.5-5.6zm156.5 2.1l-4.8 19.9c0 9.2 5.5 18.1 16.5 26.8l-9.6 14.4c-11.4 4.1-32.9 10.8-64.5 19.9-.5-6.9-1.4-13-2.7-18.5l26.8-3.4c20-27.6 32.8-47.2 38.3-59.1zm72.1 10.9h24c-10.7 44-14.5 89.4-13.7 134.5 0 29.7-13.5 44.6-40.5 44.6h-81c-1.4-3.2-3.2-8.9-5.5-17.2 0-17.4-5.3-29.7-15.8-37.1 26.1-7.3 54.5-12.8 85.1-16.5 1.4-17.4 1.8-32.7 1.4-46 25.1-26.8 40.5-47.6 46-62.3zM63.8 209.8l2.7 7.6-4.8.7c1-2.8 1.7-5.6 2.1-8.3zm69.4 3.4l7.5 12.4-11 .7 3.5-13.1zM59 224.9c3.2.9 4.8 1.8 4.8 2.7 0 .9-2.1 1.4-6.2 1.4l1.4-4.1zm67.3 23.3l24.7.7c2.7 5 4.8 13 6.2 24l-11.7 2.7c-5.5-3.2-13.5-7.1-24-11.7 0-4.9 1.6-10.2 4.8-15.7zm124.2 19.9l-.7 22c-30.7 6.4-57.7 13-81 19.9l4.8-24c40.8-6.9 66.4-12.8 76.9-17.9zm-146.9 11.2c3.2 0 6.6.4 10.4 1.2l.7 3.4-6.2-1.4c-3.2-1.4-6.1-1.7-8.6-1s-3.3 2.2-2.4 4.5c0 1.4 2.5 1.8 7.5 1.4 3.7 1.4 7.6 2.8 11.7 4.1 21 10.5 37.3 20.6 48.7 30.2-7.8 2.7-15.8 4.7-24 5.8s-14.4 5.4-18.5 12.7c-16.9-3.2-29.5-7.8-37.8-13.7-7.8-6.9-9.4-21.5-4.8-43.9 7.3-.9 13.3-1.8 17.8-2.7 1.8-.4 3.6-.6 5.5-.6zm52.9 9.4l-1.4 15.8c-2.3-1.8-7.8-6-16.5-12.4l17.9-3.4zm16.5 38.5c6.9 6.4 10.5 12.4 11 17.8.4 19.3 8.3 37.7 16.5 54.9 11.4 23.8 21.6 37.7 30.5 41.9 8.9 4.1 15.4 6.9 19.6 8.2h-35c-7.3-4.1-10-9-7.9-14.8 2.1-5.7.8-10.5-3.8-14.4-14.6-15.3-35.2-42.9-30.2-65.5 1.4-10.1-3.2-18.1-13.7-24l13-4.1zm164 4.8l.2 142h-65.1v104.4H146.9V459.3c1.1.8 2.4 1.3 4.1 1.3h68.6c28.4 0 42.3-.5 41.9-1.4.9-5.9-.3-13.6-3.8-14.3-3.4-.7-10.2-3.4-20.2-8.2-10.1-4.8-20.8-20-32.3-45.6h74.1c9.2.1 17.3-.9 24.3-3.2 13.6-2.9 22.6-10.4 26.8-22.6 4.5-8.9 6.6-20 6.6-33.3zm-183.9 2c5.9 4.1 8 9.8 6.2 17.2-6.4 24.7-4.3 51.5-4.1 76.2 0 5.1 14.6 12.8 41.2 23.3l-39.8-2.1c-3.1-3.8-6.3-12.9-9.5-27.1l-5.9-43.7c0-12.1 1.7-23.2 5.1-33.5l-13.7-2.1c2.2-5.4 9-8.2 20.5-8.2zm-50.8 11.7c6.4 1.8 17.2 4.1 32.3 6.9-2.7 9.2-3.4 16.9-2.1 23.3h-22.7l-7.5-30.2zm63.1 13.7c-.9 7.3-.5 12.8 1.4 16.5h-4.1c0-5.5.9-11 2.7-16.5zm-4.1 31.6h12.4c2.3 7.8 11.9 20.1 28.8 37.1-4.1 9.2-3.9 15.1.7 17.8-23.8-8.7-37.7-16.5-41.9-23.3-.5-16.5-.5-27 0-31.6zm123.2 95.4h52.7v92h-52.7v-92z"/></svg>