<svg xmlns="http://www.w3.org/2000/svg" viewBox="0 0 439.3 594.5"><path d="M426.3 303.4v-81.5c0-54.8-5.3-94.3-15.8-118.7-10.6-24.4-32.7-36.6-66.3-36.6-33.6 0-51.8 9.5-54.3 28.5 14.2 0 25.1 1.1 32.7 3.2 7.5 2.2 11.3 7.5 11.3 16.2 1.3-8.2 5.6-12.3 12.9-12.3 9.9 0 14.9 4 14.9 12s-2.4 15.8-7.1 23.6c-4.7 7.8-8.6 13.6-11.6 17.5v148.1h83.3zm-98.3-88h1.9V154l19.4-28.5c1.3-8.2 0-12.3-3.9-12.3s-5.8 4.1-5.8 12.3h-10.4c0-9.1-4.3-15-12.9-17.8-8.6-2.8-18.1-3.1-28.5-1-3.5 5.6-5 12.5-4.5 20.7-6.5 10.8-9.7 17.7-9.7 20.7 6.9 2.2 9.3 5.8 7.1 11h11.6c1.7 0 2.6 1.5 2.6 4.5-5.6.9-8.6 4.5-9.1 11 0 3.9 3.2 5.8 9.7 5.8h18.1c2.8 13.9 7.5 25.5 14.4 35zm-3.2-99.6v4.5h-4.5c-14.7-5.6-25.9-5.2-33.6 1.3l-.6-5.2c7.3-6.5 18.8-6.7 34.3-.6h4.4zm.6 7.8v3.9l-5.8-.6c-10.8 4.3-17.9 6.5-21.3 6.5-3 0-5.6-.6-7.8-1.9H286v-2.6c2.2-6.5 7.3-9.7 15.5-9.7 3 0 9.1 1.7 18.1 5.2l5.8-.8zm-12.3 1.9c-3.5-1.3-6.9-2.2-10.4-2.6.9 1.3 1.3 2.4 1.3 3.2 0 .9-.6 1.9-1.9 3.2 5.2-1.2 8.9-2.5 11-3.8zm-16.8-1.9c-2.2.4-4.5 1.9-7.1 4.5 3.5 1.3 6.3 1.7 8.4 1.3-1.7-.9-2.6-1.9-2.6-3.2 0-1.3.4-2.2 1.3-2.6zm-33 336.4l-80.9-117.7c-3.5-6-11.4-9.1-23.9-9.1-12.5 0-17.5 3.9-14.9 11.6L191.5 491c11.6 26.7 16.7 45.7 15.2 56.9-1.5 11.2-4.6 19.2-9.4 23.9h191.5c-16.4-16.8-21.1-38.2-14.2-64 6.9-25.9 12.6-57.6 17.1-95.1 4.5-37.5 7-69.7 7.4-96.4h-69.2v-73.8c-30.6 33.2-38.4 57.8-23.3 73.8 3.9 50.9-1.9 94.2-17.5 130-3.8 18.2-12.4 22.7-25.8 13.7zM126.8 298.9c0 14.2 6.3 21.3 18.8 21.3h26.5c-6-14.2-13.2-21.3-21.3-21.3h-24zM399.2 0c-6 18.1-11 40.3-14.9 66.6h-72.5c-3.9-26.3-8.6-48.5-14.2-66.6h101.6zm-23.3 59.5c3.5-21.6 6.7-38 9.7-49.2h-74.4c2.6 11.2 5.6 27.6 9.1 49.2h55.6zM27.2 501.4c6-.4 9.9-5 11.6-13.6 1.7-24.2-1.1-55.9-8.4-95.1h-7.1c-7.3 39.2-10.1 70.9-8.4 95.1 1.7 8.6 5.8 13.1 12.3 13.6zm8.4-226.5c0 51.3 4.3 80 12.9 86 2.2 1.3 3.2 3.7 3.2 7.1 0 3.5-2 7.5-6.1 12.3-4.1 4.7-4.4 13.4-1 25.9 3.5 12.5 6.1 27.9 8.1 46.3 1.9 18.3 1.3 33.4-1.9 45.3-3.2 11.9-11.1 17.8-23.6 17.8-12.9 0-21-5.9-24.3-17.8-3.2-11.9-3.8-27-1.6-45.3s4.9-33.7 8.1-46.3c3.2-12.5 2.8-21.1-1.3-25.9C4 375.6 2 371.5 2 368s1.1-5.8 3.2-7.1c9.1-6 13.6-34.1 13.6-84.1s17.3-75 51.8-75c39.7 0 64.7 28 75 84.1v-.6c20.3 0 34.5 11.6 42.7 34.9l82.2 119.7c16.4-36.7 23.1-76.8 20.1-120.3-10.8-13.4-12.3-27.1-4.5-41.1 7.8-14 15.5-26.1 23.3-36.2 7.8-10.1 11.9-15.4 12.3-15.8-8.2-13.8-13.8-26.5-16.8-38.2h-11.6c-12.1 0-16.8-6-14.2-18.1h-3.9c-.4-2.6 0-5 1.3-7.1-2.2-.4-3.7-1.5-4.5-3.2l2.6-4.5c-5.6-.4-8.4-1.7-8.4-3.9 0-4.3 3-12.3 9.1-23.9 0-12.9 1.1-23.5 3.2-31.7 4.3-27.2 25.9-40.8 64.7-40.8 37.5 0 63 12.6 76.3 37.8 13.4 25.2 20.1 68.5 20.1 129.7v93.8h-23.9c-6 96.2-13 156.8-21 181.8s-.8 51.1 21.7 78.3c8.6 7.8 8.6 13.8 0 18.1H159.1c-5.6-6-2.7-12.5 8.7-19.4 11.4-6.9 17.6-15.1 18.4-24.6 1.7-9.1-19-77.2-62.1-204.4v-12.9c-7.8-5.6-11.4-15.5-11-29.8-14.7-12.1-8.6-17.9 18.1-17.5-11.2-46.1-31.3-69.2-60.2-69.2-24-.1-35.8 19.3-35.4 58.1z"/></svg>