<svg xmlns="http://www.w3.org/2000/svg" viewBox="-10 0 804 1001"><path d="M168 1001v-43l104-44-49-188q-4-13-7.5-33.5T212 654q0-17 10-34l-17-58 8-15h22v-70q0-70-22.5-98T146 351q-35 0-62.5 29.5T56 476v78q19 7 27.5 31t8.5 43H80q2 13 5 35t3 38q0 44-14.5 76T41 809q-18 0-32.5-32T-6 701q0-16 3-38t5-35h-12q0-20 9-44t29-31v-79q0-49 17-83t44-51q27-17 57-17 62 0 89.5 40.5T263 476v71h19l60 89 100 123 25-277q3-32 19-56t37.5-41q21.5-17 40.5-29l-6-53-22 8-55 75-35-30 64-58-17-44-31-1 50-112q-10-5-22.5-11.5T477 113q0-8 3.5-12.5T484 93q0-5-6-5h-10q-1 0-4-.5t-3-3.5q0-2 8-8t23-6q11 0 16.5 6.5T514 89q0 10-5 12t-5 10q0 8 11 14 6-19 25-32t45-19q-4-13-15-25t-25-17V0h161v32q-14 5-25 17.5T666 76q36 8 63 36.5t27 90.5q0 32-7 54t-16.5 41q-9.5 19-14.5 43 6 12 14 24.5t16 21.5q13 18 28 32t15 31q0 17-9 24t-22 7q-15 0-26-11t-19-25v479l79 34v43zM602 72q5-1 12-1h23.5l11.5 1q4-14 14.5-28T686 24v-7H566v7q12 6 22 20t14 28zM188 981h586v-12l-78-34V379q0-40 10.5-67.5t20.5-52q10-24.5 10-56.5 0-36-12-58.5T695 110q-18-12-37-16.5T626 89q-38 0-61.5 10T531 133l78 44q12-10 24-10 13 0 20.5 9.5T661 197q0 7-5 18.5T641 234q-5 10-11 25t-6 26q0 14 3.5 27t7.5 21v21q-25 0-50 13t-46.5 33.5Q517 421 503 442.5T487 482l-30 306-13 5-117-146q-10-13-24-24t-30-11q-19 0-30 12t-11 31q0 15 4.5 37.5T245 729l49 192-106 48zm393-633q8-4 17-7.5t18-5.5q-3-5-6.5-18t-3.5-31q0-13 6.5-29.5T625 230q10-8 14-17.5t4-13.5q0-3-1.5-8.5T632 185q-11 0-21 12l-85-48-40 91 19 1 20 55 47-15zm-31-142q-11 0-19-3.5t-15-9.5q5-5 14.5-7t11.5-2q20 0 32 20-7 1-13 1.5t-11 .5zm211 255q12 0 10-11 0-6-10.5-17.5T737 404q-8-10-13-17.5t-9-18.5v6q1 33 16.5 60t29.5 27zM236 604q7-5 15.5-8.5T270 592q12 0 21 3l-19-29h-40l-3 6 8 31zM41 790q10 0 20-27t10-62q0-21-6-47.5T53 610v-14H29v14q-6 17-12 43.5T11 701q0 35 10 62t20 27z" fill="currentColor"/></svg>