<svg xmlns="http://www.w3.org/2000/svg" viewBox="-10 0 697 1001"><path d="M166 1001q-42 0-68-21.5T72 920q0-25 17-40t49-30l6-3q-14-10-39.5-33.5t-52-58.5Q26 720 8 674t-18-103q0-65 17-113t42.5-81q25.5-33 51-53t42.5-30q-9-25 1-41.5t16-22.5l50-45q-8-14-23-6l-8-16q12-8 24.5-6.5t28 21Q247 197 269 243t26.5 70.5q4.5 24.5-2 35T274 363l-7-15q7-4 10.5-9.5T276 326l-66 9q-8 2-26.5-1T151 311q-16 9-39.5 28t-47 49.5Q41 419 25 464T9 571q0 60 21.5 107.5t50.5 82q29 34.5 53.5 54T165 838l134-61q-2-34 7-67t22-64.5q13-31.5 22.5-63.5t8.5-66l-62-72 111-171-11-41-40 15-24-63-32-2 50-110 2-13q8-28 28.5-43.5T441 0q76 0 104 30t32 94l19 370h-36l-26 114-2 106 20 2v190l50 35 85 15v45h-89l-136-38-197 29q-40 6-67 7.5t-32 1.5zm284-526h126l-17-301q-2-30-4-57.5T543.5 67Q534 45 510 32t-69-13q-24 0-43.5 10T371 62l78 44q5-4 10.5-7t13.5-3q13 0 20 9.5t7 20.5q0 7-5.5 16.5T485 158l-19 25zM317 769l198-54 2-111 25-110H426l23-313 23-31q3-5 7-11.5t4-10.5q0-3-2-8.5t-10-5.5q-11 0-20 12l-86-48-40 91 19 1 21 55 45-15 17 66-108 168 62 68q0 41-16 84t-32 87q-16 44-16 86zm73-634q-11 0-19.5-3.5T355 123q5-6 14.5-8t11.5-2q12 0 18.5 5t13.5 15q-7 1-12.5 1.5t-10.5.5zM208 316l65-12q-3-9-9-24t-12-29q-6-11-14.5-25.5T223 202l-50 42q-4 5-11 18t1 31q9 17 23 20.5t22 2.5zm-29 605l356-20V731h-8l-193 53-197 85zm421 61h68v-14l-73-9-58-41-368 20-50-60q-29 15-29 41t12.5 39q12.5 13 30 18t32.5 5q16 0 45-2.5t52-6.5l206-30z" fill="currentColor"/></svg>