<svg xmlns="http://www.w3.org/2000/svg" viewBox="-10 0 750 1001"><path d="M317 1001v-43l66-11q15-3 20.5-14.5T412 907l-4-54 3-153 31-207v-47l-51-65 29-54-144 66-168-69-13 3-18 14h-3v46H55v-46h-1l-32-16-10-35 4-9 7-2-5-15 37-13v-15H0v-19h55v-8q-19-3-37-12.5T-10 179q5-4 14-9t20-10q-21-7-34-19 4-2 9-5.5t12-6.5q-3-4-5.5-9.5T1 106h21q2 9 7 16 4-1 7.5-2t7.5-2v-4q0-24 21-24 22 0 22 24v5q12 4 25.5 11t21.5 11l-9 17q-7-4-17.5-9.5T87 139v14q15 4 29.5 12t22.5 14q-2 2-7 5l-10 6q7 6 15 20l-21 4q-5-8-12-14-13 6-30 9v8h58v19H74v10l200 65 90-53q11-7 34-18.5t47-15.5v-24l-47-3-8-51q-5-1-11.5-1.5T366 143l32-69q0-4-.5-9.5T397 54q-1-20 26.5-37T497 0q46 0 78.5 22T608 92v130q7 5 16 12.5t13 15.5l52 98 16 164 22 16 13 28-3 58h-25l-4-41-11-11-3 32h-20l-14-56-22-140-30-57v7h-21l-18 121q22 32 30.5 54.5T608 579q0 12-3 37.5t-7.5 56Q593 703 589 728l5 125 6 62q3 21 5 47.5t1 38.5H467v-43l48-13q12-2 16.5-15t4.5-22q0-7-1-11l-11-44h-41l-26 148zm187-672h84V90q0-32-26-51.5T499 19q-34 0-58 11t-24 25q0 10 2 14h64q2-2 5-3.5t11-1.5q12 0 19 9.5t7 20.5q0 17-11 32zm-77 506h147l-5-109q4-26 9-56.5t8-55.5q3-25 3-34 0-26-8-50.5T552 479l-3-17 18-114h-82l10-224q3-5 7-14t4-13q0-5-2-10.5T493 81q-7 0-8.5 2t-3.5 3h-72l-19 45q3 0 6.5 1t6.5 1l7 51 52 3v51q-31 5-52 16.5T373 275l-96 56-209-72-33 11 2 5 30-6 23 13 7 25h10l168 64 164-75 11 15-36 68 46 57v64l-29 202zm7-723q-7 0-14.5-2t-7.5-7q0-5 6.5-8t13.5-3q8 0 14.5 3.5T458 104q-5 3-11 5.5t-13 2.5zm-375 3h12v-1q0-9-6-9t-6 9zm12 36v-16q-2 0-3.5-.5T65 134h-6v16h6q3 0 6 1zm-27-3v-11q-11 3-18 6 4 2 8.5 3t9.5 2zm15 41h12v-19H59zm-15-2v-14q-6 2-11.5 3.5T25 179q4 2 8.5 4t10.5 4zm43-1q11-3 17-7-4-2-8.5-3.5T87 173zm634 414h5l2-40-13-23-23-18-18-162-55-101q-2-3-5-6l-6-6v62l45 87 21 140 9 48h4l3-36 6-2 21 20zM62 328h10l15-10-7-27-15-8-38 9 6 21zm424 655h100q1-10 0-32.5t-3-40.5l-9-57h-31l11 43q1 4 1 7v7q0 17-9 32t-26 18l-34 10zm-153 0h112l20-130h-37v60q-5 24-15.5 34.5T388 961l-55 9z" fill="currentColor"/></svg>