<svg xmlns="http://www.w3.org/2000/svg" viewBox="-10 0 626 1001"><path d="M-10 1001v-43l103-44-48-160q-4-13-7.5-33T34 683q0-26 17-44t41-18q28 0 41 10.5t27 28.5l104 128 25-241q4-34 19.5-56t37-38q21.5-16 40.5-32l-7-53-21 8q-5 23-16 35.5T322 430q-12 7-30.5 14t-35.5 9v-39q9 0 22.5-1.5T301 407q10-4 19-14t12-30l-17-44-31-1 39-88q5-35 26-58t53-31q-8-5-15-14-8 3-16 3-22 0-37.5-12T310 90q-8-16-8-29 0-10 7.5-18.5T329 31q-7 1-15-3t-8-10q0-5 8-10.5T336 2q17 0 23.5 9.5T366 29q0 13-4 23.5T358 77q0 12 4.5 18.5T373 98q-2-7-2.5-11.5T370 77q0-31 22-54t56-23q31 0 54 22.5T525 77q0 8-1 11l42 47-7 13q-9-7-22.5-17T515 116q-10 16-25 26 35 9 56.5 34t24.5 69l20 325h-54v354l79 34v43zm380-884q7 0 9-2l-2-3q-1 0-3 .5t-3 .5q-10 0-19-9.5T343 77q0-18 3.5-27t3.5-21q0-5-3.5-10.5T336 13q-8 0-11 2t-3 3q0 3 10 5.5t13 3.5v10q-9 3-17 8.5T320 61q0 17 10.5 36.5T370 117zm78 18q24 0 41-17t17-41q0-24-17-41t-41-17q-24 0-41 17t-17 41q0 24 17 41t41 17zm-3 416h125l-18-306q-3-48-35-69t-69-21q-40 0-69.5 18.5T338 236h94q6-6 20-6 16 0 23.5 10.5T483 262q0 7-5 18.5T463 299zM9 981h587v-12l-79-34V570h-96l25-276q11-7 15-16.5t4-13.5q0-5-3-11t-14-6q-11 0-15 8H329l-21 50 19 1 20 55 47-15 11 87q-33 22-62.5 48T309 547l-28 270h-15L149 676q-10-13-24-24t-31-11q-18 0-29 12t-11 31q0 15 4 37.5t8 35.5l50 164L9 969zm366-694q-11 0-19.5-3.5T340 274q5-5 14.5-7t12.5-2q19 0 32 20-8 1-13.5 1.5t-10.5.5z" fill="currentColor"/></svg>