<svg xmlns="http://www.w3.org/2000/svg" viewBox="0 0 351.6 594.4"><path d="M212.1 253.4c2.5-26.7 9.3-45.6 20.4-56.9 11.1-11.3 14.5-19.9 10.2-25.6-4.3-5.8-10.2-4.9-17.7 2.6-13.6-11.6-29.9-18.1-49-19.6-2 8.5-5 15.1-9.1 19.6-4 4.5-8 10.8-12.1 18.9l11.3 6c.5 16.6 6.7 24.5 18.5 23.8s18.9 1.8 21.1 7.5 4.4 13.7 6.4 23.7zm46.8 322.1l-16.6-9.8c15.1-44.3 23.4-104.6 24.9-181s-.8-115.3-6.8-116.5c-6-1.3-10.1 15.7-12.1 50.9h-37v-46c-18.6 49.3-29.7 125.2-33.2 227.8h-21.9L68.1 381.7C55 361.1 43.5 354.2 33.4 361s-6 25.3 12.1 55.4c18.1 30.2 34.4 77.2 49 141.1l-43 18.1h207.4zm25.6-232.3h11.3c1.5-60.8 1.6-104 .4-129.4-1.3-25.4-7.2-45-17.7-58.8-10.6-13.8-27.4-23.1-50.5-27.9-23.1-4.8-37.7-.1-43.7 14 17.1 2.5 31.2 7.8 42.2 15.8 9.6-4 17.7-3 24.5 3 6.8 6 8.4 14 4.9 23.8s-9.7 19.2-18.5 28.3c-8.8 9.1-13.2 40-13.2 92.8h10.6c2.5-38.2 10.7-57.1 24.5-56.6s21.7 10.8 23.8 30.9l1.4 64.1zM175.2 170.5c3.5-10.6 14.6-9.8 33.2 2.3-20.2 8.5-31.2 7.7-33.2-2.3zm15.1-106.4c0 10.6 4.3 20.7 12.8 30.5s19.4 14.7 32.4 14.7c14.6 0 26-4.8 34.3-14.3 8.3-9.6 12.4-19.9 12.4-30.9 0-12.6-4.9-23.3-14.7-32.1-9.8-8.8-20.2-13.2-31.3-13.2-13.6 0-24.6 4.7-33.2 14-8.5 9.3-12.7 19.7-12.7 31.3zm110.1 17.4c2.5 11.6 7.8 20.9 15.8 27.9 9.1 8.5 18.1 16.3 27.2 23.4 7 10.1 9.6 17.1 7.5 21.1-34.7-21.1-55.3-38-61.9-50.5-4.5 7.5-12.3 13.8-23.4 18.9 16.1 7 27.4 17.2 33.9 30.5s10.8 28.8 12.8 46.4V359h-27.2c2.5 67.4-3.3 133-17.3 196.9l35.5 38.5H22.8l-3-25.6 49-20.4c-12.6-49.8-27.5-90.8-44.9-122.9S-1.4 372.6.1 363.3s9.3-17.9 23.4-25.6c14.1-7.8 29.4-4.9 46 8.7L160 467.8c4-99.1 17.1-169 39.2-209.7 0-17.6-5.8-25.6-17.3-24.1L154 287.6c-13.1 23.1-28.4 27.4-46 12.8 1.5-6.5 4.9-9.1 10.2-7.5 5.3 1.5 10.7-.5 16.2-6l23.4-59.6c.5-15.1-2.8-23.8-9.8-26-7-2.3-6.2-9.7 2.6-22.3 8.8-12.6 12.9-20.6 12.4-24.1 5-17.6 10.3-27.7 15.8-30.2-10.1 4.5-18.4 1.5-24.9-9.1-4-8.5-7.8-17.1-11.3-25.6-3.5-9.6-4.5-18.4-3-26.4-4 .5-7-.5-9.1-3-1-3 .3-5.5 3.8-7.5 3.5-2.5 9.3-3 17.3-1.5 10.6 4 15.1 13.6 13.6 28.7-.5 10.1-.5 17.1 0 21.1s2.6 6.4 6.4 7.2c3.8.8 6.7-2.9 8.7-10.9-6.5-8-9.8-19.1-9.8-33.2 0-16.1 6-30.7 18.1-43.7C200.8 7.3 216.7.5 236.3 0c17.6.5 32.9 6.8 46 18.9s19.6 27.2 19.6 45.3c1 5.4.5 11.2-1.5 17.3z"/></svg>