<svg xmlns="http://www.w3.org/2000/svg" viewBox="0 0 306.8 594.5"><path d="M290.5 28.1zm-7-20.5c8.4 0 15.5 4.9 14.3 19.9-5.1 9-18 12.1-27.5 12.1l-12.1 53.2-16.2 2.3C257.5 43.3 265 22 280 22H283.3c3.7 0 6.1.4 7.3 6l2.6-.5c-.7-8.4-4.7-12.8-12.1-13.1-8 0-16.1 6.1-24.1 18.4-10.5 18.2-20.6 48.9-30.4 92.3h-4.2l10.5-45.6c14.3-47.9 30.9-71.8 49.8-71.8.2-.1.5-.1.8-.1zM293.6 134l1.6 4.7c-6.3 7.3-10.4 8.5-14.2 8.5h-5.4l4.9-11.4 6.8 2.6 6.3-4.4zm-17.8 18.9l10 1v2.1c-3.5.7-8 1.9-13.6 3.7.3-4.6 1.5-6.8 3.6-6.8zm-8.4 0l-1.6 11H163.6c0-3.1.9-6.8 2.6-11h101.2zm-83.9 28.8l22.5 1.6c-12.5 6.1-24.4 9.1-35.8 9.1-1.7 0-3.4-.1-5.1-.2 1.4-4.5 2.4-8 5.9-9.4-2.4 4.5.8 7.7 6.7 8.4 5.3-1.1 7.2-4.2 5.8-9.5zm-6.8-3.7c-8 1-14.9 4.2-16.3 16.8 3.6 1.7 7.6 2.5 11.9 2.5 11.7 0 25.4-5.8 39.5-14v-2.1l-35.1-3.2zm-16.8 25.7c-3.1.3-5.4 1.6-6.8 3.7 2-.4 3.7-.6 5.1-.6 1 0 1.9.1 2.6.3 1.6.5.6 1.1-2.9 1.8 2.1.8 3.8 1.2 5.1 1.2 1.6 0 2.7-.6 3.3-1.7 1-2-1.1-3.6-6.4-4.7zm-.3 14.3c1.6 0 3.4.3 5.6.9l-8.9 2.6-1-2.1c.9-.9 2.3-1.4 4.3-1.4zm118.8-54.6c11.2 18.5 16.6 35.5 20.5 58.3-1.9-.7-9.5-1.6-16.3-4.1-.7-10.9-.6-29.9-13.1-51.5 2.8-3.3 4.8-2.2 8.9-2.7zM164.1 220c-1.4 3.1-3.8 4.7-7.3 4.7l-.5-2.1 7.8-2.6zm118.5 3.1l16.3 6.1.5 4.9c-11.2 0-16.8-2.3-16.8-6.8v-4.2zM215 167.6v37.8c-7 1.4-10.5 22.5-10.5 63.5l-7.3-7.3 1.6-2.6c-3.2-13.8-8.8-20.7-16.7-20.7-1.5 0-3.1.3-4.8.8-2.9.9-5.3 1.3-7.4 1.3-5.5 0-8.3-3.1-8.3-9.2.3-3.5 4.2-7.7 11.5-12.6-1.4-1.7-7.3-3-17.8-3.7.7-3.5-.8-5.6-4.5-6.3-3.7-.7-5.4-4.5-1.2-11.3 4.2-6.8 9.1-11.2 10.6-13.1.6-.8 1.2-2.2 1.6-4.2 5.1-2.7 12.5-5.2 19.8-5.2 1.2 0 2.3.1 3.5.2 8.4 1 17 2.3 25.7 3.7l-1-2.1c-10.2-2.4-17.7-7.5-28.7-7.5-3.4 0-7.1.5-11.3 1.7-4.9 0-5.9 3.3-7.7 8.4.5-2.8.9-6.6 1.1-11.4H215zm29.4 77.6c9.1 0 12.9 3 17.5 8.9-10.3 10.6-18.9 15.9-30.5 15.9-1.1 0-2.1 0-3.2-.1v-11c2.3-9.2 7.8-13.7 16.2-13.7zM193 264.5l11.5 11v8c-6.6-1.7-12.2-6.1-16.8-13.1l5.3-5.9zm71.9-6.3l1.1 6.3c-11.8 12.7-21.6 19.1-34.1 19.1-1.2 0-2.5-.1-3.8-.2v-8c1.1.1 2.1.1 3.2.1 14.1.1 24.5-6.5 33.6-17.3zm-79.8 16.7c3.8 5.9 10.6 11.6 19.4 15.1v21.7c-14.7-5.6-23.4-14.2-26.2-25.7.3-4.8 2.3-7.2 6.8-11.1zm80.9-3.7l-.5 24.3c-8.7 11.1-17.7 16.7-30.7 16.7-2.1 0-4.3-.1-6.7-.4v-21.7c19.2-1.3 29.7-8.4 37.9-18.9zm-1.5 36l-2 187.8c-3.2 30.7-12 46.4-22.2 66.3l17.2 12.4H62.4c16.7-6.2 14.8-13.7 20.8-29.4l-55.5-146c-2.3-12.2 5.3-23.2 17.6-23.2 5.1 0 11.1 1.9 17.4 6.4l106.2 143.7 6.9-43s.2-158-2.1-183c4.9 6.6 18.9 19 30.8 24.3V348c0 1 8 1.6 24.1 1.6l-.5-26.1c1.4.1 2.7.1 4 .1 15.3-.1 24-5.8 32.4-16.4zM284.2 0c-32.2 0-53.4 40.7-70.5 123.6-17.1 0-27.1 4.7-37.7 12-10.7 7.3-18.5 17.1-19.5 29.4l-1 15.2c-9.4 14.3-14.4 23.2-14.9 26.5-.5 3.3 2.5 5.9 9.2 7.6-1 7.3.5 12.7 4.7 14.1-1.4 12.9 5.2 18.4 16.2 18.4h1c3.6-1.2 6.5-2 8.9-2 4.8 0 8.1 2.7 11.5 9.8-6.3 5.2-13.9 8.2-23.6 22.6-19.5 28.9-6.1 137.9-9.6 206.3l-60.2-88.2c-19.5-32.6-41.1-44.8-59.1-44.8-31.4 0-51.8 37.1-30.8 67.2 32.5 80.8 42.5 113.2 47.7 131-12.6 17.1-11.7 26.7-33 34.8v11l278.4-1-33.9-34.9c10.5-16.4 15.4-42.5 14.7-85.2v-127l6.5.5v-37.8c0-30.8-1.6-54.4-4.7-70.8h18.4V230l4.2-.5c-1.4-6.6-3.4-44.8-24.2-68.7 5.6-.7 7.4-3 7.4-6.8l-1.6-4.2 10-10-2.6-8.4c-.9-.2-1.8-.3-2.6-.3-1.6 0-3 .5-4.2 1.4l-10-3.7-8.4 17.8c-7.3-10.1-18-17.6-36.9-21.5l4.2-17.3 27.4-5.5 12.6-57.1c12.3-1.4 19.5-5 24.6-13.6 4-12.4-2.2-30.5-18.6-31.6z"/></svg>