<svg xmlns="http://www.w3.org/2000/svg" viewBox="-10 0 490 1001"><path d="M-10 1001v-35l87-35-40-152q-2-11-5.5-27.5T28 722q0-25 14.5-39.5T77 668q22 0 34 10.5t24 24.5l80 93 19-146-38-54 78-117-10-63-34 4-16-36-25-1 40-88q18-58 90-58V39q4-10 13.5-23T358 0q18 0 31.5 15.5T408 45q-3 5-10 14.5T384 74l42 125q-18-1-45 3.5t-42 9.5v26q26 3 45.5 13t31.5 30q1-10 9-17.5t22-7.5q17 0 24 10t7 21q0 24-29 32 13 24 20 53 5 20 7.5 39.5T480 448h-46l10 215h-44v276l64 27v35zm344-804q11-5 32.5-8.5T404 184L366 69q8-6 14.5-13T391 44q-4-6-11-18t-22-12q-10 5-16 15t-8 16zm-91 105h76v-46q-26 0-46 9.5T245 298zm96 0h66q-7-21-26.5-31.5T339 258zm101 2q22-3 22-17 0-5-3.5-9.5T447 273q-7 0-11 4.5t-4 9.5q0 3 2.5 7t5.5 10zM9 985h436v-10l-63-26V663h-79l20-304q1-4 8-13t7-14q0-3-1.5-6.5T330 321h-95l-23 50 15 1 13 34 36-5 18 80-76 116 34 44-24 189-10 4-94-118q-9-11-20-19.5T79 688q-14 0-23 9.5T47 722q0 12 4 30.5t6 28.5l39 157-87 37zm317-342h98l-15-317v-5h-55q2 6 2 10 0 8-5.5 15t-9.5 11zm107-211h30q0-9-2-25t-6-29q-4-15-9.5-29T431 321h-4q0 1 .5 2t.5 2zm-170-86q-15 0-28-10 4-5 12-6t10-1q15 0 25 15-6 1-10.5 1.5t-8.5.5z" fill="currentColor"/></svg>