<svg xmlns="http://www.w3.org/2000/svg" viewBox="-10 0 534 1001"><path d="M34 1001v-35l87-35-40-152q-2-11-5.5-27.5T72 722q0-14 6-26l-22-56 8-9 15 3-21-64-44 29-15-34 45-12-30-28q-10-8-17-19.5t-7-25.5q0-16 9.5-27.5T28 441q25 0 34.5 18t9.5 51v34l39-28 15 32-52 15 43 77 26 5 9 31q7 5 13.5 12t13.5 15l80 93 19-146-38-54 78-117-10-63-34 4-16-36-25-1 40-88q18-58 90-58V39q4-10 13-23t26-16q18 0 31.5 15.5T452 45q-3 5-10 14.5T428 74l42 125q-18-1-45.5 3.5T383 212v26q26 3 45.5 13t31.5 30q1-10 9-17.5t22-7.5q17 0 24 10t7 21q0 24-29 32 13 24 20 53 5 20 7.5 39.5T524 448h-46l10 215h-44v276l64 27v35zm344-804q11-5 32.5-8.5T448 184L410 69q8-6 14.5-13T435 44q-4-6-11-18t-22-12q-10 5-16.5 15T378 45zm-91 105h76v-46q-26 0-46 9.5T289 298zm96 0h66q-7-21-26.5-31.5T383 258zm100 2q22-3 22-17 0-5-3-9.5t-11-4.5q-7 0-11 4.5t-4 9.5q0 3 2.5 7t4.5 10zm-6 128h30q0-9-2-25t-6-29q-4-15-9.5-29T475 321h-4q0 1 .5 2t.5 2zM370 643h98l-15-317v-5h-55q1 2 1 5v5q0 8-5 15t-9 11zM53 985h436v-10l-63-26V663h-79l20-304q1-4 8-13t7-14q0-3-1.5-6.5T374 321h-95l-23 50 15 1 13 34 36-5 18 80-76 116 33 44-23 189-10 4-94-118q-9-11-20-19.5t-25-8.5q-14 0-23 9.5T91 722q0 12 4 30.5t6 28.5l39 157-87 37zm254-639q-9 0-15.5-2.5T279 336q4-5 12-6t10-1q15 0 25 15-6 1-10.5 1.5t-8.5.5zM55 542v-33q0-32-7-41t-20-9q-4 0-12.5 3.5T7 480q0 10 5.5 18.5T26 515zm34 139q15-13 32-13 3 0 6 .5t6 .5l-3-9-52-8z" fill="currentColor"/></svg>