<svg xmlns="http://www.w3.org/2000/svg" viewBox="0 0 387.5 594.5"><path d="M364 7.6c9.1 0 13.2 3.7 14.2 12.9 1.2 10.5-4.6 15.8-19.6 18l-7.1 1-6 26.4c-3.3 14.5-6.1 26.5-6.3 26.7-.2.2-3.9.8-8.3 1.4l-8 1.1 5.8-18.5c13-41 19.9-52.8 32.2-54.4 1.5-.2 2.6-.3 3.6-.3 2.6 0 3.7.8 5.3 3 1.3 1.8 2.3 2.6 3 2.6 1.1 0 1.1-2.1-.3-5.7-1.8-4.4-5.3-6.7-10.1-6.7-1.9 0-4.1.4-6.4 1.2-15.5 5.2-28.6 31.9-42.5 86-3.2 12.3-6.6 22.7-7.6 23-.3.1-.5.1-.7.1-1.8 0-1-4.3 4.4-27.6C323.1 40 342.6 7.6 364 7.6zm10.1 127.8c3.2 0 1 6-4.6 9.3-2.8 1.7-7.4 2.7-10.2 2.7-1.4 0-2.4-.3-2.4-.9 0-.5 1.1-3 2.4-5.6 1.5-2.9 2.7-4.1 4.4-4.1.4 0 .8.1 1.3.2s1.2.2 1.9.2c1.5 0 3.2-.4 4.4-1 1.2-.5 2.1-.8 2.8-.8zm-10.9 18.2c1.7 0 3 .4 3 1.3 0 .8-2.8 2.2-6.3 3.1-2.3.6-3.8.9-4.7.9-1.2 0-1.3-.6-1.1-1.9.4-1.9 5.7-3.4 9.1-3.4zm-90.9-1.4c6.7 0 15.4.1 26.4.1l49.7.4-.5 4.7c-.3 2.6-.9 5.2-1.3 5.8-.4.6-23.4 1.2-51.1 1.2h-50.4v-3.6c0-2 .9-4.8 1.9-6.2 1.4-1.8 4.3-2.4 25.3-2.4zm-2.8 29.5c2.1 0 5.1.4 9.8 1.1l7 1.1-7 2.6c-3.8 1.5-10.1 3.4-14 4.2-3.8.9-9.6 1.6-12.8 1.6h-.2c-6.2 0-7.1-2-3.4-7 1-1.3 1.6-2 1.9-2 .3 0 .4.5.4 1.5.1 3.7 3.2 5.6 6.4 5.6 3 0 6.1-1.6 7-5 .7-2.6 1.5-3.7 4.9-3.7zm-7.7-2.9c-10.6 0-14.7 2.1-17.5 7.5-3 5.8-2.8 8.8.5 9.7 2.2.6 4.7.9 7.3.9 9 0 20.3-3.3 32.6-9.5 11.4-5.7 10.2-6.5-12.8-8.1-3.9-.4-7.2-.5-10.1-.5zm-209-39.4c8.6 0 14.7 24.5 11.3 52.6-.5 4.5-1.5 8.2-2.1 8.2-1.9 0-15.5-30.7-17.3-39-1.8-8.5-.9-14.7 2.9-18.9 1.7-2 3.5-2.9 5.2-2.9zm189.3 64.9c-1.3 0-2.9.2-4 .7-2.9 1.1-2.8 1.2.5 1.3 2 .1 3.2.8 2.6 1.7-.5.9.5 1.6 2.2 1.6 3.9 0 4.3-4 .5-5-.5-.3-1.1-.3-1.8-.3zm115.2-41.4c3.9 0 14.2 22.3 19.1 41.6 2.3 8.8 3.9 16.2 3.6 16.5-.1.1-.4.2-.8.2s-.8-.1-1.3-.2c-.9-.3-4.5-1.2-8.2-2.2-6.4-1.7-6.6-1.8-6.6-8.2 0-9.7-4-26.6-8.5-36.4-4.1-9.1-3.6-11.2 2.7-11.3zm-116.7 55.9c3.2 0 4.2.6 3.6 2.2-.7 1.9-2.6 3-4.3 3-1.4 0-2.7-.7-3.1-2.2-.5-2.5.2-3 3.8-3zm124 4.8c3.5 0 14.9 5.7 15.3 8.1.3 1.8-1.2 2.5-3.5 2.5-4.4 0-11.5-2.8-12.6-6.4-.5-1.7-.6-3.5-.1-4 .2-.1.5-.2.9-.2zm-68.2-56.1v18c0 15.4-.4 18.5-3 21.8-1.6 2.1-3.8 8.5-4.7 14.2s-2.3 18.7-2.9 28.9l.3 16.5s-7.4-6.3-7.1-7.9c.7-4.3-5.1-16.4-8.9-18.4-1.6-.8-6.3-1.4-11.2-1.4-.7 0-5 .1-6.1.1-7.1 0-8.5-1.2-10-6.2-.8-2.8.1-4.7 4.6-9.2 6.4-6.4 5.5-8.2-4.4-8.2-4.5 0-6.2-.7-6.7-2.9-.4-1.6-2.4-3.7-4.5-4.6-5.2-2.4-4.7-6.6 1.7-14.5 3-3.7 6.2-8.3 7.2-10.2 2.7-5.2 10.6-7.9 22.8-7.9 2.2 0 4.5.1 6.9.3 7.9.5 16.1 1.4 18.2 2 1 .3 1.8.4 2.3.4.7 0 .7-.4.1-1.1-.9-.9-7.5-3.2-14.7-5.1-6.5-1.7-12.4-2.5-17.3-2.5-6 0-10.5 1.2-12.9 3.7-.9.9-1.4 1.4-1.8 1.4-.5 0-.6-.9-.6-3v-4h52.7zm28.4 77.9c5.2 0 11.4 1.7 14.4 4.6l3.8 3.6-4.2 4.4c-5.6 7.4-22 12.1-24.9 12.1-4.9 0-5.1-.3-5.1-5.8 0-6.6 4.4-14.9 9.5-17.5 1.6-1 3.9-1.4 6.5-1.4zm-50.2 19.3s11.2 10.4 11.2 12.5c0 2.3.9 7.6-.2 6.7L268.3 271l6.3-6.3zm70.8-4.4c.6 0 1 .5 1.4 1.5 1.3 3.4-16 21-33.4 21.5-2.1.1-3.6-.5-4-1.7-1.7-4.6.6-7.1 6.7-7.1 7.3 0 16.7-4.2 24-10.6 3-2.5 4.4-3.6 5.3-3.6zm-79 14.9l19.1 15.5s-.2 21.1-.4 21.1-2.9-1.4-6-3.1c-11.4-6-21.3-19.6-19.2-26.3.5-1.4 5.9-7.2 6.5-7.2zm81.7-4.4l-.8 11.8c-6.2 21.7-16 31.4-38.5 29.4 0 0-1.1-22.7 0-22.7 5.9 0 25.7-6.1 32.7-12.5l6.6-6zM85.8 332c8 0 15.3 3.2 24 10.1l6.7 5.3-6.7 1.8c-3.7 1-9.7 3.5-13.3 5.7l-6.6 3.9-3.2-7.1-3.2-7.1h-8.9c-15.6 0-16.7-5-2.3-10 5-1.7 9.4-2.6 13.5-2.6zm259.9-25l-.7 91.4c-.7 98.8-1.5 109.7-9.3 131.4-2.2 6.2-6.3 15.8-9.1 21.4l-5.1 10.1 8.4 6.1c4.6 3.3 8.4 6.3 8.4 6.6s-43.4.5-96.5.5h-96.5l6.3-5.8c4.5-4.2 7.1-8.5 9.3-15.2l3-9.3-27.8-73.2c-24.6-64.4-27.7-73.8-27.1-79.9.6-5.3 1.9-8 5.8-11.4 3.5-3.1 5.1-4 9-4 1.1 0 2.4.1 4 .2 4.4.4 9.9 1.9 12.2 3.5 2.4 1.6 28.9 37.7 58.9 80.2 29.9 42.4 54.6 77 55 77l2.2-98.1s-3.9-131.2-3-130.5c10.4 8.8 17.7 12.1 32.5 15.1v12.1c0 14 0 14 14.5 14h9.6L309 336l-.5-13.2c17.1-.9 26.7-3.1 37.2-15.8zM364.1 0c-2.9 0-6.1.7-10.1 2.1-22.5 7.9-38.9 38-53.7 98.1l-5.8 23.5-8.9.8c-15.8 1.4-34.5 12.9-43 26.3-2.6 4.2-4.2 9.7-5.1 17.6-1.1 9.6-2.5 13.5-8.5 23.7-3.9 6.7-7.2 13.4-7.2 14.9s2.1 3.8 4.6 5.3c3.6 2 4.7 3.7 4.7 7.5 0 2.7 1.1 5.7 2.3 6.8 1.3 1.1 2.3 4 2.3 6.5s.7 5.9 1.5 7.4c1.7 3.3 8.2 5.7 14.2 5.7 1.2 0 7-.8 8.5-.8 4.8 0 8.2 1.7 10.5 5.2 2.5 3.8 2.5 3.9-4.9 9.3-9 6.5-9.2 10.8-18.4 19.9-15.9 15.6-9.6 131.4-6.9 181.6.9 15.6-.2 20.3-1.3 20.3-.2 0-.5-.2-.8-.5-1.2-1.3-17.3-24.6-35.8-52-36.3-53.5-47.2-66.3-62.2-73.2-5.7-2.6-9.5-5.7-12.4-10.2-5.2-7.9-11.3-13.7-22.5-21.4l-8.5-5.9-9.7-43c-6.9-30-9.4-43.5-8.2-44.7.9-.9 12.8-2 28.1-2.4l26.5-.8v-8.7c0-9-2.3-19.8-4.9-22.9-.3-.4-.8-.6-1.7-.6-2 0-5.9 1.2-12.5 3.9-16.2 6.5-31.6 11.4-35.4 11.4-.4 0-.7-.1-.8-.2-.6-.6 1-8.2 3.5-17 7.3-25.5 6.2-50.1-2.8-63.3-5.7-8.3-11-11.4-21.2-12.1-1.2-.1-2.4-.1-3.6-.1-19.8 0-32.2 12.6-32.3 33.3-.1 17.1 5.6 31.3 20.5 50.8 5 6.6 8.7 12.7 8.2 13.6-.6.9-10.8 1.5-24.9 1.5H1.4l-1 4c-2.1 8.5 3.8 25.8 9.2 26.8h.3c2.1 0 9-2.1 16-4.9 14.9-6 27-9.7 31.4-9.7.8 0 1.3.1 1.6.4 1 1.1 11 67.7 12.7 84.9.4 3.9-.5 4.8-8 8.5-4.7 2.3-9.8 6-11.5 8.3-2.9 4-2.9 4.4-.4 8.2 3.2 4.9 8.4 7.2 18.8 8.4 7.5.9 7.9 1.2 11.9 9.1 4 8 4.1 8.4 1.7 14-1.4 3.3-2.5 10.1-2.5 15.9 0 8.5 1 12.3 6.3 24.1 13.4 29.7 48.6 125.7 48.6 132.6 0 1.4-3.8 8.3-8.6 15.3-6.9 10.4-10 13.5-16.3 16.7-7.1 3.6-7.7 4.4-7.7 9.3v5.4h81.9c45 0 107.6-.5 139.1-1l57.2-1-16.5-16.5-16.5-16.5 4-9c8.7-19.7 8.9-22.4 9.6-117 .6-86.8.7-87.3 3.8-87.3 3.2 0 3.2-.4 2.3-47-.5-25.8-1.4-49.9-1.9-53.6l-1-6.6h8.7c8.6 0 8.7 0 8.7-4.7 0-3.2.8-4.7 2.4-4.7 2.6 0 2.5-.8-1.9-23.1-2.9-14.6-6.9-25.1-13.7-36.6-5.4-9-5.4-9.1-2.2-11.3 2-1.4 3-3.6 2.7-5.9-.3-2.3 1.1-5.3 4-8.3 3.5-3.6 4.2-5.6 3.5-8.6-.8-3.1-2-4-5.5-4-2.5 0-6.4-.7-8.6-1.5-1.1-.4-1.9-.7-2.6-.7-1.8 0-2.7 1.8-5.3 7.8l-3.8 8.7-6.1-5.5c-6.9-6.2-18.4-12.5-26-14.1-5.8-1.2-5.6-.7-3-10.9l2-7.8 13.1-2.8c7.2-1.5 13.5-3.3 14-3.9.5-.6 3.6-13.4 6.8-28.5l5.9-27.4 6.9-1.7c8.8-2.2 14-5.6 16.8-11.1 4.9-9.5 1.1-22.5-8.5-28.9-3.4-2.4-6.5-3.5-10.1-3.5z"/></svg>