<svg xmlns="http://www.w3.org/2000/svg" viewBox="-10 0 740 1001"><path d="M-10 1001v-39l72-12 12-9q-1-2-1-8 0-18 13-36t42-31L85 704q-2-5-4-15t-2-15q0-23 14.5-43.5T136 610q12 0 25.5 5.5T186 632l126 110 12-41-45-206-187 4-10-10-9-196-16-50-1-38 30-62 29 10-16 51 6 18 17-33 25 9-19 100 17 119 195-29-6-25-38 13-20-54-27-2 43-94 2-11q11-48 83-50v-34q-3 0-11.5-3.5T349 117q-8-7-8-18 0-14 10-20t26-7V51q0-28 13.5-39.5T420 0q19 0 28 11.5T459 28l-18 3q0-3-5-8.5T420 17q-9 0-17 7t-8 27v115q38 3 66.5 25t28.5 59q0 23-14.5 47T439 352v36l202 29 17-119-19-100 26-9 17 33 6-18-17-51 30-10 29 62-1 38-16 50-9 196-11 10-175-4-35 124-10 101 17 3v125h30l19 80q4 17-2 30t-16 20q-7 4-21 9.5t-27.5 9.5q-13.5 4-21.5 4l-12-33 25-13q8-4 6.5-9t-4.5-11l-13-30-191 71q-37 14-70 19.5t-38 5.5q-24 0-46-11l-40 11zm387-883V86q-21 1-21 13 0 7 6.5 12t14.5 7zm-49 632l128-28 10-107 39-139 179 3 5-4 7-182 15-53 3-33-21-47-7 3 15 45-13 35-7 1-19-38-7 3 18 89-20 139-233-33v-50l-40-35 19-26q3-4 6.5-10t3.5-9q0-2-2.5-7t-9.5-5q-6 0-10 3t-8 8l-73-42-34 79h16l18 47 38-12 14 58-226 34-20-139 18-89-6-3-19 38-7-1-13-35 15-45-7-3-21 47 3 33 15 53 7 182 6 4 191-3 48 224zm100-413q17-23 30-43.5t13-45.5q0-22-16-36.5T418 190q-21-7-37-7-24 0-44 7t-26 25l67 38q10-8 23-8 25 0 25 28 0 5-3.5 13.5T414 300l-13 15zm-101-57q-17 0-29-10 4-5 12-7t10-2q11 0 16.5 4t11.5 13q-7 1-11.5 1.5t-9.5.5zM145 859l38-24-50-147 25-53q-11-6-23-6-16 0-26.5 12.5T98 674q0 6 2 13.5t4 15.5zm53-31l108-72-136-115-20 47zm-35 97q68-35 149.5-52.5T473 850V737h-7l-143 31-191 122zm297 62q13-4 28.5-10.5T510 965q8-6 10.5-16.5t.5-20.5l-17-64q-89 1-176.5 21.5T159 947l-42-51q-13 7-18 16t-5 19q0 22 10 33t24.5 14.5Q143 982 155 982q15 0 45-7.5t62-19.5l197-70 23 46q7 10 5.5 20t-8.5 13l-23 11zM8 985h58l26-7q-7-10-11-20l-10 7-63 8z" fill="currentColor"/></svg>