<svg xmlns="http://www.w3.org/2000/svg" viewBox="0 0 487.6 594.4"><path d="M211.7 266.8c1.4 15.4 4.5 27.6 9.1 36.6 9.3 30.8 17.4 65.8 24.2 104.9l58.1-17.2c3.6-36.6 7.5-66 11.8-88.2 4.7-14 7.7-24.7 9.1-32.3-17.9 9-31.7 14.2-41.4 15.6-9.7 1.4-19.4 1.2-29-.8-9.6-2-23.6-8.2-41.9-18.6zm-74.3 271.6c-7.5 16.1-7.5 27.8 0 35 7.5 7.2 20.1 9.9 37.7 8.1 26.5-12.6 63.8-35.1 111.9-67.8 19.7-13.6 29.6-10 29.6 10.8l-5.9 53.8-26.4 3.2v3.8h32.8l12.4-83.9c.7-9.7-3-15.1-11.3-16.1-10 1.1-19.4 4.5-28 10.2-8.6 5.7-25.5 11.5-50.6 17.2-25.1 5.7-44.3 14.9-57.6 27.4-13.3 12.6-19 14.5-17.2 5.9 23-28.7 47.3-43.4 73.2-44.1 25.8-.7 47.1-9.4 63.7-26.1 16.7-16.7 20.2-39.4 10.5-68-28.3 1.4-59.6 15.7-93.9 42.8-34.1 27-61.1 56.3-80.9 87.8zM230 123.7c13.6 3.9 24.9 8.4 33.9 13.4 5.7-4.3 11.4-6 16.9-5.1 5.6.9 9.3 3.9 11.3 8.9s2.1 10.5.3 16.4c-1.8 5.9-6.6 14.8-14.5 26.6.4 8.2 4.3 15.2 11.8 21 7.5 5.7 15.4-.4 23.7-18.6 8.2-18.1 9.3-34.1 3.2-47.9-6.1-13.8-15.7-23.1-28.8-28-13.1-4.8-25.6-6.1-37.4-3.8-11.8 2.5-18.6 8.2-20.4 17.1zm33.9 23.7c-14.7-7.2-29-12-43-14.5-4.3 10.4-10.4 22.1-18.3 35 6.8.4 9.7 3.2 8.6 8.6 2.2-1.8 5.8-.8 11 3s1.5 5.5-11 5.1c2.2 2.2 2.8 4.8 1.9 7.8-.9 3 2.1 4.4 8.9 4 10.4-.4 18.9-3 25.6-8.1 6.5-5.1 11.9-18.7 16.3-40.9zm3.2-.6c-3.6 24.4-11.7 40.9-24.2 49.5 7.5 7.5 11.3 18.3 11.3 32.3 0 5 5.2 7.5 15.6 7.5 10.4 0 15.6-2.5 15.6-7.5l.5-14c-11.5-3.6-18.8-14.9-22.1-33.9 10.4-12.9 16.3-21.7 17.8-26.4s.7-8.2-2.2-10.5c-2.8-2.2-6.9-1.3-12.3 3zm-54.3 10.8v-2.7l5.4-2.7c3.6-7.2 12.9-7.2 28 0h12.4v3.8h-11.8c-12.9 5.7-22.6 6.5-29 2.2l-5-.6zm6.9-2.1c1.8.7 3.9 1.4 6.5 2.2-1.8-2.5-2.2-4.8-1.1-7-3.2 1.3-5 3-5.4 4.8zm13.5 1.6c2.9-.7 6.1-1.8 9.7-3.2l-9.7-3.8c2.1 2.5 2.1 4.8 0 7zm-15.6-11.3v-5.4c7.9-2.2 14.1-2.3 18.6-.5 4.5 1.8 10.8 3.9 19.1 6.5l2.7 3.2c-8.6-.7-15.5-2.2-20.7-4.3-5.3-2.2-11.8-2-19.7.5zm-38.2 324.3l-43.6-43.6c-1.8 21.9-5.3 42.9-10.5 62.9-5.2 20.1-7.6 43.2-7.3 69.4 6.5 17.9 6.3 29.6-.5 35H5.1c-7.2-14.3-6.8-21.5 1.1-21.5h10.2c19.4-7.5 35-12.8 46.8-15.9 11.8-3 17.6-8.3 17.2-15.9v-.5c-4.7-93.2-5-147-1.1-161.4 3.9-14.3 12.7-21.5 26.4-21.5 43.7 2.9 85.7 21.5 125.9 55.9-7.5-42.3-17-78.9-28.5-109.7-1.8-9-4.8-16.1-9.1-21.5-4.3-5.4-17.8-6.1-40.3-2.2-22.6 3.9-49.1 4.7-79.6 2.2-20.8-33.7-32.6-76.6-35.5-128.6h-.5c-1.8-5-3-11.8-3.8-20.4-.7-3.6-.7-8.1 0-13.4.7-3.6 2.9-8.3 6.5-14.3 3.6-5.9 5.9-11.6 7-16.9 1.1-1.8 2.2-2.9 3.5-3.2 1.3-.4 2.4.4 3.5 2.2.7-.7 1.5-.9 2.4-.5.9.4 1.5 1.1 1.9 2.2.7-.7 1.6-.8 2.7-.3s1.4 1.2 1.1 1.9c.7-.7 1.9-.8 3.5-.3s2.1 1.9 1.3 4c-3.9 7.2-7.2 12.8-9.7 16.9-2.5 4.1-4.1 10.8-4.8 20.2 0 2.5.4 3.8 1.1 3.8.7 0 1.3-.5 1.6-1.6.7-2.5 1.1-6.3 1.1-11.3.4-3.9 1.3-6.9 2.7-8.9 1.4-2 3-2.4 4.8-1.3 1.8 1.4 1.8 4.1 0 8.1-.4 3.9-.3 9.5.3 16.7.5 7.2-2.6 14.2-9.4 21 5 21.2 11.3 38.5 18.8 52.2 7.5 13.6 16.1 28.5 25.8 44.6 24.7-6.1 53.4-11.1 86.1-15.1 16.5-7.2 35.3-10.6 56.5-10.2-.4-12.6-3-20.8-8.1-24.7h-11.8c-.4 3.6-3.9 9.3-10.8 17.2-6.8 7.9-12.2 11.5-16.1 10.8-3.9-.7-5.6-2.8-4.8-6.2.7-3.4 3-5.6 6.7-6.7 3.8-1.1 6.8-4.3 9.1-9.7 2.3-5.4 2.4-10 .3-14 .4-5-.4-8.2-2.4-9.7-2-1.4-1.7-3 .8-4.8-2.9-.7-3.2-2.9-1.1-6.5-10.4.4-12.1-4.5-5.1-14.5s11.7-21 14.3-32.8c8.6-21.9 21.1-32.9 37.4-33.1 16.3-.2 31.4 2.4 45.2 7.8 13.8 5.4 24.5 17.1 32 35.2s4.1 40.6-10.2 67.5l-19.9 14.5v9.1c17.6 0 33.2 3.6 46.8 10.8 23 3.2 48.6 8.2 76.9 15.1 9.7-16.1 18.3-30.9 25.8-44.4 7.5-13.4 13.8-30.9 18.8-52.4-6.8-6.5-10-13.4-9.4-20.7s.8-13 .8-16.9c-2.2-3.9-2.3-6.5-.5-7.5 1.8-1.1 3.4-.6 4.8 1.3 1.4 2 2.3 4.8 2.7 8.3 0 5 .4 8.8 1.1 11.3.4 1.4.9 2.1 1.6 1.9.7-.2 1.1-1.3 1.1-3.5-.7-9.3-2.3-16.1-4.8-20.4-2.5-4.3-5.7-10-9.7-17.2-.7-1.8-.3-3 1.3-3.8 1.6-.7 2.8-.7 3.5 0-.4-.7 0-1.3 1.1-1.9 1.1-.5 2-.4 2.7.3.4-1.1 1-1.8 1.9-2.2.9-.4 1.7-.2 2.4.5 1.1-1.4 2.2-2 3.5-1.6 1.3.4 2.4 1.3 3.5 2.7 1.1 5.7 3.4 11.6 7 17.5s5.7 10.7 6.5 14.3c.7 5 .7 9.3 0 12.9-.7 8.6-2 15.6-3.8 21h-.5c-2.9 52-14.7 94.7-35.5 128-29 3.2-53.2 2.5-72.3-2.2-19.2-4.7-30.3-4.7-33.3 0-3 4.7-6.5 12.4-10.5 23.1-4.7 22.2-9.1 51.3-13.4 87.1 16.5 31.9 15.4 60.1-3.2 84.4 19-4.7 28.7 4.3 29 26.9l-16.1 92.5h-51.1v-14.5c0-6.1 8.1-9 24.2-8.6l4.3-55.4c-53.8 40.5-95.9 66.9-126.4 79.1h-31.2c-5-3.6-10.5-7.6-16.4-12.1-5.9-4.5-10-11-12.1-19.6-2.9-8.6 1.8-22.1 14-40.3 12.7-18.8 28.3-36.2 46.2-52.4zm49-40.3c-35.1-34.1-74.1-53.4-116.7-58.1-10.8-.7-17 3.2-18.8 11.8-3.2 25.8-3.8 79.2-1.6 160.3 0 11.8-2.2 18.1-6.5 18.8-24.4 6.5-39.6 10.9-45.7 13.4-6.1 2.5-15.1 4.1-26.9 4.8v3.8h92c5.7-2.9 6.3-11.7 1.6-26.4.4-26.2 3.5-52.4 9.4-78.5 5.9-26.2 8.2-47.7 6.7-64.5-.7-11.1 3.9-13.6 14-7.5l53.8 53.3c11.4-10.1 24.3-20.5 38.7-31.2zm68.8-191.5c-9.3 6.5-18.8 9.7-28.5 9.7s-19.5-3.2-29.6-9.7l-31.7 5.4c11.8 13.6 24.9 23 39.3 28 14.3 5 30.2 5 47.6 0 17.4-5 28.8-14.3 34.2-28l-31.3-5.4zm-40.9-132.9V71h-10.2c-3.9 0-5.9-2.8-5.9-8.3s2-8.3 5.9-8.3h10.2V30.7c0-20.4 7.1-30.7 21.2-30.7 14.2 0 21.1 10.4 20.7 31.2h-12.4c0-8.2-1.8-12.4-5.4-12.4s-5.4 4.1-5.4 12.4v74.2h-18.7z"/></svg>