<svg xmlns="http://www.w3.org/2000/svg" viewBox="-10 0 631.083 1001"><path d="M23.083 1001v-43l104-44-46-208q-3-13-6.5-33t-3.5-38q0-21 10-35l-16-54 8-15h19V309q0-34-9.5-50t-25.5-21q-3 5-5.5 9.5t-4.5 8.5q-12 25-15 47.5t-3 34.5h-26q-4-9-8-25t-5-32q-1-23 10-51t24-50q11-18 19-33t11-27q2-10 3-20t1-17h26q5 8 10.5 25.5t4.5 38.5q0 16-7.5 32t-15.5 31q12 6 29.5 28t17.5 74v219h19l58 87 103 127 17-147q5-41 19-68t33-40l-6-48-22 8-54 75-36-30 64-58-16-43-31-2 49-108-7-38 3-5h5l62-165q6-15 15-32.5t24-30.5q15-13 40-13 34 0 50 21 18-21 48-21 18 0 36 8t25 16l-96 310q4 0 7.5-.5t7.5-.5q29 0 39 20t10 42v512l-19-4V397q0-19-8-32t-26-13q-9 0-17 3l-27 88-15-4-7 50q23 14 38.5 42.5t15.5 74.5v318l79 34v43zm506-752l68-216q-4-5-15-9.5t-25-4.5q-18 0-30.5 13t-25.5 47l-63 166zm-111-4l81-207q-4-11-15.5-15t-23.5-4q-18 0-31 13t-26 47l-62 163zm-407 69h5q-1-20 5.5-41.5t12.5-34.5q5-13 15-27.5t15-22.5q6-13 11.5-30t1.5-42h-5q-1 17-9 35t-17 32q-7 12-17 30.5t-15 35.5q-8 33-3 65zm469 107l44-154-189-8 4 26 83 25q5-5 11-8t13-3q13 0 20 9.5t7 21.5q0 6-4 17.5t-15 19.5l-9 46zm-92 61q8-3 16-5t16-2q14 0 31 5l6-45-31-8 11-65q10-8 14.5-17.5t4.5-13.5q0-3-2-8.5t-10-5.5q-11 0-20 13l-95-28-34 77 19 1 20 55 45-15zm-29-137q-11 0-19.5-3.5t-15.5-8.5q5-6 14.5-8t12.5-2q20 0 31 20-7 1-12.5 1.5t-10.5.5zm-316 636h540v-12l-78-34V606q0-49-21-80t-65-31q-27 0-49.5 23t-29.5 82l-23 169-14 5-118-146q-11-13-24.5-24.5t-30.5-11.5q-18 0-29.5 12.5t-11.5 30.5q0 15 5 37.5t8 36.5l47 212-106 48zm53-398q7-4 14.5-7t17.5-3h11l10 2-18-25h-40l-3 6z" fill="currentColor"/></svg>