<svg xmlns="http://www.w3.org/2000/svg" viewBox="0 0 336.4 598.1"><path d="M187.5 159.7c1.9 6.5 3.3 14.2 4 23.1 10-.8 21.7 2.9 35.2 11 13.1-5.8 21.2-4.9 24.2 2.6 3.1 7.5 1.9 13.9-3.5 19.3s-8.5 9.4-9.2 12.1l12.7 8.1c3.1 2.7 6.5 1.3 10.4-4l39.2-72.1h-113zm-7.5 59.4l.6-2.9 5.2-2.9c3.8-7.7 13.8-7.7 30 0H229v4h-12.7c-13.8 6.2-24.2 7.1-31.1 2.9l-5.2-1.1zm7.5-2.3c1.5.8 3.8 1.5 6.9 2.3-1.9-2.7-2.3-5.2-1.2-7.5-3.4 1.5-5.3 3.2-5.7 5.2zm14.4 1.7c3.1-.8 6.5-1.9 10.4-3.5l-10.4-3.5c2.3 2.8 2.3 5.1 0 7zm-16.7-12.1v-5.8c8.5-2.3 15.2-2.5 20.2-.6s11.7 4.4 20.2 7.5l2.9 2.9c-9.2-.8-16.6-2.3-22.2-4.6-5.7-2.3-12.7-2.1-21.1.6zM54.8 383.5c4.6-8.5 13.8-12.9 27.7-13.3-10-11.2-21-14.7-32.9-10.7-11.9 4-15 6.6-9.2 7.8 5.7 1.2 10.6 6.6 14.4 16.2zm169.6-62.9c-9.6 42.3-18.7 106.5-27.1 192.7l-13.8 1.2-77.9-110.7c-11.2-16.5-22.5-21-34-13.3s-8.7 24.7 8.7 51c17.3 26.3 31.7 67.8 43.3 124.3L83.8 582h191.5l-6.9-10.4c6.2-37.3 11.5-84.4 16.2-141.3 3.8-49.6 3.1-86.1-2.3-109.6-3.8-16.9-13.3-25.4-28.3-25.4-15.2-.1-25 8.4-29.6 25.3zm6.9-85.4c-.4 8.8-5.6 16.9-15.6 24.2 5.4 7.3 10.2 17.1 14.4 29.4 4.2-3.8 8.7-6.1 13.3-6.6 4.6-.6 9.8-.5 15.6.3-6.2-6.9-9.8-19.2-11-36.9l-16.7-10.4zm-5.2-2.9c-.4-3.8 2.6-8.6 8.9-14.1 6.3-5.6 9.4-10.1 9.2-13.6-.2-3.5-2-5.2-5.5-5.2s-6.9 1.9-10.4 5.8c-16.5-8.8-29.8-13.1-39.8-12.7-4.6 10.8-11.2 23.3-19.6 37.5 7.7.4 10.8 3.5 9.2 9.2 2.3-1.9 6.2-.9 11.8 3.2 5.6 4 1.6 5.9-11.8 5.5 1.9 2.3 2.5 5.1 1.7 8.4-.8 3.3 2.5 4.7 9.8 4.3 11.2-.4 20-3 26.5-7.8s10.4-11.4 11.5-19.9l-1.5-.6zm-12.7-83.6h22.5L282 29.3c2.7-8.8.9-14.1-5.5-15.9s-11.1 1.2-14.1 8.9l-49 126.4zm41.6 0h22.5l42.1-109c4.6-8.8 3.3-14.3-4-16.4-7.3-2.1-12.7 1.1-16.2 9.5L255 148.7zm26.5 67.5c27.3 18.8 41 45 41 78.4V598h-12.7V294.6c0-28.1-11.3-50.4-34-66.9l-14.4 26c-1.9 10.8 1.7 20.8 11 30 13.1 3.5 21.4 21.8 25.1 55.1 3.7 33.3-.7 109.7-13 229.3l25.4 30H63.5l-2.9-22.5 43.8-19C93.3 511.9 80.9 478.1 67.2 455s-21.6-44.6-23.9-64.6l1.7 5.8c-5.8-11.2-13.6-18.8-23.4-23.1-9.8-4.2-3.6-12.3 18.7-24.2h-.6.6V222.5c0-8.5-3.3-12.7-9.8-12.7-7.7 3.5-12.9 9-15.6 16.7-2.7 7.7-4.8 14-6.3 19-5.4 8.8-8.3 7.7-8.7-3.5 5.8-20.4 9.3-33 10.7-37.8S17.4 192 27 182c4.6-4.6 13.1-11.9 25.4-21.9 12.7-6.2 16.3-4.4 11 5.2-11.5 9.6-21 20-28.3 31.1 11.9.4 17.9 9 17.9 26v124c15-3.1 27.1 1.2 36.3 12.7 6.5 4.2 11.9 9.6 16.2 16.2L183.4 485c8.8-86.1 20.2-151.5 34-196.1-2.7-8.8-6.5-15.6-11.5-20.2h-16.2c-9.2 28.8-19.5 46-30.9 51.6-11.3 5.6-19.8 6.8-25.4 3.7-5.6-3.1-7.6-6.1-6.1-8.9 1.5-2.9 5.4-3.2 11.5-.9 6.2 2.3 13.2-1.8 21.1-12.4 7.9-10.6 12.4-24.3 13.6-41.2.4-5.8-.6-9.5-2.9-11.2-2.3-1.7-1.9-3.4 1.2-4.9-3.5-.8-3.8-3.1-1.2-6.9-11.2.4-13-4.8-5.5-15.6s12.6-21.5 15.3-32.3c0-11.9-2.3-25.6-6.9-41h24.8L248 19.5C252.2 5.3 260.8-1.2 273.7.2c12.9 1.3 20.7 6.2 23.4 14.7 8.1-4.6 17.6-4.8 28.6-.6s13.6 13.7 7.8 28.3l-41 106.1H319l-37.5 67.5z"/></svg>