<svg xmlns="http://www.w3.org/2000/svg" viewBox="-10 0 646 1001"><path d="M39 1001v-43l103-44-45-208q-3-13-6.5-33T87 635q0-18 7-31l-28-72 8-10 42 7-5-10-79-47 46-26-11-25-49 23Q7 425-1.5 394t-8.5-60q0-45 16.5-72T48 221q25-14 49-20l8 8q-20 34-26.5 60.5T72 329q0 30 8.5 60.5T96 436l31-18 12 17-8 74 8 24 29 5 12 43q18 11 31 30l106 153 19-166q4-41 18-68t34-40l-6-48-22 8-55 75-35-30 64-58-17-43-31-2 50-108-8-38 4-5h5l62-165q6-15 14.5-32.5t24-30.5Q453 0 478 0q33 0 49 21 9-10 20.5-15.5T576 0q18 0 36 8t24 16l-95 310q3 0 6.5-.5t7.5-.5q29 0 39.5 20t10.5 42v512l-19-4V397q0-19-8.5-32T551 352q-10 0-17 3l-26 88-16-4-6 50q23 14 38 42.5t15 74.5v318l79 34v43zm506-752l67-216q-3-5-14-9.5T573 19q-18 0-30.5 13T517 79l-64 166zm-112-4l81-207q-5-11-15.5-15T475 19q-18 0-30.5 13T419 79l-62 163zM27 420l36-17q-11-41-11-74 0-61 29-107-36 17-54 43T9 336q0 20 4 40t14 44zm469 1l44-154-190-8 5 26 83 25q5-5 11-8t13-3q13 0 20 9.5t7 21.5q0 6-4 17.5T470 367l-9 46zm-93 61q8-3 16.5-5t16.5-2q15 0 30 5l7-45-32-8 12-65q10-8 14-17.5t4-13.5q0-3-1.5-8.5T460 317q-11 0-20 13l-95-28-35 77 19 1 21 55 45-15zm-28-137q-12 0-20-3.5t-15-8.5q5-6 14.5-8t11.5-2q19 0 32 20-7 1-13 1.5t-10 .5zM112 499l5-52-48 27zM58 981h541v-12l-78-34V606q0-49-21.5-80T435 495q-27 0-49.5 23T356 600l-24 193-12 5-120-170q-11-13-24-24.5T146 592q-19 0-30 12.5T105 635q0 15 5 37.5t8 36.5l47 212-107 48zm49-394q16-14 36-14h8.5l8.5 1-6-18-64-10z" fill="currentColor"/></svg>