<svg xmlns="http://www.w3.org/2000/svg" viewBox="-10 0 641 1016"><path d="M33 1016v-43l104-44-46-208q-3-13-6.5-33T81 650q0-21 12-38l-27-69 8-11 18 4-24-74-51 33-17-39 52-14-35-32Q6 399-2 386t-8-29q0-18 10.5-32T34 311q29 0 40 21.5T85 392v39l46-33 18 38-62 16 50 91 31 6 12 45 134 166 16-147q5-41 19-68t33-40l-5-48-22 8-55 75-35-30 64-58-17-43-31-2 49-108 11-91q16-18 39-34.5t39-28.5l-44-49q-11-13-19.5-26T347 40q0-16 11-28t30-12q17 0 26.5 9.5T424 33q0 13-8.5 20.5T397 61h-10V44h7q11 0 11-12 0-5-4-9.5T388 18q-21 0-21 21 0 13 6 23t16 22l45 51q23-15 33.5-24T484 95q4-4 6-8.5t4-9.5q5-14 14.5-27.5T541 36q16 0 25.5 10t9.5 25q0 13-6.5 20T555 105q-14 15-3 21 7 4 4 14l54-101h21L503 458l-16-4-6 50q22 14 37.5 42.5T534 621v318l79 34v43zm479-801l26-46q12-22-4-33-9-8-9-16t11-20q7-6 14-14t7-14q0-18-16-18-14 0-20 9t-11 20q-3 7-6 13t-7 11q-9 10-22.5 21T431 158q-14 10-34 25t-31 26zm-22 221l101-326-71 123-160-6-11 73 83 25q5-5 11-8t13-3q13 0 20 9.5t7 21.5q0 6-4 17.5T464 382l-9 46zm-92 61q8-3 16.5-5t16.5-2q13 0 30 5l6-45-31-8 11-65q10-8 14.5-17.5T466 346q0-3-1.5-8.5T455 332q-8 0-12 3t-9 10l-95-28-34 77 19 1 20 55 45-15zM67 430l-1-39q0-39-8.5-50T34 330q-5 0-15.5 4.5T8 357q0 11 6.5 20.5T32 397zm302-70q-11 0-19-3.5t-15-8.5q4-6 14-8t12-2q19 0 32 20-8 1-13.5 1.5t-10.5.5zM53 996h540v-12l-78-34V621q0-49-21-80t-65-31q-26 0-49 23t-30 82l-22 169-15 5-118-146q-10-13-24-24.5T140 607q-18 0-29 12.5T100 650q0 15 4.5 37.5T112 724l47 212-106 48zm54-398q13-10 31-10 15 0 24 3l-8-25-64-9z" fill="currentColor"/></svg>