<svg xmlns="http://www.w3.org/2000/svg" viewBox="0 0 358.9 594.6"><path d="M358.9 412.8h-13.2l-.7 181.8H103.6c-6-13.4 4.4-37.7 31.2-72.9-29.1-72.6-47.9-123.7-56.2-153.3-15.3-.5-24.5-4.4-27.8-11.8-3.2-7.4 3.5-13.9 20.1-19.4l-9.7-88.8c-21.3 2.8-39.3 9-54.1 18.7-6.5-12-8.6-24.3-6.2-36.8 18.5 3.7 37 3.2 55.5-1.4-33.3-34.2-43.2-60.8-29.8-79.8 13.4-19 29.6-21.9 48.6-8.7s18.7 41.7-.7 85.7c16.7-3.2 34.2-9.3 52.7-18 6.5 11.1 8.8 22.7 6.9 34.7-20.4-2.3-39.5-1.2-57.6 3.5L98 333.7c17.6 6 55.5 48.1 113.8 126.3 0-67.5 7.6-115.6 22.9-144.3L200 259.5l-15.3 7.6v-18.7c2.3-12 10.2-22.4 23.6-31.2h-.7l4.2-181.1c.9-20.8 8.3-32.5 22.2-35 13.9-2.5 24.3 1 31.2 10.8 7.4-9.7 18.2-13.4 32.3-11.1s21.6 13.9 22.5 34.7l-3.5 176.9c9.7 7.9 19 24.4 27.8 49.6 8.9 25.1 13.7 75.4 14.6 150.8zM223.6 261.6l22.9 33.3h4.2v-20.1c20.8-9.3 30.1-21 27.8-35.4-2.3-14.3-9.5-22.4-21.5-24.3s-24.7 3.2-38.2 15.3c10.6 10.6 12.2 21 4.8 31.2zm54.8 47.1c14.8-15.3 31.9-13 51.3 6.9-3.7-43.9-13.4-72.4-29.1-85.3 0 31.9-8.6 52-25.7 60.4l3.5 18zM138.3 564.8h184.6v-220c-7.4-13.4-16.2-19.9-26.4-19.4v87.4h-38.2v-80.5c-15.3 14.8-22 77.9-20.1 189.4L129.3 393.4c-17.6-15.3-22.4-10.2-14.6 15.3l45.8 108.9-22.2 47.2zM89.7 371.9c5.6-7.9 13.6-12.3 24.3-13.2-13.9-12.5-27.1-16-39.5-10.4-12.5 5.6-13.1 8.1-1.7 7.6 11.3-.4 16.9 4.9 16.9 16zM64.1 215.8c10.2-33.8 10.5-53.9 1-60.4s-17.3-5-23.6 4.5c-6.2 9.5 1.3 28.1 22.6 55.9zm138 27h6.2l-4.2-7.6-2 7.6zm33.3-7.6c3.2-8.8 7.9-13.1 13.9-12.8 6 .2 9.4 3.4 10.1 9.4.7 6-2 10.4-8 13.2-6 2.7-11.3-.6-16-9.8zm35.4-111.7c20.4 3.2 31.5 16.4 33.3 39.5-1.9 27.8-16.4 41.6-43.7 41.6-24.1-2.8-36.5-16.9-37.5-42.3 2.3-24.1 13.4-37 33.3-38.9l2.1-87.4c0-13.9-5.3-20.8-16-20.8-10.2 0-15.7 6.7-16.7 20.1l-3.5 171.4 32.6-11.1h14.6l32.6 12.5L306.1 36c-.9-13.4-6.6-20.2-17-20.5-10.4-.2-15.8 6.4-16.3 19.8l-2 88.2zm23.6 39.5c-2.3-18-12.5-28-30.5-29.8-17.6.5-27.3 10.4-29.1 29.8-.5 17.6 8.6 28.2 27.1 31.9 19.8-1.8 30.7-12.4 32.5-31.9z"/></svg>