<svg xmlns="http://www.w3.org/2000/svg" viewBox="-10 0 569 1001"><path d="M34 1001v-44l94-39-42-183q-2-12-5.5-30T77 671q0-8 1-15t5-13l-25-64 7-11 17 3-21-66-47 30-15-35 47-13-32-29Q4 448-3 436.5t-7-25.5q0-16 10-29t30-13q25 0 35 19t10 54v35l42-29 16 33-55 15 44 83 30 5 12 39q7 4 13 10.5t13 16.5l93 115 15-138h-40v-28q0-33 12-70.5t28-57.5L174 361h-21l78-63q14-12 31-21.5t36-14.5l1-13-32-3 15-198q2-19 12-33t33-15q23 4 31 20 5-7 14-13t21-7q20 5 28 17.5t8 29.5v7l-16 204-32-3-1 10q53 12 84.5 46t44.5 82q13 48 13 103v131h-34v300l71 30v44zm368-833l10-115v-5q0-11-5-19.5T391 17q-12 2-18.5 12.5T365 51l-6 72q16 4 28 16t15 29zm-110-8q5-17 19-27t31-12l5-72q0-10-4.5-19T326 17q-13 2-19 11t-7 21zm55 59q16 0 27.5-12t11.5-29q0-17-12-28t-29-11q-15 0-26.5 10.5T306 176v3q0 16 12 28t29 12zm-18 14q-16-4-26.5-16T289 189l-3 41zm68 6l3-41q-5 15-17 25t-29 12zm-34 23l1-8-48-3v8h8q21 0 39 3zm-54 194l33-43q11-14 18-36t7-36q0-22-10.5-43.5T314 276q-21 0-37.5 10.5T246 309l-44 36h33v16h-33zm-32 151h23l1-13q7-58 34-85t59-27q41 0 67.5 29t26.5 91v5h15V496q0-65-14.5-105.5t-37-63.5q-22.5-23-46-33T365 280q13 11 17.5 32t4.5 31q0 22-8 42t-28 48l-29 38q-26 35-35.5 69.5T277 607zm4-265q-7 0-11.5-5t-4.5-12q0-17 16-17 17 0 17 17 0 7-4.5 12t-12.5 5zM57 473v-33q-1-32-7.5-42T29 388q-3 0-12 4.5T8 412q0 9 5.5 17T27 445zm-6 508h488v-11l-70-31V601q0-45-18-73t-59-28q-24 0-44 20.5T322 595l-23 196-16 4-106-130q-9-12-20-22t-27-10q-17 0-24.5 11T98 671q0 14 3.5 34t6.5 32l42 190-99 43zm45-353q15-13 32-13 5 0 8.5.5t7.5.5l-5-16-58-9z" fill="currentColor"/></svg>