<svg xmlns="http://www.w3.org/2000/svg" viewBox="0 0 356.3 594.4"><path d="M224.8 127.5l-10.5-3.7 22.1-43.2h-51.1l-1.6 2.6c2.8 0 6.6.5 11.3 1.6 4.7 1.1 7.5 4.9 8.2 11.6h1.1c0-5.6 2.1-8.4 6.3-8.4 4.2 0 6.3 1.9 6.3 5.8s-1.8 8.8-5.3 14.7c-2.1 4.6-3.2 9.1-3.2 13.7v67.4h13.2v-59h4.7v2.6c11.6 0 21.1 1.5 28.7 4.5 7.5 3 11.3 8.2 11.3 15.5 0 9.1-3.3 15.4-10 18.9l-4.2 11.1h19.5c1.1-9.1 1.1-19.9 0-32.4s-11.8-33.6-32.1-63.4l-14.7 40.1zm-21.6 14.8v-21.6c0-2.8 1.7-8 5-15.5s4.6-11.8 3.9-12.9c-.7-1.1-1.7-1.2-2.9-.5s-1.7 3.2-1.3 7.4h-7.4c-1.1-9.5-7-13.7-17.9-12.6l-1.1 2.1c3.2-.4 6.2.2 9.2 1.6 3 1.4 5.5 2.5 7.6 3.2v1.6c-8.1-2.8-13.1-4-15-3.7-1.9.4-3.4 1.2-4.5 2.6-1.8 2.8-3.7 7-5.8 12.6 2.5 0 3.9.6 4.5 1.8.5 1.2.3 2.9-.8 5l7.4.5v2.6l-4.2 1.1c-1.1 1.1-1.6 2.5-1.6 4.2 0 2.1 3.3 3.2 10 3.2h7.9c-.2 10.1 2.1 15.9 7 17.3zm-25.3-1.6l2.1 8.9c6.3 12.3 14 18.4 23.2 18.4v-21.6c-6.3-1.4-9.8-4.4-10.5-8.9l-14.8 3.2zm48.4-2.6v30c7 .4 12.1-1.8 15.3-6.6 3.2-4.7 5.1-8.7 5.8-11.8l3.2-8.9c-9.5-2.6-17.6-3.5-24.3-2.7zm0 35.7v20.5h-23.2v-20.5c-9.1-.7-15.4-3.7-18.9-8.9l14.7 36.3h26.8l13.2-31.1c-1 1.8-5.2 3-12.6 3.7zm-31 34.3c2.5 9.8 3.7 19.3 3.7 28.4 0 7.4-1.3 18.9-3.9 34.5-2.6 15.6-3.7 31-3.2 46.1.5 15.1 2.9 28.9 7.1 41.6 4.2 12.6 6.3 30.5 6.3 53.7 0 29.1-.9 51.8-2.6 67.9H230c2.5-15.4 2.7-30.9.8-46.3-1.9-15.4-2.8-38.6-2.6-69.5.2-30.9 1.8-50.5 5-59 3.2-8.4 4.9-17.9 5.3-28.4 0-9.5-1.6-17.5-4.7-24.2-3.2-6.7-4.9-14.9-5.3-24.7 0-8.4 1.1-15.1 3.2-20h-36.4zm16.3 282.1v19.5c2.8-1.1 4.2-3.5 4.2-7.4v-12.1h-4.2zm-20-392.7c-2.1-1.8-3.5-2.6-4.2-2.6.4.4.5.9.5 1.6 0 1.4-.9 2.1-2.6 2.1s-2.6-.7-2.6-2.1c0-.7.4-1.2 1.1-1.6-.7 0-1.3.4-1.8 1.3s-1 1.3-1.3 1.3c1.4.7 3 1.1 4.7 1.1 2 0 4.1-.4 6.2-1.1zm-13.7 1.1V97h1.1c.4 0 1-.8 1.8-2.4.9-1.6 2.4-2.4 4.5-2.4 2.5 0 5.1 1.6 7.9 4.7h5.3v1.6l-5.3-.5c-3.2 1.4-5.6 2.1-7.4 2.1-1.8 0-3.3-.3-4.7-.8-1.4-.5-2.3-.8-2.6-.8h-.6zm9.5-23.2h45.3c-5.6-5.3-14-7.9-25.3-7.9-10.5 0-17.2 2.7-20 7.9zm18.9-45.8c0-15.1 2.3-24 6.8-26.8 7-4.6 12.3-3.5 15.8 3.2 3.2 4.9 2.3 8.9-2.6 12.1-3.5 2.5-5.1 4.9-4.7 7.4l7.4 30c-6.7 2.1-11.4 5.1-14.2 8.9-1.8 2.1-2.6 3.9-2.6 5.3V86h-5.8V29.6zm64.2 307.9c4.9-13.3 6.6-19.2 5-17.6-1.6 1.6-2.9 2-3.9 1.3-1.1-.7-2.1-.5-3.2.5-1.1 1.1-2.3 1-3.7-.3-1.4-1.1.6 4.2 5.8 16.1zm30 239v-27.9H55.8v27.9h244.7zm55.8-45.8v17.9h-29.5v27.9h29.5v17.9H0v-17.9h30v-27.9H0v-17.9h136.9v-5.3h9.5c30.9-9.1 46.3-21.2 46.3-36.3 1.4-14.7 2.3-37.5 2.6-68.4.4-30.9-1.8-52.5-6.3-64.7-4.6-12.3-7-27.9-7.4-46.8 0-14.7 1.1-27.5 3.4-38.2 2.3-10.7 3.4-23.4 3.4-38.2 0-15.4-2.1-26-6.3-31.6-10.2 0-16-4.2-17.4-12.6l8.9-13.7c-1.8-8.8-4-12.1-6.8-10-14 19.3-27.9 36.3-41.6 51.1-18.6-4.9-36.8-12.8-54.7-23.7-4.6 2.8-8.8 4.6-12.6 5.3v302.6c5.3 1.8 7.9 6.3 7.9 13.7.4 2.8-.7 7-3.2 12.6-1.4 4.2-4 6.3-7.9 6.3 2.8-9.8 4.2-16.1 4.2-18.9-.4-5.3-2.3-7.9-5.8-7.9-3.9 0-6 2.6-6.3 7.9 0 2.8 1.4 9.1 4.2 18.9-4.2 0-7-2.1-8.4-6.3-2.1-5.6-3-9.8-2.6-12.6.4-7.4 3-11.9 7.9-13.7V197.5c-2.5-.4-4.4-3-5.8-7.9-1.4-4.9-.7-8.1 2.1-9.5-4.9-2.8-6.1-5.1-3.7-6.8h7.4v-44.2c-1.1-8.4-2.9-11.7-5.5-9.7-2.6 1.9-6.1 6.2-10.3 12.9-4.2 15.4-10.5 21.6-18.9 18.4 8.8-18.9 14.6-31.8 17.4-38.7 2.8-6.8 7.5-13.5 13.9-20 6.5-6.5 12-15.2 16.6-26.1 5.6 4.6 6.1 10.4 1.3 17.4s-8.5 13.9-11.3 20.5c4.9 8.1 7.2 16.3 6.8 24.7v44.2c5.6.4 11.8 2.8 18.4 7.4 16.8 6.7 31.6 11.1 44.2 13.2 6.7-11.2 15.6-23.9 26.8-37.9 7.7-13 16.3-19.3 25.8-18.9l18.4-3.7v-3.7c-13.7 0-19.3-3-16.8-8.9-2.8-1.4-3.2-3-1.1-4.7-1.8-1.4-2.3-2.4-1.6-2.9.7-.5 1.4-1.3 2.1-2.4-3.2-.4-4.9-1.6-5.3-3.7-.4-1.1 1.9-6 6.8-14.7-.4-3.9 1.5-9.8 5.5-17.9 4-8.1 12.7-12.1 26.1-12.1 14 0 24 4 30 12.1 0-2.5.9-4.4 2.6-5.8s3.6-1.7 5.5-.8c1.9.9 2.9 2.5 2.9 4.7 0 2.3-1.4 4.3-4.2 6.1l25.3 30.5-7.4 2.1c10.5 15.8 16.3 31.1 17.4 45.8 1.1 14.7 1.1 25.8 0 33.2h-5.8c.4 12.6.5 23.7.5 33.2 4.9 14.4 5.3 36.3 1.1 65.8l.5.5 2.6 17.9.5 7.4c5.3 5.3 3.5 14.4-5.3 27.4 6 0 12.1-1.4 18.4-4.2 1.8 4.2 1.9 8.4.5 12.6-6.7-1.4-13.2-1.9-19.5-1.6l2.6 25.8h-9.5l2.1-26.3c-7.4-.7-13.7 0-18.9 2.1-1.8-4.2-1.9-8.4-.5-12.6 6 2.8 12.1 4.2 18.4 4.2-6.3-9.8-9.1-16.7-8.4-20.5-.4.7-1.3 1.3-2.9 1.8-1.6.5-2.2-.4-1.8-2.9l3.2-12.6c1.4-6 4.2-13 8.4-21.1-.4-14-1.8-26.8-4.5-38.2-2.6-11.4-3.2-21.7-1.8-30.8-2.5-9.8-4.2-19.1-5.3-27.9h-4.7c-6.7 11.9-10.4 23.3-11.1 34.2-.7 10.9.7 20.1 4.2 27.6s5.3 16.2 5.3 26.1c0 10.2-3 23.2-8.9 38.9-1.4 50.5-1.1 83.8 1.1 99.7 2.1 16 2.3 40.6.5 74h-2.1v25.3c2.5 11.6 2.1 16.7-1.1 15.3h119.2z"/></svg>