<svg xmlns="http://www.w3.org/2000/svg" viewBox="-10 0 455 992"><path d="M59 992q-26 0-47.5-16T-10 931q0-34 47-57l145-72 14-56-26-214q-2-25 3.5-44.5T201 458l24-10-5-18-17 6-29 45-29-25 41-33-12-32-23-1 38-85q-1-2-1-5v-5q0-6 10-19.5t43-22.5v-1q-1 0-3.5-.5t-6.5-.5q-7 0-15 4t-17 4q-9 0-18.5-7t-20.5-7q-12 0-21.5 5.5T121 256q-14 0-23-9.5T89 220h13q1 6 4 11.5t15 5.5q7 0 17-6.5t21-6.5q9 0 15.5 4.5T188 237l15-189q2-19 11.5-32.5T248 0q21 6 31 20 5-6 13.5-12T313 0q21 6 29 18t8 29v7l-15 186q10 0 18.5-8t21.5-8q11 0 21 6.5t17 6.5q12 0 15.5-5.5T433 220h12q0 17-9 26.5t-23 9.5q-8 0-17-5.5t-21-5.5q-12 0-21.5 7t-18.5 7q-8 0-16-4t-15-4q-5 0-7.5.5t-3.5.5q26 6 46 24t20 50q0 21-11.5 42T317 417v29l34 13q28 11 31 29t3 34q0 10-4.5 31t-11 46q-6.5 25-12.5 48-8 30-17 61.5T328 771l14 1v148l35 27 61 11v34h-70l-92-27-146 20q-27 5-47 6t-24 1zm264-824l9-115v-5q0-10-4.5-19T312 17q-13 1-19.5 12T285 51l-5 72q16 4 27.5 16.5T323 168zm-111-8q5-16 19-27t31-12l6-71q0-11-4.5-20T246 17q-13 1-18.5 11T221 50zm55 59q16 0 27.5-12t11.5-28q0-17-11.5-28.5T266 139q-16 0-27.5 10.5T226 176v3q0 17 12 28.5t29 11.5zm-61 20q7-1 16.5-4.5T240 231h2q-16-7-23.5-18.5T210 190zm112-3l3-37q-4 10-12 18.5T291 231h4q5 0 11 1.5t12 3.5zm-55 5h8l3-3 5-3q-3 1-9 1-5 0-9-.5t-8-1.5q6 3 10 7zm41 163q14-21 24.5-40t10.5-41q0-19-12-31.5t-29.5-19Q280 266 265 266q-17 0-36.5 8T206 295l56 35q8-8 17-8 10 0 16 6.5t6 16.5q0 7-3.5 15t-7.5 12l-9 13zM203 797l106-25q4-37 13-66.5t17-63.5q26-102 26-120 0-13-3-27.5T340 473l-43-18v-35l-35-31 16-24q2-4 5-9t3-8q0-2-1-6.5t-7-4.5q-5 0-8 2.5t-7 7.5l-60-37-30 69 15 1 15 42 31-11 12 48-28 10q-20 7-24.5 27t-2.5 36l24 214zm17-443q-8 0-14-2.5t-11-6.5q4-5 11-6.5t8-1.5q14 0 22 15-5 1-9 1.5t-7 .5zM70 928l254-16V788h-6l-121 28-152 76zm300 48h48v-9l-52-7-41-31-262 15-33-44Q9 913 9 930q0 26 18.5 35t34.5 9q12 0 32.5-2.5T131 967l147-19z" fill="currentColor"/></svg>