<svg xmlns="http://www.w3.org/2000/svg" viewBox="0 0 334.5 594.6"><path d="M144.4 175.7l50.7-130.1c-11.6-7.1-14.6-17.1-9-30 5.6-12.9 16.6-17.8 33-14.7 16.5 3.1 24.5 15.6 24 37.4l-20.7 92.1 6 1.3 20-92.1c9.3-20.5 22.1-28.4 38.4-23.7 16.2 4.7 24.1 14.2 23.7 28.7-.4 14.5-7.6 22.1-21.3 23L282.5 195c0-1.3 1.8-.4 5.3 2.7 3.6 3.1 8.2 3.8 14 2 5.8-1.8 16.7-.2 32.7 4.7-15.1 15.1-28.1 20.7-39 16.7-10.9-4-20.1-4.7-27.7-2 20 16.9 26 84.1 18 201.5h-20.7c-2.7 33.4-8.7 71.2-18 113.4 17.3-8.4 27.9-6.6 31.7 5.7 3.8 12.2 18.8 26.1 45 41.7v13.3H35.7C15.7 592 4 581.5.7 563c-3.3-18.5 6.6-33.5 29.7-45l121.4-35.4c8.9-64 20.5-115.8 34.7-155.4 0-16.5-5.6-24-16.7-22.7l-25.3 50.7c-12.9 21.8-27.6 25.8-44 12 1.3-5.8 4.4-8.1 9.3-7 4.9 1.1 10.2-.8 16-5.7l22-56.7c.4-14.2-2.8-22.5-9.7-24.7-6.9-2.2-6.1-9.2 2.3-21 8.4-11.8 12.6-19.2 12.3-22.3-.2-3.1 3.9-11.6 12.3-25.3-8.4-.9-14.5-3.2-18-7-3.6-3.8-11-5.4-22.3-5-11.3.4-22.6-8.7-33.7-27.4 11.1 6.2 19.8 8.4 26 6.7 6.3-1.9 15.4-.6 27.4 3.9zm54.7 6.7c-10.7-8.9-14.2-19-10.7-30.4 3.6-11.3 9.8-18.3 18.7-21l20-90.1c2.2-14.2-1-22.7-9.7-25.3-8.7-2.7-14.2-.6-16.7 6.3-2.4 6.9 1.4 12.6 11.7 17L161 180.3c6.7 3.1 11.6 4 14.7 2.7 3.2-1.3 10.9-1.5 23.4-.6zm66 13.3l10.7-140.8c12.5 0 18.7-3.8 18.7-11.3s-4.4-12.1-13.3-13.7c-8.9-1.6-15.3 4.8-19.3 19l-20 88.1c8.9 8 12.6 18 11 30-1.6 12-8.1 18.9-19.7 20.7 9.8 2.2 16.1 4.7 19 7.3 2.8 2.7 7.1 2.9 12.9.7zm-66 127.4c2.2-25.3 8.6-43.4 19-54 10.5-10.7 13.6-18.7 9.3-24-4.2-5.3-9.7-4.7-16.3 2-12.9-11.1-28.5-17.1-46.7-18-1.8 8-4.6 14-8.3 18-3.8 4-7.7 10-11.7 18l10.7 5.3c.4 16 6.2 23.6 17.3 22.7 11.1-.9 17.8 1.6 20 7.3 2.2 5.8 4.5 13.4 6.7 22.7zm34.7 254.2l-6.7-32.7c12-49.4 18.9-90.3 20.7-122.7 5.3-59.6 4.3-89.7-3-90.4-7.3-.7-11.2 17.2-11.7 53.7h-35.4v-43.4c-9.3 30.2-18.7 81.6-28 154.1l-100 28.7c-36 9.3-53 21.1-51 35.4 2 14.2 19 20 51 17.3h164.1zm28.7-170.1h12c4-93.4.7-149.8-10-169.1-10.7-19.3-26.8-31-48.4-35-21.6-4-36.1.4-43.7 13.3 16 2.7 29.1 7.8 39.4 15.3 9.8-4 17.7-3.1 23.7 2.7 6 5.8 7.4 13.2 4.3 22.3-3.1 9.1-8.8 18.1-17 27s-12.6 38-13 87.4h10.7c2.2-35.6 9.9-53.3 23-53 13.1.2 20.1 9.5 21 27.7l-2 61.4zM215.8 177c12.5.9 19.6-3.7 21.3-13.7 1.8-10-2.7-16-13.3-18-10.7-2-17.3 1.7-20 11-2.7 9.4 1.3 16.3 12 20.7zm-52.1 67.4c3.6-9.8 13.8-9.1 30.7 2-18.7 8.4-28.9 7.8-30.7-2zm88.8 332.9h39.4c-14.2-8.4-22.2-16.7-24-24.7-1.8-8-8.4-8.2-20-.7l4.6 25.4z"/></svg>