<svg xmlns="http://www.w3.org/2000/svg" viewBox="0 0 200.1 594.7"><path d="M115.1 38.6c3.7.7 7.5 1.8 11.5 3.1 3.9 1.3 6.2 4.4 7 9.2 1.5-4.8 4.5-7.3 8.9-7.3 5.6 0 8.4 2.6 8.4 7.8 0 3-.7 5.6-2.2 7.8 2.2 7.5 6.7 13.2 13.4 17.3 4.1-3 10-7.1 17.6-12.3 7.6-5.2 11.5-13.4 11.5-24.6 0-11.6-4.4-18.5-13.1-21-8.8-2.4-19.7-3.6-32.7-3.6-12.7.1-22.8 7.9-30.3 23.6zM123 57c-4.1 1.9-7.5 2.8-10.1 2.8-2.6 0-3.9-1.1-3.9-3.4 0-1.1.3-2 .8-2.8.6-.7 1.9-1.1 3.9-1.1 2.1 0 5.2 1.5 9.3 4.5zm-14.6-11.7c-1.1 6-4.3 12.9-9.5 20.7-.4.7-.6 1.5-.6 2.2 0 .4 1.1.5 3.4.3 2.2-.2 3.2-.7 2.8-1.4-.7-.4-.6-.9.6-1.7 1.5 0 2.8.9 3.9 2.8 0 1.5-1.9 2.6-5.6 3.4v2.2c2.2.7 5 2.4 8.4 5-1.5 2.2-4.5 4.1-8.9 5.6.4 1.9.7 3.4.8 4.8.2 1.3 1.2 2.1 3.1 2.5 9.3-1.1 15.6-1.7 19-1.7 1.9 0 3.4 1.1 4.5 3.4 1.1 5.6 2.9 9.5 5.3 11.7 2.4 2.2 7.4 3.4 14.8 3.6 7.5.2 12.7-1.4 15.6-4.8-3-5.6-4.3-11.6-3.9-17.9-10.1-6.3-16.2-13-18.5-20-3.7 3.7-6.7 5.6-8.9 5.6-3 0-4.5-1.7-4.5-5 0-2.6 1.9-5.2 5.6-7.8 0-1.5-1.3-2.2-3.9-2.2-.4-4.8-4.1-7.8-11.2-8.9-4.8-1.7-8.9-2.4-12.3-2.4zm17.9 8.9h3.9v2.2h-3.9c-7.8-5.2-13.6-6.7-17.3-4.5-1.1-.7-1.1-1.9 0-3.4 4.8-2.1 10.6-.2 17.3 5.7zm9.5 10.1c1.1.4 1.7.9 1.7 1.7s-.6 1.1-1.7 1.1c-1.1-.4-1.7-.7-1.7-1.1 0-.8.6-1.4 1.7-1.7zm1.7-5.6l3.4-2.2c-1.9-1.1-2.8-2.4-2.8-3.9 0-1.1.3-2 .8-2.8.6-.7 1.8-1.1 3.6-1.1 2.6 0 3.9.7 3.9 2.2 0 2.2-.3 3.9-.8 5-.6 1.1-2.5 3.5-5.9 7.3l-.6-.6c3-3.7 4.8-6.3 5.6-7.8.7-1.5.6-2.8-.6-3.9-1.1-1.1-2.2-1.1-3.4 0-1.1 1.1-1 2.3.3 3.6 1.3 1.3 1.6 2.1.8 2.5l-3.9 3.4-3.9 3.9c-.7 1.5-.9 2.5-.6 3.1s1.1.8 2.2.8 3-1.3 5.6-3.9c2.6-2.6 4.4-4.8 5.3-6.7.9-1.9 1.4-4.1 1.4-6.7 0-3-1.9-4.5-5.6-4.5-3.4 0-5.3 1.4-5.9 4.2s0 5.5 1.1 8.1zM99.5 76c-.4 1.1.6 1.5 2.8 1.1l4.5.6v-.6L99.5 76zm9.5 3.4l-4.5.6h-2.8c-1.1 0-1.7.6-1.7 1.7 0 .4.4.4 1.1 0 5.3-1.2 7.9-2 7.9-2.3zm58.1 36.9c-9.7 4.1-19.6 4.7-29.6 1.7-20.9 68.6-27.2 133.9-19 195.9S133.1 422 137.8 452c4.7 30 5.3 52.8 2 68.5-11.6 14.9-26.6 26.3-45.3 34.1h64.3c6.7-1.1 7.3-9.9 1.7-26.3-.4-2.6-.2-35.2.6-97.8-1.5-55.9 0-97.1 4.5-123.5 10.4-16.8 9.5-37.1-2.8-60.9 14-62.4 15.5-105.6 4.3-129.8zM38.6 190.6l23.5 1.7c1.5-1.1 1.5-2 0-2.8l-23.5-1.7c-.8.7-.8 1.7 0 2.8zm25.1 5l-25.2-2.8c-.7.7-.7 1.7 0 2.8l25.2 2.2c1.5-.7 1.5-1.4 0-2.2zm-25.1 6.2l22.4 1.7c1.5-.7 1.7-1.7.6-2.8l-22.9-2.2c-.9.7-.9 1.8-.1 3.3zm.5 3.3c-.7.7-.7 1.9 0 3.4l16.2.6c1.1-.7 1.1-1.7 0-2.8l-16.2-1.2zm7.3-22.9c-3.4 0-7.6-.2-12.9-.6.7 1.9 2.8 3 6.1 3.4h6.7v-2.8zm53.6 63.7v-5H82.7c-10.1-11.2-22.4-15.6-36.9-13.4 0 4.5.1 8.6.3 12.3.2 3.7 1.4 6.9 3.6 9.5 6.3 1.9 19 .7 38-3.4H100zm2.8-30.7h-8.4c-13.4 2.2-25.2 2.6-35.2 1.1v2.2c7.1 0 15.8 4.7 26.3 14h15.6l1.7-17.3zm2.3-13.4H82.7c-8.9-11.2-16-17.1-21.2-17.9v2.8c3 .7 4.8 1.8 5.3 3.1s-.1 2.5-2 3.6c2.2.7 3.4 1.9 3.4 3.4-.4 2.2-1.9 3.4-4.5 3.4 1.9 1.1 2.4 2.2 1.7 3.4-.7 1.1-2.2 1.9-4.5 2.2 1.9.7 2.2 2.2 1.1 4.5 11.2.7 22.2-.2 33-2.8h9.5l.6-5.7zm83.8 358.8v34.1H0l21.8-34.1h167.1zM18.4 585.2h159.3v-14.5H27.9l-9.5 14.5zm40.8-406.9c8.9 0 17.7 5 26.3 15.1h21.2c4.1-24.2 11.2-52.2 21.2-83.8-2.6-4.1-4.3-9.1-5-15.1-2.2.7-6.3 1.3-12.3 1.7l-7.3 20.1c-3.7 11.2-9.1 16.2-16.2 15.1-3.7 0-5.6-1.9-5.6-5.6 0-3.7 3.2-5.6 9.5-5.6 5.2-14.2 8-23.5 8.4-27.9l-.5-7.3c-2.6-.7-3.2-2.8-1.7-6.1-1.5-.7-2-2.2-1.7-4.5 1.9-.4 2.8-1.3 2.8-2.8-3 0-4.7-1.1-5-3.4-.4-1.1.9-3.7 3.9-7.8s4.8-7.4 5.3-9.8c.6-2.4 1.2-5.3 2-8.7 2.2-8.6 6.7-17 13.4-25.2C124.6 8.6 140 5.4 164 7.3s36.1 12.2 36.1 31-8.4 32-25.2 39.4c-3 1.9-4.3 4.5-3.9 7.8-1.5 6.7.9 14.2 7.3 22.4 10.8 29.8 10.8 75.8 0 138.1 9.7 22.4 11 44.3 3.9 66-4.5 4.8-6.5 18.6-6.1 41.4v174.4c8.6 22.7 7.8 37.1-2.2 43H46.4c0-13.8 7.1-20.7 21.2-20.7 33.5-13.4 53.5-28.9 59.8-46.4 1.5-13.8-.8-40.9-7-81.3-6.1-40.4-10.9-75.4-14.3-104.8-3.4-29.4-5.6-50.3-6.7-62.6l-40.2 5v244.2c7.5 1.9 11.2 7.3 11.2 16.2.4 2.6-.4 5.4-2.2 8.4-1.9 3-1.4 6.5 1.4 10.6s1.2 4.7-4.8 1.7-7.1-9.9-3.4-20.7c-.7-5.2-3.5-7.8-8.4-7.8-5.6 0-8.6 2.6-8.9 7.8 4.8 10.8 3.5 17.8-3.9 21-7.5 3.2-8.9 2.5-4.5-2 4.5-4.5 5.4-8.1 2.8-10.9-2.6-2.8-3.7-5.5-3.4-8.1.4-8.9 4.1-14.3 11.2-16.2V259.3c-5.2-1.1-7.8-2.8-7.8-5s-.7-3.8-2-4.8c-1.3-.9-1.7-2-1.1-3.4.6-1.3.2-2.5-1.1-3.6s-1.6-2.4-.8-3.9c.7-1.5.7-3.2 0-5-.7-1.9-.4-3.5 1.1-5-2.2-1.5-3.7-3.2-4.5-5-.7-1.9 0-3.5 2.2-5 5.2.4 9.9.4 14 0v-3.4c-3.7 0-7.1-1.1-10.1-3.4-2.6-2.6-3.2-5.4-1.7-8.4-2.2-1.9-2.2-3.9 0-6.1-2.6-1.9-2.8-3.9-.6-6.1-1.9-1.1-1.9-2.4 0-3.9-3-.7-4.8-2-5.6-3.9-.7-2.2.6-3.9 3.9-5h14V50.9c0-1.5-.7-.9-2.2 1.7-10.3 18.2-20 27.9-28.9 29 13.8-23.1 21.3-37.2 22.6-42.2 1.3-5 4-9.5 8.1-13.4C49.9 22.1 56.6 13.4 66 0c4.1 7.5 3.7 14.6-1.1 21.5C60 28.4 56.3 33.9 53.7 38c3.7-.4 5.6 3.7 5.6 12.3v128z"/></svg>