<svg xmlns="http://www.w3.org/2000/svg" viewBox="-10 0 507 1001"><path d="M-10 1001l44-64h48q3 0 12-2t17-8q8-5 11.5-16t3.5-19h11V502l-19-7-12-7-7-34 13-25 25-4v-23l-11-4-12-5-9-32 2-9 4-2-2-16 28-10v-99q0-34-10.5-52T100 150q-3 5-7 12t-6 10q-12 25-15 48t-3 35H43q-4-9-8-25t-5-32q-1-24 10-51.5T65 97q10-19 18-33.5T94 37q2-10 3-20.5T98 0h26q5 7 10.5 24.5T139 64q0 16-7 31.5T116 126q12 7 29.5 29t17.5 73v93l14 1 25 12 82-6q1-30 10-60t20-44v-38l-26-1-24 49-33-23 41-41-5-34q-5-1-11-1.5t-11-1.5l29-64q0-2-.5-6.5T273 54q0-22 19.5-38T353 0q46 0 73.5 28T454 96q0 8-1 23.5t-9.5 31.5q-8.5 16-28.5 27v38q32 12 39 40t5 65l-6 104q5 21 12 40.5t7 63.5q0 20-8 50t-16.5 67q-8.5 37-9.5 76 1 20 2.5 64.5T442 888q0 25-3 49h58v64zm409-838q19 0 28-15.5t9-51.5q0-32-24-55.5T354 17q-35 0-48.5 13T292 54q0 8 2 10h71q2-1 4.5-2.5T379 60q12 0 18.5 9t6.5 19q0 11-3.5 20.5T389 119q-2 0-7 6.5t-5 17.5q0 18 22 20zM51 231h5q-1-21 5.5-42.5T74 154q5-12 15-27t15-23q6-12 11.5-29.5T117 32h-5q-1 17-9 35T87 99q-8 13-18 31.5T54 166q-8 32-3 65zm297-6q33 0 51-15v-31q-13 0-26.5-7T359 143q0-9 5.5-19t10.5-15q6-1 9-4.5t3-14.5q0-5-2-10t-10-5q-7 0-9 2l-3 3h-78l-18 43q2 0 5.5.5t6.5.5l7 47 43 3v49q5 1 9.5 1.5t9.5.5zm-40-120q-6 0-13-2t-7-7q0-5 5.5-8t12.5-3q7 0 13 3.5t11 8.5q-5 3-10 5.5t-12 2.5zm65 170q16-2 30.5-11t21.5-17q-4-5-10.5-9.5T399 231q-22 11-51 11-6 0-11.5-.5T325 240l-9 22q9 6 23.5 10.5T373 275zm-86 662h135q2-13 3-26.5t1-27.5q0-53-2-96.5t-4-64.5q3-41 11-82t15-71.5q7-30.5 7-39.5 0-38-7-59t-12-37l7-123q2-19-.5-29.5T434 263q-11 10-27 19.5T373 293q-20 2-36-2.5T311 279q-4 14-6 28t-1 30q1 19 3 42.5t5 48.5l64-123 16 9-72 135-121 10-30-17-17-5-29 6-6 14 5 20 4 5 17 7h15l7-9 16-1 14 5 150-6 73-122 15 10-79 131-32 1q0 2 .5 7t3.5 21q3 16 9 51.5t16 97.5l8 25 25 160q2 10 2 17 0 10-10.5 18.5t-24.5 14q-14 5.5-25 7.5l-39 7zm0-561q-1-8-1.5-15.5T285 345l-83 6-30-14-18-3-18 4-14 6 1 6 30-8 21 10 6 20 10-4 12 6zm-138 15l12-3 7-8-7-19-8-4-33 8 6 16 5 4zm52 51l93-8-5-40-85-3-15-5-10 4-9 11-7 2v21l12 3zm16 495h52v-23l47-11q8-2 20.5-6t22-10q9.5-6 9.5-11 0-3-.5-5.5t-.5-5.5l-27-163-7-27q-10-62-16-96.5t-9-51q-3-16.5-4-21.5t-1-8l-107 3-12-6h-13l-7 9h-1v388h11q0 8 3.5 19t10.5 16q9 6 18 8t11 2zm-82 0h30q-10-10-13-22h-5q-3 13-12 22zM24 982h454v-26H43z" fill="currentColor"/></svg>