<svg xmlns="http://www.w3.org/2000/svg" viewBox="0 0 427.5 602.6"><path d="M314.8 0c-41.7 0-75.6 34-75.6 75.7 0 26.1 13.3 49.1 33.5 62.7-3.7 1.2-7.4 2.5-10.9 4.1-5.5 2.5-10.9 5.4-13.5 11.1-2.8 4.5-5.3 9.2-10.9 10.8-15.4 11.2-20.8 32.7-16.9 50.8 4.4 2.8 14.9-8.8 18-7.3 2.3 10.4 9.7 18.2 13.8 27.8 7.5 13.7 17 26.1 28 37.2-10.6 18.8-19.3 39.1-21.2 60.9-5.1 37.7-6 75.9-6 114-23.1-31.6-46.8-63.2-73.7-91.7l-7.9-10.4c-21.1-28.4-38.7-40.1-55-47.8l-24.9-107c20.2-4.5 42.5-5 66.5-2.1 4.1-14.9 2-28.7-6.2-41.5-33.4 14.5-54.5 21.2-62.3 20.8 14.5-33.4 18.4-61 11.4-83.1-7-22.1-21.7-32-43.6-29.1-21.9 4.5-32.4 19-32.2 42.6s12.8 47.7 38.4 73.7c-13.6 4.1-34 4.3-61.2 1-5 14.9-1.2 29.1 10.4 41.5 22.3-12.8 41.9-20.2 59.2-21.8l14.5 108c-19.4 3.3-27.8 12.3-27 21.8 3.7 8.7 15.3 12.9 34.3 12.4 5.3 13.1 4.7 12.2 9.3 23.9 0 0 3.6 15 5 21.9 9.6 41.3 27.7 80 43.9 119 2.2 8.6 11.7 17.9 4.1 26.1-9.3 15-22.5 27.5-31 43-4.5 10.6-3.9 22.5-2.5 33.7 96.6-.2 193.1-.5 289.7-.7 3.8-37.8 3.8-75.9-.2-113.6-1.8-33.3-2.5-66.6-3.9-99.9 6.5-.6 13.1-1.2 19.6-1.8-4.2-49.1-5.7-98.6-14.8-147.1-5.7-27-12.4-55.1-29.1-77.6-8-9.6-18.4-16.8-29.7-21.8 21.8-13.3 36.5-37.1 36.5-64.4v-.5C390.2 33.7 356.3 0 314.8 0zm0 19.8c30.8 0 55.7 24.7 55.9 55.5v.3c0 30.9-24.9 55.8-55.9 55.8S259 106.5 259 75.6s24.8-55.8 55.8-55.8zm-253.5 62c14 0 19.1 24 14.6 72.7l-2.1 1c-24.4-44.2-29-68.7-12.5-73.7zm238.9 75.3c10.9 1 22.8 5.6 28.6 15.3 2.3 13 1.9 28.3-8.3 38.2-7 8.6-20.4 11.1-23.1 23-1.1 6.5 3.3 17.5-6.9 14.6-8.9-13.1-17-27.1-28.1-38.6 5.6-5.9 11.7-15.1 4.7-22.4-4.7-6.5-15.9-17-1.4-17.7 7-11.8 22.3-12.9 34.5-12.4zm-7.9 10.9c-13-.2-18.4 18.5-8.7 26.3 7.5 7.4 20.9 1.6 22.1-8.5 1.8-8.3-4.4-17.9-13.4-17.8zm64 4.6c19.5 17.3 26 44 30.6 68.7 1.9 11 2.9 22.2 4 33.3-11.7-12.4-28.4-24.1-46.2-19.7-9.1-.1-13.9 16.4-15.2 17.1-1.6-9.9-3.3-19.8-5-29.7 19.2-6.7 27.9-27.3 30.6-45.9 1.3-7.9 1.7-15.9 1.2-23.8zm-113.5 7.5c2.6 4.2 6.6 7.8-.9 5.9-9.3 3.7-1.2-2.8.9-5.9zm111.4 103.6c7.3 1.3 13.5 5.1 18.5 10.5 8.1 32.8 5.2 66.7 4.6 100 .5 12-1.3 24.6-.7 36.9.2 46.6 9.6 92.8 8.2 139.5-74.3.1-148.6.4-223 .5 9.6-19.6 19.1-39.2 28.7-58.7-14-33.1-31.3-64.8-44.6-98.3-5.7-15.4-12.8-31.1-12.8-47.8 1.8-14.4 16.8-3.1 22.4 2.9 27.9 26.9 50.6 58.7 72.9 90.2 20.8 30.1 40.6 61 57.4 93.5-1.2-72.2-4.8-144.7 4.3-216.5 1.3-15.7 8-30.3 15.3-44.1.3 33.5.5 67 .8 100.4h45.9c-.2-36.2-1.2-72.7 2.1-109zm-250.1 25.1c1.1 0 2.4 0 4 .4 5.6 1.2 14.2 5.7 27.3 16.6-7.2-.4-14.3 1.3-19.9 6.3-2.9 2.9-5 6.2-6.6 9.8-.6.6-1.2 1-1.9 1.6l-7.3-19.7c-16.1 1.2-24.1 3.3-25.9-1-1.9-4.3 4.7-7.9 22.8-12.5 2.3 0 4.1-1.4 7.5-1.5z"/></svg>