<svg xmlns="http://www.w3.org/2000/svg" viewBox="-10 0 628 1001"><path d="M39 1001v-43l103-44-45-208q-3-13-6.5-33T87 635q0-18 7-31l-28-72 8-10 18 3-24-74-51 34-17-39 52-15-35-32Q6 389-2 375.5t-8-29.5q0-18 10.5-32T34 300q29 0 40 21.5T85 381v39l46-32 18 37-62 16 50 92 31 5 12 43q8 5 15.5 12.5T211 611l104 128 17-153h-42v-31q0-24 6.5-51t16.5-51q10-24 22-39L193 292h-22l86-71q11-9 24.5-18.5T312 188q-24-13-38.5-36.5T259 99q0-41 29-70t70-29q41 0 70 29t29 70q0 27-13 49.5T409 184q52 9 85 35t51 62.5q18 36.5 25 78t7 81.5v145h-38v338l79 34v43zm319-822q33 0 56.5-23.5T438 99q0-33-23.5-56T358 20q-33 0-56.5 23T278 99q0 33 23.5 56.5T358 179zm-12 219l37-49q12-16 20-40t8-39q0-26-13-49t-48-23q-24 0-42 11t-34 24l-49 40h36v19h-36zm-37 168h25l2-17q7-64 36-93.5t64-29.5q41 0 72 31.5T539 558v8h20V441q0-71-16-116t-41-70.5q-25-25.5-51-37T406 202q14 11 19.5 34.5T431 272q0 24-9 46t-32 53l-32 43q-29 38-39 82.5T309 566zm4-296q-18 0-18-19 0-8 5-13.5t13-5.5q8 0 13.5 5.5T332 251q0 19-19 19zM67 419l-1-38q0-39-8.5-50T34 320q-5 0-15.5 4.5T8 346q0 11 6.5 21T32 386zm-9 562h541v-12l-78-34V557q0-50-21.5-80.5T435 446q-27 0-49.5 23T356 551l-26 218-13 4-117-145q-11-13-24-24.5T146 592q-19 0-30 12.5T105 635q0 15 5 37.5t8 36.5l47 212-107 48zm49-394q16-14 36-14h8.5l8.5 1-6-18-64-10z" fill="currentColor"/></svg>