<svg xmlns="http://www.w3.org/2000/svg" viewBox="-10 0 708 1001.083"><path d="M-9 1001.083v-59h60v-716q-9-1-16.5-7.5t-7.5-18.5v-3q0-7-.5-15t-3.5-13q-5-9-16-15l-3-6q-14 0-14-13v-8h22l72-85q18-21 38.5-32t48.5-10q5 0 21 1.5t25 2.5l385 52q3 0 5.5-.5t5.5-.5q17 0 30.5 4t26.5 8l-3 7q-11 6-16 15-3 5-3.5 13t-.5 15v3q0 12-7.5 18.5t-16.5 7.5v796h75v59zm80-59h103q9-7 18.5-24.5t9.5-39.5v-340l-5-2-11-6-6-32 11-22 11-2v-28l-9-4-8-28 2-10 4-1-2-15 10-4q-3-10-7-18t-8-13h-10v-12h10v-7h-10v-12h10v-7h-10v-12h10v-7h-10v-12h35v-39q0-13-4-19t-9-7q-3 4-6 10.5t-5 10.5q-11 23-14 44t-3 31h-24q-3-8-7-22.5t-5-29.5q-1-22 9-47.5t23-45.5q10-17 17-30.5t10-24.5q2-9 2.5-18.5t.5-15.5h24q5 8 10 24t4 35q0 15-6.5 29.5t-14.5 28.5q9 5 14.5 15t6.5 29v42h35v12h-10v7h10v12h-10v7h10v12h-10v7h10v12h-11q-3 4-6.5 10t-5.5 13l7 1 23 11 76-5q1-28 9-55.5t18-40.5v-35l-24-1-22 45-30-20 37-38-4-31q-5-1-10-1.5t-10-1.5l27-59q-2-6-2-14 0-20 18-35t56-15q43 0 68 26t25 62q0 8-1.5 22t-8.5 29q-7 15-26 25v35q29 11 35 37t5 59l-6 96q5 19 12 37t7 58q0 18-7.5 46t-15.5 62q-8 34-9 70 2 19 3 59.5t1 92.5q0 22-3 45h111v-796q-9-1-16.5-7.5t-7.5-18.5v-3q0-7-.5-15t-3.5-13q-3-4-7-8t-9-7l-2-5-329-44q-13-2-32-3.5t-24-1.5q-28-1-43.5 8.5T97 58.083l-67 81q7-2 14.5-3t16.5-1q18 0 31.5 4t25.5 8l-3 7q-5 3-9 7t-7 8q-3 5-3.5 13t-.5 15v3q0 12-7.5 18.5t-16.5 7.5zm542-809q20 0 20-13v-20l5-16q4-6 8-10-12-5-33-5t-33 5q4 4 8 10 5 7 4.5 16t-.5 17v3q0 13 21 13zm-158 98q18 0 26-14.5t8-47.5q0-29-22-50.5t-53-21.5q-31 0-44 12t-13 22q0 4 .5 6t.5 3h66q1-1 4-2.5t9-1.5q10 0 16.5 8.5t6.5 17.5q0 11-3.5 19.5t-10.5 8.5q-1 1-6 7t-5 16q0 16 20 18zm-304 62h5q-1-19 5-38.5t11-31.5q5-11 14-24.5t13-21.5q6-11 11-26.5t2-39.5h-4q-1 16-9 32t-15 29q-7 12-16.5 28.5t-13.5 32.5q-8 31-3 60zm-90-80q21 0 21-13v-3q0-8-.5-16.5t4.5-15.5q3-6 8-11-12-5-33-5t-33 5q5 5 8 11 5 7 5 15.5v19.5q0 13 20 13zm347 75q15 0 27-4t20-9v-29q-11 0-23.5-6t-12.5-28q0-8 5-16.5t9-13.5q11-1 11-17 0-5-2-10t-9-5q-6 0-8 2l-3 3h-72l-16 39q2 0 5 .5t6 .5l6 44 40 3v44q4 1 8.5 1.5t8.5.5zm-36-111q-6 0-12.5-1.5t-6.5-6.5q0-4 5-6.5t11-2.5q8 0 13 3.5t9 7.5q-4 2-8.5 4t-10.5 2zm59 157q15-1 28-9.5t20-15.5q-4-5-10-9.5t-14-6.5q-20 11-47 11-5 0-10.5-.5t-10.5-1.5l-8 20q8 6 21.5 10t30.5 2zm-233-31h45v-7h-45zm0 19h45v-7h-45zm154 620h125q3-23 3-49 0-49-2-89t-4-59q3-38 10-75.5t13.5-66q6.5-28.5 6.5-36.5 0-34-6.5-54t-10.5-33l7-114q1-17-1.5-26.5t-5.5-16.5q-9 9-24.5 17.5t-31.5 10.5q-18 2-32.5-2.5t-24.5-10.5q-4 12-5.5 25.5t-.5 27.5q1 17 3 38.5t4 45.5l59-113 14 8-66 124-111 9-27-15-5-2-14-2-9 2-14 3-6 12 5 19 1 1 14 8 4 1h5l14-7 1-1 15-1 13 5 138-5 66-112 14 9-72 120-30 1q0 2 1 6.5t3.5 19.5q2.5 15 7.5 47t15 89l7 24 23 147q2 8 2 16 0 14-20 23.5t-35 11.5l-36 8zm-154-601h45v-7h-45zm14 38l18-3q4-15 10-23h-40q3 5 6.5 11.5t5.5 14.5zm140 48l-2-29-76 5-27-12-21-2-25 8 1 6 23-6 22 8 7 18 9-4 11 6zm-127 13l14-5 4-4-5-16-11-6-28 8 4 14 11 7zm48 48l85-8-4-37-79-2-13-5-9 3-8 11-6 2v21l11 1zm-57-16h9v-21h-9zm51 470h69v-21l43-10q7-2 18.5-6t20.5-9q9-5 9-10 0-3-.5-5t-1.5-5l-24-150-6-25q-10-56-15.5-88t-8-47q-2.5-15-3.5-20t-1-7l-98 3-11-6h-12l-7 8v334q0 22 9.5 39.5t18.5 24.5zm-76 0h59q-5-4-15-21t-10-51v-327h-9v327q0 34-10.5 51t-14.5 21zm-183 42h673v-25H8z" fill="currentColor"/></svg>