<svg xmlns="http://www.w3.org/2000/svg" viewBox="0 0 445.4 595.5"><path d="M224.3 70.5c3.1 1 6.5 2.2 10.2 3.4 3.7 1.2 5.9 3.9 6.5 8.1 1.4-4.5 4.2-6.8 8.4-6.8 5.6.3 8.4 2.8 8.4 7.3 0 2.8-.7 5.4-2.1 7.9 2.1 7 6.1 12.4 12.1 16.2 3.8-2.8 9.3-6.7 16.5-11.8 7.1-5 10.7-12.8 10.7-23.3s-4.1-16.9-12.3-19.4c-8.2-2.4-18.4-3.7-30.7-3.7-11.8.1-21.1 7.4-27.7 22.1zm7.3 17.8c-4.2 1.4-7.5 2.1-10 2.1-2.1 0-3.1-1-3.1-3.1 0-1 .2-1.9.5-2.6.3-.7 1.5-1 3.4-.8 1.9.1 5 1.6 9.2 4.4zm-14.2-11c-1 5.2-4 11.5-8.9 18.9-.3.7-.5 1.4-.5 2.1 0 .3 1.1.5 3.4.5s3.1-.3 2.4-1c-.3-.7 0-1.2 1-1.6 1.4 0 2.4.9 3.1 2.6 0 1-1.7 1.9-5.2 2.6v2.1c2.1 1 4.9 2.6 8.4 4.7-1.7 2.1-4.7 4-8.9 5.8.3 1.4.6 2.7.8 3.9.2 1.2 1.3 2 3.4 2.4 8.4-.7 15.3-3.4 18.5-3.4 5.2 3.2 3.2 11 8.2 16.5 2.4 2.1 6.9 3.1 13.4 3.1s11.1-1.4 13.9-4.2c-2.8-5.6-4-11.4-3.7-17.3-8.4-5.6-13.8-11.9-16.2-18.9-3.5 3.5-6.1 5.2-7.9 5.2-3.1 0-4.7-1.4-4.7-4.2 0-2.8 1.7-5.2 5.2-7.3 0-1.7-1.2-2.6-3.7-2.6-.3-4.5-3.7-7.3-10-8.4-4.8-1-8.8-1.5-12-1.5zm16.8 7.8h3.7v2.1h-3.7c-7.3-4.9-12.8-6.3-16.2-4.2-1-.7-1-1.7 0-3.1 4.5-1.7 9.9 0 16.2 5.2zm8.9 10c1 0 1.6.3 1.6 1s-.5 1-1.6 1c-.7 0-1-.3-1-1s.3-1 1-1zm1.6-5.2l3.1-2.1c-1.4-1.4-2.1-2.8-2.1-4.2 0-1 .2-1.9.5-2.6.3-.7 1.4-1 3.1-1 2.8 0 4.2.7 4.2 2.1 0 2.1-.3 3.8-.8 5-.5 1.2-2.5 3.4-6 6.5h-.5c2.8-3.5 4.5-6 5.2-7.6.7-1.6.5-2.9-.5-3.9s-2.1-1-3.1 0-1 2.2.3 3.4c1.2 1.2 1.7 2.2 1.3 2.9l-4.2 2.6-3.7 4.2c-.7 1-.8 1.9-.3 2.6.5.7 1.2 1 2.1.8.9-.2 2.5-1.5 5-3.9 2.4-2.4 4.2-4.5 5.2-6.3 1-1.7 1.6-3.8 1.6-6.3 0-2.8-1.9-4.2-5.8-4.2-3.1 0-5 1.3-5.5 3.9-.4 2.6-.2 5.3.9 8.1zm-35.6 15.7c0 1 .9 1.6 2.6 1.6h4.7l-7.3-1.6zm8.9 3.1l-4.2 1-2.1-.5c-1.4 0-1.9.5-1.6 1.6-.3.3-.2.3.5 0 4.9-1 7.4-1.7 7.4-2.1zm52.9 34.6c-10.8 3.8-19.6 4.4-26.2 1.6-19.6 64.6-25.5 125.9-17.8 183.9 7.7 58 13.8 101.1 18.3 129.4 4.5 28.3 5.1 49.6 1.6 63.9-10.8 14-25 24.8-42.4 32.5h59.2c6.3-1 6.8-9.3 1.6-24.6-.3-2.4-.3-33.2 0-92.2-1-52 .5-90.6 4.7-115.8 9.8-15.4 8.9-34.4-2.6-57.1 13.2-58.4 14.4-98.9 3.6-121.6zm-58.2 93.3h-8.4c-12.2 1.7-23.2 1.9-33 .5v2.1c6.6 0 14.8 4.4 24.6 13.1h14.7l2.1-15.7zm-47.6-118.5c3.1-7.3 3.9-11.7 2.4-13.1-1.6-1.4-3.2-1.4-5 0-1.8 1.4-.9 5.8 2.6 13.1zm8.3 22.1v3.1h5.2v3.7c-3.8.7-5.8 1.9-5.8 3.7h5.8v3.1c-3.8.7-5.8 1.9-5.8 3.7h5.8v3.1c-3.8 1.4-5.8 3.1-5.8 5.2h5.8v3.1c-3.8 1.4-5.9 3.3-6.3 5.8l4.2 17.8H153l4.2-17.8c0-2.4-2.1-4.4-6.3-5.8v-3.1h6.3c0-2.1-2.1-3.8-6.3-5.2v-3.1h6.3c0-1.7-2.1-3-6.3-3.7v-3.1h6.3c0-1.7-2.1-3-6.3-3.7v-3.7h5.2v-3.1h4.2c1-3.1 1.7-8.4 2.1-15.7-2.4 1-5.4 2.6-8.9 4.7-.7-3.8-.7-7.5 0-11 3.5 2.1 6.3 3.3 8.4 3.7-5.2-9.8-7-15.9-5.2-18.3 1.7-2.4 3.5-4 5.2-4.7V82.5c0-3.1-.3-4.4-1-3.7-.7.7-1.9 2.3-3.7 4.7-9.4 17.1-18.3 26.2-26.7 27.2 14-19.9 21.6-32.2 22.8-36.9 1.2-4.7 3.8-8.9 7.6-12.6 3.8-3.7 10.1-11.6 18.9-23.8 2.8 4.9 1.8 10.7-2.9 17.3-4.7 6.6-8.3 11.9-10.7 15.7 1.7 2.1 2.4 5.8 2.1 11v17.3c1.4.7 3 2.3 4.7 4.7 1.7 2.4 0 8.6-5.2 18.3 3.1-.3 5.9-1.6 8.4-3.7.7 3.5.7 7 0 10.5-.7-.3-1.5-.9-2.4-1.6-.9-.7-2.9-1.6-6-2.6 0 7.3.7 12.6 2.1 15.7h3.5zm-131-34.6c6.6-15 13.8-27.1 21.5-36.2-5.9-2.8-13.1-4.2-21.5-4.2s-15.5 1.4-21.5 4.2c7.7 9.1 14.9 21.2 21.5 36.2zm360.5 0c6.6-15 13.8-26.9 21.5-35.6-5.9-3.1-13.1-4.7-21.5-4.7s-15.5 1.6-21.5 4.7c8.1 8.7 15.2 20.6 21.5 35.6zm28.9-29.9c-6.6 4.9-13.4 16.6-20.4 35.1V586h34.1v9.4H0V586h34.1V110.8c-6.6-18.5-13.4-30.4-20.4-35.6C9.8 77.3 6.9 77.9 5 77c-1.9-.9-1.1-3.4 2.4-7.6 7.3-9.1 16.4-13.6 27.2-13.6-.3-21 7-36 22-45.1S91.4-1.7 115.8.7c24.5 2.4 108.3 12.4 251.5 29.9 29.3 2.1 44 10.5 44 25.2 10.5 0 19.4 4.7 26.7 14.1 3.5 3.8 4.3 6.3 2.4 7.3-1.9 1.1-4.8.6-8.6-1.5zM144.1 569.3l-10 16.8h147.2v-16.8H144.1zm147.8-8.9v25.7h102.7l.5-475.2c-7-18.5-13.8-30.2-20.4-35.1-4.2 2.1-7.2 2.6-9.2 1.6-1.9-1-1.1-3.5 2.4-7.3 7.3-9.4 15.9-14.1 25.7-14.1 1.4-7-13.8-11.5-45.6-13.6-131.8-15.6-208.6-24.8-230.6-27.7-22-3-38.6-.5-49.8 7.3S50.8 41.1 50.8 55.8c10.5 0 19.4 4.5 26.7 13.6 3.5 4.2 4.3 6.7 2.4 7.6-1.9.9-4.8.3-8.6-1.8-6.6 5.2-13.4 17.1-20.4 35.6V586h69.7l16.2-25.7h21.5c1-7 8.2-10.5 21.5-10.5 31.1-12.6 49.6-26.9 55.5-43 1.4-13.3-.7-38.8-6.3-76.5s-10-70.5-13.4-98.2c-3.3-27.8-5.5-47.4-6.5-58.9l-37.7 4.7v229c7 1.7 10.5 6.8 10.5 15.2.3 2.4-.3 5.1-2.1 7.9-1.7 2.8-1.3 6.1 1.3 10s1.1 4.4-4.5 1.6c-5.6-2.8-6.6-9.3-3.1-19.4-.3-4.9-3-7.3-7.9-7.3-5.2 0-8 2.4-8.4 7.3 4.5 10.1 3.4 16.7-3.4 19.6s-8.2 2.4-4.2-1.6c4-4 4.8-7.4 2.4-10.2-2.4-2.8-3.5-5.4-3.1-7.9.3-8.4 4-13.4 11-15.2V277.5c-5.2-1-7.9-2.5-7.9-4.5 0-1.9-.6-3.4-1.8-4.5-1.2-1-1.5-2.2-.8-3.4.7-1.2.4-2.3-.8-3.1-1.2-.9-1.6-2-1-3.4.5-1.4.4-3-.3-4.7-.7-1.7-.3-3.5 1-5.2-2.1-1.4-3.5-3-4.2-4.7-.7-1.7.2-3.3 2.6-4.7 4.5.3 8.9.3 13.1 0v-2.6c-3.5-.3-6.8-1.6-10-3.7-2.4-2.4-3-5.1-1.6-7.9-1.7-1.7-1.7-3.7 0-5.8-2.4-1.7-2.6-3.7-.5-5.8-1.7-1-1.7-2.3 0-3.7-2.4-.7-4.2-1.9-5.2-3.7-.3-1.7.9-3.3 3.7-4.7h13.6v-8.9h11.5v9.4c8.7 0 17.1 4.5 25.2 13.6h19.4c4.2-22.4 10.8-48.6 19.9-78.6-2.4-3.8-3.8-8.6-4.2-14.1-2.4.7-6.5 1.2-12.1 1.6l-10.7 31.1-11.6-.5c1.4-6.7 11-25.2 12.4-34.3l-1-6.3c-2.4-1-3-3-1.6-5.8-1-1-1.6-2.4-1.6-4.2 1.7-.7 2.6-1.7 2.6-3.1-2.4 0-4-.9-4.7-2.6-.3-1.4.9-4 3.7-7.9 2.8-3.8 4.5-6.8 5.2-8.9.7-2.1 1.2-4.9 1.6-8.4 2.4-7.7 6.7-15.4 12.8-23.1 6.1-7.7 20.4-10.7 43-8.9 22.5 1.7 33.8 11.4 33.8 28.8 0 17.5-7.9 29.7-23.6 36.7-2.4 1.7-4 4.2-4.7 7.3-1.4 6.3.2 13.6 4.7 22 3.5-9.1 7.2-14.6 11-16.5 3.8-1.9 7.8-2.1 11.8-.5 4 1.6 6 4.3 6 8.1l5.8 72.8h-19.9l2.1-69.7c0-2.4-.9-3.7-2.6-3.7-2.8 0-4.9 3-6.3 8.9V148c6.3 19.6 4.4 58.5-5.8 116.8 9.1 21 10.1 41.7 3.1 62.4-3.8 4.2-5.6 16.9-5.2 38.3V529c5.2 15 5.8 25.5 1.6 31.4h10.5z"/></svg>