<svg xmlns="http://www.w3.org/2000/svg" viewBox="-10 0 429 1000"><path d="M-10 1000v-33l81-29q13-4 10-14-3-7-15-31t-26.5-53.5Q25 810 14 785.5T3 755v-32q2-9 12-26.5T37 661q12-18 20-29-6-8-19-24t-25-33Q1 558-1 547v-26q2-9 11.5-28.5t23-43.5q13.5-24 28-45T87 371l24-16q-11-27-11-50v-57q-4-7-4-16 0-21 24-27l-6-32q-16-22-38-47.5T41 87q4-9 12.5-22t21-23Q87 32 100 32q5 0 11.5 1.5T120 39q5-13 17.5-26T171 0q12 0 21 4.5t14 9.5q5-5 14-9.5T241 0q22 0 34 13t17 26q2-4 8.5-5.5T313 32q13 0 25 10t20.5 23Q367 78 371 87q-13 13-35.5 38.5T298 173l-6 32q24 6 24 27 0 9-4 16v57q0 23-13 52l22 14q12 12 26.5 33t28 45q13.5 24 22.5 43.5t11 28.5v26q-2 11-13.5 28T371 608q-13 16-20 24 9 11 20.5 29t21.5 35.5q10 17.5 13 26.5v32q0 6-11 30.5t-25.5 54Q355 869 343 893t-15 31q-3 9 9 14l82 29v33H243v-46q6-11 10.5-31t9.5-44q8-33 15-66t20-55q-9-5-25.5-15.5t-33-23Q223 707 214 695h-1v172q8 5 13.5 19.5T232 918q0 22-8.5 38.5T204 973q-12 0-20-16.5t-8-38.5q0-18 5-32.5t14-19.5V695h-1q-9 12-25.5 24.5t-33 23Q119 753 110 758q13 22 20.5 55t14.5 66q5 24 9.5 44t10.5 31v46zm225-827h19q4-25 15-58.5T278 49q-4-11-13-21t-24-10q-9 0-16 3.5T215 29zm-37 0h19V29q-2-4-9-7.5T171 18q-15 0-24 10t-13 21q18 32 29 65.5t15 58.5zm75 0h24q12-21 35-48t38-42q-5-11-14.5-22T313 50q-3 0-8.5 1t-9.5 6q-17 31-28 61.5T253 173zm-118 0h25q-4-24-14.5-54.5T118 57q-5-5-10-6t-9-1q-13 0-22.5 11T62 83q15 15 38 42t35 48zm-1 30h144l3-15H131zm85 141v-26q20-10 28-18t12-16q2-4 6-10.5t10-11.5q8-7 15-15t7-15q0-6-7.5-8.5T262 221H150q-20 0-28 2.5t-8 8.5q0 7 7.5 15t14.5 15q7 5 10.5 11.5T152 284q5 8 13 16t27 18v25l12-1zm19-73q-8 0-13-4t-7-9q2-5 7-9t13-4q9 0 13.5 4t6.5 9q-2 5-6.5 9t-13.5 4zm-65 0q-8 0-13-4t-7-9q2-5 7-9t13-4q16 0 20 13-4 13-20 13zm3 135v-76q-17-10-26-19t-14-18q-3-5-5.5-10t-6.5-9l-5-3v42q2 17 10 37t20.5 35.5Q162 401 176 406zm60 0q14-5 26.5-20.5T283 350q8-20 10-37v-42l-5 3q-4 4-7 9t-5 10q-5 9-14 18t-26 19zM5 984h142v-25q-6-11-11-32.5t-9-43.5q-8-31-16-65t-24-60l-1-10q9-4 30-16.5t41-27q20-14.5 25-27.5h45q5 13 24.5 27.5t40.5 27q21 12.5 30 16.5v10q-17 26-25 60t-15 65q-5 22-10 43.5T262 959v25h141v-6l-66-23q-16-6-24-16.5t-3-21.5l77-161v-30q-4-10-15.5-29t-24-37.5Q335 641 326 632q-13-16-36-39.5T252 556v-5l44-81h4l49 57v10l-33 56q7 7 13 13.5t10 11.5q13-15 30.5-37.5T391 547v-24q-2-8-10.5-26T359 457.5Q346 436 332.5 416T308 384l-17-11q-12 20-30 36t-42 23v-70l-15-2-12 2v70q-24-7-42.5-23.5T119 372l-19 12q-11 12-24.5 32t-26 41.5Q37 479 28 497t-10 26v24q5 11 21.5 33.5T69 618q5-5 11-11.5T92 593l-32-56v-10l48-57h4l45 81v5q-15 13-38.5 36.5T82 632q-8 9-21 27.5T36.5 697Q25 716 21 726v30l77 161q6 11-2 21.5T72 955L5 978zm100-404q17-19 30-30l-28-51-29 34q7 12 13.5 23.5T105 580zm198 0q7-12 14-23.5t14-23.5l-29-34-28 51 13 13 16 17zm-99 378q6 0 9.5-12t3.5-28q0-16-3.5-27.5T204 878h-1q-5 1-8.5 12.5T191 918q0 16 3.5 28t9.5 12z" fill="currentColor"/></svg>