<svg xmlns="http://www.w3.org/2000/svg" viewBox="-10 0 579 1002"><path d="M-10 1002v-43l103-44-45-178q-3-13-6.5-33.5T38 666q0-25 16.5-43.5T94 604q23 0 39 11t29 27l104 128 17-153h-42v-32q0-23 6-50.5t16.5-51.5q10.5-24 22.5-39L145 322h-23l86-70q13-10 26-19t28-15q-51-14-83-52.5T146 70l29-1q20 65 77 93-24-26-24-64 0-40 28.5-69T326 0q41 0 70 29t29 69q0 37-24 64 57-30 75-93l29 1q-2 58-35 97t-86 53q57 16 88 55.5t43.5 91Q528 418 528 472v145h-38v308l79 34v43zm336-824q33 0 56.5-23.5T406 98q0-33-23.5-56T326 19q-33 0-56.5 23T246 98q0 33 23.5 56.5T326 178zm0 32q39 0 73.5-13t58-39Q481 132 487 93q-20 46-64 75t-97 29q-54 0-97.5-29T165 93q6 39 29.5 65t58 39q34.5 13 73.5 13zm-29 219l38-49q12-16 19.5-40t7.5-40q0-26-13-48.5T301 229q-24 0-42 11t-34 24l-49 40h36v18h-36zm-37 168h25l2-17q7-64 36-93.5t64-29.5q40 0 71.5 31.5T490 588v9h20V472q0-72-16-117t-40.5-70Q429 260 403 248.5T358 233q13 11 18.5 34.5T382 302q0 25-9 47t-32 53l-32 42q-29 39-39 83.5T260 597zm4-296q-18 0-18-19 0-8 5.5-13.5T264 263q8 0 13.5 5.5T283 282q0 19-19 19zM9 982h541v-12l-78-34V588q0-50-21.5-80.5T386 477q-27 0-49.5 23T307 582l-26 217-12 5-118-145q-10-13-24-24.5T97 623q-19 0-30 12.5T56 666q0 15 5 37.5t8 36.5l47 182L9 970z" fill="currentColor"/></svg>