<svg xmlns="http://www.w3.org/2000/svg" viewBox="-10 0 579 1001"><path d="M-10 1001v-43l103-44-45-178q-3-13-6.5-33.5T38 665q0-25 16.5-43.5T94 603q23 0 39 11t29 27l104 128 15-161-50-64q7-7 16-19.5t20-26.5h-18v-46q0-21 7-33.5t16.5-21Q282 389 289 379t7-26q0-15-3.5-23t-6.5-11l-73 26q-14 4-29.5 2T163 331q-9-23-9.5-27.5t.5-6.5q-1-1-3-2.5t-6-10q-4-8.5-13-30.5-9-23 1-42t28-26l59-23q7-3 25.5-10t38.5-12q-7-5-15-14-8 3-17 3-23 0-38-12t-23-28q-8-16-8-29 0-10 7-18.5T210 31q-7 1-15-3t-8-10q0-5 8-10.5T216 2q17 0 24 9.5t7 17.5q0 13-4 23.5T239 77q0 12 4.5 18.5T254 98q-3-9-3-21 0-32 23-54.5T329 0q32 0 54.5 22.5T406 77v6l-1 6 42 46-7 13q-9-7-22.5-17T396 116v-1q-5 8-10.5 14.5T373 141q56 13 94 61t38 149v147h-24q6 27 9 63l18 248-17 115 78 34v43zm261-884q5 0 9-2l-2-3q-1 0-3 .5t-3 .5q-11 0-19.5-9.5T224 77q0-18 3.5-27t3.5-21q0-5-3.5-10.5T216 13q-7 0-10 2t-3 3q0 3 10 5.5t13 3.5v10q-10 3-17.5 8.5T201 61q0 17 11 36.5t39 19.5zm78 18q23 0 40.5-17T387 77q0-24-17.5-41T329 19q-25 0-41.5 17T271 77q0 24 16.5 41t41.5 17zM207 327l98-35q14-5 23-14t2-27l-7-18 11-4q13-4 18-15.5t-2-26.5l-4-9q-5-9-12-15t-20-7q-7 0-29.5 6T251 172l-80 30q-14 5-20.5 19t-.5 29l14 33 67-26 7 17-67 27 7 17q7 17 29 9zm60 153h15q22-25 48.5-45t56.5-20q34 0 55.5 16t33.5 49h10V351q0-64-17-103.5t-46-60Q394 167 358 160l9 19q9 20 4 38t-16 23l-7 3 3 9q7 18-3.5 33T312 310l-7 2q4 5 7 15t3 26q0 20-7 30.5T291 402q-10 8-17 19t-7 31zm7-265q-14 0-14-13 0-14 14-14t14 14q0 13-14 13zM9 981h541v-12l-81-34 18-116-16-259q-4-59-23-92.5T386 434q-20 0-38.5 13.5t-35.5 33Q295 500 281.5 518T258 546l41 56-18 196-12 5-118-145q-10-13-24-24.5T97 622q-19 0-30 12.5T56 665q0 15 5 37.5t8 36.5l47 182L9 969z" fill="currentColor"/></svg>