<svg xmlns="http://www.w3.org/2000/svg" viewBox="-10 0 579 1001"><path d="M-10 1001v-43l103-44-45-208q-3-13-6.5-33T38 635q0-24 16.5-43T94 573q23 0 39 11t29 27l104 128 17-153h-42v-31q0-24 6-51t16.5-51q10.5-24 22.5-39L145 292h-23l86-71q11-9 24.5-18.5T263 188q-23-13-38-36.5T210 99q0-41 29-70t70-29q41 0 70 29t29 70q0 27-13 49.5T360 184q52 9 85 35t51 62.5q18 36.5 25 78t7 81.5v145h-38v338l79 34v43zm319-822q33 0 56.5-23.5T389 99q0-33-23.5-56T309 20q-33 0-56.5 23T229 99q0 33 23.5 56.5T309 179zm-12 219l38-49q12-16 19.5-40t7.5-39q0-26-13-49t-48-23q-24 0-42 11t-34 24l-49 40h36v19h-36zm-37 168h25l2-17q7-64 36-93.5t64-29.5q40 0 71.5 31.5T490 558v8h20V441q0-71-16-116t-40.5-70.5Q429 229 403 217.5T358 202q13 11 18.5 34.5T382 272q0 24-9 46t-32 53l-32 43q-29 38-39 82.5T260 566zm4-296q-18 0-18-19 0-8 5.5-13.5T264 232q8 0 13.5 5.5T283 251q0 19-19 19zM9 981h541v-12l-78-34V557q0-50-21.5-80.5T386 446q-27 0-49.5 23T307 551l-26 218-12 4-118-145q-10-13-24-24.5T97 592q-19 0-30 12.5T56 635q0 15 5 37.5t8 36.5l47 212L9 969z" fill="currentColor"/></svg>