<svg xmlns="http://www.w3.org/2000/svg" viewBox="-10 0 579 1001"><path d="M-10 1001v-43l79-34V586H31V441q0-40 7-81.5t25-78Q81 245 114 219t85-35q-22-13-35-35.5T151 99q0-41 29-70t71-29q40 0 69 29t29 70q0 29-14.5 52.5T296 188q17 5 30.5 14.5T351 221l86 71h-22L274 414q11 15 21.5 39t16.5 51q6 27 6 51v31h-42l17 153 104-128q14-16 30-27t38-11q24 0 40.5 19t16.5 43q0 18-4 38t-7 33l-45 208 103 44v43zm260-822q33 0 56.5-23.5T330 99q0-33-23.5-56T250 20q-33 0-56.5 23T170 99q0 33 23.5 56.5T250 179zm12 219l121-106h-36v-19h36l-48-40q-16-13-34.5-24T258 198q-35 0-48 23t-13 49q0 15 8 39t20 40zM49 566h20v-8q0-69 31-100.5t72-31.5q35 0 64 29.5t37 93.5l1 17h25q0-25-10-69.5T250 414l-32-43q-23-31-32-53t-9-46q0-12 5.5-35.5T202 202q-19 4-45 15.5t-51 37Q81 280 65 325T49 441zm246-296q-19 0-19-19 0-8 5.5-13.5T295 232q8 0 13.5 5.5T314 251q0 8-5.5 13.5T295 270zM9 981h541v-12l-107-48 47-212q3-14 8-36.5t5-37.5q0-18-11-30.5T462 592q-17 0-30 11.5T408 628L291 773l-13-4-25-218q-8-59-30.5-82T173 446q-43 0-64.5 30.5T87 557v378L9 969z" fill="currentColor"/></svg>