<svg xmlns="http://www.w3.org/2000/svg" viewBox="0 0 374.8 594.6"><path d="M357.9 594.6H24.3l-4-31.3L79 539.1C60.8 465.2 34.8 399.8 1 343c-4.3-30 4.8-50.8 27.3-62.3s48 2 76.4 40.6l89.2 118.2V307.6h-34.6c-4.8-70.2-1.7-116.7 9.2-139.5 11-22.8 25.2-38.9 42.6-48.2 17.4-9.4 25.9-25.3 25.3-47.8-14.5-6.4-41.3-2.8-80.4 10.9-39.1 13.7-70.5 37.6-94 71.9-9.1 8.6-15.4 11.8-18.9 9.6-3.5-2.1-3.3-8.3.4-18.5 12.9-27.9 30.9-51.3 54.3-70.3 23.3-19 54.5-33.1 93.6-42.2 11.3-18.8 25.7-28.1 43.4-28.1 4.3-4.3 11.4-6 21.3-5.2 9.9.8 22.5 3.2 37.8 7.2 15.3 4 32.4 13.9 51.4 29.7 19 15.8 28.8 47.6 29.3 95.3v207.4h-28.1c1.1 76.6-7.2 146-24.9 208.2l36.3 46.6zm-75.5-305.4v-68.3c2.1-29.5 12.7-43.4 31.7-41.8s29.1 12.1 30.1 31.3v108.5h13.7V212c2.1-69.1-.9-114.4-9.2-135.8-8.3-21.4-25.9-37.8-52.6-49 6.4 33.8 1.9 61.8-13.7 84s-20.5 40.5-14.9 54.7c5.6 14.2 7.6 39.5 6 76v47.4h8.9zm-103.7 2.4h16.1l14.5-77.2c-13.4-12.3-20.9-27.1-22.5-44.2-10.8 28.4-13.5 68.9-8.1 121.4zM49.3 573.7h258l-13.7-15.3c20.4-84.1 29.5-158.3 27.3-222.7V214.4c-7-20.9-13.7-20.6-20.1.8v92.4h-47.4v-98.9l-22.5 7.2c-8 24.1-13.1 56.3-15.3 96.5v167.2h-26.5L79.8 338.2c-16.1-25.7-31.1-35.5-45-29.3-13.9 6.2-3.2 40.3 32.2 102.5l44.2 134.2-61.9 28.1zM255 65.7c0 26.8-8.6 48-25.7 63.5s-24 30.4-20.5 44.6c3.5 14.2 11.8 19.6 24.9 16.1 13.1-3.5 17.5-12.7 13.3-27.7-4.3-15 .9-32.3 15.7-51.8C277.4 90.8 284 71 282.4 50.9c-1.6-20.1-11.3-30.9-28.9-32.6 11.7 17.1 12.2 32.9 1.5 47.4zM206.8 40c-15.5 2.7-38.2 10.9-67.9 24.5-29.7 13.7-52.6 32-68.7 55.1-16.1 23-23.2 34.8-21.3 35.4 1.9.5 10.2-8.6 24.9-27.3s32.6-33.8 53.5-45 49.3-19.8 85.2-25.7c27.9 3.8 40.3-1.7 37.4-16.5C247 25.8 240 18.8 229 19.6c-11.1.7-18.4 7.5-22.2 20.4zm9.6-2.4c2.7-9.1 7.5-12.9 14.5-11.3 7 1.6 8.3 4.8 4 9.6-4.3 4.9-10.4 5.4-18.5 1.7z"/></svg>