<svg xmlns="http://www.w3.org/2000/svg" viewBox="-10 0 609 1001"><path d="M-10 1001v-43l103-44-50-227q-3-14-5.5-34T35 615q0-25 17.5-43.5T94 553q28 0 41 10.5t27 28.5l104 128 16-222h-58v-55q0-20 2-38t5-34q-31-8-41.5-25T179 312q0-24 8.5-51t20-53q11.5-26 20-47t8.5-32q0-16-10.5-23T176 99q-33 0-62 7.5T49 138L6 166l-12-19 112-75q49-32 93-52t96-20q70 0 118.5 18.5t80 49.5Q525 99 542 135.5t24 73q7 36.5 7 65.5v224h-53v426l79 34v43zm246-649q7-28 15.5-45l12.5-25q-12-12-12-42 0-20 14-42.5t33-45q19-22.5 33-44T346 69q0-28-20.5-38.5T283 20q-38 0-69.5 14.5T160 61l-60 33q25-7 40.5-10t38.5-3q46 0 61.5 12t15.5 36q0 14-8.5 36.5t-20 49Q216 241 207.5 266t-8.5 43q0 7 6 21.5t31 21.5zm7 129h40l4-54q4-64 36-100.5t79-36.5q52 0 85 38.5T520 436v45h34V273q0-68-26-122.5t-71.5-88Q411 29 350 23q9 12 12 25t3 24q0 19-14 40.5t-33 44q-19 22.5-33 45T271 245q0 13 5.5 21.5T287 283q-19 28-31.5 69.5T243 443zm35-408q-18 0-18-19 0-7 5.5-12.5T278 36q19 0 19 18 0 19-19 19zM9 981h570v-12l-78-34V435q0-33-10-61.5T459 327q-22-18-59-18t-63 30.5Q311 370 307 429l-26 320-12 5-118-146q-10-13-24-24t-30-11q-19 0-31.5 12T53 616q0 15 4 37t7 36l52 232L9 969z" fill="currentColor"/></svg>