<svg xmlns="http://www.w3.org/2000/svg" viewBox="-10 0 694 1001"><path d="M-10 1001v-43l103-44-50-227q-3-14-5.5-34T35 615q0-25 17.5-43.5T94 553q27 0 40.5 10.5T162 592l104 128 21-242h-48v-32q0-33 13-67.5t36-63.5q29-37 39-51t11-27q-7 4-19 7.5t-25 3.5q-25 0-55-6.5t-60-8.5q-13 16-13 35h-32q-7-11-4-39-10-3-18.5-6T99 218q-4-3-6.5-11T90 191q0-15 6-21 27-26 57-39t42-17q0-1 12.5-9.5t33-20Q261 73 287 66v-3q-4-2-21-2-13 0-29 8t-33 8q-11 0-23-7t-25-13.5Q143 50 128 50q-24 0-41.5 11T52 72Q24 72 7.5 53T-9 0h24q1 13 7.5 23T52 33q14 0 33.5-11.5T127 10q16 0 29 7.5T180 32q11 7 25 7 17 0 38.5-8.5T284 22q14 0 26.5 6.5T329 42h16q7-7 19.5-13.5T390 22q19 0 41 8.5t39 8.5q13 0 24.5-7t24-14.5Q531 10 547 10q22 0 42 11.5T622 33q24 0 30.5-10T660 0h24q0 34-17 53t-45 19q-17 0-34-11t-41-11q-16 0-29 6.5T493 70q-12 7-23 7-17 0-33-8t-29-8q-17 0-21 2v3q68 17 107.5 58.5t55.5 96Q566 275 566 331v147h-46v446l79 34v43zm269-542h30q8-55 39-86t74-31q46 0 77.5 30.5T518 459h28V331q0-40-10.5-83.5t-35-82Q476 127 436 103t-99-26q-33 0-63.5 13.5t-50 27L204 131q-12 4-39.5 16T109 184v7h83v15h-78q15 3 40.5 6.5T208 220q28 4 50.5 6.5T290 229q24 0 41.5-9.5T357 201q6 28-1 48.5t-22 39Q319 307 303 328q-44 56-44 118zm29-305q-21 0-41-13 8-8 17-13.5t23-5.5q22 0 39 17-10 8-18.5 11.5T288 154zM9 981h570v-12l-78-34V487q0-33-10-61.5T459 379q-22-18-59-18t-62 30.5Q313 422 307 481l-26 268-12 5-118-146q-10-13-24-24t-30-11q-19 0-31.5 12T53 616q0 15 4 37t7 36l52 232L9 969z" fill="currentColor"/></svg>