<svg xmlns="http://www.w3.org/2000/svg" viewBox="0 0 411.3 611.2"><path d="M49.4 12.4c-2.2 11.6-.6 20.7 5 27.3 5.5 6.6 13.5 9.9 24 9.9h20.7c0-2.8-10.5-5-31.5-6.6C56 37 50.2 31.2 50.2 25.7l.8-.8h1.7c4.4 11 14.1 16.6 29 16.6 11.6 0 20.4 4.1 26.5 12.4 8.8 5.5 15.7 8.3 20.7 8.3 6.1 0 15.6-2.2 28.6-6.6 13-4.4 24.7-3.3 35.2 3.3l5.8-2.5c-3.9-6.1-9.9-9.1-18.2-9.1l-31.5 3.3c-5 0-13.8-2.8-26.5-8.3-12.8-5.6-26-8.3-39.8-8.3-13.3 0-21.7-3.3-25.3-9.9-3.6-6.6-5.7-10.5-6.2-11.6h-1.6zm351.9.8c-.6 8.3-3.6 15.9-9.1 22.8s-16.3 11.2-32.3 12.8v.8c17.7 0 29.1-4 34.4-12 5.2-7.9 7.6-16.1 7-24.4zm-4.1 0c-3.9 14.4-10.6 21.7-20.3 21.9-9.7.3-18.6-.7-26.9-2.9-8.3-2.2-18.8.3-31.5 7.5s-28.4 10.8-47.2 10.8c-12.1 0-25.1 8-38.9 24h.8c12.1-12.1 24.3-18.2 36.4-18.2 13.8 0 24.7 1 32.7 2.9 8 1.9 17.4-.1 28.2-6.2 10.8-6.1 24.7-10.4 41.8-12.8 17.1-2.5 25.7-11.5 25.7-26.9h-.8zM203.4 156.5c0-10.5 6.3-21 19-31.5 6.6-.6 9.4-7.5 8.3-20.7-6.6.6-14.2 2.8-22.8 6.6-8.6 3.9-15.9 5.8-21.9 5.8-13.8 0-20.7-3.3-20.7-9.9 0-6.1 8.6-11.6 25.7-16.6 10.5-7.7 23.2-11.9 38.1-12.4l-3.3-4.1c2.2-2.8 7.3-8.1 15.3-16.1s22.5-12 43.5-12v-1.7c-11.6-5-21.3-7.5-29-7.5-9.9 0-21.5 5.8-34.8 17.4-11.6 7.7-21 11.9-28.2 12.4-2.8 2.2-5.2 3.6-7.5 4.1v.8l9.9-.8c1.7.6 2.2 1.7 1.7 3.3 0 .6-5.8 1.4-17.4 2.5-6.1.6-11.6 4.4-16.6 11.6H159c-1.4 0-1.8-.8-1.2-2.5 4.4-8.3 11-12.7 19.9-13.2h-3.3c-7.7 0-14.4 3.9-19.9 11.6-9.4 1.7-22.6 9.9-39.7 24.8-2.2.6-3.9 1.9-5 4.1h9.1c1.1 0 1.5 1 1.2 2.9-.3 1.9-1.2 2.9-2.9 2.9h-7.5c-2.2 0-3.3.8-3.3 2.5 0 2.2.8 4.1 2.5 5.8l14.1-9.1c2.2 0 3 1.1 2.5 3.3l-13.2 9.1v.8h48.9c12.7 0 20.7 4.8 24 14.5 3.3 9.8 9.4 13.5 18.2 11.3zM142.1 43.1c6.1 1.7 18.8 1.4 38.1-.8 9.9-1.7 17.9 1.9 24 10.8l8.3-4.1c-7.7-7.2-18.5-10.8-32.3-10.8-7.2-.1-19.9 1.5-38.1 4.9zm105.2 172.2c0-16.6 9.7-24.8 29-24.8s29 8 29 24l5.8 44.7h37.3v-44.7c0-39.7-8.3-73.4-24.8-101-16.6-27.6-34.2-41.4-53-41.4-9.9 0-18.8 2.8-26.5 8.3v32.3c0 12.1-3.9 18.2-11.6 18.2-8.8 7.2-13.5 14.1-14.1 20.7L206 259.3h32.3l9-44zM178.6 78.7c3.3 0 5.8 1.9 7.5 5.8 0 3.9-4.7 6.6-14.1 8.3-3.3 0-5-1.1-5-3.3 0-5.6 3.8-9.2 11.6-10.8zm53.8 3.3v15.7h2.5V80.3l-2.5 1.7zm-4.2.8v14.9h.8V82l-.8.8zM171.9 106c3.3 3.9 8.6 5.4 15.7 4.6 7.2-.8 18.8-4.6 34.8-11.2h.8V84.5c-10.5 0-20.4 3.6-29.8 10.8-14.3 5.5-21.5 9-21.5 10.7zM191 259.2l12.4-83.6c-2.8-6.1-6.9-6.1-12.4 0l-14.1 83.6H191zm129.2 14.1c-5 93.3-18.2 191.3-39.7 294l42.2 43.9H14.6l-3.3-27.3 53-23.2h.8C28.1 456.3 7.7 400.3 3.8 392.5c-8.8-25.9-2.3-43.6 19.5-53 21.8-9.4 39.6-4.7 53.4 14.1L164.5 472h.8c9.4-93.3 17.9-159.6 25.7-198.7h-28.2l13.2-82c0-11.6 3-21 9.1-28.2-7.7-5-12.1-10.6-13.3-17-1.1-6.3-14.9-8.7-41.4-7l3.3 10.8h-28.2l3.3-13.3c-2.2-.6-3.3-2.5-3.3-5.8-4.4-2.8-6.6-5.5-6.6-8.3s1.1-5.2 3.3-7.5c0-6.6 3.9-11.6 11.6-14.9 12.1-11.6 23.7-19 34.8-22.4 5.5-9.9 16.8-14.1 34-12.4l3.3-.8c-3.9-1.1-8.6-1.7-14.1-1.7s-12.6 1.5-21.1 4.6c-8.6 3-16.1 4.3-22.8 3.7-7.2 0-16-4.1-26.5-12.4H79.2c-14.4 0-24.3-4-29.8-12s-8.3-16.1-8.3-24.4c0-13.2 2.5-20.4 7.5-21.5 4.4-.6 8.1 3.3 11.2 11.6 3 8.3 11.9 12.1 26.5 11.6 14.6-.6 30.5 2.8 47.6 9.9 24.3-4.4 39.7-6.6 46.4-6.6 15.5 0 28.2 4.4 38.1 13.2 12.6-10.4 23.6-15.7 33-15.7 9.4 0 19 2.2 29 6.6 11 5.5 23 4.4 36-3.3s24.6-10.2 34.8-7.5c10.2 2.8 18.6 4.8 25.3 6.2 6.6 1.4 11.9-4.6 15.7-17.8 1.7-6.1 4.7-9.1 9.1-9.1 6.6 0 9.9 5.5 9.9 16.6 0 8.8-3.9 19-11.6 30.6-6.6 8.3-21.3 11-43.9 8.3-12.1 2.2-20.7 5.2-25.7 9.1-5 3.9-13.5 5.8-25.7 5.8 21 13.8 36 34.6 45.1 62.5 9.1 27.9 13.7 55.1 13.7 81.6v58.8h-42.9zm-23.2 0l-6.6-58c0-6.6-4.7-9.9-14.1-9.9-9.9 0-14.9 3.3-14.9 9.9l-9.9 58h-39.7c-11.6 44.7-20.4 120.4-26.5 226.9l-18.2 9.9-107-143.2c-26.5-16-37-6.6-31.5 28.2l64.6 175.6L46 591.4h227l-17.4-10.8C285.4 441.4 299.2 339 297 273.3z"/></svg>