<svg xmlns="http://www.w3.org/2000/svg" viewBox="0 0 521.6 626.6"><path d="M107.2 364.3c6.8-9.6 16.7-15 29.7-16.1-17.5-19.8-33.7-25.2-48.4-16.1-14.7 9.1-15.3 13.3-1.7 12.7 13.6-.6 20.4 5.9 20.4 19.5zm42.4-352.4c-2.3 11.9-.4 21.4 5.5 28.4 5.9 7.1 14.3 10.6 25 10.6h20.4c0-2.8-10.8-5.4-32.3-7.6-11.3-5.7-17-11.3-17-17l.8-1.7h.8c5.1 11.3 15.3 17 30.6 17 11.9 0 20.9 4.2 27.2 12.7 9.1 5.7 16.1 8.5 21.2 8.5 6.2 0 16-2.1 29.3-6.4s25.3-3.3 36.1 3l5.9-2.5c-4-6.2-10.2-9.3-18.7-9.3L251.3 51c-4.5 0-13.3-2.8-26.3-8.5S198.4 34 184.2 34c-13.6 0-22.4-3.4-26.3-10.2-4-6.8-5.9-10.8-5.9-11.9h-2.4zm361.8.8c-.6 8.5-3.7 16.3-9.3 23.4-5.7 7.1-16.7 11.5-33.1 13.2V51c18.1 0 29.9-4.2 35.2-12.7 5.3-8.6 7.7-17.1 7.2-25.6zm-4.3 0c-4.5 14.7-11.6 22.2-21.2 22.5-9.6.3-18.7-.6-27.2-2.5-8.5-2-19.4.6-32.7 7.6-13.3 7.1-29.3 10.6-48 10.6-12.5 0-25.8 8.2-39.9 24.6h.8c12.5-12.5 24.9-18.7 37.4-18.7 14.2 0 25.3 1 33.5 3s17.8 0 28.9-5.9c11-5.9 25.2-10.3 42.5-13.2 17.3-2.8 25.9-12.1 25.9-28zM308.4 160.5c0-11.3 6.5-22.1 19.5-32.3 6.8-1.1 9.6-8.5 8.5-22.1-6.8.6-14.6 2.8-23.4 6.8-8.8 4-16.3 5.9-22.5 5.9-14.2 0-21.2-3.1-21.2-9.3v-.8c0-6.2 8.8-11.9 26.3-17 10.8-7.9 23.8-11.9 39.1-11.9l-3.4-5.1c1.7-2.3 6.8-7.6 15.3-16.1 8.5-8.5 23.5-12.7 45-12.7V45c-12.5-5.7-22.4-8.5-29.7-8.5-10.8 0-22.9 5.9-36.5 17.8-11.3 7.9-20.7 12.5-28 13.6-2.8 2.3-5.4 3.4-7.6 3.4v.8l10.2-.8c1.7.6 2.3 1.7 1.7 3.4-.6 1.1-6.5 2-17.8 2.5-6.2.6-11.9 4.5-17 11.9h-3.8c-1.4 0-1.8-.8-1.3-2.5 4.5-7.9 11.3-12.2 20.4-12.7H278c-7.4 0-14.2 3.7-20.4 11-9.1 1.7-22.4 10.2-39.9 25.5-2.3.6-4 2-5.1 4.2h8.5c1.7 0 2.4 1 2.1 3-.3 2-1.3 3-3 3h-8.5c-1.7 0-2.5 1.1-2.5 3.4 0 1.7.8 3.4 2.5 5.1l14.4-9.3c2.3 0 3.1 1.1 2.5 3.4l-13.6 9.3v.8h50.1c12.5 0 20.5 5 24.2 14.9 3.7 9.9 10.1 14 19.1 12.3zM245.6 43.3v.8c5.7 1.1 18.7.6 39.1-1.7 10.2-1.1 18.4 2.5 24.6 11l8.5-3.4c-7.9-7.4-19-11-33.1-11-7.4.1-20.4 1.5-39.1 4.3zm107.8 176.6c0-17 9.8-25.3 29.3-25 19.5.3 29.3 8.6 29.3 25l6.8 45H457v-45c0-41.3-8.5-76.1-25.5-104.4-17-28.3-35.4-42.5-55.2-42.5-9.6 0-18.4 3.1-26.3 9.3v32.3c0 12.5-4 18.7-11.9 18.7-9.1 7.4-13.9 14.4-14.4 21.2l-13.6 110.4h34l9.3-45zM283 80.7c3.4 0 5.7 1.7 6.8 5.1 0 4-4.5 6.8-13.6 8.5-3.4 0-5.1-1.1-5.1-3.4 0-5.7 3.9-9.1 11.9-10.2zm55.1 2.5v17h1.7V82.4l-1.7.8zm-4.2.9v16.1h.8v-17l-.8.9zm-57.7 23.7c2.8 4 8.1 5.5 15.7 4.7 7.6-.8 19.7-4.7 36.1-11.5V86.6c-10.2 0-20.1 3.4-29.7 10.2-14.8 5.7-22.1 9.3-22.1 11zm19.5 157.1l12.7-85.8c-2.8-6.2-7.4-6.2-13.6 0l-13.6 85.8h14.5zm108.7 14.5l-6.8-59.4c-.6-6.8-5.7-10.2-15.3-10.2-9.6 0-14.4 3.4-14.4 10.2l-10.2 59.4h-40.8C305 325.2 296 402.8 289.7 512L271 522.2 161.5 375.3c-27.7-15.3-38.5-5.7-32.3 28.9l66.2 180-49.2 21.2h233.5l-17.8-11c30.6-142.7 44.7-247.7 42.5-315zm-338.8-79c7.4-37.4 5.5-59-5.5-65-11-5.9-19.4-3.5-25 7.2-5.7 10.8 4.4 30.1 30.5 57.8zm21.2 112.9l-19.5-78.1c-22.6 5.1-41.3 13.9-56 26.3-8.5-11.9-12.2-24.6-11-38.2 19.8 1.7 39.6-1.1 59.4-8.5C20 182 6.3 154.7 18.5 132.9s29.2-26.6 50.9-14.4c21.8 12.2 24.8 42.6 8.9 91.3 17.5-5.1 35.7-13.6 54.3-25.5 7.9 11.3 11.6 23.5 11 36.5-21.5 0-41.9 3.4-61.1 10.2l32.3 82.4c13 0 30.6 11 52.6 33.1l101 137.6c10.2-96.2 19.2-164.4 27.2-204.6H266l14.4-83.2c0-12.5 2.8-22.4 8.5-29.7-7.4-4.5-11.6-10-12.7-16.6-1.1-6.5-15.6-8.9-43.3-7.2l3.4 11h-28l3.4-13.6c-2.3-.6-3.4-2.5-3.4-5.9-4.5-3.4-6.8-6.5-6.8-9.3-.6-2.8.6-5.4 3.4-7.6-.6-6.8 3.4-11.9 11.9-15.3 12.5-11.9 24.3-19.2 35.7-22.1 5.7-10.8 17-15.3 34-13.6l4.2-.8c-4.5-1.1-9.6-1.7-15.3-1.7-5.1 0-12 1.6-20.8 4.7S238 73 231.2 72.4c-7.4 0-16.7-4.2-28-12.7h-22.1c-14.7 0-24.9-4-30.6-11.9-5.7-7.9-8.5-16.4-8.5-25.5 0-13.6 2.5-20.9 7.6-22.1 4 0 7.6 4.1 11 12.3 3.4 8.2 12.6 12.2 27.6 11.9 15-.3 31.3 3 48.8 9.8 24.9-4.5 40.8-6.8 47.6-6.8 15.8 0 28.9 4.5 39.1 13.6 13-10.8 24.3-16.1 34-16.1 9.6 0 19.5 2.3 29.7 6.8 11.3 5.7 23.5 4.5 36.5-3.4s24.9-10.5 35.7-7.6c10.8 2.8 19.4 5.1 25.9 6.8 6.5 1.7 11.7-4.2 15.7-17.8 1.7-6.2 5.1-9.3 10.2-9.3 6.8 0 10.2 5.4 10.2 16.1 0 9.1-4 19.5-11.9 31.4-6.8 8.5-21.8 11.6-45 9.3-12.5 1.7-21.2 4.5-26.3 8.5-5.1 4-13.9 5.9-26.3 5.9 20.9 14.2 36.2 35.5 45.9 64.1 9.6 28.6 14.4 56.7 14.4 84.5v59.4h-44.2c-5.1 95.7-18.7 196.1-40.8 301.4l43.3 45.9H114.8l-4.2-28.9 55.2-23.8h.8c-38.5-107-64.5-177.5-78.1-211.4-14.7-2.3-24.5-8.1-29.3-17.4-4.8-9.6 4.4-20.2 27.6-32.1z"/></svg>