<svg xmlns="http://www.w3.org/2000/svg" viewBox="-10 0 743 1001"><path d="M39 1001v-43l103-44-50-227q-3-14-5.5-34T84 615q0-20 9-33l-27-70 8-11 18 4-24-74-51 34-17-39 52-15-35-32Q6 369-2 355.5t-8-29.5q0-18 10.5-32T34 280q29 0 40 21.5T85 361v39l46-32 18 37-62 16 50 92 31 5 12 43q8 5 15.5 13t15.5 18l104 128 21-242h-48v-32q0-33 13.5-67.5T337 315q29-37 38.5-51t11.5-27q-7 4-18.5 7.5T343 248q-25 0-55-6.5t-60-8.5q-13 16-13 35h-32q-7-11-4-39-10-3-18-6t-13-5q-5-3-7-11t-2-16q0-15 6-21 27-26 57-39t42-17q0-1 12.5-9.5t33.5-20Q311 73 336 66v-3q-4-2-21-2-13 0-29.5 8T253 77q-11 0-23-7t-25.5-13.5Q191 50 176 50q-23 0-40.5 11T101 72q-28 0-44.5-19T40 0h24q1 13 7 23t30 10q14 0 33-11.5T176 10q17 0 29 7.5T229 32q12 7 25 7 17 0 38.5-8.5T333 22q14 0 26 6.5T378 42h16q7-7 19-13.5t26-6.5q19 0 41 8.5t39 8.5q13 0 24.5-7t24-14.5Q580 10 596 10q23 0 42 11.5T671 33q24 0 30-10t8-23h24q0 34-17 53t-45 19q-16 0-33.5-11T596 50q-15 0-28.5 6.5t-25 13.5Q531 77 519 77q-16 0-32.5-8T457 61q-17 0-21 2v3q68 17 107 58.5t55.5 96Q615 275 615 331v147h-47v446l80 34v43zm269-542h29q9-55 39.5-86t74.5-31q46 0 77 30.5t38 86.5h29V331q0-40-10.5-83.5t-35-82Q525 127 485 103t-99-26q-33 0-63.5 13.5t-50 27L253 131q-13 4-40.5 16T158 184v7h83v15h-78q15 3 40.5 6.5T257 220q28 4 50.5 6.5T339 229q24 0 41.5-9.5T405 201q6 28-.5 48.5t-21 39Q369 307 352 328q-44 56-44 118zm29-305q-12 0-22-3.5t-20-9.5q8-8 18-13.5t23-5.5q21 0 39 17-10 8-18.5 11.5T337 154zM67 399l-1-38q0-39-8.5-50T34 300q-5 0-15.5 4.5T8 326q0 11 6.5 21T32 366zm-9 582h570v-12l-78-34V487q0-33-10-61.5T507.5 379Q485 361 449 361q-38 0-63 30.5T356 481l-26 268-13 5-117-146q-11-13-24-24t-30-11q-19 0-31.5 12T102 616q0 15 4 37t7 36l52 232-107 48zm48-414q7-6 17-10t20-4q5 0 9.5.5t8.5 1.5l-7-19-64-10z" fill="currentColor"/></svg>