<svg xmlns="http://www.w3.org/2000/svg" viewBox="-10 0 579 1001"><path d="M-10 1001v-43l103-44-50-227q-3-14-5.5-34T35 615q0-25 17.5-43.5T94 553q27 0 40.5 10.5T162 592l104 128 21-164q1-10 2-18.5t3-16.5h-38v-26q0-7 12-29t23-44q10-17 18.5-37t8.5-36q0-12-5.5-23T295 310l-158-7q-7-1-18.5-14T107 260v-21q23-3 53.5-8t44.5-10q14-5 29.5-19t34-26.5Q287 163 310 163h42q5-41 6-82.5T352 0h30q4 6 11.5 20T407 50.5q6 16.5 7 28.5 5-13 8.5-35t.5-39h31q7 22 13 50t7 48q1 24-6.5 52T451 199q32 56 51.5 119.5T522 463v58h-34q1 10 1.5 20t.5 21v362l79 34v43zm381-844q10-8 19-19t13-22q-3-25-9.5-49.5T372 20q6 34 5.5 69.5T371 157zm-97 344h22q25-81 95-81 77 0 93 81h18v-38q0-80-20.5-145T429 199q10-18 19-45t7-50q-2-21-7-39t-7-31q-2 26-10 55t-23 53.5Q393 167 369 181h-60q-15 0-33 13t-35 27q-17 14-30 19-12 4-38 8.5t-46 7.5q0 12 6.5 19t14.5 7l152 9q17 6 26.5 22.5T336 349q0 20-9.5 42T307 432q-11 20-22 39t-11 24zm62-272q-10 0-17.5-3t-15.5-7q6-7 13.5-11.5T335 203q17 0 30 13-8 6-14 9.5t-15 3.5zM9 981h541v-12l-78-34V565q0-32-6.5-61T441 457q-18-18-52-18-38 0-57 30.5T307 559l-26 190-12 5-118-146q-10-13-24-24t-30-11q-19 0-31.5 12T53 616q0 15 4 37t7 36l52 232L9 969z" fill="currentColor"/></svg>