<svg xmlns="http://www.w3.org/2000/svg" viewBox="0 0 349.9 594.5"><path d="M309.3 328.5h26.4c0-79.1-1.2-129.5-3.6-151.3-2.4-21.8-24.9-58.9-43.3-67.4-8.6 11-19.4 15.5-32.4 17.4 7.2 23-1.2 36.7-25.2 41 16.9 24.3 16.3 51.8 15.8 82V286h26.8v-56c0-12 8.2-17.9 20.7-17.6 12.5.2 14.7 9 14.7 26.2v89.9zM199 489.6h-24.4L75.3 355.9c-14.4-23-27.1-30.7-38.1-23-11 7.7-6.5 28.3 13.7 61.8 20.1 33.5 38.3 86 54.6 157.4l-49.8 22.3h233.8l-18-12.2c16.8-49.8 24.2-157.9 22.3-324.2h-7.2v61h-53.2v-63.1c-12.4-1.2-31.1 80.7-34.4 253.7zm-10.1-166.1s8.3-67.2 12.6-75.3c31.7-59.5-1.4-73.4-14.1-78.5-42.2-10.1-70.5-16.8-84.8-20.1l-12.2-20.1v-5l76.9-15.1c6.2-4.8 11.6-7.7 16.2-8.6 4.6-1 8.4-2 11.5-3.2 3.1-1.2 7.8-2.3 14-3.2 5.3-6.2 10.1-15.7 14.4-28.4 4.3-12.7 7.9-33.4 10.8-62.2 3.8-4.8 7.9-4.8 12.2 0 2.4 6.2 4.6 15.5 6.5 27.7 1.9 12.2 2.6 25.5 2.2 39.9 1.4-2.4 3.2-12 5.4-28.8s2.3-28.8.4-35.9c3.4-6.2 7.7-7.2 12.9-2.9 1.9 8.6 6.2 16.4 10 36.7 3 16.1 5.6 28.7 5.1 47.3 35.9 25.4 55.1 57.1 57.5 86.4 2.4 29.2 3.6 84.8 3.6 166.8h-31.6c-.5 87.2-6.7 157.4-18.7 210.6l41.7 43.1H25l-3.6-28.8L76 542.1c-13.4-55.6-29.8-101.4-49.2-137.3-19.4-36-28.3-59.1-26.6-69.4 1.7-10.3 10.3-19.9 25.9-28.8 15.6-8.9 32.7-5.9 51.4 9l101.4 136.6c1.9-48.9 5.2-91.8 10-128.7zm-12.2-199.1h6.5c-1.9-1.4-2.4-3.6-1.4-6.5l-5.1 6.5zm18.7 0l11.5-3.6-10.1-5c2.4 3.3 1.9 6.2-1.4 8.6zm-18.7-15.1l1.4 2.9c7.2-3.4 13.4-4.7 18.7-4 5.3.7 11.7 2.8 19.4 6.1h12.2v-3.6h-11.5c-6.7-2.9-12.9-4.7-18.7-5.4-5.7-.7-12.9.6-21.5 4zm-3.6 17.9c5.3.5 9.8 1 13.7 1.4 3.8.5 11.5-1 23-4.3l19.4 2.2v-7.2l-19.4-.7c-5.3-3.4-10.7-5.6-16.2-6.8-5.5-1.2-10.4.4-14.7 4.7l-6.5 7.9.7 2.8z"/></svg>