<svg xmlns="http://www.w3.org/2000/svg" viewBox="-10 0 597 999"><path d="M-10 999v-43l103-44-50-227q-3-14-5.5-34T35 613q0-25 17.5-43.5T94 551q27 0 40.5 10.5T162 590l104 128 21-164q2-19 7-35h-43v-35q0-23 6-50t22-55q16-27 29-41.5t13-19.5q0-5-8.5-6.5T281 310q-17 0-43.5 5.5t-55 13Q154 336 132 343q-5 2-9.5 2H114q-13 0-20-7l-14 1q-10 0-17-7.5T56 316q0-7 22.5-30t60-51q37.5-28 84-50.5T318 156l2-156 89 8-34 148 5 1 59-144 79 41-86 119q37 17 60 50.5t35.5 75q12.5 41.5 16.5 83t4 74.5v63h-43q3 21 3 41v362l79 34v43zm281-500h28q13-33 37-57t64-24q43 0 67 24t34 57h28v-43q0-33-4.5-73.5t-17-81Q495 261 470 229t-66-47l85-121-40-21-60 138q-13-4-33-4l29-150-45-4-4 153q-37 2-74 16.5T191.5 224Q158 244 132 264.5t-41 35Q76 314 76 316q0 3 4 3h12q14-11 34-20t38-14l4 12q-11 3-27.5 10T110 325q1 1 4 1 5 0 13-2 22-7 51.5-15t57-13.5Q263 290 281 290q36 0 50 7t14 21q0 5-4.5 11T329 343q-8 10-17.5 22.5T296 389q-13 26-19 50.5t-6 44.5zm3-272q-10 0-18-3t-15-7q6-7 13-11.5t19-4.5q16 0 30 13-8 6-14 9.5t-15 3.5zM9 979h559v-12l-78-34V563q0-32-8.5-61T453 455q-20-18-54-18-77 0-92 120l-26 190-12 5-118-146q-10-13-24-24t-30-11q-19 0-31.5 12T53 614q0 15 4 37t7 36l52 232L9 967z" fill="currentColor"/></svg>