<svg xmlns="http://www.w3.org/2000/svg" viewBox="0 0 317 594.4"><path d="M239.3 0l32 2.7-19.1 85.9 6.1 1.4 25.9-85.2 28.6 7.5c-21.4 56.8-32.7 88.4-34.1 94.7 24.1 15.5 36.8 53.4 38.2 113.8L313.5 334l-17-.7c-3.6 68.2-12.3 135.4-25.9 201.8 7.3 15.9 13.6 35.7 19.1 59.3H14.3c20.9-28.2 31.4-51.1 31.4-68.8L24.5 301.3H2l-2-13.6c1.4-1.4 20.2-5.5 56.6-12.3 27.3 0 59.5 55.9 96.8 167.7l22.5-115.2H152c19.1-75.9 37-126.6 53.8-152v-1.4c-.9 0-3.9-4.3-8.9-13-13.2 2.3-30.4 7.3-51.8 15-3.2-4.5-8.4-9.1-15.7-13.6-7.3-4.5-10-8.6-8.2-12.3.5-2.7 15.5-15.7 45-38.9 12.7-16.4 29.8-26.1 51.1-29.3 7.7-1.4 11.6-4.8 11.6-10.2L239.3 0zm10.9 11.6l-15.7 79.1c-22.7 0-45 9.8-66.8 29.3-21.8 19.5-33.2 30.2-34.1 32l5.5 3.4 17-8.9c17.7-6.8 32.5-10.2 44.3-10.2-.5 4.1-2.6 6.1-6.5 6.1s-8.9.8-15 2.4c-6.1 1.6-17.4 6.7-33.7 15.3 2.3 2.3 5.2 3.4 8.9 3.4 30.4-9.1 47.7-13.6 51.8-13.6 7.7 8.2 14.8 25.7 21.1 52.5 1.8 6.4 4.8 9.5 8.9 9.5l-6.8-55.9c14.1-4.1 21.1-14.1 21.1-30 0-4.5 5.5-9.1 16.4-13.6L300 19.7l-9.5-2-25.9 80.4-22.6-4.7 16.4-81.1-8.2-.7zm-5.5 105c-11.4-6.8-20.4-10.5-27.3-10.9-6.8-.5-15.7 2-26.6 7.5l-2.7-.7c0-4.5 5.7-8.3 17-11.2 11.4-3 24.5 1 39.5 11.9v3.4zm-81.8 19.7l-.7-2.7c19.5-14.1 35.4-21.6 47.7-22.5 4.1 0 12.7 3 25.9 8.9l4.1-1.4c3.6.9 5.6 2.5 5.8 4.8.2 2.3-.6 4.1-2.4 5.5-10.9-3.2-17.7-4.8-20.4-4.8-12.3 3.2-23.9 2.5-34.8-2l-25.2 14.2zm34.1-17c3.6 1.8 11.4 2.3 23.2 1.4-3.2-1.8-6.4-3.2-9.5-4.1-3.3-1-7.8 0-13.7 2.7zm-42.3 375.6c-10.5-32.7-25.8-72-46-117.9-20.2-45.9-34-72.3-41.2-79.1-6.8-5.9-15.4-6.1-25.9-.7 2.7 10.9 10.5 85.2 23.2 222.9.9 16.4-3.6 34.5-13.6 54.5h210.6c-.9-10.9-4.5-24.1-10.9-39.5 13.6-49.5 22.9-109.4 27.9-179.6 5-70.2 7.5-115.1 7.5-134.6 0-5.5-3.2-9.1-9.5-10.9-8.2 1.8-12.3 5.5-12.3 10.9L257 332.6l-34-.7 13.5-109.7c-10.5-3.6-15.7-10.2-15.7-19.8-2.7 0-7.7 15-15 45-18.6 123.2-35.6 205.7-51.1 247.5z"/></svg>