<svg xmlns="http://www.w3.org/2000/svg" viewBox="-10 0 698 1001"><path d="M-10 1001l44-64h136v-19l42-9q10-2 24.5-8.5T251 887q0-2-.5-4.5t-.5-4.5l-22-134-6-22-10-98q0-7-3-9t-10-4q-16-5-34-10.5T129 589q-19-7-19-24 0-8 8.5-14.5T141 548q15 5 35.5 10.5T210 566l-1-7q-10-60-23.5-95.5t-24.5-53Q150 393 146 389l-15 9-16-22q19-10 36-21.5t22-29.5l-5-32q-4-1-8.5-1.5T150 290l24-53q0-3-.5-7.5t-.5-7.5q0-12 6-21l71-170q6-16 15.5-23.5T292 0q9 0 16.5 7t6.5 16q2-5 8.5-11.5T341 5q12 0 19 8.5t7 20.5q0 7-2 14t-5 15l-57 142q8 3 12.5 9t6.5 13q33 1 50.5 11.5T396 274q6 25 6 71v17h75l15-102-2-26-46 120-13-6 93-243 164 215-79 45-59-150-14 47-20 167-114 3v505h95v64zm216-819l14-5 67-164q-10 0-15 7.5T263 40zm46-51h13l33-82q6-12 6-24 0-7-4-11zm34 15l51-125q-8 0-14 8t-11 19l-35 88q2 1 5 3.5t4 6.5zm8 48l54-136q6-13 6-23 0-8-5-13l-67 166zm-34-13q7 0 12.5-5t5.5-14q0-18-19-18-13 0-17 11-1 3-1 8 0 7 5 12.5t14 5.5zm256 50l7-16 3-19-8-23 14-4-8-21-19 49 16 6-7 17v10zm100 115l51-31-128-166zM188 937h111q3-21 3-44 0-44-1.5-80t-3.5-52q2-34 7-69.5t9.5-62.5q4.5-27 4.5-34 0-40-13-63l11-117 187-4 18-147 21-50-1-20-8-19-6 2 8 19-3 22-14 30-11-4-1-25 5-12-6-3-6 16 5 47-17 114-127-3q-14-4-42.5-7l-47.5-5-2-50q-9-4-9-26 0-12 6-26-1-2-3-7t-2-12h-70l-18 36q2 0 5.5 1t5.5 1l6 39 36 2v43h-50q-3 4-5.5 7t-6.5 5q8 12 30 54t35 123q4 27-10 26-21-1-44-8t-38-11q-8-2-8 3 0 6 7 8l80 23q9 3 12.5 7t4.5 14l9 104 6 21 22 134q0 3 .5 6t.5 5q0 13-18.5 21.5T220 920l-32 7zm5-710h67q1-10 6-14.5t9-6.5q-12-12-34-12-26 0-37 8.5T193 222zm82 0h31q-5-12-16-12-12 0-15 12zm5 78q12 0 21-18t9-38v-4h-35q1 5 3.5 10l3.5 7q-2 5-5 13t-3 15q0 7 .5 11t5.5 4zm103 56v-16q0-38-4-59t-16-30q-12-9-38-11v4q0 23-11.5 45T286 319v30q13 2 37.5 5t43.5 6zm-176-94q-5 0-11-2t-6-6q0-4 5-6t10-2q7 0 11.5 2.5t8.5 6.5q-4 3-8 5t-10 2zm-22 85h27v-18l-19-1q-2 5-3.5 10t-4.5 9zm132 585h66V433l-49 3-10 88q7 15 10.5 30t3.5 41q0 16-5 42.5t-10.5 59Q317 729 316 761q1 16 2.5 53t1.5 83q0 20-3 40zM24 982h454v-26H43z" fill="currentColor"/></svg>