<svg xmlns="http://www.w3.org/2000/svg" viewBox="0 0 326.9 596.6"><path d="M92.7 126.9c7.5 1.2 13.4 3.1 17.8 5.6v8.4h2.3c.6-8.1 2.6-12.5 5.9-13.1 3.3-.6 5.8.1 7.5 2.1 1.7 2 1.8 5.2.2 9.4s-2.7 6.6-3.3 7.3c-.9 9.1 3.1 12.8 12.2 11.2 12.8-9.4 19.1-18.8 19-28.3-.2-9.5-4.5-16.3-13.1-20.4-8.6-4.1-17.1-5.2-25.5-3.5-8.5 1.7-16.1 8.8-23 21.3zm39.4 54.8c-1.9-6.2-2.8-11.7-2.8-16.4-8.4 0-12.5-4.5-12.2-13.6-4.1.9-6.5.7-7.3-.7s-.4-3.2 1.2-5.4h-4.2v-8.9c-3.4-3.1-9.7-4.8-18.7-5.2l-2.3 3.7c3.1-1.2 6.2-1.6 9.1-.9 3 .6 6.3 2 10.1 4.2l-.5.9-3.3-.5c-5.9-4.1-11.9-3.7-17.8.9-2.2 3.1-4.2 6.9-6.1 11.2.6 1.2 1.8 1.2 3.5 0s3.7-.3 5.9 2.8h-5.2v1.4l8.9 1.9v1.9l-8 4.7c.3 1.6.9 2.8 1.9 3.7.9.9 3.9.8 8.9-.5l10.3-1.4c.3 6.6 2.2 12 5.6 16.4 8.8 6.2 16.4 6 23-.2zm-45.9-39.8c1.2-5 6.2-5 15 0-8.8 3.7-13.8 3.7-15 0zm1.8 16.8c-6.6 0-9.2.9-8 2.8l8-2.8zm27.7-15.4l-2.3 1.9c-1.6 2.8-1.5 4.2.2 4.2s4.1-2 7.3-6.1c3.1-4.1 4.1-7.3 3-9.8-1.1-2.5-2.7-3.2-4.7-2.1-2 1-3.2 5-3.5 11.9zM15.9 588.6h165.3v-12.2H23.9l-8 12.2zm82-376.5c-7.8 25.6-9.8 64.5-5.9 116.6 3.9 52.1 8 96.2 12.4 132.3 4.4 36.1 6.6 59.6 6.6 70.5 0 6.6-4.2 11.7-12.6 15.5s-18.6 9.1-30.4 15.9l-.5 2.8 56.7-.5c4.7-2.5 4.7-10.6 0-24.4 5.9-38.7 6.9-62.9 2.8-72.6-4.1-9.7-4.3-20.4-.7-32.1 3.6-11.7 4.8-24 3.5-36.8-1.2-12.8.2-27.6 4.2-44.5 8.4-8.7 7.3-25.4-3.3-50.1 7.5-45 16.1-77.9 25.8-98.8-8.1 6.9-19.2 10.3-33.2 10.3s-22.6-1.3-25.4-4.1zm9.8-22l-15 6.6c4.1 5.9 13.4 8.9 28.1 8.9 14.7 0 26.2-5.6 34.7-16.9-7.2-2.8-12.8-3.4-16.9-1.9-11.5 6.6-21.8 7.7-30.9 3.3zm86.6-26.7l57.1-146.1 75.4 96.9-5.6 7-7-9.4-5.2 3.7 7 8.9-6.6 4.7-7-8.9-4.7 2.8 5.2 10.8-8.4 2.8-43-91.6-47.3 121.8-9.9-3.4zm62.8-125l37.5 78.2 15-10.3-52.5-67.9zM141.4 61.3l11.2-34.2c2.8-9.4 1.6-14.7-3.7-15.9l-18.7 50.6c1.5-1.2 5.3-1.4 11.2-.5zm-22 13.6c1.6-5.6 3.4-8.9 5.6-9.8l20.6-54.8c-4.4-.9-7.8 3.1-10.3 12.2l-26.2 66c1.9.3 4.5 1.6 8 3.7l1.9-6.1c-1-2.1-.8-5.9.4-11.2zm33.3-7l14-52c-4.4-1.2-7.8 2.8-10.3 12.2l-10.3 34.7c3.4 1.5 5.6 3.2 6.6 5.1zm3.7 17.3c-2.2 6.2-4.5 9.8-7 10.8l-1.9 6.6c4.4-1.2 7.8-1.4 10.3-.5l15.9-69.3c2.8-9.1 1.6-14.4-3.7-15.9l-14.5 56.7c1.5 1.8 1.8 5.7.9 11.6zm-24.3 13.6c-5.9-2.2-9.4-4.4-10.3-6.6l-.9 3.7 22.5 6.1.5-3.3c-2 1.7-5.9 1.7-11.8.1zm19.6-15c.9-9.1-2.7-15-10.8-17.8-7.8-1.6-13.3 1.9-16.4 10.3-2.5 8.1.5 14 8.9 17.8 9.4 1.6 15.5-1.8 18.3-10.3zm20.6 102.1v-58.5c.3-9.1-1.9-15-6.6-17.8-5.3-.6-9.8-.9-13.6-.9 4.7 4.4 7.4 10.6 8.2 18.7.8 8.1-1.1 15.4-5.6 21.8s-10.4 11.6-17.6 15.7c-.3 8.1 1.1 12.8 4.2 14 11.4-.6 21.7 1.7 31 7zm0 25.3c-4.4.6-9 5.2-13.8 13.8-4.8 8.6-10.7 34.4-17.6 77.5 10.9 26.5 12.3 45.6 4.2 57.1-3.4 4.1-5.3 8.7-5.6 13.8-.3 5.2 0 13.9.9 26.2.9 12.3-.2 24.4-3.5 36.3-3.3 11.9-3 22.6.9 32.1s3 33.8-2.6 72.8c6.9 18.7 6.2 30.6-1.9 35.6H47.8c-6.9-11.6-6.7-17.3.5-17.3h8.9c16.5-10.9 27.8-17.3 33.7-19.2 5.9-1.9 8.7-7.2 8.4-15.9 1.2-11.6-1.1-36.6-7-75.2s-10.6-75.9-14-112.2c-13.7-1.6-29.8-5.8-48.2-12.6-.9.6-2.7.4-5.2-.7s-4.6-3-6.3-5.6c-1.7-2.7-2-5.2-.7-7.5 1.2-2.3 3.3-3.3 6.1-2.8s5.1.9 6.8 1.4c1.7.5 3.3.5 4.7.2 1.4-.3 2.2.2 2.3 1.4.2 1.2 2.3 2.7 6.6 4.2 4.2 1.6 9.8 3.4 16.6 5.6 6.9 2.2 13.3 1.9 19.2-.9-3.1-46.5-1.6-79.8 4.7-99.7-5.6-3.4-8.3-8.7-8-15.7.3-7 5.9-11.5 16.9-13.3 4.1-1.2 6.1-3.9 6.1-8-1.6-3.7-2.3-7.5-2.3-11.2l-6.6.9-11.7 20.6c-3.7 2.5-6.6 2.6-8.7.2-2-2.3-.5-4.8 4.4-7.3l5.2-15.9-.9-6.1c-1.6-.9-1.7-2.2-.5-3.7-1.9-1.9-1.9-3.3 0-4.2l.9-1.9H75c-1.9-.6-1.9-2.6 0-5.9 1.9-3.3 4.5-7.9 8-13.8-.3-2.2.2-4.4 1.4-6.6 8.7-15.3 19.2-24.7 31.4-28.1-5.9-3.7-12.2-5.9-18.7-6.6l30.4-72.6C131.4 6.9 137.2 0 144.7 0s12.6 2.7 15.5 8c5.3-3.1 11-2.8 17.1.9 6.1 3.7 7.6 12.3 4.4 25.8l-13.1 66c8.7 3.1 13.1 12.2 13.1 27.2v59.9c9.4-.9 20.8-.2 34.2 2.3 2.8-13.1 8.4-34.7 16.9-64.6v-.5c-1.6-6.2-1.2-11.7 1.2-16.4 2.3-4.7 3.4-8.4 3.3-11.2-.2-2.8.4-4.4 1.6-4.7 1.6-.3 2.6.3 3 1.9.5 1.6.3 3.7-.5 6.3-.8 2.7-1.2 4.9-1.2 6.8.3.9.6 1.6.9 1.9.6 0 1.4-.8 2.3-2.3 2.2-5.9 3.4-10.3 3.7-13.1.3-2.8.3-6.9 0-12.2.3-1.9.9-2.8 1.6-2.8.8 0 1.3.3 1.6.9.9-1.9 2-2.2 3.3-.9.9-1.6 2-1.4 3.3.5.9-1.2 2-1.6 3.3-.9.3.3.5 1.1.5 2.3 0 3.7-.1 7.7-.2 11.9-.2 4.2-.5 7.6-1.2 10.1-2.5 8.7-6.6 16.5-12.2 23.4-3.7 13.4-6.1 26.1-7 37.9-.9 11.9-3.4 26.5-7.5 44-21.9 2.2-38.9 3-51 2.3V568h8.9v28.6H0L18.7 568h153.1l.5-356.8z"/></svg>