<svg xmlns="http://www.w3.org/2000/svg" viewBox="0 0 298.1 594.4"><path d="M204.3 360.2v-94.4c-1.8 6.2-8.7 9.8-20.7 10.9-33.5 42.9-42.4 68.8-26.7 77.5 2.9 46.9-2.2 85.3-15.3 115.2-3.3 15.3-10.6 19.1-21.8 11.5l-20.7-26.2-55.1-83c-16.7-12-25.3-8.2-25.7 11.5L59.1 507c9.5 22.6 13.6 38.5 12.3 47.8-1.3 9.3-3.7 16.1-7.4 20.5h161.6c-13.8-14.2-17.8-32.2-12-54 5.8-21.8 10.6-48.7 14.5-80.5 3.8-31.8 5.9-58.7 6.3-80.5h-30.1zm43.6 0v9.3c-5.1 74.2-11 122-17.7 143.3-6.7 21.3-.6 43.4 18.3 66.3 7.3 6.9 7.3 12 0 15.3H31.2c-4.4-5.1-1.7-10.6 7.9-16.4s14.8-12.7 15.6-20.7c1.1-7.6-16-64.4-51.3-170.3-6.9-17.8-3.3-30.2 10.9-37.1 14.2-6.9 27.3-3.6 39.3 9.8l72 104.8c13.8-31.3 19.5-66 16.9-104.2-9.8-14.2-9.2-30.9 1.9-50.2 11.1-19.3 19.6-32.9 25.4-40.9-3.6-2.9-7.3-9.1-10.9-18.6H142c-9.1 0-13.6-5.6-13.6-16.9-4.4-.7-5.6-3.3-3.8-7.6-3.3-2.5-3.3-4.5 0-6l1.1-2.7c-2.2-.7-4.4-2.2-6.5-4.4-1.5-1.8 2.9-8.9 13.1-21.3 0-8.4 1.8-16.2 5.5-23.5-6.5-.4-10.3-3.1-11.2-8.2-.9-5.1-.1-10.9 2.5-17.5-4 0-6-1.3-6-3.8-.4-3.3 3.3-5.3 10.9-6 8.7 1.1 10.7 8.9 6 23.5 5.1-10.9 13.5-18.7 25.1-23.5h70.4c26.6 9.5 39.8 58 39.8 145.7v81.9h-27.4zm-72.6-179v2.7c-4.4-.7-9.2-1.9-14.5-3.5-5.3-1.6-10-1.5-14.2.3-4.2 1.8-6.5 3.9-6.8 6.3-.4 2.4-1.6 5.2-3.8 8.5-6.9 8.4-10.3 13.4-10.1 15 .2 1.6 1.3 3 3.3 4.1 2 1.1 3 1.6 3 1.6l-2.7 3.8 4.9-.5c8.7 2.9 13.1 5.1 13.1 6.5l-11.5 6c-.4 7.6 3.1 10.7 10.4 9.3h21.8c1.5 8.7 4.7 15.8 9.8 21.3 10.2 2.9 18.9-1.1 26.2-12v-37.1c.4-6.9-2-8.9-7.1-6-4.4 8.7-8 13.1-10.9 13.1-4.4 0-6.5-2.7-6.5-8.2v-5.5h3.8v5.5c0 2.9.9 4.4 2.7 4.4 2.9 0 6.4-5.5 10.4-16.4 4-10.9 2.9-16.4-3.3-16.4-4.4 0-7.6 3.8-9.8 11.5h-3.8c-1.1-18.6-12.6-26.9-34.4-25.1-1.8 2.5-3.3 5.1-4.4 7.6 5.5-3.6 11.1-4.4 16.9-2.2 5.9 2.1 11.7 4 17.5 5.4zm-44.7 29.5c7.3 0 9.6 1.5 7.1 4.4-4.8-.1-7.1-1.5-7.1-4.4zm10.3-18V191c1.8-1.1 3.4-2.5 4.6-4.4 1.3-1.8 3.6-3 7.1-3.5 3.5-.5 7.7.6 12.8 3.5h9.8v2.7h-9.8c-4 2.9-7.7 4.6-11.2 5.2-3.5.5-6 .5-7.6-.3-1.6-.6-3.5-1.2-5.7-1.5zm59.5-88.5c10.9 0 20.3-3.6 28.1-10.9 7.8-7.3 11.6-16.7 11.2-28.4 0-10.2-3.5-19.2-10.4-27-6.9-7.8-16.6-11.7-28.9-11.7-12.4 0-22.1 3.9-29.2 11.7s-10.6 16.8-10.6 27c0 11.6 3.8 21.1 11.5 28.4 7.6 7.3 17.1 10.9 28.3 10.9zm28.4 28.4l2.7-12.6h-62.8l2.7 12.6h57.4zm12.6-19.1c2.2 2.2 2.2 4.4 0 6.5h-3.3l-2.7 12.6h-6.5 6.5H165h6.5-6.5l-2.7-12.6H159c-3.3-2.2-3.3-4.4 0-6.5h7.1c-5.1-2.2-10.8-6.3-17.2-12.3-6.4-6-11.6-18-15.6-36s-9.6-32.1-16.6-42.3c-7.1-10.2-11.8-17.8-14-22.9 5.5 1.8 13.1 8.2 22.9 19.1 9.8 10.9 18.7 32.6 26.7 65-2.2-5.5-3.3-11.5-3.3-18 0-13.5 4.5-25.2 13.4-35.2 8.9-10 21.6-14.8 37.9-14.5 16-.4 28.4 4.5 37.1 14.5 8.7 10 13.1 21.7 13.1 35.2 0 6.5-.9 12.6-2.7 18 8-32.4 16.9-54 26.7-65 10-10.9 17.8-17.3 23.6-19.1-2.5 5.1-7.3 12.7-14.2 22.9-6.9 10.2-12.4 24.3-16.4 42.3-4 18-9.2 30-15.6 36s-12.3 10.1-17.7 12.3h7.2zm19.1 231.4v-108c-6.2-60.8-17.8-91.3-34.9-91.7h-55.1c-6.5 2.2-11.3 6.9-14.2 14.2 19.3 1.1 30 3.5 32.2 7.4 2.2 3.8 7.7 6.2 16.6 7.1 8.9.9 13.4 9.6 13.4 25.9V345h42z"/></svg>