<svg xmlns="http://www.w3.org/2000/svg" viewBox="-10 0 474 1001"><path d="M-10 1001v-35l87-35-40-152q-2-11-5.5-27.5T28 722q0-25 14.5-39.5T77 668q22 0 34 10.5t24 24.5l80 93 19-146-38-54 78-117-10-63-34 4-16-36-25-1 40-88 2-10q6-31 40-42 0-10-2-19.5t-6-16.5v-17h28v-3q-26-3-45.5-24T220 115q-5-28-6-58.5T196 5l25-5q17 24 19.5 53t10.5 52q4 14 17 26-21-21-21-52 0-29 21-50t50-21q30 0 51 21t21 50q0 24-14 43 7-8 10-17 8-23 10.5-52T416 0l25 5q-16 21-17.5 51.5T417 115q-6 27-26 48t-45 24v3h28v17q-5 8-6.5 18t-2.5 21q27 8 44.5 27.5T428 325l16 338h-44v276l64 27v35zm335-811h8v-16q26-5 45.5-21t26.5-42q8-24 7-50t15-48l-7-2q-13 18-16 48t-8 50q-6 25-27.5 37.5T325 163zm-21 0h8v-27q-22-4-43.5-16.5T241 109q-5-20-8-50t-16-48l-7 2q17 22 16 48t6 50q7 26 27 42t45 21zm14-49q25 0 43.5-18T380 79q0-26-18.5-43.5T318 18q-25 0-43 17.5T257 79q0 26 18 44t43 18zm31 100q0-5 1-14.5t4-18.5h-71q3 7 4 16t1 15q5-1 10-1.5t10-.5q11 0 21 1t20 3zm-23 402h98l-15-317q-2-29-20-44.5T348 261q-23-5-39-5-20 0-37.5 6.5T248 287l63 36q2-4 6.5-6.5T330 314q13 0 19.5 8t6.5 17q0 9-5.5 15.5T341 366zM9 985h436v-10l-63-26V663h-79l20-296q1-4 8-13t7-14q0-4-1.5-7.5T328 329q-11 0-15 10l-69-39-32 71 15 1 13 34 36-5 18 80-76 116 34 44-24 189-10 4-94-118q-9-11-20-19.5T79 688q-14 0-23 9.5T47 722q0 12 4 30.5t6 28.5l39 157-87 37zm254-639q-15 0-28-10 4-5 12-6t10-1q15 0 25 15-6 1-10.5 1.5t-8.5.5z" fill="currentColor"/></svg>