<svg xmlns="http://www.w3.org/2000/svg" viewBox="0 0 378.2 365.1"><path d="M103.1 138.8h-.3c-15.2 1-13.5 2.5-21.4 4.5L71 161.2c7.9 4.5 15.4 7.1 23.6 7.1 5.5 0 11.4-1.2 17.9-3.7 6.8-2.6 15.6-3.1 23.8-3.1 5.5 0 10.7.2 14.7.2 3.7 0 6.5-.2 7.5-1 3.3-2.4-46.6-21.9-55.4-21.9zm99.4-115c86.4 0 177.7 71.7 142.7 208.6-8 31.2-17 49.8-30.9 55.9-2.6 1.6-5.3 2.3-8.2 2.3-24.9 0-57.7-53.8-59.7-54.3-6.2-1.8 40.3-37.8 33.1-71-1.5-7.1-6.8-32.6-41.8-32.6-2.2 0-4.5.1-6.9.3-14.8 1.3-19.3 12.7-24.2 12.7-2.7 0-5.6-3.7-10.5-15-11.3-26.2-92-36.3-100.3-39.9-5.1-2.2-8.1-4.7-2.1-13.6 24.6-35.9 66.1-53.4 108.8-53.4zM84.1 113.2c8.8 0 83.2 19.5 86.7 21.1 4.2 1 16.9 40.5 31.2 42.7 2.3.3 4.4.5 6.4.5 20.1 0 25.4-15.9 32.9-15.9.5 0 1 .1 1.5.2 31.7 8.9-5.6 42.2-31.9 66.9-14.7 13.8 86.2 105.8 86.2 105.8l-104.9 2.4-29.2-41.3c-2.4-3.4-10.9-6.5-23.2-6.5-11 0-25 2.4-40.7 8.9-8.1 3.4-14.7 4.8-20 4.8-25.2 0-21-31.9-21-31.9-3.4-4-6.1-7.4-8.1-10.3h1.2c14.5 0 35.6-4.8 39.2-9.3 4.7-2.3-5.7-11.7-12.4-11.7-.7 0-1.3.1-1.9.3-8.2-3.6-18.1-2.2-26.3-4.9 3.9-14.7-17.9-29.3-16.5-32.4l50.3-89.3s.2-.1.5-.1zM198.6 0c-34.8 0-75.2 8-105 37.2-17 16.8-19.4 34.1-39.1 74.2-14.2 29-57.2 86.5-54.4 95.2 7.2 22.5 26.1 7.3 24.2 42.9-1.6 29 13 9.5 16 46.1.9 10.8-7.6 41.3-8.8 43.8 2.7 14.3 15.6 19.3 26.7 19.9h.3c12.5 0 41.1-41.4 47.3-44.2 4.5-2 15.9-3.4 23.5-3.4 3.2 0 5.7.3 6.9.8 7.2 3.7 28.8 50.4 37.5 52.6l129.6-1.3c8-.1 13.1-13.5 28.5-36.9 30.3-46 45.7-101.5 46.2-146.1 1.3-106.6-50-144.4-106.2-169.7C268.5 9.6 236.9 0 198.6 0z"/></svg>