<svg xmlns="http://www.w3.org/2000/svg" viewBox="-10 0 593 619"><path d="M70 619l-54-13 29-117-15-47 13-15-11-6 8-40H0l-10-19 59-175-4-9q12-60 37.5-95.5t59.5-53Q176 12 214 6t77-6q109 0 173 39t91.5 109Q583 218 583 310v237H480v68H221l-13-82-77-3zm392-89h101V310q0-59-12-111.5t-42-93q-30-40.5-82.5-64T293 18q-70 0-114.5 14t-71 47.5Q81 113 66 170h147q44 0 61.5 14.5T292 240v38h22v-22q0-29 13.5-44t48.5-15q36 0 48 22t12 48q0 41-18.5 69.5T366 400q16 67 46.5 98.5T462 530zM63 598l59-87 102 5 13 82h224v-51q-27 0-59-34t-52-103q-7 6-18 6-16 0-29-8.5T290 371v-29h19v37q0 10 6.5 14.5T332 398q9 0 23-12.5t28-31.5q14-19 23.5-39.5T416 277q0-10-2-25t-10.5-26q-8.5-11-27.5-11-29 0-35.5 11t-6.5 30v39h-62v-58q0-34-15.5-42t-43.5-8H68L6 364h69v-22l19-4v31l-11 12H60l-9 41h62l-5 17H50l13 50-24 104zm65-311q-17 0-30-4t-19-4q-6 0-18 6l-7-9 12-12q19-20 29.5-29.5T118 225q13 0 33 10l56 24 21-3 4 12-26 6-13-2q-22 7-39.5 11t-25.5 4zm-5-15q7 0 11.5-5t4.5-11q0-5-3-10-9-6-15-6-8 0-12 5.5t-4 10.5q0 16 18 16zm27-2q16-3 29-9l-26-9q1 2 1 5 0 4-1.5 7t-2.5 6zm-58-2q-1-4-1.5-7t-.5-5l-10 9z" fill="currentColor"/></svg>