<svg xmlns="http://www.w3.org/2000/svg" viewBox="0 0 595.3 472.5"><path d="M145.2 139.2c0 26.5 15.8 41.4 47.5 44.7 16.1 0 28-4.8 35.6-14.4 7.6-9.6 11.4-20.6 11.4-33.1s-8.2-25-24.7-37.4h-15c-30.4 0-46.4 4-47.9 11.9-4.6 10.7-6.9 20.1-6.9 28.3zm101.3-38.3c9.7 12.8 14.6 26.6 14.6 41.5s-7.2 28.8-21.5 41.5c16.4 0 38.5-6.4 66.2-19.2 27.7-12.8 45.7-23.9 53.9-33.3-5.5-2.7-23.5-8.5-54.1-17.3-30.5-8.8-50.3-13.2-59.1-13.2zM65.7 164.3c18 2.7 44.4 8.7 79.4 17.8-13.4-12.2-20.1-26.3-20.1-42.5 0-6.7 2.1-16.9 6.4-30.6-17.6 8.3-39.5 26.7-65.7 55.3zM595.3 42.9v29.2c-76.4.3-131.9.5-166.4.7-34.5.2-66.9-4.9-97-15.3-30.1-10.3-59.8-18.4-89-24.2-29.2-5.8-56.8-7.4-82.9-4.8-26 2.6-49.4 11.6-70.1 26.9-20.7 15.4-42.7 23.1-66.2 23.1C7.9 78.5 0 72.3 0 59.8c0-10.3 7.9-15.5 23.7-15.5 21.9 0 41.8-6.5 59.6-19.4C101.1 12 124.8 4.1 154.5 1.4c29.7-2.7 59.3-1.3 89 4.3 29.7 5.6 59.6 13.3 89.7 23.1 30.1 9.7 61.8 14.6 95 14.6 33.2-.1 88.9-.2 167.1-.5zM476.6 418.1c6.7 0 10 3.9 9.8 11.6-.2 7.8-3.4 11.6-9.8 11.6-12.8 0-19.2-7.8-19.2-23.3 0-24.7 10.7-37 32-37 20.7 1.8 31 14.2 31 37 0 33.5-14.6 51.6-43.8 54.3-79.7 0-187.5-84-323.2-252v195.8h-33.8v-144l-15.5-11.4v-26c11.9 0 17.8-2 17.8-5.9v-14.2c-22.5-10.7-40-16.4-52.5-17.1-12.5-.8-32.6 1.4-60.3 6.6-4.9-2.7-7.3-10.5-7.3-23.3 0-13.1 2.9-20.2 8.7-21.5 11.9-2.1 29.5-14.8 53-38.1 23.4-23.3 44.2-38.7 62.3-46.3 18.1-7.6 42.5-11.4 73.3-11.4 40.8 0 100.7 12.5 179.9 37.4 41.4 6.4 113.5 8.5 216.4 6.4v58.4c-103.2-6.1-175.5-7.5-216.8-4.1-58.7 36.8-120.4 55.2-184.9 55.2C314.5 369.9 409 446.4 477.2 446.4c15.2 0 22.8-9.4 22.8-28.3 0-9.1-3.7-13.7-11-13.7-8.3.1-12.4 4.6-12.4 13.7z"/></svg>