<svg xmlns="http://www.w3.org/2000/svg" viewBox="-10 0 1150 960"><path d="M5 312l-15-11q16-21 52-58t88-78.5q52-41.5 117-79T387 24Q462 0 544 0q59 0 117 14.5t111.5 36Q826 72 870 95t73.5 41.5Q973 155 984 162t32 20.5q21 13.5 45.5 28.5t46 28q21.5 13 32.5 19l-10 17q-11-6-32-19t-46-28q-25-15-47-29t-34-22q-10-7-38.5-25t-71-40Q819 90 767 69T658 34q-57-14-114-14-79 0-152.5 23.5T255 103q-63 36-113.5 77T56 256.5Q21 292 5 312zm517 648q-5-46-16-100t-27.5-106q-16.5-52-36-93T401 600v-29q63-13 87-40 15-16 20-41t7-60q-41-4-95-13t-111.5-20.5Q251 385 199.5 374T112 354.5Q76 346 66 343q-16 14-28 25t-17 16L7 370q43-43 104.5-89.5t133.5-87Q317 153 393.5 128T544 103q94 0 171.5 26.5t142 65.5Q922 234 976 271q44 30 82.5 53.5T1132 355l-4 20q-24-4-48.5-17t-52.5-30q-6 2-39.5 11.5t-83 22.5Q855 375 798 389t-111.5 25Q632 425 590 429l348 463q13 18 32.5 33.5T1019 941q34 0 60-21.5t26-58.5q0-30-19.5-55t-52.5-25q-32 0-48.5 21T964 843l-19-3q3-17 13.5-35.5t28.5-31q18-12.5 46-12.5 41 0 66.5 31t25.5 69q0 46-32 72.5t-74 26.5q-38 0-60-18t-38-38L567 431h-1v529zm21-550q40 0 72-19.5t51.5-51.5q19.5-32 19.5-71t-19.5-71.5Q647 164 615 144.5T543 125q-40 0-72 19.5t-51.5 52Q400 229 400 268t19.5 71q19.5 32 51.5 51.5t72 19.5zm88-6q50-8 108.5-21T853 355.5q55-14.5 96-25.5t57-16l-41-27q-44-30-95.5-62.5t-112-58Q697 141 627 130q34 21 56 57.5t22 80.5q0 43-20.5 78.5T631 404zm-178-1q-32-22-52-57.5T381 268q0-43 20-78.5t53-56.5q-75 15-145 49t-127.5 73.5Q124 295 85 327q14 4 53.5 13t93.5 21q54 12 112 23t109 19zm87 538h6V431h-11q-2 39-7 65.5T507 542q-12 13-32.5 24T422 584v7q21 20 40 60t35 90q16 50 27 102.5t16 97.5z" fill="currentColor"/></svg>