<svg xmlns="http://www.w3.org/2000/svg" viewBox="-10 0 639 400.777"><path d="M625 399.462q-74 5-154-9t-155-33l-28-7q-34-10-82-22.5t-96-12.5q-29 0-56.5 7t-49.5 24l-14-14q42-52 101.5-101.5t129-92.5q69.5-43 142-75.5t140.5-49q68-16.5 124-13.5l2 18q-79 19-129 68.5t-50 123.5q0 50 25 85t64.5 56q39.5 21 85.5 29zm-74-20q-51-22-85.5-64t-34.5-105q0-64 34-112t92-75q-61 9-131 35t-141 64.5q-71 38.5-135 85.5t-112 98q36-11 72-11 50 0 91 10.5t75 20.5q30 9 35 10 26 8 65.5 17t85.5 16q46 7 89 10z" fill="currentColor"/></svg>