<svg xmlns="http://www.w3.org/2000/svg" viewBox="0 0 270 269.9"><path d="M0 136.5C0 117.6 3.5 99.8 10.5 83c7-16.8 16.8-31.3 29.4-43.6S67 17.5 83.5 10.5 117.6 0 136.5 0c18.2 0 35.5 3.7 52 11 16.5 7.4 30.6 17.2 42.5 29.4 11.9 12.3 21.5 26.8 28.9 43.6 7.4 16.8 10.7 34.7 10 53.6 0 16.8-3 33.3-8.9 49.4-6 16.1-14.7 30.3-26.3 42.5-11.6 12.3-25 22.1-40.4 29.4-15.4 7.4-32.9 11-52.5 11-13.3 0-28-1.9-44.1-5.8s-31-10.9-44.6-21c-13.7-10.2-25.6-23.8-35.7-41s-16-39-17.4-65.6zm37.8-1c0 23.1 8.9 44.8 26.8 65.1 17.9 20.3 43.2 30.5 76.1 30.5 28 0 50.4-9.6 67.2-28.9 16.8-19.3 25.2-41.5 25.2-66.7.7-24.5-7.5-46.6-24.7-66.2s-41.1-30.5-71.9-32.6c-26.6.7-49.7 10.5-69.3 29.4-19.6 19-29.4 42.1-29.4 69.4z"/></svg>