<svg xmlns="http://www.w3.org/2000/svg" viewBox="0 0 595.3 123.5"><path d="M156.8 0c-1.9 0-3.7 0-5.6.1-8.8.4-18 1.5-26.8 3.1-17.6 3.3-35.5 7.8-53.5 13.2-18 5.4-40.9 10.5-69.3 15.7L2.1 50C30.9 44.7 54 39.4 71.9 33.7c17.9-5.7 35.7-10.2 53-13.6 12.5-2.5 24.5-3.8 36-3.8 4.5 0 9 .2 13.4.6 15.5 1.4 30.3 6.6 44.1 15.7s27.5 13.6 41.5 13.6c9.2 0 13.6-3.3 13.6-10.5 0-6.3-4.4-9.4-13.6-9.4-13 0-25.6-4-37.8-11.5-12.2-7.6-27.1-12-44.6-13.6-7-.7-13.8-1.2-20.7-1.2zM436 .1c-1.5 0-3 0-4.5.1-4.4.1-8.7.6-13.1 1.1-17.5 1.6-32.9 6.1-45.1 13.6-12.2 7.6-24.8 11.5-37.8 11.5-9.2 0-13.6 3.1-13.6 9.4 0 7.2 4.4 10.5 13.6 10.5 13.9 0 28.2-4.5 42-13.6s28.1-14.3 43.6-15.7c4.4-.4 8.8-.6 13.4-.6 11.5 0 23.5 1.3 36 3.8 17.4 3.4 35.1 8 53 13.6 17.9 5.7 41.1 11 69.8 16.3l.5-17.8c-28.4-5.2-51.3-10.3-69.3-15.7-18-5.4-35.9-9.9-53.5-13.1-11.8-2.4-23.3-3.4-35-3.4zM194.2 59.4c8.9 2 25.6 13.6 49.9 35.2v3.7l-53 8.9c6.2-7.1 9.4-14.9 9.4-24.1 0-8.5-2.3-16.4-6.3-23.7zm206.9 0c-4 7.2-5.8 15.1-5.8 23.6 0 9.2 2.8 17.1 8.9 24.1l-53-8.9v-3.7c24.2-21.4 41-33.1 49.9-35.1zm-279.8-3.6c-4.3 9-6.3 17.7-6.3 26.2 0 8.6 2.8 17.4 8.4 25.7-27.9-8-50.2-18.3-66.7-31v-.5c16.5-9.4 38-16.3 64.6-20.4zM153 52c1.6 0 3.4.1 5 .1 9.8 0 16.6 2.1 21.5 6.3 4.9 4.2 7.3 12.4 7.3 24.7 0 16.6-9.5 24.7-28.9 24.7-19 0-28.5-8-28.9-24.7 0-12.3 2.1-20.5 6.8-24.7 3.5-3.1 8.3-5.5 14.7-6.3.9-.1 1.6-.1 2.5-.1zm280.1 0c1.5 0 3 .1 4.6.1 9.8 0 16.8 2.1 21.5 6.3 4.7 4.2 7.3 12.4 7.3 24.7-.4 16.6-10.4 24.7-29.4 24.7-19.4 0-28.9-8-28.9-24.7 0-12.3 2.5-20.5 7.3-24.7 3.7-3.1 8.8-5.5 15.2-6.3 1-.1 1.7-.1 2.4-.1zm40.9 3.8c26.6 4.2 48.1 11.1 64.6 20.5v.5c-16.5 12.7-38.8 23-66.7 31 5.6-8.3 8.4-17.1 8.4-25.7 0-8.7-1.9-17.3-6.3-26.3zM158 36.9c-25.7 0-61 7.6-105.5 22.6-17.7 4-35 5.8-52 5.8L0 86.2h9.4c14.7 0 31.6 2.5 50.4 7.3 31.8 19.9 64.5 29.9 98.2 29.9 15.9 0 30.9-1.7 45.1-5.2 12.1-3 28.4-4.3 48.7-4.3 3.6 0 7.3 0 11.2.1 3.1 0 4.2-4.9 4.2-14.2s-1.6-14.2-5.2-14.2c-7.8-1.3-17.4-7-28.9-17.3s-21.4-17.2-29.9-21c-16.3-7-31.3-10.4-45.2-10.4zm279.8 0c-13.9 0-29.4 3.4-45.7 10.5-8.5 3.8-18.4 10.7-29.9 21s-21.1 16.1-28.9 17.3c-3.6 0-5.2 4.9-5.2 14.2s1.6 14.2 4.7 14.2c3.8-.1 7.6-.1 11.1-.1 20.2 0 36.1 1.3 48.2 4.3 14.2 3.5 29.2 5.2 45.1 5.2 33.6 0 66.3-10 98.2-29.9 18.8-4.9 35.7-7.3 50.4-7.3h9.4v-21c-17 0-34.8-1.8-52.5-5.8-44.4-15.1-79.2-22.6-104.9-22.6z"/></svg>