<svg xmlns="http://www.w3.org/2000/svg" viewBox="-10 0 1023 790"><path d="M811 790q-59 0-122-30t-128-82q-65-52-130-119.5T303.5 416Q241 341 182 264.5T71 119Q50 90 29.5 63T-10 11L5 0q19 24 39.5 51.5T87 107q52 68 110 143.5t120 150q62 74.5 126 141T570.5 660q63.5 52 124 81.5T811 771q54 0 95.5-21.5t64.5-57q23-35.5 23-77.5 0-20-7-44t-23-46q-16-22-43-36.5T854 474q-43 0-70 20t-40 48.5Q731 571 730 598l-19-1q1-30 15.5-63.5T772 477q31-23 82-23 44 0 74.5 15.5t49 40q18.5 24.5 27 52.5t8.5 53q0 48-25.5 88t-71 63.5Q871 790 811 790z" fill="currentColor"/></svg>