<svg xmlns="http://www.w3.org/2000/svg" viewBox="0 0 595.3 172.6"><path d="M211.5 0c-.7 0-1.4 0-2.2.1-11.1.5-16.2 6.2-15.2 17 .9 9.5 6 14.4 14.6 14.4.8 0 1.5 0 2.3-.1 10.1-.5 14.8-5.8 14.3-16.1-.4-10-5.1-15.3-13.8-15.3zm-51.3 10.5c-1.3 0-2.5.1-3.6.3-6.4 1-10.6 5.4-11.6 13.4-1.2 10.3 3.3 16.7 13.4 17.9 1.4.2 2.8.4 4.1.4 7.6 0 12.3-4.2 13.8-12.9C178 19 173.8 12 163.7 10.8c-1.3-.2-2.4-.3-3.5-.3zm-46.3 17c-1.4 0-2.6.1-3.8.3-6.4.8-10.6 4.5-11.6 12.5-1.2 10.3 4.2 16.7 14.3 17.9 1.4.2 2.8.4 4 .4 7.4 0 11.5-4.2 12.9-12.9 1.8-10.6-2.4-16.7-12.5-17.9-1.1-.2-2.2-.3-3.3-.3zM70 51c-.3 0-.6 0-1 .1-6.4.8-9.7 5.4-10.7 13.4-1.2 10.3 3.3 15.8 13.4 17 1.4.2 2.8.4 4 .4 7.4 0 11.5-4.2 12.9-12.9 1.8-10.6-2.4-15.8-12.5-17-2.3-.5-4.3-1-6.1-1zM40.5 86.5c-1.3 0-2.5.1-3.6.3-6.4 1-9.7 5.4-10.7 13.4-1.2 10.3 2.4 16.7 12.5 17.9 1.3.2 2.5.3 3.6.3 7.7 0 11.9-4.9 13.4-13.7C57.4 94 54 88 44 86.8c-1.3-.2-2.4-.3-3.5-.3zM346 61.8c58.5 0 120.3 14.6 185.9 42.9-65.6 27.5-127.3 41.1-185.9 41.1-58.1 0-120.8-13.6-186.8-41.1 66-28.3 128.7-42.9 186.8-42.9zM15 129.4c-1.5 0-3 .1-4.1.3-6.4 1-9.7 5.4-10.7 13.4-1.2 10.3 3.3 16.7 13.4 17.9 1.4.2 2.8.4 4.1.4 7.6 0 12.3-4.2 13.8-12.9 1.8-10.6-2.4-17.6-12.5-18.8-1.3-.2-2.7-.3-4-.3zM346 35c-72.3 0-155.4 22.9-249.3 68.8 93.9 45.6 177 68.8 249.3 68.8 72.3 0 155.4-23.2 249.3-68.8C501.8 57.8 418.6 35 346 35z"/></svg>