<svg xmlns="http://www.w3.org/2000/svg" viewBox="0 0 589.4 234.4"><path d="M25.1 0v39.4C21.2 52.7 12.8 60.8 0 63.6v20.1c12.8 2.8 21.2 11.4 25.1 26l27.6 124.7H87V21.8c156.8 132.8 297.8 203.2 422.8 211 35.7-1.7 58.9-10 69.5-25.1 10.6-15.1 12.8-30.1 6.7-45.2-6.1-15.1-16.6-24.7-31.4-28.9-14.8-4.2-27.6-.6-38.5 10.9-10.9 11.4-12.7 23.3-5.4 35.6 7.3 12.3 16.5 15.5 27.6 9.6 11.2-5.9 13.7-15.8 7.5-29.7 11.2-1.7 15.3 5.4 12.6 21.3-2.8 15.9-19 24.7-48.6 26.4C393.2 190.3 266 128.1 128.1 20.9V0h-103zm42.7 21.8v195.9L42.7 107.2c-5-17.9-12.6-28.5-22.6-31.8v-2.5c10-3.3 17.3-12.8 21.8-28.5l2.5-22.6h23.4z"/></svg>