<svg xmlns="http://www.w3.org/2000/svg" viewBox="-10 0 1050 791"><path d="M169 791q-4-37-14-94t-26-121.5q-16-64.5-37.5-125t-47-105Q19 301-10 285v-57q71 0 107.5-22t49-72Q159 84 159 0h66q92 121 153.5 202.5t100 132.5q38.5 51 60 79.5t32 42Q581 470 586 477q39 54 79 105.5t79 94q39 42.5 78 67.5t77 25q42 0 69-16.5t40-42.5q13-26 13-55 0-22-10-49.5t-35-48Q951 537 907 537q-28 0-47.5 11T828 573.5Q816 588 809.5 601t-7.5 17l-18-5q1-3 7.5-18t21-33q14.5-18 38-31.5T907 517q48 0 77 22t42.5 54.5Q1040 626 1040 655q0 34-16 64.5T976.5 769Q945 788 899 788q-42 0-83-25.5T734 694q-41-43-82-96t-82-109q-77-107-166.5-222.5T225 33v758zm18-20h19V19h-28q0 81-15.5 130.5t-52 72.5Q74 245 11 246v20q40 41 70 103.5t51 134Q153 575 166.5 645T187 771z" fill="currentColor"/></svg>