<svg xmlns="http://www.w3.org/2000/svg" viewBox="-10 0 514 701"><path d="M78 701q-88 0-88-87 0-20 15-45.5T35 521q14-19 25.5-38.5T72 450q0-21 13-40t31.5-33.5Q135 362 149 355h9l17 28-2 11q-17 8-30.5 21.5T129 442q0 8 4 13.5t9 5.5q17 0 30-10.5t22-21.5q6-7 19-28t26.5-45q13.5-24 20.5-42t1-20q-13-3-24.5 2t-23.5 5q-26 0-41-17t-20.5-40.5Q146 220 146 203q0-47 21-94t63.5-78Q273 0 335 0q81 0 125 54t44 142q0 52-19.5 101T434 388q-31 42-65 74.5T305 515q-18 13-40.5 27.5t-43 31Q201 590 190 608q-11 20-26.5 42t-37 36.5Q105 701 78 701zm0-20q35 0 58-27t36-55q10-16 32.5-35t47.5-36q25-17 42-28 30-20 63-53t62.5-74q29.5-41 47.5-86.5t18-90.5q0-79-39-127.5T335 20q-56 0-94 28t-57 70q-19 42-19 85 0 14 4 32.5t14.5 32Q194 281 212 281q-17-14-25-35t-8-38q0-48 20.5-85T255 64.5Q290 43 333 43q44 0 71 22t39 56q12 34 12 69 0 58-25.5 112.5t-67 102.5q-41.5 48-89 86.5T182 556q-3 2-7.5 7t-8.5 10q-11 12-25 24.5T108 610q-31 0-37-16t-5-32q1-10 9-23t16-24q9-11 15.5-22.5T113 468q0-5-1-7-1-5-1.5-9.5T110 441q0-16 12.5-33t28.5-26l-2-6q-17 10-37.5 30T91 450q0 17-12.5 38T51 531q-16 23-29 44.5T9 614q0 67 69 67zm282-301q34-44 55-92t21-98q0-30-10-59.5t-32.5-49Q371 62 333 62q-40 0-71 22.5t-48.5 57Q196 176 198 211q1 19 8.5 35t25.5 31q-8-17-13-32t-5-31q0-37 26.5-64.5T310 122q27 0 47 16t30.5 41q10.5 25 10.5 52 0 41-10.5 79T360 380zM108 590q13 0 23.5-10t19.5-20q5-6 10.5-11.5T172 540q36-22 72.5-50t67-65q30.5-37 48.5-85t18-109q0-34-18-61.5T310 142q-35 0-56 22t-21 50q0 17 6 31t13 27h12q19 2 18 21.5T268.5 340q-12.5 27-29 52.5T213 432q-11 14-28.5 31.5T141 481q-3 0-5.5-.5t-4.5-.5q-3 14-9.5 25T107 527q-8 10-14.5 19.5T86 564q-1 9 2 17.5t20 8.5z" fill="currentColor"/></svg>