<svg xmlns="http://www.w3.org/2000/svg" viewBox="0 0 462.3 594.5"><path d="M296.1 28.4c5.2 0 10.4.3 15.6 1.1 50.1 10.6 81.7 46.7 115.1 87.2 27.3 62.6-7.1 132.9-35.4 181.3-17.4 24.6-47.2 51.8-75.6 78.2-44.3 47.4-111.4 76.5-146.8 132.4-25.5 31.1-52.5 41.9-75.2 41.9-27.9 0-49.3-16.4-53.1-31.7-18.6-69.3 41.7-117.1 71.6-167.3 6-4.3 10.9-6.1 14.8-6.1 12.5 0 14.1 18.7 5.6 33-5.2 14-.5 18.6 7.5 18.6 10.1 0 25.3-7.3 32.8-12.4 30.5-19.5 61.7-31.2 83.4-61.5 16.5-23 38.1-52.9 28-83.6-21.2-25.7-61.6-17.3-85.9-39.1-5.4-75.1 56.5-111.7 93.8-111.7 3.4 0 6.5.3 9.4.9 38.9 6.5 69.7 42.9 73.3 84.1-1.8 44.9-20.1 85.7-48 119.8-27 35.5-68 54.5-102.1 81.8-31.4 26.5-72.3 49.3-85.2 90.9 2.3 1.8 4.7 2.7 7.2 2.7 19.2 0 46.1-49.7 116.1-88.4 28.9-22.5 44.8-31.8 75.9-62 46.4-48.2 55.5-81.7 66-129.5-2.7-37 11.9-47.7-38.4-104-21.9-19.1-50.1-29.4-77.9-29.4-11.5 0-23 1.8-33.9 5.4-43.3 13.1-78.3 67.8-98.4 105.7-9.1-38 16.8-88.8 46.3-109.3 28.4-15.5 60.6-29 93.5-29zM276.6 0c-71.3 4-140 60.4-154.6 117-6.3 39.6-6.1 87 24.7 116.9 18.9 15.6 43.6 24.3 66.7 32 1-.1 2.1-.1 3-.1 31.3 0 30.1 40.4 3.2 50.3-7.3 12.7-19.1 21.4-30.5 21.4-8.4 0-16.5-4.7-22.5-16.2-8.4-11.8-27.3-23.1-43.8-23.1-10.7 0-20.4 4.8-25.5 17.2-28.5 40.7-57.7 65.3-80.6 109.6C-3.6 459.7-4.4 511.7 9 549.5c11.9 18.4 40.2 45 82.2 45 18.4 0 39.3-5.1 62.7-18.2 40.2-55.8 92.7-101.3 144.9-145.7 48.5-43.9 104.2-83.2 132.2-144 23.8-49.7 41.6-110.7 24.3-165.5C425.3 51 367.6 3.7 276.6 0z"/></svg>