<svg xmlns="http://www.w3.org/2000/svg" viewBox="-10 0 696 608"><path d="M18 608l-28-46 121-247 77-192q18-29 48.5-57T310 19q43-19 97-19t100 12q46 12 81 29t53 32q10 25 20 61t17.5 75q7.5 39 7.5 73 0 33-6 77.5T665.5 448q-8.5 44-15.5 77-12 38-48 59.5T491 608H143l-39-6-38 6zm11-20h38l36-6 47 6h12l20-27-9-27h-29v-18h43l15 47-20 25h309q68-1 100-19t41-52q1-4 6.5-28t12-59.5Q657 394 662 355t5-73q0-30-7-67t-17-72q-10-35-19-59-5-4-32-20t-73-30.5Q473 19 407 19q-52 0-90 16.5T254.5 74q-24.5 22-36 38.5L207 129l-78 193L11 560zm178-351l-11-17q16-18 40.5-36.5t52-31.5q27.5-13 53.5-13 37 0 77.5 12.5T497 182q37 18 62 35l-10 17q-26-16-62.5-33.5t-75-29.5Q373 159 342 159q-23 0-48 12.5T246 202q-23 18-39 35zm146 113q-31 0-64-8t-56.5-16.5Q209 317 206 316q-6 9-8 13l-17-11q16-26 42-53.5t56-46.5q30-19 59-19 25 0 54.5 10.5t60 26Q483 251 509 265q23 13 42 21.5t25 8.5q17 0 29-3t16-6l7 18q-7 4-21 7.5t-31 3.5q-13 0-33-10l-27 9-50.5 15.5Q415 345 406 344t-53 6zm-5-26q20 0 34.5-14.5T397 275q0-20-14.5-34.5T348 226q-20 0-34.5 14.5T299 275q0 20 14.5 34.5T348 324zm-46 1q-22-19-22-50 0-26 16-44-23 12-43.5 32.5T218 300q10 4 33 12t51 13zm91 2q33-6 68.5-16.5T519 293q-36-19-63.5-33T404 235q13 19 13 40 0 15-7 28.5T393 327z" fill="currentColor"/></svg>