<svg xmlns="http://www.w3.org/2000/svg" viewBox="0 0 324.7 349.2"><path d="M57.5 90.6c-3.8 11.5-4.7 18.8-2.6 22.1 2.1 3.2 4.3 13.3 6.6 30.1 10.3 33.3 22.3 58 35.8 74.3 13.6 16.2 24.5 26.8 32.7 31.5 8.2 4.8 19 2.6 32.4-6.6 13 9.2 24.9 10.2 35.8 3.2 10.9-7.1 21.4-19.2 31.5-36.4 10.1-17.2 21.1-39.2 33-65.9 2.3-16.8 4.6-27 6.9-30.4 2.3-3.4 1.3-10.7-2.9-21.8-23.7-14.5-44-29.8-60.8-45.9-29.1 13-58.3 13.4-87.7 1.1-6.8 14.9-27.1 29.8-60.7 44.7zm60.8 107.8c11.5-6.5 21.8-10.7 31-12.6l13.2 5.7 13.2-5.2c8 1.5 18.2 5.4 30.4 11.5-5.4 11.1-13.8 18.3-25.2 21.5-11.5 3.2-22.2 3.7-32.1 1.4-10.1-2.2-20.2-9.7-30.5-22.3zM70.1 96.9c31.3-19.5 55.8-22.7 73.4-9.7 8 29.8 7.5 51.6-1.7 65.4-15.7 3.8-21 10.1-16.1 18.9 5 8.8 13.2 10.1 24.7 4 8 9.9 15.9 9.9 23.5 0 11.9 6.1 20.3 4.8 25.2-4 5-8.8-.6-15.1-16.6-18.9-7.3-13.8-7.6-35.6-1.1-65.4 18-13.4 42.4-10.3 73.4 9.2l-1.7-8.6c-21.4-14.9-38.8-20.9-52.2-18.1-13.4 2.9-22.4 9.1-27 18.6-4.2 13-6.2 27.4-6 43.3.2 15.9 4.6 25.2 13.2 28.1 8.6 2.9 11.6 5.8 8.9 8.9-2.7 3.1-6.3 3.3-10.9.9-4.6-2.5-8.5-1.7-11.8 2.3-3.2 4-6.6 4-10 0-3.4-4-7.4-4.8-11.8-2.3s-8 2.2-10.9-.9c-2.9-3.1 0-6 8.6-8.9 8.6-2.9 13-12.1 13.2-27.8.2-15.7-1.6-30.2-5.4-43.6-3.8-9.6-12.1-15.8-24.9-18.6C113.2 66.8 95 73 71.3 88.3l-1.2 8.6zm47 241.4h89.5l-11.5-75.1c-9.2 2.3-20.1-1-32.7-9.7-12.6 8.8-23.5 12-32.7 9.7l-12.6 75.1zm12.6-140.5c21.8 6.1 43 5.7 63.7-1.1-11.5-4.2-19.5-4.7-24.1-1.4-4.6 3.2-9.3 3.2-14 0-4.8-3.3-13.3-2.4-25.6 2.5zm0 4.6c9.9 9.6 20.8 14 32.7 13.5 11.9-.6 24.1-5.1 36.7-13.5-24.4 8.1-47.6 8.1-69.4 0zm144-110.6c9.6 11.1 9.9 21.2 1.1 30.4-2.3 12.6-.3 19.1 6 19.5s14.9-10.5 25.8-32.7 11.2-37.5.9-45.9c-10.3-8.4-16.5-8.1-18.6.9-2.1 9-3 16.4-2.6 22.4.4 5.8-3.8 7.6-12.6 5.4zm16.6-5.2l.6 18.4-9.2 22.4 5.2 4c21-34.4 27.6-55.2 19.8-62.5-7.8-7.3-13.7-4.4-17.5 8.6l1.7 1.1c3.8-8 7.6-9.6 11.5-4.6 3.8 5 2.9 13.9-2.9 26.7-5.7 12.8-10.1 21.7-13.2 26.7l-1.7-1.7c6.5-11.9 9.8-21 10-27.5.2-6.5 1.1-10.7 2.6-12.6l-6.9 1zM27.1 85.4c1.5 1.9 2.4 6.1 2.6 12.6.2 6.5 3.5 15.7 10 27.5l-1.7 1.7c-2.7-5-6.9-13.9-12.6-26.7-5.7-12.8-6.8-21.7-3.2-26.7 3.6-5 7.4-3.4 11.2 4.6l1.7-1.1c-3.4-13-9.1-15.9-16.9-8.6-7.8 7.3-1.4 28.1 19.2 62.5l5.7-4-9.1-22.3.6-18.4-7.5-1.1zm24.1 6.4c-9.2 2.2-13.5.4-12.9-5.5.6-5.9-.2-13.4-2.3-22.4-2.1-9-8.3-9.3-18.6-.9-10.4 8.5-10.2 23.8.5 46s19.3 33.1 25.8 32.7c6.5-.4 8.6-6.9 6.3-19.5-9.1-9.2-8.8-19.4 1.2-30.4zm3.4 60.7c-1.9 5-5.4 7.6-10.6 7.7-5.2.2-10.2-5.1-15.2-15.8C2.1 106.3-6.1 79.7 4.4 64.8 15 49.9 25 44.8 34.6 49.6c9.6 4.8 13.6 15.4 12 31.8C63 27.1 101.6 0 162.4 0S262 27.1 278.8 81.4c-1.9-16.4 1.8-27 11.2-31.8 9.4-4.8 19.4.3 30.1 15.2s2.7 41.5-24.1 79.7c-5 10.7-10 16-15.2 15.8-5.2-.2-8.7-2.8-10.6-7.7-18.4 44.3-39.8 77.8-64.2 100.4l13.8 96.3h-117l16.1-96.3c-32.2-21.9-53.6-55.4-64.3-100.5zm88.9-40.1c-18 10.3-41.7 7.5-71.1-8.6 27.9-10.7 46-14 54.2-9.7 8.2 4.2 13.9 10.3 16.9 18.3zm-59.6-8l21.2 8c-5-4.2-5-8.8 0-13.8l-21.2 5.8zm52.7 5.7l-17.2-12.6c3.8 6.5 3.4 11.9-1.1 16.1l18.3-3.5zm70 3.4c-4.6-4.2-5-9.7-1.1-16.6l-17.2 13.2 18.3 3.4zm13.2-15.4c5 5.4 5 10.1 0 14.3l20.6-8-20.6-6.3zm-38.4 14.3c3.1-8 8.7-14.1 16.9-18.4 8.2-4.2 26.1-1.1 53.6 9.2-29.1 16.1-52.6 19.1-70.5 9.2z"/></svg>