<svg xmlns="http://www.w3.org/2000/svg" viewBox="0 0 381.4 388.9"><path d="M198 45.9c-5.4 0-11 .2-16.6.8-35.4 3.4-63.1 28.4-65 28.4-1.9 0-9.2 10.2-9.2 13.3 0 3.3 2.9 4.8 7.1 4.8 6.2 0 15.2-3.3 21.7-9.2 13.7-12.4 36.5-20.5 66.3-20.5 21.3 0 46.1 4.1 73.8 13.7 14.7 5.1 26.6 9.3 46.8 9.3 1.8 0 3.6 0 5.6-.1 29-1 29.1.5 29.1-8.5 0-7.3-1.3-10.1-18.2-10.1-3.7 0-8.2.1-13.5.4-.8 0-1.6.1-2.4.1-28.9.1-73.4-22.4-125.5-22.4zm43 57.8c1.9 0 4.5.3 8 .9 49.1 9.2 50.1 16.3 16.1 24.9-7.7 2.8-16.5 3.5-20.6 4.9-3.8 1.3-6.3 1.9-7.8 1.9-5.3 0 .2-6.8 1.2-15.8 1-8.8-6.9-16.8 3.1-16.8zm-65.7 1c.3 0-4.5 10.4-4.4 17.5.1 6.8 9.3 17.8 1.6 17.8-.3 0-.6 0-1-.1-6.1-.6-11.1-.5-16.5-2.9l-17.4-3.8 15.6-15.2c5.1-4.4 21.8-13.3 22.1-13.3zm30.8-4.2h2.2c19 .7 19.3 27.9 10 35.4-4.5 3.7-9.7 5.4-14.7 5.4-10.2 0-19.4-7.3-20-20.3-.6-13.7 6.2-20.5 22.5-20.5zM220.2 89c-53.1 0-63.6 12.9-87 31.1-8.5 6.6-19 17.8-19 20.3 0 2.9 40.8 13.8 58.6 15.6 2.8.3 6.4.4 10.4.4 22.6 0 60.2-3.9 64.6-5.3 28.8-9.8 49.5-18.2 77.7-18.2h30.3v-22h-29.9c-20.2 0-30.7-2.6-54.3-11-20.3-7.1-38.2-10.9-51.4-10.9zM103.1 0c-3 0-19.5 47.8-24.1 57.9-12.4 26.9-17 45-16.5 78.6.5 38.6-50.5 124.4-51.7 127.3-18.5 45.5-7.4 51-7.4 51 15.8 13.1 30.4 19.5 47.5 19.5 23.1 0 34.7 16.1 15.6 29.7-9.1 6.5-9.2 20.2-2.7 22.8 3.5 1.4 9 2.1 14.5 2.1 7 0 13.9-1.1 16-3.2 7.9-7.9 15.3-43.3-.2-53C75.8 321.3 78 308 84.7 308c.9 0 1.8.2 2.8.7 15.5 7.5 29.9 11.9 41.7 11.9 8.9 0 16.4-2.5 21.7-8 32.5-33.4 4.8-58.9-15-58.9-13.3 0-13.9 5.1-1.8 15.7 8.2 7.3 8.7 9 4.4 17.2-2.9 5.5-5.7 8.2-11.8 8.2-4.8 0-11.6-1.7-22-4.8-5.9-1.8-11.7-4.8-18.3-4.8-7.6 0-16 4.2-26.2 19.4-2.7 4.1-3.7 6.7-7.6 6.7-2.7 0-6.7-1.2-13.5-4.1-19.7-8.2-19.4-15.8 1.8-57.9 10.4-20.7 39.3-78.5 39.7-87 .1-3 .8-20.6 1.4-39 .6-19 23.9-98.5 35.1-101 10.5-2.3 14.7-2.9 136.4-2.9h127.8V1.1L103.1 0z"/></svg>