<svg xmlns="http://www.w3.org/2000/svg" viewBox="-10 0 436 607"><path d="M83 607l-17-11q-5 1-13.5 4.5T38 606l-29-3-19-31 84-183q7-34 14.5-74l13.5-72 8-42q7-16 23.5-43t36-52.5Q189 80 204 67t40.5-28.5q25.5-15.5 69-27T426 0v19q-65 0-106 11t-65 25q-24 14-38 27t-33 37q-19 24-34.5 49.5T128 210v-1q-3 10-9 41t-13 70.5Q99 360 93 394L11 571q2 3 4 7.5t4 7.5h16q4-1 14-4.5t18-5.5l22 13h24l17-17-5-22H98v-16h40l10 40-26 33zm55-216l-16-12q14-19 41.5-38.5T222 321q13 0 35.5 8t47 19q24.5 11 44.5 22l-9 17q-19-10-42-21t-44-18.5q-21-7.5-32-7.5-25 0-48.5 17.5T138 391zm92 62q-10 0-19.5-2t-20.5-3q-14-3-32-4t-43 4q26-34 51.5-56t56.5-22q26 0 45 8.5t32 15.5q19 11 41 15t47 7v18q-43 7-85 13t-73 6zm-4-20q9 0 15.5-6.5T248 411q0-9-6.5-16t-15.5-7q-10 0-16.5 7t-6.5 16q0 9 6.5 15.5T226 433zm34 2q17-2 36-4.5t38-5.5q-22-7-43-19-6-4-13-7.5t-15-6.5q5 10 5 19 0 13-8 24zm-71-5q-5-7-5-19v-6.5l1-5.5q-8 6-15 13.5T157 426l16 2z" fill="currentColor"/></svg>