<svg xmlns="http://www.w3.org/2000/svg" viewBox="0 0 595.3 185.8"><path d="M563.1 0c-21.7 0-33 6.1-33.9 18.2-9 76.9-14.8 108.8-24 110.7h-.8c-15.9-.8-32.7-1.7-50.4-1.7-33.3 0-66.2 1-84.3 4.1-29.7 5.1-61 11.3-95 19h-.7c-18-18.9-33.4-28.9-47.1-28.9-5-.3-10.8-.5-16.5-.8-28.3 5.4-45.2 7.4-51.2 7.4-4 0-5.8 2.9-5.8 8.3 0 7.7 5.6 11.6 17.3 11.6 19.9-3.5 34.9-5 45.4-5h5c6.1 0 10.7 2.7 14 7.4-6.6 8.1-22 11.6-44.6 11.6h-5c-25.8-.7-47.9-3.9-67.7-9.9-10.1 0-15.7 5.9-15.7 17.3 1.3 10.4 37.8 16.2 109.9 16.5l35.5-4.1 347.7 1.7V30.6C595.3 10.1 584.8 0 563.1 0zm-.9 16.5c8.8 0 13.2 4.9 13.2 14v105.7H535l13.2-110.7c.4-5.7 5.3-9 14-9zM193.9 51.2c-11.2.5-16 5.7-14.9 15.7 1 8.7 5.5 12.4 14 12.4.9 0 2.3.1 3.3 0 10.2-.5 14.7-5.3 14-14.9-.6-9.1-5.5-13.2-14-13.2-.8 0-1.5-.1-2.4 0zm-57 9.1c-10.7 1.3-15.5 6.5-14.9 15.7 1.1 9.1 5.6 13.2 14.9 13.2h1.7c10.7-.9 15.5-5.7 14.9-14.9-1.2-9.5-6.5-14-16.6-14zM89.8 76.8c-10.7 1.3-16 6.9-14.9 16.5.6 8.7 6.1 12.4 15.7 12.4h1.7c10.2-.5 14.7-5.7 14-15.7-1.1-9.1-6.5-13.2-15.7-13.2h-.8zm-42.1 28.1c-2 .2-4.3.7-6.6 1.7-9.2 4.4-11.9 11.1-7.4 19.8 3.3 5.8 7.1 9.1 12.4 9.1 2.6 0 6-1 9.1-2.5 9.2-4.4 11.9-10.7 7.4-19-3.4-6-8.6-9.1-14-9.1h-.9zm-31.4 32.2c-2 .3-4.3 1.4-6.6 2.5-9.7 4.4-11.9 10.3-7.4 19 3.7 5.6 8.5 8.3 14 8.3 2.6 0 5.3-.4 8.3-1.7 9.2-4.4 11.1-11.1 6.6-19.8-3.3-5.7-8.1-8.3-13.2-8.3-.8 0-1-.1-1.7 0z"/></svg>