<svg xmlns="http://www.w3.org/2000/svg" width="20.6" height="7.7"><path d="M20.6 1.4v5.9L8.8 7.2q-2.6-.1-4.4.2-2 .6-3.4 0-1.3-.7-1-1.1.3-.4 1.4.2 1.2.6 3.2 0-.5-.7-1.4-.6H1.8q-.3-.1-.3-.4-.1-.2.6-.3h1.7q1.6.4 2.3 1.1 2.7-.7 7.3-.7 2.4 0 4.2.2V1.4h3zM20 2q-1.6-.2-1.5 1.4v2.9q.7.3 1.5.3V2zM1.6.7q0 .5.3.6.2 0 .3-.6 0-.4-.3-.5-.3 0-.3.5zm2.1 0q0 .5.3.6.3 0 .3-.6 0-.4-.3-.5-.3 0-.3.5zM6 .7q0 .5.3.6.2 0 .3-.6 0-.4-.3-.5-.3 0-.3.5zM8 .7q0 .5.3.6.3 0 .3-.6 0-.4-.3-.5-.2 0-.3.5zm2.2 0q0 .5.3.6.3 0 .3-.6 0-.4-.3-.5-.3 0-.3.5zm.1 2.9V1.5q-.3 0-.4-.6H9q0 .5-.4.6v2h-.3v-2q-.4 0-.4-.6h-1q-.1.5-.5.6v2H6v-2q-.3 0-.4-.6h-1q0 .5-.4.6v2h-.3v-2q-.4 0-.4-.6h-1q-.1.5-.5.6v2h10.3v.6H0v-.5h1.6V1.5q-.3 0-.4-.6H.6V.6h.7q0-.6.6-.6.5 0 .5.6h1Q3.6 0 4 0t.6.6h1q0-.6.6-.6.5 0 .5.6h1.1q0-.6.5-.6t.6.6h1q0-.6.6-.6.5 0 .5.6h.8v.3H11q0 .5-.3.6v2h-.4z"/></svg>