<svg xmlns="http://www.w3.org/2000/svg" viewBox="-10 0 1079 481"><path d="M342 481V275q-99-12-178.5-33.5T37 194q-47-26-47-51 0-24 45-49.5T156.5 47q76.5-21 173-34T529 0q104 0 200.5 13t173 34Q979 68 1024 93.5t45 49.5q0 25-47 51t-127 47.5Q815 263 716 275v206h-19V277q-81 9-168 9-86 0-167-9v204zm187-214q77 0 151.5-8.5t140-22Q886 223 936 206.5t78.5-33Q1043 157 1043 143t-28.5-30.5Q986 96 936 80T820.5 50q-65.5-14-140-22T529 20q-77 0-151.5 8T238 50q-65 14-115 30t-78.5 32.5Q16 129 16 143t28.5 30.5Q73 190 123 206.5t115 30q65 13.5 139.5 22T529 267z" fill="currentColor"/></svg>