<svg xmlns="http://www.w3.org/2000/svg" viewBox="-10 0 1079 700"><path d="M520 700V286q-61 0-119.5-5.5T289 267v214h-20V264q-81-14-144-34t-99-42.5Q-10 165-10 143q0-24 45-49.5T156.5 47q76.5-21 173-34T529 0q104 0 200.5 13t173 34Q979 68 1024 93.5t45 49.5q0 22-36.5 44.5T933 230q-63 20-143 34v217h-20V267q-54 8-112.5 13.5T539 286v414zm9-433q77 0 151.5-8.5t140-22Q886 223 936 206.5t78.5-33Q1043 157 1043 143t-28.5-30.5Q986 96 936 80T820.5 50q-65.5-14-140-22T529 20q-77 0-151.5 8T238 50q-65 14-115 30t-78.5 32.5Q16 129 16 143t28.5 30.5Q73 190 123 206.5t115 30q65 13.5 139.5 22T529 267z" fill="currentColor"/></svg>