<svg xmlns="http://www.w3.org/2000/svg" viewBox="0 0 595.3 115.3"><path d="M595.3 106.9c-44.9-25.9-76.9-39.1-95.9-39.5-8.2 1.3-13.4 17.3-15.5 47.9H102.3c.4-31.5-3.2-47.3-11-47.3-16 0-46.4 13-91.3 38.9V96.5c54-34.1 101.7-57.9 143.2-71.3C178.6 8.4 229.9 0 297.3 0c67.8 0 120.5 8.4 158 25.3 39.7 13.4 86.4 37.1 139.9 71.3v10.3zM142.5 51.8C132.1 56.1 127 65.4 127 79.7c0 9.1.2 15.8.6 20.1h29.1c1.3-6 1.9-12.7 1.9-20.1-.8-16.9-6.2-26.2-16.1-27.9zm154.2-23.3C283.3 30.2 276.4 43.4 276 68c.4 13 1.7 23.5 3.9 31.7h33.7c1.7-8.2 2.6-18.8 2.6-31.7-.1-24.6-6.6-37.8-19.5-39.5zM245.5 35c-12.5 1.3-19.2 13.2-20.1 35.6.9 12.1 2.2 21.8 3.9 29.1h32.4c1.7-7.3 2.6-17.1 2.6-29.1 0-22.5-6.3-34.3-18.8-35.6zm-53.8 3.2c-12.1 1.3-18.4 12.5-18.8 33.7.4 11.7 1.7 20.9 3.9 27.9h29.8c1.7-6.9 2.6-16.2 2.6-27.9 0-21.2-5.8-32.4-17.5-33.7zm212.5-.6c-12.1 1.3-18.4 12.5-18.8 33.7.4 11.7 1.7 20.9 3.9 27.9h30.4c1.3-6.9 1.9-16.2 1.9-27.9.1-21.2-5.8-32.4-17.4-33.7zm-54.4-3.3c-12.5 1.3-19.2 13.4-20.1 36.3.9 12.1 2.2 21.8 3.9 29.1H366c1.7-7.3 2.6-17.1 2.6-29.1 0-22.9-6.3-35-18.8-36.3zm102.3 17.5c-10.4 4.3-15.5 13.6-15.5 27.9 0 9.1.4 15.8 1.3 20.1H467c.9-6 1.3-12.7 1.3-20.1-.4-16.9-5.8-26.2-16.2-27.9z"/></svg>