<svg xmlns="http://www.w3.org/2000/svg" viewBox="-10 0 1046 280.657"><path d="M-10 262q0-20 30-52.5t82.5-69Q155 104 222 72t142-52Q439 0 513 0t148.5 20q74.5 20 142 52t120 68.5q52.5 36.5 82.5 69t30 52.5q0 25-21.5 16.5T954 247q-24-13-54.5-30.5T832 182v80H183v-74q-34 16-61.5 31.5T72 247q-40 23-61 31.5T-10 262zm19-3q0 5 18-6t40-24q31-18 75.5-41.5T244 141q57-23 124.5-38T513 88q76 0 143.5 15T781 141q57 23 101.5 46.5T958 229q23 13 40.5 24t17.5 6q0-13-27.5-41.5t-76.5-62Q863 122 799 91T662 40q-73-20-149-20T364 40q-73 20-137 51t-113 64.5q-49 33.5-77 62T9 259zm463-16h71V108q-8 0-15-.5t-15-.5q-10 0-20.5.5T472 109zm90 0h70V118q-35-6-70-9zm-180 0h71V110q-19 2-36.5 4.5T382 120zm270 0h70V140q-17-5-34.5-9.5T652 122zm-359 0h70V124q-19 4-36.5 9T293 143zm449 0h70v-69q-17-8-34.5-14.5T742 147zm-539 0h70v-93q-19 7-36.5 14T203 178z" fill="currentColor"/></svg>