<svg xmlns="http://www.w3.org/2000/svg" viewBox="-10 0 1046 667"><path d="M-10 263q0-21 30-53.5t82.5-68.5Q155 105 222 72.5T364 20Q439 0 513 0t148.5 20q74.5 20 142 52.5t120 68.5q52.5 36 82.5 68.5t30 53.5q0 24-21.5 15.5T954 247q-24-14-54.5-31T832 182v81H722V140q-17-5-34.5-9.5T652 122v141H543V108q-8 0-15-.5t-15-.5q-10 0-20.5.5T472 109v154H363V124q-19 5-36.5 9.5T293 143v120H183v-75q-34 16-61.5 31.5T72 247q-40 23-61 31.5T-10 263zm19-3q0 5 18-6.5T67 229q31-18 75.5-41.5T244 141q57-23 124.5-38T513 88q76 0 143.5 15T781 141q57 23 101.5 46.5T958 229q23 13 40.5 24.5t17.5 6.5q0-14-27.5-42T912 156q-49-34-113-65T662 40q-73-20-149-20T364 40q-73 20-137 51t-113 65q-49 34-77 62T9 260zm553-17h70V118q-35-6-70-9zm-180 0h71V110q-19 2-36.5 4.5T382 120zm360 0h70v-69q-17-7-34.5-14T742 147zm-539 0h70v-93q-19 7-36.5 14T203 179zm310 424q-74 0-149-20t-142-52q-67-32-119.5-68T20 458.5Q-10 426-10 405q0-25 21-16.5T72 420q22 13 49.5 28.5T183 480v-75h110v119q16 6 33.5 10.5T363 543V405h109v154q10 1 20.5 1H528l15-1V405h109v141q18-5 35.5-9.5T722 527V405h110v80q37-17 67.5-34.5T954 420q39-23 60.5-31.5T1036 405q0 21-30 53.5T923.5 527q-52.5 36-120 68t-142 52Q587 667 513 667zm0-19q76 0 149-20t137-51q64-31 113-65t76.5-62.5Q1016 421 1016 408q0-5-17.5 6T958 439q-31 18-75.5 41.5T781 527q-57 23-124.5 38T513 580q-77 0-144.5-15T244 527q-57-23-101.5-46.5T67 439q-22-14-40-25t-18-6q0 13 28 41.5t77 62.5q49 34 113 65t137 51q73 20 149 20zm49-90q18-1 35.5-3t34.5-5V425h-70zm180-37q18-6 35.5-13t34.5-14v-69h-70zm-289 36V425h-71v122q17 4 34.5 6t36.5 4zm-180-40v-92h-70v64q16 8 33.5 15t36.5 13z" fill="currentColor"/></svg>