<svg xmlns="http://www.w3.org/2000/svg" viewBox="0 0 583.2 261.8"><path d="M291.2 261.8c-103-5.2-196.6-32.7-280.8-82.6-15.1-13.6-13.6-20.5 4.2-20.5 47.5 20.2 96.9 38.6 148.2 55 13.6 4.2 23.1 2.6 28.2-4.9 0-16.5 6.6-25.2 19.8-26.1 15.1 0 22.7 6.2 22.9 18.7.2 12.5 6.2 18.7 18 18.7s17.6-6.4 17.6-19.1c0-12.2 7.3-18.3 21.9-18.3 14.6 0 21.9 6.1 21.9 18.3 0 12.7 6.1 19.1 18.3 19.1 11.8 0 17.8-6.2 18-18.7.2-12.5 7.9-18.7 22.9-18.7 13.2.9 19.8 9.6 19.8 26.1 5.2 7.5 14.6 9.2 28.2 4.9 51.3-16.5 100.7-34.8 148.2-55 17.4 0 18.8 6.8 4.2 20.5-84.2 49.9-178 77.4-281.5 82.6zM291.9 0c103 5.2 196.6 32.7 280.8 82.6 15.1 13.6 13.9 20.5-3.5 20.5-48-20.2-97.6-38.6-148.9-55-13.6-4.2-23.1-2.6-28.2 4.9 0 16.5-6.6 25.2-19.8 26.1-14.6 0-22-6.2-22.2-18.7-.2-12.5-6.2-18.7-18-18.7-12.2 0-18.3 6.4-18.3 19.1 0 12.2-7.3 18.3-21.9 18.3-14.6 0-21.9-6.1-21.9-18.3 0-12.7-6.1-19.1-18.3-19.1-11.8 0-17.8 6.2-18 18.7-.2 12.5-7.9 18.7-22.9 18.7-12.7-.9-19.1-9.6-19.1-26.1-5.6-7.5-15.3-9.2-28.9-4.9C111.5 64.4 62.1 82.8 14.6 103-2.8 103-4 96.2 11 82.6 95.2 32.7 188.8 5.2 291.9 0z"/></svg>