<svg xmlns="http://www.w3.org/2000/svg" viewBox="0 0 595.3 369.2"><path d="M408.2 152.2C444.9 104 475.5 67.6 500.1 43s46.6-37.1 66-37.5c19.5-.4 29.2 18.6 29.2 57.1s-63.5 114.8-190.5 228.9c-65.9 17.7-150 29.2-252.2 34.5l-24.6 6.6 7.3 27.9-33.2 8.6-6.6-24.6c-18.1 8.8-32.3-.6-42.5-28.2-10.2-27.7-9.7-45.7 1.3-54.1-12.4 1.3-20.9-9.3-25.5-31.9-4.6-22.6 1.7-35.6 18.9-39.2C16.7 171.6.8 137-.1 87.2S8.2 8.6 27.3.2C48.1-2.4 70.5 18 94.6 61.6c24.1 43.6 27.5 81.7 10.3 114.5 24.8 4.9 67.8 1.7 129.1-9.6 61.3-11.3 119.3-16.1 174.2-14.3zM33.9 24.8c-8 33.6-8.8 66.8-2.7 99.5 6.2 32.7 19.4 46.3 39.5 40.8s25-24 14.6-55.4S57.8 50 33.9 24.8zm53.8 298.6l61.7-15.9c103.1-7.5 170.7-15.9 202.7-25.2 32.1-9.3 63.6-31.3 94.6-66 31-34.7 60.1-69.7 87.3-104.9 27.2-35.2 37.4-56.8 30.5-65-6.9-8.2-21.5-1.2-43.8 20.9-22.3 22.1-70.7 79.6-145 172.5-46.9-1.8-126.1 13.3-237.6 45.1-7.5-19.5-28.5-21.5-63-6-1.4 17.7 2.8 32.6 12.6 44.5zm49.1-86.3c.4 6.6 1.5 12.4 3.3 17.3 1.8 4.9 47.8-2.9 138-23.2l-141.3 5.9zm-4-35.8c-24.3-9.3-44.4-10.5-60.1-3.6-15.7 6.9-20.4 18.1-13.9 33.8 6.4 15.7 16 21.2 28.9 16.6 12.8-4.6 26.8-13.8 41.8-27.5L371 201.3l20.6-25.2c-43.8-6.2-130.1 2.2-258.8 25.2z"/></svg>