<svg xmlns="http://www.w3.org/2000/svg" viewBox="-10 0 818 924"><path d="M5 924v-38q2-26 15-51t13-42q0-10-11-24T.5 738Q-10 721-10 701q0-16 10-28t23-21q13-9 23-17t10-17q0-15-8.5-25T31 572q-8-11-8-26 0-19 15.5-34.5t31-28Q85 471 85 462q0-12-8-30.5T69 394q0-21 19.5-38t49.5-17q23 0 35.5-8t12.5-19q0-12-7-24.5t-7-29.5q0-15 12-30t35-15q8 0 26 2t25 2q10 0 19-2.5t14-12.5q6-9 10-23t12.5-24.5Q334 144 352 144q17 0 26 5.5t17 12.5q14 12 26 15t27 3q10 0 33.5-4.5T533 163q-8-12-18.5-31t-19-39Q487 73 486 59q-1-3-1-6v-6q0-16 6-31.5T517 0q11 0 20 8t19 19q8 9 18 19t20 17q17 12 40 19.5t46 12q23 4.5 38 6.5 16 2 37 8.5t37 21q16 14.5 16 39.5t-16 39.5q-16 14.5-37 21t-37 7.5q-24 2-61.5 11.5T594 276q-10 7-20 17.5T556 313q-10 11-19 19t-20 8q-20 0-26-15.5t-6-32.5q0-8 1-11 1-12 9-30.5t17.5-37Q522 195 529 184q-27 7-49.5 11.5T448 200q-11 0-23-1.5t-26-8.5q-14-8-21.5-17t-25.5-9q-11 0-15.5 9.5T328 193q-9 28-24 36t-34 8q-10 0-27.5-2t-23.5-2q-14 0-20.5 8.5T192 258q0 13 7 26t7 28q0 21-17.5 33.5T138 358q-23 0-36.5 11.5T88 394q0 13 8 31t8 37q0 15-15.5 29.5t-30.5 28Q43 533 43 546t8 23q8 10 16 21t8 28q0 14-10 24t-23 19q-13 9-23 18.5T9 701q0 18 11 34t22 30q11 14 11 28 0 20-13 44t-15 50v37zm512-604q10 0 24.5-20.5T584 261q17-12 43-21t51-14q25-5 40-7 14-2 30.5-6.5T777 198q12-10 12-28t-12-28q-12-10-29-14.5t-30-6.5q-15-2-40-7t-51-14q-26-9-43-21-31-21-44-40.5T517 19q-8 0-10 9t-2 19q0 13 7.5 33.5t18 41Q541 142 549 156t9 14q-11 17-22.5 38T515 249.5q-9 20.5-10 33.5v10q0 10 2 18.5t10 8.5z" fill="currentColor"/></svg>