<svg xmlns="http://www.w3.org/2000/svg" viewBox="0 0 594.9 481.1"><path d="M420.6 41c9.3 4.8 20.3 20.4 32.6 24.4 40.7-1.6 111.6-8.6 113.1 36 2 58-100.7 31.6-114 37.7-15.5 7.1-24.9 22.8-30.9 18.6-6.7-4.7-10.4-34.6-1.7-39.9 8.9-10.6 48.3-4.5 58.7-7.7 10 1.8 9.5-19.5-1.5-19.5-1.2 0-51.8.8-58.2-3.4-5.9-12.8-7.5-36.8 1.9-46.2zm-1.3-41c-15.5 0-35.1 27-30.2 83.2l-33.8-9.3-25.8 31.7-40.7-8.2-27.4 30.2h-43.1L204 171l-55.2 4.1-10.1 45.4-58 11.6-1.6 53.5-43.7 20 3.3 46.2L0 399.3l26 46-2.6 35.8 30.7-.8 1.9-40.7-20.5-37.3 32.2-33.6-2.7-42.4 41.7-13.4.8-52.4 58.7-12.3 6.9-46.5 54.7-3.5 10.6-38.5 35.5 2 25.7-28.9 40.1 9.2 26.1-31.6 23.9 8.4c-5.2 59.1 11 67.5 26.3 81.3 11.8-12 27.2-19.8 45.6-31.1 71.8-12.2 133.5 16.2 133.1-68.3-.4-75.3-79.9-59-133.9-64.1C442.8 26.3 423.4 0 419.3 0z"/></svg>