<svg xmlns="http://www.w3.org/2000/svg" viewBox="0 0 593.3 293.9"><path d="M257.9 41.5c-2.9 52.8-27.6 109.7-73.8 170.2-30.1 29.4-64.9 47-93.9 47-15.2 0-28.9-4.9-39.4-15.5C24.2 215.2 39 154.8 85 110c61.7-44.6 119.6-67.4 172.9-68.5zm77.5 0c53.3 1 111.2 23.8 172.9 68.4 46 44.8 60.9 105.3 34.2 133.3-10.5 10.6-24.2 15.5-39.4 15.5-29 0-63.7-17.6-93.9-47-46.2-60.5-71-117.4-73.8-170.2zM296.8 0c-11.7 0-23 .7-34.4 1.9-89.7 12.4-157 40.2-201.7 83.7C23.1 122.3 2.8 157.6.4 191c-2.4 33.4 6.2 58.9 24.3 77.4 16.5 17 39 25.4 68.1 25.4 2.7 0 5.5-.1 8.4-.2 33.2-1.7 68.7-20.1 106.3-56.7 44.7-43.5 74.4-110.6 89.1-199.9 14.7 89.3 44.5 156.4 89.1 199.9 37.6 36.6 73 55 106.3 56.7 2.9.2 5.7.2 8.4.2 29.1 0 51.6-8.5 68.1-25.4 18.1-18.6 26.7-44.1 24.3-77.4-2.4-33.4-22.7-68.7-60.3-105.4-44.7-43.5-112-71.4-201.7-83.7-12-1.3-23.2-1.9-34-1.9z"/></svg>