<svg xmlns="http://www.w3.org/2000/svg" viewBox="-10 0 605 618"><path d="M51 618l-40-30V240l-21-76V97l27-61L57 0l27 24-33 55q-5 8-6 22t-1 29q0 16 2 26.5t6 19.5l8-2q-1-7-2-19t-1-18q0-29 19-52l30 14q-2 7-5.5 17T97 133q0 16 3 26.5t5 21.5l-23 52 33 156v116l10 12h152l16 9 15-9h152l10-12V389l34-156-24-52q1-11 4.5-21.5T488 133q0-7-3-17t-5-17l29-14q19 23 19 52 0 6-1 18t-2 19l8 2q4-9 6-19.5t2-26.5q0-15-1-29t-6-22l-33-55 27-24 40 36 27 61v67l-21 76v348l-40 30zm7-19h469l28-21V237l24-74v-62l-24-55-27-27-9 7 25 41q10 17 11 31t1 31q0 35-14 61l-29-9q1-7 2-21t1-22q0-23-11-36l-7 3q1 6 3.5 13t2.5 13q0 17-3.5 28.5T496 180l26 51-33 158v127l-16 20H308l-15 9-16-9H112l-16-20V389L64 231l25-51q-1-9-4-20.5T82 131q0-6 1.5-13t3.5-13l-7-3q-11 13-11 36 0 8 1 22t2 21l-29 9q-14-26-14-61 0-17 1-31t12-31l24-41-9-7-27 27-24 55v62l24 74v341z" fill="currentColor"/></svg>