<svg xmlns="http://www.w3.org/2000/svg" viewBox="0 0 424.8 444.5"><path d="M212 390.5c54.9-1.7 101.1-5.5 138.8-11.6 0-62.6 2.5-125.2 7.5-187.9-13.9-44.3-19.7-78.7-17.5-103.1.6-16.1 1.7-30.8 3.3-44.1 7.2-8.9 13.6-8.6 19.1.8-3.3 18.3-5 33.8-5 46.5 0 36 6.9 53.5 20.8 52.4 7.8 0 12.9-6 15.4-17.9 2.5-11.9 4.3-27.3 5.4-46.1 1.1-11.6-.6-24.1-5-37.4-3.3-10.5-6.9-21.3-10.8-32.4 2.8-11.1 8.6-12.7 17.5-5 14.4 19.4 22.2 47.1 23.3 83.1-4.4 28.3-14.4 68.2-29.9 119.7 5.5 41.6 9.7 98.6 12.5 171.2 2.2 24.4-4.7 40.2-20.8 47.4-45.4 12.2-103.6 18.3-174.6 18.3-70.4 0-128.6-6.1-174.6-18.3-15.5-7.2-22.2-23-19.9-47.4C20.3 306.1 24.4 249 30 207.5 14.4 156.1 4.4 116.2 0 87.9c1.1-36 8.9-63.7 23.3-83.1C32.1-3 38-1.3 40.7 9.8c-3.9 11.1-7.5 21.9-10.8 32.4-4.4 13.3-6.1 25.8-5 37.4 1.1 18.8 2.9 34.2 5.4 46.1 2.5 11.9 7.6 17.9 15.4 17.9 13.9 1.1 20.8-16.3 20.8-52.4 0-12.7-1.7-28.3-5-46.5 5.5-9.4 11.9-9.7 19.1-.8 1.7 13.3 2.8 28 3.3 44.1 2.2 24.4-3.6 58.7-17.5 103.1 5 62.6 7.5 125.2 7.5 187.9 37.8 5.9 83.8 9.8 138.1 11.5z"/></svg>