<svg xmlns="http://www.w3.org/2000/svg" viewBox="0 0 547.1 646.9"><path d="M273.7 646.9l-.7-171.6c-37.2 3.9-86.6-17.5-84.3-81.9l-75.8-1c-6.8 24.9-62.4 68.9-92.8-1.3-.9-2.1-3.3-4.3-9.4-4.3H0l.1-20.5 5.6-1.7c3.2-12.9 17.9-36.7 46.7-36.8 18.8-.1 35 8.5 47.9 39.1 0 0 442.4.8 446.5.4l.3 24.5-256 2.4 2 90 1.7 162.7h-21.1zm-.7-194.2c-.5-18.1-.9-42.2-1.4-60.3h-57.8c2.1 51.1 24.2 59.3 59.2 60.3zm-197.5-86c-13.6-28.2-37.2-28.4-51.6 1.1 17.4-.7 34.2-.4 51.6-1.1zm15.8 25.6l-49.8.5c8.5 35.1 52.6 14 49.8-.5z"/><path d="M293.4 368.3l47.7 75.9-23.2 13.8 8.7 31.7-32.6.8c-19.5-13.8-13.6-16.4-19.1-20.5l18.5-101.7zm4.3 20.6c6.6 23.1 13.5 44.5 17.6 53l9-5.7-24-40-2.6-7.3zm-3.7 78.4l9.7-.2-14.3-84.1 4.6 84.3zM269.2 312.4c43.9-1.3 80.9-4.4 111.1-9.3 0-50.1 2-100.2 6-150.3-11.1-35.5-15.7-63-14-82.5.4-12.9 1.3-24.6 2.7-35.2 5.8-7.1 10.9-6.9 15.3.7-2.7 14.6-4 27-4 37.2 0 28.8 5.5 42.8 16.6 41.9 6.2 0 10.3-4.8 12.3-14.3s3.4-21.8 4.3-36.9c.9-9.3-.4-19.3-4-29.9-2.7-8.4-5.5-17.1-8.6-25.9 2.2-8.9 6.9-10.2 14-4 11.5 15.5 17.7 37.7 18.6 66.5-3.5 22.6-11.5 54.5-23.9 95.8 4.4 33.2 7.8 78.9 10 137 1.8 19.5-3.8 32.1-16.6 37.9-36.4 9.8-82.9 14.6-139.6 14.6-56.3 0-102.9-4.9-139.6-14.6-12.4-5.8-17.7-18.4-16-37.9 2.2-58.1 5.5-103.7 10-137-12.4-41.2-20.4-73.1-23.9-95.8.9-28.8 7.1-51 18.6-66.5 7.1-6.2 11.7-4.9 14 4-3.1 8.9-6 17.5-8.6 25.9-3.5 10.6-4.9 20.6-4 29.9.9 15.1 2.3 27.4 4.3 36.9s6.1 14.3 12.3 14.3c11.1.9 16.6-13.1 16.6-41.9 0-10.2-1.3-22.6-4-37.2 4.4-7.5 9.5-7.8 15.3-.7 1.3 10.6 2.2 22.4 2.7 35.2 1.8 19.5-2.9 47-14 82.5 4 50.1 6 100.2 6 150.3 29.8 4.9 66.6 8 110.1 9.3z"/></svg>