<svg xmlns="http://www.w3.org/2000/svg" viewBox="-10 0 706 1053"><path d="M361 1053V795L256 659h-86l-18 37H76l-19-37H40v-20h637v-21H95q-22 0-35-9t-21-23l-6-13q-3-7-6-12.5t-7-5.5q-7 0-9 7t-2 15q0 17 6.5 30.5T29 627l-13 14q-8-8-17-25.5t-9-38.5q0-16 6-29t24-13q14 0 20.5 9.5T52 566l-1-1 6 12q4 10 13 16t25 6h39l-15-11V240l-21-76V97l27-61 40-36 27 24-33 55q-5 8-6 22t-1 29q0 16 2 26.5t6 19.5l8-2q-1-7-2-19t-1-18q0-29 19-52l29 14q-2 7-5 17t-3 17q0 16 3 26.5t5 21.5l-23 52 33 156v116l10 12h142l16 9 15-9h142l10-12V389l34-156-24-52q1-11 5-21.5t4-26.5q0-7-3.5-17T568 99l29-14q20 25 20 52 0 6-1 18t-3 19l9 2q7-17 7-46 0-15-1-29t-5-22l-34-55 27-24 40 36 28 61v67l-22 76v348l-15 11h49v60H420v394zM166 599h450l27-21V237l25-74v-62l-24-55-27-27-9 7 24 41q11 17 11.5 31t.5 31q0 16-3.5 32T630 190l-29-9q1-7 2-21t1-22q0-25-11-36l-7 3q1 6 3.5 13t2.5 13q0 17-3.5 28.5T584 180l26 51-32 158v127l-17 20H406l-15 9-16-9H220l-16-20V389l-33-158 26-51q-1-9-4-20.5t-3-28.5q0-6 1.5-13t3.5-13l-7-3q-11 13-11 36 0 8 1 22t2 21l-29 9q-14-26-14-61 0-17 1-31t11-31l25-41-9-7-27 27-24 55v62l24 74v341zm-79 80h54l10-20H77zm294 355h19V659h-19zm-20-266v-22l-66-87h-18zm0-49v-60h-46z" fill="currentColor"/></svg>