<svg xmlns="http://www.w3.org/2000/svg" viewBox="0 0 593.5 318.9"><path d="M409.9 43.2c-24.4-13.5-72.5-20.5-144.1-21H22.3v21h387.6zM282.2 65.5c27.9 40.2 48.5 70.8 61.6 92 13.1 21.2 20.7 49.9 22.9 86.1-1.3 9.2 4.5 17.4 17.4 24.6 12.9 7.2 18.7 19.3 17.4 36.3-8.3 17.5-21 19-38 4.6-10.5-12.2-21.5-40.2-33.1-83.8-11.6-43.7-24.8-79.3-39.6-107.1C275.9 90.5 253 72.9 222 65.5H0V0h265.9C330.5 0 383.5 7.2 425 21.6c21.8 10.9 38.2 25.5 49.1 43.9 27.9 40.2 48.5 70.8 61.6 92 13.1 21.2 20.7 49.9 22.9 86.1-1.3 9.2 4.5 17.4 17.4 24.6 12.9 7.2 18.7 19.3 17.4 36.3-8.3 17.5-21 19-38 4.6-10.5-12.2-21.5-40.2-33.1-83.8-11.6-43.7-24.8-79.3-39.6-107.1-14.8-27.7-37.8-45.3-68.8-52.7h-37.3c27.9 40.2 48.5 70.8 61.6 92 13.1 21.2 20.7 49.9 22.9 86.1-.9 9.2 5 17.4 17.7 24.6 12.7 7.2 18.3 19.3 17 36.3-8.3 17.5-21 19-38 4.6-10-12.2-21-40.2-32.7-83.8-11.8-43.7-25.1-79.3-39.9-107.1-14.8-27.7-37.8-45.3-68.8-52.7h-34.2z"/></svg>