<svg xmlns="http://www.w3.org/2000/svg" viewBox="-10 0 1081 568"><path d="M710 568q-5-35-16.5-84t-31-103.5Q643 326 614 273.5T545.5 178Q506 135 454 110H20Q9 96-.5 74.5T-10 34q0-16 8.5-25T36 0h771q36 0 62.5 16t43 38Q929 76 938 93q32 58 55.5 124.5t39.5 132q16 65.5 25.5 122.5t12.5 96h-19q-3-39-12-93.5t-24.5-117Q1000 295 977.5 231T925 110H725q34 27 62 75t50 105.5Q859 348 874.5 404t24 100q8.5 44 10.5 64h-20q-2-18-8.5-54t-19-82.5Q849 385 832 335.5T793.5 240q-21.5-46-48-80.5T689 110H493q59 38 101.5 97T665 333q28 67 43.5 129T730 568zM29 90h881q-1-7-15-24t-38-32q-24-15-59-15H43q-17 0-25.5 2T9 35q0 13 6.5 29T29 90z" fill="currentColor"/></svg>