<svg xmlns="http://www.w3.org/2000/svg" viewBox="-10 0 1033 934"><path d="M964 934V616q0-35-10.5-68.5T918 487q-25-27-70-44.5T734 423v304l-30 40H229l-76 22H87l-61-28-36-40 23-27 55 34q9 5 23 6t29 1q16 0 26-2t19-6l-2-9q-6 2-18.5 3t-17.5 1q-29 0-52-20l14-29q8 2 17 5.5t17 3.5q15 0 26-4t21-5l52 24 220-34h179l12-10V410l10-16-10-15V135l-12-10H442L222 91l-52 24q-10-1-21-4.5t-26-3.5q-8 0-17 3t-17 5L75 86q22-19 52-19 5 0 17.5.5T163 70l2-8q-9-4-19-6t-26-2q-15 0-29 1t-23 6L13 94l-23-27 36-40L87 0h66l76 21h475l30 40v305q85 2 150 27.5t102 81q37 55.5 37 145.5v314zM90 773h62l75-25h468l20-27V68l-20-28H227l-75-24H90L35 40 8 67l8 9 41-25q16-10 30-11t31-1q36 0 61 14l-9 29q-7-1-21-2t-22-1q-22 0-36 11l4 7q6-1 13-3.5t13-2.5q16 0 28 3.5t21 4.5l51-26 220 33h191l20 16v257l10 15-10 16v256l-20 17H441l-220 32-51-26q-9 1-21 4.5t-28 3.5q-6 0-13-2.5T95 691l-4 7q12 11 36 11 8 0 22-1t21-2l9 29q-12 7-28 10.5t-33 3.5q-17 0-31-.5T57 737l-41-24-8 9 27 27zm893 141h21V620q0-88-35-139t-95.5-74Q813 384 734 384v20q73 2 121.5 20.5t76.5 49q28 30.5 39.5 67.5t11.5 75z" fill="currentColor"/></svg>