<svg xmlns="http://www.w3.org/2000/svg" viewBox="0 0 475.4 594.5"><path d="M328.8 142.7h69.8c51.1 0 76.7 26.8 76.7 80.5v371.3H447v-359c0-42.4-16.1-63.7-48.3-63.7h-70.6c0 42.4-4.3 80.5-13 114.3-5.6 11.8-17.4 16.6-35.3 14.6-53.7-1.5-95.9-4.3-126.6-8.4-38.4 11.3-67.8 18.7-88.2 22.2-26.6-1-47.1-6.9-61.4-17.6-5.6-6.6-4.6-11 3.1-13 8.2 2.6 16.4 5.4 24.5 8.4 9.7 3.1 18.9 4.1 27.6 3.1 13.8-1 25.2-2.4 34.1-4.2 8.9-1.8 13.4-5.5 13.4-11.1.5-9.7-12.5-14.6-39.1-14.6-9.2 0-20.7 1-34.5 3.1-6.6-4.1-6.9-8.7-.8-13.8 10.2-1.5 21.2-2.6 33-3.1 17.9-1.5 43.2 2.8 75.9 13 46.5-3.6 92.8-5.4 138.9-5.4 4.6-27.6 7.4-61.6 8.4-102-1-40.4-3.8-74.7-8.4-102.8-46 0-92.3-1.8-138.9-5.4-32.7 10.7-58 15.1-75.9 13-11.8-.5-22.8-1.3-33-2.3-6.1-5.1-5.9-9.7.8-13.8 13.8 2 25.3 3.1 34.5 3.1 26.6 0 39.6-4.9 39.1-14.6 0-6.1-4.5-10.1-13.4-11.9-8.9-1.8-20.3-3.2-34.1-4.2-8.7-1-17.9.3-27.6 3.8-8.2 2.6-16.4 5.4-24.5 8.4C-1 28.6-2 24 3.6 16.8 17.9 6.6 38.3 1 64.9 0c20.5 3.6 49.9 11 88.2 22.2 30.7-4.1 72.9-6.9 126.6-8.4 17.9-2 29.7 2.8 35.3 14.6 8.7 32.7 13.3 70.8 13.8 114.3z"/></svg>