<svg xmlns="http://www.w3.org/2000/svg" viewBox="-10 0 642 1012"><path d="M229 827l-51-18-49-46-25-61-9-79-105-256v-39L138 20l35-20h34l88 26h32l88-26h34l35 20 148 308v39L527 623l-9 79-25 61-49 46-51 18-15-32 51-38q8-6 14.5-18.5T455 712q6-15 8-25t2-20l-8-2q-2 7-5.5 19t-5.5 17q-11 26-38 40l-21-24q4-6 11-13.5t10-14.5q6-14 7-25.5t4-21.5l41-39 71-234v-30L427 129l-25-31h-16l-40 17h-70l-40-17h-16l-25 31L91 339v30l71 234 42 39q2 10 3.5 21.5T214 689q3 7 10 14.5t11 13.5l-21 24q-27-14-38-40-2-5-5.5-17t-5.5-19l-8 2q0 10 2 20t8 25q5 14 11.5 26.5T193 757l52 38zm-8-17l6-10-38-29q-16-11-22-23.5T154 719q-6-15-9.5-31.5T143 657l30-3q2 7 7 20.5t8 20.5q8 21 23 29l5-6q-3-4-8-10t-7-11q-6-15-7.5-27.5T190 648l-44-37-77-245v-30l108-218 33-43h23l45 21h66l45-21h24l32 43 108 218v30l-77 245-43 37q-3 9-4.5 21.5T421 697q-2 5-6.5 11t-8.5 10l5 6q15-7 24-29 3-7 7.5-20.5T449 654l30 3q2 14-1 30.5T468 719q-6 16-12.5 28.5T433 771l-38 29 6 10 35-15 43-41 24-58 5-77 105-258v-25L471 39l-24-17h-32l-88 26h-32l-88-26h-32l-24 17L9 336v25l105 258 5 77 24 58 43 41zm-3 202q13-32 26-71t22-72q9-33 9-46 0-42-14.5-114T226 558q-11-42-20.5-82T190 405q-6-31-6-47t4.5-38q4.5-22 18-42.5t38.5-34q25-13.5 66-13.5t66 13.5q25 13.5 38.5 34t18 42.5q4.5 22 4.5 38t-6 47q-6 31-15.5 71T396 558q-20 79-34.5 151T347 823q0 13 9 46t22 72q13 39 26 71zm28-20h130q-10-28-21-62t-19-63q-8-29-9-42-3-44 13.5-116.5T378 553q16-64 28.5-118t12.5-77q0-18-7.5-44t-31-45.5Q357 249 311 249t-69 19.5Q219 288 211.5 314t-7.5 44q0 23 12.5 77T245 553q20 83 36.5 155.5T295 825q0 13-8.5 42T267 930q-11 34-21 62z" fill="currentColor"/></svg>