<svg xmlns="http://www.w3.org/2000/svg" viewBox="0 0 311.3 594.4"><path d="M197.1 207.6c-10.6 143.2-15.8 228.8-15.4 256.6-.4 39.6 4 78.8 13.2 117.6 1.5 8.4-1.8 12.6-9.9 12.6h-62.1c-8.8 0-12.6-4-11.5-12.1 9.5-39.2 13.9-78.6 13.2-118.1-.4-27.8-5.9-113.4-16.5-256.6-1.5-26-.5-52.7 2.7-80.2 4.4-24.9 19.4-37.4 45.1-37.4s39 12.5 40.1 37.4c2.9 27.8 3.3 54.5 1.1 80.2zm-19.8-73.7c-.4-11-8.4-18.9-24.2-23.6-15.4 4.8-23.3 12.6-23.6 23.6-2.9 23.4-3.5 48-1.6 73.6 10.3 143.2 15.6 228.8 15.9 256.6.4 39.6-3.3 76.6-11 111h41.8c-8.4-34.4-12.5-71.4-12.1-111 .7-27.8 6-113.4 15.9-256.6 1.8-25.6 1.4-50.1-1.1-73.6zm75.8 233.6c-.7 12.1-1.9 21.3-3.6 27.7-1.6 6.4-3.8 12.2-6.3 17.3-2.6 5.1-11.7 12.8-27.5 23.1-7 1.1-7.7-3.3-2.2-13.2 7-5.9 12.3-11.5 15.9-17 3.7-5.5 5.9-12.6 6.6-21.4.7-8.8-6.8-2.9-22.5 17.6-4.4 5.5-8.8 5.7-13.2.5 5.5-7.7 10.3-17.8 14.3-30.2 4-6.6 11.5-14.7 22.5-24.2 6.2-15.4 10.7-30.9 13.5-46.4 2.7-15.6 5.6-30.8 8.5-45.6 2.9-14.8 10.8-34.5 23.6-59.1 0-12.5-6.4-26.6-19.2-42.6-12.8-15.9-23.7-36.3-32.7-61-9-24.7-23.8-42.8-44.5-54.1s-41.3-11.4-61.8 0C104 50.2 89.3 68.3 80.3 93c-9 24.7-19.9 45.1-32.7 61-12.8 15.9-19.2 30.1-19.2 42.6 12.8 24.5 20.8 44.2 23.9 59.1 3.1 14.8 6 30 8.5 45.6s7.1 31 13.7 46.4c10.6 9.5 17.8 17.6 21.4 24.2 4.8 12.5 9.7 22.5 14.8 30.2-4.4 5.1-8.6 4.9-12.6-.5-15.8-20.5-23.3-26.4-22.5-17.6.7 8.8 2.7 15.9 6 21.4 3.3 5.5 8.8 11.2 16.5 17 5.1 9.9 4.2 14.3-2.7 13.2-15.8-10.3-25-17.9-27.7-23.1-2.7-5.1-4.9-10.9-6.3-17.3-1.5-6.4-2.6-15.7-3.3-27.7-1.8-17.6-8.7-40.1-20.6-67.6-11.9-27.5-19.2-46.8-22-58-2.7-11.2-6.6-21.7-11.5-31.6-4.9-9.9-5.2-18.5-.8-25.8 4.8-15.4 10.6-30 17.6-44 7-13.9 16.5-32.1 28.6-54.7s22.4-39.7 31-51.4c8.6-11.7 23.3-21.3 44-28.8s41.6-7.5 62.6 0 35.8 17.1 44.2 28.8c8.4 11.7 18.7 28.8 30.8 51.4 12.1 22.5 21.5 40.8 28.3 54.7 6.8 13.9 12.9 28.6 18.4 44 4 7.3 3.5 15.9-1.6 25.8s-8.9 20.4-11.3 31.6c-2.4 11.2-9.6 30.5-21.7 58-12.2 27.4-19.2 50-21 67.6z"/></svg>