<svg xmlns="http://www.w3.org/2000/svg" viewBox="-10 0 605 1012"><path d="M199 782q12-32 25.5-71t23-72q9.5-33 9.5-46 0-42-15-114t-34-151q-11-42-20.5-82T172 175q-6-31-6-47t4.5-38Q175 68 188 47.5t38.5-34Q252 0 293 0t66 13.5q25 13.5 38.5 34t18 42.5q4.5 22 4.5 38t-6 47q-6 31-15.5 71T378 328q-20 79-35 151t-15 114q0 13 9.5 46t22.5 72q13 39 26 71zm29-20h130q-10-28-21-62t-19.5-63q-8.5-29-8.5-42-3-44 13.5-116.5T359 323q16-64 28.5-118t12.5-77q0-18-7.5-44T362 38.5Q339 19 293 19t-69.5 19.5Q200 58 192.5 84t-7.5 44q0 23 12.5 77T226 323q21 83 37 155.5T276 595q-1 13-8.5 42T249 700q-11 34-21 62zM51 1012l-40-31V633l-21-75v-67l27-61 40-36 27 23-33 56q-5 8-6 22t-1 29q0 16 2 26.5t6 18.5l8-2q-1-6-2-18.5T57 531q0-29 19-52l30 14q-2 7-5.5 17T97 527q0 15 3 26t5 22l-23 51 33 157v115l10 13h152l16 9 15-9h152l10-13V783l34-157-24-51q1-11 4.5-22t3.5-26q0-7-3-17t-5-17l29-14q19 23 19 52 0 5-1 17.5t-2 18.5l8 2q4-8 6-18.5t2-26.5q0-15-1-29t-6-22l-33-56 27-23 40 36 27 61v67l-21 75v348l-40 31zm7-19h469l28-21V631l24-74v-62l-24-56-27-27-9 8 25 41q10 17 11 30.5t1 30.5q0 36-14 61l-29-8q1-7 2-22t1-22q0-22-11-35l-7 3q1 6 3.5 13t2.5 13q0 16-3.5 28t-4.5 21l26 51-33 157v128l-16 20H308l-15 9-16-9H112l-16-20V782L64 625l25-51q-1-9-4-21t-3-28q0-6 1.5-13t3.5-13l-7-3q-11 13-11 35 0 7 1 22t2 22l-29 8q-14-25-14-61 0-17 1-30.5T42 461l24-41-9-8-27 27-24 56v62l24 74v341z" fill="currentColor"/></svg>