<svg xmlns="http://www.w3.org/2000/svg" viewBox="0 0 368.5 594.4"><path d="M226.2 0l10.4 3.9c19 16 37.8 40.4 56.3 73.5 18.6 33 33.2 59.9 44 80.6 10.8 20.7 19.8 42.3 27.2 64.7 6.5 11.2 5.9 24.2-1.6 38.8-7.6 14.7-13.2 30.3-16.8 46.9s-14.8 45.3-33.3 86.1c-18.6 40.8-29.6 74.1-33 100-.4 16.8-1.9 30.1-4.5 39.8-2.6 9.7-6 18.4-10.4 26.2-4.3 7.8-18.1 19-41.4 33.7-11.2 1.7-12.7-4.5-4.5-18.8 11.2-9.1 19.5-17.6 24.9-25.6 5.4-8 8.6-18.6 9.7-31.7 1.1-13.2-10.5-4.4-34.6 26.2-6.5 7.8-13.2 8-20.1.6 8.2-11.2 16-26.1 23.3-44.7 5.6-9.9 16.6-22 33-36.2 9.9-22 16.9-44.5 21-67.6 4.1-23.1 8.4-45.7 12.9-68 4.5-22.2 16.7-51.2 36.6-87 0-18.1-9.7-39.2-29.1-63.1-19.4-23.9-34.9-53.4-46.6-88.3-11.6-34.9-33.4-53.1-65.4-54.4-31.6 1.3-53.1 19.4-64.8 54.4-11.6 34.9-27.2 64.4-46.6 88.3s-29.1 45-29.1 63.1c19.4 35.8 31.5 64.8 36.2 87 4.7 22.2 9.2 44.9 13.3 68 4.1 23.1 11.1 45.6 21 67.6 16.4 14.2 27.4 26.3 33 36.2 7.3 18.6 15.1 33.4 23.3 44.7-6.9 7.3-13.6 7.1-20.1-.6-24.2-30.6-35.8-39.4-34.9-26.2.9 13.2 4.1 23.7 9.7 31.7s14 16.5 25.2 25.6c7.8 14.2 6.3 20.5-4.5 18.8-23.3-14.7-37.1-25.9-41.4-33.7-4.3-7.8-7.8-16.5-10.4-26.2-2.6-9.7-4.3-23-5.2-39.8-3-25.9-13.8-59.2-32.4-100C38.1 353.7 27 325 23.3 308.4c-3.7-16.6-9.4-32.3-17.2-46.9-7.8-14.7-8.2-27.6-1.3-38.8 7.3-22.4 16.4-44 27.2-64.7 10.8-20.7 25.5-47.6 44-80.6 18.6-33 37.3-57.5 56.3-73.5 7-2.6 38.2-3.9 93.9-3.9z"/></svg>