<svg xmlns="http://www.w3.org/2000/svg" viewBox="-10 0 786 1005"><path d="M302 1005l-51-17-53-39-38-60-18-89-152-352v-46L176 20l35-20h48l88 26h72l87-26h49l35 20 186 382v46L624 800l-18 89-38 60-53 39-51 17-16-31 52-39q8-5 14.5-18t11.5-26q6-15 8-25.5t2-19.5l-8-2q-1 6-5 18t-6 17q-11 28-38 41l-21-25q5-5 11.5-12.5T479 868q5-14 6.5-26t3.5-22l42-38 120-348v-30L524 167l-27-51h-26l-43 19h-90l-43-19h-26l-27 51-128 237v30l121 348 41 38q3 10 4 22t7 26q3 7 9.5 14.5T308 895l-21 25q-27-13-38-41-2-5-6-17t-5-18l-8 2q0 9 2 19.5t8 25.5q5 13 11.5 26t14.5 18l51 39zm-8-16l6-11-38-28q-17-12-23-24t-12-28q-7-15-10-31.5t-1-30.5l30-3q2 7 6.5 20.5T260 874q9 22 24 29l5-6q-4-5-8.5-10.5T274 875q-6-15-7.5-27t-4.5-21l-43-37L93 431v-30l131-245 31-61h38l47 21h86l47-21h37l32 61 131 245v30L547 790l-43 37q-3 9-4.5 21t-7.5 27q-2 6-6.5 11.5T477 897l5 6q15-8 23-29 3-7 8-20.5t7-20.5l30 3q1 14-2 30.5t-9 31.5q-7 16-13 28t-22 24l-38 28 6 11 35-15 47-34 37-57 14-88 152-353v-31L577 39l-24-17h-47l-87 26h-72l-88-26h-46l-24 17L9 411v31l152 353 14 88 37 57 47 34z" fill="currentColor"/></svg>