<svg xmlns="http://www.w3.org/2000/svg" viewBox="-10 0 889 998"><path d="M807 998q-34 0-63-20t-50.5-47.5Q672 903 662 878l-141-80-23 21-24 2-34-28 2-21-12-8 6-14-242-138-39 13-12-13h-14l-36-35 6-19-109-63 15-27 119 68 3-2 35-4 217-92 12-19 3-198q-67-46-109-89t-42-75q0-25 14-29t24-4q7 0 26.5 3.5T351 36q30 6 59.5 11.5T450 53q40 0 66.5-10.5T564 21q17-8 32-14.5T627 0q20 0 32 17.5T678 62q7 27 13 57 5 24 10.5 47t12.5 37q9 16 29.5 39t41.5 45h-1q23 24 40.5 44t17.5 31q0 17-14 21t-27 4q-26 0-52.5-4.5T691 370l9 177-4 18-155 195-4 11 140 80q6-2 23.5-7.5T744 838q34 0 65 13t50.5 34q19.5 21 19.5 46 0 32-23 49.5T807 998zm-6-630q7 0 14-1t7-5q0-5-16-22t-36-39q-21-22-42-46.5T697 213q-8-16-14-40t-11-50q-5-26-11-49.5T647 35q-8-15-20-15-14 0-27 5.5T573 39q-22 11-51.5 22T450 72q-12 0-43-5t-60-12q-23-4-42.5-8T281 43q-5 0-11.5 2T263 57q0 18 24 45.5t66 61q42 33.5 95 67.5 55 35 117.5 66.5t123.5 51Q750 368 801 368zM143 599l64-28 50-15 202-78 11-17 2-190-34-22-24-16-5 191-13 22-228 99-38 4-18 16-4 11 23 22zm312 126l56-40 87-153-8-199q-25-11-49-24.5T492 281l-3 185-15 24-213 82-36 8-8 9zm25 84l8-1 21-17 9-17 8-23 153-193 2-12-11-183q-15-4-30-10l-30-12 7 199-92 153-56 39 9 6-24 35-2 13zM107 548l6-4L9 484l-3 6zm352 201l5-5-268-153-8 3zM161 611l19-7-7-4-16 7zm287 153l4-5-7-4-3 6zm218 102l3-6-137-77-2 6zm142 112q19 0 35-11.5t16-34.5q0-19-16-35.5T800.5 869Q774 858 743 858q-17 0-32.5 3t-23.5 6l-5 9q7 15 23.5 39t42.5 43.5q26 19.5 60 19.5z" fill="currentColor"/></svg>