<svg xmlns="http://www.w3.org/2000/svg" viewBox="0 0 577.7 594.5"><path d="M437.1 30.5c-3.8-2.7-8.4-3.5-13.9-2.5C359.5 48.7 286.7 54.1 205 44.3c-7.6.5-10.3 4.4-8.2 11.4 11.4 37 53.1 81.7 125 134 71.4 51.7 126.4 77.3 165 76.8 7.6-.5 10.3-4.1 8.2-10.6-34.9-75.2-52.3-146.3-52.3-213.3.2-5.3-1.8-9.4-5.6-12.1zM326.8 416.2l140.5 87.4c27.2-4.4 51.5 1.5 72.7 17.6 21.2 16.1 33.8 38.5 37.6 67.4-26.7 9.3-52 7.8-76-4.5s-40-31.5-48.2-57.6l-138.9-86.6c-4.4 3.3-9.3 4.6-14.7 4.1-13.1-1.1-22.1-4.1-27-9-4.9-4.9-4.4-11.4 1.6-19.6L97.2 305.9c-10.3 9.8-19.9 3.8-28.6-18L0 245.4l13.9-22.9 58 36c18-4.9 29.4-4.9 34.3 0 4.9 4.9 14.7 9.8 29.4 14.7 33.8-7.1 61-11.2 81.7-12.3 18.5-25.6 36.5-49.6 53.9-71.9-86.1-65.4-119.6-119-100.5-161 6.5-8.2 15.8-12.3 27.8-12.3C281.3 26.6 357 21.4 425.6.2c10.9-1.1 20.4 1.1 28.6 6.5 7.1 6 12 14.4 14.7 25.3 1.1 71.4 19.6 144.9 55.6 220.6 3.8 10.9 3 21-2.5 30.2-30.5 27.2-77.1 21.5-139.7-17.2 6.5 18 11.2 39.5 13.9 64.5-22.3 40.6-45.4 69.2-69.4 86.1zm-32.7-20.5c3.8-.5 8.4-1.6 13.9-3.3 14.7-10.3 24.6-21.5 29.8-33.5 5.2-12 11.6-27.2 19.2-45.8-8.7-25.1-16.6-51.5-23.7-79.3L308 216c-32.1 38.7-56.9 62.9-74.4 72.7-9.8 5.4-42.8 8.2-98.9 8.2l159.4 98.8z"/></svg>