<svg xmlns="http://www.w3.org/2000/svg" viewBox="-10 0 1051 905"><path d="M-10 905V296q0-40 7.5-87.5T26 119q21-42 61-69t104-27q48 0 78.5 21.5T300 101q0 27-20.5 45T233 186q-8 6-19.5 19.5T193 245q-9 26-9 69v34h250q6-14 22.5-46.5T495 227q22-42 45.5-86T586 59.5Q608 22 624 0h75l297 365 7 17-13 370 8 22h43v32h-40v16l-18 29h-76l-8-18h-25l-6-27H449q-6 20-25 33t-47 13q-25 0-41.5-13T314 806h-24v-32h23q10-45 64-45 26 0 45.5 13t25.5 32h418l35-73 3-288-233-278h-8q-12 27-36.5 74T572 312q-30 56-61 109l-28 25H184v459zm927-71h56l10-18v-36l-12-27 13-366-5-11L686 20h-54q-18 31-42 74t-50 91q-26 48-50.5 95.5T446 367H184v59h294l19-18q32-56 63.5-115t55-107q23.5-48 32.5-71h34l241 293-5 300-33 66h13l3-8h14l-6 17-2 17 3 14zM9 886h156V314q0-46 10-75t23-45q13-16 22-23 25-19 42.5-35t17.5-35q0-25-24.5-41.5T191 43q-58 0-94 25t-55 64q-19 39-26 82.5T9 296zm368-54q26 0 40.5-12t14.5-30q0-16-16.5-29T377 748q-25 0-35.5 12.5T331 790q0 18 12.5 30t33.5 12zm510-13h10l-3-13h-10z" fill="currentColor"/></svg>