<svg xmlns="http://www.w3.org/2000/svg" viewBox="0 0 592.4 534.1"><path d="M106.2 131.2c.6-27.4 12-44 34-49.8 22-5.7 32.9-18 32.5-36.8-.3-18.8-18.2-26.2-53.6-22C83.7 26.7 58.9 39 44.5 59.4c-14.4 20.4-20.9 44.3-19.6 71.8v363.7c0 11.5 4.5 17.2 13.4 17.2h53.6c11.5 0 16.3-5.4 14.4-16.3V131.2zm128.3 278.5c-12.1 1.9-18.2 11.8-18.2 29.7h34.5c-.1-17.9-5.5-27.8-16.3-29.7zM130.2 201l6.7 11.5c16.6 12.1 44 15.3 82.3 9.6 38.3-5.7 66-8.6 83.3-8.6 17.2 0 29.3-13.7 36.4-41.2 7-27.4 17.2-50.9 30.6-70.3C382.8 82.5 390 67.4 391 56.5c1-10.8 5.1-21.2 12.4-31.1s17.4-14.8 30.1-14.8c14.7 0 30.6 9.3 47.9 27.8 65.7 84.9 102.4 135.3 110.1 151.2 2.6 12.1 0 29.2-7.7 51.2s-22.2 49.9-43.5 83.7c-21.4 33.8-32.5 54.1-33.5 60.8-1 6.7-3.3 17.7-7.2 33l-1.9 21.1c16-.6 36.7-1.9 62.2-3.8 3.8 12.8 3.8 25.2 0 37.3-25.5-2.6-50.4-3.8-74.6-3.8-5.1 6.4-14.8 9.6-29.2 9.6-14.4 0-22.8-1-25.4-2.9-2.6 3.2-6.2 5.6-11 7.2-4.8 1.6-9.7.8-14.8-2.4l3.8-11.5H197.2c-34.5.6-51.7-2.9-51.7-10.5-.6-5.7 4.1-10.5 14.4-14.4 10.2-3.8 17.9-5.4 23-4.8 10.2-33.8 27.1-50.7 50.7-50.7s40.8 16.9 51.7 50.7h136.9c2.6-3.8 6.7-11.8 12.4-23.9 5.7-12.1 14.8-23.6 27.3-34.5 12.4-10.8 26.3-34.8 41.6-71.8s27.1-63.2 35.4-78.5c9.6-15.3 4.5-33-15.3-53.1s-34.5-40.2-44-60.3c-9.6-20.1-18-33.7-25.4-40.7-7.3-7-12.9-10.5-16.7-10.5-38.9 98.9-63.2 156-72.7 171.3-10.2 8.9-26.5 15.6-48.8 20.1-22.3 4.5-53.6 6.4-93.8 5.7-40.2-.6-64.1-.5-71.8.5-7.7 1-14.4 1.8-20.1 2.4v246c-.6 14.7-13.4 22-38.3 22H25c-16.1 0-24-13.1-24-39.3L0 131.2c.6-29.3 5.4-52.6 14.4-69.9 8.9-17.2 22.5-31.9 40.7-44C73.2 5.2 101.3-.6 139.3 0c38 .6 56.9 16 56.9 45.9 0 28.1-11 44.8-33 50.2-22 5.4-33 17.1-33 34.9v70z"/></svg>