<svg xmlns="http://www.w3.org/2000/svg" viewBox="-10 0 1116 819"><path d="M-5 819q3-30 7.5-77.5t8-104.5q3.5-57 6-116.5T19 407q0-73-4.5-143t-11-131Q-3 72-10 30 26 16 72 8t91-8q45 0 91 8t83 22q-8 52-16.5 132.5T308 332h224q6-14 20-44t32.5-68.5q18.5-38.5 38.5-79t39.5-75Q682 31 698 9h75l288 340 6 17-12 340 8 23h43v32h-40v16l-19 29h-75l-8-19h-25l-6-26H548q-6 19-25 32t-47 13q-25 0-41.5-13T413 761h-24v-32h23q10-46 64-46 26 0 45.5 13.5T547 729h384l35-73 3-259-221-254h-8q-19 41-52 111.5T609 406l-28 24H307q1 52 3.5 108.5t6 110q3.5 53.5 7.5 98t7 72.5zm23-19h291q-3-30-7-75.5t-7-99q-3-53.5-5-110T288 407q0-71 4.5-139T303 142q6-58 12-99-38-13-81-18t-71-5q-28 0-71 5T11 43q6 41 12.5 99t11 126Q39 336 39 407q0 52-2 108.5t-5.5 110q-3.5 53.5-7 99T18 800zm964-12h56l9-17v-36l-11-27 13-337-5-11L760 28h-54q-25 41-52.5 96.5T598 239q-28 59-53 112H308q-1 14-1 28v31h269l19-18q32-55 58.5-107.5t45-94.5q18.5-42 29.5-66h31l229 268-5 270-33 67h12l4-8h14l-6 17-2 17 3 14zm-506-1q25 0 40-12.5t15-29.5q0-16-16-29t-39-13q-25 0-35.5 12T430 745q0 17 12.5 29.5T476 787zm476-13h10l-3-13h-10z" fill="currentColor"/></svg>