<svg xmlns="http://www.w3.org/2000/svg" viewBox="0 0 592.8 487.7"><path d="M33.6 244.2c.4 65-3.8 137.4-12.8 217.3 20.6 6.7 48.9 10.3 84.8 10.8 35.9-.4 64.1-4 84.8-10.8-9-79.8-13.2-152.2-12.8-217.3-.4-65.5 3.8-137.9 12.8-217.3-20.6-6.3-48.9-9.9-84.8-10.8-35.9.9-64.1 4.5-84.7 10.8 8.9 79.4 13.2 151.8 12.7 217.3zm201.1 134.5h13.5c0 13 11 20.2 33 21.5 14.8 0 25.1-2.7 30.9-8.1 5.8-5.4 8.7-11 8.7-16.8 0-6.3-2.9-12.1-8.7-17.5-5.8-5.4-16.1-8.1-30.9-8.1-22 1.8-33 9-33 21.5h-13.5v7.5zm227.4-18.2c26.9-28.7 46.3-58.9 58.2-90.5 11.9-31.6 21.4-53.7 28.6-66.3 7.2-12.6 2.7-27.1-13.5-43.7-16.1-16.6-28.1-33.4-36-50.4-7.8-17-14.9-28.5-21.2-34.3-6.3-5.8-11-8.7-14.1-8.7-31.8 83-51.3 130.7-58.5 143.3-8.5 7.2-22.1 12.7-40.7 16.5-18.6 3.8-44.4 5.4-77.4 4.7-33-.7-56.2 1.3-69.6 6.1-13.5 4.7-20.9 7.1-22.2 7.1 0 65 5.2 139 15.5 222 .4 5.8-4.3 9.4-14.1 10.8-25.1 7.2-55.6 10.8-91.5 10.8s-66.4-3.6-91.5-10.8C4.7 475.5 0 472 0 466.1c10.3-83 15.2-156.9 14.8-222 .4-65.5-4.5-139.5-14.8-222 0-5.8 4.7-9.6 14.1-11.4C39.2 3.6 69.7 0 105.6 0s66.4 3.6 91.5 10.8c9.9 1.8 14.6 5.6 14.1 11.4-9.4 73.5-14.6 133.6-15.5 180.3 27.8.9 57.5-1 89.1-5.7 31.6-4.7 54.6-7.1 68.9-7.1 13.9 0 23.9-11.3 29.9-34 6.1-22.6 14.3-41.9 24.9-57.8C419 82 424.9 69.4 426 60.2c1.1-9.2 4.8-18 11.1-26.6 6.3-8.5 14.6-12.8 24.9-12.8 12.1 0 25.3 7.8 39.7 23.5 53.8 70.4 83.9 112.1 90.1 125.1 2.2 10.3.1 24.6-6.4 42.7-6.5 18.2-18.5 41.4-36 69.6-17.5 28.3-26.6 45.3-27.2 51.1-.7 5.8-2.8 14.8-6.4 26.9H540V390l-30.9-.7c-2.2 7.2-9.9 11-22.9 11.4-13 .4-20.6 0-22.9-1.3-1.8 2.2-5.4 3.8-10.8 4.7-5.4.9-10.1.4-14.1-1.3l8.7-14.8-96.9-.7c-9.9 0-17.7 1.8-23.5 5.4-7.2 12.6-22.2 18.8-45.1 18.8-22.4 0-36.8-7.6-43-22.9H224V361h14.1c6.7-15.7 21.3-23.5 43.7-23.5 22.9 0 37.9 6.5 45.1 19.5 5.8 4 13.7 6.1 23.5 6.1l111.7-2.6z"/></svg>