<svg xmlns="http://www.w3.org/2000/svg" viewBox="0 0 589.7 134"><path d="M350.7 87.4c29.9-.4 64.8 3.3 104.6 11.2 9.8-11.8 26.6-20.9 50.2-27.2 15-2 27.6-2.5 37.8-1.5 10.2 1 14.8 3.5 13.6 7.7-1.2 4.1-3.6 7.5-7.4 10-3.7 2.6-14.1 2.9-31 .9-13.8-2.4-23.8 2.6-30.1 14.8 29.5 11 52.8 11.3 69.7.9 16.9-10.4 27-12.7 30.1-6.8 4.7 7.1-1.8 16.5-19.5 28.4-22.8 10.2-48.6 10.8-77.4 1.8-25.6-5.9-51.8-8-78.6-6.2-26.8 1.8-47.5 2.7-62 2.7-25.2-8.3-38.4-24.6-39.6-49-1.2-24.4-6.7-36.6-16.5-36.6-10.2 0-16 12.2-17.1 36.6s-14 40.6-38.4 48.5c-14.6.4-35.3-.4-62-2.4-26.8-2-53.2.2-79.2 6.5-28.8 9.1-54.4 8.3-76.8-2.4C3.3 113.4-3.2 104.2 1.5 97.5c3.2-6.3 13.1-4.2 29.8 6.2 16.7 10.4 40.1 10.3 70-.3C95 90.8 85 85.7 71.2 88c-16.9 2-27.4 1.7-31.3-.9-3.9-2.6-6.4-5.9-7.4-10s3.6-6.6 13.9-7.4c10.2-.8 22.8-.4 37.8 1.2 23.2 6.3 40 15.4 50.2 27.2C174.2 90.6 209 86.9 239 86.9c2.4-1.2 5.2-4.5 8.6-10 3.3-5.5 6.6-19.3 9.7-41.4 3.2-22.1 15.6-33.9 37.2-35.5 21.3 1.6 33.5 13.4 36.6 35.5 3.2 22.1 6.5 35.6 10 40.8 3.7 5 6.8 8.8 9.6 11.1z"/></svg>