<svg xmlns="http://www.w3.org/2000/svg" viewBox="-10 0 1425 446"><path d="M87 446l-61-27-36-40 23-27 55 33q9 5 23 6t29 1q16 0 26-2t19-6l-2-8q-6 1-18.5 2t-17.5 1q-30 0-52-19l14-30q8 2 17 5.5t17 3.5q15 0 26-3.5t21-4.5l52 23 157-12 125 1 12-10 91-257q14-41 40-58t55-18q30 1 56 18t40 58l90 257 12 10 125-1 157 12 52-23q11 1 21.5 4.5t26.5 3.5q7 0 17-3.5t17-5.5l14 30q-23 19-52 19-6 0-18-1t-19-2l-2 8q9 4 19.5 6t26.5 2q15 0 29-1t22-6l55-33 24 27-36 40-62 27h-66l-76-21-313 21h-29l-30-21-101-250-101 250-29 21h-29l-314-21-76 21zm3-16h62l75-25 318 23h21l16-11 113-275h14l114 275 16 11h20l319-23 74 25h62l55-24 27-27-7-9-41 24q-17 10-31 11t-31 1q-16 0-32-3t-29-10l9-30q7 1 21 2t22 1q25 0 36-10l-3-8q-6 2-13 4t-13 2q-17 0-28.5-3t-21.5-5l-50 26-158-11-137 2-20-17-91-267q0-1-7-15.5t-23.5-29Q731 20 702 20t-45 14.5q-16 14.5-23 29T626 79l-91 267-20 17-137-2-157 11-51-26q-9 2-21 5t-28 3q-6 0-13-2t-13-4l-4 8q13 10 36 10 8 0 22-1t21-2l9 30q-12 7-28 10t-33 3q-17 0-31-1t-30-11l-41-24-8 9 27 27z" fill="currentColor"/></svg>