<svg xmlns="http://www.w3.org/2000/svg" viewBox="-10 0 1408 580"><path d="M167 580l-99-43-78-75 32-46 89 60q11 8 38.5 17t49.5 14l116-10-3-19q-5 1-17 1.5l-24 1-16 .5q-10 0-29.5-2t-40.5-5.5q-21-3.5-33-9.5l12-56q5 2 20.5 3.5t34 2.5q18.5 1 30.5 1 10 0 27.5-1.5t34-3.5q16.5-2 23.5-3l75 34 464-26 307 4 12-9 26-410h159l21 518-30 41H417l-110 21zm3-20h136l108-21h944l21-29-20-491h-122l-26 403-20 17-319-5-471 25-73-32q-6 1-21 2.5t-31.5 3.5q-16.5 2-26.5 2-8 0-23.5-1t-30-2.5Q181 430 176 429l-4 21q19 8 45.5 10t37.5 2q5 0 20.5-.5t30.5-1q15-.5 20-1.5l9 55-138 13q-25-6-55.5-16T99 493l-74-50-12 17 65 59z" fill="currentColor"/></svg>