<svg xmlns="http://www.w3.org/2000/svg" viewBox="0 0 595.3 179.9"><path d="M505.3 129.6c9.5-.4 18.3-37.9 26.6-112.4C533.1 5.7 543.8 0 563.9 0c20.5 0 31 9.7 31.4 29v144.4l-89.9-1.2-320.8 1.8-56.2 5.9C44 179.5 1.2 173.2 0 160.9c0-13.4 5.7-20.1 17.2-20.1 23.3 7.1 50.1 11 80.5 11.8 30.4.8 49.7-3.9 58-14.2-4.3-5.5-9.9-8.3-16.6-8.3-12.2-.8-32 1-59.2 5.3-13.4 0-20.1-4.3-20.1-13 0-6.3 2.4-9.5 7.1-9.5 6.7 0 26.8-3.2 60.4-9.5 6.3.4 12.4.8 18.3 1.2 16.6 0 35.5 11.2 56.8 33.7l28.4 1.2 274.5-9.9zm32.6-.6h37.9V29c0-8.7-4.1-13-12.4-13s-12.6 2.6-13 7.7L537.9 129z"/></svg>