<svg xmlns="http://www.w3.org/2000/svg" viewBox="0 0 595.3 183.3"><path d="M595.3 179.5l-405.7-4.7c-48 10.2-86.6 11.2-115.7 3C44.8 169.5 20.2 157.9.1 143l20.1-24.8c5.9 4.7 10.6 8.1 14.2 10L90.9 0 147 128.1c9.4 3.5 21.1 8.3 34.8 14.2l323.6-7.1c9.4 0 18.3-37.4 26.6-112.2 1.2-11 12-16.5 32.5-16.5s30.7 9.6 30.7 28.9v144.1zM90.9 52l-40.2 86.2c17.3 7.1 31.6 11.4 42.8 13 11.2 1.6 22.1 1 32.8-1.8 9.1-2.4 8.7-4.1-1.2-5.3H91.5c-13 0-19.5-6.3-19.5-18.9h6l13-33.1 13 33.1h22.4L90.9 52zM538 135.2h38.4V35.4c0-8.7-4.2-13-12.7-13s-12.9 2.6-13.3 7.7L538 135.2z"/></svg>