<svg xmlns="http://www.w3.org/2000/svg" viewBox="0 0 595.3 177.4"><path d="M538.6 129.3h37.8V29.5c0-8.7-4.3-13-13-13-8.3 0-12.4 2.6-12.4 7.7l-12.4 105.1zm-356.7 7.1l323.6-7.1c9.4 0 18.3-37.4 26.6-112.2C533.3 5.7 544.1 0 564.6 0s30.7 9.6 30.7 28.9v144.7l-405.7-4.7c-48 10.2-86.6 11.2-115.7 3C44.7 163.6 20.1 152 0 137l20.1-24.8c6.3-37.4 16-63.4 29.2-78 13.2-14.6 25.9-21.9 38.1-21.9 11.8 0 24.3 7.6 37.5 22.7 13.2 15.2 21.4 31.6 24.5 49.3 3.1 17.7 3.3 29.9.6 36.6 11.4 2.5 22 7.6 31.9 15.5zm-67.9 1.8H91.5c-13 0-19.5-6.3-19.5-18.9h61.4c1.6-5.5.5-16.2-3.2-32.2S120 57.6 110.7 46.4c-9.3-11.2-17-16.8-23.3-16.8-5.1 0-12.7 5.5-22.7 16.5S47.4 72.4 42.8 91.9c-4.5 19.5-1.4 33.3 9.4 41.3 10.8 8.1 22.5 11.9 35.1 11.5 12.3.4 21.2-1.8 26.7-6.5z"/></svg>