<svg xmlns="http://www.w3.org/2000/svg" viewBox="-10 0 1408 580"><path d="M167 580l-99-43-78-75 32-46 38 27v-53q0-76 15-137t45.5-96q30.5-35 76.5-35t76.5 35q30.5 35 45.5 96t15 137v20l25-3 50 34 464-26 307 4 12-9 26-410h159l21 518-30 41H417l-110 21zm3-20h136l108-21h944l21-29-20-491h-122l-26 403-20 17-319-5-471 25-52-32-15 2v73l-10 11-127 14q-25-6-55.5-16T99 493l-74-50-12 17 65 59zm29-53l116-13V390q0-68-13.5-125t-40-90.5Q235 141 197 141t-64.5 33.5Q106 208 93 265T80 390v65l44 28z" fill="currentColor"/></svg>