<svg xmlns="http://www.w3.org/2000/svg" viewBox="-10 0 1408 580"><path d="M167 580l-99-43-78-75 32-46 26 18q-18-34-18-76 0-43 20-78.5t54-57.5q-3-2-9.5-11.5T88 190q0-14 7.5-24t30.5-16q23-6 67-6t67 6q23 6 30.5 16t7.5 24q0 11-6.5 20.5T282 222q34 22 54 57.5t20 78.5q0 25-7 46h34l51 37 439-26 307 4 12-9 26-410h159l21 518-30 41H417l-110 21zm3-20h136l108-21h944l21-29-20-491h-122l-26 403-20 17-319-5-447 25-47-37h-36q-3 10-7 15l23 29v36l-9 11-152 14q-12-2-30-8-26-4-50-17-12-4-18-9l-74-50-12 17 65 59zm-50-348q16-8 35-12.5t38-4.5q19 0 38 4.5t35 12.5q3-2 7.5-7.5T278 189q0-13-17.5-19.5T193 163q-50 0-67.5 6.5T108 189q0 10 4.5 15.5t7.5 7.5zm58 289h15q40 0 72.5-19.5t52-51.5q19.5-32 19.5-72t-19.5-72.5q-19.5-32.5-52-52T193 214q-40 0-72.5 19.5t-52 52Q49 318 49 358q0 34 14.5 63t38.5 48l22 14zm94-1l67-6v-22l-15-17q-20 28-52 45z" fill="currentColor"/></svg>