<svg xmlns="http://www.w3.org/2000/svg" viewBox="0 0 594.4 198.4"><path d="M119.9 37v12.3H58.2V37h61.7zm439.2-19.4c9.4 0 14.1 5.2 14.1 15v112.9H530l14.1-118.2c.5-6.2 5.7-9.7 15-9.7zm-470 43.3c25.8 0 43.9 6.2 53.8 19.4 9.9 13.2 14.1 25.6 14.1 36.2-.1 6.9-1.1 13.2-3.5 19.4-7-3.8-14-6.2-20.3-6.2-5.4-.4-11.5-.5-17.6-.9-30.2 5.8-48.2 7.9-54.7 7.9-4.3 0-6.2 3.1-6.2 8.8 0 8.3 5.9 12.3 18.5 12.3 21.3-3.8 37.3-5.3 48.5-5.3h5.2c4.6 0 8.3 1.7 11.5 4.4-.6.6-1.1 1.2-1.8 1.8-5.7 5.2-11.9 9.4-18.5 12.3-6.9 1.2-14.6 1.8-23.8 1.8H89.1c-11.2-.3-21.7-1.4-31.7-2.6-6-2.9-11.6-6.7-16.8-11.5-13.4-12.2-19.4-26.2-19.4-42.3 0-10.8 3.4-22.9 11.5-36.2 8-13.2 26.9-19.3 56.4-19.3zM560 0c-23.2 0-35.3 6.5-36.2 19.4-9.6 82.1-15.8 116.1-25.6 118.2-17-1.3-29.8-1.8-41.5-1.8-21.3 0-38.5 1.9-69.7 4.5-31.7 5.4-166.6 12.1-202.8 20.3h-.9c-6.2-6.5-12-11.4-17.6-15.9 4.4-9.4 7.1-19 7.1-28.2-.2-14.2-4.2-27.2-11.5-38.8-7.2-11.7-15.6-20.5-24.6-25.7V25.6H40.6v27.3C31.8 58 24.1 66.1 16.8 77.6S5.5 102.5 5.3 116.4c0 15.7 6.1 31.5 18.5 47.6-2.3-.6-4.8-1.1-7.1-1.8C6 162.3 0 168.6 0 180.8c1.4 11.1 40.4 17.3 117.3 17.6l37.9-4.4 439.2 1.8V32.6C594.4 10.8 583.2 0 560 0z"/></svg>