<svg xmlns="http://www.w3.org/2000/svg" viewBox="0 0 538.1 174.8"><path d="M220.7 0c51.7 0 122.4 15.1 212 45.3 35.7 8 70.7 12 104.9 12l.5 42.6H519c-29.5 0-63.2 4.9-101.1 14.8-64.1 40.1-130 60.1-197.8 60.1-32 0-62.4-3.6-91-10.7s-68.6-10.1-119.9-9c-6.2 0-9.3-9.4-9.3-28.1s3.6-28.1 10.9-28.1c15.7-2.5 35.1-14.2 58.2-35s43.2-35 60.4-42.6C162.3 7.1 192.7 0 220.7 0zm-59 92.9c0 33.5 19.5 50.3 58.5 50.3 38.2 0 57.7-16.8 58.5-50.3 0-24.8-4.7-41.3-14.2-49.7-9.5-8.4-24-12.6-43.7-12.6-19.7 0-34.4 4.2-44.3 12.6s-14.8 24.9-14.8 49.7zm132.2-54.7c8.7 18.2 13.1 36 13.1 53.3 0 17.3-5.6 34.3-16.9 51.1 56.1-16 100.7-36.8 133.8-62.3v-1.1c-33.1-18.9-76.4-32.6-130-41zM47 116.4v7.1L153.5 142c-12.4-14.2-18.6-30.6-18.6-49.2 0-17.1 4-33 12-47.5-17.8 4-51.1 27.7-99.9 71.1z"/></svg>