<svg xmlns="http://www.w3.org/2000/svg" viewBox="-10 0 1125 328"><path d="M533 328q-28 0-72-6t-95.5-15q-51.5-9-103-19.5t-97-20.5Q120 257 89 249.5T48 240q-15 14-27 25T4 281l-14-14q43-43 104.5-89.5t133.5-87Q300 50 376.5 25T526 0q94 0 172 26.5T840.5 92Q905 131 959 168q44 30 82.5 53.5T1115 252l-4 20q-24-4-49-17t-52-30q-6 2-35 10t-72.5 19.5Q859 266 807.5 279T704 303q-52 11-96.5 18t-74.5 7zm-7-21q39 0 71.5-19.5t52-51.5q19.5-32 19.5-71t-19.5-71.5q-19.5-32.5-52-52T526 22q-39 0-71.5 19.5t-52 52Q383 126 383 165t19.5 71q19.5 32 52 51.5T526 307zm88-6q50-8 108.5-21T836 252.5q55-14.5 96-25.5t57-16l-41-27q-45-30-96-62.5t-111-58Q681 38 610 27q35 21 56.5 57.5T688 165q0 43-20.5 78.5T614 301zm-178-1q-32-22-52-57.5T364 165q0-43 20-78.5T437 30q-76 15-145.5 49t-127 73.5Q107 192 67 224q15 4 54.5 13t93.5 21q54 12 112 23t109 19z" fill="currentColor"/></svg>