<svg xmlns="http://www.w3.org/2000/svg" viewBox="0 0 594.4 254"><path d="M68.2 0C58.1 1.9 44.6 8 46.3 20.5V110c-19.9-1-40.3-2-46.4-2.3 0 11.3 9.1 26.6 38 26.6.3 25.4 4.8 56.4 9.5 72.3 0 0 .1 0 .1-.1l3.7 41.6c0 10.1 38.2 4 38.2 4l-1.7-41.7c162.9 1.3 473.8 9.5 489.2 9.5 8 0 13.3-8.6 13.3-20.4l4.1-179.1-98-1-8 139.7c-93.6.3-277 20.4-341.9 7.6-3.2-3.8-33.8-48.4-53.3-53.3-1.5-.4-6.1-.8-11.8-1.3l-9.6-81c6.1-7.5 19.6-5.5 23.2-15.9 3.7-4.9 1.2-13-5.5-13.2C84.5.1 70-.1 68.2 0zm447.6 39.9c37 1.8 54.1 2.3 58.2 2l-4.1 160.3c-26.4-10.7-42.6-21.6-61.1-36.2l7-126.1z"/></svg>