<svg xmlns="http://www.w3.org/2000/svg" viewBox="-10 0 1389 831"><path d="M209 831l-43-133H97l-70-52V544l24-27H27l-6-48 68-8L3 197q-13-37-13-77 0-31 9.5-58T33 17.5Q57 0 98 0q36 0 58.5 12.5t34.5 32Q203 64 207.5 85t4.5 37q0 36-12.5 61.5T174 226h-50q14-37 16.5-57t2.5-38q0-6-3.5-20t-13-25.5Q117 74 99 74q-20 0-26.5 15.5T66 124q0 35 11 65l88 270 64 4 128 79 497-22 307 4 12-9 26-410h159l21 518-30 41H346l-102 34h-1l34 104zM108 459l23-3 14 1-86-262q-4-14-8-33t-4-38q0-27 11-47.5T99 56q25 0 38.5 15t18.5 33q5 18 5 27 0 18-2 37t-9 39h18q9-11 17.5-34t8.5-51q0-19-7-43t-27.5-42.5Q139 18 98 18q-35 0-54.5 14.5T16 70.5Q8 94 8 120q0 18 3.5 36.5T20 191zm-2 219h137l100-34h996l21-29-20-491h-122l-26 403-20 17-319-5-504 21-131-79-87-5-92 9 1 14 109-1 34 11v19l-34-11H77l-30 35v82zm114 128l34-15-30-93h-39z" fill="currentColor"/></svg>