<svg xmlns="http://www.w3.org/2000/svg" viewBox="0 0 593.9 202.1"><path d="M593.9 171c-8 19.4-42.4 19.2-54 19.8-178.1 8.8-325.2-9.9-354.8-5.8-24 7.4-91.2 15.3-129 17.1-.9-.5-8.8-4-5.5-9.7 11.9-20.8 70.4-19.1 72.7-21.9-.5-5.5-16.1-17-26.5-16.7-14.5.4-32.9 9.4-53.2 21.3C16.4 191 10.2 189.6 0 188.3c1.8-10.6 6.7-19.1 14.5-25.6 12.5-10.2 52-67.7 135.7-28.4 18 5.1 36.5 10.2 55.4 15.2 32.3-5.1 77.4-21.3 140.1-19 64.6 2.8 114.6 17.2 145.1 13.5-2.4-12.5-45.8-63.9-55.9-106-3.7-15.4 7.4-38.9 26.4-38 69.9.2 127.9 157.6 132.6 171zm-34.7-25.6c-28.5-57.2-44.1-74.5-75.9-116.2-11.8-9.6-23.4-3.8-21 10.2 1.4 7.7 65.6 115 72 120.6 13.5 9.4 29.2 1.5 24.9-14.6z"/></svg>