<svg xmlns="http://www.w3.org/2000/svg" viewBox="-10 0 1428 658"><path d="M334 658q-7-1-23.5-3t-34-4q-17.5-2-27.5-2-12 0-30.5 1.5t-34 3Q169 655 164 657l-12-56q12-6 33-9.5t40.5-5.5q19.5-2 29.5-2 4 0 16 .5t24 .5q12 0 17 1l3-19-116-9q-22 5-49.5 14T111 588l-89 61-32-46 78-75 99-43h140l110 21 465-24 259 4 12-9-121-328q-6-17-8.5-42t4.5-49.5q7-24.5 29.5-41T1124 0q39 0 63 18t37 43.5q13 25.5 20 48.5l174 475-30 41H409zm-6-20l73-32h976l20-29-169-449q-7-23-19.5-48T1176 37q-20-18-51-18-40 0-57.5 16T1046 73.5q-4 22.5 0 43.5t7 31l125 339-22 19-275-5-467 25-108-22H170l-92 42-65 59 12 17 74-50q12-8 42.5-18t55.5-16l138 13-9 54q-5 0-20-.5t-30.5-1Q260 603 255 603q-11 0-37.5 2T172 615l4 21q5-1 19.5-2.5t30-2.5q15.5-1 23.5-1 10 0 26.5 2t31.5 3.5q15 1.5 21 2.5z" fill="currentColor"/></svg>