<svg xmlns="http://www.w3.org/2000/svg" viewBox="-10 0 1408 591"><path d="M334 591q-7-1-23.5-3t-34-4q-17.5-2-27.5-2-12 0-30.5 1.5t-34 3Q169 588 164 590l-12-56q12-6 33-9.5t40.5-5.5q19.5-2 29.5-2 4 0 16 .5t24 .5q12 0 17 1l3-19-116-9q-22 5-49.5 14T111 521l-89 61-32-46 78-75 99-43h140l110 21 456-24 307 4 12-9 26-410h159l21 518-30 41H409zm-6-20l73-32h957l21-29-20-491h-122l-26 403-20 17-319-5-458 25-108-22H170l-92 42-65 59 12 17 74-50q12-8 42.5-18t55.5-16l138 13-9 54q-5 0-20-.5t-30.5-1Q260 536 255 536q-11 0-37.5 2T172 548l4 21q5-1 19.5-2.5t30-2.5q15.5-1 23.5-1 10 0 26.5 2t31.5 3.5q15 1.5 21 2.5z" fill="currentColor"/></svg>