<svg xmlns="http://www.w3.org/2000/svg" viewBox="0 0 595.3 288.6"><path d="M145.7 158.9c23.5 1.6 45.2 17.2 65.1 46.8 0 3.2 17.4 5.1 52.1 5.8 109.7-8 190.1-11.4 241.2-10.1l6.8-119.2h84.4c-1.9 109.7-3.9 164.5-5.8 164.5-2.6 3.9-5.6 6.3-9.2 7.2l-400.9-.5 10.1 27.5-17.4 7.7-13-35.2H147c-26-33.1-34.9-57.4-26.5-72.8-15.8 0-26.2-5.3-31.4-15.9l-1-7.2L124 156 91.2 59 52.6 264.5 0 244.8 76.7 5.5c6.4-8 11.4-7.2 15 2.4l54 151zM527.3 100L522 207.6c28 19.9 45.3 29.9 52.1 29.9V102l-46.8-2zM80.6 39.7C38.4 170.9 17.4 236.4 17.4 236.1l25.1 8.7L80.6 39.7z"/></svg>