<svg xmlns="http://www.w3.org/2000/svg" viewBox="0 0 595.3 423.1"><path d="M62.9 16.8C69.3 34.9 77.7 54.7 88 76.3s22.4 43.6 35.2 64.6h-.6c-6.2 0-14.5 2.1-24.5 6.7-10.6 4.9-17.3 9.6-21 14.3-8.3-23.1-18.1-45.5-28.5-67.1s-20.3-40.4-30.2-57l44.5-21zm75.6 138.3h2.4l-.8 9.2c-10.4 2.9-16.2 7.6-17.6 15.1-5.6-7-10.6-10.4-14.3-10.9-1.9 3.1-1.7 8.8 0 17.6-2.6-1.4-5.4-2.2-8.3-2.2-4.7 0-9.7 1.8-15.1 5.5l-7.5-5.9c8.5-10.2 17.4-17.7 27.7-22.6 9.6-4.2 21.1-5.8 33.5-5.8zm-23.6 27.7c3.2.7 5.8 2.8 6.7 6.7.9 3.9 1.7 7.4 2.5 10.9-2.4-2.7-5.1-5.3-7.5-8.4-2.5-3.1-3.4-6.3-1.7-9.2zm24.3-10.9c1.1 29.2-1.4 45.4-6.7 47.8-.6.3-1.3.4-2.1.4-6.3 0-19.1-8.4-39-25.6 3.1-2 6-2.9 8.6-2.9 3 0 5.7 1.3 8.1 3.8 4.6 4.7 8.7 8.4 12.6 10.9 3.1 2 5.1 2.6 6.1 2.6.3 0 .4 0 .6-.1.7-.3 1.3-2.3 1.7-6.7.4-4.4.7-10.2 0-16.8-.7-6.5 2.5-11.1 10.1-13.4zM555 191.2c1.3 0 2.6.8 4.2.8 9.6 0 14.3 5.1 14.3 15.1v104.8h-40.2l15.1-110.7c.3-4.8-1.4-7.9 4.2-9.2.5-.1 1.8-.8 2.4-.8zM71.3 0L0 33.5c31.8 47.7 53.4 93 65.4 137.5-10.5 12.5-13.6 21-9.2 24.3 2.1 1.6 4.2 2.4 6.1 2.4 1.9 0 3.6-.8 4.8-2.4 20.3 8.5 38.9 20.8 57 36.9 5.9 9.7 12.7 23.1 20.1 37.7h-.8l-34.4 1.7.8 5.9c4.9 10.2 15.1 15.9 30.2 15.9-13.2 23 3.5 69.6 25.2 69.6h21.9c6.1 14.1 11 25 17.6 41.1 6.1 12.8 12.3 19 18.9 19 1.8 0 3.6-.5 5.4-1.4h.8c8.8-3.8 9.4-14 1.7-30.2-6-11.1-9.7-18.3-15.1-28.5h379V207.1c0-22.3-11.5-33.5-35.2-33.5-23.7 0-31.8 6.9-32.7 20.1-10 86.1-16.4 113.6-26.8 114v.8c-64.7 1.2-121.1 9-223.9 14.3-33.3-.6-50.3-1.9-50.3-5-17.1-25.4-35.6-39.6-55.3-43.6-9.7-20.7-17.7-39.2-22.6-52.8-1.1-23.9 1.2-46.3 7.5-67.1h.3c3.8 0 5.4-2.2 5.6-7.5.2-5.4-7.8-8.3-24.3-8.4C110.3 100.9 88.1 54.6 71.3 0z"/></svg>