<svg xmlns="http://www.w3.org/2000/svg" viewBox="-10 0 1436 855"><path d="M254 855q-2-19-7.5-53T233 733h-88l-70-52V579l24-27H74l-6-48 91-10-31-96-74-38q-8 8-16.5 17.5T23 397L4 380q9-13 19-24t22-21q1-27-6-77.5t-20-109Q6 90-10 36L115 0q17 57 34.5 115t34 103.5Q200 264 213 285q16 1 29.5 5.5T270 301l-7 24q-11-5-23.5-8.5T214 311l-37 74 36 109 63 4 128 79 497-22 307 4 12-9 27-410h158l21 518-30 41H393l-100 33q12 30 24.5 57t19.5 41zM72 315q23-14 51.5-22.5T182 283q-17-30-38-98.5T98 31L20 52q13 44 24.5 96.5t19 98Q71 292 72 315zm81 398h138l100-34h996l20-29-19-491h-123l-26 403-20 17-319-5-504 21-131-79-46-3 9 27 17 4v19l-43-11h-78l-30 35v82zm-3-332l37-73h-4q-31 0-57.5 9T77 341zM87 534l85-1-7-21-79 8z" fill="currentColor"/></svg>