<svg xmlns="http://www.w3.org/2000/svg" viewBox="-10 0 1452 825"><path d="M267 825q2-4 1-23t-8-54h-88l-70-52V594l24-28h-24l-6-47 91-10-8-24-99-28q-24-7-28.5-15T43 411L-7 137q-1-4-2-12t-1-14q0-15 6-34.5T18.5 43Q35 29 65 29q24 0 41 10.5T134 64q11 14 16 25l130 236q11 19 11 34 0 10-4 18.5T276 396l-48 74 12 39 64 4 128 79 238-66 234-40 312-409q11-15 27-33t39-31q23-13 56-13 42 0 64.5 15.5t31 35Q1442 70 1442 82q0 41-24.5 74.5T1370 221l-319 423-631 69-100 34q12 30 20 42t11 11zm-86-97h137l100-34 624-69 313-415q25-33 46-65t21-63q0-9-7-23.5T1390 32q-18-12-52-12-41 0-64.5 22T1235 84L915 506l-246 40-246 64-130-79-46-3 8 27 18 4v19l-44-12h-78l-29 36v82zm3-262l28-7 48-74q5-8 8.5-14.5T272 359q0-9-10-25L133 99q-8-13-22.5-32T66 48q-23 0-35.5 10.5t-17 25Q9 98 9 111q0 5 1 10.5t2 8.5l51 277q2 16 5 21.5T86 439zm-69 83l84-1-7-21-79 8z" fill="currentColor"/></svg>