<svg xmlns="http://www.w3.org/2000/svg" viewBox="-10 0 1476 525"><path d="M145 525q-23 0-49.5-6.5t-50.5-25q-24-18.5-39.5-54T-10 347q0-57 17.5-94T51 196q26-20 52.5-28t44.5-8h220q-41-12-70.5-43T267 38q-1-16 7-27t30-11q13 0 25.5 6T357 20q20 11 46.5 22T465 53q19 0 54.5-5T596 38q49-7 101-13.5t86-6.5q75 1 140.5 17.5T1042 76q53 24 90.5 47t58.5 36l275-48v353l-221-42q-14 9-37.5 25.5t-59 34.5q-35.5 18-84 30.5T953 525zm0-20h808q62 0 110.5-13.5t84-32Q1183 441 1206 424t35-25l206 40V137l-260 42q-22-14-60.5-37t-90-47Q985 71 921 55T783 38q-33-1-85 5.5T599 57q-41 6-77 10.5T465 72q-40 0-68-11.5T348 37q-13-7-24-12t-20-5q-18 0-18 18 1 35 21 59t49 37q29 13 61 13 20 0 41-6t48-11.5q27-5.5 64-5.5 28 0 58.5 7t57.5 15.5q27 8.5 44 13.5h94v20H148q-16 0-39.5 7t-46 25q-22.5 18-38 51T9 347q0 51 13.5 82.5t34.5 48q21 16.5 44.5 22T145 505zm322-345h199q-23-6-48-11t-48-5q-33 0-57 5.5T467 160z" fill="currentColor"/></svg>