<svg xmlns="http://www.w3.org/2000/svg" viewBox="0 0 595.3 196"><path d="M306.7 0c-62.3 11.4-101 16.8-115.1 16.8-6.4 0-15.7-1.2-28.4-4.4-10.9 4.1-16.8 15.7-16.8 35.7 0 7 2.7 13.1 7.3 17.5-19.4.9-83.7 2-92.4 2.9C36.9 71 23.4 73 21.1 74.3 7 90.3 0 111.1 0 137c0 18.7 5.3 32.4 15.3 41.5C41.7 189.9 155.2 196 268 196c27.8-.9 47.4-2.6 58.3-4.4 84.2-13.2 138.1-19.7 161.8-19.7 23.2 0 58.9 3.7 107.1 10.9V43.7c-41 3.2-72.4 4.4-94.7 4.4-36.4 3.2-72-3.4-106.4-21.1-34.3-17.8-63.3-27-87.4-27zm-8.8 21.1c21.4 0 50 9.2 84.5 27C417 65.8 458.3 74.3 507 74.3c19.1 0 40.7-1.2 64.9-4.4v88.9c-35.5-6.4-62.8-9.5-82.4-9.5-23.2 1.4-45.7 3.8-67 6.6-81.9 11.8-134.5 17.5-158.1 17.5-70.1 0-168.5-2.3-205.4-7.3-24.1 0-35.7-8.4-35.7-24.8 0-28.7 7-45.6 21.1-51 94.2-8.2 224.2-13.8 301.6-16-15-20-30.7-28.7-46.6-25.5-60.5 5-97.7 8-112.2 8-13.2-.5-19.7-7.5-19.7-21.1l21.9.7c20 0 55.7-5.3 108.5-15.3z"/></svg>