<svg xmlns="http://www.w3.org/2000/svg" viewBox="-10 0 1784 648"><path d="M452 525q-23 0-49.5-6.5t-50.5-25q-24-18.5-39.5-54T297 347q0-57 17.5-94t43.5-57q26-20 52.5-28t44.5-8h220q-40-12-70-43t-31-79q-1-16 7.5-27T611 0q13 0 26 6t27 14q20 11 46.5 22T772 53q19 0 55-5t76-10q50-7 101.5-13.5T1090 18q76 1 141.5 17.5t118 40.5q52.5 24 90.5 47t59 36l275-48v353l-222-42q-14 9-37.5 25.5t-59 34.5q-35.5 18-84 30.5T1260 525zm0-20h808q62 0 110.5-13.5t84-32Q1490 441 1513 424t35-25l206 40V137l-260 42q-23-14-61-37t-89.5-47Q1292 71 1228 55t-138-17q-33-1-85 5.5T906 57q-41 6-77 10.5T772 72q-40 0-68-11.5T655 37q-13-7-24-12t-20-5q-18 0-18 18 2 35 21 59t49 37q30 13 61 13 21 0 41.5-6t47.5-11.5q27-5.5 65-5.5 27 0 58 7t58 15.5q27 8.5 43 13.5h94v20H455q-16 0-39.5 7t-46 25q-22.5 18-38 51T316 347q0 51 13.5 82.5t34.5 48q21 16.5 44.5 22T452 505zM350 113q-17 0-28.5-12T310 73q0-16 11.5-28T350 33q17 0 28.5 12T390 73q0 16-11.5 28T350 113zm152 2q-17 0-28.5-12T462 75q0-16 11.5-28T502 35q17 0 28.5 12T542 75q0 16-11.5 28T502 115zM350 93q8 0 14-6t6-14q0-9-6-15t-14-6q-9 0-15 6t-6 15q0 8 6 14t15 6zm152 3q8 0 14.5-6.5T523 75q0-8-6.5-14T502 55q-8 0-14 6t-6 14q0 8 6 14.5t14 6.5zm-292 91q-17 0-28.5-12T170 147q0-16 11.5-28t28.5-12q17 0 28.5 12t11.5 28q0 16-11.5 28T210 187zm0-19q8 0 14.5-6t6.5-15q0-8-6.5-14t-14.5-6q-8 0-14 6t-6 14q0 9 6 15t14 6zm564-8h199q-23-6-47.5-11t-47.5-5q-34 0-58 5.5T774 160zM125 335q-16 0-28-12t-12-28q0-16 12-28t28-12q16 0 28 12t12 28q0 16-12 28t-28 12zm0-19q8 0 14-6t6-15q0-8-6-14t-14-6q-9 0-15 6t-6 14q0 9 6 15t15 6zM56 482q-17 0-28.5-11.5T16 442q0-17 11.5-28.5T56 402q17 0 28.5 11.5T96 442q0 17-11.5 28.5T56 482zm0-20q8 0 14.5-6t6.5-14q0-8-6.5-14.5T56 421q-8 0-14 6.5T36 442q0 8 6 14t14 6zM30 648q-17 0-28.5-11.5T-10 608q0-17 11.5-28.5T30 568q17 0 28.5 11.5T70 608q0 17-11.5 28.5T30 648zm0-20q8 0 14-6t6-14q0-8-6-14.5T30 587q-8 0-14.5 6.5T9 608q0 8 6.5 14t14.5 6z" fill="currentColor"/></svg>