<svg xmlns="http://www.w3.org/2000/svg" viewBox="0 0 595.3 183.9"><path d="M175.8 15c-.7 0-1.4 0-2.1.1-10.6.4-15.5 6-14.5 16.3.8 9.1 5.7 13.8 14 13.8.7 0 1.5 0 2.2-.1 9.7-.4 14.1-5.6 13.7-15.4-.4-9.6-4.9-14.7-13.3-14.7zm-46.2 5.1c-.7 0-1.4 0-2.1.1-10.6.4-15.5 6-14.5 16.3.8 9.1 5.7 13.8 14 13.8.7 0 1.5 0 2.2-.1 9.7-.4 14.1-5.6 13.7-15.4-.4-9.6-4.9-14.7-13.3-14.7zM89.7 39.7c-.8 0-1.6 0-2.4.1-10.5.5-15.4 5.2-14.5 15.4.8 9.1 5.7 13.8 14 13.8.7 0 1.5 0 2.2-.1 9.7-.4 14.1-5.6 13.7-15.4-.4-9.4-4.8-13.8-13-13.8zM55.5 71.4c-.8 0-1.6 0-2.4.1-10.6.4-15.5 5.1-14.5 15.4.8 9.1 5.7 13.8 14 13.8.7 0 1.5 0 2.2-.1 9.7-.4 14.1-5.6 13.7-15.4-.4-9.4-4.8-13.8-13-13.8zm-23.4 39.3c-.7 0-1.4 0-2.1.1-10.6.4-15.5 6-14.5 16.3.8 9.1 5 13.8 13.2 13.8.7 0 1.4 0 2.2-.1 9.7-.4 14.1-5.6 13.7-15.4-.4-9.5-4.3-14.7-12.5-14.7zm304.7-92.3c18.6 0 43.4 8 73.5 23.4 30.1 15.4 66 22.8 108.4 22.8 16.6 0 35.4-1 56.4-3.8v77.3c-30.9-5.5-54.6-8.2-71.6-8.2-20.2 1.2-39.7 3.3-58.3 5.7-71.2 10.3-116.9 15.2-137.5 15.2-60.9 0-119.5-2-151.5-6.3-21 0-31-7.3-31-21.5 0-24.9 6.1-39.6 18.4-44.4 81.9-7.1 167.9-12 235.1-13.9-11.3-15.1-23-22.7-35-22.7-1.9 0-3.7.2-5.6.6-52.6 4.4-84.9 7-97.6 7-11.5-.6-17.2-6.7-17.2-18.6l19 .6c17.5.1 48.6-4.5 94.5-13.2zM344.4 0c-54.2 9.9-87.9 14.6-100.1 14.6-5.5 0-13.6-1-24.7-3.8-9.6 3.5-14.6 13.6-14.6 31 0 6.1 2.4 11.4 6.3 15.2-16.8.8-45.7 1.8-53.3 2.5-21.2 2.2-32.9 3.9-34.9 5.1-12.3 13.8-18.4 31.9-18.4 54.5 0 16.2 4.6 28.2 13.3 36.1 22.9 9.9 94.6 15.2 192.7 15.2 24.1-.8 41.2-2.2 50.7-3.8 73.2-11.5 120.1-17.1 140.7-17.1 20.2 0 51.2 3.2 93.1 9.5V38c-35.6 2.8-63 3.8-82.4 3.8-5.1.4-10.2.7-15.3.7-26.4 0-52.2-6.1-77.3-19C390.5 8 365.3 0 344.4 0zM16.7 153.8c-.7 0-1.4 0-2.1.1-10.6.4-15.5 6-14.5 16.3.8 9.1 5.7 13.8 14 13.8.7 0 1.5 0 2.2-.1 9.7-.4 14.1-5.6 13.7-15.4-.4-9.6-4.9-14.7-13.3-14.7z"/></svg>