<svg xmlns="http://www.w3.org/2000/svg" viewBox="0 0 595.3 234.7"><path d="M210 25.6c3.9 0 9.5 1.4 16.6 4.1 13.7 5.2 30.8 7.8 51.5 7.8 5.5 0 11.2-.2 17.2-.5 3.4-.2 6.7-.3 10-.3 24.7 0 47.4 5.7 68.3 17.2 23.7 13 49.4 28.6 76.9 46.8l117.3-11.9v74l-117.3-11.9C386.7 198.3 334.3 209 253.7 209c-6 0-12.1-.1-18.5-.2-90.8-1.5-174-21.2-197.4-35.6-16-9.8-17.4-59.2-3.9-59.2 1.2 0 2.5.4 3.9 1.2 39.9 15.5 92 28.8 139.4 33.6 36.3 3.7 69.2 5.5 98.7 5.5 9 0 17.7-.2 26.1-.5 35.8-1.5 55-14.1 57.7-37.8 2.7-23.7-11.5-38.8-42.6-45.2-31.1-6.4-57.5-11.9-79.4-16.3-21.8-4.4-33.5-11.3-35-20.7-.7-5.5 1.7-8.2 7.3-8.2zM199.5 0c-9.5 0-16.4 4.6-20.7 13.8-7.1 15-5.6 28.3 4.4 40s38.6 21.5 85.6 29.5c47 8 67.9 19.1 62.7 33.1-3.6 9.8-23.2 14.7-58.7 14.7-15.5 0-34.2-.9-55.8-2.8-71.1-6.2-135.9-26-179-42.3-3.7-1.3-7-1.9-10.1-1.9C8.9 84.1.1 105.9 0 118c-.4 86 31.1 77.8 38.2 83.6 12.2 9.9 109 28 198.2 32.4 8.5.4 16.8.6 25 .6 77.9 0 142.4-19.3 193.6-62.2l140.2 11.9V65L455 76.9c-53.8-35.1-90.3-54.8-109.3-59.1-11.5-2.6-23.5-3.9-36-3.9-8.2 0-16.6.6-25.3 1.7-5 .6-9.9 1-14.9 1-16.7 0-33-3.7-49-11-8-3.8-15-5.6-21-5.6z"/></svg>