<svg xmlns="http://www.w3.org/2000/svg" viewBox="-10 0 1474 497"><path d="M669 497q-71 0-148.5-14.5t-154-41.5q-76.5-27-144-63t-120-79Q50 256 20 208.5T-10 111q7-15 32-31t65-16q14 0 37.5 13.5T180 112q37 24 87.5 54T381 223.5Q444 251 519.5 269T683 287q78 0 135-10.5t93-24q36-13.5 52-21.5l-31-58q-29 6-85.5 13T716 192q-39-1-86-8.5t-95-26Q487 139 445 106L494 0q6 4 24 12.5T560 30q24 9 48.5 15.5T651 52q34 0 62-5.5T770 33q35-9 74.5-17.5T939 7q57 0 116.5 18.5T1167 71q52 27 86 52 12 0 47.5-2t80-4.5q44.5-2.5 83.5-4.5v278l-202-17q-5 2-42 15t-98 31q-61 18-136.5 36t-157 30Q747 497 669 497zm0-19q72 0 152.5-12t161-31q80.5-19 152-41t124.5-42l184 16V133l-197 10q-31-25-80-52t-108-45.5Q999 27 939 27q-52 0-92 8t-72 16q-30 8-60 14t-64 6q-17 0-40-5.5T565 52q-23-8-40.5-15.5T503 25l-34 75q37 27 81 43t87.5 22.5Q681 172 716 172q77 1 137.5-7t89.5-14l47 88q-11 6-49 22.5t-102.5 31Q774 307 683 307q-88 0-164.5-18T377 243q-65-28-117-59t-91-56q-28-18-50.5-31T87 84q-30 0-50 10.5T9 115q1 44 30.5 88.5t81 85q51.5 40.5 117 75t139 60Q450 449 525 463.5T669 478z" fill="currentColor"/></svg>