<svg xmlns="http://www.w3.org/2000/svg" viewBox="0 0 595.3 194.9"><path d="M566.1 132.3zm-146.3-105c7 3.7 13.5 8.3 19.9 13 8.2 6 16.2 12.2 24.6 17.5 13.9 8.6 28.9 14.6 46.5 14.6 7.2 0 14.8-1 23-3.2 11-2.5 22.2-5.1 33.6-7.8l-1.3 70.8c-14.2-2.5-27.6-3.8-40.4-3.8-40.1 0-75 12.4-113.8 39.1l-345.8.1c-8.3-1.2-19.3-10.1-26.9-21.7-21.3-44.7-14.7-84.1 25.4-118.6h355.2zM54.8 0L51 3.1c-53.4 43.4-64 97.7-36 155.5l.3.7.4.7C28 179.2 47 193.2 63.8 194.9l.7.1h.7l350.9-.1h4.3l3.5-2.5c35.6-25.1 66.1-36.6 101.7-36.6 15.6 0 32.2 2.2 50.6 6.4l16.4 3.8.3-16.8L595 44.4l.3-17.5-17 3.9c-17 3.9-34.1 7.9-51.1 11.8-6 1.6-11.4 2.4-16.4 2.4-12.7 0-22.6-4.6-32-10.4-7.8-4.9-15.3-10.7-22.9-16.3C447.3 12 438.6 6 429 1.4L426.2 0H54.8z"/></svg>