<svg xmlns="http://www.w3.org/2000/svg" viewBox="-10 0 1464 436"><path d="M157 436q-58 0-95-23.5T7.5 354Q-10 319-10 285V163q0-46 20.5-82.5T69 22q38-22 88-22h824q32 0 64.5 2t63 12.5Q1139 25 1166 52t54.5 41.5Q1248 108 1278 108h23q22 0 50-7.5t55.5-18Q1434 72 1454 62v312q-20-10-47.5-20.5t-55.5-18q-28-7.5-50-7.5h-23q-30 0-57.5 14.5T1166 385q-35 35-79 43t-87 8zm0-19h843q41 0 81-7t71-39q30-30 60.5-46t65.5-16h24q23 0 49.5 6t49 14q22.5 8 33.5 13V95q-11 6-33.5 13.5t-49 13.5q-26.5 6-49.5 6h-24q-35 0-65.5-16T1152 65q-31-31-71-38.5t-81-7.5H157q-44 0-77.5 19.5t-52 52Q9 123 9 163v122q0 30 15.5 60.5t48 51Q105 417 157 417z" fill="currentColor"/></svg>