<svg xmlns="http://www.w3.org/2000/svg" viewBox="-10 0 1293 570"><path d="M464 570q-63 0-129.5-13t-128-35.5Q145 499 96 470t-77.5-61.5Q-10 376-10 343t28-46q28-13 62-13 7 0 15 .5t15 1.5q-14-17-19.5-34.5T85 213q0-36 25.5-58.5T175 120q39-12 82.5-17t79.5-5q-8-6-14.5-13.5T316 57q0-34 53-45.5T524 0q49 0 104 4.5T733.5 17Q784 25 819 36q43 13 91.5 47t91.5 67q22 17 42.5 32.5T1084 210h199v241q-64 4-138 14t-151 23.5Q917 502 845 515q-73 14-144 26.5T569 562q-61 8-105 8zm0-20q65 0 165-16.5T841 496q110-20 219-39t204-25V229h-186q-19-12-42-29l-46-34q-27-21-58.5-44t-62-41Q839 63 814 55q-35-10-84-18.5t-103-13Q573 19 524 19q-84 0-136.5 9T335 60q0 17 12.5 25T372 98q73 0 141 7.5T634.5 129q53.5 16 84.5 42t31 62q0 42-27 69.5t-71 43q-44 15.5-96 22T454 374q-76 0-138-11t-106.5-25.5Q165 323 140 313v-1q-26-8-60-8-26 0-48.5 8.5T9 343q0 30 27.5 60t74.5 56q47 26 106 46.5T340 538q64 12 124 12zm-10-195q47 0 95.5-5.5t89.5-19q41-13.5 66-37t25-60.5q0-31-30.5-53T617 144q-52-14-117-20.5T365 117q-49 0-95.5 5T186 138q-37 11-59 29.5T105 213q0 23 10 43.5t33 39.5q23 9 67 23t104.5 25Q380 355 454 355z" fill="currentColor"/></svg>