<svg xmlns="http://www.w3.org/2000/svg" viewBox="0 0 455.9 262"><path d="M452.1 113c2 12.2 3.3 30.6 3.8 55.5.5 24.8-2.5 49.4-9.1 73.7-44.6 2-98.1 6.6-160.7 13.7-62.6 7.1-115.9 8.1-159.9 3-33.9-5.1-55-21.5-63.1-49.4-8.1-27.9-11.9-59.5-11.4-95 3-17.7-2.8-28.9-17.5-33.4C16.5 72 5.7 61 1.9 48-1.9 35.1 0 19.3 7.6.6c48.6 5.1 86 6 112.1 2.7C145.8 0 169.6-.8 191.1 1c21.5 1.8 43.7 9.5 66.5 23.2 22.8 13.7 49.9 33.2 81.3 58.5C370.3 100.8 408 111 452.1 113zm-29.7 22c-29.9-1.5-64.6-11.9-104.1-31.1-54.2-39.5-94-62.8-119.3-69.9-25.3-7.1-49-8.9-71-5.3-22 3.5-53.3 3.5-93.8 0 0 14.2 4.7 23.2 14.1 27 9.4 3.8 19.2 5.8 29.6 6.1 10.4.3 26.5-3.3 48.2-10.6 21.8-7.3 37.2-11 46.3-11h20.5c-19.2 14.2-41.5 25.7-66.9 34.6-25.3 8.9-38.5 21.9-39.5 39.1-1 25.8-.8 47.9.8 66.1 1.5 18.2 10.5 32.4 27 42.5 16.5 10.1 73.3 11.9 170.6 5.3l133.7-10.6c7.6-20.4 8.9-47.7 3.8-82.2z"/></svg>