<svg xmlns="http://www.w3.org/2000/svg" viewBox="-10 0 1166 656"><path d="M373 656q-71 0-136.5-2t-117-15.5Q68 625 38 591.5T8 496V345q0-67 31-113.5t83-59.5q-59-11-95.5-44.5T-10 55q0-21 8.5-35.5T14 0q21 14 58 24t79.5 14.5Q194 43 230 42q23-1 50-2t57-3q45-3 91.5-5.5T516 29q78 0 127.5 15.5t86.5 44q37 28.5 75 69.5 26 27 48 46t55 28.5q33 9.5 92 9.5 48 0 79.5-5t53.5-9l23-4v335q-23-4-52-8.5t-56-7.5q-27-3-43-3-33 0-60.5 9.5T889 572q-8 5-19 9.5t-21 8.5q-30 13-60 25t-67.5 21.5Q684 646 631 651t-130 5zm0-20h128q76 0 128-5t88.5-13.5q36.5-8.5 65-20T841 573q11-5 20.5-9.5T880 555q31-15 59-25t66-10q14 0 37 2.5t48.5 6q25.5 3.5 45.5 6.5V247q-21 4-54 9.5t-82 5.5q-47 0-78-6t-52.5-17Q848 228 830 210.5T791 171h1q-37-38-72-66t-82-42.5Q591 48 516 48q-41 0-87 3t-91 5q-29 2-57 3.5T231 62q-35 1-75.5-3.5T78.5 45Q42 36 18 24q-2 4-5.5 12T9 55q0 29 21.5 50t57 35.5Q123 155 166 164h293v19H169q-40 0-72.5 21t-51 58Q27 299 27 345v151q0 55 30 84.5t80.5 41q50.5 11.5 112 13T373 636z" fill="currentColor"/></svg>