<svg xmlns="http://www.w3.org/2000/svg" viewBox="0 0 526.2 198.2"><path d="M215.8 27.2c50.6 0 119.7 14.8 207.3 44.3 34.9 7.8 69.1 11.8 102.6 11.8l.5 41.7h-18.7c-28.8 0-61.8 4.8-98.8 14.4-62.7 39.2-127.1 58.8-193.4 58.8-31.3 0-61-3.5-88.9-10.4-28-6.9-67-9.9-117.3-8.8C3 179 0 169.8 0 151.5S3.6 124 10.7 124C26 121.4 45 110.1 67.6 89.7c22.6-20.3 42.3-34.2 59-41.7 32.1-13.8 61.8-20.8 89.2-20.8zm-57.7 90.9c0 32.8 19.1 49.1 57.2 49.1 37.4 0 56.4-16.4 57.2-49.1 0-24.2-4.6-40.4-13.9-48.6s-23.5-12.3-42.7-12.3c-19.2 0-33.7 4.1-43.3 12.3-9.7 8.1-14.5 24.3-14.5 48.6zm129.3-53.5c8.5 17.8 12.8 35.2 12.8 52.1s-5.5 33.6-16.6 49.9c54.8-15.7 98.5-36 130.9-60.9v-1.1c-32.4-18.4-74.7-31.8-127.1-40zM45.9 141v6.9l104.2 18.2c-12.1-13.8-18.1-29.9-18.1-48 0-16.7 3.9-32.2 11.8-46.5-17.5 3.9-50.1 27.1-97.9 69.4zm27.3-58.2l-41.7-62L62.5.5l40.1 60.9-29.4 21.4zm290.1-13.4L390 0l34.7 13.4L398 81.2l-34.7-11.8z"/></svg>