<svg xmlns="http://www.w3.org/2000/svg" viewBox="-10 0 1125 370"><path d="M533 370q-28 0-72-6t-95.5-15q-51.5-9-103-19.5t-97-20.5Q120 299 89 291.5T48 282q-15 14-27 25T4 323l-14-14q23-23 61-54.5t86-65Q185 156 238 127L186 8l18-8 51 118q62-32 131-54t140-22q86 0 158.5 23T818 121L872 0l18 8-54 123q34 19 64.5 39t58.5 40q44 30 82.5 53.5T1115 294l-4 20q-24-4-49-17t-52-30q-6 2-35 10t-72.5 19.5Q859 308 807.5 321T704 345q-52 11-96.5 18t-74.5 7zm-7-21q39 0 71.5-19.5t52-51.5q19.5-32 19.5-71t-19.5-71.5q-19.5-32.5-52-52T526 64q-39 0-71.5 19.5t-52 52Q383 168 383 207t19.5 71q19.5 32 52 51.5T526 349zm88-6q50-8 108.5-21T836 294.5q55-14.5 96-25.5t57-16l-41-27q-45-30-96-62.5t-111-58Q681 80 610 69q35 21 56.5 57.5T688 207q0 43-20.5 78.5T614 343zm-178-1q-32-22-52-57.5T364 207q0-43 20-78.5T437 72q-76 15-145.5 49t-127 73.5Q107 234 67 266q15 4 54.5 13t93.5 21q54 12 112 23t109 19z" fill="currentColor"/></svg>