<svg xmlns="http://www.w3.org/2000/svg" viewBox="-10 0 238 1220.055"><path d="M4 1220.056q8-69 17-147t17-156q8-78 13-149t5-126q0-56-10.5-118.5T22 403.056q-12-56-22-110.5t-10-104.5q0-71 28-113t71.5-59q43.5-17 91.5-16-8 35-12.5 69t-4.5 74q0 21 6.5 62.5t16.5 94.5q9 51 18.5 109.5t16 115q6.5 56.5 6.5 103.5 0 62-6.5 153.5t-19.5 203.5q-13 112-32 235zm147-1013q-6-40-6-64-1-40 2.5-68t9.5-56q-10 0-20 1t-19 3q-13 28-22 56.5t-9 69.5q0 30 18 45t46 13zm-125 994h127q19-120 31.5-227.5t18.5-196q6-88.5 6-149.5 0-45-6.5-101t-16-114q-9.5-58-18.5-109-5-21-8-40.5t-6-37.5q-37 3-61.5-16.5t-24.5-60.5q0-41 8-69t17-49q-36 15-60 52.5t-24 104.5q0 47 10 101t23 110q13 58 23.5 121t10.5 122q0 54-4.5 122.5t-12 143q-7.5 74.5-16.5 150t-17 143.5z" fill="currentColor"/></svg>