<svg xmlns="http://www.w3.org/2000/svg" viewBox="-10 0 884 1220.055"><path d="M649 1220.056q8-69 17.5-147t17.5-156q8-78 13-149t5-126q0-56-10.5-118.5t-23.5-120.5q-13-56-23-110.5t-10-104.5q0-71 28-113t72-59q44-17 92-16-8 35-12.5 69t-4.5 74q0 21 6.5 62.5t16.5 94.5q9 51 18.5 109.5t16 115q6.5 56.5 6.5 103.5 0 62-6.5 153.5t-19.5 203.5q-13 112-32 235zm-645 0q8-69 17-147t17-156q8-78 13-149t5-126q0-56-10.5-118.5T22 403.056q-12-56-22-110.5t-10-104.5q0-71 28-113t71.5-59q43.5-17 91.5-16-8 35-12.5 69t-4.5 74q0 21 6.5 62.5t16.5 94.5q9 51 18.5 109.5t16 115q6.5 56.5 6.5 103.5 0 62-6.5 153.5t-19.5 203.5q-13 112-32 235zm322 0q9-69 18-147t17-156q8-78 13-149t5-126q0-56-10.5-118.5t-23.5-120.5q-12-56-22-110.5t-10-104.5q0-71 28-113t72-59q44-17 91-16-7 35-12 69t-5 74q0 21 6.5 62.5t16.5 94.5q9 51 18.5 109.5t16 115q6.5 56.5 6.5 103.5 0 62-6.5 153.5t-19 203.5q-12.5 112-32.5 235zm-175-1013q-6-40-6-64-1-40 2.5-68t9.5-56q-10 0-20 1t-19 3q-13 28-22 56.5t-9 69.5q0 30 18 45t46 13zm323 0q-3-20-5-36.5t-2-27.5q-1-40 3-68t10-56q-11 0-20.5 1t-18.5 3q-14 28-22.5 56.5t-8.5 69.5q0 30 18 45t46 13zm322 0q-2-20-4-36.5t-2-27.5q-1-40 3-68t9-56q-10 0-20 1t-19 3q-13 28-21.5 56.5t-8.5 69.5q0 30 17.5 45t45.5 13zm-770 994h127q19-120 31.5-227.5t18.5-196q6-88.5 6-149.5 0-45-6.5-101t-16-114q-9.5-58-18.5-109-5-21-8-40.5t-6-37.5q-37 3-61.5-16.5t-24.5-60.5q0-41 8-69t17-49q-36 15-60 52.5t-24 104.5q0 47 10 101t23 110q13 58 23.5 121t10.5 122q0 54-4.5 122.5t-12 143q-7.5 74.5-16.5 150t-17 143.5zm323 0h127q19-120 31-227.5t18-196q6-88.5 6-149.5 0-45-6.5-101t-16-114q-9.5-58-18.5-109-4-21-7-40.5t-6-37.5q-38 3-62-16.5t-24-60.5q0-41 8-69t17-49q-36 15-60 52.5t-24 104.5q0 47 10 101t22 110q13 58 24 121t11 122q0 54-4.5 122.5t-12 143q-7.5 74.5-16.5 150t-17 143.5zm322 0h128q19-120 31-227.5t18-196q6-88.5 6-149.5 0-45-6.5-101t-15.5-114q-9-58-19-109-4-21-7.5-40.5t-6.5-37.5q-38 3-62-16.5t-24-60.5q0-41 8.5-69t17.5-49q-36 15-60 52.5t-24 104.5q0 47 10 101t22 110q13 58 23.5 121t10.5 122q0 54-4.5 122.5t-12 143q-7.5 74.5-16.5 150t-17 143.5z" fill="currentColor"/></svg>