<svg xmlns="http://www.w3.org/2000/svg" viewBox="-10 0 609 1294.105"><path d="M465 606.105q12-73 19.5-145.5t7.5-128.5q0-29-5.5-63t-11.5-64q-7-28-11.5-56t-4.5-54q0-36 19-57.5t46-30q27-8.5 51-7.5-4 18-6 35t-2 37q0 11 3.5 32.5t8.5 48.5q6 39 13 87.5t7 84.5q0 47-7 116.5t-22 164.5zm-234 0q11-73 19-145.5t8-128.5q0-29-5.5-63t-12.5-64q-6-28-11-56t-5-54q0-36 19.5-57.5t46.5-30q27-8.5 51-7.5-4 18-6 35t-2 37q0 24 11 81 7 39 14 87.5t7 84.5q0 47-7 116.5t-22 164.5zm-234 0q11-73 19-145.5t8-128.5q0-29-5.5-63t-12.5-64q-6-28-11-56t-5-54q0-36 19-57.5t46.5-30Q83-.895 107 .105q-4 18-6.5 35t-2.5 37q0 11 3.5 32.5t8.5 48.5q7 39 13.5 87.5t6.5 84.5q0 47-7 116.5t-22 164.5zm552-496q-2-11-2-17.5v-11.5q-1-21 1-34.5t5-27.5l-8 2-9 2q-7 15-10 31t-3 31q0 27 26 25zm-234 0q-2-11-2-17.5v-11.5q-1-21 1-34.5t5-27.5q-4 1-8.5 2t-8.5 2q-14 31-14 62 0 27 27 25zm-234 0q-3-21-3-29 0-21 2-34.5t5-27.5q-4 1-9 2t-9 2q-13 32-13 62 0 27 27 25zm-62 476h65q14-91 20.5-153t6.5-108q0-34-7-78t-14-83q-2-11-2.5-18.5t-2.5-17.5q-20 2-34.5-8t-14.5-35q0-20 3.5-33t8.5-23q-14 5-26.5 22.5T9 95.105q0 24 5.5 52t11.5 56q6 29 11.5 64.5t5.5 64.5q0 55-7 120t-17 134zm468 0h65q15-91 21.5-153t6.5-108q0-34-7-78t-14-83q-2-11-3-18.5t-3-17.5q-20 2-34-8t-14-35q0-20 3.5-33t8.5-23q-14 5-26.5 22.5t-12.5 43.5q0 24 5 52t12 56q6 29 11.5 64.5t5.5 64.5q0 55-7.5 120t-17.5 134zm-234 0h65q14-91 20.5-153t6.5-108q0-34-7-78t-14-83q-1-11-2-18.5t-3-17.5q-20 2-34-8t-14-35q0-20 3-33t8-23q-14 5-26 22.5t-12 43.5q0 24 5 52t11 56q7 29 12 64.5t5 64.5q0 55-7 120t-17 134zm212 708q12-73 19.5-145.5t7.5-128.5q0-29-5.5-63t-11.5-64q-7-28-11.5-56t-4.5-54q0-36 19-57.5t46-30q27-8.5 51-7.5-4 18-6 35t-2 37q0 11 3.5 32.5t8.5 48.5q6 39 13 87.5t7 84.5q0 47-7 116.5t-22 164.5zm-234 0q11-73 19-145.5t8-128.5q0-29-5.5-63t-12.5-64q-6-28-11-56t-5-54q0-36 19.5-57.5t46.5-30q27-8.5 51-7.5-4 18-6 35t-2 37q0 24 11 81 7 39 14 87.5t7 84.5q0 47-7 116.5t-22 164.5zm-234 0q11-73 19-145.5t8-128.5q0-29-5.5-63t-12.5-64q-6-28-11-56t-5-54q0-36 19-57.5t46.5-30q27.5-8.5 51.5-7.5-4 18-6.5 35t-2.5 37q0 11 3.5 32.5t8.5 48.5q7 39 13.5 87.5t6.5 84.5q0 47-7 116.5t-22 164.5zm318-496q-2-11-2-17.5v-11.5q-1-21 1-34.5t5-27.5q-4 1-8.5 1.5t-8.5 2.5q-14 30-14 62 0 27 27 25zm-234 0q-3-21-3-29 0-21 2-34.5t5-27.5q-4 1-9 1.5t-9 2.5q-13 31-13 62 0 27 27 25zm468 0q-2-11-2-17.5v-11.5q-1-21 1-34.5t5-27.5q-4 1-8 1.5t-9 2.5q-7 14-10 30.5t-3 31.5q0 27 26 25zm-62 476h65q15-91 21.5-153t6.5-108q0-34-7-78t-14-83q-2-11-3-18.5t-3-17.5q-20 2-34-8t-14-35q0-20 3.5-33t8.5-23q-14 5-26.5 22.5t-12.5 43.5q0 24 5 52t12 56q6 29 11.5 64t5.5 65q0 55-7.5 120t-17.5 134zm-234 0h65q14-91 20.5-153t6.5-108q0-34-7-78t-14-83q-1-11-2-18.5t-3-17.5q-20 2-34-8t-14-35q0-20 3-33t8-23q-14 5-26 22.5t-12 43.5q0 24 5 52t11 56q7 29 12 64t5 65q0 55-7 120t-17 134zm-234 0h65q14-91 20.5-153t6.5-108q0-34-7-78t-14-83q-2-11-2.5-18.5t-2.5-17.5q-20 2-34.5-8t-14.5-35q0-20 3.5-33t8.5-23q-14 5-26.5 22.5T9 783.105q0 24 5.5 52t11.5 56q6 29 11.5 64t5.5 65q0 55-7 120t-17 134z" fill="currentColor"/></svg>