<svg xmlns="http://www.w3.org/2000/svg" viewBox="-10 0 1373.095 336"><path d="M178.095 336q-53 0-89.5-20t-58.5-52q-22-32-31.5-70t-8.5-74q36 8 70 12.5t73 4.5q58 0 124-21t133-46q37-14 68.5-30.5t67-28q35.5-11.5 84.5-11.5h753v196h-721q-44 0-89 14t-91.5 35q-46.5 21-93.5 42t-94.5 35q-47.5 14-95.5 14zm0-20q48 0 94-14t91.5-35l91-42 92-35q92-35 95.5-14h702V19h-749q-46 0-94.5 23t-101.5 45q-45 18-74.5 29t-67.5 23q0 42-15 65t-39 31.5q-24 8.5-52 9.5-41 0-73.5-14t-53.5-23q10 24 29 49t49.5 42q30.5 17 75.5 17zm-27-91q20 0 41-5.5t34.5-23q13.5-17.5 11.5-52.5-13 2-35 5t-42 5.5q-20 2.5-28 2.5-40 1-67-3t-55-9q0 19 5 39 29 13 61.5 27t73.5 14z" fill="currentColor"/></svg>