<svg xmlns="http://www.w3.org/2000/svg" viewBox="-10 0 1376 494"><path d="M1047 494q-36 0-59.5-17.5t-37-43.5q-13.5-26-19-52t-5.5-44q0-30 8-59.5t18-52.5q-11-1-23-2t-26-1H157q-80 0-123.5-30T-10 119q0-56 40-87.5T168 0q27 0 38 4.5t14 12q3 7.5 3 15.5-1 6 4 11t16.5 6q11.5 1 33.5 1h818q74 0 125.5 23t83.5 60q32 37 47 82t15 88q0 63-18.5 105.5t-47 64Q1272 494 1241 494q-28 0-47-17.5t-31-43q-12-25.5-18-48.5-5 25-14.5 50t-28.5 42q-19 17-55 17zm0-20q29 0 45.5-16.5t25-42.5q8.5-26 11.5-53t5-48h21q0 33 10.5 70.5T1195 448q19 26 46 26 26 0 50.5-19t40-57q15.5-38 15.5-95 0-40-14-81.5t-44-76q-30-34.5-78-55.5t-116-21H277q-29 0-42.5-2T211 55q-5-5-6.5-11.5T203 32q0-4-5-8t-30-4Q80 20 44.5 45T9 119q0 32 38.5 58T157 203h746q56 0 95.5 12.5T1045 238l-15 12q-9-11-58-21-10 19-18 48t-8 60q0 15 4.5 38t16 46q11.5 23 31 38t49.5 15z" fill="currentColor"/></svg>