<svg xmlns="http://www.w3.org/2000/svg" viewBox="0 0 580.9 242.1"><path d="M99.3 21.9c-2 20.5-10.4 39.6-25 57.5-3.3.7-6.1 1-8.9 1-8 0-14.7-2.9-25.8-8.7-14.9-7.8-21.2-17.1-18.9-28.1 2.3-11 8.8-17.5 19.3-19.5 6.4-1.2 37.8-.3 41.6-.3 6 0 11.5-.7 17.7-1.9zm20.6 8.9c31 6.4 60.1 12.4 95.8 13.8 32.4 1.3 159.5 2 182.8 2.2 35 .3 63.4 3.1 85.3 8.6 21.9 5.4 38 14.3 53.8 36.2 15.8 21.9 24.8 50.2 27 84.7 2.1 33.3-4.1 41.8-23.6 47.5-.7.2-28.2-6.7-32-25.9-3.8-19.2-9.9-42-8.6-65.2 1.3-23.3-8-41.3-22.3-44.5-14.3-3.2-32.6-6.1-54.9-8.6-22.2-2.5-72.2-4-149.9-4.6-23.9-.2-45.1-.3-63.7-.3-41.7 0-92.8 1.8-95.8 1.8-11.1 0-12.3-.3-7.7-7.7 6.1-9.3 10.6-20.1 13.8-38zm355.9 80.3c7.3 0 9.1 3.9 6.9 19.9-2.2 15.9-1.5 36.4 2 61.4 3.1 22.3-12.7 28.4-14.8 28.1-18.9-3.1-29.3-11.1-23.1-33.8 6-22.7 18.3-42.8 29-75.6zM110.8 0c-2.2 0-4.8 4.5-7.8 5.7-7.2 2.7-15 2.1-23.4 2.1-1.5 0-34.3 0-45.7.7C16.8 9.7 6 19.6 1.6 34.4c-4.4 14.8 0 27.9 13.2 39.3C28 85.1 42.5 92.5 58.3 95.8c8.3 1.8 14.7 2.6 19.3 2.6 4.2 0 6.9-.7 8.1-2.2 2.5-3.1 28.1-4.8 76.8-5 48.7-.3 99.2-.4 151.4-.4s102.6 3.9 151.2 11.8c-16.7 30.4-28.4 56.8-35.1 79.2-6.7 22.4-2.9 38.8 11.6 49.4 7 5.1 15.3 7.6 24.9 7.6 10.5 0 22.6-3 36.3-8.9 11.5 8.1 22.8 12.2 33.9 12.2 5.3 0 10.5-.9 15.7-2.8 16.1-5.7 25.3-20.6 27.6-44.8 2.3-24.1.7-53.8-12.9-85.9-13.6-32-35.7-54.2-59.8-64.9-23.5-10.4-56.7-13.2-97.9-13.2-1.1 0-102.7-.4-144.7-1.5-51.3-1.3-87.8-3.4-109.3-6.1-21.5-2.8-29.5-9.2-32-15.1C121.8 3.9 115 0 110.8 0z"/></svg>