<svg xmlns="http://www.w3.org/2000/svg" viewBox="-10 0 1376 1256"><path d="M520 1256V718H157q-80 0-123.5-30T-10 615q0-56 40-87.5T168 496q27 0 38 4.5t14 12q3 7.5 3 15.5-1 6 4 11t16.5 6q11.5 1 33.5 1h243V186q0-34 4-67.5t19-60Q558 32 590.5 16T680 0q58 0 90.5 17.5t47.5 46Q833 92 836.5 125t3.5 63v358h255q74 0 125.5 23t83.5 60q32 37 47 82t15 88q0 63-18.5 105.5t-47 64Q1272 990 1241 990q-28 0-47-17.5t-31-43q-12-25.5-18-48.5-5 25-14.5 50t-28.5 42q-19 17-55 17t-59.5-17.5Q964 955 950.5 929t-19-52q-5.5-26-5.5-44 0-30 8-59.5t18-52.5q-11-1-23-2t-26-1h-63v201h-79V718H600v538zm20-710h40V186q0-18 3-40t12.5-41.5Q605 85 625 72.5T680 60q47 0 68 18.5t26.5 47Q780 154 780 186v360h41V188q0-27-3-56.5t-16.5-55Q788 51 759.5 35T680 19q-50 0-78.5 14.5T560 72q-13 24-16.5 53.5T540 186zm60 0h161V186q0-26-4.5-51T735 94.5Q718 79 680 79q-37 0-54 18t-21.5 43.5Q600 166 600 186zM157 699h363V565H277q-29 0-42.5-2T211 551q-5-5-6.5-11.5T203 528q0-4-5-8t-30-4q-88 0-123.5 25T9 615q0 32 38.5 58T157 699zm383 0h40V565h-40zm507 271q29 0 45.5-16.5t25-42.5q8.5-26 11.5-53t5-48h21q0 33 10.5 70.5T1195 944q19 26 46 26 26 0 50.5-19t40-57q15.5-38 15.5-95 0-40-14-81.5t-44-76q-30-34.5-78-55.5t-116-21H840v134h63q56 0 95.5 12.5T1045 734l-15 12q-9-11-58-21-10 19-18 48t-8 60q0 15 4.5 38t16 46q11.5 23 31 38t49.5 15zM600 699h161V565H600zm180 0h41V565h-41zm0 201h41V718h-41zm-240 337h40V718h-40z" fill="currentColor"/></svg>