<svg xmlns="http://www.w3.org/2000/svg" viewBox="0 0 500.2 260.7"><path d="M290.9 0l-16.5 9.6c-56.7 69.5-102.2 129-136.5 178.4-23.3 12.8-40.3 23-50.8 30.5s-26.3 13.2-47.3 16.8c-26.5 1.8-39.8 6.2-39.8 13v9.6c-.5 2.7 20.4 3.4 62.4 2.1 22.4-5.9 39.3-7.4 50.8-4.5 11.4 3 20.8 4.5 28.1 4.5s13.2-1.9 17.5-5.8c4.3-3.9 7.7-15.9 9.9-36 0-5.5 19-26.9 57-64.2 38-37.3 59.7-65.5 65.2-84.7 0-5 7.1-11.4 21.3-19.2 5 0 16.5 9.8 34.3 29.5 34.8 42.1 58.4 72 71 89.9 12.6 17.8 14.3 29.4 5.1 34.7-9.1 5.3-18.3 12.4-27.4 21.3-9.1 8.9-18.8 12.9-28.8 12-20.1 3.2-30.2 8.5-30.2 15.8v6.9h70.7c19.7-10.5 35.8-13.2 48.4-7.9 12.6 5.3 22.3 7.9 29.2 7.9 10.5-1.4 15.8-5.7 15.8-13 0-7.8-3.7-16.7-11-26.8-11.4-18.3-25.8-50.4-43.2-96.4-17.4-46-46.4-79.3-87.1-99.8C335.1 8 316.8 0 304 0h-13.1z"/></svg>