<svg xmlns="http://www.w3.org/2000/svg" viewBox="-10 0 1132.071 889"><path d="M-10 889v-69q37-9 83.5-22t86.5-27.5q40-14.5 60-27.5 19-12 39-42.5t39-70q19-39.5 36-81t30-77.5q8-22 16-43t15-35q19-44 46.5-96.5T500 191q31-54 61-103.5T615 0h98q22 26 48.5 65.5T816 150q28 45 54 90.5t48 85q22 39.5 36 66.5 14 29 32 70t36.5 83.5q18.5 42.5 33 77T1076 672q15 36 25.5 75t20.5 69q1 18-12 39t-30 34h-64q-25 0-47-10t-38-10q-28 0-54.5 9.5T818 889H659v-69q37-8 82-21t84.5-27q39.5-14 59.5-27 18-11 25-21t7-20q0-14-17-43t-41-64q-24-35-47-68t-35-55q-9-16-24-44t-31.5-59Q705 340 692 314.5T674 277q-2 5-13 30t-28 62q-17 37-38 79.5T552 530q-10 17-31 46t-44.5 61.5Q453 670 433 695q-1 5-3 18t-2 27q0 12 5.5 35.5T443 816q-2 20-11 38t-31 35h-54q-26 0-47-10t-38-10q-28 0-54.5 9.5T149 889zm18-19l134-1q28 1 61-9t59-10q21 0 43 10t45 10h41q9-7 19.5-22t12.5-33q-2-5-5-19t-6-30q-3-16-3-26 0-13 2.5-28t4.5-25q20-25 44-57.5t44.5-62Q525 538 535 520q23-40 45.5-86t41-86q18.5-40 30-66t11.5-27h22q4 12 18.5 40.5T736 358q18 34 34 63t25 43q12 19 30.5 47.5T864 569q20 29 34.5 52t19.5 32q9 19 14.5 33.5T938 711q0 11-8.5 22.5T896 762q-19 12-57 26t-82 26.5Q713 827 677 836v34l134-1q28 1 61-9t59-10q21 0 43 10t45 10h51q28-19 32-55-7-25-19-63t-25-72q-6-15-21-50.5t-33.5-78.5Q985 508 967 467.5T936 401q-12-25-32-62.5t-45-81q-25-43.5-52.5-88t-54-84Q726 46 704 19h-78q-6 9-23.5 37t-42 68.5Q536 165 509 212.5T456.5 309Q431 358 412 401q-7 15-14 35t-16 43q-14 37-30.5 79.5t-35.5 83q-19 40.5-40.5 72T231 760q-18 12-57 26t-84 27.5Q45 827 8 836z" fill="currentColor"/></svg>