<svg xmlns="http://www.w3.org/2000/svg" viewBox="-10 0 1171.069 1156"><path d="M29 1156v-69q38-9 84-22t86-27.5q40-14.5 60-27.5 20-12 39.5-42.5t38.5-70q19-39.5 35.5-81T403 739q8-22 16-43t15-35q7-16 15-33l16-34-251-290q11-21 23.5-46.5t21-46Q267 191 267 182q0-23-22-46t-51.5-37.5Q164 84 140 84q-19 0-35 16t-30 32q-11 14-22.5 25T28 168q-17 0-27.5-8T-10 130q0-16 12-38t33-43q21-21 47.5-35T137 0q35 0 72 15.5T278 57q32 26 51.5 58.5T349 181q0 24-12 57t-23 55l192 223q25-47 53-94.5t53-88q25-40.5 42-66.5h98q22 26 48.5 65.5T855 417q28 45 54 90.5t48 85q22 39.5 36 66.5 14 29 32 70t36.5 83.5q18.5 42.5 33 77T1115 939q15 36 26 75t20 69q1 18-12.5 39t-29.5 34h-64q-26 0-47-10t-38-10q-28 0-54.5 9.5T858 1156H698v-69q37-8 82-21t84.5-27q39.5-14 59.5-27 18-11 25-21t7-20q0-14-17-43t-41-64q-24-35-47-68t-35-55q-9-16-24-44t-31.5-59q-16.5-31-30-56.5T713 544q-2 5-13 30t-28 62q-17 37-38 79.5T591 797q-10 17-30.5 46T516 904.5Q492 937 472 962q-1 5-3 18t-2 27q0 12 5.5 35.5T483 1083q-3 20-12 38t-31 35h-54q-25 0-47-10t-38-10q-28 0-54 9.5t-58 10.5zm446-581l22-41-206-238q12-22 25-55.5t13-59.5q0-30-18-58.5T264.5 71q-28.5-23-62-37T137 20q-33 0-62.5 20T27 86Q9 112 9 130t19 18q6 0 14-8.5T60 119q15-19 34-36.5T140 65q20 0 45 10t48 27.5q23 17.5 38 38t15 41.5q0 9-7.5 29.5t-18.5 45Q249 281 238 302q10 11 32.5 37.5T323 400q30 34 60 68.5t54.5 63Q462 560 475 575zM47 1137l134-1q28 1 61-9t59-10q21 0 43 10t45 10h41q9-7 20-22t12-33q-1-5-4.5-19t-6.5-30q-3-16-3-26 0-13 2.5-28t4.5-25q20-25 44-57.5t44.5-62Q564 805 574 787q23-40 45.5-86t41-86q18.5-40 30-66t11.5-27h22q5 12 19 40.5t32 62.5q18 34 34 63t25 43q12 19 30.5 47.5T903 836q20 29 35 52t19 32q9 19 14.5 33.5T977 978q0 11-8 22.5t-34 28.5q-18 12-56.5 26t-82.5 26.5q-44 12.5-80 21.5v34l134-1q28 1 61-9t59-10q21 0 43 10t45 10h51q28-19 32-55-8-25-19.5-63t-24.5-72q-6-15-21-50.5t-33.5-78.5q-18.5-43-36.5-83.5T975 668q-12-25-32-62.5t-45-81q-25-43.5-52.5-88t-54-84Q765 313 743 286h-78q-6 9-23.5 37t-42 68.5Q575 432 548 479.5T495.5 576Q470 625 451 668q-7 15-14 35t-16 43q-14 37-30.5 79.5t-35.5 83q-19 40.5-40.5 72T270 1027q-19 12-57.5 26t-83.5 27.5Q84 1094 47 1103z" fill="currentColor"/></svg>