<svg xmlns="http://www.w3.org/2000/svg" viewBox="-10 0 1133 890"><path d="M33 890q-17-13-30-34t-13-39q10-31 20.5-70T37 673q6-15 20.5-49.5t33-77q18.5-42.5 36.5-84t32-70.5q14-27 36-66.5t48-84.5q26-45 53.5-90.5t54-84.5Q377 27 399 0h98q24 38 54.5 87.5t61.5 104q31 54.5 58.5 107T718 394q7 15 15 35.5t16 42.5q14 36 30.5 78t35.5 81.5q19 39.5 38.5 70T893 744q20 13 60 27.5t86 27.5q46 13 84 22v69H963q-32-1-58.5-10.5T851 870q-17 0-38.5 10T766 890h-54q-22-18-31-35.5T669 817q4-18 9.5-41.5T684 740q0-13-1.5-26t-3.5-18q-20-25-43.5-57.5t-44-61.5Q571 548 561 531q-22-39-43.5-81.5T479 370q-17-37-28-62t-13-30q-4 12-17 37.5t-30 56q-17 30.5-32 58T335 474q-12 22-34.5 55t-47 68q-24.5 35-41 64.5T196 705q0 10 7 20t24 21q20 13 59.5 27t85 27q45.5 13 82.5 21v69H294q-31-1-58-10.5t-54-9.5q-17 0-38.5 10T97 890zm10-20h50q23 0 45.5-10t43.5-10q26 0 58.5 10t60.5 10h134v-34q-36-9-80-21.5t-82-26Q235 775 216 762q-25-17-33-28t-8-23q0-9 5.5-23.5T195 654q4-9 19-32t35-52.5q20-29.5 38.5-57.5t30.5-47q9-14 25-43.5t33.5-63.5q17.5-34 32-62t18.5-40h21q0 1 11.5 26.5t30.5 66q19 40.5 41.5 86.5t45.5 86q10 18 31 47.5t45 62q24 32.5 44 57.5 2 10 4.5 25t2.5 27q0 11-3 27t-6.5 30l-4.5 18q1 19 11.5 34t19.5 21h41q23 0 45.5-10t43.5-10q26 0 58.5 10t60.5 10h134v-34q-37-9-81.5-22t-83-27Q901 773 882 761q-23-15-44.5-46.5t-40.5-72q-19-40.5-36-83T730 479q-8-22-15.5-42T700 402q-19-43-44-92t-52.5-96.5q-27.5-47.5-52-88t-42-68.5Q492 29 486 20h-78q-22 27-48.5 66.5T306 170q-27 44-52.5 88T208 339.5Q188 377 176 401q-13 26-31 66.5t-36 84Q91 595 76 630t-21 51q-13 33-24.5 71T11 815q4 37 32 55z" fill="currentColor"/></svg>