<svg xmlns="http://www.w3.org/2000/svg" viewBox="0 0 361.6 594.5"><path d="M338.4 42.8l-.6 94c-25.8 14.5-78.2 13.4-114.9 49.6 3.6 35.8 10.9 66.1 10.4 91.1.5 37.6-7.1 78.6-20.7 123-15.4 41.7-19.3 54.2-24 94.3l13.1 52.4c0 16.4-8.8 24.5-26.4 24.5-.9 0-1.9 0-2.8-.1-12.8-2.7-28.8-3.9-46.1-3.9-25.6 0-54.1 2.5-79.5 6.3h-1.6c-14.4 0-21.8-6.1-22.2-12.6l29.6-3.3c52.4-5.4 56.6-29.9 96.8-57.6 9.1-14.9 11.3-28.5 16.3-63.4 8.2-90.1 11.8-145.7 10.9-204.6-2.7-7.2-4.1-33.7-4.1-41.4 0-10.9 5.4-24.7 16.3-41.5 43-57.4 119.6-76 149.5-106.8zM361.6 0c-69.2 46.1-164.8 98.8-188.4 133.5-14 13.6-21.1 31.9-21.1 55 0 7.7.9 34.6 2.7 42.7-2.3 170.8-4.2 214.4-21.1 251-46.1 37.5-38.4 54.1-83.9 56.3L0 546.6c0 28.5 14.7 46.6 44.2 47.9 32.7-6 57.6-10.3 74.6-10.3 6 0 11.1.5 15.1 1.7 15.4 4.5 45.5 6.8 61.8 6.8 17.2-.9 25.8-16.1 25.8-45.5-2.3-40.3-14.1-26.8-8.1-80.5 27.2-73.4 41.7-139 41.7-189.3 0-34.4-6.1-61.6-7-81.5 27.6-28.5 81.9-25.4 113.6-43.5L361.6 0z"/></svg>