<svg xmlns="http://www.w3.org/2000/svg" viewBox="-10 0 1076 1315"><path d="M-10 1315v-87q12-2 36-7.5t51-12.5q23-6 53.5-18t56.5-19q41-11 71.5-18t46.5-17q50-34 70.5-75.5T393 943q-1-12-1.5-36.5t-1-52Q390 827 390 804v-31q2-130 13-208t17-123q5-28 16-48t38-43L873 0l193 220-372 289q-42 33-44 74-1 41-5 114.5T631 852q-4 34-11 72t-13.5 73q-6.5 35-11 61.5T591 1096q0 8 3.5 31t9 51q5.5 28 10.5 52-3 20-11.5 44t-30.5 41h-89q-16 0-36.5-6.5T408 1296q-18-6-29-6-18 0-42 6t-49 12q-25 6-46 7zm18-20h237q18 1 43-5.5t49-12.5q24-6 42-6 14 0 33.5 6l39 12 35.5 6h75q9-6 19.5-27t12.5-39q-1-3-4.5-21t-7.5-41q-4-23-7-43t-3-28q0-20 8-58.5t17.5-88Q607 900 611 849q4-36 7.5-84.5t7-97.5q3.5-49 5.5-85 1-29 13.5-48.5T681 494q33-27 78-62.5t95-74q50-38.5 97.5-75T1037 217L871 27 487 365q-15 13-30.5 35.5T440 446q-4 50-16.5 134.5T409 774q0 8 .5 30.5t1 50q.5 27.5 1 52t.5 36.5q3 80-17.5 127.5T316 1153q-16 10-48 17t-75 19q-28 8-60 20.5T77 1228q-22 5-41 9.5T8 1244z" fill="currentColor"/></svg>