<svg xmlns="http://www.w3.org/2000/svg" viewBox="0 0 440.1 571.5"><path d="M371 0c-66.5 44.3-158.2 94.8-180.9 128.2-13.5 13.1-19.6 30.5-19.6 52.7 0 7.4.3 33.5 2.1 41.3-.1 5.4.1 8.3 0 13.4L2.1 132.3 0 135.4c15.8 48.5 38.2 94.9 68.2 138.5 26.1 38 60.4 65.4 101.3 83.7C167 413.4 163.1 442 153 464c-44.3 36.1-37.9 51.6-81.6 53.7L23.8 526c0 27.4 14.1 44.2 42.4 45.5 42.7-7.8 72-12.6 86.8-8.3 14.8 4.4 43.2 7.2 58.9 7.2 16.6-.9 24.8-16.1 24.8-44.4-2.2-38.8-14-25.9-8.3-77.5 8.5-22.8 14.8-44.1 20.7-65.1 24 5.4 46.5 8.3 66.1 8.3 35.5-.1 58.6 6.5 70.3 19.6 11.6 13.2 16.2 23 14.5 28.9-1.1 3.9-6.6 6.3-16.5 7.2-9.9.9-15.7 5.7-18.6 15.5-3.9 11.8 3.8 20.7 22.7 25.8 23.8 6.8 40.7-6.1 50.6-38.2 7.8-26.3-7.9-53.5-47.5-82.7l-123-74.4c.8-9.1 1-18.6 1-26.9 0-33.1-5.3-59.4-6.2-78.5 26.6-27.4 78-23.9 108.5-41.3V0zm-21.7 41.3l-1 89.9c-24.8 13.9-75.3 12.7-110.6 47.5 3.5 34.4 10.8 63.9 10.3 87.8.1 4.7-.8 9.7-1 14.5l-54.8-33c.1-8 1.2-16.8 1-24.8-2.6-7-3.1-31.9-3.1-39.3 0-10.5 5-24.2 15.5-40.3C247 88.3 320.6 71 349.3 41.3zM36.2 169.5l316.2 191.2c55.7 31.6 79.1 60.5 71.3 86.8-7.1 23.8-18.8 33.3-35.1 28.9-8-2.1-11.1-5.3-10.3-9.3 1.1-3.9 6.6-6.1 16.5-7.2 10-1.1 16.9-6.4 19.6-15.5 4.6-15.4-3.9-30.7-24.8-46.5-20.9-15.8-55.2-29-103.3-39.3-100.5-27-184.2-90.1-250.1-189.1zm1 19.6l3.1 1c54.5 89.2 138.9 150.5 252.2 184-121-15.8-206.2-77.6-255.3-185zm149.9 176.7c.3.1.7-.1 1 0 15.1 5.4 28.6 9.7 42.4 13.4-.6 2.1-1.4 4.1-2.1 6.2-14.8 40.1-19.2 51.3-23.8 89.9l13.4 50.6c0 16.6-9.2 24.6-27.9 23.8-30.5-6.5-80-4-120.9 2.1-14.8.4-23.3-5.9-23.8-12.4l28.9-3.1c50.4-5.1 54.4-28.1 93-54.8 8.7-14.4 10.7-27.4 15.5-61 2.1-21.5 2.8-36.6 4.3-54.7z"/></svg>