<svg xmlns="http://www.w3.org/2000/svg" viewBox="-10 0 1567 1310"><path d="M305 1310v-79q14-2 41-7.5t57-12.5q20-4 48-16t51-17q45-11 75-16t43-16q29-19 46.5-39.5t25-49.5q7.5-29 5.5-73-2-34-3.5-75.5T691 821q-93-29-184.5-73.5t-174.5-99q-83-54.5-152-114t-118-118Q13 358-10 306l7-12 683 232q-1-53-2-98t-1-73q0-33 5-58.5t20.5-51q15.5-25.5 45-58T825 110Q873 65 945 0l133 164q-65 57-104 91t-60 55q-21 21-29.5 37T872 384q7 27 14.5 55t14 66.5Q907 544 907 600l179 61q117 40 197 88.5t131 101q51 52.5 80 103.5t42.5 95.5q13.5 44.5 20.5 76.5l-158 15-187-287q-19 1-93.5 5T937 863q-14 0-26-1t-26-2q-6 42-11.5 85.5T863 1026q-5 37-8 62.5t-3 32.5q0 7 3 27t7.5 44.5q4.5 24.5 9.5 45.5-2 17-11.5 37t-28.5 35h-77q-14 0-37-5.5t-44-11q-21-5.5-31-5.5-24 0-57.5 10.5T524 1310zm581-716q-2-78-14-125.5T853 392q-6-31 20-65.5t72.5-75Q992 211 1047 163L942 30q-64 59-108 100.5T763 202q-27 30-41.5 54T702 304.5q-5 24.5-5 54.5 0 33 1 77.5t3 94.5zm525 526l122-11q-6-28-19.5-68t-41.5-87q-28-47-77-96t-126-95q-77-46-189-84-38-14-69-24.5t-65.5-21Q911 623 864.5 608t-114-36.5Q683 550 585 517t-235.5-80Q212 390 25 325q28 49 81.5 106T233 546.5Q306 605 392 658t178.5 94.5q92.5 41.5 186 66T937 843q60 0 115-1.5t99.5-4q44.5-2.5 70.5-4.5zM325 1290l193-1q16 0 39.5-5t46.5-10.5q23-5.5 39-5.5 12 0 34.5 5.5l45 11 35.5 5.5h65q8-6 17-22t11-32q-1-3-4-18.5t-6.5-35.5q-3.5-20-6-37t-2.5-24q0-11 5-52.5t12.5-97.5q7.5-56 15.5-112-74-9-154-32l6 156q2 70-16 111t-68 72q-14 9-48 14.5t-80 16.5q-24 6-53.5 17.5T401 1231q-25 5-45.5 10.5T325 1249z" fill="currentColor"/></svg>