<svg xmlns="http://www.w3.org/2000/svg" viewBox="-10 0 800 1294"><path d="M-10 1294v-92q13-1 41.5-5t63.5-12q31-8 69.5-26.5T237 1131q63-16 115-26.5t69-21.5q33-22 53-44.5t28.5-54Q511 953 508 902q-1-33-2-73t-3-83L466 0h324q-1 50-2.5 109T784 225.5q-2 57.5-3.5 103.5t-2.5 70q-1 24-3.5 62.5t-5.5 84q-3 45.5-7 90.5t-7 82.5q-3 37.5-5 58.5-5 47-8.5 96.5t-6 92.5q-2.5 43-4 72.5T730 1075q0 8 3.5 31t9 51q5.5 28 10.5 52-3 20-12 44t-31 41h-88q-13 0-34.5-4t-45-8.5q-23.5-4.5-43-8.5t-27.5-4q-19 0-53 6t-69 12q-35 6-56 7zm18-20h278q14 0 39.5-3.5t54.5-8.5q29-5 54-8.5t38-3.5q11 0 31.5 3.5t44 8.5q23.5 5 44.5 8.5t33 3.5h75q9-6 20-27t12-39q-1-3-4.5-21t-7.5-41q-4-23-7-43t-3-28q0-9 .5-39t2.5-73q2-43 6-92t10-97q4-46 9-101t9-109q4-54 7.5-98t4.5-68q1-24 2-68t3-98q2-54 3.5-109.5T770 20H486q1 21 3.5 75.5T496 227q4 77 8.5 166t9.5 180q5 91 9 172l5 156q2 54-6.5 90t-30 62q-21.5 26-59.5 49-11 7-40.5 14t-69 15q-39.5 8-83.5 20-34 9-72 27.5t-67 25.5q-65 14-92 14z" fill="currentColor"/></svg>