<svg xmlns="http://www.w3.org/2000/svg" viewBox="0 0 309.4 604"><path d="M295.6 0C278.5.6 253 .3 236 1.4c-9.1 2.6-7.5 12.8-7.4 20.2 2.4 142.7 4.7 285.3 7.1 428-37.8 28.9-75.3 58.3-113.4 86.9-21.3 13.9-45.9 22.5-70.8 27-14.7-.1-29.6-10.1-44-3.7-8.5 6.6-11.5 24.5-.1 30 28 15 61.3 14.9 91.8 9.1 27.4-4.7 55.2-7.4 82.7-11.3 18.9-1.6 39.2-5.2 56.7 4.4 14.5 6.4 31.1 17.2 47.2 9.3 12.7-7.9 20-22.7 23.1-37 2.6-18.6-10-35.1-9.8-53.6-1.4-20.2-3.7-40.4-4.6-60.7 1.1-146.6 6.8-450.4 1.1-450zM278 19.6c-1 144.9-2.1 289.8-3 434.7 2.1 23.5 3.3 47 6.1 70.4 1.6 12.5 9.8 24.2 8 37-3.2 10.6-11 28.5-24.9 20-16.4-6.3-32-17-50.3-15.8-33.4-.4-66.3 7.1-99.4 10.3-18.4 2.6-36.7 6.9-55.4 6.5 32.3-7.3 64.2-19.7 89.7-41.4 34.7-26.9 69.4-53.7 104-80.8 4.7-5.8-2.2-300.2-4.6-440.1 9.8-.1 19.8-.4 29.8-.8z"/></svg>