<svg xmlns="http://www.w3.org/2000/svg" viewBox="0 0 594.1 604.3"><path d="M357.5 0c-17.1.6-42.9 0-59.9 1-9.1 2.6-7.4 13.3-7.2 20.7 1.2 73.1 2.9 146 4.1 219.1-46.2 1.9-86.6 5.4-118.8 13.4-15.1-17.1-33-27.6-65.1-28.9-13.1-1.2-44.3.9-49.6 2.1-13.2 2.8-19.9 3.6-18.6 8.3 1.3 4.7 4.2 7.6 9.3 10.3 2.8 1.5 8.6 3.1 16.5 3.1 6.6 0 14.6-1 24.8-2.1 2.5-.3 4.9 0 7.2 0 13.9 0 24.7 5 32 16.5-19.8 6.2-37.3 9.3-52.7 9.3-14.9 0-27.5-2.6-38.2-8.3-13.9-7.4-24.3-11.4-31-11.4-3.9 0-6.8 1.7-8.3 4.1-6.3 7.6 2.6 17.6 25.8 31 15.7 6.2 31.7 9.3 49.6 9.3 15.9 0 33-2.4 50.6-7.2 25.2-5 55.9-7.2 90.9-7.2 11.7 0 23.4.5 36.2 1 9.1.4 26.2.7 39.3 1 .9 54.8 2.2 109.5 3.1 164.3-37.8 28.9-75.6 58.2-113.7 86.8-21.3 13.9-45.4 22.3-70.3 26.9-14.7-.1-30-9.5-44.4-3.1-8.5 6.6-11.4 24.5 0 30 28 15 61.5 14.1 92 8.3 27.4-4.7 55.1-6.4 82.7-10.3 18.9-1.6 39.4-5.4 56.8 4.1 14.5 6.4 31.4 17.2 47.5 9.3 12.7-7.9 19.6-22.9 22.7-37.2 2.6-18.6-9.5-35.2-9.3-53.7-1.4-20.2-4.3-40.7-5.2-61 .3-42.7 1.4-105.3 2.1-163.3 29.9.3 61.2 0 101.3 0 39.9 0 84.3.3 134.4 0V115.7l-87.8 1v128.2c-34.5-4-74.2-6.2-119.9-6.2-9.8 0-18.6-.1-27.9 0C359.9 114.3 361-.2 357.5 0zm-17.6 19.6c-.5 73.3-1.5 146.8-2.1 220.1-8 .1-16.1-.2-23.8 0-1.4-77.8-3.2-162.5-4.1-219.1 10-.3 20-.6 30-1zm226.3 113.7c2.6 0 5.4.7 8.3 1v128.2c-15.7-.9-30.7 1.1-45.5-5.2.9-25.5.4-52.9 0-82.7-.4-26.9 12.3-41.3 37.2-41.3zm-251.1 153c8.2.1 13.4-.1 22.7 0-.4 56.1-.7 112.4-1 168.5 2.1 23.5 3.5 46.9 6.2 70.3 1.6 12.5 10 24.4 8.3 37.2-3.2 10.6-10.9 28.1-24.8 19.6-16.4-6.3-32.3-16.7-50.6-15.5-33.4-.4-66.1 7.1-99.2 10.3-18.4 2.6-37.1 6.6-55.8 6.2 32.3-7.3 64.5-19.6 89.9-41.3 34.7-26.9 68.8-53.6 103.3-80.6 2.4-3 2.5-80.5 1-174.7z"/></svg>