<svg xmlns="http://www.w3.org/2000/svg" viewBox="-10 0 1452 1294"><path d="M174 1294v-91q13-1 42-5t64-13q30-8 68.5-26t72.5-27q63-17 115.5-27t69.5-22q33-22 53-44.5t28-53.5q8-31 6-82-2-33-3-73t-2-84l-7-81H417l-110 21H167l-99-43-78-75 32-46 89 61q11 7 38.5 16t49.5 14l116-9-3-20q-5 1-17 1.5l-24 1-16 .5q-10 0-29.5-2t-40.5-6q-21-4-33-9l12-56q5 1 20.5 3t34 3.5Q237 522 249 522q10 0 27.5-2t34-4q16.5-2 23.5-3l75 34 267-15L650 0h324q-1 50-2.5 109T968 225.5q-2 57.5-3 103.5t-2 70q-1 19-2.5 51t-3.5 72l267 3 12-9 26-410h158l22 519-30 40H948q-3 40-5 58.5t-4 28.5q-2 10-4 25-5 47-9 96.5t-6.5 92.5q-2.5 43-4 73t-1.5 37q0 8 3.5 31t9 51q5.5 28 10.5 52-3 19-12 43t-30 41h-89q-12 0-33.5-3.5t-45-8.5q-23.5-5-43-8.5T656 1270q-13 0-38.5 3.5T564 1282q-28 5-52 8.5t-34 3.5zm522-763l172-10 68 1q3-40 4.5-72.5T943 398q1-24 2.5-68t3.5-98.5q2-54.5 3.5-110T955 19H671zM170 667h136l108-22h988l21-29-20-490h-122l-26 402-20 17-368-4-466 24-73-32q-6 0-21 2t-31.5 4q-16.5 2-26.5 2-8 0-23.5-1t-30-2q-14.5-1-19.5-3l-4 21q19 7 45.5 9.5T255 568q5 0 20.5-.5T306 566q15-1 20-1l9 55-138 13q-25-6-55.5-16T99 599l-74-50-12 17 65 59zm23 608l278-1q14 0 39.5-3.5t54-8q28.5-4.5 53.5-8.5t38-4q11 0 31.5 4t44.5 8.5q24 4.5 45 8.5t33 4h75q9-7 19.5-27.5T917 1209q-1-4-4.5-21.5T905 1147q-4-23-7-43t-3-28q0-9 .5-39.5T898 963q2-43 5.5-92t9.5-96q2-4 6-30t7-80H701q2 50 3.5 66.5T707 745l5 157q2 53-6 89t-29.5 62q-21.5 26-60.5 50-11 6-40 13t-69 15.5q-40 8.5-84 19.5-33 9-71.5 27.5T285 1204q-32 7-56.5 11t-35.5 4z" fill="currentColor"/></svg>