<svg xmlns="http://www.w3.org/2000/svg" viewBox="0 0 526 237.2"><path d="M43 98.3l29.4 25.6c41.7-36.7 82.3-55.2 121.8-55.6 77.3 0 145 11 203 33.1l18.2-34.2c-60.5-27.1-126.3-40.6-197.1-40.6-70.9.1-129.3 24-175.3 71.7zm380.4 12.3c34.5 8.2 68.7 12.3 102.6 12.3v41.7h-18.7c-28.5 0-61.3 4.8-98.3 14.4-63 38.8-127.7 58.2-193.9 58.2-31 0-60.5-3.5-88.7-10.4-28.2-7-67.4-9.9-117.6-8.8-6.1 0-9-9.2-8.8-27.5.2-18.3 3.7-27.5 10.4-27.5 15.7-2.5 28.5-8.7 38.5-18.7l-46-43.9C62.1 33.5 134.6 0 220.6 0s163 19.1 231.1 57.2l-28.3 52.4v1zm-265 46.5c0 32.8 19.1 49.3 57.2 49.7 37 0 55.9-16.6 56.6-49.7 0-23.9-4.5-40-13.6-48.3-9.1-8.4-23.4-12.6-43-12.6-19.2 0-33.6 4.2-43 12.6-9.5 8.3-14.2 24.4-14.2 48.3zm129.3-53.5c8.2 17.8 12.3 35.3 12.3 52.4 0 16.7-5.5 33.3-16.6 49.7 55.2-15.3 98.8-35.6 130.9-60.9v-1.1c-32.4-18.5-74.6-31.9-126.6-40.1zm-241.5 77v6.4l104.2 18.2c-12.1-13.9-18.2-29.9-18.2-48.1 0-16.4 3.7-31.9 11.2-46.5-17 3.9-49.5 27.2-97.2 70z"/></svg>