<svg xmlns="http://www.w3.org/2000/svg" viewBox="-10 0 1125 457"><path d="M533 457q-28 0-72-6t-95.5-15q-51.5-9-103-19.5t-97-20.5Q120 386 89 378.5T48 369q-15 14-27 25T4 410l-14-14q20-20 54-49t77.5-60.5Q165 255 213 228l-74-95q47-26 101.5-57T364 22.5Q433 0 524 0q89 0 160 19t125 47q54 28 91.5 56t58.5 45l19 16-64 83q11 7 22.5 15t22.5 16q44 30 82.5 53.5T1115 381l-4 20q-24-4-49-17t-52-30q-6 2-35 10t-72.5 19.5Q859 395 807.5 408T704 432q-52 11-96.5 18t-74.5 7zm365-202l53-69-5-4q-22-18-59.5-45.5T796 82q-53-27-121-45T524 19q-61 0-114.5 13.5t-98 33.5q-44.5 20-80 41T171 142l60 76q66-37 141.5-63T526 129q77 0 143 18.5t123 47Q849 223 898 255zM526 436q39 0 71.5-19.5t52-51.5q19.5-32 19.5-71t-19.5-71.5q-19.5-32.5-52-52T526 151q-39 0-71.5 19.5t-52 52Q383 255 383 294t19.5 71q19.5 32 52 51.5T526 436zm88-6q50-8 108.5-21T836 381.5q55-14.5 96-25.5t57-16l-41-27q-45-30-96-62.5t-111-58Q681 167 610 156q35 21 56.5 57.5T688 294q0 43-20.5 78.5T614 430zm-178-1q-32-22-52-57.5T364 294q0-43 20-78.5t53-56.5q-76 15-145.5 49t-127 73.5Q107 321 67 353q15 4 54.5 13t93.5 21q54 12 112 23t109 19z" fill="currentColor"/></svg>