<svg xmlns="http://www.w3.org/2000/svg" viewBox="0 0 512.7 600.1"><path d="M402.1 0c-28.4 0-56.2 1.2-77.5 11.4-9.7 4.7-17.7 11.5-23.8 20.7V28c0-6.9-20.7-6.9-20.7 0v28.9c-.7-.6-1.5-1.9-2.1-3.1-3.8-7.6-10.1-11.4-14.5-13.4s-7.2-2.6-8.3-3.1c-4.9-2.4-11.3-3.1-16.5-2.1-5.2 1.1-8.7 3.9-11.4 6.2-5.4 4.5-9.5 9.5-7.2 7.2-4.8 4.8-5.7 8.7-6.2 12.4-.5 3.7-.2 7.5 0 10.3.5 5.8 1.4 10.9 2.1 13.4-.1.1.1.9 0 1h-1c-3.3-.4-6.4-1.9-7.2-2.1-7.4-1.9-15.7-4.8-22.7-8.3-5.5-2.7-12.2-5.3-20.7-4.1-4.2.6-8.3 2.7-12.4 7.2s-6.2 11.3-6.2 16.5c0 12.4 3.5 20.5 6.2 25.8 2.4 4.9 3.3 8.6 5.2 12.4-3.4-.2-6.7-.9-7.2-1-6.9-1.7-18.7-5.5-25.8-7.2-6.7-1.7-16.8 3-20.7 8.3-3.8 5.2-4.8 9.9-5.2 13.4-.8 7.1-.2 10.7 1 15.5 2.3 9.3 5.3 16.2 7.2 19.6-4.7 0-9.3-1-12.4-1-8.2 0-16.2 2.5-21.7 6.2s-7.8 6.8-9.3 8.3c-6 6-6.5 14.9-5.2 19.6 1.4 4.7 3.4 7.8 5.2 10.3 3.6 5 8.9 9.9 8.3 9.3 2.2 2.2 3.2 3.5 5.2 5.2-4.4 1.3-9.6 2.1-11.4 3.1-2.7 1.6-2.1 1-2.1 1-16.6 0-24.7 13.3-24.8 13.4-3.8 3.8-7.2 10.2-7.2 16.5s2.7 11.3 5.2 14.5c5 6.3 9.6 8.9 12.4 10.3 1.5.8 3.6 3.5 5.2 5.2-4.2 1.1-7.6.5-12.4 2.1-4.8 1.6-10.2 5.1-14.5 9.3-1.5 1.5-.7-.6-7.2 5.2-3.2 2.9-6.4 8.6-7.2 12.4-.8 3.8-1 6.3-1 10.3 0 11.9 6.9 15.4 10.3 18.6 3.5 3.2 7 5.9 6.2 5.2 3.9 3.9 6.3 7.3 9.3 10.3-11.1 2.8-18.6 9.3-23.8 14.5-2.8 2.8-6.2 5.2-9.3 11.4-3.1 6.2-2.5 13.8-1 19.6 2.1 8.3 5 9.5 7.2 11.4 2.2 1.9 4.3 2.9 6.2 4.1 1.9 1.3 3.9 2.3 5.2 3.1 6.1 6.1 8.2 6.5 10.3 7.2-2.3.8-5.1 2.1-9.3 4.1-4.8 2.4-10.1 3.5-14.5 9.3-4.3 5.8-4 10.9-5.2 15.5-1.4 5.4-2.2 10.2-1 16.5 1.1 6.3 4.6 11.8 8.3 15.5 4.4 4.4 8.7 6.8 11.4 8.3 2.3 1.3 3.4 2.5 4.1 3.1-5.5 2.6-12 5.5-13.4 6.2C4.2 531-.5 544 .2 551.6c.7 7.6 3 11.2 4.1 13.4 3.3 6.6 8.2 10.2 11.4 12.4 3.2 2.2 4.8 3.7 4.1 3.1 3.4 3.4 4.4 4.4 7.2 8.3 5.6 7 15.7 7.7 22.7 2.1s8.7-15.7 3.1-22.7c-2.3-3.1-4.5-5.6-9.3-10.3-3.3-3.3-5.4-5.1-7.2-6.2 1-.6 3.5-1.9 4.1-2.1 2.4-.6 7.5-1.7 13.4-5.2 2.9-1.7 6.3-4.2 9.3-9.3 3-5.1 2.9-14.9 0-20.7-2.2-4.4-4.6-6.7-7.2-9.3l-6.2-6.2c-4.4-4.4-8.7-7.9-11.4-9.3-2-1.1-3.3-1.4-4.1-2.1 0-.1-.6-.5 0-3.1.4-1.6.7-2.4 1-3.1.5-.4.7-.4 2.1-1 .9-.5 4.8-1.3 9.3-3.1 4.5-1.8 11.2-4.8 15.5-13.4 1.6-3.1 3.4-6.9 4.1-13.4.8-6.4-1.1-16.4-7.2-22.5-8.6-8.6-14-10.9-13.4-10.3-3.5-3.5-4.7-3.2-6.2-4.1-.4-.3-.6-.8-1-1 2.1-1.7 5.8-3.8 7.2-4.1 5.8-1.4 18.4-2.6 25.8-17.6 1.2-2.4 2.2-4.7 3.1-8.3.9-3.6 1.2-10.1-1-14.5-4.4-8.7-7.6-8.7-10.3-11.4l-11.4-11.4c-2.5-2.5-3.8-3.1-5.2-4.1 1.7-1.3 1.1 0 3.1-2.1 1.8-1.8 1.2-1.8 2.1-2.1.9-.3 3.8-.7 9.3-2.1-2.4.6 3.6 0 9.3-1 2.9-.5 6.1-1.6 10.3-4.1s10.3-10 10.3-17.6c0-10.4-4.4-20.9-11.4-27.9-1.6-1.6-7.3-5.9-11.4-9.3 5.3-1.2 11.4-2.9 13.4-4.1 1.4-.8 2.1-1 2.1-1 4.1-.1 8.3-1.1 13.4-2.1 2.7-.5 4.1-.9 7.2-2.1 1.6-.6 4-1.5 6.2-3.1s5.7-3.2 7.2-9.3c.3-1.4.6-2.8 1-5.2.4-2.4.3-7.6-1-11.4-2.7-7.6-5.9-9-9.3-12.4-4.9-4.9-8.1-8.5-11.4-11.4 2.5.1 6 1.1 11.4 1 3.4 0 6.9-.6 10.3-1 1.7-.2 3.8-.3 6.2-1 2.4-.8 7.3-.2 11.4-8.3 3.3-6.6 8.2-19.8 1-34.1-1.6-3.1-2.8-5.6-4.1-8.3 2.8.7 6.1 1.5 8.3 2.1 3.7.9 8.5 1.7 14.5 2.1 3 .2 5.7.4 9.3 0s7.8-.6 13.4-6.2c-.3.3 5.5-3.2 9.3-9.3 3.8-6.1 5.7-17.6 1-26.9-2.4-4.8-4.6-9.3-7.2-14.5 5.6 2.3 11.6 4.7 17.6 6.2 3.3.8 8.3 2.6 14.5 3.1 3.1.2 6.4-.5 10.3-1 4-.6 10.8-.9 15.5-10.3.3-.6 2.4-2 5.2-7.2 2.7-5.2 5.1-14.6 3.1-22.7-.4-1.7-.8-5.6-1-8.3 1.2.5 3.5 1.8 4.1 2.1 4.8 8.6 12.1 16.7 22.7 19.6 2 .6 4.2.2 6.2 0V124c0 6.9 20.7 6.9 20.7 0v-5.2c6.1 9.6 14 17 23.8 21.7 14.4 7 34.2 7.3 52.7 8.3 1.6 98.9 3.5 197.7 5.2 296.6-37.8 28.9-75.6 58.2-113.7 86.8-21.3 13.9-46.5 22.3-71.3 26.9-14.7-.1-29-9.5-43.4-3.1-8.5 6.6-11.4 24.5 0 30 28 15 61.5 14.1 92 8.3 27.4-4.7 55.1-6.4 82.7-10.3 18.9-1.6 38.4-5.4 55.8 4.1 14.5 6.4 31.4 17.2 47.5 9.3 12.7-7.9 20.7-22.9 23.8-37.2 2.6-18.6-10.6-35.2-10.3-53.7-1.4-20.2-3.2-40.7-4.1-61 .7-97.7 1-199 1-299.7 11.8-1.8 25.3-1.3 35.1-6.2 21.2-10.5 35.1-32.3 35.1-64.1 0-32.3-13.9-53.7-35.1-64.1C456.3 1 430.6 0 402.1 0zm0 19.6c27.8 0 50.5 1.7 66.1 9.3C483.9 36.5 494 48 494 75.4c0 26.7-10.1 38.7-25.8 46.5-15.7 7.8-38.5 10.3-66.1 10.3-27.8 0-52.6-2.7-68.2-10.3-15.7-7.6-23.8-19.1-23.8-46.5 0-28.1 8.2-39 23.8-46.5 15.6-7.4 40.4-9.3 68.2-9.3zm21.7 129.2l-2.1 301.8c2.1 23.5 2.4 46.9 5.2 70.3 1.6 12.5 10 24.4 8.3 37.2-3.2 10.6-10.9 28.1-24.8 19.6-16.4-6.3-32.3-16.7-50.6-15.5-33.4-.4-66.1 7.1-99.2 10.3-18.4 2.6-36.1 6.6-54.8 6.2 32.3-7.3 63.4-19.6 88.9-41.3 34.7-26.9 69.8-53.6 104.4-80.6 3.3-4-.6-171.9-3.1-305.9 2.3 0 3.9 1 6.2 1 8.1 0 13.9-2.6 21.6-3.1z"/></svg>