<svg xmlns="http://www.w3.org/2000/svg" viewBox="-10 0 1523 1308"><path d="M1426 1308q-49 0-74.5-29.5T1326 1194q0-14 2-29t4-31l4-28 2-25q0-22-18.5-37t-52.5-15h-94v78h-61v-78H779v78h-61v-78H385v78h-61v-78H96v-83h228V147q-37 20-62 61.5T229 317q-4 35-13.5 77T190 473.5Q174 511 149 535t-61 24q-47 0-72.5-35T-10 434q0-26 9.5-68.5t32-90Q54 228 92.5 183t95.5-77.5Q245 73 324 62V0h61v410q4-31 16.5-72t36.5-85q24-44 61.5-84t91.5-68.5Q645 72 718 62V0h61v410q4-31 16.5-72t36.5-85q24-44 61.5-84t91.5-68.5Q1039 72 1112 62V0h61v946h111q58 0 98.5 19.5t66 50q25.5 30.5 39.5 64.5t19.5 64.5q5.5 30.5 5.5 48.5 0 46-19 80.5t-68 34.5zM88 540q31 0 52.5-24t35.5-60q14-36 21.5-74t11.5-65q18-144 115-192V81q-73 9-126.5 40t-90 73.5Q71 237 49.5 283t-31 86Q9 409 9 434q0 46 21 76t58 30zm394 0q31 0 53-24t35.5-60q13.5-36 21-74t11.5-65q18-144 115-192V81q-73 9-126.5 40t-90 73.5Q465 237 443.5 283t-31 86q-9.5 40-9.5 65 0 46 21 76t58 30zm394 0q31 0 53-24t35.5-60q13.5-36 21-74t11.5-65q18-144 115-192V81q-73 9-126.5 40t-90 73.5Q859 237 837.5 283t-31 86q-9.5 40-9.5 65 0 46 21 76t58 30zM385 946h333V147q-36 20-61.5 61.5T623 317q-4 35-13.5 77T584 473.5Q568 511 543 535t-61 24q-41 0-66-27.5T385 459zm394 0h333V147q-36 20-61.5 61.5T1017 317q-4 35-13.5 77T978 473.5Q962 511 937 535t-61 24q-41 0-66-27.5T779 459zm647 342q37 0 52.5-28.5t15.5-66.5q0-16-5-44t-18-59.5q-13-31.5-36.5-59.5t-60.5-46q-37-18-90-18H115v44h1152q44 0 67.5 20.5t23.5 50.5q0 13-2 27.5t-4 28.5q-2 16-4.5 31t-2.5 26q0 45 21 69.5t60 24.5z" fill="currentColor"/></svg>