<svg xmlns="http://www.w3.org/2000/svg" viewBox="0 0 583.3 420.7"><path d="M420.7 262.1V18.7h-31.3v243.5h31.3zm139.2 139.2c10.4-17.7 2.4-39.8-24.1-66.3-16.1-13.3-22.5-9.6-19.3 10.8 8.1 37.1 22.5 55.5 43.4 55.5zM273.1 262.1V18.7h-30.7v243.5h30.7zm169.3 21.1H71.2v31.9h370.6c15.3-.4 22.9-5.8 22.9-16.3 0-10.3-7.4-15.6-22.3-15.6zm-320-21.1V18.7H91.7v243.5h30.7zM77.2 73.5c-14.5-10.8-26.5-12.9-36.2-6-9.6 6.8-16.5 16.3-20.5 28.3-4 12.1-3.3 20.4 2.1 25 5.4 4.6 13.7 2 24.7-7.8s21.1-23 29.9-39.5zm150.7 0c-14.1-10.8-25.9-12.8-35.6-5.7-9.6 7-16.6 16.6-20.8 28.6-4.2 12.1-3.5 20.3 2.1 24.7 5.6 4.4 14 1.8 25-7.8s20.8-22.9 29.3-39.8zm0 26.5c-13.3 20.5-29.1 34.6-47.6 42.2-14.1 0-23.5-6.8-28.3-20.5-3.6-15.7.6-31.5 12.7-47.6 20.9-27.7 42-35 63.3-21.7V0h58.5v262.1h88.6V100c-13.3 20.5-28.9 34.6-47 42.2-14.1.4-23.5-6.4-28.3-20.5-3.6-15.7.4-31.5 12.1-47.6 21.3-27.7 42.4-35 63.3-21.7V0H434v262.1h41.6c5.2 16.5 14.7 27.3 28.3 32.5l41 19.3c30.9 27.7 43.2 57 36.8 88-6 14.9-17.1 20.9-33.1 18.1-29.3-10.8-47.8-36.6-55.4-77.1l-.6-9.6h-59.1v40.4H375v-39.8h-88.6v39.8h-58.5v-39.2h-92.2v36.8H76.6v-35H45.3v-74.1h31.3V100.6c-13.3 19.7-28.9 33.3-47 41-14.1.4-23.5-6.4-28.3-20.5-3.6-15.7.4-31.7 12.1-48.2C34.6 46 55.7 39.2 76.6 52.4V0h59.1v262.1h92.2V100zm147.6-26.5C361 62.7 349 60.8 339.4 67.8c-9.6 7-16.5 16.6-20.5 28.6-4 12.1-3.3 20.4 2.1 25 5.4 4.6 13.8 2 25-7.8s21.1-23.2 29.5-40.1z"/></svg>