<svg xmlns="http://www.w3.org/2000/svg" viewBox="0 0 586.6 459.7"><path d="M561.1 438.1c11.8-18.9 3.3-42.8-25.7-71.7-17.5-14.9-24.6-11.2-21 11.2 8.7 40.3 24.3 60.5 46.7 60.5zm-127.6-129H27.6V344h404.5c17.1 0 25.7-5.9 25.7-17.8 0-11.4-8.1-17.1-24.3-17.1zM98 80.9c9.6 18 20.6 32.2 32.9 42.8 12.3 10.5 21.4 13.3 27.3 8.2 5.9-5 6.6-14.1 2-27.3-4.6-13.2-12.2-23.4-22.7-30.6-10.6-7.2-23.7-4.9-39.5 6.9zM82.9 286.8V21H48.7v265.7h34.2zM262.4 80.9c9.6 18 20.6 32.2 32.9 42.8 12.3 10.5 21.4 13.3 27.3 8.2 5.9-5 6.6-14.1 2-27.3-4.6-13.2-12.2-23.4-22.7-30.6-10.5-7.2-23.7-4.9-39.5 6.9zm-15.1 205.9V21h-33.5v265.7h33.5zm221.7 0c5.7 17.5 16 29.2 30.9 34.9l45.4 21.7c33.3 30.3 46.5 62 39.5 95.4-6.6 16.2-18.4 23-35.5 20.4-32-11.8-52.2-40.1-60.5-84.9l-1.3-7.2H0v-80.2h34.2V0h64.5v57.9c23.2-14.5 46.3-7.2 69.1 21.7 12.7 17.5 17.1 35.1 13.2 52.6-4.8 15.3-15.1 22.8-30.9 22.4-19.7-7.9-36.8-22.6-51.3-44.1v176.3h100V0h64.5v57.9c23.2-14.5 46.3-7 69.1 22.4 13.2 17.5 17.5 35.1 13.2 52.6-4.8 14.9-14.9 22.4-30.3 22.4-19.7-8.3-37.1-23.2-52-44.7v176.3H360V0h64.5v57.9c23.2-14.5 46.3-7 69.1 22.4 13.2 17.5 17.5 35.1 13.2 52.6-4.8 15.3-14.9 22.8-30.3 22.4-19.7-8.3-37.1-23.2-52-44.7v176.3H469zM423.6 80.9c9.6 18 20.6 32.3 32.9 43.1 12.3 10.7 21.4 13.5 27.3 8.2 5.9-5.3 6.6-14.4 2-27.3s-12.2-23.1-22.7-30.6c-10.6-7.4-23.7-5.2-39.5 6.6zm-15.1 205.9V21H375v265.7h33.5z"/></svg>