<svg xmlns="http://www.w3.org/2000/svg" viewBox="-10 0 1463 1308"><path d="M1366 1308q-49 0-74.5-26.5T1266 1209q0-23 6-46t6-47q0-23-18.5-38t-52.5-15H184v-63h219V296q-77-21-184.5-35T-10 240V78q84-2 208.5-18.5T464 0v1000h647V297q-76-22-184-35t-229-21V79q85-2 209.5-19T1173 0v1000h51q73 0 118 22t69 54.5q24 32.5 33 65.5t9 55q0 28-8 53t-27 41.5q-19 16.5-52 16.5zM403 275V39q-58 16-128.5 29t-140 21Q65 97 9 98v123q116 7 215.5 21T403 275zm708 1V40q-58 17-128.5 29T843 89q-69 8-125 9v123q115 8 215 22t178 33zm255 1012q25 0 40-14t21.5-34.5q6.5-20.5 6.5-42.5 0-21-8-50.5t-30-59q-22-29.5-63.5-49T1224 1019H204v25h1003q44 0 67 21t23 51q0 23-6 46t-6 47q0 79 81 79z" fill="currentColor"/></svg>