<svg xmlns="http://www.w3.org/2000/svg" viewBox="0 0 573.9 551.6"><path d="M131 30.5c-26.5 4.6-57 8.1-91.6 10.7-4.6 6.6-4.6 13.2 0 19.9C74 64.2 104.6 67.5 131 71V30.5zm363.5 397.1c2 37.7 5.9 62.2 11.5 73.7s12.3 18.5 20.2 21c7.9 2.5 13.5 0 16.8-7.6 3.3-7.6 2.8-17.4-1.5-29.4-4.4-12-20.1-31.2-47-57.7zm-90.2-32V106.1c-28-11.7-70-21.9-126-30.5-5.6-16.8-5.6-33.1 0-48.9C334.3 18 386.5 9.1 434.8 0v395.6H467c34.1 0 64 21.4 89.7 64.1 25.7 42.8 22.5 71.5-9.5 86.3-47.3 21.4-74.1-18.1-80.2-118.4H97.4c-6.1 0-9.4-5.3-9.9-16 .5-10.2 3.8-15.5 9.9-16h32.8V106.1c-28.5-11.7-70.5-21.9-126-30.5-5.6-16.8-5.6-33.3 0-49.6 56-8.1 108.2-16.8 156.5-26v395.6h243.6zm.8-365.1c-26.5 4.6-57 8.1-91.6 10.7-4.6 6.6-4.6 13.2 0 19.9 34.6 3.1 65.2 6.4 91.6 9.9V30.5z"/></svg>