<svg xmlns="http://www.w3.org/2000/svg" viewBox="-10 0 1488 576"><path d="M834 576q-26 0-76.5-10T645 539.5Q583 523 518.5 504T399 468q4-20 16.5-42.5T451 388q23-15 56-15t81.5 10q48.5 10 95.5 21 39 9 73 16t54 7q28 0 66-12.5t64-24.5q-14-12-44-33t-74.5-43q-44.5-22-101-37.5T599 261q-57 0-119.5 19.5t-123 50Q296 361 243 397t-91 69L-10 281q9-8 43-39t90.5-71.5Q180 130 256.5 91t170-65Q520 0 628 0q89 0 163 19t133 45.5Q983 91 1028 115q15 7 27 14t29 14q27 13 74 28t103.5 29q56.5 14 113 23t103.5 9v216h-54q-17 0-53.5 8t-82 20q-45.5 12-89.5 24-65 18-133.5 35.5t-129 29Q876 576 834 576zm0-19q42 0 101.5-11.5T1062 516q67-18 132-36 76-21 138.5-36t91.5-15h35V251q-46 0-101-9t-110-23.5q-55-14.5-100.5-30T1075 161q-12-6-26-13.5t-30-15.5q-44-24-101-50T789 37.5Q717 19 628 19q-96 0-182 22T288 97q-72 34-127.5 71.5t-92.5 68Q31 267 17 282l137 156q16-12 48-35.5t77-51q45-27.5 97.5-52.5T486 258q57-16 113-16 60 0 116 14.5T820.5 294q49.5 23 88.5 49.5t64 50.5q-20 12-47.5 24t-58 20.5Q837 447 811 447q-20 0-56-7.5T679 422q-45-10-92.5-20T507 392q-37 0-57.5 22T424 457q16 5 54 16.5t88.5 25.5Q617 513 669 526.5t96 22q44 8.5 69 8.5z" fill="currentColor"/></svg>