<svg xmlns="http://www.w3.org/2000/svg" viewBox="-10 0 531 1106"><path d="M334 1106q-32 0-70.5-11t-73-36.5q-34.5-25.5-57-69.5T111 878q0-57 22-125.5T183 624l42-90q24-52 41-95.5t17-71.5q0-52-29.5-83.5T159 252h-47q-55 0-88.5-12.5T-10 187q0-22 17-53.5t49.5-62q32.5-30.5 80-51T245 0q58 0 108 22t88 61q38 39 59 90.5T521 283q0 70-28.5 134.5T422 538l-94 125q-38 50-64.5 98.5T237 858q0 39 13.5 65t26.5 36q5-9 19.5-27.5T336 897q25-16 62-16 46 0 71 25.5t25 61.5q0 34-17 65.5t-52.5 52Q389 1106 334 1106zm0-20q49 0 80-17.5t45.5-44.5q14.5-27 14.5-56 0-28-20-47.5T398 901q-27 0-49 13t-38 32.5Q295 966 286 984q-22-7-45-38t-23-88q0-51 28.5-103.5T313 651l93-125q41-54 68.5-115T502 283q0-72-34.5-132T375 55.5Q317 20 245 20q-57 0-100.5 18t-74 45.5Q40 111 24.5 139T9 187q0 28 28 37t75 9h47q76 0 109.5 36.5T302 367q0 31-18 77t-41 97l-42 90q-28 62-49 125.5T131 878q0 61 20.5 101t52 63.5Q235 1066 270 1076t64 10z" fill="currentColor"/></svg>