<svg xmlns="http://www.w3.org/2000/svg" viewBox="-10 0 1656 881"><path d="M31 881l-41-34 155-188-47-41 8-109 43-19q-23-8-33-29t-7-47l97 29 109 9 1 1 139-169 42 34-138 167 77 54 379 5 209 18q11-2 20-5.5t20-5.5l283-419q10-15 27-37t39-43.5q22-21.5 47-36.5t50-15q35 0 66 10.5t50.5 31Q1646 62 1646 93q0 19-11 44t-37 64.5q-26 39.5-70 100T1418 452q-44 60-90.5 118T1240 676q-41 48-68 78l-72 16-692-84-104 26-110-29zm1071-131q4 1 24-3.5t38-9.5q25-29 65-76.5t86-105.5q46-58 90-119 64-88 107-146.5t68-96q25-37.5 35.5-60.5t10.5-40q0-36-35.5-55T1510 19q-22 0-44.5 14T1423 68q-20 21-35.5 41.5T1363 143l-286 425-53 14-211-18-387-5-124-90-99-7-76-24q0 16 12 27t29 17q17 6 33 9t23 4q7 1 22.5 2.5T274 500l-1 15q-12-1-28-3t-25-3q-7-1-25-3.5t-25-6.5l-44 19-7 90 55 48 130 36 103-26zM343 473l126-152-4-4-7-5-126 153zM28 853l145-175-9-2-4-4L17 844q2 2 4.5 4t6.5 5z" fill="currentColor"/></svg>