<svg xmlns="http://www.w3.org/2000/svg" viewBox="-10 0 834 836"><path d="M171 364q-50 0-91-24.5t-65.5-66Q-10 232-10 182q0-51 24.5-92T80 24.5Q121 0 171 0t92 24.5Q305 49 329.5 90t24.5 92q0 50-24.5 91.5t-66.5 66Q221 364 171 364zm472 0q-50 0-91.5-24.5t-66-66Q461 232 461 182q0-51 24.5-92t66-65.5Q593 0 643 0t91 24.5Q775 49 799.5 90t24.5 92q0 50-24.5 91.5t-65.5 66Q693 364 643 364zm-472-51q36 0 66-17.5t48-47q18-29.5 18-66.5t-18-66.5q-18-29.5-48-47T171 51q-36 0-66 17.5t-47.5 47Q40 145 40 182t17.5 66.5Q75 278 105 295.5t66 17.5zm472 0q36 0 66-17.5t47.5-47Q774 219 774 182t-17.5-66.5Q739 86 709 68.5T643 51q-36 0-66 17.5t-48 47Q511 145 511 182t18 66.5q18 29.5 48 47t66 17.5zM407 836q-50 0-91.5-24.5t-66-66Q225 704 225 654t24.5-91.5q24.5-41.5 66-66T407 472q50 0 91.5 24.5t66 66Q589 604 589 654t-24.5 91.5q-24.5 41.5-66 66T407 836zm0-51q36 0 66-18t47.5-47.5Q538 690 538 654q0-37-17.5-66.5T473 540q-30-18-66-18t-66 18q-30 18-48 47.5T275 654q0 36 18 65.5t48 47.5q30 18 66 18z" fill="currentColor"/></svg>