<svg xmlns="http://www.w3.org/2000/svg" viewBox="-10 0 1776 836"><path d="M1584 364q-51 0-92-24.5t-65.5-66Q1402 232 1402 182q0-51 24.5-92t65.5-65.5Q1533 0 1584 0q50 0 91.5 24.5t66 65.5q24.5 41 24.5 92 0 50-24.5 91.5t-66 66Q1634 364 1584 364zm-1413 0q-50 0-91-24.5t-65.5-66Q-10 232-10 182q0-51 24.5-92T80 24.5Q121 0 171 0t92 24.5Q305 49 329.5 90t24.5 92q0 50-24.5 91.5t-66.5 66Q221 364 171 364zm471 0q-50 0-91-24.5t-65.5-66Q461 232 461 182q0-51 24.5-92T551 24.5Q592 0 642 0q51 0 92 24.5T799.5 90q24.5 41 24.5 92 0 50-24.5 91.5t-65.5 66Q693 364 642 364zm471 0q-50 0-91.5-24.5t-66-66Q931 232 931 182q0-51 24.5-92t66-65.5Q1063 0 1113 0t91.5 24.5q41.5 24.5 66 65.5t24.5 92q0 50-24.5 91.5t-66 66Q1163 364 1113 364zm-942-51q36 0 66-17.5t48-47q18-29.5 18-66.5t-18-66.5q-18-29.5-48-47T171 51q-36 0-66 17.5t-47.5 47Q40 145 40 182t17.5 66.5Q75 278 105 295.5t66 17.5zm471 0q37 0 66.5-17.5t47.5-47q18-29.5 18-66.5t-18-66.5q-18-29.5-47.5-47T642 51q-37 0-66.5 17.5t-47 47Q511 145 511 182t17.5 66.5q17.5 29.5 47 47T642 313zm471 0q36 0 66-17.5t48-47q18-29.5 18-66.5t-18-66.5q-18-29.5-48-47T1113 51q-36 0-66 17.5t-47.5 47Q982 145 982 182t17.5 66.5q17.5 29.5 47.5 47t66 17.5zm471 0q37 0 66.5-17.5t47-47Q1715 219 1715 182t-17.5-66.5q-17.5-29.5-47-47T1584 51q-37 0-66.5 17.5t-47 47Q1453 145 1453 182t17.5 66.5q17.5 29.5 47 47T1584 313zM171 836q-50 0-91-24.5t-65.5-66Q-10 704-10 654t24.5-91.5Q39 521 80 496.5t91-24.5q50 0 92 24.5t66.5 66Q354 604 354 654t-24.5 91.5Q305 787 263 811.5T171 836zm471 0q-50 0-91-24.5t-65.5-66Q461 704 461 654t24.5-91.5q24.5-41.5 65.5-66t91-24.5q51 0 92 24.5t65.5 66Q824 604 824 654t-24.5 91.5Q775 787 734 811.5T642 836zm471 0q-50 0-91.5-24.5t-66-66Q931 704 931 654t24.5-91.5q24.5-41.5 66-66T1113 472q50 0 91.5 24.5t66 66Q1295 604 1295 654t-24.5 91.5q-24.5 41.5-66 66T1113 836zm471 0q-51 0-92-24.5t-65.5-66Q1402 704 1402 654t24.5-91.5q24.5-41.5 65.5-66t92-24.5q50 0 91.5 24.5t66 66Q1766 604 1766 654t-24.5 91.5q-24.5 41.5-66 66T1584 836zM171 785q36 0 66-18t48-47.5q18-29.5 18-65.5 0-37-18-66.5T237 540q-30-18-66-18t-66 18q-30 18-47.5 47.5T40 654q0 36 17.5 65.5T105 767q30 18 66 18zm471 0q37 0 66.5-18t47.5-47.5q18-29.5 18-65.5 0-37-18-66.5T708.5 540Q679 522 642 522t-66.5 18q-29.5 18-47 47.5T511 654q0 36 17.5 65.5t47 47.5q29.5 18 66.5 18zm471 0q36 0 66-18t48-47.5q18-29.5 18-65.5 0-37-18-66.5t-48-47.5q-30-18-66-18t-66 18q-30 18-47.5 47.5T982 654q0 36 17.5 65.5T1047 767q30 18 66 18zm471 0q37 0 66.5-18t47-47.5Q1715 690 1715 654q0-37-17.5-66.5t-47-47.5q-29.5-18-66.5-18t-66.5 18q-29.5 18-47 47.5T1453 654q0 36 17.5 65.5t47 47.5q29.5 18 66.5 18z" fill="currentColor"/></svg>