<svg xmlns="http://www.w3.org/2000/svg" viewBox="-10 0 1305 1307"><path d="M1113 364q-50 0-91-24.5t-65.5-66Q932 232 932 182q0-51 24.5-92t65.5-65.5Q1063 0 1113 0t91.5 24.5q41.5 24.5 66 65.5t24.5 92q0 50-24.5 91.5t-66 66Q1163 364 1113 364zm-941 0q-50 0-91.5-24.5t-66-66Q-10 232-10 182q0-51 24.5-92t66-65.5Q122 0 172 0t91.5 24.5Q305 49 329.5 90t24.5 92q0 50-24.5 91.5t-66 66Q222 364 172 364zm471 0q-50 0-91.5-24.5t-66-66Q461 232 461 182q0-51 24.5-92t66-65.5Q593 0 643 0t91.5 24.5Q776 49 800.5 90t24.5 92q0 50-24.5 91.5t-66 66Q693 364 643 364zm470-51q36 0 66-18t48-47.5q18-29.5 18-65.5 0-37-18-66.5T1179 68q-30-18-66-18t-66 18q-30 18-47.5 47.5T982 182q0 36 17.5 65.5T1047 295q30 18 66 18zm-470 0q36 0 66-18t47.5-47.5Q774 218 774 182q0-37-17.5-66.5T709 68q-30-18-66-18t-66 18q-30 18-48 47.5T511 182q0 36 18 65.5t48 47.5q30 18 66 18zm-471 0q37 0 66.5-18t47-47.5Q303 218 303 182q0-37-17.5-66.5t-47-47.5Q209 50 172 50t-66.5 18q-29.5 18-47 47.5T41 182q0 36 17.5 65.5t47 47.5q29.5 18 66.5 18zm471 523q-50 0-91.5-24.5t-66-66Q461 704 461 654t24.5-91.5q24.5-41.5 66-66T643 472q50 0 91.5 24.5t66 66Q825 604 825 654t-24.5 91.5q-24.5 41.5-66 66T643 836zm470 0q-50 0-91-24.5t-65.5-66Q932 704 932 654t24.5-91.5q24.5-41.5 65.5-66t91-24.5q50 0 91.5 24.5t66 66Q1295 604 1295 654t-24.5 91.5q-24.5 41.5-66 66T1113 836zm-941 0q-50 0-91.5-24.5t-66-66Q-10 704-10 654t24.5-91.5q24.5-41.5 66-66T172 472q50 0 91.5 24.5t66 66Q354 604 354 654t-24.5 91.5q-24.5 41.5-66 66T172 836zm471-51q36 0 66-18t47.5-47.5Q774 690 774 654q0-37-17.5-66.5T709 540q-30-18-66-18t-66 18q-30 18-48 47.5T511 654q0 36 18 65.5t48 47.5q30 18 66 18zm-471 0q37 0 66.5-18t47-47.5Q303 690 303 654q0-37-17.5-66.5t-47-47.5Q209 522 172 522t-66.5 18q-29.5 18-47 47.5T41 654q0 36 17.5 65.5t47 47.5q29.5 18 66.5 18zm941 0q36 0 66-18t48-47.5q18-29.5 18-65.5 0-37-18-66.5t-48-47.5q-30-18-66-18t-66 18q-30 18-47.5 47.5T982 654q0 36 17.5 65.5T1047 767q30 18 66 18zm0 522q-50 0-91-24.5t-65.5-65.5q-24.5-41-24.5-91 0-51 24.5-92t65.5-65.5q41-24.5 91-24.5t91.5 24.5q41.5 24.5 66 65.5t24.5 92q0 50-24.5 91t-66 65.5Q1163 1307 1113 1307zm-470 0q-50 0-91.5-24.5t-66-65.5q-24.5-41-24.5-91 0-51 24.5-92t66-65.5Q593 944 643 944t91.5 24.5q41.5 24.5 66 65.5t24.5 92q0 50-24.5 91t-66 65.5Q693 1307 643 1307zm-471 0q-50 0-91.5-24.5t-66-65.5q-24.5-41-24.5-91 0-51 24.5-92t66-65.5Q122 944 172 944t91.5 24.5q41.5 24.5 66 65.5t24.5 92q0 50-24.5 91t-66 65.5Q222 1307 172 1307zm941-50q36 0 66-17.5t48-47q18-29.5 18-66.5t-18-66.5q-18-29.5-48-47.5t-66-18q-36 0-66 18t-47.5 47.5Q982 1089 982 1126t17.5 66.5q17.5 29.5 47.5 47t66 17.5zm-470 0q36 0 66-17.5t47.5-47Q774 1163 774 1126t-17.5-66.5Q739 1030 709 1012t-66-18q-36 0-66 18t-48 47.5q-18 29.5-18 66.5t18 66.5q18 29.5 48 47t66 17.5zm-471 0q37 0 66.5-17.5t47-47Q303 1163 303 1126t-17.5-66.5q-17.5-29.5-47-47.5T172 994q-37 0-66.5 18t-47 47.5Q41 1089 41 1126t17.5 66.5q17.5 29.5 47 47T172 1257z" fill="currentColor"/></svg>