<svg xmlns="http://www.w3.org/2000/svg" viewBox="0 0 528.9 241.4"><path d="M215.8 0c50.6 0 119.7 14.8 207.3 44.3 34.9 7.8 69.1 11.8 102.6 11.8l.5 41.7h-18.7c-28.8 0-61.8 4.8-98.8 14.4C346 151.4 281.5 171 215.3 171c-31.3 0-61-3.5-88.9-10.4-28-6.9-67-9.9-117.3-8.8-6.1 0-9.1-9.2-9.1-27.5s3.6-27.5 10.7-27.5C26 94.2 45 82.8 67.6 62.5c22.6-20.3 42.3-34.2 59-41.7C158.7 6.9 188.4 0 215.8 0zm-57.7 90.8c0 32.8 19.1 49.1 57.2 49.1 37.4 0 56.4-16.4 57.2-49.1 0-24.2-4.6-40.4-13.9-48.6s-23.5-12.3-42.7-12.3c-19.2 0-33.7 4.1-43.3 12.3-9.7 8.2-14.5 24.4-14.5 48.6zm129.3-53.4c8.5 17.8 12.8 35.2 12.8 52.1s-5.5 33.6-16.6 49.9c54.8-15.7 98.5-36 130.9-60.9v-1.1c-32.4-18.5-74.7-31.8-127.1-40zM45.9 113.8v6.9l104.2 18.2C138 125 132 109 132 90.8c0-16.7 3.9-32.2 11.8-46.5-17.5 4-50.1 27.1-97.9 69.5zm483 64.1c-64.1 0-110.6 7.7-139.4 23.2-28.8 15.5-61.3 26.4-97.2 32.9-36 6.4-71.2 8.6-105.8 6.7-34.5-2-60.8-5.2-78.8-9.6-18-4.5-42.6-6.7-74-6.7-21 0-31.3-6.1-31-18.2-.4-14.6 7.8-21.7 24.6-21.4 35.6 0 64.5 3.7 86.5 11 22.1 7.3 48.3 11.8 78.8 13.4 30.5 1.6 63.4-1 98.8-7.7 35.4-6.8 67.6-18.2 96.4-34.2 28.8-16 75.9-23.9 141-23.5v34.1h.1z"/></svg>