<svg xmlns="http://www.w3.org/2000/svg" viewBox="0 0 538.5 243.1"><path d="M228.1 72.1c50.6 0 119.7 14.8 207.3 44.3 34.9 7.8 69.1 11.8 102.6 11.8l.5 41.7h-18.7c-28.8 0-61.8 4.8-98.8 14.4-62.7 39.2-127.1 58.8-193.4 58.8-31.3 0-61-3.5-88.9-10.4-28-6.9-67-9.9-117.3-8.8-6.1 0-9.1-9.2-9.1-27.5s3.6-27.5 10.7-27.5c15.3-2.5 34.3-13.9 56.9-34.2s42.3-34.2 59-41.7c32.1-13.9 61.8-20.9 89.2-20.9zm-57.7 90.8c0 32.8 19.1 49.1 57.2 49.1 37.4 0 56.4-16.4 57.2-49.1 0-24.2-4.6-40.4-13.9-48.6-9.3-8.2-23.5-12.3-42.7-12.3-19.2 0-33.7 4.1-43.3 12.3s-14.5 24.4-14.5 48.6zm129.3-53.4c8.5 17.8 12.8 35.2 12.8 52.1s-5.5 33.6-16.6 50c54.8-15.7 98.5-36 130.9-60.9v-1.1c-32.4-18.5-74.7-31.9-127.1-40.1zM58.2 185.9v6.9L162.4 211c-12.1-13.9-18.2-29.9-18.2-48.1 0-16.7 3.9-32.2 11.8-46.5-17.5 4-50 27.1-97.8 69.5zM535.8 63.6l-1.1 34.7C478.1 88 432.2 77.2 396.9 66c-35.3-11.2-70-20.2-104.2-27-34.2-6.8-66.5-8.7-97-5.9-30.5 2.8-59.3 13.3-86.5 31.3-27.2 18-54.6 27-82 27C9.1 91.4 0 84.2 0 70c0-12.5 9.1-18.7 27.2-18.7 25.6 0 50.5-7.5 74.5-22.4 24-15 53.3-24 87.9-27.2 34.5-3.2 69.2-1.6 103.9 4.8s69.8 15 105.2 25.6c35.5 10.6 81.2 21.1 137.1 31.5z"/></svg>