<svg xmlns="http://www.w3.org/2000/svg" viewBox="-10 0 1115 345"><path d="M129 345q-37 0-68.5-15.5T9.5 282Q-10 250-10 202v-60q0-48 19.5-79.5t51-47Q92 0 129 0h836q38 0 69.5 15.5t51 47Q1105 94 1105 142v60q0 48-19.5 80t-51 47.5Q1003 345 965 345zm-1-20h839q50 0 84.5-32t34.5-91v-60q0-59-34.5-91T967 19H128q-49 0-84 32T9 142v60q0 59 35 91t84 32zm398-20q-25 0-67-6t-89-15.5q-47-9.5-91-19T203.5 248q-31.5-7-39.5-9-11 10-19 17t-11 9l-13-13q32-32 77.5-67t99.5-65q54-30 111-48.5T521 53q70 0 128 20t106 48.5q48 28.5 88 56.5 33 22 61.5 40t54.5 23l-3 17q-38-6-77-31-5 2-34 10.5T773 257q-43 11-90 22t-89 18.5q-42 7.5-68 7.5zm-6-20q29 0 54-14.5t39.5-38.5q14.5-24 14.5-53 0-44-32-75t-76-31q-43 0-74 31t-31 75q0 43 31 74.5t74 31.5zm72-5q37-6 79.5-16t81.5-20.5q39-10.5 68.5-19T863 213l-16-11q-2-2-5.5-3.5T833 193q-34-22-70-46t-79-43.5Q641 84 589 76q26 16 42 43t16 60q0 31-15 58t-40 43zm-144-2q-24-16-38.5-42T395 179q0-31 15-57.5T449 79q-56 11-106 36t-91.5 54Q210 198 181 222q11 3 39.5 10t67 15.5q38.5 8.5 80.5 17t80 13.5z" fill="currentColor"/></svg>