<svg xmlns="http://www.w3.org/2000/svg" viewBox="0 0 551.6 238.4"><path d="M275.6 238.2h141.8c49.3 1.2 84.2-8.1 104.8-28.1 20-19.3 29.8-49.7 29.5-91.2v.5c.3-41.5-9.7-71.9-29.9-91.2-20.3-20-55-29.3-104.3-28.1h-283C85-1.1 50.1 8.2 29.5 28.2 9.5 47.5-.3 77.9 0 119.4v-.5c-.3 41.5 9.5 71.9 29.5 91.2 20.6 20 55.5 29.3 104.8 28.1h141.3zm148.7-218c51.5.6 82.8 13.4 94 38.4C526.8 73.9 531 94 531 118.9v.5c0 25-4.2 45.1-12.6 60.4-11.2 25-42.6 37.7-94 38.4H127.3c-51.8-.6-83.1-13.4-94-38.4-8.7-15.3-13.1-35.4-13.1-60.4v-.5c0-25 4.4-45.1 13.1-60.4 10.9-25 42.3-37.7 94-38.4h297zM239.1 40.3c44.6 0 105.3 12.9 182 38.8 30.6 6.9 60.5 10.3 89.8 10.3V126h-16.4c-25 0-53.6 4.2-86.1 12.6-54.9 34.3-111.3 51.5-169.4 51.5-27.4 0-53.5-3-78.1-9.1-24.6-6.1-58.9-8.7-102.9-7.7-5.3 0-7.9-8-7.7-24.1.2-16.1 3.2-24.1 9.1-24.1 13.7-2.2 30.5-12.2 50.3-29.9 19.8-17.8 37-29.9 51.7-36.5 27.8-12.3 53.7-18.4 77.7-18.4zM189 119.9c0 28.4 16.7 42.7 50.1 43 32.7 0 49.3-14.3 49.6-43 0-21.2-4-35.5-11.9-42.8s-20.5-11-37.7-11c-16.8 0-29.4 3.7-37.7 11-8.3 7.3-12.4 21.6-12.4 42.8zm113.2-46.8c7.2 15.6 10.8 30.8 10.8 45.6s-4.8 29.4-14.5 43.7c48.3-13.7 86.6-31.7 114.6-53.8v-.5c-28.4-16.1-65.3-27.8-110.9-35zM90.8 140v6.1L182 162c-10.6-12.2-15.9-26.2-15.9-42.1 0-14.7 3.3-28.2 9.8-40.7-15 3.4-43.3 23.7-85.1 60.8z"/></svg>