<svg xmlns="http://www.w3.org/2000/svg" viewBox="-10 0 1115 345"><path d="M129 345q-37 0-68.5-15.5T9.5 282Q-10 250-10 202v-60q0-48 19.5-79.5t51-47Q92 0 129 0h836q38 0 69.5 15.5t51 47Q1105 94 1105 142v60q0 48-19.5 80t-51 47.5Q1003 345 965 345zm-1-20h839q50 0 84.5-32t34.5-91v-60q0-59-34.5-91T967 19H128q-49 0-84 32T9 142v60q0 59 35 91t84 32zm403-49q-24 0-62.5-5.5T386 256q-44-9-85-17.5T231.5 223q-28.5-7-36.5-8-11 9-18 15.5t-9 8.5l-13-16q30-30 72.5-62t92-59.5Q369 74 422 56.5T526 39q65 0 118.5 18.5t98 45.5q44.5 27 82.5 52 31 21 57 37.5t50 21.5l-3 18q-16-3-34-9.5T858 204q-5 2-31.5 9.5t-66.5 18Q720 242 676.5 252T594 269q-39 7-63 7zm-6-20q41 0 70.5-29t29.5-70q0-40-29.5-69T525 59q-41 0-69 29t-28 69q0 41 28 70t69 29zm67-4q35-6 74-15t75.5-19q36.5-10 64-18t38.5-11l-22-14-6-4q-47-31-100-64T590 63q24 15 39 39.5t15 54.5q0 30-14 54.5T592 252zm-134-2q-23-16-36.5-40T408 157q0-29 14.5-53T459 65q-52 11-98.5 34T276 149q-38 27-65 50 10 2 36.5 8.5t62 14Q345 229 384 237t74 13zm79 66q-77 1-136.5-6.5T298 289q-7-2-23.5-6t-33-7q-16.5-3-25.5-3-5 0-10.5 1t-10.5 2l-12-16q17-5 32-5 22 1 46.5 6t46.5 12q43 13 94.5 18.5T537 297q44 0 104.5-8T759 264q38-11 70-18t50-7q13 0 25.5 2t22.5 5l-2 18q-21-6-45-6-18 0-50 7t-67 17q-59 17-118.5 25.5T537 316z" fill="currentColor"/></svg>