<svg xmlns="http://www.w3.org/2000/svg" viewBox="0 0 526.2 439.7"><path d="M215.8 0c50.6 0 119.7 14.8 207.3 44.3 34.9 7.8 69.1 11.8 102.6 11.8l.5 41.7h-18.7c-28.8 0-61.8 4.8-98.8 14.4C346 151.4 281.5 171 215.3 171c-31.3 0-61-3.5-88.9-10.4-28-6.9-67-9.9-117.3-8.8-6.1 0-9.1-9.2-9.1-27.5s3.6-27.5 10.7-27.5C26 94.2 45 82.8 67.6 62.5c22.6-20.3 42.3-34.2 59-41.7C158.7 6.9 188.4 0 215.8 0zm-57.7 90.8c0 32.8 19.1 49.1 57.2 49.1 37.4 0 56.4-16.4 57.2-49.1 0-24.2-4.6-40.4-13.9-48.6s-23.5-12.3-42.7-12.3c-19.2 0-33.7 4.1-43.3 12.3-9.7 8.2-14.5 24.4-14.5 48.6zm129.3-53.4c8.5 17.8 12.8 35.2 12.8 52.1s-5.5 33.6-16.6 49.9c54.8-15.7 98.5-36 130.9-60.9v-1.1c-32.4-18.5-74.7-31.8-127.1-40zM45.9 113.8v6.9l104.2 18.2C138 125 132 109 132 90.8c0-16.7 3.9-32.2 11.8-46.5-17.5 4-50.1 27.1-97.9 69.5zm153.9 50.7h33.7V421c0 12.5-5.6 18.7-16.8 18.7-11.2 0-16.8-6.2-16.8-18.7V164.5zm77.5.6l31-13.4L420.4 414c3.6 10.3.4 17.8-9.6 22.4-10 4.6-17.1 1.4-21.4-9.6L277.3 165.1zm-234 263.3c-1.4 7.1-8.2 10.7-20.3 10.7-12.1 0-15.7-8-10.7-24L124 154.4l31 12.8L43.3 428.4z"/></svg>