<svg xmlns="http://www.w3.org/2000/svg" viewBox="-10 0 1125 803"><path d="M260 803l-19-6 158-484q-53-9-110-20t-108-22.5Q130 259 94.5 251T48 240q-15 14-27 25T4 281l-14-14q43-43 104.5-89.5t133.5-87Q300 50 376.5 25T526 0q94 0 172 26.5t142.5 65Q905 130 959 167q44 31 82.5 54.5T1115 252l-4 19q-24-4-49-16.5t-52-29.5q-7 2-42.5 12T879 261q-53 14-112.5 28T652 313l158 484-19 6-158-486q-61 11-98 11v475h-19V328q-41-3-98-12zm266-496q39 0 71.5-19.5t52-51.5q19.5-32 19.5-71t-19.5-71.5q-19.5-32.5-52-52T526 22q-39 0-71.5 19.5t-52 52Q383 126 383 165t19.5 71q19.5 32 52 51.5T526 307zm88-6q50-8 108.5-21.5T836 252q55-14 96-25t57-16l-41-27q-46-30-97.5-62.5T740 63q-59-26-130-37 35 22 56.5 58.5T688 165q0 43-20.5 78.5T614 301zm-178-2q-32-21-52-56.5T364 165q0-43 20-78.5T437 29q-76 15-145.5 49.5t-127 74Q107 192 67 224q15 3 54.5 12.5t93.5 21q54 11.5 112 23T436 299z" fill="currentColor"/></svg>