<svg xmlns="http://www.w3.org/2000/svg" viewBox="0 0 593.3 487.7"><path d="M136.3 155.4c7.1-6.8 10.7-13.5 10.7-20.3 0-5-5.3-8.9-16-11.8-24.9 0-38.8 2.7-41.7 8-5.7 2.5-15 14.6-27.8 36.3l-26.7 35.8c-1.8 8.6 2 14.8 11.2 18.7 27.4-12.1 46-18.2 55.6-18.2 25.3 0 45.2 18.2 59.8 54.5 7.5 16.4 17.8 31.3 31 44.9v-19.2c0-38.5 13.2-67.2 39.5-86-12.8 33.1-18.1 59-15.8 77.8 2.3 18.7 7.9 31.8 16.8 39.3 13.5 6.1 36.8 7.8 69.7 5.3 33-2.5 52.3-1.7 58 2.4 5.7 4.1 17 4.1 33.9 0s36.2-6.1 58-6.1c-17.8-21.4-28.5-50.8-32.1-88.2 11.8 18.9 21.4 34.2 28.9 46 7.5 11.8 17.1 22 28.9 30.7s23.3 13.1 34.7 13.1c18.2-27.8 27.5-55.5 28.1-83.1.5-27.6-9-40.9-28.6-39.8l-159.2-1.6c-67.7-1.1-122-11.4-163-31l-8-5.3-16 5.9-11.8-4.8c22.1-16 34.4-31 36.9-44.9-17.1 8.6-25.6 14.4-25.6 17.6-6.1 13.1-15.9 21.1-29.4 24zm-57.7 10.7V165c2.5-12.1 11.6-18.2 27.3-18.2 5.7.7 8.6 1.8 8.6 3.2v1.1c0 6.1-8.2 12.6-24.6 19.8-5.8 0-9.6-1.6-11.3-4.8zm481.9 47c-2.5 32.1-8.2 66.4-17.1 103.1 0 22.4 8.4 53.3 25.1 92.4-8.2 9.6-10.5 23.9-6.9 42.7-6.8 3.9-9.3 8.4-7.5 13.4l5.3 17.1c-1.1 2.1-3.7 4.1-8 5.9h-35.3c3.2-12.8 6.8-21.6 10.7-26.2l6.4-17.6c3.6-15.3 5.3-27.4 5.3-36.3-.4-23.2-10.5-40.3-30.5-51.3-28.5 31.7-42.7 63.8-42.7 96.2-7.8 2.5-12.1 8.4-12.8 17.6 3.6 8.6 2.1 13.9-4.3 16h-36.9c3.2-11.4 8-20.3 14.4-26.7 19.9-27.4 29.9-60.7 29.9-99.9 0-10.7-3.6-18.3-10.7-22.7-7.1-4.5-23.1-2.5-47.8 5.9-24.8 8.4-41.2 9.8-49.4 4.3-8.2-5.5-19.9-8.3-35-8.3s-36.8 3.4-64.9 10.2v1.1c0 8.9 2.3 38.5 6.9 88.7l3.7 19.8c-5.3 3.9-7.3 8.5-5.9 13.9l3.2 13.4H213c1.4-12.1 5.2-20.5 11.2-25.1 5-12.8 7.5-21.2 7.5-25.1 0-17.8-4.1-40.3-12.3-67.3-6.4-10.7-15.1-16-26.2-16-24.2 61.3-36.3 95.3-36.3 102.1v1.1c-7.5 2.5-11.2 6.2-11.2 11.2l2.1 14.4c0 4.6-9.6 6.9-28.9 6.9-11.8 0-17.6-2.3-17.6-6.9 0-11.4 4.8-20.3 14.4-26.7 30.6-37.8 44.9-77.3 42.7-118.6 0-31-9.4-60.7-28.3-89.2-5.7-12.8-16.2-19.2-31.5-19.2-25.6 7.5-44.7 13-57.2 16.6-15.3-5.7-23-13.2-23-22.4-11-7.5-11.9-15.1-2.7-22.7 9.3-7.7 17.3-18.8 24-33.4 6.8-14.6 14.1-27.6 21.9-39C20.7 71.1 0 33.5 0 13.2c.7-3.6 1.8-5.3 3.2-5.3 2.9 1.8 9.1 11.2 18.7 28.3 8.5 14.6 23.7 32.4 45.4 53.4 14.6 10.7 25.5 16 32.6 16 14.6-.4 26.2-4.3 34.7-11.8 22.1-16.7 46.7-46.7 73.7-89.8 4.3-5.3 7.7-5.5 10.2-.5-2.8 14.2-12.5 34-28.9 59.3-16.4 25.3-28.3 40.3-35.8 44.9l10.7 8c8.5-8.2 21.4-14.8 38.5-19.8.7 6.4.7 11.8 0 16.3s-4.5 12.7-11.2 24.8c41 24.2 104 36.3 189.2 36.3h172.6c8.2.7 18 9.8 29.4 27.3 3.2 6.1 6.2 14.8 9.1 26.2 2.1 91.9 1.4 148-2.1 168.3-3.2 6.8-7.1 5.3-11.8-4.3-13.9-33.5-19.2-65.9-16-97.3 3.2-31.1 2.6-58-1.7-80.4z"/></svg>