<svg xmlns="http://www.w3.org/2000/svg" viewBox="-10 0 1363 913"><path d="M413 913l29-60 42-42q39-100 62.5-162t36-94.5Q595 522 601 508q-14-4-37-14.5T527 464q-9-12-20.5-33.5t-23-46Q472 360 464 340t-11-28q-3-7-9.5-22T430 262v14q0 8-4 16t-13 8q-15 0-15-33v-28q-8-2-21 4.5T358 254l-7 4v60l-14 15q-14 15-15-12.5t-2-27.5l-2-26q-13-2-33-15t-20-31q0-18 18-41t42-45q24-22 42-36 9-8 18.5-15T405 72q-4-5-9-8.5T386 60q-7 0-18 3t-21 7q-15 5-32 10t-33 5q-12 0-25-4t-27-8q-13-4-24.5-8T184 61q-10 0-21.5 3T138 71q-17 5-35 9.5T68 85q-23 0-38.5-12t-25-27Q-5 31-10 21L16 0q7 11 23 24.5T75 38q9 0 24.5-4.5T132 23q18-5 35.5-10.5T198 7q11 0 21.5 3.5T239 18q10 4 21 8t25 4q11 0 22.5-3.5T329 19q14-4 31-8.5T398 6q25 0 42 12.5T466 44q10-13 27-25.5T535 6q21 0 38.5 4.5T604 19q11 4 21.5 7.5T648 30q13 0 24.5-4t21.5-8q9-4 19.5-7.5T735 7q13 0 30 5.5T801 23q16 6 31.5 10.5T858 38q20 0 35.5-13.5T917 0l26 21q-5 10-14.5 25T903 73q-16 12-38 12-16 0-34.5-4.5T795 71q-14-4-25.5-7T749 61q-10 0-22 4l-24 8q-14 4-27 8t-25 4q-16 0-33-5t-32-10q-11-4-21.5-7T547 60q-8 0-15 7t-11 12q4 2 9.5 5.5T541 92q10 7 37 25t60.5 38.5q33.5 20.5 63 37T745 213q24 8 61.5 11t75 3q37.5 0 63.5-1 50-1 88-6t71-5q29 0 56 4t46 8q21 5 39.5 23.5T1269 286q28 19 46 47t19 78q1 30-4.5 62t-8.5 60l-3.5 35-1.5 25q0 17 6 47t14.5 63.5Q1345 737 1353 764l-28 8q-8-9-17.5-27.5t-18-38Q1281 687 1276 674l-7 83q0 3 1 17.5t2 34.5q1 20 2 37l-24 36-5 31h-92l30-59q5-14 12-34.5t12-38q5-17.5 5-23.5 0-13-7-39.5t-16-53.5q-9-27-15-42-7 17-21 17-5 0-10.5-3t-8.5-6q-3 4-6 6l-18 48q-13 27-30 60t-32.5 64l-26.5 53-30 30-3 21h-92l30-59v1l44-47 127-312-2-5q-14 4-28 9t-29 10l-80 47-10-18 20-11q-13 3-25 4.5t-25 2.5q-43 3-87.5-2.5T744 520l-1 37 73 254-40 67-7 35h-84l27-56 32-58q0-2-.5-15t-1.5-24q-1-7-12-32.5T703.5 669Q688 636 673 606q-6 11-16 27t-21.5 33Q624 683 616 694q-14 16-27 38.5T569 771l-34 86-31 28-4 28zm90-843q4-6 16.5-18T547 40q9 0 20.5 3.5T592 52q14 5 29.5 9t29.5 4q9 0 21.5-3.5T697 54q13-5 26.5-9t25.5-4q10 0 23 4t28 8q17 4 33.5 8t31.5 4q27 0 40.5-15T923 25l-4-5q-9 13-24 24.5T858 56q-11 0-28.5-4T795 42q-17-6-33.5-11T735 26q-9 0-17.5 3T702 36q-11 5-24 9t-30 4q-15 0-27-3t-24-8q-14-5-28-9t-34-4q-22 0-36.5 13T478 61v1h-1v1q7 1 13.5 3t12.5 4zM68 65q15 0 31.5-4t32.5-8q15-4 28-8t24-4q12 0 25.5 4t26.5 9q12 4 24.5 7.5T282 65q13 0 28.5-4t30.5-9q13-5 24.5-8.5T386 40q12 0 22.5 8.5T424 64q6-1 12-2.5t12-1.5h7q-8-10-21.5-22.5T398 25q-19 0-34 4t-28 9q-12 5-24 8t-27 3q-16 0-29.5-4T231 36q-8-4-16-7t-17-3q-11 0-27 5t-33 11q-18 6-35.5 10T74 56q-22 0-37-11.5T14 20l-4 5q5 10 17.5 25T68 65zm1170 812l16-36q0-7-1.5-34.5T1250 756l9-120-30-91 1-28q11-43 23-93t7-98q13 6 22 21.5t14 33.5q5 18 3 32-2 30-7.5 65.5t-10 69.5q-4.5 34-3.5 58 1 21 10.5 51t22 57.5Q1323 742 1332 754q-3-10-8.5-31t-11.5-46.5q-6-25.5-10-48t-4-35.5q0-10 1.5-26.5t3.5-35.5q3-27 8.5-59.5t4.5-60.5q0-32-16.5-65.5T1254 302q-5-18-17.5-34t-35.5-22q-18-5-42.5-8.5T1104 234q-36 0-73.5 5.5T946 246q-50 0-104.5 1T739 232q-15-5-42-20t-58.5-34q-31.5-19-59-37T537 113q-2 22-10.5 45.5t-22 39.5Q491 214 472 214q-8 0-17-9.5t-9-32.5q0-21 16-45t29-41q-18-6-43-6-19 0-34.5 10.5T380 114q-16 13-38.5 32T302 185q-17 20-17 36 0 8 10 16l26-15 18-4 2 10-14 7-16 11q9 3 14 3 2 0 9-4t15-8q14-8 28.5-15t25.5-7q16 0 30 18t24 40q10 22 14 33 3 8 11 27t19 42.5q11 23.5 22 44.5t20 33q11 16 30.5 24.5T605 490q-16-23-30.5-50.5T557 390l19-2q3 21 18 48.5t34.5 54.5q19.5 27 36.5 47l96 208 2 57-34 56 31 13 36-65-72-252 2-45q-9-17-19.5-38.5t-18-42Q681 409 680 394l19-4q2 15 9.5 36t16 41q8.5 20 14.5 32 29 5 76 11t92 6q24 0 52.5-5.5t55.5-13q27-7.5 47.5-14.5t28.5-10q-8-17-25-43t-34-50l21-4q28 39 49 69.5t40 66q19 35.5 45 89.5 10 22 21 56t18 64q7 30 6 44-1 10-8 31.5t-14 41q-7 19.5-8 24.5zM472 195q15 0 25-17.5t15.5-40Q518 115 519 100l-10-5q-11 15-27 37.5T466 172q0 23 6 23zm-78-48v-20l8-10h39v13l-22 6-14 11zm-85 73l-12-12 20-17 8 10zm953 363q5-49 11-88t9-81q1-7-.5-16.5T1278 380q-2 17-7 42t-11 51q-6 26-11 46l-1 26zM983 877l21-26q11-22 25.5-52t31-62q16.5-32 29.5-57l15-40q-10-5-11.5-17t-1.5-25q0-19 5.5-38t11.5-33q6-14 7-17-1-1-1.5-2t-1.5-2L986 818l-39 45zm-492-4l27-28 33-79q8-19 21.5-44t26.5-38q15-23 32.5-49.5T662 583q-7-14-13-26.5t-9-19.5q-2-3-7-9t-10-13L501 821l-38 41zm627-250q5 0 9.5-5t4.5-26h11q-1 9 1 19t9 10q4 0 6.5-8t3.5-16q-6-12-14.5-28.5T1128 531q-5 12-11 30.5t-6 36.5q0 8 2 16.5t5 8.5zM445 893h39v-6l-31-8zm271 0h39v-6l-31-8zm214 0h39v-6l-31-8zm257 0h39v-4l-31-10z" fill="currentColor"/></svg>