<svg xmlns="http://www.w3.org/2000/svg" viewBox="0 0 601.3 399.3"><path d="M74.7 0C67.2 0 59 1.8 50.3 5.4c-15.5 6.5-26.3 8.2-32.5 5.2-6.2-3-10.6-4.8-13.2-5.4C.8 4-.6 5.8.2 10.4 4.9 24 14 31.1 27.6 31.7c13.6.5 24.6-.7 33.2-3.7 8.5-3 18.7-2.7 30.6 1.1 11.9 3.8 23.3 4.6 34.5 2.4 10.6-2.1 19.4-.1 26.5 5.8-7.6 2.1-14.9 5.2-21.8 9.1-4.8 2.9-9.5 7.4-10 13.2-5.1 1.7-9.7 4.7-14.2 7.6-8.6 5.9-16 13.3-23.5 20.4-3.6 2.7-7.8 4.5-11.2 7.3-2.9 1.9-5.4 4.8-5.1 8.5-.3 4.7 1.9 9 2.5 13.5.3 10 6 22.8 17.1 24.1l46-5.2c1.5.2 4.7-1.7 5-.1.2 31.5 5.3 63.7 20.1 91.8 5.2 10 12 19.3 19.4 27.7 2 8.7-2.6 16.9-6.7 24.3-3.9 6.9-10.5 11.9-13.6 19.3-3.9 7.9-4.8 17-9.8 24.3-4.5 7.1-10.9 12.8-17.2 18.2-5.3 4.9-10.6 10.2-13.4 17-14.8 11-29.4 23.3-38.4 39.7-.5 1.7 2 1.6 3 1.4h44.6c4.5-4 8.8-8.5 11.4-13.9 4.9 2 11.6 2 15.1-2.5 2.2-2.4 3.4-5.6 3-8.9.5-14.8 5.2-30 15.3-41 4.8-4.4 10.8-7.3 16.2-10.9 2.7-2.4 4.6-5.6 7.1-8.2 12-13.7 25-26.4 40-36.8 1.3-.6 2.9-2.4 4.2-.9 7.4 5.1 13 12.3 18.4 19.5 2.6 8.4 6 17 12.5 23.2 2.9 2.9 6.4 5.3 10.2 6.8 4.8 10.9 6.2 22.9 6.8 34.8-10.4 12.2-20.1 25.1-28.3 38.9h50.8c5.3-5.6 8.1-13.2 8.3-20.9 5.2.4 10.9-2.5 12.4-7.7 2.2-6.6-1.1-13.4-4.7-18.9-7.6-11.2-14.5-23.5-15.3-37.2-.2-5.3.2-10.6-1.2-15.7-1.7-7.2-5.5-13.8-11.1-18.7-8.4-9.1-11.9-21.4-14.3-33.2 11.2.4 22.5 1 33.7 2.5 15 1.9 30.1 4.4 44.8 7.8.9.3 2.4.4 2.1 1.8.7 4.3 3.8 8.6 8.1 9.7 2.7 7.8 5.1 16.2 11.1 22.1 1.1.9 2.3 1.5 3.6 2.1.7-9.3 1.7-18.7 4.3-27.7 14.8-1.4 29.6-2.8 44.5-4.2-2.7 18.3-6.3 37-15.9 53-8.8 14.3-20.5 26.6-33 37.9-3.1 4.4-5.9 9.6-10.7 12.3-2.3.1-4.5.9-6.4 2.2-7.4 4.8-12.3 12.5-17.1 19.7-2.7 4.3-5.2 8.6-7.7 13h55.8c.7-4.5 1.3-9.1 1.2-13.7 4.9 1.6 11 .5 13.8-4.2 2.4-3.5 3.3-7.7 3.9-11.8 11.1-11 17.8-25.7 27.3-38 5.3-6.8 11.9-12.6 19.9-15.9 7.7-4.1 12.6-12.1 14.3-20.5 3.1.5 5.3-2.2 7.3-4 5 1 11.4.2 14.1-4.6.6-1 1-2.1 1.4-3.2 14.2 9.2 25.5 23.5 29.5 40.1 2.3 7.5 1.1 15.4 1.4 23.1v13.4c-10.6 12.4-20.3 25.5-28.8 39.4h50.9c5.2-5.8 8.1-13.5 8.3-21.3 4.9.6 10.4-1.8 12.1-6.6 2.6-6.5-.3-13.7-3.8-19.3-1.8-2.9-1-6.6-1.5-9.8-.9-14.9-.9-29.9-1-44.9.2-5.3.7-11.2-2.7-15.7-1.8-2-5-.9-6.5-3.2-3.2-4-4.6-9.2-6.1-14.1-2.7-9.1-2.5-19.7 3.2-27.6 3.9-5.1 7.7-10.3 10.5-16.2 3.6-7.1 6.2-14.7 8.6-22.3.5 14.8-.7 29.7-4.6 43.9-3.5 19-2.1 38.5.4 57.5 1.4 9 3.1 18.6 8.8 26 2.7 3.3 7.7 5.9 11.8 3.4 5.7-2.8 8.6-9.3 8.5-15.4.1-8.8-2.8-17.2-4.2-25.7-3.2-15.2-6.5-30.4-9.8-45.5 4.4-25.3 7.4-51.5 2.4-76.9-3.1-15.4-10.4-30.8-23.8-39.7-8.1-5.4-16.9-9.6-25.9-13.4-20.5-8.6-42.9-12.6-65.2-11.2-46.5 1.1-93.1-.5-139.4-5.2-14.8-1.4-29.7-4-43.6-9.5-25.1-9.6-47.1-25.4-69.5-40.1-8.6-5.6-18.3-9.3-28.4-11.2 7.5-4 16-5.2 25.4-3.5 10.6 1.9 21.8.9 33.6-2.8 11.9-3.8 22-4.1 30.6-1.1 8.5 3 19.6 4.3 33.2 3.7 13.6-.6 22.8-7.7 27.8-21.3.6-4.6-1.2-6.4-5.2-5.2-2.3.6-6.7 2.4-13 5.4-6.4 3-17.2 1.3-32.5-5.2s-28.9-7.2-40.8-2c-11.9 5.2-23.7 5.2-35.6 0-11.9-5.2-26.9-2.3-45.1 8.7-18.5-11-33.7-13.9-45.5-8.7-11.9 5.2-23.7 5.2-35.6 0C86.1 1.2 80.6 0 74.7 0zm103.7 49c11.6.1 22.8 4.2 32.4 10.5C228 69.6 244.3 80.9 261 91.8c11.3 6.8 24.1 11.4 37.1 13.8-21.2 1.2-43 4.4-61.9 14.5-12.3 6.7-22.8 17.6-27.2 31.1-3.9 12-3.7 24.9-3.9 37.4.2 23.4 4.6 47.6 17.4 67.5.8 1.4 2.1 2.7 2.6 4.1-3.4 3.3-8.7 2.4-13 2.1-7.9-1.4-13.5-7.6-18.8-13.2-7.8-8.8-14.9-18.4-20.7-28.7-11.4-21.3-15.3-45.7-17.1-69.5-.7-8.4-.5-16.9-1.1-25.3-.6-3.9-3.3-8.2-7.6-8.1-5.7-.1-10.4 3.9-15.7 5.5-5.2 2.1-10.7 2.7-16.2 2.9-6 .6-11.4 3.9-17.5 3.4-2.1-.1-4.2-.3-6.3-.7 8.6-2.7 17.4-5.1 25.4-9.5 2.4-1.2 5-4.2 3.4-7-1.8-2.8-5.8-1.9-8.3-.5-5.9 2.8-11.1 7.4-17.6 9-4.4 1.4-9.1 2.5-13.6 2.2-1.7-1.7-1.8-4.4-1.7-6.6 1.3-3.6 5.7-4.1 8.5-6.1 1.4-.5 2.9-2.3 4.4-1.1 2.4 1.2 6.2 1.7 7.7-1.2 2-3.6.1-8.2-3.4-10-3.6-2.3-8.9-.8-10.6 3.2-1.2 2.3-4.1 2.7-6 4.3-1.1 1.4-1.5-.2-1.9-1.1-.4-1.4 1.9-1.1 2.4-2 7.2-4.8 14.8-9 21.8-14.2 7.8-9.2 19-14.5 29.7-19.5 1.1-1.1.3-3.1 1.6-4.2 3.8-5.3 10.4-7.4 16.2-9.8 9-3.2 18.4-5.6 28-5.6.6.1 1 .1 1.3.1zm15.9 13.7c-5.4 6.6-8.9 13.7-10.5 21.3-1.6 7.6-2 25.3-1.1 53 20.6-11.6 32.5-23.9 35.6-36.9 3.1-13 2.8-23.6-1.1-32l-7.2-1.3-8.1-2.2-7.6-1.9zm-49.1 5c-6.7.1-11.1 2-13.1 5.8V81c-6.3 3.3-12.5 6.6-18.8 9.9-6.3 3.3-9.4 6.3-9.4 8.9L135.7 85c.6 1.5 3.6 2.1 8.9 1.8 6-.3 11.2-1.9 15.7-4.9v-3.6h-2.7c-5.4-3-10.4-4-15.2-2.9-4.5 1-7.9 2.6-10 4.8 2.4-5.1 11.5-7.5 27.4-7.3v-3.6c-5.7-1.1-10.6-1.7-14.6-1.6zm327.9 49.8c27.2.1 54.9 4.8 78.7 18.7 7.9 4.5 15.2 10.2 20.5 17.6-6.9-5.8-15.5-8.9-24-11.6.9 2.6.5 5.7 1.9 8 9 5.4 16.6 14.6 17 25.4.6 14.7-6.4 28.3-14.8 39.8-7.1 10-15 20.5-16.4 33.1-.2 2.2.1 4.7-1.5 6.4-3.8 4.5-9.9 6.3-15.5 7.4-7.7 1.3-16.6.4-22.6-5.1-3.8-4-6.4-9-10.1-13.1-9.9-12.1-22.1-23.1-37.3-27.8-6.6-2-13.6-2.6-20.4-1.9 2.4 3.6 4.8 7.1 7.2 10.7 7.3-2.1 16.4-1.4 21.6 4.9.8.9 1.7 2.1 2.2 3-7.6.2-14.9 2.1-22.4 3-20.9 3.1-41.8 6.4-62.7 9.4-1.6-1.7-3.8-3.2-6.3-3-30-4.6-60.1-9.2-90.5-9.5-1.8.4-2.5-.3-2.2-2.1 0-2.7-1.5-6.3-4.7-6-3.7.2-5.7 3.9-6.6 7-2.3 5.8-3.7 12.9-9.2 16.6-5.7 3-13 1.6-18.1-1.9-4-3.5-5.8-8.7-8-13.4-6.7-17.1-7.6-35.9-7-54.1.8-13.6 4.5-27.8 14-38.1 7.5-8.4 18.8-12.3 29.5-14.7 20.4-4.6 41.4-5.4 62.2-6 14.7-.1 29.4 1 44.1.9 28.4.3 56.8-1 85.1-3.4 4.6-.3 9.2-.4 13.8-.4.8.2 1.7.2 2.5.2z"/></svg>