<svg xmlns="http://www.w3.org/2000/svg" viewBox="0 0 590.4 345.1"><path d="M526.5 101.3c-1.7-11.8-.3-23 4.3-33.7 4.6-10.7 14.5-16.7 29.8-18 15.3-1.3 24.9 9.6 28.8 32.8 3.9 23.2-3.7 37.6-22.9 43.3 8.3 17 9.2 32.3 2.6 45.9-5.2 5.2-10.3 4.4-15.1-2.6-.9-28.8-6.3-43.3-16.4-43.3-5.7 14.9-8.5 28.4-8.5 40.6 0 11.8 3.1 29.3 9.2 52.4 6.1 23.2 9.2 41.7 9.2 55.7s-3.3 28-9.8 41.9c-11.8 14.4-19.4 21.4-22.9 21-12.2.4-20.8 0-25.6-1.3 3.5-10.9 9.8-19.4 19-25.6 7.9-7.9 12.5-17.3 13.8-28.2-5.7-21.4-22.7-36.7-51.1-45.9-11.4 6.6-18.2 18.5-20.6 35.7-2.4 17.3-6.7 33.3-12.8 48.2-12.7 13.1-23.4 19.7-32.1 19.7-6.6 0-12.9-3.1-19-9.2 2.2-3.9 6.6-7.5 13.1-10.8 6.6-3.3 12.7-10.2 18.3-20.6 7-16.2 10.5-31.8 10.5-46.9 0-15.1-3.3-26.1-9.8-33.1-17.9 2.6-41.2 4.3-69.8 4.9-28.6.7-46.9 2.5-54.7 5.6-7.9 3.1-11.8 8-11.8 14.7 0 6.8 2.2 18.2 6.6 34.4 4.4 16.2 6.3 28.6 5.9 37.4-5.2 19.2-19.9 28.8-43.9 28.8-4.4-.9-7.2-3.7-8.5-8.5 1.3-4.8 6.1-9.6 14.4-14.4 8.3-4.8 12.5-12 12.5-21.6-4.4-5.2-9.9-15.3-16.7-30.1-6.8-14.9-13.9-26-21.3-33.4-11.8 6.1-20.6 22.7-26.5 49.8-5.9 27.1-15.4 43.7-28.5 49.8-3.5 2.2-8.3 3.3-14.4 3.3-11.4 0-17.5-3.7-18.3-11.1 3.1-13.5 12.5-20.8 28.2-21.6 13.5-27.1 18.6-60.3 15.1-99.6-39.3-31.5-71.4-53.4-96.3-65.9-24.9-12.5-45.5-18.8-61.9-19-16.4-.2-25.3-3.7-26.9-10.5-1.5-6.8-1.6-16.1-.3-27.9-3.1-12.7 1.5-19 13.8-19 28.8-3.5 47.7-8 56.7-13.4 9-5.5 16.9-9.3 23.9-11.5 7-2.2 11.1-5.9 12.5-11.1 0-11.4-1.1-21-3.3-28.8 24.5-2.2 50.2 4.7 77.3 20.6S236 45.3 263 45.9s47.4.9 60.9.7c13.5-.2 31.5-.3 53.7-.3 22.3 0 46.7 4 73.4 12.1s51.9 22.4 75.5 42.9zm30.8 11.2c4.8 0 8.5-2.2 11.1-6.6 2.6-4.4 2.9-12.3 1-23.9-2-11.6-6.3-16.7-13.1-15.4-6.8 1.3-10.3 8.4-10.5 21.3-.2 12.9 3.6 21.1 11.5 24.6zM512.7 138c-4.8-22.7-19.7-38.7-44.6-47.8-38.4-14.9-83-22.3-133.7-22.3-14.4 0-29.3.7-44.6 2-57.7.4-112.1-15.9-163.2-49.1 5.2 14.4 3.5 26.2-5.2 35.4C87 71 55.5 80.1 27.1 83.6c-6.6.9-8.3 7-5.2 18.3 36.7 4.4 64.1 11.6 82.2 21.6 18.1 10 36.2 21.8 54.1 35.4s30.8 21.1 38.7 22.6c7.9 1.5 18.5 5.9 31.8 13.1 13.3 7.2 23.3 11.5 29.8 12.8 19.7-3.9 39.5-5.9 59.6-5.9s46.2.3 78.3 1 52.5.5 61.3-.3c17.5 0 33.4 8.5 47.8 25.6 3.1-8.7 4.5-23.6 4.3-44.6-.2-20.9.7-36 2.9-45.2zm-382-51.8c-15.3 7.9-24.4 8.1-27.2.7-2.8-7.4-1.9-13.3 2.9-17.7 4.8-4.4 11-5 18.7-2 7.6 3.1 9.5 9.4 5.6 19z"/></svg>