<svg xmlns="http://www.w3.org/2000/svg" viewBox="-10 0 1320 785"><path d="M342 785q1 0-4.5-5t-11.5-9l52-90q2-22 4.5-50t1.5-39q-1-11-3.5-40t-4.5-52q-36-1-58.5-7T267 477q-38-14-56-16t-32-2q-35 0-71.5-7.5T45 414H14Q6 389 .5 366T-10 311q12-2 31-6t32-8q32-10 62-29.5t50-41.5q12-11 29.5-30t37-35.5Q251 144 270 139q3-13 10.5-28.5t21-27Q315 72 336 72q17 0 32.5 8.5T392 97q13-7 49-23t86-33q50-17 107-29T746 0q79 0 141 7t117 26.5Q1059 53 1120 91h55q46 0 70.5 24t24.5 53q0 29-4.5 47t-4.5 32q0 14 2 27t10 13q9 0 13-8t4-13q0-2 1.5-7t8.5-5q7 0 8.5 6.5t1.5 10.5q0 12-9 28.5t-27 16.5q-15 0-24.5-11t-14.5-25.5q-5-14.5-6-24.5-2-16-1-27t1-15q0-25-17.5-45t-40.5-22q8 13 15.5 33t7.5 47q0 25-7 58t-15.5 63q-8.5 30-14.5 46t-12 37q-6 21-10 38t-4 23q0 7 3 28.5t6 38.5l-23 157 4 31-12 10-6-8v37h-81l-25-9 39-54V611l-41-57-7 39-92 154v24l-11 2-12-17-10 29h-55l-28-18 42-58 48-105v-95q-40 9-84 16.5t-72 7.5q-25 0-63-2.5t-69-6.5l3 88q1 3 4.5 14.5T596 647l33 49-4 15-17-3v10l11 10-5 20-22 37h-54l6-84q-5-18-12.5-40.5T520 630q-3-7-11-19t-16-23q-8 18-14.5 34.5T470 646h1l-8 41q-3 18-5.5 38.5T453 759h-15l-5-14-38 40zm16-15h25l51-53 10-34 7-41q3-11 13.5-36t24-55q13.5-30 25.5-55 29 4 67 8t74 7q36 3 59 3 21 0 53.5-5t67-12.5Q869 489 898 482t43-11q-9-15-19-41t-13-52l20-2q2 25 13.5 52t19.5 40q5 7 19.5 27.5t31.5 44q17 23.5 29.5 42.5t12.5 23v117l-29 41 12 5h45v-31h14v-23l23-156q0-2-2.5-15.5t-4.5-29q-2-15.5-2-22.5 0-6 4.5-25t11-41q6.5-22 11.5-39 5-16 14-44.5t15.5-60q6.5-31.5 6.5-55.5 0-25-12.5-53t-24.5-44q9-1 23-.5t23 1.5q20 3 35.5 17t21.5 28q2 4 4.5 17.5t1.5 21.5h6q1-9 2-23.5t0-21.5q-1-5-6-19t-21-26.5q-16-12.5-50-12.5l-64-1q-87-55-174.5-73T746 19q-50 0-102.5 11t-100 27.5Q496 74 458.5 90T402 116q1 1 13 19t23 47.5q11 29.5 11 67.5 0 30-11.5 47.5T411 315q-11 0-18.5-3.5T379 305q-7-5-11-5-5 0-9.5 4.5T352 314l-17-9q4-8 12.5-16t20.5-8q7 0 12 2t10 5q4 3 8.5 5.5T411 296q7 0 12.5-12.5T429 250q0-25-8.5-52.5t-22-51.5q-13.5-24-30-39T336 92q-16 0-26 11.5t-15.5 27Q289 146 286 157q-1 16 2.5 40t6.5 39l-18 4q-4-15-7.5-38t-3.5-40q-13 5-29 19.5t-32 31Q189 229 179 240q-22 23-54 44t-67 31l-1 1q15 13 19 36 1 13-1 23t-6 18h8q28 0 63 3.5t52 8.5l-5 18q-16-4-49.5-7T73 413q22 17 49 22t56 5q27-1 48 4.5t47 13.5q20 7 35 12t34 7q19 2 51 3 2 19 4.5 42t4 42q1.5 19 2.5 27 1 12-2 41t-5 51l-47 79zM253 314q-14 0-23-6.5t-9-14.5q0-9 9-15.5t23-6.5q13 0 22 6.5t9 15.5q0 8-9 14.5t-22 6.5zm0-11q15 0 15-10 0-11-15-11-16 0-16 11 0 10 16 10zM28 394h20q4-9 6.5-18t1.5-21q-1-10-7.5-19T35 322q-5 1-10.5 2T13 327q3 16 7.5 36t7.5 31zm788 374h36l9-28h18l89-152 12-56-23-32-7-11q-8 2-24.5 6t-35.5 9v104l-49 108-34 45zm-258-1h24l18-33-6-8-2-44q-5-9-9-19t-5-10l-13-38-3-93q-12-1-22.5-2t-14.5-2l-22 49 18 27 17 28q4 10 11.5 33t12.5 41z" fill="currentColor"/></svg>