<svg xmlns="http://www.w3.org/2000/svg" viewBox="0 0 591.3 205"><path d="M141.8 29.9c1.5 2.9 3.9 4.5 7.4 4.7 3.5.2 5.6-3.6 6.3-11.2.7-6.2 4.8-7.9 12.1-4.9-1.8-4.8-5.1-7.1-9.9-7.1-2.6 0-5.1 2.6-7.7 7.7-5.4 5-8.2 8.6-8.2 10.8zm81.7 32.4c-1.8-10.6-8-20.9-18.6-31-10.6-10.1-20.7-15.4-30.2-16.2 11 15.7 9.5 24.9-4.4 27.4-6.2 2.6-8.6 7.6-7.1 15.1s-3.8 16.7-15.9 27.7c-6.6 15.4-9.1 30.7-7.7 46.1 36.2-17.2 64.2-40.2 83.9-69.1zm-114.6 4.4c-4 1.5-6.8 2.7-8.2 3.8-1.5 1.1-4 1.8-7.7 2.2.4 6.9 2.7 9.9 7.1 8.8 3.3 1.5 6 .5 8.2-3 2.2-3.5 5.9-5 11.2-4.7 5.3.4 8.9 2.7 10.7 7.1 12.1-7.3 17.7-17.7 17-31.3.7-6.2-.5-10.1-3.8-11.5-3.7-1.5-5.8-3.3-6.6-5.5-1.1-5.1.7-9.3 5.5-12.6-8.8 2.2-16.4 3.7-23 4.7-6.6.9-12.5 3.7-17.8 8.2-5.3 4.6-12 9.4-20 14.5-1.1 2.9.2 6.4 3.8 10.4-1.5 5.1.9 8.2 7.1 9.3 2.9-.7 5.8-1.7 8.5-3 2.8-1.2 5.5-.4 8 2.6zm48.8-32.9v1.1c5.8.7 9.1-2.9 9.9-11 0-2.2-.9-3.1-2.7-2.7-2.9-.4-4.6 2.2-4.9 7.7l-2.3 4.9zm-32.3-5.5c0 1.1-2.1 1.6-6.3 1.6-4.2 0-7.2 1.2-9 3.6s-2.9 5.4-3.3 9h-2.2c-1.5-5.8-.5-10 3-12.3 3.5-2.4 7.3-3.3 11.5-2.7 4.2.5 6.3.8 6.3.8zm1.6 7.1c-2.9 3.7-7.5 6.2-13.7 7.7-.4 1.5-1.5 2-3.3 1.6v-3.3c0-6.2 2.2-9.3 6.6-9.3 4.4 0 7.9 1.1 10.4 3.3zm-20.3 11l2.2 1.1c-2.2 8.4 7.3 13.3 28.5 14.8l-3.8 1.6c-16.8-1.5-26-4.1-27.4-8-1.5-3.8-1.3-7 .5-9.5zm377.8-.6c1.8 2.6 1.9 5.8.3 9.6-1.6 3.8-10.9 6.7-27.7 8.5l-3.3-1.6c20.8-1.8 30.3-6.9 28.5-15.4l2.2-1.1zm-20.3-10.4c2.6-2.6 5.9-3.7 10.1-3.6 4.2.2 6.3 3.4 6.3 9.6v2.7c-1.8.4-2.7-.2-2.7-1.6-6.2-1.4-10.7-3.8-13.7-7.1zm1.1-7.1c0-.4 2.1-.7 6.3-1.1 4.2-.4 8 .6 11.5 3s4.5 6.5 3 12.3H484c0-4-1-7.1-3-9.3-2-2.2-5.1-3.4-9.3-3.6-4.3-.1-6.4-.6-6.4-1.3zm-34.5 0c0-5.1-1.5-7.5-4.4-7.1-2.2-.4-3.3.5-3.3 2.7 1.1 7.7 4.6 11.1 10.4 10.4v-.5l-2.7-5.5zm51 38.4c2.9-2.9 5.7-3.7 8.2-2.5 2.6 1.3 5.5 2.1 8.8 2.5 5.8-1.1 8.2-4.2 7.1-9.3 3.3-3.7 4.4-6.9 3.3-9.9-8-5.5-14.7-10.4-20-14.8-5.3-4.4-11.1-7-17.5-8-6.4-.9-14.2-2.5-23.3-4.7 4.8 3.3 6.6 7.3 5.5 12.1-.7 2.6-2.7 4.6-6 6-3.3 1.5-4.6 5.3-3.8 11.5-.7 13.5 4.9 23.9 17 31.3 1.8-4.8 5.3-7.2 10.4-7.4 5.1-.2 8.9 1.4 11.2 4.7 2.4 3.3 5 4.4 8 3.3 4.8 1.1 7.1-1.8 7.1-8.8-3.7-.4-6.2-1.2-7.7-2.5s-4.3-2.4-8.3-3.5zm-114.6-4.4c20.1 28.5 48.1 51.4 83.9 68.5 1.8-15-.5-30.2-7.1-45.5-12.1-11.3-17.5-20.7-16.2-28.2 1.3-7.5-1-12.5-6.9-15.1-14.3-2.2-15.9-11.3-4.9-27.4-9.5.7-19.5 6.1-29.9 16.2-10.4 10-16.7 20.5-18.9 31.5zm-72.4 95.4c14.3 4 29.1 6.5 44.4 7.4 15.4.9 34.4.4 57-1.6 22.7-2 39.1-.6 49.3 4.1 6.6-6.2 7.7-12.8 3.3-19.7-36.2-15.7-65.4-38.4-87.7-68-17.5 17.5-39.7 28.1-66.3 31.8-25.6-3.3-47.3-13.7-65.2-31.3-22.3 29.2-51.5 51.9-87.7 68-4.4 6.6-3.1 13.2 3.8 19.7 10.2-4.8 26.6-6.1 49.1-4.1s41.5 2.6 57 1.6c15.5-.9 29.9-3.5 43-7.9zm.6-63.1c20.5-3.3 37.8-12.1 52.1-26.3 10.2-26 22.6-44 37-54C398.9 4.2 414.3-.5 430.8 0c16.4.5 25.4 4.1 26.9 10.7 6.2 2.6 12.2 4.7 17.8 6.3 5.7 1.6 11 4.6 15.9 8.8 4.9 4.2 10.4 8.1 16.4 11.8 6 3.7 9.6 6.8 10.7 9.3 1.8 3.7.2 8-4.9 13.2 0 3.7-1.8 6.8-5.5 9.3-.4 0-1 3.1-1.9 9.3-.9 6.2-4.3 10.8-10.1 13.7-7.3-.7-12.2-2.7-14.5-6s-5.4-4.6-9-3.8c-3.7.7-6.4 3.8-8.2 9.3 1.8 5.5 4.1 15.2 6.9 29.1 2.7 13.9 2.7 24.1 0 30.7-2.7 6.6 2.1 13.9 14.5 21.9 12.4 8 30.7 11 54.8 8.8 26.7-7.7 42.5-7.5 47.4.5 4.9 8 4.5 14.8-1.4 20.3h-21.9c-24.1 3.7-55.7.8-94.6-8.5-38.9-9.3-67.1-12.8-84.4-10.4-17.4 2.4-47.2-.3-89.6-8h-.5c-42.8 7.7-72.8 10.3-90.2 8-17.4-2.4-45.4 1.1-84.2 10.4-38.7 9.3-70.4 12.3-94.9 9H4.8c-5.8-5.8-6.3-12.7-1.4-20.6 4.9-7.9 20.6-8.1 46.9-.8 24.5 2.6 43-.3 55.4-8.5 12.4-8.2 17.3-15.6 14.5-22.2-2.7-6.6-2.7-16.8 0-30.7 2.7-13.9 4.8-23.6 6.3-29.1-1.8-5.5-4.6-8.5-8.2-9-3.7-.5-6.6.7-8.8 3.8-2.2 3.1-6.9 5.2-14.3 6.3-5.8-2.9-9.2-7.5-10.1-13.7-.9-6.2-1.7-9.3-2.5-9.3-3.7-2.6-5.5-5.8-5.5-9.9-5.1-4.8-6.8-9.1-4.9-13.2 1.1-2.6 4.7-5.6 10.7-9 6-3.5 11.5-7.4 16.4-11.8 4.9-4.4 10.2-7.4 15.9-9 5.7-1.6 11.8-3.7 18.4-6.3 1.1-6.2 10-9.6 26.6-10.1s32.1 4.2 46.3 14.3C220.8 25 233 43 243.2 68.9c14.7 14.2 32.1 22.8 52.2 25.7zm153.5-64.7c0-2.2-2.7-5.8-8.2-11-2.2-5.1-4.8-7.7-7.7-7.7-4.4 0-7.5 2.2-9.3 6.6v.5c6.9-3.3 10.8-1.6 11.5 4.9.7 7.7 2.8 11.3 6.3 11 3.5-.3 5.9-1.7 7.4-4.3z"/></svg>