<svg xmlns="http://www.w3.org/2000/svg" viewBox="-10 0 919 1070"><path d="M41 1070q-2-17 1.5-35.5t15-31Q69 991 90 991q7 0 14 .5t14 3.5l19-18q4-8 10-41t13-76q7-43 12-80-4-5-18.5-25t-28-47.5Q112 680 112 653q0-14 6.5-40t14.5-55q9-33 16.5-66t7.5-55q0-40-12-65t-27.5-36Q102 325 91 325H45l-34-34 4-22q-3-3-8-7t-9-7l-8-57 132-91h4q4-43 13.5-72.5T168 0q11 1 21 18.5T206 62q9-19 20-31.5T248 18q11 0 17.5 18t9.5 44q3 26 3 51v13l4 6 3 5q4 8 11.5 30t17 50q9.5 28 16.5 52l3 11q4 19 12.5 42t26.5 34q8 5 26 11t40 13q32 10 69.5 23.5T573 452q29 19 56.5 43.5T681 549q38-22 78.5-33.5T843 504q34 0 50 6t16 27q0 19-20 25t-49 7q-34 2-66.5 10.5T715 602q38 62 60 138.5T797 902q0 45-3.5 88.5T776 1069H402l-36-11q-8 6-18 12h-68q0-12 2-31.5t13.5-35Q307 988 336 988q19 0 31 5t17 11l156-13q-5-6-20-23t-32.5-41.5Q470 902 455 875t-20-52q-42-14-86-20t-78-7v3h-1v14q-9 21-20 46.5T229 908q-10 23-14 34t-11 32q-7 21-15 44t-14 41l-31 2-16 9zm104-964l45-2q1-2 1.5-4t1.5-5q-4-28-10-49.5T170 24q-11 0-16.5 23t-8.5 59zm-85 945h63l16-9h25q3-10 9-30.5t13-42q7-21.5 11-34.5 4-12 13.5-33.5T231 855q11-25 20-45v-76h20v43q36 1 78.5 6.5T433 801q0-23 12-52.5t38-51.5q26-22 69-24 21-33 49-62t62-51q-22-28-47-50.5T563 469q-28-18-64-30.5T432 417q-23-8-42-14t-29-12q-22-14-32-40t-15-48l-4-14v1q-8-24-19-58t-18-54q-1-1-3.5-6.5T266 163q-2 5-5.5 10t-6.5 9l-12-8q6-8 10.5-18t6.5-29q1-18-.5-39T254 52q-3-15-8-15-10 0-19 20t-18 48q-2 4-4.5 14.5T198 149l-19-4q2-5 3-10.5t2-10.5q-15 0-31 .5t-25 1.5q-5 3-25 16.5T57 173q-26 17-48 32l7 41 14 14h45v19H32l-2 7 21 20h40q14 0 34.5 13t36 41.5Q177 389 177 437q0 22-8.5 57.5T151 563q-8 28-13.5 52t-5.5 38q0 22 11 45t24 42q-2-17-4-37t-2-41q0-38 15-68.5t29-49.5l16 10q-13 19-27 47.5T180 662q0 27 4 59.5t8 52.5q-5 31-10 65.5t-10.5 66q-5.5 31.5-10 53T154 986l-32 30h-6q-2-1-6.5-3.5T95 1010q-16 0-23.5 8t-9.5 18q-2 10-2 15zm88-841q-19 0-28-6.5T106 191q2-5 11.5-14.5T142 167q17 0 27 8.5t21 17.5q-7 5-18.5 11t-23.5 6zm0-13q10 0 18-6-5-4-9-8t-11-4q-7 0-11 4t-5 8q1 2 5.5 4t12.5 2zM44 229q-5 0-11-2t-11-3v-9q2-2 8-7t14-5q20 0 20 13t-20 13zm608 821h45q-57-43-98.5-99.5T557 818q0-79 41.5-137t99.5-91q39-23 75-30.5t67-9.5q21-1 35.5-4.5T890 537q0-10-11.5-12t-35.5-2q-55 0-110.5 22.5t-101.5 63q-46 40.5-74 94T529 818q0 43 19.5 88t48 83q28.5 38 55.5 61zm78 0l33-1q9-27 12-67t3-80q0-83-21-156.5T700 611q-45 30-77 73 23 7 37 18t20 19l-15 12q-5-7-18-16.5T612 700q-35 56-35 118 0 51 21.5 93t56 76q34.5 34 75.5 63zm-431 1h44q3-2 8.5-6t10.5-7l42 12h219q-26-27-52-65t-43.5-81.5Q510 860 510 818q0-65 31-124-35 5-55 26.5t-27.5 48Q451 795 453 812q4 25 23 57.5t43 64q24 31.5 45 52.5l-6 23q-20 2-52 5t-66.5 6q-34.5 3-60.5 5-4-6-15.5-12t-27.5-6q-17 0-24.5 9.5t-10 20Q299 1047 299 1051z" fill="currentColor"/></svg>