<svg xmlns="http://www.w3.org/2000/svg" viewBox="0 0 477.9 594.5"><path d="M90.1 27.2l-8.5 32.1c14.5-1.2 21.6-4.2 21.2-9.1l-10.9-23h-1.8zm41.8 7.9l4.8 6.7c-3.6 4.8-4.8 16.1-3.6 33.9h-6.7c-2-21.9-.2-35.4 5.5-40.6zM87.1 90.7c-7.3 6.5-19.2 10.9-35.7 13.3-10.1 2-10.7.4-1.8-4.8-2-10.5 1.1-16.6 9.4-18.4 8.2-1.9 17.6 1.5 28.1 9.9zm322.4 491.1c22.6 0 31.8-10.2 27.5-30.5-4.2-20.4-10.6-34.4-19.1-42-8.5-7.7-21.8-28.2-39.9-61.7s-34.1-50-47.8-49.6c-11.3 0-16.9 20.4-16.9 61.1 0 41.1 7.6 71.3 22.7 90.4 15.1 19.1 39.6 29.9 73.5 32.3zM33.9 155.4c-19.8 2.8-28.4-6.2-26-27.2C2.6 125.8 0 115.5 0 97.4c0-6.5 7.5-12.3 22.4-17.5 5.2-13.7 17.1-20.6 35.7-20.6 8.5 0 12.7-2 12.7-6 4-14.9 7.1-29.8 9.1-44.8l10.9-.6 17.5 33.3C111.5 36.7 116.7 23 124 0h6.7c11.3 14.5 21 29.7 29 45.7s6.5 28.9-4.8 39c12.9 8.1 22.8 16.9 29.6 26.6-5.6-.4-9.3-.2-10.9.6l10.3 7.9 3 4.8-10.9-1.8c8.9 4 15.3 8.7 19.4 13.9-7.3-1.6-13.1-1.8-17.5-.6l21.2 15.7-7.3 1.2-7.9-.6c2 2.8 8.9 9.1 20.6 18.7-3.2.4-6.2.6-9.1.6l15.7 15.7h-4.2l-12.7-1.8 17.5 16.3c-2.8.8-4.4.6-4.8-.6 21 15.3 34.7 35.9 41.1 61.7 37.1 16.9 70.2 37.9 99.2 62.9 33.1-13.7 67.9-22.8 104.6-27.2 16.9-2 25.6 3 26 15.1 1.2 12.1-6.5 18.5-23 19.4-33.5 4.4-58.5 10.5-75 18.1 58.1 39.9 83.1 121 75 243.1H186.9c-4.4-35.9 6.9-52.6 33.9-50.2 23 2.4 47.8 4.2 74.4 5.4-11.3-11.7-19.4-32.5-24.2-62.3-29.4-11.3-63.1-31.5-101-60.5-1.6 16.5-4.4 40.7-8.5 72.6 8.5 32.3 5.6 45.6-8.5 39.9l-33.9 54.4c-15.7.4-31.2.6-46.6.6H42.3c-4-11.7-2.2-23.4 5.4-35.1 7.7-11.7 21.4-16.5 41.1-14.5 28.2-14.9 28.6-64.3 1.2-148.2-17.3-10.5-32.5-32.4-45.4-65.6-12.9-33.3-10.9-75.7 6-127.3.2-24-5.4-40.1-16.7-48.2zm305.4 226.2c18.5-.4 35.7 15.5 51.4 47.8 15.7 32.3 30.4 57.1 44.2 74.4-4-61.3-28.4-108.7-73.2-142.1-9.3 5.6-16.8 12.3-22.4 19.9zM21.2 128.2c9.7 1.2 17 .7 22.1-1.5 5-2.2 7.8-.9 8.2 3.9.4 4.8-2.7 5.9-9.4 3.3s-13.6-2.7-20.9-.3c-.4 7.3 7.5 9.5 23.6 6.7 10.1 14.1 16.2 26 18.4 35.7 2.2 9.7 3.1 19.4 2.7 29-21.8 56-18.5 110.1 9.7 162.1-6.5-9.3-10.1-26.4-10.9-51.4-.8-25 10.1-47.3 32.7-66.8 22.6-19.6 41.7-29.3 57.5-29.3 15.7 0 28.8 6.7 39.3 20l-4.8 4.2c-10.5-10.9-22.6-16.3-36.3-16.3-13.3 0-30 10.9-50.2 32.7-20.2 21.8-27 44.9-20.6 69.3 6.5 24.4 17.3 51.3 32.7 80.7 15.3 29.4 26.6 30.5 33.9 3.3 7.3-27.2 9.7-48.2 7.3-62.9-2.4-14.7-.5-18.7 5.7-12.1 6.2 6.7 10.7 12.4 13.3 17.2 2.6 4.8 1.5 21.6-3.3 50.2 39.1 33.5 71.2 54.8 96.2 64.1-2.4-29.8 2.8-56.6 15.7-80.1 12.9-23.6 28.4-41.4 46.6-53.5-24.6-22.6-55.8-41.3-93.7-56.2-10.5-34.3-31-62.7-61.7-85.3.8-4 2.2-6 4.2-6l5.4 1.8c-2-2.4-5.6-6.5-10.9-12.1 0-3.6 1.8-5.4 5.4-5.4l-11.5-9.1c0-4.8 1.6-7.3 4.8-7.3l-9.1-7.9c0-4.8 1.4-7.3 4.2-7.3l-10.3-7.9 1.2-5.4h6.7L154.2 115l6.7.6L144 97.5l11.5 1.2c-8.1-7.3-13.1-10.9-15.1-10.9 0-5.6 3.1-10.8 9.4-15.4 6.2-4.6-.7-23.1-20.9-55.3h-1.2c-10.1 35.5-25 53.4-44.8 53.8-27-.8-42.3 2.6-46 10.3-3.2 4-11.3 8.5-24.2 13.3 8.5-2.8 12.7 1.8 12.7 13.9-6.5.8-9.7-.1-9.7-2.7s-.6-3.1-1.8-1.5c0 12.3 2.4 20.4 7.3 24zm209.2 130.7l13.9 14.5-13.9-14.5z"/></svg>