<svg xmlns="http://www.w3.org/2000/svg" viewBox="0 0 595.3 533.6"><path d="M90.4 82.8h7c7.9.9 12.1 3.2 12.5 7-11.6 6.5-20.4 9.3-26.4 8.3l-7.7-5.6c.9-7.9 5.8-11.1 14.6-9.7zm365.8 185c-15.3 44.1-19.9 89.5-13.9 136.3 10.7-32.5 23.4-64.7 38.3-96.7 2.3-27.8-5.8-41-24.4-39.6zM170.4 265L146 220.5l-8.3-23c-6-18.1-12.1-32.7-18.1-43.8-6-11.1-19.2-16.5-39.6-16-27.8 3.2-46.4 3.9-55.6 2.1-7.9-.9-11.8-5.8-11.8-14.6-10.3-9.3-14.3-19-12-29.2 4.6-5.1 14.6-9 29.9-11.8 15.3-2.8 26.2-6 32.7-9.7.5-4.6 10-10.2 28.5-16.7-1.4-13-.9-32.2 1.4-57.7 17.6 11.1 25.3 29.4 23 54.9l2.1-1.4 4.2-50.8c15.8 1.9 23.4 21.3 23 58.4 13.9 23.6 29.8 47.2 47.6 70.6 17.9 23.4 42.8 39 74.8 46.6 32 7.7 77.3 9.2 136 4.5 58.7-4.6 104.9.7 138.8 16 19.9-9.7 30-22.4 30.3-37.9s-5.2-24.8-16.3-27.8c-11.1-3-19.6-.9-25.4 6.3-5.8 7.2-6.4 14.7-1.7 22.6 4.6 7.9 9.5 10 14.6 6.3s4.9-8.6-.7-14.6l9.7-6.3c7 10.2 7.8 19.2 2.4 27.1-5.3 7.9-14 9.7-26.1 5.6-12.1-4.2-17.6-15.2-16.7-33 .9-17.9 12.9-27.2 35.8-28.2 23-.9 35.4 11.1 37.2 36.2 1.9 25-7 43.1-26.4 54.3 9.3 26 11.8 49.2 7.7 69.6-4.2 20.4-7.8 43.9-10.8 70.6-3 26.7 2.8 45.1 17.4 55.3 14.6 10.2 21 18.3 19.1 24.3-1.9 6-2.7 12.9-2.4 20.5.2 7.7 2 30.3 5.2 67.8 0 10.7-6 16-18.1 16h-36.9c3.7-12.5 9.7-18.8 18.1-18.8h6.3c7.9 1.9 10.8-10.5 8.7-37.2-2.1-26.7-14-48.8-35.8-66.4-21.8-17.6-38.3-45.2-49.4-82.8-20.9 39-30.8 67.1-29.9 84.5.9 17.4-1.2 27.5-6.3 30.3-5.1 2.8-12.8 13.1-23 31s-17.9 35.8-23 53.9c-5.6 3.7-10.4 5.6-14.6 5.6H345c4.2-13 11.6-19.5 22.3-19.5h16c20.4-25 35-58.4 43.8-100.2-4.6-54.7-.7-103.4 11.8-146.1-14.4 4.2-38.3 10.8-71.6 19.8-33.4 9-64.9 11.9-94.6 8.7-4.2 8.8-4.1 24.6.3 47.3s8.3 39 11.8 48.7c3.5 9.7 2.9 16.8-1.7 21.2-4.6 4.4-7.9 36.7-9.7 97 0 16.7-4.9 24.3-14.6 23H219c1.4-12.5 10.9-18.8 28.5-18.8 6.5-2.3 10.3-20.2 11.5-53.6 1.2-33.4-.1-58.1-3.8-74.1-3.7-16-18.3-37.7-43.8-65l-41 186.4c-7 16.7-15.3 25-25 25h-41.7c3.2-13.9 10-20.9 20.2-20.9h12.5c10.2-.9 19.2-15 27.1-42.1 7.9-27.1 11.2-47.4 10.1-60.9-1.2-13.4 0-24 3.5-31.6 3.5-7.7 4.4-24 2.8-49-1.8-25-4.9-46.4-9.5-64zm77.2 59.1c1.9-36.2 11.2-51.4 28.2-45.6 16.9 5.8 45.3 3.4 85.2-7.3 39.9-10.7 73.5-18.1 100.9-22.3 19.9-3.2 35.2 18.5 45.9 65.4 10.7 46.8 20.6 68.2 29.9 64 .5-28.3 3.7-58.7 9.7-91.1 6-32.5 4.2-53.7-5.6-63.6-9.7-10-23.8-17.3-42.1-21.9-18.3-4.6-56.3-5.2-114.1-1.7-57.7 3.5-102.1.7-133.2-8.3s-55.4-25.2-73-48.3c-17.6-23.2-33.8-45.7-48.7-67.5-8.3-7.9-23.6-8.8-45.9-2.8-7 1.9-13 6.3-18.1 13.2C52.8 89 37 92.7 19.4 97.4c2.8 1.4 4.2 3.6 4.2 6.6 0 3-1.4 4.8-4.2 5.2-2.8.5-4.4-.2-4.9-2.1 3.2-1.4 3.5-3 .7-4.9-2.8-1.9-4.4-1.6-4.9.7 2.8 14.4 10.7 19.9 23.6 16.7s19.5-3.2 19.5 0-.8 4.6-2.4 4.2c-1.6-.5-11.5-.9-29.6-1.4.5 6 19.9 6.7 58.4 2.1 28.3-3.2 45.7.6 52.2 11.5s12.1 26 16.7 45.2c4.6 19.2 16.7 43.2 36.2 72s33.7 47.9 42.8 57.4c9.1 9.5 15.7 14 19.9 13.5z"/></svg>