<svg xmlns="http://www.w3.org/2000/svg" viewBox="-10 0 1118 955"><path d="M62 955v-58h57q9-26 24-69.5t33-95.5q18-52 36-103.5t33.5-95q15.5-43.5 25-70L280 437 163 192l-173-16v-36l158-45 39-86h9l3 40 34-49h8l-3 138 76 141q13 25 46.5 35.5T426 325q41 0 72-3t65-8q38-5 81.5-10.5t83-9Q767 291 792 291q48 0 91 10t61 16q9-3 26-10.5t30.5-20Q1014 274 1014 257q0-18-13.5-29.5T952 216q-7 0-11-4.5t-4-9.5q0-5 3.5-9.5T951 188q44 0 68 15.5t24 53.5q0 26-16 43t-35 25.5q-19 8.5-28 11.5 11 16 23.5 40.5T1002 423q1 19 7 51.5t15 63.5q9 31 21 47 14 17 32 38.5t31 35.5l-48 296h-96v-58h49l23-222q-29-32-59.5-65.5T926 535q-4-7-7.5-14.5T911 506q-4 19-7.5 41.5T900 588q0 22 5.5 51t11.5 42q-14 14-35 53t-47 96q-26 57-56 125h-89v-58h56q14-36 31.5-76.5t32.5-75q15-34.5 23-49.5-7-21-17-56.5T795.5 564q-10.5-40-19-76T764 430q-25 3-64.5 9.5t-86 15q-46.5 8.5-93 18T436 490q5 15 16 48.5t25 73q14 39.5 25 72.5l17 271H409v-58h46q-1-32-3-70.5t-4.5-70.5q-2.5-32-6.5-45-3-13-17-37t-32-51q-18-27-34.5-50T332 538q-13 24-34 69.5T251.5 711q-25.5 58-51 121.5T152 955zM167 92l3-1 15-21V46zm261 843h70l-15-248-9.5-28.5-18-53.5q-18-53.5-22.5-65.5T411 475q49-10 106-22t111.5-22q54.5-10 96.5-16t62-6q46 0 76.5 17t50 44q19.5 27 32.5 56 18 42 49.5 74.5T1057 667l-29 250h-45v18h62l43-270q-11-11-28-30.5t-30-37.5q-13-18-23-51.5t-16-67q-6-33.5-9-53.5-2-18-15.5-44.5T942 336q-8-3-31-9t-54.5-11q-31.5-5-64.5-5-23 0-62 3.5t-82.5 9Q604 329 566 333q-31 4-64 7.5t-76 3.5q-44 0-79-12.5T296 289l-78-146 3-95-38 55L6 152v9l168 15 167 342q1 2 12.5 17.5t28 38.5q16.5 23 33.5 48.5t29.5 48Q457 693 460 706q3 17 6.5 53.5t5.5 79q2 42.5 3 78.5h-47zM165 140q-14 0-14-11 0-9 14-9 15 0 15 9 0 11-15 11zm544 795h60q19-46 42.5-96.5t45.5-94q22-43.5 37-67.5-5-15-9-41.5t-4-47.5q0-23 5.5-53t10.5-52q-16-22-42-38.5T787 428h-4q4 24 13.5 62t20.5 79q11 41 21 76t17 52q-9 17-25 51t-35.5 78.5Q775 871 754 917h-45zm-628 0h60q11-31 29.5-76t39.5-95q21-50 42-98.5t39-87q18-38.5 29-59.5l-28-57-163 455H81z" fill="currentColor"/></svg>