<svg xmlns="http://www.w3.org/2000/svg" viewBox="-10 0 1190 970"><path d="M1176 970q-58-27-88-82t-57-134q-10-29-20.5-67T989 609.5Q978 570 965.5 537T940 486h-3l41 133q1 4 2.5 9t1.5 10q0 16-11 26.5T934 675H782q-5 1-26 3.5t-45 2.5q-15 0-38-1.5t-35-3.5l-2 6-2 4h-94v-44q2-6 16-21.5t41-15.5q15 0 34.5 4t32.5 9q17-2 50.5-8.5T795 600q-21-16-44-38.5T715 521q-16 12-51 30t-80 32q-45 14-91 14h-30v21q0 29-15 40.5t-35.5 14Q392 675 374 675H261q-8 0-23 1t-31 2q-19 1-38 2.5t-30 1.5q-11 0-28-3t-29-6l-9 13h-83v-51q7-11 24-22.5T53 601q12 0 26 4t22 9q12-1 48-6t82-10.5q46-5.5 85-10.5l-4-30q-9-6-31.5-26T243 483q-6-12-16-44.5t-20.5-72Q196 327 188 294q-35-9-70.5-18.5T47 258q-23-6-38-18t-15-28v-27l87-3q10-13 28.5-27t37-23.5Q165 122 177 121q9-25 11.5-56T191 0h23q7 11 16 30.5T244 68q6-31 6-68h23q9 16 18 41.5t9 47.5q0 14-4.5 31T283 152q14 19 26 43t22 45q3 6 6 14.5t6 15.5q11 29 25.5 59t30.5 36q25 8 54.5 9.5T507 376q23 0 56.5-6t62.5-11q42-8 79-13.5t72-5.5q65 0 118 29t93.5 73.5q40.5 44.5 70 93.5t48 91q18.5 42 26.5 64 23 62 35 123.5t12 111.5q0 7-1.5 20t-2.5 24zM197 120h29q1-5 1.5-11t.5-13q0-14-6-32.5T211 34q-2 23-4.5 45t-9.5 41zm963 819v-13q0-49-11.5-107T1115 698q-7-19-24-58.5t-44.5-87.5q-27.5-48-67-92t-90-72.5Q839 359 777 359q-32 0-69 6t-79 14q-27 5-61.5 10.5T507 395q-25 0-56-2t-58-10q-22-9-39-41.5T324 277q-3-8-5.5-15t-4.5-14q-10-20-20-41.5T273 168q-2 3-5 6l-5 5-13-16q13-14 21.5-33.5T280 89q0-12-3.5-27T269 37q-2 22-6 43t-11 40q-8 22-13 30.5t-8 13.5l-17-11q1-3 3-6.5t4-6.5q-46 0-74.5 15T92 201l-78 1v15l70 1v12l-49 3q8 5 17 6l153 39q8 34 18 74.5t20 74q10 33.5 18 47.5 9 17 23 31t26 25q-1-5-1-9v-8q0-20 3-41t9-35l17 8q-5 12-7 31t-2 37q0 10 1.5 26t6.5 62L96 634q-6-5-17.5-9T53 621q-14 0-26 6.5T9 641v25h11v-17h11v17h14v-17h11v17h7q2-4 5-8.5t5-6.5q13 4 32 7.5t34 3.5q11 0 29-1.5t37-2.5l32-2 24-1h113q14 0 30.5-1.5t28-9Q444 637 444 618V510h19v67h30q40 0 81-13t75.5-30.5Q684 516 704 503q-5-10-11-32t-6-31h19q0 7 4.5 25t9.5 27q6 12 20 28.5t32 33q18 16.5 34.5 29.5t26.5 17l-3 17q-60 0-101 8t-70 13q-11-5-29-9t-33-4q-14 0-24 7.5T559 647v19h13v-17h11v17h14v-17h11v17h12q4-8 6-14 21 6 43 7.5t42 1.5q18 0 38-2t31-3h154q28 0 28-18 0-7-3-14l-40-127q0-12 2.5-27.5T929 449q26 26 43.5 62.5t30 78Q1015 631 1026 672t23 75q26 75 49 122.5t62 69.5zM173 189q-14 0-14-10t14-10q15 0 15 10t-15 10z" fill="currentColor"/></svg>