<svg xmlns="http://www.w3.org/2000/svg" viewBox="0 0 587 513.5"><path d="M122.4 48.9c4.3-2.1 6.4-8.4 6.4-18.7V.6l9-.6c18 26.2 27 48.3 27 66.3 0 6.4-.6 15-1.9 25.8 15.5 26.2 31.8 48.3 48.9 66.3 17.2 18 37.6 27 61.2 27 24 0 51-5.3 80.8-15.8 29.8-10.5 53.9-14.6 72.1-12.2 18.2 2.4 37.5 18.6 57.6 48.6 20.2 30.1 45.7 87.6 76.6 172.6 30.9 85 35 129.9 12.2 134.6-27 5.6-65.5-73.2-115.3-236.3H281.4v-14.8c3.9-12 15.3-17.1 34.5-15.1 19.1 1.9 32.7 1.2 40.9-2.3-3-4.3-3.6-10.9-1.9-20-30.5 13.7-53.6 22.4-69.2 26.1-15.7 3.6-32.4 5.2-50.2 4.5-17.8-.6-32.5-1.5-44.1-2.6-11.6-1.1-24.3 7-38 24.1H.1c0-17.2 6.2-29.6 18.7-37.4 5.2-.9 17-.4 35.4 1.3 18.5 1.7 36.1-1.1 52.8-8.4 17.6-33.1 24.1-53.9 19.6-62.5-4.5-8.6-7.7-19.3-9.7-32.2-1.9-12.9-6.4-18.9-13.5-18-7.1.9-14.3-1-21.6-5.5-7.3-4.5-20.3-4.8-39-1-18.7 3.9-28.2.2-28.7-10.9-5.6-4.3-8.8-7.9-9.7-10.9-3.4-6 2.5-10.6 17.7-13.8 15.2-3.2 26.9-6.2 35.1-9C65.5 65.8 72 61.8 77 56.7c4.9-5.2 20-7.8 45.4-7.8zm14.1-18.6c.4 20.2-4.5 30.3-14.8 30.3-24 0-37.6 1.9-40.6 5.8s-9.9 7.3-20.6 10.3c-10.7 3-24.9 6.9-42.5 11.6-3.6 1-.3 10.6 3.2 11 2.2 3.3 32.3-5.2 36.8-6.5 4.5-1.3 6.3-3 6.6.5.3 3.8-2.6 3.5-5.8 3.5-3.2 0-29.9 5.4-33.3 6.3-3.4.9-1.8.8-.5 2.5s9.1.9 23.5-2.6c14.4-3.4 25.5-3.2 33.5.6 7.9 3.9 15.1 5.4 21.6 4.5 6.4-.9 11.5.9 15.1 5.2 3.6 4.3 6.5 12.8 8.7 25.4 2.1 12.7 6.2 22.3 12.2 29 6 6.7 5 20.3-2.9 40.9s-14.1 34.1-18.4 40.6c-24 6-46.9 7.8-68.6 5.5-21.7-2.4-32.3 1.2-31.9 10.6l124.9-.6c13.3-18.9 29-27.8 47-26.7s39.1 2.3 63.1 3.5c24 1.3 65.3-12.2 123.6-40.6-10.7 15.5-13.4 27.9-8 37.4 5.4 9.4 17.1 15.2 35.1 17.4v1.9c-18 .4-32.4.6-43.1.6-10.3 0-21.9-.6-34.8-1.9-12.9-1.3-23 1.5-30.3 8.4H455c10.3-7.3 11.6-14.8 3.9-22.5V230c9.4 4.3 14.2 15.9 14.2 34.8 42.1 126.2 74.1 204.1 96 233.8 2.6-18-3.6-46.6-18.7-85.7-15-39.1-29.4-76.8-43.1-113.3-13.7-36.5-27.5-65.9-41.2-88.2-13.7-22.3-28.4-34.5-44.1-36.4-15.7-1.9-39.1 2.3-70.2 12.6s-57.9 15.5-80.2 15.5c-22.3 0-42.1-7.3-59.2-21.9-17.2-14.6-30.6-28.8-40.2-42.5-9.7-13.7-18.8-29.4-27.4-47 6.4-9 9.7-16.5 9.7-22.5V65c-.4-11.6-6-27.7-16.7-48.3h-1.3c8.6 20.6 13.1 37.1 13.5 49.6 0 4.3-3.4 10.1-10.3 17.4l-3.9-5.8c11.7-5.1 11.9-21 .7-47.6zm-21.2 45c-4.3 3.4-10.8 5.9-19.6 7.4s-13.8-.1-15.1-4.8c0-6 5-8.4 15.1-7.1 10 1.3 16.6 2.8 19.6 4.5z"/></svg>