<svg xmlns="http://www.w3.org/2000/svg" viewBox="-10 0 1201 1216"><path d="M-10 1216l79-434H49q0-10-3-23.5T33 732q-10-13-32-19v-79q7-11 24-22t40-11q12 0 25.5 4t21.5 8q11-1 47.5-5.5t82-10Q287 592 327 587l-4-30q-8-7-31-26.5T254 483q-7-12-16.5-44.5t-20-72Q207 327 199 294q-35-9-70-18.5T59 257q-24-5-39-17T5 212v-27l87-3q11-13 29-27t37-24q19-10 31-11 8-24 11-55t3-65h23q7 11 16 30t13 38q6-31 6-68h23q9 16 18 41.5t9 47.5q0 14-5 31t-12 32q14 19 26.5 43t21.5 45q3 6 6 14.5t6 15.5q12 29 25.5 59t30.5 35q25 8 54.5 10t54.5 2q22 0 56-6t62-11q42-8 79-13.5t72-5.5q65 0 118 28.5t94 73.5q41 45 70.5 94t48 91q18.5 42 26.5 64 22 62 34 123.5t12 111.5q0 7-1 20t-2 23q-59-26-89-81t-57-134q-10-29-20.5-67.5T1000 609q-11-39-23-72t-26-51h-3l41 132q2 5 3 10t1 10q0 15-9 29h27v46q-22 6-32 19t-13 26.5q-3 13.5-3 23.5h-21l80 434zM209 120h28q1-5 1.5-11t.5-13q0-15-6-33.5T222 33q-1 23-4 45.5t-9 41.5zm962 819v-13q0-49-11-107t-34-122q-7-19-24-58.5t-44.5-87q-27.5-47.5-67-91.5t-90-72.5Q850 359 788 359q-31 0-68.5 6T641 379q-28 4-62 10t-60 6q-26 0-57-2t-58-10q-23-9-39.5-41.5T336 277q-3-8-5.5-15.5T325 248q-9-21-19.5-42T284 168q-5 7-10 10l-13-15q13-14 22-34t9-40q0-13-4-27.5T280 37q-2 22-6 43t-11 40q-8 22-12.5 30t-8.5 14l-17-11q2-3 4-6.5t3-7.5q-47 0-75 15t-54 46l-78 1v15l70 1v13l-49 3q4 2 8.5 3t9.5 3l152 39q7 34 17.5 74.5t21 73.5q10.5 33 17.5 47 9 17 23 31.5t26 24.5q-1-4-1-8v-8q0-20 3-41t9-35l18 8q-5 12-7.5 31t-2.5 37q0 10 1.5 26t6.5 62l-241 33q-6-5-17-9.5T65 620q-14 0-26 7t-18 14v25h10v-17h11v17h14v-17h11v17h7q2-4 5.5-8.5T85 651q13 5 32 10.5t33 5.5h239q21-1 43.5-12t22.5-37V509h20v68h29q41 0 82-13t75-30.5q34-17.5 54-30.5-5-10-11-32t-6-31h19q0 7 5 25t9 26q8 16 30 39.5t45.5 43.5q23.5 20 37.5 25l-3 17q-60 0-101 8.5T670 637q-11-4-29-8t-33-4q-13 0-23 7.5T570 647v19h13v-17h11v17h14v-17h12v17h11q4-8 6-14 20 5 40 9.5t38 5.5h232q14-1 20-11.5t6-17.5q0-7-3-14l-40-127q0-12 2.5-27.5T940 449q25 26 43 62.5t31 77.5q13 41 24 82.5t23 75.5q26 74 48.5 122t61.5 70zM184 189q-14 0-14-10t14-10q15 0 15 10t-15 10zm269 478h98v-26q2-6 16-21t41-15q15 0 34.5 4t32.5 9q16-2 50-8.5t81-9.5q-21-16-44-38.5T726 521q-17 12-51.5 29.5t-79 31.5Q551 596 504 596h-29v22q0 17-6 29t-16 20zM55 723h902q10-15 35-22l-1-15H21l-1 15q13 4 21.5 9.5T55 723zm12 40h877q1-4 1-9.5t2-10.5H64q3 10 3 20zm-53 434h404v-197h176v197h404l-76-415H89zm424 0h136v-177H438z" fill="currentColor"/></svg>