<svg xmlns="http://www.w3.org/2000/svg" viewBox="0 0 576.6 500.2"><path d="M451.5 257.7c5.9 5.6 4.5 11-4.5 16.2-18.6 13.4-27.3 25.8-26.2 37.4 12.6 0 19 2.4 19 7.2-.4 6.3-7.6 9.5-21.7 9.5l25.6 172.3H258.6v-93.7h-64.1v93.7H7.2l29-171.7c-15.2 0-22.9-3-22.9-8.9 0-5.6 6.3-8.4 19-8.4-5.2-11.5-13.6-24-25.1-37.4-8.5-5.2-9.5-10.6-2.8-16.2h447.1zM32.8 273.9c11.2 13.4 17.8 25.8 20.1 37.4h347.3c2.6-11.5 8.5-24 17.8-37.4H32.8zm22.9 54.6L30.6 481.3h142.2V387h107.6v93.7h142.2l-25.1-152.8-341.8.6zM194 130L265.3 6.2c7.1-10.4 15.2-7.8 24.5 7.8l87.5 122.1-8.4 3.9-9.5-13.4-10.6 4.5 7.8 14.5-8.4 3.9-6.7-13.9-11.2 4.5 6.1 15.1-8.4 3.9-52.1-142.8-73.6 124.9L194 130zm134.3 1.1l7.8-5-33.5-63 25.7 68zm-18.4-71.3l35.1 62.4 8.4-3.3-43.5-59.1zm-175-8.4c4.1-2.2 6.1-8.2 6.1-17.8V5.1l8.4-.6c17.1 25.3 25.8 46.5 26.2 63.6 0 6.3-.7 14.5-2.2 24.5V92c14.5 24.9 30 46 46.6 63.3s36 25.9 58.3 25.9c23 0 48.7-5 76.9-15.1s51-13.9 68.3-11.7c17.3 2.2 35.7 17.7 55.2 46.3 19.5 28.6 43.9 84.1 73 166.4 29.2 82.3 32.8 125.7 10.9 130.2-25.3 5.6-61.5-70.8-108.7-229.1H286v-13.9c3.7-11.2 14.7-15.9 32.9-14.2 18.2 1.7 31.2 1 39-2-2.6-4.5-3.2-10.8-1.7-19-29.4 12.6-51.5 20.8-66.3 24.5-14.9 3.7-30.8 5.2-47.7 4.5-16.9-.7-30.8-1.7-41.8-2.8-11-1.1-23.1 6.5-36.5 22.9H18.4c0-16.4 5.8-28.2 17.3-35.7 5.2-.7 16.6-.3 34.3 1.4 17.7 1.7 34.3-1 49.9-8.1 16.7-31.2 22.9-50.5 18.4-57.7-4.5-7.2-7.1-16.4-7.8-27.6-.7-11.2-4.6-17.2-11.7-18.1-7.1-.9-14-3.3-20.9-7-6.9-3.7-19.5-4.2-37.9-1.4-18.4 2.8-27.8-1.2-28.2-12-5.6-4.1-8.7-7.6-9.5-10.6-3.4-5.4 1.7-9.8 15.3-13 13.6-3.2 24.7-6 33.5-8.6 8.7-2.6 15.5-6.3 20.3-11.2 4.8-4.8 19.3-7.2 43.5-7.2zm13.3-17.8c.4 19-4.3 28.6-13.9 29-22.7 0-35.6 1.9-38.7 5.6-3.2 3.7-9.8 7-20.1 9.8-10.2 2.8-23.7 6.4-40.4 10.9-.4 3 .7 6.1 3.3 9.5 6.3-.7 14-2 23.1-3.9s13.6-1.6 13.4.8c-.2 2.4-4.5 3.9-12.8 4.5-8.4.6-14 1.2-17 2-3 .7-4 2-3.1 3.6.9 1.7 8.5 1.3 22.9-1.1 14.3-2.4 25.3-1.9 32.9 1.7 7.6 3.5 15.1 5.6 22.6 6.1 7.4.6 12.5 2.3 15.1 5.3 2.6 3 4.6 9.5 5.9 19.5 1.3 10 4.6 18.8 10 26.2 5.4 7.4 4.4 21-3.1 40.7-7.4 19.7-13.2 32.3-17.3 37.9-22.7 5.9-44.4 7.9-65.2 5.9-20.8-2-31 1.2-30.7 9.8h119.3c12.6-18.2 27.5-26.8 44.6-25.6 17.1 1.1 37.2 2.2 60.2 3.3 23 1.1 62.4-11.7 118.2-38.5-10.4 14.5-13.1 26.2-8.1 35.1 5 8.9 16.1 14.7 33.2 17.3v1.1c-16.7.4-30.3.6-40.7.6-10 0-21.2-.6-33.5-1.7s-21.9 1.7-29 8.4h152.8c9.3-7.4 10.4-14.7 3.3-21.7V224c8.9 4.1 13.4 15.2 13.4 33.5 39.8 122.7 70.1 198.1 90.9 226.4 2.6-17.5-3.2-45.4-17.3-83.9-14.1-38.5-27.8-75-41-109.6-13.2-34.6-26.3-62.5-39.3-83.9-13-21.4-27-33-42.1-34.8-15.1-1.9-37.4 2.1-66.9 12-29.5 9.8-54.9 14.8-76.1 14.8-21.6 0-40.5-7.1-56.9-21.2s-29.1-27.7-38.2-40.7c-9.1-13-17.6-27.9-25.4-44.6 5.6-8.5 8.4-15.6 8.4-21.2V67c0-11.2-5.2-26.6-15.6-46.3h-1.1c8.2 19.7 12.3 35.5 12.3 47.4 0 4.1-3.2 9.7-9.5 16.7l-3.3-6.1c11.1-4.8 11.3-19.9.5-45.1zm-20.6 43.5c-3.7 3-9.8 5.2-18.1 6.7-8.4 1.5-13.3 0-14.8-4.5 0-5.9 4.8-8.4 14.5-7.2 9.7 1 15.8 2.7 18.4 5z"/></svg>