<svg xmlns="http://www.w3.org/2000/svg" viewBox="0 0 593.6 403.9"><path d="M166 137.9v-.9c1.8-10.1 9.3-15.1 22.6-15.1 4.7.6 7.1 1.5 7.1 2.7v.9c0 5-7 10.5-20.9 16.4-4.6 0-7.6-1.3-8.8-4zm-103.4.9v-.9c1.8-10.1 9.3-15.1 22.6-15.1 4.4.3 6.7 1.2 6.7 2.7v.9c0 5-6.8 10.5-20.4 16.4-4.8 0-7.7-1.3-8.9-4zm169.1 160.7c-2.1-4.7-7.7-7.1-16.9-7.1l-7.5 17.8 4 48.4c14.8-24.6 21.6-44.3 20.4-59.1zm-76.3-196.6c-15.7-.3-24.7 1.8-27.1 6.2-4.7 2.1-12.4 12.1-23.1 30.2L83 169c-1.5 7.1 1.6 12.3 9.3 15.5 6.8-3 12.6-5.3 17.3-7.1-3-3.3-1-7.8 5.8-13.5 6.8-5.8 14.5-16.2 23.1-31.3l-14.2 9.3c-4.7 0-7.7-1.3-8.9-4v-.9c1.8-10.1 9.3-15.1 22.6-15.1l3.6 1.3c4.2-8.2 8.7-15 13.8-20.3zM260.6 252v-16c0-32 10.9-55.8 32.8-71.5-11 27.5-15.5 49.1-13.5 64.6 1.9 15.5 6.6 26.4 14 32.6 11.5 5 31 6.5 58.4 4.4 27.4-2.1 43.4-1.4 47.9 2 4.6 3.4 14 3.4 28.2 0s30.3-5.1 48.4-5.1c-14.8-17.8-23.7-42.2-26.6-73.2 9.8 15.7 17.8 28.4 24 38.2 6.2 9.8 14.2 18.3 24 25.5 9.8 7.3 19.4 10.9 28.9 10.9 15.1-23.1 22.8-46.1 23.1-69 .3-22.9-7.5-34-23.5-33.1L394.2 161c-56.5-.9-101.8-9.5-135.8-25.7l-6.2-4.4-13.3 4.9-9.8-4c18.3-13.3 28.6-25.7 30.6-37.3-14.5 7.1-21.8 12-21.8 14.6-4.7 11-12.9 17.6-24.4 20 6.2-5.6 9.3-11.2 9.3-16.9 0-4.1-4.4-7.4-13.3-9.8-21 0-32.7 2.2-35.1 6.7-4.4 2.1-12.1 12.1-23.1 30.2L129.2 169c-1.2 7.1 1.9 12.3 9.3 15.5 23.1-10.1 38.6-15.1 46.6-15.1 15.4 0 28.4 8.3 39.1 24.9 13.3 27.3 25.4 46.5 36.4 57.7zM105.7 102c-14.8-.3-25.3 2.4-31.5 8-4.4 2.1-12.1 12.1-23.1 30.2l-22.2 29.7c-1.2 7.1 1.9 12.3 9.3 15.5 9.8-4.1 17.9-7.4 24.4-9.8-3-3-1.3-6.5 4.9-10.7 8-6.5 14.8-15.8 20.4-28 5.6-12 11.5-23.7 17.8-34.9zm31.5-20.4l-4.9 6.2H143l-5.8-6.2zm44.8 8c13.3-1.5 23.5-5.3 30.6-11.5 18.1-13.9 38.3-38.8 60.8-74.6 3.8-4.4 6.7-4.6 8.4-.4-2.4 11.8-10.3 28.3-23.7 49.3-13.5 21-23.3 33.4-29.5 37.3l8.9 6.7c7.1-6.8 17.8-12.3 32-16.4.6 5.3.5 9.8-.2 13.5-.7 3.7-3.9 10.6-9.5 20.6 34.3 20.1 86.9 30.2 157.6 30.2h143.4c6.5.6 14.6 8.1 24.4 22.6 2.7 5 5.2 12.3 7.5 21.8 1.8 76.4 1 123-2.2 139.8-2.7 5.6-5.8 4.4-9.3-3.6-11.5-27.8-16-54.7-13.3-80.8 2.7-26 2.1-48.4-1.8-67-2.1 26.6-6.7 55.2-13.8 85.7 0 18.6 7 44.2 20.9 76.8-6.8 8-8.7 19.8-5.8 35.5-5.6 3.3-7.7 7-6.2 11.1l4.4 14.2c-.9 1.8-3.1 3-6.7 3.6h-29.3c2.4-9.8 5.2-16.6 8.4-20.4l5.8-14.6c2.7-12.7 4-22.8 4-30.2 0-19.2-8.4-33.4-25.3-42.6-23.4 26.3-35.1 53-35.1 79.9-6.5 2.1-10.1 7-10.7 14.6 3 7.1 1.8 11.5-3.6 13.3H442c3-9.5 7-16.9 12-22.2 17.2-23.7 25.6-52.2 25.3-85.7-23.4 26.3-35.2 53-35.5 79.9-6.5 2.1-10.1 7-10.7 14.6 3 7.1 1.8 11.5-3.6 13.3h-30.6c2.7-9.5 6.7-16.9 12-22.2 14.5-24.9 22.3-45.4 23.3-61.7 1-16.3 1.6-24.3 1.6-24-23.4 26.3-35.1 53-35.1 79.9-6.5 2.1-10.1 7-10.7 14.6 3 7.1 1.8 11.5-3.6 13.3h-31.1c3-9.5 7-16.9 12-22.2 16.9-22.8 25.3-50.5 25.3-83 .6-11.5-10.2-17.3-32.4-17.3-12.4 0-30.3 2.8-53.7 8.4 0 8 1.9 32.8 5.8 74.6l3.1 16.4c-4.4 3.3-6.4 7-5.8 11.1l3.1 12h-35.5c1.5-10.4 4.6-17.5 9.3-21.3 4.4-10.7 6.7-17.6 6.7-20.9 0-14.8-3.6-33.4-10.7-55.9-5-8.9-12.6-11-22.6-6.2l5.8 64.8 3.1 16.4c-4.1 3.3-5.9 7-5.3 11.1l3.1 12h-35.5c1.2-10.4 4.3-17.5 9.3-21.3 4.4-10.7 6.7-17.6 6.7-20.9 0-7.7-1-16.3-3.1-25.7-8.6 21.9-12.9 35.7-12.9 41.3v.9c-6.2 2.1-9.3 5.2-9.3 9.3l1.8 12c.3 3-3.6 4.4-11.5 4.4H178c.6-9.8 3.4-16.7 8.4-20.9 4.4-10.4 6.7-17.2 6.7-20.4.9-5 .7-10.5-.4-16.4-5.3 15.1-8 25.5-8 31.1v.9c-5.9 2.1-8.9 5.2-8.9 9.3l1.3 12c0 3-7.5 4.4-22.6 4.4-10.7 0-16-1.5-16-4.4 0-9.5 4-16.9 12-22.2 18.1-22.5 29.2-44.8 33.3-67-5.9-11.2-13.6-16.9-23.1-16.9-20.1 50.9-30.2 79.2-30.2 84.8v.4c-5.9 2.4-8.9 5.6-8.9 9.8l1.3 12c.3 2.4-7.3 3.6-22.6 3.6-10.7 0-15.8-1.2-15.5-3.6 0-9.5 3.8-16.9 11.5-22.2 25.5-31.4 37.4-64.4 36-99 0-25.5-4.3-44.8-12.9-58.2-8.6-13.3-13.8-21-15.5-23.1-4.1 1.8-9.2 3.3-15.1 4.4-10.4-3.8-15.7-7-16-9.3-14.8 3.8-27.4 7.3-37.7 10.2-12.8-4.6-19.1-10.8-19.1-18.5-9.5-6.2-10.3-12.6-2.4-19.1 7.8-6.5 14.6-15.8 20.2-27.7 5.6-12 11.5-22.9 17.8-32.6C17.2 59.8 0 28.6 0 11.4c.6-2.7 1.5-4 2.7-4 2.7 1.5 7.8 9.3 15.5 23.5 7.1 11.8 19.7 26.5 37.7 43.9C68.1 84.1 77.1 88.7 83 88.7c4.4 0 7.8-.4 10.2-1.3-26-34-39.1-59.5-39.1-76.4.6-3 1.5-4.4 2.7-4.4 2.7 1.5 7.8 9.3 15.5 23.5C79.5 42.2 92 57 110.1 74.5L115 78l10.7-10.2L115 78l10.7-10.2c-16.9-24-25.3-42.9-25.3-56.8.6-3 1.5-4.4 2.7-4.4 2.7 1.5 7.8 9.3 15.5 23.5 5 8.6 11.2 16.9 18.6 24.9 10.9-12.7 22.9-29.6 36-50.6 3.8-4.7 6.7-4.9 8.4-.4-2.4 11.8-13.3 32.8-32.8 63 3.8 5 9.2 9.8 16 14.2 19.2-16 40.1-41.9 62.6-77.7 3.6-4.4 6.4-4.6 8.4-.4-2.4 11.8-10.4 28.3-24 49.3-13.7 20.9-23.6 33.3-29.8 37.2zm-7.1 123.8c-.6 27.8 5.6 44.2 18.6 49.3 11 4.7 12.3 2.5 4-6.7-8.2-9.1-15.8-23.3-22.6-42.6zm-7.1-20.8c-11.2 3.8-20.1 6.8-26.6 8.9-6.5 2.1-11.7.7-15.5-4 2.7 4.4 5.5 10.5 8.4 18.2 6.5 13.3 15.2 25.7 26.2 37.3v-16.4c0-10.4.7-19.1 2.2-26.2 1.5-7.2 3.2-13.1 5.3-17.8zm16-4c-.3 7.1 1.9 16.6 6.7 28.6 4.7 12 12.6 23.6 23.5 34.8-3.8-17.8-4.1-33.9-.9-48.4-8-8.6-12.1-13.6-12.4-15.1h-16.9zm61.7 68.3l-22.2-36c0 10.7 4.7 23.7 14.2 39.1 10.4 9.2 13 8.2 8-3.1z"/></svg>