<svg xmlns="http://www.w3.org/2000/svg" viewBox="-10 0 1228 983"><path d="M113 983v-42l94-59 58-355q-8-13-14.5-23.5T239 483q-7-13-17-45.5T201.5 366Q191 327 184 293q-35-9-70.5-18T43 257q-24-6-38.5-17.5T-10 212v-28l86-3q11-14 29-27t37-23q19-10 31-11 8-25 11-55.5T187 0h23q7 11 16 30t14 37q2-16 4-33t2-34h23q8 16 17 41t9 47q0 32-17 63 14 20 26.5 43.5T327 239q6 14 11 30 8 20 17 47t19 48q10 21 21 25 24 8 53.5 9.5T503 400q23 0 56.5-5.5T621 384q42-7 79-13.5t73-6.5q65 0 120.5 28.5T994 465q45 44 79 92t55 88.5q21 40.5 29 60.5 24 62 42.5 121t18.5 109q0 7-1.5 20t-2.5 24q-58-27-95-79.5T1054 769q-10-29-22-65t-25.5-72Q993 596 979 565.5T951 517h-3q5 30 17.5 71t30 82q17.5 41 38.5 71 0 21-1 50t-3.5 58.5Q1027 879 1024 902l-2 46-53 35h-77v-42l68-51q1-5 1-10.5V870q0-25-3.5-61t-6.5-61q-3-3-5.5-6t-5.5-5l3 19-64 146-18 40-59 41h-78v-42l88-54 35-138v-21q-21-25-45-58t-43-70q-17-16-29-30.5T711 545q-16 12-51.5 29.5t-80 31.5Q535 620 488 621l-36 1 21 38 5 67q-1 22 0 45t1 44q0 11 2.5 29.5t5 34Q489 895 489 897l-1 50-56 36h-77v-42l62-46q-2-10-8-36.5T395 802q-8-30-16-52-7-22-14.5-43.5T347 666l-2 13q-10 25-22.5 55t-22 55.5Q291 815 288 826q-6 21-12 48.5T257 936l-66 47zm80-866h29q1-5 1.5-10.5T224 93q0-14-6-32.5T207 31q-2 23-4.5 44.5T193 117zm179 847h11v-17h12v17h14v-17h11v17h6l44-28v-39q-1-5-3-19.5t-4-31.5q-2-17-3-28-1-23-1.5-46t.5-45q0-2-1-14t-2-27q-1-15-2-25l-61-100 19-1 30 43 46-1q41-1 82-14t75.5-30q34.5-17 54.5-31-6-10-12-31.5t-6-31.5h20q0 8 4.5 25.5T715 516q16 31 47 62t57 51q24 18 52 34.5t54 34.5q26 18 44 42 4 24 7.5 62t3.5 68v30l-71 50v14h11v-17h12v17h14v-17h11v17h6l41-27 2-45q4-29 6-72t3-73q-20-32-36.5-70.5t-29-77.5Q937 560 931 527q0-12 2-27t8-20q34 34 57.5 82.5t41 101Q1057 716 1073 762q26 74 56 119.5t69 67.5v-13q0-33-9.5-72t-23.5-79q-14-40-27-73-7-18-27-56.5t-51.5-85q-31.5-46.5-74.5-89t-96.5-70Q835 384 773 384q-32 0-69.5 5.5T625 403q-28 5-62 11t-60 6q-25 0-56.5-2T389 408q-16-6-28-29.5T339 326q-10-29-19-50-3-7-5.5-14.5T309 247q-9-20-19-41t-22-38q-2 2-4.5 5t-5.5 5l-12-16q13-13 21.5-33t8.5-41q0-12-3.5-26.5T264 36q-3 44-17 83-8 22-12.5 30.5T226 163l-16-11q1-3 3-6t3-7q-46 0-74 15t-55 46l-78 1v11q0 2 1 4l70 1v13l-50 3q4 2 8.5 3t9.5 2l152 39q7 34 17.5 74.5t21 74Q249 459 256 473q20 37 38.5 66.5t36 58q17.5 28.5 34 63.5t33.5 82q9 24 17.5 57.5t15 63Q437 893 438 903l-66 47zM169 189q-15 0-15-11 0-9 15-9t15 9q0 11-15 11zm-39 775h12v-17h11v17h14v-17h11v17h7l56-40q12-41 18-63.5t10-39.5q4-12 13.5-37t21-54q11.5-29 21.5-54l7-40q-12-23-25.5-44T281 551l-59 342-92 57zm612 0h11v-17h11v17h14v-17h12v17h6l49-33 13-29 64-148-4-37q-27-21-57.5-39T805 640q14 22 30 41t31 41v30l-39 146-85 52z" fill="currentColor"/></svg>