<svg xmlns="http://www.w3.org/2000/svg" viewBox="0 0 595.4 529.1"><path d="M515.4 289.9l47.3 180.6c8.4 22.7 14.7 34 18.7 34l2-1.3v-3.3c0-32-22.2-102-66.6-209.9h-1.4zm-85.3-10c-13.3-11.6-28.9-16.2-46.6-14-3.6 35.1-.9 70.2 8 105.3 11.5-40.5 24.4-70.9 38.6-91.3zm-239.9 21.3c-8-10.7-16-22-24-34-1.8 32.4-7.8 65.4-18 99-10.2 33.5-12.2 43.1-6 28.7 6.2-14.4 14.7-33.3 25.3-56.6 10.7-23.3 17.4-35.8 20.3-37.3 3-1.7 3.8-1.6 2.4.2zM123.6 50.6c4.4-2.2 6.7-8.7 6.7-19.3V.7l9.3-.7c18.2 27.1 27.5 50 28 68.6 0 6.7-.9 15.5-2.7 26.7 8.9 14.2 18.8 29.7 29.7 46.3 10.9 16.7 26.2 31.2 46 43.6 19.8 12.4 40.1 18.7 61 18.7s56.2-4.7 106-14c58.6 0 102.6 42.6 131.9 127.9 36 82.6 54.6 140.4 56 173.3-1.3 20.4-4.9 30.7-10.7 30.7h-1.3c-17.8 0-41.5-67.1-71.3-201.2 2.7 32.9 8.9 62.9 18.7 90-.4 31.5 4.7 64.6 15.3 99.3-1.3 7.6-7.6 14-18.7 19.3h-18c-3.1-5.3-3.9-10.4-2.3-15.3s4.3-12.7 8.3-23.3c-4.9-46.2-10.7-74-17.3-83.3-16.9-21.8-36.4-58.4-58.6-110-18.7 15.5-28 38.9-28 70-1.8 12-7.8 27.5-18 46.6L353 523.2l-4.7 5.3H315c-5.3 0-8-3.3-8-10 0-8 8-12 24-12h1.3c12-15.5 26.7-62 44-139.3-6.2-33.3-7.8-66.6-4.7-100-47.1 28-88.4 40-123.9 36 5.3 12 6.7 23.1 4 33.3l1.3 173.3c1.3 12.4-1.1 18.7-7.3 18.7H213c-6.2 0-9.3-3.3-9.3-10 0-8 7.8-12 23.3-12h2c4.9-40 4.4-68.4-1.3-85.3-5.8-16.9-8.4-28.5-8-35 .4-6.4-2.8-21.1-9.7-44-6.9-22.9-10.8-33.4-11.7-31.7l.7.7c-13.8 19.5-23.8 37.1-30 52.6-6.2 15.5-11.3 28.1-15.3 37.7-4 9.6-9.1 20.9-15.3 34-6.2 13.1-16.7 37-31.3 71.6l-6.7 16-5.3 5.3H61.6c-6.2 0-9.3-3.3-9.3-10 0-8 9.3-10.9 28-8.7 17.8-32.4 29-58.6 33.7-78.6 4.7-20 8.6-32.2 11.7-36.7 3.1-4.4 8.8-21 17-49.6 8.2-28.7 11.7-50.5 10.3-65.6-9.3-54.6-18.3-94.3-27-118.9-8.7-24.7-16.7-36.8-24-36.3-7.3.4-14.5-1.4-21.7-5.7s-20.3-4.4-39.6-.7c-19.3 3.8-29-.1-29-11.7-6.3-4.4-9.8-8.2-10.7-11.3-3.6-6.2 2.7-11.3 18.7-15.3S47.8 71.9 56 69c8.2-2.9 15-6.7 20.3-11.3 5.3-4.7 21.1-7.1 47.3-7.1zm16-33.3h-1.3c8.9 21.3 13.3 38.4 13.3 51.3 0 4.4-3.6 10.4-10.7 18l-4-6c12-5.3 12.4-21.8 1.3-49.3 0 20.9-5.1 31.3-15.3 31.3-24.9 0-39 2-42.3 6-3.3 4-10.6 7.6-21.7 10.7-11.1 3.1-25.8 7.1-44 12-.4 3.1.9 6.4 4 10 6.7-.4 12.3-1.3 17-2.7 4.7-1.3 6.7-.8 6 1.7-.7 2.4-2.7 3.7-6 3.7s-6.7.4-10 1.3-4.4 2.2-3.3 4c1.1 1.8 9.1.9 24-2.7s26.2-3.3 34 .7c7.8 4 15.7 5.8 23.7 5.3 8-.4 14.1 2.8 18.3 9.7 4.2 6.9 9 16.5 14.3 29 5.3 12.4 11.6 32.7 18.7 60.6 12 32 24.4 55.2 37.3 69.6 12.9 14.4 22.5 33.3 29 56.6 6.4 23.3 10.9 40.6 13.3 52 2.4 11.3 4.3-12.3 5.7-71-6.7-25.8-11.1-48.2-13.3-67.3l7.3-7.3 8.7 40.6c23.5 11.6 56 5.6 97.3-18 17.3-11.1 33.8-16.7 49.3-16.7 25.8-.9 44.9 8.7 57.3 28.7 19.1 54.6 40.2 91.1 63.3 109.3-4.9-15.5-9.1-52.9-12.7-112-6.2-25.3-20-45.5-41.3-60.6-17.3-9.3-32.9-14-46.6-14-56.4 11.6-93.3 17.3-110.6 17.3-17.3 0-38.6-7.2-64-21.7-25.3-14.4-44.1-32.3-56.3-53.6-12.2-21.3-23-37.5-32.3-48.6 6.2-9.8 9.3-17.8 9.3-24v-4c-.1-11.9-5.6-28.6-16.7-49.9zm-24 60.7c-4 3.6-10.6 6.1-19.7 7.7-9.1 1.6-14.5-.1-16.3-5 0-6.2 5.2-8.7 15.7-7.3 10.4 1.2 17.2 2.8 20.3 4.6z"/></svg>