<svg xmlns="http://www.w3.org/2000/svg" viewBox="0 0 593.3 544.3"><path d="M136.3 155.1c7.1-6.4 10.7-13 10.7-19.8 0-5.3-5.3-9.4-16-12.3-24.9 0-38.8 2.8-41.7 8.5-5.7 2.5-15 14.6-27.8 36.3l-26.7 35.8c-1.8 8.5 2 14.8 11.2 18.7 27.4-12.1 46-18.2 55.6-18.2 25.3 0 45.2 18.2 59.9 54.5 7.5 16 21 38.5 40.6 67.3-9.3-59.5-.5-98.7 26.2-117.6-13.2 33.1-19.2 57.9-18.2 74.3 1.1 16.4 5.5 29.4 13.4 39 7.8 9.6 31.3 11.2 70.3 4.8 39-6.4 61.4-7.6 67.1-3.5 5.7 4.1 17 4.1 33.9 0s38-5.3 63.3-3.5c-21.4-23.5-33.8-54-37.4-91.4 11.8 19.2 21.4 34.7 28.9 46.5 7.5 11.8 14.7 19.8 21.6 24 6.9 4.3 19.1-.5 36.3-14.4 17.3-13.9 27.3-32.4 30.2-55.6 2.9-23.2-5.5-34.4-25.1-33.7l-159.2-1.1c-67.7-1.4-122-11.9-163-31.5l-8-4.8-16 5.9-11.8-5.3c22.1-16 34.4-31 36.9-44.9-17.1 8.9-25.7 15-25.7 18.2-6.2 13.1-16 21-29.5 23.8zm-57.7 11.2v-1.1c2.5-12.5 11.6-18.7 27.3-18.7 5.7.7 8.5 2 8.5 3.7v.5c0 6.1-8.2 12.8-24.6 20.3-5.7.1-9.5-1.5-11.2-4.7zm243.1 325.5c-38.1-50.6-68.7-86.6-91.6-107.9-23-21.4-40.6-42.6-52.9-63.6-12.3-21-27.9-45.8-46.8-74.3-5.7-12.8-16.2-19.2-31.5-19.2-25.7 7.8-44.7 13.5-57.2 17.1-15.3-6.1-23-13.5-23-22.4-11-7.5-11.9-15.1-2.7-23 9.3-7.8 17.3-19 24-33.4 6.8-14.4 14.1-27.5 21.9-39.3C20.7 71.2 0 33.6 0 13c.7-3.2 1.8-4.8 3.2-4.8C6 10 12.3 19.4 21.9 36.5c8.6 14.3 23.7 31.9 45.4 52.9 14.6 10.7 25.5 16 32.6 16 14.6 0 26.2-3.7 34.7-11.2 22.1-16.7 46.7-46.7 73.7-89.8 4.3-5.7 7.7-5.9 10.2-.5-2.8 14.3-12.5 34-28.9 59.3-16.4 25.3-28.3 40.1-35.8 44.4l10.7 8c8.6-7.8 21.4-14.2 38.5-19.2.7 6.1.7 11.4 0 16s-4.5 13-11.2 25.1c41 24.2 85.4 37.3 133.3 39.3 47.9 2 124.1 1 228.4-2.9 8.2.7 18 9.6 29.4 26.7 3.2 6.1 6.2 14.8 9.1 26.2 2.1 91.9 1.4 148.2-2.1 168.9-3.2 6.4-7.1 4.8-11.8-4.8-13.9-33.1-19.2-65.4-16-96.7 3.2-31.4 2.7-58.4-1.6-81.2-.4 56.6-49.2 121.8-146.4 195.6-15.7 16.4-31.4 46.5-47 90.3h-.5l12.8 6.4c3.9 2.5.5 11.6-10.2 27.3-6.8 10-11.9 13.7-15.5 11.2-9.3-6.4-14.1-15.5-14.4-27.3l-2.1-2.7-3.2 5.2c-7.8-1.8-12.8-.2-15 4.8l-7.5 16c-2.1.7-5.5.2-10.2-1.6l-25.7-24.6c11-6.8 19.6-10.5 25.7-11.2 12.2-4.9 19-8.5 20.4-10.6zm24.6-19.3c16.4-17.8 29.5-42.7 39.3-74.5 9.8-31.9 20.8-50.9 33.1-56.9 12.3-6.1 8.8-6.4-10.4-1.1-19.2 5.3-34.5 6.2-45.7 2.7-11.2-3.6-26.2-4.4-44.9-2.4-18.7 2-36.1 6.1-52.1 12.6 10 5.3 17.3 13.5 21.9 24.6s9.4 25.7 14.4 43.8c5 18.1 19.8 35.2 44.4 51.2z"/></svg>