<svg xmlns="http://www.w3.org/2000/svg" viewBox="0 0 595.3 455.5"><path d="M73.4 155.1v-1c2.3-11.3 10.8-17 25.4-17 5.3.7 8 1.7 8 3v1c0 5.7-7.7 11.8-23 18.5-5.3 0-8.8-1.5-10.4-4.5zm223.5 5.5c40.9 1 80.5-9.8 118.8-32.4-6-11.3-9.4-19-10.2-23.2-.8-4.2-.9-9.2-.2-15.2 16 4.7 27.9 10.8 35.9 18.5l10-7.5c-7-4.3-18.1-18.3-33.4-41.9-15.3-23.6-24.1-42.1-26.4-55.4 2-4.7 5-4.5 9 .5 25.3 40.3 48.2 68.2 68.9 83.8 8 7 18.8 10.6 32.4 11 6.7 0 17-5 30.9-15 20-19.6 33.9-36.3 41.9-49.9 9-16 14.8-24.8 17.5-26.4 1.3 0 2.5 1.7 3.5 5 0 19-19.5 54.1-58.4 105.3 7.3 10.6 14.1 22.8 20.5 36.4 6.3 13.6 13.8 24 22.5 31.2 8.6 7.2 7.8 14.2-2.5 21.2 0 8.6-7.2 15.6-21.5 21-11.6-3.3-29.4-8.5-53.4-15.5-14.3 0-24.1 6-29.4 18-17.6 26.6-26.4 54.4-26.4 83.3-2 38.6 11.3 75.5 39.9 110.8 9 6 13.5 14.3 13.5 24.9 0 4.3-5.5 6.5-16.5 6.5-18 0-26.9-2.2-26.9-6.5l2-13.5c0-4.7-3.5-8.1-10.5-10.5v-1c0-6.3-11.3-38.1-33.9-95.3-10.3 0-18.5 5-24.5 15-7.7 25.3-11.5 46.2-11.5 62.9 0 3.7 2.5 11.5 7.5 23.5 5.3 4.3 8.8 12.1 10.5 23.5h-39.9l2.5-12.5c1.3-5-.5-9.3-5.5-13l3.5-18.5c4.3-46.9 6.5-74.5 6.5-82.8v-1c-26.3-6.3-48.4-9.5-66.4-9.5-17.3 0-39.1 3.2-65.4 9.5v1c0 8.3 2.2 35.9 6.5 82.8l3.5 18.5c-5 3.7-6.8 8-5.5 13l3 12.5h-39.9c1.3-11.3 4.8-19.1 10.5-23.5 4.7-12 7-19.8 7-23.5 0-16.6-3.8-37.6-11.5-62.9-6-10-14.1-15-24.5-15-22.6 57.2-33.9 89-33.9 95.3v1c-7 2.3-10.5 5.8-10.5 10.5l2 13.5c0 4.3-9 6.5-26.9 6.5-11 0-16.5-2.2-16.5-6.5 0-10.6 4.5-19 13.5-24.9 28.6-35.3 41.9-72.2 39.9-110.8 0-28.9-8.8-56.7-26.4-83.3-5.3-12-15.1-18-29.4-18-24 7-41.7 12.1-53.4 15.5-14.3-5.3-21.5-12.3-21.5-21-10.3-7-11.1-14.1-2.5-21.2 8.6-7.2 16.1-17.5 22.5-31.2 6.3-13.6 13.1-25.8 20.5-36.4C19.3 66.4 0 31.3 0 12.4c.7-3.3 1.7-5 3-5C5.7 9 11.5 17.8 20.5 33.8c8 13.6 22.1 30.3 42.4 49.9 13.6 10 23.8 15 30.4 15 13.6-.3 24.5-4 32.4-11 20.6-15.6 43.6-43.6 68.9-83.8 4-5 7.2-5.2 9.5-.5-2.7 13.3-11.6 31.8-26.9 55.4s-26.4 37.6-33.4 41.9l10 7.5c8-7.7 20-13.8 35.9-18.5.7 6 .7 11.1 0 15.2-.7 4.2-4.2 11.9-10.5 23.2 38.2 22.6 77.4 33.5 117.7 32.5zm224.5-5.5c-1.7 3-5 4.5-10 4.5-15.6-6.7-23.5-12.8-23.5-18.5v-1c0-1.3 2.7-2.3 8-3 15 0 23.5 5.7 25.4 17v1zM216.6 185c-12 30.9-16.9 55.1-14.7 72.6 2.2 17.5 7.4 29.7 15.7 36.7 12.6 5.7 39.3 8.5 79.8 8.5s67.2-2.8 79.8-8.5c8.3-7 13.6-19.2 15.7-36.7 2.2-17.5-2.7-41.7-14.7-72.6 24.6 17.6 36.9 44.4 36.9 80.3v18c12.3-12.6 22-26.6 28.9-41.9 13.6-33.9 32.3-50.9 55.9-50.9 9 0 26.3 5.7 51.9 17 8.6-3.7 12.1-9.5 10.5-17.5l-24.4-33.4c-12.3-20.3-21.1-31.6-26.4-33.9-2.3-5-15.3-7.5-38.9-7.5-10 2.7-15 6.3-15 11 0 6.3 3.5 12.6 10.5 19-13-2.7-22.3-10.1-27.9-22.5 0-3-8-8.5-24-16.5 2.3 13 13.8 26.9 34.4 41.9l-11 4.5-15-5.5-7.5 5c-38.3 18.3-78.3 27.4-120.3 27.4-41.2 0-81-9.1-119.3-27.4l-7.5-5-15 5.5-11-4.5c20.6-15 32.1-28.9 34.4-41.9-16 8-24 13.5-24 16.5-5.7 12.3-14.8 19.8-27.4 22.5 6.7-6.3 10-12.6 10-19 0-4.7-5-8.3-15-11-23.3 0-36.3 2.5-38.9 7.5-5.3 2.3-14 13.6-25.9 33.9L32.4 190c-1.7 8 1.8 13.8 10.5 17.5 25.6-11.3 42.9-17 51.9-17 23.6 0 42.2 17 55.9 50.9 7 15.3 16.6 29.3 28.9 41.9v-18c0-35.9 12.3-62.7 37-80.3z"/></svg>