<svg xmlns="http://www.w3.org/2000/svg" viewBox="-10 0 1105 983"><path d="M-10 983v-41l94-59 58-356q-54-88-54-195-1-57 13.5-106t45.5-75q-18-31-18-63 0-22 9-47t18-41h23q0 18 2 35t4 33q4-19 13.5-38T215 0h23q0 34 3 65t11 55q11 1 30 11t38 24q19 14 29 27l86 3v27q0 16-14.5 28T382 257q-35 9-70.5 18.5T241 294q8 50 24.5 72.5t44 28.5q27.5 6 70.5 6 23 0 56.5-6t61.5-11q42-7 79-13t72-6q65 0 121 28.5T871 466q45 44 79 92t55 88.5q21 40.5 29 59.5 24 62 42.5 121.5T1095 937q0 8-1 20.5t-3 22.5q-58-27-95-79.5T931 770q-14-39-30.5-89t-35-95Q847 541 828 517h-3q5 30 17.5 71t30.5 82q18 41 38 72 0 21-1 50t-3 58.5q-2 29.5-6 52.5l-2 45-53 35h-77v-41l68-51v-21q0-25-3-60.5t-6-60.5l-11-12 3 19-64 147-18 39-59 41h-78v-41l88-54 35-138v-22q-21-25-45-58t-43-70q-17-16-29-29.5T587 546q-16 11-51 28.5t-80 32Q411 621 365 622l-36 1 21 37 5 68q-1 22 0 44.5t1 44.5q1 10 3 28.5t4 34q2 15.5 3 18.5l-1 49-56 36h-77v-41l62-47q-2-10-8-36t-14.5-56.5Q263 772 256 750t-14.5-43q-7.5-21-17.5-41l-2 14q-11 25-23 54.5t-21.5 55Q168 815 165 827q-6 21-12 48.5T134 936l-67 47zm213-865h29q-7-19-10-41.5T218 31q-5 11-11 29.5T201 94q0 7 .5 13t1.5 11zm46 847h11v-17h12v17h14v-17h11v17h6l44-29v-38q-1-5-3.5-20t-4.5-32q-2-17-2-27-2-22-2-45.5t1-46.5q-1-2-1.5-14t-1-27q-.5-15-2.5-25l-61-100 19-1 30 43 46-1q40-1 81.5-14t76-30q34.5-17 54.5-30-6-11-12-32.5t-6-30.5h20q0 8 4 25.5t9 26.5q16 30 47.5 61t56.5 51q25 19 52.5 35t53.5 34.5q26 18.5 44 42.5 4 24 7.5 62t3.5 67v30l-71 51v14h11v-17h12v17h14v-17h11v17h6l40-28 3-44q2-20 4-46.5t3-53q1-26.5 2-46.5-19-31-36-69.5T826.5 600Q814 561 808 528q0-12 2-27.5t7-20.5q34 34 58 82.5T916.5 664q17.5 53 33.5 99 25 74 55.5 119t69.5 68v-13q0-32-9.5-71.5t-23.5-79q-14-39.5-27-73.5-7-19-27-57.5t-51.5-85q-31.5-46.5-75-89t-96.5-70Q712 384 649 384q-31 0-68.5 6.5T502 404q-28 5-62 10t-60 6q-55 3-88-8.5t-49-43Q227 337 219 279l158-40q10-3 18-6l-50-3v-13l70-1q1-1 1-4v-11l-79-1q-26-31-54-46t-74-15l6 14-16 11q-4-6-8.5-14T178 120q-14-39-17-83-4 10-8 24.5T149 88q0 21 8.5 41t21.5 34l-12 15q-3-1-5.5-4t-4.5-6q-22 22-35 60t-14 106q-1 55 12 96.5t34 77q21 35.5 44 72.5 21 35 41 74t36 89q8 24 16.5 58t15.5 63.5q7 29.5 8 39.5l-66 47zm7-776q-15 0-15-10t15-10q15 0 15 10t-15 10zM7 965h12v-17h11v17h14v-17h11v17h7l56-40q12-41 17.5-63.5T146 822q3-11 13-36.5t21.5-55Q192 701 202 676l7-39q-13-23-26-44.5T158 551L99 893 7 951zm612 0h11v-17h11v17h14v-17h12v17h6l49-34 13-29 64-148-4-37q-27-21-57.5-38.5T682 641q14 22 30 40.5t31 40.5v30l-39 147-85 52z" fill="currentColor"/></svg>