<svg xmlns="http://www.w3.org/2000/svg" viewBox="0 0 594.7 578.3"><path d="M15.1 223.9l-1.9 7.5c9.5 5.4 17.8 6.8 24.9 4.4 10.4-1.2 18.1-1.1 23.3.3 5.2 1.5 9.6 4.2 13.4 8.4l-5 4.4c-7.5-5.8-14.1-7.6-19.9-5.3-5.8 2.3-10.1 7-12.7 14.3-2.7 7.3-3.4 25.7-2.2 55.3 1.2 29.6 4.1 51.7 8.7 66.2s9 9.7 13.4-14.3 10.5-45.7 18.3-65c7.9-19.3 12.1-35 12.7-47.3.6-12.2-8.4-21.7-27.1-28.3-18.6-6.6-33.9-6.8-45.9-.6zm41.6 4.9v3.1H26.2c-.4 0-.2-1.3.6-4s.4-4-1.2-4c-2.1 0-2.7 1.3-1.9 4 .8 2.7.6 3.9-.6 3.7-1.2-.2-2.3-1.1-3.1-2.8-.4-3.3.9-5.3 4-5.9 3.1-.6 5.7 0 7.8 1.9 2.1 1.9 10.4 3.2 24.9 4zM180.5 98.9c-7-1.7-14.1-3.7-21.1-6.2-5.8-.4-10.2 2.3-13.1 8.1 3.7 4.1 8.1 5.6 13.1 4.4 8.7-3 15.7-5.1 21.1-6.3zm-23 5.6c3.7-3.7 4.7-6.7 2.8-9-1.9-2.3-3.6-2.3-5.3 0-1.7 2.2-.8 5.2 2.5 9zm273 312.2c2.5-3.3 5.9-5.6 10.3-6.8 4.4-1.2 8.4-1.9 12.1-1.9.8-2.9 2.3-12.7 4.4-29.5 2.1-16.8 1.7-31.4-1.2-43.8-13.7-23.6-22.4-55.3-26.1-95.1-5.8-11.6-15.8-17.4-29.8-17.4-56.4 22.4-94.4 33.2-114.1 32.3-19.7-.8-35.3-3.7-47-8.7-6.6 75-8.6 116.4-5.9 124.1 2.7 7.7 2 12.4-2.2 14.3-4.1 1.9-5.6 12.7-4.4 32.6h203.9zm-330.8-163c0 14.1-3.9 29.2-11.8 45.4S72.7 338 66.1 367.2c-6.6 29.2 3.5 45.9 30.5 50.1h90.8c-.4-7 7.3-12.9 23-17.4V261.2c1.7-5.8-.2-16.8-5.6-33-10.8-71.3-22-107.2-33.6-107.6h-14.3l-31.1-5.6c-18.2 0-27.4-5.4-27.4-16.2l36.1-4.4c9.1-7.9 22.2-11.8 39.2-11.8l6.2-4.4c2.1 0 4.4-22.2 6.8-66.5L195.4 0h.6l1.2.6c11.2 27.8 15.5 51.8 13.1 72.1 0 7.9-1 16.2-3.1 24.9 0 10.8 3.9 24.3 11.8 40.4 23.6 48.5 47.3 72.8 70.9 72.8l32.3-1.9c36.5-9.5 61.2-14.3 74-14.3 14.5-.4 29.3 4.1 44.5 13.7 15.1 9.5 28.5 22.5 40.1 38.9 11.6 16.4 24.6 39.2 38.9 68.4 14.3 29.2 30.5 66.7 48.5 112.6 18 45.8 26.8 87 26.4 123.4-31.1-34-55.9-72.2-74.3-114.7s-35.3-89.7-50.7-141.5c3.7 39.8 6.9 63 9.6 69.6 2.7 6.6 2.5 10.8-.6 12.4-3.1 1.7-6.9 14.7-11.5 39.2h31.1v26.7H308.6v134.9h-26.1V443.4H98.4c-24.9-5-42.7-15.2-53.5-30.8-10.8-15.5-17.2-34.4-19.3-56.6-2.1-22.2-3.8-43.8-5.3-65-1.5-21.1 2-36.3 10.3-45.4-6.6.9-14.5-1.6-23.6-7.4-9.1-5.8-9.3-12.3-.6-19.6 8.7-7.3 20.8-10 36.4-8.1 15.5 1.9 28.9 6 40.1 12.4 11.2 6.5 16.8 16.7 16.8 30.8z"/></svg>