<svg xmlns="http://www.w3.org/2000/svg" viewBox="-10 0 1002.579 1085"><path d="M454 1085V727H101q-36 0-56.5-15t-30-40Q5 647 3 617.5T1 560q0-30 11-53.5T46 470q-17 1-31-7T1 445q0-19 19-30.5T68 403q37 0 50 18.5t13 39.5q0 30-11.5 60T95 578q-9 20-16 37t-7 30q0 13 6 23.5t33 10.5h85v-40h49q0-28-.5-53.5T240 529q-5-60-20-103.5T185 346q-6-9-14-31.5t-16-50q-8-27.5-14-50.5-27-6-54.5-13T31 188q-19-4-30-12.5T-10 156v-29l72-2q12-14 36-28.5T136 81q12-35 12-81h18q5 8 12.5 21T190 48q1-11 2.5-23.5T194 0h18q8 11 16.5 29t8.5 34q0 21-12 45 14 18 25.5 39.5T272 191q6 15 12.5 34t14.5 34.5q8 15.5 16 18.5 20 6 40.5 7t39.5 1q18 0 44.5-2t48.5-6q33-5 63.5-8.5T610 266q44 0 85 21t77 54.5q36 33.5 66.5 73T892 492q23 38 38 66.5t20 40.5q23 56 35 103t5 93q-45-19-77-57t-53-94q-8-21-21-57t-28.5-76q-15.5-40-30-72.5T755 393h-2q5 32 17 69t36 69v148h46v48H524v358zM153 79h22q1-5 1-12 0-11-3.5-24T164 22q-1 33-11 57zm821 683q0-40-13-79t-30-79q-5-11-19-38.5T875.5 502q-22.5-36-51-73.5t-63-70Q727 326 689 306t-79-20q-25 0-56 3t-63 9q-22 3-49 5t-47 2q-20 0-44.5-1t-44.5-8q-13-4-22-22t-16-40q-7-22-14-38-7-20-18-39t-25-37q-4 6-7 7l-10-11q11-10 17.5-24t6.5-29q0-9-3-19t-7-18q-1 16-4.5 31T195 85q-6 16-9.5 22t-6.5 10l-13-8q4-6 5-10-35 0-57.5 11T70 143l-61 1v8q0 2 1 3h55v10l-39 2 6 2 8 2 119 27q6 24 14 53t15.5 53q7.5 24 13.5 34 31 53 43 104t15 86q3 28 4 58.5t1 51.5v19h-51v22h9v-13h9v13h10v-13h9v13h38v-62q1-40 3.5-65l4.5-45 2.5-44.5Q302 418 297 401h20l2 30h34q70 0 121-19.5t74-34.5q-5-7-9-22.5t-4-21.5h15q0 5 3.5 17.5T561 370q15 29 39.5 49.5T653 457q28 17 55.5 34t49.5 39q3 14 6 36.5t3 43.5v47h-55v22h8v-13h9v13h11v-13h9v13h38V535q-23-34-34.5-67.5T736 400q-1-10 2-22t11-17q18 15 36.5 50.5t36.5 79q18 43.5 33 84t24 64.5q21 53 42.5 80t52.5 43zM134 135q-11 0-11-8 0-6 11-6t11 6q0 8-11 8zm175 544h384v-40h55v-29q0-20-3.5-41t-6.5-33q-23-22-58-43.5t-69.5-45Q576 424 553 396q-12 8-39.5 21t-68 23Q405 450 355 450h-36q-1 27-2 43.5t-3 31q-2 14.5-3 35.5t-2 57zM82 702v-6q-17-5-23.5-18.5T52 645q0-14 8-33t18-41q12-25 23-53.5t11-56.5q0-15-9-27t-35-12q-25 0-36 8t-11 14q0 8 20 11t42 2v19q-29 5-45.5 28.5T21 569q0 67 14.5 100T82 702zm392 363h30V727h-30z" fill="currentColor"/></svg>