<svg xmlns="http://www.w3.org/2000/svg" viewBox="0 0 595.3 559.5"><path d="M231.9 334.4c-9.2 0-13.8-7.4-13.8-22.1.7-3 .5 4.8-.5 23.1l14.3-1zm-115-168.7l12.8-54.1c-6.9-3-12.6-3.6-17.2-2l4.4 56.1zm-5.4-.5l-3.9-55.1c-5.9-2-10.8-1.1-14.8 2.5l18.7 52.6zm10.3 1l28-48.2c-3.6-3.9-8.5-5.6-14.8-4.9l-13.2 53.1zm-15.8.5l-18.2-53.1c-5.2-1-9.7.3-13.3 3.9l31.5 49.2zm-48.6-39.8l43.3 42.8-30-50.6c-5.3.9-9.7 3.5-13.3 7.8zm110.1 3.4l-37.4 41.3 45.2-30.5c-1.2-4.6-3.9-8.2-7.8-10.8zm-41.3 37.9l37.9-40.8c-1.6-3.6-4.6-5.7-8.9-6.4l-29 47.2zm-86-24.1c14.8 4.6 33.6 14.8 56.5 30.5-4.9-6.2-19.5-21.1-43.8-44.7-4.9 1.2-9.1 6-12.7 14.2zm92.9 31.9l48.2-19.7c0-4.3-1.1-7.7-3.4-10.3l-44.8 30zm-97.4-27.5c-3 1.6-4.6 4.6-4.9 8.9 21 5.6 42.3 13.8 63.9 24.6-23.9-19.7-43.6-30.9-59-33.5zm99.4 31.5l47.2-8.9c1.3-4.3 1.3-7.7 0-10.3L135.1 180zm-40.9 8.3c-19-11.8-41-19.7-65.9-23.6-3 2.6-3.9 5.6-3 8.9l68.9 14.7zM196.5 177l-1.5 5.9c7.5 4.3 14.1 5.4 19.7 3.4 8.2-1 14.3-.9 18.2.2 3.9 1.1 7.4 3.4 10.3 6.6l-3.4 3.4c-5.9-4.6-11.6-6-17.2-4.2-5.6 1.8-8.9 6.7-10.1 14.8-1.1 8 .2 16.5 4.2 25.3h22.6c8.5-8.9 12.5-19.2 11.8-31-.7-11.8-7.5-20.1-20.7-24.8-13.1-4.6-24.4-4.5-33.9.4zm-60.5 7.9l44.3.5c2.3-3.6 3.1-7.2 2.5-10.8L136 184.9zm-21.1-8.4c-7.2.3-10.8 4.1-10.8 11.3 0 7.2 3.6 10.8 10.8 10.8 6.9 0 10.5-3.6 10.8-10.8-.3-7.2-3.9-11-10.8-11.3zm-92 2.5c-2.3 3.6-3.1 7.7-2.5 12.3 20.3-.7 44.9.2 73.8 2.5L22.9 179zm206.1 1.9v2.5h-23.6c-.7 0-.6-1.1.2-3.2s.4-3.2-1.2-3.2-2.1 1.1-1.5 3.2c.7 2.1.6 3.1-.2 2.9-.8-.2-1.6-.9-2.2-2.2-.3-2.6.7-4.2 3.2-4.7s4.4 0 5.9 1.5c1.4 1.5 7.9 2.6 19.4 3.2zm-35.4 7.9c-8.5 28.5-29.5 42.1-62.9 40.8 1 2 5.4 3 13.3 3h63.9c-3.9-9.2-5.5-17.1-4.7-23.8.8-6.7 2.7-11.6 5.7-14.5-5.7.6-10.7-1.2-15.3-5.5zm-58.1 1l38.4 7.9c3.3-2 5.1-4.8 5.4-8.4l-43.8.5zm-40.8 9.8c-24.9-3.6-49.3-3.9-73.3-1-2 2.3-2.3 5.1-1 8.4 26.2-3.6 51.3-5.6 75.2-5.9l-.9-1.5zm39.9-5.9l28 15.2c4.3-1.6 7.2-4.1 8.9-7.4l-36.9-7.8zm-1.5 4.5l15.7 18.7c5.2-.3 8.4-1.8 9.3-4.4l-25-14.3zm7.9 20.1l-10.8-16.2c-4.9 4.6-10.3 6.9-16.2 6.9 4.8 5.5 13.8 8.7 27 9.3zM97.2 205c-23.3.3-49.2 3.6-77.7 9.8-.7 3.9 0 8.2 2 12.8 19.3-7.9 44.7-14.4 76.2-19.7l-.5-2.9zm3.4 8.4l-1-2.5c-30.2 5.9-55.9 13.9-77.2 24.1 0 7.2 1.5 12.5 4.4 15.7 21.4-12.1 46-24.5 73.8-37.3zm-71.8 43.8c.7 5.6 3.3 9.8 7.9 12.8 16.7-14.8 39.2-31.5 67.4-50.2l-2.5-2.9c-26.5 12.1-50.8 25.5-72.8 40.3zm78.2-34c-26.2 17.7-49 35.1-68.3 52.1.3 3.6 2.6 6.2 6.9 7.9 23.9-24.3 45.2-43.3 63.9-57l-2.5-3zm-57.5 64.4c1 3.9 3.6 6.4 7.9 7.4 10.8-14.8 30.5-35.4 59-62l-2.9-3.4c-21.4 17.1-42.7 36.4-64 58zM231.9 239c-19.3 43.9-28.5 76-27.5 96.4h7.9c-1-24.6 6.9-56.7 23.6-96.4h-4zm-8.3 0c-20 45.2-30 77.4-30 96.4h5.4c0-21.6 9.7-53.8 29-96.4h-4.4zm-8.9 0c-22.3 46.9-33.9 79-34.9 96.4h7.9c1-19.3 11.5-51.5 31.5-96.4h-4.5zm-9.3 0c-22.9 41.3-36.1 73.4-39.3 96.4h8.9c2.3-22.6 14.3-54.7 35.9-96.4h-5.5zm-8.9 0c-24.6 40.3-39.8 71.8-45.7 94.4l9.8 2c3.6-24.6 17-56.7 40.3-96.4h-4.4zm-8.3 0c-31.1 42.3-49.3 72.9-54.6 91.9l12.3 2c4.9-22 20.2-53.3 45.7-93.9h-3.4zm-11.8 0c-30.8 39.3-49.5 69.3-56.1 90l9.3 1.5c5.2-19.3 22.5-49.8 51.6-91.5h-4.8zm-9.9 0c-35.4 40-56.2 68.3-62.4 85.1l10.8 3.4c6.6-20 25.2-49.5 56.1-88.5h-4.5zm-8.8 0c-35.4 38.4-57.4 64.6-65.9 78.7.3 2 3 3.4 7.9 4.4 6.9-17 27.9-44.7 62.9-83.1h-4.9zm-78.2 72.7c1.3 2.6 4.1 3.8 8.4 3.4 11.8-19.3 33.4-44.7 64.9-76.2h-5.9c-32.2 28.6-54.6 52.8-67.4 72.8zM140 239h-8.4c-26.2 24.6-46.5 46.7-61 66.4.3 2.6 2.5 4.1 6.4 4.4 12.5-22 33.5-45.6 63-70.8zm-14.3-1l-4.4-2c-27.9 25.9-48.3 46.5-61.5 62 1.3 3 3.6 4.9 6.9 5.9 11.5-18.4 31.1-40.4 59-65.9zm436.6 92.9v6.9l3-1.5-2-5.4h-1zm-8.3 8.9v1h4.4c1.6 0 2.5-.7 2.5-2l-6.9 1zm2.9 10.8c.3 0 5.4 1.8 15.2 5.4l-6.9-8.9-8.3 3.5zm-295-272.4c-5.6-1.3-11.1-3-16.7-4.9-4.6-.3-8 1.8-10.3 6.4 3 3.3 6.4 4.4 10.3 3.4 6.9-2.3 12.4-3.9 16.7-4.9zm231.6 174c.7 19 2.1 31.1 4.4 36.4 2.3 5.2 2.1 8.5-.5 9.8-2.6 1.3-5.7 13.1-9.3 35.4h-29c2.3-5.6 5.1-8.9 8.4-9.8 3.3-1 6.4-1.5 9.3-1.5.7-2.3 1.9-10.1 3.7-23.4 1.8-13.3 1.6-24.8-.7-34.7-10.8-18.7-17.9-43.8-21.1-75.2-4.6-9.2-12.5-13.8-23.6-13.8-44.3 17.7-74.2 26.2-90 25.6-15.7-.7-28.2-3-37.4-6.9-4.9 59.3-6.3 92-4.2 98.1 2.1 6.1 1.6 9.8-1.7 11.3s-4.4 11.6-3.4 30.2h240.9L526.5 313c-9.9-14.2-20.9-34.5-33-60.8zM243.7 82.6c2.6-3 3.3-5.3 2-7.1-1.3-1.8-2.6-1.8-3.9 0-1.4 1.8-.7 4.2 1.9 7.1zm257.2 353v16.2H363.2v107.7h-21.1V451.9h-47.7c-16.7-.7-32.6 2.6-47.7 9.8-16.1 16.4-31.8 24.7-47.2 25.1-18-.3-33.1-10.5-45.2-30.5-9.5-3.3-14.3-7.4-14.3-12.3 0-5.2 4.9-9.5 14.8-12.8 11.8-19.7 26.7-29.8 44.7-30.5 15.4.7 31.1 9 47.2 25.1 15.1 7.2 31 10.5 47.7 9.8h47.7v-85.1H216.2c-50.8.7-88.5-2.6-113.1-9.8-35.1-10.5-60.3-26.2-75.7-47.2-15.4-21-24.2-40.9-26.3-59.7-2.2-18.8-1.1-37.7 3.2-56.5 4.3-18.8 15.7-36.8 34.4-53.8s38.9-26.4 60.7-28c21.8-1.6 42.9 2.5 63.4 12.5s31.6 31.4 33.2 64.2c5.2-6.6 13.4-8.8 24.3-6.6 11 2.1 20.8 5.7 29.5 10.8 8.7 5.1 13 13.2 13 24.3s-3 23.1-9.1 35.9c-6.1 12.8-11.6 25-16.7 36.6-5.1 11.6-7.8 23.2-8.1 34.7-.3 11.5 12.5 19.2 38.4 23.1-.7-6.2 5.4-11.1 18.2-14.8V206.5c1-4.6-.5-13.3-4.4-26.1-8.9-56.4-17.7-84.7-26.6-85.1h-11.3L218.1 91C204 91 197 86.7 197 78.2l28-3.4c7.5-6.2 17.9-9.3 31-9.3l5.4-3.4c1.6 0 3.3-17.5 4.9-52.6l6.9-9.3h1l1 .5c8.9 22 12.3 41 10.3 57 0 6.2-.8 12.8-2.5 19.7 0 8.5 3.1 19.2 9.3 32 18.4 38.4 37 57.5 56.1 57.5l25.6-1.5c28.8-7.5 48.3-11.3 58.5-11.3 11.1-.3 22.8 3.3 34.9 10.8s22.8 17.8 32 30.7c9.2 12.9 19.3 31 30.5 54.1 11.1 23.1 20.8 47.9 29 74.5 10.2-2.6 15.1 1.8 14.8 13.3l-4.4 8.4c5.6 9.2 8.9 13.8 9.8 13.8 4.9 0 10.3 5.2 16.2 15.7l-23.1-9.8c13.1 25.2 19.7 46.2 19.7 62.9 0 16.7-1.1 26.6-3.4 29.5-2.3-1.3-7.1-8.1-14.5-20.4-7.4-12.3-13.4-25.3-17.9-39.1-4.6-13.8-7.5-29.7-8.9-47.7h-184v85.1h137.7zM164.6 444c5.2 18 16.9 28 34.9 30 13.1 0 27.7-10 43.8-30-16.1-20.3-30.5-30.5-43.3-30.5-18.4 2-30.2 12.1-35.4 30.5z"/></svg>