<svg xmlns="http://www.w3.org/2000/svg" viewBox="0 0 593.7 401.3"><path d="M127.6 93.3c-18.9 10.8-30.7 22.3-35.5 34.3-.4 17.7-.8 32.8-1.2 45.4-.4 12.6 1.4 22 5.4 28 11.2-.8 16.8 2.4 16.8 9.6 24.5-11.6 43.5-23.5 57.2-35.5 5.1-8.2 7.8-9.6 10.2-16 2.5-6.4.1-22 1.7-26 .5-1.1 7.7 10.2 6.1 23.1-1 8-4.2 12.8-7.1 21.9-1.9 5.8 6.9 7.6 13.7 11.4 12.6 7 20.5 18.5 31.3 24.1-8.4-19.3-7.6-35.9 2.4-49.9 11.2-36.5 25.3-55.4 42.1-56.6-20.9 21.7-32.1 46.7-33.7 75.2 10.4 34.1 24.4 52.4 41.8 55.1 17.4 2.6 39.2 5.1 65.3 7.5 52.5-3.2 87.2-11.8 104.1-25.9-15.6-6.4-30.7-27.7-45.1-63.8l10.2 3c12.4 26.9 35.5 47.1 69.2 60.8 4.4 4 19.3 11.8 44.5 23.5-3.2-11.6-1-30 6.6-55.1s11.4-43 11.4-53.9c0-16.8-2.8-28.1-8.4-33.7-5.6-5.6-21.3-7-46.9-4.2-25.7 2.8-57.6 5.6-95.7 8.4-38.1 2.8-74.2-.9-108.3-11.1-34.1-10.2-72.2-13.1-114.3-8.7 3.2 9.2 7 17 11.4 23.5-28 4.4-46.4-.4-55.2-14.4zm-5.5 33.1c6 0 12.2 3.6 18.7 10.8-2.4 6.8-8.4 10.6-18.1 11.4-9.2 2-14.8-.8-16.8-8.4 0-8 5.4-12.6 16.2-13.8zm118.6 132.9c-24.5 35.3-39.8 61.7-46 79.1-6.2 17.4-10.3 30-12.3 37.6 4.8 8 3 12-5.4 12-1.2 3.6-1.6 8-1.2 13.2h-44.5c2-12.4 7-22.5 15-30.1h-.6c26.1-40.5 45.3-83.4 57.8-128.8 0-15.2-12.4-29.7-37.3-43.3-30.1 19.3-48.3 27.7-54.8 25.3-9.6 3.2-19.9 0-30.7-9.6-6.4-1.6-8.6-6.4-6.6-14.4-1.2-12 .2-25.3 4.2-39.7-2.4-16.8-8.8-25.3-19.3-25.3-27.3 2.4-46.9-20.3-59-68 6.8 6.8 15.5 16.1 26.2 28 10.6 11.8 21.2 17.6 31.6 17.4 10.4-.2 19.6-4.3 27.4-12.3 7.8-8 15.7-14.2 23.8-18.7 8-4.4 12-9.2 12-14.4 6-18.1 1-40.5-15-67.4 24.5 11.6 37.3 28.3 38.5 49.9 9.2 11.2 19.7 15.9 31.3 14.1 11.6-1.8 21.3-2.7 28.9-2.7 26.9 0 60.8 6 101.7 18.1 40.9 12 103.9 9.6 188.9-7.2 41.7 0 66.6 6.8 74.6 20.5 15.6 12.8 22 29.3 19 49.3s-2.3 47.6 2.1 82.7 3.6 76.9-2.4 125.5c-10.4-20.9-15.3-34.9-14.7-42.1.6-7.2-.1-17.9-2.1-31.9s-1.9-38.2.3-72.5c2.2-34.3 1.1-52.2-3.3-53.9-19.7 50.1-23.7 89.7-12 118.5-9.6 35.3-15.8 66-18.7 92.1 6 14.8 3.4 20.5-7.8 16.8-5.2 8-6.8 16-4.8 24.1H481c.8-11.6 8-22.3 21.7-31.9 11.2-17.2 16.4-35.6 15.6-55.1s-3.4-32.4-7.8-38.8c-31.3 8.8-54.4 3.6-69.2-15.6-1.2 14.8 1.4 25.1 7.8 30.7 6.4 5.6 4.2 14.4-6.6 26.5-10.8 12-19.7 27.3-26.5 45.7-.4 12-5.4 15.6-15 10.8-7.6 6.8-10 16-7.2 27.7h-49.9c2.8-14 8.2-23.5 16.2-28.3 14-12.4 27.2-27.5 39.4-45.1s15.1-31.5 8.7-41.5-10.9-17.8-13.5-23.2c-2.6-5.4-6.9-5.8-12.9-1.2s-14.4 8.3-25.3 11.1-15.3.9-13.5-5.7c1.8-6.6-7.5-8.9-28-6.9-8.8 0-15 9.6-18.7 28.9l-3 86.6c4.8 8 3 12-5.4 12-1.2 3.6-1.6 8-1.2 13.2h-44.5c2-12.4 7-22.5 15-30.1 14-21.7 18.4-45.3 12.9-71-5.7-25.4-15.4-39.1-29.4-40.7zm223.8-30.7c-8 6.4-12 13.2-12 20.5s3.3 12.3 9.9 15.3c6.6 3.1 7.3-8.9 2.1-35.8zm5.4 3.7c2.4 10.8 3.6 19.3 3.6 25.3s2.1 9.4 6.3 10.2c4.2.8 6.2-2.5 6-9.9-.1-7.5-5.4-16-15.9-25.6zm-305-133.6c-5.6-8.4-8.7-14.2-9.3-17.4s-2.4-5.2-5.4-6-5.9-.3-8.7 1.5c-2.8 1.8-2.5 6.1.9 12.9 3.3 6.8 10.8 9.8 22.5 9z"/></svg>