<svg xmlns="http://www.w3.org/2000/svg" viewBox="0 0 557 594.7"><path d="M134.4 110.2l15.8-2.4c31.2-55.9 45.7-85.3 43.5-88.2-2.2-2.8-5-4-8.2-3.3-3.2.6-14.2 25-32.8 73.3h-4.3c19-49.9 26.3-75.6 21.9-77.2-4.5-1.6-7.9.7-10.3 7-2.5 6.2-11 36.5-25.6 90.8zm-9.8 34.6C110 161.4 97 169.7 85.7 169.7 80 171 72.3 176.1 62.6 185l-1.2-3c2.4-6.9 8.7-15.4 18.8-25.5 10.2-10.2 25-14.1 44.4-11.7zm-35.8 15.9v1.2c5.7-1.2 11.3-4.7 17-10.3-8.5.3-14.2 3.4-17 9.1zm18.8 420.7h1.8c5.3-8.1 12-12.2 20.1-12.2v2.4c-4.1.8-7.5 4.1-10.3 9.7h6.1c0-4.5 4.3-7.9 12.8-10.3v3.6l-6.7 6.7c28.8 2.4 43.2-3.9 43.2-18.8 6.1-47 14.6-82.2 25.5-105.5 10.9-23.3 23.5-47.1 37.7-71.4l10.3 7.3-12.2 24.9c24.3-.4 53.5 11.3 87.5 35.3 0-12.6 6.1-28.2 18.2-46.8l9.1 9.1c-10.1 12.6-15.2 31.2-15.2 55.9 0 24.3 15 51.9 45 82.7l-3.6 10.9-46.2 1.8-68.1-7.3c-6.5 0-10.3 7.3-11.6 21.9h4.9c0-11.8 4.7-17.6 14-17.6-4.1 3.6-6.1 9.5-6.1 17.6h3c0-8.1 6.1-12.2 18.2-12.2-6.5 5.7-9.7 9.7-9.7 12.2h138c2-6.9 7.1-8.6 15.2-5.2 8.1 3.4 20.3 4.8 36.5 4 4.5-2.4 8.3-6.5 11.6-12.2 6.5-28 14.4-66.9 23.7-116.7 9.3-49.9 17.6-93.8 24.9-131.9 15.8-42.2 21.2-63.6 16.1-64.4-5.1-.8-11 16.8-17.9 52.9l-4.9-.6c11.8-41.3 14.6-62.8 8.5-64.4-6.5-1.2-10.5 20.1-12.2 63.8l-4.9-1.2c4.5-37.3 4.2-56.3-.9-57.1-5.1-.8-6 21.3-2.7 66.3-6.1 40.5-16.6 111.9-31.6 214h-17.6c1.6-75-12.4-125.6-41.9-152-29.6-26.3-55.7-45-78.4-55.9-22.7-10.9-41.1-20.4-55.3-28.3-14.2-7.9-24.3-15.2-30.4-21.9-6.1-6.7-15.5-24.7-28.3-54.1-12.8-29.4-28.3-56.6-46.5-81.8-1.6-4.1-.8-8.5 2.4-13.4l57.1-71.7c3.2-2 3.9-4.9 1.8-8.5-5.7-8.5-13.2-13.6-22.5-15.2-3.6-1.2-6.5 0-8.5 3.6l-49.9 88.2c-31.6 5.3-54.9 11.8-69.9 19.5-.4 6.9-5.5 13.6-15.2 20.1-21.5 18.6-37.5 40.1-48 64.4 3.6 5.3 8.3 5.7 14 1.2 12.2-21.5 27.8-34.7 46.8-39.5l1.2 4.3c-15.8 7.3-27.2 16.2-34 26.8l1.2 1.2c29.6-21.5 48.3-32 56.2-31.6 7.9.4 14.3 2.8 19.2 7.3 4.9 4.5 8.4 15.5 10.6 33.1 2.2 17.6 7.4 39 15.5 64.1 8.1 25.1 12.8 39.1 14 41.9.8-4.5 5.7-17.8 14.6-40.1l10.3 9.1c-11.3 27.2-16.8 43.8-16.4 49.9-3.2 61.6-6.6 109.4-10 143.5-3.4 34-7.1 54.9-10.9 62.6-3.9 7.7-12.1 10.9-24.6 9.7-14.2-1.4-22.1 4.1-23.7 16.3zm-16.4 11.5c4.5-22.7 12.8-34 24.9-34 14.6 0 23.3-3.2 26.1-9.7 2.8-6.5 5.6-18.2 8.2-35.3 2.6-17 4.9-43.8 6.7-80.3 1.8-36.5 2.7-65.1 2.7-85.7-2-3.2-7.8-19-17.3-47.4s-14.9-50.8-16.1-67.2c-1.2-16.4-5-26.9-11.2-31.3-6.3-4.5-14.3-3.9-24 1.8s-17.5 11.6-23.4 17.6c-5.9 6.1-10.8 11.8-14.9 17H0c8.9-38.1 30.2-69.3 63.8-93.6 0-14.6 18.8-25.9 56.5-34L152.6 6.2C154.2 1 159-1 166.9.5c7.9 1.4 12.3 3.5 13.1 6.4 2.4-4.9 7.3-6 14.6-3.3 7.3 2.6 10.7 6.4 10.3 11.2 7.3-6.9 17.4-5.7 30.4 3.6s18 19.5 15.2 30.4c-2.8 4.5-13.2 18.3-31 41.6s-26.5 37-26.1 41c13.8 22.3 27.4 48 40.7 77.2 13.4 29.2 23 46.8 28.9 52.9 5.9 6.1 14.8 12.5 26.8 19.2 12 6.7 31.6 16.5 59 29.5s54.9 32.7 82.7 59.3c27.8 26.5 41.2 59.5 40.4 98.8l22.5-153.2-1.2-18.2c-1.6-13.4-2-28.6-1.2-45.6.4-11.3 7.9-16 22.5-14 1.2-8.9 6.3-12.4 15.2-10.3 8.5 1.6 12 6.9 10.3 15.8 13.8 2.8 19.3 9.7 16.4 20.7-4.9 19-9.6 33.9-14.3 44.7-4.7 10.7-14.2 57.8-28.6 141-14.4 83.3-24.2 128.2-29.5 134.7-5.3 6.5-11.1 9.7-17.6 9.7-19.5 0-32.4-1.8-38.9-5.5l-1.2 6.7h-171c-10.1 0-15.2-3.2-15.2-9.7 0-16.2 4.9-27.2 14.6-32.8 3.2-1.6 16.8-1 40.7 1.8 23.9 2.8 41.4 4.6 52.6 5.2 11.1.6 16.3-1.7 15.5-7-25.1-21.5-37.7-47.2-37.7-77.2-37.3-26.3-70.1-40.7-98.5-43.2v1.2c-10.9 21.5-20.8 44.5-29.5 69s-12.6 46-11.6 64.4c1 18.4-3.1 27.3-12.5 26.4H91.2z"/></svg>