<svg xmlns="http://www.w3.org/2000/svg" viewBox="-10 0 1069 1127"><path d="M524 1127q-143 0-248-40T100 982.5Q29 918-10 844h238v-28l62-29q6-25 11-68.5t9-92.5q4-49 7-90.5t5-63.5q-6-15-15-38t-15-40q-1-5-3-12t-3-15q-5-18-10-36.5T260 297q-8-12-19.5-17t-23.5-5q-13 0-24.5 4.5T170 289q-8 3-18.5 7t-17.5 4q-13 0-21-5l-5.5 5.5-5.5 5.5-24-32q25-30 51-54t49-38q15-10 22.5-18t15-15q7.5-7 21.5-13 7-2 20.5-5t25.5-5L332 0l58 18-22 45q11-11 20-21.5T401 26l49 39-71 71q-6 5-10 10.5t-4 10.5q0 7 14 27.5t33.5 47.5q19.5 27 39 53.5T481 332q12 14 39 30.5t59 33q32 16.5 59 29.5l32 16q35 17 66 55t46 90q1-30 0-74.5t-3-92q-2-47.5-4-87.5t-2-61l40-43h17l39 40q-4 50-10 116.5T845.5 524q-7.5 73-17 142.5T809 791q-3 11-13.5 26T771 844h288q-40 74-110.5 138.5t-176 104.5Q667 1127 524 1127zM306 124q8-7 17.5-15.5T342 90l26-59-26-7zm-60 720h9v-13h11v13h8v-13h11v13h11l37-16 25-118q5-13 16-38t24.5-53q13.5-28 26-52.5T446 529l17 5-23 39q16 3 39 9t37 11q35 14 60 36 1-25 9.5-44t20.5-30l15 11q-10 10-18 30t-8 45q0 26 19 53t43 51.5q24 24.5 40 44.5-28 6-59.5 11t-61 9q-29.5 4-50.5 7-8-1-22-3t-25-2q-10 0-18 5.5T450 828v15h10v-13h11v13h8v-13h11v13h7q1-3 2.5-6l2.5-5q16 4 32 7t32 3h161q22 0 40.5-19t21.5-35q8-39 15.5-91T819 586.5q7-58.5 13-116T842.5 363q4.5-50 7.5-86l-11-11-4 96-10-1 6-106-9-8h-3l-7 9 5 105-9 1-6-93-9 11q3 40 5 91t3 105.5q1 54.5-.5 105T795 669l-15-1q-1-42-18-84.5T719 507q-26-34-55-48l-33-16q-27-13-61-31t-64-37q-30-19-44-35-9-20-28-48t-40-56q-21-28-35.5-50T344 157q0-12 4.5-17.5T364 123l59-58q-4-5-9-8.5T402 47q-7 9-24.5 28t-37 39Q321 134 305 144q-14 2-34 5.5t-28 6.5q-16 6-22 12.5T208.5 182q-6.5 7-23.5 16-20 10-38 26t-31 31q-13 15-19 21l6 8q12-12 25.5-22t29.5-20l7 10q-8 4-20.5 13T125 280q1 1 6 1 8 0 16.5-3t16.5-7q13-5 25.5-10t27.5-5q14 0 32 6.5t28 21.5q12 16 18 39t10 41q2 8 3 14t3 11q4 13 10.5 24.5T333 438q4-20 9-33t13-27l17 8q-10 17-18.5 40.5T341 479q-2 16-4.5 64.5t-9 115.5Q321 726 309 797l-63 30zm-8-637q-5 0-9.5-1.5T222 202q1-5 7-12.5t17-7.5q12 0 19 5-4 7-10.5 13.5T238 207zm98 637h100v-25q1-5 12-16t31-11q11 0 25 2.5t22 4.5l132-23q-22-24-46.5-50.5T574 654q-7-10-27-22.5T510 612q-17-6-42-12.5t-35-8.5l-28 62-27 62-28 121zm188 264q127 0 224-34t165-90q68-56 108-121H28q40 65 108 121t165 90q97 34 223 34z" fill="currentColor"/></svg>