<svg xmlns="http://www.w3.org/2000/svg" viewBox="0 0 592.1 317.6"><path d="M188.9 101.1c-11 12.9-20.6 19.4-28.6 19.4-4.5.6-10.4 4.2-17.5 10.7l-1.5-1.5c1.9-5.5 6.7-12.1 14.3-19.7 7.6-7.5 18.7-10.5 33.3-8.9zm-27.2 12.1v1c4.5-1 8.9-3.4 13.1-7.3-6.5 0-10.8 2.1-13.1 6.3zm402.5-13.1c14.2-33.7 19.1-50.9 14.6-51.7-4.5-.8-9.9 13.4-16 42.5l-3.9-.5c10.4-33 12.8-50 7.3-51-5.8-1.3-9.4 15.5-10.7 50.5l-4.4-1c3.9-29.5 3.6-44.6-1-45.4-4.5-.8-5.8 16.8-3.9 52.7l-30.1 171.9c-6.2 0-12-6.8-17.5-20.4-11.3-19.1-23.3-31.1-35.9-35.9-11.7-2.9-23.6-4.4-35.9-4.4l-89.8 2.4h-.5c-31.4 1-49.5-1.2-54.4-6.6-4.9-5.3-11.8-20.2-20.9-44.7-9.1-24.4-19.3-45.2-30.6-62.4-3.6-4.9-4-9.2-1.5-13.1l42.2-53.9c2.6-1.9 3.1-4.4 1.5-7.3-4.2-6.2-9.7-9.9-16.5-11.2-2.9-1-5 0-6.3 2.9L216 81c-25.9 3.6-44.3 8.3-55.4 14.1-.3 5.2-4.2 10.2-11.7 15.1-16.2 13.9-27.8 30.3-35 49 2.3 3.9 5.7 4.2 10.2 1 9.1-16.2 20.6-26.2 34.5-30.1l1.5 3.4c-12.3 5.5-20.9 12.1-25.7 19.9l1 1.5c22-16.5 35.9-24 41.5-22.6 5.7 1.5 10.4 3.3 14.3 5.6 3.9 2.3 8.8 5.5 14.8 9.7 6 4.2 11.7 26.5 17.2 67-6.8 12.6-21 33.5-42.7 62.6L62.2 296.3c-6.2-2.9-15.2-4.9-27.2-5.8-13.6-1-21.4 4.2-23.3 15.5l1.9.5c5.2-8.1 11.7-12.1 19.4-12.1v2.9c-3.9 1-7.1 4-9.7 9.2h5.8c0-4.5 4.2-7.8 12.6-9.7v2.9l-6.8 6.8c7.4-1.3 12.8-.5 16 2.4l147.6-5.3c3.9-12 9.9-21 18-27.2 8.1-6.2 15.9-9.2 23.3-9.2 74.8 0 117.2-4 127.2-12.1s26.5-12 49.5-11.7c.6-17.8 7-26.7 18.9-26.7 13.6 0 29.5 7.9 47.6 23.8v9.2c-21.7-16.5-37.4-24.8-47.1-24.8-6.5 0-9.7 5.9-9.7 17.7 0 11.8 8.4 25.7 25.2 41.5-2.9 7.1-10.7 10.8-23.3 11.2s-41.9-1.8-87.9-6.3c-6.5 0-10.2 6.8-11.2 20.4h4.4c0-11 4.4-16.5 13.1-16.5-3.9 3.6-5.8 9.1-5.8 16.5h2.9c0-7.8 5.7-11.7 17-11.7-5.8 5.2-8.7 8.9-8.7 11.2h129.6c-15.5-23-24.8-40.9-27.7-53.9 8.1 6.2 15.1 15.1 21.1 26.7 6 11.7 12.9 19.2 20.6 22.6 7.8 3.4 12.7 4.5 14.8 3.4 2.1-1.1 4.5-3.8 7-8l46.9-199.6zm-379.7-85c-.3-2.9-1.9-4.5-4.9-4.9-7.4 0-13.6 2.6-18.5 7.8-2.3 1.9-2.6 4.4-1 7.3l32 49 10.2-1-17.8-58.2zm25.7 57.8c21.7-42.4 33.7-66.2 35.9-71.4 8.4-3.2 17-1.4 25.7 5.6s12 14.3 9.7 22.1c-1.6 3.6-9.4 14.1-23.3 31.6s-18.9 27.7-15.1 30.6c11 15.5 20.6 35 28.6 58.3 8.1 23.3 15 37.4 20.6 42.2 5.7 4.9 20.5 6.8 44.4 5.8l87.9-1.9c26.2 0 42.1 2.9 47.6 8.7 14.2 7.8 26.7 22.2 37.4 43.2l26.2-150.5c0-7.8-.1-14.9-.2-21.4-.2-6.5.1-16.7.7-30.6.6-9.1 6.8-12.6 18.5-10.7 1.3-7.1 5.7-10 13.1-8.7v.5c7.4 1 10.7 5.2 9.7 12.6 11.7 1.9 16.2 7.3 13.6 16-3.9 15.2-9.9 31.9-18 50l-46.1 195.7c-1.6 4.9-4 8.9-7 12.1-3.1 3.2-7.5 4.7-13.4 4.4-5.8-.3-11.7-2.1-17.5-5.3l-1.5 5.8H332.6c-9.4 0-14.1-2.8-14.1-8.3 0-14.6 4.4-24.1 13.1-28.6 2.9-1.6 15.5-1.2 37.6 1.2 22.2 2.4 38.8 3.9 49.8 4.4 11 .5 16.2-1.7 15.5-6.6-9.7-9.1-15.7-18-18-26.7-23 0-38.4 4-46.4 12.1-7.9 8.1-51.4 12.8-130.4 14.1-18.1 5.8-28.8 17.5-32 35l-162.2 2.9c-1.6-2.3-3.2-3.6-4.9-3.9H33l-.5 3.4c-3.9 0-5.8-1.1-5.8-3.4H18v3.4c-3.9-.6-5.8-1.8-5.8-3.4H0c4.2-21 12-31.6 23.3-31.6 12.9-.3 26.1 1.1 39.3 4.4l108.3-18c4.5-1 18-18.6 40.3-52.9-2.9-37.2-7-57.5-12.4-60.9-5.3-3.4-10.9-6.6-16.8-9.7-5.8-3.1-12.3-2.5-19.4 1.7-7.1 4.2-13.8 8.6-19.9 13.1-6.2 4.5-10.8 8.7-14.1 12.6H101c6.2-28.8 21.5-52.1 46.1-69.9 0-10.4 12.1-18.8 36.4-25.2-20.7-31.7-32.4-50.2-35-55.4 1.9-8.7 8.2-15 18.7-18.7s18.2-2.5 23.1 3.6c2 4 8.6 26.2 19.9 66.6z"/></svg>