<svg xmlns="http://www.w3.org/2000/svg" viewBox="-10 0 1180 752"><path d="M13 752l-23-35v-23l28-24 64 2 52 4 151-26q2-8 7-24t10-33q5-17 8-28-5-9-12-21t-8-16q-11-20-19.5-54.5t-18-69Q243 370 229 350q-9-12-20.5-17t-22.5-5q-13 0-27 5t-26 10q-8 3-18.5 7T98 354q-8 0-12.5-1.5T77 349q-3 2-6 5l-5 5-29-41q25-30 49.5-52.5T134 227q16-11 29.5-25t34.5-21q2-2 7-2l-83-94 57-44 92 124h2l91-125 60 47-80 88q-5 6-7.5 10.5T334 198q0 7 12 28t29.5 48.5Q393 302 410 329t28 47q7 12 21 26t40.5 24q26.5 10 69.5 10 48 0 93.5-8t91-16.5Q799 403 845 403q30 0 57 5.5t54 8.5q17-8 34-29t26-54q3-14 9.5-46.5t13.5-76q7-43.5 15-89t14-85.5l46-37h21l35 47q-10 31-21.5 77t-26.5 97.5q-15 51.5-35 100.5t-45.5 88q-25.5 39-57.5 59 5 17 10.5 45t11 54q5.5 26 10.5 36 2 4 5.5 10.5t8.5 13.5q12 19 24 40.5t12 36.5q0 21-11 31t-23 13q-12 3-16 3l-197-6q-8 0-31-2t-43-4v12h-88v-43q2-5 15.5-17.5T706 679q17 0 34 1.5t28 3.5q23 0 51.5-1.5t55-4Q901 676 918 672q-13-10-35-22t-43.5-26Q818 610 804 594q-18 5-35 10.5T735 617q-44 16-89 28t-98 12q-41 0-76.5-6t-45.5-9q-9 11-28.5 37.5T366 728l-41 21-152-10-82 13zm9-19h68l82-13 150 10 31-15q7-11 23-35.5t40-51q24-26.5 55-45.5l12 15q-10 5-21 13.5T444 626q18 4 46 8t58 4q47 0 94-13t87-27q15-5 31-10.5t32-10.5q-7-13-9.5-31t-3.5-34h19q2 41 14 62 13 24 37.5 38.5t51 27.5q26.5 13 45.5 32v13q-28 5-61 9t-64.5 6q-31.5 2-52.5 2-9-1-26-2t-36-1q-11 0-20 6.5T672 718v15h16v-14h11v14h8v-14h11v14h12v-11q22 2 50 3.5t39 1.5l195 5q11 0 21.5-4.5T1046 705q0-11-10.5-30t-21.5-36q-5-7-9-14t-7-12q-5-13-11.5-42t-13-60q-6.5-31-11.5-51 36-19 63-56.5t46.5-85.5q19.5-48 34-98t25-94.5Q1141 81 1150 51l-7-9-29 97-11-3 31-106-9-11q-2 0-3-.5t-2-.5l-7 6-19 111h-11l15-98-11 10q-1 7-6 34t-11.5 65q-6.5 38-14 77t-13.5 70.5q-6 31.5-9 44.5-10 42-32.5 65.5T959 437q-29-4-57.5-9.5T845 422q-25 0-61.5 5T707 439t-76.5 12q-36.5 5-61.5 5-56 0-87-15t-45-34q-14-19-20-30-11-21-28-48l-34-54-28.5-47.5Q298 180 315 199q0-13 3-20t13-17l67-75-28-23q-14 20-31.5 44.5t-34 45Q288 174 278 184q-18 2-42.5 7t-31.5 8q-21 9-32 21t-28 22q-29 18-54.5 43T56 320l10 17q12-12 26-21.5t29-19.5l8 10q-8 4-21 13t-20 15q1 1 6 1 8 0 16.5-3t16.5-7q13-5 28-10.5t31-5.5q13 0 31 6t29 22q17 25 25.5 57t15 64q6.5 32 19.5 58 1 3 3 7t9 17q5-16 12-38.5t11-38.5l18 5q-4 17-10 37t-11 36.5q-5 16.5-7 23.5t-7.5 24q-5.5 17-12 39T300 668l-165 28-54-5-57-2-12 9 16-1 1 11-20 2v4l1 2 20-1 1 11-13 1zm203-559l26-5-76-104-26 21zm-29 77q-5 0-9-1.5t-6-3.5q2-5 8-12.5t16-7.5q11 0 18 5-4 7-10.5 13.5T196 251z" fill="currentColor"/></svg>