<svg xmlns="http://www.w3.org/2000/svg" viewBox="-10 0 1127.289 578"><path d="M68.765 578l-35-7-20-44 28-32h57l81-177-47-62-22 20-36 2-21-23-3-10h-9l-46-47q-7-8-5.5-19t8.5-18l91-101q-1-20 6-40t27-20q16 0 23 11 3-2 9.5-4.5t18.5-2.5q17 0 29 10.5t14 22.5q38 8 66.5 37.5t39.5 63.5q8 2 35 5t65 3q20 0 53-5t69-12q40-7 80-13.5t71-6.5q80 0 133.5 23.5t90 63.5q36.5 40 62.5 89.5t50 100.5l17 34 11 18h-1q6 8 18 16 8 8 16 14t15 16q10 14 9.5 31.5t-8.5 29.5q-8 12-23 12-26 0-41-13t-21-32q-1-7-4-18t-7-23q-12-28-28.5-62.5t-31-62.5q-14.5-28-20.5-39-6-12-20-34.5t-35.5-42q-21.5-19.5-50.5-23.5 1 12 3 34t6 45q4 23 11 42t19 25q23 13 51.5 30t45.5 27l-3 84 7 37-15 31h-41l-39 16-35-7-21-44 29-32h42l-1-9-6-34-101-40-5 31-20 55-9 54-46 10-39 16-35-7-20-44 28-32h52l2-12 8-64q-4-5-11.5-13t-12.5-16q-5-8-13.5-22t-14.5-25q-26 9-62 17t-75.5 12.5q-39.5 4.5-76.5 4.5t-64-7l8 15 2 40 21 106-16 31h-40l-40 16-34-7-21-44 29-32h42l-8-27-31-63q-14 9-28 17.5t-25 18.5q-13 11-25 30t-14 23q-2 3-8.5 16t-14.5 26q-8 13-14 17l-40 9zm39-534l23-24q-2-2-6-2-8 0-12.5 7.5t-4.5 18.5zm-41 513l38-14 31-7q6-6 14-20t13-24q8-16 20-34t28-32q16-15 36-26t39-23.5q19-12.5 31-33.5 7-11 15.5-33t8.5-42h20q0 15-6.5 38.5t-12.5 37.5q41 15 98.5 13.5t116-12.5q58.5-11 104.5-26-9-21-13-49t-4-50h19q1 25 7 57.5t24 57.5q15 21 33 33.5t35 19.5q5 2 27 10.5t51.5 20q29.5 11.5 55.5 20.5l10 49 4 20-5 7h-51l-15 16 1 3 25-12 3 8-24 11 3 7 25-11 3 7-21 11 16 2 37-14h33l7-13-7-33 5-77-88-50q-14-8-23-28.5t-14.5-47q-5.5-26.5-7.5-51t-3-40.5q-9-5-13.5-11t-9.5-14l12-8q7 9 12.5 12.5t13.5 4.5q37 7 63 29t42 46q16 24 22 36 5 9 19.5 38.5t31.5 65.5q17 36 29 65 5 13 7.5 23t4.5 16q4 17 16.5 24t23.5 7q11 0 16.5-14.5t-5.5-28.5q-4-4-12.5-11.5t-16.5-13.5l-12-10-9-8q-8-10-29-56-24-49-48.5-96t-58.5-85.5q-34-38.5-85-61.5t-127-23q-28 0-67.5 6t-79.5 13q-36 7-69.5 12t-56.5 5q-31 0-55.5-2t-39.5-4q3 21 2 35l-16-1q1-13-3-29.5t-6-21.5q-13-29-35-53.5t-50-32.5q1 4 1 10v12q-2 16-8 29l-18-8q3-5 4-11l2-12q1-8-.5-21t-7.5-22.5q-6-9.5-20-9.5-16 0-22 6t-10 13l-7.5 2.5-5.5 2.5-105 116q2 7 2.5 18t-2.5 19l28 27 5 1 38-31 10 10-35 34 3 6q2 3 5 7t5 6l21-3q4-5 18-17.5t31-28q17-15.5 31-29.5l5-16q-1-5-5-16t-6-19l18-6 13 41-8 27-52 50 42 56 4-11 18 8-103 219h-58l-15 16 2 3 24-12 4 8-25 11 4 7 24-11 3 7-21 11zm36-420q-8 0-13-3.5t-7-7.5q2-3 8-7.5t14-4.5q8 0 14.5 3.5t8.5 6.5q-11 13-25 13zm555 420l37-14 34-8 8-40 18-53 4-33q-19-8-43.5-27.5t-44.5-45.5l-11 3q4 7 12 20t13 20q5 9 13.5 19t13.5 16l-8 70-4 31h-58l-15 16 2 3 24-12 3 8-24 11 3 7 25-11 3 7-21 11zm-360 0l38-14h32l8-13-21-104-2-38-8-20q-9-2-13-5-11 13-18 18t-20 14l32 70 12 43-6 7h-50l-14 16 1 3 25-12 3 8-24 11 3 7 24-11 4 7-22 11z" fill="currentColor"/></svg>