<svg xmlns="http://www.w3.org/2000/svg" viewBox="0 0 589.2 339.2"><path d="M446.8 230.7c0-4.3.7-12.8 2.2-25.5 1.4-12.7 2.2-26.9 2.2-42.7s-7.2-28.9-21.5-39.4c-40.6-14.8-76-17.8-106.1-9-30.1 8.8-56.8 9.2-79.9 1.1s-39.8-8.4-49.8-.7c-11.5 26.8-31.1 52.6-58.8 77.4 18.6 11.5 34.2 25.3 46.6 41.6 7.6-2.9 8.4-11 2.2-24.4-6.2-13.4-6.5-21.5-.7-24.4 15.3 14.8 37 22.2 65.2 22.2 12 0 29.5-1.7 52.7-5 23.2-3.3 39-5 47.3-5 8.4 0 14.3-.7 17.9-2.2 3.6-1.4 2-9.6-4.7-24.4-6.7-14.8-10.5-24.7-11.5-29.8-1-5 2.7-4.2 11.1 2.5 8.4 6.7 20.8 22.2 37.3 46.6 16.4 24.6 32.6 38.2 48.3 41.1zM79.7 50.7c3.3 3.3 7.2 4.5 11.5 3.6 4.3-1 5.5-6.5 3.6-16.5-1.4-8.1 2.9-11.7 12.9-10.8v-.7c-4.3-4.8-9.3-6.2-15.1-4.3-3.3 1-5.5 5.3-6.5 12.9-4.7 8.1-6.8 13.4-6.4 15.8zm23.7 164.9c-7.6-9.6-12.5-23.5-14.7-41.9-2.2-18.4-3.2-31.4-3.2-39.1-4.3-6.2-8.8-9-13.6-8.2-4.8.7-8 3.5-9.7 8.2-1.7 4.8-6.8 9.3-15.4 13.6-8.6-1.4-14.7-5.9-18.3-13.3-3.6-7.4-5.9-11.1-6.8-11.1-5.3-1.4-8.6-4.5-10-9.3-8.6-4.3-12.4-9.1-11.5-14.3.5-3.8 3.7-9.1 9.7-15.8 6-6.7 11.2-13.7 15.8-21.2 4.5-7.4 9.9-13.3 16.1-17.6 6.2-4.3 13.1-9.3 20.8-15.1C61.1 22 72.8 13.4 97.7 4.8c24.9-8.6 47.8-5.6 68.8 9s34.4 33.8 40.2 57.7c14.8 12.4 32.7 21.2 53.8 26.2 21 5 45.9 3.6 74.6-4.3 28.7-7.9 56.2-9 82.5-3.2 34.4 8.6 59.6 31 75.6 67 16 36.1 30.7 74.7 44.1 115.8 4.3 9.1 10.9 15.3 19.7 18.6 8.8 3.3 18.8 10.5 29.8 21.5 5.7 18.6 1.7 25.3-12.2 20.1-20.1-3.3-36.1-14.6-48-33.7-4.8-8.1-13.7-28.9-26.9-62.4-13.1-33.5-22.6-48-28.3-43.7-1.9 6.7-2.9 14.1-2.9 22.2s3.9 22 11.8 41.6 11.8 38.2 11.8 55.9c0 11.5-8.4 19.8-25.1 25.1h-24.4c-5.7-1.9-8.6-7.2-8.6-15.8 0-8.6 3.7-13.7 11.1-15.4 7.4-1.7 12.1-6.8 14-15.4-13.9-23.4-32.3-39.2-55.2-47.3-6.2 5.7-12.5 17.4-19 35.1-6.5 17.7-12.4 32.4-17.9 44.1-5.5 11.7-16.4 16.6-32.6 14.7-18.6 1.9-26.8-2.4-24.4-12.9 2.4-10.5 8.1-17 17.2-19.4 9.1-2.4 15.1-4.8 17.9-7.2 7.2-23.4 8.8-47.1 5-71-12.9-2.9-27.5-4.3-43.7-4.3-30.1 0-61.7 3.8-94.6 11.5-6.7 14.3-8.8 38.2-6.5 71.7 5.3 11.5 2.9 20.1-7.2 25.8-6.7 6.2-20.3 8.1-40.9 5.7-6.7-7.6-6.8-14.8-.4-21.5 6.5-6.7 11.1-14.3 14-22.9-6.7-31.5-15.3-48.8-25.8-51.6-13.4 9.1-24.1 29.2-32.3 60.2-9.1 19.6-25.3 31.1-48.8 34.4-16.7 0-24.7-3.9-24-11.8.7-7.9 4.1-12.5 10-14 6-1.4 14.5-5 25.5-10.8 11-5.7 18.4-18.6 22.2-38.7s5.8-35.3 5.8-45.8zm80.3-128.4c.5-25.3-7.8-43.6-24.7-54.9-17-11.2-31.7-15.4-44.1-12.5 20.1 15.3 21.7 27.2 5 35.9-6.7 5.3-7.6 12.4-2.9 21.5s1.9 22.7-8.6 40.9c-2.4 22 .7 42.1 9.3 60.2 37.8-35.4 59.8-65.7 66-91.1zm-129.8 23c-4.3 3.3-7.3 6-9 7.9-1.7 1.9-4.7 3.8-9 5.7 3.3 8.6 7.4 11.5 12.2 8.6 4.3 0 7.3-2.5 9-7.5 1.7-5 5.9-8.4 12.5-10 6.7-1.7 12-.1 15.8 4.7 12.4-13.9 15.5-29.2 9.3-45.9-1.9-7.6-5.3-12-10-12.9-4.8 0-8.1-1.4-10-4.3-3.3-5.7-2.6-11.5 2.2-17.2C66.4 45 57.3 49.8 49.7 53.6 42 57.4 35.8 63.2 31 71.1S20 87.7 12.3 97.3c-.5 3.8 2.2 7.4 7.9 10.8.5 6.7 4.5 9.8 12.2 9.3 4.3-1.9 7.8-4.3 10.4-7.2 2.6-2.9 6.3-2.9 11.1 0zM101.2 50v.7c7.6-1 10.5-6.7 8.6-17.2-1-2.4-2.6-3.1-5-2.2-3.8 1-4.5 4.8-2.2 11.5l-1.4 7.2zm-42.3 5.7c.5 1.4-1.9 3-7.2 4.7-5.3 1.7-8.6 4.3-10 7.9-1.4 3.6-1.7 7.8-.7 12.5l-2.2.7C34.5 74.8 34 69.3 37.4 65c3.3-4.3 7.8-6.9 13.3-7.9 5.5-.9 8.2-1.4 8.2-1.4zm4.3 8.6c-1.9 5.3-6.5 10-13.6 14.3 0 1.9-1.2 3.1-3.6 3.6l-.7-4.3c-2.9-7.2-1.6-11.7 3.9-13.6 5.6-1.9 10.2-1.9 14 0zM42.4 85.8h2.9c1 11.5 15.1 13.9 42.3 7.2l-4.3 4.3c-21.5 4.3-34.1 4.4-37.6.4-3.6-4.1-4.7-8.1-3.3-11.9z"/></svg>