<svg xmlns="http://www.w3.org/2000/svg" viewBox="-10 0 1262 511"><path d="M1123 511q-26 0-47-4t-31-8l-208-4q-4 1-16 5.5t-23 8.5l-37-19q-4 3-12.5 8t-14.5 8h-32l-43-14v-51q-22 8-46 17t-38 14h-53l-10 20-32 14-332-4-22-14h-15q-8 6-19 17l-51 2-32-12-19-46 38-34q9-4 24-6t25-2q18 8 43 16t38 8q41 0 83.5-4t75-10q32.5-6 40.5-14 6-4 11-12.5t9-17.5l-29-33v-59l-3-19-63 50-35-1-21-23-3-9h-9l-57-52q-7-8-5.5-19t8.5-18L268 38q3-6 14-22t27-16q9 0 14.5 4.5T333 14q6-5 15.5-9.5T369 0q23 0 33.5 11.5T414 30q37 9 64 27t49 50q3 3 15.5 19t34 35q21.5 19 49.5 33t62 14q33 0 72.5-13.5T841 164l57-23q17-47 53-79t89-32q39 0 73.5 12.5t61 31q26.5 18.5 41.5 38t15 33.5q0 12-7 19.5t-24 7.5q-11 0-23.5-9t-26.5-22q-20-18-47.5-37T1041 85q-22 0-39 10t-28 25q24-6 48-6 42 0 83 18t74 49.5q33 31.5 53 72t20 86.5q0 61-20.5 98.5t-50.5 55q-30 17.5-58 17.5zM44 488l41-2q3-3 9.5-9t10.5-10l26 3 22 12q9 0 42.5.5t81 1.5q47.5 1 100 1.5T476 487l21-9 27-67 19 6-15 36h44l119-45q20-7 50.5-14.5t63-12.5q32.5-5 57.5-5 19 0 35.5 2t28.5 4q-17-26-30-62.5T882 247q-3-40 8-82l-42 17q-41 17-82.5 31T688 227q-37 0-71-17.5t-61-43Q529 141 512 118q-17-25-43-45t-52-24q0 17-4 37.5T402 124l-17-6q3-5 7-21t5-34q1-18-5-31t-24-13q-11 0-21 7t-16 14l-50 12-97 140q2 7 2.5 18t-2.5 18l39 32 5 2 52-49 10 10-49 52 3 6 10 12h22l105-85 7-16-3-39h19l4 39-10 26-35 29 3 31v56l18 18 4-13q5-15 10-30.5t13-25.5l15 12q-6 9-10.5 22t-8.5 27q-7 22-15 42.5T370 419v-1q-11 9-45.5 16.5t-79.5 12q-45 4.5-87 4.5-15 0-40.5-8.5T74 426q-7 0-17 1t-17 4q-4 3-14 9.5T12 451l3 6 25-13 5 11-25 12 4 10 26-12 5 10-19 9q2 1 4.5 2t3.5 2zM294 31l24-5q-4-6-9-6-8 0-15 11zm825 461q24 0 50.5-15.5t45-49Q1233 394 1233 340q0-42-18-79t-48.5-65.5q-30.5-28.5-68-45T1022 134q-29 0-62 9-11 23-15 46.5t-4 38.5v19q8-10 19.5-19t29.5-9q24 0 40 13t21 25l-17 8q-4-9-15.5-18t-28.5-9q-15 0-24 8.5T952 265q-5 10-7 15 9 43 29.5 72.5t45.5 47q25 17.5 48 25t36 7.5q25 0 41-4.5t22-8.5l11 16q-7 5-26.5 11t-47.5 6q-17 0-47-11t-61-36.5Q965 379 943 336t-22-108q0-36 13.5-73.5t40-63Q1001 66 1041 66q39 0 69 20.5t53 40.5q12 10 21.5 18t15.5 8q11 0 11-15 0-5-13.5-19t-37-30.5Q1137 72 1106 60.5T1040 49q-37 0-64 18t-44.5 48q-17.5 30-25 64.5T901 247q2 41 21 84t50 79.5q31 36.5 69 59t78 22.5zM282 148q-11 0-16.5-5.5L257 134q4-3 10-9.5t17-6.5q11 0 18 5.5t10 8.5q-6 5-14.5 10.5T282 148zm534 274q28 0 56.5-1t50-2.5Q944 417 950 416l-11-11q-4-2-24.5-5.5T862 396q-24 0-55.5 4.5T746 412q13 4 30 7t40 3zm-18 67l36-14 188 4q-29-19-58-48-25 4-68.5 6t-79.5 3q-29 1-57-6t-43-14q-9 3-19 6t-20 8v7h28v12h-28v11h28v11h-28v3q5 2 13.5 5t14.5 5h24q4-2 14-7.5t18-9.5z" fill="currentColor"/></svg>