<svg xmlns="http://www.w3.org/2000/svg" viewBox="0 0 587.2 251"><path d="M553 212.5c-7.2-21.5-19-39.5-35.6-54s-34.9-23.6-55.1-27.2c-14.8-.9-19.2 7.4-13.4 24.8 12.5 20.1 42.3 40.1 89.3 59.8 11.2 0 16.2-1.1 14.8-3.4zM173.7 36c1.8 3.6 4.8 5.5 9.1 5.7 4.3.2 6.8-4.4 7.7-13.8.9-7.6 5.8-9.6 14.8-6-2.2-5.8-6.3-8.7-12.1-8.7-3.1 0-6.3 3.1-9.4 9.4-6.8 6.2-10.1 10.7-10.1 13.4zm124.2 47.6c33.1 32.2 79 41 137.6 26.2 15.2-18.8 32.1-29.2 50.7-31.2s36.4 12.2 53.4 42.6c-5.8 11.2-14.8 8.8-26.9-7-12.1-15.9-25.3-17.6-39.6-5 24.2 13 46.3 27.4 66.5 43.3s34.5 32.7 43 50.4c8.5 17.7 5.4 33.2-9.4 46.7H354.9c-7.6-9-7.2-16.7 1.3-23.2s26.2-6.2 53 1c26.9 7.2 44.5 2.9 53-12.8-2.7-8.1-10.6-13.7-23.8-16.8-13.2-3.1-25.1-1.9-35.6 3.7s-33.1 11.6-67.8 18.1c-34.7 6.5-62.7 8.3-83.9 5.4s-28.9 1.6-22.8 13.4c6 11.9-59.4 15.3-196.4 10.4H5.8c-7.2-7.2-7.7-15.6-1.7-25.2s25.2-10 57.4-1c30 3.1 52.6-.3 67.8-10.4 15.2-10.1 21.1-19.1 17.8-27.2-3.4-8.1-3.4-20.6 0-37.6s5.9-28.9 7.7-35.6c-2.2-6.7-5.6-10.4-10.1-11.1-4.5-.7-8.1.9-10.7 4.7-2.7 3.8-8.5 6.4-17.5 7.7-7.2-3.6-11.3-9.2-12.4-16.8-1.1-7.6-2.1-11.4-3-11.4-4.5-3.1-6.7-7.2-6.7-12.1-6.3-5.8-8.3-11.2-6-16.1 1.3-3.1 5.7-6.8 13.1-11.1 7.4-4.3 14.1-9.1 20.1-14.4 6-5.4 12.5-9.1 19.5-11.1 6.9-2 14.4-4.6 22.5-7.7C164.9 4.8 175.8.7 196.2 0s39.3 5.1 56.7 17.5c17.5 12.3 32.4 34.4 45 66.1zM173.7 181c-5.4 8.1 1.3 23.3 20.1 45.7 1.3-23.7 16-33.5 44-29.2 28 4.3 54.7 5.5 80.2 3.7 25.5-1.8 60.4-12.5 104.7-32.2 0-24.2-4-34.9-12.1-32.2-53.7 5.4-96.9-7.6-129.6-38.9-27.2 35.6-63 63.4-107.3 83.1zm100-105.4c-2.2-13-9.8-25.6-22.8-37.9-13-12.3-25.3-18.9-36.9-19.8 13.4 19.2 11.6 30.4-5.4 33.6-7.6 3.1-10.5 9.3-8.7 18.5 1.8 9.2-4.7 20.5-19.5 33.9-8.1 18.8-11.2 37.6-9.4 56.4 44.3-21.2 78.5-49.4 102.7-84.7zM133.4 81c-4.9 1.8-8.3 3.4-10.1 4.7-1.8 1.3-4.9 2.2-9.4 2.7.4 8.5 3.4 12.1 8.7 10.7 4 1.8 7.4.6 10.1-3.7 2.7-4.3 7.3-6.2 13.8-5.7 6.5.4 10.9 3.4 13.1 8.7 14.8-9 21.7-21.7 20.8-38.3.9-7.6-.7-12.3-4.7-14.1-4.5-1.8-7.2-4-8.1-6.7-1.3-6.3.9-11.4 6.7-15.4-10.7 2.7-20.1 4.6-28.2 5.7-8.1 1.1-15.3 4.5-21.8 10.1s-14.7 11.5-24.5 17.8c-1.3 3.6.2 7.8 4.7 12.8-1.8 6.3 1.1 10.1 8.7 11.4 3.6-.9 7-2.1 10.4-3.7 3.4-1.6 6.7-.6 9.8 3zm59.7-40.3V42c7.2.9 11.2-3.6 12.1-13.4 0-2.7-1.1-3.8-3.4-3.4-3.6-.4-5.6 2.7-6 9.4l-2.7 6.1zM153.5 34c0 1.3-2.6 2-7.7 2s-8.8 1.5-11.1 4.4c-2.2 2.9-3.6 6.6-4 11.1H128c-1.8-7.2-.6-12.2 3.7-15.1s9-4 14.1-3.4c5.2.6 7.7 1 7.7 1zm2 8.7c-3.6 4.5-9.2 7.6-16.8 9.4-.4 1.8-1.8 2.5-4 2v-4c0-7.6 2.7-11.4 8.1-11.4 5.4 0 9.6 1.3 12.7 4zm-24.8 13.4l2.7 1.3c-2.7 10.3 9 16.3 34.9 18.1l-4.7 2c-20.6-1.8-31.8-5-33.6-9.7-1.8-4.6-1.5-8.6.7-11.7z"/></svg>