<svg xmlns="http://www.w3.org/2000/svg" viewBox="0 0 595.3 231.9"><path d="M59.7 56.7c6.3-2.7 20.1-16 46.6-42.5C122.6 0 155.1-3.6 204 3.6S290.4 14.8 316.8 16c26.3 1.2 47 3.3 61.9 6.5 14.9 3.1 28.2 10.7 39.8 22.6 11.6 11.9 21 26.8 28.1 44.7 7.1 17.9 23.2 42.2 48.2 73 25 30.8 54.9 43.9 89.7 39.3 5.6 0 9.3 3.1 10.9 9.4-2.3 9.9-7.6 14.9-15.9 14.9-37.4-.3-65.8-10.4-85.2-30.1-19.4-19.7-35.9-39.7-49.4-59.9s-24.5-39.1-32.8-56.6c-3 28.8 3.8 53.3 20.4 73.5l53.2 35.3 2 8c-2 5.3-4.5 17.1-7.5 35.3h-32.8c-1.3-6.6-.6-11.3 2.2-13.9 2.8-2.7 6.5-2.7 11.2-.2 4.6 2.5 7.3-.9 8-10.2-1.3-5.6-18.4-16.3-51.2-32.1-32.8-15.7-54-35.9-63.6-60.4-7.6 6.6-15.9 35.6-24.8 87-4.6 6-10.9 15.2-18.9 27.8h-24.8c-3 0-4-3.3-3-9.9 1-6.6 6.6-8 16.9-4 6.6-7 10.6-16.2 11.9-27.8 1.3-11.6 1.7-24.6 1-39-.7-14.4 2.2-29.4 8.4-45-28.8.7-45.7 2.5-50.7 5.5s-19.5 4.8-43.7 5.5c1.3 2.3 4.1 12.3 8.2 30.1 4.1 17.7 8.8 30.6 13.9 38.5 5.1 8 7.7 12.6 7.7 13.9-6.3 5.3-9.1 14.4-8.4 27.3-1.7 3-4.8 4.5-9.4 4.5h-24.8c-3.6-8.6-.7-13.9 8.9-15.9 11.3 7.3 15.1 3.5 11.4-11.4-1.7-10.9-5.1-21.1-10.2-30.6-5.1-9.4-9-15.6-11.7-18.4-2.7-2.8-9.3-12.7-19.9-29.6-4 1.3-7.2 8.5-9.7 21.6-2.5 13.1-5.5 21.9-8.9 26.3-3.5 4.5-7.7 15.8-12.7 34-6.3 3.6-10.1 8-11.4 13.2-1.3 5.1-2.8 7.7-4.5 7.7l-8.9 2c-14.6 1-21.9.3-21.9-2-2.3-8.3-.3-12.9 6-13.9 7.6-.3 11.8 0 12.4 1 6.6-4 11.8-12.3 15.4-24.8 7-25.2 10.6-50.9 10.9-77-12.6-9.3-48.8-14.9-70.6-8.4-9.1 11.5-19.4 21.4-31 29.7-3.3 14.9-10.9 21.4-22.9 19.4-9.3-2.7-16.7-5-22.4-7-5.6-.3-9.6-2.3-11.9-6 1.7-21.5 2.9-39.1 8.9-51.3C-4 72.5 18.7 56.6 30 66.3c2.9 2.5 2.7-.6 1.5-5.7-3.9-15.9 28.5-19.3 28.2-3.9zm-3.5 15.7c-4.6-8.9-8.8-12.5-12.4-10.7-3.6 1.8-2.7 5.3-4.8 12.6l-2.6 2.9c-6.3-1.2-10.6-4-13.9-1.3-3.3 2.7-3.3 7.1 0 13.4-9.3 26.2-11.3 40.7-6.2 43.5 5.1 2.8 9.1 3.6 11.9 2.2 2.8-1.3 4.4.3 4.7 5 6.6 1 12.6-5.8 17.9-20.4 6-3 11.3-9.1 15.9-18.4 3.6-6.6 8.6-10.3 14.9-10.9 45.1-9.3 72.2-6.7 85.2 3.5 12.4 9.7 21.9 16.1 30.6 13.4 9.6 19.2 21.7 43.1 36.3 71.6l4-3.5v-1c-2.7 1-5.8-5.7-9.4-20.1-3.6-14.4-9.1-30.7-16.4-48.9 0-8 7.3-13.4 21.9-16.4-9.9 6-12.6 11.1-8 15.4 21.5.3 35.5-1.4 42-5.2 6.5-3.8 31.2-4.9 74.3-3.2-3-5.3-7.3-9.3-12.9-11.9-5.6-2.7-2.5-3.3 9.4-2 11.9 1.3 20.8 9.5 26.6 24.6 5.8 15.1 18.1 31.1 37 48l43.2 21.4c-32.1-22.5-47.6-46.4-46.5-71.6 1.2-25.2-4.2-43.1-16.1-53.7l3.5-5.5c17.9 8 31.1 21.6 39.8 41 8.6 19.4 23 42.5 43.2 69.3 20.2 26.8 39.8 44.4 58.9 52.7 19 8.3 35.9 11.8 50.4 10.4 6.3-.3 9.4-1.9 9.4-4.7 0-2.8-3.3-4.1-9.9-3.7-34.1 4.3-64.5-10.4-91.2-44.2-26.7-33.8-44.6-61.6-53.7-83.5-9.1-21.9-23.9-36.6-44.2-44.2-20.4-7.6-44.1-11.7-71.1-12.2-27-.5-56.2-2.6-87.5-6.2-31.4-3.8-56.2-5.4-74.4-4.9-18.2.5-33.5 5.9-45.7 16.1-25.2 22.2-43.2 36-54.1 41.3zm-4.5 7.4l.5 2.5-6 5c-1.3 4.6-4 8.1-8 10.4-4 2.3-5.6 5-5 8l-1.5 1c-4-8.3-4.5-14-1.5-17.1 3-3.1 6.2-4.6 9.7-4.5 3.6.1 7.5-1.6 11.8-5.3zm281.2 23.9C323 118.6 320 141 324 170.8c5.3-27.2 13.1-49.4 23.4-66.6l-14.5-.5zm-162.5 14.9c-2 14.6-5.3 31.8-9.9 51.7-1.3 3-.5 4 2.5 3 6.6-16.2 12.8-34.3 18.4-54.2l-11-.5z"/></svg>