<svg xmlns="http://www.w3.org/2000/svg" viewBox="-10 0 1219 480"><path d="M147 480l-35-7-20-44 28-32h57l63-153-12-22-7-17-65-2q-5 6-21 24t-30 33l-23 8q-17 0-38.5-11.5T5 238l-15-20v-58q5-17 14-39t20-32q3-3 8.5-7T45 74q0-2 1-16.5T53.5 29Q60 15 77 15q5 0 9 2.5t7 5.5q4-6 9-10.5T115 8q10 0 16.5 5T142 25q26-7 63.5-16T271 0q16 0 47.5 7T384 22q32 8 63 14.5t48 6.5h241q42 1 82 15t71 46q9 9 23 25.5t29 35.5q24 30 56 69.5t60 68.5q26 29 44.5 40.5T1135 355q22 0 32.5-7t25.5-7q6 0 11 6.5t5 14.5q0 10-21 27t-55 17q-24 0-46.5-11t-40-26.5Q1029 353 1018 340q-23-28-53-63.5t-57.5-68Q880 176 864 156q1 18 4 38.5t9.5 37Q884 248 897 255q23 13 48.5 30t39.5 27l-3 84 7 37-15 31h-41l-39 16-35-7-21-44 29-32h44l-9-43q-5-1-25-8t-42-15.5q-22-8.5-35-13.5l-5 28-19 55-9 54-46 10-39 16-35-7-20-44 28-32h55l7-76q-4-5-11.5-13T693 292q-4-7-10-16t-10-16q-36 7-76 12.5t-65 5.5q-29 0-69-4t-68-7l10 20 2 40 32 106-16 31h-41l-39 16-35-7-20-44 28-32h33l-15-35-30-38q-9 10-20.5 26t-20 29.5Q255 393 253 396t-8.5 16q-6.5 13-14.5 26t-14 17l-39 9zm194-21l38-14h32l7-13-30-104-2-38-43-85 21 2 20 39q16 2 43 5t55.5 5q28.5 2 49.5 2 19 0 48-3.5t59-9q30-5.5 52-9.5-2-4-4-7t-3-6q-11-20-14.5-49.5T666 122h19q1 25 6.5 58t24.5 57q18 23 48 41t63 31.5q33 13.5 58.5 21.5t32.5 10l14 69-5 7h-51l-15 16 1 3 25-12 3 8-24 11 3 7 25-11 3 7-21 11 16 2 37-14h33l7-13-7-33 5-77-80-50q-19-10-27.5-36T848 181q-3-29-4-51l15-9 175 208q16 19 43 38.5t56 19.5q26 0 41.5-9t15.5-16q0-1-.5-1h-.5q-10 5-21.5 9.5T1135 375q-23 0-44-14.5t-49-43.5q-29-31-60.5-70T925 177q-18-23-31.5-38.5T875 117q-28-29-65-41t-75-13H495q-18 0-50-7t-66-15q-32-8-62-14.5T271 20q-26 0-62 8.5T147 44q3 24-7 46h-21q5-9 7-19.5t2-20.5q0-15-4.5-20.5T115 25q-8 2-11 13.5T100 63q-1 13-1 18l-15 1 1-12q-10 5-23.5 13T37 103q-7 7-15.5 25.5T9 161v19.5L8 203q4-3 7.5-5.5T23 195q10 0 10 8 0 4-5 5.5t-6 6.5q-2 6-2 9l29 13q4-8 11.5-14T75 213l7 11q-5 4-9.5 9T66 245q9 4 12 4l16-6q5-7 20-23t25-27q6-8 9-18t3-25l20 1q-1 10-2 17.5t-3 14.5l51 2q-2-11-2.5-22t.5-18l19 1q0 10 2 26.5t4 26.5l6 17 14 25 92 118 23 51-6 7h-44l-15 16 2 3 24-12 3 8-24 11 3 7 25-11 3 7-21 11zM65 61l19-11q0-15-7-15t-9 9q-2 9-3 17zm-1 94q-6 0-13-10.5T45 120h44v3q-13 5-18 13.5T64 155zm616 304l37-14 34-8 8-40 18-53 4-33q-14-7-35.5-22.5T705 253l-15 3q4 7 8.5 13.5T707 281q5 9 13.5 19t13.5 16l-9 99-61 2-15 16 1 3 25-12 3 8-24 11 3 7 25-11 3 7-21 11zm-535 0l28-14 32-7q5-6 13.5-20t13.5-24q5-10 15-26t22-32q12-16 23-27l-39-49-66 157h-58l-15 16 2 3 24-12 4 8-25 11 4 7 24-11 3 7-21 11z" fill="currentColor"/></svg>