<svg xmlns="http://www.w3.org/2000/svg" viewBox="-10 0 1356 710"><path d="M240 710l-4-12q11-14 29-34.5t32-37q14-16.5 14-15.5 6-8 12-19t6-17q0-7 4-36t14-69.5q10-40.5 28-84.5-4-3-5-8-7-11-17-22t-21-10q-13 1-31.5 6t-29.5 9q-11 7-26.5 23T212 416q-17 17-33 29t-29 12q-19 0-28.5-12.5T110 425q-11-2-31-12t-40.5-23.5Q18 376 4 362t-14-25q0-11 11.5-25T30 284.5Q47 271 62 260q9-8 16-13.5t9-7.5q3-3 7.5-13t10.5-23q10-24 23.5-52.5T158 106q11-10 38-24t62-28l7-54q14 5 31.5 13.5T325 31q28-8 56-13.5t52-5.5q38 0 63 3t45 5q16 2 31.5 3.5T605 25q18 0 43-2.5t54-6.5q37-5 77-9.5T857 2q92 0 179 22.5t157 69q70 46.5 111.5 118T1346 381q0 11-4.5 25t-18.5 14q-14 0-20-17.5t-9-33.5q-4-20-9.5-42t-16.5-44q4 16 6.5 32.5t2.5 31.5q0 16-7.5 42.5T1252 445q-11 31-19 59t-8 45q0 22 2.5 50.5t5.5 54.5q3 26 5 38l-22 18-19-22-21 22h-126l-4-16 49-49v-84q-10-10-23-26.5t-27-33.5l4 83q-8 12-18 29t-14 27q-5 11-11.5 26.5T994 692l-33 18-6-20-26 20H821l-5-16 75-71 10-18q0-3 .5-14t.5-21q0-8-2-32t-5-38q-20 3-41 5.5t-43 2.5q-38 0-75-4.5t-66-10q-29-5.5-44-9.5-2 9-3 16.5t-1 11.5q0 17 4.5 35.5T635 579l5 20-39 102-12 9-22-16q-4 3-9.5 7.5T548 710h-91l-6-14q10-12 23.5-30.5t23.5-35q10-16.5 10-23.5t-4-25q-4-18-10-38.5T483 507q-4 15-9 34t-9.5 35q-4.5 16-7.5 23-4 8-11 17.5T433 634q-10 11-12 16-3 6-12.5 21.5T391 700l-23 10-16-21-19 21zm236-19h11l21-28 9 7-16 21h15l21-28 9 7-16 21h12q3-2 11-7t15-9l19 12q4-12 12-32t14.5-36.5Q620 602 620 599q0-1-1.5-5.5T616 584q-4-14-9-33.5t-5-38.5q0-13 7-44.5t17-68.5q10-37 19-68l18 6q-7 24-17 61.5T629 465q14 3 42.5 8.5t65.5 10q37 4.5 74 4.5 38 0 75.5-8t68-18q30.5-10 48.5-17-16-21-29.5-45T948 345l19-7q12 32 25 55.5t29 43.5q1 0 1-.5v-.5q3 5 15 20.5t27.5 35.5q15.5 20 30 37t22.5 25l-2 99-38 38h27l21-28 8 7-16 21h22l21-28 9 7-16 21h19l28-27 18 18q-3-20-6-46t-5-49.5q-2-23.5-2-37.5 0-19 9-49t19-61q9-28 16.5-53.5t7.5-38.5q0-19-4.5-40.5t-9.5-39l-7-24.5q-1-1-1.5-3.5t-1.5-4.5l15-9q35 33 47.5 70.5T1314 365q1 11 4 23.5t5 12.5q2 0 3-7.5t1-12.5q0-93-40-161t-107-112q-67-44-151-65.5T857 21q-36 0-76 4.5T705 35q-28 5-54 7.5T605 45q-20 0-35.5-1.5T538 40q-20-3-45-5.5T433 32q-33 0-73 9.5t-78.5 24Q243 80 213.5 95T172 120q-14 15-27.5 41.5T122 211q-6 14-10.5 25.5T102 252q-4 4-11 10t-17 13q-13 10-28.5 22t-26 22.5Q9 330 9 337q0 8 13.5 19.5t32.5 23q19 11.5 36 19t24 7.5q13 0 20.5-17.5T146 351q3-20 3-27 10-6 23.5-17.5t24-23Q207 272 209 267l16 9q-2 6-11.5 17t-22 22.5Q179 327 169 334q-1 12-5.5 29.5t-13.5 34q-9 16.5-21 24.5 2 4 7 9.5t14 5.5q21 0 46-28t62-62q1-1 3-1.5t3-1.5q0-4-1-9.5t-3-7.5q-1-3-7.5-7.5T241 312l7-13q7 5 15 11.5t10 8.5q2 2 2.5 8.5T277 338l12-4q-1-3-2.5-9.5T284 316q-4-7-10-12.5T262 293l8-12q8 7 17.5 16t10.5 13q2 9 4 21l12-3q-1-4-1.5-11t-1.5-10q-2-3-9-12t-14-17l8-11q8 8 17.5 18.5T324 300q1 4 2 12t1 14q1 0 2-.5t2-.5q3 0 6 .5t6 1.5q0-6-.5-13.5T341 304q-1-4-7.5-14.5T322 271l11-9q7 10 14 22t8 15q2 5 2.5 15.5t.5 18.5q9 7 16 16t12 18q7 11 11 14 7 7 21 16t46 34q11 8 19 21.5t11 23.5q0 1 5.5 18t12 40q6.5 23 11.5 43.5t5 29.5q0 5-8.5 19.5t-20.5 32Q487 676 476 691zM279 46q5-2 11-4t11-4q-9-6-19-11zm51 90l-19-2 6-73q14 5 37 17t34 22l-14 14q-16-14-39-25-1 9-2.5 23t-2.5 24zm-142 47l-19-1q0-8 8-21.5t23.5-24.5q15.5-11 39.5-11 5 0 10.5.5T263 128l-5 18q-5-1-9-1.5t-9-.5q-26 0-38.5 15T188 183zm38 14q-16 0-16-15 0-6 4.5-11t11.5-5q5 0 10 5t5 11q0 6-5 10.5t-10 4.5zM46 351q-19 0-19-19 0-20 19-20 8 0 14 5.5t6 14.5q0 8-6 13.5T46 351zm0-13q8 0 8-6 0-7-8-7-6 0-6 7 0 6 6 6zm47 43q-8 0-14-6t-6-14q0-8 6-14t14-6q8 0 13.5 6t5.5 14q0 8-5.5 14T93 381zm0-13q7 0 7-7t-7-7q-7 0-7 7t7 7zm176 323h13l21-28 9 7-16 21h15l21-28 9 7-16 21h7l27-24 13 21 7-4q7-11 14.5-24.5T403 642q2-4 6-9l8-10q6-7 12.5-16t10.5-17q3-9 8-26.5t10-37.5q5-20 9-35.5t5-18.5q-2-6-6.5-13T453 446q-25-19-40.5-29.5T390 401q-15 41-24 78.5t-13 63q-4 25.5-4 32.5 0 10-8 24.5T325 625zm578 0h26l21-28 9 7-16 21h15l21-28 9 7-16 21h10l39-28 9 21q5-11 13-27t12-25q5-11 14.5-27t16.5-27q-1-4-2-21t-2-39.5q-1-22.5-2-42.5h1l-10-14q-11 5-38 15.5T914 495q3 14 5.5 39.5T922 570q0 8-.5 20t-1.5 20l-15 26z" fill="currentColor"/></svg>