<svg xmlns="http://www.w3.org/2000/svg" viewBox="0 0 594.6 288.7"><path d="M124.5 85.8c8.3 1.5 12.8 9.4 13.6 23.7-1.5 9-10.5 12.4-27.1 10.2-4.9-.8-7-2.8-6.2-6.2.8-3.8 5.1-5 13-3.7 7.9 1.3 11.4-.5 10.5-5.4-.9-4.9-3.3-7.5-7.1-7.9-3.8-.4-7.7 3.2-11.9 10.7-3-.8-4.3-3.2-4-7.3 4.9-10.9 11.3-15.6 19.2-14.1zm-35.6 42.4c3 14.7-3 21.7-18.1 20.9-4.1-1.5-5.8-4.3-5.1-8.5 2.3-9.4 10-13.5 23.2-12.4zm-15.8 13.6c2.6.8 5.8-1.1 9.6-5.7-6-.4-9.2 1.5-9.6 5.7zm-.6 80.8c6 1.1 8.5 4.7 7.3 10.7-3.4 7.5-7.3 10.7-11.9 9.6l-1.7-.6c-5.3-1.5-7.5-4-6.8-7.3l1.1-1.7 1.7.6c1.5.4 3 1.3 4.5 2.8l1.7.6c3-1.1 4.7-2.8 5.1-5.1v-1.1c0-.8-1.5-2.1-4.5-4v-2.3c.9-1.5 2-2.2 3.5-2.2zM406 272.9c4.5-4.9 8.5-5.1 11.9-.6 3.4-5.3 8.1-5.5 14.1-.6 3-7.9 7.9-10 14.7-6.2 6-30.1 10.5-50.9 13.6-62.2l-26 6.2c-.8 9.4-2.5 18.9-5.4 28.5-2.8 9.6-7.2 16.9-13 21.8-5.9 5-9.2 9.3-9.9 13.1zm91.5-88.2c4.9-.8 7.8 3.6 8.8 13 .9 9.4.1 19.9-2.5 31.4s-6.9 19.8-12.7 24.9c-5.8 5.1-9.3 9.5-10.5 13.3 4.5-5.3 8.7-5.7 12.4-1.1 3-5.3 7.5-5.5 13.6-.6 3.4-7.5 8.5-9.4 15.3-5.7 6.8-26.4 10.9-55.2 12.4-86.5 19.2-21.1 31.3-39.6 36.2-55.4 1.9-13.6-8.3-32.2-30.5-56-22.3-23.7-60.3-37.1-114-40.3-53.7-3.2-96.5-2.5-128.3 2-31.8 4.5-57.2 8.1-76 10.7v.6c11.3-.8 16.9.1 16.7 2.5-.2 2.4-3.1 3.7-8.8 3.7.4 2.6.6 5.5.6 8.5-1.1 2.3-4.9 1.7-11.3-1.7-6.4.8-17 4-31.6 9.6-43.7 12.4-70.4 20.8-80 25.1-9.6 4.3-20.6 15.5-33.1 33.6-3 2.3-6.4 5-10.2 8.2-3.8 3.2-3.6 8.4.6 15.5-8.7 15.4-15.3 27.7-19.8 36.7-4.5 9-7.9 13.9-10.2 14.7l-14.7 13c-5.3 9.4-2.3 20 9 31.6 6.8 9.4 15.6 15.1 26.6 17 8.7-.4 19.4-8.9 32.2-25.4 27.9-17 46-24.7 54.3-23.2 9.8 1.1 18.7-1.5 26.6-7.9 6.4-13.9 10.5-30 12.2-48.3 1.7-18.3-.1-32.3-5.4-42.1 10.9 4.9 16 17.2 15.3 37s-3.8 37.4-9 52.8c3.8.8 9.9-6.4 18.4-21.5 8.5-15.1 14.2-29.8 17.2-44.1 2.6-14.7 2.7-28.4.3-41.3-2.4-12.8-1.1-12.1 4 2.3 5.1 14.3 6.3 29.3 3.7 44.9-2.6 15.6-7.2 29.9-13.6 42.7 23.7-26.4 37.7-46.8 41.8-61.3 4.1-14.5 6.8-28.3 7.9-41.3s2.8-17.7 5.1-14.1c2.3 3.6 2.7 17.5 1.4 41.8-1.3 24.3-11.6 47.4-30.8 69.2 19.6 14.7 38.1 22.2 55.7 22.6s19.3 25.8 5.4 76.3c7.5-6 12.8-5.3 15.8 2.3 4.5-8.7 9-8.5 13.6.6 2.3-9 7.7-8.7 16.4 1.1-5.3-33.5-7.3-56.5-6.2-69 1.1-12.4 8.1-18.5 20.9-18.1 6.4 1.1 16.7 2.4 30.8 4 13.9 1.7 50-1.1 108-8.3zm-258.8 14.7c1.5 25.2-1.9 46.9-10.2 65 6.4-4.9 10.9-4.1 13.6 2.3 3.4-7.2 7-7 10.7.6 1.9-7.5 6.4-7.2 13.6 1.1-6-23-7.9-42.2-5.7-57.6l-22-11.4zm33.3 15.8l2.3 34.5 4 18.7c1.1 9-9.2 12.9-31.1 11.6-21.9-1.3-32.8-5.2-32.8-11.6 0-5.3 1.6-11.7 4.8-19.2 3.2-7.5-1-26.2-12.7-56-4.5 10.9-12.8 15.6-24.9 14.1-9 10.9-22.2 15.4-39.6 13.6-6.4-1.5-22.6 6.4-48.6 23.7-9.8 14.3-24.9 22.4-45.2 24.3-24.1-7.2-39.9-23.4-47.5-48.6-.8-8.7-.9-14.3-.6-17 .8-1.9 6.2-7.3 16.4-16.4 4.5-2.3 8.7-7.5 12.4-15.8 3.8-8.3 10.5-19.4 20.3-33.3-2.3-6.8-2.6-13.1-1.1-18.9 1.5-5.8 7.7-10.3 18.7-13.3C73.3 90.1 78 82.8 81 83.5l9.6-7.3c1.9-6.8 5.7-10.2 11.3-10.2 8.3-5.3 30.7-11.3 67.3-18.1 12.8-3.8 25.2-7 37.3-9.6.4-3 2.8-5.3 7.3-6.8 1.5-7.2 5.8-10.2 13-9 3-1.5 21.9-6.4 56.8-14.7 34.9-8.3 83.6-10 146.4-5.1 62.7 4.9 105.4 21.4 128 49.5 22.6 28.1 34.5 51.8 35.6 71.2 1.1 19.4 1.3 33.8.6 43.2-.8 9.4-4.7 14.1-11.9 14.1-8.3.8-11.3-11.1-9-35.6-6.4 12.4-13.8 23.2-22 32.2-1.9 18.5-4.2 38-7.1 58.5-2.8 20.5-8.6 34.2-17.2 41-19.2 4.1-33.2 6-41.8 5.7-8.7-.4-15.3-3.8-19.8-10.2 0-12.8 5.1-20 15.3-21.5 7.9-10.5 10.7-26.9 8.5-49.2h-12.4c-3 16.6-6.7 32.1-11 46.6s-8.6 24.2-12.7 29.1c-20 7.9-34.2 11.7-42.7 11.3-8.5-.4-15.2-4-20.1-10.7 0-12.4 5.1-19.4 15.3-20.9 3.8-9.8 6.8-19.8 9-30 2.3-10.2 1.7-15.3-1.7-15.3-29 .4-46.5-1.5-52.6-5.7-6.8 5.7-8.6 16.2-5.4 31.6 3.2 15.4 4.2 28.1 3.1 37.9 1.5 8.3-10.8 12.4-37 12.4s-39.1-3.8-38.7-11.3c.4-7.2 2.3-15.1 5.7-23.7 3.4-8.7 5.1-21.3 5.1-37.9-10.7 2.5-17.7 2.5-21.1.2z"/></svg>