<svg xmlns="http://www.w3.org/2000/svg" viewBox="-10 0 1631.4 913.133"><path d="M371 913.133q-13 0-19.5-9t-6.5-22q0-6 7.5-22.5t14.5-28.5q8-15 21.5-37t18.5-40l5.5-13 13.5-32.5q13.5-32.5 16.5-38.5t14.5-30q6-10 18-28.5t25.5-38.5q13.5-20 23.5-35.5t13-19.5q-9-5-18-8.5t-18-3.5q-21 0-40.5 7t-30.5 14l-10-15q-35 57-75.5 109.5t-91 86.5q-50.5 34-112.5 34-18 0-43-4.5t-47-10q-22-5.5-30-9.5-4 1-8 1.5t-9 .5q-5 0-9.5-4t-4.5-10q0-8 6-13t6-13q0-4-3-13t-3-16q0-13 12-13 5 0 14 7 19 15 39 24.5t49 9.5q27 0 52-19t46.5-48.5q21.5-29.5 38.5-62.5t28-62q-34-12-64.5-36t-52.5-51.5q-22-27.5-30-48.5-5-12-1-23t14-11q8 0 24 12.5t24 20.5q12 11 41.5 32.5t63.5 34.5q6-35 16.5-81t27.5-94.5q17-48.5 43-89t63-64.5q25-16 54.5-25t58.5-14q6-13 16.5-30.5T597 .133q12-1 19 5.5t17 10.5q8 4 21.5 3t18.5 10q2 2 1 5.5t1 9.5q48 0 97 1t100 0q25-1 67-3t88-4.5q46-2.5 82-4.5 84 2 152 28t119.5 67q51.5 41 88.5 91t60.5 100q23.5 50 33.5 93 14 62 22 109t10 68q6 17 12 39t10 45q2 14 4 36.5t-6 40.5q-8 18-32 18-22 0-35-22.5t-21-58.5q-6-29-6-61t5-63q-2-31-7.5-64t-12.5-64q-13-61-39.5-120t-58.5-92q15 24 27.5 47t20.5 51.5q8 28.5 8 69.5 0 17-3.5 43t-8.5 53q-8 50-17.5 120.5t-9.5 152.5q0 20 6.5 43t12.5 41v-1q4 11 6.5 20t2.5 14q0 13-7.5 24.5t-25.5 11.5q-5 0-11-4t-10-8q-10 12-23 12-6 0-13.5-3.5t-11.5-7.5q-4 4-10.5 7.5t-14.5 3.5q-7 0-15-5.5t-13-10.5q-5 6-12.5 11t-16.5 5q-13 0-19.5-9t-6.5-22q0-6 3-14t7-19q6-16 12-34.5t6-35.5q0-10-4-35t-9-55l-9.5-57-6.5-40q-9 18-25 52.5t-33 71q-17 36.5-29 61.5-8 19-12.5 34t2.5 33v-1q8 24 8 34 0 13-7 24.5t-26 11.5q-5 0-10.5-4t-9.5-8q-5 5-10.5 8.5t-13.5 3.5q-5 0-12-3.5t-12-7.5q-5 4-11 7.5t-15 3.5q-7 0-15-5.5t-12-10.5q-5 6-12.5 11t-16.5 5q-13 0-19.5-9t-6.5-22q0-6 2.5-14t6.5-19q7-16 20.5-40t20.5-41q7-17 16.5-41t19-49.5q9.5-25.5 17.5-46.5t12-31q-23-1-54-4t-63.5-6.5q-32.5-3.5-59.5-7.5t-43-6q-12 20-33 20-7 0-13-3-6 28-10 49t-6.5 47.5q-2.5 26.5-2.5 70.5 0 20 6.5 43t13.5 41v-1q8 24 8 34 0 13-6 24.5t-24 11.5q-5 0-11-4t-10-8q-4 5-9 8.5t-12 3.5q-6 0-12.5-3.5t-11.5-7.5q-5 4-10 7.5t-13 3.5q-7 0-15.5-5.5t-12.5-10.5q-4 6-10.5 11t-15.5 5q-14 0-20-9t-6-22q0-6 2.5-14t6.5-19q6-16 12-34.5t6-35.5q-1-17-6-46.5t-12-63.5l-17.5 27.5-17.5 28.5q-8 17-19.5 43.5t-13.5 39.5q-5 19-7.5 41.5t-2.5 27.5q0 13-6 24.5t-25 11.5q-5 0-10.5-4t-9.5-8q-4 5-9 8.5t-12 3.5q-6 0-11.5-3.5t-8.5-7.5q-5 4-10 7.5t-13 3.5q-7 0-13-5.5t-8-10.5q-5 6-11.5 11t-15.5 5zm258-19q4 0 10-9t11-18l15-1q3 10 8 19t10 9q5 0 9.5-9t9.5-18h10q4 9 8.5 18t9.5 9q4 0 9-9.5t10-17.5h9q3 8 7 17.5t7 9.5q7 0 9-5.5t2-11.5q0-3-4-12t-7-20q-7-18-12-40.5t-5-44.5q0-40 2.5-68.5t7-54q4.5-25.5 9.5-57.5-2-4-5-7t-5-6l13-10q6 8 15 15t16 7q9 0 16-13t11-29q4-16 5-24l17 1q-1 9-3 20.5t-6 22.5q17 3 46 7t63 8q34 4 65 6.5t52 2.5q25 0 55.5-3.5t59-8.5q28.5-5 45.5-8-7-23-20-50.5t-30-54.5q-17-27-36-46l14-14q35 36 59.5 79.5t36.5 100.5q4 18 9 47t10.5 60.5q5.5 31.5 9 57.5t3.5 38q1 19-6 40t-13 37l-5.5 16.5-2.5 9.5q0 12 6 12 4 0 11.5-9t13.5-18l14-1q3 10 8 19t10 9q5 0 11-9t10-18h11q3 9 8 18t10 9q3 0 9.5-9.5t11.5-17.5h9q3 8 7 17.5t7 9.5q7 0 10-5.5t3-11.5q0-6-8-27-6-19-13-43.5t-7-46.5q0-87 9.5-156t18.5-120q5-29 8.5-52.5t3.5-40.5q0-61-20-105t-45-81l21-16q24 27 49.5 67t46 86q20.5 46 28.5 89 7 31 12.5 64t7.5 71q-5 27-4.5 57.5t5.5 59.5q6 30 14 47.5t23 17.5q14 0 17-15t1-33q-2-18-3-25-3-23-8.5-44t-14.5-38q0-11-7-55.5t-24-121.5q-9-41-31.5-90t-58.5-97q-36-48-87-88t-117.5-64q-66.5-24-150.5-24-15 0-44 1.5t-63.5 3.5q-34.5 2-66 4t-52.5 2q-45 2-90.5 1t-95.5-1q3 4 7.5 8.5t8.5 6.5q5 5 3.5 11t-5.5 12q-4 10-4 11t3.5 5q3.5 4 7.5 8 6 6 11 12t6 13q1 5-1.5 12t-5.5 14q-7 14-7 20 0 3 3 10t7 13l5.5 11 3.5 9q1 8-3 13t-9 10q-8 6-9 11 0 2 3 5.5t7 7.5q6 7 11 14t3 14q-1 8-8.5 13.5t-15.5 11.5q-4 2-8 4.5t-6 4.5q0 1 2.5 6t3.5 6q4 7 5.5 15t-2.5 14q-7 11-16.5 13.5t-17.5 4.5q-25 2-38 19-7 7-16 13.5t-25 6.5q-12-1-19-19t-10-39q-3-21-4-29-1-18-13-38t-28-42l15-12q17 24 30 46.5t15 44.5q0 7 2 23t5 30.5q3 14.5 8 14.5 9 1 14.5-4t10.5-10q21-22 51-25l12-2 8-7q1-2-1-4.5t-4-7.5q-4-7-6-14t2-14q2-4 7.5-8t11.5-8q6-4 11-7t5-4q-1-4-5-7t-7-7q-4-5-8.5-11.5t-3.5-15.5q1-9 8.5-16t12.5-11q0-3-7-14-5-8-9-16.5t-4-16.5q0-6 3-13.5t6-14.5q2-5 4-9.5t2-6.5l-6-6-7-8q-5-5-10.5-11t-5.5-12q0-5 3.5-12.5t8.5-11.5q-7-4-11.5-9t-8.5-10q-5-5-7.5-19t-3.5-18q-7 1-16 1t-16-3q-13-6-18-10.5t-10-4.5q-5 1-10 9t-9 19q-6 16-17 44.5t-24.5 60q-13.5 31.5-24.5 56.5l-17-8q9-20 19.5-45t20-48q9.5-23 14.5-36-54 8-95 33-33 21-57 60.5t-40.5 87q-16.5 47.5-27 93t-16.5 79.5q1 1 4 1.5t5 1.5q14 3 31 4t33 1q19 0 35.5-1t27.5-2q5-7 12-15.5t13-8.5q8 0 10.5 5t2.5 15q0 5-10.5 20.5t-23.5 32.5q-13 17-18 24 7-4 28-9.5t37-5.5q19 0 41 12.5t37 28.5q-3-11-6-21.5t-6-18.5l19-9q3 6 10 31t16 61.5q9 36.5 17.5 76.5t14 74.5q5.5 34.5 5.5 56.5 0 19-6 40t-13 37l-5.5 16.5-2.5 9.5q0 12 7 12zm-232-575q0-33 21.5-61t46.5-40l8 18-3 2q5 11 4 27.5t-7 24.5q-11 15-25.5 17.5t-24.5 2.5q-1 3-1 9zm25-30q10 0 17-2t11-9q5-10 0-26-8 8-15.5 17t-12.5 20zm-23 195h25q4-5 9-10.5t8-10.5q2-2 5-6t5-8q-12 1-28 2t-36 1q-20 0-39-2t-38-7q-25-7-53-22.5t-50-32q-22-16.5-31-24.5l-15-15-14-10q-6 0-1 9 19 34 54 69.5t82 51.5q27 9 61 12t56 3zm-258 239q45 0 82.5-19.5t69.5-52q32-32.5 59.5-71.5t51.5-77q-24 0-52-1.5t-58-9.5q-12 31-30.5 66.5t-42.5 67.5q-24 32-52 52.5t-59 20.5q-29 0-50-10.5t-42-22.5q1 4 2 7.5t1 6.5q0 7-2 9.5t-4 7.5q15 5 48.5 15.5t77.5 10.5zm230 171q5 0 11-9t11-18l14-1q4 10 5.5 19t6.5 9q5 0 9.5-9t9.5-18h11q3 9 5.5 18t7.5 9q3 0 8-9.5t10-17.5h9q3 8 7.5 17.5t6.5 9.5q8 0 9.5-5.5t1.5-11.5q0-2 2-16l4.5-31.5 6.5-30.5q2-9 9-26.5t15-35.5q8-18 15-30t20-32q13-20 21-31-4-21-9-41.5t-10-40.5l-13-13-20-18q-2 3-14.5 19.5t-27.5 38.5q-15 22-28 41t-17 28q-4 9-11.5 27t-16.5 39q-9 21-16 38-6 22-18.5 40.5t-22.5 37.5q-4 8-11 24t-7 18q0 12 6 12zm599 0q5 0 12-9t12-18l14-1q4 10 8.5 19t9.5 9q5 0 11-9t11-18h11q3 9 7.5 18t9.5 9q4 0 10.5-9.5t10.5-17.5h10q2 8 6.5 17.5t6.5 9.5q7 0 10.5-5.5t3.5-11.5q0-3-2.5-10t-5.5-17q-6-19-3-36t13-37q17-35 35-74t33-72q15-33 22-48-25 5-67 11t-79 7l-13 32.5-20 49q-20 49-20.5 50t-13.5 34.5q-7 17-21 45t-20 44q-4 9-6.5 16.5t-2.5 9.5q0 12 7 12z" fill="currentColor"/></svg>