<svg xmlns="http://www.w3.org/2000/svg" viewBox="0 0 592.5 416.7"><path d="M64.1 278.9c-17 12.2-30.1 16.5-39.4 12.7-9.3-3.8-7.7-8.6 4.7-14.5s27.1-16.6 44.1-32c1.2-58.8 4.1-103.1 8.9-133 4.7-29.8 15.7-54.3 32.9-73.4C132.5 19.6 161 7.1 200.9 1.4s77 5.8 111.3 34.6c17-1.2 44.9-1.3 83.8-.3s71.7 7.5 98.3 19.5c26.6 12 48.6 25.9 65.7 41.5 17.2 15.6 27.3 41.9 30.5 78.8 3.2 36.9 2.5 58.9-2.1 66-4.5 7.1-10 9.4-16.3 6.8-6.3-2.6-9-10.4-8-23.4 1-13 .8-24.5-.6-34.3-1.4-9.9-7.1.6-17.2 31.4-10.1 30.8-9.4 57.3 2.1 79.7 11.4 22.3 13.5 46.9 6.2 73.7-7.3 26.8-16.8 40.4-28.4 40.6-11.6.2-23.3-.4-34.9-1.8-11.6-1.4-17.8-7.4-18.4-18.1-.6-10.7 4.2-18.8 14.5-24.3s17.3-15.1 21-28.7-11.4-42.1-45.8-85.5c-3.9 17-10.3 36-19 57.1s-19.6 38-32.9 50.6c-13.2 12.6-20.6 23.7-22.2 33.2-1.6 9.5-8.3 15-20.1 16.6-11.8 1.6-23.6 1.3-35.2-.9-11.6-2.2-17.2-7.8-16.6-16.9.6-9.1 9.1-18.1 25.5-26.9 16.4-8.9 28.3-23.3 35.8-43.2 7.5-19.9 5.3-41-6.5-63.1-23.3 1.6-45.6-2.6-66.9-12.4-2.4 23.7-5 48.8-8 75.2-3 26.5-3.6 41.8-1.8 46.2 1.8 4.3 2.5 12 2.1 23.1-.4 11.1-6.1 17.5-17.2 19.2-11.1 1.8-24 1.8-38.8 0-14.8-1.8-21.4-7.5-19.8-17.2 1.6-9.7 8.1-21.8 19.5-36.4 5.9-19.3 8.6-39.1 8-59.2-.6-20.1-2.8-28.4-6.5-24.9-3.8 3.6-10.7 13.3-20.7 29.3-10.1 16-18.1 31.6-24 46.8-5.9 15.2-10.5 28.9-13.6 41.2-3.2 12.2-10.9 18.8-23.1 19.5-12.2.8-24.8 1.2-37.6 1.2s-19.2-5.2-19.2-15.7 9.3-21.8 27.8-34.1c17.4-39.9 34.5-74.1 51.5-102.7 17-28.6 25.3-47.3 24.9-56-.4-8.7-4.8-14.3-13.3-16.9-8.5-2.6-17.7-9.6-27.5-21-17 34.3-37.1 61.2-60.4 80.5-7.1 26.5-13.2 45.8-18.4 58-5.1 12.2-14.1 23.3-26.9 33.2-12.8 9.9-25.4 16.8-37.6 20.7-12.2 3.9-18.6 3.7-19-.9-.4-4.5-1.9-8.8-4.4-12.7-2.6-3.9 6.8-9.4 28.1-16.3 21.3-6.8 33.1-24.5 35.5-52.9zM86 235.6l17.2-20.1c-.8-19.3 1.3-36.3 6.2-50.9 4.9-14.6 12.2-23.2 21.9-25.8 9.7-2.6 19-.2 28.1 7.1 9.1 7.3 17.6 14.8 25.5 22.5 7.9 7.7 19.3 12.9 34.3 15.7 15 2.8 22.1 2.3 21.3-1.5-.8-3.8-1.7-8.5-2.7-14.2-1-5.7.4-9.1 4.1-10.1 3.8-1 7.9 4.1 12.4 15.4s7.6 39.5 9.2 84.7c1.6 45.2.2 75.6-4.1 91.2-4.3 15.6-8.9 27-13.6 34.3-4.7 7.3-3 11.5 5.3 12.7 8.3 1.2 15.5 1 21.6-.6 6.1-1.6 8.7-3.4 7.7-5.3-1-2-.2-18.7 2.4-50 2.6-31.4 4.5-59.1 5.9-83.2 1.4-24.1 1.2-40.9-.6-50.3-1.8-9.5-2.8-14.5-3-15.1-.2-.6-.2-1.2 0-1.8s2.2-1.5 5.9-2.7c3.8-1.2 6.5 6.2 8.3 22.2 1.8 16 14.9 27.5 39.4 34.6 24.5 7.1 60.4 3 107.8-12.4-17.8-19-26.8-36.7-27.2-53.3-.4-16.6 1.4-27.5 5.3-32.9 3.9-5.3 5.8-.2 5.6 15.4-.2 15.6 4.2 29.4 13.3 41.5 9.1 12 23.4 31.9 42.9 59.5s31.9 48.8 37 63.4c5.1 14.6 4.2 26.4-2.7 35.2-6.9 8.9-15.6 17.6-26.1 26.1-10.5 8.5-6.5 12.9 11.8 13.3 18.4.4 30.2-10.8 35.5-33.5 5.3-22.7 1.6-45.5-11.3-68.4-12.8-22.9-12-49.8 2.4-80.8s21.1-56.6 20.1-76.7-15.3-39.2-42.9-57.1c-27.6-18-54.5-27.9-80.5-29.9-26.1-2-52.4-3-79.1-3-26.6 0-41.1 4.9-43.2 14.8-2.2 9.9-10.1 23.9-23.7 42s-24.6 30.5-32.9 37c-8.3 6.5-19 9.7-32 9.5-13-.2-19.1-17.4-18.4-51.5.8-34.2 4.2-51.2 10.4-51.2 6.1 0 8.1 17.9 5.9 53.6-2.2 35.7 8 42 30.5 19s36.2-41.8 41.2-56c4.9-14.2 1.7-26.8-9.8-37.9-11.4-11.1-33.8-15.3-66.9-12.7-32.7 2.6-60 12.9-81.3 31.1-21.3 18.2-34.2 51.4-38.8 99.8-4.5 48.4-6.4 77.5-5.6 87.3zm51.5-175.8c17.8-10.3 27-9.5 27.8 2.4.8 11.8-5 18.5-17.5 19.8-12.4 1.3-15.8-6.1-10.3-22.2zM565.7 135c4.3 15 7.6 36.3 9.8 64 2.2 27.6 3.8 38.6 4.7 32.9 1-5.7.9-18-.3-36.7-1.2-18.9-5.9-38.9-14.2-60.2zm-431.1 20.1c-12.2 8.3-18.2 21.3-17.8 39.1 9.5-17.4 15.6-28.4 18.4-33.2 2.7-4.7 2.5-6.7-.6-5.9zm15.3 1.8c-16.6 37.1-37.8 67-63.7 89.7-25.9 22.7-24.3 22.7 4.7 0s51.2-51.4 66.6-86.2l-7.6-3.5zm73.5 47.4c-4.3 21.3-14.1 44.2-29.3 68.7-15.2 24.5-26.7 46.6-34.6 66.3-7.9 19.7-16.5 34.8-25.8 45.3s-5.8 15.7 10.4 15.7 26.6-8.6 31.4-25.8c4.7-17.2 14.3-37.7 28.7-61.6 14.4-23.9 24.7-40.4 30.8-49.5 6.1-9.1 10.1-21.8 11.8-38.2 1.8-16.3-6-23.3-23.4-20.9zm227.4 42.6c-19.7 8.7-38.1 12.6-55.1 11.8 5.9 35.5 4.5 61.8-4.1 78.8-8.7 17-19.6 29.7-32.9 38.2s-20.9 14.6-23.1 18.4c-2.2 3.8 2.6 5.4 14.2 5 11.6-.4 20.5-4.8 26.6-13.3 6.1-8.5 16.1-20.5 29.9-36.1 13.9-15.6 28.7-49.9 44.5-102.8zM93.7 258.7l-16.6 15.4c-8.7 34.7-21.7 55.5-39.1 62.2s-25.4 11.3-24 13.6c1.4 2.4 12.6-1.6 33.8-11.8 21.1-10.3 36.4-36.7 45.9-79.4z"/></svg>