<svg xmlns="http://www.w3.org/2000/svg" viewBox="-10 0 584.542 1287"><path d="M-10 1287q1-11 6-26.5T8 1236q6-7 15.5-20t13.5-32h1l8.5-34 9-43.5q9-43.5 3.5-33.5-1-17 1-45t5.5-57q3.5-29 7.5-49 2-14 5.5-29t6.5-29 6.5-29q2.5-13 2.5-16l3-70q-4-9-11-27t-13-39q-6-21-6-41 0-27 14-54.5t25-47.5q3-7 5-11.5t4-7.5q3-9 3-35 0-14-.5-29t-1.5-29q0-8-.5-16t-.5-14v-33.5l.5-50.5q.5-50.5 1.5-53.5t3-42.5q-17 10-36 18.5T51 245q-10 0-21-4.5T19 217q0-16 9.5-36.5t22-40.5Q63 120 72 105q4-7 9-15t11-15q-9-7-19-20T63 29q0-11 6-20t13-9q19 0 30.5 16.5T127 47l7-2q-1-5-3.5-15T143 20q16 0 14 9.5T154 46q5 1 8.5 2.5T170 51v-3q1-3 3.5-12t12.5-9q11 0 13.5 5.5T202 43q0 7-5.5 11t-8.5 7l-1 2 4 4 4 4q11-13 25-23t33-10q10 0 21 4t11 15q0 17-18 32t-51 20q6 15 6 29 0 8 .5 36.5t2 67q1.5 38.5 3.5 78t5 71q3 31.5 7 44.5 9 18 17 33.5t15 25.5q2 4 4.5 8t4.5 8l-1-1q6 11 11.5 21t10.5 20q5 11 9.5 20t7.5 16q12 18 46 37t65 35q24 13 45 25t29 22q17 20 26.5 50t12.5 55.5q3 25.5 3 33.5t1 33.5q1 25.5 2 47.5 0 2 4 15t9 29.5q5 16.5 7 29.5t4.5 31q2.5 18-1 31.5T554 1075q-13 0-22-11t-14-26.5q-5-15.5-7-27.5-1-8-3-23.5t-3-33q-1-17.5 0-30.5l-5-67q-1-9-2.5-24.5T494 807q-5 13-13 32t-15 35q-7 16-10 24-3 4-6 12l34 208q1 2 5 17t10 35q6 20 12 38v36l1 29-5 14h-84q2-12 7.5-28t16.5-24l2-27-33-117q-1 33-2.5 69t-2.5 57l-12 27-1 29-4 14h-83q2-11 7-26.5t12-24.5q4-5 12.5-12.5T358 1211l3-226q0-2-3-18.5t-6-39.5q-3-23-5.5-44.5T344 850q-13 1-26 1t-27-2l-58-6q-5 19-10 35.5t-6 28.5q-2 23-1 50.5t1 40.5q0 10-2.5 28.5t-5 36.5q-2.5 18-1.5 29 0 10 .5 31.5t.5 29.5q0 22-3 36.5t-5 22.5q-2 7-5 16.5t-5 15.5v29l-5 14h-82q1-11 6-26.5t12-24.5q5-7 15-20t14-32q0-21-.5-45t-.5-31q0-8-1.5-25t-3-36q-1.5-19-3.5-35t-3-21q0-2-2-10-5 15-11.5 33.5t-11.5 34q-5 15.5-6 21.5-3 16-5 40-1 8-2 16.5t-2 16.5q-2 13-6 36t-6 40h-1q-2 7-4.5 14t-4.5 11v29l-5 14zM104 62l7-6q-2-10-10-24.5T82 17q-2 0-2 9 0 8 8.5 18.5T104 62zm105 29q22-3 39-11.5T265 62q0-8-10-8-16 0-28.5 10.5T206 86zm-62 1146h28q4-8 6-14t3-12q2-9 5-24t3-32q0-5-1-17.5t-2-26q-1-13.5-1-20.5 1-31 5-57t5-37q1-17 0-43t0-48q1-22 11-52.5t17-64q7-33.5-1-64.5h18q5 25 2 51t-8 48q12 2 28.5 3.5L293 830q13 2 26.5 1.5T346 830q3-16 10.5-32t13.5-24l17 10q-8 11-15.5 30t-7.5 36q0 10 3 32.5t6.5 50Q377 960 381 983l-7 236q-3 2-8.5 7.5L355 1237h25q1-6 5-13.5t7-12.5q0-7 1.5-35t3-63q1.5-35 2.5-65t2-42q2-17 9-40t15-43.5q8-20.5 14-32.5 4-8 12.5-28.5T471 817q11-24 20-44h10q2 7 7 27t7 55q0 6 2 28.5t3 41.5q1 18 4 43t5 39q3 17 8 34.5t16 17.5q4 0 4.5-11t-1-24q-1.5-13-2.5-19-1-7-7.5-31.5T535 929q-2-23-3-50t-1-35q0-7-3-28.5T516 767q-9-27-27-50-6-8-25.5-18.5T421 675q-34-18-69.5-37.5T303 595q-5-7-9.5-16.5T284 559l-10-20-11-20q-2-4-4-7.5t-4-7.5q-7-11-15.5-26.5T223 443q-5-12-9-43.5t-6.5-72q-2.5-40.5-3.5-81t-1.5-70Q202 147 202 138q0-13-6.5-30.5T175 77q-14-13-34-13-15 0-29.5 18T88 114q-20 31-40 72 21 10 21 28 0 6-1 9 21-5 42-19t33-26l12 7q-12 15-14 25t-3 32q-1 24-1.5 56t-1.5 60q-1 28-1 40 0 6 .5 13.5T136 427q1 13 1.5 29.5t.5 29.5q0 27-5 42l-11 22q-11 18-23 43.5T87 642q0 22 10 50.5t18 45.5q2 3 7 18t10.5 35q5.5 20 10 38.5T147 860q0 10 1.5 28.5T152 928q2 21 4 37.5t3 22.5q1 5 2.5 21t3.5 36q2 20 3.5 37t1.5 24q1 15 1 39.5t-1 41.5q-1 13-8.5 28t-14.5 22zM118 144q-7 0-11.5-4t-6.5-6q3-2 7.5-7t12.5-5q7 0 12.5 4t7.5 6q-5 4-10.5 8t-11.5 4zm-70 82q4-6 4-12t-10-12q-3 9-3 15 0 7 9 9zM33 1237h28q5-9 7-19 3-17 7-40.5t6-37.5q2-8 2.5-16t1.5-15q2-11 3-22t3-21q3-11 11.5-36.5T120 978q9-26 13-37-3-23-4.5-45.5T127 860q0-13-4-31.5T113 793q0 7-.5 15t-.5 12q-1 6-3 19t-6 29q-3 14-6.5 29T91 925q-4 19-7.5 47.5t-6 56Q75 1056 76 1072t-3.5 42q-4.5 26-10 49t-7.5 31q-2 13-8.5 25T33 1237zm434 0h25v-29q-7-21-15-47.5t-12-40.5l-29-174q-6 16-10.5 32.5T420 1007l-1 22 50 179zm-19 30h44v-14h-38q-4 8-6 14zm-112 0h43l1-14h-38zm-208 0h44v-14h-38zm-114 0h44l1-14H21z" fill="currentColor"/></svg>