<svg xmlns="http://www.w3.org/2000/svg" viewBox="0 0 379.8 611.2"><path d="M166.1 33.4c3.8 0 7 2 7 6.4 0 3-4.9 6.8-10 10-6.7 4.3-10.6 6-12.7 6-4.5 0 .2-8.4 3.3-14.8 2.5-4.9 7.9-7.6 12.4-7.6zM82.6 54.5c-5.2 0-18.3 8.4-18.3 11.8 0 2.3 4 3.4 8.7 3.4 5.2 0 11.2-1.4 12.9-4.1 1.4-2.3-.5-9.5-1.6-10.6-.4-.3-1-.5-1.7-.5zm10-11.7c5.1 0 11 1.9 19 7 12.3 7.8 16.2 16.4 10.4 22.9-4.4 4.8-.6 23.9.5 103.3 1 73.8 5.4 91.9 22.4 112.8 5.2 6.4 106.9 45.8 113.1 48.9 63.4 32 77.4 46.1 72.9 104.9 0 16.6-.7 48.3-2.5 48.3-3.6 0-18.1-36.7-23.2-60.5-.7-3.5-8-14.5-17.7-24.3-20.2-20.2-38.2-21.3-80.9-27.6-22.7-3.3-40.4-4.2-54.5-4.2-13.6 0-23.8.8-31.9.8-16.4 0-23.9-3.2-33-22.6-15.3-32.8 5.6-154.9 5.6-188.7-.1-50.6 2.9-63.9-9-73.6-4-3.2-11.5-7.4-24.8-7.4-3.3 0-6.9.3-10.8.8-4.8.7-9 1-12.6 1-26.7 0-20.7-17.6 12.5-23.9 23.7-4.4 31.1-17.9 44.5-17.9zm193.5 383.3l6.5 18.1c12.7 20.5 4.1 23.6 1.5 26.7-2.1 2.5-4.1 7.8-5.8 13.8l-.3 24.6-9.1-19.3c-1.6-5.9-5.1-20.1-3.5-30.3l10.7-33.6zM116.7 0c-5.3 0-9.8 1.6-10.1 4.7-.3 2.7-.6 9.7-.8 15.5-.2 7.4-2.4 10.7-7.1 10.7-5 0-7.1-3.8-8-14.6-.9-11-1.9-13.7-7.4-13.7-1 0-2.1.1-3.4.2-14.2 1.6-16.7 6.1-12.3 22 3.7 13.5 3.7 15.6-6.5 18.2C48 46.3 35.4 61.3 15.7 62.1c-18.3.7-17 13-13.8 27.6 1.7 7.7 2.1 9.6 16.5 9.6 4.9 0 11.3-.2 19.9-.5 8.4-.3 14.7-.5 19.6-.5 14.7 0 15.7 2 18.7 9.7 4.6 11.9 1.4 103-4.4 124.7-2 7.6-4.8 27.7-6.2 44.6-1.8 21.9-4.2 44.9-3.3 56.6 1.9 24.6 5 36 10.6 39.6 4.9 3.1 5.7 46.5 1.7 98.4-1.6 21.4-3.6 48.1-4.5 59.5-1.2 16.5-4.7 25.2-17.5 43.4-16.5 23.5-19.4 33-11.1 36.4l25.5.1c7.5 0 8.8-4.7 7.9-14.7-.7-8.3 1.6-14.9 7.2-20.5 6.8-6.8 8.3-13.1 8.4-36.7.2-25 12.8-107.4 18.9-123.7.4-1 .8-1.4 1.2-1.4 1.1 0 2.4 3.3 3.5 9.3 1.4 7.6 9 73.1 9.9 79.5 5.5 38 7.8 62.4 2.4 68.5-3.1 3.5-11 11.5-13.1 20.1-3.9 15.8-5.1 18.7 5.3 18.7 2.6 0 6-.2 10.3-.4 14.2-.7 18-3.2 16.6-16.6-.4-4 1.9-6.8 5.8-6.8 4.6 0 5.7-1.9 3.7-6.8-7.8-19.2-9.8-35.2-9.4-77.3.2-25.4-.2-52.8-1-61-.8-8.2.8-22.1.9-27.3.1-15.7 16.2-21 36.5-21 27.1 0 61.5 9.5 75 16.5 14.3 7.4 15.1 10.9 6.6 31.1-7.3 17.5-5.4 41.2 5.3 64.5 7.1 15.5 7.2 18.2 2.1 35.6-5.4 18.3-13.7 39.7-19.8 39.7-7.5 0-20.9 13.3-20.9 23 0 5.7.5 7 3.9 7 2.6 0 7.1-.8 14.4-.8 16.5 0 18.1-.9 23.4-13.6 3.1-7.5-3.1-11.9 9-13.6 1.8-.3-4.5-6.3 19.8-44.6 1.5-2.4 3-10.9 1.4-24.5l-2.6-22 8.7 5.8c4.8 3.2 8.8 7.5 8.9 9.6.1 2.1 3.7 6.3 7.9 9.3 11.8 8.3 5.9 43.8-6 62.4-7.3 11.5-9.8 21.3-.8 28.1 2.9 2.2 6.3 3.1 9.7 3.1 9.5 0 19.4-6.9 19.4-14.5 0-3.8 3.7-10.1 8.2-14 6.3-5.4.7-6.5-1.5-14.5-1.6-5.7-3.2-20-3.6-29.6-.4-9.6 2.2-26.1-2.5-35.2-6.7-13-8.1-20.9-6.6-36.6 1.8-18.8 5.9-30.7 9.4-30.7 3.6 0 6.6 12.3 6.2 42.3-.2 18.6 4.5 30.2 11.8 30.2 1.8 0 3.8-.7 5.8-2.2 10.5-7.5 2-69.2-16-98.7-3.8-6.3-11.3-15.2-11.3-17.2 0-4.8-43.5-42.5-55.6-49.8-19.2-11.5-115.3-46.7-138.8-65.6-13.9-11.3-14.4-44.6-15.6-62-1.7-26.4-.5-110.2-1.8-126.2-.4-4.9 6.2-13.4 26.5-16.9 16.1-2.8 30.4-19.1 29-32.5C190 22.5 186.1 19.9 170 16c-1.9-.5-3.8-.7-5.9-.7-10.8 0-23.7 6.7-34.4 23.5-.3.4-.6.6-.8.6-2.2 0-3-15.9 2.1-24.1 4-6.5 3.8-8.5-1-11.5-3.5-2.6-8.8-3.8-13.3-3.8z"/></svg>