<svg xmlns="http://www.w3.org/2000/svg" viewBox="-10 0 1138 1229"><path d="M211 1229l64-82 29-180q1-3 4-25.5t8-54.5q5-32 9-61-25-24-51-52t-37-47q-10-17-24-41t-27.5-47q-13.5-23-24-40T149 578q-14 9-30.5 17T84 605q-16 9-26.5 14T34 624q-19 0-31.5-11.5T-10 587q0-9 10.5-28.5t26-40.5Q42 497 57 482q6-5 13.5-14.5T86 448q17-21 35.5-42.5T159 373q8-44 24-102.5T229 159q38-66 70.5-103T354 0l21 16q-28 33-65 84t-59 110q32-54 68.5-97.5t68.5-72Q420 12 436 4l16 19q-25 23-52.5 54.5t-52 65.5Q323 177 306 207q-17 32-35 75.5T239 364q8-8 18-17.5t23-17.5q27-16 55-24.5t50-5.5q6 13-2 31.5t-23 37Q345 386 326 397q-17 11-34.5 16.5T261 422q4 7 9 15.5t10 17.5q12 21 26 45t27.5 43q13.5 19 22.5 25 21 16 57 23.5t75 10.5q56 4 112.5 12.5T718 622q39 0 65-1t49.5-2q23.5-1 54.5-1 86-2 137 26t76 65q21 31 24.5 57t3.5 37q0 14-5 27.5t-15 13.5q-13 0-17-13t-8-30q-4-19-11-37t-24-32q3 29-3.5 50.5T1027 833q9 20 22 47.5t23 43.5q10 15 24 34.5t23 32.5l-27 117q0 7 .5 16.5t.5 16.5l7 27-17 28-5 33h-90l27-34 21-53v-140l-57-83q-15 23-31.5 51t-29.5 50q-13 22-16 29-5 11-16.5 38t-20.5 49q0 4 .5 17.5t.5 24.5l-24 20-5 31h-89l27-35q5-9 12.5-23.5T802 1142l11-22q4-10 10.5-31.5t11.5-44q5-22.5 5-34.5 0-8 2.5-33.5t6.5-58q4-32.5 7-61.5-29 2-72 6t-76 9q-42 8-83 14t-75 3q-1 8-2.5 21.5T539 955q1 7 4 31t6.5 48.5q3.5 24.5 5.5 34.5t6 33q4 23 7.5 50.5t6.5 49.5h-8l-3 27h-90l23-30q2-5 4.5-18t5-26.5q2.5-13.5 2.5-18.5 0-4-4-24.5t-9.5-45.5q-5.5-25-10.5-46.5t-7-29.5q-1-6-8-24t-15-40q-8-22-16-41-6 0-15-.5t-19-1.5l-50 161q-4 34-9.5 69.5T336 1182l-28 20h-4l-4 27zm-33-864h7q19-63 39-121t50.5-113Q305 76 356 22l-5-4q-22 20-50.5 57T241 167q-29 54-42.5 105.5T178 365zm40 6q24-67 52-126.5t66.5-113Q375 78 433 27l-5-6q-35 27-70.5 67t-66 85Q261 218 241 261q-14 30-22.5 57.5T203 366q4 1 7.5 2.5t7.5 2.5zm32 34q12-3 30.5-8t35.5-16q16-10 31.5-28.5T362 320q-13-2-35 7.5T291 346q-16 10-29 23.5T241 393zm268 778h34q-1-13-4-35.5t-6-44q-3-21.5-6-30.5-2-9-5-29.5t-6-45q-3-24.5-5-44.5 11-59 15-92t4-50q0-22-4.5-42T523 729l19-4q7 24 11 47.5t4 40.5q0 12-2.5 28.5T552 871q37 1 73-5t80-13q32-5 76-9t77-6q3-23 9.5-49.5T882 735l18 5q-7 26-13.5 51t-8.5 48q-1 6-3.5 30t-6 53.5q-3.5 29.5-6 54.5t-2.5 33q0 12-5.5 36.5t-12.5 48q-7 23.5-11 34.5-5 11-13.5 27t-14.5 27h27l16-14v-38q10-23 22-52t17-39q3-8 17-31t31-51.5q17-28.5 32-53t21-34.5q52-80 43-164 31 8 47.5 33.5T1100 797q2 11 3.5 19.5t4.5 8.5q3 0 3.5-8.5t.5-15.5q0-10-4.5-31t-24.5-51q-22-32-68.5-57.5T887 637q-32 1-55.5 2t-49 2q-25.5 1-64.5 1-58 0-115-8t-116-13q-40-2-80-11t-63-26q-11-8-25-28t-28-44.5Q277 487 264 465q-8-15-18.5-33.5T220 399q-15-14-36-14-17 0-40 25t-42 50q-9 10-16.5 19.5T71 496q-17 16-34.5 40T12 576h22q-1 4-7 11t-11 11q2 2 8 4l19-19 31-22 5 9q-8 4-17.5 15T48 603q5-1 11-5t20-12q19-2 39-13t36-21q3 4 15 23.5t28.5 46.5q16.5 27 32 52.5T254 717q9 16 29 38t43 44q23 22 42.5 38.5T395 858q5 4 14.5 5.5T428 865q-17-24-33.5-58.5T379 736h20q-1 38 18 72.5t35 56.5q0 1 10.5 29l34.5 92q2 7 6.5 28t10 46q5.5 25 9.5 46.5t5 28.5q-1 1-4 17t-6 31zM156 468q-9 0-14-5l-8-8q4-2 9.5-7.5T158 442q9 0 15 4.5t9 6.5q-5 5-12 10t-14 5zm116 715h30q4-3 7.5-5.5t7.5-5.5l18-131 51-165q-15-10-43-35l-20 129-28 184zm769 0h28l11-19q-1-5-3-10.5t-4-10.5l-1-35 26-112q-5-7-18-25.5t-24-35.5q-10-15-21.5-39t-18.5-40q-3 7-8 15.5T991 900l64 97v149zm-234 33h14l4-20h-9zm-28 0h16l10-20h-10zm-248 0h14l4-20h-9zm489 0h15l10-20h-9zm27 0h15l4-20h-10zm-542 0h14l10-20h-8zm-236 0h14l4-20h-9zm-26 0h13l11-20h-8z" fill="currentColor"/></svg>