<svg xmlns="http://www.w3.org/2000/svg" viewBox="0 0 569.2 594.5"><path d="M501 331.8c-2.2-18.6-10.6-29.9-25.2-33.8-34.1-5.3-77.5-5.9-130.4-1.7-52.9 4.2-95.2.1-127.1-12.3-31.8-12.4-55.8-22.7-72-30.9-16.1-8.2-23.6-22-22.2-41.5 1.8-9.3-1.3-16-9.3-20.2-8-4.2-14.4-5.2-19.2-3-4.9 2.2-15.6 14.2-32.2 35.8C46.8 246 35.9 262.5 30.9 274c-5.1 11.5-4.9 19.8.7 24.9 5.5 5.1 14 2.2 25.5-8.6S80 274.7 91.2 276c11.3 1.3 20.9 9.5 28.9 24.6 8 15 15.5 28.8 22.6 41.1 7.1 12.4 14.8 21.9 23.2 28.5 4-13.7 8.6-26.4 13.9-38.2 5.3-11.7 13.3-20.9 23.9-27.5-12.4 45.6-13 74.2-2 85.9 11.1 11.7 17.8 15.7 20.2 11.9 2.4-3.8 2.3-11.6-.3-23.6 8 2.7 14.4 8.4 19.2 17.3 4.9 8.8 15.7 11.5 32.5 8s33.2-4.1 49.1-1.7 35.1 0 57.4-7.3c22.3-7.3 27.8-24.9 16.3-52.8 15 3.5 25.5 15.8 31.5 36.8 6 21 22.9 37.3 50.8 48.8 21.2-31.7 28.8-63.7 22.6-96zM99.5 230.9c-6.2 7.5-12.6 8.4-19.2 2.7-7.1-5.3-8-11.5-2.7-18.6 5.8-7.1 12.2-8 19.2-2.7 7.2 5.8 8 12 2.7 18.6zm-3.9 71.7c-9.7-4.9-19.9-3.1-30.5 5.3C43 320.7 28.3 325 21 320.8c-7.3-4.2-14.3-10.3-20.9-18.2 7.5-26.1 25-57.1 52.4-92.9C72 184.5 89 159.9 103.6 136 132.3 67 185.3 21.7 262.8 0c10.6.4 11.7 2.9 3.3 7.3-58.4 35.8-94.1 63.5-107.2 82.9-13 19.5-21.8 38.9-26.2 58.4C185.3 76.5 244.4 35.4 309.9 25.2c4.4 3.1 2.4 6.4-6 10-43.4 23.9-77 47.3-100.9 70.3-23.9 23-38.3 42.2-43.1 57.7-1.3 6.6 2.5 8 11.6 4s23.8-2 44.1 6c-7.5 23-18.7 36.7-33.5 41.1-14.8 4.4-21.3 11.5-19.6 21.2 38 25.7 79.4 39.1 124.1 40.5s77.5.4 98.5-2.7 43-3.1 66 0 40.1 6.6 51.4 10.6c11.3 4 21.6 14.2 30.9 30.5 15.5 21.2 26 48.5 31.5 81.9 5.5 33.4 5.6 62 .3 85.9-8.4 2.2-13.9-.9-16.6-9.3 1.8-28.8.4-52.5-4-71.3-4.4-18.8-11.5-32.4-21.2-40.8 4 15.5-2.7 39.1-19.9 71v.7c23 10.2 34.5 19 34.5 26.5-7.5 27.4-11.3 57.5-11.3 90.2 6.2 16.4 3.1 22.6-9.3 18.6-5.8 8.8-7.5 17.7-5.3 26.5H463c1.3-12.8 11.1-24.1 29.2-33.8 11.9-21.7 17.6-43.2 16.9-64.7-.7-21.5-7.6-33-20.9-34.5-13.3-1.5-30.7-8.7-52.4-21.6 2.2 13.3 7 22.9 14.3 28.9 7.3 6 5 15.7-7 29.2-11.9 13.5-21.7 30.4-29.2 50.8-.4 12.8-6 16.8-16.6 11.9-8.8 7.5-11.5 17.7-8 30.5h-49.1c3.1-15.5 9.1-25.7 17.9-30.5 15.5-14.2 30-31 43.5-50.4 13.5-19.5 16.7-34.7 9.6-45.8-7.1-11.1-13.6-22.2-19.6-33.5-6-11.3-18-13.9-36.2-8-18.1 6-30.4 6.7-36.8 2.3-6.4-4.4-17.4-4.6-32.8-.7-15.5 4-33.4 3.3-53.7-2-10.6 10.2-1.3 46.2 27.9 108.2 9.3 12.8 8 22.3-4 28.5-4.9 8.8-4.6 19.9.7 33.2h-50.4c0-9.7 6.4-19 19.2-27.9 5.8-13.3 6.7-27.6 3-43.1-3.8-15.5-15.6-38.3-35.5-68.3-21.2 19-43.8 48-67.7 86.9-1.3 14.6-10 22.6-25.9 23.9-7.5 3.5-9.5 12.6-6 27.2H41.8c3.1-14.6 10.8-25 23.2-31.2 31.4-30.1 54.1-55.2 68-75.3 13.9-20.1 22.7-40.8 26.2-62h-.7c0-17.3-7.6-36.1-22.9-56.4-15.2-20.2-28.5-41.4-40-63.5zM144 199.1l5.3 19.9c9.3-9.7 17.9-16.1 25.9-19.2 8-3.1 14.3-7.6 18.9-13.6 4.6-6 .7-8.5-11.9-7.6-12.7.8-25.4 7.6-38.2 20.5z"/></svg>