<svg xmlns="http://www.w3.org/2000/svg" viewBox="0 0 494.9 594.5"><path d="M70.1 176.1c-6 0-14.1 5.9-14.1 12.1 0 4.3 5.3 5 10.6 5 2.2 0 4.5-.1 6.3-.1 6.6 0 18.8-10 18.4-10.9-1.2-2.1-7-4.4-20-6-.4-.1-.8-.1-1.2-.1zm6.7-21.3c31.6 19.3 51.4 51.8 59.3 97.4 51.4 37.3 188.9 10.9 319.3 63.9 5.7 15.6-8.1 31.1-9 34.9-5 20.1-1.7 36.2-2.5 45.4-10.5 0-28.2-1.4-36.5-9.9-17.7-18.1-43-58.1-50-69.8-1 21.9.8 40.3 18.6 63.4-20.2 8.7-34.9 13.8-53.7 13.8-21.7 0-48.8-6.8-96.1-22.6-2.2 2.2-.9 38.6-4.4 39.5-12.3-6.6-20.2-18.2-23.7-34.9-1.8-15.4-3.5-30.7-5.3-46.1-2.6-17.1-9-28.7-19.1-34.9-1.8 4.4 16 46.7-7.1 63.7-10.5-7.9-63.3-69.7-74.7-125-6.4-7.4-13.9-9.9-21.3-9.9-15.5 0-30.4 10.9-32.5 10.9-7.5 0-11.9-2.5-17.2-6.9 5.3-7.5 12.5-16.9 12.5-19.1 3.5-3.9 10.5-13.8 21.1-29.6 7.8-12.1 15.3-20.3 22.3-24.2zM165.8 0h-.6c-4.8 26.8-34.8 61.9-73.8 88.2-5.1 3.4-18.9 16.3-19.8 40.2-.6 18.8-4.6 2.3-28.8 39.1-11.1 10.7-13.3 23.7-26.7 41.8C5.1 224.2-2.3 230 .6 239.2c1.6 5.1 10.6 4.9 11.5 8.4 5.8 3.7 12.7 11 17.8 11 .3 0 .7 0 1-.1 5.9-1.2 13.7-14.3 28.7-14.3 4.8 0 10.3 1.3 16.7 4.8 8.6 24.5 14.7 41.8 30.1 62.4 25.5 33.8 38.6 51.6 39.5 53.3 6.1 11 9.2 22.6 9.2 34.9 0 13.6-4.2 29.8-12.5 48.7-6.6 14.5-35.6 75.9-51.4 92.2-19.8 19.7-28.8 26.8-31.9 32.1-3.7 12.8-7 20.7 1.8 20.8l21.5.2H85c28 0 .5-5.9 42.2-56.5 8.3-18.9 18.5-45.5 27.2-64.4 11.8-24.1 24.4-42.8 37.5-56 25.5 54.4 38.2 92.6 38.2 114.6 0 12.3 0 18.9-4.9 28.6-9.2 4.7-15.7 24.3-15.7 34l35-.1c6.1 0-2.4-29.7 8.7-34 11.2-12.7 3.6-20.5 1.2-40.1-3.1-25.6-4.7-62.3-4.7-72 0-15.4 2.6-28.7 7.9-40.2h.3c6 0 28.2 7.5 55.4 7.5 14.3 0 30-2.1 45.4-8.5 11.8 11.4 16.3 21 15.4 41.2-3.1 77.8-21.5 83.2-35.6 99.4-11.9 13.6-9.8 18.2-21 47.4H357c9 0-2.9-22.5 9.1-30.3 9.9-6.4 34.3-93.6 37.6-107.8 0-14.9 6.1-22.4 18.4-22.4 2.2 0 4.6.4 7.2 1.3 29.4 30.3 39.2 22.7 39.2 60.9 0 11.4.3 45.3-2.3 57.6-12.7 11.9-6.4 7.2-12.5 14.6-2.6 3.1-11.2 25.9-8.5 25.9l37.1.2h.1c7.4 0-8.6-8.5 5.3-27.7-2.3-21.2 6.4-59.3 6.8-76.9.9-17.6-5.8-36.2-20.1-56-14.3-19.8-13.5-64.5-8.2-64.5 2.6 0 3.6 12.6 8.4 15.6 3.9 2.5 5.2 7.2 10.6 7.2 1.3 0 2.8-.3 4.7-.9 2.1-.7 2.8-8.8 4.2-11 2.6-29.8-10.3-62-34.5-86.6-57.2-27.5-135-32.3-196.8-36.2-53.5-3.5-84.2-13.8-110.5-26.6-.4-7.5-12.3-42.9-21.1-55.7-5.2-7.6 3.1-12.5 9.9-18.9 33.2-31.8 26-49.4 11.6-49.4-8.4 0-19.4 6-26.2 18.8-2.9 5.5-6.3 6.4-10.9 6.4-2.5 0-5.4-.3-8.7-.3-1.8-14.5-1.2-17.3 17.1-36.6 20.4-21.2 50-59.5 47.8-75.3-.4-7.7-.1-19.9-6-19.9z"/></svg>