<svg xmlns="http://www.w3.org/2000/svg" viewBox="0 0 590.1 465.4"><path d="M62.9 41.4c7.1-3.1 15.1-3.3 24.2-.6-3.5 9-7.4 14.7-11.5 17.1-4.1 2.4-8.4 4.1-12.7 5.3-17.6 11.5-26.8 16.7-27.4 15.7-.6-1 8.2-7.2 26.2-18.6-4.3-7.9-3.9-14.1 1.2-18.9zm-45.4 70.8L29.9 101c-3.1-4.3-6.9-9.4-11.2-15.3l-.6.6c-5.5 8.6-5.7 17.2-.6 25.9zm10.7 6.5l13 1.2c.4-6.7-.8-11.2-3.5-13.6l-9.5 12.4zm109.6-47.8l7.7 5.3 4.7-5.9-6.5-7.1c-.8-1.2 1.2-5.1 5.9-11.8l-.6-1.2c-11 10.3-14.7 17.2-11.2 20.7zm13-12.4l.6 5.9 17.7-5.3c2.8-1.6 2.6-8.5-.6-20.6l-17.7 20zm392.1 76.7c17.7.8 28.9 8.1 33.6 21.8 4.7 13.8 6.3 36.6 4.7 68.4-1.6 31.8.4 57.2 5.9 76.1 5.5 18.9 3.5 28.9-5.9 30.1-5.9.4-11.6-5.9-17.1-18.9-5.5-13-5.7-40.8-.6-83.4 5.1-42.6 1.8-64.8-10-66.3 3.9 8.6 5.9 18.3 5.9 28.9 0 10.6-3 26.9-9.1 48.9s-6.3 42.2-.6 60.4c5.7 18.3 10.4 29.4 14.2 33.3 3.7 3.9 2.3 9.1-4.4 15.6s-14 19.7-21.8 39.5c-7.9 19.8-11 34.4-9.4 43.6 1.6 9.2-1.1 12.9-8 10.9s-7.6 5.1-2.1 21.2H465c3.5-14.2 11-24 22.4-29.5 9.4-14.9 17.3-31.2 23.6-48.6 6.3-17.5 8.5-34.3 6.5-50.4s-9.6-30.5-23-43c-7.9 6.7-13.6 18.5-17.1 35.4 0 18.1-4.1 29.7-12.4 34.8-4.7 3.1-12.9 12.6-24.5 28.3-11.6 15.7-17.7 25.4-18.3 28.9-.6 3.5-.9 8-.9 13.3 0 5.3-2.8 7.4-8.3 6.2-5.5-1.2-5.5 7.1 0 24.8h-51.9c5.1-16.9 11-25.4 17.7-25.4 3.5-6.7 15.6-23.8 36.3-51.3s28-69.2 22.1-125c-36.9 0-60.3 3.4-70.2 10.3s-19.8 12.3-30.1 16.2c-8.6 2-13-1-13-8.8-24 .8-42.3-.2-54.8-2.9-8.6-.8-12.6 9.8-11.8 31.8 0 68.8 1.7 107.3 5 115.6 3.3 8.3 2.5 13.5-2.7 15.6-5.1 2.2-5.9 4.6-2.4 7.4.8 2.8-.6 8.3-4.1 16.5h-44.2c9.4-14.5 17.7-26.1 24.8-34.8 3.1-60.9-5.7-99.6-26.5-116.1-4.7 1.6-14.3 18.2-28.9 49.8-14.5 31.6-21.2 51.5-20 59.5 1.2 8.1-.6 12.8-5.3 14.2-4.7 1.4-7.9 3.6-9.4 6.8-.8 13.8-2.4 20.6-4.7 20.6h-38.3c2.8-11.8 7.1-22.4 13-31.8 18.1-21.2 31.9-48.5 41.6-82 9.6-33.4 14.4-59.7 14.4-79-24.3-15.5-40.5-38.7-48.6-69.7-8.1-31.1-20.6-50.5-37.7-58.4-17.1-7.9-28.4-13.6-33.9-17.1-17.3 8.3-28.7 5.5-34.2-8.3-3.5.8-7.9-4.2-13-15S.8 83.9 13.4 75.6c8.6-10.2 18.7-20 30.1-29.5-3.9-4.7 6.3-15.2 30.7-31.5s44.3-19 59.8-8 22.7 20.8 21.5 29.5L171.4 22c10.2 15.3 12.6 28.7 7.1 40.1l-12.4 7.7c14.2 13.8 35.2 24.3 63.1 31.5 27.9 7.3 56.9 11.9 87 13.9s67.4 1.6 112-1.2c44.6-2.8 82.8 4.3 114.7 21.2zM48.2 114.5c2.4-1.6 6.3-1 11.8 1.8 50.7-5.1 81.2-16.9 91.4-35.4-11.4.8-18.1-1.2-20-5.9-4.7-7.5-.6-16.3 12.4-26.5.4-11-4.8-21-15.6-30.1-10.8-9-25.7-7.3-44.8 5.3-19.1 12.6-29.4 22.4-31 29.5-26.3 17.3-27.9 35-4.7 53.1l.5 8.2zm128.5 129.2c-.8-53.5 6.5-87.3 21.8-101.4l10-11.2h2.4v1.8c-9.8 25.2-14.7 50.3-14.7 75.5 0 26.3 13.8 60.7 41.3 103.2v1.2h1.2c2-53.8 5.3-81.8 10-83.7 1.6 6.7 7.7 17.3 18.3 31.8 20.4 6.3 43 7.7 67.8 4.1 0 5.5 2.3 8.2 6.8 8 4.5-.2 12.4-3.8 23.6-10.9 11.2-7.1 42-10.6 92.3-10.6-15.7-19.7-29.8-35-42.2-46-12.4-11-19.6-27.1-21.5-48.3l6.5 1.2c2.8 18.5 12.6 34.6 29.5 48.3 16.9 13.8 32.4 31.1 46.6 51.9s26.2 29.6 36.3 26.2c10-3.3 17.9-12.7 23.6-28 5.7-15.3 8.9-31.9 9.7-49.8.8-17.9-1.6-34.9-7.1-51 4.7-4.3 8.5-6.9 11.2-7.7-10.6 0-23.8-3.2-39.5-9.7-15.7-6.5-44.5-9.1-86.4-8-41.9 1.2-78.3.9-109.4-.9-31.1-1.8-62.5-7-94.3-15.6-30.7-8.6-52.7-18.7-66-30.1-5.9 17.3-35 29.3-87.3 36l-1.8-.6c9 4.3 20.3 8.9 33.9 13.9 13.6 4.9 26.6 25.1 39.2 60.4 12.5 35.2 25.3 51.9 38.2 50z"/></svg>