<svg xmlns="http://www.w3.org/2000/svg" viewBox="-10 0 997.063 719"><path d="M237 719l-23-12 24-49 33-40 34-181q-7-1-14.5-3t-15.5-6q-10-6-24-25l-28-38-21-28q-11-13-28.5-35.5T143 263q-9 1-31.5 5.5T70 276q-19-6-43.5-19T-7 228l-3-40q14-31 35-67.5T69.5 54Q93 24 116 12h55l12 9 16 11 13-15q7-8 22-12t31-4.5q16-.5 27-.5 7 6 10 21t1 19l-47 39q21 17 45.5 35t34.5 18q46 0 91.5 5.5T521 143q21 0 57-7.5t75-15.5q44-9 86-16.5t71-7.5q41 0 75.5 8t57.5 28.5q23 20.5 27 58.5 1 7-.5 29t-4 48.5q-2.5 26.5-5 48.5t-3.5 30q2 13 6.5 34.5t10 44.5q5.5 23 8.5 41 3 21 4.5 43.5t-1 37.5q-2.5 15-10.5 15t-16-17.5q-8-17.5-13.5-40.5t-6.5-38q-3-30-4-59.5t1-55.5q0-6 2-29t4.5-51 4.5-51q2-23 2-30t-5.5-18.5Q938 161 930 154l10 44-45 173q2 5 9 23t16 41.5q9 23.5 16 43.5l8 208-13-2-12 29-54 5-23-12 24-49h4l14-49-5-91-77-81q-5 14-16.5 42.5t-24 59Q749 569 740 590.5l-9 21.5q0 1-6 26t-12 48l-7-1-12 29-53 5-23-12 24-49h6l37-72q0-3 2.5-23t6.5-48q4-28 8-55t6-43l-95 13-144 4q2 6 5 13t5 11l-12 46 25 165-11 11v6l-13 28-53 5-23-12 24-49h7l5-19-39-128-5-5-59 120q-2 10-4 23t-3 20l-17 11 1 6-11 28zM197 84q8-2 15.5-3t15.5-2q20-17 32.5-26.5T283 34q2-6 .5-11t-5.5-5q-11-2-30 2.5T224 32l-36 43zm275 581l-24-162 13-44q-4-7-11.5-23T435 398q-3-9-4.5-24.5T428 347l16-1q1 10 3 23t4 21q2 8 5 15t4 11l150-4h-1l149-23-63-116 17-9 64 117q2 3 22 24t47.5 50q27.5 29 52.5 55l4 101-13 47 39 7-11-182q-2-5-9-24t-16-42q-9-23-16-44l46-176-16-63q-3-2-23.5-10.5T810 114q-25 0-68.5 8T657 139q-39 8-75.5 15t-60.5 7q-46 0-92-5t-93-5q-9 0-25.5-10t-35-24.5Q257 102 242 90l-7 7-44 6-29-26 26-31q-7-5-12.5-9.5T167 30h-46q-20 11-41 38.5t-40 61Q21 163 8 191l3 31q4 6 13 12t19 10l62-28 8 17-48 22q2 1 5 1 5-1 31-5t49-8q15 19 35.5 44t31.5 39l21 29q13 18 26 35.5t21 21.5q14 10 30 10-6-19-11-43.5t-8-45.5q-1-17 2-42.5t7-44.5l17 3q-3 15-6 38.5t-1 41.5q2 21 4.5 34.5t6 27Q329 404 336 425l69 76 42 141-4 15zM73 148v-24l10-14h48v17l-27 7-17 14zm-18 74l-25-21 26-16 13 14zm645 443q4-17 8-34.5t4-18.5q0-1 7-19t18.5-46.5q11.5-28.5 25-61.5t25.5-63l-14-15-47 7-24 177-39 67zm-402 1l9-44 63-131-48-48-33 182-26 32zm349 31h34l5-16-29-7zm-403 0h33l6-16-29-7zm628 0h33l6-16-30-6zm-451 0h34l6-16-30-5z" fill="currentColor"/></svg>