<svg xmlns="http://www.w3.org/2000/svg" viewBox="0 0 595.3 543.4"><path d="M56.6 157.6c-23.5 14.7-38.2 25.5-44.1 32.3 2.4 2.4 5.9 2.9 10.3 1.5l1.5 2.2c-3.9 3.9-8.6 5.6-14 5.1-1.5 3.9-1.7 8.8-.7 14.7l18.4-2.2 1.5 4.4-18.5 3.8c1.5 3.9 5.1 4.7 11 2.2 15.2 0 37-1.7 65.4-5.1 11.3-6.4 18.1-14.6 20.6-24.6 2.4-10 4.9-15.8 7.3-17.3l2.2 3.7c1 18.6-3.4 31.6-13.2 38.9C116.1 251 133 284.4 155 317.5c22 33.1 35.4 52.5 40.1 58.4 4.7 5.9 23.1 10.8 55.5 14.7-29.4-11.3-50-27.4-61.7-48.5-11.8-21.1-13.5-42.5-5.1-64.3 8.3-21.8 16.3-37.2 23.9-46.3 7.6-9.1 6.7-1.8-2.6 21.7s-14 41.3-14 53.3 6 24.9 18 38.6c12 13.7 23.6 23 34.9 27.9 11.3 4.9 20.9 12.2 29 22 8.1 9.8 9.7-10.5 4.8-61 8.8 16.2 16.9 27.7 24.3 34.5 54.9 11.3 89.7 13.7 104.4 7.3 4.4 8.8 9.1 14.1 14 15.8 4.9 1.7 10-2.6 15.4-12.9 10.3 2 19.4-1.2 27.2-9.6 10.8 2 15.1 9.8 12.9 23.5-2.2 13.7 0 23.3 6.6 28.7 6.6 5.4 11 1 13.2-13.2 2.2-14.2-3.4-29.2-16.9-44.8-13.5-15.7-24.4-29.6-32.7-41.9 21.1 16.2 34.8 27.6 41.2 34.2 6.4 6.6 13.4 14 20.9 22 7.6 8.1 14.9 12 22 11.8 7.1-.2 13.4-8.9 18.7-26.1 5.4-17.1 10.2-35.2 14.3-54 4.2-18.9 1.8-34.9-7-48.1 11.8 6.9 18.1 29.2 19.1 66.9-.5 6.4 1 9.4 4.4 9.2 3.4-.2 4.7-3.6 3.7-9.9-2-32.8-12.5-60.5-31.6-83-24-18.6-48.7-26.2-74.2-22.8-101.9 0-176.9-1.7-224.9-5.1-51.4-.5-86.1-11.3-104-32.3-17.9-21.1-24.1-32.8-18.7-35.3l14-27.2-2.2-1.5c-3.4 5.4-8.3 11.3-14.7 17.6 5.9-10.8 10.3-17.5 13.2-20.2 2.9-2.7 5.4-1.8 7.3 2.6l-15.4 31.6c11.3-9.8 16.9-18.6 16.9-26.5-.5-10.3-2.2-15.4-5.1-15.4-4.9 0-12.2 10-22 30.1-3.9 3.9-5.9 6.6-5.9 8.1-7.8-11.8-16.8-19.5-26.8-23.1-10-3.7-16.9-1.7-20.6 5.9-3.8 7.5-7.8 16.4-12.2 26.7zm7.3-10.3c12.7-4.9 20.7-3.7 23.9 3.7 3.2 7.3 2.9 13.7-.7 19.1-3.7 5.4-9.8 7.6-18.4 6.6-8.6-1-12-5.9-10.3-14.7 1.7-8.8 8.5-13 20.2-12.5-2.4-1.9-7.3-2.6-14.7-2.2zm11.8 7.4c3.4 2.9 4.2 7.3 2.2 13.2 3.9-2 6-4.4 6.2-7.3.3-3-2.5-4.9-8.4-5.9zm-8.1 1.5c-6.9 10.8-4.7 15.2 6.6 13.2-6.8-2-9-6.4-6.6-13.2zm433.6 234.4c2.4 8.3 2.2 18.1-.7 29.4 6.9-2 10.3-8.8 10.3-20.6-3-5.4-6.2-8.3-9.6-8.8zm84.5 111.7c-2.9 8.3-3.3 13.2-1.1 14.7 2.2 1.5 3.8 1.2 4.8-.7 1-2-.3-6.7-3.7-14zm-265.3 9.5c-2 5.4-1.8 8.8.4 10.3s3.6 1.1 4-1.1c.5-2.2-.9-5.2-4.4-9.2zm71.3 10.3c-5.9 4.9-9.8 9.8-11.8 14.7H410l2.9-3.7-21.2-11zm-240.3-8c-6.9 6.4-9.3 10.3-7.3 11.8 2 1.5 3.7 1.6 5.1.4 1.5-1.3 2.2-5.4 2.2-12.2zm274.8 3.6c-6.4 5.4-8.6 8.9-6.6 10.7 2 1.7 3.7 1.6 5.1-.4 1.5-1.9 2-5.4 1.5-10.3zm-320.4 19.1h25.7v-5.1c-5.4-2.9-9.8-7.1-13.2-12.5-5.4 4.4-9.5 10.3-12.5 17.6zm177.9 0h27.9v-8.1c-7.3-2.4-14-6.1-19.8-11-5.4 4.4-8.1 10.8-8.1 19.1zM560 522.1c-3.9 3.9-7.1 8.8-9.6 14.7h30.9l1.5-1.5c-8.4-4.8-15.9-9.2-22.8-13.2zM99.2 117.2c3.4-60.3 28-89.9 73.9-88.9 45.8 1 64.5 32.1 56.2 93.3h-2.2c-1.5-50-19.4-76.1-53.6-78.3-34.3-2.2-51 25.1-50 81.9 7.3-14.7 15.4-22.5 24.3-23.5 6.4 7.8 9.1 16.3 8.1 25.4-1 9.1-6.6 17.8-16.9 26.1 17.6 24.5 42.4 39.4 74.2 44.8 67.1 5.4 160 7.3 278.5 5.9 21.1 0 44.1 11.5 69.1 34.5 16.2 19.6 26 41.2 29.4 64.7 3.4 23.5 3.7 37 .7 40.4-2.9 3.4-6.5 5.4-10.7 5.9-4.2.5-8.5-2.2-12.9-8.1-15.2 36.7-8.8 66.6 19.1 89.7 0 28.9 2.9 58.1 8.8 87.5-1.5 4.4-3.9 5.9-7.3 4.4v7.3c-1.5 8.8-4.7 13.2-9.6 13.2h-39.7c4.4-12.7 10.5-23.5 18.4-32.3 4.4-13.7 6.1-28.3 5.1-43.7-1-15.4-16.2-35.9-45.6-61.4-2.4 17.6-10.5 26.2-24.3 25.7-8.3 5.4-16.4 19.6-24.3 42.6-18.6 13.2-32.1 32.1-40.4 56.6-1 2.9-3.2 3.9-6.6 2.9-2-.5-3.7 2.7-5.1 9.6H371c.5-12.7 6.9-23.5 19.1-32.3 47.5-40.2 69.6-81.8 66.1-124.9-4.4 2.4-11 4.7-19.8 6.6-5.4 12.7-17.6 13.7-36.7 2.9-20.1 1-40.9-1-62.5-5.9s-35.3-5.1-41.2-.7c0 26.9 8.3 60.3 25 99.9l9.6 31.6c0 4.4-1.2 7-3.7 7.7-2.4.7-4.9.1-7.3-1.8-2.4 3.4-3.4 9.1-2.9 16.9h-44.1c.5-13.7 5.6-24.5 15.4-32.3 2-4.4 2.6-13 1.8-25.7-.7-12.7-4.7-22.3-11.8-28.7-7.1-6.4-15.1-24.3-23.9-53.6 0-2.9-12-4.4-36-4.4-17.1 18.6-27.6 33.4-31.2 44.5-3.7 11-10.2 20.9-19.5 29.8-7.3 37.2-13.2 56.8-17.6 58.8-2.9 2-6.1 1.7-9.6-.7-3.9 3.4-6.4 7.6-7.3 12.5H94.8c4.4-12.7 11.3-23.5 20.6-32.3 20.1-26.5 30.7-45.3 32-56.6 1.2-11.3 7.7-33.6 19.5-66.9-6.9-35.3-18.1-62.3-33.8-81.2-15.7-18.9-30.1-46.4-43.4-82.7-11.8 3.9-22.8 5.9-33.1 5.9 4.4 25-1.5 43.6-17.6 55.9-9.3-8.3-14.1-17-14.3-26.1-.2-9.1.1-18 1.1-26.8-17.2-.7-25.8-9-25.8-25.2-.5-19.6 17.4-38.7 53.6-57.3C63.9 49.9 102.8-.2 170.1 0c67.4.2 97.1 45 89.3 134.1h-2.9c-7.3-80.3-36.1-118.8-86.3-115.4-50.3 3.5-73.9 36.3-71 98.5z"/></svg>