<svg xmlns="http://www.w3.org/2000/svg" viewBox="-10 0 1175 1221"><path d="M222 1221l-93-1 42-53q11-16 26.5-40.5T223 1078q8-19 20.5-54.5T269 949q13-39 23.5-69.5T306 840q-24-23-46.5-55T227 722q-2-5-4-12l-4-14q-4-13-8.5-28T200 640l-4 12q-9 22-26 22-14 0-14-21 0-14 4-26.5t10-27.5q-4-2-9-2-12 0-27.5 4t-29.5 8q0 2 .5 4.5t.5 5.5q0 25-16.5 51.5T44 702v-80q-19-3-36.5-12T-10 592v-29q1-6 7.5-14T12 532q7-7 13.5-14.5T35 504l10-18q10-22 28-53.5t44-55.5l-7-111q-1-4-1-9v-9q0-81 36-136t94-83.5Q297 0 363 0q48 0 79 11t48 23.5Q507 47 512 52q30 27 30 50 0 10-8 10t-20.5-7.5Q501 97 486 86q-21-15-46-23.5T387 54q-34 0-72 15.5T258 107q28-19 61.5-27.5T375 71q49 0 84 13.5t55.5 29Q535 129 540 135q11 10 17.5 22.5T564 183q0 10-7 10-14 0-50-25-24-18-53.5-29T391 128q-44 0-74.5 23.5t-46.5 61Q254 250 254 293v61q8 2 11 4 19-13 39-18t41-5q20 0 10 37-5 19-14 35t-23 21q13 28 31 59.5t37 46.5q27 19 77.5 35T577 585q26 0 56.5-5t55-11q24.5-6 31.5-8 51-16 105-23.5t109-7.5q43 0 78.5 14.5T1078 578q43 29 64 69t23 73q0 26-11 26-10 0-19.5-15.5T1112 698q-7-9-22.5-21t-21.5-14q7 25 13.5 53.5t2.5 83.5q-7 15-6.5 36.5t6 44.5q5.5 23 13.5 41.5t14 27.5v34l-18 109v82l-29 12-14 33h-89l36-46 37-87-13-143-52-52-2 53q-11 16-27.5 41t-25.5 42q-5 11-17.5 32.5t-27 46Q855 1131 843 1151l-17 36h-16l-14 34-93-1 30-39 66-74 82-183 3-100q-30 22-65.5 35.5T755 878l-2-11q-39 27-75.5 33t-91.5 6l-7 14v70q2 6 8.5 31t11.5 49q4 19 7 46t5 44l-40 27-13 34-94-1 42-52 35-44-1-31q-1-4-5.5-20.5t-11-38.5q-6.5-22-14.5-42-10-26-22-44.5T462 909l-8-11h-8l-11-1-20 20-31 33q-31 33-32.5 38.5T328 1024q-7 15-21.5 43.5t-30.5 61q-16 32.5-29 58.5h-11zm-86-858l16-8 18-6v-71q0-67 28.5-121T276 70.5Q325 38 384 38q41 0 74 16.5T524 99l6-4q-25-36-64-58T366 15q-58 0-112.5 26T164 118.5Q129 170 129 248v17zm99-13v-57q0-48 18-89t52.5-66.5Q340 112 390 112q39 0 82 18.5t76 49.5l5-4q-25-41-71-64t-96-23q-91 0-144 51.5T189 273v74q2 0 3-.5t2-.5q12 0 22 1.5t19 2.5zm12 47q20-14 44.5-22t46.5-6q1-4 1-9.5t-10-5.5q-23 0-46 13t-38 28zm321 771l23-17-5-37.5-6-39.5q-5-19-11-43l-10-40 2-74 9-22-17.5-24.5L530 839l15-11 44 58q41 0 71-3.5t58.5-17.5q28.5-14 63.5-46l13 15q-14 12-24 21 26-8 56-21t54-32q-17-27-24-58t-7-63q0-17 2-25l19 3q0 3-.5 9t-.5 13q0 40 13.5 78t42.5 64l114 113 14 156-34 76h31l23-8v-71l18-108v-26q-13-18-22-49.5t-11-63q-2-31.5 5-47.5 4-57-9-96t-17-62h11q15 1 33 13t33 28q10 11 18.5 22.5T1148 720q3-16-9-40t-33-47.5q-21-23.5-43-40.5-10-8-31-18t-46.5-17.5Q960 549 934 549q-47 0-100.5 8T731 578q-28 9-72 18t-82 9q-68 0-121-17t-81-38q-25-18-44.5-54T298 429q-6-2-11.5-3.5T277 424q-8 0-14 6.5t-8 8.5l-10-9q4-5 14-14.5t21-9.5q11 0 17.5 2t13.5 2q8 0 12-7t8-18q-26-2-52 8t-46 26l-15-14q5-5 13.5-14t17.5-18q-20-7-55-7-25 0-46 14t-37.5 34.5Q94 435 82 457t-20 38l-10 19q-5 8-11.5 15.5T27 544q-4 5-7.5 8.5T14 559h19v14l-21 16 11 5 35-18 5 10-22 16q4 1 8 1.5t8 .5q3 0 11.5-3t18.5-6q16-6 36.5-12t37.5-6q21 0 35.5 18.5t24.5 45q10 26.5 16 49.5l4 14 4 12q10 27 29 55.5t41 51q22 22.5 39 32.5t43 15q26 5 44 7-14-22-28.5-42.5t-28-50.5Q371 754 360 704l19-5q15 66 34.5 100.5T450 858q3 5 9 12.5t20 27.5q14 21 26 41t22 46q10 25 19 55.5t13 49.5l-1 46-26 31zM152 476q-11 0-16.5-5.5L126 461q3-3 11.5-9.5T154 445q10 0 17.5 5.5T182 460q-5 5-12.5 10.5T152 476zM63 668q12-6 17-23t5-26v-3q-7 2-12.5 4t-9.5 3zm710 500h39l13-25q12-22 27.5-48t28.5-48q13-22 19-32 13-22 26.5-43.5T948 939l-1-63q-22-21-43-43l-4 92-84 195zm-578 0h42q12-25 27-56t28-57q13-26 19-39 10-19 29-43t39-45.5q20-21.5 32-33.5-18-3-36.5-8.5T343 872q-5-3-10.5-7.5T321 855q-5 16-15.5 47t-23 67.5q-12.5 36.5-24 68T240 1086q-7 17-17.5 35t-19 32q-8.5 14-8.5 15zm798 39h15l13-20h-12zm33 0h12l10-20h-11zm-259 1h17l10-21h-16zm-32-1h17l13-20h-14zm-206 1h16l11-21h-16zm-32-1h17l13-20h-14zm-304 1h17l10-21h-15zm-32-1h17l13-20h-14z" fill="currentColor"/></svg>