<svg xmlns="http://www.w3.org/2000/svg" viewBox="-10 0 1186 1220"><path d="M247 1220l-94-1 42-53q6-8 17-28.5t23-46q12-25.5 22-46.5 9-37 19-80.5t19.5-84.5q9.5-41 17-72t10.5-44q-23-23-42.5-48.5T247 661q-4-11-4.5-12l-1.5-3-30 33 47 18-26 44-36-35-49 120-52-32 79-103-52-17 29-44 36 34 5-86q-14-8-31-8-12 0-27.5 4t-29.5 9q0 1 .5 3.5t.5 5.5q0 16-7.5 35.5t-21 35Q63 678 44 681v-80q-19-3-36.5-12T-10 571v-29q1-6 7.5-14T12 511q7-7 15-17t18-29q10-22 25-51t44-52v-14q0-31 15.5-68t38.5-64q31-37 66.5-70T301 78.5Q332 44 350 0h39q-8 40-26.5 76T317 144q35-27 67-58.5T428 12h32q-1 39-19 71.5t-45 60q-27 27.5-58.5 53T277 247q-8 7-18.5 22t-20 32q-9.5 17-14.5 30 17-17 39-27.5t53-10.5q7 0 6.5 11.5T320 325q-6 26-13.5 44.5T273 390q6 9 12 17.5t12 16.5q6-2 13-2 12 0 24 9t12 39q23 16 49 26t61 18q55 14 87 22t49 8q27 0 59-4.5t58-10q26-5.5 35-7.5 43-10 93-17t102-5q20 0 33.5 3.5T999 511q17 5 39.5 5t43-6q20.5-6 32.5-19 9-11 18-25.5t17-25.5q8-11 17-11 10 0 10 27 0 38-17.5 65t-43.5 43q-26 16-52 22 6 20 15 51t15 66q6 35 3 67-7 15-6 36.5t6.5 44.5q5.5 23 13.5 41.5t14 26.5v35l-18 138v82l-29 12-14 33h-90l37-46 37-87-14-172-66-63-2 53q-8 20-23 56t-33 76q-18 40-33 73l-9 55-20 2-9 20h-16l-13 34-94-1 31-39 66-74 54-161-3-131q-40 16-81 24.5t-82 8.5q-65 0-159-19l15 24 2 137q1 6 8 31t12 49q5 19 8 46t4 44l-40 27-13 34-94-1 42-52 33-42 1-33q-1-4-5.5-20.5t-11-38.5q-6.5-22-14.5-42-11-26-22-44.5T441 908l-39-57-49 169-81 166h-12zM133 351q4-2 10.5-5t13.5-6q4-31 24.5-68.5T231 208q8-9 23-21 23-21 47.5-50.5t43-62Q363 42 368 14h-6q-21 44-51 79t-64 66q-34 31-64 65-23 26-36.5 60T133 348zm114 258q22-26 48-61t31-66q-38-30-76-92-8 2-12.5 8.5T232 407l-12-8q5-8 14.5-18.5T263 370q4 0 7.5.5t5.5.5q11 0 15.5-7.5T298 342q-25 3-50 16.5T207 391l-14-11q4-38 24-79.5t46-66.5q20-18 49-41.5t58-50.5q29-27 49.5-56.5T443 26h-5q-12 33-28.5 54.5t-40 40q-23.5 18.5-55 42T242 223q-28 25-46.5 62T179 357q-34 5-56 26t-36.5 46.5Q72 455 62 474q-12 22-20 32t-15 17q-4 5-7.5 8.5T14 538h19v14l-21 16 11 5 35-18 5 10-22 16q4 1 8 1.5t8 .5q3 0 11.5-6t18.5-9q16-6 31-12t43-6q32 0 52.5 18t33.5 41zm-30-242q18-17 41-28.5t45-13.5q6-14-5-14-29 0-48 15.5T214 365zm-73 77q-11 0-16.5-5t-9.5-9q3-3 11-9.5t17-6.5q9 0 17 5t11 10q-5 5-13 10t-17 5zm182 10q0-3-3.5-8t-11.5-5zm221 713l23-17q-1-15-4.5-37.5T559 1073q-4-19-10-43t-11-40l-4-134-50-85 16-12 28 47v-1q52 12 94.5 17.5T700 828q31 0 67.5-6.5t70-19Q871 790 894 772q-4-5-7-11t-5-11q-11-22-15-47t-4-52q0-9 .5-15.5t.5-9.5l20 3q-2 8-2 22 0 41 14.5 77.5T939 793l114 112 13 186-33 76h31l23-8v-71l18-137v-27q-14-18-23-49.5t-11-62.5q-2-31 5-47 4-50-11-101.5t-29-92.5q44-3 71-22.5t39-45.5q12-26 12-49-7 8-14.5 23.5T1125 503q-26 25-60 30t-66-2q-16-4-30.5-7.5T937 519q-54-1-103 7t-96 18q-17 4-42.5 8.5t-53 8Q615 564 592 564q-33 0-71-12t-69-19q-36-8-62-17t-47-22q-6 24-21 48.5t-33 47Q271 612 255 629l7 18q14 37 39.5 67t57.5 57q-10-26-18.5-57.5T328 644l19-5q4 58 19.5 100t39 79q23.5 37 52.5 79 13 21 25.5 41t22.5 46q10 25 18.5 55.5T538 1089l-1 46-26 31zM63 647q12-6 17-26t5-29v-3q-12 9-22 13zm144 7q5-6 12.5-13.5T232 626q-4-8-9-17t-12-16zm-68 143l33-77-48 69zm80 370h42l75-158 18-63 19.5-67.5Q393 811 387 826q-5-6-9-16-10-8-19-15t-18-15q-4 17-11.5 49t-17 71q-9.5 39-19.5 79t-18 74q-12 24-24.5 50t-22 44.5Q219 1166 219 1167zm566 0h40l10-17 15-1 8-47q14-30 29-64t28-64q13-30 21.5-51t9.5-25l-1-63q-11-11-16.5-17T904 792q-5 4-10 7l-10 6 5 142-60 172zm-309 39h17l13-20h-14zm32 1h16l11-21h-16zm-290 0h16l11-21h-16zm-32-1h17l13-20h-14zm853 0h12l10-20h-11zm-34 0h16l13-20h-12zm-257 0h17l13-20h-14zm32 1h16l11-21h-16z" fill="currentColor"/></svg>