<svg xmlns="http://www.w3.org/2000/svg" viewBox="0 0 595.3 424.6"><path d="M288.6 0c5.3.3 8.3 1.9 8.9 4.7.7 2.8-.5 5.7-3.5 8.7 5.9 2.3 7.1 6.3 3.5 11.9-2.6 4.3-11.1 8.3-25.5 11.9-14.4 3.6-40.3 4.6-77.8 3-37.5-1.7-65.5 9.2-84 32.7-.3.3.2 1.3 1.5 3 21.5-24.4 48.2-34 80.3-28.7-5.6 27.1-24.6 43.9-57 50.5 8.3 5.9 19.5 9.9 33.7 11.9 2.6-5.9 7.8-8.8 15.4-8.4 8.6 1 13.5 4.6 14.9 10.9 60.4 17.2 109.7 26.3 147.9 27.5 38.2 1.2 86.3-3.1 144.4-12.6 28.1-3 49.9 5.5 65.4 25.3l3.5-18.8-1-21.8h36.2v12.4c0 18.2-8.3 37.3-24.8 57.5 0 20.5-8.1 46.4-24.3 77.8 5 10.2 12.2 20.6 21.8 31.2l-2 52c.3 11.6 5 27.6 13.9 48.1 0 3.6-4.6 7.4-13.9 11.4-.7 6.6-5.7 10.7-15.1 12.1-9.4 1.5-18.2.6-26.5-2.7 2-21.5 4.8-34.4 8.4-38.6 4.3-3.3 6.4-6.8 6.4-10.4 0-19.8-9.7-44.8-29.2-74.8-4.6 4-9.4 5.9-14.4 5.9s-10.1-2.1-15.4-6.4L436.2 364c1.3 3 2 7.8 2 14.4 0 6.6-3.5 10.4-10.4 11.4l2 1v22.8h-60.4v-11.4c22.8-22.1 41.3-47.1 55.5-74.8 7.6-14.9 11.1-35 10.4-60.4-15.5 5-27.7 15-36.7 30.2l-4 7.9c-4.6 0-8.8-3-12.4-8.9 5.9-13.2 6.6-21.3 2-24.3-42 3-72.3 2.1-91.2-2.5 4 40.3 8.7 64.6 14.1 72.8 5.5 8.3 15.6 22 30.5 41.1l-6.4 9.4 5.9 14.9c-10.9 12.6-28.2 17.7-52 15.4l5.9-29.7c-6.6-25.4-16.2-50.9-28.7-76.3L244 286.4c-16.5 2-31.4 1.3-44.6-2-.3 4.6-6.6 17.5-18.8 38.6-12.2 21.1-18.3 34.8-18.3 41.1v27.3l-18.3-3.5 4 5.4v31.2H98.8c3-17.2 6.3-25.9 9.9-26.3l19.3-27.7c5.6-21.8 11.6-38.9 17.8-51.3 6.3-12.4 9.6-29 9.9-49.8-16.5-21.8-26.3-37.5-29.2-47.1-4.6 1.3-12.1 3-22.3 5l31.2 23.3-16.8 22.8-37.2-27.7L70.1 277l-30.2-20.8 19.8-22.8-35.2-24.3 19.8-27.7L77 206.1c-1.3-14.9.8-29.1 6.4-42.6l-9.9-14.9c-6.9 1-15.5 2.5-25.8 4.5l2.5 24.8H7.7l3-29.2c-8.9-9.2-12.2-17.3-9.9-24.3 9.2-12.9 21.5-26.3 36.7-40.1 5-14.9 15.2-25.4 30.7-31.7 9.6-6.3 17.3-12.1 23.3-17.3 20.5-15.5 38.8-24.9 55-28.2 16.2-3.3 36.2-3.9 60-1.7 23.6 1.9 51 .2 82.1-5.4zM94.4 52c21.5-16.8 39.8-27.1 55-30.7 15.2-3.6 35-4.3 59.5-2 24.4 2.3 51.5-.3 81.3-7.9l-1-3c-30.4 5.6-57.7 7.4-82 5.5-24.3-2-44-1.2-59.2 2.5-15.2 3.6-33.9 13.9-56 30.7l2.4 4.9zm5.4 7.5l3 4C124.9 46 142.1 35.8 154.3 33c12.2-2.8 31.1-3.3 56.5-1.5 25.4 1.8 52.9-1.4 82.2-9.7l-2.5-2.5c-28.1 6.9-54.8 9.2-80 6.9s-45.3-1.6-60.2 2.2c-14.8 3.9-31.7 14.2-50.5 31.1zm20.8 26.2l3 3c25.8-6.9 43.8-18.2 54-33.7-19.8 0-38.8 10.2-57 30.7zM13.1 122.9c-3.3 6.3.2 13 10.4 20.3 19.5 1 38.3-2 56.5-8.9 4 16.5 19.3 35.8 46.1 58 26.4-21.8 40-44.4 40.6-67.9-24.4-7.3-41.5-15.8-51-25.5-9.6-9.7-16.5-18.3-20.8-25.8-4.3-7.4-11.6-10.4-22-8.9s-19.2 9.3-26.5 23.5l-33.3 35.2zM77 81.3c-.3 12.6-8.3 18.8-23.8 18.8-4.6-.7-5.1-4.6-1.5-11.9 9-4.6 17.4-6.9 25.3-6.9zm106.5 27.2c-5.9 0-9.3 7.8-10.2 23.3-.8 15.5-10.6 33.7-29.2 54.5-18.7 20.8-34.3 27.6-46.8 20.3-4.3-7.3-4.1-14.7.5-22.3-3.3-3.3-6.4-7.1-9.4-11.4l-4 19.8c1 17.2 4.1 25.8 9.4 25.8 24.4.7 45.2-9.2 62.2-29.5s27.5-38.8 31.5-55.5c4-16.6 2.7-25-4-25zm16.4 18.8c-4.6 16.2-12.3 32.7-23 49.5-10.7 16.8-23.2 29.4-37.4 37.7 14.5 40.3 41.3 60.4 80.3 60.4h18.8c-5.9-7.9-16.4-14.5-31.2-19.8-22.8-8.6-34.2-26.9-34.2-55l10.4-.5c-.3 14.9 2.3 25.9 7.9 33.2 5.6 7.3 16.4 13.7 32.5 19.3 16 5.6 27.7 15.4 34.9 29.5 7.3 14 14.5 29.6 21.8 46.6 7.3 17 14.4 38.1 21.3 63.2l-3 19.8c9.9.3 19-2.5 27.3-8.4-1.3-4.3-4.1-9.6-8.4-15.9l-1.5-4 11.4 1c-27.1-26.8-41.5-54.8-43.1-84-1.7-29.2-6.9-52.9-15.9-71.1-8.6-15.2-14.7-23.3-18.3-24.3V202c15.2 1.3 28.6 18.7 40.1 52 17.5 5.3 38 7.6 61.4 6.9 23.5-.7 41.1-3.5 53-8.4 31.4-12.9 50.9-19.3 58.5-19.3 24.4 0 40.6 7.9 48.6 23.8 8.9 14.5 17.8 31.9 26.8 52 8.9 20.1 13.2 39.1 12.9 57-9.9 12.2-14.9 24.8-14.9 37.7 13.5.7 20.5-3.8 20.8-13.4l-3-9.4h2.5c1.3 0 3 3.1 5 9.4l5-1c-7.6-17.5-11.6-33.5-11.9-48.1l.5-47.1C545.2 280.2 537 268 531 257.4c17.2-36 26.3-60.1 27.3-72.3 0-8.9-4.3-18-12.9-27.3-18.5-12.2-35.7-18-51.5-17.3-66.4 9.9-115.9 14-148.4 12.1-32.5-1.8-63.6-5.9-93.1-12.1-29.8-6.1-47.2-10.5-52.5-13.2zm370.6-4.4c.7 18.2-1.2 31.4-5.4 39.6 1.3 0 2.1 1 2.5 3 10.9-12.9 16.4-27.1 16.4-42.6h-13.5zM21 153.1l-2 13.4h21.3l-1-13.9-18.3.5zm82.3 36.2c-2.3 4.3-2 7.4 1 9.4 4.6 3 8.1 2.6 10.4-1l-11.4-8.4zm288.3 81.2c4 4.3 2.8 12.7-3.5 25.3l3 2c9.9-18.5 23-31.1 39.4-37.9 16.4-6.8 26.3-10.2 30-10.2 12.2.3 19.5 5.1 21.8 14.4 1.3 8.6 4 14.3 7.9 17.1 4 2.8 8.1 2.7 12.4-.2 4.3-3 4.1-8.6-.5-16.8-4.6-8.3-10.2-13.9-16.6-16.8-6.4-3-14.8-3.8-25-2.5l-68.9 25.6zm55.5-6.9c2 42.3-16.7 85.9-56 130.8l-10.4 7.4h37.7c2-1 2.2-4.7.7-11.1-1.5-6.4.6-10.2 6.2-11.4 5.6-1.2 5.9-7.2 1-18.1l42.6-76.3c-7.9-5.6-10.7-14.7-8.4-27.3-4.3 0-8.7 2-13.4 6zm23.8-7.4c-4.6 11.9-2 19.8 7.9 23.8l-7.9-23.8zm-303.7 17.3c0 21.8-6.4 43.4-19.3 64.9l-12.4 37.2-18.8 28.2c-2.3 0-4 4.1-5 12.4h26.8v-19.3c-3-5-3.6-9.2-1.7-12.9 1.8-3.6 7-4.6 15.6-3l-.5-24.3c12.6-23.5 23.6-49.1 33.2-76.8l-17.9-6.4z"/></svg>