<svg xmlns="http://www.w3.org/2000/svg" viewBox="-10 0 1207 885.118"><path d="M19 885q-29 0-29-30 0-16 8.5-28T17 808.5q10-6.5 13-7.5-6-3-6-8 0-10 14.5-14t30.5-4.5q16-.5 20-.5 10 0 19 1.5t19 2.5q10-6 23-25t41-66q16-29 32.5-58.5T255 567l5-33q-7-6-21.5-20T223 487q-2-20 3-45.5t19.5-65Q260 337 289 273q1-7-1.5-16.5T281 243h-60q-2 1-14 4t-32 3q-27 0-38.5-11t-14-23.5Q120 203 120 196v-1q-5-3-8-7t-3-11q0-15 8-25t16-21q4-5 9-11.5t12-14.5q20-20 56-41 3-10 14.5-25t31-27Q275 0 303 0q38 0 74 18t65 44q29 26 47 50 15 11 40.5 28.5T577 171q14 7 35.5 24t46 35.5q24.5 18.5 45.5 33t33 17.5q35 8 93.5 12t122.5 3q28-1 59-5t57-8q26-4 40-4 40 0 64 31t24 75q0 21-8 53t-16 65q-8 28-14 48t-6 34q0 25 5 51.5t10 42.5l-31 9q-14-17-28-46.5t-14-56.5q0-20 7.5-41t17.5-50q9-28 14-47.5t5-39.5q0-28-10.5-47t-30.5-19q-19 0-29 6t-17 17q-1 5-1.5 20.5T1049 412q-2 14-19.5 47T987 531.5Q962 571 939 604q1 5 1 9.5v6.5q7 17 14.5 38t14 40q6.5 19 9.5 30 5 23 15.5 50t10.5 50q0 18-13.5 30.5T952 871h-62q-5 0-12.5 2.5T862 878q-17 7-27 7-29 0-29-30 0-7 10.5-18.5T838 818q-4-6-4-10 0-10 11-13.5t23-3.5q4 0 8.5 1t12.5 1q4 0 9.5-2t5.5-9q0-3-9.5-26T871 701q-14-32-27-61-11 14-31 40.5T783 726q-10 19-21.5 42T743 807q-13 38-54 57-16 7-28.5 12.5T638 883q-13 1-22-3t-9-13q0-5 1-7-7 0-14 7-5 6-11 12t-15 6q-11 1-27.5-6.5T524 856q0-19 13-31t28-16q14-4 29-5t26-1q15-1 24-3.5t20-15.5l8.5-19 20.5-46.5q20.5-46.5 23.5-54.5t17.5-44q5-13 15.5-35t22-46q11.5-24 21.5-42-3-8-12.5-8.5T763 488q-15 1-42.5 6T662 506q-31 7-57 12l-20 4q-16 4-53 7t-68 5l5 31q-6 22-12 48t-11 49.5q-5 23.5-6 34.5l-5.5 38.5L430 774q-3 25-9.5 53T395 864q-16 7-28 12.5t-23 6.5q-13 1-21.5-3t-8.5-13v-7q-6 0-14 7-5 6-10.5 11.5T274 885q-13 1-28-6.5T231 856q0-19 12-31t29-16q14-4 28.5-5.5t26.5-.5q16 0 23.5-6.5T358 771l5-144q-3-3-7-11-17 16-36 34t-29 29q-15 15-35 43t-37.5 58Q201 810 192 830q-6 16-18.5 28.5T136 871H73q-5 0-12.5 2.5T46 878q-17 7-27 7zm0-20q6 0 21-5 8-3 16.5-5.5T73 851h63q17 0 25-8t13-19q9-21 27.5-52.5t39-61Q261 681 277 665q12-12 32-31t38-36q18-17 25-23 21-20 33.5-54.5t18-72.5q5.5-38 5.5-69h19q2 77-24 142 19-2 48.5-4.5t59-6Q561 507 581 503l20-5q27-5 59-12.5t60.5-12.5q28.5-5 45.5-5t34 3q17 3 33 16 2-21 4.5-44t6.5-38l20 3q-7 35-10.5 66t-3.5 63q0 20 2 44.5t5 41.5q8 16 19.5 41.5T899 716q11 26 18.5 45t7.5 23q0 14-10 20t-26 6q-6 0-14-2t-18-2q-4 0-4 3.5t3 4.5q13 0 12.5 4.5T862 827q-12 7-24.5 15.5T825 855q0 10 10 10 6 0 21-5 8-3 16.5-5.5T889 851h63q32 0 32-23 0-20-9.5-45.5T960 733q-3-10-9.5-29t-15-41q-8.5-22-15.5-40-1-8 1-19.5t9-20.5q21-29 43-64t38.5-65.5Q1028 423 1030 410q0-5 .5-22t1.5-31q13-16 27.5-25.5t38.5-9.5q29 0 44.5 25t15.5 60q0 20-5.5 43t-14.5 50q-8 26-16 47t-8 38q0 26 10 48t19 33l4-1q-3-10-8-32t-5-48q0-15 6.5-36.5T1154 498q8-31 15.5-62t7.5-51q0-35-19.5-61t-48.5-26q-14 0-43 4t-60 8.5q-31 4.5-50 4.5-33 1-73 0t-79-4.5q-39-3.5-71-10.5-22-5-51.5-27t-60-47Q591 201 567 188q-22-13-49-31.5T475 125q-16-22-43.5-46.5t-61-41.5Q337 20 303 20q-16 0-29 6 17 3 26.5 11T315 55q1 4-5 7.5t-9 .5q-4-5-17-13.5T248 43q-10 9-15.5 18.5T226 76q-19 12-34.5 23T168 119q-5 5-10 11.5t-9 11.5q-5 8-12.5 16t-7.5 19q0 3 10.5 8t43.5 5v12h-16.5l-26.5 1q1 8 7.5 18t27.5 10q12 0 23-2.5t17-4.5q6-1 24-1t35 1q17 1 21 5 8 8 12 22.5t2 23.5q-4 18-20.5 50t-31 72.5Q243 438 243 484q0 9 13 21t26 20l-8 47q-13 31-30 61t-36 64q-29 49-44.5 71T132 798q-17-5-39.5-6T57 793q-8 1-8.5 5t4.5 4l9 1q8 1 7.5 5t-8.5 5q-8 0-20 5t-22 14q-10 9-10 23 0 10 10 10zm314-704q-8-1-9.5-7t2.5-12q5-7 14.5-10t18.5-4q8-1 14-13t6-25q0-5-4-10.5T362 74q-9 0-18 10.5T332 96V76q3-7 12-14.5t23-7.5q15 0 22.5 12t7.5 24q0 17-11 35.5T352 145q-5 4-8.5 10.5T333 161zm-62-54q-8 0-16.5-4T246 91q0-16 20-16 9 0 19 7t15 14q-7 7-14.5 9t-14.5 2zm293 758q5 0 8.5-3.5t6.5-7.5q8-8 15-10.5t20-2.5q5 0 18-.5t17 .5q-4 5-11 9.5t-6 9.5q1 5 10.5 2.5t21-8Q675 849 682 845q12-7 22.5-16t20.5-29q6-15 18-39t24-44q8-14 20.5-32.5t26-36.5q13.5-18 23.5-30-4-18-5-40.5t-1-40.5v-25q-4-5-8-8t-9-7q0 2-11.5 24.5t-25.5 52Q763 603 753 627q-6 15-18.5 42.5t-26 57Q695 756 685 777.5T673 802q-9 15-22.5 17t-29.5 3q-11 1-25.5 2t-25.5 3q-9 2-18 12.5t-8 15.5q2 10 20 10zm-294 0q5 0 9-3.5t7-7.5q7-8 14-10.5t21-2.5q5 0 17.5-.5t16.5.5q-4 5-11 9.5t-5 9.5q1 5 9.5 3t19.5-7q11-5 17-9 12-7 18-29.5t8-39.5q2-15 4.5-42t4.5-42q1-9 6-30.5t11-48q6-26.5 12-49.5-1-3-2.5-13t-2.5-18q-9 1-15.5 1H420q-2 9-13 27t-23 28l-13 11 12 19-4 148q-1 25-14.5 39T328 822q-25 0-52 5-13 3-20 13t-5 15q2 10 19 10z" fill="currentColor"/></svg>