<svg xmlns="http://www.w3.org/2000/svg" viewBox="0 0 593.9 449"><path d="M92.5 51.2c3.2.7 4.7 2.5 4.5 5.3s-1.9 4.1-5.1 3.7v2.7c8.2.4 12.2-1.9 12-6.7-.2-4.8-4-7.2-11.5-7.2v2.2zm66.6 55.5c-6.8-9.6-10.3-21-10.7-34.1.4-6 2-9.2 4.8-9.6 6.8 2.8 12.3 3.4 16.5 1.6 4.3-1.8 6.8-7 7.7-15.7.9-8.7-2.1-14.5-9.1-17.3s-13.6.4-20 9.6l-3.2-8c6.4-6.8 12.3-10.2 17.6-10.4 5.3-.2 10.6 1.7 15.7 5.6 5.2 3.9 8.4 10.3 9.9 19.2 1.4 8.9-1 16.1-7.2 21.6s-11.5 9-15.7 10.4c-4.3 1.4-3.7 6.9 1.6 16.5l-7.9 10.6zm-23.4-72c3.6 1.4 5.2 4.8 4.8 10.1-10.7 6-18.5 3.7-23.5-6.9-5-10.7-10.2-15.5-15.7-14.4-5.5 1.1-9 6-10.4 14.9 12.1 0 18.1 4.8 18.1 14.4 0 12.4-7.5 18.7-22.4 18.7l-3.2-2.1c2.8-5.7 3.6-10.5 2.1-14.4-7.5 5.3-12.8 9.5-16 12.5-3.2 3-3.7 7-1.6 12s1.7 10-1.3 15.2c-3 5.2-4.7 5.4-5.1.8-.4-4.6-1.2-5.4-2.4-2.4-1.2 3-2.3 5.9-3.2 8.5-.9 2.7.4 6.7 4 12 7.5 1.1 15.3-.5 23.5-4.8s11.8-4.8 10.9-1.6c-.9 3.2-11.3 7.1-31.2 11.7 1.8 4.6 7.6 5.6 17.6 2.9 10-2.7 20.4-6 31.2-10.1s20.9-8.6 30.1-13.6c1.1 11.7 5.5 25.4 13.3 41.1-17.4 32.7-26.3 59.8-26.7 81.3-.4 21.5 6.4 40.6 20.3 57.3-14.2 27-17.6 39.7-10.1 38.1 7.5-1.6 18.8-9.2 33.9-22.9 15.1-13.7 25.1-28 30.1-42.9 4.3-16.7 2.5-39.1-5.3-67.2l9.6-1.1c8.2 25.9 11.2 50.1 9.1 72.5 33.8 3.9 72.5.5 116.2-10.1 43.7-10.7 70.4-9.1 80 4.8l3.2-42.7h13.3L423 307.1c21.3 47.6 33.7 65.3 37.1 53.1 3.4-12.3 1.9-25.6-4.5-40-6.4-14.4-.6-32.8 17.3-55.2 18-22.4 26.9-41.9 26.9-58.7 0-16.7-2.3-26.7-6.9-30.1-4.6-3.4-31.3-5.1-80-5.1s-79.5-7.6-92.5-22.9c-13-15.3-34.9-32.7-65.9-52.3-30.9-19.6-49.4-36.3-55.5-50.1-6-13.9-14.4-23.3-25.1-28.3s-21.6-5.9-32.8-2.7c-11.2 3.2-16.1 7.2-14.7 12 1.6 4.9 4.6 7.5 9.3 7.9zm347.6 118.9c14.2-19.2 27.1-31.5 38.7-37.1 11.6-5.5 26.1-3.7 43.7 5.3 17.6 9.1 26.9 21.6 28 37.6 1.1 16-2.6 36.8-10.9 62.4-8.4 25.6-12.5 66.7-12.5 123.2 4.3 19.2 2 31.9-6.9 38.1-8.9 6.2-13.1-12-12.5-54.7.5-42.7 3.4-73.7 8.5-93 5.2-19.4 9.5-37.9 13.1-55.5 3.6-17.6-2.9-31.2-19.5-40.8-16.5-9.6-31.4.2-44.5 29.3 7.5 4.6 10.9 17.2 10.4 37.6-.5 20.4-10.3 42.4-29.3 65.9-19 23.5-26.4 37.9-22.1 43.5 4.3 5.5 7.4 17.3 9.3 35.5s4 36.3 6.1 54.4c2.1 18.1-3.8 26-17.9 23.7-14-2.3-27.6.7-40.8 9.1-13.2 8.4-24.7 9-34.7 1.9-10-7.1-10.1-14.1-.5-21.1 9.6-6.9 22.6-10.8 38.9-11.5-18.5-4.3-26.4-8.4-23.7-12.5 2.7-4.1 12-3.5 28 1.9 16 5.3 23.3 5.4 21.9.3-1.4-5.2-16.7-32.8-45.9-82.9-25.6 21.3-42.3 49.9-50.1 85.8-2.5 16-8 25.1-16.5 27.5-8.5 2.3-17.7 6.8-27.5 13.3-9.8 6.6-16.9 9.2-21.3 8-4.4-1.2 1.7-8.6 18.4-22.1-18.5 2.8-30.2 6.7-35.2 11.5-5 4.8-12.2 4.7-21.6-.3s-8.6-11.6 2.4-20 21.3-13 30.9-13.9c9.6-.9 19.8-1.8 30.7-2.7 10.8-.9 20.4-20.5 28.5-58.9 8.2-38.4 19.7-68.4 34.7-90.1-10.7-1.8-32.3 2.4-65.1 12.5-32.7 10.1-61.9 12.5-87.4 7.2-6 10.7-8.6 18.3-7.7 22.9.9 4.6-3.8 36.1-14.1 94.4 2.5 21.3 1.1 32.3-4.3 33.1-5.3.7-10.8 1.7-16.5 2.9-5.7 1.2-11.7 3.6-18.1 6.9-6.4 3.4-10.8 6-13.3 8s-5.7 2.4-9.6 1.3c-3.9-1.1-1.1-6.6 8.5-16.5-6 1.1-13.2 4.2-21.3 9.3-8.2 5.2-14.8 2.5-20-8-5.2-10.5 4.4-18.2 28.8-23.2s36.3-10.8 36-17.6c7.5-40.2 9.8-68.3 6.9-84.2-38.7 36.3-63 67.3-72.8 93-9.8 25.8-23.7 37.8-41.9 36-18.1-1.8-30.5-1-37.1 2.4-6.6 3.4-11.8 4.9-15.7 4.5-3.9-.4-7.5-2.2-10.7-5.6C3 428.2 1 424.4.3 420.1c-.7-4.3.3-7.8 2.9-10.7 2.7-2.8 6.8-5.1 12.3-6.7 5.5-1.6 11.3-2.5 17.3-2.7 6-.2 6-1.4-.3-3.7-6.2-2.3-8.6-4.7-7.2-7.2 1.4-2.5 5.5-2.5 12.3 0 6.8 2.5 14.4 4.6 22.9 6.4 14.2 2.5 29.1-14.4 44.8-50.7 15.6-36.3 23.6-59.5 24-69.9-10.7-11-16.3-26.8-16.8-47.5-.5-20.6 7.2-49.2 23.2-85.8-2.8-3.9-4.4-11.4-4.8-22.4-22.8 5.7-39.6 10.2-50.7 13.6-11 3.4-18.2 3.5-21.6.3-3.4-3.2-6.7-7.5-9.9-12.8-4.3-10.3-4.9-17.9-1.9-22.7 3-4.8 4.8-10.3 5.3-16.5.5-6.2 3.6-12.4 9.1-18.7 5.5-6.2 11.5-11.8 17.9-16.8-1.8-7.5-1.2-13.8 1.6-18.9S87.6 17 93 13.1c5.3-3.9 14.2-6.2 26.7-6.9 23.5-8.2 43.1-8.5 58.9-1.1S205.9 22.9 213 36c7.1 13.2 25.5 29.1 55.2 47.7 29.7 18.7 52.2 35.9 67.5 51.7 15.2 16.1 64.4 22.1 147.6 18.2z"/></svg>