<svg xmlns="http://www.w3.org/2000/svg" viewBox="0 0 566.1 451.8"><path d="M23.2 179.6c6.2-2.1 13.3-14.1 21.1-36l5-.6c5.4 19.9 12.6 32.5 21.7 37.9 12.8 10.4 23.2 6.6 31.1-11.2 13.7-20.3 10.6-36-9.3-47.2-14.9-9.1-27.7-11.7-38.5-7.8-10.8 3.9-20.1 13.4-28 28.3-7.9 13.2-8.9 25.4-3.1 36.6zm31.7 11.1l1.9 1.2c-3.7 12-5.5 19.9-5.3 23.6.2 3.7.1 8.1-.3 13l-1.9-.6c0-4.1-1.9-7.2-5.6-9.3-5.8-4.1-6.8-8.3-3.1-12.4 4.1-2 8.9-7.2 14.3-15.5zm73.9 22.4c-7.9 4.1-16.8 6.2-26.7 6.2-4.1 14.1-10.4 29-18.6 44.7-9.9 5.4-18.2 6.6-24.9 3.7l-1.2 2.5c-7 1.2-12.6 1.4-16.8.6-4.6 5-9.7 4.8-15.5-.6l-6.8-50.3-16.9-10.5c-2.1-8.7-.6-14.5 4.3-17.4-4.6-12.4-6.4-23.4-5.6-32.9.8-9.5 4.1-19.3 9.9-29.2 16.2-30.2 41-43.3 74.6-39.1 40.6 9.5 73 10.5 97.2 2.8 24.2-7.7 56.4-10.5 96.6-8.4 40.2 2.1 76.5 6.9 109 14.6s72.4 9 119.6 4c14.1-3.3 20-16.4 17.7-39.1-2.3-22.8-23.4-35.5-63.4-38.2s-79 3.5-117.1 18.6C306.3 60.2 269 66.5 232.5 64c-17.8-.4-26-5.2-24.5-14.3 1.4-9.1 10.9-13.3 28.3-12.4 29 5.8 62.9 1.1 101.6-14S413.4.4 448.4 0s60.3 5.5 75.8 17.7S548.8 42 551.5 54c2.7 12 2.4 29.8-.9 53.4 29.8 17.4 16.6 69.2-39.8 155.3-15.7 21.1-24.3 41-25.8 59.6-1.4 18.6-3.6 37.4-6.5 56.2-2.9 18.8-8.5 35.9-16.8 51.3 3.3 14.5-3.5 21.7-20.5 21.7h-57.8c-5.4-.4-6.8-3.1-4.3-8.1 2.5-8.3 8.1-14.3 16.8-18 7.9-.8 19.1 2.1 33.5 8.7 5-11.2 9.1-25.1 12.4-41.6 3.3-16.6 5-30.9 5-42.9s-4.1-21.1-12.4-27.3c-4.6 7-11.3 20.4-20.2 40.1-8.9 19.7-22.9 42.1-41.9 67.4-7.9 11.2-13.8 16.8-17.7 16.8-3.9 0-13.6 1.7-28.9 5h-35.4c-14.5 0-20.9-3.3-19.3-9.9 3.3-7.5 11.4-14.3 24.2-20.5 3.7-.4 16.6 2.1 38.5 7.5 15.3-14.1 26.8-28.1 34.5-41.9 7.7-13.9 16.5-33.4 26.4-58.7 0-24.4-1.9-43.1-5.6-55.9-3.7-12.8 7.9-37.3 34.8-73.3-27.3 0-55 7.2-82.9 21.7-28 14.5-60 25.7-96 33.5-5.8 45.6-11 81.8-15.5 108.7-4.6 26.9-12.4 49.1-23.6 66.5 0 14.9-6.4 22.4-19.3 22.4H130c-4.1-3.3-5.4-6.9-3.7-10.9 1.7-3.9 6-7.8 13-11.5 7.9-.8 20.1.4 36.7 3.7 16.2-29 22.6-54.9 19.3-77.7-1.2-12.8-5.8-22.4-13.7-28.6-5 7-11.8 20.4-20.5 40.1-8.7 19.7-22.8 41.3-42.2 64.9-3.3 9.9-8.9 16.6-16.8 19.9H35.6c-12 .8-16.6-2.7-13.7-10.6 2.1-6.2 9.5-12 22.4-17.4 3.3 0 13 2.9 29.2 8.7 17.4-11.2 30.6-24.3 39.8-39.4s16.7-32.5 22.7-52.2c6-19.7 6.7-38.5 2.2-56.5-4.6-18-7.8-41.7-9.4-71.1zm0-19.2c21.1 1.2 33.5 15 37.3 41.3 3.7 26.3 18.6 53.1 44.7 80.5 5.8-34.4 10.4-62.3 13.7-83.9 38.9-3.3 75.7-12.3 110.3-27 34.6-14.7 62.9-22.1 84.8-22.1 27.7 0 41.6 11.6 41.6 34.8-13.3 36-9.9 62.1 9.9 78.3 0-14.1 10.9-36.1 32.6-66.2 21.7-30 32.8-56.1 33.2-78.3.4-22.2-15.4-30.3-47.5-24.5-32.1 5.8-69.7 3.5-112.8-6.8-43.1-10.4-80.6-15.5-112.4-15.5-31.9 0-59.1 3.3-81.7 9.9-22.6 6.6-54.6 4.3-96-6.8l10.6 4.3c25.3 16.6 30.2 38.7 14.9 66.5-11.6 20.7-26.3 25.5-44.1 14.3-8.7-5.8-15.7-15.7-21.1-29.8-2.9 12.8-10.8 23.4-23.6 31.7l-4.3 8.1c5.8 1.7 9.9 3.9 12.4 6.8s5 16.6 7.5 41c.4 4.1 3.8 5.5 10.3 4 6.4-1.4 12.3-11.5 17.7-30.1.8-5.8 2.5-8.5 5-8.1 2.5.4 3.9 1.1 4.3 2.2.4 1-1 3.4-4.3 7.1-2.5 9.5-5.6 18.4-9.3 26.7 4.1 2.1 7.7 1.4 10.6-1.9 3.3-7.9 9.9-23.8 19.9-47.8 15.5.8 27.5-2.1 35.8-8.7z"/></svg>