<svg xmlns="http://www.w3.org/2000/svg" viewBox="-10 0 1145 893.118"><path d="M19 893q-29 0-29-30 0-16 8.5-28T17 816.5q10-6.5 13-7.5-6-3-6-8 0-10 14.5-14t30.5-4.5q16-.5 20-.5 10 0 19 1.5t19 2.5q10-6 23-25t41-66q16-29 27-58.5t26-61.5q5-26 4-52.5t-5-51.5l-8-36-15-34q-10-12-23-10-36 42-39 45 0 1-6 13.5T133 476q-18 21-33.5 22t-27-5.5Q61 486 56 482v-1q-12 3-21-3-11-10-13-22.5T16 430q-1-7-3.5-15T10 396q0-19 1-29t2.5-18q1.5-8 4.5-21-7-11-9.5-34T6 252q0-38 28-67t66-29q27 0 55 10t45 18q19 10 42 16t37 6q10 0 45-5 26-4 58-8t59-4q64 0 145 13t156 31q18 4 50.5 12.5t70.5 18q38 9.5 71.5 16T987 286q11 0 32-14t38.5-39.5Q1075 207 1075 170q0-55-35.5-84T937 57q-34 0-86 12.5T748 98q-43 13-80 22.5t-58 9.5q-40 0-62.5-10.5T525 97q0-13 18-16.5t38-3.5q43 0 83.5-12T746 40q46-14 98.5-27T933 0q100 0 151 47.5t51 116.5q0 29-10.5 60.5t-26 60Q1083 313 1069 332q3 31-11 71t-36.5 81Q999 525 976 559t-37 53q1 5 1 9.5v6.5q7 17 14.5 38t14 40q6.5 19 9.5 30 5 23 15.5 50t10.5 50q0 18-13.5 30.5T952 879h-62q-5 0-12.5 2.5T862 886q-17 7-27 7-29 0-29-30 0-7 11.5-18.5T840 826q-5-5-5-10 0-10 10.5-13t22.5-3q4 0 8.5.5t12.5.5q4 0 9.5-2t5.5-9q0-3-9.5-26T871 709q-14-32-27-61-11 14-31 40.5T783 734q-10 19-21.5 42T743 815q-13 38-54 57-16 7-28.5 12.5T638 891q-13 1-22-3t-9-13q0-5 1-7-7 0-14 7-5 6-11 12t-15 6q-11 1-27.5-6.5T524 864q0-19 13-31t28-16q14-4 29-5t26-1q15-1 24-3.5t20-15.5l8.5-19 20.5-46.5q20.5-46.5 23.5-54.5t17.5-44q5-13 15.5-35t22-46q11.5-24 21.5-42-3-8-12.5-8.5T763 496q-15 1-42.5 6T662 514q-31 7-57 12l-20 4q-16 4-53 7t-68 5l5 31q-6 22-12 48t-11 49.5q-5 23.5-6 34.5l-5.5 38.5L430 782q-3 25-9.5 53T395 872q-16 7-28 12.5t-23 6.5q-13 1-21.5-3t-8.5-13v-7q-6 0-14 7-5 6-10.5 11.5T274 893q-13 1-28-6.5T231 864q0-19 12-31t29-16q14-4 28.5-5.5t26.5-.5q16 0 23.5-6.5T358 779l5-144q-3-3-7-11-17 16-36 34t-29 29q-15 15-35 43t-37.5 58Q201 818 192 838q-6 16-18.5 28.5T136 879H73q-5 0-12.5 2.5T46 886q-17 7-27 7zm0-20q6 0 21-5 8-3 16.5-5.5T73 859h63q17 0 25-8t13-19q9-21 27.5-52.5t39-61Q261 689 277 673q12-12 32-31t38-36q18-17 25-23 21-20 33.5-54.5t18-72.5q5.5-38 5.5-69h19q2 77-24 142 19-2 48.5-4.5t59-6Q561 515 581 511l20-5q27-5 59-12.5t60.5-12.5q28.5-5 45.5-5t34 3q17 3 33 16 2-21 4.5-44t6.5-38l20 3q-7 35-10.5 66t-3.5 63q0 20 2 44.5t5 41.5q8 16 19.5 41.5T899 724q11 26 18.5 45t7.5 23q0 14-10 20t-26 6q-6 0-14-2t-18-2q-4 0-4 3.5t3 4.5q13 0 12.5 4.5T862 835q-12 7-24.5 15.5T825 863q0 10 10 10 6 0 21-5 8-3 16.5-5.5T889 859h63q32 0 32-23 0-20-9.5-45.5T960 741q-3-10-9.5-29t-15-41q-8.5-22-15.5-40-1-8 1-20t9-21q23-35 51.5-79.5t49-92.5q20.5-48 19.5-93 14-18 29-45t25.5-57q10.5-30 10.5-59 0-61-45.5-103T933 19q-35 0-84.5 12.5T752 59q-43 14-84 25.5T581 96h-24.5L545 97q0 4 17 8.5t48 4.5q19 0 55-9.5T742 79q51-15 105.5-28.5T937 37q76 0 117 34t41 99q0 32-12.5 57t-31 42.5Q1033 287 1015 296t-28 9q-28 0-69.5-9T830 275q-46-12-88-22-74-18-155.5-31T441 209q-25 0-56.5 3.5T327 220q-16 2-28.5 4t-19.5 2q-13 0-29-4t-33-11v1q-2-1-4.5-2t-5.5-3l-9-4q-17-8-45-17.5t-53-9.5q-30 0-49.5 22.5T28 254q13-11 26-12.5t23 1.5q4 2 3 8.5t-5 6.5q-8 1-22.5 4.5T24 286q1 13 4.5 23t7.5 15q-5 22-6.5 40.5T29 395q1 8 2.5 15t3.5 14q3 10 3.5 20.5T48 462q2 3 13-1.5T93 431l9 6q-4 4-11 13.5T75 471q7 5 18.5 6.5T119 463q8-9 13.5-19t7.5-16q4-5 15-18.5t22.5-25.5q11.5-12 17.5-13 11 0 26 5t23 27q7 16 11 32.5t7 31.5q3 13 5 35.5t1.5 44.5q-.5 22-5.5 33-13 31-24.5 61T208 705q-29 49-44.5 71T132 806q-17-5-39.5-6T57 801q-8 1-8.5 5t4.5 4l9 1q8 1 7.5 5t-8.5 5q-8 0-20 5t-22 14q-10 9-10 23 0 10 10 10zm150-575q-5 5-11 2t-9-10q-2-7 2.5-16.5T161 256q4-7-1-19t-15-20q-3-3-10-3.5t-12 5.5q-6 7-4.5 20.5t.5 16.5l-14-12q-4-7-4-19t9-23q11-11 24.5-9t22.5 10q13 10 19.5 31.5T169 273q0 7 2.5 13.5T169 298zM59 317q-13-10 2-25 5-7 16.5-10t20.5-1q1 10-2.5 16.5T87 310q-4 5-13.5 8.5T59 317zm504 556q5 0 9-3.5t7-7.5q7-8 14.5-10.5T614 849q5 0 18-.5t16 .5q-4 5-10.5 9.5T632 868q1 5 10.5 2.5t21-8Q675 857 682 853q12-7 22-16t20-29q7-15 19-39t23-44q8-14 21-32.5t26.5-36.5l22.5-30q-3-18-4.5-40.5T830 545v-12.5l1-12.5q-4-5-8-8t-10-7q0 1-6.5 14.5t-16.5 34q-10 20.5-20 42T753 635q-6 15-18.5 42.5t-26.5 57q-14 29.5-24 51T672 810q-8 15-21.5 17t-29.5 3q-12 1-26 2t-26 3q-9 2-17.5 12.5T544 863q2 10 19 10zm-293 0q5 0 8.5-3.5t6.5-7.5q8-8 15-10.5t20-2.5q5 0 18-.5t17 .5q-4 5-11 9.5t-6 9.5q1 5 10 3t20-7q11-5 17-9 11-7 17.5-29.5T410 786q1-15 4.5-42t5.5-42q1-9 6-30.5t11-48q6-26.5 12-49.5-1-3-2.5-13t-3.5-18q-9 1-15.5 1H419q-2 9-12.5 27T383 599l-13 11 12 19-4 148q-1 25-15 39t-36 14q-26 0-51 5-13 3-20 13t-6 15q2 10 20 10z" fill="currentColor"/></svg>