<svg xmlns="http://www.w3.org/2000/svg" viewBox="-10 0 1367 655"><path d="M-10 655v-56l49-27h157l147-21q-2-12-7-33.5T320 481q-15-21-35-38t-31-17q-9 0-25.5 6.5T200 445h-29l-66-57q1-8 10-31t26-53q17-30 40-58.5t51-47q28-18.5 59-18.5 2 0 3 .5t2 .5q22-53 66-88.5T466 41q59-17 110-21t89-4h30l27 1q12 1 23.5 1.5t24.5.5q22 0 52-4t76-15q-21 42-78 66 22-2 43.5-3.5T903 59q-18 23-53.5 51.5t-84.5 53Q716 188 657 199q-40 7-67.5 11.5t-50.5 8q-23 3.5-49 6.5l-38 4q-7 1-16 3t-19 5q11 11 19.5 23t13.5 19q11 19 22.5 40t34 36q22.5 15 67.5 15 39 1 100-14t126-33q65-17 125-31.5t98-14.5q39 0 73 16.5t61 41q27 24.5 45 51t26 47.5q7 17 12.5 39t9.5 40q4 18 5 22 2 9 7 19t13 10q8 0 15-11t9-15q4-7 12-18.5t19-11.5q13 0 20 9.5t7 31.5q0 16-9 40t-30.5 43q-21.5 19-59.5 19-13 0-30.5-7t-29.5-14l-9 9-8 8H962l-63-7h-24q-4 2-11.5 7l-13.5 9h-79l1-44 3-9q-23 13-58.5 27.5T651 644q-34 0-68.5-11.5T534 612v13l-45 21H140l-40-9H86l-16 18zm348-468q18-15 46.5-35t66-37Q488 98 533 91q67-11 117.5-15t95.5-6q41-7 67-19t41-24q-26 5-45.5 8T770 38q-13 0-25-.5T721 36q-13-1-27-1h-29q-38 0-87.5 4.5T471 59q-54 14-94 45.5T316 182q6 2 11.5 3t10.5 2zM14 635h14l32-28 6 8-22 20h18q2-3 6.5-8t8.5-10h27l40 9h340l30-14q1-20-1-41.5t-4-27.5h20q2 9 3 24.5t2 21.5q11 9 32 17t44 13q23 5 41 5 24 0 49-8t47.5-19q22.5-11 36.5-20 23-14 53.5-32t65.5-33.5q35-15.5 74-19.5-11-15-18-30t-7-28q0-20 6-47l19 3q-6 28-6 44t18 39.5q18 23.5 43 47.5t48.5 44q23.5 20 35.5 29H797l-6 16v17l23-20 6 8-23 20h15l31-28 7 8-23 20h15q3-2 11.5-6.5T869 620h31l64 6h209l13-12q-2-19-20.5-44t-40.5-52q-10-10-17-20l15-12q4 5 8 9.5t8 9.5q24 29 43.5 56t23.5 50q9 5 24.5 12t27.5 7q31 0 48-15.5t24-35q7-19.5 7-31.5 0-22-7-22-4 0-9 9.5t-7 14.5q-4 8-14.5 20.5T1275 583q-16 0-26-16t-14-30q-1-4-4.5-21.5t-9-38.5q-5.5-21-11.5-38-7-18-23.5-42t-41-47.5Q1121 326 1090 311t-67-15q-37 0-96 14.5T805 342q-66 17-129 32.5T574 390q-38 0-61.5-10t-37-25.5Q462 339 452.5 322T433 290q-5-8-14-21t-23-27q-12 4-23 8t-19 8l-9-18q47-22 104-30l39-5q32-4 72.5-9.5T653 180q39-8 78-24.5t71.5-36Q835 100 856 84q-25 2-48.5 3T759 89q-45 2-99.5 6.5T536 110q-59 11-113 41.5T326 225l-14-13 9-9q-14-3-30-3-33 0-62 23t-51 55q-22 32-35.5 61T126 380v1l11-12 14 14-11 11 18 16 33-35 14 14-33 33q1 2 2.5 3t2.5 2l17-2q5-1 25-10t35-9q15 0 40 20t42 43q13 18 20 48t9 51l-166 24-155-1-35 20v15l21-19 7 8zm354-414l-8-10q38-29 68.5-43t64-19q33.5-5 81.5-8 53-4 103.5-13.5T777 99l5 11q-49 22-100 34.5T575 160q-59 4-106.5 17T368 221zm-106 76q-6 4-16 4t-13-7q-8-14 10-23 8-5 20-3t19 6q-3 10-8 14.5t-12 8.5zm562 278h235q-15-12-33.5-29T991 510q-50 4-94 25t-73 40z" fill="currentColor"/></svg>