<svg xmlns="http://www.w3.org/2000/svg" viewBox="0 0 577 357.2"><path d="M244 309.8c20.2 18.7 29.2 31.9 26.8 39.7H89.5c-20.6 5.8-41.6 6.2-63 1.2.4-14 7-23.5 19.8-28.6 12.8-5.1 59.7-5.1 140.5 0-54-31.9-85.1-67.4-93.3-106.7-25.7-3.1-43.9-.2-54.8 8.7-15.2 1.2-26.5-.5-34.1-5-7.6-4.5-5.9-21.3 5-50.4-3.5-16.7-2.5-29.7 2.9-39s20-21.8 43.7-37.3C90.4 41.5 139.7 16.9 204 18.6c64.3 1.7 123.5-4.4 177.6-18.4 24.1-1.6 30.9 5.9 20.4 22.4s-29.5 30-57.1 40.5c29.5.8 58.5 3.5 86.9 8.2-5.4 18.7-25 28.5-58.6 29.4-33.6 1-69.5 11.3-107.6 30.9-38.1 19.6-82 19.7-131.8.3 40.8 32.3 71.1 53 91 62.1 19.8 9.1 39.8 11.5 60.1 7 20.2-4.5 54.2-6.3 102-5.5 47.8.8 86.2 13.1 117.2 33.8 39 26 41.7 65.7 41.7 65.7 1.2-30.5-17-42.6 2.1-53.6 26.1-15.1 30.2 23.5 28.9 54.7-.7 16.6.8 18.2-25.5 48.7-11.7 13.6-36 8.7-57.7 6.1-21.8-2.5-55-1.8-99.7 2-18.7 5.4-44.1 5.6-76.4.6 8.9-21 27.8-30.1 56.6-27.4 28.8 2.7 51.3.8 67.6-5.8l-31.5-14c-65.3 14.8-120.7 16-166.2 3.5zM108.8 101.7c11.3 8.2 33.2 15.6 65.9 22.4s59.9 2.9 81.6-11.7c21.8-14.6 48.1-22.4 79-23.3 30.9-1 51.5-3.3 61.8-7 10.3-3.7-1.8-5-36.4-3.8-34.6 1.2-70.9-2.5-109-11.1-38.1-8.6-69.3-8.7-93.6-.6-24.4 8.2-40.8 19.9-49.3 35.1zm-24-16.4c54.4-37.7 108.5-50.2 162.1-37.6 53.6 12.6 98.5 2.8 134.7-29.4-47.8 11.7-92 17-132.7 16-40.6-1-69.9-.2-87.8 2.3-17.7 2.6-43.2 18.8-76.3 48.7zM37 202.5c12.4-8.2 33.8-10.9 64.1-8.2 6.6-8.6 10.6-19.6 12-33.2 1.4-13.6-4-27.1-16-40.5s-27.1-13.8-45.2-1.2c-18.1 12.6-26.2 23.4-24.5 32.4 1.7 8.9-.5 24.9-6.7 47.8l16.3 2.9zm99.2-41.9c-3.1-5.8-4.7-3-4.7 8.5s-3 21.9-9 31.2-3.6 23.3 7.3 42 28.3 35.7 52.2 51c23.9 15.4 37 17.9 39.4 7.6 2.3-10.3 17.4-12.8 45.2-7.6 27.8 5.2 54.9 7 81.3 5.2 26.4-1.7 41.5-5.2 45.2-10.2 3.7-5.1 2.3-17.6-4.1-37.6-6.4-20-19.5-31.4-39.4-34.1-19.8-2.7-46.1-.8-78.7 5.8-32.7 6.6-77.6-14-134.7-61.8zM407.3 220c0 20.2 3.8 37.4 11.4 51.6 7.6 14.2 19.6 27.6 36.2 40.2 16.5 12.6 31.9 17.3 46.1 14 14.2-3.3 20.8-12.1 19.8-26.2-1-14.2-14.3-32.7-39.9-55.4-25.8-22.7-50.3-30.8-73.6-24.2zM40.7 168.6c-9.4-15.5-3.7-21.8 8-24.9 11.7-3.1 17.6 1.5 18.7 13.7 1.1 13-14.8 20.3-26.7 11.2zM0 0"/></svg>