<svg xmlns="http://www.w3.org/2000/svg" viewBox="-10 0 1111 534"><path d="M-10 534v-53l39-21h128l119-17q-1-10-5-25.5T257 389q-12-16-28.5-30T203 345q-7 0-20 5t-23 10l-28 1-53-50q1-6 9-25t22-43q14-24 33.5-47.5T186 157q23-15 48-15h4q17-43 53-71t85-41q48-13 89-16.5t72-3.5q20 0 40.5 1t43.5 1q19 0 43-1.5T725 0q-8 17-24 30.5T663 54q17-1 34.5-3t32.5-3q-14 20-42 44t-67 44q-39 20-87 29-48 8-75.5 12t-59.5 8q-28 4-38 6t-17 3q10 10 14.5 17.5T367 226q8 15 18 31.5t28 27.5q18 11 51 11 31 0 80-12t102-26q53-14 101.5-26t79.5-12q34 0 62 14t50 34.5q22 20.5 37 42.5t21 39q5 14 8.5 31.5t6 31q2.5 13.5 3.5 16.5 2 7 6 15t10 8q7 0 12.5-9t6.5-12q3-6 9.5-15.5t15.5-9.5q10 0 18 9.5t8 28.5q0 13-8.5 33t-27 36.5Q1047 530 1017 530q-10 0-24.5-6T968 513q-3 3-7 7.5t-7 6.5H777l-51-5h-19q-3 1-9.5 5t-11.5 7l-63-4v-31l3-8q-19 10-47.5 22T525 525q-27 0-55-11t-40-19v11l-35 21H111l-32-7H67l-12 14zm282-388q22-19 62.5-42.5T430 71q54-8 95-11t77-5q34-5 54.5-14T690 22q-22 4-37.5 7T621 32q-16 0-35.5-1.5T537 29q-30 0-71 3.5T379 48q-44 12-74 35t-47 61q5 1 7 1t7 1zM9 514h12l26-22 5 6-19 16h15q4-6 12-14h22l32 7h272l25-12q0-16-1.5-33t-2.5-22h19q1 7 2.5 18.5T430 475q9 8 26 15t36 11.5q19 4.5 33 4.5 19 0 39.5-8t38.5-17.5q18-9.5 30-16.5 28-17 67.5-40.5T787 394q-18-24-18-43 0-9 1.5-17.5T774 314l20 2q-3 11-4 20t-1 15q0 14 14 32.5t34.5 38.5q20.5 20 39.5 35.5t29 23.5H644l-5 13v14l18-16 5 6-18 16h11l26-22 5 6-18 16h12q8-4 22-12h26l51 5h169l11-10q-2-15-17-35.5T909 420l-14-17 13-9 13 15q20 24 35.5 45.5T975 495q8 4 20 9.5t22 5.5q24 0 38-12.5t20-28q6-15.5 6-25.5 0-18-6-18-3 0-6.5 7.5T1063 445q-3 6-12 16.5t-20 10.5q-20 0-26.5-13t-9.5-24q0-4-2.5-18t-6-31q-3.5-17-8.5-30-7-20-28.5-47.5t-53-48Q865 240 827 240q-30 0-78 11.5T650 277q-53 14-104 26.5T463 316q-42-1-62.5-14.5t-31-32Q359 251 349 235q-4-7-9.5-16T323 199q-10 3-18.5 6.5T289 212l-11-17q19-9 44-15.5t72-12.5q25-3 57.5-8t75.5-13q54-11 98.5-35T691 68q-20 1-39 3t-39 3q-37 1-81.5 3.5T432 90q-48 9-91.5 34T262 183l-11-11 7-8q-5-1-11.5-1.5T234 162q-27 0-50 18.5T143 225q-18 26-29 49.5T100 308l9-9 11 11-9 9 15 13 27-29 11 12-26 27q3 3 4 3l13-1q4-1 20.5-8t27.5-7q13 0 35 16t36 35q11 14 16 38.5t7 41.5l-138 19H34L5 495v12l18-15 5 6zm287-335l-6-8q31-23 55-34.5t51.5-16Q424 116 463 114q42-3 83-10.5T628 80l3 9q-39 17-80.5 27.5T464 130q-48 2-86.5 13T296 179zm-86 62q-5 3-13 2.5t-10-5.5q-7-10 8-19 7-4 16-2.5t16 5.5q-3 8-7.5 12t-9.5 7zm455 221h191q-12-11-27.5-24.5T799 409q-40 4-75 20.5T665 462z" fill="currentColor"/></svg>