<svg xmlns="http://www.w3.org/2000/svg" viewBox="-10 0 775 1209"><path d="M-10 1209v-46l124-28 37-28v-19q-7-25-17.5-64T115 953l-6-24q-9-39-19-89.5T80 727v-13l-34 12-1-43 90-47h37l160 31q-8-32-15.5-69.5T309 524q0-14 3.5-31.5T319 464l57-158v-21q-5-10-18-18.5t-38-8.5q-16 0-35.5-1.5T252 253q-13-2-30-20t-21-36q-4-32 8-50t27-25q9-5 25-11t27-11q0-2 2-4 1-2 3.5-6t5.5-7q5-3 14-6.5t16-5.5q3-12 10.5-28t20-28Q372 3 391 3q12 0 19 .5T422 5q4-2 13-3.5T465 0q36 0 69.5 15t55 43.5Q611 87 611 129q0 34-3 65t-8 57q-3 19-5 36t-2 28q0 26 8.5 58.5T620 441q11 38 21 75.5t10 68.5v141q0 41 7 87.5t18 89q11 42.5 22 72.5-1-16-5.5-34.5T680 881q-6-28-13-66.5t-7-74.5q0-25 8.5-54t21.5-55q13-26 27-42t25-16q23 0 23 23 0 13-7.5 29T744 651q-10 20-17.5 46.5T719 767q0 4 4 28.5t9 58.5q5 35 11 73t10 69q4 31 4 44 0 67-24.5 104t-64 51q-39.5 14-85.5 14-34 0-63-13.5t-51-33q-22-19.5-33-38.5L240 858q3 27 6 65t3 66q0 28-3 67t-6 65q1 3 5 9.5t6 11.5v67h-55l-16-16h-10l-34 16zm19-19h122l34-15h22l17 15h28v-44l-12-22q3-25 6.5-64t3.5-71q0-21-2.5-51.5T222 875q-3-32-6-56l16-6 220 300q11 16 30 34t45 30.5q26 12.5 56 12.5 40 0 75.5-12.5t57.5-45q22-32.5 22-92.5 0-12-4-42.5T724 929q-6-38-12-72-5-31-9-57.5t-4-32.5q0-46 8.5-75t19.5-50q4-9 11-23.5t7-22.5q0-4-3-4-7 0-17 14.5t-20.5 37Q694 666 687 691.5t-7 48.5q-1 33 6 71t14 66q13 52 18.5 117T705 1116l-20-6q9-19 11.5-45t.5-43l-5-23q-15-34-29-80t-23-96q-9-50-9-97V585q0-28-9-64.5T602 447q-11-37-20-71t-9-61q0-14 2.5-31t5.5-36q4-26 7.5-56.5T592 129q0-36-18.5-60T526 32.5Q497 20 465 20q-10 0-18 1.5T434 24q1 2 7.5 14.5T447 68h-17q1-17-9-31.5T391 22q-17 0-26.5 13.5T351 65q-4 16-7 25-8 0-18 2t-14 6q-3 2-5 7-2 4-4 7.5t-8 6.5q-10 4-25.5 10T245 140q-10 5-18 15t-7 29q5 1 9 1h8q67 0 104-15l7 19q-38 16-111 16h-13q5 10 14 19t16 9q12 2 31 4t35 2q35 0 53 14t22 31v25l-58 161q0 1-4.5 19t-4.5 35q0 37 8.5 77t16.5 71l84 16q-5-37-5-93 0-35 3.5-69.5T446 470l19 7q-8 20-10.5 52t-2.5 66q0 34 3 67.5t7 50.5l-293-57h-29l-78 36v9l88-30 18 5 6 27-30 12 5 11 47-19h24q33 13 72 26.5t77 25.5q38 12 69.5 19.5T487 786q26 0 36-22.5t10-75.5V515h20v173q-1 62-15 90t-51 28q-18 0-49.5-7.5t-70-19.5Q329 767 290 753t-72-27h-20l-53 19-12-3-11-27 4-9 29-11-2-6-53 18v20q0 59 9.5 109.5T128 924l6 24q7 31 18 72t19 66l-1 31-48 35-113 26zM503 171q-9 0-17.5-3.5T473 160l12-15q2 2 6.5 4.5t9.5 2.5q10 0 23-15t13-35q0-16-6.5-31T520 54q-7 1-16 11.5T488 86l-17-11q8-14 22-27.5T519 34q16 0 27 21.5t11 46.5q0 29-19 49t-35 20zM402 94q-12 0-24-5t-16-7q3-7 10.5-14t16.5-7q9 0 20 8.5T427 86q-4 2-11 5t-14 3z" fill="currentColor"/></svg>