<svg xmlns="http://www.w3.org/2000/svg" viewBox="-10 0 1216 1204"><path d="M598 1204q-107 0-204-27.5T216.5 1103Q136 1057 78 1001.5T-10 891h63v-18l93-21 27-20v-14q-5-18-13.5-46.5T146 720q-11-42-18.5-82t-7.5-85v-10l-25 8-1-32 72-34h28l113 21q-6-25-11.5-51.5T290 401q0-11 2.5-24t4.5-21l42-117v-16q-2-7-12-13.5t-28-6.5q-12 0-27-1t-24-2q-10-2-22.5-15T210 158q-2-23 6.5-36.5T236 102q7-3 18.5-8t19.5-8l4-6 5-6q4-3 11-5.5t11-3.5q2-9 9-22t17.5-23.5Q342 9 356 9q9 0 14.5.5T379 11q2-1 9.5-2.5T411 7q27 0 52 12.5T504 54q16 22 16 53 0 25-2.5 49t-6.5 43q-2 13-3.5 25.5T506 246q0 19 6.5 43t13.5 50q8 29 15.5 57t7.5 51v104q0 47 11.5 99t23.5 87q-1-12-3.5-26t-9.5-45q-4-21-9.5-49.5T556 562q0-26 10-55t24.5-50q14.5-21 28.5-21 12 0 18.5 5.5T644 454q0 10-6 22t-9 19q-8 15-14 32.5t-6 54.5q0 5 3 22t7 42q4 26 8.5 54t7.5 51q3 23 3 33 0 42-14.5 68T586 891h173V0l155 135L1068 0v196q11-19 28-30t41-11q18 0 37 11.5t19 47.5q0 34-23 61.5t-62 40.5q7 22 17 45t15 33l-43 20q-8-14-15.5-31t-13.5-33v541h138q-30 55-88 110.5T979.5 1103q-80.5 46-177.5 73.5T598 1204zM72 891h102l14-6h17l6 6h22v-27l-9-17q2-19 4.5-48t2.5-52q0-24-3-62t-6-65l20-4 164 222q10 16 34.5 34t58.5 19q30 0 57.5-8t45-31.5Q619 828 619 784q0-8-3-30.5t-7.5-51Q604 674 600 648q-4-22-7-42t-3-24q0-34 6.5-55.5T610 489q4-7 9-17.5t5-17.5q0-2-2-2-7 0-18 18t-19.5 44q-8.5 26-8.5 48-1 24 4 52t10 49q10 39 11.5 87.5T590 841l-19-4q7-14 8.5-33.5t.5-32.5l-5-17q-17-38-31-94t-14-109V447q0-22-7-49t-16-54q-8-27-14.5-52.5T486 246q0-10 2-22.5t4-26.5q3-20 6-43t3-47q0-39-26-59.5T411 27q-8 0-11.5.5T392 30l5.5 11 3.5 22h-17q1-13-6.5-23.5T356 29q-13 0-20 9.5T326 60q-3 12-5 18-6 0-13.5 2T297 85q-4 3-5.5 7.5T285 100q-8 3-19.5 7.5T247 116q-8 3-13.5 9.5T229 147h13q24 0 44-3.5t33-7.5l5 19q-13 5-35 8t-47 3h-10q4 8 10.5 13t11.5 6q9 1 23.5 2.5T304 189q25 0 38.5 10.5T359 223v19l-43 119q0 1-3 14.5t-3 25.5q0 27 6.5 57t11.5 53l60 12q-1-12-2.5-30.5T384 454q0-26 2.5-51.5T395 361l18 5q-5 15-7.5 39t-2.5 49q0 26 2.5 50.5T412 542l-221-43h-21l-59 28 1 6 65-22 13 3 5 20-23 9 4 8 36-14h18q33 13 72 26.5t73.5 23Q410 596 427 596q20 0 26-17t6-56V395h20v128q0 92-52 92-18 0-52.5-9.5t-74-23.5Q261 568 228 556h-15l-40 14-9-2-8-25 3-7 22-8-2-4-39 13v16q0 43 7.5 83t17.5 81q5 23 13.5 53t13.5 49v23l-36 26-84 19zm370-749q-7 0-14-2t-11-4l9-16q4 4 12 4 7 0 16.5-10.5T464 87q0-11-4.5-20T452 57q-5 1-12 8.5T428 80l-12-12q6-9 16-19t19-10q11 0 21 15t10 33q0 22-13 38.5T442 142zm336 137h271V43L914 159 778 43zM364 82q-8 0-17.5-4T335 73q2-5 7.5-10.5T355 57q7 0 14.5 6.5T382 76q-6 6-18 6zm744 310l9-4q-8-17-17-40t-15-45q-6-22-6-37 0-30 13.5-57t40.5-27q16 0 24.5 10.5t8.5 22.5q0 17-16.5 40t-50.5 37l3 10q35-14 54-38.5t19-49.5q0-26-13-34t-25-8q-34 0-51.5 27.5T1068 260q0 34 12.5 67t27.5 65zm-14-115q26-11 40-30t14-32q0-15-15-15-19 0-29.5 21.5T1093 266q0 2 .5 5.5t.5 5.5zm-316 31h271v-9H778zm0 583h271V328H778zm-526 0h182q-16-11-28-23.5T389 847L244 649q2 20 4.5 48.5T251 747q0 21-2.5 50t-4.5 48q1 2 3.5 6.5t4.5 8.5zm346 294q95 0 184-24.5t165.5-64.5q76.5-40 133-88.5T1167 910H28q30 49 87 97.5t133.5 88.5q76.5 40 165.5 64.5t184 24.5z" fill="currentColor"/></svg>