<svg xmlns="http://www.w3.org/2000/svg" viewBox="-10 0 1159 818"><path d="M209 818l-23-12 24-49 8-5 52-80 35-117q-21-16-35-35t-24-40l-48-108-145 19-32-25-31-49v-12l100-97q-32-10-51-42T20 98q0-14 10-38.5T63 11l14 5q-4 22-4.5 31.5T72 68q0 64 69 95 13-10 33-10 11 0 24 5 27-14 40.5-32t18-46.5Q261 51 261 5l13-5q13 16 24.5 39T310 87q0 22-7.5 45.5T278 175l23-7 5 8-8 27q85 18 141.5 30.5t96.5 19q40 6.5 77 6.5 21 0 57.5-4.5t78-10q41.5-5.5 79.5-10t62-4.5q75 0 117 12.5t60 34.5q18 22 23 51l29 176q8 21 19 42t11 57q0 20-7 42l-14 1q-22-12-32-34.5t-10-44.5q0-11 2.5-23.5t6.5-35.5l-11-77-20 79 9 67-20 210-17-2-12 28-53 5-23-12 24-49 8-5 8-166-72-52-27 8-28 76-96 169-8-2-11 28-54 5-22-12 23-49 9-5 51-80 30-95-55 17-9-15 23-8-236-11-62 227-9-2-12 28-53 5-23-12 24-49 8-5 30-156q-7-1-13-2.5t-12-3.5l-6 28-97 169-7-2-12 28zm829-52l16-191-10-65 33-124-8-52q-4-22-18.5-41.5t-52-32Q961 248 890 248q-23 0-61 4.5T749 263q-42 6-78.5 10.5T614 278q-41 0-88-7.5T434 253q-45-10-82-19t-59-11l-8 25-51 9-6-17 41-9 12-42-68 33-8-15q34-17 59.5-45.5T290 86q0-7-4-19.5T280 48q0 54-24.5 88T191 183l-7-12q-22 0-35 8t-29 23L9 309l24 40 54-12 9 14-54 13 16 8 146-19 51-42 14 12-50 43 44 101q20 47 57 72.5t86 33.5l-37-50q-23-31-32-62.5t-9-72.5h19q0 40 8 68t31 60l45 62-32 178 33 9 63-233-16-50 19-8 16 55-3 13 270 14 121-37-65-103 19-10 68 108 84 61-9 181zM106 193l19-18q-39-19-56.5-49T51 55q-8 16-9.5 24T40 98q0 29 17.5 58t48.5 37zm19 68q-9 0-15-6.5t-6-14.5q0-8 6-14.5t15-6.5q8 0 14.5 6.5T146 240q0 8-6.5 14.5T125 261zm-84 72l-17-28 29-7 8 17zm713 432l92-156 18-58-56 18-34 107-53 80zm-483 0l91-156 3-24q-23-7-44-20l-31 111-53 80zm428 31h34l5-16-29-7zm-322 0h33l6-16-29-7zm-162 0h34l5-16-28-7zm762 0h34l5-16-29-7z" fill="currentColor"/></svg>