<svg xmlns="http://www.w3.org/2000/svg" viewBox="0 0 594.8 586.5"><path d="M79.6 334l.6-.6c5.2-12.2 15.8-16.5 31.7-12.8 5.6 1.9 8.2 3.7 7.8 5.6v.6c-1.5 6.3-11.5 11.3-30 15-6-1.5-9.4-4.1-10.1-7.8zm1.1-140.2c-4.5 17.4-2.3 33.2 6.4 47.3 8.7 14.1 21.4 23.2 38.1 27.3 17.1 3.7 32.5.7 46.2-8.9 13.7-9.6 22.4-22.1 26.1-37.3 2.6-15.2.6-29.9-6.1-44.2-6.7-14.3-19.1-23.6-37.3-28.1-18.9-4.5-35-2-48.1 7.2-13.1 9.2-21.6 21.5-25.3 36.7zm81.2-55.1c18.5 4.5 30.6 12.4 36.2 23.9L207 43.5c11.1 2.6 17.4.6 18.9-6.1 1.5-6.3-2.8-10.8-12.8-13.4-5.6-1.1-10.4-.2-14.5 2.8s-8.3 7.6-12.8 13.9l-23.9 98zm-10.5-2.8l23.9-97.4c-.7-7.8-2.5-14.1-5.3-18.9-2.8-4.8-7.9-8-15.3-9.5-6.7-1.9-10.8.4-12.2 6.7-1.5 6.7 3.2 11.3 13.9 13.9l-49.5 109.6c13.3-7 28.1-8.5 44.5-4.4zm329.3 247.6l-95.7-118-4.5 3.9 79.6 131.9c11.9-.8 18.8-6.7 20.6-17.8zm-311.5-31.7l-10.6-8.3c26-11.1 41.9-23.4 47.8-36.7-19.7 4.8-29.9 8.9-30.6 12.2-8.9 11.9-20.8 17.4-35.6 16.7 9.3-4.8 14.7-10.6 16.1-17.2 1.1-5.2-3.3-10.6-13.4-16.1-26-5.6-40.8-5.9-44.5-1.1-6.3 1.5-18.7 11.7-37.3 30.6l-35 30.6c-3.3 8.2-.7 15.2 7.8 21.1 30.4-5.9 50.6-7.8 60.6-5.6 16.3 3.7 31.2 14.7 44.5 32.8 21.1-9.3 41.4-21.7 60.6-37.3l-12.6-24-17.8 2.3zm406.1 213.6c0-28.6-9.8-53.6-29.5-75.1-21.9-20-55.4-29.7-100.7-28.9-54.9-4.1-99.7-12.9-134.4-26.4-34.7-13.5-69.3-29.6-103.8-48.1-17.8 13.7-38.6 27.1-62.3 40.1 13 37.5 23.9 63.5 32.8 78.2 8.9 14.7 17.6 24.6 26.1 29.8-.7 13-10.2 20.5-28.4 22.5s-38.6 1.8-61.2-.8c-13.4 0-18.7 3-16.1 8.9h477.5zm-528.5-133c2.2 6.7 4.6 11.3 7.2 13.9l3.3-2.8c-1.1-3.7-4.6-7.4-10.5-11.1zM20.1 512l7.8-1.1 7.8-11.7-13.4 5-2.2 7.8zm35-27.3c7.8 8.5 18.2 9.1 31.2 1.7 11.9-9.6 13.5-19.8 5-30.6-8.2-10.4-18.4-11.1-30.6-2.2-10.4 10.7-12.3 21.1-5.6 31.1zm48.4 20.6c-2.2-6.7-5-11.1-8.3-13.4l-3.3 2.8c1.8 3 5.7 6.5 11.6 10.6zm22.3-70.1l-2.2 1.1-6.1 5c4.1 4.5 5.6 8.9 4.5 13.4-5.2-.4-8.9-3.2-11.1-8.3l-9.5 7.2c4.8 11.5 4.8 22.3 0 32.3 4.8 1.5 8.2 10.4 10 26.7-17.8-3.7-26.5-8.2-26.1-13.4-12.6 4.5-23.9 3-33.9-4.5-6.7 4.8-11.1 10-13.4 15.6v13.9l-12.8-5.6c-4.1.7-10 3.3-17.8 7.8l-4.5-6.1c6.3-6.3 10.2-11.3 11.7-15l-2.2-13.9 13.4 3.3c5.9-.7 12.1-3.7 18.4-8.9-4.5-11.5-3.2-23 3.9-34.5-5.2-.7-7.4-10.2-6.7-28.4 15.2 5.6 23 10.9 23.4 16.1 11.1-2.2 21.7.4 31.7 7.8l8.9-7.2c-4.5-3.3-6.3-7.6-5.6-12.8 4.8 0 8.9 2.6 12.2 7.8l6.7-5.6 3.3-3.9c-8.2-13-19.8-21.3-35-25-27.8 2.2-48.6 3.7-62.3 4.5-14.1-9.6-20-19.1-17.8-28.4-9.6-10.4-8.9-18.4 2.2-23.9 11.1-5.6 21.8-14.9 32-28.1 10.2-13.2 20.7-24.8 31.4-34.8-18.2-20-28.8-40.1-32-60.1-3.2-20-11.2-38.4-24.2-55.1-2.6-10.4 1.1-12.4 11.1-6.1 11.1 10.4 18.6 21 22.5 31.7 3.9 10.8 12.3 27.4 25.3 50.1-9.3-18.2-11.5-37.6-6.7-58.4 3.7-15.9 10.9-28.9 21.7-38.9l53.4-117.4c-10.4-2.2-14.1-9.1-11.1-20.6 3-12.6 12.2-17.1 27.8-13.4C174 4.5 181.6 14 183.1 29.6c8.5-13 19.7-17.8 33.4-14.5 15.2 3.7 21.3 11.9 18.4 24.5C232.3 51.1 226 55.5 216 53l-9 128c5.6 11.9 6.5 26.3 2.8 43.4-1.1 9.3-7.2 21-18.4 35 19.7-14.1 33.8-25 42.3-32.8 8.5-7.8 20.2-13.5 35-17.2 11.5-.7 13.7 2.8 6.7 10.6-19.3 8.9-35 21.3-47.3 37.3-12.2 15.9-31.2 28.4-56.7 37.3l7.8 7.8c10-5.9 24.3-9.5 42.8-10.6-.7 6.7-2 12.1-3.9 16.4-1.9 4.3-7.4 12-16.7 23.1 3 10.4 7 19.8 12.2 28.4 4.8-1.9 8.4-1.2 10.8 1.9 2.4 3.2 3.2 7.1 2.5 12 15.2 9.6 30.6 16.9 46.2 21.7l94.6-148.5c7.8-10.8 15-10.9 21.7-.6l109 136.9c-4.8 24.1-19.5 36.7-44 37.8l-84-139.1-71.8 121.3c49 23.7 100 36.2 153 37.3 53 1.1 89.9 13.7 110.7 37.8 21.9 26 32.6 53 32.3 81.2v27.3H87.9c-9.3-4.8-14-12.1-14.2-22-.2-9.8 4.5-19.8 14.2-29.8 14.8-3.3 31.3-3.2 49.5.3s29.1 2.1 32.8-4.2c-19.6-24.2-34.4-56.1-44.4-95.8z"/></svg>