<svg xmlns="http://www.w3.org/2000/svg" viewBox="-10 0 1076.061 1019"><path d="M54 1019l-60-20-4-43 48-35 218-26-11-74q-2-4-7-17.5t-11-29q-6-15.5-9-24.5l-12 12-51-6q-4 3-17 10.5T114 781l-41-1q-12-1-26-10.5T23 747q-10-13-12-24 1-6 14-26t32.5-46q19.5-26 40-51.5t36-43.5q15.5-18 19.5-21h20q-3-12-7-30.5t-4-39.5q0-19 4.5-38t8.5-33q10-37 12.5-75t-1.5-78h33q4 24 9 57t5 52q0 6-.5 12.5T231 376q35-46 94-46 20 0 33 4l-87-97L443 96q-8-7-12.5-19T426 55q0-22 17.5-38.5T486 0q16 0 36 13.5T542 59q0 6-1 9 8-6 18-10t21-4q32 0 44.5 20.5T637 115q0 20-14.5 36T588 167q-13 0-24-6-3 18-10 58t-14.5 86q-7.5 46-13.5 85l-122-30q19 17 30 40t11 50q0 18-4 35.5T423 519q28-16 66.5-32.5T575 462v39q-30 10-51 23t-41 26q-28 19-57 36.5T362 612q18 19 36.5 35t28.5 20q8 3 16 6.5t19 6.5l374-383 180 281-16 9-16-24-39 12 8 26-17 6-9-26-42 12 4 24-18 3-43-289-346 354q20 4 45.5 7t57.5 2q28-1 65-5.5t70-9.5q31-4 59.5-8t50.5-4q60 0 106.5 22t77.5 54q31 32 45 61l7 112q1 29-14.5 58t-30.5 45H761l-42-11H485l-86 11zm324-695l119-200q10-17 18.5-33.5T524 59q0-22-13.5-31T486 19q-18 0-30 11t-12 25q0 10 8.5 21.5T468 95L299 239zm132 44q2-13 6.5-40t10.5-62q6-35 12-71t11-68q7 8 19 14.5t19 6.5q13 0 22-10t9-23q0-14-8.5-28T580 73q-21 0-36 17.5T514 132L391 337zM193 535h44q-3-5-6.5-10.5T224 514q-19-30-19-64 0-13 3-27 2-17 4.5-35t2.5-37q0-22-2-41t-4-32h-5q1 29-1 59t-11 61q-5 14-8 30.5t-3 36.5q0 21 4.5 40.5T193 535zm149 15q36-6 60.5-34.5T427 450q0-42-30-72t-72-30q-42 0-71.5 30T224 450q0 33 19 59t48 36q10 3 23.5 4.5t27.5.5zm541 25l91-28-124-193zm-120 426l250-1q2-3 11-14.5t17-29.5q8-18 6-39l-6-109q-4-7-18.5-27t-40-41.5Q957 718 919 702t-89-16q-19 0-47 3.5t-60 8.5q-34 5-69.5 9.5T585 713q-58 1-99-8.5T420 685q-15-7-38-28t-43-41q-4 1-8.5 1.5T322 619l11 6 23 52h-63l-33-28 12-13 27 22h29q-2-5-4.5-10t-4.5-10q-6-4-12-7.5t-12-7.5q-7 1-13 2t-9 1l-2-18 28-2q37-5 63-12.5t51-21q25-13.5 59-35.5 11-8 28.5-19t49.5-24v-10q-47 11-76.5 27T413 543q-23 13-42 20t-41 7q-19 0-35.5-3.5T259 553h-99q-6 5-20 21.5t-32 39Q90 636 73 658t-29 39.5Q32 715 30 722q3 12 17 25t27 14l36 2 41-25 49 6 15-15 20-20 13 14-15 13 31 80 11 92-232 31q-5 3-15.5 10.5T9 962l2 23q12 4 23 8t23 7h341l85-11h238zM147 648v-25l9-13h49v17l-28 7-17 14zM78 748l-25-22 26-16 13 14z" fill="currentColor"/></svg>