<svg xmlns="http://www.w3.org/2000/svg" viewBox="-10 0 1126 780"><path d="M514 780l-4-18-6 1-7-35-17-41-2-45q-2-2-5.5-6.5T465 625q0 4-.5 7.5t-.5 7.5q0 20 3 28t4 19q1 6 1 15.5t-9 10.5q-10 2-11.5-8t-2.5-18q-1-12 1-23t2-25q0-27 5-55 2-15 9.5-27t23.5-19q5-2 15.5-5t23.5-7q28-8 58.5-17.5T629 492q9-5 17.5-17.5T659 453q-3-5-6.5-12t-3.5-13q0-11 8.5-15.5T675 407l-3-11-108 39-114 12q1 5 1.5 9.5t.5 9.5q-1 8-11 19t-25 18q-15 7-32 6l-51-30-21 70q0 2-1 28.5t-2 64.5q-1 38-2 72l-20 2-8 13 2 9-12 28-53 5-23-12 24-49 4-2 27-40V523l-10-77q-4-2-5-2l-15 58-54 95-68 127-13-3-7 7 2 10-12 28-53 5-23-12 24-49 93-147 48-162q-30-23-56-56t-26-78q0-52 22.5-81t55.5-43q-5-21-10-47t-7.5-50Q131 22 131 7l25-7q9 23 24 60t28 68q18-2 35.5-3t33.5-1q32 0 64 2.5t63 4.5q32 2 63 4t60 1l22-8 4 6q40-5 87.5-14.5T739 99q41-8 85.5-16t91.5-8q53 0 81.5 21t41.5 55q13 34 17 73t7 75q2 26 8 56t11 48q7 21 20.5 44t13.5 49q0 10-1 29t-5 31l-14 1q-16-17-28.5-43t-12.5-48v-24l4-35q-5-17-11.5-45.5T1040 309q-1-14-2.5-31.5T1034 240q-7 20-14 52.5t-6 60.5q1 13 10.5 37.5T1043 434q-2 37-4 76.5t-4 74q-2 34.5-3 55.5l-1 21 2 29-16 49-4-1-11 28-54 5-23-12 20-41 22-85-4-108-51-82q-4 1-9 3t-11 4l1 31h-19l-1-28h-15l-4 25-18-3 4-26-11-5-9 24-6-2-73 121 23 29 25 38 17 26-3 8-32 10-15-27-27-37-21-19 1 9 35 49 19 27-2 7-37 11-11-18-21-28-52 60 1 6-12 28-53 5-23-12 17-35-28-34-7-13q-2 5-3.5 10t-2.5 7l18 54 8 19-3 8zM390 491q16 1 29.5-8t14.5-17l-4-27-83-172-35-29q-5-1-25-3t-36-4q-10-8-25-29.5T197 149q-14-31-25-61t-21-67l-5 2q2 19 8 54t19 79q8 26 22 50.5t33 46.5l-18 27 23 6-5 18-30-10-39 26q2 4 4 7.5t4 5.5h23q4-1 13-5t16-7l7 16-35 15-34-3-23-34 54-36 17-26q-16-19-29-44t-20-47q-28 13-46 37.5T92 267q0 37 23.5 68.5t57.5 55q34 23.5 65 35.5 1 0 19 7t40 14.5q22 7.5 33 11.5l-1-6 11-1 9 16zm617 226l6-33v-22l11-224q-1-2-8-18.5t-14-36q-7-19.5-7-30.5 0-23 5.5-53t14-58q8.5-28 15.5-49-7-43-36.5-71T912 95q-31 1-76 7.5T743 119q-48 9-95 18t-84 14l3 5q-14 10-33 25t-28 22q-10 8-19.5 20.5T467 250q-16 21-33 43t-37 36l48 100 115-12 149-53 36 1q18 15 41 31t43 27q20 11 30 12 23 0 41-8-29-29-52.5-66T813 277l17-5q11 46 35.5 84t52.5 63l63 101 2 125-16 62 26 6.5zM369 272q22-14 35.5-28.5T430 215q8-9 18-20t22-22q9-9 24-18-43-1-91-6-31-2-62.5-4t-63.5-2q-14 0-30 .5t-31 2.5l1 3q9 19 21.5 37t20.5 27q7 1 26 3t34 4l43 36zm19 39q19-13 35-33t29-38q18-24 28.5-37.5t24.5-24q14-10.5 41-26.5l-4-7q-41 17-60.5 37.5T443 226q-12 15-26 30.5T378 289zm-62 42l-17-14-28-7v-17h49l9 13v25zm450 77l8-13q-13-9-26-19t-20-16h-26l-22 8 3 14q9-7 20-7 9 0 29.5 11.5T776 430zM67 716l13-13 7 3 61-119 53-91 13-60q-7-4-18-10t-24-14l-49 159-91 136zm449 33l16-4-22-53q5-9 11-23.5t9-26.5q9-31 11-50l15 4q-1 5-2 12t-3 15q11-2 26.5-5.5T604 610q17-6 27-10t17-8l1-34h14l2 39q1 6 5.5 17.5T677 630q2 2 16 20t27 34l12-5-37-49-5-55-3-30 9-3 3 16 2 12q1-1 4-2.5l5-2.5 1-35q3-16 7-34t6-23q4-6 14-9t19-5q1-1 7-1 4-7 3-11-2-5-13.5-12.5t-23-13.5q-11.5-6-17.5-6-2 0-4 .5t-3 .5l-12 12-8-11q-6 0-13 3t-7 8q0 6 4 13l29-4v8l-21 9q-5 10-15 27.5T639 508q-8 4-25.5 10.5t-39 13Q553 538 535 544q-13 4-23.5 7t-15.5 5q-11 4-16 15t-5 25q0 11 6.5 22t13.5 17v50l16 42zm212-178l81-138-9-6-14 22q0 6-2.5 11l-3.5 7q-6 11-8.5 10t-9.5 0q-7 1-14 2.5t-7 2.5q-2 4-6 19t-6 29q-1 8-2 19.5t-2 18.5zm0-125q-10 0-10-9t10-9q8 0 8 9t-8 9zm-351 24l-1-28 18-6 15 26zM267 715l12-16 15-1V547l22-74q-13-4-29-9.5T257 453l9 68 1 153-28 34zm500-50l9-5-23-36-39-43q-2 1-4.5 2t-4.5 2v10l34 31zm-175 28l63-84-1-4q-8 5-20 11.5T610 627q-9 3-19.5 6t-20.5 6l5 29zm37 23l52-59-20-26-61 78zm-54-2l7-9-19-30-8-34-10 3q0 1-.5 2.5T542 657l11 26zm200-29l19-4-7-14-17 8zm-46 20l20-5-8-13-18 8zm226 44h33l6-16-29-7zm-733 0h34l5-16-28-7zm-203 0h34l5-16-29-7zm563 0h34l5-16-29-7zm-60 21l21-3-5-13-19 5z" fill="currentColor"/></svg>