<svg xmlns="http://www.w3.org/2000/svg" viewBox="0 0 592.9 500.7"><path d="M401 314c4.6 5.9 10.7 10.1 18.2 12.6 1.3 49 3.6 48.4 6.9-1.9l8.2-1.9c10.9 23.9 15.5 31 13.8 21.4-1.7-9.6-3.1-18.4-4.4-26.4l5-3.8c6.7-2.9 6.3-6.5-1.3-10.7-7.5-4.2-17.4-6.3-29.5-6.3-12 .1-17.7 5.7-16.9 17zm-13.8 1.9l-25.1 7.5-12.6 3.8c-4.2 2.9-14.6 9.8-31.1 20.7s-32.9 16.1-49 15.7c-16.1-.4-25.3 2.5-27.3 8.8-2.1 6.3-.7 12.8 4.1 19.5 4.8 6.7 4.3 16.3-1.6 28.9 5.4-.8 10.2-4.2 14.1-10.1 4-5.9 8.9-8 14.8-6.3 12.6 5.9 24.1 6.3 34.6 1.3 18.9-10.9 30.6-20.1 35.2-27.7 3.4 4.2 7.3 8 11.9 11.3 4.6 3.4 6.3.2 5-9.4-.4-3.8-1-8.6-1.9-14.5-.8-5.9-5-14.5-12.6-25.8 6.7 2.1 12.8 6.2 18.2 12.3 5.4 6.1 7.5 6 6.3-.3 5.9-13.8 10-22.8 12.3-27s3.9-7 4.7-8.7zm-193-64.1c-3.4 2.5-8 2.1-13.8-1.3-12.6-17.2-17-28.9-13.2-35.2l.6-.6c.8-2.1 4.4-1.7 10.7 1.3 15.9 9.6 21.4 21.2 16.3 34.6l-.6 1.2zm39.6 45.3c.8 0 13.6-.8 38.3-2.5 24.7-1.7 46.2-.3 64.4 4.1 18.2 4.4 37 2.6 56.3-5.3 19.3-8 34.8-8.8 46.5-2.5-26.4-18.4-42.1-36.7-47.1-54.7s.6-39.2 17-63.5c-5.4 23.5-7.4 41-6 52.5 1.5 11.5 12.6 26.8 33.3 45.9 20.7 19.1 28.9 37.1 24.5 54.1-4.4 17 3.5 15.9 23.6-3.1 20.1-19.1 33.6-53.7 40.5-104 6.9-50.3-7.9-79.4-44.3-87.4-36.5-8-76.1-7.5-118.8 1.3s-78.1 12.2-105.9 10.1-56.3-7.3-85.2-15.7c9.6 25.6 22 42.7 37.1 51.5 7.5 4.2 22 5.2 43.4 3.1 34.4-8.8 60.1-17.8 77.3-27 19.7-12.6 31.6-18.9 35.8-18.9 1.7.8 1.7 3.4 0 7.5-11.7 20.5-54.7 46.7-128.9 78.6 2.9 15.1 2.7 26-.6 32.7-1.6 26.2-2 40.7-1.2 43.2zm2.6 22c6.7 15.5 2.3 23.3-13.2 23.3-5.9 12.6-17.2 12.2-33.9-1.3l5 94.9 4.4 23.3c-5.9 4.2-8.2 9.6-6.9 16.3l3.8 15.7h-50.3c1.7-14.2 6.1-24.3 13.2-30.2 6.3-15.1 9.4-24.7 9.4-28.9 0-21-5-47.4-15.1-79.2-7.1-12.6-17.4-18.9-30.8-18.9-28.5 72.1-42.7 112.1-42.7 120.1v.6c-8.8 3.4-13.2 8-13.2 13.8l2.5 17c0 5-11.3 7.5-33.9 7.5-13.8 0-20.7-2.5-20.7-7.5 0-13.8 5.7-24.3 17-31.4 36-44.4 52.8-91.4 50.3-140.8-24.3-10.1-44.3-28.3-60-54.7-15.7-26.4-22.6-53-20.7-79.8 1.9-26.8 13.5-52 34.9-75.4s44-31.1 67.9-22.9c23.9 8.2 36.9 13.1 39 14.8-1.7-44.4.2-74.8 5.7-91.1 6.3-7.1 9.8-5 10.7 6.3.8 42.7 4 73.8 9.4 93 71.2 18.9 134.3 21.9 189.2 9.1 54.9-12.8 117.8-8.9 188.6 11.6 24.7 13.8 40 34.6 45.9 62.2 2.5 108.1 1.5 174.1-3.1 198-3.8 8-8.2 6.3-13.2-5C558.8 340 552.4 302 556 265.3c3.6-36.7 2.6-68.4-2.8-95.2-2.5 37.7-9 78.4-19.5 122 0 26 10.1 62 30.2 108.1-10.1 11.3-13 28.1-8.8 50.3-8 5-10.7 10.5-8.2 16.3l5.7 20.1c-.8 2.5-4 4.6-9.4 6.3h-41.5c3.8-15.1 8-25.1 12.6-30.2l7.5-20.7c4.2-18.4 6.3-32.7 6.3-42.7-.4-27.7-12.4-47.8-35.8-60.3-23 36.9-34.8 74.6-35.2 113.2-8.8 2.5-13.8 9.4-15.1 20.7 4.6 9.6 3.1 15.9-4.4 18.9h-44c4.2-13.8 9.8-24.3 17-31.4 23.5-32.3 32.7-61.5 27.7-87.7-5-26.2-6.9-40.3-5.7-42.4-2.1 27.7-5.2 41.9-9.4 42.7-4.2.8-7.3-11.7-9.4-37.7-3.4-2.9-6.5-5.3-9.4-7.2s-5.7-2.2-8.2-.9c-5.9 8.8-9.8 18.1-11.9 28-2.1 9.8-1.9 16.7.6 20.4 14.7 14.2 22.8 33.3 24.5 57.2 2.5 7.5 2.1 14.9-1.3 22-.4 1.7-5.2-.2-14.5-5.7-.8-3.8.2-7.3 3.1-10.7-1.3-17.6-4.3-28.6-9.1-33-4.8-4.4-10.8-7.9-17.9-10.4-1.7 3.4-1.4 9.4.9 18.2 2.3 8.8 2 22.8-.9 42.1 1.7 10.5.8 17.2-2.5 20.1-10.5 0-16.1-2.5-17-7.5-1.3-3.4.6-7.1 5.7-11.3 2.1-20.1 2.3-31.9.6-35.2-1.7-3.4-3.7-6.8-6-10.4-2.3-3.6-5.1-6.2-8.5-7.9-3.4-2.5-9.7-.9-19.2 4.7-9.4 5.7-13.3 9.2-11.6 10.7 1.7 1.5-.8 2.6-7.5 3.5-6.7.8-15.9-1-27.7-5.7-.8 8 .1 15.5 2.8 22.6 2.7 7.1 5.1 19.3 7.2 36.5 3.4 5.9 5.9 11.9 7.5 18.2-4.2 2.5-9 4.2-14.5 5-7.1-2.5-10.3-5.4-9.4-8.8 1.3-22.2-.6-37.1-5.7-44.6-5-7.5-8-11.5-8.8-11.9-3.8 0-7 5.1-9.7 15.4-2.7 10.3-2.6 21.7.3 34.3 2.1 5.4 3.2 9.2 3.5 11.3.2 2.1-.9 4-3.5 5.7-5.9 1.3-10.3.6-13.2-1.9-2.5-.4-3.8-4.4-3.8-11.9v-22c0-7.1-2.1-15.9-6.3-26.4 4.6-5 7.9-11.4 9.7-19.2 1.9-7.8.4-15.7-4.4-23.9-4.8-8.2-5.8-17.7-2.8-28.6-5 2.1-7.5 15.7-7.5 40.9 0 25.6-2.4 35.9-7.2 31.1-4.8-4.8-6.8-12.9-6-24.2.8-11.3 2.1-22.6 3.8-33.9 1.7-11.3 4.7-18.6 9.1-22 4.4-3.4 9.3-4.4 14.8-3.1 5.4-5.4 17.5-7.8 36.1-6.9 18.6.8 36.4-6.5 53.1-22-10.4-11.2-38.7-13.5-84.7-7.2zm-131.4-17c12.6 15.1 35.6 22.4 69.1 22-13.8-13.4-26.6-25.1-38.3-35.2-12.6.4-22.9 4.8-30.8 13.2zm2.5-28.9c-6.7-10.1-10-19.3-9.7-27.7.2-8.4 3.7-17 10.4-25.8l3.8 5.7c-2.5 10.5-3.1 19.2-1.9 26.1 1.3 6.9 7.3 14.1 18.2 21.7 5.4-2.5 12.8-.6 22 5.7 20.1 17.6 36 35 47.8 52.2 11.3 2.5 19.7-.6 25.1-9.4-3.4-15.9-4.8-32.4-4.4-49.3.4-17-.8-30.1-3.8-39.3s-6.5-16.8-10.7-22.6c.4-7.1-12.2-18-37.7-32.7-13-3.4-21-2.5-23.9 2.5-3.8 6.7-4 15.7-.6 27-11.7-11.3-17-25.4-15.7-42.1 2.1-2.9-3.4-14-16.3-33.3-5 15.5-1.3 38.1 11.3 67.9l-15.1-2.5L93.7 182c-18.4-2.9-29.1-17-32.1-42.1 4.2-9.2 9-10.5 14.5-3.8 2.1 17.2 8.8 23.9 20.1 20.1-2.5-18 1.9-34.4 13.2-49 14.2 15.1 23.3 29.3 27 42.7l15.7-1.9c-5-10.1-7.5-18.6-7.5-25.8-21-15.5-40.4-23.3-58.5-23.3-17.6 0-34.1 13.1-49.3 39.3-15.3 26.2-19.2 50.4-11.6 72.6 7.5 22.2 14.7 38.3 21.4 48.4 6.7 10.1 14.4 17.2 22.9 21.4 8.6 4.2 19.2 2.7 31.7-4.4 4.6-2 6.7-3 6.3-3z"/></svg>