<svg xmlns="http://www.w3.org/2000/svg" viewBox="-10 0 1101 1097.783"><path d="M20 1097.783l-30-10v-44l43-37 54-180 25-56 138-160q-13-20-23-47t-10-62q0-55 16-119t40-138l-20 3q-29 33-74 33-10 0-20.5-1.5t-15.5-5.5q-3-16-5.5-37.5t8.5-34.5q18-22 50-40.5t55-35.5q1-1 3-7t7-13l-46-68q-4-7-1.5-17t13.5-10q9 0 16 10l41 60 10-8-19-49q-2-9 3-17.5t16-5.5q4 2 7.5 4.5t5.5 7.5l19 50q3-1 6-1h14.5l6.5 1 8-26 16 5-7 25q5 2 10 5l17-22 13 11-15 19q3 2 6 5t7 6l17-17 11 12-17 17 6 7 18-16 11 14-20 16 7 12 21-12 9 14-23 14 8 17 25-7 5 15-25 8q1 4 1.5 7t1.5 6l23-4 4 17-23 4 2 13q0 1 .5 3t.5 3l22-2 2 16-23 3q0 4 .5 9t.5 10h24v16l-24 1q0 4-.5 9t-.5 10l22 1-1 17-22-1-1 23 21 1-1 17-22-1q-1 16 0 25.5t6 22.5q0-1 14 9.5t40 22q26 11.5 60 11.5 35 0 74-11.5t78-24.5q37-13 72-23.5t66-10.5q23 0 43 7.5t33 20.5q5-6 18-16t35-10q23 0 40.5 13t27.5 31q9 19 12.5 41t3.5 39q0 22-9 52.5t-17 59.5q-9 30-16.5 54.5t-7.5 41.5q0 39 4.5 79t15.5 80h-29q-15-31-30-67.5t-15-86.5q0-37 14.5-76.5t28.5-73.5q11-28 20.5-50.5t12-43q2.5-20.5-7.5-41.5-8-16-21-24t-27-8q-18 0-28 8.5t-14 12.5q14 17 20.5 37t6.5 34q0 59-15.5 91.5t-35.5 62.5q-8 12-17 24.5t-16 26.5v11q0 23 6 33.5t18 26.5l17 24v35l-110 200-3 25-67 40-27-10v-44l36-27 4-12 95-163v-30q-6-3-27-16.5t-46-32q-25-18.5-42-38.5 9 19 22 44t26 44l-1 30-151 190-3 25-70 40-26-10v-44l44-31 5-14 131-165v-7.5l1-6.5q-19-25-33.5-46.5t-31.5-44.5l-34 9-5-16 29-8-3-3q-23-1-54-2.5t-61-4.5q-30-3-51-6-19-3-40.5-14t-34.5-20l-3 19-110 102-44 83q-16 69-24.5 105t-9.5 43l-11 14-4 28-63 40-28-10v-44l45-37 50-203 35-71-62 48-42 77-52 158-11 14-4 28zm287-1030l5-2-18-48q0-4-4-4-3 0-1 5zm-37 26l4-4q-8-11-20.5-29t-21.5-32q-3-5-5-3-1 1 0 5 9 14 21.5 32.5t21.5 30.5zm-120 985l47-30 3-24 12-16 33-146 48-88 106-99 9-49q13 14 38 31t53 21q21 4 52 6.5t63.5 4.5q32.5 2 57.5 3l10 17 60-17q0-1-4-22.5t-4-51.5q0-29 7-59.5t14-47.5l18 7q-6 16-12.5 44t-6.5 56q0 25 3 45.5t4 25.5q10 19 33 40t51 40q28 19 51 32l-1 43-92 162-4 15-38 28 1 25 8 4 47-30 3-21q34-59 60.5-108t50.5-92v-26l-14-17q-14-19-20.5-31.5t-6.5-39.5v-16q8-16 17.5-30t17.5-26q19-28 33.5-59.5t14.5-84.5q0-17-10-39t-31-38.5q-21-16.5-54-16.5-28 0-63 10t-70 22q-22 7-50.5 15.5t-57 15q-28.5 6.5-49.5 6.5-41 0-76.5-17t-52.5-34q-8-15-9.5-29t-.5-31q2-13 3.5-37.5t1.5-47.5q0-26-3-47-2-16-9-41.5t-20.5-51q-13.5-25.5-34-42.5t-49.5-17q-29 0-47.5 19t-25.5 38q-4 4-18 13.5t-32 21q-18 11.5-33 22t-19 17.5q-8 10-7 24.5t3 27.5q4 2 9 2h11q21 0 37.5-7t30.5-25q35 1 61-6.5t36-18.5q16-16 16-41 0-6-.5-14t-1.5-11h16q2 5 2.5 10.5t.5 11.5q0 14-4 29.5t-15 26.5q-11 12-33 18.5t-33 8.5q-24 83-40 143.5t-16 113.5q0 36 13 65.5t31.5 50.5q18.5 21 35.5 31l-79 161q-2 6-7 27t-11.5 49.5q-6.5 28.5-13.5 56.5t-11.5 48q-4.5 20-5.5 24l-45 35v25zm132-897q-8 0-15-7t-7-16q0-9 7-15.5t15-6.5q10 0 16.5 6.5t6.5 15.5q0 9-6.5 16t-16.5 7zm0-13q10 0 10-10 0-9-10-9-9 0-9 9 0 10 9 10zm753 672q-6-29-9.5-60.5t-3.5-62.5q0-19 8.5-47.5t18.5-60.5q8-24 13.5-47.5t7.5-39.5q-3 10-9.5 25t-13.5 30q-14 34-27.5 72.5t-13.5 72.5q0 35 9.5 65.5t19.5 52.5zm-1016 238l46-30 3-24 12-16 51-156 46-82 92-69 24-49q-5-4-13-11.5t-17-18.5l-135 158-22 52-53 182-43 35v25zm567 0l50-30 3-21q24-31 54.5-68.5t57-71q26.5-33.5 40.5-51.5v-19q-16-23-31.5-55t-24.5-50l-42 12 66 88-1 26-133 168-5 15-42 28v25z" fill="currentColor"/></svg>