<svg xmlns="http://www.w3.org/2000/svg" viewBox="0 0 571.5 555.6"><path d="M124.5 0C141 11.3 161 21.6 184.8 31c23.7 9.4 37.7 31 42 64.9l-3.5 73.3c5.6 30.1 23.3 45.1 52.9 45.1 29.6 0 60.9-5.4 93.8-16.2 32.9-10.8 59.6-16.5 80-16.9 20.4-.5 43.6-2 69.4-4.6 25.9-2.6 42.1 12.6 48.6 45.5 6.6 32.9 4 64.6-7.8 95.2-11.8 30.6-16 62.5-12.7 95.9 3.3 33.4-1.9 48.8-15.5 46.2-13.6-2.6-23.7-31.8-30.3-87.8v-1.4c0-16.5 8.2-44.4 24.7-83.9l3.5-32.4c-2.4-23-5.6-34.5-9.9-34.5l-1.4 1.4L520 249c0 14.1-16.7 50.5-50.1 109.3v1.4l19 55.7-64.9 117c.5 15.5-3.3 23.3-11.3 23.3h-45.1c1.9-18.3 16-41.6 42.3-69.8 21.6-33.4 34.8-57.3 39.5-71.9-8-14.6-17.4-21.9-28.2-21.9-2.4.9-5.6 11.3-9.9 31-51.2 67.7-76.9 106.7-76.9 117-2.8 10.3-9.2 15.5-19 15.5h-40.2c1.9-17.9 16.9-39.2 45.1-64.2 36.7-50.8 55-80.4 55-88.8-16.9-22.6-27.5-35.3-31.7-38.1-22.6 9.4-35.7 12.2-39.5 8.5-3.8-3.8-.9-8.7 8.5-14.8-33.8 0-67.9-4.9-102.2-14.8-32 1.4-60.9 56.6-86.7 165.7 0 17.9-4.5 26.6-13.4 26.1l-38.8 4.9c-1.9-10.3 2.6-22.3 13.4-36 13.6-42.8 26.3-80.8 38.1-114.2 11.8-33.4 7.5-42.3-12.7-26.8-27.7 57.8-46.5 106-56.4 144.5-4.2 11.8-7.8 20-10.6 24.7L1 538.6c-2.8-9.4-.2-19.3 7.8-29.6 13.6-24.4 35.7-69.7 55.5-137.8 6.6-18.8 23.9-37.2 53.1-75.8l2.8-6.3c0-15.5-5.2-35.7-15.5-60.6l-2.8-31c0-16.5 3.1-40.2 9.2-71.2h-6.3C85.1 139.5 73.5 146 70.3 146c-20.7-9.9-31-21.9-31-36 1.9-9.4 20.7-32.7 56.4-69.8 7.1-11.8 12.2-22.6 15.5-32.4L124.5 0zm-14.1 55.7l7.8-6.3c13.6-.5 21.4 2.1 23.3 7.8-2.4 3.8-8.5 6.9-18.3 9.5s-14.2-1.1-12.8-11zm13.4-33.8C111.1 46.8 90.2 74.7 61 105.8v5.6c1.9 4.7 4.9 8 9.2 9.9h4.9c2.8 0 15.3-7.3 37.4-21.9h3.5c11.3 0 16.9 9.4 16.9 28.2v1.4c-7.1 23.5-10.6 49.4-10.6 77.6 5.2 26.8 9.9 45.8 14.1 57.1 4.2 11.3-11.2 42.4 1.5 60.7l13.7 1.8c-18.8 38.5 10.2 24.1 4.1 32.5 0 0 14-19.7 32.5-25.6 18.6-5.9 43.7-4.6 75.4 3.9 31.7 8.5 65.9 6.1 102.6-7.1l-1.4-25.4c4.2-39.5 10.3-59.2 18.3-59.2 4.2.9 4.8 6.9 1.8 18-3.1 11-4.6 29.5-4.6 55.3 0 20.7 26.1 46.1 78.3 76.1 3.3 5.2 3.8 13.4 1.4 24.7-2.4 11.3 18.3-12.5 9.9-24.7-8.5-12.2-12.7-22.6-12.7-31v-1.4c0-15.5 11.5-40 34.5-73.3 8.5-19.3 12.7-33.8 12.7-43.7v-12c0-19.7-18.3-32.2-55-37.4-39 10.8-86 21.5-141 32.1-55 10.6-89.3-3.6-102.9-42.7l-3.5-26.8 7.1-52.9c0-33.8-14.8-56.6-44.4-68.4-15.5-4.1-29.2-9.2-40.9-15.3zM503.1 196c26.3 8.5 39.7 25.3 40.2 50.4.5 25.1-7.8 58.2-24.7 99.1-2.8 25.9-1.2 48.6 4.9 68.4 6.1 19.7 8.8 14.5 8.1-15.9-.7-30.3 3.2-54.8 11.6-73.3 8.5-18.6 12.8-43.7 13-75.4.2-31.7-8.3-50.1-25.7-55-17.3-5-26.4-4.4-27.4 1.7z"/></svg>