<svg xmlns="http://www.w3.org/2000/svg" viewBox="0 0 593.4 534.3"><path d="M78.9 106.3c3.4 0 10.9.3 22.5.8s42.4-29.7 92.5-90.8l-2.6-1c-13.3 14.3-32.9 30.3-58.8 48.1-25.8 17.7-43.7 32-53.6 42.9zm15.8 17.9v1c21.5 1.7 62.5-16 123.2-53.2l-2-5.1c-44.3 26.9-74.2 41.8-89.7 44.5-15.5 2.8-26 7-31.5 12.8zm7.2 7.7v1c13.6 7.2 44.3-5.3 92-37.3-48.4 24.9-79.1 37-92 36.3zM63 147.8l14.8 2v7.2h-5.1c-3.1 6.8-11.8 10.2-26.1 10.2l-2-2c2.8-11.6 8.9-17.4 18.4-17.4zm487.3 122.7c-2.4-10.2-8.2-19.9-17.4-28.9s-25.3-15.5-48.3-19.4c-23-3.9-43.5-3.7-61.6.8-18.1 4.4-38 6.6-59.8 6.6-21.8 0-45.8-3-72.1-8.9-26.2-6-52.2-8.3-77.7-6.9-7.2-4.8-19.8-15.3-37.8-31.7l-41.4-39.9c-8.9 4.4-17.1 5.5-24.8 3.3-7.7-2.2-12.5-3-14.6-2.3-3.1 0-4.1-1.7-3.1-5.1 0-3.4 1-5.1 3.1-5.1l-1-5.1-1 1c-6.8 2-8.7-.2-5.6-6.6-18.1 0-33.1 8.9-45 26.6-3.4 13-5.6 19.4-6.6 19.4-11.9 15-19.8 25.9-23.5 32.7 4.1 0 6.4 2.2 6.9 6.6.5 4.4-2.5 7.5-8.9 9.2 0 8.2 1 12.4 3.1 12.8 9.2-9.9 15.3-15.8 18.4-17.9 4.1.7 5.5 2.6 4.1 5.6l-12.3 14.3c7.8-.7 16.1-5.8 24.8-15.3s19.2-15.9 31.4-19.2c12.3-3.2 18.1-9.5 17.4-18.7h8.2c0 9.9-1.5 16.2-4.6 18.9 18.4 28.6 36.3 51.6 53.7 69 17.4 17.4 27.9 33.3 31.4 47.8 3.6 14.5 22.6 26 57 34.5-.3-1.4-8.8-6.4-25.3-15.1S194.1 298 197.2 253l7.7 1.5c-3.4 43.3 7 69.9 31.2 79.8 24.2 9.9 38.3 13 42.2 9.2 3.9-3.7 4-9.9.3-18.4l5.6-4.6c5.1 4.8 8.7 12.6 10.7 23.5 11.9-1 36.6-.5 74.1 1.5s64.6-3.4 81.3-16.4l-5.1-15.3h8.2c16.7 36.5 30.3 58.7 40.9 66.7 10.6 8 18.1 10.7 22.5 7.9 4.4-2.7 6.6-9.7 6.4-21-.2-11.2 3.2-25.1 10-41.7 6.8-16.5 10.2-30.1 10.2-40.6 0-10.2-5.3-18.2-15.8-24l.5-5.6c12 3.2 19.5 8.2 22.2 15zm-113 72.1c-18.7 3.4-25.9 6.6-21.5 9.7 4.4 3.1 10.6 4.3 18.4 3.6 7.8-.7 11.9 1.1 12.3 5.4.3 4.3 4.2 5.6 11.5 4.1s8.8-7.1 4.3-16.6c-4.4-9.6-12.7-11.7-25-6.2zm123.2 48c2.4 26.2 10.7 47.2 25.1 62.9-3.1-11.9-6.8-21.4-11.2-28.4-4.4-7-8.9-18.5-13.3-34.5h-.6zM278.3 534.3l18.9-23.5c3.1-2.7 2.6-14.7-1.3-36-3.9-21.3-8.4-34.1-13.3-38.3-4.9-4.3-7.2-9.5-6.6-15.9.5-6.3-1.2-14.4-5.1-24.3-3.9-9.9-11.5-23-22.8-39.4l-10.2-1c-13 11.2-23.3 24.1-30.9 38.6-7.7 14.5-11.7 25.2-12 32.2-.3 7-2.6 12.2-6.9 15.6-4.3 3.4-10.7 12.8-19.2 28.1s-14.1 28.3-16.6 38.9c-2.6 10.6-6 15-10.2 13.3-4.3-1.7-5.5.3-3.8 6.1l-2.6 5.6h-43l18.4-18.9c4.8-3.1 10.3-8.8 16.6-17.1 6.3-8.4 11.9-19.9 16.9-34.8 4.9-14.8 7.9-25.6 8.9-32.2 1-6.6 4.1-12.8 9.2-18.4 5.1-5.6 10.5-15.5 16.1-29.7 5.6-14.1 8.9-24.6 10-31.4 1-6.8-1.1-12-6.4-15.6-5.3-3.6-8.6-10.7-10-21.5-1.4-10.7-10.9-24.9-28.6-42.4-17.7-17.6-35.6-40.5-53.7-68.8-14 2.7-25.9 8.9-35.8 18.7-9.9 9.7-16.7 14.8-20.5 15.3s-9.2 1.3-16.4 2.3c-10.2-1.7-15.3-5.5-15.3-11.2 0-4.1-.5-7.7-1.5-10.7-1-3.1-.9-8 .5-14.8 3.7-8.9 13.6-23.5 29.7-44 0-16.7 11.8-31 35.3-42.9 8.2-22 26.9-42 56.2-60.2S176.2 19.1 196 0h5.1c1.7 4.1 2.3 9.4 1.8 15.8-.5 6.5-23.8 34.8-69.8 84.9 45-21.5 75.7-39.7 92-54.7 4.8 4.4 7.6 11.2 8.4 20.2.9 9-26.5 30.9-82.1 65.7-3.7 2-4.5 3.1-2.3 3.1s3.5 3.1 3.8 9.2c8.5-1.4 10.9.3 7.2 5.1 9.5 1.4 13 4.1 10.2 8.2 12.3-.7 16.2 2.2 11.8 8.7 13.6.3 18.9 3.4 15.9 9.2 13-.3 17.4 3.6 13.3 11.8 14.3-4.1 19.4-.9 15.3 9.7 9.5-.7 13.6.9 12.3 4.6 20.5 0 40.8 2.3 61.1 6.9 20.3 4.6 41.6 7.2 63.9 7.9 22.3.7 42-1.4 59.1-6.4 17-4.9 39.8-4.5 68.3 1.3s48.5 18.5 60.1 38.1c11.6 19.6 16.4 39.5 14.3 59.6-2 20.1-1.6 41.2 1.3 63.1 2.9 22 8 38.7 15.3 50.1 7.3 11.4 11 26 11 43.7 1.4 11.2-4.7 8.2-18.2-9.2s-20.5-36.7-21.2-58c-.7-21.3-.5-42.3.5-62.9s.5-36.7-1.5-48.3c-.3 16.4-3.8 33.9-10.5 52.7-6.6 18.7-6.6 37.8 0 57.3 6.6 19.4 12.9 42.4 18.7 69l5.6 53.7c-6.8 0-10.2 2.6-10.2 7.7v6.6h-38.3l14.8-23.5 5.1-2.6c1 0 1.8-6.1 2.3-18.2.5-12.1-1.4-25.5-5.9-40.1-4.4-14.7-13.9-28.3-28.4-40.9-14.5-12.6-25-23.2-31.4-31.7-11.2 15-16.9 38.2-16.9 69.5-16.4 22.5-29.7 45.2-39.9 68 1.4 9.2-1.7 12.6-9.2 10.2v9.2h-44l18.4-22c17.7-18.1 29.5-34.8 35.3-50.1 5.8-15.3 8.2-27.8 7.2-37.3-6.8-37.8-9.5-58.8-8.2-62.9-5.5-6.1-11.2-8.7-17.4-7.7-6.1 1-17.2 1.1-33.2.3-16-.9-37.3-.9-63.9-.3.3 26.2 2.2 42.9 5.6 49.9 3.4 7 4.9 14.3 4.6 22-.3 7.7 1.6 20.6 5.9 38.9 4.3 18.2 8.7 31.9 13.3 40.9 4.6 9 1.6 15.4-8.9 19.2v9.2h-45.1zM65.6 160c2.7-2.4 4.6-4.2 5.6-5.4 1-1.2.6-2.1-1.3-2.8-1.9-.7-3.8-.9-5.9-.5-2 .3-2.1 1-.3 2 2 1.1 2.6 3.3 1.9 6.7zm-16.4 3.6c2.4 1 4.8 1.2 7.2.5 2.4-.7 2.7-1.5 1-2.6-1.7-1-2.4-2.6-2-4.9.3-2.2-.3-2.3-2-.3-1.8 2.2-3.1 4.6-4.2 7.3z"/></svg>