<svg xmlns="http://www.w3.org/2000/svg" viewBox="-10 0 1038 1056"><path d="M73 1056l29-59 42-42 104-270q1-3 4.5-19.5T259 635q-9-13-19.5-32T226 569q-3-15-6-68t-30-133q-19-7-39-7-6 0-22 5t-35 12.5Q75 386 59 393q-9 0-19.5-6T24 375q-3 0-11 .5t-14 .5q-9-15-9-37 0-7 1-15t4-14l164-160q8-8 24-16.5t32-8.5q23 0 54 14 9-13 24.5-35.5T323 64q19-22 43-43t48-21q18 0 17.5 19T420 58l-8 12q19-10 37-15.5t33-5.5q22 0 29.5 7.5T519 73q0 17-15.5 32.5T449 138q-13 6-37 15.5T363 172q-25 9-40 13 2 5 3 9l2 8q23 110 98 153.5T622 399q53 0 97-2t80-2q29 0 55.5 2.5T901 404q21 5 39.5 23.5T964 463q29 19 44.5 47t15.5 78q1 30-4.5 62t-8.5 60l-3.5 35-1.5 25q0 17 3.5 41.5t8.5 50.5q5 26 10 45l-27 8q-12-13-24-29t-20-35l-7 49q0 3 .5 17.5T952 952q1 20 2 37l-24 36-4 31h-92l29-58q6-14 13-34.5t12-38.5q5-18 5-24 0-14-5.5-39.5t-12.5-48q-7-22.5-11-28.5-3-5-14-16.5T830 748v75q-15 21-34 50t-28 45q-9 15-21.5 41.5T726 1005l-30 30-3 21h-92l30-58 44-46 56-122q3-32 3.5-69.5T728 685q-15 3-40.5 7t-52 7q-26.5 3-44.5 3t-47-3q-29-3-50-6-4 8-10 23.5T473 746q-5 14-8 39t-4 43v134l-21 60-8 34h-83l27-56 21-53q0-1 .5-15t1.5-26q-1-9-5.5-36.5t-11-61.5q-6.5-34-13-62.5T359 705q-10 11-22 25.5T320 752q-5 8-19 35t-25 50l-24 27q-1 1-7.5 11t-14 21.5Q223 908 221 916q-3 9-11 35.5t-15 48.5l-31 29-4 27zm217-906q17-13 39.5-29T377 90q10-12 26-37 1-2 4.5-10t4.5-15.5q1-7.5-6-7.5-13-1-33 16.5T337 76q-15 18-29.5 39T286 148q2 2 4 2zm629 870l16-35q-1-7-2.5-35t-2.5-51l14-96q-1-7-8-32.5T924 723l1-28q11-43 22.5-93.5T955 503q20 9 30.5 37.5T994 591q-3 29-10.5 70T969 742q-7 40-6 64 1 31 15.5 52t29.5 39q-4-13-8.5-36.5t-7.5-48q-3-24.5-3-42.5 0-10 1.5-26.5T994 708q3-27 8-59.5t5-60.5q-1-32-15-65.5T950 479q-6-18-18.5-34T896 423q-17-5-42-7t-55-2q-44 0-87.5 1.5T622 418q-79 0-144.5-18.5t-109.5-65Q324 288 309 205q-1-2-1.5-4t-1.5-4q-5 4-10.5 8.5T287 212l-9-13 36-25q17-5 42-15.5t49-21q24-10.5 36-16.5 18-8 38-20.5T499 77q0-3-3.5-6.5T480 67q-18 0-45.5 13t-59 33q-31.5 20-60 40.5T268 188l-11-13q2-1 7-5t11-9q-16-8-33-12t-27-4q-13 0-24.5 6T173 163L11 322q-2 6-2 16.5t1 17.5h24l26-13 18-5 2 10-14 8-20 12q6 4 10 6 7-3 26.5-11t40-15q20.5-7 28.5-7 9 0 20 3t17 3q2 0 16.5-.5T227 342q5-3 11.5-9.5L250 321l13 10q-4 7-11.5 15T237 358q-4 3-13.5 5t-14.5 2q1 2 5 16t8.5 30q4.5 16 5.5 23 6 30 9.5 55.5T242 533q1 8 1.5 16.5T246 565q2 13 9.5 27t15 25q7.5 11 9.5 13 13 11 30.5 18t31.5 10q-17-36-17-70t13-67l19 7q-6 16-9.5 31t-3.5 29q0 40 23 77v-1q6 23 13.5 51t13.5 51.5q6 23.5 8 35.5 3 19 8 49.5t9 52.5l-3 47-24 52 31 12 18-57V827q1-19 4.5-45.5T454 740q6-17 15.5-38.5T482 674q8-21 8-54 0-10-1.5-19t-2.5-16l18-5q6 16 6 40 0 30-8 54 17 3 43 5.5t46 2.5q14 0 43-3.5t61-9q32-5.5 59-10.5 6-1 12-3t13-4q-7-21-11-43.5t-5-46.5l20-1q2 44 15 85t31 74l30 30 21 24q4 5 10 22.5t11.5 39.5q5.5 22 9 42t2.5 30q-2 10-8.5 31.5t-13.5 41q-7 19.5-9 25.5zM143 253v-24l10-13h48v16l-28 8-16 13zM42 340l-14-14 25-21 9 12zm909 412q7-40 15.5-79.5T978 591q0-7-1-16.5t-3-17.5q-2 17-7.5 42.5T955 651q-6 26-11 46l-1 25zm-800 265l27-28 24-79q3-10 14-27.5t20-30.5l23-25q1-1 6.5-13t13.5-27q8-15 15-28.5t11-18.5q5-7 20.5-25.5T353 681q-16-2-37.5-9.5T275 651l-8 40-106 274-38 41zm537 4l22-27q2-5 9-20.5t15.5-34Q743 921 751 908q9-15 27.5-43t32.5-48v-89q-8-14-14-28t-12-29q-9 3-19.5 6t-17.5 4q5 43 6 78.5t-3 73.5l-60 129-39 45zm180 16h39v-2l-31-12zm-233 0h39v-2l-31-12zm-255 0h39v-2l-31-12zm-277 0h39v-2l-31-12z" fill="currentColor"/></svg>