<svg xmlns="http://www.w3.org/2000/svg" viewBox="0 0 589.6 476.2"><path d="M575 128c5.4 24.8 1.2 51.2-12.4 79.2s-15.8 50.5-6.6 67.5c9.2 17 20.4 31.2 33.6 42.3-9.7 25.8-13.8 47.2-12 64.3 1.7 17 1.1 36.5-1.8 58.4 3.9 14.1 2.7 22.4-3.7 24.8-7.3 4.4-19.2 6.3-35.8 5.8-4.9-3.9-6.3-8.6-4.4-14.2 1.9-5.6 6.1-12.8 12.4-21.5 11.2-25.3 12.7-52.8 4.4-82.5-8.3-29.7-21.2-43.6-38.7-41.6-8.3 2.9-18.4 22.6-30.3 59.1-11.9 36.5-17.6 63.3-17.2 80.3-4.9 8.8-16.1 13.1-33.6 13.1-7.3 0-13.4-.7-18.3-2.2 3.4-15.1 9.7-26.3 19-33.6 11.7-26.3 19.5-53.7 23.4-82.1 3.9-28.5.7-52-9.5-70.5-7.3-1-16.8 2.2-28.5 9.5s-21.3 12.5-28.8 15.7c-7.5 3.2-12.9 2.6-16.1-1.8-3.2-4.4-12.4-7.4-27.7-9.1-15.3-1.7-26.2.1-32.5 5.5-2.9 7.3-4.4 16.3-4.4 27s5.2 29 15.7 54.8c10.5 25.8 15.7 44.8 15.7 57 0 7.3-2.2 15.6-6.6 24.8-7.8 9.7-22.6 12.2-44.5 7.3-1.5-6.3.4-11.8 5.5-16.4 5.1-4.6 7.7-10.8 7.7-18.6 3.9-18.5-1.6-42.1-16.4-70.8-14.8-28.7-31.8-46.2-50.7-52.6-19.5 24.3-34.8 53.3-46 86.9-5.4 13.1-12.9 31.2-22.6 54-4.4 16.1-12.4 25.1-24.1 27-21.4 2.9-32.9 1.5-34.3-4.4 1.5-9.2 7.5-17.3 18.3-24.1 10.7-6.8 20-20 27.7-39.4 10.7-22.4 23.6-63.8 38.7-124.1 0-9.7-7.5-22.1-22.6-37.2-22.9-20.4-47-51.6-72.3-93.5-7.3-6.3-15.6-7.1-24.8-2.2-9.2 4.9-18 9-26.3 12.4-13.6 4.4-24.8-1-33.6-16.1-13.6-9.2-13.1-18.5 1.5-27.7C28 96.6 39 79.1 44.4 65.9 51 48.4 65.8 36.2 88.7 29.4c17.5-1.9 29.4-5.1 35.8-9.5 24.3-21.4 41.6-25.6 51.8-12.4 13.1 14.1 6.1 32.4-21.2 54.8 2.9 23.4 19.3 40.8 49.3 52.2 29.9 11.4 61.1 17.4 93.5 17.9s73.5-3.5 123.4-12c49.9-8.5 93.8-8.2 131.8 1.1 1-1.9 0-4.7-2.9-8.4s-5.7-8-8.4-13.1-4.3-10.1-4.7-15c-.5-4.9 3.7-6.9 12.4-6.2 8.8.7 15.7 5.7 20.8 15 5.1 9.1 6.6 20.5 4.7 34.2zm-74.5 163.5c-12.7-6.8-28.2-18.7-46.7-35.8 15.6 25.8 19.2 60.8 11 105.1 12.1-27.7 24-50.8 35.7-69.3zM547.3 155c-21.4-18-64.4-22.5-128.9-13.5s-115.5 12.9-153 11.7c-37.5-1.2-72.8-15.7-105.9-43.4-9.2-8.3-17-20.7-23.4-37.2 7.8-24.8-5.4-34.8-39.4-29.9-17 3.9-29.2 13.1-36.5 27.7-5.4 17-13 30.9-23 41.6-10 10.7-13.5 17.6-10.6 20.8 2.9 3.2 7.5 6.7 13.9 10.6 13.1-4.4 29.9-10.5 50.4-18.3 7.8-15.1 14.4-22.4 19.7-21.9-.5 22.9 3 42 10.6 57.3 7.5 15.3 24.9 37.1 52.2 65.3 8.8 14.6 14.6 12.7 17.5-5.8 2.9-18.5 10.5-35 22.6-49.6 0 33.6 3.5 56.7 10.6 69.4 7.1 12.7 12.8 23.9 17.2 33.6 9.2 18 24.8 36 46.7 54-1.9-14.1-5-27.9-9.1-41.3-4.1-13.4-6-22.8-5.5-28.1 20.4 7.8 54 12.4 100.8 13.9 36.5-7.3 56.2-14.8 59.1-22.6 2.9-8.8 6.3-14.1 10.2-16.1 3.9-1.9 16.7 6.7 38.3 25.9 21.7 19.2 40.3 30.8 55.9 34.7-10.2-31.6-10.8-57.8-1.8-78.5 9-20.7 13.5-34.7 13.5-42s-.7-13.4-2.1-18.3zM82.9 87.8c-3.9 0-6.8-1-8.8-2.9-5.8-5.8-5.8-11.9 0-18.3 5.8-5.4 11.9-5.1 18.3.7 1.9 2.4 2.9 5.4 2.9 8.8 0 7.8-4.1 11.7-12.4 11.7z"/></svg>