<svg xmlns="http://www.w3.org/2000/svg" viewBox="-10 0 1131 866"><path d="M218 866l12-46 43-61 52-285q-7-8-13.5-16T301 445h1q-6-9-18-30t-26-46q-14-25-25-47l-12-8v16q0 12-6 26t-22 14q-20 0-24.5-15.5T164 324v-16.5l1-18.5-48 3-22.5 13.5L62 325l-27-4q-5 1-15.5 2.5T1 326l-11-45q9-27 21-57.5t22-55Q43 144 47 137t11-15.5q7-8.5 16-18.5 0-5 .5-11t.5-10q0-20-3.5-39.5T59 1l22-1q22 19 34 33.5T133 65q10-3 21-3h8q6-26 6-59h23q36 45 40 88l28 22q5 3 29.5 16t61.5 31q37 18 81.5 35.5t90 29Q567 236 607 236q51 0 93.5-7t76.5-15q25-6 46.5-10t41.5-4q24 0 56.5 9.5t64 23Q1017 246 1040 258q4-2 11-16t7-30q0-24-8.5-43.5T1030 132q35 8 62 33.5t29 59.5q0 21-9 44.5t-22 44q-13 20.5-26 33.5-4 7-16 38.5t-25 63.5l16 59q3 4 15 20.5t28 38q16 21.5 30 39.5-1 26-1.5 56t-.5 38q0 5 1.5 25t3.5 43.5q2 23.5 4 36.5l-10 24-5 37h-97l13-46 21-29-10-167-7-7-11-11 15 30q-2 18-4 40.5t-1 31.5q1 10 0 36t-2 47l-34 36-4 39h-94l12-46 41-59-2-48q-1-5-5-23t-13.5-40q-9.5-22-25.5-40-20-23-44.5-49T811 520q-8 4-30 11.5T732 546q-27 7-49 7-26 0-57.5-6.5t-61-16Q535 521 514 512v4q0 11 1 24.5t5 23.5q5 13 10.5 31.5T540 628l-11 38q2 9 7.5 33.5t12.5 55q7 30.5 13 56.5l-17 16-3 39h-95l11-43 26-39-35-114q-4-4-14.5-13T416 641l-5-34-4 20-17.5 35-17 34.5q-17 34.5-9.5 20.5-3 9-8.5 33t-9.5 44l-29 33-4 39zM94 84q11-8 21-12-7-20-25-39 2 12 3 24t1 25zm435 733l11-12-32-141 15-37q-4-11-11-27t-11-29q-4-11-5-26.5t-1-28.5q0-6 .5-17t.5-18q0-20-3-41.5t-8-38.5l19-5q5 20 8.5 46.5T516 491q16 7 43 17.5t59.5 18Q651 534 683 534q17 0 39-5t42.5-12q20.5-7 33.5-12-6-11-10-24t-4-26q0-22 8-44.5t19-38.5l16 11q-9 14-16.5 33.5T803 455q0 11 5.5 24t14.5 26q11 12 38 39.5t50 52.5q21 25 33.5 58t15.5 56l2 50-29 47 43 3 24-28q1-19 2.5-42t.5-31q-1-9 1-31.5t4-40.5l-41-81 7-41 73-180q18-16 36.5-46t17.5-64q-1-20-11-38t-27-28q7 11 9 24t2 27q0 16-6.5 32t-15 26.5Q1044 280 1039 280q-22-13-53.5-27T922 229.5q-32-9.5-57-9.5-16 0-39 4t-45 9q-34 7-77.5 15t-96.5 8q-42 0-89.5-12.5t-94-30.5Q377 195 338 176t-63.5-32.5Q250 130 247 128l-15-11q0 6-.5 12t-1.5 12l-20-3q6-42-8-82 2 16 .5 34t-6.5 34l-12-6q5-17 5.5-37.5T186 40q-5 35-19 67l-18-8q2-5 4-9t3-9q-23 0-41.5 12.5T83 122q-13 16-19 25-5 9-15 32t-21 51.5Q17 259 9 283l6 21 11-1q8-9 19.5-19T67 268l9 14q-13 8-27 21l10 2 24.5-14 30.5-18 70-5 64 39q12 23 26 49.5t26 48q12 21.5 17 29.5 5 7 11 14t13 16q10 11 21 24.5t19 27.5q10 16 24 40t24 40l4 36q4 4 14.5 12t18.5 14l36 129-12 21zM101 198v-24l10-14h48v17l-28 7-16 14zm-68 82l-10-11 19-17 8 10zm160 70q3 0 6-6t3-14q0-6-.5-17t-.5-13l-17-12q0 11-.5 17.5T183 324q0 5 1 15.5t9 10.5zm857 458l49-2q0-2-1.5-16.5t-3-33.5q-1.5-19-2.5-35.5t-1-20.5q0-8 .5-36.5t1.5-51.5q-4-4-16-20.5t-27-37q-15-20.5-28-37.5l-12-38q-5 13-10 25t-7 18l-5 29 62 65 9 181zm-736-5l12-18q5-19 10.5-42.5T345 710q2-6 9-21.5t16.5-34Q380 636 388 620l8-43q-8-12-16.5-26T364 526l-10-16-12-15-52 272-26 31zm-71 43h51l4-27-42-4-8 14zm790 0h52l3-22-49 1zm-560 0h50l1-12-45-8zm442 0h50l2-18-47-1z" fill="currentColor"/></svg>