<svg xmlns="http://www.w3.org/2000/svg" viewBox="-10 0 1105 1085"><path d="M839 1085l12-46 20-28 21-31-2-48q-1-7-4-26.5T859 858q-31-35-53.5-55T770 767q-13-16-16-40h-19q-27 0-69-5t-86-21q-21-8-44.5-22.5t-45-31.5Q469 630 453 616q-12-1-45.5-3t-75.5-4.5q-42-2.5-78-4.5l-19 11-10 67-15 50-15 18-10 53-97-1 17-58 18-21 19-47 24-111q7-12 17-26t16-17q3-1 6.5-2t7.5-2q-7-1-13.5-3t-10.5-3l-20 7-27 61-25 47-15 16-21 46-91-8 25-62 22-17 27-42 46-104q9-10 21.5-21.5T151 421q10-2 28 0t31 4l134 25q-5-23-9-46t-10-47l-10-22-8 15q-4 9-13 17.5t-19 8.5q-14 0-20.5-9.5T248 350q0-16 9-31t18-31l-43-19q-5 0-26 1t-38 3l-23-16q-4-1-14.5-4.5T112 246l11-45q18-16 39-34t39-32q18-14 26-19 6-5 16-9t23-9q12-25 21.5-46T298 0l21 9q18 42 18 68v7l-1 7q11 1 20 2.5t20 8.5q8-11 17.5-25.5T411 46l21 11q2 12 3.5 23t1.5 22q0 28-10 51 10 16 24.5 49t36 71.5q21.5 38.5 52.5 74t74 58.5q45 24 81 34t70 19q36 9 75 17t77 24.5q38 16.5 70 48.5 5-1 22.5-8.5T1035 519q9-19 14-37t5-35v-11q19 16 30 39t11 47q0 31-15.5 52t-35.5 33q-20 12-34 18-14 5-21 13.5T972 668l17 59 73 98q-1 26-1.5 56t-.5 38q0 5 1.5 25t3.5 43.5q2 23.5 3 36.5l-5 13-4 11-6 37h-96l12-46 21-29-9-167-7-7-11-11 15 30-4.5 40.5L972 927q1 10 .5 36t-1.5 47l-23 25-11 11-4 39zM293 90q5-1 11-1.5t12-.5q1-3 1-11t-1-16q-1-8-4-18-4 11-8.5 23T293 89zm633 940l10-12 14-16q1-19 2.5-42t.5-31q-1-9 1-31.5t4-40.5l-41-81 7-41 36-88q5-14 16-26t30-18q13-5 31-17t30-35q4-8 6-17t2-17q0-19-7-32-1 8-5 19t-11 23q-6 13-20 21.5t-29 13q-15 4.5-23 4.5-4 0-5-1-18-22-55.5-38.5t-81-28Q795 487 760 478t-71-19.5Q653 448 605 424q-46-24-79.5-61T470 287.5q-22-38.5-35-69T416 177q-3 5-6 10.5t-7 10.5l-16-11q24-34 30-77-5 15-15 29.5T381 167l-8-10q12-14 22-32t15-37q-10 13-22.5 29T361 144l-12-16q4-2 7-5.5t7-6.5q-7-4-16-7t-17-3q-29 0-55.5 10T237 133q-9 5-26 18.5T174.5 181Q155 197 140 211l-5 22 11 4q11-4 25.5-7.5T198 225l2 16q-7 1-16.5 3t-17.5 4l8 6q7-1 27-1.5t36-1.5l65 26 39 65q4 11 8 35t10 53q6 29 15 54 7-8 12.5-16.5T396 453l16 10q-7 11-19 27.5T364 520q-17 13-36 15l-71-1q-12 0-27 1.5t-22 4.5q-4 1-11.5 13T183 575l-20 107-21 49-10 11 46 3 18-24 12-44 10-74 32-18 207 11 44-28 11 17-37 23 30 25 40 28.5q40 28.5 42 21.5 42 16 82 20.5t66 4.5h10l9-1q1-21 9-41t18-36l16 11q-9 14-16 33.5t-7 38.5q0 26 15.5 46.5t38.5 41q23 20.5 46 45.5 21 25 29 48t6 36l2 50-19 32-10 15zM308 203l-28-7-21 5-12-6 11-22 15-7 43 22zm-146 17l-4-15 25-6 3 12zm112 136q8 0 16-15l13-27-10-18q-5 10-8.5 15.5T275 328q-1 3-3.5 9t-2.5 11q0 2 1 5t4 3zM86 635l20-22 20-41 27-68 36-11 92 22h46q9 0 17.5-4.5T360 500q-3-7-5.5-15t-4.5-15l-144-26q-11-2-26.5-3.5T157 440q-4 1-14 10.5T125 469L84 570l-31 44-11 9zm-19 34l9-19-48-13-10 28zm933 358l48-1v-1q0-2-1-16.5t-2.5-33.5q-1.5-19-2.5-35.5t-1-20.5q0-8 .5-36.5t1.5-51.5q-4-4-16-20.5t-27-37Q985 753 971 736l-11-38-17 43-5 29 62 65 9 181zM167 784l4-22-46-4-7 25zm816 281h52l3-22-49 1zm-119 0h51l2-18-47-1z" fill="currentColor"/></svg>