<svg xmlns="http://www.w3.org/2000/svg" viewBox="0 0 539.5 642.9"><path d="M346.3 18c-27.8-2.8-49.4 6.6-64.9 28.2-.9 7.1 2.8 12.7 11.3 16.9 27.2-13.6 45.1-28.6 53.6-45.1zm31 41.7c-17.4-3.3-32.5-2.9-45.2 1.1-12.7 4-22.4 10.2-28.9 18.7l2.8 11.3c33.9-1 57.7-11.4 71.3-31.1zm115.8 325.4c-7.5-22.1-21.1-42.5-40.6-61.1s-47.3-33.2-83.3-43.8c-36-10.6-57.5-27.2-64.6-49.8-7.1-16.9-11.4-39.5-13.1-67.8s-4.1-48.2-7.4-60c-8.9-35.8-27.8-53.2-56.5-52.2-20.2 8.9-30.9 16-32.1 21.2-1.2 5.2-15.2 18.1-42 38.8 0 5.6 5.4 12 16.2 19.1 11.8-4.7 24.7-8.1 38.8-10.2 14.1-2.1 27.1.6 38.8 8.1-2.8 7.5-7.3 22.8-13.4 45.9-6.1 23.1-6.4 52-.7 86.8-.5 13.6 5.2 22 16.9 25.1 11.8 3.1 13.2 10.9 4.2 23.6 6.6 30.1 30.6 52.2 72 66.4 35.8 12.2 56.8 15.8 63.2 10.6 6.4-5.2 10.7-7.3 13.1-6.4 8 9.4 9.1 23.4 3.2 42-5.9 18.6-3.6 43.2 6.7 73.8 8.5-24.5 19.2-41.4 32.1-50.8s22.9-17.4 30-24c11-9.9 17.1-21.7 18.5-35.3zM231.9 84.4c-5.6 7.5-11.8 8.5-18.4 2.8-7.1-5.2-8-11.1-2.8-17.6 5.2-6.6 11.1-7.3 17.6-2.1 7.6 5.1 8.8 10.8 3.6 16.9zM198 270c-13.2-2.4-25.5-7.2-37.1-14.5-11.5-7.3-22-11.4-31.4-12.4-15.1 4.7-31.4 16.4-49.1 34.9-17.6 18.6-28.7 31.8-33.2 39.5-4.5 7.8-8.6 11.4-12.4 10.9-3.8-.5-6.6 4.5-8.5 14.8C6.7 338.3-2 329.8.4 318c3.8-6.1 9.9-10.6 18.4-13.4 24-20.7 47.3-41.6 69.9-62.8 10.4-16.5 23.3-23.5 38.8-21.2 14.1.9 39.8 5.4 76.9 13.4.5-26.4 3.1-49.5 7.8-69.5 4.7-20 .2-28.6-13.4-25.8-13.6 2.8-24.9 5.9-33.9 9.2-8.9 3.3-16.9-4.5-24-23.3-4.7-1.9-8.5-5.1-11.3-9.5-2.8-4.5.9-9.3 11.3-14.5 8-6.1 20.5-16.5 37.4-31.1 0-10.8 11.1-20.7 33.2-29.6S250 29.3 260.8 35c7.1 0 16.1-6.2 27.2-18.7C299.1 3.8 326.5-1.5 370.2.4 365.6 17.8 357.8 31.7 347 42c16.5-1.4 36.2.5 59.3 5.6C395.9 74 379.4 91 356.5 98.8c-22.8 7.8-39.2 10.2-49.1 7.4 1.9 46.6 6.4 81.9 13.4 105.9 13.6 30.1 37.4 49.2 71.3 57.2s57.5 19.5 70.9 34.6c13.4 15.1 27.9 34.1 43.4 57.2 31.5-2.4 40.5 9.4 26.8 35.3-13.2-5.2-23.3 4.5-30.4 28.9-16.5 31.1-24.5 52.2-24 63.5.5 11.3 7.8 19.5 21.9 24.7 3.8 5.6 5.6 12.2 5.6 19.8 0 6.6-2.1 17.3-6.4 32.1-4.2 14.8-7.5 27.9-9.9 39.2 2.4 11.8-.9 20.7-9.9 26.8-8 11.8-17.6 14.1-28.9 7.1.5-13.2 3.5-24.7 9.2-34.6 12.2-19.8 18.8-37.9 19.8-54.4 1.4-7.1-2.1-15.1-10.6-24s-15.8-20.2-21.9-33.9c-16.9 18.4-28.7 36.9-35.3 55.8-6.6 18.8-15.5 39.3-26.8 61.4-5.6 4.2-6.4 11.5-2.1 21.9-10.4 10.4-21.6 14.1-33.9 11.3-6.6-15.5-4.9-28 4.9-37.4 5.6-7.5 13.6-18.5 24-32.8 10.4-14.4 16.5-32.1 18.4-53.3-13.6-22.6-19.2-42.8-16.6-60.7 2.6-17.9 2.2-32-1.1-42.4-10.8-10.4-34-18.9-69.5-25.8-35.5-6.8-65.5-35.4-90-85.8-12.7 1.4-25.8.5-39.2-2.8-13.4-3.3-24.6-3.8-33.5-1.4-12.7 8.9-24.7 24.9-36 48s-17.8 39.1-19.4 48c-1.6 8.9-4.4 13.8-8.1 14.5-3.8.7-4.9 6-3.5 15.9-20.2 1.4-31.1-3.8-32.5-15.5 1.4-7.1 5.6-12.9 12.7-17.6 16.5-27.8 32-55.3 46.6-82.6 4.7-18.8 15.1-29.4 31.1-31.8 13.6-3.8 33.6-6.4 60-7.8v-.7z"/></svg>