<svg xmlns="http://www.w3.org/2000/svg" viewBox="-10 0 1258.2 905"><path d="M1229.2 905l-17-239q0-5-1.5-15t-2.5-23l-54 1-19 23-316 15-38 9-86-26 41-30 43-24q-7-2-19.5-6.5t-27.5-4.5q-26 0-39 14t-19 32l-21 65-19-4 2-62q1-24-13.5-36.5T587.2 581q-28 0-63 5t-60 10h84l44 82-7 8-85-14-50-19q-6 0-39.5 1t-82 2q-48.5 1-103 3t-103.5 3l-45-12 1-54q23-25 59-37t103-25q23-4 49-9.5t42-9.5l-119-121q-8-7-19.5-22t-16.5-39q-11 13-20.5 26.5T138.2 388q-7 15-20.5 39t-32.5 42.5q-19 18.5-42 18.5-33 0-42.5-16t-10.5-40q-1-15 3-30.5t8-24.5l40-151q1-2 3-20.5t4-34.5l41-70q0-3 1-13.5t2-18.5l-40-57 15-12 42 59 103 2 39-60 16 11-37 58 34 48 63-32q9-4 27.5-14t40.5-21q22-11 40-19t24-8q20 0 30 6t10 25q0 20-19.5 42t-62.5 48l-105 64q7 8 18.5 21.5t24 27q12.5 13.5 21.5 22.5 15 15 39 29t35 12q10-1 28.5-7t32.5-11q53 0 114 1t118.5 2q57.5 1 100.5 3.5t61 5.5q97 16 163 60t103.5 99.5q37.5 55.5 48.5 107.5 5 25 8 48t4 35l16 239zm-667-243l-27-46q-9 0-30-.5t-46-.5q-25 0-46-1h-221q-13 0-24 4.5t-16 12.5l-16-11q8-11 23-18.5t33-7.5h208q15-5 44-12.5t66-14q37-6.5 77-6.5 41 0 54 17.5t17 36.5q7-17 22-33.5t50-16.5q19 0 45 9.5t48 17.5l183 12 22-8 1-7-108-74q-8-5-21-16t-24-27.5q-11-16.5-11-36.5 0-25 20-42.5t55-17.5q23 0 54.5 10t51.5 20l-9 17q-19-9-47.5-18.5t-49.5-9.5q-25 0-40 12t-15 29q0 16 9 29t20 22q11 9 18 13l120 83-9 27-35 15-208-15-44 22-18 14 44 11 34-8 306-13 15-17-92-119q-4-6-8-15t-4-17q0-23 20-27l3 20q-4 0-4 7 0 10 8 20l94 122 51-1-5-22q-9-49-45-101.5t-99-94q-63-41.5-154-56.5-19-3-61.5-5t-98.5-3.5q-56-1.5-115.5-2.5t-110.5-1q-3 1-15.5 5.5t-26 8.5q-13.5 4-22.5 5-10 1-27-6t-34.5-18.5Q373.2 305 362.2 294t-32-35q-21-24-35-41l-23 13-10-15 145-87q26-16 49-37.5t23-36.5q0-12-20-12-4 0-20.5 8t-38 19q-21.5 11-39.5 20.5t-25 13.5l-78 40-47-65-100-1q-1 6-1.5 14.5t-1.5 13.5l-41 70q-1 5-2.5 21.5T61.2 228l-41 155q-4 8-7.5 21t-2.5 27q1 16 7 27t26 11q17 0 32.5-17t27.5-38q12-21 18-34t20.5-33.5q14.5-20.5 32-39t31.5-25.5l8 18q-10 5-19 14 4 30 14 43.5t18 21.5q33 32 65 67.5t67 67.5q11-23 29-51.5t40.5-49q22.5-20.5 47.5-20.5 14 0 24 4t14 8l-12 15q-2-2-9-4.5t-17-2.5q-19 0-38 19t-35.5 46q-16.5 27-28.5 51 2 0-16 3.5t-48 9q-30 5.5-65 12.5-64 11-95.5 22t-50.5 30l-2 28 30 8 327-8 51 19q5 1 23.5 4t34.5 5zm-458-410q-9 0-15-6.5t-6-14.5q0-9 6-15t15-6q9 0 15 6t6 15q0 8-6 14.5t-15 6.5z" fill="currentColor"/></svg>