<svg xmlns="http://www.w3.org/2000/svg" viewBox="0 0 592.8 437.3"><path d="M566.1 437.3c-1.8-5.4-3.2-18.1-4.1-38.1-3.6-44.4-10.9-73.9-21.8-88.4-11.3 1.8-31.6 1.5-60.8-1-29.2-2.5-59.1-1.5-89.7 3.1-30.6 4.5-52.5 3.4-65.6-3.4-5.4 2.7-8.9 6.9-10.5 12.6-1.6 5.7-5.2 8-10.9 7.1-5.7-.9-8.5-5-8.5-12.2 4.1-18.1 1.8-28.8-6.8-31.9-11.8-.9-17 4.5-15.6 16.3-2.3 8.2-8.2 12.7-17.7 13.6-19.9-4.5-88.1-6.3-204.6-5.4-3.6-3.6-3.1-13.4 1.7-29.2 4.8-15.9 13.5-26.1 26.2-30.6 7.3-2.7 19.1-5 35.7-6.8 16.5-1.8 28.7-4.1 36.4-6.8-2.3-10.9-10.4-22.4-24.5-34.7-23.1-19.5-34.9-29.5-35.3-29.9-5.4 1.4-10.3 6.3-14.6 15l-12.6 25.2c-5.9 13.1-14 19.5-24.5 19-11.8 3.6-22.2.5-31.3-9.5-6.3-1.4-8.2-11.6-5.4-30.6C8 177.4 16.4 156 26.4 126.3c10-29.7 17.4-51.5 22.4-65.6-2.3-13.1-4.8-25.8-7.5-38.1-3.6-11.8-2-19 4.8-21.8 6.8-2.7 13.4.9 19.7 10.9C74 29.9 82.6 37.8 91.6 35.5c5.9.9 12-3.5 18.4-13.3s12.5-13.6 18.4-11.6c5.9 2 8 7.5 6.5 16.3-1.6 8.8-3.3 15.3-5.1 19.4 1.8 3.6 6.3 6.8 13.6 9.5C175.9 23.3 212.8 7 254.1 7c2.3 12.7.9 24.9-4.1 36.7-5 11.8-21.1 27-48.3 45.5-20.8 9.5-31.3 18.6-31.3 27.2 19.5 16.3 63 24.1 130.5 23.5 67.5-.7 124.8 6.8 172 22.4s78.4 48.8 93.8 99.6c12.2 31.7 20.8 76.6 25.8 134.6 1.9 28.1-6.9 41.7-26.4 40.8zm-83.6-235.2c-4.1 5.4-9.3 8.2-15.6 8.2-19.5-12.2-32.6-12.2-39.4 0 .9 18.1 10.2 29.5 27.9 34 11.8 2.3 20.6-2 26.5-12.9 7.3-2.3 16.7 4.2 28.2 19.4 11.6 15.2 19.6 23.3 24.1 24.5 4.5 1.1 6.3-1.2 5.4-7.1-.9-5.9-8.6-22.7-23.1-50.3-11.4-10.6-22.7-15.8-34-15.8zm-52.4-20.4c-3.6-11.3-20.1-17.1-49.3-17.3-29.2-.2-58-1.1-86.3-2.7-28.3-1.6-47.5-1.2-57.4 1-2.3 14.5-9.5 30.6-21.8 48.3-12.2 17.7-19.5 28.8-21.8 33.3-32.6 7.7-58.1 12.3-76.5 13.9-18.4 1.6-33.2 8-44.5 19.4-8.6 13.1-7.3 18.8 4.1 17 7.7-9.1 34.4-13.1 80.2-12.2 21.3 0 38.9-3.9 52.7-11.6 13.8-7.7 30-11.6 48.6-11.6 19 0 47.8 4.8 86.3 14.3s68.9 6.8 91.1-8.2c-26.3-29-39.4-47.6-39.4-55.7 3.2-20 14.6-29.3 34-27.9zM233.7 30.8c-20.8-4.1-53.9 14-99.2 54.4-10.9-2.7-16.8-10-17.7-21.8-10.4-9.5-18.1-13.4-23.1-11.5-8.2-1.8-13.4-2-15.6-.7-5.9 7.3-10.4 19.5-13.6 36.7-5.4 10-13.8 29.7-25.1 59.1-13.1 34.9-19.9 52.8-20.4 53.7 1.8 7.7 7.5 11.6 17 11.6 6.8 0 11.2-5.2 13.3-15.6 2-10.4 8.3-21.1 18.7-31.9 14.5-15 26.3-28.1 35.3-39.4 5-9.1 7.8-7.4 8.5 5.1.7 12.5 1.7 23.5 3.1 33l36 32.6c14.5 10.4 22.7 15.6 24.5 15.6 14-1.8 24.2-13.1 30.6-34-2.7-8.6-13.7-18.9-33-30.9s-30.5-27.5-33.6-46.6c62.8-34.5 94.3-57.6 94.3-69.4zm-149.5 87c-5.4 6.8-11.3 7.5-17.7 2-6.8-5-7.7-10.6-2.7-17 5-6.3 10.6-7.3 17-2.7 7.2 5.5 8.3 11.3 3.4 17.7z"/></svg>