<svg xmlns="http://www.w3.org/2000/svg" viewBox="-10 0 1288 854"><path d="M589 854l-37-28-29-2-287 27-37-8-8-59 29-34 147-59-46-54-45-78-29-26q-4 8-9.5 16.5T223 566q-10 8-24 17.5T175 599q-2 2-16.5 15.5t-36 26Q101 653 79 654q-30 1-46.5-16T12 605v-22q7-18 14-41.5T39 496q6-22 8-36 3-21 7.5-48t6.5-43q3-6 11-16.5T92 333q-15-14-26-33t-21-51q-4-17-7-36t-6-40q-5-34-12.5-76T-10 0h43q31 49 43.5 90T96 166q5 20 9 37.5t11 31.5q10 20 26.5 36.5T176 301q26-1 40 0 19-4 43-17.5t46-30q22-16.5 33-28.5 37-40 73-78.5T487 86l16 39q-26 22-42 44t-31 45q-19 28-43 58.5T336 324q12 4 24 7.5t24 7.5q42 15 90 28 31 9 67 18.5t67 15.5q31 6 49 5 67-8 133-16t121-13q55-5 88-5 30 0 67.5 6t71 22.5Q1171 417 1189 448q10 17 17.5 41.5t12 49q4.5 24.5 5.5 41.5 2 26 8.5 56t11.5 48q7 21 20.5 44t13.5 49q0 10-1.5 29t-4.5 30l-15 2q-16-17-28-43t-12-48q0-11-1-24.5t4-35.5q-5-17-11-45t-7-52q-1-7-4-26.5t-8-42.5l-30 77-8 49 2 38q1 11 6 26.5t16 22.5q19 12 30 28.5t15 27.5l-18 53h-84q-20-5-46-9.5t-40-3.5q-14 1-34 5t-34 8l-29-1-11-14-12 4q-2 4-4 10.5t-3 10.5H792l28-66 70-13 50 2-33-47h-33l-51.5.5q-51.5.5-52.5.5-31 0-74.5-6t-87-14.5Q565 701 532 694l3 19-24 33-172 35 106-9 89-22 13 19 16-8 29-25 82 115zM111 321q13-8 36-14-16-12-27-27.5T99 244q-8-15-13-34.5T76 169q-7-34-18.5-75T24 18h-6q15 41 22 81t11 71q3 21 5.5 40t7.5 33q8 28 20.5 46.5T111 321zm711 515l70-3q1-4 3-10t4-10l32-3 12 14h20l30-7.5 38-6.5q12-1 30.5 2t35 6.5q16.5 3.5 24.5 5.5 3 0 26 1t44 2l9-36q-2-5-10-17t-24-24q-17-11-24.5-31t-7.5-33l-3-40 10-53 35-96q1-30-15-50.5t-43-32.5q-27-12-58.5-17t-60.5-5q-32 0-86.5 5T792 409.5Q726 417 659 426q-18 1-50-5t-69.5-16Q502 395 469 386q-22-7-44.5-13.5T378 358q-16-5-31.5-10.5T315 337q-6 4-11.5 8t-7.5 6l14 1 44 43-64 26-44-14 6-19 36 12 30-12q-5-5-8.5-9t-9.5-9q-7-1-15-2t-15-2q-7 4-13 7.5t-8 4.5l-10-18 28-13q44-22 78-58t69-85q8-12 21-30t40-45l-4-10q-43 29-66.5 58.5T357 235q-27 31-57 50.5T235 322q-12-1-24.5-1.5t-24.5.5q-51 3-76 20.5T80 374l1-1q-3 16-7 42.5T67 463q-2 14-8 36t-14 45q-8 23-14 42l1 19q1 4 8 14.5T66 634q6-11 18.5-26t21.5-20l12 14q-17 14-30 32 19-5 40.5-21t34.5-29q9-5 22.5-14.5T210 551q13-10 23.5-34.5T243 476h19q1 2 0 16.5t-5 20.5l35 34 45 79 12 14-15-55-1-78h19l2 80 25 91 18 21-164 67-20 22 5 39 20 5 286-27 35 4 36 26 40-2-47-68-16 13-29 6-16-13-77 17-126 8-4-24 181-44 14-20-7-41-6-71 18-82 20 4-18 81 6 74q31 8 71.5 17t85 15q44.5 6 85.5 6 16 0 42.5-.5t54.5-1q28-.5 51-.5l41 63q2 0 25.5-2t73.5-5q-15-18-39-52t-44.5-77.5Q954 592 948 545l20-2q5 39 22.5 77.5t39.5 72q22 33.5 40.5 57.5t26.5 33l-146 9-57-2-55 11q-3 6-8 17t-9 18zM126 476l-17-28 4-16 57-32 9 17-31 23-5 28z" fill="currentColor"/></svg>