<svg xmlns="http://www.w3.org/2000/svg" viewBox="0 0 558.4 594.5"><path d="M470.5 268.9c-11.6 1.2-25.6 5.5-41.8 12.8-16.3 7.3-34.3 18.3-54 32.9 1.2 3.7 9.6 5.5 25.3 5.5h36.6c8.7 0 15.1-3.4 19.2-10.1 4.1-6.7 7-11.9 8.7-15.5.5-1.1.6-1.6.3-1.6-.7 0-3.7 3-9 9-6.6 7.5-15 11.2-25.2 11.2-1.5 0-2.9-.1-4.5-.2-12.2-1.2-14.5-5.5-7-12.8 7.6-7.4 24.7-17.8 51.4-31.2zm19.2-14.6c-11.6 48.8-27.9 73.8-48.8 75-7 .4-13.7.6-20.1.6-12.9 0-24.8-.8-35.6-2.4-11.6 0-19.8 4.3-24.4 12.8l-10.5-14.6 10.5-7.3c1.1-20.8 44.1-42.2 128.9-64.1zm-197.4 96.9l-14 6.6c.9-2.6.7-4.8-.7-6.6h14.7zm-14 6.6zm-22.1-6.6c-2.3 6-.6 10.9 5 14.5l-12 5.6-8.7-20.1h15.7zm-1.4-17c-11.9 0-22.5.8-31.8 2.4 2.3 15.9 6.7 29.6 13.1 41.2 6.4 11.6 14.8 23.5 25.3 35.7 10.5 12.2 15.7 28.7 15.7 49.4h8.7c1.2-25.6-6.4-51.8-22.7-78.7 25.6-7.3 51.7-20.7 78.4-40.2-34-6.6-62.9-9.8-86.7-9.8zm55.4-79.9c13.9 11 21.5 28.7 22.7 53.1l-8.7 7.3 17.4 29.3c6.8 8.7 13.5 13 20.3 13 3.7 0 7.4-1.3 11.1-3.9 6.6-4.6 15.4-6.9 26.4-6.9 6.4 0 13.6.8 21.5 2.4 7.2 1.4 13.7 2.1 19.5 2.1 11.6 0 20.5-2.8 26.7-8.5-3.4 140.8-25.6 160-151.7 161.7-15.5 0-32.3-.2-50.5-.7-1.2 34.1-12.2 51.8-33.1 53.1-5.7-4-12.4-6-20.2-6-6.5 0-13.7 1.4-21.6 4.2-26.7-6.1-40.1-18.9-40.1-38.4 6.4-8.6 11.1-12.9 14.3-12.9.9 0 1.6.3 2.3 1 2.9 3 2.6 5.8-.9 8.2-3.5 2.4-4.6 7.9-3.5 16.5 1 7.5 5.6 11.2 13.7 11.2 1.2 0 2.4-.1 3.7-.2 10.5-1.2 17.1-8.5 20-22 2.9-13.4-4.9-25.6-23.5-36.6 22.1-65.9 33.7-117.1 34.9-153.7 16.7-4.9 33.5-7.4 50.2-7.4 20.4 0 40.9 3.7 61.3 11.1V322c-23.8-10.8-46.6-16.3-68.3-16.3-10 0-19.8 1.2-29.3 3.5 8.1-12.2 15.1-28.7 20.9-49.4 8.4 2.9 16.8 4.4 25.4 4.4 12.8 0 25.9-3.3 39.1-9.9zM515.8 0c0 56.1-11 100.9-33.1 134.5-22.1 33.5-72 63.7-149.9 90.6-8.4-1.9-15.8-2.8-22.2-2.8-10.4 0-18.1 2.5-23.1 7.4-4.2 4.1-9.5 6.2-15.7 6.2-5.8 0-12.4-1.8-20-5.3-7.8-3.7-14.4-5.5-19.8-5.5s-9.5 1.8-12.4 5.5C101.1 186.6 43 117.7 45.3 23.8c-4.4-11-9.4-16.5-15-16.5-1.9 0-3.8.6-5.9 1.8C8.1 21.3 0 43.9 0 76.8c0 30.5 11.9 69.8 35.7 118C59.5 243 104 281.7 169 311c-2.3 19.5-2.9 34.8-1.7 45.7 1.2 11-8.7 50-29.6 117.1-18.6 14.6-27.9 31.1-27.9 49.4 0 18.3 3.5 30.5 10.5 36.6 0 23.2 40.1 34.8 120.2 34.8 16.3-1.2 30.8-16.5 43.6-45.7l2.2-8.3C485.2 543.7 509 484 503.6 311l26.1-86-54 14.6c60.4-52.4 87.7-105.5 81.9-159.2C551.9 26.8 544.3 0 535 0h-19.2z"/></svg>