<svg xmlns="http://www.w3.org/2000/svg" viewBox="-10 0 597 712"><path d="M113 712q-22 0-49.5-10.5t-49-33Q-7 646-10 612v-69q14-9 31-20t20-14q4-3 12-12 10-8 22.5-20T99 455q10-8 19-14t17-11q7-4 12-7t6-5l30-49q-21-12-46.5-29T87 298.5q-24-24.5-39.5-59T32 159q0-21 6.5-48t17-52.5q10.5-25.5 23-42T103 0q18 0 18 20 0 12-9.5 43t-9.5 73q0 38 19.5 69t50 55q30.5 24 64.5 40 10-7 24.5-10.5T298 284q22-1 41.5 3.5T376 300q37-30 64-67t42.5-75Q498 120 498 87q0-13-.5-28t-.5-31q0-10 3-19t11-9q14 0 26 18.5t18.5 47Q562 94 562 126q0 68-21.5 117.5T484 326q12-4 25-6t28-2h9l9 1q0 28-7 48 17 7 28 16t11 18q0 15-12 46.5T545 516q-18 37-39 68t-39 46q-29 24-64 38t-55 14q-20 0-40.5-2.5T265 677q-4 0-17 3.5t-29 8.5q-26 7-56 15t-50 8zm0-19q16 0 45-7.5t55-15.5q17-5 31.5-8.5T265 658q20 0 40 2t43 2q18 0 49.5-12.5T455 616q17-15 36.5-44.5t36.5-64q17-34.5 28-64t11-42.5q0-6-25-18-14 29-43.5 39T430 434l-1-20q26-1 49-6.5t38.5-21.5q15.5-16 18.5-48-76 3-131 63l-14-13q7-8 14.5-15t16.5-15l-4-10q56-30 91-83.5T543 126q0-38-8.5-68.5T514 19q2 13 2.5 30t.5 30q0 79-39 136t-97 105q-6 5-16 16t-8 27h-20q-2-24 8-36t12-13q-14-5-28-8t-30-2q-34 2-46.5 10T229 335q-8 10-22.5 33T182 408l-13 22q-3 3-9.5 7.5T146 447q-8 5-18 11.5T112 470q-11 10-23.5 21.5T67 511l-13 13q2-2-13.5 8.5T9 554v42q27 34 54.5 46.5T119 655q9 0 21-.5t32-2.5v20q-37 3-53 3-29 0-54-8.5T14 630q13 32 44.5 47.5T113 693zm80-340q6-10 12-18.5t10-12.5l6-8q-34-15-66-41.5t-52.5-61Q82 177 82 138q0-32 7.5-64T104 20q-10 2-22 26t-21 55.5Q52 133 52 159q0 42 14.5 74t36.5 54.5q22 22.5 46 38.5t44 27zm91 139q-20 0-33-9-4 4-4 5l-15-10q8-13 22.5-26.5T284 438q19 0 32.5 16t18.5 32l-18 6-3-7q-12 7-30 7zm0-19q13 0 21-4-4-5-9-9t-12-4q-5 0-11 4t-10 9q7 4 21 4zM87 635q-15 0-24-10t-9-17q0-13 8.5-20t17.5-7h17v18q-18 0-18 9 0 4 3.5 7.5T97 619v16z" fill="currentColor"/></svg>