<svg xmlns="http://www.w3.org/2000/svg" viewBox="0 0 221.8 594.5"><path d="M111.9 524.4h49.7c0-20.3-8.2-30.5-24.5-30.5-16.8 0-25.2 10.2-25.2 30.5zm21.2-407.2l4 6c1.3-3.1 4.4-4.6 9.3-4.6 6.2.4 13.1.6 20.9.3 7.7-.2 14-9.2 18.9-26.8-32.2 7.5-48.6 15-49 22.5l-4.1 2.6zm-32.5 64.9c36.2.9 57.5-3.8 63.9-13.9 6.4-10.2 10-24.9 10.9-44.4-3.5 3.1-9 3.9-16.6 2.3-7.5-1.5-13.4-1-17.5 1.7-4.2 2.6-8.1 1.3-11.6-4-10.2 7.5-20.1 12.4-29.8 14.6 6.2 10.2 9 19.9 8.6 29.1h-3.3c0-7.5-2-13.6-6-18.2s-7.2-8.9-9.6-12.9-4.1-9-5-15.2c10.2-1.3 25.2-.2 45 3.3l-6.6-11.3 3.3-2c-.4-8.8-3.3-15.2-8.6-19.2-8.4 4-16.8 4.4-25.2 1.3-1.8 7.9-4.2 14.1-7.3 18.5 11.5-2.6 23.8-1.1 37.1 4.6v3.3c-14.1-4.9-28.2-5.3-42.4-1.3-.9 12.8-5.3 31.3-13.2 55.6 7.1 4 10 8.3 8.9 12.9-1.1 4.6-3.6 7.2-7.6 7.6-4 .4-6.2-.8-6.6-3.6-.4-2.9 0-4.7 1.3-5.6 1.3-.9 1.4-1.9.3-3-1.1-1.1-3.2.3-6.3 4.3 0 6.6 5.1 11.3 15.2 13.9 6.6-2.2 11.9-2.2 15.9 0 8.2.1 12.4-6.1 12.8-18.4zm-9.2-55.6l3.3 7.9 17.9-7.9-.7.7-20.5-.7zm87.4-29.8c-4.9.9-10.3 2.6-16.2 5.3-6 2.6-12.7 6.6-20.2 11.9.4 1.3 3.6 2 9.6 2s10.6-.1 13.9-.3c3.3-.2 5.7-1.4 7.3-3.6 1.5-2.2 2.5-4 3-5.3.4-1.3-.7-.6-3.3 2.3-2.6 2.9-6.3 4.1-10.9 3.6s-5.5-1.9-2.6-4.3c2.7-2.5 9.2-6.3 19.4-11.6zm-75.5 29.1c2.2.9 2.6 2.4 1.3 4.6-.9 2.2-2.6 2.9-5.3 2-2.6-1.3-3.3-3.1-2-5.3 1.3-2.2 3.3-2.6 6-1.3zm4.6 72.2c-5.3 10.6-10.8 16.3-16.6 17.2-30.5 0-45.7-4.2-45.7-12.6-2.6-2.6-4-7.3-4-13.9 0-6.2 3.3-12.1 9.9-17.9C60 147 64 133.1 63.6 129.1c-.4-4-.2-9.5.7-16.6-24.7-10.6-41.6-24.6-50.6-42S0 38.6 0 27.1 3.1 7.7 9.3 3.3c3.1-1.8 5.5-.2 7.3 4.6-.4 34 21.8 59.1 66.9 75.5 2.2-2.6 6.3-2.8 12.2-.3 6 2.4 10.5 2.3 13.6-.3 3.1-2.6 8.8-3.1 17.2-1.3 29.6-9.7 48.4-20.6 56.6-32.8 8.2-12.1 12.2-28.4 12.2-48.7h7.9c3.5 0 6.4 9.7 8.6 29.1s-8.2 38.6-31.1 57.6l20.5-5.3-9.9 30.5c0 33.1-4.5 55.7-13.6 67.9-9 12.1-19.5 18.2-31.4 18.2v272.1c25.6 10.2 38.4 28 38.4 53.6h37.1v24.5h-36.4c-8.8 30.9-21.6 46.3-38.4 46.3l13.9-46.3h-49l12.6 46.3c-16.8 0-28.7-15.4-35.8-46.3H51.6v-24.5h37.1c0-25.2 11.9-43 35.8-53.6V198h-16.6z"/></svg>