<svg xmlns="http://www.w3.org/2000/svg" viewBox="-10 0 319 1003"><path d="M136 1003q-7-5-22-22t-18-40H10v-19h86q3-22 16.5-35t25.5-19V358q-3 1-9 2.5t-13 3.5q-13 4-28.5 8T63 376q-12 0-28.5-7t-30-20Q-9 336-10 318v-44q9-4 20-10t12-8q5-4 14-13t15-14q6-5 12-8.5T80 210l7-14q-14-8-31.5-23.5t-30.5-38Q12 112 12 82q0-14 6.5-33.5t16.5-34Q45 0 57 0q4 0 10 2.5t6 8.5q0 6-4 22t-4 37q0 29 15.5 46.5T123 147q4-4 14-6.5t18-2.5q14 0 21 2.5t12 6.5q29-23 46-50t17-52V15q0-5 6-10t10-5q16 0 25.5 20.5T302 65q0 35-11.5 58T262 162q10-2 18-3t18 0q1 15-3 31t-11 22q5 8 5.5 18t.5 20q0 46-32.5 71T185 353v515q12 6 25.5 19t16.5 35h82v19h-82q-3 23-17.5 40t-22.5 22l-20-12q7-12 12.5-24.5T187 941h-50q2 13 7 25.5t13 24.5zM99 177q4-5 5-7t5-7q-26-13-44.5-37.5T46 71q0-17 2.5-29.5T55 18q-9 4-17 24t-8 40q0 29 11.5 47.5T69 159q16 11 30 18zM63 357q8 0 22.5-4t27.5-8q9-2 16.5-4t10.5-2q30 0 60.5-8t51-28.5Q272 282 272 245q0-8-2-14.5t-4-10.5q-16 9-41 10v-17q20 0 36-7t17-32q-39 2-66 32l-8-6q4-4 6.5-10t7.5-10l-3-4q29-16 48.5-41T283 76q0-20-4.5-36T269 20q1 7 1 15.5V52q0 40-20 64t-50 49q-3 2-8.5 8t-4.5 14h-18q-1-12 3.5-18t5.5-7q-4-2-8.5-3.5T158 157q-14 0-23 5t-14 11q-4 5-12 18.5T90 222q-5 6-13 10t-15 10q-13 10-31 28 1-1-7 4.5T8 286v18q14 18 28 24t29 6q3 0 11.5-.5T92 333v13q-8 1-15.5 1.5T65 348q-15 0-27.5-4.5T11 325q7 16 22.5 24t29.5 8zm87-100q-5 0-9.5-1.5T132 252q-2 2-2 4l-11-4q4-9 12-18.5t19-9.5q13 0 20 10t9 20l-12 3-2-4q-3 1-6.5 2.5T150 257zm0-13q8 0 11-2-5-7-11-7t-11 7q3 2 11 2zM48 325q-17 0-17-15 0-7 5-11.5t12-4.5h7v11q-11 0-11 5 0 4 11 4v11zm63 597h12q3-16 15-24t24-8q11 0 23 8t16 24h11q-4-22-19-32t-25-12V356q-3 1-6 1h-6v521q-10 2-25.5 12T111 922zm27 0h47q-3-8-10-13t-13-5q-7 0-14 5t-10 13zm-3 63l4-2q-5-10-10.5-19.5T122 941h-12q3 19 12 30t13 14zm54 0q3-3 12.5-14t11.5-30h-12q-2 13-7 22.5T184 983z" fill="currentColor"/></svg>