<svg xmlns="http://www.w3.org/2000/svg" viewBox="-10 0 316 1004"><path d="M167 1004V373h-18l-79 37q-11 5-30.5.5T5 396.5Q-10 387-10 377q0-6 13.5-30t33-54.5Q56 262 74 234q6-9 11.5-16.5T96 204q-11-12-23-35t-16-49q-1-6-1.5-13T55 93q0-13-1-24t-4-16q-5-7-15-16.5T18 22L30 0q11 2 31 11t29 32q7 17 11 38t5 32q1 9 10 29t22 35q13-3 30-3 4 0 9 .5t10 1.5q13-15 21.5-34.5T218 113q1-11 4.5-32T233 43q10-23 29.5-32T294 0l12 22q-7 5-17 14.5T274 53q-3 5-4 16t-1 24q0 7-.5 14t-1.5 13q-2 12-6 23l-8 22h53q-4 25-21 41t-36 26q5 10 9 21t4 22q0 21-6 42t-12 33v654zm48-814q14-14 24-32t12-40q1-6 1.5-12t.5-13q0-15 2-28t7-21q5-7 12.5-14T286 20l-1-3q-6 2-17 8t-19 25q-7 16-10.5 36t-4.5 30q-1 10-9 29t-20 35q6 4 10 10zm-106 1l6-4 6-4q-14-17-22-37t-9-30q-1-10-4.5-30T75 50q-8-19-19-25t-17-8l-1 3q4 3 11.5 10T62 44q5 8 7 21t2 28q0 7 .5 13t1.5 12q2 25 14 43.5t22 29.5zm77 794h40V347q3-7 10.5-27.5T244 275q0-16-12-35-8 3-13.5 5t-7.5 2l-5-16q11-3 26.5-10.5t29-18Q275 192 279 182h-27l-49 43-12-13 11-10q-6-6-16.5-7.5T168 193q-21 0-33 4t-22 14.5Q103 222 90 244q-17 26-35.5 54t-31 49.5Q11 369 11 373q0 5 11.5 12t24.5 8l21-25 11 10-11 13q11-5 34.5-16t42.5-20h24l15-23 14 9-12 21zm-65-696l-12-5q4-9 13-18.5t19-9.5q14 0 21 10t8 20l-13 3-1-4q-3 1-7 2.5t-8 1.5q-6 0-10-1.5t-8-2.5q-2 2-2 4zm20-13q8 0 10-1-4-7-10-7-5 0-11 6 2 2 11 2zM32 373l-8-9q2-4 6.5-8t9.5-4q7 0 11 3.5t5 6.5l-8 9q-3-5-8-5-2 0-4.5 2.5T32 373z" fill="currentColor"/></svg>