<svg xmlns="http://www.w3.org/2000/svg" viewBox="0 0 241.4 594.5"><path d="M87 176.5v-1.3c2.7-13 12.8-19.6 30.3-19.6 6.3.4 9.4 1.6 9.4 3.4v1.3c0 6.3-9.2 13.3-27.6 20.9-6.3 0-10.3-1.6-12.1-4.7zm105.8 70.1c11.2-34.2 12.1-60.7 2.7-79.6l-11.5 6.1-13.5-5.4c24.3-17.1 38-33 41.1-47.9-18.9 9.4-28.3 16-28.3 19.6-6.7 13.9-17.8 22.3-33 24.9 8.1-6.7 12.1-13.3 12.1-19.6 0-6.7-9.9-10.8-29.7-12.1s-31.9.1-36.4 4.4c-4.5 4.3-13.9 17.9-28.3 40.8l-29.7 37.8c-1.8 9 2.2 15.7 12.1 20.2 30.6-13 51.2-19.6 62-19.6 27.9 0 46.3 10.3 55.3 31v323h24.9V246.6zm-49.2 347.9V260.8c-5.8-13.5-17.1-20.2-33.7-20.2-28.3 8.1-49.4 13.9-63.4 17.5-17.1-5.8-25.6-13.7-25.6-23.6-12.1-8.1-13-16.2-2.7-24.3 10.3-8.1 19.2-19.9 26.6-35.4 7.4-15.5 15.4-29.3 23.9-41.5C22.9 75.4 0 35.6 0 14c.9-4 2-6.1 3.4-6.1C7 10.2 13.9 20.3 24.3 38.3c9.4 15.3 26.1 34.2 49.9 56.6 16.2 11.2 30.3 16.9 42.5 16.9 12.1 0 22.9-4 32.4-12.1 24.3-18 51.5-49.7 81.6-95.1 4.5-5.8 8.1-6.1 10.8-.7-3.1 15.3-13.7 36.3-31.7 63-18 26.7-31 42.4-39.1 46.9l11.5 8.8c9.4-8.5 23.6-15.5 42.5-20.9 2.7 19.8-1.6 35.7-12.8 47.9 14.4 24.3 16 61.4 4.7 111.3v333.8h-73z"/></svg>