<svg xmlns="http://www.w3.org/2000/svg" viewBox="-10 0 359 1006"><path d="M229 1006V306q-33-2-77.5-7.5t-87.5-18Q21 268-10 248v-34q36 0 71.5-4t65.5-26q15-11 37-26t50-22L233 3h23l23 86q5-13 7-40.5T287 0h25q7 16 15 43.5t8 51.5q0 19-5 35.5T319 160q30 27 30 59 0 25-16 49.5T285 303v703zm18-19h20V288q32-4 47.5-25.5T330 219q0-22-20-42-7 12-10 15l-15-12q31-36 31-85 0-21-5.5-41T301 23q2 12 2 35t-7 38q-5 11-12 24.5T258 165l-15-12 1-1h-1q-32 0-60 16.5T139 198q-26 21-59.5 25.5T8 230v7l10 6h97v-9h13v31h-13v-9H48q33 12 70 19t71 10q34 3 58 3zm10-853q3-4 5.5-9t4.5-10l-20-75-13 93h16l7 1zm-52 76q-12 0-22-10 4-4 9.5-10t12.5-6q17 0 17 13 0 8-6 10.5t-11 2.5z" fill="currentColor"/></svg>