<svg xmlns="http://www.w3.org/2000/svg" viewBox="0 0 595.3 470.5"><path d="M328.1 446.7c.5-19 16.3-34.4 47.4-46.2 31.1-11.8 57.9-30.9 80.5-57.4 22.6-26.4 36.8-59.8 42.7-100.1s14-85.9 24.3-136.7c-16.9 55.4-28.1 98.4-33.5 129-5.4 30.5-17.2 57.9-35.4 82s-42.6 41.5-73.2 52c-30.5 10.5-58.1 27.6-82.8 51.2-25.2-23.6-53-40.7-83.6-51.2-30.5-10.5-54.9-27.9-73.2-52-18.2-24.1-30-51.5-35.4-82-5.4-30.5-16.6-73.5-33.5-129 10.3 50.8 18.4 96.4 24.3 136.7 5.9 40.3 20.2 73.7 42.7 100.1 22.6 26.4 49.4 45.6 80.5 57.4 31.1 11.8 46.8 27.2 47.4 46.2h60.8zm-77.8 23.8c-2.6-25.7-16-42.5-40.4-50.4-24.4-8-49.2-23.7-74.3-47.4-25.2-23.6-41.5-51-48.9-82-7.4-31.1-13-72.8-16.6-125.1S43.1 58 0 0h4.6c25.7 28.8 47.6 53.6 65.8 74.7 18.2 21 33.9 64.8 47 131.3 13.1 66.5 40.3 109.6 81.6 129.4 41.3 19.8 74.3 36.3 99 49.7 24.1-13.3 56.9-29.9 98.2-49.7 41.3-19.8 68.5-62.9 81.6-129.4 13.1-66.5 28.7-110.3 47-131.3C543 53.6 565 28.8 590.7 0h4.6c-43.1 58-66.5 113.2-70.1 165.6-3.6 52.4-9.1 94.1-16.6 125.1-7.4 31.1-23.7 58.4-48.9 82s-49.9 39.4-74.3 47.4-37.9 24.8-40.4 50.4h-94.7z"/></svg>