<svg xmlns="http://www.w3.org/2000/svg" viewBox="-10 0 1030 812"><path d="M379 812q0-23-11.5-47.5T337 726q-5-4-13-9t-18-10q-21-13-48-29t-50-35q-23-19-36-41-19-32-32.5-85.5t-22.5-112Q108 346 102 298q-3-20-5.5-36T92 234q-8-52-32-105T-10 22L26 0q60 54 88 106t40 102q3 12 7 32t9 44q6 35 14.5 76.5t18 81q9.5 39.5 19 69T240 551q18 22 50.5 37.5T356 613q33 9 54 13 35 7 59.5 17.5T505 671q11-17 35-27.5t60-17.5q21-4 54-13t65-24.5q32-15.5 51-37.5 9-11 18.5-40.5t19-69q9.5-39.5 18-81T840 284q5-24 9-44t7-32q12-50 40-102T983 0l37 22q-46 54-70 107t-32 105q-2 12-4.5 28t-5.5 36q-6 48-15 106.5t-22.5 112Q857 570 838 602q-13 22-36 41t-50 35q-27 16-48 29-10 5-18 10t-14 9q-18 14-30 38.5T630 812zm20-19h96v-89q-1-20-22-35t-66-23q-22-4-57.5-13.5t-70-26.5Q245 589 225 564q-11-14-21.5-45T183 448.5q-10-39.5-18-82T150 288q-5-25-8.5-44t-6.5-32q-12-49-36-95.5T25 23l-5 4q40 50 61.5 100.5T112 230q2 12 4.5 29t4.5 36q5 35 11.5 77.5t14.5 85q8 42.5 18.5 78T189 592q11 18 33 36.5t47.5 34Q295 678 316 690q10 6 18.5 11.5T349 710q22 16 35 38t15 45zm116 0h96q2-23 15-45t35-38q6-3 14.5-8.5T694 690q21-12 46-27.5t47.5-34Q810 610 821 592q13-21 23.5-56.5t18.5-78q8-42.5 14.5-85T889 295q2-19 4.5-36t4.5-29q9-52 30.5-102.5T990 27l-6-4q-49 47-73 93.5T875 212q-3 13-6.5 32t-8.5 44q-7 36-15 78.5t-18 82Q817 488 806.5 519T785 564q-20 25-54.5 42t-70 26.5Q625 642 603 646q-46 8-67 23.5T515 706z" fill="currentColor"/></svg>