<svg xmlns="http://www.w3.org/2000/svg" viewBox="-10 0 1169 728"><path d="M-10 728V563h158q89 0 169-35t163-101q-11-12-22-24.5T437 378q-50-58-98.5-109.5T240 182q-32-23-56.5-38.5t-47-28Q114 103 88.5 91T28 64Q14 58 4.5 49.5T-5 25Q-5 11 9 5.5T45 0q21 0 53.5 9T168 33q37 15 72.5 34.5T304 108q79 59 144.5 121T574 346q60-56 125.5-117.5T844 108q38-28 87.5-52.5t96.5-40Q1075 0 1104 0q21 0 35.5 5.5T1154 25q0 16-10 24.5T1120 64q-35 15-60 27t-47.5 24.5q-22.5 12.5-47 28T909 182q-51 35-99 87t-98 109l-43 49q82 66 162.5 101t169.5 35h158v165H976q-80 0-150.5-27T693 628.5Q631 583 574 528q-56 55-118.5 100.5T323 701q-70 27-150 27zm986-20h163V583h-138q-95 0-178.5-38T661 444q-78-63-157-137-48-46-99-93t-109.5-89Q237 83 169 54q-38-17-71-26t-61-9q-10 0-16.5 2T14 27q0 8 6.5 12T36 47q47 20 79 36t63 35q31 19 73 47 54 38 105.5 93.5t105 119Q515 441 573 501q56 57 119 104t134 75q71 28 150 28zM654 415q63-72 122.5-139T898 165q42-28 73-47t63-35q32-16 78-36 9-4 15.5-8t6.5-12q0-8-23-8-28 0-60.5 9T980 54q-69 29-127 71t-109 89q-51 47-99 93-14 14-28.5 26.5T588 359q13 11 27.5 23.5T654 415zM9 708h164q76 0 144-26t129-69.5Q507 569 561 516q-17-18-34.5-36.5T492 442q-79 62-163.5 101.5T148 583H9z" fill="currentColor"/></svg>