<svg xmlns="http://www.w3.org/2000/svg" viewBox="0 0 560.1 594.4"><path d="M68.1 252.4c9.2 47.3 16.7 90 22.5 127.9 5.8 37.9 19.3 69.3 40.6 94.2 21.3 24.9 46.5 42.9 75.7 54 29.2 11.1 44.1 25.6 44.6 43.5h28.3v-24.6c-23.2-22.2-49.3-38.3-78.3-48.2-29-9.9-51.9-26.2-68.8-48.9s-27.9-48.4-33-77.2c-5.1-28.8-15.6-69-31.6-120.7zm167.4 342c-2.4-23.7-15.1-39.4-38-47.1-22.9-7.7-46.3-22.7-69.9-44.9-23.7-22.2-39.1-47.9-46.4-77.2C74 396 68.6 356.7 65.3 307.4 61.8 258.2 40.1 206.2 0 151.7h3.6c24.6 27.5 45.5 51.2 62.7 71 17.1 19.8 31.8 60.9 43.8 123.2 12.1 62.3 37.6 102.8 76.4 121.4 38.9 18.6 69.9 34.2 93.1 46.7v80.4h-44.1c-2.4-23.7-15.1-39.4-38-47.1-22.9-7.7-46.3-22.7-69.9-44.9-23.7-22.2-39.1-47.9-46.4-77.2C74 396 68.6 356.7 65.3 307.4 61.8 258.2 40.1 206.2 0 151.7h3.6c24.6 27.5 45.5 51.2 62.7 71 17.1 19.8 31.8 60.9 43.8 123.2 12.1 62.3 37.6 102.8 76.4 121.4 38.9 18.6 69.9 34.2 93.1 46.7v80.4h-44.1zm44.2-22.5v-24.6c-23.2-22.2-49.3-38.3-78.3-48.2-29-9.9-51.9-26.2-68.8-48.9s-27.9-48.4-33-77.2c-5.1-28.7-15.6-69-31.5-120.7 9.2 47.3 16.7 90 22.5 127.9 5.8 37.9 19.3 69.3 40.6 94.2 21.3 24.9 46.5 42.9 75.7 54 29.2 11.1 44.1 25.6 44.6 43.5h28.2zm29.7 0c.5-17.9 15.2-32.4 44.2-43.5 29-11.1 54.2-29.1 75.7-54s35-56.3 40.6-94.2c5.6-37.9 13.2-80.6 22.8-127.9-16.4 51.7-27.1 91.9-31.9 120.7-4.8 28.7-15.8 54.5-33 77.2-17.1 22.7-40.2 39-69.2 48.9-29 9.9-55.1 26-78.3 48.2v24.6h29.1zm-29 22.5V514c23.2-12.6 54.2-28.1 93.1-46.7 38.9-18.6 64.4-59.1 76.4-121.4 12.1-62.3 26.7-103.4 43.8-123.2 17.1-19.8 38-43.5 62.7-71h3.6c-40.1 54.6-61.8 106.5-65.2 155.8-3.4 49.3-8.7 88.5-15.9 117.8-7.2 29.2-22.7 55-46.4 77.2-23.7 22.2-46.9 37.2-69.6 44.9-22.7 7.7-35.5 23.4-38.4 47.1h-44.1V514c23.2-12.6 54.2-28.1 93.1-46.7 38.9-18.6 64.4-59.1 76.4-121.4 12.1-62.3 26.7-103.4 43.8-123.2 17.1-19.8 38-43.5 62.7-71h3.6c-40.1 54.6-61.8 106.5-65.2 155.8-3.4 49.3-8.7 88.5-15.9 117.8-7.2 29.2-22.7 55-46.4 77.2-23.7 22.2-46.9 37.2-69.6 44.9-22.7 7.7-35.5 23.4-38.4 47.1h-44.1zm212.3-342c-16.4 51.7-27.1 91.9-31.9 120.7-4.8 28.7-15.8 54.5-33 77.2-17.1 22.7-40.2 39-69.2 48.9-29 9.9-55.1 26-78.3 48.2V572h29c.5-17.9 15.2-32.4 44.2-43.5 29-11.1 54.2-29.1 75.7-54s35-56.3 40.6-94.2c5.7-37.9 13.3-80.6 22.9-127.9zM408 22.7c-2.4 5.8-7.7 7-15.9 3.6-38.6-9.7-65.1-9.2-79.3 1.4-14.3 10.6-21.4 34.1-21.4 70.3v433.3h-22.5v-184c-34.8.5-52.2-16.4-52.2-50.7.5-32.8 17.9-49.3 52.2-49.3V82.1c0-30.4 10.9-53.6 32.6-69.6 21.7-15.9 52.9-16.7 93.5-2.2 9.1 2.5 13.4 6.6 13 12.4zM268.1 323.4V264c-20.8 0-31.2 9.7-31.2 29 .1 20.2 10.4 30.4 31.2 30.4z"/></svg>