<svg xmlns="http://www.w3.org/2000/svg" viewBox="-10 0 1030 1001"><path d="M379 1001q0-24-11.5-48.5T337 915q-5-4-13-9t-18-10q-21-13-48-29t-50-35.5Q185 812 172 791q-15-24-26-61t-19-79.5q-8-42.5-14-85T102 487q-3-20-5.5-36.5T92 422q-8-52-32-104.5T-10 211l36-23q60 55 88 107t40 101q3 13 7 32.5t9 43.5q6 35 14.5 76.5t18 81.5q9.5 40 19 69.5T240 740q18 22 50.5 37.5T356 802q33 9 54 13 37 6 61 18V551h-12q-14 0-32.5-3t-37-13Q371 525 359 505.5T347 453q0-33 12-52.5t30.5-29.5q18.5-10 37-13t32.5-3h12V127q0-13 4-34t17.5-42.5q13.5-21.5 41-36T607 0q22 0 44 7t36 20q14 13 14 30 0 15-9.5 24T670 90q-11 0-21-8-7-5-17-9.5T605 68q-29 0-43 11.5t-18.5 28Q539 124 539 138v695q24-12 61-18 21-4 54-13t65.5-24.5Q752 762 770 740q9-11 18.5-40.5t19-69.5q9.5-40 18-81.5T840 472q5-24 9-43.5t7-32.5q12-49 40-101t87-107l37 23q-46 54-70 106.5T918 422q-2 12-4.5 28.5T908 487q-5 36-11 78.5t-14 85q-8 42.5-19 79.5t-26 61q-13 21-36 40.5T752 867q-27 16-48 29-10 5-18 10t-14 9q-18 13-30 37.5t-12 48.5zm126-142q6-8 15-15V138q0-17 6-38.5T550 63q18-15 55-15 21 0 33.5 6T659 65q4 2 6.5 4t4.5 2q12 0 12-14 0-16-24-27t-51-11q-39 0-62.5 12.5T509 62q-12 18-15.5 36t-3.5 29v248h-31q-15 0-37 5t-39 21.5Q366 418 366 453t17 52q17 17 39 22t37 5h31v312q9 7 15 15zM399 981h96v-88q-1-21-22-36.5T407 834q-22-3-57.5-13t-70-27Q245 777 225 752q-11-14-21.5-45T183 636.5q-10-39.5-18-82T150 476q-5-24-8.5-43t-6.5-32q-12-50-36-96.5T25 212l-5 4q40 49 61.5 100T112 418q2 13 4.5 30t4.5 36q5 35 11.5 77.5T147 646q8 42 18.5 77.5T189 781q11 18 33 36t47.5 34q25.5 16 46.5 28 10 6 18.5 11t14.5 9q22 15 35 37.5t15 44.5zm116 0h96q2-22 15-44.5t35-37.5q6-4 14.5-9t18.5-11q21-12 46-28t47.5-34q22.5-18 33.5-36 13-22 23.5-57.5T863 646q8-42 14.5-84.5T889 484q2-19 4.5-36t4.5-29q10-52 31-103t61-100l-6-4q-49 46-73 92.5T875 401q-3 13-6.5 32t-8.5 43q-7 36-15 78.5t-18 82Q817 676 806.5 707T785 752q-20 25-54.5 42t-70 27Q625 831 603 834q-46 7-67 23t-21 38zm-62-466q-10 0-27-4t-30-17q-13-13-13-41t13-41q13-13 30-17t27-4h37v124zm0-19h18v-85h-18q-8 0-20 2.5T411.5 425q-9.5 9-9.5 28t9.5 28q9.5 9 21.5 12t20 3z" fill="currentColor"/></svg>