<svg xmlns="http://www.w3.org/2000/svg" viewBox="0 0 454.8 594.4"><path d="M54.7 316.7c7.8 38.8 14 73.5 18.5 104.1 4.5 30.6 15.5 56.1 32.9 76.5 17.5 20.4 37.9 35 61.5 43.8 23.5 8.8 35.5 20.5 35.9 35H227v-20c-18.8-17.7-40-30.6-63.5-38.8s-42.3-21.6-56.2-40c-13.9-18.4-22.8-39.3-26.8-62.7-3.8-23.3-12.4-55.9-25.8-97.9zm136.5 277.7c-2.4-19.2-12.7-32-31.2-38.2-18.4-6.3-37.3-18.4-56.5-36.5-19.2-18-31.8-38.9-37.7-62.7-5.8-23.7-10.1-55.6-12.8-95.6-2.7-40-20.4-82-53-125.9h2.9c20 22 37 41 50.9 57.1s25.8 49.4 35.6 100 30.5 83.4 62.1 98.5c31.6 15.1 56.8 27.9 75.6 38.5v64.7h-35.9c-2.4-19.2-12.7-32-31.2-38.2-18.4-6.3-37.3-18.4-56.5-36.5-19.2-18-31.8-38.9-37.7-62.7-5.8-23.6-10.1-55.5-12.8-95.5-2.7-40-20.4-82-53-125.9h2.9c20 22 37 41 50.9 57.1s25.8 49.4 35.6 100 30.5 83.4 62.1 98.5c31.6 15.1 57.3 14 76.2 24.6l-.6 78.7h-35.9zm35.9-18.2v-20c-18.8-17.7-40-30.6-63.5-38.8s-42.3-21.6-56.2-40c-13.9-18.4-22.8-39.3-26.8-62.7-3.9-23.3-12.6-56-25.9-98 7.8 38.8 14 73.5 18.5 104.1 4.5 30.6 15.5 56.1 32.9 76.5 17.5 20.4 37.9 35 61.5 43.8 23.5 8.8 35.5 20.5 35.9 35h23.6zm23.5 0c.4-14.5 12.5-26.2 36.2-35 23.7-8.8 44.2-23.4 61.5-43.8 17.3-20.4 28.2-45.9 32.9-76.5 4.7-30.6 10.8-65.3 18.2-104.1-12.9 42-21.5 74.6-25.6 98-4.1 23.3-13 44.2-26.8 62.7-13.7 18.4-32.4 31.8-55.9 40s-44.7 21.2-63.5 38.8v20h23zm-22.9 18.2v-77.5c18.8-10.6 44-10.6 75.6-25.7 31.6-15.1 52.3-48 62.1-98.5 9.8-50.6 21.7-83.9 35.6-100 13.9-16.1 30.9-35.1 50.9-57.1h2.9c-32.6 43.9-50.2 85.9-53 125.9-2.7 40-7.1 71.9-12.9 95.6-5.9 23.7-18.4 44.6-37.7 62.7-19.2 18-38 30.2-56.5 36.5-18.4 6.3-28.8 19-31.2 38.2h-35.8v-78.7c18.8-10.6 44-9.5 75.6-24.6 31.6-15.1 52.3-48 62.1-98.5 9.8-50.6 21.7-83.9 35.6-100 13.9-16.1 30.9-35.1 50.9-57.1h2.9c-32.6 43.9-50.2 85.9-53 125.9-2.7 40-7.1 71.9-12.9 95.6-5.9 23.7-18.4 44.6-37.7 62.7-19.2 18-38 30.2-56.5 36.5-18.4 6.3-28.8 19-31.2 38.2h-35.8zm171.8-277.7c-12.9 42-21.5 74.6-25.6 98-4.1 23.3-13 44.2-26.8 62.7-13.7 18.4-32.4 31.8-55.9 40s-44.7 21.2-63.5 38.8v20h22.9c.4-14.5 12.5-26.2 36.2-35 23.7-8.8 44.2-23.4 61.5-43.8 17.3-20.4 28.2-45.9 32.9-76.5 4.8-30.7 10.8-65.4 18.3-104.2zm-274.8 99.4c0-27.5 8.9-51.4 26.8-71.8s43.2-30.4 76.2-30c31.8 0 56.5 10.7 74.1 32.1 17.7 21.4 26.7 43.8 27.1 67.4 0 25.1-8.9 48.4-26.8 70-17.8 21.6-42.7 32.6-74.4 32.9-28.2 0-52.5-9.5-72.7-28.5-20.2-19-30.3-43-30.3-72.1zm18.3-1.7c0 23.9 8.1 43.7 24.4 59.4 16.3 15.7 36.2 23.5 59.7 23.5 23.9 0 43.4-8.5 58.5-25.6 15.1-17.1 22.8-36.4 23.2-58-1.2-20.8-8.6-39.4-22.4-55.9-13.7-16.5-33.7-24.7-60-24.7-25.9 0-46.3 8.1-61.2 24.4-14.8 16.4-22.2 35.3-22.2 56.9zm188.2-396c-1.6 4.7-5.9 5.7-12.9 2.9-31.4-7.8-52.9-7.5-64.4 1.2-11.6 8.6-17.4 27.7-17.4 57.1v253h-18.2v-77.1c-27.8.4-41.8-13.3-41.8-41.2 0-27.1 13.9-40.6 41.8-40.6v-107c0-24.7 8.8-43.5 26.5-56.5 17.7-12.9 42.9-13.5 75.9-1.8 7.4 2 10.9 5.3 10.5 10zM218.3 239v-48.2c-16.9 0-25.3 7.8-25.3 23.5 0 16.5 8.4 24.7 25.3 24.7z"/></svg>