<svg xmlns="http://www.w3.org/2000/svg" viewBox="-10 0 862 969"><path d="M315 969q-8-43-34-69.5T233 862q-26-12-51-30.5T135 776q-18-29-28-73.5t-17-94Q83 559 76.5 513T60 434q-13-41-35-73.5T-10 313l25-20q19 12 39.5 34.5t36.5 49q16 26.5 24 52.5 10 32 19 75.5t18 88.5q9 45 18.5 82t20.5 57q20 35 58 49t76 22l12 3 14 3q-29-18-47.5-48.5T285 693q0-47 29-83.5t73-47.5V416h-12q-16 0-39.5-5.5t-42-24Q275 368 275 329t18.5-57.5q18.5-18.5 42-24T375 242h12V113q0-12 4-30.5T407.5 45q12.5-19 37-32T509 0q31 0 59 14t28 39q0 14-9 23t-20 9q-5 0-9.5-2t-8.5-5q-6-4-15-8.5T509 65q-24 0-36.5 10.5t-16.5 25q-4 14.5-4 26.5v435q43 11 72.5 47.5T554 693q0 38-19 68.5T486 810l18-4 12-3q38-8 76.5-22t57.5-49q11-20 21-57t19-82q9-45 18-88.5t18-75.5q7-26 24-52.5t37-49q20-22.5 40-34.5l25 20q-13 15-35 47.5T782 434q-11 33-17.5 79t-13 95.5q-6.5 49.5-17 94T707 776q-22 37-47.5 55.5T609 862q-22 11-48.5 37.5T526 969zm92-410q4-1 13-1h6l6 1V125q0-16 5.5-34T459 59.5Q475 46 507 46q20 0 31 5t18 10q3 2 5.5 3t4.5 1q10 0 10-12 0-15-21-24.5T509 19q-34 0-54.5 11t-31 27Q413 73 410 89t-3 26v145h-30q-13 0-32.5 4T310 282.5Q295 297 295 329q0 31 15 46t34.5 19.5Q364 399 377 399h30zm-35-175q-9 0-24-3.5t-26.5-15Q310 354 310 329t11.5-36.5Q333 281 348 278t24-3h35v109zm2-17h13v-75h-13q-7 0-17.5 2t-19 10q-8.5 8-8.5 25t8.5 25q8.5 8 19 10.5T374 367zm-43 582h80v-69q0-18-13-29t-31-16.5q-18-5.5-33-9.5l-14-2q-41-9-82-24.5T174 741q-12-22-23-63t-20.5-88q-9.5-47-18-89.5T97 434q-11-37-37-71.5T12 314q13 16 33 43t33 71q11 36 18 82.5t13.5 95.5q6.5 49 16 91t25.5 69q20 33 44 50t46 28q25 12 52.5 38.5T331 949zm99 0h80q10-40 37.5-66.5T600 844q23-11 47-28t43-50q16-27 25.5-69t16.5-91q7-49 14-95.5t17-82.5q14-44 34-71t33-43q-15 9-32 28.5t-31.5 43Q752 409 745 434q-7 24-15.5 66.5T711 590q-10 47-21 88t-23 63q-15 28-39 43.5t-51.5 24Q549 817 522 823l-15 2q-14 4-32.5 9.5T443 851q-13 11-13 29zm-10-141q31 0 57.5-15.5t42-41.5q15.5-26 15.5-58t-15.5-58.5q-15.5-26.5-42-42T420 577q-32 0-58.5 15.5t-42 42Q304 661 304 693t15.5 58q15.5 26 42 41.5T420 808zm0 37q8-11 22-20-5 2-11 2h-21l-10-1q13 8 20 19z" fill="currentColor"/></svg>