<svg xmlns="http://www.w3.org/2000/svg" viewBox="-10 0 1136 598"><path d="M792 598q-85-1-153.5-26.5T513 488q-14-14-39.5-44.5T415 374q-33-39-70.5-79.5t-76-76.5Q230 182 193 158q-38-25-78-48.5T24 65Q13 61 1.5 51.5T-10 27q0-14 9.5-20.5T25 0q11 0 24.5 2.5T76 9q16 5 49 18.5t72 34Q236 82 270 107q51 37 98 78.5t86 80q39 38.5 66 66t39 37.5q21 18 38 31.5t38 22.5q21 9 55 13.5t90 4.5h346v157zm8-20h307V461H784q-60 0-97-5.5T626.5 440q-23.5-10-41-24T547 385q-12-10-41-39.5T436.5 277Q396 238 350 197t-92-75q-32-23-68.5-42.5t-68.5-33Q89 33 70 28q-26-8-45-8-15 0-15 6 0 7 9.5 14T39 51q37 15 78.5 37.5T205 142q37 25 75.5 61.5T357 281q38 41 71 80t59 69.5q26 30.5 40 44.5 56 56 122.5 79.5T800 578z" fill="currentColor"/></svg>