<svg xmlns="http://www.w3.org/2000/svg" viewBox="0 0 594.7 430.8"><path d="M24.7 9.5C18.5 4.5-3.5-8.5.5 8.4c37.9 55.3 65.4 117.8 80.3 183.3 14.6 50.8 41.6 98.4 80.5 134.4 50 50.1 117.3 83.2 188 89.8 79.5 12.1 165.2 13.7 245.4 14.9V323.4c-101.6-6.1-205.3 4-304.7-22.8-49.1-13.2-99.7-34.9-130-77.8-34.6-52.9-45.7-118.8-87.7-167.3C58.8 38 43.1 21.8 24.7 9.5zm36.7 69.3c44.9 47.9 47.2 120.3 91.2 168.8C188.9 288.9 241.8 310 294 323c90.1 22.2 188.7 19 280.6 20.3v67.3c-107.3 0-209.9-4.9-303.3-33.9-69-30.4-126.3-86.4-158.5-154.5-19.5-47-25.7-99-51.4-143.4z"/></svg>