<svg xmlns="http://www.w3.org/2000/svg" viewBox="-10 0 992 993"><path d="M295 993v-35q-3-13-15-28.5T268 893q-1-11 8.5-23.5t19-24.5q9.5-12 9.5-19 0-10-7.5-21t-15-23q-7.5-12-8.5-25 0-9 7.5-16t14.5-14q7-7 7-15 0-10-8-23.5l-16-27-8-23.5q0-12 11.5-26t23-27q11.5-13 11.5-21 1-10-13.5-28T283 498q-28-30-57.5-57T169 396q-34-22-70-42.5T19 315Q9 311-.5 300.5T-10 277q0-26 31-26 21 0 47 8 14 5 42.5 16.5t62.5 29q34 17.5 63 39.5 26 19 51 39.5t48 40.5q3-4 3-7 0-9-7.5-21.5t-15-24.5q-7.5-12-7.5-22 0-11 14.5-25.5t28.5-27q14-12.5 14-18.5 0-8-5-18.5t-8.5-22Q348 226 353 216q3-6 15.5-11t28.5-9.5q16-4.5 28-8.5t14-8q4-10 2-25t-3-28.5q-1-13.5 3-20.5 2-3 17.5-3t31 1q15.5 1 19.5-3 7-6 11-19.5t7.5-25.5Q531 43 538 40q5-3 20.5 1t34 11Q611 59 626 64.5t18 5.5q13 2 26.5-4T697 55q-3-9-8.5-20T679 17l16-9q3 5 7.5 14t8.5 18q14-17 45-28.5T824 0q51 0 87.5 20T948 68q0 28-36.5 48T824 136q-37 0-68-11.5T711 96q-4 9-8.5 17.5T695 127l-16-8q5-9 11.5-22.5T699 74l-13.5 4.5L663 86l-20 4q-6 0-20.5-5t-31-11q-16.5-6-29-10T548 63q-7 11-12.5 29T522 118q-6 5-19.5 4.5T477 121q-12-1-15 2-4 5-2.5 19.5t2.5 29q1 14.5-3 20.5t-23.5 11q-19.5 5-38.5 11t-22 14q-3 9 1 19t8.5 19.5Q389 276 386 283q-3 9-17.5 21.5t-28 25.5Q327 343 328 352q1 10 8.5 22t14 24q6.5 12 6.5 23 0 4-2.5 7.5T349 437q51 47 88.5 85.5T488 572q19 16 33.5 27.5t33 19.5q18.5 8 48 12t77.5 4h302v142H691q-74-1-134-22t-110-71q-16-16-45.5-51.5T335 554q2 4 2 7v5q-2 12-14 25t-23 25.5q-11 12.5-9 23.5 1 9 8.5 20.5T315 686q8 14 8 28 0 8-7.5 16l-15 16-6.5 14q1 8 8.5 19.5t15 24Q325 816 325 828t-10 24q-10 12-19.5 22.5T287 895q1 7 8 20t13.5 24.5Q315 951 315 955v38zm529-877q42 0 72.5-14T927 68q0-20-30.5-34T824 20q-38 0-67.5 12T722 61h-11v14h12q7 18 35.5 29.5T824 116zM286 471q5-8 15-16.5t19-16.5q-23-20-47-40.5T226 360q-28-20-59.5-37T107 295q-28-11-44-16-22-8-39-8-14 0-14 6t8.5 12q8.5 6 16.5 10 67 26 145 79 25 17 52.5 41.5T286 471zm412 286h264V655H684q-52 0-84.5-5T547 636.5q-20-8.5-35.5-20.5T478 589q-9-7-30.5-28T397 511q-29-29-62-60-12 11-23 20t-11 15v1q35 37 66 73.5t55.5 65Q447 654 460 667q49 49 107 69.5T698 757z" fill="currentColor"/></svg>