<svg xmlns="http://www.w3.org/2000/svg" viewBox="0 0 595.9 430.6"><path d="M6.1 0C2.5-.1.4 2.1 1.8 8.4c37.9 55.3 65.4 117.8 80.3 183.2 2.5 8.8 5.5 17.5 8.7 26.1-.1.1-.2.1-.3.2-5.3 2.7-12.7 4.2-12.4 4.1.7-.1-2.4-.5-9.3-1-3.4-.3-8.1-.1-13.4 2.1-5.3 2.2-10.8 6.3-13.4 11.4-5.4 10.3-10.2 24.4-6.2 39.2 2.5 9.2 4.7 19.8 5.2 27.9-.4.5-2.7 2.1-5.2 3.1-10 4.2-25.1 13.1-27.9 32-1.5 10.6 3.9 19.5 7.2 23.8 3.3 4.3 3.5 5.6 3.1 4.1.2.6 1.2.6-1 2.1C4.1 375-2.2 390.1.7 404.7c2.2 11 5.1 17.3 5.2 20.7v1h33v-2c-.3-12.9-4.2-20.9-5.2-25.8-.3-1.3.7-3.9 1-4.1 11.3-7.3 19.4-22.8 15.5-38.2-2.4-9.5-7.6-13.3-9.3-15.5.5-1.1 2.8-2.8 8.3-5.2 5.5-2.3 11.4-6.5 16.5-12.4s8.8-14.5 8.3-23.8c-.7-12.1-3.4-24.8-6.2-35.1-.9-3.4 1.3-6.5 3.1-10.3 2.7.6 5.1 1.7 11.4 1 8.1-.9 14.7-3.7 21.8-7.3 14.8 29.2 34.4 56 58.5 78.3 50 50.1 117.3 83.2 188 89.7 79.5 12.1 165.1 13.7 245.4 14.9V323.3c-101.5-6.1-205.2 4-304.6-22.8-49-13.2-99.7-34.9-129.9-77.7-3-4.6-5.8-9.4-8.5-14.2 1.6-.6 3.2-1.3 4.8-2.1 4-2.1 8.5-4.9 11.4-10.3 2.3-4.2 2.6-9.6 2.1-14.5.6.4.2.6 1 1 4 2.3 10.6 6.7 19.6 7.2 16.9 1 29.9-9.5 34.1-24.8 1 .8.9 1.2 2.1 2.1 5.2 3.8 14.1 8.9 24.8 6.2 13.4-3.4 20.9-16.2 23.5-29 .9.5 2.1 1.1 3.3 2.2 4.1 3.6 8.1 9.3 18.6 12.4 7.4 2.1 12.1-1.2 17.5-3.1v41.3c0 7.7 23.8 7.7 23.8 0V189c6.6 11 15.6 19.3 26.9 24.8 23.4 11.4 53 12.4 84.7 12.4 31.8 0 61.4-1.8 84.7-13.4 23.3-11.6 39.2-34 39.2-69.2 0-35.8-15.8-59.8-39.2-71.3-23.4-11.4-53-12.4-84.7-12.4-31.6 0-61.2 1.1-84.7 12.4C355 77.6 346 85.8 339.4 97v-8.3c0-7.7-23.8-7.7-23.8 0v32c-2.1 1.7-3.9 4-6.2 5.2-.8.4-1.4.6-2 .7-.9-.7-3.3-2.3-6.3-4.8-4.4-3.8-8.5-11.4-22.7-11.4-4.9 0-11.6.1-18.6 4.1-7 4-13.3 14.5-13.4 23.8v1c-2.3-1.8-5.6-4.7-11.4-8.3-4.9-3.1-12.4-4.7-18.6-3.1-6.2 1.6-10.7 4.8-13.4 8.3-5.5 6.9-6.5 13.9-7.2 20.7.3-2.7-2.5 0-2.1 0-.2 0-1.4.1-5.2-2.1-3.7-2.1-9-5.9-17.6-7.2-11-1.7-22.6 3.2-27.9 11.4-3.3 5-3.2 11.3-3.1 17.1-.7-.5-1-.7-2.1-1.6-.8-.7-1.8-1.5-3-2.3-17.7-40.5-32.1-82.8-61.4-116.6C60.1 38 44.5 21.8 26 9.5 22.2 6.3 12.1.1 6.1 0zm56.7 78.8c24.3 25.9 36.2 58.9 48.9 91.5-1.7.9-3.3 1.9-4.6 3.1-3.3 3.2-5.3 6.5-6.5 9.5-10.7-35.5-19.1-71.8-37.8-104.1zm388.2.6c31 0 58.7 1.7 76.4 10.3 17.7 8.7 27.9 22.9 27.9 53.7 0 30-10.1 42.8-27.9 51.6-17.8 8.8-45.5 11.4-76.4 11.4-31 0-57.7-1.7-75.4-10.3-17.7-8.6-27.9-21.9-27.9-52.7 0-31.6 10.2-45.2 27.9-53.7 17.7-8.4 44.3-10.3 75.4-10.3zM131.4 214.9c6.3 11.6 13.5 22.6 22.5 32.6 36.3 41.3 89.2 62.4 141.4 75.4 90 22.2 188.6 19 280.5 20.2v67.2c-107.3 0-209.8-4.9-303.2-33.9-63.8-28.1-117.6-78.3-150.8-139.6 2.1-2 4-4.5 5.9-7.8 3.4-5.9 3.9-10.2 3.7-14.1z"/></svg>