<svg xmlns="http://www.w3.org/2000/svg" viewBox="0 0 590.5 333.4"><path d="M76.3 265.9c-9.6-8.6-22-18.7-37.2-30.4.5 6.6 7.8 16.7 22 30.4h15.2zM36 267.4l-25.8-22.8C9.7 256.7 12 267.9 17 278l19-10.6zM541.5 74.7c-11.6 16.7-21 27.1-28.1 31.1-7.1 4-15.8 2.3-26.2-5.3-10.4-7.6-16.1-7.7-17.1-.4s3.3 24.2 12.9 50.5c-10.1 33.4-26.2 60.1-48.2 80.1-22 20-43.1 33-63.4 39.1-20.2 6.1-56.9 10.4-110 12.9-61.2 3-133.3 2.5-216.3-1.5-26.3 24.8-26.3 35.7 0 32.6h331.6c53.1 0 94.4-16.7 123.7-50.1 22.3-39 42-99.4 59.2-181.4 10.6-29.3 13-47.4 7.2-54.3-5.8-6.8-11.9-7.2-18.2-1.1-6.3 6.1-8.3 12.4-6.1 19s2 16.1-1 28.8zM344.2 252.2l-1.5-21.2c-10.1 4-18 4.8-23.5 2.3l2.3 23.5 22.7-4.6zm-56.2 6.9l1.5-19.7c-10.1 3.5-18 3.8-23.5.8l2.3 21.3 19.7-2.4zM401.8 228c-4-9.1-8.6-12.4-13.7-9.9s-10.9 3.5-17.5 3l3 20.5 28.2-13.6zm-98.6 30.3h1.5c1.5-3 .6-9.2-2.7-18.6-3.3-9.4-1.1-16.1 6.5-20.1 6.6-1.5 12.3-1.6 17.1-.4 4.8 1.3 10.9.9 18.2-1.1 7.3-2 10.9 1.9 10.6 11.8-.3 9.9.6 16.3 2.7 19.4 0-4.6-1.1-11.6-3.4-21.2s.1-16.4 7.2-20.5c13.2-1 24.4-2.8 33.8-5.3 9.4-2.5 14.2-1 14.4 4.6.3 5.6 1.6 10.6 4.2 15.2 3.5-2.5 7.6-5.8 12.1-9.9 13.2-11.6 25.6-32.9 37.2-63.7-12.6-35.9-16.2-59.6-10.6-71 5.6-11.4 11.3-13.8 17.1-7.2 5.8 6.6 17.3 11.9 34.5 15.9 18.2-7.6 24.7-19.7 19.4-36.4-5.3-16.7-.8-30.5 13.7-41.4 14.3-11 27.3-11.2 38.9-.5 11.6 10.6 16.4 22 14.4 34.2-2 12.1-6.6 26.6-13.7 43.3-15.7 71.8-26.8 116.9-33.4 135.1-12.1 33.9-26.3 58.4-42.5 73.6-24.3 23.3-58.4 36.2-102.5 38.7-198.8 1.5-324.8.5-377.9-3-19.7-2.5-23-16.4-9.9-41.7C2 274.9-1.3 260 .2 243.3c.5-9.6 3.5-14.4 9.1-14.4 5.1-.5 9.7 3 14 10.6 4.3 7.6 13.5 16.4 27.7 26.6-16.7-14.7-24.7-26.3-23.9-34.9.8-8.6 5.9-9.6 15.6-3a661.1 661.1 0 0 1 28.5 21.2c8.9 7.1 17.8 12.6 26.9 16.7 77.9-1 129.8-2.3 155.6-3.8-.5-2.5-2.3-8.1-5.3-16.7s-.8-14.9 6.8-19c6.6-1.5 12.3-1.5 17.1 0 4.8 1.5 10.9 1.4 18.2-.4 7.5-1.9 11.7 8.8 12.7 32.1z"/></svg>