<svg xmlns="http://www.w3.org/2000/svg" viewBox="-10 0 1055.696 787"><path d="M238 787q-42 0-86.5-19.5T71 712q-36-36-50-87l2-1-33-71 2-11 35-17 11 5 2-12 30-15 10 7-1-12 37-19 9 2 26 56 34-1q8 11 35.5 19.5t63 13.5q35.5 5 64.5 5 19 0 47-4t54-9q26-5 38-7v-45l10-10 48-5 8 8 6-10 45-8 8 8 5-10q5-2 12.5-3.5T641 476l10-2.5 10-2.5 8 7 2-10 46-19 9 6 2-11q12-8 27.5-19t22.5-17l-3-234q0-28 3-58.5T789.5 59q8.5-26 25-42.5T856 0q25 0 32 16.5t7 34.5v17l-8 134q-2 20 11.5 29.5t32 13Q949 248 963 250q23 4 45 9.5t29 17.5q10 19 8.5 44.5t-9 51Q1029 398 1024 416v153q-1 25-19 51.5t-42 49Q939 692 920 705q-27 19-58.5 37T801 771q-29 11-49 11-13 0-37-3t-52-8q-38-5-80-11t-71-6q-29 0-75 6.5T347 773q-32 5-63 9.5t-46 4.5zm0-20q14 0 42.5-4t63.5-9q44-7 90.5-13t77.5-6q32 0 74 5.5t80 11.5q29 4 51.5 7.5T752 763q18 0 44.5-10.5t56-27.5q29.5-17 55.5-35 17-13 38.5-33.5t38-44Q1001 589 1004 568V412q5-14 12-37.5t10-48q3-24.5-6-40.5-4-6-22-9.5t-38-6.5q-21-3-42.5-9t-36-19.5Q867 228 868 200q0-4 1-26.5t2.5-51.5q1.5-29 3.5-55 1-4 1-7.5V51q0-11-3.5-21.5T856 19q-26 0-39.5 25T799 105q-4 36-4 69l2 290q-9 17-22 35.5T748.5 531Q735 544 725 545q-12 5-42 9t-66.5 8q-36.5 4-68.5 6.5t-48 3.5q-2 0-18.5 3.5t-41 8Q416 588 391 591t-43 3q-29 0-65-5t-66-13.5q-30-8.5-42-19.5-4 0-8 .5t-9 .5l-24 23-18 3-18 15-24 5-31 29q13 42 45 72.5t72.5 46.5q40.5 16 77.5 16zm516-269q7-10 13.5-21t10.5-18v-26q-7 7-17.5 13.5T739 460zm-56 35q17-3 22-7 5 0 9.5-3t9.5-8l-18-46q-9 4-19 8t-21 8zm-69 9q14-2 26.5-3t23.5-3l-16-45-17 4q-5 1-11 2t-11 3zm-514 21l10-2 11-10-23-49-21 11zm452-15q10-1 21-1.5t22-2.5l-5-40-40 7zm-61 4q8-1 18.5-1.5T547 549l-2-35q-12 1-23 2t-16 2zM76 583l14-4 9-6-24-51-22 12zm-38 28l20-19-22-49-24 12z" fill="currentColor"/></svg>