<svg xmlns="http://www.w3.org/2000/svg" viewBox="-10 0 760 513"><path d="M85 513q-17 0-39.5-10t-39-29Q-10 455-10 428q0-24 17.5-44t38-33Q66 338 76 334q17-21 42.5-51t54-62.5Q201 188 227 160q29-32 57-59t45-43q10-9 24.5-22.5t35-24.5Q409 0 438 0q56 0 78.5 33.5T539 115q16-11 43.5-27t57-28.5Q669 47 691 47q26 0 42.5 11T750 95q0 39-23.5 65.5t-62.5 42Q625 218 580 224q4 16 7 36t3 36q0 44-17.5 83T527 447.5q-28 29.5-60.5 46T404 510q-24 0-61-7.5T272 486q-23-6-42.5-11t-28.5-5q-11 0-25.5 7T146 491q-16 8-31.5 15T85 513zm2-163q-9 3-28 14t-34.5 27.5Q9 408 9 428q0 21 13.5 35.5t31 22.5q17.5 8 31.5 8 10 0 24-6t28-14q16-8 32.5-15.5T201 451q10 0 30 4.5t46 11.5q32 8 67.5 16t59.5 8q23 0 51-12.5t54.5-37.5q26.5-25 43.5-62t17-85q0-24-2-43t-4-39q45-6 82.5-20.5t60.5-38Q730 130 730 95q0-16-11.5-22T691 67q-19 0-50.5 14.5T575 117q-34 21-61 40 2-11 4-25t2-19q0-17-5.5-39t-23-38.5Q474 19 438 19q-24 0-42 10t-31.5 22.5Q351 64 343 72q-16 14-44.5 42T241 174q-26 28-55 61t-55 63.5Q105 329 87 350zm167-111q1-4 4-18.5t12-28q9-13.5 25-13.5 14 0 20.5 6.5T322 200q0 14-7.5 21.5T297 232q-12 4-28 9t-15-2z" fill="currentColor"/></svg>