<svg xmlns="http://www.w3.org/2000/svg" viewBox="0 0 595.4 517"><path d="M317.5 346.6l3.1 4.2c-18.7 25.7-34.2 40.9-46.3 45.8-12.1 4.9-19.3 5.2-21.3 1-8.3-21.5-3.8-35.4 13.5-41.6l51-9.4zm235.2 29.1c-31.2-79.1-42.3-163-33.3-251.9-63.8 5.6-128 51.3-192.5 137.4-5.6 16.7-3.5 38.5 6.2 65.6 23.6-6.9 40.6-20.8 51-41.6l-16.7-22.9 20.8-19.8 9.4 6.2-16.6 16.7 18.7 21.9c-13.2 26.4-38.5 45.4-76 57.2-14.6-37.5-19.4-71.8-14.6-103-18 2.8-33.6-1-46.8-11.4-9 3.5-16.1 8.8-21.3 16.1-5.2 7.3-18.6 14.7-40.1 22.4 6.9 14.6 8.3 28.1 4.2 40.6l22.9 59.3c4.2-17.3 16.3-29.8 36.4-37.5l34.3-7.3 2.1 11.4-36.4 8.3c-14.6 4.9-24.3 18-29.1 39.5 33.3 31.9 54.8 60.7 64.5 86.4 2.1-6.2 6.2-9.4 12.5-9.4 6.2 0 10.6 3.6 13 10.9 2.4 7.3 1.9 13.7-1.6 19.3 13.2-5.6 14.9-20.8 5.2-45.8l9.4-3.1 10.4 33.3c11.1-4.9 15.6-21.9 13.5-51 55.6-29.1 119.1-45 190.5-47.8zm-294.5 18.7h5.2l6.2-3.1c-6.9-2.1-10.9-6.6-12-13.5-1-6.9 2.1-11.6 9.4-14 7.3-2.4 12.5-.7 15.6 5.2 3.1 5.9 3.3 10.9.5 15.1l23.9-26-1-2.1c-25.7 2.8-41.3 6.2-46.8 10.4-5.5 4.1-5.8 13.5-1 28zM550.7 84.3c-10.4 111 4.5 219.9 44.8 326.8-104.8.7-174.5 13.5-209.2 38.5l1 2.1c.7 22.9-11.1 39.5-35.4 50-34.7 16.7-54.5 19.8-59.3 9.4-5.6-2.8-17-22.9-34.3-60.4l-53.1-61.4-26-66.6C92.4 314.3 40 286.9 22 240.4s-25-78.1-20.8-94.7c11.8-6.9 23.4 2.9 34.9 29.7 11.4 26.7 30.9 49.8 58.3 69.2 27.4 19.4 57.1 23.2 89 11.4 4.9-11.8 17.3-19.4 37.5-22.9 10.4-16.7 25.7-27.8 45.8-33.3 20.1-42.3 24.6-77.4 13.5-105.1-11.1-28.4-32.3-54.8-63.5-79.1-4.9-8.3-1-13.5 11.4-15.6 23.6.7 43.7 10.8 60.4 30.2 16.7 19.4 30.2 42.3 40.6 68.7 9.7 25.7 11.8 55.9 6.2 90.5 55.4-61 127.3-96.1 215.4-105.1zM309.2 475.6c2.1 7.6 4.5 9.9 7.3 6.8 2.8-3.1 2.9-6.2.5-9.4-2.4-3.1-5-2.3-7.8 2.6z"/></svg>