<svg xmlns="http://www.w3.org/2000/svg" viewBox="-10 0 934.923 808.963"><path d="M655.923 808.963q-7-22-20.5-56t-33-66q-19.5-32-43.5-48-30 52-61.5 86t-86.5 35q-26 0-47-13t-32-26l3-23q2-13 2.5-24t.5-22q0-15-2-37t-7-61q-2-14-6-36t-9-45q-30 12-69.5 20t-83.5.5q-44-7.5-88-42.5-16-13-32.5-34.5t-30-46q-13.5-24.5-18.5-44.5t3-30q5-6 11.5-7.5t15.5 5.5q10 8 27.5 35t49.5 53q41 33 95 30t102-24q2-2 24.5-22t50.5-43q0-4-.5-10t.5-10q4-46-7.5-91t-32-81q-20.5-36-45.5-56-11-9-23-17.5t-25-19.5q-7-7-12.5-14.5t.5-14.5q9-11 30.5-8.5t48 15.5q26.5 13 51.5 33 52 43 77 91t29 95q7-16 16-31.5t23-27.5q13 11 24.5 24.5t18.5 29.5q22-5 47.5-8t57.5-3q38 0 81.5 10t84 24q40.5 14 70.5 28t40 23l-2 15q-64 36-109.5 100t-79 160q-33.5 96-62.5 229zm6-44q41-178 94.5-288t143.5-166q-16-10-44.5-22t-64.5-23.5q-36-11.5-73-19t-69-7.5q-29 0-54 3t-47 8q0 1 .5 3t.5 4q0 22-10 44t-27 44l-16-11q14-19 24.5-39t8.5-40q-2-15-7-26.5t-19-24.5q-9 11-17 26.5t-16 47.5q-4 16-3.5 32.5t3.5 33.5l-20 4q-3-19-3-44l-10-3q0-1 1-5t3-24q5-55-17-107.5t-80-100.5q-29-24-58.5-36.5t-43.5-8.5q11 6 25 16.5t24 18.5q61 49 82 120t20 156q0 17 17 28l-12 15q-19-13-23-29-20 15-36 29t-23 22q5 23 12 52.5t12.5 57.5q5.5 28 7.5 46 5 36 7.5 60.5t2.5 40.5q0 13-1.5 24t-2.5 24l-1 14q2 1 4 3.5t5 4.5q41-1 67-14t43-35q6-7 12.5-16.5t19.5-26.5l15 12q-11 17-18.5 27t-13.5 17q-16 22-39.5 34.5t-56.5 16.5q4 2 12 2.5t15 .5q31 0 58-22t49.5-56.5q22.5-34.5 40-73.5t28.5-73.5q11-34.5 16-54.5l20 4q-5 25-21.5 69t-41.5 90q34 24 58 65.5t37 76.5zm-352-311q-2-13-5-24.5t-5-20.5q-33 14-71.5 20t-75-.5q-36.5-6.5-65.5-29.5-25-21-45-46.5t-33-44.5q-4 9 7 33.5t30 51q19 26.5 39 42.5 41 33 81.5 39.5t77.5-1.5q37-8 65-19zm110 34q-5-14-7-34.5t7-31.5q13-15 34-15t36 6l-7 18-7-2q-1 6-4.5 13t-9.5 15q-6 8-13.5 12.5t-13.5 7.5q1 3 1 6zm11-30q10-3 17-13 9-10 10-19-7 0-13 1.5t-10 6.5q-6 9-4 24zm8 232q-14 6-27 .5t-15-11.5q-6-11-.5-21t13.5-14l15-7 7 17q-16 7-12 15 1 3 6 5.5t15-2.5l6 15z" fill="currentColor"/></svg>