<svg xmlns="http://www.w3.org/2000/svg" viewBox="-10 0 1052 788"><path d="M952 788q-18-28-36-59t-33-73q-15-42-24-104.5T850 397q0-90-20.5-141.5T766 181q-43-23-110-29t-161-6q-47 0-108.5 4.5t-124.5 11Q199 168 147 174q-40 4-72 7.5T31 185q-24 0-32.5-10.5T-10 143q0-17 10-40t21.5-42.5Q33 41 38 34q9-14 20.5-24T82 0q13 0 16 9t2 20q-2 11-7.5 23.5T82 78q-5 10-8 18t-2 13q1 6 22 5 7 0 19.5-1.5T150 108q33-4 77.5-9t93-9.5Q369 85 416 82t85-3q111 0 194 5t146 13q63 8 111.5 18t89.5 20l-18 66q-5-1-30.5-7t-61-13q-35.5-7-70.5-10 26 31 41.5 80T919 385q0 81 6.5 138t18.5 96.5q12 39.5 29 69.5t38 57zm6-28l25-18q-20-26-35.5-55t-26-68.5Q911 579 905 522.5T899 385q0-62-11-105.5t-30-75Q839 173 814 147q58 4 112.5 13.5T1013 178l6-27q-55-13-127-25t-168.5-19.5Q627 99 501 99q-37 0-83 3t-94.5 7.5Q275 114 230 119t-78 9q-24 3-40.5 4.5T90 134q-19 2-30-2t-11-22q0-9 4.5-19.5T64 70q2-4 7.5-16.5T81 30q4-11-1-11-7 0-15 10T53 45q-4 6-14.5 23.5t-20 38.5Q9 128 9 143q0 11 4.5 17t17.5 6q10 0 40.5-3t73.5-8q52-6 115-12.5T384.5 131q61.5-5 110.5-5 99 0 169.5 6.5t116 31.5q45.5 25 67 80.5T869 397q0 84 8.5 143t22 99.5q13.5 40.5 29 69T958 760z" fill="currentColor"/></svg>