<svg xmlns="http://www.w3.org/2000/svg" viewBox="0 0 490.6 404.8"><path d="M445.9 53.2c-14.6 55.3-28 100.5-37.5 134.1-36.3 50.2-150.3 93.2-202.2 93.2-8.7 0-15.6-1.2-20.2-3.8-35.5-24 158.6-197.6 259.9-223.5zm4.8-19.4c-1 3.7-1.5 4.9-2.4 8.5C333.5 73.5 255.5 144.2 200.6 203c-49.4 52.9-64.1 92.9-32.6 97.9 4.8.8 10.5 1.1 17 1.1 54.6 0 162.4-26.7 215.5-77.8-35.1 64.6-108.8 95.7-238.5 104.5-6.9-.9-12.9-1.4-18.1-1.4-20.3 0-30.5 6.8-52 19.5l-29-41.1c35.7-24.7 52.1-30.9 74.9-55.6C218.5 137.2 313 41.7 450.7 33.8zM490.6 0C349.7.1 240.3 63 170.4 152.2 104 237.1 49.6 279.5 6.6 279.5c-2.2 0-4.5-.1-6.6-.3l76.1 125.7c39-28.5 46.3-44 87-45.9 202.2-9.3 258.8-88.2 277.9-153.5C460.2 140.2 481.8 67.8 490.6 0z"/></svg>