<svg xmlns="http://www.w3.org/2000/svg" viewBox="-10 0 729 568"><path d="M91 568l-15-5q-5-22-29-53.5T-10 456v-20q41-21 73-38t60-37q8-6 21-19.5t29-30.5q30-31 71.5-71.5t93-82.5q51.5-42 112-77.5t128-57.5Q645 0 719 0q0 120-26 205.5T625 347q-42 56-91.5 88.5t-98 45.5Q387 494 350 494q-17 0-30.5-2t-25.5-3q-10-1-18.5-2t-15.5-1q-27 0-59 13.5T140 532q-29 19-49 36zm-1-24q21-18 50.5-35.5t61-29.5q31.5-12 58.5-12 17 0 35 3 13 2 26.5 3t28.5 1q35 0 80-12t92-41.5q47-29.5 87-81t65-130Q699 131 700 20q-68 2-131.5 24t-120 56.5Q392 135 343 175.5T254.5 255Q215 294 187 324q-17 19-30.5 32.5T134 376q-32 23-64.5 41T14 446q25 18 46 45.5T90 544zm268-120q-17-4-38.5-7.5T275 413q-8 0-21 1t-33 3q15-23 40.5-62t61.5-84.5q36-45.5 83-90.5t105-81.5Q569 62 639 43l5 18q-79 22-141 64t-108.5 91.5q-46.5 49.5-80 97T260 393h15q25 0 47.5 3.5T364 406z" fill="currentColor"/></svg>