<svg xmlns="http://www.w3.org/2000/svg" viewBox="-10 0 729 568"><path d="M91 568l-15-5q-5-22-29-53.5T-10 456v-20q11-5 20.5-10T29 416L6 368q-7-14-11.5-29.5T-10 310q0-15 8.5-27.5T26 270q19 0 32 18t24 38l23 47q4-3 9-6t9-6l1-1-33-73q-7-15-12-30t-5-29q0-15 10-26.5t25-11.5q19 0 33.5 17t25.5 41.5q11 24.5 21 46.5 39-41 94-91t123-97q68-47 147-77T719 0q0 120-26 205.5T625 347q-42 56-91.5 88.5t-98 45.5Q387 494 350 494q-17 0-30.5-2t-25.5-3q-10-1-18.5-2t-15.5-1q-27 0-59 13.5T140 532q-29 19-49 36zm-1-24q21-18 50.5-35.5t61-29.5q31.5-12 58.5-12 17 0 35 3 13 2 26.5 3t28.5 1q35 0 80-12t92-41.5q47-29.5 87-81t65-130Q699 131 700 20q-68 2-131.5 24t-120 56.5Q392 135 343 175.5T254.5 255Q215 294 187 324q-17 19-30.5 32.5T134 376q-32 23-64.5 41T14 446q25 18 46 45.5T90 544zm268-120q-17-4-38.5-7.5T275 413q-8 0-21 1t-33 3q15-23 40.5-62t61.5-84.5q36-45.5 83-90.5t105-81.5Q569 62 639 43l5 18q-79 22-141 64t-108.5 91.5q-46.5 49.5-80 97T260 393h15q25 0 47.5 3.5T364 406zm-219-78l34-35 1-2-25-55q-8-17-17.5-31T110 209q-16 0-16 19 0 24 15.5 56t29.5 62zm-92 61q11-6 21-11.5T88 383l-23-48q-8-17-19-30.5T24 291q-15 0-15 19 0 10 4.5 23T24 360z" fill="currentColor"/></svg>