<svg xmlns="http://www.w3.org/2000/svg" viewBox="-10 0 767 585"><path d="M18 585l-28-15v-35q9-14 31.5-29T73 491q32 0 48 9.5t20 12.5h139v-4q-8-6-29.5-23.5t-48-46.5Q176 410 151 369t-41.5-93.5Q93 223 93 159q0-50 27-86.5T188 36q29 0 49 18t40 43q14 17 32 36.5t41 35.5l22 14q24 15 55 38t61 53q30 30 49.5 67.5T557 424q0 21-4 44t-8 37q6 6 25 6 36 0 60.5-21t39.5-52q15-31 21.5-63.5T698 319q0-64-23-111t-46-82q-20-18-31-38.5T587 50q0-25 11.5-37.5T629 0q23 0 40.5 17.5t27 41.5q9.5 24 7.5 44 8 24 20.5 59t22.5 76.5q10 41.5 10 83.5 0 77-22 127.5T679.5 530q-33.5 30-68 42.5T552 585q-23 0-54-8t-51-16l-4 24zm6-19h402l3-20 14-8q19 9 49.5 18.5T552 566q23 0 54-12t61-39.5q30-27.5 50-74.5t20-118q0-40-9.5-80t-22-74.5Q693 133 685 110q0-20-7-41t-19.5-35.5Q646 19 629 19q-22 0-22 31 0 13 9 30.5t28 35.5q25 35 49 84.5T717 319q0 25-7.5 60.5T685 450q-17 35-45.5 58T570 531q-17 0-30.5-5T519 516q6-15 12.5-41t6.5-51q0-42-19-76.5T472 285q-28-28-58.5-49.5T361 200l-23-15q-24-17-42-37t-34-39q-19-22-35-37.5T188 56q-32 0-54 30t-22 73q0 61 17.5 114.5t46 97q28.5 43.5 61 76T299 498v35H132q-3-4-16.5-13.5T73 510q-22 0-39.5 10.5T8 541v17q3 1 8 4t8 4z" fill="currentColor"/></svg>