<svg xmlns="http://www.w3.org/2000/svg" viewBox="0 0 593.7 419.7"><path d="M23.7 419.4c-20.6 1.7-27.8-6.9-21.5-25.8 6.3-18.9 22.9-32.4 49.9-40.4 39.5-5.7 67-3.9 82.5 5.6S192.2 375 260.9 379c-31.5-37.8-48.8-69.2-52-94.1-3.2-24.9-10.2-47.7-21.1-68.3-10.9-20.6-20.5-40.3-28.8-58.9s-13.3-41-15-67c-1.7-26.1 10.9-45.6 37.8-58.4 26.9-12.9 54.7-5.7 83.4 21.5 28.7 27.2 71.3 61.5 128.1 102.7s89.4 84.8 98 130.6c8.6 45.8 19.8 69.8 33.5 71.8 13.8 2 21.2-4.2 22.3-18.5 0-28.1-4.9-52.1-14.6-72.2s-24.8-51.7-45.1-95-32.5-72.3-36.5-87.2c-4-14.9-6.9-30.1-8.6-45.6 0-20.1 7.7-33.5 23.2-40.4 12.6 6.9 20.9 28.8 24.9 65.8s16 72.9 36.1 107.9 36.5 61.6 49.4 79.9c12.9 18.3 18.8 41 17.6 67.9-1.1 26.9-6 46.3-14.6 58-8.6 11.7-19.2 18.8-31.8 21.1-88.8 14.3-155.3 20.1-199.4 17.2-25.2 1.1-133.2 1.6-324 1.6zm427.2-73c14.3-31.5 5.4-66.5-26.6-104.9-32.1-38.4-64.5-67-97.1-86-32.7-18.9-57.9-39.8-75.6-62.7-17.8-22.9-35.4-29.8-52.9-20.6s-15.5 38.4 6 87.7c21.5 49.3 35.4 86 41.7 110 6.3 24.1 18.2 47.3 35.7 69.6 17.5 22.3 44.1 35.4 79.9 39.1 35.7 3.7 65.4-7 88.9-32.2z"/></svg>