<svg xmlns="http://www.w3.org/2000/svg" viewBox="-10 0 1061 335"><path d="M64 335l-74-31 39-37q22-21 44.5-45t49.5-53q16-17 36-41.5t44-43Q227 66 251 66q23 0 60 19.5t69 39.5q22 13 39 23t23 10q15 0 40-16t53-36q34-23 65-42.5T670 30q39-14 96-22t144-8q37 0 65.5 3.5T1015 11q12 18 24 60t12 93q0 51-14 83t-30 46q-2 1-12 5t-39 4q-21 0-57.5-5T825 284q-37-8-60-15-34-11-69.5-21T629 238q-16 0-40 7.5T539 261q-24 7-45 13.5t-34 6.5q-21 0-45-12t-45-27.5Q349 226 335 215q-12-10-29-23.5T272.5 168Q256 158 244 158q-9 0-31 21t-48 51.5Q139 261 117 289l-20 5-23 38zm892-53q15 0 22.5-.5T989 280q-8-17-17-42t-16-49q-7-24-8-39 1-12 8-33.5T974 71q11-24 25-44-8-2-30-4.5T910 20q-85 0-140.5 7.5t-93.5 21q-38 13.5-67.5 32T546 122q-31 21-58 38.5T442 178q-11 0-30-11t-43-26q-31-19-64.5-37.5T251 85q-18 0-39 17.5T171 143q-20 23-35 38-17 18-34 36.5T71 250q-14 14-18 17l31 13 24-5q5-6 21.5-27.5t39-47q22.5-25.5 43-44T244 138q15 0 34 11.5t37 26q18 14.5 31 23.5 15 11 35.5 25.5t42 25.5q21.5 11 36.5 11 11 0 31-5.5t42-13.5q26-8 52.5-15.5T629 219q33 0 70.5 10t71.5 21q22 8 58 15t71 12q35 5 56 5zm48-15q11-15 19.5-40t8.5-63q0-37-6.5-67T1011 47q-16 26-29 55.5T967 146q1 14 7.5 37t14.5 46.5q8 23.5 15 37.5zM31 305l16-19-12-5-18 18zm30 12l14-21-14-5-16 20z" fill="currentColor"/></svg>