<svg xmlns="http://www.w3.org/2000/svg" viewBox="0 0 594.2 214.9"><path d="M594.2 79c0 23.4-6 50-18.1 79.6-5.9 9.6-19.8 11.7-41.9 6.2-63.7 1-113.7.8-149.9-.8s-63.6-7.8-82.2-18.9-35.5-22.9-50.6-35.7c-15.2-12.7-35-22.9-59.4-30.5-6.5-2.8-17.7 4.1-33.6 20.7-15.8 16.5-33.2 46.7-52.2 90.4H81.1v24.8H0v-1c9.3-18.9 26.7-41.7 52.2-68.2 44.1-44.4 76.4-76.3 96.9-95.6s34.9-28.8 43.1-28.4c26.9 4.1 54.9 16.9 84.2 38.2 27.9-12.1 50.6-21 68.2-26.9C407.4 14.4 470.2 4.6 533.3 3.6c22.7-5.9 37-4.5 42.9 4.1 12 20 18 43.7 18 71.3zm-62-48.6c-6.2-10.7-32.5-12.1-78.8-4.1-46.3 7.9-98.1 22.7-155.3 44.4-16.5 9-32.6 7.3-48.1-4.9s-34.8-21.3-57.9-27.1c-7.6-1-33.5 20-77.8 63s-68 68.4-71.1 76H94c17.2-35.5 35.1-63.9 53.7-85.3s33.4-31.9 44.4-31.5c23.1 4.5 50 18.4 80.6 41.9 26.5 23.1 50.5 35.8 71.8 38.2 62.7 4.8 109.7 7.2 141.1 7.2s47-4.8 47-14.5c-2.4-19.3-9.6-33.6-21.7-42.9-6.9-7.9-6.9-15.2 0-21.7 12.2-8.2 19.3-21.1 21.3-38.7zM540 79c.7 23.4 9.1 43.4 25.3 59.9 7.2-16.5 10.9-36.5 10.9-59.9 0-27.2-2.9-44.3-8.8-51.2-17.9 6.9-27.1 24-27.4 51.2z"/></svg>