<svg xmlns="http://www.w3.org/2000/svg" viewBox="0 0 594.2 214.9"><path d="M0 79c0 23.4 6 50 18.1 79.6 5.9 9.6 19.8 11.7 41.9 6.2 63.7 1 113.7.8 149.9-.8s63.6-7.8 82.2-18.9c18.6-11 35.5-22.9 50.6-35.7 15.2-12.7 35-22.9 59.4-30.5 6.5-2.8 17.7 4.1 33.6 20.7 15.8 16.5 33.2 46.7 52.2 90.4h25.3v24.8h81.1v-1c-9.3-18.9-26.7-41.7-52.2-68.2-44.1-44.4-76.4-76.3-96.9-95.6-20.5-19.3-34.9-28.8-43.1-28.4-26.9 4.1-54.9 16.9-84.2 38.2-27.9-12.1-50.6-21-68.2-26.9C186.9 14.4 124 4.6 61 3.6 38.3-2.3 24-.9 18.1 7.7 6 27.7 0 51.4 0 79zm62-48.6c6.2-10.7 32.5-12.1 78.8-4.1S238.9 49 296.1 70.7c16.5 9 32.6 7.3 48.1-4.9s34.8-21.3 57.9-27.1c7.6-1 33.5 20 77.8 63 44.3 43.1 68 68.4 71.1 76h-50.6c-17.2-35.5-35.1-63.9-53.7-85.3C427.9 71.1 413 60.6 402 60.9c-23.1 4.5-50 18.4-80.6 41.9-26.5 23.1-50.5 35.8-71.8 38.2-62.7 4.8-109.7 7.2-141.1 7.2s-47-4.8-47-14.5c2.4-19.3 9.6-33.6 21.7-42.9 6.9-7.9 6.9-15.2 0-21.7C71.1 60.9 64.1 48 62 30.4zM54.3 79c-.7 23.4-9.1 43.4-25.3 59.9-7.2-16.5-10.9-36.5-10.9-59.9 0-27.2 2.9-44.3 8.8-51.2 17.9 6.9 27 24 27.4 51.2z"/></svg>