<svg xmlns="http://www.w3.org/2000/svg" viewBox="-10 0 1061 335"><path d="M977 335l-10-3-23-38-20-5q-22-28-48-58.5T828 179q-22-21-31-21-12 0-28 10t-33 23.5Q719 205 706 215q-14 11-35 26.5T626.5 269Q603 281 581 281q-13 0-34-6.5T503 261q-26-8-50.5-15.5T412 238q-31 0-66.5 10T276 269q-23 7-60 15t-73 13q-36 5-57 5-29 0-40-4t-12-5q-16-14-30-46t-14-83q0-51 12-93t24-60q11-4 39-7.5T131 0q87 0 144.5 8T372 30q39 14 70 33.5t64 42.5q29 20 54 36t39 16q6 0 23-10t39-23q32-20 69-39.5T790 66q25 0 48 18.5t44 43q21 24.5 36 41.5 28 29 49.5 53t44.5 45l39 37zM86 282q20 0 55-5t71.5-12q36.5-7 58.5-15 34-11 71-21t70-10q17 0 44 7.5t52 15.5q23 8 42.5 13.5T581 261q16 0 37-11t42-25.5q21-14.5 35-25.5 12-9 30.5-23.5t37.5-26q19-11.5 34-11.5 12 0 32.5 18.5t43 44q22.5 25.5 39.5 47t21 27.5l24 5 31-13q-4-3-17.5-17t-31-32.5Q922 199 905 181q-14-15-34.5-38T829 102.5Q808 85 790 85q-20 0-53.5 18.5T672 141q-24 15-43.5 26T599 178q-20 0-46.5-17.5T495 122q-33-23-62.5-41.5t-67.5-32q-38-13.5-93.5-21T131 20q-38 0-59.5 2.5T42 27q13 20 24.5 44t19 45.5Q93 138 93 150q-2 15-8.5 39T69 238q-9 25-17 42 3 1 11 1.5t23 .5zm-49-15q6-14 14.5-37.5t15-46.5q6.5-23 7.5-37-1-14-14-43.5T30 47q-8 20-14.5 50T9 164q0 38 8.5 63T37 267zm973 38l14-6-18-18-12 5zm-29 12l15-6-16-20-14 5z" fill="currentColor"/></svg>