<svg xmlns="http://www.w3.org/2000/svg" viewBox="0 0 181.4 594.6"><path d="M172.9 67.9c9.4 61 7.6 130-5.4 206.8-13 76.8-9.1 143.4 11.8 199.8 5.1 14.1 1.1 24.3-12.2 30.7l-27.5 14.7c4.3 16.6 1.5 31.6-8.3 44.8-7.7 9.8-19 17.7-33.9 23.7s-32.9 7.6-53.8 4.8S8.2 583.5.1 572.4c8.1-28.6 26-57 53.8-85.2 29.3-15.7 44.1-62 44.1-138.9 0-29-6.5-85.5-19.5-169.4S60.8 35.4 64.7 0l108.2 67.9zm-12.8 408.5c-14.9-47.8-21.9-85.9-20.8-114.3 1.1-28.4 4.5-64.4 10.2-107.9 5.8-43.5 5-101-2.2-172.2L92.8 47.4c-1.3 32.4 2.3 79.3 10.9 140.6 8.5 61.3 14.3 116.4 17.3 165.5 3 49.1-6.8 94.6-29.5 136.4 21.3 7.3 38 7.7 49.9 1.3 12.1-6.5 18.3-11.4 18.7-14.8zm-41.6 52.5c-13.7-3.4-30.3-6.8-49.9-10.2-17.1 11.1-29.5 25.6-37.1 43.5 15.4 6.8 32.4 7.7 51.2 2.6 18.7-5.2 30.6-17.1 35.8-35.9z"/></svg>