<svg xmlns="http://www.w3.org/2000/svg" viewBox="-10 0 339.4 979"><path d="M32.4 979l8-13-44 8q-4-5-6-14t6-21l62-91q32-43 54-86t22-103v-62q0-12-2.5-46.5t-6.5-82.5q-4-48-9-102t-10-104q-6-65-10.5-113t-4.5-58q0-35 13.5-63t41.5-28q12 0 28 6.5T203.9 20q13.5 7 15.5 8l110 55q-9 34-20 85.5t-22.5 113q-11.5 61.5-22 126.5t-19 125.5q-8.5 60.5-13.5 110t-5 79.5q0 19 2.5 51t6.5 67.5q4 35.5 7 62.5h-47l-5-15-14-9q-13 0-11 17l12 82zm116-71l-1-11q-2-14 5-25t26-11q10 0 19.5 7t12.5 16h10q-2-15-5-44t-5.5-61.5q-2.5-32.5-2.5-55.5 0-36 6.5-97.5T231.4 490q11-74 24.5-149.5T282.4 200q13-65 24-107l-96-48q-14-8-34-16.5t-30-8.5q-18 0-27 21.5t-9 49.5q0 6 2.5 30t6 61q3.5 37 7.5 78 4 48 9 102t9.5 103.5q4.5 49.5 7 85.5t1.5 47v61q0 66-22.5 110t-56.5 91l-2 2q16 19 38.5 30.5t37.5 15.5zm-133 43l36-7 42-42q-10-5-17.5-11t-14.5-14l-46 67q-5 7 0 7zm46 8h94q-2-14-5-32-7-2-18-6t-23-9z" fill="currentColor"/></svg>