<svg xmlns="http://www.w3.org/2000/svg" viewBox="0 0 585.2 394.7"><path d="M28.7 16.9C70 29.5 104.1 44.2 147.5 47.8c44.2 12.6 173.9 10.2 215 13 26.7 5.3 53.4 3.5 79.9-1.5 23.7-5.2 47.2 1.9 68.5 11.3 8.7 9 31.3 14.2 34.9 17.6-27.6 11.9 5.3 42.4-11.3 64.1-15.6 20.4-31.3 36.9-45.9 64.1 7.5 17.3 10 25.7-9.6 16.7-31.9-22.5-29-12.8-62.2-33.2-12.9-6.3-33.1-43.6-41.5-22.8 14.1 11.7 10.9 16.9-7 16.9-16.8-1.9-27.5 9.6-37.5 18.5-14-19.1-36.8-26.6-60-23.5-16.4-.7-37.5-1.4-29 21.4 4.3 14-7.4 12.2-14.5 2.7-8.3-11.1-21.5-40.7-27.3-39.3-10.6 19.5-36.1-18.1-20.9-31.4-10.3-24.2-24.9 23.7-10.1 33.8 4.7 11.8-2.7 11.1-8.8.6 5.2 10.4-3-38.4-20.5-56.5-14.3-20.8-110-51.7-122.3-64.4 3.3-13 8.1-26 11.3-39zM553.6 18c18.4 17 4.9 70.6-24 50.2-21.4-14.3-46.3-22.1-71.3-26.5-28.9 3-57.9 11.8-87.1 5.1-48.3-3.7-96.8-3.1-145.2-3.2-29 2.7-57.5-5.6-86.2-8.6C98.4 29.9 60.2 11.7 20.5 0 5.1 3 8.1 39.7 0 56.1c0 20.2 21.8 19.5 54.6 34.2 22 12.2 49.2 18.1 67.9 34.4 15.2 26.5 25.7 39.3 25.9 62.8 7.9 26.6 22.4 48.8 5.2 75.2-15.8 36.4-5.4 51.5-24.4 80.1-7.8 25.6-34.3 39.6-22.7 49.8 19.1-.7 47.1 12 39.5-17.2.5-29.9 20.8-58.6 32.1-85.3 6-22.2 11-45.2 18.9-67 4.2-14 7.1-34.2 16.2-10.5 7.4 17.4 23.8 38.2 17.1 56.9 1.3 13 20.3 22.2 16.5 40.5 8.4 25.8.5 55.5-1.1 77.6 14 8.5 50-10.6 31.7-28.5 20.8-13.7-8.2-32.5-6.4-51.8-4.6-34.9-16-69.6-17.3-104.4 21-2.3 46.9-7.4 62.9 11.4 6.9 7 8 37 18.8 14.8 7.5-20.1 35.6-28.5 50-23.2-1.4 37.5 4.5 75.8-6.4 112.3-3.4 28.4-25.7 48.5-36.4 74 19.9-2.5 51.2 10.3 49-19.8 13.4-21.4 3.8-45.2 16-68.9 14.1-41.9 25.9-38.2 24.5-64.2 4.7-26.2 31 8.1 45.6 13.3 16.9 14.5 42 21.6 50.2 43.7 19.6 25.3 10.7 57.8 7.9 86.8-3.5 18.7 30.9 4.6 43.7 9.1 2.6-18.5-19.2-32.9-1.9-47-11.8-25.7-18.7-48.4-24.1-76.5-21.5-7.1-45.5-23.4-47.7-49.3 10.8-21.6 20.4-29.9 39.2-57.5 20.3-28.5-3.6-47.9 12.3-64.9 25.3-15.3 35.8-54.3 20.9-82.8C571.4 0 554.9.1 553.6 18z"/></svg>