<svg xmlns="http://www.w3.org/2000/svg" viewBox="-10 0 1022 795"><path d="M83 795l-93-1 42-53q5-8 16-28.5t23.5-46Q84 641 94 620q9-37 18.5-80.5t19-84.5q9.5-41 17-72t10.5-44q-51-52-87-112T7 108L129 0q56 65 133 92t166 27q27 0 59.5-4.5t58-10Q571 99 580 97q43-10 93-17t102-5q20 0 34 3.5t27 7.5q17 5 39 5t42.5-6Q938 79 950 66q10-11 18.5-25.5T985 15q8-11 17-11 10 0 10 27 0 38-17.5 65T951 139q-26 16-52 22 7 20 16 51t14.5 66q5.5 35 3.5 67-8 15-7 36.5t7 44.5q6 23 13.5 41.5T961 494v35l-19 138v82l-29 12-14 33h-89l36-46 37-87-13-172-66-63-2 53q-7 20-23 56t-34 76q-18 40-33 73l-9 55-19 2-10 20h-15l-14 34-93-1 30-39 67-74 53-161-3-131q-40 16-81 24.5t-82 8.5q-31 0-71-4.5T378 403l15 24 1 137q2 6 9 31t12 49q4 19 7 46t4 44l-39 27-14 34-93-1 42-52 32-42 1-33q-1-4-5.5-20.5t-11-38.5q-6.5-22-14.5-42-10-26-21.5-44.5T277 483l-38-57-49 169-82 166H97zm300-53l23-17q-1-15-4.5-37.5T395 648q-4-19-10-43l-10-40-5-134-50-85 16-12 28 47v-1q52 12 94.5 17.5T536 403q31 0 67.5-6.5t70.5-19q34-12.5 57-30.5-18-27-25-58.5t-7-62.5q0-17 2-25l19 3q0 3-.5 9t-.5 13q0 86 56 142l114 112 14 186-34 76h31l23-8v-71l18-137v-27q-14-18-22.5-49.5T908 387q-2-31 5-47 2-33-4-66t-15-62q-9-29-15-49-4-11-5-13.5t-1-3.5q44-3 70.5-22.5T982 78q12-26 12-49-6 8-13.5 23.5T962 78q-26 25-60.5 30t-66.5-2q-15-4-29.5-7.5T774 94q-55-1-104 7t-96 18q-17 4-42.5 8.5t-53 8Q451 139 428 139q-79 0-160-26T126 28l-95 85q34 65 72.5 126T195 346q-10-26-18.5-57.5T165 219l18-5q4 58 19.5 100t39 79q23.5 37 52.5 79 14 21 26.5 41t22.5 46q10 25 19 55.5t13 49.5l-2 46-25 31zm-327 0h42l74-158 18-63 19.5-67.5Q229 386 223 401q-2-4-4.5-8t-4.5-8q-10-8-19-15t-18-15q-4 17-11.5 49t-17 71q-9.5 39-19.5 79t-18 74q-12 24-24.5 50t-21 44.5Q57 741 56 742zm566 0h39l10-17 15-1 8-47q14-30 29-64t28-64q13-30 22-51t10-25l-2-63q-10-11-15.5-17T740 367q-9 8-20 13l5 142-60 172zm220 39h15l13-20h-12zm33 0h12l11-20h-12zm-259 1h17l10-21h-15zm-32-1h17l13-20h-14zm-240 1h17l10-21h-15zm-32-1h17l13-20h-14zm-258 1h17l10-21H66zm-32-1h17l13-20H38z" fill="currentColor"/></svg>