<svg xmlns="http://www.w3.org/2000/svg" viewBox="-10 0 583 1005"><path d="M501 1005q-25 0-63-20.5T358.5 923q-41.5-41-78-103.5T221 672q-23-85-23-192 0-34 1.5-60.5T202 374q-27 21-58.5 43.5t-62 43Q51 481 26.5 496T-10 517l13-39q10-30 19.5-62t16-73q6.5-41 7.5-97 1-34-7.5-69.5t-21-68Q5 76-5 52q53-25 122-38.5T249 0q62 0 131 13.5T502 52q-11 24-23 56.5t-20.5 68Q450 212 451 246q1 56 7.5 97t15.5 73q9 32 20 62l13 39q-13-6-40-23t-60.5-39.5q-33.5-22.5-67-47T280 362q-1 11-1.5 22.5T278 403q0 108 46.5 203T457 766q56 40 86 80t30 84q0 42-19.5 58.5T501 1005zM24 478q22-14 53.5-36t65.5-47.5q34-25.5 62.5-48.5t43.5-39q15 16 43.5 39t62 48.5Q388 420 420 442t53 36q-16-44-28-95.5T431 246q-1-52 14.5-100.5T477 62q-47-21-108.5-32T249 19q-58 0-120 11T21 62q15 35 30.5 84T66 246q-1 56-7 97t-15 73q-9 32-20 62zm477 508q22 0 37-12t15-44q0-39-27-74t-81-74q-94-68-140.5-166T258 403q0-11 1.5-27t2.5-29q-4-3-7-6.5t-6-5.5q-5 5-11.5 10.5T224 357q-2 18-4.5 49.5T217 480q0 103 22 184.5t57 142Q331 867 370 907t74 59.5q35 19.5 57 19.5z" fill="currentColor"/></svg>