<svg xmlns="http://www.w3.org/2000/svg" viewBox="0 0 267.5 594.6"><path d="M251.8 587.3c-29.8 13.8-56.8 7.9-81.2-17.8-24.4-25.7-41.8-52.9-52.4-81.8-10.6-28.9-16-62.1-16.2-99.6-.2-37.5-.2-70.3 0-98.3s-3.6-50-11.3-66c-9.1 4.3-21.8 12.9-38.2 25.9-12.1 10.3-24.6 20.7-37.5 31-11.2 0-16.2-6.7-14.9-20.1 7.8-38.8 11.9-78.5 12.3-119C12.9 105 8.8 69.4.2 34.9 25.6 15.1 65.7 3.4 120.5 0c55.2 3.4 95.5 15.1 121 34.9-8.6 34.5-12.7 70.3-12.3 107.4 0 40.1 4.1 79.8 12.3 119 1.3 12.9-3.7 19.4-14.9 19.4-13.8-10.3-26.3-20.7-37.5-31-17.7-12.5-32.1-21.1-43.3-25.9-4.7 16-4.1 42.8 1.9 80.5s14.4 71.3 25.2 100.6c10.8 29.3 32.8 61.8 66 97.3 33.2 35.6 37.5 64 12.9 85.1zM207.2 49.2c-20.7-12.9-49.6-19.4-86.7-19.4s-65.8 6.3-86 18.8c3.4 27.2 5.2 56.9 5.2 89.3-2.6 37.1-4.5 69.2-5.8 96.4 25-15.1 53.9-37.9 86.7-68.6 33.2 30.6 62.3 53.5 87.3 68.6-1.3-27.6-3.2-59.7-5.8-96.4-.1-32.5 1.6-62 5.1-88.7zm31 494.8c-33.2-34.9-58.5-70.8-76-107.7s-30.9-97.3-40.4-181.4c-4.3 112.1 5.1 190.8 28.1 236.1 23.1 45.3 45.6 69.9 67.6 73.7 21.2 5.6 28.1-1.3 20.7-20.7z"/></svg>