<svg xmlns="http://www.w3.org/2000/svg" viewBox="-10 0 517 1005"><path d="M248 1005q-16 0-30-28.5t-24.5-75Q183 855 177 801t-6-106q0-54 6-116t15-118.5q9-56.5 16-92.5-28 21-60 44.5t-63 45Q54 479 28.5 495T-10 517l13-39q10-30 19.5-62t16-73q6.5-41 7.5-97 1-34-7.5-69.5t-21-68Q5 76-5 52q53-25 122-38.5T249 0q62 0 131 13.5T502 52q-11 24-23 56.5t-20.5 68Q450 212 451 246q1 56 7.5 97t15.5 73q9 32 20 62l13 39q-14-6-39-22t-56.5-38q-31.5-22-64-45.5T287 366q8 37 17 93.5t15 119q6 62.5 6 116.5 0 52-6 106t-16.5 100.5Q292 948 278 976.5t-30 28.5zM24 478q22-14 53.5-36t65.5-47.5q34-25.5 62.5-48.5t43.5-39q15 16 43.5 39t62 48.5Q388 420 420 442t53 36q-10-30-19-62t-15-73q-6-41-8-97-1-51 15-100t31-84q-47-21-108.5-32T249 19q-58 0-120 11T21 62q15 35 30.5 84T66 246q-1 56-7 97t-15 73q-9 32-20 62zm224 508q9 0 19.5-26t19-69q8.5-43 14-94t5.5-102q0-45-4.5-95.5t-11-99.5q-6.5-49-14-89T263 347l-14-12-8 6-8 7q-6 24-13 63.5T206 500q-7 49-11 99.5t-4 95.5q0 51 5.5 102t14 94q8.5 43 18.5 69t19 26z" fill="currentColor"/></svg>