<svg xmlns="http://www.w3.org/2000/svg" viewBox="0 0 231.1 594.5"><path d="M115.3 594.5c-30.5 0-46.7-19-48.6-56.9-1.9-37.9.3-75 6.5-111 6.2-36.1 12.6-77.1 19.2-123.1s4.7-75.8-5.6-89.4c-8.7 4.1-20.8 12.4-36.5 24.7-11.5 9.9-23.5 19.8-35.9 29.7-10.7 0-15.5-6.4-14.2-19.2 7.4-37.1 11.3-75.1 11.8-113.8.4-35.1-3.5-69.1-11.8-102.1C24.5 14.4 62.9 3.3 115.3 0c52.8 3.3 91.4 14.4 115.7 33.4-8.2 33-12.2 67.2-11.8 102.7 0 38.4 3.9 76.3 11.8 113.8 1.2 12.4-3.5 18.6-14.2 18.6-13.2-9.9-25.2-19.8-35.9-29.7-14.4-11.5-26.8-19.8-37.1-24.7-10.3 13.6-12.1 43.4-5.3 89.4 6.8 46 13.3 87 19.5 123.1 6.2 36.1 8.2 73.1 6.2 111-2.1 38-18.4 56.9-48.9 56.9zM198.2 47c-19.8-12.4-47.4-18.6-82.9-18.6-35.5 0-62.9 6-82.3 17.9 3.3 26 4.9 54.4 4.9 85.4-2.5 35.5-4.3 66.2-5.6 92.2 23.9-14.4 51.6-36.3 82.9-65.6 31.8 29.3 59.6 51.1 83.5 65.6-1.2-26.4-3.1-57.1-5.6-92.2.1-30.9 1.8-59.1 5.1-84.7zm-82.9 198c-7 85-13.8 153.8-20.4 206.6-6.6 52.8-6.4 84.8.6 95.9 13.2 17.7 26.4 17.7 39.6 0 7.4-11.1 7.8-43.1 1.2-95.9-6.6-52.8-13.6-121.6-21-206.6z"/></svg>