<svg xmlns="http://www.w3.org/2000/svg" viewBox="0 0 595.3 552.8"><path d="M595.3 128.1c0 5.7-7.6 9.2-22.7 10.3-15.1 1.1-26 5.1-32.8 11.8-6.7 6.7-18.9 10.1-36.5 10.1-17.2 0-31.9-5.1-44-15.2-12.1-10.2-25.8-16.8-41.1-19.8h-135c-7.7-10.3-7.5-20.7.6-31h134.5c15.3-3.1 29-9.6 41.1-19.5 12.1-10 26.7-14.9 44-14.9 17.6 0 29.9 3.3 36.8 9.8C547 76 557.9 79.9 572.9 81c14.9 1.1 22.2 4.6 21.8 10.3.4 6.5-4.6 9.8-14.9 9.8s-15.5 2.9-15.5 8.6c0 5.7 5.2 8.6 15.5 8.6 10.3.1 15.5 3.3 15.5 9.8zm-141.4-18.4c33.3 32.9 62.1 35.8 86.2 8.6v-17.2c-23.7-27.6-52.5-24.7-86.2 8.6zm-104-66c-18.4-11.5-44.1-17.2-77-17.2-32.6 0-57.8 5.7-75.8 17.2 2.7 23.7 4 50 4 78.7-2.3 32.9-4 61.5-5.2 85.6 22.6-13.4 48.5-33.7 77.6-60.9 29.1 27.6 54.8 47.9 77 60.9-1.1-24.5-2.9-53.1-5.2-85.6 0-28.7 1.6-55 4.6-78.7zm-76.4 183.8c-6.9 78.9-13.4 142.9-19.5 191.9s-5.9 78.7.6 89.1c12.6 16.5 24.9 16.5 36.8 0 7.3-10.3 7.8-40 1.4-89.1-6.4-49-12.8-113-19.3-191.9zM48.3 124.1l28.2 40.8L0 109.7l76.4-53.4-28.1 39.1v.6l129.3-.6c-1.1-17.2-5-38.7-11.5-64.4 22.6-17.2 58.4-27.6 107.4-31 48.6 3.4 84.5 13.8 107.4 31-8 30.6-11.9 62.4-11.5 95.4.4 35.6 4.2 70.9 11.5 105.7.8 11.5-3.8 17.2-13.8 17.2-12.3-9.2-23.4-18.4-33.3-27.6-13-10.7-24.3-18.4-33.9-23-9.6 13-11.3 40.8-5.2 83.3 6.1 42.5 12.1 80.5 17.8 114.1 5.7 33.5 7.8 68 6 103.4-1.7 35.4-16.8 53.1-45.1 53.1s-43.4-17.7-45.1-53.1c-1.7-35.4.2-69.9 5.7-103.4s11.5-71.5 17.8-114.1c6.3-42.5 4.7-70.3-4.9-83.3-8.4 3.8-19.9 11.5-34.5 23-10.7 9.2-21.8 18.4-33.3 27.6-10 0-14.4-5.9-13.2-17.8 7.3-34.5 11.1-70.3 11.5-107.4H48.3z"/></svg>