<svg xmlns="http://www.w3.org/2000/svg" viewBox="-10 0 1235 852"><path d="M699 852q-10-5-23.5-15T657 817q-7-14-13-39t-6-48q0-5-.5-5t.5-5q-17-1-31-7t-21-16q-6 1-13.5 1.5T561 698q-5-2-11.5-8.5T545 672q-8 3-18 5.5t-16 .5q-11-5-15-12-13 4-23 8.5t-15 7.5q-13 9-28 24.5T395 743q-14 14-35.5 33T319 797q-16 2-29-5t-12-7q-60 0-105-17.5T96 723q-32-27-52.5-57.5T12 608Q1 581-3 564q-3-13-5-31t-2-34q0-14 2-26t7-19q10-11 33.5-21T72 417q17-7 29.5-13.5T124 386q1-1 5.5-9t8.5-15q7-12 14-25t18-21q7-7 19-16t23-17q25-18 30-23 3-3 2-8t-3-8q-4-7-8-18t7-24q14-14 30-20 17-5 32-19l30-28q7-8 15.5-15t15.5-13q6-5 15-10.5T398 84q5-31 18.5-57.5T448 0q13 0 31 11.5T510 42q19-5 39-7.5t39-2.5q51 0 75.5 8.5T704 58q4 3 10.5 6t26.5 9q25 8 70.5 24T914 141.5q57 28.5 116 72.5 51 38 102.5 95.5T1225 429q-41 15-105 52.5T982 575q-74 56-147.5 126.5T699 852zM420 73q15-7 32.5-13.5T489 48q-10-13-22-21t-19-8q-8 0-15.5 16T420 73zm272 752q61-78 131-145t140-119.5q70-52.5 130-88t101-52.5q-37-55-82.5-105t-92.5-86q-59-44-114.5-71.5t-100-43Q760 99 735 92q-21-7-28.5-10T694 76q-15-8-37-16t-69-8q-43 0-86 12t-76.5 28.5Q392 109 376 121q-7 6-15 13t-16 15q-14 14-30.5 29.5T278 200q-5 2-11.5 6t-11.5 9q-3 4-1 9.5t4 9.5q5 9 6 19t-7 19q-3 4-12.5 11T223 299q-10 8-22 16.5T182 330q-8 7-14.5 18T156 370q-5 8-9 16t-9 13q-11 14-25.5 22T77 436q-14 5-35 13.5T15 466q-6 7-6 33 0 14 2 31t5 30q5 21 21 55t46 68.5q30 34.5 77 58T274 765q14 0 29.5-13.5T333 720q14-18 21-31 7-14 15-33t12-32q8-13 21.5-33t28.5-37q16-17 34-28t28-14l6 19q-9 3-24.5 12T445 567q-20 22-33 43.5T399 631q-4 14-12.5 34T371 698q-9 17-28 41t-41 37q3 1 7 1.5t8-.5q14-2 34-19.5t40-39.5q13-14 26.5-28.5T447 666q5-4 20-10.5t37-11.5q23-11 43.5-36t30.5-55l18 6q-11 32-32.5 59.5T517 659q5 2 17 .5t19-2.5q35-8 59.5-32.5T654 576l16 12q-18 25-44 51t-63 36q1 2 5 4 3 1 13-2t15-5q29-8 48.5-23.5T668 626l17 10q-4 7-25 25t-51 27q8 6 19 8.5t23 4.5q27-2 42-9.5t24-13.5l11 16q-11 7-27.5 15T658 720q-1 4-1 10 0 22 5 44t11 33q7 12 19 18zM519 202q0-23 7.5-49.5t20-45Q559 89 573 89q13 0 30.5 13.5t32 34Q650 157 655 178l-20 4q-4-18-15-34.5T596 120q-13-11-23-11-9 0-17 15t-13.5 37q-5.5 22-4.5 41zM289 318l-19-2q1-14 12.5-37.5t37-42Q345 218 389 218q38 0 61.5 13.5T485 261q11 16 12 24l-19 3q-1-6-10-18.5T440 247q-19-10-51-10-37 0-58.5 15.5t-31 35Q290 307 289 318zm45 18l-20-2q1-10 8-27t22.5-30.5Q360 263 387 263q24 0 38 10t20.5 22q6.5 12 7.5 18l-19 3q-1-7-11.5-20.5T387 282q-20 0-31.5 10.5t-16 23.5q-4.5 13-5.5 20zm56 26q-13 0-21.5-8.5T360 332q0-12 8.5-21t21.5-9q12 0 21 9t9 21q0 13-9 21.5t-21 8.5zm0-19q10 0 10-11 0-10-10-10-11 0-11 10 0 11 11 11zM91 568q-17 0-29-12.5T50 527q0-17 12-29t29-12q16 0 28.5 12t12.5 29q0 16-12.5 28.5T91 568zm0-20q9 0 15-6.5t6-14.5q0-9-6-15.5T91 505q-9 0-15.5 6.5T69 527q0 8 6.5 14.5T91 548zm117 152q-17 0-29-12.5T167 659q0-17 12-29t29-12q17 0 29 12t12 29q0 16-12 28.5T208 700zm0-20q8 0 14.5-6t6.5-15q0-9-6.5-15.5T208 637q-9 0-15.5 6.5T186 659q0 9 6.5 15t15.5 6z" fill="currentColor"/></svg>