<svg xmlns="http://www.w3.org/2000/svg" viewBox="0 0 590.6 438"><path d="M590.2 353.5H549c0 29.4-.7 57.6-2.2 84.5h-61.7c2.9-107.8-9.1-196.5-36-266-51.9 6.9-105.5 11.6-160.6 14.3-55.1 2.7-100.8-2.6-137.1-15.8-8.8 18.6-23 44.3-42.6 77.2l-25.7-14c17.1-24 25.7-48.3 25.7-72.8C44.6 189.9 8.3 177.6 0 124.2c8.3-53.4 44.6-65.9 108.8-37.5 0-24.5-8.3-48.8-25-72.8l25-14c19.6 32.8 33.8 57.8 42.6 75 36.3-11.8 81.9-16.3 137.1-13.6C343.6 64 391.8 68 432.9 73.4c41.2 5.4 76.1 11.4 104.7 18 28.7 6.6 40.8 17.5 36.4 32.7 4.4 14.7-8.8 25.7-39.7 33.1 40.7 79.4 59.3 144.9 55.9 196.3zm-20.6-21.3c-1-37.2-18.9-94.6-53.7-172 23 77.4 34.1 134.5 33.1 171.2l20.6.8zm-43.4 82.3c6.4-92.1-4.2-175.6-31.6-250.6l-25 5.1c29.4 71.5 41.2 153.4 35.3 245.5h21.3zm16.2-282.2v-17.6c-36.3-7.8-79-14.6-128.2-20.2-49.2-5.6-97.3-8.6-144-8.8-46.8-.2-100.6 7.5-161.3 23.2C92.2 102 74.6 98.2 56 97.5c-18.6-.7-28.4 8.2-29.4 26.8 1 18.1 10.8 26.9 29.4 26.5 18.6-.5 36.3-4.4 52.9-11.8 60.8 16.2 114.5 24 161.3 23.5 46.8-.5 94.7-3.6 143.7-9.2 48.9-5.7 91.7-12.7 128.5-21z"/></svg>