<svg xmlns="http://www.w3.org/2000/svg" viewBox="-10 0 1111 619"><path d="M945 619q-22 0-32-23t-13-63q-4-42-25.5-112T797 262q-46 16-105 29.5T564 305q-67 0-121-11t-96-25.5Q305 254 274 242l-12-4-79 79q-10 10-20 14.5t-18 4.5q-25 0-25-24 0-15 14-30l57-59q-8 1-16 4t-15 6q-16 5-35.5 10.5T74 249q-41 0-62.5-22T-10 168q0-37 21.5-59T74 87q31 0 50.5 5.5T160 104q7 3 15.5 5.5T193 114l-59-61q-7-7-10.5-15T120 24q0-24 25-24 8 0 18 4t20 14l80 80 11-4q47-19 118-41t172-22q86 0 156.5 20.5T840 90q25 9 46.5 16t34.5 7q10 0 19.5-2t19.5-5q13-4 28-7.5t35-3.5q32 0 49 14.5t23 31.5q6 17 6 27t-6 27.5q-6 17.5-23 31.5t-49 14q-20 0-35-3.5t-28-7.5q-10-3-19.5-5t-22.5-2q53 85 78.5 154.5t33.5 116q8 46.5 8 63.5 0 56-37 56-16 0-26-9-8 15-30 15zM219 114q5-2 11-3.5t13-4.5l-74-74q-13-13-21-13-7 0-7 7 0 4 3 7.5t5 6.5zm726 486q11 0 14.5-8t2.5-16q-2-8-3.5-18t-3.5-22q-13-95-58-187T796 179l17-10q36 49 70 109.5t58.5 126Q966 470 975 533q4 27 9 44t17 17q17 0 17-37 0-48-16-102.5T960 345q-26-55-56.5-105T843 150l17-10q13 17 24 33l22 32q5-1 8.5-1h6.5q12 0 22 2.5t21 5.5q13 4 26.5 6.5t32.5 2.5q24 0 37-10t17.5-22.5q4.5-12.5 4.5-20.5 0-7-4.5-19.5t-17.5-23q-13-10.5-37-10.5-19 0-32.5 3t-26.5 7q-11 3-21.5 5.5T921 133q-16 0-38-7.5T833 108q-49-18-117-37.5T564 51q-97 0-167 21.5T281 113q-23 9-41.5 15.5T208 135q-15 0-30-4.5t-25-8.5q-14-5-33-10t-46-5q-31 0-48 16.5T9 168q0 28 17 45t48 17q27 0 46-5.5t33-10.5q12-4 25-8t30-4q13 0 31.5 6t41.5 16q46 19 116 40t167 21q65 0 121.5-12.5T787 245l-30-43 17-9q33 47 64.5 102t54 115Q915 470 920 531q2 31 8.5 50t16.5 19zM148 317q5 0 10-4t11-10l73-73q-7-2-13-4t-11-3l-69 73q-2 2-5 6t-3 8q0 7 7 7z" fill="currentColor"/></svg>