<svg xmlns="http://www.w3.org/2000/svg" viewBox="0 0 352 591.5"><path d="M205.8 0c-.4-.1-.7-.1-1.1 0-16.4 1.1-32.8 1.7-49.2 1.6-3.5.2-3.8 4.7-2.6 7.2 7.4 20.8 13.7 41.9 19.7 63.1h-.8c-5.9.1-11.9 0-17.7.6-.1.1-.2.3-.3.4-.4-1.3-1.3-2.5-2.6-2.9-19.1-12.8-37.5-26.6-55.8-40.4-.6-.1-1.1-.3-1.7-.2-1.8 1.1-2.5 3.7-3.5 5.5-3.2 8.7-5.9 17.5-9.5 26-2.5 6.5-5.4 12.9-7.3 19.5 1.7 3.6 6.2 2.4 9.2 1.5 22.6-4.8 45.8-4.4 68.8-4.7-2.3 5-3.3 10.7-5.3 15.8-.9 2.9-2 5.9-2.7 8.9-.4-.1-.8-.1-1.3 0-28 10.9-55.4 24.2-79.4 42.5-11.4 8.9-22.8 18.1-32.8 28.5-.2 4.2 4.5 5.6 7.7 6.8 6.5 2.7 12.9 5.3 19.4 8-3.3 4.5-4.1 10.3-6.2 15.4-10.9 31.8-26.1 61.9-38.9 93 .1 3.5 4.5 4.6 7.2 3.3 4.5-.9 9-1.3 13.5-1.4-.9 3.5-1.3 7.3-2.9 10.6C22 333 9.5 355.4.1 379c-.6 3.3 3.6 5 6.2 3.7 11.5-1.9 23.2-3.6 34.9-4-1.3 3.2-1.6 6.9-2.6 10.2-5.7 23.9-13.9 47.4-14.9 72.1-.2 16.1 1.7 32.1 4.3 48 4.4 26.1 12.3 51.4 22.4 75.8.2 3.6 5.5 5.1 7.3 1.9 1.5-3.3 1.9-7 3.1-10.4 5.8-21.1 10-42.7 11.9-64.5 1.8-18.8 2.6-37.8 2.4-56.7-.8-22.1-6.1-43.8-9.5-65.6-.6-3.3-1-6.7-1.9-9.9 11.3 1.1 22.3 3.3 33.4 5.6 3.6.1 4.4-4.7 2.8-7.2-9.5-24.9-19.2-49.7-27.2-75.1.4.1.8.1 1.1.2 9.6 1.7 19.3 4 29.1 4.6 3.1-2.5.9-6.7-.6-9.5C90.6 272.7 81 245.9 77.2 218c-1.2-7.6-1.2-15.3-2.5-22.9 8.3 3.4 16.6 6.7 24.9 10 3.6-.9 3.8-5.3 3.1-8.3-1.3-18.1 2.5-36.8 11.7-52.5 7.8-13.9 19.1-25.4 30.6-36.3 4.6 3.9 9.9 6.8 15 9.9-.9.2-1.7.4-2.6.7-9.5 18.3-17.4 37.3-25.9 56.1-1.1 2.6-2.4 5.3-2.7 8 2.4 3.8 7.3 2.5 11 2.6 3.5-.1 7-.2 10.6-.2-1.2 3.7-1.5 7.7-2.7 11.3-6.8 28-13.5 56-20.2 84.1 1.1 3.9 5.8 3.8 9 3.5l17.4-.6c-1.6 4.6-2.3 9.5-3.9 14.1-7.5 27.5-15.2 55.1-22.5 82.6 1.1 4 6 3.9 9.3 3.6 9.2-.3 18.5-.5 27.7-.8-.5 1.5-.8 3.1-1.1 4.5-5.8 25.3-14.7 50.1-16 76.2-.1 23.7 3.4 47.2 8.8 70.2 4.5 18.6 10.8 36.6 18 54.3.4 3.2 5 4.7 6.9 1.9 1.5-2.7 1.8-6 2.9-9 7.8-27.1 12.3-55.2 13.8-83.3.9-15 1.5-30.1.8-45.1-1.6-21.6-6.4-42.7-9.9-64-.4-2.1-.7-4.3-1.3-6.4 9.7-.3 19.4-.6 29.1-1 3.4-2.7 1.5-7.3.6-10.7-8.2-29.5-16.4-59.1-24.8-88.6 8.1-.3 16.2-.6 24.3-1 3.4-2.7 1.5-7.3.5-10.7-8.5-28.8-17.1-57.5-25.6-86.3 8.7-.2 17.4-.4 26.1-.7 3.3-2.2 1.7-6.6.2-9.4-7.7-17.5-15.4-35.1-23.4-52.5 5.8-2.4 11.5-4.8 17.1-7.5 15.5 14.5 29 31.9 35.2 52.4 3.6 12.2 3.8 25.1 2.6 37.7 1.3 3.6 6 3 8.6 1.4 6.5-2.7 12.9-5.3 19.4-8l-.2.2c-1 25.4-6 50.6-15.2 74.3-4.3 11.6-9.6 22.8-14.3 34.2-.4 3.4 4 4.9 6.5 3.4 8.6-1.3 17.1-3 25.6-4.6-1.7 4.7-2.9 9.7-4.8 14.3-7.3 21.3-15.5 42.3-23.4 63.3-.7 3.2 3.1 5.8 5.8 4.2 10.3-2.3 20.8-4.1 31.4-5.1-.2 1-.4 2-.5 2.9-3.5 19.6-7.3 39.1-9.8 58.8-1.3 12.3-1.6 24.7-.8 37.1 1.1 31.2 4.3 62.6 12.6 92.8 1.4 5.1 2.8 10.3 4.4 15.4 1.4 2.9 6.3 2.4 7-.8 12.1-28.7 20.8-58.9 24.8-89.8 2.2-17.9 3.6-36.3.2-54.2-3.5-19-9.1-37.5-13.6-56.3-.7-2.2-1.1-4.5-1.9-6.7 5.4.1 10.8.5 16.2 1.2 7.5.8 14.9 2.4 22.4 3 3.2-.9 2.9-5.1 1.3-7.3-10.5-25.3-24.1-49.5-30.9-76.1-.1-.4-.2-.9-.3-1.4 1.3 0 2.5 0 3.8.1 4.8.4 9.5 1.3 14.3 1.7 3.4-1.5 2.5-5.9 1-8.4-13.9-31.7-29-63-39.8-95.9-1-2.6-1.7-5.5-3.2-7.7-.1-.1-.2-.1-.2-.2 8.7-3.6 17.4-7.3 26.1-11 2-3.5-1.4-6.8-4-8.8-22.2-20.2-46.6-38.3-73.7-51.3-10.2-4.9-20.6-9.5-31.4-13.2-.8-2.4-1.9-4.8-2.5-7.1-2.8-7.9-5.1-16.1-8.6-23.8 1.8.4 4 .1 5.8.2 22-.1 44.3.2 65.9 5.2 2.1.9 6.2.2 5.7-2.8-3.8-12-9.2-23.4-13.1-35.4-1.7-4.9-3.5-9.9-5.6-14.5-.9-.4-1.7-.5-2.6-.3C239.2 40.4 221.1 54.4 202 67c-2 1-4.6 3.1-3.2 5.6-5.4-1-11-.2-16.5-.5h-1.9c.1-.4.2-.8.2-1.3 7.5-22.2 14.9-44.8 27.7-64.7 1.1-2.1 0-5.6-2.5-6.1z"/></svg>