<svg xmlns="http://www.w3.org/2000/svg" viewBox="-10 0 626 1029"><path d="M72 1029q-18 0-29.5-20.5T24 958q-7-30-10-60t-3-49q0-27 4-66.5t9-68.5q-17-1-25-12t-8-24q0-7 5-16t12-21q7-13 16-29.5T39 576q-3 1-5.5 1.5t-5.5.5q-19 0-28-11t-9-26q0-7 5-16t12-21q7-13 16.5-30T39 438q-4 2-11 2-38 0-38-43 0-47 21.5-83.5t56-62q34.5-25.5 74-38.5t74.5-13h16L115 94l57-55q41 47 67 77.5t35 40.5L264 0h79l-9 154 98-115 57 55-118 106h19q35 0 74.5 13t74 38.5q34.5 25.5 56 62T616 397q0 43-39 43-2 0-5-.5t-6-1.5q6 19 15 36t17 30q7 12 12 21t5 16q0 15-9 26t-29 11q-4 0-10-2 5 19 14 35.5t17 29.5q7 12 12 21t5 16q0 13-8 24t-25 12q5 29 9 68.5t4 66.5q0 19-3 49t-10 60q-7 30-19 50.5t-29 20.5q-18 0-29.5-20.5T486 958q-7-30-10-60t-3-49q0-27 4-66.5t9-68.5q-17-1-25-12t-8-24q0-7 5-16.5t12-22.5q8-13 17-29t14-34q-6 2-11 2-19 0-28-11t-9-26q0-8 5-17t12-22q8-13 17-29t15-35q-3 1-6 1.5t-6 .5q-18 0-28-9.5t-9-25.5q0-6 2.5-11.5T461 382q2-5 3.5-10.5T466 361q0-20-11-41t-34.5-36Q397 269 360 268q-8 13-24 22 1 23 11 41.5t19 33.5q7 11 12.5 21.5T384 404q0 14-9.5 25T346 440q-7 0-11-2 5 19 14.5 35t16.5 29q7 13 12.5 22t5.5 17q0 15-9.5 26T346 578q-4 0-10-2 5 18 14 34t16 29q7 13 12.5 22.5T384 678q0 13-8.5 24T351 714q4 29 8.5 68.5T364 849q0 19-3 49t-10 60q-7 30-19 50.5t-29 20.5q-18 0-29.5-20.5T255 958q-7-30-10-60t-3-49q0-27 3.5-66.5T254 714q-17-1-24.5-12t-7.5-24q0-7 4.5-16t12.5-21q8-13 16.5-29.5T270 576q-3 1-5.5 1.5t-5.5.5q-20 0-28.5-11t-8.5-26q0-7 4.5-16t12.5-21q8-13 17-30t14-36q-4 2-11 2-20 0-28.5-11t-8.5-25q0-7 5-17.5t12-21.5q10-14 19-32.5t11-41.5q-17-10-26-22-36 2-59 16.5t-33.5 35Q140 341 140 361q0 11 5 21 3 6 5 11.5t3 11.5q1 16-9.5 25.5T115 440q-7 0-11-2 5 19 14 35t17 29q8 13 13 22t5 17q0 15-9 26t-29 11q-4 0-10-2 5 18 13.5 34t16.5 29q8 13 13 22.5t5 16.5q0 13-8 24t-25 12q5 29 9 68.5t4 66.5q0 19-3 49t-10 60q-7 30-19 50.5T72 1029zm244-876l7-133h-38l6 132q3 0 5.5-.5t5.5-.5q6 0 14 2zm47 32l98-91-28-27-87 99q5 4 9 9zm-123 0q7-11 18-19l-88-99-27 27zm62 93q23 0 38.5-15.5T356 225q0-22-15.5-38T302 171q-23 0-38.5 16T248 225q0 22 15.5 37.5T302 278zm188 143q7 0 17.5-11t17.5-22h17q7 11 17.5 22t17.5 11q19 0 19-24 0-42-19-74.5T527 267q-31-23-67-35t-70-12h-15v5q0 13-5 26 35 2 61 19t40 42q14 25 14 49 0 8-2 15t-5 14q-1 5-3.5 8.5T472 406q0 15 18 15zm-462 0q7 0 18-11t18-22h16q7 11 17.5 22t17.5 11q18 0 18-15 0-4-2-7.5t-3-8.5q-3-7-5.5-14t-2.5-15q0-24 13.5-48.5t39-41.5q25.5-17 60.5-19-2-6-3-13t-1-14v-5h-13q-34 0-70.5 12T78 267q-31 23-50 55.5T9 397q0 24 19 24zm231 0q8 0 18.5-11t17.5-22h16q7 11 17.5 22t17.5 11q9 0 13.5-5t4.5-12q0-4-4-11.5T350 376q-10-16-20-35t-13-39h-28q-3 19-13.5 38.5T256 376q-6 9-10.5 16.5T241 404q0 7 4.5 12t13.5 5zm231 137q7 0 17.5-11.5T525 525h17q7 10 17.5 21.5T577 558q9 0 13.5-5t4.5-12q0-3-4.5-10.5T581 514q-10-18-23-43t-16-52l-8-9q-2 2-4 4.5t-5 4.5q-3 26-15 50.5T487 512q-6 10-10.5 18t-4.5 11q0 7 4.5 12t13.5 5zm-462 0q7 0 18-11.5T64 525h16q7 10 17.5 21.5T115 558q10 0 14-5t4-12q0-3-4-11t-10-18q-11-18-23-42.5T80 419q-6-6-8-9l-8 9q-4 27-16.5 52T24 514q-5 9-9.5 16.5T10 541q0 7 4.5 12t13.5 5zm231 0q8 0 18.5-11.5T295 525h16q7 10 17.5 21.5T346 558q9 0 13.5-5t4.5-12q0-3-4-11t-10-18q-11-18-23-42.5T311 419q-6-6-8-9l-8 9q-4 27-16.5 52T255 514q-5 9-9.5 16.5T241 541q0 7 4.5 12t13.5 5zM28 695q7 0 18-11t18-22h16q7 11 17.5 22t17.5 11q10 0 14-5t4-12q0-3-4-11t-10-18q-11-18-23-42.5T80 557q-4-4-8-10l-8 10q-4 26-16.5 51T24 650q-5 10-9.5 17T10 678q0 7 4.5 12t13.5 5zm462 0q7 0 17.5-11t17.5-22h17q7 11 17.5 22t17.5 11q9 0 13.5-5t4.5-12q0-4-4.5-11t-9.5-17q-10-17-22.5-42T542 557l-8-10q-2 2-4 5t-5 5q-3 25-15 49.5T487 649q-6 10-10.5 18t-4.5 11q0 7 4.5 12t13.5 5zm-231 0q8 0 18.5-11t17.5-22h16q7 11 17.5 22t17.5 11q9 0 13.5-5t4.5-12q0-3-4-11t-10-18q-11-18-23-42.5T311 557q-4-4-8-10l-8 10q-4 26-16.5 51T255 650q-5 10-9.5 17t-4.5 11q0 7 4.5 12t13.5 5zM72 1010q12 0 20-18t12.5-45q4.5-27 6.5-54t2-44q0-28-4.5-69.5T99 709q-8-4-15-11.5T72 684q-5 6-12 13.5T45 709q-5 29-10 70.5T30 849q0 17 2 44t7 54q5 27 13 45t20 18zm462 0q12 0 20-18t12.5-45q4.5-27 6.5-54t2-44q0-28-4.5-69.5T561 709q-8-4-15-11.5T534 684q-5 6-12 13.5T507 709q-5 29-10 70.5t-5 69.5q0 17 2 44t7 54q5 27 13 45t20 18zm-231 0q12 0 20-18t12.5-45q4.5-27 6.5-54t2-44q0-28-4.5-69.5T330 709q-8-4-15.5-11.5T303 684q-5 6-12 13.5T276 709q-5 29-10 70.5t-5 69.5q0 17 2 44t7 54q5 27 13 45t20 18z" fill="currentColor"/></svg>