<svg xmlns="http://www.w3.org/2000/svg" viewBox="0 0 593.7 172"><path d="M129.3 0c-14.1 1.7-21.2 9.1-21.2 22.3C97.6 24 87.9 26.6 79 30.2c-6.5-11.7-16.2-15-29.1-9.7-11.5 8.4-14.1 18.3-7.9 29.8-7.4 3.6-21.4 15.4-42 35.6C20.8 106 34.8 118 42 121.8c-6.2 11.5-3.6 21.3 7.9 29.5 12.9 5.3 22.6 2.2 29.1-9.3 9.1 3.4 18.9 5.9 29.5 7.5 0 13.4 6.9 20.9 20.8 22.6 13.9-1.7 20.8-9.2 20.8-22.6l22.3-4c5 12 14.4 16.2 28 12.6 12.2-6.9 15.8-16.5 10.8-28.7 18.7-10.5 38.3-19.4 58.9-26.6 32.8 0 76.5 4 131.1 12 54.6 8 94 12 118.3 12 24.3 0 42.7-4.2 55.3-12.6 12.6-8.4 18.9-17.8 18.9-28.4 0-10.3-6.3-19.6-18.9-28-12.6-8.4-31-12.6-55.3-12.6-24.3 0-63.8 4-118.3 12-54.6 8-98.3 12-131.1 12-20.8-7.2-40.5-16-58.9-26.6h-.4c5.3-12.5 1.8-22.2-10.4-29.1-13.6-3.6-23 .7-28 12.9l-22.3-3.9c0-13.3-6.9-20.8-20.8-22.5zm0 43.4c26.4 0 53.8 7.6 82.1 22.8-15.6 5.7-43 8.5-82.1 8.5-29.4 0-51.6-4.3-66.4-13 20.4-12.2 42.6-18.3 66.4-18.3zm373.6 24.3c14.6 0 29.5-.2 43.8 3.4 7.2 2.1 15.2 4.5 19.6 11 2.3 2.7 1 6.6-1.1 9-8.4 8.3-20.6 11-32 12.3-38.1 3.2-76.3-1.8-113.9-7.3-23.5-4-47-8-70.7-10.3C400 80.2 451 69 502.9 67.7zm-373.6 60.4c-23.8 0-46-6.1-66.4-18.3 14.9-8.7 37-13 66.4-13 39.1 0 66.4 2.8 82.1 8.5-28.3 15.2-55.7 22.8-82.1 22.8z"/></svg>