<svg xmlns="http://www.w3.org/2000/svg" viewBox="-10 0 967 629"><path d="M925 629l-74-41q-4 1-9.5 1H831q-24 0-61.5-6.5t-81-20Q645 549 602 527.5t-78.5-52Q488 445 468 405q-9-20-16.5-42T441 327L-10 42 15 0l457 277q8-2 30.5-6t50.5-4q49 0 95.5 21t87.5 54q41 33 73 69.5t52.5 68Q882 511 887 528l70 47zm-7-27l13-21q-15-10-31-20.5T870 540q-2-13-20.5-43T801 431q-30-36-69.5-69t-85-54.5Q601 286 553 286q-25 0-48 4t-36 8L22 26l-6 9q110 70 221 141t221 140q2 13 9.5 35t18.5 45q19 37 52.5 66t74.5 49q41 20 82.5 33t77.5 19q36 6 58 6 6 0 12-.5t11-2.5z" fill="currentColor"/></svg>