<svg xmlns="http://www.w3.org/2000/svg" viewBox="-10 0 568 613"><path d="M274 613q-32 0-64-16.5T155 549q-21-33-38-90T95 311q-16-18-38.5-36.5t-42-31.5Q-5 230-10 227l16-87q15 6 42 20t47 28q2-26 7-45.5t13-31.5q4-6 9-10.5t9-9.5L88 0h372l-46 91q11 10 19 20 16 23 19 77 19-14 47-28t43-20l16 87q-5 3-24.5 16T491 274.5Q468 293 452 311q-5 91-21.5 148T393 549q-23 31-55 47.5T274 613zM150 81q24-13 55.5-16t68.5-3q37 0 68 3t56 16l31-62H119zm124 513q29 0 55.5-12.5T377 538q24-37 41-105t17-188q0-46-3.5-77T418 123q-20-29-58-35t-86-6q-48 0-86 6t-58 35q-10 14-13.5 45t-3.5 77q0 120 17 188t41 105q21 31 47.5 43.5T274 594zM94 282v-71q-18-16-40.5-29T22 166l-10 51q11 7 35.5 25T94 282zm360 0q22-22 46.5-40t35.5-25l-10-51q-9 3-31.5 16T454 211z" fill="currentColor"/></svg>