<svg xmlns="http://www.w3.org/2000/svg" viewBox="0 0 429.5 465.2"><path d="M218.8 0c-33.4.5-67.3.2-99.8 8.5-12 3-19 15.3-16.4 27.2C104.2 51.1 109 69.4 124 77c5.1 3.2 22.7 1.6 10.2 7.4-17.8 12.6-32.2 29.4-43.1 48.2-17.4-4.7-34.5-10.2-52-14.3-16.4-.9-29.4 13-35.5 26.7-6.1 14.8-5.6 35.9 9.6 45.1 23.7 9.8 47.9 18.7 71.7 28.2 8.2 43.6 1.4 89.7 17.2 132 14.9 35.4 32.5 71.9 63 96.6 21.2 17.6 52 24.1 77.6 12.6 30.9-13.7 50.8-43.2 66.2-72 12.5-23.8 23.7-48.9 26.3-76 4.3-30.7 2.2-62.1 8-92.6 24.3-9.6 48.8-18.7 72.9-28.7 15.6-9.6 15.7-31.7 8.9-46.7-6.6-13.4-20.2-27.4-36.5-24.9-17.1 4.6-34 9.5-51.1 14.3-11.7-20.3-27.7-38.4-47.4-51.3 12.8-1.6 28.6-1.5 36.2-13.9 8.5-13.4 12.7-30.5 9.3-46.1-6.4-14.3-24-15-37.3-17.3C272.1.7 245.4.1 218.8 0zm0 19.8c29.6.4 59.6.2 88.7 6.1 14.5 0 9.1 15.4 5.9 24.1-2.7 12.7-17.2 9.4-26.7 10.6-48.8 1.5-97.7 1.6-146.4-.9-12.3 2.2-15.7-11.6-17.4-20.8-5.4-14 13.1-13.5 22.2-15.4 24.4-3 49.1-3.6 73.7-3.7zm3.8 61c36-.6 70 20.1 89.9 49.6 8.9 13.6 18.5 28.1 20.2 44.7-2 19.3-10.2 37.5-11.5 57-4.7 36.5-1.6 74.3-12.9 109.7-13.4 32.3-29 65.5-55.8 88.8-16.2 14.5-40.7 19.6-60.6 9.8-27.9-13.7-44.5-42-58.3-68.6-9.8-19-18.2-39-20.1-60.5-4.8-39.2-2.2-79.5-14.3-117.6-3.4-11-5.4-23.2.3-33.9 14.3-34 41.4-64.9 78-75 14.5-4.7 30.1-2.7 45.1-4zM37.3 138.1c14.7 4.1 29.5 8.3 44.2 12.4-6.5 13.7-7.1 29.5-3 44.1-18.7-7.4-37.4-14.4-56-21.9-6.9-11.7.7-28.4 12.4-34l2.4-.6zm354.8 0c13.4 3.7 21.2 21.2 15.6 33.8-6.8 4-14.9 6-22.2 9.3-11.9 4.6-23.8 9.3-35.8 13.9 4-14.6 3.8-30.5-2.8-44.3 15.1-4.3 30.2-8.5 45.2-12.7z"/></svg>