<svg xmlns="http://www.w3.org/2000/svg" viewBox="-10 0 262 997"><path d="M121 997q-10 0-31.5-7T45 961q-23-22-39-64.5T-10 783q0-45 12-77t29-53q17-21 33-32.5T88 604V134H-5V79h93V0h65v79h94v55h-94v470q9 5 25 17t33 33q17 21 29 52.5t12 76.5q0 71-16 113.5T197 961q-23 22-44.5 29t-31.5 7zm-87-84q5-19 15-43t28-41q18-17 44-17t43.5 17q17.5 17 28 41t14.5 43q11-23 18-54.5t7-75.5q0-55-18.5-89t-40-51Q152 626 142 620l1 1-10-5V19h-25v597l-9 5v-1q-7 4-21.5 14.5T47 664q-16 19-27 48T9 783q0 44 7 75.5T34 913zM14 114h74V98H14zm139 0h74V98h-74zM51 783l-19-6q6-11 16.5-25.5t28.5-25Q95 716 121 716t43.5 10.5q17.5 10.5 28 25T209 777l-18 6q-7-13-24-30t-46-17q-30 0-47 17t-23 30zm70 194q9 0 29.5-7.5T191 937q-1-9-5-26.5T173.5 875q-8.5-18-21.5-31t-31-13q-19 0-32 13t-21.5 31Q59 893 55 910.5T50 937h-1q20 25 41 32.5t31 7.5z" fill="currentColor"/></svg>