<svg xmlns="http://www.w3.org/2000/svg" viewBox="0 0 174.8 597.8"><path d="M64.3 65.9H32.2V40.5h32.1V0h46.2v40.5h32.9l-.8 25.3H113L124 358c28.2 11.3 43.8 26.3 46.9 45.2 3.1 18.9 4.4 38.3 3.8 58.3-.6 20-2.8 40.5-6.8 61.6-3.9 21.1-14.2 41.6-30.8 54.8-16.6 13.2-37.6 19.8-49.7 19.8-12.1 0-33.1-6.5-49.7-19.4-16.6-12.9-26.9-33.6-30.8-55.2C3 501.4.7 480.7.1 461c-.6-19.7.7-39 3.8-57.8 3.1-18.9 18.4-33.9 46-45.2L64.3 65.9zm23.5 507.5c23.1-3.4 38.6-16.2 46.4-38.4 7.9-22.2 12-45.5 12.2-69.7.3-24.2-.7-43.4-3-57.4-2.3-14.1-16.9-25.1-43.9-32.9H75.1c-27 7.9-41.7 19-43.9 33.4-2.3 14.4-3.1 33.5-2.5 57.4.6 23.9 4.6 47 12.2 69.2s23.3 35 46.9 38.4zM38 461.9v-24.5c33.2-46.7 66.2-46.7 98.8 0v24.5c-32.7-47.2-65.6-47.2-98.8 0zm76 92.9l-10.9-2.5 4.2-33.8c2.3-23.1-1-35-9.7-42.3-8.7-7.3-11-7.3-20 0s-12.4 19.5-10.1 43.1l3.4 32.9-9.2 3.4-9.3-56.6c0-21.4 5.9-35.2 17.7-41.4 11.8-6.2 23.4-6.2 34.6 0 11.3 6.2 17.2 20 17.7 41.4l-8.4 55.8z"/></svg>