<svg xmlns="http://www.w3.org/2000/svg" viewBox="-10 0 267 1013"><path d="M124 1013q-27 0-42-14t-22-35q-7-21-11-42-2-7-3.5-15T41 894q-4-11-8.5-20T23 856Q11 835 .5 812T-10 768q0-28 18-52t55-24q15 0 28 2.5t21 6.5L68 68H-4V0h261v68h-79l-43 633q9-4 21.5-6.5T185 692q36 0 54 24t18 52q0 21-10.5 44T224 856q-5 11-10 20.5t-8 17.5q-2 4-4 11.5t-4 16.5q-4 21-11 42t-21.5 35q-14.5 14-41.5 14zM16 48h222V19H16zm108 575l35-555H88zm-10 370l-1-269q-4-4-17-8.5T63 711q-27 0-40.5 18.5T9 768q0 17 10 38t21 41q6 10 11.5 21t8.5 18h-1q4 8 6 16.5t3 15.5q5 23 14.5 46.5T114 993zm19 0q22-5 31.5-28.5T179 918q2-7 3.5-15.5T188 886q2-7 7.5-18t12.5-21q11-20 20.5-41t9.5-38q0-20-13.5-38.5T185 711q-19 0-32 4t-19 8z" fill="currentColor"/></svg>