<svg xmlns="http://www.w3.org/2000/svg" viewBox="0 0 211.9 594.5"><path d="M101.2 397.8H112l21.5-363H80.3l20.9 363zm14.5 17.7v146.7c0 5.9 2.5 8.9 7.6 8.9 8 0 19.2-14.5 33.5-43.6s21.5-59.7 21.5-91.7c.1-16-20.8-22.8-62.6-20.3zm-19.6 0c-41.3-2.5-62 4-62 19.6 0 32.5 7.2 63.2 21.5 92.3C69.9 556.5 81.1 571 89.1 571c5.1 0 7.4-3 7-8.9V415.5zm65.8-380.7l-34.8 340.3c-2.1 15.2-2.1 22.8 0 22.8 22.8-11.4 45.5-8.6 68.3 8.2 13.5 14.3 13.5 40.6 0 78.7-13.5 38.2-25 66-34.5 83.5s-27.7 26.2-54.7 26.2c-23.2 0-40.4-8.7-51.5-26.2-11.2-17.5-23.1-45.4-35.7-83.8-12.7-38.4-13.3-64.5-1.9-78.4 18.1-17.3 40.1-20.2 65.8-8.9 3.8.4 4.6-7 2.5-22.1L50 34.8H0V0h211.9v34.8h-50z"/></svg>