<svg xmlns="http://www.w3.org/2000/svg" viewBox="0 0 587.3 349.3"><path d="M440.7 132.9c43.3 4.4 78 22.9 104 55.6 26.1 32.7 40.2 65 42.4 97.1 2.2 32.1-10.1 52.1-37 60.1-30.9 9.6-53.1.1-66.7-28.6-13.6-28.7-17.9-59.2-12.9-91.7 5-32.5-4.9-54.9-29.8-67.3h-75.1l-45.1 127.5c-1.6 4-6.4 4.6-14.4 1.8s-11.2-6.4-9.6-10.8l40.9-118.4h-63.7l-44.5 125.6c-1.6 4-6.5 4.7-14.7 2.1s-11.5-6.1-9.9-10.5l40.3-117.2H180l-43.9 125.6c-1.6 4.4-6.3 5.2-14.1 2.4-7.8-2.8-11.1-6.2-9.9-10.2l41.5-117.8H89L45.1 282c-1.2 4.8-5.9 5.8-14.1 3s-11.5-6.2-9.9-10.2l39.7-116.6H6.6c-4.4-1.2-6.6-6-6.6-14.4s2.2-12 6.6-10.8h63.1L113.6 3.6c1.2-4 5.8-4.7 13.8-2.1s11.4 5.9 10.2 9.9L96.8 132.9h64.3L204.4 3.6c1.6-4 6.4-4.6 14.4-1.8S230.2 8 229 12l-41.5 120.8H253L296.4 4.2c2-4.4 7.2-5.3 15.6-2.7 8.4 2.6 11.8 6.5 10.2 11.7l-41.5 119.6h64.9l44-127.4C390.8 1 395.5.2 403.7 3c8.2 2.8 11.5 6.4 9.9 10.8l-40.9 119h68zm58.3 46.9c-5.2 52.9-3.5 90.9 5.1 113.9s21.3 32 38.2 26.8c15.2-4.4 20.3-18.6 15.3-42.7s-24.6-56.7-58.6-98z"/></svg>