<svg xmlns="http://www.w3.org/2000/svg" viewBox="-10 0 1055 820"><path d="M948 820q-19 0-39.5-12T874 775q-14-21-14-50 0-19 5-39l10-40 9.5-40q9.5-40 4.5-41 0-27-14-61t-38-65q-24-31-53-49-12-5-31-6.5t-35-1.5H617l-67 326h-20l68-326H453l-68 326h-19l67-326H288l-67 326h-20l68-326H124L56 708H37l67-326H-10v-20h118L183 0h20l-75 362h145L348 0h19l-75 362h145L512 0h20l-75 362h145L677 0h19l-75 362h94q76 0 131.5 20t94 53q38.5 33 61.5 72.5t33 78q10 38.5 10 69.5 0 53-15 90t-37 56q-22 19-45 19zm0-19q27 0 52-37.5t25-108.5q0-48-21.5-100t-66-95.5Q893 416 824 394q33 34 59 76t26 95q0 21-5 43t-10 43q-5 18-9.5 37.5T880 725q0 35 23 55.5t45 20.5z" fill="currentColor"/></svg>