<svg xmlns="http://www.w3.org/2000/svg" viewBox="0 0 421.9 285.8"><path d="M127.6 216.1c-6.5-19.8-17.9-29.7-34.2-29.7-16.4 0-27.3 9.9-32.9 29.7h67.1zm-67.2 20.7c5.6 19.4 16.6 29 32.9 29 16.4 0 27.8-9.7 34.2-29H60.4zm121.4 0c5.6 19.4 16.8 29 33.6 29 16.4 0 27.5-9.7 33.6-29h-67.2zm67.1-20.7c-6.5-19.8-17.9-29.7-34.2-29.7s-27.5 9.9-33.6 29.7h67.8zm119.5 0c-6.5-19.8-17.9-29.7-34.2-29.7-16.4 0-27.3 9.9-32.9 29.7h67.1zm-66.5 20.7c6 19.4 17.2 29 33.6 29 16.4 0 27.8-9.7 34.2-29h-67.8zm86.5 0c-6 28-24.1 44.3-54.2 49.1-10.3-.9-19.4-3.2-27.1-7.1-15.1-9-23.7-23-25.8-42h-13.6c-6 28-23.9 44.3-53.6 49.1-10.8-.9-19.8-3.2-27.1-7.1-15.1-9-23.7-23-25.8-42h-13.6c-6 28-24.1 44.3-54.2 49.1-10.4-.9-19.4-3.3-27.2-7.2-15.1-9-23.7-23-25.8-42H6.8V216h33.6c2.2-18.9 10.8-33.1 25.8-42.6L4.9 30.8C-2.4 14.9-1.5 5 7.5 1.1s16.8 2.2 23.2 18.1L95.3 167c28.8 4.3 46.3 20.7 52.3 49.1h12.9c3-18.9 12.1-33.1 27.1-42.6l-62-142.7c-6.9-15.9-6-25.8 2.6-29.7 9-3.9 17 2.2 23.9 18.1L216 167c28.8 4.3 46.3 20.7 52.3 49.1h12.9c2.2-18.9 10.8-33.1 25.8-42.6L245 30.8c-6.9-15.9-5.8-25.8 3.2-29.7 8.6-3.9 16.4 2.2 23.2 18.1l64 147.8c29.3 4.3 46.9 20.7 52.9 49.1h33.6v20.7h-33.5z"/></svg>