<svg xmlns="http://www.w3.org/2000/svg" viewBox="-10 0 794 841"><path d="M232 841q-19 0-42.5-11t-44-34Q125 773 116 737H28v-55h82q1-50 13.5-78t22.5-45l1-1L-10 15 40 0l157 543q12 7 32 21t41 36q21 22 36 52 5-35 15-57.5t18-35.5l1-1L183 15l50-15 157 543q12 7 32 21t41.5 36q21.5 22 36.5 52 4-35 14.5-57.5T533 559l1-1L377 15l49-15 158 543q13 7 37.5 25.5t48 47Q693 644 705 682h79v55h-72q-1 39-15 61.5T662 831q-21 10-43 10-23 0-53.5-17T515 770q-10 39-36 55t-54 16q-22 0-53-17t-51-54q-9 39-35 55t-54 16zM130 682h168q-11-36-35-61.5T215.5 579Q192 563 180 557L26 24q-2 2-4.5 2T14 28l154 532q-2 3-3.5 6.5T162 571v-1q-9 14-20 40t-12 72zm193 0h168q-12-36-35-61.5T409.5 579Q386 563 374 557L219 24q-2 2-5 2t-7 2l154 532q-2 3-3 6.5t-3 4.5l1-1q-9 14-20 40t-13 72zm194 0h168q-12-36-35.5-61.5t-47-41.5Q579 563 567 557L413 24q-3 2-5.5 2t-7.5 2l154 532q-1 3-3 6.5t-3 4.5l1-1q-9 14-20 40t-12 72zM47 717h717v-16H47zm185 104q26 0 49.5-18.5T306 737H136q13 44 43 64t53 20zm193 0q26 0 50-18.5t25-65.5H329q14 44 44 64t52 20zm194 0q26 0 49-18.5t25-65.5H523q13 44 43 64t53 20z" fill="currentColor"/></svg>