<svg xmlns="http://www.w3.org/2000/svg" viewBox="-10 0 733 467"><path d="M33 467q-20 0-31.5-12.5T-10 422q0-16 9-31.5T16 363l93-129-93-130Q8 92-1 77t-9-32q0-19 11.5-32T33 0q13 0 25 4.5T84 28l4 7q3-16 14.5-25.5T131 0q13 0 24.5 4.5T181 28l5 7q3-16 14.5-25.5T229 0q12 0 24 4.5T279 28l4 7q3-16 14.5-25.5T326 0q13 0 25 4.5T377 28l110 154q40 2 74.5 9t60.5 23q35 22 55 53.5t29.5 65Q716 366 721 394q2 6 2 12.5V419q0 19-7.5 32.5T692 466q-15 0-28-13.5T641 420q-10-19-16-35l-5-14q-11-29-26-59t-37-43q-11-7-27.5-9t-23.5-2L377 439q-14 19-26 23.5t-25 4.5q-17 0-28.5-9.5T283 432l-4 7q-14 19-26 23.5t-24 4.5q-17 0-28.5-9.5T186 432l-5 7q-14 19-25.5 23.5T131 467q-17 0-28.5-9.5T88 432l-4 7q-14 19-26 23.5T33 467zm0-20q8 0 16.5-3.5T68 427l139-193L68 40Q58 26 49.5 23T33 20Q9 20 9 45q0 13 8 25t15 22l101 142L32 375q-7 10-15 22t-8 25q0 25 24 25zm98 0q8 0 16-3.5t19-16.5l139-193L166 40q-11-14-19-17t-16-3q-24 0-24 25 0 11 5.5 21.5T125 86l106 148-106 147q-7 10-12.5 20.5T107 422q0 25 24 25zm98 0q8 0 16-3.5t18-16.5l139-193L263 40q-10-14-18-17t-16-3q-24 0-24 25 0 11 5 21.5T222 86l107 148-107 147q-7 10-12 20.5t-5 20.5q0 25 24 25zm97 0q8 0 16.5-3.5T361 427l135-187h24q11 1 24 4t22 8q28 17 44 50t28 63l6 14q5 13 12 28.5t16 27.5q9 12 19 12 5 0 9-9.5t4-22.5q0-5-.5-10t-1.5-10q-6-25-15.5-55.5t-27.5-60Q641 250 611 231q-20-13-49-19.5t-60-9.5h-24L361 40q-10-14-18.5-17T326 20q-24 0-24 25 0 11 5.5 21.5T320 86l106 148-106 147q-7 10-12.5 20.5T302 422q0 25 24 25z" fill="currentColor"/></svg>