<svg xmlns="http://www.w3.org/2000/svg" viewBox="0 0 502.5 500"><path d="M361.2 36.9c1.4-12.1-3.5-18.1-14.6-18.1s-18.6 6.3-22.3 18.8L281.9 213H318l43.2-176.1zm-59.2 0c1.4-12.1-3.2-18.1-13.9-18.1-12.5 0-20 6.3-22.3 18.8L223.4 213h36.2L302 36.9zm-57.7 0c3.2-12.1-1.6-18.1-14.6-18.1-11.6 0-19 6.3-22.3 18.8L165.6 213h36.2l42.5-176.1zm-60.6 0c2.3-12.1-2.3-18.1-13.9-18.1-12.1 0-19.5 6.3-22.3 18.8L105.8 213H142l41.7-176.1zm-55 0c2.8-12.1-2.1-18.1-14.6-18.1-12.1 0-19.3 6.3-21.6 18.8L49.4 213h36.2l43.1-176.1zm192.8 197.6H45.2c-11.6 0-17.4 4.9-17.4 14.6s5.8 14.6 17.4 14.6h277c11.1 0 16.7-4.9 16.7-14.6s-5.8-14.6-17.4-14.6zm49.4 29.3c39 60.8 64 121.1 75.2 180.9.9 20.4 7.2 30.4 18.8 29.9 11.6-.5 15.3-10.7 11.1-30.6-19.5-81.6-54.5-141.7-105.1-180.2zm-4.1-29.3c75.6 53.4 120.9 127.1 135.7 221.3-2.3 29.7-14.8 44.4-37.6 44.2-22.7-.2-36.2-14.7-40.4-43.5-22.3-85.8-42.9-142.4-61.9-169.8h-33.4V309h-52.9v-22.3H89.8V309H36.9v-22.3H3.5L0 234.5c13.5-7 22-15.8 25.8-26.4L66.1 37.6C69.4 19 78.2 8.8 92.6 7c36.2-4.6 81-7 134.3-7 48.7 0 94.4 2.1 137.1 6.3 17.6 2.8 25.3 13.2 23 31.3l-40.4 178.9c.5 4.6 7.4 10.7 20.9 18.1h-.7z"/></svg>