<svg xmlns="http://www.w3.org/2000/svg" viewBox="0 0 587.1 345.2"><path d="M485.3 344c-120.6 0-323.1 4.7-415.4-4.6-23.1 4.8-65.8 12.8-69.9-6.5 1.7-21.8 23.5-81.8 117.1-52.3 149 1.5 166.2-4.4 249.4-31.4 9.1-15.7 13.3-28.1 12.4-37.2-8.7-12.2-11.5-23.7-8.5-34.6-3.5-10.9-8.8-16.9-16-18-7.2-1.1-13.2 1.4-18 7.5-4.8 6.1-14.2 10.2-28.1 12.4-11.8-6.1-18.5-15.2-20.2-27.4-1.7-12.2-3.5-18.3-5.2-18.3-7-5.2-10.5-11.8-10.5-19.6-10.5-10-13.7-18.7-9.8-26.1 2.2-4.8 9.3-10.7 21.2-17.6 12-7 22.9-14.8 32.7-23.5 9.8-8.7 21.3-13.8 34.6-15.4 13.3-1.5 26.2-4.9 38.9-10.1-4-10 10.8-22.1 45-21.3 140.5 3.6 160.2 123.3 149.6 200.9-66.2 55.3-99.3 103-99.3 143.1zM401.1 53.9c2.6 5.7 7.4 8.8 14.4 9.5 7 .7 11.1-6.6 12.4-21.9 1.7-13.1 9.6-16.5 23.5-10.5v-.7c-3.5-8.7-9.8-13.1-18.9-13.1-5.7 0-10.9 5.2-15.7 15.7-10.5 10.1-15.7 17.1-15.7 21zm159.4 139.2C578.6 151 551 37.4 465.7 24.5c12.2 31.4 4.1 49.4-24.2 54.2-12.2 5.2-6.1 12.6-7.9 30.4-1.5 15.2-17.5 48.2-37.8 55.2-7.4 15.2-5 29 7.2 41.2 2.6 25.3-2.6 47.5-15.7 66.6-17.9 4.4-56.3 17.1-115.3 25.4-59 8.3-163.2 5.9-201.7-2.5-17.4-3-34.9 13.7-35.7 28.1 21.7-27.2 95 23.1 425.2-1.3 21-57.5 54.5-100.4 100.7-128.7zm-221.5-67c-8 2.5-17 6.2-19.9 8.8-2.8 2.6-7.9 4.1-15.4 4.6.4 13.9 5.2 19.8 14.4 17.6 6.1 2.2 11.4-.1 16-6.9 4.6-6.8 12-9.8 22.2-9.1 10.2.7 17.3 5.6 21.2 14.7 23.5-14.8 34.8-35.5 34-62.1.9-12.2-1.7-19.8-7.8-22.9-7-2.6-11.1-6.3-12.4-11.1-2.2-10 1.3-18.3 10.5-24.8-17.9 4.4-33.2 7.4-46.1 9.1-12.8 1.7-24.5 7.2-34.9 16.3-10.5 9.1-23.5 18.9-39.2 29.4-2.6 5.2-.4 11.8 6.5 19.6-2.2 10 2.6 16.1 14.4 18.3 6.1-.9 11.8-2.5 17-4.9 5.1-2.2 13.8-2.2 19.5 3.4zm92.8-63.7v1.3c11.8 1.7 18.5-5.4 20.2-21.6 0-3.9-2-5.4-5.9-4.6-5.7-.9-8.7 3.9-9.1 14.4l-5.2 10.5zm-55.7-11.7c-25.3 2.9-35 5.5-38.7 10.1-3.7 4.6-5.8 10.8-6.2 18.6h-3.9c-3-11.3-1.4-22.3 5.6-25.8 10.2-5.2 22.5-6.2 43.2-2.9zm-.6 13.1c-6.1 7-19.7 13.3-31.9 16.3-.4 2.6-2.2 3.7-5.2 3.3v-5.9c-.9-12.2 3-18.4 11.8-18.6 8.6-.3 20.1.5 25.3 4.9zm-42.7 24.1l3.6 4.9c-3.9 16.1 8.7 24 65.5 25.9l-17.1 3.3c-33.5 1.8-51.8-8.4-54.9-16-3.1-7.8-1-12.9 2.9-18.1z"/></svg>