<svg xmlns="http://www.w3.org/2000/svg" viewBox="-10 0 1093 909"><path d="M72 909q-19 0-37.5-15T3 845.5Q-10 812-10 756q0-21 7-56.5t23-77Q36 581 64 542t69.5-68.5Q175 444 234 433v-29h38l66-362q4-21 17.5-31.5T388 0q22 0 36 17 14-17 38-17 22 0 37 17 14-17 38-17 22 0 36 17 15-17 39-17 22 0 36 17 14-17 39-17 21 0 36 17 14-17 38-17 22 0 36 17 15-17 39-17 19 0 33 13.5T880 46q-16 88-32.5 179T815 404h34v31q57 12 97.5 41.5t67 68.5q26.5 39 42 79.5T1077 700q6 35 6 56 0 56-13 89.5t-32 48.5q-19 15-37 15-24 0-47.5-21T930 815q0-15 2.5-31t6.5-32l6-38 3-36q0-76-26.5-125T849 494v17h-68v48H639v-48H437v48H294v-48h-60v-18q-50 7-79.5 56.5T125 678q0 17 2.5 36t6.5 38q4 16 6.5 32t2.5 31q0 52-23.5 73T72 909zm668-505h55l66-362q2-9-6-15.5T836 20q-25 0-30 26l-34 185zm-74 0h54l66-362q1-9-6.5-15.5T761 20q-10 0-19 6.5T731 46l-34 185zm-75 0h55l66-362q1-9-7-15.5T687 20q-11 0-20 6.5T656 46l-33 185zm-75 0h55l66-362q2-9-6-15.5T612 20q-25 0-30 26l-34 185zm-224 0h55l66-362q2-9-6-15.5T388 20q-11 0-20 6.5T358 46zm75 0h54l66-362q2-9-6-15.5T462 20q-11 0-19.5 6.5T432 46l-33 185zm74 0h55l66-362q1-9-6.5-15.5T537 20q-10 0-19 6.5T507 46l-34 185zM314 540h103v-48h241v48h104v-48h67v-68H254v68h60zM72 889q17 0 34.5-16.5T124 815q0-11-3-27l-6-32q-4-18-7-38t-3-40q0-87 35-142.5t94-62.5v-19q-54 11-92.5 38.5t-64 64Q52 593 37 631.5T15.5 703Q9 736 9 756q0 73 21 103t42 30zm929 0q21 0 42-30t21-103q0-20-6-52.5t-20-70.5q-14-38-38.5-74T938 495q-37-28-89-40v19q56 10 87.5 65T968 678q0 20-3 40t-7 38l-6 32-3 27q0 41 17.5 57.5T1001 889z" fill="currentColor"/></svg>