<svg xmlns="http://www.w3.org/2000/svg" viewBox="0 0 595.3 466.4"><path d="M463.5 34.4c1.3-11.3-3.2-16.9-13.6-16.9s-17.3 5.8-20.8 17.5l-39.6 163.6h33.8l40.2-164.2zm-55.2 0c1.3-11.3-3-16.9-13-16.9-11.7 0-18.6 5.8-20.8 17.5L335 198.6h33.8l39.5-164.2zm-53.9 0c3-11.3-1.5-16.9-13.6-16.9-10.8 0-17.7 5.8-20.8 17.5l-38.9 163.6h33.8l39.5-164.2zm-56.4 0c2.2-11.3-2.2-16.9-13-16.9-11.3 0-18.2 5.8-20.8 17.5l-38.9 163.6H259l39-164.2zm-51.3 0c2.6-11.3-1.9-16.9-13.6-16.9-11.3 0-18 5.8-20.1 17.5l-40.2 163.6h33.8l40.1-164.2zm179.8 184.4H168.8c-10.8 0-16.2 4.5-16.2 13.6S158 246 168.8 246h258.4c10.4 0 15.6-4.5 15.6-13.6-.1-9.1-5.5-13.6-16.3-13.6zM122.7 246c-47.2 35.9-79.8 92-98 168.1-3.9 18.6-.4 28.1 10.4 28.6 10.8.4 16.7-8.9 17.5-27.9C63 359 86.3 302.7 122.7 246zm349.9 0c36.4 56.7 59.7 113 70.1 168.8.9 19 6.7 28.3 17.5 27.9 10.8-.4 14.3-10 10.4-28.6-18.2-76.1-50.9-132.2-98-168.1zm-3.9-27.2c70.5 49.8 112.7 118.6 126.6 206.4-2.2 27.7-13.8 41.4-35.1 41.2s-33.8-13.7-37.7-40.6c-20.8-80.1-40-132.9-57.8-158.4h-31.2v20.8h-49.3v-20.8h-174v20.8H161v-20.8h-31.2c-17.3 25.5-36.4 78.3-57.1 158.4-3.9 26.8-16.4 40.4-37.7 40.6-21.2.2-32.8-13.5-35-41.2 13.8-87.9 56-156.7 126.6-206.4 12.6-6.5 20.6-14.7 24-24.7l37.7-159c3-17.3 11.3-26.8 24.7-28.6C246.7 2.2 288.4 0 338.2 0c45.4 0 88.1 1.9 127.9 5.8 16.4 2.6 23.6 12.3 21.4 29.2l-37.7 166.8c.4 4.3 6.9 10 19.5 16.9h-.6z"/></svg>