<svg xmlns="http://www.w3.org/2000/svg" viewBox="-10 0 858 826"><path d="M418 826q-81 0-135-36t-86-93.5Q165 639 150 576l-1-6H-9v-19h153q-10-41-20.5-77T100 414H-10v-20h153q-10-40-20.5-80T99 250H-10v-19h153q-10-41-20.5-81T99 87H-10V67h350q5-28 26.5-47.5T418 0q29 0 50.5 19.5T494 67h353v20H734q-13 23-23.5 63T690 231h157v19H734q-13 24-23.5 64T690 394h157v20H734q-13 24-23.5 60T691 551h157v19H686l-1 6q-14 63-46.5 120.5T552 790q-54 36-134 36zM360 67h115q-4-20-20-33.5T418 20q-22 0-38 13.5T360 67zM164 231h506q9-39 19-78t23-66H121q13 27 23 66zm0 163h506q9-38 19-77.5t23-66.5H121q13 27 23 66.5t20 77.5zm1 157h505q9-39 19-74.5t23-62.5H122q13 27 23 62.5t20 74.5zm253 255q69 0 119-33t82-86.5Q651 633 666 572v-2H169l1 2q14 61 46 114.5t82.5 86.5Q349 806 418 806z" fill="currentColor"/></svg>