<svg xmlns="http://www.w3.org/2000/svg" viewBox="0 0 396.1 388.9"><path d="M395.4 201.6v24.8h-79.6l-18.3 58.7h97.2V308H308c-23.1 53.9-59.8 80.9-110.3 80.9-50 0-89.4-27-118.1-80.9H0v-22.8h98.5l-18.3-58.7H0v-24.8h98.5l-18.3-58.1H0v-22.8h98.5L80.3 62H0V37.8h157.3C159.9 12.6 173.4 0 197.7 0s37.8 12.6 40.5 37.8h157.9V62h-80.3l-18.3 58.7h97.9v22.8h-79.6l-18.3 58.1h97.9zM221.9 37.8c-2.2-16.1-10.2-24.1-24.1-24.1-13.9 0-22 8-24.1 24.1h48.2zM286.5 62H109l18.9 58.7h140.3L286.5 62zm0 81.6H109l18.9 58.1h140.3l18.3-58.1zm0 82.8H109l18.9 58.7h140.3l18.3-58.7zm-7.2 81.6H109c23.5 38.7 53.1 58.1 88.7 58.1 35.7 0 62.9-19.4 81.6-58.1z"/></svg>