<svg xmlns="http://www.w3.org/2000/svg" viewBox="-10 0 1100 439"><path d="M1031 439q-35 0-55.5-24T932 355q-17-27-39-58t-56-58q-10 5-41 18.5T722 283q-43 12-87 12-62 0-112-22t-86.5-53.5Q400 188 377 160t-31-40q-69 10-128.5 28.5T117 181q-26 9-44 14.5T44 201q-19 0-36.5-8T-10 160q0-30 36-58.5T125.5 50q63.5-23 147-36.5T452 0q113 0 204 23t161.5 60.5q70.5 37.5 122 81t85 86Q1058 293 1074 326t16 48q0 32-16.5 48.5T1031 439zm0-19q18 0 29-11.5t11-34.5q0-13-15.5-43.5t-48-70.5Q975 220 925 178t-118.5-78q-68.5-36-157-58T452 20q-97 0-178.5 13T133 67.5q-59 21.5-91.5 46T9 161q0 21 35 21 10 0 26-6t40-14q39-13 91-29t114-28q62-12 130-12 96 0 172.5 20t133 49q56.5 29 93.5 57t62 63q25 35 43 63 20 32 37.5 53.5T1031 420zM635 275q38 0 75.5-9.5t67-21Q807 233 820 226q-36-27-89.5-53t-125-43Q534 113 445 113q-20 0-39 1.5t-38 3.5q11 15 33.5 41t56.5 52.5q34 26.5 78.5 45T635 275z" fill="currentColor"/></svg>