<svg xmlns="http://www.w3.org/2000/svg" viewBox="0 0 595.3 179.8"><path d="M526.2 179.8c-6.3-5.9-15.2-16.8-26.8-32.9-11.5-16-27.9-28.1-49.1-36.2-59.6 26.2-110.3 37.3-152.1 33.2-41.8-4.1-75.7-14.5-101.6-31.2s-44.4-25.1-55.2-25.1c-37.5 4.5-74.1 14.2-109.8 29.1-30.7-1.3-39-14.4-25-39.2 19.8-20.8 46-37.6 78.6-50.5C117.7 14.1 179.3 5.3 269.8.6c90.6-4.7 183.5 18 278.8 68.1 19.9 9 35.5 21.9 46.7 38.6-.9 12.2-8.4 26.8-22.4 43.7-14 16.9-29.5 26.5-46.7 28.8zm44-73.2c-5.4-6.3-37.7-21.8-96.9-46.4-59.2-24.6-125.8-36.6-199.9-35.9-74 .7-129.7 7.3-167.2 19.7S45.9 66.7 37.7 74.8c-3.6 10.8-1.1 14.9 7.5 12.2 48.3-17.2 97-28.8 146-34.9s104.6-4.2 166.7 5.8c62.1 9.9 103.7 22.8 124.7 38.6s37.1 32.5 48.4 50.1c18-5.9 31.1-19.2 39.2-40zm-160.5-7.4c-65.5-18.5-136.6-25.5-213.4-21 17.6 16.7 48.4 28.5 92.5 35.2 44 6.8 84.3 2 120.9-14.2z"/></svg>