<svg xmlns="http://www.w3.org/2000/svg" viewBox="-10 0 874 1022"><path d="M427 1022q-54 0-90-23t-59-62q-23-39-37-90t-25-106q-6 6-14.5 10t-21.5 4q-25 0-54.5-30.5t-50.5-83Q54 589 54 523q0-23 6.5-51.5T74 424q-5-8-18.5-31.5t-28.5-57q-15-33.5-26-72T-10 187q0-59 18.5-90T56 66q16 0 26 5t16 10q37-19 83-37.5t106-31Q347 0 427 0t140.5 12.5Q628 25 674 43.5T756 80q6-5 15.5-9.5T798 66q29 0 47.5 31t18.5 90q0 38-11 76.5t-26 72q-15 33.5-28.5 57T780 424q7 19 13.5 47.5T800 523q0 66-21 118.5t-50.5 83Q699 755 674 755q-12 0-21-4t-15-10q-11 55-25 106t-37 90q-23 39-59 62t-90 23zM146 277q64-31 134.5-48.5T427 211q75 0 146.5 16.5T709 276l35-180q-29-14-72.5-32T568 33q-60-13-141-13T286 33q-60 13-103.5 31T110 96zm34 458q15 0 22-8t9-12L90 100q-2-3-9.5-8.5T57 86q-20 0-34 26T9 187q0 39 14 83t34 84q20 40 39 68-7 18-14.5 47T74 523q0 61 17.5 108.5T134 707q25 28 46 28zm494 0q21 0 46-28t42.5-75.5Q780 584 780 523q0-25-7.5-54T758 422q19-28 39-68t34-84q14-44 14-83 0-49-14-75t-34-26q-14 0-22 5t-11 8L644 716q1 4 8.5 11.5T674 735zM184 475q56-25 117.5-38.5T427 423q64 0 125.5 13T670 474l35-178q-63-32-133-48.5T427 231q-74 0-144.5 16.5T149 296zm41 207q46-22 97.5-34.5T427 635q54 0 105 11.5t98 33.5l37-186q-56-25-116-38t-124-13q-64 0-124 13t-115 38zm202 320q52 0 86-25t55-68q21-43 34-97t24-112q-46-22-96-33.5T427 655q-52 0-102.5 12.5T229 702q10 56 23.5 109.5t35 96.5q21.5 43 55 68.5T427 1002z" fill="currentColor"/></svg>