<svg xmlns="http://www.w3.org/2000/svg" viewBox="0 0 262.7 373"><path d="M52.5 138.6c.5-4.1-3.8-11.4-12.9-22.1-6.1 4.6-8.9 11.2-8.4 19.8 7.6 7.1 14.7 7.8 21.3 2.3zM41.1 86c0-4.1-4.6-11.4-13.7-22.1-6.1 4.6-8.9 11.2-8.4 19.8 8.2 7.1 15.5 7.9 22.1 2.3zm25.1 109.7c0-4.1-4.6-11.7-13.7-22.8-6.1 5.1-8.9 11.9-8.4 20.6 7.7 7 15 7.7 22.1 2.2zm131 0c6.6 5.6 13.7 4.8 21.3-2.3.5-8.6-2.3-15.5-8.4-20.6-9.1 11.2-13.4 18.8-12.9 22.9zM222.3 86c6.6 5.6 13.7 4.8 21.3-2.3.5-8.6-2.3-15.2-8.4-19.8-9.1 10.7-13.4 18.1-12.9 22.1zm-43.4 140.9c-17.3-7.6-33.1-11.4-47.6-11.4s-30.1 3.8-46.8 11.4c5.1 20.8 11.3 45.8 18.7 75 7.4 29.2 16.7 43.8 28.2 43.8 11.4 0 20.9-14.6 28.5-43.8 7.6-29.2 13.9-54.2 19-75zm31.2-88.3c6.6 5.6 13.7 4.8 21.3-2.3.5-8.6-2.3-15.2-8.4-19.8-8.6 10.6-12.9 18-12.9 22.1zm-28.9 54.8l6.1-31.2c-16.7-8.6-35.4-12.9-56-12.9s-39 4.3-55.2 12.9l6.1 31.2c15.2-8.1 31.6-12.2 49.1-12.2s34.2 4.1 49.9 12.2zm11.4-56.4l5.3-25.1c-19.3-7.1-41.5-10.7-66.6-10.7-25.1 0-47.3 3.6-66.6 10.7L70 137c18.3-8.1 38.8-12.2 61.7-12.2s43.1 4.1 60.9 12.2zm9.9-44.9l6.9-33.5c-21.3-12.7-47.3-19-78-19s-56.5 6.3-77.3 19L61 92.1c19.8-8.1 43.3-12.2 70.4-12.2 27.1 0 50.8 4.1 71.1 12.2zM262.7 32c-4.6 65-16.7 130.4-36.5 196.4-13.7 3-24.6 16.2-32.7 39.6-13.3 70-33.9 105-61.8 105h-.8C103 373 82.7 338 70 268c-8.1-23.3-19-36.5-32.7-39.6C17.5 162.4 5.1 96.9 0 32 53.3 10.7 97.2 0 131.7 0s78.2 10.7 131 32z"/></svg>