<svg xmlns="http://www.w3.org/2000/svg" viewBox="-10 0 1025 729"><path d="M893 729q-33 0-53.5-16T805 672q-14-25-26.5-52T749 572q-34 35-83 53.5T560 644q-41 0-92-14t-102.5-40Q314 564 271 527.5t-69-82Q176 400 176 347q0-23 4.5-45t11.5-41q-27-4-61.5-6T64 246.5Q32 240 11 222t-21-53q0-26 10-40t23.5-19q13.5-5 21.5-5h5l6 1Q44 88 44 62q0-20 16.5-41T110 0q27 0 44.5 12T184 42q12 18 21 35 26 47 70 89 62-39 148-39 41 0 92 14t102.5 40q51.5 26 94.5 62.5t69 82q26 45.5 26 98.5 0 11-1 21.5t-3 21.5q26 5 61.5 8t70 10.5Q969 493 992 510t23 49q0 26-10.5 40t-24 19.5Q967 624 958 624q-7 0-11-1 5 8 9 19t4 24q0 20-17 41.5T893 729zm0-20q23 0 35-14.5t12-28.5q0-20-11.5-34T903 605l12-15q22 14 43 14 7 0 22-9t15-36q0-26-22-39.5t-56-19q-34-5.5-71-9T779 481l-31.5-18-84-48.5Q579.5 366 545 346t-136-78q-101.5-58-135-78-12-6-25.5-20.5t-26.5-32Q209 120 200 106t-12-19q-13-23-30-45.5T110 19q-23 0-35 14.5T63 62q0 21 10.5 34.5T94 119l6 5-12 14q-11-6-21.5-10T45 124q-8 0-22 9T9 169q0 25 16.5 38.5T68 227q26 6 55 8.5t55.5 4.5q26.5 2 43.5 7l526 296q19 11 30.5 31t21 43q9.5 23 20.5 44t28 34.5q17 13.5 45 13.5zM784 461q3-18 3-37 0-49-25-91.5t-65.5-77q-40.5-34.5-89-59t-97-37.5Q462 146 423 146q-74 0-130 32zM560 625q53 0 98-17.5t77-49.5q-134-78-263-149.5T212 265q-7 19-11.5 39t-4.5 43q0 49 25 91.5t65.5 77q40.5 34.5 89 59t97 37.5q48.5 13 87.5 13z" fill="currentColor"/></svg>