<svg xmlns="http://www.w3.org/2000/svg" viewBox="0 0 588 285.8"><path d="M136.7 72c26.6-30.3 52.3-45.8 77.1-46.4h248c57.6 4.3 85.5 30 83.6 77.1-2.5 17.3-12.1 39.3-28.8 66 9.9-8.1 18.3-13 25.1-14.9 22.3-8.1 36.5-7.9 42.7.5 6.2 8.4 4.3 21.8-5.6 40.4-5 7.4-7.4 19.5-7.4 36.2 14.2 27.9 9.3 44.9-14.9 51.1-16.7-1.2-33.8-16.4-51.1-45.5l-13-3.7c-21.7 37.2-51.7 54.8-90.1 53-66.9-9.9-118.4-13.2-154.7-9.8-36.2 3.4-73.5 2-111.9-4.2-27.2-1.9-43-15.5-47.4-40.9 0-37.8 6.8-67.5 20.4-89.2-15.5-1.2-37.5 3.1-66 13-14.9 6.2-26.9 6.2-36.2 0-9.3-12.4-8.8-28.3 1.4-47.8 10.2-19.5 15.8-43.4 16.7-71.5S39.8-4.2 67 1.4c28.5 35.9 51.7 59.4 69.7 70.6zm387.4 121.7c-9.9 1.2-140.9-31-392.9-96.6-19.2-5.6-33.4-15-42.7-28.3C79.1 55.4 71 46.6 64.2 42.3c-6.8-4.3-10.1.6-9.8 14.9.3 14.2-3.9 29.3-12.5 45.1-8.7 15.8-8.1 23.2 1.9 22.3 9.9-.9 19-3.9 27.4-8.8 8.4-5 25.2-5.3 50.6-.9 24.2 3.1 94.8 19.5 211.8 49.2 117 29.7 180.5 49.5 190.4 59.5 11.8 22.3 20.6 34.1 26.5 35.3 5.9 1.2 9.1-1.9 9.8-9.3-12.4-23.5-14.4-40.7-6-51.6 8.4-10.8 10.1-18.4 5.1-22.8s-16.8 1.8-35.3 18.5zM164.6 82.2l322.3 84.5c20.4-19.8 31.6-37.5 33.4-53 7.4-41.5-12.1-62.2-58.5-62.2H246.3c-31.6-.6-58.8 9.6-81.7 30.7zm-15.8 61.3c-12.4-.6-22 15-28.8 46.9-6.8 31.9.3 50.6 21.4 56.2 65.6 4.3 111.9 5.3 138.9 2.8 26.9-2.5 67.7 1.2 122.2 11.1 32.2 1.9 54.5-10.5 66.9-37.2l-320.6-79.8z"/></svg>