<svg xmlns="http://www.w3.org/2000/svg" viewBox="0 0 325.2 594.4"><path d="M162.6 46.6c17.1-31.5 50.2-47 99.2-46.6 40.5 5.4 61.6 28.3 63.4 68.8-2.2 45-23.4 68.4-63.4 70.2-29.7-1.8-45.7-18.9-47.9-51.3.9-28.3 16.9-43 47.9-43.9v21.6c-13.5 1.3-20.5 8.8-20.9 22.3.9 14.8 7.9 22.7 20.9 23.6 24.3-1.3 36.4-15.3 36.4-41.8 0-22.5-12.1-36.7-36.4-42.5-34.6 0-56.7 12.3-66.1 36.8-9.4 24.5-14.4 52.7-14.8 84.7v445.9h-36.4v-423-22.9c-.5-31.9-5.4-60.2-14.8-84.7C120.1 39.3 98.1 27 63.4 27 39.1 32.8 27 47 27 69.5 27 96 39.1 110 63.4 111.3c12.6-.9 19.3-8.8 20.2-23.6 0-13.5-6.7-20.9-20.2-22.3V43.9c30.6.9 46.6 15.5 47.9 43.8-2.7 32.4-18.7 49.5-47.9 51.3-40-1.8-61.2-25.2-63.4-70.2C1.8 28.3 22.9 5.4 63.4 0c49-.4 82.1 15.1 99.2 46.6z"/></svg>