<svg xmlns="http://www.w3.org/2000/svg" viewBox="-10 0 501 1021"><path d="M231 1021V134q0-49-33-82t-90-33q-55 0-77 28T9 107q0 28 12 49.5T56 178q21 0 28-19.5t6-38.5l19-1q1 17-3.5 35T89 184.5Q77 197 56 197q-32 0-49-28t-17-62q0-26 11-50.5T38 16Q64 0 108 0q51 0 84.5 23.5T240 85q14-38 47.5-61.5T372 0q45 0 71 16t37 40.5Q491 81 491 107q0 34-17 62t-49 28q-22 0-34-12.5T374.5 154q-4.5-18-3.5-35l20 1q-2 19 5.5 38.5T425 178q22 0 34-21.5t12-49.5q0-32-22-60t-77-28q-57 0-89.5 33T250 134v887z" fill="currentColor"/></svg>