<svg xmlns="http://www.w3.org/2000/svg" viewBox="-10 0 673 1067"><path d="M363 1067q-3-35-6.5-75.5T349 912q-4-39-7-69t-6-44q-9-49-20.5-84.5T286 645q-7 3-20 6t-23 4h-31l-70 48q-4 2-18.5 11.5T98 724q-5 0-21-4.5T43.5 707Q26 699 15 691q-10-8-17.5-19.5T-10 642q0-5 10-23t26.5-44Q43 549 62 521t36-54q5-12 14-32.5t26-43.5q17-23 42-41-15-15-29-33.5t-23-51q-9-32.5-9-90.5 0-54-7-81T91 54Q77 41 56 28V0q66 10 94 45t30 113q1 8 2.5 30.5t6 48Q193 262 202 278q7 12 21 24.5t22 18.5q8-1 17.5-2t19.5-1q27 0 52 9 10-7 25-19t22-23q10-16 16.5-40.5t10-47Q411 175 411 166q8-77 37.5-110T545 17l-2 27q-21 13-36 25t-23.5 38q-8.5 26-12.5 81-3 41-9 68t-15 45l72-7q3 33-20.5 61T437 402q35 41 59.5 86t38.5 73l128 255q-62 22-114 63t-97 90.5q-45 49.5-89 97.5zM197 339l12-6 13-5q-10-8-21-18.5T185 288q-10-17-15-43.5t-7-51q-2-24.5-2-34.5-4-69-28-102.5T74 20q21 14 35 27.5T130.5 89q7.5 28 7.5 86 0 55 8.5 86t22.5 47.5q14 16.5 28 30.5zm173 5l37-38 15-2q11-18 19-45.5t11-71.5q4-58 13-86t24.5-41Q505 47 526 35q-35 2-61 33.5T431 169q-2 10-5 34t-10 50q-7 26-17 43-8 11-20.5 22T356 336q6 4 14 8zm9 676q21-24 50-55t62.5-62.5Q525 871 562 845t74-40L518 570q-13-28-38.5-73.5T419 410q-22 9-43 15l-5-19q58-16 89-43.5t37-47.5l-81 9q-5 5-24 25t-36 37l-14-13 15-15q-35-20-75-20-43 0-72.5 16.5t-48.5 40Q142 418 131.5 440T117 474q-17 25-36 52.5t-35.5 52Q29 603 19 620.5T9 642q0 13 5 20.5T26 675q5 4 12 8t15 7q14-3 25.5-8t21.5-12l12 16q-7 5-14 8.5T83 701q9 4 15 4 5 0 15-6t17-12l77-51h34q20-2 43-12.5t39-24.5l14 15q-7 5-16 11t-17 11q19 36 31 74.5t20 84.5q3 17 7.5 56t8.5 84.5q4 45.5 8 84.5zM215 514q2-17 11-28.5t28-11.5q18 0 22 7t4 12h-8q0 1-5 7.5t-21 6.5q-5 0-9-2-6 3-6 9zM36 668q0-5 8.5-18T66 637q12 0 18.5 6t8.5 13l-19 6q-2-6-8-6-5 0-7.5 5.5T56 668z" fill="currentColor"/></svg>