<svg xmlns="http://www.w3.org/2000/svg" viewBox="0 0 370.1 594.6"><path d="M139 266.2l1.2 7.4-11.1 11.1c-2.5 11.5-9.4 20.9-20.9 28.3l-22.1 3.7c0-21.3 13.1-33.6 39.3-36.9l13.6-13.6zm114.3-19.6c-19.7-.8-29.5 5.7-29.5 19.7h-17.2c0-23.8 11.5-36.1 34.4-36.9 16.4-23 23.8-44.3 22.1-63.9C214.7 213.9 186 238 177 238c-7.4 0-13.1-7.4-17.2-22.1H134c-9.8 6.6-17.2 14.8-22.1 24.6-9.8 14.8-18.2 26.6-25.2 35.7-7 9-10.9 27.5-11.7 55.3-20.5 26.2-30.7 42.2-30.7 48l16-14.8c9.8 4.1 13.5 9 11.1 14.8-2.5 5.7-5.5 6.1-9.2 1.2-3.7-4.9-7.2-.8-10.5 12.3.8 3.3 3.7 6.6 8.6 9.8 6.6-4.1 12.7-9.8 18.4-17.2s10.2-10.2 13.5-8.6c3.3 1.6 3.5 3.7.6 6.1-2.9 2.5-5.9 5.1-9.2 8-3.3 2.9-6.1 7.2-8.6 12.9 5.7.8 12.3-.8 19.7-4.9 7.4-4.1 21.3-13.1 41.8-27.1 21.3-2.5 38.9-16 52.9-40.6h13.5c17.2 39.3 35.3 105.8 54.1 199.2l87.3-134c-32-76.3-62.3-126.3-91-150zm12.3-16c32.8 27.9 67.6 82.4 104.5 163.5L253.3 594.6c-19.7-36.9-32.4-78.9-38.1-126-5.7-47.1-14.3-82.2-25.8-105.1-14 16.3-30.4 24.5-49.2 24.5-18 12.3-37.7 23.4-59 33.2-20.5 3.3-33.6-4.1-39.3-22.1-14.8-8.2-19.3-18-13.5-29.5 8.2-18 18-35.7 29.5-52.9 0-23 4.5-39.8 13.5-50.4 9-10.7 16-20.5 20.9-29.5-23.8-48.4-35.7-85.3-35.7-110.7s.2-48.4.6-68.9c.4-20.5-3.3-31.2-11.1-32-7.8-.8-16.2 1-25.2 5.5S4.9 34.6 0 28.9C0 21.5 4.7 15 14.1 9.2c9.4-5.7 24.8-7.8 46.1-6.1s32 18.9 32 51.6c0 96.7 20.9 145.1 62.7 145.1 64.9-17.3 54.4-103.6 55.2-161.1-.8-25.4 13.5-38.3 43-38.7 29.5-.4 48.4 5.5 56.6 17.8 6.6 12.3 2.5 16.4-12.3 12.3-13.9-6.6-26.2-8.6-36.9-6.1s-15.8 11.3-15.4 26.4c9.7 52.8 2.1 83.8-4.2 113.7l30.7-30.7c5.7 14.8 8.6 29.5 8.6 44.3 4.3 17.2-.7 34.8-14.6 52.9z"/></svg>