<svg xmlns="http://www.w3.org/2000/svg" viewBox="0 0 595.3 566.8"><path d="M595.3 215.8c-.4 32-16.8 47.9-49.2 47.9H81.6c-8.2 0-12.5-3.9-13-11.7.4-9.1 4.8-13 13-11.7H546c16 0 24-8 24-24 0-16.4-7.8-24.6-23.3-24.6H70c-31.1 4.3-46.6 24.4-46.6 60.2 0 36.3 15.3 55.7 46 58.3h499.4c9.9.4 15.3 4.3 16.2 11.7-.9 8.2-5.6 12.3-14.3 12.3H69.3C27.9 334.3 4.8 306.9 0 252c5.2-56.1 28.7-84.2 70.6-84.2h476.1c32.4 0 48.6 16 48.6 48z"/><path d="M366.3 382.2c0 5.6-4.3 8.4-12.9 8.4-8.1 0-12.2-2.8-12.2-8.4V57.3c-2.6-21-10.7-31.5-24.4-31.5-15.4 0-24.2 10.3-26.4 30.9v498.6c0 7.7-4.3 11.6-12.9 11.6-8.1 0-12.2-4.1-12.2-12.2v-507C265.3 16 282.5.1 316.8.1c33 0 49.5 16.3 49.5 48.9v333.2z"/></svg>