<svg xmlns="http://www.w3.org/2000/svg" viewBox="-10 0 1029 1030"><path d="M373 1030V696H137q-44 0-77.5-23T8 611.5Q-10 573-10 528q0-42 15.5-81t48-63.5Q86 359 137 359h236V122q0-28 11-56t40-47q29-19 82-19 54 0 83 19t40 47q11 28 11 56v237h262q53 0 85 18.5t32 73.5q0 39-16.5 57.5t-40 23.5q-23.5 5-45.5 5H640v139h375v20H640v64h-68v-64H441v334zm19-20h29V128q0-37 23-59.5T506 46q40 0 63 22.5t23 59.5v613h29V122q0-24-9.5-47.5t-34-39.5Q553 19 506 19q-46 0-70.5 16t-34 39.5Q392 98 392 122zm49-651h131V128q0-28-17.5-45.5T506 65q-31 0-48 17.5T441 128zM137 676h236V537H179v-19h194V379H138q-43 0-72 21t-43 55.5Q9 490 9 528q0 41 16 74.5T70 656q29 20 67 20zm304-158h131V379H441zm199 0h277q18 0 37-3.5t32.5-18Q1000 482 1000 451q0-44-27-58t-71-14H640zM441 676h131V537H441z" fill="currentColor"/></svg>