<svg xmlns="http://www.w3.org/2000/svg" viewBox="-10 0 997 404"><path d="M928 404q-3-56-23-87.5t-49.5-48Q826 252 794 241t-60-25q-28-14-46-40t-18-74q0-43 28.5-72.5T777 0q31 0 67 17.5T912.5 68q32.5 33 53.5 82t21 112q0 46-11.5 84.5T953 404zm-680 0q-3-56-23.5-87.5t-49.5-48Q146 252 114 241t-60.5-25q-28.5-14-46-40T-10 102q0-43 28.5-72.5T96 0q31 0 67.5 17.5t69 50.5q32.5 33 53 82T306 262q0 46-11.5 84.5T272 404zm340 0q-3-56-23-87.5t-49.5-48Q486 252 454 241t-60-25q-28-14-46-40t-18-74q0-43 28.5-72.5T437 0q31 0 67 17.5T572.5 68q32.5 33 53.5 82t21 112q0 46-12 84.5T612 404zm-324-29q6-14 14.5-42t8.5-71q0-57-18.5-102t-48-76.5Q191 52 158.5 36T98 20q-43 0-66 23T9 102q0 42 16.5 65t43 36q26.5 13 57 23.5t59.5 26q29 15.5 50.5 44T264 375zm340 0q6-14 14.5-42t8.5-71q0-57-18.5-102t-48-76.5Q531 52 498.5 36T438 20q-43 0-65.5 23T350 102q0 42 16.5 65t43 36q26.5 13 57 23.5t59 26q28.5 15.5 50 44T604 375zm340 0q7-14 15-42t8-71q0-57-18.5-102t-48-76.5Q871 52 838.5 36T778 20q-43 0-65.5 23T690 102q0 42 16.5 65t43 36q26.5 13 57 23.5t59.5 26q29 15.5 50 44t28 78.5z" fill="currentColor"/></svg>