<svg xmlns="http://www.w3.org/2000/svg" viewBox="-10 0 335 529"><path d="M168 529q-47 0-87.5-18.5T15 458q-25-34-25-81 0-35 14-62.5T38.5 267Q59 247 79 233.5t33-21.5q13-8 29.5-19t28.5-21.5q12-10.5 12-17.5 0-9-10.5-19T147 114q-23-19-45.5-44.5T79 0h40q4 19 25 41t40 35q36 23 65.5 45t29.5 39q0 12-7.5 24.5T255 208q-6 8-10.5 14.5T240 232q0 1 6 9.5t14 19.5q13 17 28 41t26 49.5q11 25.5 11 49.5 0 61-43.5 94.5T168 529zm0-20q61 0 99-27.5t38-80.5q0-22-10.5-45.5T270 311q-14-21-26-38-10-14-16.5-24t-6.5-17q0-8 5.5-17t12.5-19q8-9 14.5-18.5T260 160q0-6-12-16t-29.5-22Q201 110 184 99q-27-17-48-39t-28-41H98q4 26 22.5 45.5T159 99q17 13 30 26t13 29q0 13-13.5 27T156 207.5Q137 220 122 228q-11 6-29.5 18.5t-38 30.5Q35 295 22 320T9 377q0 41 22.5 70.5t59 45.5q36.5 16 77.5 16z" fill="currentColor"/></svg>