<svg xmlns="http://www.w3.org/2000/svg" viewBox="0 0 221.1 285.7"><path d="M.1 0c12.6 15.3 29.7 28.1 51.2 38.2 21.5 10.2 42.4 17.8 63 23s40.1 8.6 58.6 10.3c18.6 1.7 24.5 12.9 17.8 33.6-6.7 20.7-1.7 41.5 14.9 62.4s19.8 44.6 9.5 71c-8.8 31.4-46.8 47.1-113.8 47.1-50.2 0-75.3-28.4-75.3-85.1 0-23.8 16.1-49.6 48.3-77.6C41.7 102.7 21 86.5 12.2 74.5 3.3 62.4-.7 37.6.1 0zm27 49.4C24 62.1 54.9 83.9 119.7 115c-43.7 34.1-64.8 66.1-63.2 96 1.5 29.9 22.6 44.8 63.2 44.8 33.3 1.5 54.2-7.9 62.7-28.2 8.4-20.3 4.8-38.5-10.9-54.6-17.6-12.6-24.3-24-20.1-33.9 4.2-10 8.3-19.1 12.4-27.3 4-8.2-6.2-15.4-30.8-21.6C99.2 87.6 63.9 74 27.1 49.4z"/></svg>