<svg xmlns="http://www.w3.org/2000/svg" viewBox="-10 0 607 1007"><path d="M311 1007q-5-3-16-12.5t-20.5-24Q265 956 265 936q0-30 17.5-46.5T313 867V362h-68l34-154q-14 0-39.5 1l-51 2-37.5 1q0 7-1.5 14t-6.5 14h-24v-31q-16-4-21-14.5T93 170q0-14 16.5-29t42-29.5q25.5-14.5 54-26T258 68q-3-21-21-21-12 0-29.5 8.5T176 64q-16 0-32.5-9T116 46q-7 0-21.5 5T66 60.5Q52 65 45 65 28 65 9.5 48.5T-10 3h25q9 21 29 21 7 0 19-6T89 6q14-6 27-6 19 0 35 9t25 9q10 0 32-9t37-9q18 0 30 10t19 23q6-13 18-23t30-10q15 0 37 9t32 9q9 0 25-9t35-9q13 0 27 6t26.5 12q12.5 6 18.5 6 20 0 29-21h25q-2 29-20 45.5T542 65q-7 0-21-4.5T493 51q-14-5-22-5-11 0-27.5 9T411 64q-14 0-31.5-8.5T350 47q-18 0-21 19 32 11 52 39.5t31 65q11 36.5 15 71.5t4 58v62h-72v505q13 6 30.5 22.5T407 936q0 20-9.5 34.5t-20.5 24q-11 9.5-16 12.5l-20-12q8-12 13.5-25.5T358 936q-1-16-8.5-22t-13.5-6q-6 0-13.5 6t-8.5 22q-2 20 3.5 33.5T331 995zM275 63l9-1q-1-15-9.5-29.5T245 18q-14 0-36 9t-33 9q-13 0-28.5-9T116 18q-17 0-36.5 12T44 42q-12 0-22-10T6 13H4q6 19 17.5 27T45 48q6 0 20.5-5t29-9.5Q109 29 116 29q14 0 30.5 8.5T176 46q13 0 32-8t33-8q31 0 34 33zm37-1q2-14 11-23t23-9q13 0 32.5 8t32.5 8q14 0 30-8.5t30-8.5q8 0 22 4.5t28 9.5q14 5 21 5 12 0 23.5-8T584 13h-3q-6 9-16 19t-22 10q-15 0-35.5-12T471 18q-16 0-31 9t-29 9q-11 0-33-9t-36-9q-20 0-28.5 14.5T303 61q2 0 4.5.5t4.5.5zm-46 280h145v-42q0-24-4.5-60.5t-16.5-73Q378 130 355.5 105T297 80q-19 0-49.5 10.5T186 116q-31 15-52.5 30T112 170q0 10 6.5 16.5T144 193q6 0 32-1t60-2.5q34-1.5 64-2.5zm-51-197v-19l7-9h40v11l-25 7-12 10zm94 844l5-2q-6-8-12.5-19.5T295 936q2-24 15.5-33t25.5-9q12 0 25.5 9t15.5 33q1 20-6 31.5T358 987l5 2q4-3 14.5-15t9.5-38q0-20-8.5-31t-19-16q-10.5-5-17.5-7V362h-12v520q-7 2-17.5 7t-19 16q-8.5 11-8.5 31-1 26 9.5 38t14.5 15z" fill="currentColor"/></svg>