<svg xmlns="http://www.w3.org/2000/svg" viewBox="0 0 408 594.5"><path d="M119.1 207.3c-11.8-1.4-20.5-1.1-26.1.7-5.7 1.8-9.8 1-12.5-2.4s-1.1-8.7 4.7-15.9c4.5.5 9.7 1 15.6 1.7s12 6 18.3 15.9zm268.5 371L372 551.8c-6.8-4.1-11.5-2.7-14.2 4.1l6.1 20.3 23.7 2.1zM171.3 218.8h-12.9c0-17.6 8.1-26.4 24.4-26.4 16.7-19.4 24.2-37.3 22.4-53.6-12.7 11.3-24.3 20.9-34.9 28.8s-17.3 12.5-20 13.9c-2.7 1.4-7.5 1.5-14.2.3-6.8-1.1-11-4-12.5-8.5-1.6-4.5-10.4-3.4-26.4 3.4-16 6.8-25 16-26.8 27.8-11.8 4.1-24 12.2-36.6 24.4 3.6 3.2 5 7.9 4.1 14.2-.9 6.3-4 10.1-9.2 11.2-5.2 1.1-6.6-.9-4.1-6.1 2.5-5.2 1.9-7.1-1.7-5.8-3.6 1.4-5.9 4.9-6.8 10.5-.9 5.7-.2 10.7 2 15.3l6.8 1.4c17.2-14.5 26-20.1 26.4-17 0 2.7-1.5 4.4-4.4 5.1-2.9.7-8 6-15.3 15.9l8.1 1.4 23.1-16.3 42 12.2c8.6.9 16.7-7.5 24.4-25.1l9.5 6.8c0 4.1-5.4 14-16.3 29.8 21.2 21.2 34.5 48.9 39.7 83.1 5.2 34.1 20.5 60.2 45.8 78.3-15.8-33-14.9-65.8 2.7-98.3l8.8 2.7c-10.4 28.5-12.8 49.8-7.1 64.1 5.7 14.2 12.2 26.3 19.7 36.3 7.5 9.9 12.2 19.4 14.2 28.5 2 9-11.6 16.6-41 22.7s-43.9 11.1-43.4 14.9c.5 3.8 11.8 4.5 33.9 2 22.2-2.5 46.8-6.6 73.9-12.2 27.1-5.7 41.6-18.9 43.4-39.7 1.8-20.8 4.7-56.3 8.8-106.5-39.8 3.2-69.1-16.6-87.8-59.3-18.8-42.7-33.8-74-45.1-93.9-11.7-.3-17.6 4.3-17.6 13.7zm43.4-109.1c14.5 31.6 10.9 59.2-10.9 82.7 10.4 22.6 24.3 52.9 41.7 90.9 17.4 38 38 56.9 61.7 56.6 23.7-.2 34.5 7.6 32.2 23.4-2.3 15.8-6.3 56.1-12.2 120.7-3.2 16.7-14.7 27.6-34.6 32.6-19.9 5-48.1 8.6-84.8 10.9-36.6 2.3-54.9 4.5-54.9 6.8 0 3.6 18.9 7.3 56.6 11.2s73.6 1.9 107.5-5.8c12.2-9.5 20.6-5.2 25.1 12.9 9.9-13.6 21-18.8 33.2-15.6 16.7 22.6 27.6 41.8 32.6 57.6-25.8-1.8-47.9-6.8-66.5-14.9-28.9.9-60.9.2-96-2-35-2.3-63.1-4-84.1-5.1-21-1.1-37-2.4-47.8-3.7-10.8-1.4-17.2-10.8-19-28.5-3.2-19 6.6-32.1 29.2-39.3 11.3-3.2 42.5-10.4 93.6-21.7l-6.1-13.6c-30.7-7.2-51.7-33.9-62.7-80-11.1-46.1-26.6-78.9-46.5-98.3-21.7-11.8-36.5-14.2-44.4-7.5s-13.9 9.7-18 8.8c-4.1-.9-8.3-1.2-12.5-1-4.3.2-9.6-1.9-15.9-6.4-8.1-2.3-11.9-5.9-11.2-10.9.7-5 1.2-13.2 1.7-24.8.5-11.5 6.6-20 18.3-25.4l37.3-29.8c1.4-10.9 5.9-18.3 13.6-22.4-17.6-34.8-26.4-61.3-26.4-79.3s.2-34.4.7-48.8c.5-14.5-2.1-22.2-7.8-23.1-5.7-.9-11.6.3-18 3.7s-11.3 3.1-14.9-1C4.9 14.1 8.4 9.2 15 4.9 21.6.6 32.5-.9 47.9.5 63.3 1.9 71 14.3 71 37.8 71 110.6 86.1 147 116.4 147c19.4 0 29.3-13 29.5-39 .2-26 2-49.3 5.4-69.8 3.4-20.6 14.9-32.3 34.6-35.3s32.4.1 38.3 9.1c5 9 2 13.6-8.8 13.6-9.5-5-18.6-6.1-27.5-3.4-8.8 2.7-12.2 21.6-10.2 56.6s-.6 58-7.8 68.8l44.8-37.9z"/></svg>