<svg xmlns="http://www.w3.org/2000/svg" viewBox="-10 0 686 1100"><path d="M56 1100q-37 0-51.5-27.5T-10 1014q0-20 9.5-38.5T28 950l382-142q-1-9-2-39.5t-5-68q-4-37.5-12-68.5-10-40-19-67.5T349 511q-6 2-14.5 5t-16.5 4h-24l-55 38q-3 1-16.5 8.5T200 574q-3 0-15.5-5t-27-11.5Q143 551 134 544q-7-7-13-16t-6-23q0-5 13.5-28t33-53.5Q181 393 200 367q6-14 20.5-42t44.5-50q-12-11-23-25.5T224 209q-7-26-7-71 0-43-6-64t-17-31q-11-10-26-21V0q55 0 80 31.5t25 93.5q0 6 1.5 23.5t5 37Q283 205 290 218q5 10 16.5 19.5T324 252q7-1 12-1.5t13-.5q10 0 18.5 1.5T386 256q8-5 20-13.5t17-18.5q8-13 13-32.5t8-37q3-17.5 3-24.5 7-54 29.5-85.5T558 10v24q-17 10-28.5 19.5t-18 30.5q-6.5 21-9.5 64-1 31-6 51t-12 34l56-9q2 25-16 53t-48 44q27 32 46 65t30 56l79 169q2 2 16 15t27 24l2 40-122 200q-9 15-24 31.5T487 944l-207 46 172-12 79-10v22l67 3 13 101-82-35H399zm226-834l19-9q-8-5-16-14t-12-17q-8-13-12-34t-5.5-40q-1.5-19-1.5-27-2-55-21.5-81T185 15q16 11 27.5 21.5t17.5 33q6 22.5 6 68.5 0 43 6.5 67t17.5 37.5q11 13.5 22 23.5zm136 5l30-32 13-2q9-14 14.5-35t7.5-55q3-46 10-68t19-32q12-10 29-20-28 2-48.5 26.5T466 133q-1 8-3.5 27t-8 39.5Q449 220 441 232q-6 9-16 17.5T407 264q2 1 4.5 2.5t6.5 4.5zM52 1080q15-1 52.5-5.5t88-10.5q50.5-6 104.5-12.5t101-12.5h137l54 26-8-53q-8-1-28-2t-36-2v-19l-62 8-316 19v-13l344-77q19-5 31.5-17t21.5-26l121-197-2-27q-4-4-17-15.5T615 623l-81-175q-10-22-29.5-55.5T457 328q-8 4-16.5 6.5T423 339l-3-18q48-13 70.5-33.5T517 247l-62 10-46 49-12-13 7-9q-24-14-55-14-34 0-57 12t-38 30q-15 18-23.5 35T219 373q-18 26-38 55t-33.5 51Q134 501 134 505q0 10 4 16t10 10q4 3 9.5 6.5T170 543q21-5 36-16l9 13q-5 3-11 6.5t-12 5.5q9 3 12 3 5 0 12.5-5l13.5-9 60-41h27q16-1 34-10t30-19l11 15q-5 5-12 9.5t-14 8.5q14 29 25.5 61t18.5 69q3 14 6.5 39t7 53.5q3.5 28.5 5 54T428 822L35 969q-14 5-20 17.5T9 1014q0 23 12 44.5t31 21.5zm237-676q2-14 10-24t24-10q15 0 18 5.5t3 10.5h-7q0 1-4 6.5t-17 5.5q-3 0-4.5-.5t-2.5-.5q-6 2-6 7zM155 525q0-4 7-14t16-10q10 0 15.5 5t6.5 10l-15 4q-2-3-7-3-3 0-5 3t-2 5z" fill="currentColor"/></svg>