<svg xmlns="http://www.w3.org/2000/svg" viewBox="0 0 599.1 368.5"><path d="M587.7 0c-15.4 0-94.5 70.1-131.1 98.9-5-38.2-36.2-96-94.7-96-103.8 0-164.9 73.1-218.2 134-36.1 41.3-67.9 88.8-117.2 115.4C11.4 260.4.7 275.9.2 293.5c-.4 14.2-1.1 29.6 8.2 41.3 18.6 24.5 51.1 36.9 81.4 33 27.4-2.4 54.7-6.6 82.4-5.4 75.9 3.2 151.9 6 227.8 4.3 23.9-.5 51.4-2.3 69.1-20.5 15.2-15.6 13.2-39.4 11.7-59.5-3.1-42.7-10.2-85-15.1-127.5 34-8.9 70.4-9.5 102.7-24.3 16.3-7.5 27.8-24.2 29.1-41.6 2.1-28.2 4.4-93.3-9.8-93.3zm-226 24.2c74 1 80.8 120.2 87.2 175.2 3.3 28.1 22.8 110.9 2.9 131.3-16.2 16.5-45.3 16.7-67.8 16.9-78.4.5-244.9-7.4-254.5-3.9 8.6-21.2 9.8-56.4-8.7-71.9-13-10.9-27.9-20.3-44.1-24.9-12.3-3.5-13.2 14.8-2 19.1 14.4 5.5 31.9 17 33.6 33.9 1.9 18.7-10.1 37.5-25.1 48.9-22.2 1.8-45.8-7.8-59.4-25.7-7.4-10.2-5.2-23.6-3.5-35.2 2.3-16 20.4-20.9 32.3-28.8 50-33.2 79.5-87.6 121.2-129.3C255.6 48 298.3 23.4 361.7 24.2zm216.1 5.9c3 25.6 6.6 50.4-2 74.4-5 14-19.4 15.3-38.1 20.6-18.8 5.4-49.7 8.6-74.2 14.7-.1-8.2-4.5-16.8 4.1-23C505.5 89.9 541 59 577.8 30.1zM261.3 142.4c-19.3.9-35.5 13.5-54.6 15.7-12.6 2.1-22.2 11.7-26.4 23.4-7.8 11.1-21.9 14.8-32 23.2-8.5 13.8 10.7 19 20.6 13.4 32.5-4.1 65.3-2.2 97.8-5.4 27.2-4 38.1-43.3 17.9-61.5-6.3-5.8-14.8-9.1-23.3-8.8zm1.5 19.4c13.7.8 16.3 19.1 8 27.7-5.8 6.6-22.1 5.4-25.8 4.4 6.5-7.5 6.5-20.1-.5-27.3 5.9-2.3 12-4.8 18.3-4.8zm-45.6 14.1c-2.5 7.2.6 21.3 1.7 19.7-7.3-.6-21.7 2.4-24.3-.5 5.3-10.1 9.7-19.1 22.6-19.2zm-146.6 110C54.2 288 32.2 298.8 32.2 307c0 8.5 31.1 11.1 48.8 5.9 16.1-4.8 2.1-28.6-10.4-27z"/></svg>