<svg xmlns="http://www.w3.org/2000/svg" viewBox="0 0 594.3 363.7"><path d="M268.6 157c39.6-7.8 66.5-18.5 80.7-32.1 1-10.4-3.9-15.9-14.6-16.5-24.9 11-46.9 27.2-66.1 48.6zm85.1-17c-13.3 9.7-32.8 19.2-58.6 28.4-25.8 9.2-39.5 8-41.1-3.6-1-18.5 20.9-40.8 65.6-67.1-7.5-4.2-17-5-28.7-2.4v-19c53.8-.6 80.7 20.6 80.7 63.7h-17.9zm-12.6 182.3l152.2-100.7c-28.5-22.7-50.7-47.1-66.4-73.2-15.7-26.1-32.1-45-49.1-56.7s-39-17-65.9-16l-45.7-2.4c-11.7 0-20.1 6-25.3 18-6.8 1.3-11.8 1.9-15.1 1.9 8.8.6 13.1 4.9 13.1 12.6.6 8.1-6.5 12.2-21.4 12.2l-43.8 26.7-2.4-2.9 42.3-27.7c-2.6-4.2-2.8-8.9-.5-14.1-6.5 7.8-16.9 14.3-31.1 19.5-6.5 3.2-16.4 10.9-29.7 22.9-1.6 10.4-4.1 16.7-7.3 19-3.2 2.3-7.8 1.8-13.6-1.5-4.2 3.2-6.3 7.1-6.3 11.7 0 4.9 5.5 7.1 16.5 6.6s18.6-1.2 22.9-2.2c4.2-1 7.1-.6 8.5 1 1.5 1.6.9 3.4-1.7 5.3s-6.2 1.9-10.7 0l-29.2 2.4c0 2.6 2.9 4.2 8.8 4.9 46.4-4.2 84.6-6.3 114.8-6.3 44.7 27.9 67.1 53.2 67.1 75.9 0 22.6 6.3 43.7 19 63.1zM298.8 19.8C328 2.3 352-2.4 371 5.7s39.6 8 61.8-.2c22.2-8.3 47.3-7.2 75.4 3.2 28 10.4 47.2 13.2 57.4 8.5 10.2-4.7 17.1-7.5 20.7-8.5 6.5-1.9 9.1.6 7.8 7.8-7.5 22.4-23.9 34-49.4 34.8-25.4.8-44.9-1.2-58.4-6.1-13.5-4.9-31.3-4.4-53.5 1.5-22.2 5.8-42.7 5.8-61.5 0-18.8-5.8-33.4-.8-43.8 15.1h-56.9c-10.4-15.9-25-20.9-44-15.1-19 5.8-40.1 5.8-63.5 0-23.3-5.8-41.8-6.3-55.4-1.5-13.6 4.9-33 6.9-58.1 6.1C24.4 50.4 8 38.8.2 16.4-.8 9.3 1.8 6.7 8 8.6c3.9 1 10.9 3.8 20.9 8.5S58 19 86 8.7s53.7-11.4 77.1-3.2 44.5 8.3 63.5.2c18.9-8.1 43-3.4 72.2 14.1zm-73 178c4.9 24.3 2.4 40.8-7.3 49.6-7.8-3.6-12.2-20.1-13.1-49.6-7.1 2.3-19.1 4.4-42.4 5.4 4.6 14.3-1.8 33-7.6 47.9-26.8-11.1-20.9-35.1-16.1-48.4-13-.6-19.5-7-19.5-19-8.8 1-12-2.8-9.7-11.2 0-13.9 7.1-25 21.4-33.1 27.9-24.3 46.5-37.4 55.9-39.4 7.1-2.9 14.1-7.9 20.9-15.1 1.6-2.3 9.2-6 22.9-11.2l13.6-16.5c5.5-4.9 14.3-6.6 26.3-5.3 14.9 3.6 28 5.3 39.4 5.3l21.9-4.9c36.6 9.1 60.9 19.5 72.9 31.4 12 11.8 26.7 30.5 44 55.9s44.5 54.1 81.5 85.8L328.9 363.7c-20.1-37.9-30.2-68.4-30.2-91.4s-17.8-46.4-53.5-70c-3.8-2.7-10.3-4.1-19.4-4.5z"/></svg>