<svg xmlns="http://www.w3.org/2000/svg" viewBox="-10 0 1641 833"><path d="M902 833q-48-73-84.5-141T781 556v-38q0-20-8-50.5T739 421q-4 5-8 17t-6 27q-1 14-.5 25.5t.5 25.5q0 11-6 15t-13 4q-7 0-13-4.5t-6-13.5q0-11 3-30t4-26q1-8 2.5-22t-1.5-31q-23 0-48.5 10T598 440q-1 35-7 67.5t-25 58Q547 591 508 605q7-16 14-41.5t7-44.5q0-26-9-49t-7-24q-16-11-23-20-6-1-21-2t-27-2q-2-8-4.5-20t-2.5-20q0-8 13.5-32.5t39-58q25.5-33.5 61.5-68t81-63q45-28.5 97-43.5-2-6-12.5-20T675 83q-14 0-35.5 6T595 103q-26 8-55.5 16t-52.5 8q-21 0-42.5-8T402 100q-19-9-39-17t-38-8q-16 0-39 8t-49 19q-28 11-57 21t-54 10q-34 0-63.5-17t-49-46Q-6 41-10 5h52q1 20 12.5 33.5T80 59q14 7 23 7 22 0 55.5-11T226 31l58.5-19.5L331 2q20 0 43 7.5T419 25q20 8 39.5 15t34.5 7q15 0 38.5-7T580 25q27-9 55-17t48-8q39 0 64.5 13T788 44q15 18 22 34 7-16 22-34t41-31q26-13 65-13 19 0 47 8t56 17q25 8 48.5 15t38.5 7q15 0 34-7t40-15q23-8 45-15.5t43-7.5q18 0 46.5 9.5L1395 31q34 13 67 24t56 11q9 0 23-7t25-20.5Q1577 25 1579 5h52q-5 35-24.5 64t-48.5 46.5q-29 17.5-63 17.5-26 0-54.5-10t-56.5-21q-25-11-49-19t-40-8q-17 0-36.5 8t-39.5 17q-21 11-42.5 19t-43.5 8q-22 0-51.5-8t-56.5-16q-22-8-43.5-14T946 83q-25 0-38 12.5T893 120q19 8 30.5 18.5T942 157q6 8 7 8 20 17 56.5 42.5t81 54.5q44.5 29 89 57.5t81 51.5q36.5 23 56.5 35-87 33-151.5 80T1049 590q-48 57-83.5 119T902 833zm-28-719q1-5 7.5-17T903 74.5Q918 64 946 64q17 0 39 6.5t46 13.5q27 9 54 16.5t48 7.5q18 0 38-8t39-17q21-10 42.5-19t42.5-9q20 0 45 9t52 20v-1q27 11 54 20.5t49 9.5q40 0 72-27.5t42-65.5h-16q-4 19-17.5 33.5t-30 23Q1529 85 1518 85q-26 0-60.5-11T1388 50q-30-11-56.5-20t-41.5-9q-17 0-38.5 7.5T1209 44q-22 8-43 15t-38 7q-17 0-42-7t-51-16q-27-9-53-16.5T938 19q-36 0-58.5 11.5t-35 27.5q-12.5 16-17 30t-5.5 18q15 1 28 3t24 5zm-748-1q21 0 48-9.5T229 83v1q27-11 51.5-20t44.5-9q22 0 43 9t43 19q20 9 39 17t37 8q22 0 49-7.5T589 84q25-7 47.5-13.5T675 64q26 0 41 9.5t22 21q7 11.5 9 18.5 12-3 25-4.5t26-2.5q-1-4-5.5-18T776 58q-12-16-34.5-27.5T683 19q-18 0-44 7.5T586 43q-27 9-51.5 16T493 66q-18 0-38.5-7T412 44q-22-8-43-15.5T331 21q-15 0-41.5 9T233 50q-34 13-69 24t-61 11q-22 0-46-18T28 20H12q4 23 21 44.5t41.5 35Q99 113 126 113zm773 679q35-75 82.5-149T1099 506.5q70-62.5 170-103.5-29-18-74.5-46.5T1099 295q-50-33-93.5-63.5T937 180q-2-1-4.5-4t-5.5-6q-8-8-21-18.5T870 133q-23-8-61-8-62 0-116 23t-98 58.5Q551 242 519.5 279T471 344.5Q454 373 454 382q0 4 1 10.5t2 10.5q8 1 22.5 2t19.5 2v-1q12-7 32-15.5t45-14.5l5 18q-46 12-69 27 6 5 15 10.5t22 5.5q8 0 19.5-5t25.5-12q22-11 48-21.5t53-10.5q32 0 53 14t32.5 35q11.5 21 16 43t4.5 38v38q0 45 15 85t38 77q23 37 45 74zM790 385q-32 0-32-37 0-29 24-78t71-107l15 13q-46 55-68.5 101T777 348q0 18 13 18 35 0 69.5-43.5T911 191l19 4q-19 96-59 143t-81 47zm-73-146q-13 0-22-6.5t-9-15.5q0-9 9-15.5t22-6.5q13 0 22.5 6.5T749 217q0 9-9.5 15.5T717 239zm0-13q16 0 16-9t-16-9q-15 0-15 9t15 9zM486 390l-15-11q4-6 14.5-16.5T504 347l9 17q-7 4-15 12.5T486 390zm57 178q21-18 27.5-50t7.5-69q-10 4-20.5 6t-21.5 0q11 30 11 56t-4 57z" fill="currentColor"/></svg>