<svg xmlns="http://www.w3.org/2000/svg" viewBox="-10 0 1321 1022"><path d="M1016 1022l-70-10-50-26-498 27q-30 2-45.5-22T337 939q0-32 13.5-51t41.5-30l331-131q19-8 29.5-27t10.5-42q0-28-16-55L606 367q-8-14-18-17-1 5-6 13.5t-7 21.5q-1 10-.5 19t.5 23q0 8-5 10.5t-9 2.5q-5 0-10-3t-5-9q0-11 3-25.5t4-19.5q1-8 1.5-19t-1.5-24q-19 0-37 7.5T479 364q0 43-14 79t-61 53q3-13 6.5-33t3.5-34q0-19-4-36t-6-24q-6-4-9.5-8.5T389 354q-5-1-17-1.5t-21-1.5q-2-8-4.5-18.5T344 315q0-8 17.5-36t49-64q31.5-36 75-67.5T582 102q-1-5-9-16.5T542 74q-12 0-29 5.5T477 90q-20 7-43 13t-42 6q-18 0-35.5-6T323 88q-16-8-31-14t-29-6q-14 0-32.5 6T191 89q-22 10-45 17t-43 7q-30 0-54.5-16t-40-41Q-7 31-10 3h46q1 23 19 35t29 12q17 0 45-7.5T184 25q24-9 46-16.5T267 1q16 0 34 5.5T335 19q17 7 33 12.5t28 5.5q13 0 31-5.5T466 19q22-8 44-13.5T548 0q47 0 70 21t31 40q10-19 33-40t70-21q15 0 37.5 5.5T834 19q19 7 38 12.5t31 5.5q12 0 27.5-6T962 19q19-8 37-13t34-5q14 0 36.5 7t47.5 17q26 10 53 17.5t45 7.5q11 0 29.5-12T1265 3h46q-4 28-19.5 53T1252 97q-24 16-55 16-21 0-44.5-7T1107 89q-20-8-38.5-14.5T1037 68q-13 0-28.5 6.5T977 88q-17 10-34.5 15.5T907 109q-18 0-41-6t-45-13q-18-5-35-10.5T758 74q-20 0-30.5 10T715 104q16 5 27.5 17.5T765 145q20 17 57.5 39.5t81 46q43.5 23.5 81.5 44t58 32.5q-6 12-19 41.5T996 414q-15 36-27 69.5T953 536q-6 29-11.5 59.5t-9 55.5q-3.5 25-3.5 37 0 5 1 12t3 15q2 9 3.5 19t1.5 20q0 41-16.5 64T880 852q-25 11-52 16l-275 51 282-22q3-4 11.5-9.5T872 882q16 0 28 5.5t22 25.5h48l46 69zM602 97q15-4 38-4-1-3-5-14.5T621.5 53q-9.5-14-27-24T548 19q-14 0-35 6.5T471 39q-22 7-41 12.5T396 57q-15 0-31.5-5.5T330 39q-16-6-33-12.5T267 20q-13 0-34 7.5T189 44q-29 10-57 18.5T84 71q-18 0-36.5-14.5T24 19H11q6 29 32 52t60 23q18 0 35-6t48-18q21-7 41-14.5t36-7.5q16 0 33.5 6.5T330 69q17 8 31.5 14t30.5 6q18 0 38.5-6T473 70q20-6 38-11t31-5q30 0 43.5 16.5T602 97zm95 0q1-4 7-14.5T722.5 63q12.5-9 35.5-9 12 0 30.5 5T826 70q21 7 43 13t38 6q16 0 31.5-6T970 69q17-8 34-14.5t33-6.5q15 0 35.5 7t42.5 15q30 11 47 17.5t35 6.5q32 0 58-22t33-53h-13q-4 22-25 37t-35 15q-20 0-48-8.5T1111 44q-22-9-44-16.5t-34-7.5q-14 0-31 6t-34 13q-16 6-33 12t-32 6q-14 0-34-5.5T829 39q-20-7-42-13.5T752 19q-29 0-47 10t-27 24q-9 14-13 25.5T661 93q11 0 19.5 1t16.5 3zM397 993l504-27 17 9q-2-12-6.5-26.5T902 923q-7-21-34-21-9 0-15.5 4.5T844 915q-45 3-96.5 7T646 929q-50 3-88 5.5t-56 2.5v-26q46-8 97.5-18t98.5-19q47-9 81-15.5t44-9.5q21-6 43-16.5t37-29q15-18.5 15-49.5 0-13-5-35-2-8-3-16t-1-15q0-13 3.5-39t9.5-57q6-31 12-60 3-18 14.5-49t25.5-65q14-34 26.5-62.5T1019 313q-27-15-64.5-35.5T877 235q-40-22-73.5-42.5T751 156q-14-15-35-29.5T648 112q-49 0-92.5 18.5T477 177q-35 28-60 57t-38.5 51.5Q365 308 365 315q0 9 2 17 4 1 15 1.5t20 1.5q10-6 25.5-13t34.5-12l4 15q-19 4-32 10t-22 11q5 5 12 8.5t16 3.5q7 0 16-4t20-9q18-8 39-16t43-8q31 0 46 15.5t25 32.5l135 224q18 30 18 65 0 29-13 53t-39 34L399 877q-42 16-42 62 0 21 9.5 38.5T397 993zm253-675q-19 0-31-11t-12-31q0-23 16.5-55t56.5-78l17 10q-38 44-54 73.5T627 276q0 7 5 15t18 8q29 0 48-32.5T730 165l21 3q-16 75-37 112.5T650 318zm-75-113q-10 0-17.5-7t-7.5-14q0-8 7.5-15t17.5-7q11 0 18.5 7t7.5 15q0 7-7.5 14t-18.5 7zm0-12q6 0 8.5-3.5t2.5-5.5q0-2-2.5-6t-8.5-4q-7 0-9 4t-2 6q0 2 2 5.5t9 3.5zM392 323l-14-10q3-5 12-12.5t16-12.5l7 13q-5 3-12 10.5t-9 11.5zm35 144q18-15 25-40.5t8-54.5q-8 5-16.5 6t-18.5 0q8 22 7.5 45t-5.5 44zm569 532v-11q-10-15-18-28t-18-28h-32q4 13 8 30.5t6 29.5z" fill="currentColor"/></svg>