<svg xmlns="http://www.w3.org/2000/svg" viewBox="0 0 541.2 594.6"><path d="M245 142.4c35.9-7.2 60.3-17 73.2-29.4 1-9.1-3.6-13.9-13.6-14.4-22.5 9.6-42.4 24.2-59.6 43.8zm76.8-15.8c-12 8.6-29.7 17.1-53.1 25.5-23.4 8.4-35.9 7.5-37.3-2.5-1-16.7 19.1-37.1 60.3-61-7.2-3.8-16-4.5-26.6-2.2V68.5c48.8 0 73.2 19.6 73.2 58.9l-16.5-.8zM272.3 17.5c26.3-15.8 48.2-20 65.7-12.6s36.2 7.4 56.3 0c20.1-7.4 42.9-6.5 68.6 2.9 25.6 9.3 43 11.8 52 7.5 9.1-4.3 15.6-6.9 19.4-7.9 5.7-1.4 7.9 1 6.5 7.2-6.7 20.1-21.5 30.5-44.5 31.2-23 .7-40.7-1.1-53.1-5.4-12.4-4.3-28.7-3.8-48.8 1.4-20.1 5.3-38.8 5.3-56 0-17.2-5.3-30.6-.7-40.2 13.6h-51.7c-9.6-14.4-23-18.9-40.2-13.6s-36.5 5.3-57.8 0-38.2-5.7-50.6-1.4c-12.4 4.3-30.1 6.1-53.1 5.4C21.8 45.1 7 34.7.3 14.6-.7 8.4 1.7 6 7.5 7.4c3.4 1 9.7 3.6 19 7.9 9.3 4.3 26.7 1.8 52-7.5s48.7-10.3 70-2.9c21.3 7.4 40.7 7.4 58.1 0s39.3-3.2 65.7 12.6zm-30.2 48.8c-10.5 0-18.2 5.5-23 16.5-5.7 1-10.3 1.4-13.6 1.4 8.1.5 12.2 4.3 12.2 11.5.5 7.7-6 11.5-19.4 11.5l-40.2 23.7-2.2-2.2 38.8-25.8c-2.4-3.8-2.6-8.1-.7-12.9-5.7 7.2-15.1 13.2-28 17.9-6.2 2.9-15.3 10-27.3 21.5-1.4 9.1-3.6 14.7-6.5 16.9-2.9 2.2-6.9 1.6-12.2-1.8-4.3 3.3-6.5 6.9-6.5 10.8 0 4.3 5 6.3 15.1 6.1 10-.2 17.1-.8 21.2-1.8 4.1-1 6.7-.7 7.9.7 1.2 1.4.6 3-1.8 4.7-2.4 1.7-5.7 1.6-10-.4l-26.6 2.9c.5 2.4 3.3 3.8 8.6 4.3 42.1-3.8 77-5.7 104.8-5.7 40.2 25.4 60.3 48.3 60.3 68.9 0 20.6 9.1 53.4 27.3 98.3 3.8-11.5 18.2-31.3 43.1-59.6l5.7 27.3c-30.6 36.4-47.4 68.9-50.2 97.6C275.4 434 242 463 218.8 485.5c-23.2 22.5-25.5 31.1-6.8 25.8 18.7-5.3 61.9-18.1 129.6-38.4s96.9-50.6 87.6-90.8c-9.3-40.2.1-98.3 28.4-174.4-31.6-24.9-54.4-49.2-68.6-72.9-14.1-23.7-29-40.9-44.5-51.7-15.6-10.8-35.5-15.7-59.9-14.7l-42.5-2.1zm61-19.4c33 8.1 55 17.7 66 28.7s24.3 28 39.8 51c15.6 23 40.6 49.1 75 78.2-30.1 79-38.8 151.5-25.8 217.5-17.2 31.6-39.4 51.7-66.4 60.3-27 8.6-64.8 18.8-113.4 30.5-48.6 11.7-71.5 20.9-68.9 27.6 2.6 6.7 16.6 8.4 42 5 25.4-3.3 61.3-6.7 107.7-10 31.6-19.6 47.6-15.1 48.1 13.6 9.6-17.7 23-27.5 40.2-29.4 17.2 30.6 29.4 55.5 36.6 74.7-51.2-4.8-104.4-6.9-159.7-6.5s-94.6 1.1-118.1 1.8c-23.4.7-41.8 1.7-54.9 2.9-13.2 1.2-22.4-9.5-27.6-31.9-8.6-23.4 4.1-43.1 38-58.9 39.7-42.1 85.9-85.9 138.5-131.4l4.3-17.2c-21.5-50.2-32.3-85.7-32.3-106.2 0-21.1-16.3-42.4-48.8-63.9-3.8-2.4-9.8-3.8-17.9-4.3 4.3 22.5 2.2 37.6-6.5 45.2-6.7-3.3-10.8-18.4-12.2-45.2-6.2 2.4-13 3.8-34.6 4.3 8.9 17.8-.2 33.7 1 46.4-27.6-8.7-27.9-27.7-26.8-46.4-11.5-.5-17.2-6-17.2-16.5-8.1 1-11-2.4-8.6-10 0-12.9 6.5-23 19.4-30.1 25.4-22.5 42.4-34.7 51-36.6 6.2-2.4 12.4-6.7 18.7-12.9 1.4-2.4 8.4-5.7 20.8-10l12.9-15.1c4.8-4.8 12.4-6.5 23-5 13.9 3.4 26.1 5 36.6 5l20.1-5.2z"/></svg>