<svg xmlns="http://www.w3.org/2000/svg" viewBox="-10 0 881 1001"><path d="M431 1001V653q0-25-11-53t-30-45l-92 51q-37 21-66 33t-44 12q-20 0-42-17t-50-51L9 476q-8-11-13.5-22t-5.5-25q0-13 6-27t20-30l146-165q52-58 90-87t65-34q18-37 43-61.5T405 0q14 0 22.5 6.5T442 26l13 28q26-15 55-15 14 0 27.5 20.5T555 105q74 30 132.5 87T787 322.5q41 73.5 62.5 151T871 621v380zM341 82q14-1 24.5-1.5T386 80h32q9-9 20-17l-13-29q-2-5-7-9.5T404 20q-9 0-22 11.5T357.5 58Q346 73 341 82zm110 902h400V624q0-64-20-138t-58-145.5Q735 269 680.5 212T557 125q-2 27-10.5 61T528 247l-18-7q11-31 19-62t8-60q0-13-6-28.5T518 65q0 83-45 147l-15-8q22-33 31.5-69t9.5-77q-44 10-70 37.5T386 154l-15-7q9-25 28-48h-35q-58 0-101.5 36T171 224L26 385q-6 8-11.5 20T9 430q0 8 3 17.5T22 465l84 104q11-6 26.5-14.5t29.5-17q14-8.5 20-13.5l9 15q-4 2-17 9.5t-29 17q-16 9.5-28 16.5 26 31 40.5 41t30.5 10q12 0 33-8.5t43.5-20Q287 593 303 583l117-66q68-38 104.5-73t36.5-74q0-29-12-64h19q7 20 9.5 36t2.5 28q0 44-36.5 81.5T421 537l-14 8q24 22 34 53t10 55zM209 326l-10-14 29-15q-15-8-15-28 0-17 15-29l-29-15 10-14 94 51v13zm39-39q7 0 12.5-5t5.5-13q0-8-5.5-13.5T248 250q-8 0-13.5 5.5T229 269q0 18 19 18zM68 469l-19-7 9-27-19-19 12-12 27 26z" fill="currentColor"/></svg>