<svg xmlns="http://www.w3.org/2000/svg" viewBox="0 0 418.8 594.5"><path d="M418.8 594.5H174.3c.5-163-4.4-266.6-14.8-310.9-55.6 23.1-86.7 23.8-93.1 1.8-6.4-21.9-12.3-32.9-17.7-32.9-14.3 0-23.6-15.5-28.1-46.5C6.9 199.2 0 189.1 0 175.8c3.4-22.2 31.8-48.3 84.9-78.3 0-20.7 22.6-38.7 67.9-53.9C165.7 14.5 182.9 0 204.6 0c22.2 0 40.9 9.8 56.1 29.5 1-10.8 14.9-16.1 41.7-15.9 26.8.2 40.3 25.5 40.3 75.7 50.7 20.2 76.1 106.4 76.1 258.5v246.7zM182.4 38.4c10.8-8.4 26.6-11.8 47.3-10.3-17.2-12.8-33-9.4-47.3 10.3zm208.3 528.1V347.1c0-129.5-20.2-208.5-60.6-237.1-11.8 9.8-20.9 15-27.3 15.5l25.9 20.7-4.4 7.4c-36.4-27.1-65.2-42.1-86.4-45.1l.7-11.1 23.6 2.2c13.8 0 22.6-10.8 26.6-32.5 7.4-16.7 14.5-25.1 21.4-25.1-4.9-6.9-10.8-10.3-17.7-10.3-11.8 0-23.9 14.5-36.2 43.6-17.2 3.4-25.8 6.4-25.8 8.9v15.5h-16.9V79.8c0-9.8 4.9-15.6 14.8-17.4 9.8-1.7 16.5-7.3 19.9-16.6-33-1.5-55.4 3.2-67.2 14-23.6 2.5-42.8 9.4-57.6 20.7s-22.2 21.7-22.2 31c-45.8 24.6-72.6 47.8-80.5 69.4l4.4 5.2h1.5c0-10.8 7.1-16.2 21.4-16.2s21.2 6.2 20.7 18.5c0 7.9-6.4 11.8-19.2 11.8-4.4-7.4-10.1-11.1-17-11.1v1.5c5.4 0 9.2 7.4 11.4 22.2 2.2 14.8 7.6 22.2 16.2 22.2s20.8-3.2 36.6-9.6c13.8 1 20.7 3 20.7 5.9 0 10.3-1.2 15.5-3.7 15.5l-14-2.2c-9.8 4.4-18.2 6.6-25.1 6.6 7.4 21.7 16.1 32.1 26.2 31.4 10.1-.7 32.9-9.2 68.3-25.5l-3.7-11.8 9.6-4.4 8.9 20.7 1.5-.7-8.1-19.9 8.1-3.7c-1-4.4 1.2-7.1 6.6-8.1 9.8 5.9 17 17.5 21.4 34.7l4.4 23.6-7.4 3.7c-6.9-25.1-13.8-41.4-20.7-48.7h-1.5c10.3 23.6 15.5 39.9 15.5 48.7l-8.1 1.5-3.7-11.1h-4.4c9.8 48.3 15 143.3 15.5 285.1h187.6zM316.8 53.2l-5.9 7.4c5.4 0 8.1 1.6 8.1 4.8 0 3.2-4.7 7.3-14 12.2v.7l16.2-3 .7 8.9c-18.7 4.4-28.1 7.6-28.1 9.6l19.2 4.4c8.9-4.9 13.3-10.8 13.3-17.7 0-6.9-1.5-16.7-4.4-29.5l-5.1 2.2zm-181.6 31c9.8-.5 26.6.7 50.2 3.7 2.5 5.4 2 9.6-1.5 12.6l-14-.7c-7.9 18.2-20.4 24.4-37.7 18.5v9.6h-14.8v-11.1c0-18.8 5.9-29.7 17.8-32.6zm0 19.2c-.5 3.4 1.6 5.2 6.3 5.2 4.7 0 9.5-3.7 14.4-11.1-13.9-.5-20.7 1.5-20.7 5.9zm151.4 0c0 2-3.4 3.7-10.3 5.2 1 3.4 3.7 5.4 8.1 5.9 0-3 5.9-5.7 17.7-8.1v-.7l-15.5-2.3zm-32.5 13.3c15.8 3 43.1 19.2 82 48.7l-8.1 11.1c-24.1-24.1-45.1-39.4-62.8-45.8v5.2c24.1 13.3 44.8 28.3 62 45.1l-5.2 15.5c-19.7-27.6-41.4-46-65-55.4l-2.9-24.4zm3.7 31c16.2 0 37.2 18.5 62.8 55.4l-5.9 11.8c-10.3-17.2-23.1-32.7-38.4-46.5-10.3-7.9-17.2-11.8-20.7-11.8l2.2-8.9zm-3.7 13.3c20.2 5.9 39.9 25.8 59.1 59.8l-6.6 8.1c-13.8-21.2-25.8-37.2-36.2-48l-17.7-10.3 1.4-9.6zm-2.3 13.3c23.1 13.3 39.9 33.7 50.2 61.3l-8.1 9.6c-13.3-31.5-28.6-51.9-45.8-61.3l3.7-9.6zm-7.3 13.3c10.8 1 26.6 21.2 47.3 60.6l-7.4 5.2c-15.8-31-30.3-50.5-43.6-58.3l3.7-7.5zm-6.7 11.8c10.3-1.5 24.1 17.7 41.4 57.6l-10.3 8.1c-7.9-24.6-19.2-44.8-34-60.6l2.9-5.1zm-5.2 8.9c14.3 13.3 24.1 32.3 29.5 56.9l-9.6 4.4c-4.9-19.2-14-38.2-27.3-56.9l7.4-4.4zm-10.3 8.1c11.8 14.8 19.9 33.2 24.4 55.4l-8.9 8.9c-1.5-14.8-9.4-34.5-23.6-59.1l8.1-5.2zm-14.8 8.9c8.9 5.9 17.2 24.1 25.1 54.7l-10.3 5.2c-3.9-25.1-11.3-44.1-22.2-56.9l7.4-3z"/></svg>