<svg xmlns="http://www.w3.org/2000/svg" viewBox="-10 0 888 996"><path d="M568 996q-5 0-22-1t-39-3q-28-2-58-3.5t-43-1.5q-11 0-34 1t-51 2q-28 1-53 2-20 2-36.5 2.5t-19.5.5q-5 0-12-5.5t-11-9.5q-5 3-10.5 6t-10.5 4q-5-2-15.5-3t-22.5-1q-10 0-21 2t-21 4q-6 1-11 2t-10 1q-25 0-28-21-7 6-11 15l-19-7q8-18 26.5-28.5T77 941l117-9q19-37 33-106.5T241 679q1 0-.5-18.5t-4-47Q234 585 231 555t-6.5-52q-3.5-22-5.5-28-3-8-13.5-34T183 381.5Q171 348 162 316t-9-51q0-24 6-46t11-39q4-11 7-20.5t3-16.5q0-13-7-25.5T151 105l-122-5q-8 0-11.5 3.5T14 111h-24V88q0-13 10-26.5T31 44L233 0h80q31 0 49 12t24 41l18 75 71 72q4 7 12 18t19 27q25 34 59.5 82t68 98.5Q667 476 691 517l187 445-8 27h-34l-51-50 8 24q-8 10-23.5 20.5T736 994q-41 0-71-25t-51-80l-55-150q-8 21-21.5 54.5T514 851l-66-28-19 110 10 8h133q19 0 36 11t25 29l-18 7q-2-4-5-8t-7-8q-2 8-11 16t-24 8zm0-20q8 0 12-3.5t4-6.5q0-4-5.5-5t-9.5-1H426l-18-22 23-143 73 31 43-115-134-136q-27-28-55.5-64T304 437q-25-38-40.5-73T248 302q0-20 8.5-30t19.5-13.5q11-3.5 18-3.5 5 0 12 1t15 2q10 2 20 3t16 1q8 0 16.5-.5T390 260q7-1 14-1.5t14-.5q11 0 25 1t23 2l-2 20q-9-1-23-2.5t-23-1.5q-6 0-12.5.5T392 279q-8 1-16.5 2t-18.5 1q-8 0-18.5-1t-20.5-3q-7-2-14.5-2.5t-9.5-.5q-6 0-16 5t-10 22q0 25 15 58t39 69q24 36 52 70.5t54 61.5h-1l416 410 13-1q2-6 2-7L673 527q-24-42-57-92.5T549 337q-34-47-58-81-11-15-19.5-26.5T458 211l-73-74-18-80q-8-38-54-38h-80q-4 1-21.5 4.5T171 32q3 8 12 19.5T203 75l-8 11q-4-3-12.5-6T149 77l-70-1q-37 0-51 4.5T10 89v2q5-1 12.5-3T38 86h114q25-1 36 18t11 39q0 9-3 19.5t-7 23.5v-1q-6 17-11.5 37.5T172 265q0 18 8 48.5t19.5 63q11.5 32.5 22 58T236 467l134 237q13 19 26 49.5t12 56.5l-2 67q-1 50-16 67.5T337 963l-111 4q-5 0-10.5.5T205 969q4 6 7 6t18-.5q15-.5 37-1.5 25-1 53.5-2.5T372 968q23-1 34-1 13 0 43 2t59 4q22 1 38.5 2t21.5 1zM235 77q-9 0-16-7t-7-16q0-9 7-15.5t16-6.5q9 0 15.5 6.5T257 54q0 9-6.5 16T235 77zM10 77q11-6 27-10t42-4l91-1q-11-12-15-26L41 59q-12 3-20 7t-11 7zm225-14q9 0 9-9t-9-9q-9 0-9 9t9 9zm-26 886l19-2 50-187 71 40 15-71-117-204q4 31 7 67.5t5 65q2 28.5 2 37.5 0 49-7.5 97.5t-19 89Q223 922 209 949zm527 25q9 0 19-5t16-10q-3-7-8.5-24t-7.5-25L581 740l52 142q16 47 42.5 69.5T736 974zm-488-28l89-2q26-1 37-15.5t13-51.5l1-67q1-11-2.5-26.5T379 758q-4 19-8.5 37.5T363 830l-73-41q-11 41-21 78t-21 79zM67 975q6 0 18-3 9-2 21-3.5t24-1.5q11 0 21.5 1t17.5 2l2-2q-1-12 7-14l-107 7q-4 1-8.5 2.5T58 967q0 8 9 8z" fill="currentColor"/></svg>