<svg xmlns="http://www.w3.org/2000/svg" viewBox="0 0 581.1 520.6"><path d="M95.5 5.1C73.5 15.8 51.3 7.7 28.2 16 11.6 23.5 6.9 38.7 0 53.8 41.1 40.1 66.7 60.5 104 70c0 14.2-2.3 30.4-3.3 46.7-4.4 44.1 18.9 82.9 52.5 110.5 24.1 53.6 57.4 94.8 81.7 136.6-2.9 18.8-20.4 89.7-29 115.2-23.7 4-49.7 5.5-73.9 3.6-14.1-2-29.8 22.8-45.1 35.7l299.7 2.3c-8.1-28.6-67.2-43-82.7-41.2 6.7-19.1 15-37.1 17.4-63.7 8.4 7.5 17.7 15.6 29.5 16.4 14.3-1.1 20.1-10.9 21.9-23.6 32.4 53.6 68.7 97.4 135.2 103.9 23-1.1 51.6-11.2 57.8-35.6 30.5-1.7 8.1-31.4-3.2-43.1-83-89.8-151.5-192.3-233.4-282.8-31.6-31.1-67.2-52.2-111.4-69.7-3.3-8.1-4.4-19.6-6.5-32.2-2.3-13.8-9.7-36.3-23.1-43.4-29.3-10.7-62.3-3.3-92.6-.5zm48.4 13.6c3.3 15.3-2.8 32.9-14.4 38.2l3.7 7.9c14.5-6.9 28.4-27.5 30.5-46 19.8 1.2 25.2 16.1 28.3 33.4 3.7 11.8 0 40.4 15 45.4 44.2 17.1 78 36.9 108.4 66.9C367.8 230 422.5 293.4 474.9 359c20.3 25.5 39 48.9 54.1 66.5-79.7-59.5-168.5-105-255.7-152.2-46.3-25.2-90.5-45.8-90.5-101.2 0-29.8 54.9-54.8 52.7-58.7-2.4-4.1-70.8 16.9-70.8 66 0 12.5 3.3 24.1 9.2 34.9h-.3c-63.3-33.5-53.3-101.4-50.8-161.2-26.3-1.5-48-15.8-73-21.8 19.4-2.5 38.7-5.7 58.1-7.7-3.6.7-7 2.8-9.2 5.8-.7 12.6 28.1 11.3 26.8 1.9-3.2-5-9.1-8.1-15-8 9.6-1.3 22.5-3.4 33.4-4.6zm38.1 223c39.3 44.2 71.9 94.6 100.9 145.8 6.1 7.5-.8 14.4-5.8 21.6-19.2-60.7-63.2-107.5-95.1-167.4zm48.2 29.2c90.3 48.1 179.6 96.6 265 153.1 20.1 16.3 38 34.5 50.2 51.4-8 12.5-23.4 16.8-37.5 17.7-72.3-2.5-100.5-72.2-138.7-121.9L348.4 346l3.6 32.3c.3 6.3 7.3 38.2-5.3 32.7l-36.5-43.7c-3.9 2.6-7.6 5.5-11.6 7.9-18.1-36.7-44.7-70.8-68.4-104.3zm24.3 132.6c5.7 13.8 8.6 28.4 11.8 42.8 9.2-7.5 18.2-15.1 25.7-24.3-4.9 26.8-14.1 53.8-36.4 53.8-13.5 0-19.8-9.1-11.1-36.8 4.1-12.9 7.3-25.4 10-35.5z"/></svg>