<svg xmlns="http://www.w3.org/2000/svg" viewBox="0 0 587.8 457.9"><path d="M116.8 250.4H186l-1.2-2.9h-68v2.9zm0 21.9h87.6l-4-2.9h-83.6v2.9zm1.1-246.2c-3.8-3.8-4.4-2.9-1.7 2.9 1.2 3.1 3.7 7.7 7.8 13.8 4 6.1 9.1 14 15.3 23.6 6.5 9.6 11.4 16.9 14.7 21.9 3.3 5 5.1 7.9 5.5 8.6.8 1.2.4 2.5-1.2 4-.4.4-1.2 1.1-2.3 2-1.2 1-2.3 2-3.5 3.2-1.2 1.2-2.2 2.4-3.2 3.7-1 1.3-1.4 2.8-1.4 4.3-.4 1.2-.3 2.6.3 4.3.6 1.7 1.3 3.4 2.3 4.9 1 1.5 2.2 3 3.7 4.3 1.5 1.3 3.1 2.4 4.6 3.2 3.1 1.9 8.1 4.5 15 7.8s15.8 6.4 26.5 9.5c11.1 3.1 16.1 2 15-3.2s-7.5-14.1-19-26.8c-11.1-12.7-18.4-20-21.9-21.9-2.7-2.3-5.2-2.9-7.5-1.7-1.9.4-7.1-6.1-15.6-19.6-8.4-13.6-19.5-30-33.4-48.8zm9.8-1.7c-3.1-2.3-3.8-1.7-2.3 1.7.8 1.5 2.6 4.6 5.5 9.2s6.6 10.4 11.2 17.3c10 14.6 16.9 23.8 20.8 27.7 2.3 1.5.5-2.3-5.5-11.5-5.9-9.3-15.8-24.1-29.7-44.4zm-6.9 58.8c6.5 7.7 13.6 12.9 21.3 15.6 7.7 3.1 10.4 2.1 8.1-2.9-1.9-4.7-11.7-8.9-29.4-12.7zM14.7 97l9.8 5.8 85.3 19 1.2-2.9-85.9-18.4L14.7 97zm158.6 9.2c7.3 3.1 10 5.8 8.1 8.1-1.9 1.5-4.8 1.9-8.6 1.2-3.6-.8-3.4-3.9.5-9.3zM21.7 120.7c-10-3.8-10.2-2.1-.6 5.2l85.3 13.3.6-1.2-85.3-17.3zm96.8.5l-6.3 27.1c6.1 6.1 10.8 6.7 13.8 1.7 2.7-4.6 10.2-1.9 22.5 8.1 2.3-15.3-7.7-27.6-30-36.9zm36.9 16.2v17.3l4 22.5 11 32.9 24.8 39.2 34 38.1 20.8 15 44.4 19.6 34.6 9.2 57.1 1.7c15.4-1.2 28.6-2.6 39.8-4.3 11.1-1.7 20-3.6 26.5-5.5 13.8-4.2 31.3-16 52.5-35.2 21.1-19.2 37.5-35.7 49-49.6l11.5-20.8 1.2-4-2.9 1.2c-53.8 48.8-85.3 73-94.6 72.6-9.6 2.7-66.5 3.8-170.7 3.5-7.3 0-15.7-2.2-25.1-6.6-9.4-4.4-20.5-11.2-33.2-20.5-6.1-1.5-12-4.9-17.6-10.1s-10.9-10.5-15.9-15.9c-9.6-10.8-20-25.6-31.1-44.4-1.9-5-3.7-9.8-5.2-14.4s-2.9-9-4-13.3c-1.5-5-2.6-8.9-3.2-11.8-.6-2.9-1.1-4.9-1.4-6.1.1-2.3-2.1-5.7-6.3-10.3zM24 144.3c-8.8-3.5-9-1.7-.6 5.2l83 8.6-.6-2.3L24 144.3zm104.9 10.4l-1.2 5.8 15 1.7c-3.4-3.9-8-6.4-13.8-7.5zm-11 11.5l-.6 2.9 34 1.2-1.2-1.7-32.2-2.4zm-82.4 2.9c-5.8-1.5-8.6-1.9-8.6-1.2 0 .8 2.5 2.5 7.5 5.2l72.6 4.6v-2.3l-71.5-6.3zm80.1 7.5l-.6 2.3h38.6l-1.7-1.7-36.3-.6zm-1.7 8.6v2.3H156l-1.2-1.2-40.9-1.1zm-78.4 5.2c-5.4-1.9-8.6-2.7-9.8-2.3-1.2.4-.2 1.5 2.9 3.5 6.1 3.5 17.9 5.2 35.2 5.2h42.1v-2.3l-70.4-4.1zm77.8 4v2.3h46.1l-1.7-1.7-44.4-.6zm.6 9.8l.6 2.9h48.4l-1.7-2.9h-47.3zm-84.8 9.3l10.4 5.2h68.6v-4.6H38.4l-9.3-.6zm86.5.6v4.6h52.5l-3.5-4.6h-49zm0 12.1v4h60l-2.9-4h-57.1zm-70.3 11.5c-10.8-.8-10.6.2.6 2.9h63.4v-2.9h-64zm70.9 0v2.3h65.1l-1.7-2.3h-63.4zm75 20.2h-74.4v4h77.8l-3.4-4zm-81.3.5H59.1c-7.7-1.2-11.5-1.3-11.5-.6s3.8 2.3 11.5 4.6h50.7v-4zm100.3 21.4h-93.4v3.5h96.9l-3.5-3.5zm325.2-10.4l-2.9 2.9c6.5 9.6 13.1 17.1 19.6 22.5 6.1 5.4 9.4 5.2 9.8-.6 0-5.8-8.9-14-26.5-24.8zm-426.1 13.8v-2.9H64.9c1.5 2.7 3.8 3.7 6.9 2.9h37.5zm110.7 7.5H117.4v3.5h107.2l-4.6-3.5zm12.7 10.4H117.9v4h119.9l-5.1-4zm-122.3.6h-30c1.5.8 2.9 1.5 4 2.3 1.2.8 2.5 1.3 4 1.7h21.9v-4zm356.3 22.5l-9.8 5.2V345h9.8v-20.8zm-190.8-2.3V345h8.6v-18.4l-8.6-4.7zm174.1 9.8l-35.7 6.9v6.3H450v-13.2zm-158.5-2.9v16.1h38.6v-5.8l-38.6-10.3zm106.1 11.5l-.6 4.6h9.8v-5.8l-9.2 1.2zm-60.6-.6v5.2h8.6v-4.6l-8.6-.6zm53.1.6H352v4.6h38.1v-4.6zm137.8-1.7c-10 3.8-18.3 6.8-24.8 8.9-6.5 2.1-11.7 3.4-15.6 3.7-3.5.4-14.5.7-33.2.9-18.6.2-44.9.3-78.7.3-67.6-.4-106.1-.2-115.3.6-8.8.4-17.9 3.1-27.1 8.1-8.8 5-14.8 10.6-17.9 16.7-3.1 6.1-5.4 13.1-6.9 20.8-1.5 7.7-2.3 17.1-2.3 28.3h5.2c1.9-26.1 5.8-42.9 11.5-50.2 6.1-7.3 13.1-12.3 20.8-15 7.7-2.7 20.4-4 38.1-4 9.2.4 20.4.6 33.4.6h139.6c24.6 0 44.4-2.3 59.4-6.9 14.5-5.5 19.1-9.7 13.8-12.8zm-137.8 26.5h-36.9v35.7l5.8 9.8v16.1h26.5v-16.1l4.6-9.8v-35.7zm16.7 0H397v38.1l-4 7.5v16.1h17.3v-16.1l-3.5-7.5v-38.1zm7.5 0v35.7l3.5 9.8v16.1H446V410l4-9.2v-35.7h-35.7zm-145.3 0c-11.9-.4-21.1 1.3-27.7 5.2-5.8 3.5-10.6 8.8-14.4 16.1-3.8 7.3-6.5 20.8-8.1 40.4h45v-16.1l5.2-9.8v-35.8zm6.9-.6v38.6l-4.6 7.5v16.1h19v-16.1l-5.8-7.5V365l-8.6-.5zm61.7.6v38.1l-5.8 7.5v16.1H352v-16.1l-6.3-7.5v-38.1h-8.1zm-45.5 0v35.7l5.2 9.8v16.1h27.1v-16.1l6.3-9.8v-35.7h-38.6zm165.4 0v38.1l-4 7.5v16.1h17.9v-16.1l-4.6-7.5v-38.1h-9.3zm-309 26.5c-5 3.5-2.7 12.5 6.9 27.1 9.2 14.2 25 24.8 47.3 31.7h325.2v-16.1H198.1c-6.9-4.6-14.5-10.5-22.8-17.6-8.3-7.1-17.2-15.5-26.8-25.1zm403.6-141.8l-4 4.6c9.2 8.8 16.7 15.2 22.5 19 6.1 3.5 9.2 2.7 9.2-2.3.3-5-8.9-12.1-27.7-21.3zM291.5 59c1.5 1.9 2.3 3.8 2.3 5.8-.4 3.1-2.3 4.6-5.8 4.6-2.3-1.2-3.5-3.1-3.5-5.8l1.2-2.9-7.5 4c1.5 0 4 6.9 7.5 20.8v1.2c-1.2 5.4-1.7 10-1.7 13.8l.6 12.1h.6c1.2-5 5.2-11.1 12.1-18.4 4.6-4.6 8.8-7.5 12.7-8.6l-12.1 17.9c-4.2 5.8-6.3 10.6-6.3 14.4 3.1 10.8 13.5 22.9 31.1 36.3 16.9 11.5 34.8 21.3 53.6 29.4 5 2.7 22.3 11.3 51.9 25.9v-.6c-11.1-14.2-27.7-36.9-49.6-68L347.4 101c-7.7-8.1-13.6-12.3-17.9-12.7-1.2-.8-2.9-5.4-5.2-13.8-3.5 3.5-8.1 5.6-13.8 6.3l-12.7-1.2c0-.8 4-2.1 12.1-4 4.2-2.7 6.3-6.3 6.3-11-6.5-4.2-13.5-6.3-20.8-6.3l-3.9.7zm13.2 97.4c8.1 28.8 11.9 50.4 11.5 64.6h.6c2.7 0 7.7 3.7 15 11 1.9-2.7 4.4-4.6 7.5-5.8-18.1-25.8-28.3-46.1-30.6-61.1-1.5-5.8-2.8-8.7-4-8.7zm12.7 11v.6c2.3 10 6.1 19.4 11.5 28.3l17.3 26.5 17.9 9.2h.6l-.6-1.2v-32.9c-17.3-9.6-32.8-19.8-46.7-30.5zm23.1 6.9v.6c28.4 17.7 47.7 30.6 57.7 38.6l53 56.5 26.5-4.6v-.6c-12.7-13.1-25.8-27.3-39.2-42.7-.8 0-28.6-13.5-83.6-40.4l-14.4-7.4zM322 233.1l-10.4 38.1c8.1 0 18.4.2 31.1.6l-1.7-37.5-9.8 6.9-8.6-8.1h-.6zm-35.7 49.6c-10-6.1-11.3-9-4-8.6l18.4-3.5 12.7-43.2c-3.1-.8-4.6-2.1-4.6-4 .4-16.9-5-43.6-16.1-80.1-10.8-13.5-16.1-27.5-16.1-42.1 0-5.4.6-10.2 1.7-14.4-2.3-10.4-4.6-15.6-6.9-15.6h-8.1v-.6c0-3.5 2.9-7.5 8.6-12.1 3.1-1.5 5.4-2.7 6.9-3.5 6.9-3.8 14.7-5.6 23.3-5.2 8.6.4 15.7 4 21 11 2.7 1.2 5.6 5 8.6 11.5 1.5 6.9 2.9 10.4 4 10.4 6.5 1.9 13.5 7.7 20.8 17.3 7.3 9.6 12.9 16.9 16.7 21.9 13.1 16.5 29.8 39.4 50.2 68.6l65.7 48.4c0 1.9-1.3 3.1-4 3.5l-6.9-2.3c9.6 6.5 16.7 12.1 21.3 16.7h-.5c-8.5-3.5-21.1-10.4-38.1-20.8l28.3 29.4v2.3c0 3.1-3.7 4.8-11 5.2l-30 4.6c-.4 0-13.8-14.2-40.4-42.7-11.9-13.5-23.3-23.8-34-31.1-1.9 12.3-1.9 27.1 0 44.4l-14.4-11.5-8.1-4 .6 38.1 12.7 1.7c6.1 1.2 11.4 1.2 15.9.3 4.4-1 7 2.4 7.8 10.1 36.9 0 60.7-.8 71.5-2.3 12.3 1.5 29.8-8.1 52.5-28.8l-30.6-25.4 5.2-5.2L518 247l11.5-9.8-31.1-26.5 4.6-4.6 31.7 25.9 27.7-23.1c7.3-4.2 11.3-3.3 12.1 2.9-3.1 5.8-5.7 10.8-7.8 15-2.1 4.2-3.7 7.5-4.9 9.8l-5.8 7.5c26.1 11.5 36.1 22.7 30 33.4-6.5 10.8-20.8 5-42.7-17.3l-2.9 3.5c25 15.4 33.6 28.3 25.9 38.6-7.3 10-20.2 1.9-38.6-24.2-15.8 15.4-34 30.2-54.8 44.4v23.1c17.3-.4 32.1-3.3 44.4-8.6 13.1-5.8 20.2-5.2 21.3 1.7.8 6.5-5.6 12.5-19 17.9-6.9 2.7-14.1 4.7-21.6 6.1-7.5 1.3-15.5 2.2-23.9 2.6V401l4.6 10.4V427h56.5v31.1c-214.1 0-324.8-.4-332.1-1.2-6.5 0-16.1-3.8-28.8-11.5-12.7-7.3-22.9-18.3-30.6-32.9-7.3-14.2-7.9-22.9-1.7-25.9 6.1-2.7 15 2.1 26.5 14.4 12.3 12.3 22.3 20.8 30 25.4 0-17.7 2.1-32.5 6.3-44.4 3.8-11.9 11.9-20.9 24.2-27.1 6.5-3.1 13.1-5.5 19.6-7.2 6.5-1.7 13.6-2.6 21.3-2.6V319l-15-4-31.7-2.3H117.9l-4 39.2h-7.5l3.5-38.6h-26c-25.4-12.3-28.1-18.4-8.1-18.4h34v-4H66c-18.4-12.3-23.4-18.3-15-17.9 4.2 0 8.3.1 12.1.3s7.5.1 11-.3h35.7v-3h-42c-11.5-.8-21.9-4.2-31.1-10.4-9.6-6.1-5.8-8.8 11.5-8.1h61.7V248H43.6c-26.1-15-27.1-20.9-2.9-17.9h68v-4H38.9c-25.4-16.1-26.1-22.5-2.3-19h70.9l-.6-2.9H49.3c-5.8 0-12.3-1.2-19.6-3.5-18.8-15.4-17.5-21.1 4-17.3l72.6 4 .6-2.3-68-4c-5.8-.8-13.1-4.8-21.9-12.1-8.8-7.7-4.4-10.2 13.3-7.5l76.7 6.9v-2.3L23.4 157c-20.8-17.3-20.6-23.9.6-19.6l81.3 11.5.6-1.7-87.1-13.8C0 116.1.7 109.4 21.1 113.2l87.6 17.9.6-1.7-88.2-19C-8.1 90.3-7 84.5 24.5 93c33.8 7.3 59 12.8 75.5 16.4s24.6 5.3 24.2 4.9c-.4-.4.4-2.1 2.3-5.2 2.3-3.1 4.6-1.9 6.9 3.5 2.3 5.4 4 7.3 5.2 5.8.8-.8 1.9-3.1 3.5-6.9 1.2-3.5-1.3-6.5-7.5-9.2-6.1-2.7-11.9-6.9-17.3-12.7-5-5.8-7.4-9.3-7.2-10.7.2-1.3 3-2 8.4-2 5 0 10.8 1.5 17.3 4.6 6.9 2.7 1.9-8.3-15-32.9-16.9-25-25.2-38.3-24.8-39.8.4-1.5 4.2 0 11.5 4.6 7.7 4.2 10 4 6.9-.6-3.1-5-4.8-8.6-5.2-11-.4-2.7 1.3-2.5 5.2.6 3.8 3.1 11 10.6 21.3 22.5 10 11.9 19.2 25 27.7 39.2 4.6 6.9 8.3 12.5 11 16.7 2.7 4.2 4.6 7.1 5.8 8.6 1.2 1.2 3.5 3.7 6.9 7.8 3.5 4 7.9 9.3 13.3 15.9 11.5 13.5 18.3 22.7 20.2 27.7 1.5 5.4 1.5 9 0 11-1.5 2.3-3.8 3.8-6.9 4.6-3.5.8-10.8-.4-21.9-3.5-5.8-1.5-10.4-2.9-13.8-4-3.5-1.2-5.8-2.1-6.9-2.9-2.3-1.5-1.2 6 3.5 22.5 5 16.1 11 29.2 17.9 39.2 6.5 9.6 14.6 19.6 24.2 30 5 4.6 10.2 8.6 15.6 11.8 5.4 3.3 11 7.2 16.7 11.8 12.9 8.5 25.4 15.6 37.3 21.4z"/></svg>