<svg xmlns="http://www.w3.org/2000/svg" viewBox="-10 0 1221 1027"><path d="M405 1027q-52 0-90.5-19t-60-48.5Q233 930 233 898q0-17 5-28t22-11q10 0 19.5 11.5T306 907q20 30 52 45v-25q0-43 18.5-77t50.5-54q32-20 71-21h22v-60q-34-17-62.5-36T405 640l-237 31v11q0 18 2.5 47.5T175 780l-15 2q-2-21-5-50.5t-3-49.5v-9l-86 11v-12l87-11q1-9 1.5-18.5T156 623l-112 9v-12l114-9q2-22 3-35l-135 5v-12l136-6v-5q0-12-3-29l-145 3v-12l144-3-3-21-3-14-150-2v-12l149 2q-1-5-1.5-10t-.5-9v-15l-153-3v-13l154 4q1-9 3.5-17.5T158 391L-9 380v-12l171 12 1-3-26-7 4-21-150-20v-12l152 19 4-24-157-32v-13l157 33q-5-12-5-22 0-6 1-8L-4 228v-12l157 45h3q11 0 16 8.5t6 16.5q0-8 1.5-19.5T192 255q8 0 11 5t3 11q0 8-1 11 2-3 5-6t8-3q5 0 7.5 4t2.5 8q0 4-1.5 8.5T223 300l25 14v-4q-20-13-20-38 0-6 4-15t11-13q-9 2-21 1t-21-6q-16-8-26-27t-11-31q9-1 34.5 6t51.5 32q-12-21-29-48.5t-35-56Q168 86 152 62t-26-36l9-6q10 7 28 24.5T197 79q-5-12-19.5-34.5T152 6l8-6q29 26 59 65t54 75.5q24 36.5 35 57.5 11 8 26 23t29 30q14 15 21 23 36 41 36 59 0 11-7 18.5t-17 7.5q-2 0-7-.5t-9-.5v9q-22-6-43.5-14.5T293 333q12 63 43 122t81 107.5Q467 611 535 642q1-1 8-1.5t46-3.5l8-51q1-4 1.5-7.5t.5-7.5q0-34-12-70.5T565 433l-6-16-28-39q-15-20-32.5-43T481 284v-48q0-10-1.5-19.5T466 207q-15 0-17.5 4.5T445 219h-19v-21q0-23 10-33.5t20-18.5l20-16q2-7 17.5-18.5T547 100q48 0 72 26t41 61q4 2 16 9t22 12q21 20 46 49t49 60q24 31 44 59l12 14.5 28 35 30 37.5q2 2.5 19 21t20 17q3-1.5 33 31t34 33l-24 20-61-36 43 63-66 44q35-10 73-32.5t70-47.5l-61-57 20-20 64 60 18-15-67-63 19-20 69 65 22-20q11-10 26-24.5t22-14.5q15 0 17 8.5t-3 24.5q-4 11-13.5 28.5T1155 568l6 5q15 0 29 13 21 19 21 52-34 3-54-17-15-12-15-27l-5-5q-4 5-7.5 9t-7.5 8l5 5q15 0 29 13 9 8 15 22.5t5 29.5q-34 3-53-16-8-7-11.5-14.5T1108 632l-6-6q-25 22-55 43t-68 39v68q35 0 71.5-10.5T1110 745l15 53q-21 9-61.5 19.5T979 829v71h13v61h124v66zM284 204l7-3q-16-33-40-70t-46-60zm77 138v-6q10 2 21 3.5t14 1.5q5 0 5-8 0-13-29-45-9-10-23-24.5t-28-28Q307 222 297 214l-16 9q-14-25-33-54.5t-37-54Q193 90 181 81q14 23 31.5 51.5t35 55Q265 214 277 232q-18 10-24.5 22t-6.5 18q0 17 20.5 27.5T302 317q19 7 34.5 15t24.5 10zm271 319h106v-9q-11-2-23-3t-19-1v-74q11 2 22 8t18 10V488q25 0 44 13t32 29q13 16 18 25l53 95 65-43-48-71-321-183q-6-3-22.5-13T525 314q-15-16-15-37 0-26 28-45.5t73-22.5v19q-44 3-62.5 17.5T530 277q0 16 11 28t25.5 21q14.5 9 26.5 16l395 223 2-3q-6-6-23-20.5t-34.5-29Q915 498 910 493q-5-4-20-22.5T855.5 428Q836 404 819 382q-20-27-44-57.5T726.5 266Q702 238 681 217q-2-1-15-8t-24-14q-16-33-34-54.5T547 119q-38 0-48 8.5T488 139l-21 18q-7 6-14.5 13t-7.5 24q2-4 9.5-13t22.5-9q7 0 13 3t10 7q7 2 7-4 0-3-1-4-5 0-10.5-3.5T490 160q0-9 5.5-14t12.5-5h23q24 0 35.5 10.5T578 179q0 17-15.5 29.5T537 226q-2 2-7 2t-6-5h-4v8h-12q0-6-2.5-17t-9.5-20.5q-7-9.5-20-9.5-9 0-15 6h5q21 0 28 15t7 31v48q0 25 18 48t35 45q18 23 39 48t38 43q31 34 42.5 65.5T683 586l-4 62q-9 0-22.5 1t-24.5 3zM507 166q7 0 7-6 0-7-7-7t-7 7q0 6 7 6zm10 44v-6q0-18 15-18 8 0 12 6t4 11q0 3-2 5 6-4 12-12.5t6-16.5q0-12-9.5-19t-23.5-7h-9q2 2 2 7 0 4-2 7t-4 5q1 2 2 4.5t-1 6.5q-2 7-12 7 3 4 5.5 9.5T517 210zm15 5q7 0 7-10 0-2-1.5-5.5T532 196q-7 0-7 9 0 10 7 10zm-296 13q-12-11-26-19t-25-11q4 8 9.5 15t14.5 11q11 5 27 4zm71 42q-8 0-12-3t-6-6q2-2 7.5-7t11.5-5q7 0 12.5 4t7.5 7q-4 4-9 7t-12 3zm-58 93q-2-10-2.5-18.5t.5-16.5l-38-21q2-3 3.5-7.5t1.5-6.5q0-3-2-3t-5.5 4q-3.5 4-5.5 9l-6-3q1-2 2.5-15t-5.5-13q-2 0-2.5 11t-.5 13l-19 3q-2-7-5.5-14.5T158 277q-2 0-2 3t3 10.5q3 7.5 5 13.5l-9 52 22 6q2-6 8.5-12t16.5-6q13 0 26.5 7t20.5 12zm491 375q100 0 174-24.5t125-61q51-36.5 82-73.5t44.5-63.5Q1179 489 1179 487q-7 7-15.5 16t-16.5 16q-3 3-22.5 20.5t-50 41q-30.5 23.5-66 46.5T937 665.5Q901 681 870 681H581q-89-29-154-83.5t-104.5-125Q283 402 273 324l-11-3q0 24 9.5 63.5T303 471q22 47 58 94t89 86q53 39 125 63t165 24zM252 386v-3q-11-9-24-17t-24-8q-10 0-13.5 9t-4.5 14zm10 40q-2-8-4.5-14t-3.5-14l-81-6q-2 7-4 15t-4 17zm17 46q-4-9-7-17t-6-17l-102-2v7l1 7q0 4 .5 9.5T167 470zm329 165l18-1 12-68q14 3 26 12v-7q1-11-8-36.5T617 479q-7-7-13.5-14T590 449q10 30 19 60t9 62v8.5l-1 8.5zm490-100l4-4-61-58-4 5zm-925-20l127-2q-4-8-7.5-15.5T285 484l-116-2q0 4 .5 7t.5 6zm617 144h80l-57-101q-11-20-28-36t-30-16v114q-10-8-23-17t-21-10v38q10 0 24 1.5t23 4.5q11 3 19 9.5t13 12.5zm268-92q1-1 2-1.5t2-1.5l-56-52-3 4zm-881-6l151-6q-5-7-10-15l-10-16-133 3q1 8 1.5 15.5t.5 13.5zm-4 46l185-14-21-26-160 6zm1026 19q-1-20-17-34-5-4-11.5-7t-12.5-2l-10-9-3 5 9 9q-2 14 11 23 13 13 34 15zm-558 7l24-2 2-35q-7-5-17-9-1 7-4 21t-5 25zm-472 24l224-30-24-23-197 15q-1 10-1.5 19.5T169 659zm996 7q-1-20-17-34-5-4-11.5-7t-12.5-2l-10-9q-1 2-2 2.5t-2 1.5l10 10q-2 13 10 23 15 14 35 15zm-594-9l4-4 5-4-16 3v2zm32 4h15v-8q-10 0-15 8zm-19 0h5q2-1 4-3.5t4-4.5q-12 0-17 7zm169 0h14q-6-5-14-8zm189 116h18v-60l-18 7zm-402-2h17v-46q-4-1-8.5-3t-8.5-3zm383 1v-46q-18 6-37.5 11t-40.5 8v21zm-269 0v-24q-20-3-40-7t-38-9v39q19 0 38.5.5t39.5.5zm154-8h17v-16l-17 2zm-134 7h8.5l8.5-1v-18l-17-2zm37-1q16-2 36.5-3t41.5-1v-14q-12 1-24.5 1.5t-24.5.5h-14.5l-14.5-1zM392 960v-33q0-41 17.5-68t43-39.5Q478 807 501 807q58 1 91 1.5t61 .5q39 0 79.5-3.5T813 802q35 0 69.5 4t67.5 4q55 0 96-8.5t57-16.5l-5-16q-22 9-60 18t-90 9q-32 0-52.5-2t-38.5-4q-18-2-44-2-44 0-82.5 3.5T654 795H498q-52 1-86 37.5T378 927v31zm416-60h17v-80h-17zm-84 61h51v-61h14v-79l-78 5v74h13zm134 0h52v-61h13v-72q-18-1-39-2.5t-39-3.5v78h13zm-184-61h17v-73q-4 0-8.5.5t-8.5.5zm-85 61h52v-61h13v-72h-35l-43-1v73h13zm-49-61h17v-73h-17zm-128 61h95v-61h13v-73h-19q-20 0-40.5 10.5T426 870q-14 22-14 57zm530-61h18v-70h-18zm-537 108h692v-28H413q-47 0-75.5-16.5T289 918q-15-22-20.5-30.5T260 879q-7 0-7 19 0 27 20.5 52.5t55 41.5q34.5 16 76.5 16zm524-49h44v-40h-44zm-134 0h43v-40h-43zm-134 0h43v-40h-43zm-135 0h44v-40h-44z" fill="currentColor"/></svg>