<svg xmlns="http://www.w3.org/2000/svg" viewBox="0 0 595.3 291.6"><path d="M83.4 49.1c0 10.5 5.3 16 15.8 16.5 10.5-.4 16-5.9 16.5-16.5-.4-9.7-5.9-14.5-16.5-14.5s-15.8 4.8-15.8 14.5zM177.7 28c17.6 43-2.9 69.4-61.3 79.1 34.7-14.5 50.2-32.5 46.4-54-3.7-21.5-17.2-32.3-40.5-32.3-28.6 0-35.9 4.8-45.5 14.5-1.8 5.7-5.5 7.9-11.2 6.6-1.3 5.3.9 12.5 6.6 21.7H58.3c12.7 0 22.1 9.6 28 28.7 5.9 19.1 17.5 33.5 34.6 43.2-1.3 32.5 14.7 64.1 48.1 94.9L141.3 254H30.6c-12.7 15.4-12.7 23.1 0 23.1h538.3c9.7.4 9.4-7.2-.7-23.1-18.4-2.6-39.5-7-63.3-13.2-60.9-26.8-114.3-51.4-160-73.8s-73.9-38.9-84.7-49.4c-10.8-10.5-34.9-28.1-49-52.7C197.2 40.3 186 28 177.7 28zm138.9 103.4c11.4 7.5 34.7 19.3 69.8 35.6 48.3 22.4 86.1 39 113.3 49.7 27.2 10.8 50 16.7 68.2 17.8 18.2 1.1 27.3 15.3 27.3 42.5 0 10.5-2.4 15.4-7.2 14.5H11.5c-14.9-.4-15.4-13.6-1.3-39.5 0-8.3 6.8-12.5 20.4-12.5h94.9l15.2-8.6c-27.2-35.6-40.6-64.8-40.2-87.6-16.3-14.5-26.4-29.3-30.3-44.5-4-15.2-9.2-22.7-15.8-22.7-5.7-.9-11.6.7-17.8 4.6 0-24.6 7.5-39.3 22.4-44.1-1.3-10.1 3.5-14.7 14.5-13.8C84 7.8 97.4.2 137.1 0c39.8-.2 68.9 15.4 87.3 46.8s44.7 51.3 55.3 59.6l36.9 25z"/></svg>