<svg xmlns="http://www.w3.org/2000/svg" viewBox="-10 0 983 843"><path d="M468 843V705q-37-25-71-57.5T341 590H-10v-74h157q18-8 42-16.5t49-16q25-7.5 42-12.5-24-12-59-33t-68.5-49.5Q119 360 96.5 326T74 254q0-8 1.5-14.5T78 228l2-10 1-8v-21q0-13-9-32t-32-19q-14 0-21.5 6.5T9 159H-5v-14q0-18 9-45t37-39q3-6 15.5-20.5t39-27.5Q122 0 166 0q51 0 81 19t45 49q15 30 23 61l14 4q26 7 55 18t66 33.5q37 22.5 87 65.5 58 51 106 90.5t83 55.5q25 11 56.5 22.5t61 20.5q29.5 9 46.5 15 12 4 30 13t33.5 22q15.5 13 19.5 27v74H613q10 13 18.5 30.5T640 657q0 31-17 58t-60 27q-24 0-45-10v111zM201 516h751q-9-14-31.5-26.5T884 472q-19-6-48-15t-60.5-20.5Q744 425 718 413q-37-17-85.5-56T524 265q-49-41-84.5-63t-63-33Q349 158 324 151l-27-7q-6-30-19.5-58.5t-40-47.5Q211 19 166 19q-47 0-74 19T57 76q-20 7-29 22.5T16 128q5-2 10-5 1-6 7-16.5T57 96q8 0 17 2.5t16 6.5l-1-6q-13-5-13-21 0-9 6-15.5T98 56q2 0 4 .5t4 1.5q12-5 27-5 22 0 33.5 9T182 83.5q4 12.5 4 20.5 0 17-12 35t-32 32l-8-9q9-10 11.5-16.5T148 130q0-5-2.5-10t-8.5-5q-8 0-10.5 8t-2.5 17q0 7 1 14.5t2 12.5l-16 4q-4-11-13-24.5t-20-24Q67 112 57 112t-12 8q21 1 33 13t17 28q5 16 5 28v21q0 12-3 21-1 6-2 12.5T94 254q0 36 25.5 70.5T183 388q38 29 77 50.5t64 31.5v9q-31 8-63 17.5T201 516zm-89-375q-1-13 4-27t21-14q26 0 24 29 2-2 5.5-9.5T170 104q0-8-7-21t-30-13h-7.5l-7.5 1q2 6 2 7 0 16-14 21 0 5 .5 10t.5 7l-15-1q5 5 10.5 12t9.5 14zM98 85q7 0 7-7t-7-7q-8 0-8 7t8 7zM9 571h945v-36H9zm557 123q19 0 34-7t19-12q0-16-15-33t-33-31q-18-14-28-21h-25v88q27 16 48 16zm52-62q-5-12-13-23t-15-19h-19q10 9 24 19.5t23 22.5zm-55 93q20 0 30.5-7.5T609 701q-6 4-16.5 7t-26.5 3q-23 0-52-16.5t-56.5-39Q430 633 410.5 614T387 590h-20q24 28 59 59t71 53.5q36 22.5 66 22.5zm-95-82v-53h-56q9 10 24 24.5t32 28.5zm30 22v-70h-10v63zm-10 158h10V723q-5-2-10-5z" fill="currentColor"/></svg>