<svg xmlns="http://www.w3.org/2000/svg" viewBox="-10 0 983 692"><path d="M-10 692v-74h157q18-8 42-16.5t49-16q25-7.5 42-12.5-24-12-59-33t-68.5-49.5Q119 462 96.5 428T74 356q0-8 1.5-14.5T78 330l2-10 1-8v-22q0-13-9-31.5T40 240q-14 0-21.5 6.5T9 261H-5v-14q0-18 9-45t37-39q3-6 15.5-20.5t39-27.5q26.5-13 70.5-13 51 0 81 19t45 49q15 30 23 61l14 4q21 6 43.5 13.5T422 271L608 0l143 361-18 7-11-27-41 5 4 27-18 3-5-27-43 4v25l-19-1-6-318-153 222q39 23 96 71 58 51 106 90.5t83 55.5q25 11 56.5 22.5t61 20.5q29.5 9 46.5 15 12 4 30 13t33.5 22q15.5 13 19.5 27v74zm630-357l94-11L613 60zM201 618h751q-9-14-31.5-26.5T884 574q-19-6-48-15t-60.5-20.5Q744 527 718 515q-37-17-85.5-56.5T524 367q-49-41-84.5-63t-63-33Q349 260 324 253l-27-7q-6-30-19.5-58.5t-40-47.5Q211 121 166 121q-47 0-74 19t-35 38q-20 7-29 22.5T16 230q2-2 5-3t5-2q1-6 7-16.5T57 198q8 0 17 2.5t16 5.5l-1-5q-13-5-13-21 0-9 6-15.5t16-6.5q2 0 4 .5t4 1.5q12-5 27-5 22 0 33.5 9t15.5 21.5q4 12.5 4 20.5 0 16-12 34.5T142 273l-8-9q9-10 11.5-16.5T148 232q0-5-2.5-10t-8.5-5q-8 0-10.5 8t-2.5 17q0 7 1 14.5t2 12.5l-16 4q-4-11-13-24.5t-20-24Q67 214 57 214t-12 8q21 1 33 13t17 27.5q5 15.5 5 27.5v22q0 12-3 21-1 6-2 12.5T94 356q0 36 25.5 70.5T183 490q38 29 77 50.5t64 31.5v9q-31 8-63 17.5T201 618zm-89-375q-1-13 4-27t21-14q26 0 24 29 2-2 5.5-9.5T170 206q0-8-7-21t-30-13h-7.5l-7.5 1q2 6 2 7 0 16-14 21 0 5 .5 10t.5 7l-15-1q5 5 10.5 12t9.5 14zm-14-56q7 0 7-7t-7-7q-8 0-8 7t8 7zM9 673h945v-36H9z" fill="currentColor"/></svg>