<svg xmlns="http://www.w3.org/2000/svg" viewBox="0 0 595.3 470.5"><path d="M83.4 228c0 10.5 5.3 16 15.8 16.5 10.5-.4 16-5.9 16.5-16.5-.4-9.7-5.9-14.5-16.5-14.5s-15.8 4.8-15.8 14.5zm106-21.1c17.6 43-2.9 69.4-61.3 79.1 34.7-14.5 50.2-32.5 46.4-54-3.7-21.5-17.2-32.3-40.5-32.3-28.6 0-47.7 4.8-57.3 14.5-1.8 5.7-5.5 7.9-11.2 6.6-1.3 5.3.9 12.5 6.6 21.7H58.3c12.7 0 22.1 9.6 28 28.7 5.9 19.1 17.5 33.5 34.6 43.2-1.3 32.5 14.7 64.1 48.1 94.9L141.3 433H30.6c-12.7 15.4-12.7 23.1 0 23.1h538.3c9.7.4 9.4-7.2-.7-23.1-18.4-2.6-39.5-7-63.2-13.2-61.1-26.8-114.4-51.4-160.1-73.8-45.7-22.4-73.9-38.9-84.7-49.4-10.8-10.5-23.2-28.1-37.2-52.7-14-24.7-25.2-37-33.6-37zm-37.5-100.2c17.1 2.6 26.6 13.8 28.3 33.6-2.2 23.7-15.2 35.6-38.9 35.6-20.2-2.6-30.5-15.4-31-38.2 1.8-20.2 11.4-30.7 29-31.6l2.6-75.8c.4-11-4.2-16.7-13.8-17.1-7 0-11.6 5.3-13.8 15.8-17.1 72-18.9 122.8-5.3 152.2 21.5-4 44.6-3.3 69.2 2 15.4-28.1 16.9-78.6 4.6-151.5-2.2-11-7.4-16.6-15.5-16.8-8.1-.2-12.4 5.2-12.8 16.1l-2.6 75.7zm19.1 33.6c-1.8-15.8-10.1-24.4-25-25.7-15.4 0-23.7 7.9-25 23.7-1.3 16.3 5.9 25.9 21.7 29 17.1-1.7 26.5-10.7 28.3-27zm65.2 85.7c18.9 31.2 36.6 53.4 53 66.5 16.5 13.2 48.9 31 97.2 53.4 48.3 22.4 86.1 39 113.3 49.7 27.2 10.8 50 16.7 68.2 17.8 18.2 1.1 27.3 15.3 27.3 42.5 0 10.5-2.4 15.4-7.2 14.5H11.5c-14.9-.4-15.4-13.6-1.3-39.5 0-8.3 6.8-12.5 20.4-12.5h94.9l15.2-8.6c-27.2-35.6-40.6-64.8-40.2-87.6-16.3-14.5-26.4-29.3-30.3-44.5-4-15.2-9.2-22.7-15.8-22.7-5.7-.9-11.6.7-17.8 4.6 0-24.6 7.5-39.3 22.4-44.1-1.3-10.1 3.5-14.7 14.5-13.8 5.3-7.9 12.7-13.2 22.4-15.8C83.1 153.3 85.1 101 101.8 29c3.5-16.7 10.7-26.1 21.4-28.3 10.8-2.2 19.2 1.1 25.4 9.9 7-8.3 15.9-11.1 26.7-8.2 10.8 2.9 17.2 12.6 19.4 29.3 12.3 73.4 11 125-4 154.8 18.5 6.1 33.6 19.3 45.5 39.5z"/></svg>