<svg xmlns="http://www.w3.org/2000/svg" viewBox="0 0 595.3 553.8"><path d="M175.3 108.6c17.3 7.5 28.5 2.5 33.8-14.7 5.3-17.3 21.2-13.5 47.6 11.2 26.5 24.7 69.2 58.2 128.2 100.6s96.2 80.8 111.5 115.3l30.6 61.2c8.2 4.3 14.7 3.9 19.4-1.2-6.3-20-19.8-49-40.6-87.1-22-34.5-109.2-109.6-261.8-225.3-12.2-5.1-25.5-5.4-40-.9-14.4 4.5-24 18.1-28.7 40.9zm298.2 201.7c-7.1-17.6-40-48.5-98.8-92.6-58.8-44.1-108-82.6-147.6-115.6-5.9-5.1-8.4-3.5-7.6 4.7 3.1 9 17.3 28.1 42.4 57.4 25.1 29.2 54.7 59.2 88.8 90 34 30.7 75 49.4 122.8 56.1zm91.8 203l5.3-2.4c-55.7-120.4-85.1-182.3-88.2-185.9-23.5-.4-49.5-6.2-77.9-17.4-28.4-11.2-58.6-32.5-90.6-63.8-32-31.4-66.8-71.6-104.4-120.6l-5.9 4.7c30.6 74.5 65.8 134.4 105.6 179.7s59.3 71.7 58.5 79.1l197.6 126.6zm-324.1-62.4c-1.6 9.8-6.6 24.8-15 45s-10.1 32.4-5 36.8l31.8-10c14.1-42.4 19.3-62.9 15.6-61.8-3.7 1.2-8.9 5.3-15.6 12.4l-11.8-22.4zm170.6-11.8c8.2 12.2 16.5 25 24.7 38.5s15 24.6 20.3 33.2c5.3 8.6 18 11.9 38.2 9.7 20.2-2.2 28.9-6.8 26.2-13.8l-109.4-67.6zm-305.3-420c6.3.8 9.6 4.7 10 11.8-3.9 7.5-8.8 10.4-14.7 8.8-6.3-1.6-11-4.9-14.1-10 5.8-8.6 12.1-12.1 18.8-10.6zM22.4 49.7c25.1 7.5 48.2 11 69.4 10.6 21.2-.4 33.9-4.8 38.2-13.2 4.3-8.4 6.8-9.7 7.4-3.8.6 5.9-2.5 13.7-9.4 23.5s-10.3 27.1-10.3 51.8 12.7 48.7 38.2 72.1c25.5 23.3 45.8 43.5 60.9 60.6 15.1 17.1 31.8 42.4 50 76.2 18.2 33.7 26.8 68 25.6 102.9 23.5-3.1 45.1 2.4 64.7 16.5 7.1-38-10.3-78.7-52.1-122.1S224.1 218 187.6 134.4c-39.2-5.5-54.1-22.3-44.7-50.3 9.4-28 8.8-49.1-1.8-63.2-.8 2.4-1.9 4.6-3.2 6.8-1.4 2.2-2.8.9-4.4-3.8-1.6-4.7-6.8-7.9-15.6-9.7-8.8-1.8-24.4.7-46.8 7.4 7.1 2.4 9.2 5.6 6.5 9.7-2.7 4.1-5.4 5-7.9 2.6s-3.2-6.1-2.1-11.2c-2.7.4-4.7 1.2-5.9 2.4-4.3 4.3-3.3 11.6 2.9 21.8 24.7 3.9 35.2 5.2 31.5 3.8-3.7-1.4-9.1-1.9-16.2-1.5l-.6-2.4c2-1.2 5.3-1.9 10-2.1 4.7-.2 9.2.1 13.5.9 4.3.8 5.7 3.4 4.1 7.9s-15.5 4-41.8-1.5l-42.7-2.3zm216.4 381.8c11.4-2.7 18 2.4 20 15.3 3.9-6.3 8.2-9.4 12.9-9.4 4.3-38.4-5.3-76.5-28.8-114.1 7.5 34.1 6.1 70.2-4.1 108.2zm-35.3 40.6c22.4-55.3 29.4-104.1 21.2-146.5s-29.2-76.8-62.9-103.2c-33.7-26.5-53-52.4-57.9-77.9-4.9-25.5-5.4-43.7-1.5-54.7 3.9-11-2.2-16.5-18.2-16.5-16.1 0-36.3-3.9-60.6-11.8L1.8 69.1 0 44.4c2.4-11 18.4-20 48.2-27.1C84.7 6 107.1.3 115.3.3c24.7-2 39.9 4.9 45.6 20.6 5.7 15.7 6.6 32.9 2.6 51.8-3.9 18.8-5.1 28.6-3.5 29.4 4.7-26.3 18.6-42.7 41.8-49.4 23.1-6.7 44.9-3.9 65.3 8.2 19.6 17.6 50.3 42.8 92.1 75.6 41.8 32.7 81.9 67.2 120.3 103.2 14.5 12.2 28.4 29.2 41.8 51.2 19.6 36.5 34.1 69.4 43.5 98.8-7.8 7.8-16.3 11.8-25.3 11.8l55.9 122.9-25.3 9.4-33.5-17.1c.8 9-12.2 15.3-38.8 18.8-26.7 3.5-43.8 0-51.5-10.6-7.6-10.6-29.9-46.9-66.8-108.8l-7.6-5.3c4.3 30.6 2 55.1-7.1 73.5-18-23.9-33.9-34.7-47.6-32.4-13.7 2.4-22.9 10.3-27.6 23.8-4.7 13.5-9 28.9-12.9 46.2 22.4 12.5 42.7 15.8 61.2 9.7 18.4-6.1 32-5.2 40.6 2.6 8.6 7.8 10 14.3 4.1 19.4-12.9-8.2-24.5-8.2-34.7 0H164.7c-45.1 0-67.6-2.5-67.6-7.6-3.9-3.1-8.4-.8-13.5 7.1v-15.9c.4-7.8 6.5-11.9 18.2-12.1 11.8-.2 20.8 1.4 27.1 4.7 6.3 3.3 17.7 4.7 34.4 4.1 16.7-.6 29.9-12.5 39.7-35.9 9.8-23.3 13.5-34.2 11.2-32.6l-10.7 6.7zM20.6 44.4l31.2-2.9c-2.4-3.1-2.9-6.5-1.8-10-19.6 3.9-29.4 8.2-29.4 12.9z"/></svg>