<svg xmlns="http://www.w3.org/2000/svg" viewBox="0 0 564.9 594.5"><path d="M257.1 478.8c-1.7 10.8-7.1 27-16.3 48.5-9.2 21.5-10.8 34.5-5 39.1l33.1-10.6c15-45.5 20.6-67.4 16.9-66-3.8 1.5-9.4 5.9-16.9 13.4l-11.8-24.4zM113.2 19.7c7.1 1.3 10.8 5.6 11.3 13.1-4.2 7.5-9.6 10.4-16.3 8.8-6.7-1.3-11.5-4.6-14.4-10 5.9-9.6 12.3-13.5 19.4-11.9zm140.7 439.1c12.5-2.9 19.6 2.3 21.3 15.6 4.6-6.3 9.4-9.4 14.4-9.4 4.2-40.9-6.3-81.3-31.3-121.3 8.4 36.3 6.9 74.7-4.4 115.1zM22.5 46.6l33.1-3.1c-2.5-3.3-3.3-6.9-2.5-10.6-20.8 4.6-31 9.1-30.6 13.7zm522.3 476c-36.7-132.2-72-221.2-106-267.1-34-45.9-90-104-167.9-174.5-20-11.3-37.8-14.5-53.5-9.7s-25.3 25.3-29.1 61.6c-32.1-5-43.7-21-34.7-47.8 9-26.9 7.8-47.8-3.4-62.9-.8 2.5-2 4.8-3.4 6.9-1.5 2.1-2.9.7-4.4-4.1-1.5-4.8-7-8.1-16.6-10-9.6-1.9-26.1.7-49.4 7.8 7.1 2.1 9.3 5.4 6.6 10-2.7 4.6-5.4 5.6-8.1 3.1-2.7-2.5-3.6-6.5-2.8-11.9-2.9 0-4.8.8-5.6 2.5-5 4.2-4 11.9 3.1 23.1 25.9 3.8 36.9 4.9 33.1 3.4-3.8-1.5-9.6-1.8-17.5-.9l-.6-2.5c2.5-1.7 6.2-2.5 10.9-2.5 4.8 0 9.6.4 14.4 1.3 4.8.8 6.3 3.5 4.4 8.1-1.9 4.6-16.6 4.2-44.1-1.3l-46.3-3.1C50.6 60 75.2 63.8 97.7 63.4c22.5-.4 36.2-5 41-13.8 4.8-8.8 7.4-10 7.8-3.8.4 6.3-2.9 14.6-10 25s-10.8 28.8-11.3 55c-.4 26.3 13.1 51.7 40.7 76.3 27.5 24.6 48.9 46.3 64.1 65 15.2 18.8 32.5 45.9 51.9 81.3s28.5 71.5 27.2 108.2c26.7-2.9 49 2.7 66.9 16.9 6.3-18.8 7.6-33.7 4.1-44.7s-2.3-18.8 3.8-23.1c6-4.4 32.2 8.9 78.5 39.7 13.3 55.9 22.8 87.9 28.5 96 5.6 8.1 15.7 10.5 30.3 7.2 14.4-3.1 22.3-11.8 23.6-26zm-143.9-91.9c1.7 22.5-2.7 50.7-13.1 84.4-19.2-25.4-36-36.9-50.4-34.4-14.4 2.5-24.2 10.9-29.4 25.3-5.2 14.4-9.9 30.8-14.1 49.1 23.8 12.9 46.4 17.1 67.9 12.5s37.4-2.5 47.8 6.3c4.6 7.5 3.5 14-3.1 19.4-3.3-5.8-8.1-9.5-14.4-10.9-6.3-1.5-13.8.7-22.5 6.6H175.1c-41.7 8.3-65.7 6.5-71.9-5.6-4.2-.8-8.8 2.9-13.8 11.3V577c0-10 5.8-15.4 17.5-16.3 3.3 0 10.8 1.6 22.5 4.7s28.1 4.1 49.4 2.8c14.6-.8 27-13.8 37.2-38.8 10.2-25 14.1-36.5 11.6-34.4l-11.3 6.3c21.7-55.5 28.8-106.4 21.3-152.9s-29.2-83.9-65-112.3c-34.6-26.7-55.3-51.8-61.9-75.4-6.7-23.6-7.5-43.4-2.5-59.4 5-16.1-1.3-24.1-18.8-24.1-17.1 0-38.6-4.2-64.4-12.5L1.9 72.9 0 46.6c2.9-11.3 20.2-20.8 51.9-28.8C90.7 6.2 114.3.3 122.6.3c26.3-2.1 42.5 5.2 48.8 21.9 6.3 16.7 7.3 34.9 3.1 54.7-4.2 19.8-5.6 30.3-4.4 31.6 5.4-27.9 18-46.4 37.8-55.4 19.8-9 45.3-5.1 76.6 11.6 87.1 81.7 147.2 145.4 180.1 191.1 32.9 45.7 65.9 133.3 98.8 263 5.4 25.9-5.5 42.4-32.8 49.7-27.3 7.3-45.6 4.5-54.7-8.4-9.2-12.9-19.6-47.7-31.3-104.5l-43.7-24.9z"/></svg>