<svg xmlns="http://www.w3.org/2000/svg" viewBox="0 0 595.3 554"><path d="M563.5 203.4L458.8 59.9l69.4 163.5 35.3-20zm-388.2-94.7c17.3 7.5 28.5 2.5 33.8-15 5.3-17.5 21.2-13.8 47.6 10.9 26.5 24.7 69.2 58.2 128.2 100.6 59 42.4 96.2 80.8 111.5 115.3l30.6 61.8c7.8 4.3 14.3 3.7 19.4-1.8-6.7-19.6-20.2-48.6-40.6-87.1-22-34.1-109.2-109.2-261.8-225.3-12.2-5.1-25.5-5.4-40-.9-14.4 4.5-24 18.4-28.7 41.5zm298.2 201.8c-7.5-18-40.5-49.1-99.1-93.2s-107.7-82.5-147.4-115c-6.3-5.1-8.8-3.5-7.6 4.7 2.7 8.6 16.8 27.6 42.1 57.1 25.3 29.4 54.9 59.4 88.8 90 33.9 30.5 75 49.3 123.2 56.4zm91.8 202.9l4.7-2.9c-55.3-120-84.5-182-87.6-185.9-23.9 0-50-5.6-78.2-16.8-28.2-11.2-58.3-32.5-90.3-64.1-32-31.6-66.8-71.9-104.4-120.9l-6.5 5.3c30.6 74.5 65.8 134.4 105.6 179.7 39.8 45.3 59.5 71.5 59.1 78.5l197.6 127.1zm-324.1-62.9c-1.6 10.2-6.6 25.4-15 45.6-8.4 20.2-10.1 32.5-5 36.8l31.2-10c14.1-42.7 19.4-63.5 15.9-62.4-3.5 1.2-8.8 5.3-15.9 12.4l-11.2-22.4zm170.6-11.2c7.8 12.2 15.9 25 24.1 38.5 8.2 13.5 15.1 24.6 20.6 33.2 5.5 8.6 18.3 11.8 38.5 9.4s28.9-6.9 26.2-13.5l-109.4-67.6zM106.5 18.7c6.3 1.2 9.6 5.3 10 12.4-3.9 7.1-8.8 9.8-14.7 8.2-6.3-1.2-11-4.3-14.1-9.4 5.8-9.1 12.1-12.8 18.8-11.2zM21.8 49.3c25.5 7.5 48.7 11 69.7 10.6 21-.4 33.7-4.8 38.2-13.2 4.5-8.4 7-9.6 7.4-3.5.4 6.1-2.7 14-9.4 23.8s-10 27.1-10 51.8c0 24.7 12.7 48.6 38.2 71.8 25.5 23.1 45.8 43.2 60.9 60.3 15.1 17.1 31.8 42.5 50 76.5 18.2 33.9 26.8 68.1 25.6 102.6 23.5-3.1 45.1 2.4 64.7 16.5 7.1-37.6-10.3-78.2-52.1-121.8C263.2 281 224.1 217.5 187.6 134c-39.2-5.1-54.1-21.7-44.7-49.7 9.4-28 8.8-49.1-1.8-63.2-1.2 2.4-2.5 4.5-3.8 6.5-1.4 2-2.7.7-4.1-3.8s-6.6-7.6-15.6-9.4c-9-1.8-24.5.7-46.5 7.4 7.1 2 9.2 5.1 6.5 9.4-2.7 4.3-5.4 5.3-7.9 2.9s-3.4-6.1-2.6-11.2c-2.4 0-4.1.8-5.3 2.4-4.3 3.9-3.3 11 2.9 21.2 24.7 3.9 35.2 5.2 31.5 3.8-3.7-1.4-9.1-1.7-16.2-.9l-.6-2.4c2-1.6 5.3-2.4 10-2.4s9.2.4 13.5 1.2c4.3.8 5.6 3.3 3.8 7.6-1.8 4.3-15.6 3.9-41.5-1.2l-43.4-2.9zm216.4 382.3c11.8-2.7 18.6 2.2 20.6 14.7 3.9-5.9 8.2-8.8 12.9-8.8 3.9-38.4-5.7-76.5-28.8-114.1 7.5 34.1 5.9 70.2-4.7 108.2zm107.1-307c51 40.4 95.7 78.8 134.1 115.3 14.5 12.2 28.4 29.2 41.8 51.2 19.6 36.1 34.1 69 43.5 98.8-7.8 7.8-16.3 11.6-25.3 11.2l55.9 123.5-25.9 8.8-32.9-17.1c.4 9.4-12.6 15.9-39.1 19.4-26.5 3.5-43.5-.1-51.2-10.9-7.6-10.8-29.9-47-66.8-108.5l-7.6-5.3c4.3 30.6 1.8 55.1-7.6 73.5-17.6-23.9-33.3-34.7-47.1-32.4-13.7 2.4-22.9 10.3-27.6 23.8-4.7 13.5-9 28.9-12.9 46.2 22.4 12.2 42.7 15.3 61.2 9.4 18.4-5.9 32-4.9 40.6 2.9 8.6 7.8 10 14.3 4.1 19.4-12.9-8.6-24.7-8.6-35.3 0H164.1c-44.7 0-67.1-2.5-67.1-7.6-3.9-3.1-8.4-.8-13.5 7.1v-16.5c0-7.8 6-11.9 17.9-12.1 12-.2 21.1 1.5 27.4 5 6.3 3.5 17.7 5 34.4 4.4 16.7-.6 29.9-12.6 39.7-36.2 9.8-23.5 13.3-34.3 10.6-32.4l-10.6 5.9c22.7-54.9 30-103.5 21.8-145.9-8.2-42.4-29.2-76.8-62.9-103.2-33.8-26.3-53.2-52.3-58.3-78-5.1-25.7-5.6-44-1.5-55s-1.9-16.5-17.9-16.5S47.8 68.9 23.5 61L1.8 68.7 0 44c2.4-10.6 18.4-19.6 48.2-27.1C84.7 5.9 106.8.4 114.7.4c25.1-2.4 40.5 4.4 46.2 20.3 5.7 15.9 6.6 33.1 2.6 51.8-3.9 18.6-5.1 28.5-3.5 29.7 4.7-26.3 18.6-42.7 41.8-49.4 23.1-6.7 44.9-3.9 65.3 8.2 16.1 14.5 36.7 31.6 61.8 51.2L439.4 9.3 470 50.5 584.1 207c6.7 11.4 8.2 18.2 4.7 20.6-8.2 4.3-16.9 1.6-25.9-8.2 2 4.3 3.2 8.7 3.8 13.2.6 4.5-.9 7.7-4.4 9.7-3.5 2-7.2 1.6-10.9-1.2-3.7-2.7-6.8-6.1-9.1-10 3.5 12.9 1.2 21.8-7.1 26.5-3.1 2-8-2.9-14.7-14.7L444.7 64.6c-2.7-6.7-7.1-10.6-12.9-11.8-6.3-1.2-11.8.8-16.5 5.9l-70 65.9zM20.6 44l31.2-3c-2.4-3.1-2.9-6.5-1.8-10-20 4.4-29.8 8.7-29.4 13z"/></svg>