<svg xmlns="http://www.w3.org/2000/svg" viewBox="-10 0 1023 981"><path d="M112 981l46-62 37-16h154q12-32 24-78.5t20.5-98Q402 675 402 629t-7-90.5q-7-44.5-14-67.5-9-28-28-63.5T311 355q-17-12-38.5-24.5t-41-30q-19.5-17.5-32-44T187 191q0-14 2.5-25.5T195 145q-9 2-18.5 2.5t-14.5.5q-16 0-38.5-3.5t-45-8.5q-22.5-5-39-9.5T18 120l-9 10h-19V99q0-20 17.5-39.5T48 36q17-2 39-5.5t38-7.5q24-4 44-13.5T211 0q48 0 66.5 23T296 70v3q11-10 27-19t35-9q21 0 49 15t58 36q30 21 56.5 41.5T566 170q21 14 59 37t79 49L871 9l142 361-17 7-12-27-41 5 4 27-18 3-5-28-43 5v25l-19-1-5-319-136 201q24 17 45 35t35 35q18 22 36.5 56.5t36.5 74q18 39.5 32 76.5t22 63.5q8 26.5 8 34.5 0 14-7.5 26T913 688q6 24 12.5 64.5t11 84q4.5 43.5 7.5 80t3 52.5h-48q-4-5-12-13t-16-17v42H747q0-8-2-34t-6-58q-4-32-8-59t-9-38q-14-17-27-30l-20-20q-10 28-21 58.5T633 857l-50-30q-2 17-4.5 39.5T574 903h109l30 78h-46l-10-11-17 11H464l-10-10-19 10h-91l-7-9-15 9h-73l-17-11-16 11h-47l-14-20-14 20zm69-20h30l14-10v-1l27-20h43v19h-35l-11 9 6 3h61q3-2 11-8t15-10l19-13h41v19h-34l-17 12h78q3-2 8.5-5t9.5-6l29-20h41v19h-34l-12 9 3 3h161l22-10 17 10h13l-17-39H552l14-127 56 34q5-13 13-34t16-43.5q8-22.5 14-40.5 33 32 71.5 68t74 71q35.5 35 61.5 61.5t36 38.5h20q-1-19-4-52t-8-70.5q-5-37.5-10.5-73T894 694q-6-1-23.5-10.5T848 659q-2-6-10.5-32t-22-62Q802 529 784 490.5t-38-72Q726 385 704 365q-47-41-90-72.5T544 242l-21-14q-11-8-24-19l-26-22q-28-25-58-47.5T368 117q-17 0-30 13t-20 30.5q-7 17.5-7 29.5 0 13 5 32t10 33q-35-7-52-26.5T257 183q0-14 4.5-32.5t9-32.5q4.5-14 6.5-17V70q0-18-14.5-34T211 20q-19 0-38.5 9T129 42q-4 1-9 2t-9 2q-2 5-5 12t-3 14q0 7 4 12t5 6q9 2 16.5 5t14.5 5l-6 16q-14-5-34-9.5T67 102q-8 0-14.5.5T39 105q16 5 38 10.5t45 9.5q23 4 40 4 19 0 38.5-4t36.5-16l9 13q-10 10-27 16-1 2-7 17t-6 36q0 36 12.5 59.5T250 290q19 16 38.5 27.5T323 339q16 12 30 32.5t24.5 41Q388 433 394 448t6 16l49 42q7 11 18.5 39.5t24 65.5q12.5 37 23 72.5T531 745l1-1q7 25 10 46t3 38q0 31-7 52t-27 42H384l43-150 43 46 45-54q-3-21-13.5-56.5T478 633q-13-39-25.5-71T433 518l-26-21q5 22 10 57t5 75q0 52-9.5 108T389 841.5Q375 890 362 922H199l-24 12-7 11zm1-877q-20 0-46-23 26-23 46-23 31 0 31 23 0 9-7.5 16T182 84zM9 104h5q11-14 25-17t28-3q4 0 9.5.5T88 86q-2-4-2-14 0-14 4-22l-40 6q-16 2-28.5 15.5T9 97zm178-33q13-2 13-10 0-4-4.5-6.5T187 51q5 3 5 10t-5 10zm-16-2q-3-3-3-8 0-6 4-10-10 3-17 10 6 6 16 8zm725 606q5-4 13-11.5t8-20.5q0-7-8-32t-21.5-60.5Q874 515 857 477t-35-71.5Q804 372 787 351q-20-24-52-48t-67-46.5Q633 234 602.5 216T555 187q-17-11-42-31t-53.5-41Q431 94 404 79.5T358 65q-25 0-43.5 17.5t-28 45Q277 155 277 183q0 27 18 42-3-15-3-35 0-15 9-37t26-38.5Q344 98 368 98q23 0 54 24t63 50q14 12 26 22t23 18q5 4 11 7.5t11 7.5h-1q27 19 71.5 51t89.5 72q22 21 43.5 57.5t42 79.5q20.5 43 37 87t28.5 80q2 9 12 14t17 7zm-14-331l95-11L875 68zM409 903h93q13-16 18.5-32.5T526 828q0-11-1.5-21.5T522 786l-52 62-33-37zm357 58h85v-42q-22-25-49-51.5T750 815q3 19 6 45.5t6 53.5q3 27 4 47z" fill="currentColor"/></svg>