<svg xmlns="http://www.w3.org/2000/svg" viewBox="0 0 595.3 358.8"><path d="M438.4 10.2c1-4.1 4-6.9 9.1-8.4C452.1.3 457-.3 462.2 0c5.2.2 9.4 1.2 12.6 2.9 3.2 1.7 5.7 3.9 7.6 6.5 12.4 1.2 23.7 6.5 33.8 15.8 10.2 9.3 15.4 23.3 15.6 41.8s-11.4 37-34.9 55.3c-23.5 18.3-38.8 33.3-45.8 44.9-10.4 16.5-15.8 28.2-16 35.1-.2 6.9 7.3 4.7 22.6-6.5 15.3-11.3 29.5-16.9 42.6-16.9 14.3 0 27.2 4.1 38.6 12.4 11.4 8.2 15.4 27.3 12 57.1 3.6 10.4 2.4 17.1-3.6 20-5.3 1.9-9.9.6-13.8-4-11.2 7.8-21.3 11.6-30.6 11.6-15.5 0-28.5-5.1-38.9-15.3-18 6.3-35.1 9.5-51.3 9.5-16.5 0-28.4-3.2-35.7-9.5-7.3-6.3-11-16.9-11.1-31.8-.1-14.9 8.9-29.8 27.1-44.6 6.8-16.3 15.3-41.4 25.5-75.3 10.9-35.7 24.1-60.5 39.7-74.6-7.8-1.2-13.5-4.3-17.1-9.3-3.7-4.7-4.6-9.8-2.7-14.9zm6.2 2.2c0 7.3 2.6 11.9 7.8 13.8 5.2 1.9 9.6 2.9 13.3 2.9 17.5-2.4 32.3.1 44.4 7.6 1.2 3.4.5 4.7-2.2 4-11.4-4.9-19.6-7.3-24.7-7.3-9.5.2-18.4 6.3-26.7 18.2S439.7 81 431.2 104c-12.4 40.5-22.2 68.6-29.5 84.4-4.9 21.8.2 38.3 15.3 49.5l12.4 1.8c9.9 0 24.5-5.1 43.7-15.3 12.6-6.3 22.6-9.5 29.8-9.5 14.6 0 27.7 6.2 39.3 18.6 3.6-28.6-10.4-43.3-42.2-44-11.9.2-23.6 5.2-35.1 14.7-11.5 9.6-21.3 14.4-29.3 14.4s-11.3-6.5-9.8-19.6c1.5-13.1 11.6-31.2 30.6-54.2 12.1-13.6 26-26 41.5-37.3 15.5-11.3 24-25.5 25.3-42.6 1.3-17.1-8.8-32.3-30.4-45.7l.7 1.5c-5.8 1.2-12.5 2.1-20 2.5-14.6.2-22.7-2.1-24.4-7.1-1.7-5 .8-7.5 7.6-7.5 5.3.5 7.9 2.3 7.8 5.5-.1 3.2-2 4.6-5.6 4.4 1.7-.7 2.9-1.7 3.5-2.9.6-1.2.3-2.4-.9-3.5s-3.4-1.6-6.5-1.6c-3.2 0-4.8 1-4.9 3.1-.1 2.1 1.2 3.9 3.8 5.5 2.7 1.6 9.2 2.4 19.6 2.4l18.2-1.5v-1c-11.2-1.9-17.2-3.3-18.2-4-3.2-4.9-8-7.3-14.6-7.3-5.2 0-9.9 1.6-14.3 4.7zM389 202c-9.9 11.6-13.7 24.4-11.3 38.2 2.4 13.8 14.4 20.7 35.8 20.7 21.5 0 40.3-4.2 56.4-12.7s29.7-12.8 40.8-12.9c11-.1 20.1 6.9 27.1 20.9 5.3 4.4 7.3 3.2 5.8-3.6-.5-5.1-5-11-13.5-17.8-8.5-6.8-16.4-10.6-23.7-11.3-7.3-.7-19.8 3.4-37.5 12.4S436 249.2 423.4 249c-12.6-.2-22.7-7-30.2-20.4-2.8-7.6-4.2-16.4-4.2-26.6zm86.6 54.6c9.2 7.5 18.3 11.3 27.3 11.3 11.6-2.9 19-6.9 22.2-12-9.5-13.6-26-13.4-49.5.7zM454.1 11.3c1.2 0 2.2.5 2.9 1.6.7 1.1.5 2.2-.5 3.3-1.1 1.1-2.2 1.3-3.5.5-1.2-.7-1.8-1.7-1.8-2.9 0-1.1.9-2 2.9-2.5zM158.3 343.9c51.2-1 90.4-21 117.5-60H41.5c27.2 39.1 66.2 59.1 117.2 60h-.4zm437-74.2c-27.9 59.2-75.4 88.9-142.6 89.1-67.2-.2-114.7-30-142.6-89.1h285.2zm-142.7 74.6c51.2-1 90.4-21 117.5-60H335.5c27.4 39.1 66.6 59.1 117.5 60h-.4zM86.6 53.9c8.5 3.6 14.1 1.2 16.7-7.5 2.7-8.6 10.6-6.8 23.7 5.5 13.1 12.2 34.3 28.9 63.5 49.8 29.2 21 47.6 40.1 55.1 57.3l14.9 30.2c4.1 2.2 7.4 1.9 9.8-.7-3.2-9.9-9.8-24.3-20-42.9-10.9-17.2-54.1-54.5-129.5-111.7-6.1-2.4-12.7-2.5-20-.4-7.3 2.2-12 9-14.2 20.4zM234.3 154c-3.6-9-20-24.4-49.1-46.2-29.1-21.8-53.5-40.9-73.1-57.1-2.9-2.4-4.1-1.6-3.6 2.5 1.5 4.4 8.4 13.8 20.9 28.2 12.5 14.4 27.2 29.3 44 44.6 16.8 15.2 37.2 24.6 60.9 28zm45.1 100l2.5-1.1c-27.4-59.4-41.8-90.1-43.3-92.1-11.9-.2-24.8-3.1-38.8-8.6-13.9-5.5-28.8-16-44.6-31.7-15.8-15.6-33.1-35.6-52-59.9l-2.9 2.5c15 36.9 32.4 66.5 52.2 89s29.4 35.5 28.9 39.1l98 62.8zm-160.1-30.9c-.7 4.9-3.2 12.3-7.5 22.4-4.2 10.1-5 16.1-2.4 18l15.3-4.7c7-21.1 9.6-31.4 7.8-30.7-1.8.6-4.4 2.6-7.8 6l-5.4-11zm84.5-5.5c3.9 5.8 7.9 12.1 12 18.9 4.1 6.8 7.5 12.3 10.2 16.6 2.7 4.2 9 5.8 18.9 4.5 9.9-1.2 14.3-3.5 13.1-6.9l-54.2-33.1zM52.4 9.5c3.4.5 5.1 2.4 5.1 5.8-1.9 3.6-4.4 5.1-7.3 4.4-3.2-.7-5.5-2.3-6.9-4.7 2.9-4.4 5.9-6.2 9.1-5.5zM10.9 24.4c12.4 3.9 23.8 5.7 34.2 5.5 10.4-.2 16.8-2.4 19.1-6.5s3.5-4.7 3.6-1.8c.1 2.9-1.5 6.8-4.7 11.6-3.3 4.9-5 13.4-5.1 25.7-.1 12.2 6.2 24.1 19 35.6 12.7 11.5 22.9 21.5 30.4 29.8 7.5 8.4 15.8 20.9 24.7 37.7 9 16.7 13.1 33.7 12.4 50.9 11.9-1.5 22.6 1.3 32 8.4 3.4-18.9-5.2-39.1-25.8-60.6s-39.9-52.8-57.9-94.1C73.4 64 66 55.7 70.6 41.9c4.6-13.8 4.2-24.3-1.1-31.3-.2 1.2-.7 2.3-1.5 3.3-.7 1-1.5.3-2.2-2-.7-2.3-3.3-3.9-7.6-4.7-4.3-.9-12.1.4-23.3 3.8 3.4 1 4.5 2.5 3.3 4.5-1.2 2.1-2.5 2.5-3.8 1.3-1.3-1.2-1.8-3-1.3-5.5-1.2 0-2.1.4-2.5 1.1-2.2 2.2-1.7 5.8 1.5 10.9 12 1.7 17.2 2.3 15.4 1.7-1.8-.6-4.4-.8-7.8-.5l-.7-1.1c1.2-.7 3-1.1 5.3-1.1s4.5.2 6.7.5c2.2.4 2.9 1.6 2 3.8-.8 2.2-7.7 1.9-20.6-.7l-21.5-1.5zm107 189.2c5.8-1.5 9.2 1.1 10.2 7.6 1.9-3.2 4-4.7 6.2-4.7 2.2-18.9-2.5-37.7-14.2-56.4 3.6 17 2.9 34.9-2.2 53.5zm-76.4 56.1V266c0-3.9 3-5.9 8.9-6 5.9-.1 10.4.7 13.3 2.4 2.9 1.7 8.6 2.4 16.9 2 8.4-.4 15-6.3 19.8-17.8 4.9-11.5 6.7-16.9 5.5-16.2l-5.5 3.3c11.2-27.4 14.7-51.6 10.7-72.6-4-21-14.4-38-31.1-50.9S53.7 84.3 51.3 71.5c-2.4-12.7-2.7-21.8-.7-27.3 1.9-5.5-1.1-8.2-9.1-8.2s-17.9-1.9-29.8-5.8l-10.9 4L0 21.9c1.2-5.3 9.1-9.7 23.7-13.1C41.9 3.2 52.9.4 56.8.4c12.4-1.2 20 2.1 22.7 10s3.2 16.4 1.3 25.7c-1.9 9.2-2.5 14.1-1.8 14.6 2.4-12.9 9.3-20.9 20.7-24.2 11.4-3.3 22.2-2 32.4 3.8 9.7 8.7 24.9 21.2 45.5 37.3s40.5 33.2 59.7 51.1c7 6.1 13.9 14.6 20.7 25.5 9.7 18 16.9 34.2 21.5 48.8-3.9 3.9-8.1 5.8-12.7 5.8l28 60.8-12.7 4.7-16.7-8.4c.2 4.6-6.2 7.8-19.3 9.5-13.1 1.7-21.5-.1-25.3-5.5-3.8-5.3-14.7-23.3-32.9-53.9l-3.6-2.5c1.9 15.3.6 27.4-4 36.4-8.7-11.9-16.5-17.2-23.3-16-6.8 1.2-11.4 5.2-13.8 11.8-2.4 6.7-4.5 14.3-6.2 22.7 10.9 6.1 20.1 7.8 27.5 5.1 7.4-2.7 13.4-2.7 18-.2s6.9 4.9 6.9 7.1l112.1-.7c-27.9 59.2-75.4 88.9-142.6 89.1-67.2-.2-114.7-30-142.6-89.1h25.2zM10.2 21.9l15.3-1.5c-1.2-1.5-1.5-3-.7-4.7-10 1.9-14.9 4-14.6 6.2z"/></svg>