<svg xmlns="http://www.w3.org/2000/svg" viewBox="-10 0 1422 1009"><path d="M380 1009q-133 0-205-60T87 788q0-4-.5-7.5T86 773h12l26-38 30-13h119q9-25 19-61.5t17-77q7-40.5 7-77.5t-6-72q-6-35-11-54-7-22-22-50.5T243 287q-18-12-41.5-26t-41-38Q143 199 143 157q0-11 2.5-18.5T150 124q-7 1-12.5 1.5t-9.5.5q-17 0-42.5-4.5t-47-10.5Q17 105 12 103l-7 9h-15V83q0-16 14-34t33-21q14-1 31-4t30-6q19-4 35-11t34-7q38 0 53 18.5T235 56v2q8-8 21-15t28-7q17 0 40 12.5t48 30q25 17.5 47 35t36 26.5q15 10 39.5 24.5t53 32.5q28.5 18 54 38t41.5 39q18 21 36.5 58.5t35 77q16.5 39.5 26.5 70t10 38.5q0 11-6.5 21T732 553q5 19 9.5 49.5t8.5 64q4 33.5 6.5 62T760 773h74q-21-10-31.5-25.5T792 716q0-19 6.5-31.5T810 666q-16-31-16-77 0-26 2.5-56t6.5-57q2-22 4.5-41.5T810 401q0-14-5-30l-10-32q-6-18-11.5-36t-5.5-36q0-18 3.5-41.5t15.5-48q12-24.5 37-44.5-25 3-44 3-23 0-44-6.5T725 96q0-15 13-36.5T780 22q29-16 77-16 33 0 70 17t69.5 47q32.5 30 52.5 68.5t20 81.5q0 25-11.5 60.5t-29 74.5q-17.5 39-35.5 74-26 50-47.5 96T924 599v8q18-6 34-6 31 0 60 24l5-2q36-9 80-18t78-9q38 0 62 14.5t35 33.5q11 19 11 34 0 12-3 24.5t-4 23.5q23 35 40 70t37 70q20 35 53 67l-26 19q-23-10-59-43t-62-90q-6-11-13.5-22.5T1235 776q-13 107-85 170t-209 63q-116 0-185-46t-95-125q-26 79-96 125t-185 46zM143 773h24l11-9 22-16h33v15h-27l-9 7 5 3h49q2-2 9-6.5t12-8.5l15-10h32v15h-27l-14 10h63q2-2 6-4.5t9-4.5l23-16h33v15h-28l-9 7 3 3h128l18-9 13 9h8l-11-32h-94l11-102 45 28q6-16 17-47t19-53q27 26 57.5 55t59 56.5q28.5 27.5 49.5 49t29 31.5h13q-1-20-5-57.5t-10-77q-6-39.5-12-65.5-9-1-22.5-8.5T672 530q-1-6-11-35.5T635 426q-16-39-36-75t-42-56q-37-32-69.5-56T433 200l-17-11q-9-7-19.5-15.5T376 156q-23-19-46-37t-37-18q-23 0-32.5 20t-9.5 35q0 13 1.5 27.5T258 211q-27-6-42.5-23.5T200 149q0-11 3.5-25.5t7-25.5q3.5-11 4.5-14V60q0-14-9.5-27.5T167 19q-15 0-30.5 7.5T101 37l-14 3q-6 10-6 21 0 6 2.5 10t3.5 5q8 1 14 3t11 4l-4 13q-11-4-27.5-7.5T51 85H40l-11 2q19 7 48.5 13.5T128 107q15 0 31-3t29-13l7 14q-6 6-22 13-1 1-5.5 11t-4.5 28q0 38 17 59.5t39 34q22 12.5 37 23.5 17 13 31 37t22 43q8 19 9 21l39 34q8 12 20.5 44t25 72q12.5 40 20.5 74 11 42 11 67 0 45-27 75H305l35-120 34 37 32-44q-3-17-11-45.5T376.5 509Q366 478 356 453t-16-35l-15-13q4 18 7.5 44t3.5 57q0 43-7.5 87.5t-18.5 83Q299 715 288 741H157l-19 10-6 9zm786-64q18 0 49-7.5t66.5-17.5q35.5-10 67-17.5t49.5-7.5q32 0 54.5 10t36 21q13.5 11 15.5 15 1-6 1.5-12t.5-15q0-11-9-26t-28-26q-19-11-51-11-34 0-76 9t-77 18q-24 5-42.5 9.5T957 656q-22 0-37.5-14T904 599q0-33 22.5-80t48.5-99q18-35 35-72.5t28-71q11-33.5 11-56.5 0-39-18-74.5T984 83q-29-27-62.5-42.5T857 25q-41 0-66 13t-36 29.5Q744 84 744 96q0 14 14.5 17.5T790 117q41 0 68-7t61-7q20 0 40 6l-7 19q-8-3-16.5-4t-16.5-1q-40 0-67.5 20.5t-41 53.5Q797 230 797 267q0 16 5 32.5t11 33.5q6 17 11 34.5t5 33.5q0 15-2 34.5t-5 42.5q-3 28-6 57t-3 54q0 52 28.5 86t87.5 34zM144 71q-16 0-37-19 11-10 18.5-14t18.5-4q25 0 25 18 0 7-6.5 13T144 71zm4-11q10-2 10-8 0-3-3.5-5t-7.5-3q4 1 4 8t-3 8zM5 86h4q9-11 20.5-13T51 71h8l9 1q-2-6-2-11 0-9 4-17l-32 4q-12 2-22.5 12.5T5 81zm130-27q-3-3-3-7 0-5 3-7-6 0-13 7l6 4 7 3zm681 24q-16 0-16-16 0-15 16-15t16 15q0 16-16 16zM714 544q5-3 11-9.5t6-16.5q0-7-9.5-36T696 415q-16-38-33.5-74T628 284q-16-19-41.5-38t-54-37q-28.5-18-53-32.5T442 153q-13-9-33.5-25t-43-33q-22.5-17-44-28.5T284 55q-31 0-48 30t-17 64q0 22 15 34-1-6-2-13t-1-14q0-13 7-30t21-30.5Q273 82 293 82q18 0 43 19t50 40q11 9 21 17.5t18 14.5q4 3 9 6t8 6q49 34 76 55t53 44q22 23 45 65.5t43 90q20 47.5 32 86.5 2 7 10 12t13 6zM563 773h31q-1-18-4-47.5t-6.5-56Q580 643 576 634q-11-13-21-22t-15-13l-33 93-43-27q-1 14-3 30t-4 27h87zm394-137q14 0 36-6-16-9-35-9-14 0-26 4 8 11 25 11zm-627 86h69q8-11 12-23t4-33q0-17-3-34l-38 50-25-26zm284 47h61v-38q-18-20-35.5-35.5T602 659q3 23 6.5 55.5T614 769zm770 164l4-4q-26-21-44.5-52.5t-34.5-66q-16-34.5-35-64.5t-46-49q-27-19-67-19-7 0-16 2t-20 4q61 19 100.5 55t56.5 71q29 59 57.5 86t44.5 37zM906 769q34 0 66.5-12t49.5-21q-13-9-25-19-47 11-68 11-38 0-65-12t-43-33q-4 5-7 13t-3 20q0 19 25 36t70 17zm269 0q15 0 26.5-3t17.5-6q-24-22-57-39.5t-73-27.5q-19 5-36 9.5t-32 8.5q27 20 68 39t86 19zm-190 4h109q-14-5-27.5-11.5T1041 748q-7 4-21.5 11T985 773zm-291 0h23l-23-23zM380 989q117 0 187-54t81-142H112q11 88 81 142t187 54zm561 0q118 0 187.5-54t81.5-142H673q12 88 81.5 142T941 989z" fill="currentColor"/></svg>