<svg xmlns="http://www.w3.org/2000/svg" viewBox="-10 0 1018 1019"><path d="M8 1019l-18-14 19-26q10-13 18-23.5T65 945h134V709q0-28-3.5-67.5t-10.5-82q-7-42.5-19-78.5l-74-89q-33-39-53-79.5T19 210q0-48 8.5-101.5T56 0h240q16 40 27.5 86.5T337 180q32 10 69 32.5t59 42.5q29 11 47.5 27.5T545 318l463 650-50 43-133-135 55 119-202-17-99-192-52-31 19 102-18 8-80-43v123h97q30 0 38 10.5t17 23.5l20 26-20 14-12-18H226l-13 18-18-14 3-4H21zm231-35h337l-16-22H452l-23-17V806l9-13 84 45-19-103 12-10 81 48 97 186 153 13-61-135-462-348q-17-13-41.5-32.5T238 409q-19-28-19-68 0-38 24-60t59.5-31q35.5-9 69.5-9 25 0 47 3-25-16-53.5-31T317 191q0-42-10.5-89T282 20H70Q53 71 45.5 120T38 216q0 40 12 70.5T77.5 340Q93 363 106 378l230 279q31 37 42.5 73.5T390 816v129l-21 17H254zm6-847q-15 0-25-10t-10-25q0-14 10-24.5T245 67q14 0 24 10.5t10 24.5q0 15-10 25t-24 10zm-137 0q-15 0-25-10t-10-25q0-14 10-24.5T108 67q14 0 24.5 10.5T143 102q0 15-10.5 25T108 137zm137-16q7 0 12.5-6t5.5-13q0-7-5.5-12.5T245 84q-19 0-19 18 0 7 5.5 13t13.5 6zm-137 0q7 0 13-6t6-13q0-7-6-12.5T108 84q-7 0-13 5.5T89 102q0 7 6 13t13 6zm61 106l-33-89 18-7 23 62 19-62 17 5-28 91zm791 759l24-22-454-634q-23-31-59-51t-94-20q-32 0-64 7t-53.5 25.5Q238 310 238 344q0 41 29.5 70.5T341 478l460 344zm-926-2h177l3-5q8-11 15-21t29-12V769l17-13 95 78v-19q0-51-12-84.5T322 669L195 517q13 42 18.5 88.5T219 702v243l-21 17H49zm243-39h93v-84l-93-76z" fill="currentColor"/></svg>