<svg xmlns="http://www.w3.org/2000/svg" viewBox="0 0 538.3 595"><path d="M94.8 8.9C78.3 11.9 59.1-3 44.5 6.6 26.3 33.1 9.8 62.5 7.8 95.2c-3.6 62.8-2 84.7 47.6 136.3 19.5 44.3 55.9 188.8 66.8 228.2 11.9 11.2-14.9 72.8-26.1 88-12.2 16.9-64.5 1.7-86.3 15.2-9.3 6-12.6 28.1-7.3 31.1 5-7.6 14.9-17.9 21.8-18.9-6.6 6.9 16.5 3.6 21.5 5.3 19.8.3 40 2.6 60.2.3 5.3-2.3 11.2-6.9 6.6 1.7 30.4 7.9 73.1 3 80-14.9 9.9-18.2 19.2-37.4 25.8-57.2 10.9 2.3 25.5 11.6 34.4 6 9.3-6.3 18.9-35.7 24.1-55.2 1-4 10.6-4 12.2-.3 9.9 19.8 26.5 80.7 42.3 106.2 19.5 30.8 84.3 36 128.6 17.2 21.5-9.3 37.4-7.3 32.7-19.2-7.3-19.8-19.8-38.7-33.1-55.6 19.2 11.9 38.4 24.1 57.5 36 4.6 16.9 29.8 4 17.5-8.9C459.5 428 340.1 243.2 257.5 183.3c-13.2-11.6-28.8-20.5-46-24.8-5.6-14.6-4-34.1-7.3-50.6-3.3-32.7-23.1-87-57.9-107.8-11.5 5.2-33.6 10.5-51.5 8.8zm48.9 12.6c19.5 22.8 36.7 49.3 40 79.7 3.3 21.8 4.3 43.7 7.6 65.1-15.5-1.3-10.9-25.5-7.9-37 2.6-22.8-9.6-44-18.2-64.2-6-10.9-11.6-28.1-26.8-28.4-16.9 3-27.8 17.2-38.7 29.4C88.5 54.9 76.6 42.7 61.1 38c-6.3-2.3-18.9 6.3-10.3-4.3 5.6-19.8 27.4-2.3 42-5.3 17.2 1 34.7-1 50.9-6.9zm-5.3 25.1c12.9 3.3 15.9 21.2 22.2 31.7 7.9 18.5 17.5 38.7 11.2 59.5-5 9.9 1.3 22.5.7 29.8-12.2 8.6-22.8 27.8-40.3 23.5-14.6-3-21.8-16.9-33.1-23.5-9.3 8.9-14.2 28.8-32.4 23.1-12.2-2.6-28.4-1.3-32.1-16.2-6.3-15.2-6.9-32.1-7.9-48.6 8.6 1.7 9.3-6.9 9.9-14.2 4.3-16.2 20.8-17.9 32.7-8.3 5.6 6.3 22.8 11.2 19.2 21.2-1.7 6-3.6 12.2-5.6 18.5l13.9 18.5c1.3-9.6 15.5-17.5 7.3-27.1-1.3-4.3-6.3-9.9-5.6-13.2 6-10.6 13.9-19.8 23.1-27.8 11.2-10.9 23.1 7.9 33.1 9.3 7.6-8.3-.7-11.6-8.3-15.9-11.6-10.9-29.1-7.3-37.7 5.3-8.3 5-13.2 25.1-21.8 11.9-11.6-9.3-25.8-19.8-41.3-16.5-9.6 2-18.2 21.8-18.5 20.8-.4-15.5 6.8-29.4 11.1-44.6 4-16.5 24.8-21.5 35.4-7.9 11.6 4.3 19.5 27.4 31.4 19.2 10.3-10.9 18.6-23.8 33.4-28.5zm-16.5 54.9c-8.9 4.3-19.8 16.2-3.3 18.2 7.9-.3 26.1-8.6 22.8-16.2-6.3 6-12.9-2-19.5-2zm-65.1 3c-10.9 2.6-16.5 14.6-2.6 17.2 7.3.7 31.1-9.6 12.6-11.9-3.1-2-6.1-5.3-10-5.3zM181.1 173c4.6 9.6 12.2 4.3 17.9 1.7 7.9 5.6 35.4 5 19.2 16.9-10.3 13.9-65 51.8-103.1 58.4-16.4 2.9 11.2 28.9 20.1 38.1 51.6 46.3 102.2 95.2 164 128.6 38.7 21.8 79.4 41.3 116.7 65.5 17.9 25.8 39 49.6 52.6 78-13.6 4-26.8 9.6-40.7 12.9-27.4 6.9-63.5 0-76.7-14.2-17.9-18.9-37.4-99.2-47.6-128.6-5-11.2-16.9 3-19.2-.7-1.3-16.2-24.8-17.2-23.1.7-2 20.8-6 41.7-15.9 60.5-4.6 12.2-28.4-4.3-43-7.9C206.6 457.4 171.9 327.1 70 218c-4-4.3-22.8-24.1-16.5-19.5 15.2 4 36 4.3 44.6-11.6 4-11.9 12.6 9.6 21.8 9.6 13.9 9.3 32.1 5.3 42.7-6.6 6.3-5.7 12.2-11.3 18.5-16.9zM488 503.7c-49.6-31.4-98.6-63.2-151.8-89-74.7-36.7-138.6-96.2-199.4-151.8 50.3-16.9 86.3-45.3 104.2-65.5 79.3 45.7 217.6 270.2 247 306.3zM91.5 276.1c42 43.3 80.7 153.1 90.6 198.1-16.2-13.2-38.4-21.8-43.3-30.1-5.3-8.6-19.9-92.2-47.3-168zm67.1 206.4c10.6 6.3 20.2 14.9 31.7 19.5-6.9 17.2-11.2 36.4-25.5 49.9-7.6 12.2-24.5.7-36.7 1.7 9.4-23.1 23.2-33.4 30.5-71.1z"/></svg>