<svg xmlns="http://www.w3.org/2000/svg" viewBox="0 0 588.8 476"><path d="M117.4 0c-9.5 4.2-27.2 8.5-41.5 7.1-13.3 2.4-28.6-9.5-40.3-1.8C21.1 26.5 7.8 50 6.3 76.2c-2.9 50.3-1.6 67.7 38.1 109 15.6 35.4 44.7 151 53.4 182.5 9.5 9-11.9 58.2-20.9 70.4-9.8 13.5-51.6 1.3-69 12.2C.4 455-2.2 472.7 2 475.1c4-6.1 11.9-14.3 17.5-15.1-5.3 5.6 13.2 2.9 17.2 4.2 15.9.3 32 2.1 48.1.3 4.2-1.9 9-5.6 5.3 1.3 24.3 6.3 58.5 2.4 64-11.9 7.9-14.5 15.3-29.9 20.6-45.8 8.7 1.9 20.4 9.3 27.5 4.8 7.4-5 15.1-28.6 19.3-44.2.8-3.2 8.5-3.2 9.8-.3 4.3 8.6 10.1 26.7 16.6 44.8-4.5 10.7-9.6 20.3-12.9 24.8-9.8 13.5-51.6 1.3-69 12.2-7.4 4.8-10.1 22.5-5.8 24.9 4-6.1 11.9-14.3 17.5-15.1-5.3 5.6 13.2 2.9 17.2 4.2 15.9.3 32 2.1 48.1.3 4.2-1.9 9-5.6 5.3 1.3 24.3 6.3 58.5 2.4 64-11.9 7.9-14.5 15.3-29.9 20.6-45.8 8.7 1.9 20.4 9.3 27.5 4.8 7.4-5 15.1-28.6 19.3-44.2.8-3.2 8.5-3.2 9.8-.3 7.9 15.9 21.2 64.5 33.9 84.9 15.6 24.6 67.5 28.8 102.9 13.8 17.2-7.4 29.9-5.8 26.2-15.3-5.8-15.9-15.9-31-26.5-44.4 15.3 9.5 30.7 19.3 46 28.8 3.7 13.5 23.8 3.2 14-7.1-60.1-86.8-155.6-234.7-221.7-282.5-10.6-9.3-23-16.4-36.8-19.8-4.5-11.6-3.2-27.2-5.8-40.5-2.6-26.2-18.5-69.6-46.3-86.2-9.4 4.1-27.1 8.4-41.4 7-13.2 2.4-28.6-9.5-40.2-1.9-14.5 21.3-27.8 44.8-29.3 71-.2 3.9-.4 7.6-.6 11.2-.1-.4-.1-.8-.2-1.1C161 60.1 145.1 16.7 117.4 0zM115 17.2c15.6 18.3 29.4 39.4 32 63.8 2.6 17.5 3.4 34.9 6.1 52.1-12.4-1.1-8.7-20.4-6.3-29.6 2.1-18.3-7.7-35.2-14.6-51.3-4.8-8.7-9.3-22.5-21.4-22.8-13.5 2.4-22.2 13.8-31 23.5-9-9-18.5-18.8-31-22.5-5-1.9-15.1 5-8.2-3.4 4.5-15.9 22-1.9 33.6-4.2 13.8.7 27.8-.8 40.8-5.6zm158.2 0c15.6 18.3 29.4 39.4 32 63.8 2.6 17.5 3.4 34.9 6.1 52.1-12.4-1.1-8.7-20.4-6.3-29.6 2.1-18.3-7.7-35.2-14.6-51.3-4.8-8.7-9.3-22.5-21.4-22.8-13.5 2.4-22.2 13.8-31 23.5-9-9-18.5-18.8-31-22.5-5-1.9-15.1 5-8.2-3.4 4.5-15.9 22-1.9 33.6-4.2 13.8.7 27.8-.8 40.8-5.6zM110.7 37.3c10.3 2.6 12.7 16.9 17.7 25.4 6.3 14.8 14 31 9 47.6-4 7.9 1.1 18 .5 23.8-9.8 6.9-18.3 22.2-32.3 18.8-11.6-2.4-17.5-13.5-26.5-18.8-7.4 7.1-11.4 23-25.9 18.5-9.8-2.1-22.8-1.1-25.7-13-5-12.2-5.6-25.7-6.3-38.9 6.9 1.3 7.4-5.6 7.9-11.4 3.4-13 16.7-14.3 26.2-6.6 4.5 5 18.3 9 15.3 16.9-1.3 4.8-2.9 9.8-4.5 14.8l11.1 14.8c1.1-7.7 12.4-14 5.8-21.7-1.1-3.4-5-7.9-4.5-10.6C83.3 88.4 89.6 81 97 74.7c9-8.7 18.5 6.3 26.5 7.4 6.1-6.6-.5-9.3-6.6-12.7-9.3-8.7-23.3-5.8-30.2 4.2-6.6 4-10.6 20.1-17.5 9.5-9.3-7.4-20.6-15.9-33.1-13.2-7.7 1.6-14.6 17.5-14.8 16.7-.3-12.4 5.6-23.5 9-35.7 3.2-13.2 19.8-17.2 28.3-6.3 9.3 3.4 15.6 22 25.1 15.3 8.5-8.6 15.1-18.9 27-22.6zm158.2 0c10.3 2.6 12.7 16.9 17.7 25.4 6.3 14.8 14 31 9 47.6-4 7.9 1.1 18 .5 23.8-9.8 6.9-18.3 22.2-32.3 18.8-11.6-2.4-17.5-13.5-26.5-18.8-7.4 7.1-11.4 23-25.9 18.5-9.8-2.1-22.8-1.1-25.7-13-5-12.2-5.6-25.7-6.3-38.9 6.9 1.3 7.4-5.6 7.9-11.4 3.4-13 16.7-14.3 26.2-6.6 4.5 5 18.3 9 15.3 16.9-1.3 4.8-2.9 9.8-4.5 14.8l11.1 14.8c1.1-7.7 12.4-14 5.8-21.7-1.1-3.4-5-7.9-4.5-10.6 4.8-8.5 11.1-15.9 18.5-22.2 9-8.7 18.5 6.3 26.5 7.4 6.1-6.6-.5-9.3-6.6-12.7-9.3-8.7-23.3-5.8-30.2 4.2-6.6 4-10.6 20.1-17.5 9.5-9.3-7.4-20.6-15.9-33.1-13.2-7.7 1.6-14.5 17.5-14.8 16.7-.3-12.4 5.6-23.5 9-35.7 3.2-13.2 19.8-17.2 28.3-6.3 9.3 3.4 15.6 22 25.1 15.3 8.5-8.6 15.1-18.9 27-22.6zM97.5 81.2c-7.1 3.4-15.9 13-2.6 14.6 6.3-.3 20.9-6.9 18.3-13-5.1 4.8-10.4-1.6-15.7-1.6zm158.2 0c-7.1 3.4-15.9 13-2.6 14.6 6.3-.3 20.9-6.9 18.3-13-5.1 4.8-10.4-1.6-15.7-1.6zM45.4 83.6c-8.7 2.1-13.2 11.6-2.1 13.8 5.8.5 24.9-7.7 10.1-9.5-2.4-1.7-4.8-4.3-8-4.3zm158.2 0c-8.7 2.1-13.2 11.6-2.1 13.8 5.8.5 24.9-7.7 10.1-9.5-2.4-1.7-4.8-4.3-8-4.3zm-58.7 54.8c3.7 7.7 9.8 3.4 14.3 1.3 2.6 1.8 7.8 2.8 12.1 4 1.3 2.8 2.8 5.6 4.5 8.5-.4.3-.8.7-1.3 1-8.2 11.1-52 41.4-82.5 46.8-13.1 2.3 8.9 23.1 16.1 30.5 41.3 37 81.7 76.2 131.2 102.9 2.9 1.6 5.8 3.3 8.8 4.9 3.3 12.3 6.1 23 7.9 29.5 3.4 3.2 2.9 11.4.4 21.1-5.4-17.6-10.2-34.8-13.6-44.7-4-9-13.5 2.4-15.3-.5-1.1-13-19.8-13.8-18.5.5-1.6 16.7-4.8 33.3-12.7 48.4-3.7 9.8-22.8-3.4-34.4-6.3 3.4-20.4-24.3-124.6-105.8-211.9-3.2-3.4-18.3-19.3-13.2-15.6 12.2 3.2 28.8 3.4 35.7-9.3 3.2-9.5 10.1 7.7 17.5 7.7 11.1 7.4 25.7 4.2 34.1-5.3 4.9-4.5 9.6-9 14.7-13.5zm158.2 0c3.7 7.7 9.8 3.4 14.3 1.3 6.3 4.5 28.3 4 15.3 13.5-8.2 11.1-52 41.4-82.5 46.8-13.1 2.3 8.9 23.1 16.1 30.5 41.3 37 81.7 76.2 131.2 102.9 31 17.5 63.5 33.1 93.4 52.4 14.3 20.6 31.2 39.7 42.1 62.4-10.8 3.2-21.4 7.7-32.5 10.3-22 5.6-50.8 0-61.4-11.4-14.3-15.1-29.9-79.4-38.1-102.9-4-9-13.5 2.4-15.3-.5-1.1-13-19.8-13.8-18.5.5-1.6 16.7-4.8 33.3-12.7 48.4-3.7 9.8-22.8-3.4-34.4-6.3 3.4-20.4-24.3-124.6-105.8-211.9-3.2-3.4-18.3-19.3-13.2-15.6 12.2 3.2 28.8 3.4 35.7-9.3 3.2-9.5 10.1 7.7 17.5 7.7 11.1 7.4 25.7 4.2 34.1-5.3 4.9-4.5 9.6-9 14.7-13.5zm47.9 19.5c63.5 36.5 174.1 216.1 197.6 245-39.7-25.1-78.8-50.5-121.4-71.2-59.8-29.4-110.8-77-159.5-121.4 40.1-13.5 69-36.2 83.3-52.4zm-165.7 7.8c4.7 6 10.4 12.4 17.3 19.5 10.6 24.2 27.5 85.5 40 132.1-48.7-29.2-91.7-69.2-133.1-107 34-11.4 60-29.5 75.8-44.6zm84.6 44.2c-.4.1-.8.3-1.2.4 2.2 2 4.4 4.1 6.7 6.1-1.9-2.2-3.7-4.4-5.5-6.5zm-196.7 11c33.6 34.7 64.5 122.5 72.5 158.5-13-10.6-30.7-17.5-34.7-24.1-4.2-6.9-15.9-73.8-37.8-134.4zm158.2 0c33.6 34.7 64.5 122.5 72.5 158.5-13-10.6-30.7-17.5-34.7-24.1-4.2-6.9-15.9-73.8-37.8-134.4zM126.9 386c8.5 5 16.1 11.9 25.4 15.6-5.6 13.8-9 29.1-20.4 39.9-6.1 9.8-19.6.5-29.4 1.3 7.5-18.5 18.6-26.7 24.4-56.8zm158.2 0c8.5 5 16.1 11.9 25.4 15.6-5.6 13.8-9 29.1-20.4 39.9-6.1 9.8-19.6.5-29.4 1.3 7.5-18.5 18.6-26.7 24.4-56.8z"/></svg>