<svg xmlns="http://www.w3.org/2000/svg" viewBox="-10 0 1290 1019"><path d="M8 1019l-18-14 19-26q10-13 18-23.5T65 945h134V709q0-28-3-67.5t-10.5-82Q178 517 166 481l-74-89q-33-39-53-79.5T19 210q0-48 8.5-101.5T56 0h240q5 11 9 23t8 25q6-24 15-48h240q16 40 27.5 86.5T609 180q32 10 69 32.5t59 42.5q29 11 47.5 27.5T817 318l463 650-50 43-133-135 55 119-202-17-99-192-52-31 19 102-18 8-80-43v123h96q31 0 39 10.5t17 23.5l20 26-20 14-12-18H498l-13 18-18-14 3-4H293l-13 18-18-14 3-4h-39l-13 18-18-14 3-4H21zm382-74h39V806l9-13 33 18V709q0-22-2-52.5t-7-62.5L323 489q-17-13-41.5-32.5T238 409q-19-28-19-68 0-36 22-57t53-32q-3-19-3-42 0-29 2.5-60t9.5-63q-4-18-9.5-35.5T282 20H70Q53 71 45.5 120T38 216q0 40 12 70.5T77.5 340Q93 363 106 378l230 279q31 37 42.5 73.5T390 816zm121 39h337l-16-22H724l-23-17V806l9-13 84 45-19-103 12-10 81 48 97 186 153 13-61-135-462-348q-17-13-41.5-32.5T510 409q-19-28-19-68 0-38 24-60t59.5-31q35.5-9 69.5-9 25 0 47 3-25-16-53.5-31T589 191q0-42-10.5-89T554 20H342q-17 51-24.5 100t-7.5 96q0 40 12 70.5t27.5 53.5q15.5 23 28.5 38l230 279q31 37 42.5 73.5T662 816v129l-21 17H526zm6-847q-15 0-25-10t-10-25q0-14 10-24.5T517 67q14 0 24 10.5t10 24.5q0 15-10 25t-24 10zm-409 0q-15 0-25-10t-10-25q0-14 10-24.5T108 67q14 0 24.5 10.5T143 102q0 15-10.5 25T108 137zm272 0q-15 0-25-10t-10-25q0-14 10-24.5T380 67q14 0 24.5 10.5T415 102q0 15-10.5 25T380 137zm-135 0q-15 0-25-10t-10-25q0-14 10-24.5T245 67q14 0 24 10.5t10 24.5q0 15-10 25t-24 10zm272-16q7 0 12.5-6t5.5-13q0-7-5.5-12.5T517 84q-19 0-19 18 0 7 5.5 13t13.5 6zm-409 0q7 0 13-6t6-13q0-7-6-12.5T108 84q-7 0-13 5.5T89 102q0 7 6 13t13 6zm137 0q7 0 12.5-6t5.5-13q0-7-5.5-12.5T245 84q-19 0-19 18 0 7 5.5 13t13.5 6zm135 0q7 0 13-6t6-13q0-7-6-12.5T380 84q-7 0-13 5.5t-6 12.5q0 7 6 13t13 6zm61 106l-33-89 18-7 23 62 19-62 17 5-28 91zm-272 0l-33-89 18-7 23 62 19-62 17 5-28 91zm1063 759l24-22-454-634q-23-31-59-51t-94-20q-32 0-64 7t-53.5 25.5Q510 310 510 344q0 41 29.5 70.5T613 478l460 344zM458 565q-7-43-20-84l-74-89q-24-28-41.5-56.5T297 271q-26 8-42.5 26T238 344q0 41 29.5 70.5T341 478zM306 984h177l3-5q8-11 15-21t29-12V769l17-13 95 78v-19q0-51-12-84.5T594 669L467 517q13 42 18.5 88.5T491 702v243l-21 17H321zm-272 0h177l3-5q8-11 15-21t29-12V769l17-13 95 78v-19q0-51-12-84.5T322 669L195 517q13 42 18.5 88.5T219 702v243l-21 17H49zm515-39h93v-84l-93-76zm-272 0h93v-84l-93-76zm171 0h23V834l-23-12zm-210 39h39l4-5 12-17h-39z" fill="currentColor"/></svg>