<svg xmlns="http://www.w3.org/2000/svg" viewBox="0 0 657.2 585.9"><path d="M271.6 0c-11.7 5.2-33.5 10.4-51.1 8.8-16.3 2.9-35.2-11.7-49.5-2.3-17.9 26.1-34.2 55-36.1 87.3-3.6 61.9-2 83.4 46.9 134.2 6 13.7 13.7 37.1 21.7 63.9l-10.5.2c-14.6-6.3-26.9-11.3-37-15l-59.5-136L36.3 277c-3.8-2.1-8.8-5.6-15-10.7L0 292.7c21.3 15.9 47.4 28.2 78.3 37s71.8 7.7 122.8-3.1l12.4.1c14.3 50.8 28.1 104.4 34 126 11.7 11.1-14.7 71.6-25.7 86.6-12 16.6-63.5 1.6-85 15-9.1 5.9-12.4 27.7-7.2 30.6 4.9-7.5 14.7-17.6 21.5-18.6-6.5 6.8 16.3 3.6 21.2 5.2 19.5.3 39.4 2.6 59.3.3 5.2-2.3 11.1-6.8 6.5 1.6 30 7.8 72 2.9 78.8-14.7 9.8-17.9 18.9-36.8 25.4-56.3 10.7 2.3 25.1 11.4 33.9 5.9 9.1-6.2 18.6-35.2 23.8-54.4 1-3.9 10.4-3.9 12-.3 9.8 19.5 26.1 79.5 41.7 104.5 19.2 30.3 83 35.5 126.7 16.9 21.2-9.1 36.8-7.2 32.2-18.9-7.2-19.5-19.5-38.1-32.6-54.7 18.9 11.7 37.8 23.8 56.7 35.5 4.6 16.6 29.3 3.9 17.3-8.8-38.2-55-88-130.2-138.4-198.1l135.5 1.5V178.7c0-20.5-10.9-30.7-32.6-30.7-21.7 0-33.2 5.8-34.5 17.5-8.8 79.3-18.2 119-28.2 119l-73.9 1.5c-35.9-45.3-70.9-83.9-101-105.7-13-11.4-28.3-20.2-45.3-24.4-5.5-14.3-3.9-33.5-7.2-49.8-3.1-32.2-22.6-85.6-56.8-106.1zm-2.9 21.2c19.2 22.5 36.1 48.5 39.4 78.5 3.3 21.5 4.2 43 7.5 64.1-15.3-1.3-10.7-25.1-7.8-36.5 2.6-22.5-9.4-43.3-17.9-63.2-5.9-10.7-11.4-27.7-26.4-28-16.6 2.9-27.4 16.9-38.1 29C214.3 54 202.6 42 187.3 37.4c-6.2-2.3-18.6 6.2-10.1-4.2 5.5-19.5 27-2.3 41.4-5.2 16.9 1 34.1-1 50.1-6.8zm-5.2 24.7c12.7 3.3 15.6 20.8 21.8 31.3 7.8 18.2 17.3 38.1 11.1 58.6-4.9 9.8 1.3 22.1.7 29.3-12 8.5-22.5 27.4-39.7 23.1-14.3-2.9-21.5-16.6-32.6-23.1-9.1 8.8-14 28.3-31.9 22.8-12-2.6-28-1.3-31.6-16-6.2-15-6.8-31.6-7.8-47.9 8.5 1.6 9.1-6.8 9.8-14 4.2-16 20.5-17.6 32.2-8.1 5.5 6.2 22.5 11.1 18.9 20.8-1.6 5.9-3.6 12-5.5 18.2l13.7 18.2c1.3-9.4 15.3-17.3 7.2-26.7-1.3-4.2-6.2-9.8-5.5-13C230.2 109 238 99.9 247.1 92c11.1-10.7 22.8 7.8 32.6 9.1 7.5-8.1-.7-11.4-8.1-15.6-11.4-10.7-28.7-7.2-37.1 5.2-8.1 4.9-13 24.7-21.5 11.7-11.7-8.9-25.7-19.4-41-16.1-9.4 2-17.9 21.5-18.2 20.5-.3-15.3 6.8-29 11.1-44 3.9-16.3 24.4-21.2 34.8-7.8 11.4 4.2 19.2 27 30.9 18.9 10.1-10.7 18.2-23.4 32.9-28zM247.2 100c-8.8 4.2-19.5 16-3.3 17.9 7.8-.3 25.7-8.5 22.5-16-6.2 5.9-12.7-1.9-19.2-1.9zm-64.2 2.9c-10.7 2.6-16.3 14.3-2.6 16.9 7.2.7 30.6-9.4 12.4-11.7-2.9-1.9-5.9-5.2-9.8-5.2zm434.6 62c9 0 13.5 4.6 13.5 13.8v105.9h-40.7L603.5 173c.4-5.4 5.1-8.1 14.1-8.1zm-312.1 5.4c4.6 9.4 12 4.2 17.6 1.6 7.8 5.5 34.8 4.9 18.9 16.6-10.1 13.7-64 51-101.5 57.5-16.2 2.8 11 28.4 19.8 37.5 2.5 2.3 5.1 4.6 7.6 6.9l-12.6.3c-16.4-25.5-36.1-51.4-59.2-76.2-3.9-4.2-22.5-23.8-16.3-19.2 15 3.9 35.5 4.2 44-11.4 3.9-11.7 12.4 9.4 21.5 9.4 13.7 9.1 31.6 5.2 42-6.5 6.1-5.4 12-11 18.2-16.5zm58.9 24.1c26.5 15.2 59.5 50.6 92.9 92.2L296 289.9c-11.5-10.4-22.9-20.8-34.1-31 49.4-16.6 84.9-44.6 102.5-64.5zm-267.9 1.8l37.6 77.7h-23.8l-13.8-35.1-13.8 35.1h-6.3c0 13.4 6.9 20 20.7 20h35.7c10.4 1.3 10.9 3.1 1.3 5.6-11.3 2.9-22.9 3.6-34.8 1.9-11.9-1.7-27-6.3-45.4-13.8l42.6-91.4zm120.7 75.7c5.3 5.5 10.5 12 15.7 19.3l-8.9.2c-2.2-6.5-4.4-13-6.8-19.5zm17.6 55l19.4.2c25.4 48.8 45.5 109.4 52.2 139.8-16-13-37.8-21.5-42.7-29.6-3.9-6.4-13-54.9-28.9-110.4zm42.1.5l32.3.4c34.9 30.8 71.2 60.2 112.5 82.6 38.1 21.5 78.2 40.7 114.9 64.5 17.6 25.4 38.4 48.8 51.8 76.8-13.4 3.9-26.4 9.4-40.1 12.7-27 6.8-62.5 0-75.5-14-17.6-18.6-36.8-97.7-46.9-126.7-4.9-11.1-16.6 2.9-18.9-.7-1.3-16-24.4-16.9-22.8.7-2 20.5-5.9 41-15.6 59.6-4.6 12-28-4.2-42.3-7.8 2.8-16.6-11-77.7-49.4-148.1zm62.7.7l150.9 1.7c53.1 71.4 101.2 146.7 117.1 166.2-48.8-30.9-97-62.2-149.5-87.6-42.5-21-81.5-49.5-118.5-80.3zm-56.3 147c10.4 6.2 19.9 14.7 31.3 19.2-6.8 16.9-11.1 35.8-25.1 49.2-7.5 12-24.1.7-36.1 1.6 9.1-22.8 22.8-32.9 29.9-70z"/></svg>