<svg xmlns="http://www.w3.org/2000/svg" viewBox="-10 0 1210 1019"><path d="M200 1019l-19-14 20-26q9-13 17-23.5t38-10.5h135V709q-1-13-1.5-28.5T387 648h-41l-91 18H138l-82-36-66-63 27-40 25 17 118-350 100 323 11-1 69 28 33-1q-3-16-7-32t-8-30l-75-89q-32-39-52.5-79.5T210 210q0-48 9-101.5T248 0h240q16 40 27 86.5t13 93.5q33 10 69.5 32.5T656 255q29 11 48 27.5t32 35.5l147 207 96 1 10-8 22-298h140l18 395-25 33H972l228 320-51 43-132-135 54 119-201-17-99-192-52-31 19 102-19 8-79-43v123h96q30 0 38 10.5t18 23.5l19 26-20 14-11-18H418l-13 18-19-14 3-4H212zm230-480l141-7-57-43q-17-13-41.5-32.5T429 409q-19-28-19-68 0-38 24.5-60t59.5-31q35-9 69-9 26 0 47 3-24-16-52.5-31T509 191q0-42-11-89t-24-82H262q-18 51-25 100t-7 96q0 40 11.5 70.5T269 340q16 23 28 38zm6-402q-14 0-24.5-10T401 102q0-14 10.5-24.5T436 67q14 0 24.5 10.5T471 102q0 15-10.5 25T436 137zm-137 0q-14 0-24-10t-10-25q0-14 10-24.5T299 67q14 0 24.5 10.5T334 102q0 15-10.5 25T299 137zm137-16q7 0 13-6t6-13q0-7-6-12.5T436 84q-7 0-12.5 5.5T418 102q0 7 5.5 13t12.5 6zm-137 0q8 0 13.5-6t5.5-13q0-7-5.5-12.5T299 84q-8 0-13 5.5t-5 12.5q0 7 5 13t13 6zm61 106l-32-89 17-7 23 62 20-62 16 5-28 91zM140 647h114l90-18h788l17-24-16-366h-102l-22 293-16 14-267-3-393 20-67-27 8 27 15 46-126 10q-20-4-46-12.5T81 591l-61-42-11 15 54 48zm73-48l51-4-105-337L59 556l31 22q3 1 7 3t9 4l54-150zm389-69l125-7 133 2-139-195q-22-31-58-51t-95-20q-32 0-64 7t-53 25.5Q430 310 430 344q0 41 29 70.5t74 63.5zm-438 73l29-3-34-105-34 96q10 4 21 7t18 5zm229-62h13l-19-24q2 6 3 12t3 12zm37 443h337l-15-22H644l-24-17V806l9-13 84 45-19-103 12-10 81 48 97 186 154 13-62-135-250-189H521l6 9q31 37 42.5 73.5T581 816v129l-21 17H446zm721 2l24-22-226-316H760l233 174zm-926-2h177l4-5q8-11 14.5-21t28.5-12V769l18-13 95 78v-19q0-51-12.5-84.5T514 669l-18-21h-87q1 13 1 27v270l-21 17H241zm244-39h93v-84l-93-76z" fill="currentColor"/></svg>