<svg xmlns="http://www.w3.org/2000/svg" viewBox="0 0 583.5 435.3"><path d="M124.7 0c-15.3.1-31 2.9-45.9 4.3-18.2 9-36.5 2.1-55.6 9.1C9.5 19.7 5.7 32.3 0 45c34-11.4 55.1 5.6 85.9 13.5 0 11.9-1.9 25.4-2.8 39-3.6 36.9 15.6 69.3 43.4 92.4 19.9 44.8 47.4 79.2 67.5 114.2-2.4 15.7-16.8 75-24 96.3-19.6 3.3-41 4.6-61 3-11.7-1.7-24.6 19-37.2 29.9l247.6 2c-.1-.3-.2-.5-.2-.8l103.8.8c-.7-2.4-1.8-4.7-3.3-6.9 16.5-.8 36.5-7.3 44.8-22.4 16.1 12 35.1 20.1 58.7 22.4 19-.9 42.7-9.3 47.8-29.8 25.2-1.4 6.7-26.3-2.6-36-68.5-75.1-125.1-160.8-192.8-236.5-26.1-26-55.5-43.7-92-58.3-2.7-6.8-3.6-16.4-5.4-26.9-1.9-11.5-8-30.4-19.1-36.3-24.1-9-51.4-2.8-76.5-.4-7 3.5-14.1 4.6-21.3 5-1.6-1.9-3.6-3.4-5.8-4.6-10-3.5-20.3-4.7-30.8-4.6zm2.1 13.4C113 19.6 109.2 32.3 103.5 45c22-7.4 38.7-2.9 56.1 3.4 1.5 11.3.7 29.6 11.4 33.2 5.7 2.2 11.1 4.5 16.4 6.9-.2 2.4-.4 4.7-.6 7.1-15.9 4.4-50.9 22.2-50.9 54.5 0 10.4 2.8 20.1 7.6 29.2h-.2c-52.3-28-44-84.8-42-134.8C79.6 43.3 61.7 31.3 41 26.3c16-2.1 32-4.8 48-6.5-3 .6-5.8 2.4-7.6 4.9-.5 10.5 23.2 9.4 22.2 1.6-2.6-4.2-7.5-6.8-12.4-6.7l35.6-6.2zm95.6 2.3c2.7 12.8-2.3 27.5-11.9 31.9l3.1 6.6c12-5.8 23.5-23 25.2-38.5 16.3 1 20.8 13.4 23.4 27.9 3.1 9.9 0 33.9 12.3 38C311 95.9 339 112.5 364 137.5c43.3 54.8 88.5 107.8 131.7 162.6 16.8 21.3 32.2 40.9 44.7 55.6C474.7 306 401.3 268 329.3 228.5c-38.3-21-74.8-38.3-74.8-84.6 0-24.9 45.4-45.8 43.5-49-2-3.4-58.5 14.1-58.5 55.2 0 10.4 2.8 20.1 7.6 29.2h-.2c-52.3-28-44-84.8-42-134.8-21.7-1.2-39.6-13.2-60.3-18.2 16-2.1 32-4.8 48-6.5-3 .6-5.8 2.4-7.6 4.9-.5 10.5 23.2 9.4 22.2 1.6-2.6-4.2-7.5-6.8-12.4-6.7 8-1.2 18.6-2.9 27.6-3.9zm-45.8 38.9c4.1 1.4 8.4 2.8 12.9 3.9 0 4.2-.2 8.6-.6 13.1-3-1.3-6-2.5-9-3.8-1.6-3.6-2.5-8.2-3.3-13.2zm9.8 47.2c-1.8 35.1 17 65.9 43.7 88 9.5 21.5 20.9 40.6 32.3 58.6-12.2-6.6-24.4-13.3-36.5-19.9-38.3-21-74.8-38.3-74.8-84.6-.1-17.7 22.7-33.3 35.3-42.1zm-36.1 100.3c32.5 36.9 59.4 79.1 83.4 121.9 5 6.3-.6 12-4.8 18-15.8-50.7-52.2-89.9-78.6-139.9zm103.5 0c32.5 36.9 59.4 79.1 83.4 121.9 5 6.3-.6 12-4.8 18-15.8-50.7-52.1-89.9-78.6-139.9zm-63.6 24.4c30.1 16.3 60.2 32.6 89.9 49.4l7.7 13.4 3 27c.1 2.1 1.1 7.6 1.5 13.2-1.1 4.7-2.2 9.6-3.5 14.7l-32.6-37.1c-3.2 2.2-6.3 4.6-9.6 6.6-14.9-30.6-36.8-59.2-56.4-87.2zm103.5 0c74.6 40.2 148.4 80.8 218.9 128 16.6 13.6 31.4 28.8 41.4 43-6.6 10.5-19.3 14-31 14.8-59.7-2.1-83.1-60.4-114.6-102l-17.2-21.1 3 27c.2 5.3 6 31.9-4.4 27.4L359.6 307c-3.2 2.2-6.3 4.6-9.6 6.6-14.8-30.5-36.7-59.1-56.3-87.1zm-83.5 110.9c4.7 11.5 7.1 23.7 9.8 35.8 7.6-6.2 15-12.7 21.3-20.3-4.1 22.4-11.7 45-30.1 45-11.2 0-16.3-7.6-9.2-30.8 3.3-10.8 6-21.3 8.2-29.7zm103.5 0c4.7 11.5 7.1 23.7 9.8 35.8 7.6-6.2 15-12.7 21.3-20.3-4.1 22.4-11.7 45-30.1 45-11.2 0-16.3-7.6-9.2-30.8 3.4-10.8 6-21.3 8.2-29.7zm-48.3 10.2l19.3 13.3c-4 15.8-8.2 30.9-11.1 39.6-7.8 2.3-14.7.2-22.6.4 5.5-16 12.4-31 14.4-53.3zm103.5 0c6.9 6.3 14.7 13 24.3 13.7 6.8-.5 11.3-3.5 14.2-7.9.6.4 1.1.7 1.7 1.1 16.6 13.6 31.4 28.8 41.4 43-6.6 10.5-19.3 14-31 14.8-25.1-.9-43.8-11.7-59.4-27.1 3.9-10.9 7.5-22.6 8.8-37.6z"/></svg>