<svg xmlns="http://www.w3.org/2000/svg" viewBox="-10 0 1147 996"><path d="M827 996q-5 0-22-1t-38-3q-28-2-58-3.5t-44-1.5q-10 0-33 1t-51.5 2q-28.5 1-53.5 2-20 2-36.5 2.5t-19.5.5q-5 0-11.5-5.5T448 980q-5 3-11 6t-10 4q-3-1-9.5-1.5T404 987h-14l-19 1q-7 1-13 1.5t-11 2.5q-6 1-11 2t-9 1q-11 0-19-5-11 1-20.5 1.5t-19.5.5q-20 2-36.5 2.5t-19.5.5q-5 0-12-5.5t-11-9.5q-5 3-10.5 6t-10.5 4q-5-2-15.5-3t-22.5-1q-10 0-21 2t-21 4q-6 1-11 2t-10 1q-25 0-28-21-7 6-11 15l-19-7q8-18 26.5-28.5T77 941l117-9q19-37 33-106.5T241 679q1 0-.5-18.5t-4-47Q234 585 231 555t-6.5-52q-3.5-22-5.5-28-3-8-13.5-34T183 381.5Q171 348 162 316t-9-51q0-24 6-46t11-39q4-11 7-20.5t3-16.5q0-13-7-25.5T151 105l-122-5q-8 0-11.5 3.5T14 111h-24V88q0-13 10-26.5T31 44L233 0h80q43 0 62 25L492 0h80q31 0 49 12t25 41l17 75 71 72q5 7 13 18t19 27q25 34 59 82t68 98.5q34 50.5 57 91.5l187 445-8 27h-34l-51-50 8 24q-7 10-23 20.5T995 994q-40 0-70.5-25T874 889l-56-150-22 61 64 148q22 9 33 33l-19 7q-4-9-12-16-2 8-10.5 16t-24.5 8zm0-20q8 0 12-3.5t4-6.5q0-4-5-5t-9-1H685l-18-22 20-144 79 34 43-119-137-134q-27-28-55.5-64T563 437q-25-38-40.5-73T507 302q0-20 8.5-30t19.5-13.5q11-3.5 18-3.5 5 0 12 1t15 2q10 2 20 3t16 1q8 0 16.5-.5T649 260q8-1 14.5-1.5t13.5-.5q10 0 24.5 1t24.5 2l-2 20q-10-1-24-2.5t-23-1.5q-5 0-11.5.5T651 279q-8 1-16.5 2t-18.5 1q-7 0-18-1t-21-3q-8-2-15-2.5t-9-.5q-6 0-16 5t-10 22q0 25 15 58t39 69q24 36 52 70.5t54 61.5l416 410 12-1q2-6 2-7L933 527q-24-42-57.5-92.5t-67-97.5Q775 290 750 256q-11-15-20-26.5T717 211l-72-74-19-80q-8-38-54-38h-79q-4 1-21.5 4.5T431 32q3 8 11.5 19.5T462 75l-8 11q-5-3-13-6t-32-3l-71-1q-37 0-51 4.5T270 89v2q4-1 11.5-3t15.5-2h115q24-1 35.5 18t11.5 39q0 9-3 19.5t-8 23.5v-1q-5 17-10.5 37.5T432 265q0 18 8 48.5t19.5 63q11.5 32.5 21.5 58t15 32.5l133 237q13 19 26 49.5t12 56.5l-1 67q-1 50-16 67.5T597 963l-112 4q-4 0-10 .5t-11 1.5q5 6 7 6 3 0 18.5-.5T526 973q25-1 53.5-2.5t52-2.5q23.5-1 33.5-1 14 0 44 2t59 4q21 1 37.5 2t21.5 1zm-428-40h9l23-141 57 24q13-64 13-140v-4.5q0-5.5-1-14.5l-87-85q-27-28-55.5-64T304 437q-25-38-40.5-73T248 302q0-20 8.5-30t19.5-13.5q11-3.5 18-3.5 5 0 12 1t15 2q10 2 20 3t16 1q8 0 16.5-.5T390 260l22-2q1-20 5.5-38.5T428 185q-25-10-36-31.5T379 104l-91-4q-7 0-11 3.5t-4 7.5h-24V88q0-13 10-26.5T290 44l62-14q-14-11-39-11h-80q-4 1-21.5 4.5T171 32q3 8 12 19.5T203 75l-8 11q-4-3-12.5-6T149 77l-70-1q-37 0-51 4.5T10 89v2q5-1 12.5-3T38 86h114q25-1 36 18t11 39q0 9-3 19.5t-7 23.5v-1q-6 17-11.5 37.5T172 265q0 18 8 48.5t19.5 63q11.5 32.5 22 58T236 467l134 237q13 19 26 49.5t12 56.5l-2 67q0 35-7 59zm95-859q-9 0-15.5-7T472 54q0-9 6.5-15.5T494 32q9 0 16 6.5t7 15.5q0 9-7 16t-16 7zm-259 0q-9 0-16-7t-7-16q0-9 7-15.5t16-6.5q9 0 15.5 6.5T257 54q0 9-6.5 16T235 77zm35 0q11-6 26.5-10t41.5-4l91-1q-6-7-9-12.5T415 36L300 59q-24 6-30 14zM10 77q11-6 27-10t42-4l91-1q-11-12-15-26L41 59q-12 3-20 7t-11 7zm484-14q9 0 9-9t-9-9q-9 0-9 9t9 9zm-259 0q9 0 9-9t-9-9q-9 0-9 9t9 9zm199 103q5-15 5-23 0-13-7-25.5T411 105l-13-1q1 22 10 38t26 24zm63 464q-2-28-6-62t-7-60.5q-3-26.5-6-32.5-3-8-12.5-31T445 390.5q-11-30.5-20-61T413 277l-21 2q-8 1-16.5 2t-18.5 1q-8 0-18.5-1t-20.5-3q-7-2-14.5-2.5t-9.5-.5q-6 0-16 5t-10 22q0 25 15 58t39 69q24 36 52 70.5t54 61.5h-1zM209 949l19-2 50-187 71 40 15-71-117-204q4 31 7 67.5t5 65q2 28.5 2 37.5 0 49-7.5 97.5t-19 89Q223 922 209 949zm259 0l19-2 50-187 71 40 16-71-118-204q3 31 6.5 67.5t5.5 65q2 28.5 2 37.5 0 49-7 97.5t-19 89Q482 922 468 949zm527 25q9 0 19-5t16-10q-3-7-8.5-24t-7.5-25L840 740l52 142q17 47 43.5 69.5T995 974zm-747-28l86-5v1l.5-.5 1.5-.5 41-3q4-8 6.5-26.5T387 877l1-67q1-11-2.5-26.5T379 758q-4 19-8.5 37.5T363 830l-73-41q-11 41-21 78t-21 79zm383-14q14-15 15-55l2-67q0-11-3.5-26.5T638 758q-5 19-8.5 37.5T623 830l-19-10zm-124 14l89-2q9 0 18-3l-33-134-32-18q-11 41-20.5 78T507 946zm309-5h21l-50-116-10 27-75-30-2 11zm-387-8l25-1q18-36 30-93l-36-16zm266 8h92l-90-84-11 76zm-378 29l51-2q5-1 10.5-1H389q11 0 22 1t17 2l2-2q0-13 7-14l-102 7h-5q-5 1-9 2.5t-4 3.5zm-250 5q6 0 18-3 9-2 21-3.5t24-1.5q11 0 21.5 1t17.5 2l2-2q-1-12 7-14l-107 7q-4 1-8.5 2.5T58 967q0 8 9 8zm145 0q3 0 18-.5t37-1.5q2 0 4-.5t3-.5q1-2 3-4l4-4-55 3q-5 0-10.5.5T205 969q4 6 7 6z" fill="currentColor"/></svg>