<svg xmlns="http://www.w3.org/2000/svg" viewBox="0 0 650.3 560.9"><path d="M281.1 0c-11.2 5-32.1 10-48.9 8.4-15.6 2.8-33.7-11.2-47.4-2.2-17.1 24.9-32.7 52.7-34.6 83.6-3.4 59.2-1.9 79.8 44.9 128.4 4.7 10.7 10.5 27.6 16.6 47.5l-23.3-1c-19.8-20.9-37.5-31.4-52.9-31.4-5.5-.4-11.2-.7-17.1-1.1-31.2 5.9-49.9 8.8-56.2 8.8-4.4 0-6.6 2.9-6.6 8.8 0 8.1 6.2 12.1 18.7 12.1 25.3-4 43.7-5.7 55.1-5 6.2 0 11.4 2.6 15.4 7.7-7.7 9.5-25.7 14-54 13.2-28.3-.7-53.2-4.4-74.9-11-10.6 0-16 6.2-16 18.7 1.1 11.4 40.9 17.3 119.5 17.6l52.3-5.5 49.3-.2c15.2 52.8 30.6 113 36.9 135.8 11.2 10.6-14 68.6-24.6 82.9-11.5 15.9-60.8 1.6-81.4 14.3-8.7 5.6-11.8 26.5-6.9 29.3 4.7-7.2 14-16.8 20.6-17.8-6.2 6.5 15.6 3.4 20.3 5 18.7.3 37.7 2.5 56.7.3 5-2.2 10.6-6.5 6.2 1.6 28.7 7.5 68.9 2.8 75.4-14 9.4-17.1 18.1-35.2 24.3-53.9 10.3 2.2 24 10.9 32.4 5.6 8.7-5.9 17.8-33.7 22.8-52.1.9-3.7 10-3.7 11.5-.3 9.4 18.7 24.9 76.1 39.9 100.1 18.4 29 79.5 34 121.3 16.2 20.3-8.7 35.2-6.9 30.9-18.1-6.9-18.7-18.7-36.5-31.2-52.4 18.1 11.2 36.2 22.8 54.2 34 4.4 15.9 28.1 3.7 16.5-8.4-40.2-58.1-94-139.6-147.2-209.4l40.9-.2 83.7 1.1V162.8c-.4-18-10.1-27-29.2-27-18.7 0-28.6 5.3-29.7 16-7.7 69.4-16 104.3-24.8 104.6l-70.7 2c-30-36.7-59-67.4-84.3-85.8-12.5-10.9-27.1-19.3-43.3-23.4-5.3-13.7-3.7-32.1-6.9-47.7-2.7-30.7-21.4-81.9-54.2-101.5zm-2.8 20.3c18.4 21.5 34.6 46.5 37.7 75.1 3.1 20.6 4.1 41.2 7.2 61.4-14.7-1.2-10.3-24-7.5-34.9 2.5-21.5-9-41.5-17.1-60.5-5.6-10.3-10.9-26.5-25.3-26.8-15.9 2.8-26.2 16.2-36.5 27.7-10.6-10.6-21.8-22.1-36.5-26.5-5.9-2.2-17.8 5.9-9.7-4.1 5.3-18.7 25.9-2.2 39.6-5 16.3 1 32.8-.8 48.1-6.4zm-5 23.7c12.2 3.1 15 20 20.9 29.9 7.5 17.5 16.5 36.5 10.6 56.1-4.7 9.4 1.2 21.2.6 28.1-11.5 8.1-21.5 26.2-38 22.1-13.7-2.8-20.6-15.9-31.2-22.1-8.7 8.4-13.4 27.1-30.6 21.8-11.5-2.5-26.8-1.2-30.2-15.3-5.9-14.3-6.5-30.2-7.5-45.8 8.1 1.6 8.7-6.5 9.4-13.4 4.1-15.3 19.6-16.8 30.9-7.8 5.3 5.9 21.5 10.6 18.1 20-1.6 5.6-3.4 11.5-5.3 17.5l13.1 17.5c1.2-9 14.7-16.5 6.9-25.6-1.2-4.1-5.9-9.4-5.3-12.5 5.6-10 13.1-18.7 21.8-26.2 10.6-10.3 21.8 7.5 31.2 8.7 7.2-7.8-.6-10.9-7.8-15-10.9-10.3-27.4-6.9-35.5 5-7.8 4.7-12.5 23.7-20.6 11.2-10.9-8.7-24.3-18.7-39-15.6-9 1.9-17.1 20.6-17.5 19.6-.3-14.7 6.5-27.7 10.6-42.1 3.7-15.6 23.4-20.3 33.4-7.5 10.9 4.1 18.4 25.9 29.6 18.1 9.6-10.2 17.4-22.4 31.4-26.7zm-15.6 51.7c-8.4 4.1-18.7 15.3-3.1 17.1 7.5-.3 24.6-8.1 21.5-15.3-5.9 5.7-12.1-1.8-18.4-1.8zm-61.4 2.8c-10.3 2.5-15.6 13.7-2.5 16.2 6.9.6 29.3-9 11.8-11.2-2.7-1.9-5.5-5-9.3-5zm398.5 52.2c7.7 0 11.6 4 11.6 12.1v93.1h-35.2l11.6-98c.2-4.8 4.3-7.2 12-7.2zM313.5 163c4.4 9 11.5 4.1 16.8 1.6 7.5 5.3 33.4 4.7 18.1 15.9-9.7 13.1-61.3 48.8-97.2 55.1-12.3 2.2 1.5 18 12 28.8l-7 .2c-13.7-19.9-29.5-39.9-47.5-59.2-3.7-4.1-21.5-22.8-15.6-18.4 14.3 3.7 34 4.1 42.1-10.9 3.7-11.2 11.8 9 20.6 9 13.1 8.7 30.2 5 40.2-6.2 6-5.3 11.6-10.6 17.5-15.9zm56.5 23.1c22 12.7 48.9 40 76.5 73l-157.3 4.5c-5.8-5.3-11.6-10.6-17.4-15.8 47.4-15.9 81.3-42.7 98.2-61.7zm-140.9 74.2c1.5 1.6 3 3.2 4.5 5l-2.7.1-1.8-5.1zm247.1 36.1c56.4 73.6 110 158 126.7 178.4-46.8-29.6-92.9-59.5-143.1-83.9-48.5-23.8-92.2-57.9-133.4-93.9l149.8-.6zm-177.6.8c39.2 35.4 79.3 70.3 126.2 95.6 36.5 20.6 74.8 39 110 61.7 16.8 24.3 36.8 46.8 49.6 73.6-12.8 3.7-25.3 9-38.3 12.2-25.9 6.5-59.9 0-72.3-13.4-16.8-17.8-35.2-93.5-44.9-121.3-4.7-10.6-15.9 2.8-18.1-.6-1.2-15.3-23.4-16.2-21.8.6-1.9 19.6-5.6 39.3-15 57.1-4.4 11.5-26.8-4.1-40.5-7.5 2.9-17-12.8-83.8-56.4-157.9l21.5-.1zm-42.8.2c28.3 48.6 51.5 117.1 58.6 149.7-15.3-12.5-36.2-20.6-40.8-28.4-4.1-6.7-14.2-61.9-32.3-121.2l14.5-.1zm36.5 157.5c10 5.9 19 14 29.9 18.4-6.5 16.2-10.6 34.3-24 47.1-7.2 11.5-23.1.6-34.6 1.6 8.8-21.9 21.9-31.6 28.7-67.1z"/></svg>