<svg xmlns="http://www.w3.org/2000/svg" viewBox="-10 0 1070 1019"><path d="M60 1019l-19-14 20-26q9-13 17-23.5t38-10.5h135V709q-1-28-4.5-67T236 563q-71-12-126.5-29T22 495q-32-22-32-47 0-26 34.5-48.5T117 359q-22-31-34.5-65.5T70 210q0-48 9-101.5T108 0h240q16 40 27 86.5t13 93.5q33 10 69.5 32.5T516 255q29 11 48 27.5t32 35.5v1q75 6 142 17.5T857 365q52 17 81.5 38t29.5 45q0 34-57 61.5T765 555l295 413-51 43-132-135 54 119-201-17-100-192-51-31 19 102-19 8-79-43v123h96q30 0 38 10.5t17 23.5l20 26-20 14-11-18H277l-12 18-19-14 3-4H72zm78-665q29-8 62.5-14.5T271 328q4-33 28.5-52t58-27q33.5-8 65.5-8 26 0 47 3-24-16-52.5-31T369 191q0-42-11-89t-24-82H122q-18 51-25.5 100T89 216q0 47 15.5 80.5T138 354zm158-217q-15 0-25-10t-10-25q0-14 10-24.5T296 67q14 0 24.5 10.5T331 102q0 15-10.5 25T296 137zm-137 0q-14 0-24-10t-10-25q0-14 10-24.5T159 67q14 0 24.5 10.5T194 102q0 15-10.5 25T159 137zm137-16q7 0 13-6t6-13q0-7-6-12.5T296 84q-7 0-13 5.5t-6 12.5q0 7 6 13t13 6zm-137 0q8 0 13.5-6t5.5-13q0-7-5.5-12.5T159 84q-8 0-13 5.5t-5 12.5q0 7 5 13t13 6zm61 106l-32-89 17-7 23 62 20-62 16 5-28 91zm72 99q89-12 187-12 47 0 92 3-22-26-56.5-42T428 259q-29 0-58 5.5t-50.5 20Q298 299 292 326zm212 236q63-1 121-7t107-14L587 337q-52-3-108-3-51 0-98.5 3t-90.5 8q0 41 29 70.5t74 62.5zm248-25q90-17 143.5-41.5T949 448q0-21-43.5-43t-120-40Q709 347 611 339zm-282 25l-96-73q-17-12-40.5-31T291 412q-19-27-21-64-33 5-63 10.5T151 371q2 3 6 7l143 174q40 5 82.5 7.5T470 562zm-237-20q-3-16-7.5-31.5T217 481l-74-89-13-16q-56 17-88.5 35.5T9 448q0 25 61.5 51T233 542zm40 6l-26-31 4 14 3 14zm738 438l24-22-290-405q-50 8-104.5 14T529 581l324 241zm-926-2h177l4-5q7-11 14-21t29-12V769l18-13 94 78v-19q0-51-12-84.5T374 669l-83-99q-8-1-16.5-2t-16.5-2q12 65 12 136v243l-21 17H101zm205 0h337l-16-22H504l-24-17V806l9-13 84 45-19-103 12-10 81 48 97 186 154 13-62-135-340-256h-17q-41 0-81.5-2t-79.5-6l69 84q31 37 42.5 73.5T441 816v129l-21 17H306zm39-39h92v-84l-92-76z" fill="currentColor"/></svg>