<svg xmlns="http://www.w3.org/2000/svg" viewBox="0 0 460.1 594.6"><path d="M75.9 115.2c12.4 4.3 16.9 15 13.7 32.3-3.2 17.3-3.1 34.2.3 50.8 0 51.1 27.7 111.2 83.1 180.2 36.6 37.9 57.1 64.8 61.4 80.5.9-34.9 3.6-52.4 8.3-52.4 11.5 4.3 30.9 21.1 58.2 50.5 13.6 16.6 21.9 43 24.9 79.3 3.8 18.3 16 27.3 36.4 26.8 20.5-.4 27.3-6.6 20.5-18.5C374.2 517 364 498 352 487.8 257.8 409.4 195.4 356 164.7 327.7c-30.7-28.3-49.2-58.7-55.6-91.1.9-14.5 5.4-24.5 13.7-30 8.3-5.5 15.9-7.2 22.7-5.1 4.7 2.1 7.2 5.5 7.7 10.2.4 4.7-3.3 8.3-11.2 10.9-7.9 2.6-11.8 6.6-11.8 12.1 3.4 29.4 19 56.3 46.7 80.8 27.7 24.5 64.8 55.7 111.2 93.6 46.4 37.9 95.2 84.6 146.4 140l-9.6-26.8c-33.7-51.6-68.7-105.5-105.1-161.7-36.4-56.2-63.5-93.5-81.2-111.8-17.8-18.3-39.6-30.3-65.6-35.8-8.9-1.7-16.5-8.3-22.7-19.8-6.2-11.5-6.7-24.1-1.6-37.7 5.1-13.6 6.1-29 2.9-46-3.2-17-15.7-25.6-37.4-25.6s-36.4 5.5-44.1 16.6l5.8 14.7zM58 100.5c-20.9 4.3-35.2 13-42.8 26.2l45.4-13.4-2.6-12.8zm51.1-4.5c7.2-1.7 11.9 1.5 14.1 9.6 1.7 8.1-1.5 13-9.6 14.7-8.5.9-13.4-2.3-14.7-9.6-1.7-8.5 1.7-13.4 10.2-14.7zm49.2 290.2c6.8 20.5 10 40.1 9.6 58.8 9.8-8.9 14.7-16.7 14.7-23.3 0-6.6-8.1-18.5-24.3-35.5zm-32 176.4c11.1 3.8 29.8 5.5 56.2 5.1 10.2.4 17.3-4.3 21.1-14.1l19.8-53c1.3-26.8-6.8-45.4-24.3-55.6-6.8 0-19 19.6-36.4 58.8-24.2 31.1-36.4 50.7-36.4 58.8zM60.5 244.9c-20.9 30.3-24.7 48.6-11.5 55 14.1-.8 17.9-19.2 11.5-55zM47.1 125.4l20.5 3.8-4.5-9.6-16 5.8zM50.3 89C63.1 74.1 82 66.4 107.2 66c12.4-14.1 18.1-26.3 17.3-36.7-.9-10.4.2-18.5 3.2-24.3 3-5.8 6.4-6.5 10.2-2.2 3.8 4.3 6.1 12.9 6.7 25.9.6 13-5.9 25.7-19.5 38 17.5-10.2 27.5-20.3 30-30.4 2.6-10 6.1-17.4 10.5-22 4.5-4.7 7.9-4.5 10.2.6 2.3 5.1 1.8 14-1.6 26.5-3.4 12.6-13.4 22.5-30 29.7 11.9 7.2 20.5 19.7 25.6 37.4 5.1 17.7 5.2 33.8.3 48.3s-1.2 26.6 11.2 36.4c28.1 6.4 53.4 21.3 75.7 44.7 22.4 23.4 67.9 92.7 136.5 207.7 18.3 29.8 34.6 54.5 48.9 74.1 14.3 19.6 19.9 33.9 16.9 42.8-1.7 5.5-4.9 8.7-9.6 9.6-12.8 2.1-30.9-11.7-54.3-41.5l14.1 35.2c2.1 13.2-14.2 19.4-48.9 18.5-34.7-.9-52.7-12.8-54-35.8-1.3-54.5-18.7-91.8-52.4-111.8-1.3 23.4-4.3 44.5-8.9 63.3-6 15.3-13.2 34.9-21.7 58.8 3 8.9 9.9 11.8 20.8 8.6 10.9-3.2 16.3-.5 16.3 8 0 9.8-2.6 16.2-7.7 19.2.4-3.8-3.6-5.5-12.1-5.1l-174.5.6-21.7-6.4c-5.5 1.3-8.3 3.6-8.3 7-8.1-3.8-12.1-10.2-12.1-19.2-1.3-8.5 5.5-11.5 20.5-8.9l39.6 1.9c10.2-3.8 29.8-26 58.8-66.5 6-14.9 8.9-36.4 8.9-64.6 0-28.1-11.1-59.7-33.2-94.6S82.5 272 76.5 243c5.5 18.3 7.5 36 5.8 53-6.4 18.3-18.7 25.6-37.1 21.7-18.3-3.7-26.8-15.3-25.3-34.7 1.5-19.4 18-43.6 49.5-72.5-3.4-20.5-3.1-38.8 1-55s-10.5-22.6-43.8-19.2c-8.5 1.7-15.8 7.7-21.7 17.9L.4 130.6C-3 113.5 13.6 99.7 50.3 89z"/></svg>