<svg xmlns="http://www.w3.org/2000/svg" viewBox="-10 0 893 1026"><path d="M60 1026l-19-2q2-13 8-29.5T66 972q19-11 49-14.5t59-8q29-4.5 44-19.5l77-113q-4-13-10.5-40t-13-55.5Q265 693 262 675q-46-40-85-93t-62.5-108Q91 419 91 374v-7q-7 9-9.5 22.5T79 411q0 16-9.5 33.5T34 462q-17 0-28-12.5T-5 415q0-18 15-38.5T49.5 341Q74 326 103 323q8-22 20-42.5t20-32.5q-4-5-9-9.5T124 227q-29 0-56-3t-37-6q-8 7-10 15h-31q1-36 21-52t49-20q29-4 58-6 7-11 19-19.5t31-13.5q-4-11-9.5-28T149 61q-4-16-4-25 0-23 10-29.5T171 0q6 0 13 5t14.5 21Q206 42 211 76q0-14 2-30.5t8.5-28.5Q228 5 243 5q16 0 23.5 15.5T274 53q0 29-10.5 54.5T249 141q16 14 25 33t9 38q0 27-10.5 50t-22 38Q239 315 237 319q3 0 20 4.5t39.5 11.5q22.5 7 42.5 15.5t29 15.5q15 12 42 39.5t57.5 62.5q30.5 35 57.5 69t41 60q14 26 35 62.5t44.5 74.5q23.5 38 44.5 70t35 47q10 10 37.5 26.5t60 34Q855 929 883 942l-53 37-56-18 12 33-130 21q-16-21-39.5-50.5t-51-61Q538 872 511.5 843T463 793q-3 14-8.5 36T444 867l-65 93q13 1 28 4t23 8q11 6 17.5 22.5t8.5 29.5l-20 2q-1-3-2-7t-2-6H189q-1 2-2 6t-2 7l-19-2q0-3 2-11H64q-1 2-2 6t-2 7zm138-906q0-5 .5-11.5T199 97q0-14-3-25.5T190 47q-5-22-10-25.5t-9-3.5q-2 0-5 3.5T163 36q0 7 4 23.5t9.5 33Q182 109 185 119h4q6 0 9 1zm36 11q5-8 13.5-30.5T256 53q0-11-2.5-21T243 22q-8 0-11 9.5T228 46q-1 5-4 28t-3 49v2q7 1 13 6zm430 866l95-15-10-26q-27-9-61.5-30t-72-47q-37.5-26-72-53.5T482 775q-38-33-58-46-24-16-59-40t-72.5-54.5Q255 604 223 570t-52.5-69.5Q150 465 150 430q0-25 14.5-37t35.5-16q21-4 40-4h12l11 1h4v19h-27q-15 0-31.5 2.5T181 406q-11 8-11 24 0 32 20 65.5t51.5 66q31.5 32.5 67.5 61t69.5 51.5q33.5 23 56.5 38 15 11 60 49 27 23 62 51t72 54.5q37 26.5 71.5 46.5t61.5 27v1l62 20 21-15q-16-8-43-22.5T749 893q-26-16-38-29-14-16-36-48t-45.5-70.5Q606 707 584 670t-36-63q-14-26-40-60t-56-68q-30-34-55.5-61T357 381q-9-7-29.5-15t-43-15q-22.5-7-40.5-12t-24-5v-24q13-17 28-45t15-53q0-26-20-49.5T189 139q-32 0-45.5 17T130 185q0 14 12 29t26 31q-7 10-21 33t-25.5 49Q110 353 110 374q0 41 21.5 91t57 99.5q35.5 49.5 78 88.5t85.5 58q9 9 21 32t24 50.5q12 27.5 21 51.5l-89 132q-22 0-49 1t-49.5 4q-22.5 3-30.5 8-2 1-4 3h229l-5-3q-8-5-27.5-8t-34.5-5l-1-20 69-99q1-5 5.5-21.5t10-38Q447 777 452 758q23 20 52 50.5t59 65.5q30 35 56.5 67.5T664 997zM178 200q-11 0-18-7.5t-7-17.5q0-10 7-17t18-7q10 0 17 7t7 17q0 10-7 17.5t-17 7.5zm0-16q9 0 9-9t-9-9q-9 0-9 9t9 9zM6 217h7q6-12 25-22.5t67-10.5h5q0-3 2-11-49 1-72.5 11T6 217zm110-7l-2-6-2-5h-7q-36 0-56 6 27 5 67 5zM34 442q15 0 20-10.5t5-20.5q0-12 6-33t21-32q-30 8-50.5 29T15 415q0 27 19 27zm37 551h103q3-7 7-12.5t10-8.5q12-7 46-10l82-122 41-83q-12-22-20-30-13-6-27-12t-25-17q3 19 8.5 42.5t11 44.5q5.5 21 7.5 31l-89 133q-18 12-46 17t-56.5 9Q95 979 75 990q-2 1-4 3zm191-34q14-1 28-1.5t27-.5l81-114q-5-10-12-28.5T371 779l-35 71z" fill="currentColor"/></svg>