<svg xmlns="http://www.w3.org/2000/svg" viewBox="-10 0 1073 835"><path d="M272 835l-20-2 4.5-18 3.5-13q3-7 7-12.5t10-8.5q15-9 40.5-11t47.5-3l48-98-49-70q-25-16-48.5-31.5T276 538q-27-24-53.5-53T179 420.5Q162 385 162 342q0-20 4.5-31.5T175 291q2-4 4-7.5t2-8.5q0-11-18-18.5t-56-7.5q-32 0-47.5 4.5t-21.5 10q-6 5.5-8 8.5h-40q0-19 8.5-38t31-31.5Q52 190 94 190h80q0-5 1.5-13t6.5-16l-74-94q11-11 31.5-27T192 12q32-12 76-12t76 12q32 12 53 28t32 27L323 194v31q0 14 4 24t15 18l6 5q18 14 53 39t80 56.5q45 31.5 93.5 64.5t95 61.5q46.5 28.5 85 48T816 566v6q12 3 39.5 9t63.5 13.5q36 7.5 73.5 15.5t70.5 15l-60 162q-14-13-54-36.5t-95-49q-55-25.5-116-44T619 636h-35q-15 0-34-2.5t-32-4.5q7 10 12.5 18.5T536 664l-22 105q32 5 46 12 11 6 17.5 22.5T586 833l-20 2-4-13H391l-4 13-19-2q0-1 1-4.5t2-6.5h-96zm46-667l83-98q-6-6-23.5-18T332 30q-28-10-64-10t-64 10q-28 10-45.5 22T135 70l60 74q8-8 20.5-12.5T246 127q35 0 51 13t21 28zm80 634h157l-5-3q-8-5-26.5-8t-32.5-5l25-125q-1-8-13.5-22.5T479 613l11-15q9 6 34 12t60 6h35q55 2 112 17.5t109 38q52 22.5 92.5 45T994 754l43-115q-15-3-41.5-9T938 617q-31-7-60.5-13.5T827 592q-21-5-26-6-16 4-51.5 10.5T674 603q-35 0-86-6.5T480 576q-57-14-109-38-36-16-67.5-40t-51-52Q233 418 233 386q0-28 18-45.5t55-17.5q18 0 30.5 4t17.5 8l-12 16q-3-2-12-5t-24-3q-27 0-40 11.5T253 386q0 26 19 50.5t48 46q29 21.5 59 37.5 50 22 106 35.5T591 576q50 7 83 7 27 0 55-3.5t48-7.5q-36-13-87-42t-106-66q-55-37-106-73.5T389 326q-38-28-52-38l-7-5q-16-12-21.5-25.5T303 225v-27q0-8-3-20.5t-15-22q-12-9.5-39-9.5-21 0-32.5 8.5t-15.5 19q-4 10.5-4 17.5v13H94q-47 0-64 16T9 249q18-20 41.5-26.5T111 216q13 0 31.5.5t33.5.5v11q-15-1-33.5-1.5T111 226q-68 0-97 33h8q3-4 23-14.5t62-10.5q47 0 70.5 11.5T201 275q0 8-2.5 14t-6.5 12q-4 6-7 15t-3 26q0 40 16 72.5t40.5 59.5q24.5 27 50.5 50 19 16 56.5 40t80.5 48q43 24 78 43l-21 111-4 20h-26.5l-32 4q-32 4-22.5 12zM226 201q-14 0-14-13t14-13q13 0 13 13t-13 13zm56 601h94q5-15 17-21l.5-.5 1.5-.5 54-113-10-25-33-18 30 42-55 113-3 7h-31l-39 4q-39 4-26 12zm138-31q11-2 21-3t21-1l20-102-6-3-9-5 4 10z" fill="currentColor"/></svg>