<svg xmlns="http://www.w3.org/2000/svg" viewBox="0 0 595.3 458.7"><path d="M207.7 84.7c-20.1 27.5-19.3 52.8 2.5 75.8 50.1 39.8 102.2 75.5 156.2 106.9 54 31.4 130.3 54.7 228.9 69.9-19.3 30.4-27.3 63.9-24 100.4-96.5-48.9-164.6-73.9-204.3-75.2-39.6-1.2-67.1-4.5-82.3-9.9 10.7 4.1 12.1 11.9 4.3 23.4l-6.8 52.4c0 5.3 5.5 8 16.6 8 16.4 2.5 25.3 9.2 26.5 20.3-4.5-4.1-9.2-4.1-14.2 0-46-1.2-75.3-3-87.8-5.2-12.5-2.3-22.6-2.6-30.2-.9-7.6 1.6-17.2 3.1-28.7 4.3-9-3.7-15.2-2.5-18.5 3.7-1.2-13.1 4.1-18.7 16-16.6l39.4-7.4c15.2-17.3 26.3-38.4 33.3-63.5-18.5-23.4-49.4-49.2-92.7-77.3-43.3-28.1-56.6-75.9-39.7-143.3-6.9-10.2-41-14.5-102.2-12.9v-2.5c8.2-19.3 41.9-29.4 101.1-30.2l2.5-16.6C90 78.1 82.8 70.3 82 64.9c2.9-18.1 8.5-31.9 16.9-41.6 8.4-9.7 19.9-16.4 34.5-20.3 14.6-3.9 29-4 43.1-.3 14.2 3.7 24.9 11.4 32 23.1 7.2 11.7 10.4 22.9 9.6 33.6-.8 10.7-4.3 19.1-10.4 25.3zm-35.8-43.8l12.9-30.2-3.1-1.2-12.9 30.8-3.1-.6 7.4-33.9-4.3-.6-6.2 34.5-4.3-1.2v-34l-3.7-.6v34.5h-5.5l-1.2-33.3-2.5-.6 1.2 33.9h-4.3l-6.2-32-4.3 1.8 8 31.4-4.3 1.2-12.9-29.6-3.1 1.8 13.6 29-3.7 2.5-17.3-27.1-2.5 2.5L127.5 47l-3.7 4.3-22.2-24.6-2.5 3.7 22.2 23.4-3.1 4.9-24.5-22.1-1.8 3.1 25.3 22.2-2.5 6.2L90 46.4l-1.2 3.1 24.6 21-1.2 7.4-25.3-21v5.5c18.5 14.4 28.3 23 29.6 25.9-4.5 7.8-6.4 16.8-5.5 27.1-23.4-.8-48.1 1.2-73.9 6.2 41.5-2.5 64.3-2.6 68.4-.3 4.1 2.3 4.3 3.8.6 4.6-3.7.8-9.3.8-16.9 0-7.6-.8-25-.6-52.1.6 45.2 2.1 70.6 5.4 76.1 10.2 5.5 4.7 7.9 10.2 7.1 16.3-15.2 59.2-3 101.3 36.7 126.3 39.6 25.1 67.5 49.5 83.5 73.3l2.5-15.4 32.7 20.3c-7.4-10.3-10.5-17.9-9.2-22.8 1.2-4.9 8.2-5.3 21-1.2 12.7 4.1 40.9 7.4 84.4 9.9 67.8 13.1 128 36.2 180.6 69-2.9-18.9 1.6-37.8 13.6-56.7l-115.2-24.6c-15.6 3.3-54.8 2.9-117.7-1.2S221 310 186.1 282.5c-34.9-27.5-52.8-52.6-53.6-75.2 0-14.4 16.8-22.8 50.5-25.3 8.6 1.2 10.1 4.3 4.3 9.2-21.4 3.3-30.4 11.6-27.1 25 3.3 13.4 16 28.6 38.2 45.6 22.2 17 56.6 31.3 103.2 42.8 46.6 11.5 90.7 15.8 132.2 12.9-57.9-23.8-107.7-49.8-149.4-78-41.7-28.1-71.4-50.7-89-67.8-17.7-17-26.3-32.6-25.9-46.5.4-14 9.2-29 26.5-45l15.4-12.9-21 14.2-1.2-8.6 24.6-16.6-.6-4.9-25.3 17.3-1.2-6.2 24.6-17.9-1.8-4.3-24 17.9-1.8-5.5L206.5 33l-1.8-3.7-22.8 20.3-4.3-5.5 19.7-24-3.1-3.1-18.5 25.9-3.8-2zm-40.6 47.5c13.1 1.2 18.9 5.9 17.3 13.9-1.6 8-6.5 12.1-14.5 12.3-8 .2-12.6-3.2-13.9-10.2-1.3-7 2.4-12.4 11.1-16zm124.4 271.1l3.1 12.9c-10.7 15.6-20.3 35.7-29 60.4l11.7 3.7c14.4-2.1 21.6-5.3 21.6-9.9 6.6-28.3 8.6-48.3 6.2-59.8l-13.6-7.3z"/></svg>