<svg xmlns="http://www.w3.org/2000/svg" viewBox="0 0 595.3 482.5"><path d="M94.4 70.8c0 9.5-6.3 14.3-19 14.3-3.4 0-5.5-2-6.5-5.9-1-3.9.1-7.7 3.2-11.4s8.6-5.5 16.4-5.5c3.9 1.5 5.9 4.3 5.9 8.5zm117.5 245.6c6.2 23.6 9.7 38 10.5 43.2.8 5.2 3.1 4.8 6.7-1.3 3.7-6 7-12.7 10.1-20-4.4-4.2-13.5-11.5-27.3-21.9zm383.4-37.9c-.6 24.2-14 36.2-40.4 36.2 3.1-5.9 4.6-.4 4.6 16.4 0 22.7-17.1 34.1-51.4 34.1-20.2 0-52.7-7.1-97.5-21.3-44.8-14.2-81.4-18.6-109.7-13.3-2 8.1-3.1 16.6-3.4 25.3-4.8 10.7-9 22.7-12.6 36.2-3.7 13.5-4.1 36.2-1.3 68.2 13.2-5.6 24.2-2.4 32.9 9.7 3.1 9.5 3.3 13.1.6 10.5-2.7-2.5-5.3-2.7-8-.4-2.7 2.2-6.4 2-11.2-.6-4.8-2.7-9.1-2.9-13.1-.8-3.9 2.1-19.8 3.2-47.6 3.2-16-4.8-30.3-5.3-42.8-1.5-12.5 3.8-30.4 2.2-53.7-4.8-14.9 6.7-24 8.3-27.4 4.6-3.4-3.7-9.3-2.9-17.7 2.1 5.1-9.3 12.9-15.4 23.6-18.3 10.7-2.9 25.6-4.6 44.7-5.1 19.1-.4 30.8-2.9 35.2-7.6 4.4-4.6 7.7-15.3 9.9-32s1.1-36.1-3.4-58.1-10-40.4-16.4-55c-64-39-99-73.9-104.9-104.5-5.9-30.6-8.8-58.7-8.8-84.3 0-10.1-13.8-16.9-41.3-20.2-4.5 0-15.9 2-34.1 5.9V92.7C5.2 86.5 18.8 80.3 41 74.2c7-5.9 13.1-11.8 18.1-17.7 18.3-14 34-21.1 47.2-21.1 8.1 0 15.7 1.7 22.7 5.1 22.5.3 35-6.4 37.7-20 2.7-13.6 7.7-20.4 15-20.4 9.8 0 14.7 3.4 14.7 10.1 0 32.3-9.4 54.9-28.2 67.8 5.1 36.2 17.8 62.5 38.3 78.8 45.8-29.8 95.4-19.2 148.9 31.6 53.4 50.7 133.4 80.8 239.9 90.1zm-63.2 36.2c-11.5 2.5-35.2 3.2-71 1.9-35.8-1.3-88.7-10.7-158.6-28.4-82.6-21.9-125.6-42.8-129.1-62.6-3.5-19.8 8.5-31.1 36-33.9l-.4 16.9c-26.4 9.3-20.4 20.7 18.1 34.3 38.5 13.6 84.4 27.3 137.8 41.1 53.4 13.8 113.2 17.8 179.5 12.2 29.5-3.9 27.7-6.6-5.5-8-77.5-9.3-141.7-37.9-192.5-85.9-50.8-48-97.2-55.7-139-23.2-20.5-4.5-35.7-21.2-45.5-50.1s-18.5-49.6-26.1-62.1C128.1 54.3 118.2 48 106.2 48c-12.4 0-26.5 7.3-42.5 21.9-2.2 2.8-3.4 6.9-3.4 12.2 0 3.4 4.4 8 13.1 13.9 14 4.5 21.1 11.5 21.1 21.1-2.8 34.3.6 63.2 10.3 86.8s38.1 49.8 85.1 78.6c47 28.8 73 49 77.7 60.7 4.8 11.7 8.8 16.2 12 13.7 3.2-2.5 3.2-12.1-.2-28.6-1.7-9 .6-13.5 6.7-13.5 6.2 0 17.6-1.1 34.1-3.2 16.6-2.1 46.8 3.3 90.6 16.2 43.8 12.9 76.5 19.7 98.2 20.2s32.4-5.1 32.4-16.9c1.6-5.9-1.5-11.4-9.3-16.4zM229.6 455.8c16.3-2 27-12.9 32-32.9 5.1-19.9 5.6-35.4 1.7-46.3-3.9-11-8-19.1-12.2-24.4-9.3 16.9-15.4 31.5-18.5 43.8-3.1 12.4-4.1 32.3-3 59.8z"/></svg>