<svg xmlns="http://www.w3.org/2000/svg" viewBox="-10 0 1037 1042"><path d="M647 1042l-24-30-19 16H447l-13-12-12 12H245l-12-12-18 14h-17l25-40q28-7 62-10.5t56-3.5q8 0 23.5-5t22.5-21q7-16 17-43l20-54 16.5-45.5L447 789q-10-19-24-43t-30.5-46Q376 678 361 666q-22-10-41.5-18.5T290 633q-13-8-41.5-26.5T189 559q-31-29-52.5-68.5T115 402q0-28 5-53.5t9-47.5q4-16 6.5-29t2.5-22q0-20-15.5-36T66 198q-22 0-30.5 2T26 210l-36-1v-18q0-25 30.5-42.5T96 131h10q5-7 20.5-21T166 93l95-4q9 0 19.5-2t18.5-9q9-8 26-32t25-46h20q3 9 6.5 26.5T380 63q0 21-12 42t-29.5 39.5Q321 163 305 175q1 8 3 29t6 46.5q4 25.5 9 47.5t12 33q14 17 44 33t66 30.5q36 14.5 68 25.5 18 7 34.5 13t27.5 11q22 10 59 32t75 45q34 21 64 38t43 23q15 6 51.5 19t80 27.5L1027 655l-3 33-99-1 89 49-69 119-158-92q-18-11-44-22.5T699 729q-11 0-31 1.5t-34 2.5q15 39 31 79l-19 157 36 45zm4-24l8-6-32-41 17-156-37-99q18-2 45-4t47-2q20 0 49 12.5t48 23.5q37 22 71 41.5t71 40.5q24-41 49-84l-103-58q-158-2-269-22.5T421 614q-48-17-92-40.5T250.5 525q-34.5-25-54-48T177 439q0-18 16-29t38-17.5q22-6.5 40-9.5t23-3l3 19q-4 1-19.5 3.5t-34 7Q225 414 211 421t-14 18q0 12 19 31.5t51.5 42q32.5 22.5 74 44T428 594q111 40 211.5 54.5t193 16.5q92.5 2 177.5 6l1-4q-12-4-40.5-13t-61-19.5Q877 624 849 614.5T809 600q-14-6-44-23.5T699 537q-38-23-75-44.5T567 462q-9-4-25.5-10T506 439q-33-12-70-27t-69-32.5Q335 362 319 342q-8-12-15-42t-12-67q-5-37-7-68 16-10 33.5-26.5t29.5-36Q360 83 360 63q0-11-.5-18.5T358 31q-11 19-25 37t-21 25q-11 10-25.5 13t-25.5 3l-93 3q-15 3-29 15.5T117 150H96q-36 0-61.5 12T8 190h1q8-14 23-21.5t33-7.5q17 0 44 6l-1 9q-14-2-24-3.5T65 171q-14 0-26 4.5T20 190h2q9-12 44-12 51 0 71.5 22t20.5 50q0 10-2.5 24.5T149 306v-1q-4 22-9 47t-5 50q0 44 19.5 79.5t48 63q28.5 27.5 55 45.5t41.5 27q10 5 32 14.5t48.5 20.5q26.5 11 51.5 21 22 8 43 16.5t29 12.5q10 5 30.5 24t44 43q23.5 24 42.5 45l-12 134q-2 32-20.5 40t-32.5 8l-20 .5-45 2q-45 2-41 5.5l6 5 142-1q3-2 12.5-9t16.5-13zM167 177q-10 0-17-7t-7-17q0-11 7-17.5t17-6.5q10 0 17 6.5t7 17.5q0 10-7 17t-17 7zm0-15q9 0 9-9t-9-9q-9 0-9 9t9 9zm85 847l160-1 19-15-8-22q9-27 25-65t33-73.5q17-35.5 29-53.5l-17-60q-7-3-26-10.5T424 691l-21-8q20 25 38 56t28 50l-7.5 19.5-18 46.5q-18 46.5-20 52T409 945q-13 34-33.5 42.5T341 996l-17 .5-40 2q-40 2-38 5.5zm195-22q27-5 58-8t50-3q8 0 20-4t14-24l12-128q-16-16-39.5-40T519 739l13 45q-10 14-24.5 42T478 886q-15 32-24 58l-10 26z" fill="currentColor"/></svg>