<svg xmlns="http://www.w3.org/2000/svg" viewBox="0 0 589 395.9"><path d="M188.2 0c7.6 0 11.4 3.6 11.4 10.9v19.2c0 20.7-11.1 37.4-33.2 50.2 14.8 53.6 31 80.4 48.5 80.4 10.5 0 21.4-4.9 32.8-14.6 11.4-9.8 22.9-26.5 34.7-50.2 11.8-23.7 21.1-40 28-48.7s14.3-13.1 22.5-13.1c37.9 0 122.9 39.9 255.1 119.7 4.9 7.3-6.3 14.3-33.6 21-27.4 6.7-50.5 8.7-69.4 6.1l79.1 89.1h-44.5c-41.3 0-67.8-6.6-79.5-19.7-20.4-22.4-45.9-60.1-76.4-113.1 1.7 49.8-8.7 87.2-31.4 112.2 26.8 32.3 51.2 48.3 73.4 48 39.3.9 79.8 2 121.4 3.5 36.1 0 54.2 14.1 54.2 42.4 1.5 25-16.6 37.6-54.2 37.6-21 0-54.9-6.1-101.8-18.3-46.9-12.2-92-19.8-135.4-22.7 12.8 10.8 19.2 20.4 19.2 28.8 0 6.4-12.4 8.7-37.1 7-28.2-3.8-49.6-7.4-64.2-10.9 9 3.8 18.3 10.2 28 19.2 1.7 10.5 1.5 14.1-.9 10.9-2.3-3.2-5.1-3.9-8.3-2-3.2 1.9-10.2-1.3-21-9.6-10.8-8.3-22.6-13.2-35.4-14.6-17.2 6.1-37.6 7.4-61.1 3.9-20.7 5.5-33 7.1-36.9 4.8-3.9-2.3-6.8-1.4-8.7 2.8-1.9 4.2-2.5 2-2-6.8 0-6.1 14.8-11.5 44.5-16.2h34.5c23.6-11.6 46.1-14.6 67.7-9 21.5 5.7 40.8 8.2 57.7 7.6l-.9-2.2c-63.5-36.7-106.9-65.6-130.4-86.7-23.4-21.1-38.7-43.9-45.9-68.4-7.1-24.5-10.6-49.9-10.3-76.4-.3-10.5-14.6-17.5-42.8-21-4.9-.1-16.7 1.8-35.6 5.9V96.5c5.2-6.4 19.4-12.8 42.4-19.2 7.3-6.4 13.4-12.5 18.3-18.3 19.2-14.6 35.7-21.8 49.4-21.8 8.4 0 18.2 3.5 29.3 10.5 15.4-.3 25.6-2.8 30.6-7.6 4.9-4.8 7.4-14.5 7.4-29C177.3 3.6 181 0 188.2 0zM90 75.1c0 7.6-5.1 11.4-15.3 11.4-2.6 0-4.3-1.5-5-4.6-.7-3.1.1-6.1 2.6-9.2 2.5-3.1 6.8-4.6 12.9-4.6 3.2 1.5 4.8 3.8 4.8 7zm266.8 29.3c7.6.3 13.5 7.1 17.9 20.5 45.7 79.8 76.6 121.7 92.6 125.8 16 4.1 37.7 6.1 65.1 6.1-63.8-73.7-107.1-120-129.9-138.9-22.9-18.9-39.8-28.4-50.9-28.4-11.1 0-20.8 8.9-29.3 26.6-19.5 60.3-50.5 97.5-93 111.8l-7.9-14c37-14.3 63-38.6 78.2-72.9s24.8-53.4 29-57.2c4.2-3.8 11.4-5.7 21.6-5.7 15.4 0 33 7.6 52.6 22.9 19.7 15.3 38.2 33.1 55.7 53.5 9 8.2 26.8 11.9 53.3 11.4 26.5-.6 43.1-3.5 49.8-8.7-73.6-43.1-127.1-71.7-160.4-85.8S345 50.1 332.8 49.8c-7.6 0-18 15.1-31.2 45.2s-27.7 51.5-43.5 64c-15.7 12.5-30.1 18.9-43.2 19.2-21.3 0-37.1-14.9-47.4-44.8-10.3-29.8-19.4-51.2-27.1-64-7.7-12.8-17.8-19.2-30.4-19.2-12.8 0-27.5 7.6-44.1 22.7-2.3 2.9-3.5 7.1-3.5 12.7 0 3.2 4.5 8 13.5 14.4 13.1 4.7 19.7 11.9 19.7 21.8-.6 47.5 9.2 82.9 29.5 106.3 20.2 23.4 50.6 48.9 91.1 76.4 40.5 27.5 60.7 45.3 60.7 53.5-1.2 2.3-.3 4.7 2.6 7s7.1 3.1 12.4 2.4c5.4-.7 6.8-2.7 4.1-5.9-17.8-21.5-36-36.3-54.6-44.1-5.5-3.5-4.5-5.1 3.1-4.8 18.1 6.4 28.2 11.1 30.6 14 53.3-2.3 103.1 2.7 149.4 15.1 46.3 12.4 80.7 18.8 103.1 19.2 22.4.4 33.6-5.5 33.6-17.7 0-13.4-8.9-21-26.6-22.7-17.8-1.7-60.9-3.5-129.3-5.2-26.2 0-56.8-16.7-91.7-50.2-11.6 11.1-25.5 19.2-41.7 24.5-16.2 5.2-30.2-6.1-42.1-34.1l11.4-3.1c10.5 26.2 28.2 30.7 53.3 13.5s40.6-39.7 46.7-67.5c6.1-27.8 9.2-56.1 9.2-84.9-.1-6.1 2.1-9.1 6.4-9.1z"/></svg>