<svg xmlns="http://www.w3.org/2000/svg" viewBox="-10 0 1014 1011"><path d="M149 1011q4-23 23-41t48-22l76-13q25-5 40.5-21t24.5-33l51-99q-11-32-22-65t-21-65q-14-9-26-16.5T324 624q-1-1-20.5-14.5t-47.5-35q-28-21.5-56-49t-46.5-56Q135 441 135 414q0-26 12.5-50.5t30-45Q195 298 210 283q36-40 51.5-65.5T272 161q-83 4-142.5 56T20 348h-30q0-52 24-102.5T77 159q17-16 45-35.5t54-35Q202 73 213 68q2-6 9-22.5t27-31Q269 0 307 0q68 0 110.5 29t61.5 75.5q19 46.5 19 99.5 0 15-1.5 31.5T493 270H321l-10 21q-4 9-9.5 19.5T296 327q0 4 1.5 7.5t4.5 3.5q5 0 11-3t13-8l35-24q10-6 23-12t38-6q44 0 83 14.5t70 35.5q31 21 52 39 12 10 34.5 28t49.5 39q27 21 54 41t48 34.5q21 14.5 31 19.5 13 6 40.5 22t60 36q32.5 20 59.5 37-2 7-10.5 16T972 659q2 7-5.5 17T936 692l-39 10 4 6q4 5 7.5 11t3.5 12q0 7-4 13t-12 7q-7 2-13-2.5t-8-5.5q2 7 1 12t-8 9q-6 3-12.5-.5T846 755q6 17-5 21-5 2-12 0t-9-5q1 8-3 15.5t-15 8.5q-8 1-14.5-4T776 779l-45-57-107 10q-1 1-3 2.5t-4 3.5v23q1 4 5 18t4 20q0 7-2 30t-2 43q0 9 1 24t5 39q13 15 24.5 37.5T669 1011h-20l-2-7h-31q-16-2-37.5-3.5T543 999q-13-1-37.5 1t-43.5 4q-20 0-22-7-4 4-6 8l-3 6h-19q5-23 24-41t47-22l79-13q3-1 6-3t2-6q-3-50-18-101t-52-85l-29 45 6 22-28 30-63 117q12 12 16 29t3 28h-19l-3-7h-31q-15-2-37-3.5t-36-1.5q-13-1-37.5 1t-43.5 4q-20 0-22-7-6 7-8 14zm327-27q12-2 31.5-3.5T543 979q16 0 45.5 1.5T639 984q-2-5-9-15.5T609 945q-2-19-4-37t-2-36q0-20 2-43.5t2-29.5q0-3-3.5-14.5T597 764l2-34 16-17 103-9-100-130-263-75q-33-9-57-28t-24-53q0-21 17-36t39.5-24q22.5-9 42.5-13.5t26-5.5l3 18q-25 5-50 13.5t-42 21Q293 404 293 418q0 18 11.5 31t26 21q14.5 8 23.5 10l588 165q13 1 21-3t11-8q-10-6-28.5-17T905 593q-22-13-40.5-23.5T836 554q-10-5-32-20t-49-35q-27-20-55-41.5T649 418q-23-18-35-29-20-17-49.5-37T499 318q-36-14-77-14-21 0-31.5 5T372 319l-35 22q-4 2-18 9.5t-18 7.5q-13-1-19-10.5t-6-20.5q0-8 5.5-19.5T292 287l55-110q5-11 16-34t11-52q0-25-16.5-48T307 20q-36 0-51.5 13t-20 27.5Q231 75 230 80q1 27 19.5 42.5T291 149q8 37-9 70t-58 77q-25 28-47 56.5T155 414q0 22 17 47.5t44 52q27 26.5 58.5 51T335 607q28 18 61 39.5t60.5 38.5q27.5 17 37.5 24 39 26 61.5 76T591 934q1 8-5 13t-14 6l-91 15q-7 1-13.5 5t-10.5 8q3 3 19 3zM332 250h144q3-24 3-46 0-60-24.5-106T372 32q21 26 21 59t-9 54q-9 21-20 41zM282 94q-10 0-17-7t-7-17q0-10 7-17t17-7q10 0 17 7t7 17q0 10-7 17t-17 7zm0-15q9 0 9-9t-9-9q-9 0-9 9t9 9zM4 330q7-20 25.5-51.5T76 213q28-34 65.5-60.5T224 116q-8-11-12-29-28 14-63.5 37T88 171q-25 23-43.5 53.5t-29 59Q5 312 4 330zm26-27q39-61 95-105.5T248 145q-10-8-15-16-50 9-90 39t-68.5 67.5Q46 273 30 303zm772 471q5-2 3.5-6t-5.5-9L669 589l-20-5 143 183q1 2 4 5t6 2zm28-15q7-2 1-11L721 604l-21-6 120 154q1 2 4.5 5t5.5 2zm27-15q4-2 3-5.5t-3-5.5l-88-116-17-5 95 125 5 5 5 2zm31-11q5-1 2-6t-4-7q-11-15-32-42t-37-47l-17-4 78 100q1 2 4 4.5t6 1.5zm-4-47q40-8 52-12t8-4l-45-15-50-15zM212 984q12-2 31.5-3.5T279 979q17 0 46 1.5t50 3.5q2-2-1-8.5T358 957q5-9 12-20.5t21.5-37Q406 874 433 825l22-24-6-19 36-55-2-1q-12-8-37-24t-51-33l38 115-49 95q-12 25-34.5 48T300 955l-83 13q-10 2-16 6t-8 7q3 3 19 3z" fill="currentColor"/></svg>