<svg xmlns="http://www.w3.org/2000/svg" viewBox="0 0 596.6 502.9"><path d="M160.9 0c-7.4.1-15.1 2.6-22.6 6.1-3.7 1.7-7.3 3.8-10.5 6.3-1.8 1.5-3.6 3.1-5.1 5.2-10 2.6-22.5 3.7-35.4 5.3-14.5 1.7-29.6 4.1-42.6 12C23.5 47.7 7.7 72.1.4 95.8c-1.4 4.6.8 9.5 5.1 11.5s9.5.5 12.1-3.5c22.1-34.6 37-44.6 53.3-48.3 17-3.8 39.4-4.5 62.5-2.4 8.4 5 15.9 7.1 19.2 8.6 1.8.8 2 1.3 2 1.2 0-.1.3.1.1 2.6-.3 5-7.5 15.7-16.7 27-9.1 11.4-20 23.7-21 39.9-1.7 27.8 10.4 61.9 31.7 82.4 19.7 19 39.9 36.8 61 52.2 4.5 29.2 10.2 70 13.6 98.5-7.8 35.9-27.3 67.7-37.1 102.9-4 8.7-15 10.7-23.5 8.5-13.3-1.9-26.7-3.9-40.1-2.4-6.7-.2-30.6 9.2-27 22.4 1.9 5.1 62.7 5.3 87.2 2.2 10.1 1.6 20.6-6.4 21.7-16.5 13-36 28.3-71.1 41.1-107.1.1-31-8.2-61.1-11.4-91.9 15.1 9.4 30.7 17.4 46.8 23.7 7.4 14.8 40.7 61.8 53 80.2 2.2 31.2 4.4 62.4 6.6 93.7-19.5-.7-38.7-6.7-58.4-5.2-14 0-18.1 28.5-6.3 26.3 26.1.2 52.2.9 78.3.4 6.7-1 10.6-9 8.6-15.2-2.6-35.3-5.1-70.7-7.7-106-6.7-12.5-26.7-42-41.7-64 17.3 4.1 35.3 6.1 54.1 5.8 25-.4 49.8-3.2 74-3.9 10.2 16.6 30.7 26.3 50.6 34 20.9 8.1 41.5 12.9 50.1 14.6 8 1.6 18.1 1.6 27.5-.2 4.7-.9 9.2-2 13.4-5 2.1-1.5 4.3-3.5 5.8-6.6 1.4-3 1.7-7 .7-10.2-2.4-8.2-7.9-13.7-14.1-18.1.4-.1.8-.1 1.1-.1 3.4-.5 6.5-1.1 9.4-2.1 1.5-.5 2.9-1 4.6-2.1 1.7-1.1 4.4-2.9 5.3-7.4.9-4.6-1.3-8-2.7-9.6-1.4-1.6-2.7-2.5-4-3.3-2.6-1.7-5.4-2.9-8.4-4.2-6.1-2.5-13.1-4.7-18.2-6.1-62.6-16.8-144.8-47.2-205.1-94-34.7-27-91.6-51.6-150.3-54.3-18.7-.8-40.4-4.7-53.3-11.6 1.5.8-.1-.3-.6-2.7-.5-2.4 0-5.5 0-5.4 2.1-4.7 7.2-10.4 13.3-16.6 6.1-6.2 13.2-13.1 17.8-22.5 5.6-11.3 11.8-25.3 13.8-39.4 1.9 2.2 3 4.4 3.2 5.1 1.8 6.5 1.6 31.8-1.2 39.2-1.1 2.8-.8 5.9.8 8.5 1.6 2.5 4.3 4.2 7.2 4.5l51.5 4.8c2.9.3 5.7-.8 7.8-2.8 2-2.1 3-5 2.7-7.8-2.6-22.3-6.9-44.1-20.1-61.3C237 19.7 215 8.9 182.5 8.2c-6-4.7-13.1-8.3-21.6-8.2zm.4 19.2c1.2 0 6.8 1.8 11.1 5.2 1.7 1.3 3.1 2.9 4.3 4.4l3 5.9c.5 6.9-2 17.3-5.7 27.7-.3-3.6-1.3-7.1-3.2-10-2.7-4.1-6.5-6.4-9.8-8-6.6-3.1-12.5-4.5-19.2-8.7-1.3-.8-2.7-1.3-4.2-1.5-1.1-.1-2.2-.2-3.4-.3 2.2-1.3 3.8-3.3 4.5-5.8-.4 1.3-.2.4 1.2-.8 1.5-1.2 3.9-2.6 6.6-3.9 5.4-2.5 12.5-4.2 14.8-4.2zm-1.3 1.2c-3.7.1-6.6 3.3-6.6 7.3.1 3.9 3.1 7.1 6.8 7 3.7-.1 6.6-3.3 6.6-7.3l-6.7.1 6.7-.2c-.1-3.9-3.2-7-6.8-6.9zm50.5 11.2c11.4 3.7 19 9.5 24.7 16.9 7.7 10 11.9 23.9 14.5 40.1L221.5 86c2.4-13.5 1.5-28.7-1.4-39.2-1.5-5.7-4.8-10.7-9.6-15.2zm-74.2 108.1c1.5 4 4 7.9 8.9 10.5 7.2 3.8 15.4 6.7 23.9 8.8 4.9 31.1 24 61.4 47.6 80.3 53.9 42.9 123.4 63.1 191.4 60.8 29.3.1 58.4-2 87.5-7.7l-.1-.2c19 6.8 37.6 12.6 54.8 17.4-28.5-1.9-58.1-8.3-88.9-9.3-32.2-1-64.1 3.4-94.1 4-78.3 1.4-142.9-43-205.3-103.2-14.1-13.8-24.7-41.1-25.7-61.4zm53.2 22.9c5.8.7 11.6 1.2 17.2 1.4 53.8 2.4 108.4 26.1 139.4 50.2 34.2 26.5 74.1 47.6 113.7 64.1-17.2 1.8-34.5 2.6-51.9 2.5h-.3c-63.8 2.2-129-16.9-178.8-56.6-17.8-14.2-33.6-38.3-39.3-61.6zm279.8 157.3c22.6 1.5 45.9 5.8 69.9 8 6.8 4.8 14.2 8.5 20.2 12.3 4.7 2.9 8 5.8 10 8.1-.9.3-1.8.5-2.9.7-6.4 1.2-15.9 1-20.3.2-7.4-1.5-27.6-6.2-46.9-13.7-11.2-4.3-21.9-9.9-30-15.6z"/></svg>