<svg xmlns="http://www.w3.org/2000/svg" viewBox="0 0 530.2 594.5"><path d="M530.2 429.1V455l-138.4-.6v140.2h-26.5V538l-111.9-82.4H0v-26.5h530.2zm-243.8 26.4l78.8 56.6v-56.6h-78.8zm-10.2-204c5.6 27.3 9.4 29.5 11.4 6.6 34.1 7.2 52.8 17.5 56 30.7 3.2 13.2 5 13 5.4-.6.4-13.6-9-28.5-28.3-44.5H331c12.8 15.2 32.9 22.9 60.2 22.9 46.1 0 71.6 5 76.4 15l32.5-6c-6.4-6-17.6-12.8-33.4-20.5-15.8-7.6-37-11.4-63.5-11.4-44.5 0-82.1-8.4-112.8-25.3-30.7-16.8-46-32.9-46-48.1 0-15.2 7.3-22.8 22-22.6 14.6.2 24.8-2.9 30.4-9.3l9.6 3c-2.4 12.8-17.3 19.3-44.5 19.3-3.2 0-4.8 3.7-4.8 11.1 0 7.4 14 19.4 42.1 35.8s75.4 24.7 142 24.7c22.1 0 47.1 5 75.2 15-24.1-18.5-63.1-43.5-117-75.2-54-31.7-96.6-48.3-127.9-49.9-23.3 0-45.5 6.2-66.8 18.7-21.3 12.4-31.5 21.6-30.7 27.4.8 5.8 17.1 18.7 48.7 38.5s49.5 34.7 53.5 44.7zm0 177.6c-.4-10.8 14.4-16.2 44.5-16.2 18.1-1.6 27-14.3 26.8-38.2-.2-23.9-5.9-50.6-17.2-80.3-5.6-12.4-16.6-20.9-33.1-25.3-4.4 26.1-28.5 79.4-72.2 160.1h-82.4c3.2-10.8 17.7-16.2 43.3-16.2 19.7 2.8 37.7-13.5 54.2-49 16.4-35.5 24.9-68.3 25.3-98.4.8-6-2.8-13-10.8-21.1-48.5-31.7-81-55.2-97.5-70.4-9.2-10.8-11.2-26-6-45.4 5.2-19.5 10.9-36 17.2-49.6 6.2-13.6 6.9-21.1 2.1-22.3-4.8-1.2-11.3-.8-19.6 1.2-8.2 2-19 1-32.2-3-29.7 9.2-53 28.9-69.8 59-6.8 4-10.2.8-10.2-9.6C47 79.5 70.1 55.1 107.8 31c5.2-2.8 12.2-9.2 21.1-19.3C140 3.8 151.8 0 164.3 0c44.1 0 56.6 24.1 37.3 72.2-19.3 48.1-20.4 66.4-3.3 54.8 17-11.6 41.2-17.5 72.5-17.5 41.7 0 120 37.5 234.7 112.5 11.2 9.2 18.9 17 22.9 23.5 2.4 10.4-1 15.6-10.2 15.6-29.3-10-46.1-15.6-50.5-16.8 27.3 11.2 46.7 25.1 58.4 41.5L467.7 296c-19.7-12-33.1-18.1-40.3-18.1h-66.8c2 27.3 3.5 51.5 4.5 72.5 1 21.1 2.5 34.7 4.5 40.9 2 6.2 1.4 11.7-1.8 16.5-3.2 4.8-4.6 11.8-4.2 21.1h-87.4zM139 33.1c6.4 4.8 12.4 6.6 18.1 5.4 5.6-1.2 9.2-4.7 10.8-10.5 1.6-5.8-.7-9.8-6.9-12-6.2-2.2-11.4-1.5-15.6 2.1s-6.4 8.6-6.4 15z"/></svg>