<svg xmlns="http://www.w3.org/2000/svg" viewBox="-10 0 752 1006"><path d="M408 1006v-43L217 777H11v-52h102q15-23 44-28l57-9q17-3 29.5-15t17.5-23l37-72q-7-24-16-46t-16-45q-9-7-16.5-12.5T239 466q-1-1-16-10.5T186.5 430Q165 414 144 394t-35-41q-14-21-14-41 0-28 19.5-56t34.5-44q27-29 39.5-48.5T198 122q-61 3-105 41.5T12 259h-22q0-38 15.5-74T54 118q13-13 32.5-27t38-25.5Q143 54 153 51q1-4 6.5-16.5t21-23.5Q196 0 226 0q26 0 47 19t22 52q0 22-7 38.5T274 141l-40 77-4.5 9-5.5 13.5q-5.5 13.5 2 6.5t7.5-3.5q0 3.5 8.5-6.5l24-16q7-5 16-9t28-4q49 0 88 23t62 43q11 9 33.5 27t48.5 37q26 19 47.5 34.5T620 392q9 4 30 16.5t46 27q25 14.5 46 27.5-2 7-8 14.5t-16 9.5q-5 17-27.5 30T625 530q-28 0-51-5t-37-3q-25 2-43 3.5t-37 1.5v21q0 2 2 11t3.5 18q1.5 9 1.5 12 0 5-1.5 22t-1.5 32q0 7 1 18t4 28q7 8 12.5 18t9.5 18h55v52h-83v229zm-62-281h123q-2-4-7-11.5T448 696q-2-14-3.5-27t-1.5-26q0-15 1-32t1-22q0-2-2.5-15t-4.5-24q-1-24-2.5-37t-6.5-20l17-8q4 6 5.5 11.5T455 508q9 0 30-1.5l49-3.5q22-1 45.5 4t45.5 4q22-1 37.5-3t29.5-13L261 375q-24-7-41.5-23.5T202 311q0-16 12-27t29-17.5q17-6.5 31.5-10T293 253l2 18q-26 5-50 14t-24 26q0 19 14.5 30.5T260 356l431 121q9 1 15-2t8-6q-9-6-29.5-18t-41-23.5Q623 416 613 410q-9-4-31-19.5T534 355q-26-20-49-38t-34-28q-22-19-59-40.5T310 227q-13 0-21.5 4t-14.5 7l-26 16q-3 2-13 8t-13 6q-10-1-14-8.5t-4-15.5q0-6 4-14t7-16l42-80q4-8 11-25.5t7-37.5q0-17-12-34.5T226 19q-26 0-37.5 9.5T174 49q-3 11-4 14 1 20 14 31.5t30 18.5q6 28-6.5 52T165 222q-19 20-34.5 44.5T115 307q0 21 21 47.5t52 51.5q31 25 59 43 20 13 44.5 27.5t44 26Q355 514 363 519q28 19 49 56t22 114q0 11-14 13l-66 12q-5 1-10 3.5t-8 4.5q0 3 10 3zM208 74q-7 0-12.5-5T190 56q0-7 5.5-12.5T208 38q7 0 12.5 5.5T226 56q0 8-5.5 13T208 74zm0-11q6 0 6-7t-6-7q-7 0-7 7t7 7zM1 246q6-22 26.5-56t54-63Q115 98 159 87q-4-7-6-19-21 10-46.5 27T62 130q-28 26-44 61T1 246zm19-19q29-45 69-77.5t90-39.5q-6-5-11-11-37 6-66 28t-50 49.5Q31 204 20 227zm137 498h119q4-4-12-20 3-6 8.5-14.5t16-27Q299 645 318 609l16-18-4-13 27-41q-10-6-29-18t-38-25l28 85-36 70q-8 17-24.5 34T221 703l-61 11q-13 1-17 8 0 3 14 3zm142 0h12q7-10 18.5-18t26.5-10l52-9q7-2 6-7-2-36-9.5-70.5T371 550l-20 30 4 15-20 23-46 85q5 5 7 11t3 11zM30 757h493v-12H30zm398 229h13V777h-13zm-20-96V777H293zm0 46v-18L265 777h-20z" fill="currentColor"/></svg>