<svg xmlns="http://www.w3.org/2000/svg" viewBox="-10 0 982 1015"><path d="M150 1015q5-23 24-41t48-22l62-13q23-5 34-19t18-31l49-133-41-145q-30-18-68-43t-72.5-55q-34.5-30-57-63T124 383q0-35 15-59.5t33-46.5q14-17 31-43t30-48q13-22 15-28-7-2-15-5.5t-15-8.5q-37 8-77 35.5t-70.5 64Q40 280 31 318h-41v-27q0-37 23-79.5t67.5-80Q125 94 189 72q1-8 8.5-25T225 15q20-15 57-15 41 0 66 19.5T373 77q0 12-9.5 36.5T338 169q-16 31-33.5 64T270 294l9 12q13-3 37.5-8t51.5-5q35 0 76.5 14t85.5 36q44 22 85.5 47t76.5 48.5q35 23.5 58 39.5l28 20q13 8 46 24t73 35.5q40 19.5 75 35.5l-12 28q-5 1-16 1h-27l29 11 2 28q-24 11-57.5 22T837 694q-12 0-37.5-6T748 675.5q-26-6.5-40-6.5-19 0-47 6t-46 6q-4 0-10-1.5t-10-3.5q3 12 6 25t3 22q0 5-1 28.5t-3 54.5q-2 31-4 61t-3 50l-1 20q14 15 24.5 38t15.5 40h-19l-3-7h-31q-15-2-37-3.5t-36-1.5q-13-1-31 1t-31 4q-19 0-21-7-4 4-6 8l-3 6h-19q4-23 23.5-40t47.5-23l57-13q10-2 10-9l-1-174q-6-9-21.5-24.5T474 700l-19 44q0 2-.5 9.5T454 768l-85 187q8 12 11 32t3 28h-19l-3-7h-31q-12-2-31-3.5t-33-1.5q-12-1-32 1t-34 4q-20 0-22-7-8 8-8 14zm309-27q6-2 18.5-3.5T506 983q17 0 46 1.5t50 3.5q-2-7-9.5-19T572 945q0-3 1.5-24.5t3-51.5q1.5-30 3.5-61t3-53.5q1-22.5 1-28.5 0-15-6.5-39T564 646l17-8q4 8 14 16t20 8q14 0 41-6t52-6q14 0 39.5 6t50.5 12.5q25 6.5 39 6.5 22 0 48.5-7.5T928 652v-5q-7-6-29.5-14.5T857 618q-52-4-109.5-12.5t-108.5-19Q588 576 556 564q-30-10-72.5-25t-87-32.5q-44.5-17.5-83-38t-62.5-43Q227 403 227 379q0-13 14.5-23.5t36-17.5q21.5-7 41.5-11t30-4l1 19q-22 2-46 8t-40.5 14.5Q247 373 247 382q0 18 22.5 37t59 37q36.5 18 79 34.5t83.5 31q41 14.5 72 24.5 65 22 165.5 38.5T945 608v-5q-32-15-69-33.5t-67-34Q779 520 768 514l-29-19q-23-16-57-39t-75-47.5Q566 384 523.5 362T441 326.5Q401 313 368 313q-25 0-53.5 5.5T269 329l-22-29q17-29 36-62.5t35-66q16-32.5 26-57.5t10-37q0-29-20-43.5T282 19q-29 0-45.5 12t-23 27Q207 73 207 83q1 33 20.5 43.5T278 144q-12 22-28.5 51.5T224 239q-16 27-35 48t-32.5 43Q143 352 143 383q0 33 24.5 65.5T230 511q38 30 79.5 55.5T385 612q22 14 47 31.5t48 35.5l3 2v1q24 20 43 39t25 30l2 187q0 16-19 19l-70 15q-7 1-13.5 5t-10.5 8q3 3 19 3zM262 95q-11 0-18-7.5T237 70q0-10 7-16.5t18-6.5q10 0 17 6.5t7 16.5q0 10-7 17.5T262 95zm0-15q9 0 9-10 0-8-9-8t-9 8q0 10 9 10zM7 298q17-64 62.5-115T192 105q-1-4-1.5-7t-1.5-7q-59 21-99.5 56T28 222Q7 262 7 298zm8 0h3q11-35 40.5-69t68-60.5Q165 142 203 130q-4-5-7-13-44 13-80 42t-61.5 66Q29 262 15 298zm199 690q7-2 22-3.5t31-1.5q16 0 42 1.5t44 3.5q4-2 4-9t-13-19l90-196q0-2 .5-9.5t.5-14.5l24-53q-43-33-83-58l-8-4 38 133-48 130q-24 61-70 71l-69 13q-10 2-16 6t-8 7q3 3 19 3z" fill="currentColor"/></svg>