<svg xmlns="http://www.w3.org/2000/svg" viewBox="0 0 591.7 518.2"><path d="M286.2 303.8c7.4 33.1 12 35.7 13.7 7.8 41.4 8.7 64 21.1 68 37.2 3.9 16.1 6.2 15.9 6.9-.7.7-16.6-10.8-34.6-34.3-54.2h12.4c15.2 18.7 39.4 28.1 72.5 28.1 55.8 0 86.5 5.9 92.1 17.6l39.2-7.2c-7.8-7-21.2-15.1-40.2-24.5-18.9-9.4-44.5-14-76.8-14-53.6 0-98.9-10.1-135.9-30.4-37-20.3-55.5-39.5-55.5-57.8s8.8-27.3 26.5-27.1c17.6.2 29.7-3.6 36.3-11.4l11.8 3.9c-3 15.2-20.9 22.9-53.6 22.9-3.9 0-5.9 4.5-5.9 13.4s17 23.3 51 43.1 91 29.7 171.2 29.7c26.6 0 57.1 6.1 91.5 18.3-29.2-22.2-76.4-52.4-141.8-90.5-65.5-38-116.9-58.1-154.3-60.3-28.3 0-55.2 7.5-80.7 22.5s-37.8 26-36.9 33c.9 7 20.5 22.4 58.8 46.4s59.6 42 64 54.2zm0 214.4c0-13.1 18.1-19.6 54.2-19.6 21.8-2.2 32.5-17.6 32-46.4-.4-28.8-7.2-61-20.3-96.7-7.4-14.8-20.9-25-40.5-30.7-4.8 31.4-33.8 95.8-86.9 193.4h-99.3c3.9-13.1 21.3-19.6 52.3-19.6 23.5 3.5 45.2-16.3 65-59.5 19.8-43.1 29.9-82.5 30.4-118.3 1.3-7.8-2.8-16.3-12.4-25.5-58.8-38.3-98-66.6-117.6-84.9-11.3-13.1-13.8-31.4-7.5-54.9 6.3-23.5 13.3-43.6 20.9-60.1 7.6-16.6 8.4-25.6 2.3-27.1-6.1-1.5-14-1.1-23.9 1.3-9.8 2.4-22.5 1.4-38.2-2.9-36.2 10.9-64.5 34.4-84.9 70.6C3.9 142.4 0 138.5 0 125.5c10-29.6 37.7-59 83-88.2 6.5-3.5 15-11.1 25.5-22.9C122 4.8 136.3 0 151.6 0c53.1 0 68.1 29.1 44.8 87.2-23.3 58.2-24.6 80.3-3.9 66.3 20.7-13.9 50-20.9 87.9-20.9 50.1 0 144.4 45.3 282.9 135.9 13.5 10.9 22.7 20.3 27.4 28.1 3 12.2-1.1 18.5-12.4 18.9-34.8-12.2-55.1-18.9-60.8-20.3 33.1 13.1 56.6 29.6 70.6 49.7l-70.6 12.4c-24-14.8-40.1-22-48.4-21.6h-80.4c2.2 32.7 3.8 61.7 4.9 87.2 1.1 25.5 2.8 41.9 5.2 49.3 2.4 7.4 1.7 14.2-2 20.3-3.7 6.1-5.3 14.6-4.9 25.5H286.2zM120.9 39.9c7.8 6.1 15.1 8.4 21.9 6.9 6.8-1.5 11.1-5.8 13.1-12.7 2-7-.9-11.8-8.5-14.4-7.6-2.6-13.8-1.7-18.6 2.6-4.9 4.3-7.5 10.2-7.9 17.6z"/></svg>