<svg xmlns="http://www.w3.org/2000/svg" viewBox="-10 0 1126 935"><path d="M299 935q10-31 21-48t41-22l112-15q3-16 7-42.5t8.5-55q4.5-28.5 7.5-50t3-26.5q0-10-6-24.5t-6-27.5q0-8 5-24.5t10-32q5-15.5 5-20.5 0-3-.5-21.5t-1-43q-.5-24.5-1-45.5t-.5-27q-35-20-74.5-51t-73-63Q323 264 307 238q4 14 8.5 33t4.5 34q0 18-3.5 41.5t-15 46Q290 415 268.5 430T211 445q-21 0-45-9.5T124.5 401Q107 376 107 328q0-26 7.5-56t14.5-51q-10 9-22 16t-20 10q-2 5-6 17t-4 30q0 46 20 88t49 75.5q29 33.5 55 53.5l-12 26q-27-5-61-28.5t-65.5-60Q31 412 10.5 367T-10 272q0-10 .5-29t4.5-38q-1-8-1.5-16.5T-7 171q0-45 15.5-84t45-63Q83 0 126 0q33 0 54 14t33 34.5Q225 69 227 88q14-30 43.5-55.5T353 7q86 0 171.5 25.5t166 67Q771 141 841 191t126.5 99q56.5 49 95 89t53.5 62v34q-9-5-20-10t-23-9l27 42q-16 10-47 17.5t-56 7.5q-25 0-50.5-12.5T899 480q-22-18-36-34H724q1 11 3.5 28.5t6 34.5q3.5 17 7.5 27v-1q4 7 7.5 14l7.5 15q8 15 18 28.5t10 23.5q0 9-3.5 22.5T774 661l1 189 101 15q30 5 41 22t21 48h-16q-8-10-22-12.5t-26-3.5q-9-1-35-2.5t-53.5-3Q758 912 744 912t-38 1.5q-24 1.5-46.5 3T627 919q-13 1-26.5 3.5T579 935h-16l4-15q-21-3-39.5-5.5T490 912q-14 0-40.5 1.5t-51.5 3q-25 1.5-35 2.5-12 1-26 3.5T315 935zm330-35q28-2 63-5t52-3q11 0 33 1.5t47.5 3Q850 898 871 900l-2-16q-26-4-59.5-9t-51.5-8l-4-209q3-9 6.5-21.5T764 616q0-7-8.5-18T740 574q-10-17-16-30-5-10-9-30.5t-7.5-44Q704 446 702 427h175q14 17 34.5 34.5t43 30Q977 504 997 504q15 0 40-4.5t33-12.5l-26-44q-43-17-93-33.5T854 379q-47-14-84.5-23.5T714 343q-64-9-130.5-29.5t-122.5-49Q405 236 370.5 204T336 140q0-14 4.5-28t8.5-23l17 9q-4 8-7.5 20t-3.5 22q0 27 33.5 55t88 53.5q54.5 25.5 118 45T717 323q24 4 70 16t101.5 29q55.5 17 110 36t94.5 37q-18-23-56-62.5T944 292q-55-47-123-93.5T676.5 113Q600 74 518 50.5T353 27q-38 0-62.5 16.5t-38 39.5Q239 106 233 127l-8 58q2 6 4.5 14t4.5 16l10 38 5 30q0 41-13.5 63.5T205 369q-20 0-27.5-21t-7.5-51q0-29 9-52t21-48l6-11 6-59q0-8-3.5-25.5t-12-36.5Q188 46 171 32.5T126 19q-37 0-62 21.5T26 97q-13 35-13 74v13.5l1 13.5 40 1 30 28q11-5 28.5-18t26.5-39l23 19q-11 26-23 66.5T127 328q0 40 14 61.5t33.5 29Q194 426 211 426q29 0 47-13t27-32.5q9-19.5 12-40t3-35.5q0-17-7.5-45T277 211l31-10q6 19 29.5 46t56 56.5q32.5 29.5 66.5 55t63 41.5q29 16 44 16 25 0 37-12l108 190v36q0 6 8.5 17t16.5 19v201q-18 3-50.5 8t-55.5 9zM81 151q-8 0-13-5.5T63 133q0-7 5-12.5t13-5.5q8 0 13 5.5t5 12.5q0 7-5 12.5T81 151zm124 198q10 0 17.5-17t7.5-49q0-18-6-38t-11-32q-10 21-16.5 41t-6.5 43q0 23 3.5 37.5T205 349zm-69 146q-28-25-53.5-62T45 358q-7-17-11-39.5T30 272q0-27 6-54H13q-2 16-3 31t-1 23q0 48 20.5 91t50 77q29.5 34 56.5 55zm26 3q-19-17-43-46.5T76.5 382Q58 342 58 294q0-18 3.5-32t7.5-22l-20-18q-3 13-4 25.5T44 272q0 23 4 44.5t9 37.5q14 42 44.5 82t60.5 62zm413 403q1-1 1.5-3t1.5-3l-70-31 20-138q3-19 11.5-40.5t16-39Q563 629 563 621q0-11-2.5-21t-2.5-21q0-7 3.5-21l7.5-30q8-34 10.5-57t3.5-36q-4 1-8 1h-8q-8 0-19-4t-24-11q1 18 1.5 46.5t1 52.5q.5 24 .5 27 0 5-5 21t-10.5 33q-5.5 17-5.5 24 0 11 6 25t6 24q0 6-3.5 31t-8 57q-4.5 32-9 61t-7.5 44q-11 2-32.5 5t-46 6.5Q387 882 368 884l-2 16q19-2 42-3.5t44.5-3Q474 892 486 892q23 0 43.5 2.5T575 901zm16-22q11-10 34-14l94-15v-19l-2-157q-5-6-14.5-19.5T693 630v-31l-91-160q-1 9-1.5 20t-1.5 20q0 9-5.5 30.5t-10.5 42q-5 20.5-5 26.5 2 14 3.5 25t.5 20q0 11-7.5 27.5t-15.5 37q-8 20.5-12 41.5l-17 123q15 7 30.5 14t30.5 13zm-8 39q3-4 12.5-10t16.5-8l2-13q-7 2-16.5 9.5T583 918zm-264 0q4-4 13-10t17-8l2-13q-7 2-17 9.5T319 918zm599 0q-5-14-15-21.5t-17-9.5l2 13q8 2 17 8t13 10z" fill="currentColor"/></svg>