<svg xmlns="http://www.w3.org/2000/svg" viewBox="0 0 595.4 480.5"><path d="M19.2 114.5c24.7-4.7 41.1-21 49.3-49 8.2-28 2.3-42.4-17.9-43.2s-30.7 30-31.4 92.2zm552.7 55.8c-7.4-10.6-46.4-14.8-116.9-12.6-70.5 2.2-125.3-4-164.5-18.5s-66.6-25.8-82.2-34.1c-15.7-8.2-23.5-20.2-23.5-35.8.8-14.9 9.2-22.3 25.3-22.3 12.5 0 23.3 2.7 32.3 8.2 9 5.5 13.5 10 13.5 13.5-19.6-5.9-33.1-9-40.5-9.4-7.4-.4-11.6 4.5-12.3 14.7-.8 10.2 21.1 23.3 65.8 39.4 44.6 16.1 82.2 24.8 112.8 26.1 30.5 1.4 89.1 3.2 175.6 5.6-208-82.6-330.6-124-367.8-124-23.5 0-39.1 6.8-46.7 20.3-7.6 13.5-10.7 28.7-9.1 45.5s6.5 20.4 14.7 10.6c8.2-9.8 25.3-4.4 51.1 16.2s57.4 36.9 94.6 49 58.6 21.6 64.3 28.5c5.7 6.9 12.5 20.3 20.6 40.2 8 20 11.8 21.8 11.5 5.6-.4-16.3-.6-30.6-.6-43.2 0-12.1 18-19.3 54-21.4 36-2.2 62.9-1.7 80.8 1.5 17.7 3.1 33.5 1.9 47.2-3.6zM29.7 93.4c-.4-7.4.1-17.6 1.5-30.5 1.4-12.9 6.4-18.2 15-15.9 5.5 2.3 8 6.7 7.6 12.9-.4 6.3-8.4 17.4-24.1 33.5zm565.7 50.5c-8.2 10.6-8.6 22.5-1.2 35.8-16.1 11-42.5 12.5-79.3 4.7-67.7 1.6-103.4 6.1-106.9 13.5s-4.3 40.7-2.3 99.9c9 7.8 10.6 17 4.7 27.6 9 56.8 18.6 101 28.8 132.7 18 4.7 25.1 11.7 21.1 21.1l-319.5 1.2c-.8-19.2 15.7-23.5 49.3-12.9 50.5-10.6 77.5-22.3 81.1-35.2l20.6-104c-6.3-9.8-5.1-19.4 3.5-28.8 2.3-18.8 3.7-43.2 4.1-73.1.4-30-10-48.9-31.1-56.7-40.3-13.3-68.8-27.8-85.5-43.5s-27.9-8.8-33.8 20.6c-5.9 29.4-14.9 46.8-27 52.3s-25.5 6.2-39.9 2.1c-14.5-4.1-20.6-39.6-18.2-106.6-21.5 41.9-25.4 78-11.5 108.4 13.9 30.3 16 47.7 6.2 52-9.8-1.2-22.7-18.2-38.8-51.1C3.7 170.9-2.6 131.7 1 86.1 4.5 40.4 14.6 13.7 31.2 5.9 47.8-2 63.9-2 79.4 5.9c15.5 7.8 21 37.6 16.7 89.3-4.3 51.7-2.3 77.5 5.9 77.5s11.6-25.3 10.3-75.8c-1.4-50.5 7.4-79 26.4-85.5s38.3-9.7 57.9-9.7S266.3 15.5 347 43.1c80.6 27.7 163.4 61.3 248.4 100.8zm-280.8 53.5c-.4 26.2-.8 45.5-1.2 57.9-.4 12.3 2.6 9.6 9.1-8.2 6.5-17.8 12.8-33 19.1-45.5-3.9-8.2-8.3-12.6-13.2-13.2-4.9-.7-9.5 2.3-13.8 9zm37.6 18.2c-15.3 31.7-27 61.3-35.2 88.7 4.3 10.2 2.3 18.6-5.9 25.3-13.7 68.4-18.8 104.3-15.3 107.4 3.5 13.3 20.2 21.5 49.9 24.7 31.7-7.8 53.3-10.6 64.6-8.2.8-24.7-4.9-66-17-123.9-12.1-6.7-13.9-16.1-5.3-28.2-5.1-21.6-17-50.2-35.8-85.8z"/></svg>