<svg xmlns="http://www.w3.org/2000/svg" viewBox="0 0 595.3 453.9"><path d="M382.1 0c-45.4 0-79.4 9.9-102 29.7-22.7 19.8-39.9 45.4-51.7 76.6-11.8 31.3-24.7 50-38.6 56.3-13.9 6.3-33.8 2-59.7-12.9.8-27.4-11.4-40.4-36.6-38.9-32.8 2.3-47.8 18.5-45.2 48.6v15.4c-19.1 25.5-32.4 53.1-40 82.6-7.6 29.5-9.9 57.6-6.9 84.3.8 8 3.9 13.3 9.4 16 5.5 2.7 8.5 0 8.9-8-3-54.1 17.5-108 61.7-161.8l29.2-5.1c27.4 11.8 52.2 17.1 74.3 15.7 22.1-1.3 44.8-11.5 68-30.6 34.7 9.5 59.6 21.5 74.9 36 15.2 14.5 27.3 29.3 36 44.6-38.1 115.1-71.1 177.4-98.9 186.9l-36.6-4.6c-17.5 3-25.3 10.3-23.4 21.7 4.6-3.8 9.3-4.9 14.3-3.1 5 1.7 11.8.5 20.6-3.7l21.7 6.9 61.2-4c8.4-.4 14.5 1.3 18.3 5.1 2.7-3 4-6.1 4-9.1-3.4-6.5-14.1-11.6-32-15.4 3.4-17.9 10.9-38.7 22.3-62.3 11.4-23.6 29.9-64.2 55.5-121.8-19.4-25.9-28.8-45.5-28-58.9 17.5-3.4 35.3-2.6 53.2 2.6 17.9 5.1 29.9 14.6 36 28.3 5.7 6.9 23.1 75.1 52 204.7-6.5 11.4-18.7 16.4-36.6 14.9-8.4 0-16.8-.8-25.2-2.3-8.4 0-12.6 6.3-12.6 18.9l17.1-3.4c30.1 4.2 49.4 5.1 57.7 2.6 8.4-2.5 15.8-3.7 22.3-3.7 6.9 2.7 13.1 2.6 18.6-.3 5.5-2.9 10-1 13.4 5.4 3-12.6-8.8-20.8-35.4-24.6-1.9-2.3-9.5-35.3-22.9-99.2-13.3-63.8-19.8-108.3-19.4-133.5L442.1 168c20.2-4.2 50.2-13.2 90-27.2 39.8-13.9 60.9-24.3 63.2-31.2l-29.2-4.6 25.7-16c-22.1-11.8-49.9-18.1-83.5-18.9 29.3-4.2 58.3-2.5 86.9 5.1-1.5-12.6-8.6-22.9-21.2-30.9C515.1 14.9 451 0 382.1 0zm.5 17.1c48.4.4 106.1 12.4 173.2 36-48.4 2.3-83.1 9.3-104 21.2-71.3 38.9-117 58.3-137.2 58.3-20.6 0-30.9-8.2-30.9-24.6 0-17.9 10.9-36.4 32.6-55.5l-9.2-7.4c-4.2 0-10.1 3.6-17.7 10.9-18.7 21-25.8 41.2-21.4 60.6 4.4 19.4 19.3 29.2 44.9 29.2 25.9 0 53.9-8.9 84-26.6 30.1-17.7 62.7-29.1 97.8-34 39.6.8 59.5 4 59.5 9.7l-22.3 13.7 22.9 6.3c0 3.4-26 12.7-78 27.7-52 15.1-93.5 22.6-124.3 22.6-25.2 0-45.9-3.2-62.3-9.7-16.4-6.5-31-7.9-43.7-4.3-12.8 3.6-16.9-1.2-12.3-14.6 4.6-13.3 12.2-31.2 22.9-53.5s26-38.9 46-49.7c19.8-10.8 46.4-16.3 79.5-16.3zm-297.3 113c3.5 0 6.7 1.4 8.9 4.3 4.6 6.3.6 14.4-6.2 20-6.8 5.7-16.4 8.9-21 2.7-4.6-6.3-.5-16.7 6.3-22.4 3.6-2.9 8-4.6 12-4.6z"/></svg>