<svg xmlns="http://www.w3.org/2000/svg" viewBox="-10 0 1232 672"><path d="M443 672q4-23 24-41t48-22l62-13q21-5 31.5-15t18.5-29l54-137-70-121q-19-3-49.5-10.5T509 270q-4 3-23 12t-44 17q-25 8-49 8-31 0-57-11.5t-41.5-42Q279 223 279 167v-22q-21-3-37-12-17 3-49 12.5T133 172q-34 19-64 49.5T22 281h-32q2-20 14.5-50.5t34-63Q60 135 88 111q27-24 65.5-47t79-38.5Q273 10 307 10q30 0 45.5 11t21 25.5Q379 61 379 72q0 12-5 27t-12 31q-5 16-10 30.5t-5 23.5q0 11 8.5 16.5T377 206q15 0 28.5-16.5T432 154q29-41 61-76t74-56.5Q609 0 669 0q63 0 123.5 20.5T906 63q18 8 34 14t31 11q30 10 73.5 24t89 28.5Q1179 155 1213 166l-2 24q-8 3-17.5 5.5T1173 200l49 16q-11 21-38 43.5t-67 22.5q-16 0-49-2.5t-58-4.5q-28 13-62 20.5t-77 7.5q8 14 19 39t12 43q-5 83-7 128t-2.5 62.5Q892 593 892 594q14 15 26 38t17 40h-20l-3-7h-31q-15-2-37-3.5t-36-1.5q-12-1-30 1t-31 4q-20 0-22-7-4 4-6 8l-3 6h-19q4-23 24-40t48-23l57-13q4-1 7.5-3t3.5-6l-5-141q0-10-1.5-22.5T826 404q-10-19-30.5-37.5T757 336l-5 78-86 198q9 12 12 32t2 28h-19l-3-7h-31q-14-2-34-3.5t-34-1.5q-12-1-32 1t-34 4q-20 0-22-7-4 4-6 8l-3 6zm318-27q6-2 19-3.5t29-1.5q16 0 45 1.5t50 3.5q-2-7-10.5-19T872 602q1-19 1-28.5V555l1-26q1-26 3-50.5t5-93.5q-1-22-18-53t-34-52l12-11 14 14q58 3 98-8t52-19q19 1 41 2.5t41 2.5q19 1 29 1 22 0 43-12.5t31-23.5l-60-18q-50 8-109 13.5T918 227q-68 0-139.5-2T647 216q-60-7-97-21.5T513 154q0-13 7-25t14-23q6-8 12.5-19T558 62l19 6q-5 15-12.5 27T550 117q-7 10-12 18.5t-5 18.5q0 19 35 30t92.5 16q57.5 5 125 6.5T918 208q45 0 98-4t101-10.5q48-6.5 74-13.5-13-4-40-12.5t-61-19.5q-34-11-67-21.5T965 107q-29-10-67-26-51-21-110-41.5T669 19q-53 0-92 20t-70 53q-31 33-59 74-15 21-32.5 40T377 225q-20 0-35-9.5T327 184q0-11 5.5-28t11.5-33q5-14 10-29t5-22q0-11-9.5-27T307 29q-13 0-27.5 3T250 40q-8 5-15 17t-7 26q0 21 24 31t49 14q-2 17-2 25v14q0 48 13 74.5t34 36.5q21 10 47 10t59-13q33-13 55-25 24 7 58.5 15t55.5 11q20 3 48 4.5t48 1.5q14 11 40.5 30t51.5 41.5q25 22.5 35 41.5 4 8 6 23.5t2 26.5l4 150q0 16-19 19l-71 15q-7 1-13.5 5t-10.5 8q3 3 19 3zM284 93q-10 0-17-7t-7-17q0-10 7-17t17-7q10 0 17 7t7 17q0 10-7 17t-17 7zM29 218q28-42 63.5-69.5t67-42.5Q191 91 208 84q0-9 1.5-15.5T213 56q-32 15-61.5 34T100 127q-23 19-41 43.5T29 218zM284 78q9 0 9-9t-9-9q-9 0-9 9t9 9zM35 229q18-22 40.5-42t47.5-33v1q25-14 51.5-23t45.5-14q-3-4-5-7.5t-4-7.5q-15 5-47 19t-67.5 39.5Q61 187 35 229zm472 416q8-2 22-3.5t31-1.5q17 0 44 1.5t46 3.5q5-2 5-9t-13-19l90-206 6-88q-18-14-29-22-7 0-28.5-1t-44.5-3l67 117-53 134q-22 59-69 68l-69 13q-11 2-17 6t-7 7q3 3 19 3z" fill="currentColor"/></svg>