<svg xmlns="http://www.w3.org/2000/svg" viewBox="0 0 591.7 593.8"><path d="M561.1 386.9l-68.1-7.3c-107.8-4.9-181.2-18.8-220.3-41.9-39.1-23.1-64.9-42.1-77.5-57.1-12.6-15-16.3-27-11.2-36.2 5.1-9.1 17.5-15.5 37.4-19.1 6.1 3.6 9.1 7.1 9.1 10.3 0 3.6-5 9-14.9 16.1-9.9 7.1-6.3 18.2 10.9 33.4s45 30.9 83.2 47.1 89.6 23.9 154 23.1c9.3-4.1-2.2-17.5-34.6-40.4s-76.5-54.4-132.2-94.5c-55.7-40.1-101.4-45.6-137-16.4-17.4 6.5-24.5 14.2-21.3 23.1 18.2 45.8 55.5 84.4 111.8 115.8 56.3 31.4 99.7 46.8 130 46.2 30.4-.6 58 1.7 82.9 7s47.3 8.8 67.1 10.6c20.1 1.8 30.3-4.8 30.7-19.8zM150.3 42.4c1.6-6.5-1-10.7-7.9-12.8-6.9-2.4-11.3-.2-13.4 6.7-2.4 6.9-.2 11.3 6.7 13.4 7.3 2.4 12.2 0 14.6-7.3zm72.3 310.5c4.1 10.9 16 30.2 35.9 57.7l-4.9-41.3c-7.7-2.9-18-8.3-31-16.4zM142.4 92.8c-15-6.5-28.7-5.8-41 2.1S67 118.5 35.4 142c-42.5 26.7-46.8 20.9-12.8-17.6C49.4 96 74.9 71.3 99.3 50.3 111.5 21.5 126.6 4.9 144.9.5c27.5-2 44.2 3 49.8 15.2 13.8 21.1 14.2 40.5 1.2 58.3-28.8 41.7-43.8 77.2-45 106.3 40.9-35.2 95.3-28.7 163.2 19.7 67.9 48.4 119.5 87.6 155 117.6 35.4 30 74.4 47.2 117 51.7 9.3 8.1 7.3 27.1-6.1 57.1-13.8 8.1-29 9.7-45.6 4.9-16.6-4.9-42.4-10.7-77.5-17.6-35-6.9-65.3-9.9-90.8-9.1l18.2 36.5c4.1 6.9 4.2 27.4.3 61.7-3.8 34.2-3.3 55.2 1.5 62.9 29.6 4.9 42.3 14.2 38.3 28-3.6-6.5-8.6-8.3-14.9-5.5-6.3 2.8-13.5 2.8-21.6 0-7.3 0-15.8 1.4-25.5 4.3-9.7 2.8-32 1.6-66.8-3.6l-19.4 4.9c0-15 4.9-22.5 14.6-22.5 9.7 2.4 19.2 3.6 28.6 3.6 31.6 2.8 47.6-15.6 48-55.3.4-39.7-3-64.4-10.3-74.1-8.5-11.3-22.9-25.5-43.1-42.5-20.3-17-33.6-25.5-40.1-25.5-2.4 0-4.6 2.7-6.4 8.2-1.8 5.5 1.3 22.2 9.4 50.1.4 10.5-7.3 29.4-23.1 56.5s-25.7 51.4-29.8 72.9c20.7 0 33 4.1 37.1 12.2 0 4.1-1.6 7.7-4.9 10.9-4.1-4.5-10.9-6.5-20.7-6.1L165 593.7l-25.5-7.9c-10.1 4.9-17.9 6.3-23.4 4.3s-11-.8-16.7 3.6c-2-13.8 7.1-22.5 27.3-26.1l41.9 5.5c29.2-11.7 55.9-54.3 80.2-127.6l-54.1-102.7c-31.2-25.5-53.3-50.4-66.2-74.7-13-24.3-19.4-39.5-19.4-45.6-15.8.4-23.5 13.8-23.1 40.1-9.7 19.9-20.7 19.4-32.8-1.2 0-32.4 17.4-56.9 52.3-73.5 1-21.4 13.4-53 36.9-95.1z"/></svg>