<svg xmlns="http://www.w3.org/2000/svg" viewBox="-10 0 911 996"><path d="M591 996q-5 0-22-1t-38-3q-28-2-58-3.5t-44-1.5q-10 0-33 1t-51 2q-28 1-53 2-21 2-37.5 2.5t-19.5.5q-5 0-11.5-5.5T212 980q-5 3-11 6t-10 4q-12-4-38-4-9 0-20.5 2t-21.5 4q-6 1-11 2t-9 1q-25 0-28-21-8 5-12 15l-18-7q8-18 26-28.5t41-12.5l118-9q11-22 21.5-58t16.5-80q-49 19-91 28.5T94 834q-27 2-54.5-4T-10 806l273-84q1-10 1.5-21t.5-22q1 0-.5-18.5t-4-47q-2.5-28.5-6-58.5t-6.5-52q-3-22-6-28-3-8-13.5-34T206 381.5Q194 348 185 316t-9-51q0-24 6-46t12-39q4-11 6.5-20.5T203 143q0-13-7-25.5T175 105l-123-5q-7 0-11 3.5t-4 7.5H13V88q0-13 10-26.5T54 44L256 0h80q31 0 49 12t25 41l17 75 71 72q5 7 13 18t19 27q25 35 61.5 86T661 433q16-26 31-56.5t16-76.5q-24-22-60-42t-100-36q8-35 13.5-67.5T567 88q0-14-1-32t-3-39h77q-5 20-10 48t-5 45q0 34 34 69t91 64.5Q807 273 876 293q-1 8-16.5 37.5t-39 68q-23.5 38.5-50 76T721 535l180 427-8 27h-34l-51-50 8 24q-7 10-22.5 20.5T759 994q-40 0-70.5-25T638 889l-55-150q-11 29-23.5 56.5T537 851l-66-28-19 110 10 8h133q20 0 37 11t25 29l-19 7q-4-9-12-16-2 8-10.5 16t-24.5 8zm0-20q8 0 12.5-3.5t4.5-6.5q0-4-5.5-5t-9.5-1H449l-18-22 23-143 73 31 43-115-133-136q-27-28-55.5-64T328 437q-25-38-40.5-73T272 302q0-20 8.5-30t19-13.5Q310 255 317 255q5 0 12.5 1t14.5 2q11 2 20.5 3t15.5 1q8 0 16.5-.5T413 260q8-1 14.5-1.5t13.5-.5q11 0 25.5 1t23.5 2l-2 20q-9-1-23-2.5t-24-1.5q-5 0-11.5.5T415 279l-16 2-19 1q-7 0-18-1t-21-3q-8-2-15-2.5t-9-.5q-6 0-16 5t-10 22q0 25 15 58t39 69q24 36 52 70.5t54 61.5l416 410 12-1q2-6 2-7L697 527q-24-42-57.5-92.5t-67-97.5Q539 290 514 256q-11-15-19.5-26.5T482 211l-73-74-19-80q-8-38-54-38h-79q-4 1-21.5 4.5T195 32q6 17 32 43l-9 11q-5-3-13-6t-32-3l-70-1q-38 0-51.5 4.5T34 89v2q4-1 11.5-3T62 86h114q24-1 35.5 18t11.5 39q0 9-3 19.5t-8 23.5v-1q-5 17-10.5 37.5T196 265q0 18 8 48.5t19.5 63q11.5 32.5 22 58T260 467l133 237q13 19 26 49.5t12 56.5l-1 67q-1 50-16 67.5T361 963l-112 4q-4 0-10 .5t-11 1.5q5 6 7 6 3 0 18.5-.5T291 973q24-1 52.5-2.5t52-2.5q23.5-1 33.5-1 14 0 44 2t59 4q21 1 37.5 2t21.5 1zM258 77q-9 0-15.5-7T236 54q0-9 6.5-15.5T258 32q10 0 16.5 6.5T281 54q0 9-6.5 16T258 77zm454 439q20-21 42.5-51.5t42.5-62q20-31.5 35-57t21-38.5q-69-21-125-52.5t-89-69Q606 148 606 110q0-4 1.5-18t4.5-30q3-16 6-26h-34q3 28 3 52 0 35-4.5 63T572 208q61 16 95 37t60 47q0 52-16.5 89T673 451q11 17 21 33.5t18 31.5zM34 77q11-6 26.5-10t42.5-4l90-1q-10-13-14-26L64 59q-11 3-19 7t-11 7zm224-14q9 0 9-9t-9-9q-8 0-8 9t8 9zm-26 886l20-2 49-187 72 40 15-71-118-204q3 31 6.5 67.5t5.5 65q2 28.5 2 37.5 0 49-7 97.5t-19 89Q246 922 232 949zm527 25q9 0 19-5t16-10q-2-7-8-24t-8-25L605 740l51 142q17 47 43.5 69.5T759 974zM93 814q28-3 71.5-13.5T259 771q1-7 1.5-14t1.5-14L38 812q29 5 55 2zm179 132l88-2q27-1 38-15.5t12-51.5l2-67q0-11-3.5-26.5T402 758q-4 19-8 37.5t-7 34.5l-74-41q-11 41-20.5 78T272 946zM91 975q1 0 6-.5t11-2.5q10-2 22-3.5t23-1.5q11 0 22 1t17 2l2-2q0-13 7-14l-107 7q-12 2-12 6 0 8 9 8z" fill="currentColor"/></svg>