<svg xmlns="http://www.w3.org/2000/svg" viewBox="0 0 601.6 506.7"><path d="M150.7 0c-17.8.1-36.1 3.3-53.4 5-21.1 10.4-42.5 2.5-64.7 10.6-16 7.3-20.5 22-27.1 36.8 39.5-13.3 64.2 6.5 100 15.7 0 13.9-2.2 29.6-3.2 45.4-4.2 43 18.1 80.7 50.5 107.5 23.2 52.2 55.2 92.2 78.6 133-.4 2.8-1.2 6.8-2.2 11.7-58.6 15.9-117.3 24.7-177.7 30-14.2 2-49.3-2.4-51.4 14.9-2.1 17.3 41.1 12.3 52.7 11.9 56.5-1.8 112.8-9.7 168.2-20.7-5.9 24.4-13 51-17.5 64.5-22.8 3.9-47.8 5.4-71 3.5-13.6-1.9-28.6 22.2-43.3 34.8l288.2 2.3c-7.8-27.8-64.6-41.8-79.5-40.1 6.4-18.6 14.4-36.1 16.7-62 8 7.3 17.1 15.2 28.3 16 13.8-1 19.4-10.6 21.1-23 31.2 52.2 66.1 94.8 130 101.1 22.1-1.1 49.6-10.9 55.6-34.7 29.3-1.7 7.8-30.6-3.1-41.9-34.3-37.6-66-77.5-97.3-117.7 70.3-51.6 121.1-113 152.6-193.8-57.8 12.7-115.2 8.5-172.2-4.9-1.5-34.2 10.9-66.4 25.3-96.7-25.4 2.6-50.6-1.6-75.2-7.6 0 .3.1.5.1.8 6.7 50.4-9.4 98.8-27.5 145.1 34-3.6 98.3-5 107.4 23.9 8.4 26.5-21.5 64.2-44.3 89.8-30.2-38.9-60.7-77.5-93.5-114.1C291.6 116.5 257.3 96 214.8 79c-3.2-7.9-4.2-19-6.3-31.3-2.2-13.4-9.3-35.4-22.2-42.2-11.4-4.3-23.4-5.6-35.6-5.5zm-6.8 18.2c3.2 14.9-2.7 32.1-13.8 37.1l3.6 7.7c13.9-6.7 27.3-26.8 29.3-44.8 19 1.1 24.2 15.6 27.2 32.5 3.6 11.5-.1 39.4 14.3 44.2 42.5 16.7 75 35.9 104.2 65.1 50.4 63.7 103 125.5 153.3 189.3 19.6 24.8 37.5 47.6 52 64.7-76.4-57.8-161.9-102-245.7-148-44.5-24.5-87.1-44.5-87.1-98.5 0-29 52.8-53.3 50.6-57.1-2.3-4-68.1 16.4-68.1 64.3 0 12.2 3.2 23.5 8.8 34h-.3c-60.7-32.7-51.1-98.7-48.7-157-25.3-1.4-46.1-15.4-70.1-21.2 18.6-2.4 37.2-5.6 55.9-7.5-3.5.7-6.7 2.8-8.8 5.7-.6 12.3 27.1 11 25.8 1.8-3.1-4.8-8.7-7.9-14.5-7.7 9.2-1.4 21.6-3.4 32.1-4.6zm256.4 3.7c8.9 1.7 17.9 2.5 26.9 2.6-12.5 28.6-18.8 60.1-16.1 91.4 55.9 22.8 101.3 24 159.7 18.6-29.3 68.7-72.8 113.4-131.5 157.3-4.3-5.5-8.5-11-12.8-16.5 23.5-26.4 54.9-65.9 53.6-101.7-1.5-41.7-60.7-45.9-101-44.4 12.8-34.3 22.8-70.4 21.2-107.3zM180.5 235.3c37.8 43 69.1 92.1 97 141.9 5.9 7.3-.7 14-5.6 21-18.4-59.1-60.7-104.7-91.4-162.9zm46.4 28.4c86.8 46.8 172.7 94 254.8 149 19.3 15.9 36.6 33.5 48.2 50.1-7.7 12.2-22.5 16.3-36.1 17.3-69.5-2.5-96.7-70.2-133.4-118.7l-20-24.5 3.4 31.4c.3 6.1 7 37.2-5.1 31.8l-35.1-42.5c-3.8 2.5-7.3 5.4-11.2 7.7-17.2-35.8-42.7-69-65.5-101.6zm23.3 129c5.5 13.4 8.3 27.6 11.4 41.7 8.9-7.3 17.5-14.7 24.7-23.6-4.7 26.1-13.6 52.4-35 52.4-13 0-19-8.9-10.7-35.8 3.9-12.7 7-24.9 9.6-34.7z"/></svg>