<svg xmlns="http://www.w3.org/2000/svg" viewBox="-10 0 1717 925"><path d="M190 925q7-25 20.5-42.5T245 862q21-3 48.5-8.5T333 843q11-5 22.5-21t19.5-30l70-125-25-154q-51-16-98.5-42t-85-58Q199 381 177 345.5T155 275q-13 6-24 20t-17 40q-3 19-10 36t-27 17q-13 0-23.5-13.5T43 337q0-24 19-49t50-43l73-41 67-58q6-6 14-13.5t8-13.5q0-6-13-7.5t-35-1.5q-6 3-29.5 12T140 143.5Q107 156 70.5 170T1 196l-11-27q31-18 65.5-38.5T120 92q30-18 50-30.5T193 47q12-11 35.5-29T287 0q27 0 54.5 19.5T372 73q2 26-7.5 47.5T337 160l-71 70q-5 5-13.5 14t-8.5 12q0 3 3 3 4 0 13-4 20-7 57.5-19.5T397 223q32 0 64.5 8t65.5 21q3-12 12-26t27-31l57-49q6-6 14-13.5t8-13.5q0-6-13-7.5t-35-1.5q-6 3-29.5 12T511 143.5Q478 156 441.5 170T372 196l-11-27q31-18 65.5-38.5t65-38.5Q522 74 542 61.5T565 47q11-11 34.5-29T658 0q27 0 54.5 19.5T743 73q2 26-7 47.5T708 160l-71 70q-5 5-13.5 14t-8.5 12q0 3 3 3 4 0 13-4 20-7 57.5-19.5T768 223q31 0 64.5 8t66.5 21q2-12 11-26t27-31l57-49q7-6 14.5-13.5t7.5-13.5q0-6-12.5-7.5T968 110q-6 3-29.5 12T882 143.5Q849 156 812.5 170T743 196l-11-27q31-18 65.5-38.5t65-38.5Q893 74 913 61.5T936 47q11-11 35-29t58-18q27 0 54.5 19.5T1114 73q2 26-7 47.5t-28 39.5l-71 70q-5 5-13.5 14t-8.5 12q0 3 3 3 4 0 13-4 20-7 57.5-19.5T1139 223q42 0 86.5 13.5T1314 271q44 21 82.5 43.5T1465 356q18 11 31.5 19.5T1517 387q18 9 51.5 25t70 33.5Q1675 463 1705 477v24q-5 1-9.5 1.5t-9.5.5l21 26-90 60-81-33q-1 0-20-6t-35-6q-6 0-18 3-9 1-21.5 2.5T1413 551q-14-1-31-4.5t-25-10.5q4 18 14.5 53.5t23 76Q1407 706 1417 739l-3 107 27 9q51 17 65 70h-16q-10-11-33-15t-46.5-5q-23.5-1-34.5-1-13 0-31.5 1.5t-36.5 3q-18 1.5-27 1.5-10 2-23 4t-20 11h-16q7-25 22-43.5t35-21.5l76-14-4-87q0-13-5-35.5t-18-42.5q-7-10-23-28.5t-36-39.5l-24 74-105 165q36 12 52.5 28.5T1216 925h-16q-10-11-33-15t-46.5-5q-23.5-1-34.5-1-13 0-31.5 1.5t-36.5 3q-18 1.5-27 1.5-10 2-23 4t-20 11h-16q1-5 2.5-9t3.5-8l-28 2q-11 2-23 4t-20 11h-16q7-25 21.5-43.5T908 860l75-14-3-87q0-13-4.5-35.5T957 681q-7-10-23-28.5T898 613l-24 74-105 165q36 12 52 28.5t24 44.5h-16q-10-11-33.5-15t-47-5q-23.5-1-34.5-1-12 0-31 1.5t-36.5 3Q629 910 620 910q-11 2-23 4t-20 11h-16q2-5 3-9l2-8-27 2q-11 2-23.5 4T496 925h-16q7-25 21.5-43.5T537 860l75-14-4-87q1-13-4-35.5T586 681q-7-10-23-28.5T527 613l-24 74-105 165q36 12 52 28.5t24 44.5h-16q-10-11-33.5-15t-47-5q-23.5-1-34.5-1-12 0-31 1.5t-36.5 3Q258 910 249 910q-11 2-23.5 4T206 925zm442-66q5-1 10-1.5t10-1.5l3-117q-11-39-24-83.5t-23.5-81Q597 538 593 525l23-10q8 5 23 11t31 6q15 0 27.5-2t21.5-3q5-1 10-1.5t9-.5q15 0 32 4.5t25 6.5l-3-23q-14-3-22-7-29-2-59.5-4t-64.5-4q-71-5-143-20.5T371 441q-60-21-96-44.5T239 351q0-28 18.5-45t35.5-23l5 17q-13 4-26 17t-13 34q0 19 34.5 39t91.5 38q57 18 125.5 31.5T647 478q17 2 34.5 3t34.5 2q-53-25-96-59t-69-73q-26-39-26-79-32-14-64.5-21.5T397 243q-39 0-76.5 10.5T263 272q-13 5-19 5-8 0-14-4.5t-6-16.5q0-8 10.5-20t16.5-18l71-70q16-16 23.5-33t6.5-40q-2-27-22.5-41T287 20q-25 0-43.5 11.5T213 54q1 9 5.5 18.5T228 90q32-2 48.5 7t16.5 22q0 11-9.5 21.5T265 159q-32 27-46 39t-18 16q-4 4-5 6l-73 40q-27 15-44 36.5T62 337q0 31 15 31 9 0 12-11t5-25q5-30 26-53.5t59-31.5q-3 8-4 16.5t-1 12.5q0 25 22 56.5t59 64q37 32.5 84 59.5t97 42q8 8 31 30.5t51 50.5q28 28 52 53.5t33 39.5q14 22 19.5 46.5T628 758zm372 0q4-1 9-1.5t10-1.5l3-117q-11-39-24-83.5t-24-81Q967 538 964 525l23-10q8 5 23 11t32 6q14 0 26.5-2t21.5-3q5-1 10-1.5t9-.5q15 0 32.5 4.5t24.5 6.5l-3-23q-14-3-22-7-28-2-59-4t-65-4q-71-5-143-20.5T742 441q-60-21-96-44.5T610 351q0-28 18.5-45t35.5-23l5 17q-13 4-26 17t-13 34q0 19 34.5 39t91.5 38q57 18 125.5 31.5T1018 478q17 2 34.5 3t34.5 2q-52-25-95.5-59t-69-73Q897 312 897 272q-33-14-65.5-21.5T768 243q-39 0-76.5 10.5T634 272q-13 5-19 5-8 0-14-4.5t-6-16.5q0-8 10.5-20t16.5-18l71-70q16-16 24-33t6-40q-2-27-22.5-41T658 20q-24 0-43 11.5T584 54q3 19 15 36 32-2 48.5 7t16.5 22q0 11-9.5 21.5T636 159l-59 51q-18 16-25 34.5t-7 27.5q4 46 41.5 90.5t95.5 80Q740 478 807 498q8 8 31 30.5t51 50.5q28 28 52 53.5t33 39.5q15 22 20.5 46.5T999 758zm280 34q21-2 49-4.5t43-2.5q14 0 34.5 1t33.5 3l-2-15-48-16 4-120q-11-39-24.5-83.5t-24-81Q1339 538 1336 525l22-10q8 5 23.5 11t31.5 6q14 0 26.5-2t21.5-3q5-1 10.5-1.5t9.5-.5q14 0 32 4t30 8l72 30q18-13 32-22t33-21l-18-19q-19 1-37.5 1.5t-36.5.5q-43 0-92-2.5t-108-6.5q-71-5-143-20.5T1113.5 441q-59.5-21-95.5-44.5T982 351q0-28 18-45t35-23l5 17q-13 4-26 17t-13 34q0 19 34.5 39t92 38q57.5 18 125.5 31.5t136 18.5q53 4 106 6.5t93 3.5h95l-173-83q-10-5-23.5-13t-30.5-19q-29-18-67-40.5t-80.5-42.5q-42.5-20-86-33.5T1139 243q-39 0-76.5 10.5T1005 272q-13 5-19 5-7 0-13.5-4.5T966 256q0-8 10.5-20t16.5-18l71-70q17-16 24-33t6-40q-2-27-22.5-41T1029 20q-24 0-43 11.5T955 54q3 19 15 36 32-2 48.5 7t16.5 22q0 11-9.5 21.5T1007 159l-59 51q-18 16-25 34.5t-6 27.5q4 46 41 90.5t95 80q58 35.5 125 55.5 8 8 31 30.5t51 50.5q28 28 52 53.5t33 39.5q15 22 20.5 46.5t4.5 39.5l5 105-89 16zM1011 64q-13 0-13-13 0-14 13-14t13 14q0 13-13 13zm-742 0q-14 0-14-13 0-14 14-14 13 0 13 14 0 13-13 13zm371 0q-13 0-13-13 0-14 13-14t13 14q0 13-13 13zM9 180l202-84q-4-7-7.5-14.5T198 67q-13 7-46 25t-73 40q-40 22-74 40zm371 0l202-84q-5-7-8-14.5T569 67q-12 7-45 25t-73 40q-40 22-74 40zm372 0l201-84q-4-7-7.5-14.5T940 67q-13 7-45.5 25T822 132q-40 22-74 40zM252 893q21-2 49-4.5t42-2.5q15 0 35.5 1t33.5 3l-2-15q-3-2-9.5-5.5T386 865q-5-1-7.5-6t4.5-16l101-162 29-82-38.5-38.5L443 530l22 139-67 122q-9 16-21 37.5T348 857q-16 7-44.5 13t-49.5 9zm742 0q21-2 49-4.5t43-2.5q14 0 34.5 1t33.5 3l-2-15q-3-2-9.5-5.5T1128 865q-5-1-7-6t5-16l100-162 29-82-38.5-38.5L1186 530l22 139-68 122q-9 16-21 37.5t-29 28.5q-15 7-44 13t-50 9zm-371 0q21-2 49-4.5t42-2.5q15 0 35 1t34 3l-2-15q-3-2-9.5-5.5T757 865q-5-1-7.5-6t4.5-16l101-162 29-82q-19-20-38-38.5T815 530l22 139-68 122q-9 16-21.5 37.5T719 857q-15 7-44 13t-50 9zm48-41q10-2 18.5-4.5T704 843q11-5 22.5-21t19.5-30l70-125-18-111q-11-3-29.5-7.5T738 544q-3 0-7 1t-10 2q-9 1-21.5 2.5T670 551q-13-1-30.5-4.5T614 536q5 18 15 53.5t23 76q13 40.5 23 73.5zm372 0q9-2 17.5-4.5t14.5-4.5q11-5 22.5-21t19.5-30l70-125-17-111q-12-3-30.5-7.5T1109 544q-2 0-6.5 1t-10.5 2q-9 1-21 2.5t-29 1.5q-13-1-31-4.5T985 536q4 18 15 53.5t23 76q12 40.5 23 73.5zm-130 41q4-1 14-1.5t20-1.5q7-12 19-20l-51 9zm-371 0q5-1 14-1.5t20-1.5q7-12 19-20l-51 9zm329 17q3-4 11.5-9.5T898 893l1-11q-6 2-14.5 9T871 910zm615 0q-5-12-13.5-19t-14.5-9l2 11q7 2 15 7.5t11 9.5zm-1276 0q3-4 11-9.5t15-7.5l2-11q-6 2-14.5 9T210 910zm244 0q-5-12-13.5-19t-14.5-9l1 11q8 2 16 7.5t11 9.5zm46 0q3-4 11-9.5t15-7.5l2-11q-6 2-14.5 9T500 910zm742 0q3-4 11-9.5t16-7.5l1-11q-6 2-14.5 9t-13.5 19zm-661 0q3-4 11.5-9.5T608 893l1-11q-6 2-14.5 9T581 910zm615 0q-5-12-13.5-19t-14.5-9l2 11q7 2 15 7.5t11 9.5zm-371 0q-5-12-13.5-19t-14.5-9l1 11q7 2 15.5 7.5T825 910zm127 0q3-4 11-9.5t16-7.5l1-11q-6 2-14.5 9T952 910z" fill="currentColor"/></svg>