<svg xmlns="http://www.w3.org/2000/svg" viewBox="0 0 593 371.4"><path d="M66.9 140.6c-9.9.3-14.7 8.6-14.4 25-6.1 12.4-12.9 12-20.5-1.1 0-20 11.1-35.3 33.4-45.9-.3 2.3-.1-.6.6-8.5.6-8 8.3-25.1 22.9-51.4-9.4-4-17.9-3.6-25.6 1.3-7.7 4.9-21.4 14.7-41.2 29.4-26.6 16.7-29.2 13-8-11C31.1 60.7 47 45.3 62 32.1 69.5 14.2 79 3.9 90.4 1.4c17.2-1.5 27.6 1.5 31.1 9.1 8.6 13.4 8.9 25.5.8 36.4-18 26-27.3 48.2-28.1 66.4 25.5-19.2 53.5-19.3 83.8-.4.5-9.9 8.2-27.9 23.1-54.2-9.4-4-17.9-3.6-25.6 1.3-7.7 4.9-21.6 14.7-41.5 29.4-26.3 16.7-28.8 13-7.6-11 16.7-17.7 32.6-33.1 47.8-46.3 7.6-18 17.1-28.2 28.4-30.7 17.2-1.5 27.4 1.5 30.7 9.1 8.9 13.4 9.2 25.5 1.1 36.4-18 26-27.3 48.2-28.1 66.4 25.8-19.2 53.4-19.7 82.7-1.5.8-9.6 8.6-27.6 23.5-53.9-9.4-4-17.9-3.7-25.6 1.1-7.7 4.8-21.6 14.7-41.5 29.6-26.3 16.7-28.8 13-7.6-11 16.7-17.7 32.6-33.1 47.8-46.3C293.2 13.3 302.7 3 314 .2c17.2-1.3 27.4 1.9 30.7 9.5 8.9 13.1 9.2 25.3 1.1 36.4-18 25.8-27.3 47.9-28.1 66.4 25.5-22 59.5-17.9 101.8 12.3 42.4 30.2 74.6 54.7 96.7 73.4 22.1 18.7 46.3 29.5 72.6 32.2 6.1 5.1 4.9 16.9-3.4 35.7-8.6 5.1-18.1 6.1-28.6 3-10.5-3-23.8-6.1-39.8-9.3-16.1-3.2-28.6-5.2-37.7-6.3l-5.3 13.3c-4.3 2.8-8.6 4-12.9 3.8l2.3 4.6c2.3 4 2.3 16.8 0 38.3-2.3 21.5-1.9 34.6 1.1 39.4 18.5 2.8 26.4 8.6 23.9 17.4-2.3-4.3-5.4-5.5-9.3-3.6-3.9 1.9-8.4 1.8-13.5-.2-4.6 0-9.9.9-15.9 2.7-6.1 1.8-20 1.1-41.7-1.9l-12.1 3c0-9.4 2.9-14 8.7-14 6.3 1.5 12.4 2.3 18.2 2.3 19.5 1.8 29.4-9.7 29.8-34.5.4-24.8-1.7-40.2-6.3-46.3l-7.2-9.9c-6.3-1.8-21.7-4.9-46.3-9.5l3.4 13.3c0 6.6-4.9 18.3-14.6 35.1s-15.9 32.1-18.4 45.7c12.9 0 20.6 2.5 23.1 7.6 0 2.5-1 4.8-3 6.8-2.5-2.8-6.8-4-12.9-3.8l-44.4 7.2-15.6-5.3c-6.3 3.3-11.3 4.3-14.8 3-3.5-1.3-7-.5-10.2 2.3-1.3-8.6 4.3-14 16.7-16.3l26.6 3.4c18.2-7.3 34.9-33.9 50.1-79.7L365.9 253c-.5 4.3-1.9 8.9-4.2 13.7-3.5 2-7.7 3.3-12.5 3.8-3.8.5-2.7 3 3.4 7.6 1.8 2.8 1.5 14.9-.8 36.2-2.3 21.4-1.9 34.5 1.1 39.3 18.5 3 26.4 8.9 23.9 17.4-2.3-4-5.4-5.2-9.3-3.4-3.9 1.8-8.4 1.8-13.5 0-4.6 0-9.9.9-15.9 2.7-6.1 1.8-20 1-41.7-2.3l-12.1 3c0-9.4 2.9-14 8.7-14 6.3 1.5 12.4 2.3 18.2 2.3 19.5 1.8 29.4-9.7 29.8-34.5.4-24.8-1.7-40.2-6.3-46.3-2.3-2.8-4.7-6.3-7.2-10.6-6.6-1.8-18.1-4.2-34.5-7.2-5.3-1.3-9.5-2.3-12.5-3l4.2 14.8c0 6.6-4.9 18.3-14.6 35.3-9.7 16.9-15.9 32.1-18.4 45.5 12.9 0 20.6 2.5 23.1 7.6 0 2.5-1 4.8-3 6.8-2.5-2.8-6.8-4-12.9-3.8l-44.4 7.2-15.6-4.9c-6.3 3-11.3 3.9-14.8 2.7-3.5-1.3-7-.5-10.2 2.3-1.3-8.6 4.3-14 16.7-16.3l26.6 3.4c18.2-7.3 34.9-33.9 50.1-79.7L255 254.8c-9.6-1.3-18.5-1.6-26.6-1.1l11.4 22.4c2.5 4.3 2.6 17.1.2 38.5s-2 34.5 1.3 39.3c18.2 3 26.2 8.9 23.9 17.4-2.5-4-5.8-5.2-9.7-3.4-3.9 1.8-8.4 1.8-13.5 0-4.6 0-9.9.9-15.9 2.7-6.1 1.8-20 1-41.7-2.3l-12.1 3c0-9.4 3-14 9.1-14 6.1 1.5 12 2.3 17.8 2.3 19.7 1.8 29.7-9.7 30-34.5.3-24.8-1.9-40.2-6.4-46.3-5.3-7.1-14.3-15.9-26.9-26.6-12.6-10.6-21-15.9-25-15.9-1.5 0-2.8 1.7-4 5.1-1.1 3.4.8 13.8 5.9 31.3.3 6.6-4.6 18.3-14.4 35.3-9.9 16.9-16.1 32.1-18.6 45.5 12.9 0 20.6 2.5 23.1 7.6 0 2.5-1 4.8-3 6.8-2.5-2.8-6.8-4-12.9-3.8l-44 7.2-15.6-4.9c-6.6 3-11.6 3.9-15 2.7s-6.9-.5-10.4 2.3c-1.3-8.6 4.4-14 17.1-16.3l26.2 3.4c18.2-7.3 34.9-33.9 50.1-79.7l-33.8-64.1c-19.5-15.9-33.6-31.9-42.3-47.8-8.8-16-12.9-24.8-12.4-26.3zM93.8 27.2c1-4-.6-6.7-4.9-8-4.3-1.5-7.1-.1-8.3 4.2-1.5 4.3-.1 7.1 4.2 8.3 4.5 1.6 7.5.1 9-4.5zM139 221c2.8 6.8 10.2 18.8 22.4 36l-3-25.8c-4.9-1.7-11.4-5.1-19.4-10.2zm66.7-193.8c1.3-4-.3-6.7-4.6-8-4.3-1.5-7.2-.1-8.7 4.2-1.3 4.3.3 7.1 4.6 8.3 4.5 1.6 7.5.1 8.7-4.5zM251.2 221c2.5 6.8 10 18.8 22.4 36l-3-25.8c-4.8-1.7-11.3-5.1-19.4-10.2zM574 241.5l-42.5-4.6c-67.3-3-113.2-11.8-137.7-26.2-24.5-14.4-40.7-26.3-48.4-35.7-7.7-9.4-10-16.9-6.8-22.6 3.2-5.7 10.9-9.7 23.3-11.9 3.8 2.3 5.7 4.4 5.7 6.4s-3.2 5.2-9.5 9.7c-6.3 4.4-4 11.4 6.8 21.1 10.9 9.6 28.3 19.5 52.2 29.6 23.9 10.1 55.9 14.9 96.2 14.4 5.6-2.8-1.7-11.3-21.8-25.4-20.1-14.2-47.2-33.4-81.2-57.8s-59.7-30.9-77-19.5c-17.3 11.4-25 19-22.9 22.8 11.4 28.6 34.6 52.6 69.8 72.1 35.1 19.5 62.2 29.1 81.2 28.8 19-.3 36.2 1.3 51.6 4.6 15.4 3.3 29.4 5.5 41.9 6.6 12.5 1.1 18.9-3 19.1-12.4zM317.2 26.4c1.3-4.3-.3-7-4.6-8-4.3-1.5-7.2-.1-8.7 4.2-1.3 4.3.3 7.1 4.6 8.3 4.6 1.6 7.5.1 8.7-4.5zm45.6 193.9c2.5 6.8 10 18.8 22.4 36l-3-25.8c-4.9-1.8-11.4-5.2-19.4-10.2zm-54.7 31.8c-12.6-10.6-21.5-16.1-26.6-16.3-2 1.5-2.1 5.1-.4 10.6l26.9 5.3v.4zm111.5-.7c-12.6-10.6-21-15.9-25-15.9-3.5 1.5-4.7 5.4-3.4 11.8l28.4 4.1zm47.1.7l-14.4.4.4 4.6c6.5.2 11.2-1.4 14-5zm-110 1.6h-14.4l.4 4.6c6.5.4 11.2-1.1 14-4.6zM178.8 140.2c-9.9.3-14.7 8.6-14.4 25-6.3 12.4-13.1 12.1-20.5-.8 1.8-20.2 8.7-33.3 20.9-39.1-19.5-13.9-37.9-15.5-55.2-4.7-17.3 10.7-25 18-22.9 21.8 11.4 28.6 34.7 52.7 70 72.3 35.3 19.6 66.2 29.1 92.7 28.6l-6.1-11c-33.1-4.8-59.7-13.1-79.7-24.8-20-11.8-33.9-22.3-41.7-31.7-7.8-9.4-10.2-16.9-7-22.6 3.2-5.7 10.9-9.7 23.3-11.9 3.8 2.3 5.7 4.4 5.7 6.4 0 2.3-3.1 5.6-9.3 10.1-6.2 4.4-3.9 11.4 6.8 20.9 10.7 9.5 25.2 18.1 43.2 25.8 18.1 7.7 35.3 12.7 51.8 15l-3-4.9c-19.5-15.9-33.9-32.7-43.4-50.4-9.5-17.8-13.2-25.7-11.2-24zm110.7-.3c-9.9.3-14.7 8.6-14.4 25-6.1 12.1-12.9 11.8-20.5-1.1 3.3-19.7 10.9-33.1 22.8-40.2-19.7-12.4-38.2-13.3-55.6-2.7-17.3 10.6-25 17.8-22.9 21.6 11.4 28.6 34.6 52.7 69.8 72.3 35.1 19.6 66 29.1 92.6 28.6l-6.1-11h.4c-33.1-4.8-59.7-13.1-79.8-24.8-20.1-11.8-34-22.3-41.7-31.7-7.7-9.4-10-16.9-6.8-22.6 3.2-5.7 10.9-9.7 23.3-11.9 3 2.3 4.6 4.4 4.6 6.4 0 2.3-3 5.6-8.9 10.1-5.9 4.4-3.5 11.4 7.4 20.9 10.9 9.5 25.4 18.1 43.4 25.8 18.1 7.7 35.3 12.7 51.8 15l-3.8-5.7c-19.5-15.9-34.1-33-44-51.2-7-12.7-10.8-20.3-11.6-22.8z"/></svg>