<svg xmlns="http://www.w3.org/2000/svg" viewBox="-10 0 841 1030"><path d="M121 1030q7-29 22.5-47.5T182 960q23-3 53-9t44-12q13-6 22-23t15-40l43-180q-1-4-5-25.5T344 621q-6-28-13.5-54.5T315 525l-49-41q-10-8-24.5-27.5T218 420l-74-164q-5-11-7.5-19.5T134 220q0-12 6.5-22.5T163 177l-1 1q3-3 17.5-12.5t33-22Q231 131 247 120q4-2 9-5.5t8-7.5q-11 2-28.5-2T202 92L-7 110l-3-27 195-59q10-11 30.5-17.5T268 0q23 0 43 6.5T343 30l194 155-36 42-156-107q-12 24-32.5 39.5T273 184q-19 9-28 12l48 1q66 2 115.5 29t87 68.5Q533 336 562 379l269 401-23 20-18-11 27 44H665q-11-30-32-58t-46.5-51Q561 701 539 686q4 17 6 35t2 37q0 12-.5 36t-1.5 52q-1 28-2 54.5t-2 43.5l25 9q29 11 45.5 28.5T637 1030h-16q-11-11-37-16t-52-6q-26-1-38-1-14 0-35 1.5t-40.5 3Q399 1013 389 1014q-12 1-25.5 3.5T341 1030h-15q1-6 3-11.5t4-10.5q-14-1-25.5-1H289q-14 0-35 1.5t-40.5 3Q194 1013 184 1014q-12 1-25.5 3.5T136 1030zm271-35q23-2 54-5t48-3q17 0 39 2t37 3l-2-17-47-18q0-14 1.5-41.5t2.5-59q1-31.5 2-58.5t1-40q0-19-6-51.5T506 644q19 7 45 25.5t52.5 42.5q26.5 24 48 50.5T683 813h99l-30-48-350-220q-21-14-45-32.5T313.5 477Q294 460 287 450q-9-13-25-37.5t-29-56Q220 325 220 292q0-18 14-29.5t34.5-17Q289 240 307 239l1 20q-23 1-46 8.5T239 292q0 31 11.5 59t26 50q14.5 22 23.5 35 7 10 26.5 26.5t43 34.5q23.5 18 43.5 32l390 246-258-385q-28-42-62.5-81t-81-64.5Q355 219 292 217h1l-69-2-2-29q25-6 51.5-21t45-37.5Q337 105 337 74t-21-43q-21-12-48-12-39 0-56.5 10T194 48q0 14 12.5 23t28 13q15.5 4 23.5 4 12 0 20.5.5T287 100q0 10-10 20.5T257 137q-2 1-14.5 9.5T214 166q-16 11-28 19.5l-12 8.5q-21 13-21 26 0 5 2.5 13t6.5 15l73 164q8 17 20.5 33t22.5 24l124 104q18 16 37 44t35 61q16 33 26 64t10 53l-5 164-111 20zM235 58q-13 0-13-14 0-13 13-13 14 0 14 13 0 14-14 14zM14 88l161-32V45zm496 101l2-2L355 62q1 3 1 12zM16 98l168-22q-4-4-6-11zm482 105l2-2L354 94l-2 9zM187 995q23-2 54.5-5t47.5-3q13 0 27.5 1t26.5 2q4-5 8-9.5t8-8.5q-2-1-6.5-4t-12.5-5q-6-2-5-10t5-23l84-302q-8-12-17-22.5T390 588l-43-35q10 31 19 72.5t13 69.5l-43 184q-5 23-14.5 45.5T294 954q-17 8-49.5 15T189 979zm195-34l104-20 5-147q-1-28-16-68.5T438 650l-84 300q17 5 28 11zm235 52q-5-14-14.5-21.5T586 982l1 13q8 2 17 8t13 10zm-272 0q4-4 13-10t17-8l2-13q-7 2-16.5 9.5T345 1013zm-205 0q4-4 13-10t17-8l2-13q-7 2-17 9.5t-15 21.5z" fill="currentColor"/></svg>