<svg xmlns="http://www.w3.org/2000/svg" viewBox="0 0 471.8 594.6"><path d="M94.6 29.5c10.3-1.3 23.6 1.9 39.9 9.7 8.2 7.3 23 8.9 44.4 4.8 21.5-4.1 24.6-10.6 9.3-19.6-15.2-9-32.9-12.2-53.1-9.7L94.6 25.6v3.9zM343.7 395c-.9-8.6-5.4-15.9-13.5-21.9-39.5-21.5-79.2-53.2-119.1-95.3-39.9-42-56.4-73.4-49.6-94 2.1-9.9 8.4-14.1 18.7-12.6 10.3 1.5 22.3 1.8 36 1-.4-5.1-12-7.9-34.8-8.4-22.7-.4-40.9-1.9-54.4-4.5s-18.1 4.8-13.8 22.2c4.3 17.4 18.6 43.2 42.8 77.6 24.2 34.3 50.8 63.5 79.8 87.5s44.5 54.1 46.7 90.1c6-35.6 12.4-51.4 19.3-47.3 6.9 4.2 20.9 6.1 41.9 5.6zM135.2 22.4c12-5.6 19.5-4.7 22.5 2.6 1.3 5.6-1.9 8.9-9.7 10-7.7 1.1-12.2-1.8-13.5-8.7l.7-3.9zm92 158.3c-5.1 4.3-14.8 5.9-29 4.8-14.2-1.1-21.9.5-23.2 4.8-3 9.9 5.7 28.5 26.1 56 20.4 27.5 46.9 52.8 79.5 75.9 32.6 23.2 52.3 36 59.2 38.6 6 2.6 12 .9 18-5.1-4.7-3.4-23.2-32-55.4-85.6-32.1-53.6-57.2-83.4-75.2-89.4zm139 181.5c-3.9 6.4-10.1 9.2-18.7 8.4l14.2 7.1c5.6-.4 10.1-2.8 13.5-7.1l-9-8.4zm16.1 16.7c-.9 3.4-4.3 5.1-10.3 5.1l10.3 8.4c6.9 1.3 10.3-.9 10.3-6.4l-10.3-7.1zm20.6 15.5c-2.1 2.1-5.1 3.6-9 4.5l10.3 8.4c3.9-.9 7.1-2.1 9.7-3.9-1.8-2.6-5.4-5.6-11-9zm21.2 16.1l-9 3.2 9.7 6.4c4.3 0 6.9-1.3 7.7-3.9l-8.4-5.7zm17.4 13.5l-6.4 1.9 15.4 10.3-9-12.2zm-81.7-25.1l4.5 16.1-20-5.8c33.5 35.6 55.4 54.7 65.6 57.3 15.9 6 28.7 6 38.6 0l-88.7-67.6zM234.3 572.7c27 3 40.7-19.5 40.9-67.6.2-48.1-7.6-86.9-23.5-116.5v30.2c0 11.6-7.3 32.2-21.9 61.8-14.6 29.6-25.5 58.1-32.8 85.6 18-.8 30.4 1.3 37.3 6.5zm1.9-151.9c1.3-15.9 1.1-29.8-.6-41.8-8.6-12-20.6-26.4-36-43.1 15.4 27.8 27.6 56.1 36.6 84.9zm-29-402.9c35.2 19.3 89.9 25.5 164.1 18.7l-14.2 23.2c-69.9-1.7-110.5-6.9-121.6-15.4 12.9 10.3 53.6 20.8 122.3 31.5l-9.7 21.9c-56.2-12.4-95-23.8-116.5-34.1 0 18.5-15 32.8-45.1 43.1-30 10.3-45.1 17.4-45.1 21.2-.4 4.7 14.2 9.3 43.8 13.8 29.6 4.5 56.5 21.5 80.8 50.8 24.2 29.4 51.2 71.1 80.8 125.2 14.2 21 33.7 41.2 58.6 60.5 24.9 19.3 44.4 38.8 58.6 58.6 3.9 10.3 1.1 14.4-8.4 12.2-3.9-1.3-16.5-8.8-38-22.5l-.6.6 54.7 40.5c-9.9 9.4-21.6 15-35.1 16.7-13.5 1.7-27.8-.6-42.8-7.1-16.3-11.6-39.9-32.2-70.8-61.8-17.2-7.7-26.2-1.9-27 17.4 0 13.3-1.1 34.6-3.2 64s-2.4 54-.6 73.7c29.6-.4 42.7 7.1 39.3 22.5-3-7.7-7.3-9.5-12.9-5.5-5.6 4.1-13.9 4.4-25.1 1-6.4-1.7-13.9-.9-22.5 2.6-6.4 2.6-18.4.9-36-5.1.9 3-.4 5.8-3.9 8.4-3.9-6.4-8.9-10.2-15.1-11.3-6.2-1.1-27.8 1.6-64.7 8L130 583c-9 5.1-16 6.7-20.9 4.5-4.9-2.1-9.8-.9-14.5 3.9-1.7-15 6.2-23.6 23.8-25.7l36.7 3.2c24.9-12.4 48.1-58.8 69.5-139l-48.3-112.6c-48.1-70.4-74.4-116.3-79.2-137.7-4.7-21.9-4.7-40.5 0-56 4.7-15.4 21.7-27.8 50.8-37 29.2-9.2 43.7-17.1 43.4-23.5-.2-6.4-8.8-8-25.7-4.8s-33.6-1-49.9-12.6c-12-4.7-48.5-6.4-109.4-5.1-4.2.2-6.3-1.7-6.3-6s2.1-6.7 6.4-7.1c33.9-2.1 62.2-6.4 85-12.9l39.9-12.2c27.9-6 53.2-.8 75.9 15.5z"/></svg>