<svg xmlns="http://www.w3.org/2000/svg" viewBox="0 0 595.3 528.2"><path d="M284.5 309.6c-61.9-55-106.7-97.2-134.5-126.4-27.7-29.2-41.6-54.2-41.6-74.8.4-16.3 16.9-24.5 49.3-24.5s48.7-3 48.7-9c0-4.7-7.5-9.7-22.6-14.8-28.8 0-50.5-7.5-65.1-22.6-12-6.9-49.9-14.6-113.5-23.2C1.3 12.6-.4 9.8 0 5.9.5 1.9 3.1 0 7.8 0c35.7 4.7 66 7.1 90.9 7.1l43.2-5.2c26.2 0 51.4 10.1 75.5 30.3C235 52 279.5 61.1 350.9 59.3v26.4c-42.6-.4-80.6-6.7-114.2-18.7 4.3 21.5-7.2 33.3-34.5 35.5-27.3 2.1-41 5.6-41 10.3-.9 5.6 16.8 8 52.9 7.1 36.1-.9 68.5 6.7 97.1 22.6 28.6 15.9 58.5 38.5 89.6 67.7 31.2 29.2 63.4 49.1 96.7 59.7 33.3 10.5 56.5 21.2 69.7 31.9s13.7 17.2 1.6 19.3c-4.3 0-19.6-3.4-45.8-10.3v.6l72.2 24.5c-9.9 11.6-21.1 20.5-33.5 26.8-12.5 6.2-27.5 8.7-45.1 7.4-19.3-6-46.4-19.3-81.3-40-22.4-10.7-58.7-15.5-109-14.2 6 16.3 3.9 24.7-6.4 25.2l-74.8-9.7c5.6 3.4 8.2 12.5 7.7 27.1-22.4-19.8-40.6-29.2-54.8-28.4v37.4l56.8 131.6h29v-43.9h31.6v72.9H51.7v-72.9H80v44.5h29.7l60-132.2V327c-41.7-6.9-77.6 2.1-107.7 27.1 0-22.8 3-34.8 9-36.1-6.4-3.9-15.5.6-27.1 13.5 0-18.5 6.7-29.5 20-32.9h68.4c19.8-10.3 35.7-15.5 47.7-15.5s27.8 4.6 47.4 13.9c19.6 9.2 38.6 13.4 57.1 12.6zM98.7 20c11.2.9 24.3 6.7 39.3 17.4 11.2 7.7 26.8 11.9 46.8 12.6 20 .6 21.5-5.5 4.5-18.4-17-12.9-32.4-19.3-46.1-19.3l-44.5 3.9V20zm345.1 285.1c-12.5-15-21.3-22.6-26.4-22.6-40-9.5-86.1-24.5-138.3-45.1-52.2-20.6-78.4-42.6-78.4-65.8 0-11.6 5.8-18.1 17.4-19.3 11.6-1.3 22.1-4.9 31.6-11-2.6-4.7-18.6-6.8-48-6.1-29.5.6-48.9.5-58.4-.3-9.5-.9-4.7 9.6 14.2 31.3 18.9 21.7 67.3 68 145.1 139h141.2zM134.9 25.2c.4-4.3 4.5-6.6 12.3-6.8 7.7-.2 11.6 2.4 11.6 7.7 0 5.4-4 7.6-11.9 6.8-8.1-.9-12-3.4-12-7.7zm138 42.5c23.2 4.3 45.6 7.3 67.1 9v-6.4c-16.8 0-39.2-.9-67.1-2.6zm-11.6 76.8c0 6.4-7.3 11.3-21.9 14.5-14.6 3.2-21.9 8.1-21.9 14.5 0 10.7 12.7 22.3 38.1 34.5 25.4 12.3 56.9 25.5 94.5 39.7 37.6 14.2 61.2 21.9 70.6 23.2 9 0 15-3 18.1-9-2.1-2.6-25.5-22-70-58.4s-80.5-56-107.5-59zm189.6 118.6c-2.1 7.3-7.5 12-16.1 14.2l16.1 2.6c6-2.6 9.7-6.4 11-11.6l-11-5.2zm21.3 11c.4 3.9-2.4 6.9-8.4 9l12.3 4.5c7.3-.9 10.1-3.9 8.4-9l-12.3-4.5zm25.7 9.7c-1.3 2.1-3.9 4.5-7.7 7.1l12.9 5.2c4.3-2.1 7.1-4.7 8.4-7.7-2.6-1.8-7.1-3.3-13.6-4.6zm26.5 8.4l-7.7 6.4 11.6 3.9c4.3-1.3 6.2-3.4 5.8-6.4l-9.7-3.9zm21.9 8.3l-5.8 4.5 18.7 4.5-12.9-9zm-90.9-.6l10.3 16.8h-21.9c45.1 25.4 71.6 38.1 79.3 38.1 21.5 0 37.4-5.4 47.7-16.1l-115.4-38.8zM169.7 499.8V443l-25.8 56.8h25.8zm52.9-.6l-25.2-56.1v56.1h25.2z"/></svg>