<svg xmlns="http://www.w3.org/2000/svg" viewBox="-10 0 893 1005"><path d="M-10 1005V863h49v94h161l57-77V539q-10 1-32 4.5t-47 8q-25 4.5-46 8.5v-38q25-11 57.5-21.5t62-18Q281 475 299 476q10 1 38.5 3t63.5 5q35 3 65 5l-31-42q-6-2-27-12t-48-26q-27-16-52-38-37-32-62.5-66T220 243q0-21 9-37.5t18-23.5l70-70q4-4 8-9t4-8q0-3-3-3-5 0-9 3-4 2-10 4t-17 2q-22 0-35-7L83 152l-7-14 153-97q4-16 22-28.5T314 0q23 0 49.5 8.5T414 28q39 19 69 27t62 11q32 3 75 5v46q-16-2-43.5-4.5T527 106q8 3 26.5 6.5t38.5 7q20 3.5 33 5.5v37q-72-12-126-27T395 92q1 3 1 8 0 16-12.5 33.5T354 168l-15 13q-10 8-20 17t-14 13q-5 5 1 5 2 0 10-5.5t16-10.5q18-12 39-20t48-8q30 0 65 13.5t66 30.5q31 17 47 27t45 34q29 24 60 49 34 29 63.5 52.5T806 406q9 4 19.5 5.5T845 413q7 0 18.5-1t19.5-3v42q-9 2-25.5 5t-33.5 5l44 46-94 57-53-67q-5-7-11.5-14t-14.5-7q-10 0-26 3-8 2-16 3t-17 2q-14 1-35 1.5t-35 .5q-5 6-18 21.5T521 537q-14 14-21 14-6 0-16-2t-23-4q-28-4-55-8t-55-8l8 4v45q-18-9-43-21t-40-17v340l57 77h161v-94h49v142zm355-454v-11q-4-4-10.5-9.5T321 521l2-10q36 2 70.5 5t70.5 10q13 2 23.5 4t12.5 2q2 0 11.5-10.5T533 496q12-15 23-29 17 0 40.5-1t37.5-2q9-1 17-2t15-2q7-1 15-2.5t14-1.5q15 0 26.5 12t16.5 18l41 52q11-7 28.5-17t29.5-17q-10-11-19.5-21T798 462h-4q-34 0-78-6.5t-90-17q-46-10.5-87.5-22T469 394q-13-5-36-17t-47-29q-24-17-40.5-37T329 269q0-20 11-33.5t23-21.5q12-8 16-10l7 19q-3 1-12.5 6.5T356 245q-8 10-8 24 0 18 15 35t37 31.5q22 14.5 43 25t33 14.5q27 10 67 21.5t85 22q45 10.5 88.5 17T794 442q31 0 49.5-1t23.5-2v-8q-4 0-11 .5t-11 .5q-11 0-23.5-1.5T798 424q-13-5-44.5-30T689 341q-16-14-36.5-30.5T614 280q-18-14-28-20-14-9-42.5-25t-62-29.5Q448 192 419 192q-25 0-42.5 7T342 216q-9 7-20.5 13t-17.5 6q-8 0-14-6t-6-16q0-7 14-20.5t28-26.5l14-13q15-14 25.5-28t10.5-25q0-7-4.5-15T365 74l11-13q29 22 69 38.5t83 28q43 11.5 82 18.5v-8q-6-1-31.5-7T518 115q-35-10-72-25t-67-34l7-9q19 13 55 25.5T520 93q43 8 85 10V89q-56 0-103-9.5T404 46q-22-11-46-19t-45-8q-38 0-51.5 11T248 53q0 11 10.5 20t31.5 9q7 0 11-1.5t7-3.5q4-2 7.5-3t10.5-1q11 0 16.5 7t5.5 15q0 8-6 17t-11 14l-75 74q-5 5-11 16t-6 27q0 23 24.5 53.5T320 356q29 24 66 44.5t61 30.5q9 13 22.5 32t22.5 34l-5 15q-15-3-41-6t-55-5.5q-29-2.5-53.5-4T299 495q-19 0-46 6t-54.5 15q-27.5 9-48.5 18v8q13-3 38.5-8.5t48-10Q259 519 264 519q15 0 39.5 11t41.5 21zM274 65q-5 0-9-4.5t-4-9.5q0-5 4-9.5t9-4.5q6 0 10 4.5t4 9.5q0 5-4 9.5T274 65zm-166 66l131-49q-8-8-10-21zM9 985h515V882h-10v95H19v-95H9zm215-28h85l-42-57z" fill="currentColor"/></svg>