<svg xmlns="http://www.w3.org/2000/svg" viewBox="0 0 475.4 594.6"><path d="M95.6 29.7c10.3-1.2 23.6 1.8 40.1 9.2 12.3 8.2 28.5 10.1 48.4 5.6s21.7-11.4 5.2-20.7c-16.4-9.2-34.3-12.4-53.6-9.6L95 26l.6 3.7zm251 368.8c-.8-8.6-5.3-16-13.6-22.2-39.9-21.8-80-53.9-120.2-96.2-40.3-42.3-57.1-74-50.6-95 2.5-9.5 8.9-13.5 19.4-12 10.5 1.4 22.5 1.5 36.1.3-.4-5.3-10.3-9-29.6-11.1-19.3-2.1-37.5-4.5-54.6-7.4-17.1-2.9-23.4 5.4-19.1 25 4.3 19.5 18.7 46.7 43.2 81.4s51.2 64.1 80.2 88.2c29 24 44.7 54.4 47.2 91 5.8-35.8 12.1-51.7 19.1-47.8 6.9 3.8 21.1 5.8 42.5 5.8zM141.8 22.3c12.3-5.3 19.9-4.3 22.8 3.1 1.2 5.3-2.1 8.5-9.9 9.6-7.8 1-12.3-2-13.6-8.9l.7-3.8zm87 159.7c-4.9 4.5-14.6 6.2-29 4.9-14.4-1.2-22.2.4-23.4 4.9-3.3 9.9 5.4 28.7 26.2 56.4 20.8 27.7 47.6 53.3 80.5 76.8 32.9 23.4 52.8 36.4 59.8 38.8 5.8 2.5 11.7.6 17.9-5.5-4.9-3.3-23.6-32-56.1-86s-57.8-84.1-75.9-90.3zm140.6 183.2c-4.5 6.6-10.9 9.5-19.1 8.6l14.2 7.4c5.8-.8 10.3-3.5 13.6-8l-8.7-8zm16 16.6c-.8 3.7-4.3 5.5-10.5 5.5l9.9 8c7 1.2 10.5-.8 10.5-6.2l-9.9-7.3zm20.4 16c-1.6 2.1-4.7 3.5-9.3 4.3l10.5 8c4.5-.4 7.8-1.6 9.9-3.7-1.7-2.4-5.4-5.3-11.1-8.6zm21.5 16.1l-8.6 3.1 9.3 6.8c4.5 0 7.2-1.4 8-4.3l-8.7-5.6zm17.9 12.9l-6.8 2.5 16 10.5-9.2-13zm-82.6-24.6l4.3 16.6-19.7-6.8c33.7 36.2 55.7 55.5 66 58 16 6.2 29.2 6.2 39.5 0l-90.1-67.8zm-127 175.1c27.5 2.9 41.4-19.8 41.6-68.1.2-48.3-7.7-87.5-23.7-117.5v30.2c0 11.9-7.3 32.8-21.9 62.6-14.6 29.8-25.6 58.7-33 86.6 18.1-1.2 30.4.9 37 6.2zm90-158.5c-17.3-7.8-26.5-1.8-27.8 17.9 0 13.6-1 35.1-3.1 64.7s-2.1 54.3 0 74c29.6-.4 43.2 6 40.7 19.1H95c-1.6-14 6.4-22.2 24-24.7l37 3.7c25.5-12.7 48.9-59.6 70.3-140.6l-48.7-113.5c-48.5-71.1-75.2-117.4-80.2-138.7-4.5-21.8-4.4-40.6.3-56.4s21.8-28.4 51.2-37.6 44-17.2 43.8-23.7c-.2-6.6-8.8-8.1-25.9-4.6-17.1 3.5-33.8-.9-50.3-13.3-12.3-4.1-49.1-5.5-110.3-4.3-4.1.4-6.2-1.6-6.2-6.2 0-4.1 2.1-6.6 6.2-7.4 34.5-1.6 63.1-5.8 85.7-12.3l40.7-12.3c28-6.2 53.9-1.2 77.7 14.8 14.8 11.1 22.4 23.8 22.8 38.2 0 28.8-15.1 47.8-45.3 57-30.2 9.2-45.3 15.7-45.3 19.4-.4 4.9 14.4 9 44.4 12.3 30 3.3 57.1 19.7 81.4 49.3 24.3 29.6 51.4 71.9 81.4 127 14.4 21 34.1 41.2 59.2 60.7s44.6 39.2 58.6 58.9c4.1 10.3 1.4 14.4-8 12.3-4.1-1.2-16.9-8.8-38.2-22.8l-.6 1.2 54.9 40.1c-9.9 9.5-21.6 15.1-35.1 17-13.6 1.8-28.2-.5-43.8-7.1-16.2-11.3-39.9-32.1-71.1-62.1zm-87.6 5.6c1.2-16.4 1-30.6-.6-42.5-8.6-11.9-20.8-26.3-36.4-43.2 15.7 28.3 28 56.9 37 85.7z"/></svg>