<svg xmlns="http://www.w3.org/2000/svg" viewBox="-10 0 764 1011"><path d="M150 1011l25-40q20-5 43-8.5t32-5.5q19-3 32.5-14.5T303 915l62-143q-1-5-1.5-16.5t.5-18.5q1-6 7.5-15.5T384 705l3-40q-48-20-89-49t-62-52q-7 1-18 2t-15 1q-45 0-79.5-21T69 489q-20-36-20-83 0-36 17-72t39-70q22-34 39-65.5t17-58.5q0-29-11.5-35.5T110 99q-33 3-62 3.5T-4 96l-6-10 64-38q11-10 15-14t6-7q10-12 27-19.5T147 0q37 0 60 26t23 63q0 34-15.5 81.5T184 259q-11 28-19.5 53t-8.5 35q0 26 8.5 39t29.5 13q20 0 36.5-15t32.5-33q22-26 49.5-49t69.5-23q21 0 41 6t30 11q-1 26-7.5 48.5T432 376q21-3 55-3 52 0 94.5 24.5t75 63.5q32.5 39 54 82t32.5 82q11 39 11 62 0 22-8 32.5T728 730q-7 0-24-11-18-10-45-23t-49-13q-23 0-35 2.5t-19 4.5l1 15q3 4 8.5 14t5.5 21q0 7-4 19t-9 19q-1 9-3 47.5T548 946l17 63h-22l-13-18-22 18H406l-11-12-18 14h-17l25-40q20-5 43-8.5t31-5.5q8-2 21-5t14-20l10-153q-1-4-6.5-14.5T491 741q-1-7 .5-16t2.5-14l-17-21q-4 0-8-.5t-8-.5l-14 42q0 3-1 14.5t-7 19.5q-8 10-23 25-3 6-14 32.5T376.5 884Q362 919 349 949l6 60h-21l-13-18-23 18H197l-12-12-18 14zm264-21h87q2-1 10-8l16-14 12 10-11-25 11-182q4-7 8.5-16.5T552 740q0-6-4.5-14t-9.5-13q0-3-1.5-27.5T534 610l20-1 2 61q11-2 23-4.5t31-2.5q25 0 54.5 14t48.5 25l15 9q6 0 6-24 0-22-10-58.5t-30-77q-20-40.5-50-77T575 415q-39-23-88-23-26 0-43 1.5t-26 2.5q-11 15-29 29t-35 24.5Q337 460 329 463l-8-15q56-27 83-63t29-77q-6-3-19-6t-32-3q-37 0-61 20.5T277 363q-18 22-37 39t-46 17q-32 0-45-18.5T136 347q0-14 8.5-39t20.5-56q16-41 31-86t15-77q0-28-18-49t-46-21q-38 0-51.5 15T82 60q0 15 13.5 17.5T122 79h9q20 0 35 13.5t15 47.5q0 31-17 63.5t-39 66Q103 303 86 337t-17 69q0 61 38 101.5t96 40.5q2 0 15.5-1.5T244 543q12 15 36.5 34t56 38q31.5 19 64.5 33.5t61 19.5l-22-34 16-10 57 82q-2 5-3 14.5t0 18.5q1 8 5.5 18t8.5 17l-10 156q-1 21-10.5 30T482 972q-12 3-21 4-8 1-22 3t-31 6zM112 59q-10 0-10-10 0-11 10-11 11 0 11 11 0 10-11 10zM18 85l45-16q-1-3-1-9v-2zm10 5q11 0 21-1.5T70 86q-1-1-2-2.5T66 80zm176 900h88q1-1 9.5-8t15.5-14l12 10-2-27 73-172q6-6 13-14t10-12q3-3 3.5-11t.5-14l14-43q-6-2-17.5-6t-18.5-6l-3 40q-5 4-11 12t-7 15q-1 6-.5 16.5T385 774l-65 151q-10 23-27.5 35.5T252 976q-8 1-22 3t-32 6z" fill="currentColor"/></svg>