<svg xmlns="http://www.w3.org/2000/svg" viewBox="0 0 440.2 594.5"><path d="M322.6 299.4c8.8 7 16.5 15 23.1 23.8-5.7 7.9-10.8 13.6-15.2 17.2 30.4 14.5 51.7 36.1 64.1 64.7 23.3-12.8 35-27.5 35-44.2 0-22.5-8.9-38.7-26.7-48.9-17.9-10.2-44.6-14.4-80.3-12.6zm-195.5 73.3c2.2 9.2 8.8 23.8 19.8 43.6 7-7 10.8-19.6 11.2-37.6l-31-6zm81.3 5.2c15.8 12.3 30.2 22.5 42.9 30.4-.9-13.2-9.5-29.6-25.8-49.2s-24.8-23-25.4-10.2c-.6 12.8 2.1 22.4 8.3 29zm117.5-54.1c-26-25.5-47.4-46.9-64.4-64.1-16.9-17.2-45.9-29.5-86.8-37 43.6-13.6 66.3-32.4 68-56.1-46.2-5.7-83.4 8.1-111.6 41.6-10.1 18.5-21.4 29.8-33.7 34-12.3 4.2-19.6 1.4-21.8-8.3-2.2-9.7-10.7-12-25.4-6.9S29 242.5 30.7 258.4c1.8 15.8 10.6 29.3 26.4 40.3 32.6 40.1 61.5 61.7 86.8 65 25.3 3.3 41.3 4.1 47.9 2.3-5.7-27.3-2.3-40.8 10.2-40.6 12.5.2 27 14.2 43.3 41.9 34.4-4.8 61.2-19.3 80.6-43.5zM59.1 46.4c6.6 0 16.7.6 30.4 1.7 13.6 1.1 23.7-.6 30-5 6.4-4.4 6.6-10.7.7-18.8s-16-12.7-30-13.5c-14.1-.9-25.5 3.7-34.3 13.9 2.6 4 2.6 8.6 0 13.9l3.2 7.8zm18.5-31c5.7 2.2 8.4 5.5 7.9 9.9-4.4 5.7-9 8.4-13.9 7.9-6.6-.9-9.7-4-9.2-9.2 4-6.6 9-9.5 15.2-8.6zM50.5 22l-7.3 5.9C53.8 24 56.3 22 50.5 22zm87.9 408.1c-9.2-15.8-15.8-29.5-19.8-40.9-4-11.4-13.2-22.8-27.7-34s-28.6-25.4-42.3-42.6c-26-14.1-39.3-33.1-40-57.1-.7-24 9.8-46.8 31.4-68.3 21.6-21.6 38.3-48.2 50.2-79.9C102 75.5 100.6 59.1 85.9 58c-14.7-1.1-24.5-2.5-29.4-4.3C39.3 55.9 23 57 7.6 57 2.8 56.6.2 54.4 0 50.4s1.4-6.6 5-7.9c22.5-10.6 39-19.8 49.5-27.7C61.1 3.8 73.7-1 92.1.3c19.4-.4 32.6 2.9 39.6 9.9 8.8 18.5 9.5 43.6 2 75.3-7.5 31.7-16.6 60.1-27.4 85.2-10.8 25.1-15 41.2-12.5 48.2 2.4 7 12.2-1.1 29.4-24.4 37-35.7 81.2-48.9 132.7-39.6 2.2 28.6-10.6 50.2-38.3 64.7 18.1-1.8 50.6 21.1 97.7 68.7 54.6-1.8 89 4.7 103.3 19.5 14.3 14.7 21.5 32.2 21.5 52.5 0 23.8-16.7 43.8-50.2 60.1-21.1-40.1-44.5-63.2-70-69.3-22 15-43.6 24.4-64.7 28.4 6.6 8.4 9.5 22.2 8.6 41.6 6.2 6.6 6.6 14.3 1.3 23.1v100.4c6.2 3.1 11.8 6.3 16.8 9.6 5.1 3.3 7.9 6.3 8.6 8.9.7 2.6-1 5.3-5 7.9-.4-4-2.5-6.6-6.3-7.9-3.7-1.3-7.4-2.2-10.9-2.6 2.2 19.8-14.3 28.6-49.5 26.4-8.4 4.4-14.7 5.8-19.2 4.3-4.4-1.5-7.5-.3-9.2 3.6.4-10.1 8.1-15.3 23.1-15.5 15-.2 26.3-1.7 34-4.3 7.7-2.6 9.8-6.6 6.3-11.9.9 6.2-10.1 9.9-33 11.2-11.9 1.8-19.8 1.9-23.8.3-4-1.5-8.6-.3-13.9 3.6 3.1-6.2 7.8-9.8 14.2-10.9 6.4-1.1 13.5-1.8 21.5-2 7.9-.2 14.7-1.3 20.5-3.3 5.7-2 8.6-10 8.6-24.1v-91.1c-5.3-8.4-5.9-16.3-2-23.8-17.6-17.2-39.4-29.9-65.4-38.3-8.8 10.6-15.6 27.7-20.5 51.5 0 9.2-3.5 16.3-10.6 21.1-18.9 55-31.5 88.5-37.6 100.4 4 3.1 8.1 6.7 12.5 10.9s6.7 7.6 6.9 10.2c.2 2.6-1.9 4.8-6.3 6.6.4-3.5-1.1-6.4-4.6-8.6-3.5-2.2-6.8-3.7-9.9-4.6-1.8 19.4-20 24.7-54.8 15.8-9.2 3.1-16 3.4-20.1 1-4.2-2.4-7.4-2.1-9.6 1 2.2-9.2 10.8-12.7 25.8-10.2 15 2.4 26.6 3.1 35 2 8.4-1.1 11-3.4 7.9-6.9 0 4-11.7 4.4-35 1.3-12.3-.4-20.3-1.7-23.8-3.6s-8.4-1.9-14.5.3c4.4-4.8 9.9-7.3 16.5-7.3s13.9.7 21.8 2 15 1.5 21.1.7c6.2-.9 11.7-8.1 16.5-21.8 4.8-7.5 15.8-39.2 33-95.1-.2-12 2.4-19.1 8.2-21.3zM8.3 44.5l1.3 2 40.3-11.9-1.3-4.6L8.3 44.5zm1.3 4.6l1.3 2c22-.9 36.1-2.9 42.3-5.9l-1.3-7.3L9.6 49.1z"/></svg>