<svg xmlns="http://www.w3.org/2000/svg" viewBox="0 0 595.3 459.3"><path d="M136.5 0c-21.9 0-40.4 4.7-55.4 14.3H16.4c-11 .4-16.4 4-16.4 11 .4 5.8 5.9 9 16.4 9.3 20.5 1.1 43.1 5.1 68 12.1 19 12.4 42 18.6 69.1 18.6s40.6 2.6 40.6 7.7c0 6.6-19.4 9.9-58.1 9.9S77.8 98.8 77.8 131c0 16.1 8.4 34.1 25.2 54s50.4 47.6 100.9 83c16.8 17.2 25.2 34.3 25.2 51.5 0 21.9-5.9 43-17.8 63.3-11.9 20.3-24.8 38.6-38.6 55.1-12.8-1.5-22.7-.5-29.9 3-7.1 3.5-15.3 4.3-24.4 2.5s-18.8-.2-29.1 4.9-10.6 8.8-1.1 11h247.2c11.3-2.9 12-6.8 1.9-11.8-10-4.9-20.5-6.2-31.2-3.8-10.8 2.4-18.2-.5-22.2-8.5 3.7-16.1 11.7-42.8 24.1-80 6.2 0 12.6 9.7 19.2 29.1 16.1-22.3 24.1-43.5 24.1-63.6h35.1l178.1 84.4c20.5-2.6 30.7-11.9 30.7-27.9 0-17.2-15-30.3-44.9-39.5-88.4-31.8-134.5-49-138.1-51.5l152.9 46c.7-19-6.2-31.1-20.8-36.2-70.5-18.3-109.3-29.4-116.2-33.4-7.5-2.4-13.9-5.6-19.2-9.5-35.1-36.8-72.2-69.3-114-98.7-30-19.9-64.8-29.4-104.4-28.5-39.6.9-59.5-.8-59.5-5.2 0-7.3 15.3-12.2 45.8-14.8 30.5-2.6 45.8-14 45.8-34.3s-9.4-37.3-28.2-51C175.5 6.8 156.2 0 136.5 0zm-.6 13.2c19.4 0 35.4 6.6 48 19.7 12.6 13.2 3.1 19.4-28.5 18.6-31.6-.7-52.2-5.3-61.7-13.7-2.2-3.7-10.1-6.9-23.6-9.9L90.4 23c15.8-6.6 30.9-9.8 45.5-9.8zm-14.8 7.1c-4 0-9.3 2.6-15.9 7.7 6.2 6.2 11.5 9.3 15.9 9.3 8.4.4 13.2-2.6 14.3-8.8-3.3-5.5-8.1-8.2-14.3-8.2zm-15.6 108.9c1.1 0 2.5.6 4.1 1.8 6.9 5.1 25.5 7.8 55.6 7.9 30.1.2 46.3 2.1 48.5 5.8-1.5 4.8-12.2 9.1-32.3 13.2s-29 12.1-26.6 24.1c2.4 12.1 12.8 24 31.2 35.9 18.5 11.9 47 24.8 85.8 38.6 32.2 8.8 71.8 18.6 118.9 29.6 9.9 4 16.8 9.1 20.8 15.3-6.6 4.4-14.6 6.6-24.1 6.6H337c.4 16.8-2.4 32-8.2 45.5-6.6-8.4-16.1-12.1-28.5-11l6-36.2c-24.8-8.4-64.6-32.7-119.2-72.9-54.6-40.2-82.9-68.6-85-85.2-1.4-12.7-.3-19 3.4-19zm138.4 19.3c15.3 1.1 38.4 13 69.1 35.6 30.7 22.7 54 43 71.3 59.7 12.5 12.1 16.4 19.2 16.4 19.2l37.3 16.4c62.1 16.4 93.9 25.2 95.4 26.3 9.9 2.6 17 6.9 21.4 13.2l-138.1-40.6-99.8-21.9c-69.4-19-116.4-41.7-140.9-68-6.6-10.6-2.5-17.2 12.3-19.7s33.3-9.2 55.6-20.2zm-4.4 142l30.7 18.6c1.5 18.6-1.6 33.6-9.3 44.9-4.4-6.6-10.6-9.9-18.6-9.9 4-23.6 3.1-41.5-2.8-53.6zm179.3 6.6l143.6 54.3c11.3 4 18.8 10 21.9 18.1 2.6 6.8 1.8 13.2-.5 18.6-3.2 7.3-14.1 9.1-21.4 7.7l-159.5-80c4.4-.7 9.8-.9 15.1-5.4 5.1-4.4 3.7-8.5.8-13.3zM282.3 313l6.6 4.9c-7.3 51.9-22.3 90.1-44.9 114.6h-29c17.5-33.6 28.5-56.1 32.9-67.4 5.8-1.5 10.2 2.6 13.1 12.1 13.8-15.8 20.9-37.2 21.3-64.2z"/></svg>