<svg xmlns="http://www.w3.org/2000/svg" viewBox="-10 0 1166 724"><path d="M496 724q-19 0-19-12 0-6 5-11l-27 10q-8 2-16 2t-13.5-2.5Q420 708 420 700q0-5 3.5-9.5T442 678l-1-2-72 34q-9 4-21 4-20 0-20-12 0-5 5-12l-32 11q-3 1-9 1-10 0-15-5t-5-12q0-6 4-10t17-8q-7-1-9-4.5t-2-6.5q0-2 4-7.5t19-7.5l132-22q21-19 33.5-34t12.5-20q0-5-9-16.5t-19.5-24Q444 512 438 507q-47-17-89.5-43.5T283 418q-22-18-52-47.5T179 306q-22-35-22-70 0-26 13-51t46-41q33-16 93-16h69q9 0 25-1t16-7q0-4-4.5-7t-21.5-3q-21 0-42 2t-44 2h-20l-32.5-.5Q222 113 233 111l-155-3q-27 0-39.5.5t-16 2.5q-3.5 2-4.5 6h-28v-9q1-17 12.5-27t26-15Q43 61 52 59l169-41q11-8 29-13t45-5q62 0 107 17.5T472 61q25 26 25 52 0 31-13 49t-32 26q-19 8-39 10t-33 2q-40 0-59.5 2T301 214q0 6 10.5 9t17.5 3q6 0 25.5-2t42-4.5Q419 217 432 217q78 0 141 17.5t119 43l112 51L924 371l35 7 58.5 11.5q58.5 11.5 69.5 13t67 12.5l2 34h-12l-18 1q11 6 11 14v62q0 22-15 31.5t-34 9.5h-5l-6-1-267-38h-16l-32 .5q-32 .5-34.5.5H704q-20 0-36-2t-27-4q8 11 15 22.5t7 18.5q0 6-8 23.5t-19 38q-11 20.5-20 37T605 683l-87 37q-6 4-22 4zm6-15q3 0 7.5-1t6.5-2l72-32q2-4 11-20t19-35.5q10-19.5 17.5-35T643 564q0-7-15-26t-28-35l11-14q11 6 31.5 13.5T704 510q7 0 25.5-.5t41-1q22.5-.5 42.5-.5l267 39h8q12 0 20.5-4.5t8.5-16.5v-53q0-11-15.5-15.5t-33.5-5q-18-.5-26-.5-51 2-110.5 3.5t-115.5 3q-56 1.5-96.5 2.5t-51.5 1q-113 0-198-23.5t-132.5-59Q290 344 290 308q0-19 17-36.5t43-17.5q18 0 27 2.5t22 2.5q9 0 26.5-4.5T457 246l6 19q-14 5-33.5 9.5T399 279q-16 0-26-2.5t-23-2.5q-17 0-28.5 11T310 308q0 32 45 63t125.5 51.5Q561 443 668 443q9 0 38.5-.5t71-1Q819 441 867 440t94.5-1.5q46.5-.5 85.5-1.5 30-1 55.5-1.5t38.5-.5v-5q-14-3-46.5-8.5t-69.5-12q-37-6.5-67-12t-39-8.5q-62-16-118-41.5l-112-51-118.5-43Q452 210.5 432 236q-11 0-33 2.5t-42 4.5q-20 2-28 2-10 0-28.5-7.5T282 214q0-22 22.5-27.5T372 181q9 0 26.5-1t35.5-6.5q18-5.5 31-19.5t13-41q0-21-26-43t-67.5-36.5Q343 19 295 19q-32 0-49.5 7.5t-24 16.5q-6.5 9-6.5 15 0 14 11.5 21T254 89.5q16 3.5 31 4t22 .5q22 0 43-2t43-2q21 0 33.5 9t12.5 21q0 16-18 22t-43 6h-69q-52 0-81 13t-40.5 33Q176 214 176 236q0 30 21 62t49 59.5q28 27.5 49 44.5 20 16 52 37.5t70 39q38 17.5 74 22.5t66 17q30 12 48 26t18 24q0 4-6 16.5t-14 27q-8 14.5-15 26t-8 13.5l-125 37q-12 3-15.5 5.5T436 699q0 3 6 3 8 0 19-4l86-27v11l-41 15q-4 1-7.5 3.5T495 705q0 4 7 4zM269 75q-9 0-15-6t-6-15q0-8 6-14.5t15-6.5q8 0 14 6.5t6 14.5q0 9-6 15t-14 6zM4 106h6q3-6 11.5-13t30-12.5Q73 75 116 75q32 0 51.5.5T200 77q-4-8-4-19 0-8 4-16L59 73q-22 5-37.5 12.5T4 106zm265-44q7 0 7-8 0-7-7-7-8 0-8 7 0 8 8 8zM43 94h172q-2-1-4-3-15-1-35.5-2T117 88q-53 0-74 6zm306 607q10 0 22-7l77-41q17-17 36-35t32.5-33q13.5-15 13.5-22 0-4-3.5-14.5T514 524q-10-3-20.5-4.5T471 517q12 13 22 27t10 21q0 8-11.5 22t-25 27Q453 627 449 631l-147 45q-14 4-14 8 0 5 8 5 2 0 5.5-.5t7.5-1.5l89-27v11l-37 12q-13 4-16.5 6.5T341 696q0 5 8 5zm126-50l88-9q16-26 28.5-48t12.5-26q0-4-19-15.5T540 531q5 11 7.5 19.5T550 563q0 12-16 29t-59 59zm-167 7l100-22v-1l-101 16q-7 1-7 5 0 3 8 2zm166 12l54-14-1-1-59 7q-15 3-15 7 0 5 21 1z" fill="currentColor"/></svg>