<svg xmlns="http://www.w3.org/2000/svg" viewBox="-10 0 1103 772"><path d="M207 772l9-40 76-15q19-4 29.5-12.5T343 679l40-61q8-10 9.5-19t-4.5-21l-61-126-111-81q-13-9-34-27.5T143.5 298Q126 271 126 236q0-18 2.5-29t4.5-18q2-5 3-8.5t1-7.5q0-14-7.5-27.5T113 120l-3-4-119-12-1-15 112-43q12-19 39.5-32.5T213 0q42 0 68.5 15T326 52.5Q344 75 360.5 99t39.5 43q7 7 25 18.5t37 25.5l51 36q8 6 27.5 22.5t45 38.5q25.5 22 52 45t48.5 42q29 26 63 49.5t64 40.5q30 17 43 21 23 7 60 12.5t76 9q39 3.5 70 5.5v32q-16 1-46.5 2t-61.5 2l139 84-6 17q-20-3-46-6.5t-51-6q-25-2.5-42-2.5-16 0-16 3 0 6 13.5 25t33.5 43.5q20 24.5 38 44.5l-11 14-271-157q-37-21-84-37.5T557 541l17 31q4 7 4 15t-5 21l-29 75q-4 10-.5 19t10.5 12l59 18 3 40q-25-2-59-4.5t-53-2.5q-25 0-64 2.5t-67 4.5l1-6q-11-1-20-1h-17q-25 0-63.5 2.5T207 772zm760-56q-20-25-38.5-50T910 627q0-9 10.5-13t27.5-4q13 0 41 3t49 5q-26-16-61-37t-58-35q-33 1-65 1.5t-56 .5q-106 0-201-23t-173-60q-78-37-135-80.5T201 300q-31-41-31-71 0-29 20-44t48-15q19 0 39.5 4t31.5 9l-7 19q-10-4-28-8t-36-4q-19 0-34 10t-15 29q0 29 30 67.5t85 79q55 40.5 131 75t168 56Q695 528 798 528q31 0 76-.5t91-1q46-.5 81-.5-18-1-54-4t-75-8.5q-39-5.5-67-14.5-13-4-44-21.5t-67-42Q703 411 673 385q-22-19-48.5-42.5t-52-46Q547 274 528 258t-26-21l-51-35q-21-14-39-26.5T387 158q-22-20-39-44t-35-45.5q-18-21.5-41.5-35T213 20q-50 0-75.5 18T112 75q0 7 5 15.5t12 17.5q10 14 19 30t9 35q0 7-1.5 12t-3.5 11q-2 7-4.5 16t-2.5 24q0 28 15.5 51.5t35 41Q215 346 228 356l249 181q12 10 27 21.5t20 25.5l30-7q-5-11-15-29t-18-31q62 7 121 26t103 44zM169 95q-15 0-15-16 0-6 4.5-10.5T169 64q6 0 10.5 4.5T184 79q0 16-15 16zm-71 2q-6-11-6-22 0-4 1-7L35 91zm313 491h29q-3-11-9-31.5T421 521l-63-46zm9 136l43-10q14-3 20.5-14t8.5-20l11-48q5-26 4.5-35.5T497 579l-51-39 13 42q6 24-7 39l-58 74q-5 7-4 13t16 11zm-25 31q23-2 56-5t53-3q19 0 46 3t46 5l-1-7-42-15q-20-5-27-20t1-38l31-83-28 7-21 89q-3 15-11.5 27.5T473 731l-76 15zm-166 0q23-2 55.5-5t52.5-3q9 0 19.5.5T378 749l4-17q-17-5-17-17.5t13-28.5l64-82-29 1-49 78q-8 13-23.5 29.5T308 732l-77 14z" fill="currentColor"/></svg>