<svg xmlns="http://www.w3.org/2000/svg" viewBox="0 0 595.3 406.2"><path d="M91.6 0c49.6 0 80.5 24.5 92.6 73.5 25.2 5.9 67 35.6 125.4 89.2s98.1 81.8 118.8 84.8c20.7 2.9 53 5.1 96.8 6.4 26.8 0 44.3 7.7 52.7 23 8.3 15.4 12.5 23.7 12.5 25l-73.5-4.9v.5l78.4 14.2v6.9c-20.9 4.6-33.8 13.9-38.7 27.9-2.3 17.3 3.4 32.8 17.1 46.5l-2 6.9-191.1-74h-88.2c-16 29.1-29.1 51.9-39.2 68.6l7.8 11.8-245-.5c-9.1-9.1-8.2-16.3 2.9-21.6 14.4-.7 25.5.4 33.3 3.2 7.8 2.8 18.1 2.2 30.9-1.7 23.5 0 40.7 1.8 51.4 5.4 6.5-.3 11.8-1.8 15.7-4.4l46.1-70.6c-5.2-29.1-10.3-43.6-15.2-43.6-54.9-50.6-90.6-87-107.3-109.3-16.7-22.2-25-44.7-25-67.6 0-12.1-5.6-25.5-16.7-40.2C11.4 49.2.7 45.2 0 43.6v-9.8c0-1.6 12.9-4.2 38.7-7.8.7-7.8 5.3-14.1 14-18.9C61.3 2.4 74.3 0 91.6 0zm74.5 86.2c-5.9-20.9-11.9-36.4-18.1-46.5-12.4-16-31-24-55.9-24-26.5 0-40.3 5.6-41.6 16.7 18.9 31.4 45.7 53.4 80.4 66.1 7.5 0 15.2-.8 23-2.4 7.8-1.7 11.9-5 12.2-9.9zM79.9 22.5c10.5 0 15.7 4.1 15.7 12.2 0 6.9-5.2 10.3-15.7 10.3-10.8 0-16.2-3.4-16.2-10.3 0-8.1 5.4-12.2 16.2-12.2zM18.6 38.2v1c17.6 2.6 26.5 5.4 26.5 8.3 12.7 19.3 19.1 35.3 19.1 48 .3 26.8 20.2 58.4 59.5 94.8 39.4 36.4 85.2 69.7 137.4 99.7l-4.4-12.2c14 9.5 23.7 19.9 28.9 31.4h78.9c31.7-1.6 47.2-5.6 46.5-11.8-3.9-8.5-22.2-14.9-54.9-19.1-75.5-11.8-141-37.6-196.7-77.4-55.7-39.8-83.5-67.9-83.5-84.3.3-11.8 16-16.8 47-15.2-29.7-12.7-55.7-35-77.9-66.6l-26.4 3.4zm522.3 251.4c9.5-2.6 14.2-6.2 14.2-10.8-15-5.6-37.3-9-66.9-10.3-29.6-1.3-55.3-5.3-77.2-12-21.9-6.7-54.1-29.1-96.8-67.1-42.6-38.1-74-63.1-94.1-75.2-20.1-12.1-33.2-20.4-39.4-25 2.3 6.9-2.2 12.7-13.5 17.4-11.3 4.7-26 7.3-44.1 7.8s-24.6 5-19.4 13.5c5.2 8.5 16.3 20.3 33.3 35.3 17 15 39.7 30.5 68.1 46.5 28.4 16 51.8 26.9 70.1 32.6s46.6 12.7 85 20.8c38.5 8.2 98.7 17 180.7 26.5zm15.7-8.4c0 2.9-3.4 5.9-10.3 8.8l9.3.5c3.3-1 4.9-2.8 4.9-5.4l-3.9-3.9zm-341 2.5c2 8.8 2.9 19.6 2.9 32.3 0 2-16.8 26.8-50.5 74.5 11.1-2 21.5-1.8 31.1.5 9.6 2.3 19.8 3.4 30.6 3.4 20.3-26.1 33-47.7 38.2-64.7.7-7.2-16.7-22.5-51.9-46.1h-.4zm347.4 3.4c-.3 1.3-1.5 2.8-3.4 4.4l7.3.5-3.9-4.9zm-157.3 32.4l140.6 55.4c-4.6-14.4-5-26.6-1.2-36.7 3.8-10.1 10.4-17.1 19.8-21.1l-135.7-24c2.9 3.9 2.5 8-1.2 12.2-3.8 4.2-8.1 7.6-13 10-4.9 2.4-8 3.8-9.3 4.2z"/></svg>