<svg xmlns="http://www.w3.org/2000/svg" viewBox="-10 0 905 636"><path d="M165 636l7-33 62-12q16-3 24.5-10t17.5-22l33-49q6-9 7-16t-3-18l-50-102-91-66q-10-8-27.5-23.5t-32-37.5Q98 225 98 196q0-14 2.5-23t3.5-15q1-4 2.5-7t1.5-6q0-11-5-21t-15-22L-9 92l-1-19 92-36q10-15 33-26t58-11q35 0 57 12.5t37.5 32Q283 64 297 84.5t33 35.5q6 5 20 15t30 21l42 29q9 6 34 27t55 47.5q30 26.5 53 47.5 23 20 50.5 39t51 32q23.5 13 34.5 16 19 6 49.5 10.5t63 7.5q32.5 3 56.5 4v30q-14 1-38.5 2t-50.5 2l115 68-7 17q-6-2-25.5-5t-42-6q-22.5-3-38.5-4t-16 2q0 5 11 20.5t27 34q16 18.5 31 34.5l-12 19-222-129q-30-17-67-30.5T459 451l13 24q4 6 3.5 11t-4.5 15l-24 62q-3 8-.5 15.5t9.5 9.5l48 15 3 33q-22-2-51.5-4t-44.5-2q-20 0-52 2t-55 4l1-4q-8-1-16-1.5t-14-.5q-21 0-54 2t-56 4zm627-46q-17-20-32.5-40.5T744 517q0-7 8.5-10.5T775 503q11 0 34.5 2.5T850 510q-22-13-50.5-30.5T752 451q-27 1-53 1h-46q-88 0-166-19t-142-49.5Q281 353 234.5 318t-72-68.5Q137 216 137 191q0-24 17-37.5t39-13.5q16 0 33 3.5t26 6.5l-6 19q-8-3-23-6.5t-30-3.5q-16 0-26 8t-10 24q0 22 24 53.5t69 64q45 32.5 106.5 61t136.5 46Q568 433 653 433h57.5l63.5.5q63.5.5 53 .5h26q-16-1-45-3.5t-60-7q-31-4.5-53-11.5-11-3-36-17t-54.5-34.5Q575 340 550 319q-35-32-83-73t-99-77q-17-12-32-22t-20-15q-18-16-32-35.5t-29-37q-15-17.5-34-29T173 19q-40 0-60 15T93 65q0 5 4.5 12T108 92q7 11 13 24t6 29q0 5-1 9.5t-3 8.5q-2 6-4 14t-2 19q0 23 13 43t29 34q16 14 26 22l204 149q10 7 22.5 17t16.5 21l24-6q-5-8-13-23t-14-26q51 6 100 21t84 36zM137 80q-12 0-12-12t12-12q12 0 12 12t-12 12zm-58 3q-5-10-5-18v-6L27 78zm257 402h23q-3-9-7.5-25.5T344 431l-52-38zm10 112l29-8q11-3 16.5-12t6.5-16l9-40q4-21 3.5-28.5T402 478l-31-27 7 29q4 20-5 32l-49 61q-4 5-3 10.5t14 9.5zm-24 25q19-2 46-4t43-2q15 0 37.5 2t38.5 4l-1-5-34-13q-17-4-23-16.5t2-30.5l25-68-23 6-17 72q-3 12-10 22.5T386 602l-62 13zm-136 0q19-2 46-4t43-2q8 0 16 .5t17 1.5l4-15q-13-4-13.5-14t9.5-24l53-67-24 1-41 64q-6 11-18.5 24.5T251 603l-63 12z" fill="currentColor"/></svg>