<svg xmlns="http://www.w3.org/2000/svg" viewBox="0 0 593.5 271.5"><path d="M109.5 0c-15.2.7-30 4.8-44.6 9.1-18.1 5.7-36 12.2-52.6 21.4C8 33.1 3 35.7.4 40.3c-1.4 3.4.8 7.7 4.5 8.3 8 1.9 16.1-2.3 24-.1C40 51 48.5 59.4 55.3 68c10.6 13 17.6 28.5 27.3 42.1 7.3 10.4 16.4 19.3 25.8 27.8 30.8 26.9 69.3 43.7 108.9 52.7 3.5 3.9 7.3 7.5 11.1 11.1-14.4 15.3-28.8 30.7-43.2 46-21.7.2-43.4-.1-65 1.3-5.2.6-10 4.5-10.6 9.8-1.1 7 5.9 13.7 12.9 12.5 23.3-1 46.5-.8 69.8-1 34.5-.2 69 0 103.4 0 4.8-.5 8.3-4.5 10.1-8.7 10.5-18.4 21.1-36.7 31.4-55.2 1.2-2.7 1-5.9-.2-8.5 41.5-2 82.9-5.8 124.4-8.5 3.2 0 6.5-.8 9.6-.3 24.7 10.7 49.1 22.8 75 30.4 11 1.4 21.7-4.5 28.2-13 6-7.4 9-16.9 8.9-26.4.2-11.7-3.8-24.1-13-31.8 7.1-2.2 14.7-4.1 20.6-8.8 1.5-1.3 3.4-3.5 2.5-5.6-1.9-1.8-5-1.4-7.4-1.7-18.1-.4-36.1 1.3-54.1 2.5-35.9 2.8-71.8 5.9-107.7 8.5-39.1-18-78.1-36.5-117.6-53.6-32.2-13.3-67.1-18.6-99.7-30.5-19.4-11.3-34.5-28.4-52.9-41.2-13-9.3-27.7-18.3-44.3-17.9zm-1.2 22.3c14.5 1.3 26.6 10.3 38 18.6 10.5 7.3 19.7 16.3 29.6 24.4-7.6 9.3-14.6 20-15.2 32.4-.9 10.2 1.5 20.6 7.4 29 8.9 13.3 23.6 21.4 38.2 27.1 26.5 10.1 54.9 14 83.1 15.9 36.3 2 72.8 1 109.1-.7 8.3-.4 16.6-.9 24.9-1.4.9.7 5.9 2.1 2.9 2-54.3 3.8-108.8 9.6-163.3 5.7-42.5-4.1-84.9-15.9-120.7-39.8-12.7-8.6-24.6-18.6-34.7-30.2C97.5 93.5 90.3 79.4 82 66.2 73.9 54 64.4 42.3 51.9 34.4 70 28 88.8 23.3 108 22.3h.3zm-13.6 2.1c-4 0-8.7 1.7-10 5.9-1.1 4.1 2.8 7.5 6.4 8.5 4.4 1.6 10.2.9 12.9-3.3 1.9-2.6 2.2-7-1-8.8-2.2-2-5.3-2.4-8.3-2.3zm94.6 50.7c4.6 3.1 9.6 5.3 14.9 7 35.6 12.3 73.6 17.9 107.8 34.3 21.8 9.8 43.6 19.9 65.3 29.9-29.7 1.5-59.5 2.9-89.3 1.1-23.8-1.8-47.7-5.1-70.3-13-10.4-3.6-19.2-10.5-28.6-16-5.5-3.5-9.5-9.7-9.4-16.3.1-9.8 4.6-18.8 9.1-27.2l.3.2h.2zM520.9 158c10.9.5 22.6.1 32.2 6.1 2.6 1.5 4.7 3.7 5.5 6.7 3.3 8.5 1.8 19.9-6 25.5-1.8 1.5-4.4.3-6.5.1-8.8-2-16.8-6.8-25.4-9.8-17.3-7.4-34.4-14.9-51.5-22.6 17.2-1.6 34.4-3.6 51.6-6h.1zm-265.4 39c18.2 1.7 36.4 2.2 54.7 1.9.7 1.7 3.5 3.3 2.5 5.1-8.4 14.7-16.8 29.5-25.3 44.2-23.8-.2-47.5-.3-71.3-.4 12.4-13.3 25-26.5 37.3-39.9 2.3-3.1 2.5-7.5.9-10.9.5-.1.9 0 1.2 0z"/></svg>