<svg xmlns="http://www.w3.org/2000/svg" viewBox="-10 0 1035 776"><path d="M141 776l9-40 76-15q19-4 34-13t27-26l22.5-31.5 23-32.5q23-32.5 13.5-21v-33q-64-41-119.5-102.5T149 326q-10-34-22-72.5t-23-70Q93 152 87 138q-6-2-23-8.5T27 116q-20-7-37-13l83-49q4-5 18-18t39-24.5Q155 0 193 0t72.5 22q34.5 22 62 54t43.5 61q12 3 37 13t41 26q58 56 113.5 109.5T679 383q61 44 136 74 22 10 14 22t-24 17q28 15 70 32t83 31q41 14 67 20v25q-12 3-33 7.5t-50 4.5q-33 0-76.5-9T782 585.5Q742 573 717 562q-14 6-50 17.5t-78 22Q547 612 512 616q-4 8-14.5 30T479 686q-4 10-1 19.5t10 12.5l59 18 3 40q-25-2-59-4.5t-53-2.5q-25 0-64 2.5t-67 4.5l1-6q-10-1-19.5-1H272q-25 0-64 2.5t-67 4.5zm188-17q23-2 56-5t53-3q19 0 46 3t46 5l-1-7-42-15q-20-5-27-20t2-38l32-70-25-38 17-10 23 36q27-4 59-11.5t62.5-16.5q30.5-9 54-17t33.5-12q23 12 64 25t84.5 22q43.5 9 75.5 9 15 0 31-.5t26-2.5q-28-8-68-22.5T851 538q-40-18-68-34-13 2-47 7.5t-67 5.5q-70 0-133.5-6t-121-26Q357 465 307 426t-92-105l17-11q40 63 88 100.5t103.5 56Q479 485 540.5 491t128.5 6q22 0 48.5-2.5T767 487q29-6 29-12 0-5-22-14-47-19-85-43.5T614 361q-37-32-79.5-74T436 190q-16-15-41.5-24.5T358 155q-15-29-40.5-60.5t-58-53.5Q227 19 193 19q-40 0-64 14.5T94 59q5 7 6.5 16.5T102 95q0 15-3 27h2q7 12 19 45.5t24.5 75Q157 284 168 320q16 50 49 95t76 82q43 37 89 64.5t87 41.5l1 25-28 64q-6 16-16.5 28.5T399 736l-68 14zM162 99q-15 0-15-16 0-15 15-15 6 0 10.5 4.5T177 83q0 16-15 16zM38 89h48q-1-5-2-9.5T82 71zm45 27q2-6 2-11H39zm80 643q23-2 56-5t53-3q8 0 18.5.5T312 753l4-17q-17-5-10.5-18.5T324 687q10-13 22.5-31.5t22.5-35q10-16.5 13-23.5v-11l-17-9v24q-2 5-12.5 20t-24 33Q315 672 305 687q-9 14-27.5 30T242 736l-77 14zm191-31l35-8q14-4 22.5-14t13.5-22l26-59-1-7q-24-9-48-21v4q-1 5-12.5 22T364 660.5Q350 681 340 696q-11 16-10 20t24 12z" fill="currentColor"/></svg>