<svg xmlns="http://www.w3.org/2000/svg" viewBox="-10 0 848 642"><path d="M110 642l8-36 62-12q31-6 50-31 7-12 18-26.5t19.5-27Q276 497 278 493v-27q-52-35-97.5-85T117 271q-8-28-18-60t-19-58q-9-26-14-37-8-3-32.5-12T-10 87l68-43q3-4 14.5-14.5t32-20Q125 0 156 0t59.5 18q28.5 18 51 44t35.5 50q11 2 33 11.5t35 23.5q47 46 92 89.5t95.5 80Q608 353 670 377q18 8 9.5 18T658 409q23 13 57.5 27t68 25.5Q817 473 838 478v24q-10 2-27 5.5t-40 3.5q-28 0-63.5-7t-68-17Q607 477 587 467q-12 5-41 14.5T483 500q-34 9-62 12-3 7-11.5 24T394 566q-3 7-1 15t9 10l48 16 2 35q-22-1-51-3t-44-2q-21 0-52.5 2t-54.5 3l1-4q-9-1-16.5-1H221q-21 0-54.5 2t-56.5 3zm158-16q19-2 46-4.5t43-2.5q15 0 37.5 2.5T433 626l-1-6-34-13q-17-3-23.5-16t2.5-31l26-58-20-31 17-9 19 30q30-4 64.5-13.5t63-18.5q28.5-9 40.5-14 18 9 51.5 20t70 18.5Q745 492 771 492q12 0 25-.5t21-2.5q-23-6-55.5-17.5t-65.5-25Q663 433 640 420q-10 1-38 5.5t-56 4.5q-75 0-143-10t-125.5-44Q220 342 174 270l17-13q44 69 98.5 102t119 42.5Q473 411 546 411q19 0 40.5-2.5T627 402q24-5 24-9t-19-12q-38-16-69-36t-61.5-46Q471 273 436 238.5T355 159q-13-13-34-20.5t-29-8.5q-13-24-34-49.5T211 37q-26-18-55-18-32 0-50.5 12T78 51q7 11 7 30v11l-2 11q6 10 15 37.5t19 62q10 34.5 19 63.5 13 41 40 77.5t62.5 67q35.5 30.5 73 53T383 498v20l-22 52q-5 13-14 24t-22 13l-55 11zM130 84q-12 0-12-13 0-12 12-12 13 0 13 12 0 13-13 13zM29 76h39q0-4-1-8t-2-6zm37 22q1-1 1-3.5t1-5.5H30zm66 528q19-2 46-4.5t43-2.5q8 0 16 .5t17 1.5l3-14q-14-4-8.5-15.5T264 566q8-11 18.5-26t18.5-28.5q8-13.5 11-18.5v-10l-15-7v20q-1 4-9.5 16.5T268 540q-11 15-19 27-8 11-23.5 24.5T196 607l-63 11zm160-26l22-7q11-3 18-11t11-18l21-48-1-7q-9-4-15.5-8t-16.5-9v4q-2 4-11 18t-20 30.5Q289 561 281 574q-9 13-8.5 16t19.5 10z" fill="currentColor"/></svg>