<svg xmlns="http://www.w3.org/2000/svg" viewBox="0 0 590.3 547"><path d="M243.5 532.6c15.2-6.5 28.5-9.4 39.8-8.5H346c10.9 0 14.4-11.3 10.4-33.9-3.9-22.6-11.7-36.2-23.5-40.8-11.7-4.6-29.8-5.3-54.2-2.3-19.6 26.5-31.3 55-35.2 85.5zM79.6 78.3L0 70.5c.4-10 5.4-17 15-20.9 22.6-7.4 40.5-12.8 53.5-16.3 20-22.2 41.3-33.3 64-33.3 44.8 0 66.8 28.7 65.9 86.2 0 20.9-4.7 49.5-14 85.8-9.4 36.3 6 51.2 46 44.7s94.3 14 162.8 61.7c68.5 47.6 119.3 75.8 152.4 84.5 33.1 8.7 47.8 19.8 44.1 33.3-3.7 13.5-14.7 17.8-33 13.1 8.3 5.2 15.1 10.4 20.6 15.7 5.4 5.2 7.1 11.7 4.9 19.6-2.2 7.8-8.3 15-18.3 21.5-38.3-8.7-66.5-14.1-84.5-16.3-18.1-2.2-47.3 0-87.8 6.5-13.9 42.2-12.8 65.9 3.3 71.1 12.6 13.1 13.9 19.6 3.9 19.6H155.3c-13.5 0-22.1-1-25.8-2.9-3.7-2-7.5-1-11.4 2.9-6.1-5.7-7-11.3-2.6-17 4.4-5.7 12.6-9.4 24.8-11.1 37.9 4.4 64.2 6.5 79 6.5 9.6-13.9 15.2-45 17-93.3-58.7-25.2-101.6-47.1-128.6-65.6-27-18.5-40.7-43.8-41.1-76-.4-32.2 2.5-59.6 8.8-82.2 6.3-22.6 15.7-41.2 28.1-55.8 12.4-14.6 18.4-30 17.9-46.3-.4-16.5-14.4-25.7-41.8-27.9zm8.5-34.6c-.4 10.9 4.4 17.4 14.4 19.6 10 2.2 19 7.4 27.1 15.7 8 8.3 12.1 18.7 12.1 31.3 0 12.6-8.6 33.4-25.8 62.3-17.2 28.9-25.8 62.8-25.8 101.5s13.5 66.8 40.5 84.2c27 17.4 57.4 33.5 91.4 48.3 33.9 14.8 72.9 23.3 116.8 25.5 13.5 0 24.4 9.8 32.6 29.4 3-13.1 9.4-21.1 18.9-24.1 50.5-11.3 106.2-8.1 167.1 9.8 8.3-.9 9.8-7.2 4.6-18.9-16.1-11.7-33.6-18.5-52.5-20.2-18.9-1.7-63.3-3.3-133.1-4.6-69.8-1.3-122.5-11.4-158-30.3s-58.3-35.9-68.5-50.9c-10.2-15-10.6-27.1-1-36.2 8.7-6.1 16.5-3.9 23.5 6.5-16.5 5.2-8.4 20.8 24.5 46.7 32.9 25.9 102.4 42.5 208.5 49.9 106.2 7.4 160.9 9.2 164.2 5.5 3.3-3.7-9.1-9-37.2-16s-76-34.2-143.9-81.6c-67.9-47.4-126.1-68-174.6-61.7-48.5 6.3-66.8-13.2-54.8-58.4 12-45.3 16.4-82.8 13.4-112.6-3-29.8-17.8-44.7-44.4-44.7-19.8 1.6-33 9.7-40 24zM125.3 30c9.6 0 14.5 3.9 14.7 11.7.2 7.8-4.2 12.1-13.4 12.7-9.1.7-14-2.9-14.7-10.8-.6-7.7 3.8-12.3 13.4-13.6zm121.4 444.5l19.6-30.7-17.6-6.5-2 37.2z"/></svg>