<svg xmlns="http://www.w3.org/2000/svg" viewBox="-10 0 1150 1076"><path d="M286 1076q-8-8-28.5-16t-53.5-11q14-19 37.5-38.5T284 991h100q26 0 41-27 2-4 7-21t9-37q4-20 4-32 0-16-7.5-38T422 791q-39-16-80-43t-79.5-59q-38.5-32-70-64T141 565.5Q121 538 116 522q-3-10-5-20t-2-22q0-14 3-29 1-11 16-37t37.5-61q22.5-35 47.5-72.5t48-69.5q-22 0-41-3-11-2-25-6t-28-11q-7 1-36 3.5T71 197H60l-11-1q-30-2-44.5-6T-10 169q0-12 19.5-21.5T54 127q23-10 47.5-21.5T142 83q18-35 56-59t80-24q53 0 83.5 38t30.5 94q0 24-10.5 56.5t-24.5 67Q343 290 330 318q-10 22-16 36.5t-6 18.5q0 14 25 18l16 2q27 3 69.5 9.5t90.5 20q48 13.5 92 36.5 50 25 98 54t95 57q73 44 145 85t137 60l-1 17-44 5.5-56 6.5 165 70v16q-14 8-36 17.5t-39 9.5q-14 0-35-5t-42-11q-18-4-33-7.5t-24-3.5q-8 0-25 2.5t-34 4.5q-17 3-32 5t-25 2q-10 0-33.5-3t-42.5-6q-1 13-3.5 39.5t-4.5 55q-2 28.5-3 46.5-1 11 1 22.5t2 25.5q0 12-11 24.5t-28 11.5q-11 0-26-.5t-26-1.5q-9 4-26 8t-33.5 7q-16.5 3-25.5 3-8-8-28.5-16t-53.5-11q14-16 37-32.5t43-16.5h106q4 0 8.5-7.5T672 981v-47q0-10-4-30.5t-19.5-40Q633 844 599 837q-15-2-28-5l-26-6q-28 51-47.5 98.5T457 1024q-4 11-13 24t-25 12q-11 0-25-.5t-23-1.5q-10 4-26.5 8t-33 7q-16.5 3-25.5 3zm277-20q8 0 23-3t29-7q14-4 21-7 12 1 29 1.5t28 .5q8 0 13-6t5-11q0-12-1-25t-1-24q0-15 2-44t5-61.5q3-32.5 6-58.5 23 5 52 9.5t41 4.5q7 0 22.5-2.5T869 818q17-3 34.5-5.5T931 810q10 0 26 4l36 9 39 9.5q39 9.5 33 4.5 8 0 23-4.5t25-9.5q-18-7-48.5-20.5t-65-28Q965 760 938 749v-1q-20 2-38 3t-31 1q-42 0-100-6t-123.5-18.5q-65.5-12.5-128-31t-113.5-44q-51-25.5-81.5-58T292 523q0-23 12.5-39.5T333 456q16-11 29-16.5l13-5.5v19l-16 7.5-32 23.5q-32 23.5-16 39 0 36 29.5 65.5t79 53Q469 665 529.5 682T653 710q63 11 119.5 16.5T869 732q13 0 40.5-2t59-5.5q31.5-3.5 57.5-6.5-55-22-116-57t-126-75q-47-28-95-56t-97-54q-41-20-87-33t-88-20q-42-7-70-11l-17-2q-23-3-32.5-12.5T288 373q0-6 7.5-24t16.5-38q13-27 26.5-61t23.5-65q10-31 10-53 0-48-26-80.5T278 19q-36 0-71 22t-50 53h1q-1 0-1 .5v.5q-8 16-8 32 0 23 13.5 35.5t31 18Q211 186 224 188q14 2 34 3t32 2q-9 18-27.5 46t-40 60Q201 331 181 361.5t-34 55Q133 441 131 454q-1 8-1.5 14.5T129 480q0 11 1.5 20t3.5 17q3 13 23 38.5t51 57q31 31.5 69.5 64T357 735q41 26 80 40 34 13 71.5 22t94.5 21q31 6 48.5 21.5t26 34q8.5 18.5 11 35T691 934v47q0 13-10 25.5t-21 12.5H553q-8 0-20.5 5.5T511 1034q8 2 14.5 4t12.5 4q11-8 28-13t43-5v14q-19-1-33 2.5t-24 8.5q3 1 6 3t5 4zM248 111q-11 0-18.5-7.5T222 86q0-10 7.5-17.5T248 61q10 0 17 7.5t7 17.5q0 10-7 17.5t-17 7.5zm0-16q8 0 8-9t-8-9q-10 0-10 9t10 9zM75 180q20 0 38-2t34-4q-8-8-12.5-20t-4.5-27v-7.5l1-7.5q-16 9-33.5 16T62 143q-12 5-26 10.5T15 163q23-5 56.5-9t52.5-5l1 15q-17 1-50 4.5T19 176q14 2 32.5 3t23.5 1zm219 876q13 0 38-6t36-11q10 1 25.5 1.5t26.5.5q7 0 11.5-6.5t6.5-10.5q20-49 38.5-99.5T525 821q-22-5-41-10t-38-11q7 18 13 38t6 36q0 14-4.5 34.5t-10 38.5q-5.5 18-7.5 24-8 17-23 28.5t-35 11.5H284q-7 0-20 7.5t-22 15.5q8 2 15 4t13 4q11-8 28.5-13t43.5-5v14q-19-1-33.5 2.5T285 1049z" fill="currentColor"/></svg>