<svg xmlns="http://www.w3.org/2000/svg" viewBox="0 0 591.9 508.3"><path d="M146.5 0c19.5 0 35.2 5.2 47.1 15.5 15.9 12.7 21.8 40.1 17.6 82.2-4.2 42.1-4.3 72.8-.3 92.1 4 19.3 23.6 30.1 59 32.5 66.7 13.5 116.6 34.8 149.6 63.8 25 20.7 53 34.6 84 41.7 59.2 10.7 86.8 28.8 82.8 54.2l-36.4-7.2c21.5 12.7 33 21.3 34.6 25.6 10.7 9.5 9.7 11.9-3 7.2l-26.2-5.4c5.2 3.2 12.9 10.5 23.2 22.1l-4.2 7.2c-25-6.8-57.4-13.7-97.1-20.9-10.7 7.9-34.6 11.5-71.5 10.7-9.5 38.5-5.6 62.6 11.9 72.1 3.6 8.3 2.8 12.3-2.4 11.9l-20.3-6.6c-7.9 1.2-16.8 2.6-26.5 4.2s-35.1 1.8-76 .6c-4 2.8-8.7 4.4-14.3 4.8-6.4-5.2-14.7-6.8-25-4.8h-58.4c-12.7 0-20.7-.9-23.8-2.7-3.2-1.8-6.6-.1-10.1 5.1-5.6-6.4-6.4-12.2-2.4-17.6 4-5.4 11.3-8.8 22.1-10.4 34.6 4 58.8 6 72.7 6 8.3-12.3 13.5-39.5 15.5-81.6-3.6-7.9-18.3-19.1-44.1-33.4-25.8-14.3-52.5-27.7-80.2-40.2-27.6-12.5-41.4-33.3-41.4-62.3.4-35.8 10.5-63.1 30.4-81.9 19.9-18.9 29.9-40.2 30.1-64.1.2-23.8-6.9-35.6-21.2-35.2l-46.5 8.3c-25.4 5.6-57 10.1-94.8 13.7L.4 100c-2.8-10.7 6-19.1 26.2-25 29.4-9.9 47.1-19.9 53-29.8C97.2 15.1 119.5 0 146.5 0zm308.7 330.8c-26.6-19.9-50.7-36.4-72.1-49.5-21.5-13.1-46.9-23.2-76.3-30.4-29.4-7.2-49-6.8-58.7 1.2-9.7 7.9-22.3 14.4-37.8 19.4-15.5 5-7.8 18.3 22.9 39.9 30.8 21.7 67.6 34.3 110.5 37.8 43 3.6 80.1-2.6 111.5-18.4zm21.5 4.7c-8.3 9.9-25.4 16.5-51.3 19.7 21.5 2 40.9 2.4 58.4 1.2 11.5-4 17.3-9.1 17.3-15.5l-24.4-5.4zm18.4 25.1l17.3 1.2c12.7-4.8 18.3-9.5 16.7-14.3l-14.9-3c-.4 5.1-6.7 10.5-19.1 16.1zm30.4 2.3c11.9 0 19.1-3.4 21.5-10.1l-10.1-2.4c-.8 4-4.6 8.2-11.4 12.5zm-134.1 62.6c1.6-11.5.6-24.8-3-39.9l7.2-6c2.4 18.7 7 28 13.7 28 44.9-1.6 67.3-7.5 67.3-17.9 3.6-5.6 8.5-9.3 14.9-11.3l67.9 15.5c-10.3-9.9-31.4-17.9-63.2-23.8-102.9 0-164.4-2-184.4-6-20.1-4-43.2-13.2-69.4-27.7-26.2-14.5-42.8-26-49.8-34.6-7-8.5-9.4-17.9-7.4-28 2-10.1 11.7-17.8 29.2-22.9 17.5-5.2 21.9-11 13.1-17.6-8.7-6.6-16.2-13.2-22.3-20-6.2-6.8-9.8-17.2-11-31.3-1.2-14.1 0-40.9 3.6-80.5 3.6-39.5.6-64.5-8.9-74.8-9.5-10.3-23.6-15.5-42.3-15.5-17.1 0-30.2 5.1-39.3 15.2S91.1 46.5 86.3 56c2.8 2.8 5.8 3.4 8.9 1.8 3.6-7.9 8.5-14.9 14.9-20.9.8-7.5 4.8-11.5 11.9-11.9 8.3.4 12.9 4.4 13.7 11.9-1.2 7.5-5.8 11.5-13.7 11.9-6 .4-9.3-.8-10.1-3.6-4.8 2-9.1 9.1-13.1 21.5-3.2 4.4-5.6 9.1-7.2 14.3l50.1-6.6c17.1-1.2 27.2 3.9 30.4 15.2 3.2 11.3 4.8 23.3 4.8 36.1 0 25.8-9.4 48-28.3 66.4-18.9 18.5-28.3 41.8-28.3 70s17.6 49.5 52.7 63.8c35.2 14.3 60.7 27.6 76.6 39.9 17.9 11.1 35.6 18.4 53 21.8 17.5 3.4 37.3 7.1 59.6 11 14 4.5 23.7 13.4 29.2 26.9zm154.4-61.4l26.8 6c-3.2-6.4-9.5-10.9-19.1-13.7 0 2.8-2.5 5.3-7.7 7.7zm13.1 52.5c-15.1-13.1-37.5-21.5-67.3-25-3.6.8-5.8 3.4-6.6 7.7l73.9 17.3zm-283.7 73.9c13.5-6 25.6-8.5 36.4-7.7h57.2c9.5.4 13-10.5 10.4-32.8-2.6-22.2-9.3-35.1-20.3-38.4-10.9-3.4-24.3-5.1-40.2-5.1-25.8 28.1-40.3 56.2-43.5 84zm4.2-54.9l21.5-31-19.1-4.8-2.4 35.8z"/></svg>