<svg xmlns="http://www.w3.org/2000/svg" viewBox="0 0 584.4 566.2"><path d="M89.6 77.7c-20.2 3.2-37.9 2.6-53.4-1.8S9 76.4.7 90.2c-2-26.9.2-44.6 6.5-53.1S38 22 80.7 17.2C91 6.1 100.7.6 109.7.6c64.4-4.7 94.8 15.2 91 59.9-3.8 44.7 15.8 85.2 58.7 121.5 42.9 36.4 79.6 72.9 110.3 109.7 30.6 36.8 56.2 72.3 76.8 106.7 26.5 26.5 57.9 51.7 94.3 75.6 36.4 23.9 50 49.9 40.9 78l-86-55.1 60.5 68.8h-80c-15.4 0-29.4-3.4-42.1-10.1-12.6-6.7-32.1-26.5-58.4-59.3-26.3-32.8-56.2-54.9-89.8-66.4 1.6 11.1-.2 28.7-5.3 52.8l-32-20.7v65.2c3.6 6.3 15.2 8.4 35 6.2s30.4 2.9 32 15.1c1.6 5.5.2 11.5-4.1 17.8l-18.4-.6H44c-7.1-13.4-8.2-22.7-3.3-27.9s11.2-8.2 18.7-9.2 13.1.6 16.9 4.7c3.8 4.1 11.4 3.4 22.8-2.4 11.5-5.7 24.9-5.4 40.3.9 8.7-16.6 13.6-44.3 14.8-83l-17.8-124.5c-27.7-28.1-50.3-61.5-67.9-100.2S58 136.6 89.6 77.7zm135.8 109.7c-25.3 0-46.1-1.5-62.5-4.4-16.4-3-25.8 2.8-28.2 17.2-2.4 14.4 10.1 40.4 37.3 78s58.2 65.9 92.8 85.1c34.6 19.2 69 35.3 103.2 48.3s67 29.4 98.4 49.2c31.4 19.8 65.1 41.3 101.1 64.6-2-12.3-18.3-28.4-48.9-48.3-30.6-20-58.6-41.4-83.9-64.3-30.8-46.2-59.4-85.3-85.7-117.1-26.3-31.9-67.5-68-123.6-108.3zm-7.1 261.5l-13 31.4-16-18.4c-2.8 7.5-6.1 28.7-10.1 63.4 16.6 11.1 29.6 8.7 39.1-7.1v-69.3zM172 464.3l11.9-21.3 16 11.9 10.1-23.1c-9.9-31.2-27.9-59.7-53.9-85.4L172 464.3zM109.8 18.5c-3.6 0-10.5 3.4-20.7 10.1S86.1 50.1 111 73c-21.7 37.2-33 71-33.8 101.7-.8 30.6 24.3 78 75.3 142 37.2 34.8 64 76.1 80.6 123.9l34.4 16c3.2-15 2.4-35.4-2.4-61.1C326 421.2 370.7 455 399.4 496.9s67.7 58.7 117.1 50.4c-20.2-23.3-35.4-41.5-45.6-54.5-10.3-13-24.1-24.5-41.5-34.4-17.4-9.9-52.5-25.3-105.2-46.2-52.8-20.9-91-42.1-114.7-63.4s-46.4-48.7-68.2-82.1c-21.7-33.4-31-59.4-27.9-78 3.2-18.6 15.4-26.5 36.8-23.7 21.3 2.8 42.1 5.1 62.2 7.1-26.1-30.8-37.2-65-33.5-102.6 3.7-37.6-19.3-54.6-69.1-51zm-2.4 7.7c9.5 0 14.2 3 14.2 8.9 0 6.3-4.3 10.3-13 11.9-8.7 0-15-4-19-11.9 2-6 7.9-8.9 17.8-8.9zm-26.7 8.3c-37.5 2.4-58.2 5.8-61.9 10.4-3.8 4.5-5.6 9.4-5.6 14.5 15-7.5 29.2-7.1 42.7 1.2 15-4.7 28-3.3 38.8 4.4 10.9 7.7 12.1 7.3 3.6-1.2S83.9 45.5 80.7 34.5zM20.9 67.7h26.7c-8.4-7.1-17.3-7.1-26.7 0zm36.1 0h26.7c-6.7-4.8-15.6-4.8-26.7 0z"/></svg>