<svg xmlns="http://www.w3.org/2000/svg" viewBox="-10 0 1265 1016"><path d="M125 1016q-3-14-3-31t8.5-29q8.5-12 28.5-12 11 0 18.5 4t11.5 7q8-11 26-11 12 0 19.5 4t11.5 7q8-11 26-11 9 0 15.5 3t10.5 5q6-7 15.5-10.5T334 939q3-13 7-45.5t-1-65.5q-3-33-15.5-82t-31-101.5Q275 592 256 548q-1-2-19-20t-43-47q-25-29-50-62.5t-41.5-66Q86 320 86 296q0-39 5.5-60.5t11-33.5q5.5-12 5.5-24 0-15-13-25t-31-10q-18 0-38 6.5T-10 169v-60q0-15 13-32t27-28q4 0 13.5-.5T62 47q19-5 39-16.5t41-21Q163 0 185 0q46 0 75 9t48 34q16 20 20 47.5t4 54.5v31q17 8 52.5 24.5t78 37.5q42.5 21 82 42t63.5 37q36 24 76.5 59.5t80 74.5q39.5 39 74 75t61 62q26.5 26 39.5 35 12 8 37.5 23.5t57.5 34q32 18.5 64 36.5t56.5 33q24.5 15 34.5 22 25 17 45.5 38t20.5 34q0 17-9 21t-17 4q-7 0-24.5-7.5T1173 847l-131-67q27 20 57 42t57 44q22 18 36.5 34t15.5 29q1 6-5 9.5t-10 3.5q-4 0-9-1.5t-9-2.5q2 6 2 10 0 5-4.5 10.5T1159 964q-10 0-18-4 0 3 .5 5.5t.5 4.5q0 4-1.5 8.5t-6.5 4.5q-5 0-13.5-2.5T1105 976q1 4 1 10t-1.5 11q-1.5 5-5.5 5-3 0-17-7.5t-34.5-18.5q-20.5-11-41.5-23.5T970 929q-15-10-44-31.5t-64-48q-35-26.5-69.5-53T733 749l-157-35q4 12 3.5 40t-9.5 57l-42-26-8 36h-7q0 11-2.5 36.5t-2.5 51q0 25.5 5 35.5 2 4 7 5.5t18 1.5h50q5-4 14-9t22-5q23 0 32 15.5t10 33.5q1 18 0 26-15-24-35-24-8 0-16 6.5t-12 13.5h-40q-14-3-36-6.5t-39-3.5q-19 0-36 3.5t-26 6.5h-79q-2-7-7-13.5t-12-6.5q-14 0-19 12t-5 14q-9-7-10-19-4-1-9.5-2.5T271 991q-11 0-20 8.5t-13 16.5q-1-5-1.5-10.5T235 994q-4-1-9-2t-12-1q-11 0-19.5 8.5T182 1016q-3-10-3-22-4-1-9-2t-13-1q-11 0-19.5 8.5T125 1016zm1104-166q6 0 6-6 0-8-18-25t-39-32q-8-6-32.5-20l-56-32-64.5-37q-64.5-37-59-34.5T928 640q-13-9-39-35t-60.5-61.5Q794 508 754.5 469T675 394.5Q635 359 597 334q-21-14-55.5-33T467 262q-40-20-80.5-39T313 189v-44q0-25-4-49t-17-42q-16-20-40-27.5T188 19q-21 0-43 10.5T102 50l1 19 8 12 10 17-15 39q21 16 21 41 0 15-5.5 27.5t-11 32.5q-5.5 20-5.5 58 0 28 20 62.5t48.5 69.5q28.5 35 56 64t42.5 44q65 68 110 133t68 117l14-29 44 40q1-8 4-19t4-18l42 23q4-17 2-41.5T550 693l196 40q19 0 52.5-7.5T858 707q-55-11-116.5-20t-120-21Q563 654 515 636q-20-8-53.5-25.5t-71-43Q353 542 319.5 510T265 441.5Q244 405 244 365q0-23 12-37t29.5-21q17.5-7 33.5-7h146v20H319q-18 0-36.5 10.5T264 365q0 37 20.5 72t53 65q32.5 30 68.5 53.5t67 39.5q31 16 49 22 47 18 108 29.5T752 669q57 9 114 19.5t99 31.5l217 109q13 7 28 14t19 7zM164 86q-10 0-16.5-6.5T141 63q0-10 6.5-16.5T164 40q9 0 16 6.5t7 16.5q0 10-7 16.5T164 86zm0-13q9 0 9-10t-9-10q-11 0-11 10t11 10zm-72 57l12-28-19-28V59q-11 5-22 7.5T42 69l3 30h37l-2 16-39-1-9 14q17-5 32-5 14 0 28 7zm-83 1l21-26-5-27q-7 8-11.5 16T9 109zm376 691l19-31 16 23q1-5 4-13.5t4-13.5q-19-45-54.5-99.5T290 580q23 58 42.5 122T358 811l20-19zm707 161q-4-4-4.5-14t2.5-12q5-3 14-.5t17 7.5q-1-4-1-7.5V950l1.5-7.5q1.5-7.5 8.5-4.5 5 0 14 3t14 4q-7-7-7-17 0-6 4-9t9-3q8 0 15.5 4t8.5 4l.5-.5 1.5-1.5q-8-10-20.5-21t-27.5-24q-31-27-69.5-55.5t-70.5-52Q970 746 956 735q-16-7-33.5-12.5T885 713q-12 9-33.5 16.5t-45 13Q783 748 765 750q65 52 118 93.5t96 70.5q37 26 66 42t47 27zm-732 6h62q3-1 21-5.5t45-4.5q17 0 39.5 3.5T564 989h27q4-7 13-15t22-8q5 0 12 3.5t8 5.5q-3-8-8.5-14.5T623 954q-10 0-20 6t-15 11h-50q-29 0-37.5-12.5T491 926q-2-28 0-56.5t5-58.5l-25-22-12 20q4 12 6 22.5t4 20.5v88q0 16-10 24t-27 8h-70q-3-4-10.5-9.5T334 957q-13 0-18 7.5t-6 13.5q3-3 10.5-4.5T332 972q11 0 18 6t10 11zm28-36h44q10 0 13.5-4.5T449 931v-78q-3-19-12-46l-12 36-10-17q-2 5-6 22t-9 38.5q-5 21.5-8.5 40T388 953zm-20-2q5-25 13-63t16-64l-17 24-9-31-11 16q0 5 .5 9t.5 9q0 30-1.5 45.5t-3.5 25q-2 9.5-5 21.5 4 0 9 3t8 5zm-119 30q4-2 10-4.5t13-2.5q6 0 11.5 1.5t8.5 2.5v-10q-2-2-7.5-4.5T272 961q-9 0-15 6.5t-8 13.5zm-113 0q4-2 10-4.5t12-2.5q7 0 13 2t8 3l2-9q-1-1-6.5-5t-16.5-4q-9 0-14.5 6.5T136 981zm56 0q4-2 10-4.5t13-2.5q7 0 13 2t8 3l1-9q0-1-6-5t-16-4q-9 0-15 6.5t-8 13.5z" fill="currentColor"/></svg>