<svg xmlns="http://www.w3.org/2000/svg" viewBox="0 0 595.3 480.1"><path d="M201.9 243.7l-84.6 93.5c23.4 4.5 51.6-13 84.6-52.3l20-23.4-20-17.8zM22.8 462.9c92 .4 174.3-51.6 247-155.8-14.1-12.6-27.4-25.2-40.1-37.8-35.6 50.1-71.8 77.1-108.5 81.2-21.5 3.7-29.9 1.9-25-5.6l99-109-3.9-5c-83.7 74.9-139.9 152.2-168.5 232zM505.7 390c-18.2-1.1-36.2-4.5-54-10l38.4 49c12.2-10 23.5-20.7 33.7-32 10.2-11.3 17.5-23.1 22-35.3l-56.2-23.4c11.5 19.2 16.8 36.5 16.1 51.7zM240.9 126.9c19.3-1.1 54.1-15.2 104.6-42.3 50.4-27.1 133.7-46.7 249.8-59-6.3 64.9-69.9 133.3-190.8 205.3 32.3 29.7 56.4 58.6 72.3 86.8 17.8 10.8 47.1 22.4 87.9 35-13.7 41.2-39.7 73.6-77.9 97.4-33.8-45.2-53-69-57.9-71.2-25.6-.4-42.3 3.2-50.1 10.6-7.8 7.4-13.5 24.5-17.2 51.2-3.3 5.6-7.2 8.3-11.7 8.3-4.1 0-7.2-6.9-9.5-20.6-32.6 17.8-51.1 26.1-55.4 24.8-4.3-1.3-6.4-3.6-6.4-7-.7-5.2 7.8-12.4 25.6-21.7l37.8-21.1c10-14.5 15-26.3 15-35.6-4.8-7.8-11.5-12.8-20-15-8.5 3.7-20.4 13.5-35.6 29.5-1.9 9.3-3.7 21-5.6 35l-12.8 2.8c-4.1-1.5-6.1-5-6.1-10.6-30.4 15.6-47.7 23.6-51.7 23.9-4.1-5.9-6.1-11.1-6.1-15.6 0-3.7 11.7-9.5 35-17.2 13.4-8.2 25.8-19.7 37.3-34.5l23.9-32.8-30.6-18.9C218.1 402.2 159 452.9 107.6 466.2 56.3 479.6 20.4 483.3 0 477.3 32.3 385 93.5 296.9 183.6 213.1c-5.6-8.9-9.2-29.6-10.8-62-1.7-32.5-6.2-55.1-13.6-67.9C151.7 70.4 131.5 64 98.5 64l-26.1 4.5C54.9 71 36 73.8 15.6 76.8c-5.2 1.1-8.3-1.3-9.5-7.2-.4-6.7 12.4-15.9 38.4-27.8 8.9-6.3 15-12.2 18.4-17.8C75.5 7.6 92.7-.4 114.6 0c40.1 0 68.6 21 85.7 63.1 17 42.2 30.6 63.4 40.6 63.8zm6.1 20.5c-19.3 1.9-39.9-24.8-61.8-80.1-15.6-33.4-39.1-50.6-70.7-51.7-21.1 0-36.7 6.7-46.7 20 2.6 3.3 6.1 4.8 10.6 4.5 4.5-.4 7.7-3 9.7-7.8 2-4.8 5.5-7.8 10.3-8.9 4.8-1.1 8.5.4 11.1 4.5 2.6 4.1 2.3 8.3-.8 12.8-3.2 4.5-7.7 5.6-13.6 3.3-5.9-2.2-11.9 1.5-17.8 11.1l21.1-2.8c46-.4 72.3 9.8 79 30.6 6.7 20.8 10.1 43.4 10.3 67.9.2 24.5 6.4 47.4 18.6 68.7 12.2 21.3 37.7 46.1 76.5 74.3 38.8 28.2 67.2 49.7 85.4 64.5-2.6 14.8-3.8 23.1-3.6 24.8.2 1.7 2.9-.4 8.1-6.1 5.2-5.7 15.8-9.2 31.7-10.3H450l41.7 7.8c-5.9-11.1-15.8-28.8-29.5-53.1s-37.3-52-70.7-83.2l-62.9 32.3-52.3-52.9c94.6-64.2 139.3-105 134.1-122.4l-158 76.8-4.5-11.7 175.2-84.6c7.8 23.4-4.6 48.7-37.3 75.9-32.6 27.3-60.8 50.2-84.6 68.7l32.3 29.5c129.4-65.6 210.1-134.8 242-207.5C485 50.1 409.2 69.7 348 101c-60.9 31.3-94.7 46.8-101 46.4z"/></svg>