<svg xmlns="http://www.w3.org/2000/svg" viewBox="-10 0 1160 1074"><path d="M494 1074l-40-25v-4q0-6 3.5-25t23.5-50l28-46q18-31 39.5-65.5t37-62Q601 769 601 760q0-17-15-37.5T530 680q-35 25-64.5 56T415 807q-19 34-51.5 75.5t-73.5 79q-41 37.5-85 61.5t-85 24q-17 0-40-5t-32-10q18-37 36-88.5t38.5-109Q143 777 169 722.5t60-96.5q32-41 62-67.5t41-34.5q-20-32-32.5-73.5T287 357q0-20 1-40.5t3-32.5q-40 0-71.5-3.5T166 267q-13 6-38.5 16t-51 17.5Q51 308 37 308t-27-3.5Q-3 301-10 297q2-14 10-31.5T19 239q30-18 49.5-29.5t36-27Q121 167 144 141q19-34 52-62t74-28q39 0 64.5 17.5T375 114q15 28 21 59t6 57q0 38 2.5 69t12 49q9.5 18 29.5 18 41 0 76.5-23t71-60.5Q629 245 669 202t90-84.5q50-41.5 114.5-73T1022 0q2 17 4.5 40t2.5 38q0 58-22.5 109.5t-57.5 96Q914 328 874.5 364t-74 61.5Q766 451 745 465q18 13 43.5 35.5t54.5 48q29 25.5 57 49.5t51 41q23 17 36 22 20-2 33-4t27-2q35 0 46.5 15.5T1105 712q0 9-1 20.5t-3 29.5q5 4 17 15.5t22 28.5q10 17 10 38 0 25-19.5 37.5T1092 894q-11 0-34-13t-41-25q-8 5-24 13t-34 8q-13 0-24-15t-22-36q-11-21-24.5-40T855 759q-15-6-52-13-3 9-8.5 29t-7.5 33q-9 67-16 107t-13.5 61.5q-6.5 21.5-11.5 35t-10 28.5l-66 27-43-35q2-12 9-30t18-29q25-26 37-54.5t18-45.5q3-11 7.5-34t7.5-40q-3-5-9-20.5t-12.5-31Q696 732 694 727q-2 0-4-.5t-3-.5q-8 11-15.5 30T658 795q-6 20-11 30-3 7-12.5 23.5T613 885q-12 20-22 38t-14 28q-4 13-9.5 43.5T558 1049zm12-25l34-14q1-9 4-27.5t7-36.5q4-18 7-27 3-7 13-25t22.5-39 22.5-39q10-18 13-24 6-12 12.5-34t16-43.5Q667 718 680 706q32 5 70 11t69.5 12q31.5 6 43.5 12 20 9 35.5 27.5t27 39q11.5 20.5 19.5 35t14 14.5q14 0 31-8.5t28-16.5q18 13 41 27.5t33 14.5q13 0 26-7.5t13-22.5q0-19-17-40t-34-33q3-26 4.5-38.5t1.5-20.5q0-17-7-27.5t-29-10.5q-12 0-26 2t-39 5q-22-7-55-33.5t-70.5-60q-37.5-33.5-73-64T725 478l-41 28-11-16 31-21q29-20 68.5-48.5t80.5-65q41-36.5 76.5-80t57.5-93q22-49.5 22-104.5 0-9-1-26t-3-30q-76 13-135.5 44.5t-106.5 73Q716 181 676.5 224T601 303.5Q565 340 527.5 363T446 386q-29 0-42.5-21.5t-17-56.5q-3.5-35-3.5-78 0-24-5.5-51.5t-18-52Q347 102 325 86.5T270 71q-26 0-49 14t-40.5 35q-17.5 21-27 44.5T144 206q0 25 22 37.5t60.5 16.5q38.5 4 87.5 4-2 13-4.5 39t-2.5 54q0 72 24.5 124t61 87q36.5 35 74.5 56.5t63 34.5q53 26 71.5 53t18.5 48q0 12-15 40.5T567.5 865L525 933l-28 46q-10 17-16 33t-8 25l13 11q2-13 7.5-32t16.5-36l16 10q-9 15-14 32t-6 27zM244 165q-11 0-18.5-7t-7.5-18q0-11 7.5-17.5T244 116q10 0 17 6.5t7 17.5q0 11-7 18t-17 7zm0-16q9 0 9-9t-9-9q-10 0-10 9t10 9zM12 279l115-52q-2-4-2-9.5v-21l2-9.5q-22 21-43 34.5T27 255q-4 3-8 10.5T12 279zm25 12q12 0 32-6t41-14q21-8 37-15-9-7-14-15L24 290q4 1 13 1zm83 736q39 0 80-23t79.5-58.5q38.5-35.5 69.5-75t49-72.5q20-38 47.5-69t64.5-58q-19-10-48-26t-61-42q-32-26-58-63-10 7-38 32t-61 66q-30 37-54.5 89.5t-45 107.5Q124 890 107 939.5T76 1020q10 4 22 5.5t22 1.5zm563 15l38-16q4-15 8.5-25.5t9.5-26q5-15.5 10-42t11-72.5q4-27 8-52t16-65q-18-4-35.5-7t-31.5-5l28 65q-3 18-7.5 43t-9.5 40q-7 19-20.5 49.5T668 986q-6 7-11.5 18.5T649 1025l15 14q2-12 7.5-30t15.5-35l16 9q-9 15-13.5 31.5T683 1042z" fill="currentColor"/></svg>