<svg xmlns="http://www.w3.org/2000/svg" viewBox="0 0 593.3 560.8"><path d="M117.9 76.6c11.1 0 16.4 5.5 16 16.6 0 9.5-6.1 14.3-18.3 14.3-10.7 0-16-5.1-16-15.4s6.1-15.5 18.3-15.5zm403.1-24c-38.1 8.8-48.4 8.9-30.9.3s26.5-19 26.9-31.2c-87.3 45-148.4 98.1-183.5 159.5 49.5-56 102-91.9 157.2-107.5 8.7-5.3 18.8-12.3 30.3-21.1zM70.5 80l-5.7 9.7C88 106.9 108 120 124.5 129.1c16.6 9.1 29.1 30.6 37.4 64.3 8.4 33.7 21.8 61.2 40.3 82.3 18.5 21.2 47.9 56.7 88.3 106.6l42.9 16c10.7-5.3 24.4-8.1 41.2-8.3 16.8-.2 30.3 8.5 40.6 26 8.8 16.8 19.4 24.2 32 22.3 21.3 2.7 32.2-3.6 32.6-18.9-.4-27.4-15.8-43.3-46.3-47.5-28.2-22.1-49.9-45.9-65.2-71.5l-29.2 8-12-8.6c88-47.6 142.7-83.7 164.1-108.1 9.9 1.9 17.9 1 24-2.9-19.4-9.1-19.4-14.1 0-14.9 7.2-1.1 15.1-3.2 23.4-6.3l-26.3-13.7c16.8 3 30.5-.4 41.2-10.3-16.4 0-27.6-1.2-33.7-3.7-6.1-2.5-3.9-4 6.6-4.6 10.5-.6 23.5-5.8 39.2-15.7-18.3 0-30-1.2-35.2-3.7-5.1-2.5-5-3.9.6-4.3 5.5-.4 19.7-7.1 42.6-20-34.7.8-43.3-1-25.7-5.4 17.5-4.4 27.8-12.5 30.9-24.3C571.5 66.1 542.2 76 491 92s-97.9 48.4-139.8 97.2c-41.9 48.8-76.5 71.8-103.8 69.2-27.3-2.7-45.4-13.2-54.6-31.7-9.1-18.5-17.7-53.1-25.7-103.8-8-50.7-40.2-65-96.6-42.9zM60.2 68c24.4-13.7 47.2-18 68.3-12.9 21.2 5.1 35.5 15.1 43.2 30 7.6 14.9 14.2 40.9 19.7 78 5.5 37.2 16 59.1 31.4 65.7 15.4 6.7 30.8 6.8 46 .3s37.8-34.3 67.7-83.5c30-49 93.2-97.6 189.6-145.6 6.1 18.3 4.4 32-5.1 41.2l12-1.1c0 12.2-5.5 21.7-16.6 28.6L593 43.4c1.5 19.4-3.4 32.4-14.9 38.9l12 1.7c-3 11.8-15.1 20.8-36 26.9l29.2.6c-7.6 12.6-18.1 20.8-31.4 24.6l21.2 1.1c-12.6 14.1-22.9 21.5-30.9 22.3l18.3 2.9c-13.3 11.1-25.3 17.3-36 18.9l13.7 6.9c-15.6 12.2-27.4 17.5-35.4 16-26.7 27.8-67.5 56.6-122.3 86.3 8 15.6 29 38.9 62.9 69.7 37.7-1.5 54.7 20.6 50.9 66.3 13.3 6.9 19.6 20.2 18.9 40-21 3-34.9-1.1-41.7-12.6-40.4 9.9-65.7-1.9-76-35.4-9.1-8.8-18.6-12.2-28.3-10.3-9.7 1.9-19 4.8-27.7 8.6-9.9 28.6-25 53.2-45.2 73.7-3.8 9.1-3 22.3 2.3 39.4-1.5 8-5.7 14.5-12.6 19.4 0-19.4-2.7-31.8-8-37.2-2.7 4.6-5 9.1-6.9 13.4-1.9 4.4-1.8 9.2.3 14.6 2.1 5.3-.1 12.2-6.6 20.6-4.6-1.1-7.4-13.7-8.6-37.7 5.3-17.9 15-34.6 28.9-50 13.9-15.4 22.2-31.7 24.9-48.9-3.8-5.3-10.3-9-19.4-10.9-9.1 22.1-24.2 43.4-45.2 64l4 33.2c.8 8-3.4 15.4-12.6 22.3.8-13.3-1.1-25.9-5.7-37.7-3 6.1-5.8 11.3-8.3 15.7-2.5 4.4-2.8 12.5-.9 24.3-1.1 5.7-5 9.9-11.4 12.6-4.6-5.3-6.7-13.5-6.3-24.6 3-20.6 13.2-41.4 30.6-62.3 17.3-21 27.5-39.1 30.6-54.3.4-24.8-17-55.8-52-93.2-33.5-31.3-54.6-65-63.2-101.2-8.6-36.2-23.5-61.5-44.9-75.8C82 121.9 48.8 100.3 3.8 71.3c-6.5-3.8-4.2-8.4 6.9-13.7 15 .1 31.6 3.6 49.5 10.4z"/></svg>