<svg xmlns="http://www.w3.org/2000/svg" viewBox="-10 0 1092 1088"><path d="M313 1088l-18-3 4-20-7-15-18-7-21 32-15-9 9-14-59-19-12 12-13-13 23-23 8-9v-27l93-46q4-7 13.5-23.5T318 878q13-15 33-40t34-43l-6-107q-15-6-35-22.5T303.5 627q-20.5-22-37-45.5T243 538q-9-28-14.5-66T218 397q-4-35-8-63t-10-39q-11-21-34-48t-40-45q-15-16-26-41L6 62Q-4 50-4 42q0-2 .5-4t.5-3q-7-9-7-18 0-7 3.5-12T11 0q8 0 17 4.5T48 14q9 4 17 8.5T80 29q21 7 46.5 14t41.5 9q6-1 12-1h12q55 0 94.5 26.5T326 158q0 27-3 42l-5 25q-3 13-3 23 0 28 12.5 62.5t36 62Q387 400 419 406q19-22 52-54.5t80-67Q598 250 658.5 219t134-50Q866 150 952 150q26 0 59.5 5t54.5 10q0 17-3 34 7 1 12 3t7 3q-5 58-35.5 104.5t-77.5 82Q922 427 867 454t-110 47q-55 20-102 36-9 3-14 4.5t-13 4.5q5 22 26 52.5t48.5 61Q730 690 754 712q5-2 16-3.5t22-1.5q21 0 31 12.5t13 30.5q3 18 3 35v16q6 5 18.5 15t22.5 24q10 14 10 30 0 22-10 31.5T856.5 914q-13.5 3-21.5 3-7 0-26.5-9.5T772 889q-7 3-20.5 9t-27 11q-13.5 5-21.5 5-20 0-29.5-19.5T658 856q-1-5-2.5-9.5T652 840q-10-8-23.5-16T600 809q-5 6-23 25.5T545 866q-8 7-19 13.5T504 894q-16 9-30.5 19T454 928q-7 9-21 28.5T409 991l-93 79zM107 82q4-6 9-10t12-8q-13-4-27.5-8T74 48q-8-3-17.5-7.5T40 32q-10-4-18-8.5T11 19l-1 1zm-13 43q0-15 4-26L15 42l3.5 4.5 20 21.5q20 21.5 55.5 57zm160 911q5-8 17.5-24t22.5-29q9-5 21-13t18-16q5-8 7.5-22t2.5-25q19-18 43.5-40.5T424 834q11-9 36-34.5t57-60.5l14 11-8 9q24 7 51 18.5t51 24q24 12.5 39 23.5 5 4 7 10.5t5 14.5q5 14 11.5 29.5T702 894q7 0 29.5-9t41.5-18q16 10 36 20t26 10q8 0 22-4t14-23q0-15-18-31.5T818 812q1-9 1-15v-12q0-19-4.5-38.5T792 727q-10 0-22.5 2.5T749 734q-29-26-61-62t-55.5-73Q609 562 607 533q8-3 20.5-7t21.5-7q45-15 97.5-35.5T852 437q53-26 98-58.5t74.5-72.5q29.5-40 36.5-89-8-2-24.5-5t-46.5-3q-81 0-166.5 25.5T664 301q-23 13-47.5 29T570 359q-43 28-79.5 48T427 427q-31-2-55.5-21T330 359q-17-28-26-57.5t-9-53.5q0-8 1-14t3-13q2-10 4.5-24.5T306 158q0-44-33.5-66T192 70q-29 0-54 11t-25 46q0 18 9.5 35t17.5 27q17 18 40.5 45.5T217 285q8 13 12.5 44t8.5 66q4 34 10.5 74t13.5 63q9 22 29 48t44 49q24 23 43 34l-1-11 19-1 8 150q-13 17-27.5 36t-27 34Q337 886 333 890q-8 9-17.5 24.5T301 941l-89 42q0 11 2 25l-13 13zm-22-873q-9 0-15.5-6.5T210 141q0-9 6.5-15.5T232 119q9 0 15.5 6.5T254 141q0 9-6.5 15.5T232 163zm213 243q19-5 49.5-23.5T560 342q46-30 94-58 71-40 160-67t176-27q16 0 30 1.5t25 3.5q1-3 1-7t1-7q-11-3-38.5-7.5T952 169q-99 0-181 25.5t-146 64Q561 297 516 337t-71 69zm-132 644l81-72q10-14 24-33.5t22-28.5q7-9 22-19t31-20q12-7 22.5-14t16.5-12q13-11 27.5-27t21.5-24q-20-9-39-15.5T510 774q-3 3-9 9.5T489 797l-6 53-99 97-28 6q-3 8-7 13-7 9-20 18.5T306 999l-20 28 20 9zm48-118l14-3 89-88q1-3 1.5-9t1.5-12q-9 9-17 16.5T436 849q-9 7-32 28.5T363 916q-1 2-1 6.5t-1 9.5z" fill="currentColor"/></svg>