<svg xmlns="http://www.w3.org/2000/svg" viewBox="0 0 595.3 408.5"><path d="M569.9 321.9c-22.5-11.9-40-22.4-52.5-31.5-12.5-9.1-28.4-13.2-47.7-12.1-19.3 1.1-48.9 1.2-88.8.3-39.9-.8-73.4-5.8-100.6-15-27.2-9.1-49-20.9-65.6-35.3-16.6-14.4-22-27.1-16.2-37.9 5.7-10.8 20.1-15.2 43-13.1 22.9 2.1 40.7 11.5 53.5 28-8.5-3-21.5-6.6-39.2-10.8-17.6-4.2-28.3-3.4-32.2 2.5-3.8 5.9 1.2 13.8 15 23.6s36.5 19.6 68.1 29.6c31.6 10 104.1 13.9 217.4 11.8-50.1-7.6-112.7-44.1-187.8-109.5-28-16.1-50.4-24.9-67.2-26.4-16.8-1.5-34.9 1.6-54.4 9.2s-36.1 10-49.7 7c-13.6-3-23.8-9.1-30.6-18.5 48.8 5.1 74.9-8.2 78.3-39.8 3.4-31.6-10.1-51.5-40.4-59.5s-51.9-6.3-64.6 5.4C95 41.6 89.7 53.1 91.8 64.6c19.9.4 34.2 2.7 42.7 6.7s12.7 11.1 12.7 21.3c0 8.9-12.1 18.5-36.3 28.6S74.5 142.3 74.3 154c-.2 11.7 4.1 21.3 13.1 29 8.9 7.6 31.9 23 69.1 46.2 37.1 23.1 58.6 40.9 64.3 53.2 5.7 12.3 9.5 21.3 11.5 27.1 1.9 5.7 5.3 3 10.2-8.3 4.9-11.2 11.9-16.2 21-15 9.1 1.3 22.5 4.1 40.1 8.6s31.2 10.1 40.7 16.9c9.5 6.8 15.4 10.6 17.5 11.5 5.1 1.3 8.6-2.9 10.5-12.4 1.9-9.5 7.1-15.8 15.6-18.8 8.1 12.7 16.6 17.8 25.5 15.3 8.9-2.5 14.4-6.4 16.6-11.5 32.9 17.8 79.6 26.5 139.9 26.1zM143.3 43.7c-.4 8.5-5.1 12.5-14 12.1-9.3-.4-13.6-5.1-12.7-14 0-8.1 4.7-11.9 14-11.5 8.9.5 13.1 4.9 12.7 13.4zM388.4 327c-3.8 4.2-5.7 9.3-5.7 15.3-3 14-1.9 31.2 3.2 51.6 1.3 8.9-4.9 13.4-18.5 13.4H277c-6.8-3-12.1-2.5-15.9 1.3-2.5-2.5-2.2-6.9 1-13.1 3.2-6.2 12.6-9.2 28.3-9.2 16.1 0 33.5-.8 52.2-2.5 11.5-5.1 17-13.4 16.6-24.8-4.2-6.4-10.1-14-17.5-22.9-7.4-8.9-21.3-16-41.7-21.3-20.4-5.3-35-3.8-43.9 4.5-8.9 8.3-13.4 19.2-13.4 32.8 0 13.6 1.1 27.6 3.2 42 1.3 8.9-4.9 13.4-18.5 13.4H137c-6.8-3-12.1-2.5-15.9 1.3-2.5-2.5-2.2-6.9 1-13.1 3.2-6.2 12.6-9.2 28.3-9.2 16.1 0 33.5-.8 52.2-2.5 11.5-5.1 17-13.2 16.6-24.2-.8-26.3-6-46.7-15.6-61.1-9.5-14.4-20.1-26.1-31.5-35-11.5-8.9-34.7-22.8-69.7-41.7-35-18.9-52.4-40.1-52.2-63.7.2-23.6 11.4-39.2 33.4-46.8s33.1-13.4 33.1-17.2c-.4-5.9-12.3-9.3-35.7-10.2-23.4-1.1-42.7 1.6-58 8-7.2 3.4-12.7 10-16.6 19.7-4.7-11-6.8-22.1-6.4-33.1 0-9.8 7.2-15.5 21.6-17.2C36 59.8 48.3 57 58.5 53.2c6.4-2.5 15.9-11.6 28.6-27.1C100 10.7 116.9 2.1 137.9.4c21-1.7 42.8 1.9 65.3 10.8s34.4 24 35.7 45.2-.2 37.8-4.5 49.7c25.9-5.9 50.8-3.7 74.8 6.7s54.2 30.5 90.7 60.2c36.5 29.7 70.9 50.4 103.1 62.1 32.3 11.7 62.4 22.6 90.4 32.8-11.9 6.4-29.7 10.4-53.5 12.1 2.5 5.9 11.4 12.8 26.4 20.7 15.1 7.9 24.7 16 29 24.5-20.8 11.9-48.1 16.3-81.8 13.4-33.7-3-61.4-9.8-83.1-20.4-14.4 12.6-28.4 15.6-42 8.8z"/></svg>