<svg xmlns="http://www.w3.org/2000/svg" viewBox="-10 0 1105 712"><path d="M282 712l-28-39 42-36 113 7q10 0 13.5-6t3.5-17v-15q0-10-1.5-27t-6.5-27q-8-14-25-29t-22-19q-56-12-111.5-30.5t-101.5-44Q112 404 84.5 372T57 300q0-37 13-59.5t32-34.5q19-12 38-16l-3-2-94 17q-28 5-40.5-1.5T-10 186q0-20 27-34l97-46q7-22 24-47t46-42q29-17 72-17 54 0 85.5 19.5t47 47q15.5 27.5 20 52T413 153q9-3 22-5.5t32-2.5q37 0 85 12t95.5 28.5Q695 202 730 215q71 28 145 45t149 35v33l-37 17q20 5 45.5 14t44 22q18.5 13 18.5 31 0 16-22 29t-58 24.5q-36 11.5-79 20t-85.5 15q-42.5 6.5-77 11T721 519q-4 11-9.5 33t-5.5 38q0 13 3.5 28t7.5 28q2 9 4.5 16.5T724 675q0 20-13 28.5t-37 8.5H520l-28-39 42-36 96 7q11 0 14-6t3-17v-15q0-10-6-29t-27-30q-14-7-30-11.5t-26-6.5q-22 0-52-3l-19 47v71h-1v31q0 20-13 28.5t-37 8.5zm248-20h144q30 0 30-17 0-3-2-10l-4-14q-4-13-8-30t-4-31q0-17 7-43.5t14-45.5q59-6 123.5-16t120-21.5q55.5-11.5 90-24.5t34.5-27q0-12-19-22t-43-17q-24-7-40-12l-16-3q-39 15-92.5 30.5T746 415q-65 11-137 11-68 0-126-14t-92.5-42Q356 342 356 299q0-28 23.5-54.5T425 204l11 17q-19 12-40 33.5T375 299q0 37 32 60.5t85.5 35.5Q546 407 609 407q76 0 142-11t118.5-26.5Q922 354 957 339t49-22v-8q-71-17-142-33t-141-42q-35-14-81.5-30T549 176q-46-12-82-12-21 0-42 7.5T393 186q-2-9-3-28t-6-42.5Q379 92 365 70t-40-36q-26-14-69-14-35 0-59 13t-39 32q-15 19-22 38.5t-7 32.5q0 19 16 34.5t31 18.5q24 5 49.5 6.5T292 197v19q-44 0-74.5-2t-53.5-7q-38 1-62.5 24.5T77 300q0 35 26.5 64t70.5 52q44 23 96 40t104.5 29q52.5 12 96 18.5T540 512q-17-10-32.5-22T483 469l12-14q10 9 27 21.5t35 24q18 11.5 31 16.5 17 5 35 13 28 14 35.5 38t7.5 38v15q0 20-5 32t-28 10l-95-6-14 11 82 2v14l-86-4zM249 114q-10 0-17.5-7.5T224 88q0-10 7.5-17t17.5-7q10 0 17.5 7t7.5 17q0 11-7.5 18.5T249 114zm0-16q9 0 9-10 0-8-9-8t-9 8q0 10 9 10zM10 180l100-33q-1-3-1-11 0-5 1-8l-85 41q-13 6-15 11zm13 8h8l9-1 82-16q-2-1-3.5-4t-3.5-5zm269 504h144q30 0 30-17 0-2 .5-14.5t.5-22.5v-68l19-46q-35-3-77-12 16 16 25 31 7 13 9.5 34t1.5 37v7q0 20-5 32t-28 10l-112-6-14 11 99 2-17 14-86-4z" fill="currentColor"/></svg>