<svg xmlns="http://www.w3.org/2000/svg" viewBox="-10 0 762 1014.044"><path d="M95 1014.044l-19-2q1-13 7.5-29.5t17.5-22.5q20-11 49-15t57-8.5q28-4.5 45-18.5 1-1 3.5-7.5t10-28q7.5-21.5 23.5-66.5l-44-204q-16-24-38-58.5t-43.5-70.5q-21.5-36-36.5-65t-18-43l-10-65q-4-23-7.5-49t-7.5-46q-4-20-7-29-8-18-32-34.5t-55-23.5q1-9 9-21t21-19q9-5 21.5-10.5t20.5-9.5q2-5 12.5-21.5t33.5-31q23-14.5 62-15.5 35-1 66.5 20.5t56.5 51q25 29.5 43 54.5 7 9 12.5 16t9.5 12q7 9 19 19 18 19 40.5 43.5t39.5 50.5q17 26 19 51 17 11 40.5 33t46.5 47q23 25 36 46 8 12 22.5 38t30.5 54q17 31 33 60t22 37q9 12 17 19 11 11 19.5 22t8.5 24q0 14-11.5 23.5t-28.5 9.5q-13 0-32-2t-32-4q-8 4-36.5 13.5t-63.5 9.5q-18 0-46.5-4.5t-47.5-9.5q5 15 13.5 39.5t14.5 41.5l-44 133q9 1 25 2.5t31 4q15 2.5 20 5.5 11 6 17 22.5t8 29.5l-19 2q-4-8-4-13H224q-1 2-2 6t-2 7l-19-2q0-3 2-11H99q-1 2-2 6t-2 7zm136-33h277l-4-3q-9-5-36.5-8t-50.5-5v-20l44-130q-2-4-8-22.5t-14-42.5l-15-45q25 8 62 15.5t62 7.5q26 0 54-8.5t44-15.5q13 2 32.5 4.5t33.5 2.5q21 0 21-13 0-7-7-15t-15-17l-10.5-10.5-9.5-10.5q-8-10-23.5-38.5t-33.5-60.5q-15-29-29-54t-22-37q-11-16-29.5-37t-38.5-41q-20-20-38-33v2q0 37-22.5 66.5t-73.5 29.5q-5 0-15.5-1.5t-18.5-2.5q11 16 22.5 35t11.5 29q0 17-7.5 31.5t-34.5 14.5q-17 0-43-17t-52-45q-26-28-43.5-62.5t-17.5-70.5q0-44 33-59t112-15q7 0 13.5.5t13.5.5v19h-27q-68 0-97 11t-29 43q0 32 15.5 63t38.5 56.5q23 25.5 45.5 41t37.5 15.5q14 0 18-8.5t4-18.5q0-5-10-21t-24-36.5q-14-20.5-28-38.5 20 5 45 10.5t37 5.5q41 0 59-23t18-53q0-3-.5-8t-.5-9q-1-25-17-51t-37.5-49.5q-21.5-23.5-39.5-41.5l-10.5-10.5-9.5-9.5v1l-10-12.5-13-17.5q-17-23-40.5-50.5t-52-47.5q-28.5-20-57.5-20-39 2-60 21t-28 32q4 8 11 26t8 34q-15-4-31.5-6t-30.5-4q43 21 57 56 5 13 11 51.5t12 76.5l10 64q4 14 18 41.5t33.5 60.5q19.5 33 40 65t36.5 57.5q16 25.5 23 35.5t24 30.5q17 20.5 40 46.5t47.5 53.5q24.5 27.5 46.5 51.5l-55 152q-21 0-52.5 1t-59.5 4q-28 3-36 8-2 1-4 3zm-83-870q-16 0-27-8.5t-11-13.5q0-4 11-13.5t27-9.5q18 0 28.5 8.5t10.5 14.5q0 6-10.5 14t-28.5 8zm0-15q11 0 16.5-2.5t5.5-4.5q0-7-22-7-10 0-15 2.5t-5 4.5q0 2 5 4.5t15 2.5zm-65 17q-2-6-5.5-14t-6.5-14q-10 3-28 10.5t-23 13.5q13 0 31 1t32 3zm23 868h103q3-7 7-12.5t10-8.5q5-3 21-6t32-5l60-143-15-90q-14-17-27-32t-22-27l34 159q-16 49-24 73t-13 33.5q-5 9.5-12 14.5-19 12-46.5 16.5t-55.5 9q-28 4.5-48 15.5-2 1-4 3zm196-35q13-1 35-1h35l45-126q-7-6-26-27t-42-47l10 63z" fill="currentColor"/></svg>