<svg xmlns="http://www.w3.org/2000/svg" viewBox="0 0 470.3 594.7"><path d="M91 0c38.5-.5 64.1 9.6 76.9 30.3 12.8 20.7 19.4 45.3 19.9 73.7 24.6 12 41.5 22.1 50.9 30.3 9.4 8.2 17.5 19.3 24.2 33.2 20.2 10.6 57.5 49.3 111.9 116.3 26.5 35.1 54.4 67.4 83.8 96.8 13.5 18.3 15.4 31.8 5.8 40.4-9.6 8.7-24.1 10.8-43.3 6.5-34.7 13.5-75.3 20.9-122 22.4L276 547.4c13.5 12 21.9 24.6 25.3 37.6 0 4.8-1.9 7.9-5.8 9.4-3.9 1.4-6.7-1.7-8.7-9.4-1-8.2-7.2-14.7-18.8-19.5-1.4 6.7-8.2 14.9-20.2 24.6H55.6c-5.8 0-8.7-3.1-8.7-9.4 0-10.6 21.7-16.6 65-18.1 28.9-1.9 43.3-4.6 43.3-7.9C176.4 496 187 458.2 187 441.3c0-11.1-11.6-40.7-34.7-88.8-46.6-91.6-74.1-147.8-82.3-168.7-8.2-20.9-12.5-47.3-13-79.1-7.7-12-12.3-21.4-13.7-28.2-13-3.3-27.4-12.2-43.3-26.7 11.6-14 22.9-22.9 33.9-26.7C53.2 7.7 72.2 0 91 0zm-4.3 21c8.7 0 13 4.3 13 13s-4.3 13.2-13 13.7c-8.2 0-12.3-4.1-12.3-12.3 0-9.6 4.1-14.4 12.3-14.4zm182.7 388.5c16.4 8.7 37.2 12.8 62.5 12.3 25.3-.5 51.4-7.2 78.4-20.2 7.7 5.3 14.9 7.2 21.7 5.8 6.7-1.4 10.4-5.5 10.8-12.3-.5-7.2-12.3-18.5-35.4-33.9C320.7 251 268 192.7 249.3 186.4c-.5 9.1-8.2 15.6-23.1 19.5 40.4 25.5 50.5 44.4 30.3 56.7-20.2 12.3-35.9 15.5-46.9 9.7-34.7-25.5-57.9-46.6-69.7-63.2-11.8-16.6-17.3-31.9-16.6-45.9.7-14 8.1-24.6 22-31.8 14-7.2 15.2-5.5 3.6 5.1s-16.6 22.1-15.2 34.7c1.4 12.5 14.4 30.8 39 54.9s44.9 32.1 61 24.2c16.1-7.9 14.6-17.9-4.7-30-19.3-12-29.8-22.3-31.8-30.7-1.9-8.4-.1-10.2 5.4-5.4 5.5 4.8 13.1 7.5 22.7 7.9 9.6.5 13.5-7.5 11.6-23.8-11.6-24.6-34.9-40.4-70-47.7-1-36.1-8.2-62.8-21.7-80.2-13.5-17.3-31.5-26-54.2-26-13.5 0-26.5 5.1-39 15.2v12.3c11.6 7.7 15.9 15.9 13 24.6-2.9 8.7-.8 16.7 6.1 24.2 7 7.5 10.2 19.1 9.7 35-.5 15.9 2.5 33.1 9 51.6s21.5 48.9 45.1 91 40.8 75.1 51.6 98.9c10.8 23.8 17.7 46.1 20.6 66.8 1 19.3 3.9 18.8 8.7-1.4v-27.4c41.9 14.9 62.8 30.6 62.8 46.9 0 16.4 2.4 16.8 7.2 1.4 5-15.4-.6-30.1-16.4-44zm-41.2 20.9v14.4l-36.8 112.7v1.4h28.9c11.1 0 17.6-5.3 19.5-15.9l23.8-88.8c0-9.1-11.8-17.1-35.4-23.8zM39 43.3v-13c-10.1 2.9-19.5 8.9-28.2 18.1L39 43.3zM21.7 52c5.3 6.3 13.5 11.3 24.6 15.2 7.2-4.3 5.3-10.8-5.8-19.5L21.7 52z"/></svg>