<svg xmlns="http://www.w3.org/2000/svg" viewBox="0 0 587.7 537.5"><path d="M78.3 18.9c7.8 0 11.7 3.9 11.7 11.7 0 7.8-3.9 12-11.7 12.4-7.4 0-11.1-3.7-11.1-11.1 0-8.6 3.7-13 11.1-13zm128 370.1v13.1L173 503.9v1.3h26.1c10 0 15.9-4.8 17.6-14.4l21.5-80.3c0-8.2-10.6-15.4-31.9-21.5zM35.2 39.2V27.4C26.1 30 17.6 35.5 9.8 43.7l25.4-4.5zM19.6 47c4.8 5.7 12.2 10.2 22.2 13.7 6.5-3.9 4.8-9.8-5.2-17.6l-17 3.9zm221.3-28.1c7.8 0 11.7 3.9 11.7 11.7.4 7.8-3.5 12-11.7 12.4-7.4 0-11.1-3.7-11.1-11.1 0-8.6 3.7-13 11.1-13zM50.3 533.3c-5.2 0-7.8-2.8-7.8-8.5 0-9.6 19.6-15 58.7-16.3 26.1-1.7 39.2-4.1 39.2-7.2 19.1-53.1 28.7-87.2 28.7-102.5 0-10-10.4-36.8-31.3-80.3-42.2-82.7-67-133.5-74.4-152.4-7.4-18.9-11.3-42.8-11.7-71.5-7-10.9-11.1-19.4-12.4-25.5-11.9-2.9-24.9-11-39.3-24 10.4-12.6 20.7-20.7 30.7-24.2C48.1 7 65.3 0 82.2 0c34.8-.4 58 8.7 69.5 27.4s17.5 40.9 18 66.6c22.2 10.9 37.6 20.2 46.3 28.1-.9-4.8-1.3-13.9-1.3-27.4-7-10.9-11.3-19.4-13.1-25.5-11.7-3-24.6-11.1-38.5-24.2 10.4-12.6 20.7-20.7 30.7-24.2C211.3 7 228.5 0 245.4 0c34.4-.4 57.3 8.7 68.9 27.4 11.5 18.7 17.5 40.9 18 66.6 22.6 10.9 38.1 20 46.3 27.4 8.3 7.4 15.4 17.4 21.5 30 18.3 9.6 52 44.6 101.2 105.1 24.4 31.8 49.6 60.9 75.7 87.5 12.2 16.5 13.9 28.7 5.2 36.6-8.7 7.8-21.8 9.8-39.2 5.9-31.3 12.2-68.1 18.9-110.3 20.2l-20.2 88.1c11.7 10.9 19.1 22.2 22.2 33.9 0 4.4-1.7 7.2-5.2 8.5-3.5 1.3-6.1-1.5-7.8-8.5-.9-7.4-6.3-13.3-16.3-17.6-1.3 6.1-7.6 13.5-18.9 22.2H50.3zm250-214.7c-42.2-82.7-67-133.4-74.4-152.1-.9 9.6-8.1 16.1-21.5 19.6 36.6 23.1 45.7 40.1 27.4 51.2-18.3 11.1-32.4 14-42.4 8.8C158 223 137 204 126.3 189c-10.7-15-15.7-28.8-15-41.4.7-12.6 7.3-22.2 19.9-28.7 12.6-6.5 13.7-5 3.3 4.6-10.4 9.6-15 20-13.7 31.3 1.3 11.3 13.1 27.9 35.2 49.6s40.6 29 55.2 21.9c14.6-7.2 13.2-16.2-4.2-27.1-17.4-10.9-27-20.1-28.7-27.7-1.7-7.6-.1-9.2 4.9-4.9 5 4.4 11.9 6.7 20.6 7.2 8.7.4 12.2-6.7 10.4-21.5-10.4-22.2-31.5-36.6-63.3-43.1-.9-32.6-7.4-56.8-19.6-72.5s-28.5-23.5-49-23.5c-12.2 0-23.9 4.6-35.2 13.7V38c10.4 7 14.4 14.4 11.7 22.2-2.6 7.8-.8 15.1 5.5 21.9 6.3 6.7 9.2 17.3 8.8 31.7-.4 14.4 2.3 29.9 8.2 46.7s19.5 44.2 40.8 82.2c21.3 38.1 36.9 67.9 46.7 89.4 9.8 21.5 16 41.7 18.6 60.4.9 17.4 3.5 17 7.8-1.3v-24.8c37.9 13.5 56.8 27.6 56.8 42.4 0 14.8 2.2 15.2 6.5 1.3 4.4-13.9-.7-27.2-15-39.8 14.8 7.8 30 11.6 45.7 11.4 15.7-.2 28.1-1.4 37.2-3.6-2.2-8-10.9-27.8-26.1-59.5zm31.3 81.5c-19.1 3.5-39.6 5.7-61.4 6.5l-20.9 88.1c4.8 4.4 8.9 8.7 12.4 13.1 27.9-1.3 41.8-3.5 41.8-6.5 18.7-53.1 28.1-86.8 28.1-101.2zM209.5 37.9c10.9 7 15 14.4 12.4 22.2-2.6 7.8-.9 15.1 5.2 21.9s8.9 17.3 8.5 31.7c-.4 14.4 1.5 27.6 5.9 39.8 50 97.5 80 157 89.8 178.5 9.8 21.5 16.2 41.7 19.3 60.4.9 17.4 3.3 17 7.2-1.3v-24.8c37.9 13.5 56.8 27.6 56.8 42.4 0 14.8 2.2 15.2 6.5 1.3 4.4-13.9-.7-27.2-15-39.8 14.8 7.8 33.6 11.5 56.5 11.1 22.8-.4 46.5-6.5 70.8-18.3 7 4.8 13.6 6.5 19.9 5.2 6.3-1.3 9.5-5 9.5-11.1 0-6.5-10.7-16.8-32-30.7-77.9-99.7-125.5-152.3-142.9-158-.4 8.3-7.4 14.1-20.9 17.6 36.6 23.1 45.7 40.1 27.4 51.2-18.3 11.1-32.2 14-41.8 8.8-31.8-23.1-53-42.1-63.6-57.1-10.7-15-15.6-28.8-14.7-41.4.9-12.6 7.5-22.2 19.9-28.7 12.4-6.5 13.4-5 2.9 4.6-10.4 9.6-14.9 20-13.4 31.3s13.4 27.9 35.6 49.6c22.2 21.8 40.5 29 54.8 21.9 14.4-7.2 12.8-16.2-4.6-27.1-17.4-10.9-26.9-20.1-28.4-27.7-1.5-7.6.1-9.2 4.9-4.9 4.8 4.4 11.6 6.7 20.6 7.2 8.9.4 12.3-6.7 10.1-21.5-10.4-22.2-31.3-36.6-62.7-43.1-.9-32.6-7.4-56.8-19.6-72.5-12.2-15.7-28.5-23.5-49-23.5-12.2 0-24.2 4.6-35.9 13.7v11.1zM368.8 389v13.1l-32.6 103.1h25.5c10 0 16.1-4.8 18.3-14.4l20.9-80.3c-.1-8.2-10.8-15.4-32.1-21.5zm-171-349.8V27.4c-8.7 2.6-17.2 8.1-25.5 16.3l25.5-4.5zm-15 7.8c4.4 5.7 11.5 10.2 21.5 13.7 7-3.9 5.2-9.8-5.2-17.6L182.8 47z"/></svg>