<svg xmlns="http://www.w3.org/2000/svg" viewBox="-10 0 977 1014.054"><path d="M95 1014.054l-19-2q1-13 7.5-29.5t17.5-22.5q20-11 49-15t57-8.5q28-4.5 45-18.5 1-1 3.5-7.5t10-28q7.5-21.5 23.5-66.5l-44-204q-16-24-38-58.5t-43.5-70.5q-21.5-36-36.5-65t-18-43l-10-65q-4-23-7.5-49t-7.5-46q-4-20-7-29-8-18-32-34.5t-55-23.5q1-9 9-21t21-19q9-5 21.5-10.5t20.5-9.5q2-5 12.5-21.5t33.5-31q23-14.5 62-15.5 31-1 59 16.5t52 42.5q5-10 17-23.5t33-24q21-10.5 54-11.5 36-1 67 20.5t56 51q25 29.5 43 54.5 7 9 12.5 16t9.5 12q4 5 8.5 9.5l9.5 9.5q19 19 41.5 43.5t39.5 50.5q17 26 19 51 16 11 40 33t47 47q23 25 36 46 8 12 22.5 38t30.5 54q17 31 33 60t22 37q9 12 17 19 10 11 19 22t9 24q0 14-11.5 23.5t-29.5 9.5q-13 0-32-2t-32-4q-7 4-36 13.5t-63 9.5q-18 0-46-4.5t-48-9.5q5 15 13 39.5t14 41.5l-43 133q8 1 24 2.5t31 4q15 2.5 21 5.5 10 6 16.5 22.5t8.5 29.5l-20 2q-1-3-2-7t-1-6H439q-1 2-2 6t-2 7l-19-2q0-3 2-11H314q-1 2-2 6t-2 7l-19-2q0-3 2-11h-69q-1 2-2 6t-2 7l-19-2q0-3 2-11H99q-1 2-2 6t-2 7zm351-33h277l-4-3q-9-5-36.5-8t-50.5-5l-1-20 45-130q-2-4-8-22.5t-14-42.5l-15-45q25 8 61.5 15.5t62.5 7.5q26 0 53.5-8.5t43.5-15.5q13 2 32.5 4.5t33.5 2.5q21 0 21-13 0-7-6.5-15t-15.5-17q-4-5-9-10.5t-10-10.5q-7-10-23-38.5t-34-60.5q-15-29-29.5-54t-22.5-37q-10-16-28.5-37t-39-41q-20.5-20-37.5-33v2q0 37-22.5 66.5t-73.5 29.5q-5 0-16-1.5t-18-2.5q11 16 22.5 35t11.5 29q0 17-8 31.5t-34 14.5q-17 0-43-17t-52-45q-26-28-43.5-62.5t-17.5-70.5q0-44 33-59t112-15q6 0 13 .5t14 .5v19h-27q-68 0-97 11t-29 43q0 32 15.5 63t38.5 56.5q23 25.5 45.5 41t37.5 15.5q14 0 18-8.5t4-18.5q0-5-10-21t-24.5-36.5q-14.5-20.5-27.5-38.5 19 5 44.5 10.5t37.5 5.5q41 0 58.5-23t17.5-53v-8l-1-9q0-25-16-51t-37.5-49.5q-21.5-23.5-39.5-41.5-6-5-11-10.5t-9-9.5v1q-4-5-9.5-12.5t-13.5-17.5q-16-23-40-50.5t-52-47.5q-28-20-58-20-39 2-59.5 21t-28.5 32q4 8 11 26t8 34q-15-4-31.5-6t-30.5-4q41 20 57 56 4 13 10.5 51.5t12.5 76.5l9 64q4 14 18.5 41.5t34 60.5q19.5 33 40 65t36.5 57.5q16 25.5 23 35.5t24 30.5q17 20.5 40 46.5t47.5 53.5q24.5 27.5 46.5 51.5l-55 152q-21 0-53 1t-59.5 4q-27.5 3-35.5 8-2 1-4 3zm-54-40q7-1 14-1.5t14-2.5l41-122q-2-4-8-22.5t-14-42.5l-15-45q9 2 25.5 6.5t33.5 8.5l-23-108q-15-21-34-51t-38-61.5q-19-31.5-35-59.5-10-2-12-2 11 16 22.5 35t11.5 29q0 17-7.5 31.5t-34.5 14.5q-17 0-43-17t-52-45q-26-28-43.5-62.5t-17.5-70.5q0-41 30.5-56.5t101.5-17.5q-4-29-9-56t-8-37q-9-18-32.5-34.5t-54.5-23.5q2-9 9-21t20-19l32-15q-22-22-46.5-37.5t-49.5-15.5q-39 2-60 21t-28 32q4 8 11 26t8 34q-15-4-31.5-6t-30.5-4q43 21 57 56 5 13 11 51.5t12 76.5l10 64q4 14 18 41.5t33.5 60.5q19.5 33 40 65t36.5 57.5q16 25.5 23 35.5t24 30.5q17 20.5 40 46.5t47.5 53.5q24.5 27.5 46.5 51.5zm-29-830q-16 0-27-8.5t-11-13.5q0-4 11-13.5t27-9.5q18 0 28.5 8.5t10.5 14.5q0 6-10.5 14t-28.5 8zm-215 0q-16 0-27-8.5t-11-13.5q0-4 11-13.5t27-9.5q18 0 28.5 8.5t10.5 14.5q0 6-10.5 14t-28.5 8zm215-15q10 0 16-2.5t6-4.5q0-7-22-7-10 0-15.5 2.5t-5.5 4.5q0 2 5.5 4.5t15.5 2.5zm-215 0q11 0 16.5-2.5t5.5-4.5q0-7-22-7-10 0-15 2.5t-5 4.5q0 2 5 4.5t15 2.5zm149 17q-2-6-5-14t-6-14q-10 3-28 10.5t-24 13.5q14 0 31.5 1t31.5 3zm-214 0q-2-6-5.5-14t-6.5-14q-10 3-28 10.5t-23 13.5q13 0 31 1t32 3zm250 416q14 0 18.5-8.5t4.5-18.5q0-5-10-21t-24.5-36.5q-14.5-20.5-27.5-38.5 7 2 20.5 6t26.5 6q-7-14-11.5-25t-5.5-18l-10-65-2-11q-62 1-89 12.5t-27 41.5q0 32 15.5 63t38.5 56.5q23 25.5 45.5 41t37.5 15.5zm-12 452h103q3-7 7-12.5t10-8.5q5-3 21-6t32-5l60-143-15-90q-14-17-27-32t-22-27l34 159q-17 49-24.5 73t-12.5 33.5q-5 9.5-12 14.5-18 12-46 16.5l-56 9-48 15.5q-2 1-4 3zm-215 0h103q3-7 7-12.5t10-8.5q5-3 21-6t32-5l60-143-15-90q-14-17-27-32t-22-27l34 159q-16 49-24 73t-13 33.5q-5 9.5-12 14.5-19 12-46.5 16.5t-55.5 9q-28 4.5-48 15.5-2 1-4 3zm337-50q7-3 12.5-6t10.5-7q1-1 4-7.5t11-28q8-21.5 23-66.5l-17-75q-10-2-19-4t-14-3q5 15 13.5 39.5t14.5 41.5zm-141 15q13-1 32-1h32q4 0 7-1l44-125q-7-6-26-27t-42-47l10 63zm215 0q14-1 35.5-1H587l44-126q-6-6-25-27t-42-47l10 63zm-286 35h68q2-3 3.5-6.5t4.5-7.5q-25 2-45 4.5t-27 6.5q-2 1-4 3z" fill="currentColor"/></svg>