<svg xmlns="http://www.w3.org/2000/svg" viewBox="-10 0 1028 1014.044"><path d="M309 1014.044l-19-2q1-13 7.5-29.5t17.5-22.5q20-11 49-15t57-8.5q28-4.5 44-18.5 2-1 4.5-7.5t10-28q7.5-21.5 23.5-66.5l-44-204q-20-30-48.5-74.5t-51.5-84.5h-13l-91 17H138l-82-36-66-62 27-38 73 51q10 6 33 13t41 12l103-8-3-16q-3 1-15 1.5t-23 1q-11 .5-15 .5-8 0-24.5-1.5t-34-5q-17.5-3.5-26.5-7.5l10-47q4 1 17 2.5t28 2.5q15 1 25 1 9 0 23.5-1.5t28-3q13.5-1.5 19.5-2.5l42 22-6-39q-4-23-7.5-49t-7.5-46q-4-20-7-29-9-18-32.5-34.5t-54.5-23.5q1-9 8-21t21-19q10-5 22-10.5t20-9.5q2-5 13-21.5t34-31q23-14.5 62-15.5 35-1 66.5 20.5t56.5 51q25 29.5 43 54.5 7 9 12 16t10 12q4 5 8.5 9.5l9.5 9.5q19 19 41.5 43.5t39.5 50.5q17 26 19 51 6 5 13.5 10.5t15.5 12.5l128 1 11-8 21-265h121l18 350-26 34H818q9 14 22 36.5t26 46.5q17 31 33 60t22 37q9 12 17 19 11 11 19.5 22t8.5 24q0 14-11.5 23.5t-29.5 9.5q-14 0-32.5-2t-31.5-4q-8 4-36 13.5t-63 9.5q-18 0-46.5-4.5t-47.5-9.5q5 15 13 39.5t14 41.5l-43 133q9 1 25 2.5t30.5 4q14.5 2.5 20.5 5.5 11 6 17 22.5t8 29.5l-20 2q-1-3-2-7t-1-6H438q-1 2-2 6t-2 7l-19-2q0-3 2-11H313q-1 2-2 6t-2 7zm31-654l57-5v-2q0-44 33-59t112-15q6 0 13 .5t14 .5v19h-27q-68 0-97 11t-29 43v1l174-15 81 1q0-3-.5-6t-.5-5q-1-25-16.5-51t-37-49.5q-21.5-23.5-39.5-41.5-6-5-11-10.5t-9-9.5v1l-10-12.5-13-17.5q-17-23-40.5-50.5t-52-47.5q-28.5-20-57.5-20-39 2-60 21t-28 32q4 8 11 26t8 34q-15-4-31.5-6t-30.5-4q41 20 57 56 5 13 11 51.5t12 76.5zm22-249q-17 0-27.5-8.5t-10.5-13.5q0-4 10.5-13.5t27.5-9.5q18 0 28.5 8.5t10.5 14.5q0 6-10.5 14t-28.5 8zm0-15q11 0 16.5-2.5t5.5-4.5q0-7-22-7-10 0-15.5 2.5t-5.5 4.5q0 2 5.5 4.5t15.5 2.5zm-66 17q-1-6-4.5-14t-6.5-14q-10 3-28 10.5t-24 13.5q14 0 32 1t31 3zm-156 339h114l90-19h637l17-23-16-321h-83l-21 259-17 14-272-4-263 21-4-6-49-26q-8 1-31 4.5t-36 3.5q-7 0-20-1t-25-2q-12-1-16-3l-3 13q16 7 38 9t31 2q4 0 19-.5l30-1 19-.5 8 46-124 10q-20-5-46-13t-36-15l-61-42-11 12 54 48zm413 77q14 0 18-8.5t4-18.5q0-5-9-19t-20-30h-93q24 33 53 54.5t47 21.5zm-108 452h277l-4-3q-9-5-36.5-8t-50.5-5l-1-20 45-130q-2-4-8-22.5t-14-42.5l-15-45q25 8 61.5 15.5t62.5 7.5q26 0 53.5-8.5t43.5-15.5q13 2 32.5 4.5t33.5 2.5q21 0 21-13 0-7-6.5-15t-15.5-17q-5-5-10-10.5t-9-10.5q-8-10-23.5-38.5t-33.5-60.5q-15-29-29.5-54t-22.5-37l-1-2H571q9 14 16.5 28t7.5 21q0 17-8 31.5t-34 14.5q-22 0-58-27.5t-64-67.5h-49q20 34 43 71t42.5 66q19.5 29 26.5 41 7 10 24 30.5t40 46.5q23 26 47.5 53.5t46.5 51.5l-55 152q-21 0-53 1t-59.5 4q-27.5 3-35.5 8-2 1-4 3zm-125 0h103q3-7 7-12.5t10-8.5q5-3 21-6t32-5l60-143-15-90q-14-17-27-32t-22-27l34 159q-16 49-24 73t-13 33.5q-5 9.5-12 14.5-19 12-46.5 16.5t-55.5 9q-28 4.5-48 15.5-2 1-4 3zm196-35q13-1 35-1h35l44-126q-6-6-25-27t-42-47l10 63z" fill="currentColor"/></svg>