<svg xmlns="http://www.w3.org/2000/svg" viewBox="0 0 595.3 509.8"><path d="M233.3 0c33-.4 55 8.3 65.9 26 10.9 17.7 16.6 39 17 63.7 21 10.3 35.6 18.9 43.6 25.7 8 6.8 15 16.2 20.7 28.2 17.3 9.1 49.3 42.3 95.9 99.6 22.7 30.5 46.6 58.2 71.8 82.9 11.6 16.1 13.2 27.7 5 35-8.3 7.2-20.8 9.2-37.7 5.9-29.3 11.1-63.9 17.3-104 18.6l-19.8 84.2c11.6 10.3 18.8 21 21.7 32.2 0 4.1-1.8 6.7-5.3 7.7s-5.9-1.5-7.1-7.7c-.8-7.4-6.2-13.2-16.1-17.3-1.2 6.2-7 13.2-17.3 21H203c-5.4 0-8-2.7-8-8 0-9.1 18.8-14.2 56.3-15.5 24.8-1.2 37.1-3.5 37.1-6.8 18.2-50.3 27.2-82.5 27.2-96.5 0-9.9-9.9-35.5-29.7-76.7-40-78-63.5-126-70.5-144.2-7-18.2-10.7-40.6-11.1-67.4-6.6-10.7-10.5-19-11.8-24.8-11.1-2.9-23.5-10.5-37.1-22.9 9.9-11.6 19.6-19 29.1-22.3C200.9 6.8 217.2 0 233.3 0zm-3.7 18c7.4 0 11.1 3.7 11.1 11.1 0 7.8-3.7 11.8-11.1 11.8-7 0-10.5-3.5-10.5-10.5 0-8.3 3.5-12.4 10.5-12.4zm155.9 332.9c14.4 7.4 32.5 10.9 54.1 10.5 21.7-.4 44-6.2 67.1-17.3 6.6 4.5 12.8 6.2 18.6 5 5.8-1.2 8.9-4.7 9.3-10.5-.4-6.2-10.5-15.9-30.3-29.1-74.3-94.1-119.4-144-135.5-149.7-.4 8.3-7 13.8-19.8 16.7 34.7 21.9 43.3 38.1 26 48.6-17.3 10.5-30.7 13.3-40.2 8.4-29.7-21.5-49.6-39.4-59.7-53.8-10.1-14.4-14.9-27.6-14.2-39.6.6-12 6.9-21 18.9-27.2 12-6.2 13-4.7 3.1 4.3s-14.2 19-13 29.7c1.2 10.7 12.4 26.4 33.4 47s38.5 27.6 52.3 21c13.8-6.6 12.5-15.2-4-25.7s-25.6-19.4-27.2-26.6c-1.6-7.2-.1-8.8 4.6-4.6s11.2 6.5 19.5 7.1c8.3.6 11.6-6.1 9.9-20.1-9.9-21.5-29.9-35.3-60-41.5-.8-30.9-7-53.8-18.6-68.7-11.6-14.9-27-22.3-46.4-22.3-11.6 0-22.7 4.3-33.4 13v11.1c9.9 6.2 13.6 13 11.1 20.4-2.5 7.4-.7 14.3 5.3 20.7 6 6.4 8.8 16.5 8.4 30.3-.4 13.8 2.2 28.6 7.7 44.2 5.6 15.7 18.5 41.6 38.7 77.7 20.2 36.1 35 64.5 44.2 85.1 9.3 20.6 15.2 39.6 17.6 56.9.8 16.9 3.3 16.7 7.4-.6v-24.1c35.9 12.8 53.8 26.2 53.8 40.2 0 14 2.1 14.4 6.2 1.2 4.1-13.2-.9-25.8-14.9-37.7zm-34.6 17.9v12.4l-31.6 97.2v.6h24.8c9.5 0 15.1-4.5 16.7-13.6l20.4-76.1c0-7.9-10.1-14.7-30.3-20.5zM188.7 37.1V26c-8.7 2.5-16.7 7.8-24.1 16.1l24.1-5zm-14.8 7.5c4.5 5.8 11.6 10.3 21 13.6 6.2-4.1 4.5-9.9-5-17.3l-16 3.7zm331.7 185c9.5-.4 18.4-39.6 26.6-117.6.8-12 11.6-17.9 32.2-17.9s30.9 10.1 30.9 30.3v151l-90.3-.6-320 1.2-56.3 6.2c-84.2-.4-127.1-7-128.7-19.8C0 248.8 5.8 242 17.3 242c23.5 7.4 50.4 11.4 80.8 12.1s49.6-4.4 57.9-15.2c-4.1-5.8-9.7-8.7-16.7-8.7-12.4-.8-32 1.2-58.8 6.2-13.6 0-20.4-4.5-20.4-13.6 0-7 2.5-10.5 7.4-10.5 6.6 0 26.6-3.3 60-9.9l18.6 1.2c16.5 0 35.3 11.8 56.3 35.3l28.5 1.9 274.7-11.2zm32.1-.6h38.4V125c0-9.5-4.3-14.2-13-14.2-8.3 0-12.6 2.9-13 8.7L537.7 229z"/></svg>