<svg xmlns="http://www.w3.org/2000/svg" viewBox="0 0 588.1 591.4"><path d="M120.6 20.8c8.6 0 12.9 4.3 12.9 12.9.5 8.6-3.8 13.2-12.9 13.6-8.1 0-12.2-4.1-12.2-12.2 0-9.5 4.1-14.3 12.2-14.3zm181.7 386.4c16.8 8.6 37.6 12.7 62.5 12.2s51-7.2 78.3-20.1c7.2 5.3 14.2 7.2 21.2 5.7 6.9-1.4 10.4-5.5 10.4-12.2 0-7.2-11.7-18.4-35.2-33.8-85.7-109.6-138.1-167.6-157.3-173.8 0 9.1-7.7 15.6-23 19.4 40.2 25.4 50.3 44.2 30.2 56.4-20.1 12.2-35.4 15.4-46 9.7-34.5-25.4-57.6-46.3-69.3-62.8-11.7-16.5-17.2-31.7-16.5-45.6.7-13.9 7.9-24.4 21.5-31.6 13.6-7.2 14.7-5.5 3.2 5s-16.4 22-14.7 34.5c1.7 12.4 14.7 30.6 39.1 54.6s44.5 32 60.3 24.1c15.8-7.9 14.1-17.8-5-29.8s-29.6-22.1-31.2-30.5c-1.7-8.4.1-10.2 5.4-5.4 5.3 4.8 12.8 7.4 22.6 7.9s13.5-7.4 11.1-23.7C258.4 143 235.4 127.2 201 120c-1-35.9-8.1-62.5-21.5-79.7s-31.4-25.9-53.9-25.9c-13.4 0-26.6 5-39.5 15.1v12.2c12 7.7 16.5 15.8 13.6 24.4-2.9 8.6-.8 16.6 6.1 24.1 6.9 7.4 10.1 19 9.3 34.8-.7 15.8 2.2 32.9 8.6 51.3 6.5 18.4 21.4 48.6 44.9 90.5s40.6 74.7 51.3 98.4c10.8 23.7 17.8 45.8 21.2 66.4 1 19.1 3.6 18.7 7.9-1.4v-27.3c41.6 14.8 62.5 30.4 62.5 46.7 0 16.3 2.4 16.8 7.2 1.4 4.9-15.3-.6-29.9-16.4-43.8zM261.4 428v14.4l-35.9 112v1.4h28c11 0 17.7-5.3 20.1-15.8l23-88.3c.5-9.1-11.3-17-35.2-23.7zM73.2 43.1V30.2C63.7 33 54.6 39 46 48.1l27.2-5zm-16.5 8.6c4.8 6.2 12.7 11.3 23.7 15.1 7.7-4.3 5.7-10.8-5.7-19.4l-18 4.3zm275.1 395.7l-22.3 96.9c12.9 12 21.1 24.4 24.4 37.3 0 4.8-1.9 7.9-5.7 9.3-3.8 1.4-6.7-1.7-8.6-9.3-1-8.1-6.9-14.6-18-19.4-1.4 6.7-8.4 14.8-20.8 24.4H90.5c-6.2 0-9.3-3.1-9.3-9.3 0-10.5 21.5-16.5 64.6-18 29.2-1.9 43.8-4.5 43.8-7.9 20.6-58.4 30.9-96 30.9-112.7 0-11-10.8-38.8-32.3-83.3-52.2 5.7-108.7 7.9-169.5 6.5-8.6 0-14.8-7.7-18.7-23 .5-3.8 21.7-9 63.6-15.4 41.9-6.5 75-12.6 99.5-18.3-32.1-63.7-51.7-104.4-58.9-122.1-8.1-21.1-12.2-47.4-12.2-79-7.7-12-12.4-21.3-14.4-28-12.9-3.4-27-12.2-42.4-26.6C46.7 35.7 57.9 26.8 68.9 23 88.1 7.7 107 0 125.7 0c37.8-.5 63.1 9.6 75.8 30.2 12.7 20.6 19.5 45 20.5 73.2 24.4 12 41.2 22 50.3 30.2 9.1 8.1 17 19.1 23.7 33 16.8 8.6 41.4 31.8 74 69.7 30.2-9.6 51.9-20.2 65.3-32 13.4-11.7 20.6-23.9 21.5-36.6 1-12.7-24.2-24.8-75.4-36.3l-.7-110.6h74.7c1.4 37.8 5.5 61.5 12.2 71.1 6.7 9.6 28 18.1 63.9 25.5 35.9 7.4 54.3 14.5 55.3 21.2 5.7 18.2-6.7 43.7-37.3 76.5-30.6 32.8-74.9 59.5-132.8 80.1 22 28.2 46.7 56 74 83.3 13.4 18.2 15.3 31.6 5.7 40.2-9.6 8.6-23.9 10.8-43.1 6.5-34.6 13.3-75.1 20.8-121.5 22.2zM400 273.6c26.8-4.8 57-17 90.5-36.6s57.9-50 73.2-91.2C487.6 131 447 114.9 442 97.7c-5-17.2-7.5-35.7-7.5-55.3H400v68.9c54.6 15.8 81.9 34.7 81.9 56.7 0 39.7-31.8 68.7-95.5 86.9 4.2 6.3 8.8 12.5 13.6 18.7zm-229.8 48.1c-46.4 9.6-93.8 17.2-142.2 23-4.8 3.8-1.2 5.5 10.8 5 51.2-2.4 98.4-6.5 141.5-12.2l-10.1-15.8z"/></svg>