<svg xmlns="http://www.w3.org/2000/svg" viewBox="-10 0 937 1023"><path d="M163 1023l-20-2q2-13 8-29.5t17-22.5q19-11 48.5-15t58-8.5Q303 941 319 927q1-1 3.5-7.5t10.5-28q8-21.5 23-66.5l-3-15q-84 34-174 53.5T-10 883v-30q92-27 182-61t162-68l-22-103q-16-24-38-58.5T230.5 492Q209 456 194 427t-18-43l-9-65q-4-23-8-49t-8-46q-4-20-6-29-9-18-32.5-34.5T57 137q2-9 9-21t21-19q9-5 21.5-10.5T129 77q2-5 12.5-21.5t33.5-31Q198 10 238 9q35-1 66 20.5t56 51q25 29.5 43 54.5 7 9 12.5 16t9.5 12q4 5 9 9.5t10 9.5q19 19 41 43.5t39 50.5q17 26 20 51 16 11 40 33t46.5 47q22.5 25 36.5 46l10 17q29-35 48-71t19-70q0-20-16.5-36.5t-41-28.5Q662 252 636 244t-45.5-11.5Q571 229 566 230q9-22 18-61t9-76q0-24-1.5-49.5T589 8l77-8q-5 23-10 54.5t-5 49.5q0 31 25.5 60t67 54.5q41.5 25.5 90 46T927 299q-8 46-59 118.5T732 569q14 25 25.5 46t16.5 27q5 5 9 10t9 9q11 11 19 22t8 24q0 14-11 23.5t-29 9.5q-14 0-32.5-2t-31.5-4q-8 4-36.5 13.5T616 757q-18 0-46.5-4.5T522 743q5 15 13 39.5t14 41.5l-44 133q9 1 25 2.5t30.5 4Q575 966 581 969q11 6 17.5 22.5t8.5 29.5l-20 2q-1-3-2-7t-2-6H291q-1 2-1.5 6t-1.5 7l-20-2q0-3 2-11H166q-1 2-1.5 6t-1.5 7zm560-470q76-70 123-135.5T904 312q-46-14-94-35.5T721.5 228q-40.5-27-65-58.5T632 104q0-14 3-39t6-43l-31 4q1 11 1.5 29.5T612 93q0 29-6 62.5T595 209q17 3 45 13t56 25q28 15 47.5 36t19.5 46q0 38-21.5 78.5T687 487q8 13 16 28l16 30zM298 990h278l-5-3q-8-5-36-8t-51-5v-20l44-130q-1-4-7-22.5T507 759l-15-45q25 8 61.5 15.5T616 737q25 0 53-8.5t44-15.5q13 2 32.5 4.5T779 720q21 0 21-13 0-7-7-15t-15-17q-5-5-10-10.5t-9-10.5q-8-10-24-38.5T702 555q-16-29-30-54t-22-37q-11-16-29-37t-38.5-41Q562 366 545 353v2q0 37-22.5 66.5T449 451q-5 0-15.5-1.5T415 447q10 16 21.5 35t11.5 29q0 17-7.5 31.5T406 557q-17 0-43-17t-52-45q-26-28-43.5-62.5T250 362q0-44 33.5-59T396 288q6 0 12.5.5t13.5.5v19h-26q-69 0-97.5 11T270 362q0 32 15.5 63t38 56.5q22.5 25.5 45 41T406 538q14 0 18.5-8.5T429 511q0-5-10-21t-24-36.5Q381 433 367 415q19 5 44 10.5t38 5.5q40 0 58-23t18-53q0-3-.5-8t-.5-9q-1-25-16.5-51T470 237.5Q448 214 430 196q-5-5-10-10.5t-9-9.5v1l-10-12.5-13-17.5q-17-23-41-50.5T295 49q-28-20-57-20-39 2-60 21t-29 32q4 8 11.5 26t8.5 34q-15-4-32-6t-31-4q43 20 57 56 5 13 11.5 51.5T186 316l10 64q4 14 18.5 41.5t34 60.5q19.5 33 39.5 65t36.5 57.5Q341 630 348 640q7 11 25 32.5t40.5 47q22.5 25.5 43.5 49t34.5 38.5l13.5 15-54 152q-22 0-53.5 1t-59 4q-27.5 3-35.5 8-4 2-5 3zm-83-870q-16 0-26.5-8.5T178 98q0-4 10.5-13.5T215 75q18 0 28.5 8.5T254 98q0 6-10.5 14t-28.5 8zm0-15q11 0 16.5-2.5T237 98q0-7-22-7-9 0-14.5 2.5T195 98q0 2 5.5 4.5T215 105zm-65 17q-2-6-5.5-14T138 94q-9 3-27 10.5T87 118q14 0 31.5 1t31.5 3zm23 868h103q3-7 7-12.5t10-8.5q6-3 22-6t32-5l59-143-14-90q-14-17-27-32t-23-27l35 159q-16 49-24 73t-13 33.5q-5 9.5-13 14.5-18 12-45.5 16.5t-56 9Q197 976 178 987q-4 2-5 3zM15 863q80 0 165-20t168-54l-10-45q-66 32-148.5 63T15 863zm399-103l9-5-10-7zm-45 195q14-1 36-1h35l44-126q-5-5-18.5-20.5T434 773l-14 6 7 38z" fill="currentColor"/></svg>