<svg xmlns="http://www.w3.org/2000/svg" viewBox="-10 0 940.393 1041"><path d="M23.393 1041l-14-44 30-9q-2-4-5-12t-5-14q14-6 49-18t81.5-21.5q46.5-9.5 95.5-9.5 11 0 38.5 3t64 7.5q36.5 4.5 75 9.5t72.5 10q-14-23-26-46.5t-23-44.5q-6-11-10.5-20.5t-9.5-18.5q-49-29-78-59t-51-59q-25 21-62.5 45.5t-80.5 50.5q-43 26-85.5 49t-77.5 41q-4-25-8.5-59.5t-2-69q2.5-34.5 17.5-58.5 40-55 88.5-100.5t89.5-99.5h1q-12-32-12-62 0-20 7-49t17.5-59.5q10.5-30.5 20.5-57.5 9-26 16.5-47t7.5-29q0-14-2.5-21t-13.5-7q-10 0-28-.5t-36.5-6q-18.5-5.5-31.5-19.5l-111 26-4-12 74-38h-61V98h62l-75-39 4-12 102 24q6-27 24.5-42.5t42-22q23.5-6.5 44.5-6.5 33 0 58 15.5t39 39q14 23.5 14 47.5 0 18-7.5 49.5t-15.5 60.5l-9.5 38-4.5 25q0 18 13 34t37 16q9 0 22.5-8.5t26.5-20.5q13-12 22-21 2-1 5-4t14-13.5q11-10.5 34.5-32.5t65.5-61q15-14 40-32t61-32q36-14 83-14 37 0 72 21.5t53 41.5q-48 21-82.5 48t-64 62.5q-29.5 35.5-60.5 79.5-16 21-32.5 44t-36.5 42l45 36 64 46q20 12 50 32.5t61.5 46q31.5 25.5 57 54.5t35.5 60h21l15 51-31 22q1 53-22.5 99t-62 75q-38.5 29-82.5 29-16 0-47.5-9.5t-55.5-18.5q3 10 7.5 23.5t6.5 21.5l-47 38q-37-7-81.5-16t-82-15q-37.5-6-53.5-7-24-1-57-5t-55-7q10 13 20 23l-22 33q-16-11-40-22.5t-43-11.5q-13 0-41 6t-60 15q-32 9-58 17zm11-24q13-3 42-11t59-15q30-7 47-7 21 0 42.5 9t32.5 18l7-8-34-34 5-12q18 3 45.5 6.5t55 6.5q27.5 3 44.5 4 11 0 47 6.5t81 16q45 9.5 84 17.5l28-27q-3-10-10-34t-12-43q19 10 44.5 21t50 18.5q24.5 7.5 39.5 7.5 39 0 74-28t55-72q20-44 18-93l30-20-9-25h-21q-8-31-30.5-60t-52.5-54q-30-25-61-46t-55-36q-12-7-33-23t-43.5-32.5q-22.5-16.5-36.5-27.5-7 7-18.5 17t-22.5 18l-12-16q11-7 22-17t17-16q22-22 43.5-47t38.5-51q38-53 81.5-102t107.5-83q-11-11-35-24.5t-57-13.5q-43 0-76.5 13t-56.5 30.5q-23 17.5-37 30.5l-120 110q-11 10-25.5 23t-30 23q-15.5 10-28.5 10-34 0-51.5-22.5t-17.5-47.5q0-9 4.5-27t10.5-41q7-28 14.5-57.5t7.5-47.5q0-29-25.5-56t-66.5-27q-20 0-42 7t-37.5 24.5q-15.5 17.5-15.5 47.5 0 24 17.5 33t39 10.5q21.5 1.5 32.5 1.5 19 0 27.5 10.5t7.5 36.5q0 10-7 32t-18 50q-14 41-29 86.5t-15 73.5q0 30 14 64.5t34.5 69q20.5 34.5 41.5 62.5 25 35 45 62t42 49.5q22 22.5 52 43.5-4-14-8-32.5t-4-37.5q0-23 10-51t31-47.5q21-19.5 54-19.5 11 0 19 .5t12 1.5l-3 19q-10-2-28-2-27 0-43.5 16.5t-24 40q-7.5 23.5-7.5 42.5 0 31 12.5 63.5t29.5 66.5q13 25 29 55.5t44 71.5q-39-6-84.5-12.5t-88-12q-42.5-5.5-74-9t-44.5-3.5q-70 0-121.5 14t-79.5 25l4 10q15-5 33.5-10.5t31.5-6.5l3 15q-13 2-36.5 8.5t-59.5 18.5zm170-920q-17 0-17-18 0-7 5-12t12-5q7 0 12 5t5 12q0 7-5 12.5t-12 5.5zm-84 1V84l-49-12zm-49 39l54-13q-1-2-2-5t-2-7zm-55 714q17-9 52-27.5t77-43q42-24.5 82.5-51t67.5-50.5q-34-48-60.5-89t-40.5-75q-38 49-85 92.5t-85 97.5q-11 15-13 43t.5 56.5q2.5 28.5 4.5 46.5z" fill="currentColor"/></svg>