<svg xmlns="http://www.w3.org/2000/svg" viewBox="0 0 571.1 568.9"><path d="M70.6 23.6C85.6 5.7 103.7-2 124.8.4c52.7 6.5 80.5 29.3 83.4 68.5 2.8 39.2 6.1 71 9.7 95.6 3.7 24.5 7.6 41.4 11.9 50.5 4.3 9.1 13.8 12.5 28.6 10 14.8-2.4 33.6-7.8 56.3-16.1 22.7-8.3 41.6-12.5 56.6-12.5s37.3 7.1 67 21.3V228c-35.3 13.4-60.5 30-75.5 49.9 53.6 17.9 97.8 37.9 132.7 60.3 10.1-6.9 18.9-9.5 26.2-7.9 7.3 1.6 13 5.7 17 12.2 4.1 6.5 3.7 15.6-1.2 27.4 38.5 41 44 83.4 16.4 127.2-28.8 32.9-72.2 42.8-130.2 29.8-2 15.4-7.9 21.9-17.7 19.5-26.8-2.4-56.2-11.8-88.3-28-32.1-16.2-54.8-24.5-68.2-25 31.6 28 48.7 48.1 51.1 60.3-2.8 7.3-6.3 12.4-10.3 15.2 1.6-5.3-.2-9.3-5.5-12.2-11.4-2.4-19.2-8.6-23.4-18.6-4.3-9.9-12.9-18-25.9-24-31.6 5.7-62.5 6.1-92.5 1.2-14.2 2-22.3 6.7-24.3 14-4.9-4.1-6.9-8.9-6.1-14.6 1.2-8.1 9.6-13.2 25.3-15.2 15.6-2 31.8-2.8 48.4-2.4 16.6.4 25.6-2.2 26.8-7.9 8.9-10.5 23.2-15.9 42.9-16.1 19.7-.2 44.9 2.1 75.8 7-25.6-18.3-53.8-48.9-84.6-91.9-67.8 19.1-108.7 21.5-122.9 7.3 10.5-30.4 30-55 58.4-73.6-13.8-39-18.5-79.9-14-122.9s-1.7-68.9-18.6-77.6-42.9-13.5-78.2-14.3c-18.7 4.9-41.4 8.1-68.2 9.7l-.7-5c21.1-13.4 36.7-24.5 46.9-33.5-17.9 1.2-34.1-.8-48.7-6.1 21.5-9.3 38.3-12.2 50.5-8.5C44.4 53.2 27.2 43.2 0 33.9v-6.1c26.4-4.4 49.9-5.9 70.6-4.2zm70 28.6c-1.6 9.7-7.3 13.8-17 12.2-11.8-1.6-16.8-7.1-15.2-16.4 1.2-8.9 7.1-13.2 17.7-12.8 10.8 2.8 15.7 8.5 14.5 17zM77.9 85.6c45 2 75.5 11 91.3 26.8s21.8 48.7 18 98.6c-3.9 49.9 5.1 88.5 26.8 115.6 21.7 27.2 36.2 42 43.5 44.4 33.7 46.7 66.7 82 99.2 105.9l-15.2-43.8c-8.1-28.4-.4-42.8 23.1-43.2 21.5 1.2 32.1 5.7 31.6 13.4-19.9-3.7-32.1-4.2-36.5-1.5-4.5 2.6-7.1 7.1-7.9 13.4-.8 6.3 4 20.6 14.3 42.9 10.3 22.3 18.4 39.6 24 51.7 2 5.7-.4 7.9-7.3 6.7-11.8-2.4-38.8-10.5-81-24.3 43.8 21.5 80.5 34.1 110.2 37.7-20.7-30.4-33.3-58-37.7-82.8 2.4-2.8 4.3-4.3 5.5-4.3 5.3.8 11.6 11.7 18.9 32.6 7.3 20.9 14 32.2 20.1 33.8 50.7 13.8 91.5 5.5 122.3-25 20.3-36.9 13.2-74.9-21.3-113.8 7.3-10.1 8.3-17.2 3-21.3-5.3-4.1-13.6-.8-25 9.7-48.3-30.4-97-51.5-146.1-63.3-4.9 28-15.8 40.1-32.9 36.2-17-3.9-32.7-12.3-46.9-25.3 39 16.6 60.4 11.8 64.2-14.6 3.9-26.4 30.1-50.1 78.8-71.2-16.2-5.7-30.6-8.5-43.2-8.5-12.6 0-39.1 7.6-79.4 22.8-40.4 15.2-65 15.5-74 .9-8.9-14.6-15.1-36.8-18.6-66.6s-7.3-60.9-11.6-93.1c-4.3-32.3-25.3-50.6-63-55.1-17-2-30.4 4.5-40.2 19.5 6.4 17.6 4 32.6-7 45.1zm40.8-35.9c-.4 2.4 1.2 4.1 4.9 4.9 3.7.4 5.9-.8 6.7-3.7.4-3.2-1.4-5.3-5.5-6.1-3.7-.3-5.7 1.3-6.1 4.9zm34.7 333.6c24.8 1.2 49.1-.8 73-6.1-10.1-11.4-22.1-22.7-35.9-34.1-16.6 8.5-29 21.9-37.1 40.2zM73.6 58.9c2.8-17.4.7-26.2-6.4-26.2s-9 2.4-5.8 7.3c3.3 4.9 7.4 11.2 12.2 18.9z"/></svg>