<svg xmlns="http://www.w3.org/2000/svg" viewBox="-10 0 1250 837"><path d="M615 837q-108 0-202-25t-170.5-66q-76.5-41-132-90T24 558.5Q-7 510-10 471l15-15q26 16 60.5 30t75.5 27q18-11 38.5-13t41.5 0q-12-13-24.5-30T168 431L37 464q2-49 27-85t54-59q-7-20-7-41 0-34 7-50.5t15-27.5q17-28 28-45.5t16-27.5q2-4 2.5-8.5T170 112q-6-2-12-4.5t-11-5.5l-81 18-4-10 58-34-68-10V55l82-16q11-17 31-28t46-11q38 0 55 22.5T283 68q0 12-9.5 37T253 156q-8 19-14.5 34.5T232 211q0 16 7 24t15 8q16 0 31-11.5t30-26.5q15-15 32.5-26.5T386 167q16 0 36 10t33 20q-33 6-45 21t-22 36q-8 17-17.5 32.5T352 315q14 12 26 29t14 37h23v51l-9 7q-1 37-17 69.5T351 557q69 9 138 15 25-23 57.5-30t65.5-4q-8-8-19-28t-23.5-42Q557 446 547 431l-131 33q3-49 27.5-85t53.5-59q-3-10-5-20.5t-2-20.5q0-34 7.5-50.5T512 201q18-28 28.5-45.5T556 128q2-4 2.5-8.5T549 112q-6-2-12-4.5t-11-5.5l-81 18-4-10 59-34-69-10V55l83-16q10-17 30-28t46-11q38 0 55.5 22.5T663 68q0 12-9.5 37T632 156q-8 19-14.5 34.5T611 211q0 16 7 24t15 8q16 0 31.5-11.5T695 205q15-15 32-26.5t38-11.5q16 0 36 10t33 20q-32 6-44.5 21T767 254q-8 17-17 32.5T731 315q15 12 27 29t14 37h22v51l-9 7q-1 34-12.5 72.5T741 572q27-2 54-4.5t54-6.5q12-17 38.5-28.5t55-19Q971 506 990 502q-12-13-28-33t-32-41l-138 36q2-49 27-85t54-59q-3-10-5-20.5t-2-20.5q0-34 7.5-50.5T888 201q18-28 28.5-45.5T932 128q2-4 2.5-8.5T925 112q-6-2-12-4.5t-11-5.5l-81 18-4-10 59-34-69-10V55l83-16q10-17 30-28t46-11q38 0 55.5 22.5T1039 68q0 12-9.5 37t-21.5 51q-8 19-14.5 34.5T987 211q0 16 7 24t15 8q16 0 31.5-11.5T1071 205q15-15 32-26.5t38-11.5q16 0 36 10t33 20q-32 6-44.5 21t-22.5 36q-8 17-17 32.5t-19 28.5q15 12 27 29t14 37h27v51l-14 7q0 17-5.5 31t-13.5 25q24-9 44.5-19t37.5-20l16 15q-3 39-34 87.5t-86.5 97.5q-55.5 49-132 90T817 812q-94 25-202 25zM314 551q4 0 6.5-.5t5.5-1.5q15-5 29.5-23t23.5-44q9-26 8-54l14-7v-22h-27q0-24-15.5-45.5T325 318q15-18 26-36t20-35q9-19 17.5-34t21.5-23q-9-4-24-4-18 0-34.5 11.5T319 224q-16 15-32 26.5T254 262q-15 0-28-13t-13-38q0-7 7-24t16-38q11-23 20-47t9-34q0-16-13-33t-41-17q-29 0-47.5 15.5T145 67q0 13 12 18.5t23 9.5q9 3 15.5 6t6.5 11q0 10-11.5 31.5T149 211q-8 11-14 25t-6 43q0 30 16 66.5t38.5 71.5q22.5 35 43.5 63t32 42q-19-4-44.5-6.5T168 520q9 2 18 5t20 5l23-8 5 14q38 9 80 15zm273 26h28q21 0 42-.5t43-1.5q4-1 10-3 15-4 28.5-28t21.5-56q8-32 7-60l13-7v-22h-26q0-24-15.5-45.5T705 318q14-18 25-36t20-35q9-19 17.5-34t21.5-23q-9-4-24-4-18 0-34.5 11.5t-32 26.5Q683 239 667 250.5T633 262q-15 0-28-13t-13-38q0-7 7.5-24t15.5-38q10-23 19.5-47t9.5-34q0-16-12.5-33T590 18q-29 0-47.5 15.5T524 67q0 13 12.5 18.5T559 95q9 3 15.5 6t6.5 11q0 10-11.5 31.5T528 211q-7 11-13 25t-6 43q0 30 17 71.5t41 83q24 41.5 47 74.5t34 47q-35-4-74-1.5T514 574q11 1 23 1.5t23 .5l25-17 9 13zm296-21h1q17-2 33.5-5t32.5-6l25-18 8 12q28-6 55-12.5t51-14.5q19-8 37-28t17-56l13-7v-22h-27q0-24-15-45.5t-33-35.5q14-18 25-36t20-35q9-19 17.5-34t21.5-23q-9-4-24-4-18 0-34.5 11.5t-32 26.5q-15.5 15-31.5 26.5t-34 11.5q-15 0-28-13t-13-38q0-7 7.5-24t15.5-38q10-23 19.5-47t9.5-34q0-16-12.5-33T966 18q-29 0-47.5 15.5T900 67q0 13 12 18.5t23 9.5q9 3 15.5 6t6.5 11q0 10-11.5 31.5T904 211q-7 11-13 25t-6 43q0 30 17 65.5t41 69.5q24 34 46.5 60.5T1024 513q-19 4-45.5 10.5t-52 14.5q-25.5 8-43.5 18zM566 74q-5 0-9.5-4T552 60q0-5 4.5-9t9.5-4q5 0 9.5 4t4.5 9q0 6-4.5 10t-9.5 4zm-379 0q-14 0-14-14 0-13 14-13 13 0 13 13 0 14-13 14zm755 0q-5 0-9.5-4T928 60q0-5 4.5-9t9.5-4q5 0 9.5 4t4.5 9q0 6-4.5 10t-9.5 4zm-437-9q0-6 3-12l-39 6zm376 0q0-6 3-12l-39 6zm-755 0q0-6 3-12l-40 6zm732 34l32-7q-4-4-5-9zm-376 0l32-7q-4-4-5-9zm-380 0l33-7q-3-3-6-9zM57 440l103-27q-11-17-19.5-37T125 338q-24 19-44 44.5T57 440zm379 0l104-27q-11-17-20-37t-16-38q-23 19-43 44.5T436 440zm376 0l108-28q-24-37-40-74-23 19-43 44.5T812 440zM615 817q98 0 185.5-23T961 733q73-38 127.5-82.5t88-88.5q33.5-44 41.5-79-45 25-113.5 46t-151 36Q871 580 784 588t-169 8q-82 0-169-8t-169.5-23q-82.5-15-151-36T12 483q8 35 41 79t88 88.5Q196 695 268.5 733t160 61Q516 817 615 817z" fill="currentColor"/></svg>