<svg xmlns="http://www.w3.org/2000/svg" viewBox="0 0 590 326.5"><path d="M57.2 22.4c-.7 3.8-2.9 5.4-6.8 4.7-4.5-1-6.4-3.3-5.7-6.8.7-3.5 3.1-4.7 7.3-3.6 4.1.6 5.9 2.5 5.2 5.7zm-26 14.5c15.9-1 27.6 1.7 35.1 8.3 7.5 6.6 9.8 19.8 7 39.8s-.1 35.4 8.1 46.5c8.1 11.1 13.8 17.2 16.9 18.2 12.1 19.1 22.5 30 31.2 32.8-3.8-16.3-.5-24.8 9.9-25.5 8 1.7 12.1 4.3 12.5 7.8-6.6-1.7-10.7-2.1-12.5-1-1.7 1-2.9 3-3.6 6-.7 2.9.6 8.6 3.9 16.9 3.3 8.3 6 15.1 8.1 20.3.7 2.1-.3 2.8-3.1 2.1-4.5-1-14.9-4.7-31.2-10.9 16.6 9.4 30 14.7 40 16.1l1-1c-6.6-11.1-10.6-21.7-12-31.7 1-.7 1.9-1 2.6-1 1.7 0 3.6 4.2 5.7 12.5 2.8 6.2 5.5 10.1 8.3 11.4 19.8 5.9 34.8 4 45.2-5.7 9.7-12.5 7.1-26.3-7.8-41.6 4.9-6.6 6.6-10.6 5.2-12-1.4-1.4-5.5.7-12.5 6.2-15.9-13.5-32.2-22.5-48.9-27-4.9 9.7-10.6 14.1-17.2 13.3-6.6-.9-12.8-5.1-18.7-12.7 15.2 6.9 23.8 5.3 25.7-4.9 1.9-10.2 12.6-19.1 32-26.8-14.9-5.5-30.8-4.9-47.6 1.8-16.8 6.8-26.8 7.2-29.9 1.3-3.1-5.9-5.1-14.8-6-26.8-.9-12-1.9-23.7-3.1-35.4-1.2-11.6-7-19.5-17.4-23.7-6.9-1-14.7 1-23.4 6.2 2.9 7.2 1.7 14-3.5 20.2zm17.1-16.1c0 1.4.7 2.1 2.1 2.1 1.7.3 2.6 0 2.6-1 .3-1-.3-1.9-2.1-2.6-1.3-.4-2.2.1-2.6 1.5zM52.5 156c11.8.3 21.3-1.2 28.6-4.7-5.5-3.8-9.7-8.3-12.5-13.5-5.5 1-10.9 7.1-16.1 18.2zM31.2 21.3c1-6.2.4-9.2-1.8-8.8s-2.8 1.3-1.6 2.9c1.2 1.5 2.4 3.5 3.4 5.9zm209 37.4c-1 3.5-3.3 4.9-6.8 4.2-4.5-1-6.4-3.3-5.7-6.8.7-3.5 3.1-4.7 7.3-3.6 4.1.7 5.9 2.8 5.2 6.2zm-8.8-2c0 1.4.7 2.1 2.1 2.1 1.4.3 2.3 0 2.6-1 .3-1-.3-1.9-2.1-2.6-1.4-.1-2.3.4-2.6 1.5zm3.6 135.1c12.1.3 21.8-1.2 29.1-4.7-5.9-3.8-10.1-8.3-12.5-13.5-5.5 1.1-11.1 7.1-16.6 18.2zM214.2 57.2c.7-6.2 0-9.1-2.1-8.6s-2.5 1.5-1.3 2.9 2.4 3.3 3.4 5.7zm208.5-34.3c-1 3.8-3.3 5.4-6.8 4.7-4.5-1-6.6-3.3-6.2-6.8 1-3.8 3.5-5.2 7.3-4.2 4.5 1.1 6.4 3.2 5.7 6.3zm-8.9-1.6c-.3 1.4.3 2.1 2.1 2.1 1.4.3 2.3 0 2.6-1 .3-1.4-.3-2.3-2.1-2.6-1.4-.4-2.2.1-2.6 1.5zm3.7 135.2c11.8.3 21.3-1.4 28.6-5.2-5.5-3.5-9.5-7.8-12-13-5.5 1-11.1 7.1-16.6 18.2zM396.7 21.8c.7-6.2 0-9.2-2.1-8.8s-2.5 1.3-1.3 2.9c1.2 1.5 2.3 3.5 3.4 5.9zm-85.8 281.8c88.7 0 169-24.8 240.7-74.3 4.9-5.2 3.1-7.1-5.2-5.7-84.2 29.5-162.7 44.2-235.5 44.2-72.4 0-150.9-14.7-235.5-44.2-8-1.4-9.5.5-4.7 5.7 71.4 49.5 151.5 74.3 240.2 74.3zm71.2-63.9l5.2-4.7c9.7-12.8 7.1-26.9-7.8-42.1 4.5-6.6 6.1-10.6 4.7-12-1.4-1.4-5.4.7-12 6.2-15.9-13.5-32.4-22.5-49.4-27-4.9 10.1-10.5 14.6-16.9 13.5-6.4-1-12.6-5.4-18.5-13 14.9 7.3 23.4 5.7 25.5-4.7 2.1-10.4 12.8-19.2 32.2-26.5-15.2-5.9-31.2-5.5-47.8 1.3-16.6 6.8-26.6 7.2-29.9 1.3-3.3-5.9-5.3-14.7-6-26.5-.7-11.8-1.6-23.6-2.9-35.4-1.2-11.8-7-19.8-17.4-23.9-6.9-1-14.7 1-23.4 6.2 2.8 7.3 1.6 14.2-3.6 20.8 15.9-1.4 27.6 1.2 35.1 7.8s9.8 19.9 7 40c-2.8 20.1-.1 35.6 8.1 46.5 8.1 10.9 13.6 16.9 16.4 17.9 12.5 19.1 23 30.2 31.7 33.3-3.8-16.6-.5-25.3 9.9-26 8 1.7 12.1 4.3 12.5 7.8-6.9-1.7-11.3-2.1-13-1-1.7 1-2.9 3-3.6 6-.7 2.9.7 8.6 4.2 16.9 3.5 8.3 6.2 15.1 8.3 20.3.3 2.1-.7 2.8-3.1 2.1-4.5-1-14.9-4.7-31.2-10.9 8.7 4.9 16.5 8.7 23.4 11.4 6.2 0 11.3-.2 15.1-.5-4.9-8.3-8-17.5-9.4-27.6 1-.7 1.7-1 2.1-1 2.1.3 4.2 4.5 6.2 12.5 2.8 6.6 5.5 10.4 8.3 11.4l11.4 3.1c3.5.1 13-1.1 28.6-3.5zm-96.2 4.1l16.6 1.6c-12.8-7.3-21.8-11.3-27-12l10.4 10.4zm181.5-20.2l-6.8-1.6c-8.6 4.5-6.4 5 6.8 1.6zm113.8-25c1.7 0 3.6 1.7 5.7 5.2 5.5 7.6 3.5 15.6-6.2 23.9-62 65.9-152 98.8-269.8 98.8-117.5 0-207.4-32.9-269.8-98.8-9-7.3-11.4-14.7-7-22.4 4.3-7.6 10.8-10.1 19.5-7.3 3.1-.7 7.5-1.4 13.3-2.1 5.7-.7 11.7-3.3 17.9-7.8 15.2 0 26.9.5 34.8 1.6-7.6-3.5-18-14-31.2-31.7-20.1 11.4-37.8 12.8-53 4.2 3.8-15.6 13.2-28.2 28.1-38-3.1-13.2-3.3-28-.5-44.5s1.3-26.2-4.4-29.1c-5.7-2.9-14.3-4.6-25.7-4.9-6.9 2.4-15.8 4.7-26.5 6.8l-.5-1.6c9-6.6 15.3-14.6 18.7-23.9C18.4 19 10.2 13.8.2 11.4v-2c12.1-1.7 22.9-2.1 32.2-1 5.2-6.9 14.2-9.5 27-7.8C76.3 4 85.2 12.9 86 27.3c.9 14.4 2.1 27.1 3.6 38.2s3.1 17.8 4.7 20c1.6 2.3 10.2.9 26-4.2 15.8-5 33.4-2.5 52.8 7.5v10.4c-14.9 4.5-24.3 9.5-28.1 15.1 16.6 5.5 31.7 13.7 45.2 24.4 4.2-3.1 8.4-4.3 12.7-3.6 4.3.7 7.2 3.2 8.6 7.5 1.4 4.3.3 8.8-3.1 13.3 14.2 15.6 15.4 31.7 3.6 48.3-11.8 12.5-28.9 15.6-51.5 9.4-1 6.2-3.5 8.8-7.3 7.8-10.7-1.7-22.3-6-34.6-12.7-12.3-6.8-21.1-10.5-26.3-11.2l14 12.5c43.3 11.8 81.4 20.6 114.4 26.5 0-3.5 3.3-4.9 9.9-4.2 6.6.7 12.8.6 18.7-.3 5.9-.9 12-3.6 18.2-8.1 14.9 0 26.3.7 34.3 2.1-7.3-3.8-17.5-14.6-30.7-32.2-20.1 11.4-37.8 12.8-53 4.2 3.8-15.6 13.2-28.2 28.1-38-3.1-13.2-3.4-27.9-.8-44.2 2.6-16.3 1.1-26-4.4-29.1-5.5-3.1-14-4.7-25.5-4.7-6.9 2.1-15.8 4.2-26.5 6.2l-.5-1.6c9-6.6 15.3-14.6 18.7-23.9-6.2-8-14.4-13.2-24.4-15.6v-1.6c11.8-2.1 22.5-2.6 32.2-1.6 5.2-6.9 14.2-9.4 27-7.3 17 3.1 25.8 11.9 26.5 26.3.7 14.4 1.9 27.1 3.6 38.2 1.7 11.1 3.3 17.8 4.7 20 1.4 2.3 10 .9 25.7-4.2 15.8-5 33.5-2.5 53.3 7.5v10.4c-14.9 4.9-24.3 9.9-28.1 15.1 16.6 5.5 31.7 13.9 45.2 25 4.2-3.5 8.4-4.9 12.7-4.2 4.3.7 7.2 3.2 8.6 7.5 1.4 4.3.3 8.8-3.1 13.3 14.2 15.6 16.1 30.7 5.7 45.2l17.2-3.6c.3-2.4 3.2-4.4 8.6-6 5.4-1.6 10.6-3.8 15.6-6.8 5-2.9 9.6-7.7 13.8-14.3 13.9-5.9 24.6-11.3 32.2-16.1-7.6-3.5-17.8-14-30.7-31.7-20.1 11.4-37.8 12.8-53 4.2 3.8-15.9 13.2-28.6 28.1-38-3.1-13.2-3.4-28-.8-44.5s1.1-26.2-4.4-29.1c-5.5-2.9-14-4.6-25.5-4.9-6.9 2.1-15.8 4.3-26.5 6.8l-.5-1.6c9-6.6 15.2-14.6 18.7-23.9-6.2-8.3-14.4-13.5-24.4-15.6V9.9c11.8-1.7 22.5-2.1 32.2-1 5.2-6.9 14.2-9.5 27-7.8 17 3.5 25.8 12.4 26.5 26.8.7 14.4 1.8 27.1 3.4 38.2 1.6 11.1 3.1 17.8 4.7 20 1.6 2.3 10.2.9 26-4.2 15.8-5 33.5-2.5 53.3 7.5v10.4c-14.9 4.5-24.3 9.5-28.1 15.1 16.6 5.5 31.5 13.7 44.7 24.4 4.5-3.1 8.9-4.3 13.3-3.6 4.3.7 7.2 3.2 8.6 7.5 1.4 4.3.3 8.8-3.1 13.3 14.5 15.6 16.9 29.6 7.5 42.1zm-9.8-1.6c8.7-11.1 5.5-24.3-9.4-39.5 4.5-6.6 6.1-10.6 4.7-12-1.4-1.4-5.4.7-12 6.2-15.9-13.5-32.4-22.5-49.4-27-4.9 9.7-10.5 14.1-16.9 13.3-6.4-.9-12.6-5.1-18.5-12.7 14.9 6.9 23.4 5.3 25.5-4.9 2.1-10.2 12.8-19.1 32.2-26.8-15.2-5.5-31.2-4.9-47.8 1.8-16.6 6.8-26.6 7.2-29.9 1.3s-5.4-14.8-6.2-26.8c-.9-12-1.8-23.7-2.9-35.4-1-11.6-6.8-19.5-17.2-23.7-6.9-1-14.7.9-23.4 5.7 2.4 7.3 1.2 14.2-3.6 20.8 15.9-1 27.6 1.6 34.8 8.1 7.3 6.4 9.6 19.7 7 39.8-2.6 20.1.2 35.7 8.3 46.8 8.1 11.1 13.6 17.2 16.4 18.2 12.5 19.1 23 30 31.7 32.8-3.8-16.3-.5-25 9.9-26 8 2.1 12 4.9 12 8.3-6.6-1.7-10.7-2.1-12.5-1-1.7 1-2.9 3-3.6 6-.7 2.9.7 8.6 4.2 16.9 3.5 8.3 6.2 15.1 8.3 20.3.3 2.1-.9 2.8-3.6 2.1-.7-3.8-9.7-5.4-27-4.7 19.1 2.1 30 4.3 32.8 6.8l3.1-.5c-5.5-9.4-9-19.1-10.4-29.1 1-1 1.7-1.6 2.1-1.6 2.1.3 4.2 4.7 6.2 13 2.8 6.2 9 11.1 18.7 14.6l36.4-11.1zM484 220.4l23.9-5.2c-25-3.8-40-4.9-45.2-3.1l21.3 8.3z"/></svg>