<svg xmlns="http://www.w3.org/2000/svg" viewBox="0 0 495.7 594.6"><path d="M208.9.1c17.8-.3 31.8 5.1 42.1 16.4 10.3 11.3 13.5 25.8 9.8 43.6-12.7 56.1-19.3 91.6-19.8 106.5-.5 14.9 5.2 22.3 17.2 22.3 9.2 0 23.6-9.3 43.1-28s41.5-28 66-28 42.5 7.5 54.2 22.6c-10.6 3.8-26.9 11.2-48.8 22.3-21.9 11.1-32.9 22-32.9 32.6-.3 12.3 8.2 20.7 25.7 25.2 24.3 13.7 50.3 37.6 78 71.9 32.5-3.1 48.6 6.2 48.3 27.7 0 21.9-9.2 33.9-27.7 35.9-13.3 10.6-28.6 24.6-45.7 42.1s-18.1 32.2-3.1 44.2c-43.5-6.5-86.4-15.2-128.9-26.2 7.5 10.3 11 18 10.5 23.1-.5 5.1-3 9.4-7.4 12.8 2.7-7.2-10.1-16.1-38.5-26.7-33.2-18.5-63-17.8-89.3 2.1l-14.4 15.9c.3-5.5-.1-9.4-1.3-11.8-1.2-2.4-3.3-3.6-6.4-3.6-3.1 0-14 3.6-32.9 10.8-7.2-4.4-15.7 0-25.7 13.3-.3-19.9 9.4-32 29.3-36.4 30.1-8.6 50.6-16.2 61.3-22.8 10.8-6.7 26.3-8.1 46.5-4.4 37 6.2 60.6 10.1 70.8 11.8 10.3 1.7 19.2 2.6 26.7 2.6-.3-4.4-10.4-12.8-30.3-25.2-7.5-5.1-15.6-14.4-24.1-27.7-25.7-32.9-44.3-49.6-56-50.3-17.8 8.2-31.4 21.6-40.8 40.3-9.4 18.7-15.5 30.9-18.2 36.7-11-5.8-18.1-21.6-21.6-47.2 0-24 7-46.6 21-68s21-48.2 21-80.3c0-15.7 6.2-34.7 18.5-57 12.3-22.2 20.2-38.3 23.6-48.3 2.4-5.8-2.9-10.3-15.9-13.3-16.4-1.7-29.3-7-38.5-15.9-7.5 6.5-15.2 12.7-23.1 18.5-2.7 1.7-5.8 1.5-9.2-.5 8.9-10.6 14.7-20.5 17.5-29.8-14 0-21.2-2.4-21.6-7.2 19.2-.7 25-4.3 17.5-10.8l-14.9-9.2c-2.7-3.1-3.1-5.8-1-8.2 10.3 4.1 21.7 8 34.4 11.8 16.2-18.8 34.5-27.5 55-26.2zm-47.2 38.5c2.1 12.3 14.7 20.6 38 24.9 23.3 4.3 29.8 16.3 19.5 36.2-10.6 24.6-18.7 42.5-24.4 53.6-5.6 11.1-9.2 31.4-10.5 60.8-1.4 29.4-6.8 50.7-16.2 63.9-9.4 13.2-16.3 26.9-20.8 41.1-4.4 14.2-4.3 22.5.5 24.9 14.7-26.7 33.2-43.3 55.4-49.8 20.5 0 45.9 22.1 76 66.2 9.9 11.3 19.7 16.8 29.3 16.4-12-29.8-17-50.1-15.1-60.8 1.9-10.8 10.8-17 26.7-18.7 15.9-1.7 31.2 8 45.9 29.3-38.7-19.5-56.6-17.1-53.9 7.2 0 17.1 11.1 36.8 33.4 59 17.1-3.1 26.9-1.6 29.3 4.4 2.4 6 5.8 10.8 10.3 14.4 4.4 3.6 16.8-5.8 37-28.2s33.3-32.9 39.3-31.3c6 1.5 9-3.2 9-14.1-.7-8.6-10.4-11.8-29.3-9.8-6.5 0-16.2-9-29-27s-37.7-37.4-74.7-58.3c-12-5.8-18-15.1-18-27.7 0-30.8 22.9-51.7 68.8-62.6-29.1-9.6-61.8 4.1-98.1 41.1-13 9.9-25 14.9-35.9 14.9-16.8 0-26.7-13.2-29.8-39.5 0-21.6 3.6-43.8 10.8-66.7 7.2-22.9 10.8-39.2 10.8-48.8 2.1-22.9-10.3-36.4-37-40.6-20.3.7-36 9.2-47.3 25.6zm47.7-17.9c8.9 0 13.3 4.3 13.3 12.8 0 8.6-4.4 13-13.3 13.3-9.2-.3-13.9-4.8-13.9-13.3.1-8.2 4.7-12.5 13.9-12.8zm260.8 441.5c-51 37.6-100.8 62.7-149.4 75.2-48.6 12.5-97.2 12.5-145.8 0-48.6-12.5-98.4-37.6-149.4-75.2 44.5 46.2 92.7 78.6 144.5 97.3 51.9 18.7 104.2 18.7 157.1.3 52.9-18.6 100.6-51.1 143-97.6zm-8.2-18c9.9-10.3 19.2-13.2 27.7-8.7 8.6 4.4 7.9 15.2-2.1 32.3-11.3 22.2-39.1 48.6-83.4 79.1-44.3 30.5-96.4 46.4-156.3 47.7-59.9-1.7-112-17.7-156.3-48S19.5 490 8.2 467.8c-10.3-17.1-10.9-27.9-1.8-32.3 9.1-4.4 18.2-1.5 27.5 8.7C51.3 463 91.3 484 154 507.1c62.6 23.1 125.3 23 187.9-.3 62.6-23.2 102.7-44.1 120.1-62.6z"/></svg>