<svg xmlns="http://www.w3.org/2000/svg" viewBox="-10 0 1297 706"><path d="M74 706q-53 0-68.5-27.5T-10 609V494q0-42 15.5-69.5T74 397h14q-1-5-1.5-12.5T86 369q0-22 18.5-56.5T143 245q16-27 29-50.5t13-34.5q0-22-14.5-38.5T125 105H39q0-3 9-18t28-30q19-15 53-18 4-3 15-12.5t29-18Q191 0 212 0q38 0 56 26t18 53q0 20-11.5 47.5T247 183q-16 29-30 52-10 16-16.5 27t-6.5 13q0 3 12 2t31-1q60 0 112 21t91 46q7-22 21.5-47.5T491 245q16-27 29-50.5t13-34.5q0-22-14.5-38.5T473 105h-86q0-3 9-18t28-30q19-15 53-18 4-3 15-12.5t29-18Q539 0 560 0q38 0 56 26t18 53q0 20-11.5 47.5T595 183q-16 29-30 52-10 16-16 27t-6 13q0 3 11.5 2t30.5-1q59 0 110 19.5t90 44.5q8-21 22-46t28-49q16-27 29-50.5t13-34.5q0-22-14.5-38.5T817 105h-85q0-3 8.5-18T768 57q19-15 53-18 4-3 15.5-12.5t29-18Q883 0 904 0q39 0 56.5 26T978 79q0 20-11.5 47.5T939 183q-16 29-30 52-9 16-15.5 27t-6.5 13q0 3 11.5 2t30.5-1q48 0 90.5 13t77.5 32.5q35 19.5 61.5 40T1200 397h2q54 0 69.5 27.5T1287 494v115q0 42-15.5 69.5T1202 706zm782-309h314q-19-15-53.5-39.5t-82-43.5Q987 295 929 295q-5 0-14.5 1t-13.5 1q-19-1-26.5-5t-7.5-17q0-5 8-19t18-31q13-22 28.5-49.5T948 122q11-26 11-43 0-20-13-40t-42-20q-23 0-41 10t-25 20v39q25 6 42 23t17 49q0 15-14 40.5T852 255q-16 25-30.5 51T801 352q18 13 31.5 24.5T856 397zm-747 0h369q-19-15-53.5-39.5T342 314q-48-19-105-19-5 0-14.5 1t-13.5 1q-19-1-26.5-5t-7.5-17q0-5 7.5-19t17.5-31q13-22 28.5-49.5T255 122q11-26 11-43 0-20-12.5-40T212 19q-23 0-41 10t-25 20v39q25 6 41.5 23t16.5 49q0 15-13.5 40.5T159 255q-20 32-36.5 63.5T106 369q0 11 1 18t2 10zm399 0h318q-19-15-53.5-39.5T690 314q-48-19-105-19-5 0-14.5 1t-13.5 1q-19-1-26.5-5t-7.5-17q0-5 7.5-19t17.5-31q13-22 28.5-49.5T603 122q11-26 11-43 0-20-12.5-40T560 19q-23 0-41 10t-25 20v39q25 6 41.5 23t16.5 49q0 15-13.5 40.5T507 255q-16 26-31 52.5T456 354q17 12 30 23.5t22 19.5zM761 82q27-10 57-12V53q-20 4-34.5 12.5T761 82zM69 82q27-10 57-12V53q-21 4-35 12.5T69 82zm348 0q27-10 57-12V53q-21 4-35 12.5T417 82zm462-4q-13 0-13-12t13-12q12 0 12 12t-12 12zm-345 0q-12 0-12-12t12-12q12 0 12 12t-12 12zm-348 0q-12 0-12-12t12-12q12 0 12 12t-12 12zm238 13h50V81q-28 2-50 10zM76 91h50V81q-13 1-26 3t-24 7zm692 0h50V81q-28 2-50 10zM73 686h1131q37 0 50-19t13-58V494q0-39-13-58t-50-19H73q-38 0-51 19T9 494v115q0 39 13 58t51 19z" fill="currentColor"/></svg>