<svg xmlns="http://www.w3.org/2000/svg" viewBox="0 0 595.3 336.7"><path d="M558.2 318.4c12.5 0 18.6-18.9 18.3-56.8-.3-37.8-6.4-56.8-18.3-56.8H38.9c-10.3.3-15.6 19.3-15.7 57-.2 37.7 5.1 56.5 15.7 56.5h519.3zM54.4 21c6.3.6 9.6 3 10.1 7 .5 4.1-1.3 6.9-5.4 8.4s-7.1.4-9.1-3.6c-2.1-4.1-.6-8 4.4-11.8zM13.1 43.6l19.2-7.5-1.3-6.6-17.9 14.1zm.5 2.3l20.6-2.8-1.4-3.8-19.2 6.6zm200.8-24.4c6.6.6 10 3 10.3 7 .3 4.1-1.6 6.9-5.6 8.4-4.1 1.6-7.1.3-9.1-3.8-2.1-3.9-.6-7.8 4.4-11.6zM173.1 44l19.2-8-.9-6.1L173.1 44zm.5 2.4l21.1-2.8-1.9-3.8-19.2 6.6zm421.7 215.3c0 50-12.2 75.1-36.6 75.1H38.5c-22.5 0-33.9-25-34.2-75.1.3-50 11.7-75.1 34.2-75.1H53c-10.9-9.4-16.4-25.5-16.4-48.3 3.4-23.1 8.4-45.7 15-67.5-.6-10-5.2-15.4-13.6-16.2-8.4-.8-16.9-.4-25.3 1.2C4.2 57.3 0 54.5 0 47.3 12.5 31 23.3 22.3 32.4 21 38.3 10.1 48.2 3.4 61.9.9c21.9-4.1 35 6.1 39.4 30.5 1.9 10.9-1.8 25.6-11 44.1S77.6 109.1 79.7 121c29.1-8.1 57.5-3.8 85.4 13.1 13.8 8.4 24.7 16.1 32.8 23-.9-5.6-1.4-11.7-1.4-18.3 3.4-23.5 8.4-46.1 15-68-.3-9.7-4.8-14.9-13.4-15.7-8.6-.8-17.1-.4-25.6 1.2-8.4 1.6-12.7-1.3-12.7-8.4 12.5-16.3 23.3-25 32.4-26.3 5.9-10.9 15.8-17.7 29.6-20.2 22.2-4.1 35.3 6.1 39.4 30.5 2.2 10.9-1.3 25.6-10.6 44.1-9.2 18.5-12.7 33.6-10.6 45.5 28.8-8.1 53-6.3 72.7 5.6 19.7 11.9 33.8 21 42.2 27.2v-15.5c3.1-23.5 8.1-46.1 15-68-.6-9.7-5.2-14.9-13.6-15.7-8.4-.8-17-.4-25.6 1.2-8.6 1.6-12.9-1.4-12.9-8.9 12.8-15.9 23.6-24.7 32.4-26.3 5.9-10.6 15.8-17.2 29.6-19.7 22.2-4.1 35.3 5.9 39.4 30 2.2 11.3-1.3 26.1-10.6 44.6-9.2 18.5-12.7 33.6-10.6 45.5 29.1-8.1 57.5-3.8 85.1 12.9 27.7 16.7 48.6 34 62.6 51.8v.5h12.7c24.7-.1 36.9 24.9 36.9 75zm-180.2-75.1l113.5-.5c-25.6-23.8-49.2-40-70.6-48.6-21.4-8.6-38.7-10.9-51.8-6.8-13.1 4.1-20 2.2-20.6-5.6-2.2-12.8 1.6-28.8 11.3-47.8 9.7-19.1 13.4-33.8 11.3-44.1-2.2-13.1-6.3-20.3-12.4-21.6-6.1-1.3-10.7-1.6-13.8-.9-13.1 2.5-21.9 8.8-26.3 18.8l1.9 12.2c19.4 7.2 26.7 18.9 21.8 35.2-4.8 16.3-8.5 34.7-11 55.4-2.5 20.6 3.9 35.2 19.2 43.6 9.6 5.6 18.8 9.2 27.5 10.7zm-43.6 0c-26.3-24.1-50.1-40.4-71.5-49-21.4-8.6-38.7-10.8-51.8-6.6-13.1 4.2-20 2.3-20.6-5.9-2.2-12.8 1.5-28.8 11-47.8 9.5-19.1 13.4-33.8 11.5-44.1-2.5-13.1-6.7-20.3-12.7-21.6-5.9-1.3-10.5-1.4-13.6-.5-13.4 2.2-22.4 8.3-26.7 18.3l2.3 12.2c19.4 7.2 26.7 19 21.8 35.4-4.8 16.4-8.5 34.9-11 55.4s2.4 34.2 14.8 41 23.5 11.3 33.5 13.1v-.5l113 .6zm-157.1 0c-28.5-24.4-53.3-40.9-74.6-49.5-21.3-8.6-38.5-10.8-51.6-6.6-13.1 4.2-20 2.3-20.6-5.9-2.2-12.8 1.5-28.8 11-47.8C88.1 57.7 92 43 90.1 32.7c-2.5-13.1-6.8-20.2-12.9-21.3-6.1-1.1-10.7-1.3-13.8-.7-13.2 2.2-22 8.3-26.3 18.3l2.3 12.2c19.4 7.5 26.7 19.4 21.8 35.7-4.8 16.3-8.5 34.6-11 55.1s2.4 34.2 14.8 41.3 23.2 11.5 32.6 13.4h116.8zM372.5 21.5c6.6.3 10 2.6 10.3 6.8.3 4.2-1.5 7.1-5.4 8.7-3.9 1.6-7 .3-9.1-3.8-2.3-4-.8-7.9 4.2-11.7zm-41.3 22.1l19.2-7.5-.9-6.6-18.3 14.1zm.9 2.3l20.6-2.3-1.9-4.2-18.7 6.5z"/></svg>