<svg xmlns="http://www.w3.org/2000/svg" viewBox="-10 0 1016 1024"><path d="M88 1024q6-30 27.5-48.5T185 954l95-7 15-95q1-5 1.5-12.5t.5-13.5q0-58-19.5-122T239 586l-9-28q-13-17-26.5-33.5T179 492q-18-24-39-53t-35.5-61Q90 346 90 313v-85q0-10-3-24.5t-12.5-26Q65 166 46 166q-18 0-26.5 8.5T9 188h-19v-19q0-40 17.5-58.5T42 79l28-28q3-7 14.5-19t37-22Q147 0 192 0q57 0 90 19t54 52q21 33 40 73 7 4 28.5 15.5T444 180q37 36 81.5 89.5t88 111Q657 438 691 486l14 17 35.5 43.5Q776 590 785 600t41 48q32 38 25 26 8 6 34.5 30t59 55q32.5 31 61.5 57l-26 34q-24-16-55-35.5T857 773l86 129-167 107-110-202q-9-15-25.5-37t-39-41Q579 710 554 705v209q-17-14-40.5-29T476 867v80q21 0 48.5 3t42.5 8q26 8 42 29t19 37q-17-9-31.5-12.5T560 1008H317q-22 0-37 3.5t-31 12.5q1-4 2.5-7.5t2.5-7.5q-24 3-46 15 1-7 5-16h-16q-22 0-37 3.5t-31 12.5q1-4 2-7.5t3-7.5q-24 3-46 15zm248-35h205v-17q-20-3-45-4t-41-1V840q20 4 43 14.5t36 18.5V684q37 2 67 22.5t51 47q21 26.5 31 43.5l101 184q35-22 66-42.5t66-42.5q-8-12-24.5-36.5t-36-53Q836 778 820 754q-64-37-140.5-79t-156-84q-79.5-42-152-79.5T244 446q-15-8-36-23.5t-41.5-36Q146 366 132 343t-14-45q0-26 23.5-52t65.5-44q42-18 95-22l1 19q-48 3-85.5 18.5t-58.5 37Q138 276 138 298q0 19 12.5 38.5t31.5 38q19 18.5 38.5 33T254 429q70 35 151.5 76.5t165.5 86Q655 636 732.5 679t141 80.5Q937 797 976 824l4-5q-9-8-28.5-26.5t-43-40q-23.5-21.5-43-39T838 690q-6-5-24-25t-41.5-48.5Q749 588 723 557t-48-59q-25-35-56-76t-63.5-83Q523 297 491 260t-60-64q-4-2-27-14t-43-23q-18-39-37.5-70.5t-50-50Q243 20 192 20q-45 0-67 9T95.5 48Q88 58 87 61L54 94q-13 10-27 24t-17 39q4-7 17-22.5T63 119q12 0 21.5 4.5T102 135q4 1 8 0t4-6q0-4-1-6-11 0-18.5-8T87 96q0-10 7-19t21-9h41q32 0 53 20t21 48q0 20-11.5 36t-27 26Q176 208 165 214q-4 2-11 2t-9-8h-9v12h-12q-3-18-11-37t-20.5-32.5Q80 137 63 137q-8 0-14 3t-10 7h7q25 0 39 12.5t19.5 31.5q5.5 19 5.5 37v85q0 29 14 59.5t34.5 59.5q20.5 29 39.5 54 31 41 68.5 86.5T334 650q37 40 57 78t28 68q8 30 7 44l-7 126q-16 0-40.5 1.5T336 972zM114 108q11 0 11-12 0-11-11-11-12 0-12 11 0 12 12 12zm17 78q0-2-.5-6t-.5-6q0-12 7.5-21.5T158 143q14 0 21.5 10.5T187 172q0 3-2 11 10-8 18.5-20t8.5-27q0-21-15.5-35.5T156 86h-17q2 3 2 10 0 17-15 25 2 3 4 7.5t1 10.5q-1 5-6 7.5t-10 3.5q4 8 9 17.5t7 18.5zm27 10q15 0 15-19 0-5-3-12t-12-7q-15 0-15 19 0 10 5 14.5t10 4.5zm142 758l31-1 22-122q11 2 26.5 8t26.5 12v-12q1-13-6-40.5t-26.5-63Q354 700 319 663q-12-12-25-27.5T267 603q18 52 34 109.5T317 826q0 8-.5 15t-1.5 14zm50-4l50-3 4-75q-5-4-15.5-9.5T368 854q-3 12-8.5 42t-9.5 54zm-130 39h6q11-13 24-20l-30 3zm-51 5q5-2 15-3.5t19-1.5v-15q-10 0-20 6t-14 14zm120 0q4-2 12-3.5t17-1.5v-15q-11 0-18 6t-11 14zm-165 0q3-1 9-2t13-2q6-9 15-15-15 0-23.5 6T124 994zm120 0q3-1 9-2t13-2q6-9 15-15-15 0-23.5 6T244 994zm344 0q-13-14-29-18l-1-1v14q8 1 16.5 2t13.5 3z" fill="currentColor"/></svg>