<svg xmlns="http://www.w3.org/2000/svg" viewBox="0 0 589.8 558.1"><path d="M106.3.3c-7.6-.5-15.6-.4-23.6.1C49 2.6 24.6 16.7 16.2 35.9c-1.4 3.2-5.2 11.2 1.4 9.5 22.5-2.8 20.2 4.6 23.6 5.4 2.8 8.8 9 26.3 9.4 33.1-7.6 26.7-4.8 54.7-2 68.2 4.6 22.7 19.5 49.1 39.1 73.8-.4 1.7-.6 3.4 0 5.1 9.3 28.6 20.2 67.2 28 103.4 7.8 36.2 12.2 70.6 9.8 87.5-.7 4.7 2.3 9 6.9 10.2 1.4.3 2.6 1 3.9 1.4l-28.8 95.4c-22.3-4.7-47.3 2.3-61.9-1.1-9.9-2.4-48.5 7.1-45.5 26.9 9.3-7.8 13.2-3.9 25-4.1 11.9-.2 37-5.6 46.2-.1 38.5-1.5 57.3 1.7 97.6 1.9 24.4-.2 68.1-1.2 92.2-2.4 14.8.1 22.5 1.9 29.8 1.7 6.5-.2 12.8-4.1 29.4.4-9.7-13.3-37.7-26.6-50.6-19-11.2-1.1-23.9-.7-36.8-.1l-4.9-87.7c15.1 6.3 26.6 16 39.7 31.6 2.7 3.1 7.2 4 10.9 2.3 3.7-1.8 5.8-5.9 5-9.9-6-32.2-6.6-62.6-6.3-94.8 16.7 11 33.2 22.1 48.9 33.9 45 49 90.1 97.9 135.2 146.9 2.1 2.3 5.1 3.3 8.2 2.8 29.4-4.9 58.9-9.8 88.3-14.7 3.3-.5 6-2.8 7.1-6 1.1-3.2.4-6.7-1.8-9.2-23-25.7-46.8-50.6-69.8-75.8 43.8 27 100.6 61.3 95.9 53.2-2.9-5.1-27.9-23.4-55-42.6 4.3 1.8 8.5 3.7 12.9 5.5.2.1.4.3.5.3 3.2 1.1 5 1.8 8.3 1.9.8 0 1.8 0 3.4-.5 1.6-.5 4.3-1.8 5.8-4.7 1.5-2.9 1.2-5.8.7-7.4-.5-1.6-1.2-2.4-1.7-3-1.9-2.6-3.2-3.4-5-4.8-1.8-1.4-4-3-6.3-4.6-4.7-3.3-10.4-6.9-15.3-10.2-4.9-3.3-9.3-6.4-10.2-7.2-.3-.3-.6-.5-.9-.8-40.2-28.3-80.4-56.6-120.7-84.8-.3-.2-.6 0-.9-.2-41.3-57.9-80.2-118.6-125.4-174.5-23.1-28.5-49.6-78.4-92.6-95-2.1-12.3-6.8-34.9-23.4-51.1C149.7 8 129.3 1.7 106.3.3zM86 14.9c25-1.6 44.7 5 58.1 14.6.2 1.7.6 3.3.3 5-1.5 7.7-6 14.8-12.3 19.6-9.8 6.4-21.6 8.3-32.8 11-2.8.3-.6 1 1 1.2 7.6 1.3 24 3.3 31.7 3 8.6-1 16.7-4.6 23.7-9.6 2.5-2.1 4.6-4.6 6.3-7.3 4.6 10.7 7.1 22.1 8.1 28.4.6 3.4 3 6.2 6.3 7.2 35.3 10.8 63.2 59.2 89.3 91.4 53.6 66.2 99.2 140.3 151.7 209.6-29-14.1-58-28.4-87.1-42.6-59.6-31.3-121.6-56.3-173.8-95.8l-.3-.3c-30.1-25-60.8-51.5-72.5-86.6-4.6-28.5 54.5-79.9 47.8-82.1-12-3.9-55.9 33-64.6 68-.1-.4-.3-1-.4-1.4-2.3-11.1-4.8-39 2.1-61.4.3-1 .4-2.1.3-3.2-.5-9-1.9-14.4-3.8-19.6-2-5.3-4.3-10.7-8.1-23.7-1-3.3-4.4-10.2-6.4-10.7 5.8-4.3 11.6-8.7 20-11.6-2.4 2.4-4.1 5.8-4.1 9.7 0 7.1 5.1 12.9 11.3 12.9 6.2 0 11.3-5.7 11.3-12.9v-.1c0-5.7-3.4-10.4-7.9-12.1 1.6-.1 2.9-.4 4.8-.6zm28.1 240.5c2 2 4.2 3.8 6.3 5.8 6.6 24.2 12.8 50.9 21.5 71.5 15 35.5 37.7 66.4 57 97.8-4.7 2.5-8.8 5.4-11.9 8.3-2.5 2.4-4.2 4-6.2 6-9.6-12.6-21.9-22.4-36.8-27.8 1.4-22.4-3.4-53.1-10.5-86.4-5.5-25.8-12.4-51.5-19.4-75.2zm31.2 28.1c35.6 29.3 75.3 53.9 114 78.8-.6 28.2-.5 55.1 2.6 82.9-12.8-10.7-26.6-18.5-44.2-22.8-.7-.2-1.4.3-2.1.3-20.1-33-42.9-63.9-56.9-97.2-4.9-11.3-9.2-26.2-13.4-42zm48.5 13.3c42 24.4 86.3 43.9 128.2 65.9.1 0 .1.1.2.1 40.2 19.6 80.2 39.7 120.7 59 30.5 36.9 63.6 71.2 95.4 106.1-22.2 3.7-44.4 7.5-66.7 11.2L339.3 395.4c-.3-.4-.7-.8-1.1-1.1-46.4-35.3-97.6-64.6-144.4-97.5zm-35.9 149.6c5.1 4.7 9.7 10.2 13.6 16.8 1.3 2.2 3.6 3.7 6.1 4.2 2.5.5 5.1 0 7.1-1.5 6.7-4.8 10.8-10 14.8-13.8 1.5-1.4 3-2.5 4.6-3.7l4.6 84.4c-15.2-1-31.8-3.2-39.4 4.3-6.6-5.2-21-5.4-37.4-5l26-85.7z"/></svg>