<svg xmlns="http://www.w3.org/2000/svg" viewBox="-10 0 1377 955"><path d="M269 955q-30 0-42-3.5t-20-7.5q-8-4-27-4-12 0-24.5 5t-19.5 9h-28q4-14 14-30.5t25-23.5q19-8 47-11.5t45-4.5q28-1 44-16.5t26-43.5l47-134q-3-5-14-27t-23-46.5Q307 592 301 578q-51-28-98.5-59T125 449q-30-39-30-89 0-22 11.5-47.5T131 261l49-103q-7 1-15-.5t-15-3.5l-155 4-5-14 128-95v1q13-21 36-35.5T206 0q41 0 65 27t24 70q0 15-8.5 38t-21 48Q253 208 242 228q-9 16-15 27t-6 13q0 15 17 15 24 0 48-7.5t51-7.5q52 0 98 19t83 41q5-16 13.5-33t16.5-34l49-103q-7 1-14.5-.5T567 154l-155 4-5-14 128-95v1q14-21 37-35.5T623 0q41 0 65 27t24 70q0 15-8.5 38t-21 48Q670 208 659 228q-9 16-15 27t-6 13q0 15 17 15 24 0 48-7.5t51-7.5q47 0 89 15.5t77 36.5q35 21 60 38l176 115q17 11 44.5 26t59.5 29.5q32 14.5 60.5 26T1367 571l-22 31q-12-2-36.5-6.5T1255 585l68 32-67 56q-47-15-107.5-20.5T1028 647q-13 0-33-4t-33-8q3 9 6.5 19t5.5 17q-7 41-13 79.5t-3 78.5q2 31 11.5 59t17.5 54l-18 6-14-19q-15 7-29.5 16.5T898 955q-31 0-46-3.5t-27-7.5q-12-4-31-4-12 0-24.5 5t-19.5 9h-28q0-3 4-11-9 5-19 8.5t-21 3.5q-31 0-42.5-3.5T624 944q-8-4-27-4-12 0-24.5 5t-19.5 9h-29q2-8 8-20-15 9-29 15t-22 6q-31 0-46-3.5t-26.5-7.5q-11.5-4-31.5-4-12 0-24.5 5t-19.5 9h-28q0-3 4-11-9 5-19 8.5t-21 3.5zm60-14q4-2 19.5-10t32.5-8q6 0 7 .5t6 .5q13-8 31.5-12t46.5-3v12q-17-1-29 1t-23 7q15 2 27.5 4t33.5 2q10 0 27.5-9.5T539 907q-7-20-12-40.5t-6-39.5q-1-25 2-58.5t6.5-61Q533 680 536 671q-3-8-10-30t-12-39q20 8 49 16.5t48 8.5q33 0 67 1.5t67 6.5q-8-16-15.5-31.5T718 578q-11-5-22-11.5T674 554q-71-14-140-27.5T421 503q-24-5-59.5-18T290 453q-36-19-60-41.5T206 365q0-16 9-30.5t18-22.5l13 15q-7 6-13.5 16.5T226 365q0 20 22.5 39.5T304 440q33 16 66.5 27t54.5 16l204 43q-50-33-83.5-73T512 360v-6l1-6q-36-22-81-41.5T337 287q-30 0-52 7.5t-47 7.5q-22 0-29-9.5t-7-24.5q0-5 6.5-18.5T224 219q11-20 23-44t20.5-45q8.5-21 8.5-33 0-35-19-56t-51-21q-35 0-58.5 24.5T124 96q0 20 17 31t38 13.5q21 2.5 32-1.5l-62 129q-13 26-23.5 50T115 360q0 42 24 75.5t63 62q39 28.5 84 52.5t88.5 47q43.5 23 76.5 45t47 47q1 63 3 110.5t3 67.5q-29 34-78 35-17 1-37 5t-37 11q-7 2-14 10t-9 13zm417 0q5-2 19.5-10t32.5-8q6 0 7 .5t6 .5q13-8 31.5-12t46.5-3v12q-16-1-28.5 1t-23.5 7q15 2 27.5 4t33.5 2q10 0 27.5-9.5T956 907q-7-20-12-40.5t-6-39.5q-1-25 2-58.5t7-61q4-27.5 6-36.5-3-8-10-30t-12-39q20 8 49 16.5t48 8.5q58 0 118 6t107 21l34-33-109-50q-58-11-122-24t-121.5-24Q877 512 838 503q-24-5-59.5-18T707 453q-36-19-60-41.5T623 365q0-16 9-30.5t18-22.5l13 15q-7 6-13.5 16.5T643 365q0 20 22.5 39.5T721 440q33 16 66.5 27t54.5 16q38 8 98 20.5t129.5 26.5q69.5 14 139.5 28t127 26l2-4q-25-8-63-24.5t-74-34.5q-36-18-56-31L969 374q-24-16-58-36.5T837 302q-40-15-83-15-30 0-51.5 7.5T655 302q-22 0-29-9.5t-7-24.5q0-5 6.5-18.5T641 219q11-20 23-44t20.5-45q8.5-21 8.5-33 0-35-19-56t-51-21q-35 0-58.5 24.5T541 96q0 20 17 31t38 13.5q21 2.5 32-1.5l-62 129q-13 26-23.5 50T532 360q0 42 24 75.5t63 62q39 28.5 84 52.5t88.5 47q43.5 23 76.5 45t47 47q2 63 3 110.5t2 67.5q-27 34-77 35-16 1-36.5 5T769 918q-8 2-14.5 10t-8.5 13zM597 100q-10 0-17.5-7T572 75q0-11 7.5-18t17.5-7q10 0 17.5 7t7.5 18q0 11-7.5 18t-17.5 7zm-417 0q-11 0-18-7t-7-18q0-11 7-18t18-7q11 0 18 7t7 18q0 11-7 18t-18 7zm417-16q9 0 9-9t-9-9q-9 0-9 9t9 9zm-417 0q9 0 9-9t-9-9q-9 0-9 9t9 9zM36 129l69-23q-1-2-1-5v-5q0-4 .5-8t1.5-9zm417 0l69-23q-1-2-1-5v-5q0-4 .5-8t1.5-9zM53 139l70-1q-6-5-13-15zm417 0l70-1q-6-5-13-15zm79 802q4-2 19-10t33-8q6 0 11.5.5t10.5.5q14-8 32.5-12t46.5-3v12q-17-1-29.5 1t-23.5 7q15 2 20.5 4t24.5 2q11 0 27.5-10.5T749 904q5-44 20.5-85t34-83q18.5-42 33.5-90-20-14-43-27t-48-26q9 20 23.5 48t24.5 47l-51 146q-14 34-33.5 51T656 904q-17 0-42.5 4T571 918q-7 2-13.5 10t-8.5 13zm-417 0q5-2 19.5-10t32.5-8q6 0 11.5.5t10.5.5q13-8 32-12t47-3v12q-17-1-29.5 1t-22.5 7q14 2 19.5 4t24.5 2q11 0 27.5-10.5T332 904q5-44 20.5-85t34-83q18.5-42 33.5-90-19-14-42.5-27T329 593q9 20 23.5 48t24.5 47l-51 146q-14 34-33.5 51T239 904q-16 0-42 4t-43 10q-7 2-13.5 10t-8.5 13zm427-38l5-3q19-8 47-11.5t45-4.5q29-1 44.5-16.5T726 824l47-134q-2-3-7-12.5T755 655q-34-5-71-6.5t-73-1.5q-14 0-33-4t-33-8q3 9 6.5 19t5.5 17q-8 41-13 79.5t-3 78.5q2 19 6 37t12 37zm-207-6q19-6 39-8.5t35-4.5q22-2 34.5-8t22.5-16q0-6-1-40t-4-123q-14-20-41-39-15 47-32.5 86T372 820q-15 37-20 77zm417 0q19-6 39-8.5t35-4.5q22-2 34-8t23-16q0-6-1-40t-4-123q-14-20-41-39-15 47-32.5 86t-32 76Q775 857 769 897z" fill="currentColor"/></svg>