<svg xmlns="http://www.w3.org/2000/svg" viewBox="0 0 595.3 439.9"><path d="M85.1 22.3c-1 3.3-.2 4.9 2.5 4.9 2.3 0 3.4-1.1 3.2-3.2-.2-2.2-2.1-2.7-5.7-1.7zM57.4 34.6c-7.3 1.6-19 4.8-35.1 9.4-7.9 1.3-12.9 3.8-14.8 7.4 43.1.1 59.8-5.6 49.9-16.8zm-49 21.8l49 .5v-5.4l-49 4.9zm69.3-33.6c.7-5.6 4.6-8.1 11.9-7.4 6.6 1.3 9.6 4.8 8.9 10.4-.7 6.9-4.9 9.6-12.9 7.9-6.6-.1-9.2-3.7-7.9-10.9zm199.9 188c0 18.5 22.9 31.3 68.8 38.6 30.7 4.9 78.7 10.1 144 15.3l88.6 32.2c-2.6-4.6-24.7-15.3-66.3-32.2-23.4-11.2-52.3-29.4-86.6-54.7-34.3-25.2-73.4-37.9-117.3-37.9-20.8 9.7-31.2 22.5-31.2 38.7zM247.4 22.3c-1.3 3.3-.7 4.9 2 4.9 2.3 0 3.4-1.1 3.2-3.2-.2-2.2-1.9-2.7-5.2-1.7zm-28.2 12.3c-7.3 1.6-18.8 4.8-34.6 9.4-7.9 1.3-13 3.8-15.3 7.4 43.1.1 59.8-5.6 49.9-16.8zm-49 21.8l49 .5v-5.4l-49 4.9zm69.3-33.6c.7-5.6 4.6-8.1 11.9-7.4 6.6 1.3 9.6 4.8 8.9 10.4-.7 6.9-4.9 9.6-12.9 7.9-6.3-.1-8.9-3.7-7.9-10.9zm-14.4 7.4c5.6 4.3 6.9 8.2 4 11.6-3 3.5-4.5 7.3-4.5 11.6 17.2 4.6 30 5 38.6 1.2 8.6-3.8 13.9-1.5 15.8 6.9 2 8.4.6 19.4-4.2 32.9s-16.6 32.3-35.4 56.4c-16.8 14.5-24.6 32.3-23.3 53.4 1.3 21.1 17.8 41 49.5 59.6s50.4 31.1 56.2 37.4c5.8 6.3 11.6 12.7 17.6 19.3 0-7.9 2.6-14.3 7.7-19.3 5.1-4.9 13.6-7.4 25.5-7.4 8.2 0 26.1 10.9 53.4 32.7 6.6 1 16.6-.7 29.9-5.2 13.4-4.5 27.7-4.1 43 1s33.6 9.8 54.7 14.1l6.4-9.9c-21.8-11.2-39.5-19.2-53.2-24-13.7-4.8-27-12.6-39.8-23.5-37.3-4.9-79-9.2-125.2-12.9-24.7-4.6-42.4-9.7-52.9-15.3-19.8-9.2-29.7-23.6-29.7-43 0-11.9 7.6-24.2 22.8-37.1-18.5-6.3-22.9-18.5-13.4-36.6 9.6-18.1 17.6-38.8 24-61.9 6.4-23.1 7-38.8 1.7-47-5.3-8.2-14-13.4-26.2-15.3-18.7-2.7-33.1 4.1-43 20.3zm142.6 279.6c-6.6 3-10.1 9.2-10.4 18.8 2 1 13.4 3.6 34.1 7.9l5.4-7.9-29.1-18.8zM327.6 334c-17.2-2.6-32.3.8-45.5 10.4 1.3 8.2-.3 18-4.9 29.2-.7 12.2-2.6 28.9-5.9 50 3.6 1.6 8 3.1 13.1 4.2 5.1 1.2 10.3-1.2 15.6-7.2 23.8-32 36.8-50.3 39.1-54.9-3.8-16.2-7.6-26.8-11.5-31.7zm-8.9-15.3c-10.2-10.6-34.1-26.1-71.7-46.5l-66.8-5.9c-24.7-4.6-42.4-9.7-52.9-15.3-20.1-9.2-30.2-23.6-30.2-43 0-11.9 7.8-24.2 23.3-37.1-18.5-6.3-22.9-18.5-13.4-36.6 9.6-18.1 17.6-38.8 24-61.9s6.9-38.8 1.5-47c-5.4-8.2-14.1-13.4-26-15.3-19.1-2.6-33.5 4.1-43 20.3 5.3 4.3 6.5 8.2 3.7 11.6-2.8 3.5-4.2 7.3-4.2 11.6 16.8 4.6 29.5 5 38.1 1.2 8.6-3.8 13.9-1.5 15.8 6.9 2 8.4.7 19.4-4 32.9-4.6 13.5-16.3 32.3-35.1 56.4-16.8 14.5-24.6 32.3-23.3 53.4 1.3 21.1 17.8 41 49.5 59.6s50.4 31.1 56.2 37.4c5.8 6.3 11.6 12.7 17.6 19.3 0-7.9 2.6-14.3 7.7-19.3 5.1-4.9 13.6-7.4 25.5-7.4 8.2 0 26.1 10.9 53.4 32.7 6.3 1 14.9-.2 26-3.7 10.9-3.6 20.3-5 28.3-4.3zm-92.1-62.9c-24.1-23.1-32.2-48.5-24.2-76.2-17.5-4.9-36-7.4-55.4-7.4-20.8 9.6-31.2 22.4-31.2 38.6 0 18.5 22.9 31.3 68.8 38.6 12.2 2 26.2 4.1 42 6.4zm-6.4-192.5c-14.2-1-27.5-1.3-39.8-1-12.4.3-18.6-2-18.6-6.9.7-8.6 9.1-15 25.2-19.3 16.2-4.3 27.2-8.1 33.2-11.4C229.4 5.9 245.6-2.2 268.7.5c18.5 3 30.7 9.4 36.6 19.3 8.9 15.8 6.3 41.2-7.9 76s-16.2 53-5.9 54.7c28.4 2 54.6 6.6 78.7 13.9 24.1 7.3 55.9 25.2 95.5 53.9 21.4 15.8 45.2 29.4 71.3 40.6 38.9 20.1 58.4 30.7 58.4 31.7v22.3l-97-28.2c25.4 8.6 50.3 20.8 74.7 36.6 4.6 6.9 5.2 12.9 1.7 18.1-3.5 5.1-8.8 7.8-16.1 7.9-7.3.2-20.6-1.7-40.1-5.7-30.7-11.9-55.4-10.9-74.2 3 1 8.2-.7 18-4.9 29.2-1 12.2-3.1 28.9-6.4 50 3.6 1.6 7.7 3.4 12.1 5.2 4.5 1.8 6.7 5.5 6.7 11.1-4.3-3-8.1-3-11.4 0h-84.1c-5.6 0-9.5-.7-11.6-2.2-2.1-1.5-4.5-1.2-7.2.7-1.3-1.6-1.5-3.7-.5-6.2s3.6-3.7 7.9-3.7h9.9c15.8-3 28-3.3 36.6-1 15.8 0 24.9-2.3 27.2-6.9.7-54.8-1.5-81.8-6.4-81.2-3.3 4.9-8.5 7.5-15.6 7.7-7.1.2-19.7-1.7-37.9-5.7.3 2 2.3 7.9 5.9 17.8-3.6 6.3-20.5 27.7-50.5 64.3 3.6 1.6 7.8 3.4 12.4 5.2 4.6 1.8 6.8 5.5 6.4 11.1-4-3-7.8-3-11.4 0H194c-5.6 0-9.4-.7-11.4-2.2-2-1.5-4.5-1.2-7.4.7-1-1.6-1.1-3.7-.2-6.2.8-2.5 3.5-3.7 8.2-3.7h9.4c16.2-3 28.5-3.3 37.1-1 15.8 0 24.9-2.3 27.2-6.9.7-54.8-2.8-82.1-10.4-82.1-21.1-19.1-34.6-28.7-40.6-28.7-6.9 3-10.4 8.7-10.4 17.3 0 8.2 2.3 19 6.9 32.2-3.6 6.3-20.3 27.7-50 64.3 3.6 1.6 7.7 3.4 12.1 5.2 4.5 1.8 6.7 5.5 6.7 11.1-4.3-3-8.1-3-11.4 0H75.7c-5.6 0-9.5-.7-11.6-2.2-2.1-1.5-4.5-1.2-7.2.7-1.3-1.6-1.5-3.7-.5-6.2s3.6-3.7 7.9-3.7h9.9c15.8-3 28-3.3 36.6-1 15.8 0 24.9-2.3 27.2-6.9 23.8-32 36.6-50.3 38.6-54.9-5.3-25.4-14.7-43.5-28.2-54.4-56.1-32.7-88.5-56.6-97.2-71.7-8.7-15.2-13.1-30.5-13.1-46 0-16.2 8.9-32.7 26.7-49.5 20.5-23.4 33.2-42.9 38.1-58.4 4.9-15.5 3.7-22-3.7-19.5s-21 1.6-40.8-2.7c-14.2-1-27.5-1.3-39.8-1C6.2 62.7 0 60.4 0 55.4c.7-8.6 9.1-15 25.2-19.3 16.2-4.3 27.2-8.1 33.2-11.4C67.6 5.9 83.8-2.2 106.9.5c18.5 3 30.7 9.4 36.6 19.3 8.9 15.8 6.3 41.2-7.9 76s-16.2 53-5.9 54.7c28.4 2 54.9 6.6 79.7 13.9 1.3-3.6 9.6-13.8 25-30.4s25.5-32.7 30.4-48.2c4.9-15.5 3.8-22-3.5-19.5-7.3 2.2-21 1.3-41.1-3z"/></svg>