<svg xmlns="http://www.w3.org/2000/svg" viewBox="-10 0 1226 1193"><path d="M415 1193q-18-4-44-16t-53-27q-27-15-49.5-29t-34.5-24q-57-15-105.5-34t-83-36Q11 1010-3 1002l22-28q-13-11-29-20 10-11 21-22t24-21q-6-10-11.5-29.5T18 841q0-12 5.5-40.5t13.5-62Q45 705 52 677t10-38q-5-9-7.5-20T51 596q-1-5-1-10v-9q0-34 9-57t25.5-43.5Q101 456 125 432q8-7 18-24.5t15-30.5q1-4 3.5-18t5.5-34q5-34 12.5-76t17.5-78q10-36 20-51 18-21 66.5-49.5t127-49.5Q489 0 595 0q49 0 98.5 15t94 35.5Q832 71 865 89q10 5 24.5 12.5T936 125q29 14 68 32.5t83 32q44 13.5 89 13.5 13 0 40-3v45q-13 4-34.5 9.5T1132 265l71 32-64 112q-26-14-59.5-28t-64-24Q985 347 968 347q-12 0-38 4.5t-60.5 12Q835 371 799 380t-67 17q2 10 5.5 29.5t7.5 42q4 22.5 8 41.5l-12 24v239l46 12q38 14 55 44 16 1 45 2t49 1q32 0 63-12.5t55-23.5q-1 15-12 36t-26 41q-15 20-27 31 18 15 32 36.5t22 44q8 22.5 9 38.5-13-10-35-18.5T972 990q-23-6-40-6-29 0-71 7.5t-89 26.5l-35 15 63 65q-31 8-56.5 11.5T698 1113q-37 0-69.5-6t-51.5-13q-41 13-84 21t-84 8q-8 0-16.5-.5T376 1121q5 11 14.5 30t24.5 42zm374-371l-2-17-66-20 1-256 11-21q0-5-4.5-26t-10-48q-5.5-27-10.5-51 34-9 73.5-19t77-18q37.5-8 67-13.5T968 327q15 0 44 9t61.5 22q32.5 13 58.5 26l43-78-75-35q-54 10-116.5 18T864 302.5q-57 5.5-96 5.5-114 0-188.5-17t-118-42.5Q418 223 397.5 197T371 151q-6-20-6-24 0-15 6-23.5T381 90l1-1 14 13-1 2q-3 2-7 8t-4 15q0 4 6 21.5t25.5 41q19.5 23.5 61 46T589 273q71 15 179 15 36 0 84-4t100.5-10.5Q1005 267 1054 260t86.5-14q37.5-7 54.5-12l1-14h-21q-46 0-92-13t-86-31.5Q957 157 927 142l-71-36q-32-17-74.5-37T691 34q-48-15-96-15-104 0-179 20T295 85.5Q249 112 233 132q-10 12-18.5 46.5T199 254q-7 41-12 74-4 21-6 36t-4 20q-5 13-16.5 32.5T139 446q-33 33-51 60t-18 71v17q1 18 6.5 31.5T95 639q20 0 35-18t25-40.5q10-22.5 15-37.5 1-8 4.5-24t6.5-33q3-13 5.5-25t4.5-18q16-40 27-70.5t15-45.5q5-16 9-39.5t8.5-46q4.5-22.5 12-38T282 188q7 0 38 22t68 48q32 22 61.5 43t39.5 26q14 7 42 13t49 10l121 143q-2 7-3.5 16t-1.5 14q0 3 5.5 11.5T711 550l-14 239-118 14-2 15q20-1 44-2t45-2q21-1 32 0 17 1 44 3.5t47 4.5zM65 890q29-21 61.5-38t64.5-30q10-11 26-21t35-14l97-18q14-2 33-9t25-21q2-4 9.5-19.5t17-35Q443 665 451 648l43-108q5-12 8-44t3-73q0-34-3-71-7-1-12-3.5t-10-4.5q-11-5-41-26.5T377 273q-35-25-59.5-43T285 212q-10 0-14.5 21.5t-8 49.5q-3.5 28-10.5 49-9 29-20.5 58.5T209 450v-1q-1 3-3.5 14.5T201 490q-3 16-6.5 32t-6.5 27q-6 17-18 42t-29 44q-17 39-35 88.5T76.5 818Q65 863 65 890zm451-59q2-2 2-4-1 0-18.5-5.5T464 808q-28-12-28-36 0-12 8-31 8-17 18-38t17-34l69-128q1-2 .5-9.5T547 518l48-121q-8-9-14.5-17t-9.5-12q-8-1-22-4t-27-6q1 17 1.5 33t.5 32q0 44-3.5 77.5T513 547l-47 116h-1q-4 10-13 28t-17 34.5q-8 16.5-10 21.5-10 19-30 28t-42 12q-19 3-47 8.5t-42 8.5l-3 14q22-1 45-3t42-3q19-1 25-1 26 0 54 8.5t50 10.5q14 2 26 2t13-1zm9-17q19-27 48-30l108-14 10-214-9-15-6-18q0-9 4-25l-71-84-42 106q1 5 1.5 14.5T566 550q-1 3-13 25t-29 53q-17 31-32 59h-1l-29 62q-6 14-6 23 0 11 19 20zM100 606q-7 0-12-5t-5-12q0-8 5-12.5t12-4.5q7 0 12 4.5t5 12.5q0 7-5 12t-12 5zM38 885q-1-5-1-10.5V864q0-16 2.5-35t8.5-42l35-130q-6-2-9-4-4 16-10.5 42.5t-13 56Q44 781 39 805.5T34 841q-1 16 .5 26t3.5 18zm13 0q1-22 7.5-53t16-64q9.5-33 19-62.5T111 657q-4 2-7 2h-8L61 790q-6 23-8.5 41.5T50 864v10.5l1 10.5zm478-50q4-4 13-10t18-7l2-13q-7 2-17 9t-16 21zm-311-13l24-3 2-11q-9 3-16 7.5t-10 6.5zm607 13q-5-14-11-18.5t-10-3.5l2 13q7 2 11.5 3.5t7.5 5.5zm197 147q-10-18-26-40.5T954 904q7-1 21-15t28.5-31q14.5-17 21.5-31-27 14-51 18t-38 5h-19q7 13 10 30t3 33q0 14-2.5 28t-7.5 24h12q21 0 46 5t44 12zm-613 121q56 0 112-14t109-34q53-20 98-40l37-15q36-14 69.5-22t61.5-11q15-18 15-54 0-37-15-62l-80-4q-17-7-41.5-9.5t-46-2.5q-21.5 0-30.5-1-14-1-40 0t-50.5 2q-24.5 1-34.5 2-12 1-26 2.5T524 852l-15-1v-2q-6 0-14 .5t-18 .5q-26 0-51.5-9.5T373 831q-7 0-29.5 1.5T292 836q-29 2-56.5 4t-44.5 3l-14 6q8 12 21.5 43t13.5 65q0 40-9 69.5t-13 37.5q13 5 27 9t28 7h1v1q38 10 79.5 16t83.5 6zm-238-45q3-5 12.5-33t9.5-68q0-33-13-61.5T160 857q-37 18-78.5 44T17 953q4 4 11 10t12 10l-16 20q19 10 58 28.5t89 36.5zm-54-98q-7 0-11.5-5t-4.5-11q0-16 16-16t16 16q0 6-4.5 11t-11.5 5zm581 134q33 0 66-6l-46-48q-25 11-52.5 22t-56.5 21q18 4 41 7.5t48 3.5zm-326 66q-7-13-11.5-24t-6.5-16q-18-1-35.5-4t-35.5-7q46 31 89 51z" fill="currentColor"/></svg>