<svg xmlns="http://www.w3.org/2000/svg" viewBox="0 0 595.3 568"><path d="M206.3 407.7c58.9 3.8 122.3 11.6 190.1 23.6 1-8.6 5.5-17 13.4-25.2-36.7-.3-95.7-8.4-177.3-24.2-14.7 3.6-23.4 12.1-26.2 25.8zm-15.9 25.7c18.5 29.1 17.5 57.7-3.1 85.8 58.2-.7 133.1-10.3 224.5-28.8 28.1-2.1 43.7-8.7 46.8-20-2.7-11-20.2-17.6-52.4-20-102.1-16.5-174-22.1-215.8-17zm-108.9 54c23.6 17.1 50.4 26.4 80.2 27.7 26-25.3 26.7-52.2 2.1-80.7-32.3 2.1-59.7 19.8-82.3 53zM137 456c10.6-2.7 16.8-1.5 18.5 3.9 1.7 5.3 1.9 10.4.5 15.4s-6.8 7.4-16.2 7.2c-9.4-.2-14-3.8-13.9-10.8.2-7 3.9-12.2 11.1-15.7zm337.6-6.1c9.9 11 10.1 24.5.5 40.6 17.1 10.3 32.5 17.8 46.2 22.6-6.9-29.5-5.5-57 4.1-82.7-16.8 9.2-33.7 15.7-50.8 19.5zm-122.9 72.4c15.8 12.3 31 20.7 45.7 25.2-9.6-10.3-17.3-20.2-23.1-29.8l-22.6 4.6zm-123.8 16c4.8 5.1 16.4 9.9 34.9 14.4l-14.4-14.9-20.5.5zm27.8-517.5c-1.4 6.2-6.4 12.2-15.2 18-8.7 5.8-12.2 12.8-10.5 21.1 1.4 9.6 16.3 17.8 44.7 24.7 28.4 6.9 61.1 10.9 98.1 12.1 37 1.2 58.9.8 65.8-1.3 5.5-1 8.9-5.5 10.3-13.4-5.5 0-34.9-11.4-88.1-34.2s-88.4-31.8-105.1-27zm202.9 61.7c.3 6.9-2.7 12.3-9.2 16.4l14.4-2.6c3.8-3.4 5.7-7.7 5.7-12.8l-10.9-1zm21.1 4.1c1.4 3.1-.3 6.2-5.1 9.2l12.3.5c5.8-2.7 7.4-6.2 4.6-10.3l-11.8.6zm23.6 0c-.3 2.4-1.9 5.3-4.6 8.7H511c3.1-2.4 4.8-5.1 5.1-8.2-2.3-.7-6.6-.9-12.8-.5zm24.7.5l-4.6 7.2 10.8-.5c3.1-2.1 4.3-4.3 3.6-6.7H528zm20.5.5l-3.6 5.1 17.5-.5-13.9-4.6zm-75 26.2l12.3 9.8-17 9.2c43.8 6.5 70.1 7.9 78.6 4.1 15.4-4.1 25.3-11.1 29.8-21.1l-103.7-2zm-14.4 4.6c-5.1-5.5-12.3-8.4-21.6-8.7-41.4 5.5-88.5 3.9-141-4.9-52.6-8.7-82.1-24.1-88.6-46-3.1-10.6-.8-18.4 6.9-23.4s13.4-10 17.2-15.2c-8.9-.3-20.6 2.9-35.2 9.8-14.6 6.9-22.3 15-23.1 24.4-.9 9.4 4.8 17.6 17 24.7 12.2 7 33.8 19.4 65 37.3s58.4 29.3 81.7 34.4c23.3 5.1 38.9 25 46.8 59.6-1.4-38.7 5-59.4 19-62.2 14-2.7 32.6-12.6 55.9-29.8zM49.6 342.5c.7-15.8 2.7-27.6 5.9-35.5 3.3-7.9 2.4-19.6-2.6-35.2-5-15.6-3-28.8 5.9-39.6s5.4-10.5-10.5.8-24.9 24.6-27 39.8c-2 15.3 7.4 38.5 28.3 69.7zm-8.7-27.3c-9.2-10.3-11.1-18.7-5.7-25.2 7.5-2.7 11.8 0 12.8 8.2 1.8 8-.6 13.6-7.1 17zm144.9 85.3c-1.4-12.7 4.8-19.9 18.5-21.6 9.9-9.2 19.5-13.5 28.8-12.8 15.8 3.4 25.7 3.6 29.8.5 16.1-12 33.7-54.6 52.9-127.9l-32.9-85.3c-60.6-36.7-93.8-55.2-99.4-55.8-5.7-.5-12.1 6.5-19.3 21.1-7.2 14.6-20.1 35-38.8 61.4s-34 45.4-46 57c-12 11.6-15.1 22.6-9.2 32.9 5.8 10.3 7.4 23.7 4.6 40.3-2.7 16.6-6 30.7-9.8 42.4-1.4 31.5 4.6 64.9 18 100.2 14.7-23.3 47.4-38.2 98.1-44.7l4.7-7.7zM416 429.3c51.4 1.7 96.8-7.7 136.2-28.3-2.4 9.9-6.2 23.9-11.3 41.9-5.1 18-6.8 34.6-4.9 49.8 1.9 15.2 7.8 33.3 17.7 54.2l-56-25.2c-21.9-8.9-51.4-12.5-88.4-10.8-10.3 1-15.2 3.3-14.9 6.7.3 5.5 8.9 18.3 25.7 38.5-31.5 6.9-63-4.1-94.5-32.9-27.4 7.9-46.8 12.7-58.1 14.4.3 3.1 7 13 20 29.8-20.6 2.7-50-6.3-88.4-27.2-52.4-5.8-88.3-13.8-107.7-23.9-19.4-10.1-29.4-19.4-30.1-28 0-6.5 2.6-13.4 7.7-20.6C51.7 424 39.8 386 33.7 353.8l-22.1-33.4c-12.3-22.6-14.8-43.9-7.5-64 7.4-20 19.3-34.9 35.7-44.7s33.7-23.5 51.6-41.1c18-17.6 34-46.7 48-87.1 14-40.4 34.3-65.7 60.9-75.8C227-2.4 258.5-2.6 295 7.2s80.6 27 132.3 51.6c19.5 7.2 43.2 11.6 71.2 13.1 27.9 1.5 52.5 5.9 73.7 13.1 8.9 5.5 9.1 10.1.5 13.9-3.4 1.4-17 2.7-40.6 4.1v.5l63.2.5c-2.4 12.3-8.2 22.8-17.5 31.3-9.2 8.6-21.4 14.7-36.5 18.5-18.2 0-50.2-2.4-96.1-7.2-37 13.4-52.4 44-46.2 92-6.9 38-8.9 86-6.2 143.9 14.4-.3 24.7 1.3 31.1 4.9 6.3 3.6 9 8.6 8 15.2-5.5 5.5-10.8 14.4-15.9 26.7zM299.8 380c17.8-3.8 39.6-2.6 65.3 3.6 8.6-15.4 12.7-63.7 12.3-144.9-7.5-15.1-14-28.8-19.5-41.1s-10.6-18.5-15.4-18.5v48.3c0 12.3-7.2 33.7-21.6 64-14.4 30.3-25 58-31.9 83l10.8 5.6z"/></svg>