<svg xmlns="http://www.w3.org/2000/svg" viewBox="-10 0 1440 738"><path d="M411 738l-7-2q-2-6 0-13l-21 1q-14 0-29 12l-7-2q1-31 16-40.5t26-14.5q20-8 41.5-12t45.5-5q13-2 29.5-7.5t33-19Q555 622 567 593l32-74q-3-7-11-23.5t-16.5-33Q563 446 561 441l-9-4v1q-24-10-47.5-20.5T461 398q-16-8-40-23t-50.5-33.5q-26.5-18.5-49-38T285 266v1q-13-17-29.5-33T217 218q-14 0-27 12.5t-23.5 31Q156 280 149.5 298t-6.5 29q0 10 5 35.5t9 45.5q4 23 8.5 45.5T170 488q0 4-2.5 19t-6.5 34q-4 19-7 35 1 16 5 40.5t9 51q5 26.5 10 47.5l-25 9q-14-18-30-40.5T93 639q-14-22-21-37-17-12-36.5-32T3 526q-13-24-13-47 0-20 6-51.5T11 362q9-34 17.5-62T42 259q7-17 22-50.5t34-68Q117 106 138 86q17-18 55-38t105-34Q365 0 471 0q70 0 140 7t116 21q24 7 68 25t97.5 41Q946 117 998 140q56 26 102.5 45.5T1167 211q21 7 58 24t77.5 37q40.5 20 73.5 37v28q-11 3-29 6l-42 7 125 89v27q-11 8-32 19t-53 11q-56 0-108-15t-81-28q-10 4-46.5 15.5T1018 490q-55 10-121 10-14 0-46-3.5t-57-6.5q7 10 16 23.5l15 22.5-13 93q0 2-.5 10.5T811 655q0 1 13.5 7t33 13q19.5 7 37.5 14v39q-10-2-31.5-4t-46.5-3q-25-1-46-1-12 0-30 .5t-35 2q-17 1.5-26 2.5-7 1-14 5l-14 8-5-1q-3-5-1-14l-21 1q-8 0-17 4t-16 9h-3v-8.5l1-6.5q-16-1-31.5-1.5T529 720q-12 0-30 .5t-35 2q-17 1.5-26 2.5-7 1-13.5 5t-13.5 8zm465-28v-10q-9-4-29.5-10T809 675q-17-9-17-20 0-6 .5-14.5t.5-13.5l13-86q-6-9-23.5-33T752 464q24 4 53.5 7.5T860 478q25 3 37 3 52 0 102.5-8t92-19.5Q1133 442 1158 432q24 14 74.5 29.5T1345 477q29 0 43.5-7t21.5-13v-8l-135-96q-52 6-115.5 11t-126 9q-62.5 4-112.5 6t-75 2q-62 0-125-14t-121.5-37Q541 307 492 279.5t-83.5-55Q374 197 360 174l17-10q17 27 63.5 61T553 290q66 31 142 51t151 20q23 0 65-1.5t94.5-4q52.5-2.5 108.5-6t106-7.5q50-4 86.5-8t51.5-9v-6q-11-5-35.5-17.5t-55.5-27q-31-14.5-59.5-26.5t-46.5-18q-17-6-65.5-27T990 157q-36-16-76.5-33T835 91q-38-16-68-28t-46-17q-44-12-112-19t-138-7q-100 0-164 14T206 67q-37 19-56 34-17 19-35.5 52t-33 65Q67 250 61 266q-5 13-13.5 40.5t-17.5 60q-9 32.5-15 63T9 479q0 25 21.5 53.5T73 579q6-4 17-10.5t18-10.5l32 1 6-33 4-38q0-10-4-31t-9-45q-5-24-9.5-47.5T123 327q0-13 8-34.5t21.5-43.5q13.5-22 30-36.5T217 198q29 0 49 19t35 39q18 22 50 47t65 46q33 21 53 31t43.5 20q23.5 10 47.5 20 29 11 55 22.5t45 21.5q19 10 41 28t43.5 39q21.5 21 36.5 38l-5 54q-1 22-14 38.5T727 683q-5 1-15.5 6.5T697 708q13-2 37-4t38-2q13 0 33.5 1.5t40 3Q865 708 876 710zm-420-2q12-2 36-4t38-2q11 0 29 1t36 3q3-6 7.5-10t8.5-7q-13-8-19-16.5t-6-21.5q0-11 8.5-28l10.5-21 44-85v-37q-14-7-29-13.5T589 453l30 66-37 82q-20 46-47.5 61.5T485 683q-4 1-14 6.5T456 708zm173-28l1-1q19-8 41.5-12t45.5-5q20-4 29.5-16t10.5-27l3-44q-5-5-19-20t-33-32.5Q689 505 669 492v30l-49 87-9 18-7 18q-3 11 4 21t21 14zM72 535q-7 0-12-4.5T55 518q0-7 5-11.5t12-4.5q16 0 16 16 0 17-16 17zm84 150q-5-23-10-55t-7-54l-19 1q4 19 15 52t21 56zm-14 0q-10-23-21-53t-15-51l-19 11q10 22 26 48t29 45zm243 26h18q4-5 15-14.5t30-18.5q-25 4-41.5 14.5T385 711zm242 0h18q3-5 14.5-14.5T690 678q-25 4-41.5 14.5T627 711zm-211 12q6-5 12.5-7.5t9.5-3.5q1-4 3.5-9t7.5-11q-9 4-20 13t-13 18zm242 0q6-5 12-7.5t9-3.5l4.5-9 7.5-11q-10 4-21 13t-12 18zm-58-1q9-8 16-9 2-9 10-18-8 2-16 8t-10 19zm-242 0q9-7 17-9 2-7 9-18-7 2-15.5 8T358 722z" fill="currentColor"/></svg>