<svg xmlns="http://www.w3.org/2000/svg" viewBox="0 0 594.2 356.4"><path d="M212.8 19.5c-30.2 3.2-45.4 12-45.5 26.3-.2 14.3 11 30.3 33.4 48.2s52.4 33.1 90.1 45.8c37.7 12.7 80 12.3 127.1-1.2 47.1-13.5 87.8-20 122.2-19.7h35.5c0-6.5-6-11.2-18-14.1-80.2-27.6-148.2-48.9-204.2-64-56.2-15.2-103-22.3-140.6-21.3zm55.9 313.6h22.4c7.1-4.5 16.9-6.6 29.2-6.1s19.6-3 21.9-10.5c0-28.9-2.9-66.8-8.8-101.8-13.3-1-27.9-3.9-43.8-8.8-13.2 59.1-20.2 105.4-20.9 127.2zM32.6 261.9c-6.5.3-10.1-4.1-10.7-13.1 0-9.4 3.2-14.3 9.7-14.6 7.5-.6 11 4.2 10.7 14.6 1.4 8.4-1.9 12.8-9.7 13.1zM42.8 279c3.9-7.8 8-10.2 12.4-7.3 4.4 2.9 9 3.7 13.9 2.4 1.3-23-.9-39.7-6.6-49.9s-6.5-24.1-2.4-41.6 12.4-35.9 25.1-55c12.7-19.2 27.3-28.8 44.1-29 16.7-.2 46.7 16.1 90.1 48.9 43.3 32.8 86.3 51.8 128.8 57l8.3-1c36-6.2 59.4-14 70.1-23.4 10.7-9.4 24.6-14.2 41.6-14.4 17-.2 41-.2 71.8-.2 23.7-11 35.5-22.7 35.5-35.1l-35.1.5c-20.8 0-49.3 4.6-85.7 13.9-36.4 9.3-64.4 15-84.2 17.3-19.8 2.3-45.8-.3-78.1-7.8s-63.9-22.3-94.7-44.5c-30.8-22.2-46.3-42.9-46.3-62.1-.6-18.5 7.8-28.4 25.3-29.7-45.1.3-73.8 10.5-86.2 30.4-12.3 20-21.7 42-28.2 66s-16.5 43.3-29.9 57.9c-13.5 14.6-20 33.6-19.7 57C13 253.7 23 270.2 42.8 279zm199.7 36.5c8.1-25.6 12.2-66.4 12.2-110.6-1.3-10.1-19.6-27.2-54.8-51.4-35.2-24.2-58.8-36.4-70.8-36.5-12-.2-22.4 6.4-31.2 19.7s-15.7 28.9-20.7 46.7c-5 17.9-5.6 31.2-1.7 40.2 3.9 8.9 5.5 26.9 4.9 53.8 1.9 18.8 4.3 36.2 7.1 52.1 2.8 15.9 1.4 24.5-4.1 25.8-23.3-13.3-23.5-44-44.8-69.1-25.3-7.1-38.1-26-38.5-56.5.3-27.3 6.9-47.4 19.7-60.4 12.8-13 22.1-31 27.8-54 5.7-23 14.8-48 27.3-74.7C87.2 13.9 130.3.3 204 0c62 0 192 33.4 390 100.3 1.3 22.4-2.4 39.1-11 50.1s-22.8 20.1-42.6 27.3c-30.5-2.3-59.9-1.1-88.1 3.4-21.7 17.2-49.3 28.7-82.8 34.6-4.2 64.3-2.9 105.4 3.9 111.5 11 2.6 18.7 7 23.1 13.1 4.4 6.2 6.4 11.2 6.1 15.1L165 356c-6.5-5.5-13.5-5.4-20.9.5.6-14.3 11.8-21.4 33.6-21.4 9.7-4.2 23-7.1 39.7-8.8 16.7-1.7 25.1-5.2 25.1-10.8z"/></svg>