<svg xmlns="http://www.w3.org/2000/svg" viewBox="0 0 594.3 582.2"><path d="M181.6 304.7c32.6 53.1 57.2 102.8 73.8 149.2 3.5 6.7 10.3 15.9 20.2 27.6 5.3-8.5 8.7-19.8 10.1-34-13.1-42.5-47.8-90.1-104.1-142.8zm108.9 177.9l-11.7 17.5-14.3-13.3c0 10.3-3.7 33.3-11.2 69 18.1-1.4 28.8-6.2 32.1-14.3 3.4-8.1 5-24.4 5-48.9v-10zm289.9 67.9l4.2-4.2c-6.4-12.4-35-53.3-86-122.7S375.4 279.7 282 200c-14.9 7.8-38.4 11.7-70.6 11.7-5.7 0-8.5 3.7-8.5 11.2 0 13.1 22.4 38.1 67.2 75.1 44.8 37 89.1 71.4 133 103.3 43.9 31.9 72.6 51.5 86 58.9 20.9 13.5 51.3 43.6 91.3 90.3zM72.8 64.6c12.7-.4 24.6 1.1 35.6 4.2l4.8 20.7c-1.1-14.5 2.6-23.1 10.9-25.8 8.3-2.7 15-.7 19.9 5.8 5 6.5 5.3 12.6 1.1 18.1-4.2 5.5-7.3 12.3-9 20.4 5.3 9.9 14.7 14.7 28.1 14.3 28.3-30.8 39.1-55.6 32.4-74.3-6.7-18.8-18.9-30-36.4-33.7-17.5-3.7-33.8-2.5-48.9 3.7-15.1 6.4-27.9 21.8-38.5 46.6zM77 165.5l-13.3 37.2-22.3-3.2 15.4-40.9-3.2-11.7c-3.9-1.8-4.6-4.4-2.1-8-2.8-3.2-3.2-6-1.1-8.5l1.1-3.2-10.1 1.6c-3.9-.7-4.3-5-1.3-12.7 3-7.8 6.8-18.1 11.4-30.8-1.4-3.9-.7-8.5 2.1-13.8 12-34.3 28.2-55.6 48.6-63.7 20.4-8.1 41.7-9.9 64-5.3s36.4 17.3 42.2 38c5.8 20.7 5 38.7-2.4 53.9-7.4 15.2-17 28.7-28.7 40.4-1.4 7.1 6.2 9.1 22.8 6.1s43.3 8.7 79.9 35c36.6 26.4 73.5 59 110.5 98s66.6 73.2 88.9 102.8c22.3 29.6 47 63.7 74.1 102.5 27.1 38.8 40.6 62.6 40.6 71.4.7 8.9-5 12.6-17 11.2L501.2 488l37.7 52.6-97.7 30.8-60.5-125.3-28.1-21.8c0 18.1-6.5 40.2-19.6 66.4-6.7-5.3-13.1-10.1-19.1-14.3v24.4c0 23.4-1.2 40.7-3.7 52 7.4 7.1 17.4 9.8 30 8.2 12.6-1.6 20.3.1 23.1 5 2.8 5 2.5 10.1-1.1 15.4-5.3-5-9.6-5.8-13-2.4-3.4 3.4-10.7 4.2-22 2.4l-166.2.5c-6-.4-11.4-2-16.2-5-4.8-3-10.7-1.5-17.8 4.5-.4-16.6 10.3-25 31.9-25 18.4 5.7 34.3 7.2 47.5 4.5 13.3-2.7 21.9-6.3 25.8-10.9 8.1-35.4 11.3-63.5 9.6-84.4.4-14.5-13.8-47.6-42.5-99.3-28.7-51.7-53.5-92-74.6-121.1-21.1-29-29-50.2-23.9-63.5 5.1-13.3 5.8-21.5 1.9-24.7L77 165.5zm-15.4-21.7c.7 3.2 2.2 5.7 4.5 7.4 2.3 1.8 8.4 1.2 18.3-1.6l29.2-10.6c9.2 13.5 11.2 26.9 6.1 40.4s4.3 35.4 28.4 65.8c24.1 30.4 51 61.1 80.7 91.9 29.7 30.8 54 67.6 72.8 110.5l25.5 25.5c11.3-28.7 15.4-53.8 12.2-75.4 34 21.2 52.4 36.6 55.2 46.2l55.2 111 69-20.7c-13.8-23.4-36.6-50.6-68.5-81.8-184.1-128.5-271.7-205-262.9-229.4 0-15.9 10.6-24.1 31.9-24.4 31.5-1.8 48.1-4.8 49.9-9-35.4-25.1-62.6-36.2-81.5-33.2s-28.4-3.8-28.4-20.4c-7.4 0-14.4-1.9-21-5.8-6.5-3.9-11.4-11.2-14.6-21.8-3.2 3.2-6.3 3.5-9.3 1.1-3-2.5-3.6-5.8-1.9-10.1H105l-2.7-18.1c-8.1-4.2-21.4-5.3-39.8-3.2l-4.2 8.5c6-3.5 12.2-5.1 18.6-4.8 6.4.4 14 2.3 22.8 5.8l-.5 2.1-8-.5c-13.5-6-25.3-3.5-35.6 7.4-2.8 6.4-6.2 14.9-10.1 25.5 1.1 2.5 3.5 2 7.2-1.3 3.7-3.4 8.2-2 13.5 4l-10.1 1.6v3.2l19.1.5v3.2l-13.6 10.5zm0-44.1c.7-10.6 11-12.4 30.8-5.3-17 10.6-27.3 12.4-30.8 5.3zm9.6 34c-14.2 1.8-19.5 4.2-15.9 7.4l15.9-7.4zm51.5-42c-3.5 7.1-3.5 10.9 0 11.4s6.1-1 7.7-4.5c1.6-3.5 3.9-7.4 6.9-11.7 3-4.2 2.9-8.5-.3-12.7-3.2-4.2-6.9-4.9-11.2-1.9-4.2 3-5.3 9.5-3.1 19.4zM45.1 338.1c5.7 3.5 8.6 10.9 8.8 22 .2 11.2 9.7 25.1 28.7 42 18.9 16.8 28.1 42.2 27.3 76.2h40.9c8.9-.4 13.3 1.8 13.3 6.4-.4 3.9-4.8 10.1-13.3 18.6-5 4.6-15.4 27.6-31.3 69-2.8 6.4-6.5 9.6-11.2 9.6H55.8c-4.2 0-7.8-3.2-10.6-9.6-15.9-41.4-26.6-64.4-31.9-69-8.9-7.8-13.3-14-13.3-18.6 0-4.6 4.4-6.7 13.3-6.4h48.3c0-25.8-7.7-45.9-23.1-60.3-15.4-14.3-20.4-30.8-14.9-49.4 5.5-18.5 12.7-28.7 21.5-30.5zm-5.8 24.4c-9.2 15.2-5 31.4 12.5 48.6 17.5 17.2 26.3 39.6 26.3 67.2h14.3c-.4-30.8-7.5-52.7-21.5-65.6-14-12.9-24.5-29.6-31.6-50.2zm90.8 134.9H34.5l22.8 55.8c2.8 8.9 8.5 13.3 17 13.3h15.4c8.9 0 14.5-4.4 17-13.3l23.4-55.8z"/></svg>