<svg xmlns="http://www.w3.org/2000/svg" viewBox="-10 0 1250 1215"><path d="M156 1215l-18-13 19-27q10-12 18-23t38-11l134-6q34-33 46.5-68.5T406 1016q0-15-2.5-45.5T388 900q-9-26-24-67t-34-86q-19-45-41-82-15-19-36.5-48.5T210 552q-21-35-35-71.5T161 411q0-26 5-46t10-35q3-8 5-14t2-11q0-3-6.5-5t-16.5-4l-69 75-37-36 59-59-41-73 36-78q0-1 2-14t9.5-31.5Q127 61 143.5 43T188 12.5Q216 0 259 0q46 0 76.5 22t46 51.5Q397 103 397 127q0 35-14 66.5T359 258q-1 4-2.5 11t-.5 15q64 3 125 29t112.5 61.5Q645 410 680 441q74 65 143.5 141T975 742q74 74 143.5 135.5T1240 979l-27 34q-19-8-62.5-27.5T1050 940l89 128-202 125-225-366-30 256-84-41-2 99h96q31 0 39 11t17 23l20 27-20 13-12-17H374l-13 17-18-13 3-4H169zm183-931q-2-9-1-18.5t3-13.5q9-31 23-60.5t14-64.5q0-20-13.5-45t-40-43.5Q298 20 259 20t-63.5 11.5Q171 43 157 59.5t-20 33q-6 16.5-8 26.5l119 16q4-4 11-8.5t18-4.5q16 0 26.5 10.5T314 162q0 10-4 16.5t-9 12.5q-4 5-7.5 11t-3.5 17q0 17 16.5 34.5T339 284zm48 897h337l-16-22H593l-16-18 3-131 85 43q4-41 10-89t12-95.5q6-47.5 10-88.5L379 636q-20-9-51-28t-61.5-47.5Q236 532 215 492.5T194 402q0-32 17-56t44.5-39.5Q283 291 312 285q-13-11-27-27t-14-39q0-16 5.5-25.5T287 178q3-4 5.5-7.5t2.5-8.5q0-20-18-20-6 0-12 5t-9 10l-133-19-29 64q11 19 21 35.5t20 36.5q14 1 29.5 3.5t27 8.5q11.5 6 11.5 19 0 7-2.5 14.5L195 336q-4 14-9.5 32.5T180 411q0 32 15.5 69t38.5 73.5q23 36.5 45 66t36 46.5q44 56 90.5 115.5T496 897q21 27 36 58.5t17 62.5l-11 123-14 18H402zM186 193q-18 3-30.5 0T134 178q1-5 7-11t16-6q14 0 22 9.5t7 22.5zM90 343l45-49h-12l-42 41q3 2 9 8zm1119 650l8-12q-49-38-116.5-96.5T962 755q-33-33-71.5-74t-79-83Q771 556 734 519t-66-63q-26-22-62.5-49T525 356q-44-24-90.5-39.5T343 301q-30 0-59.5 12.5T234 349q-20 23-20 53 0 49 20.5 86t50 63q29.5 26 58 42.5T388 619q1 1 32 15t83.5 37.5Q556 695 622 725t138 63q72 33 143 65.5t133 60.5q62 28 107 49t66 30zM59 1073l-69-202h89q0-8-1-22.5T72 820q-1-6-6.5-17.5T53 778q-6-12-14.5-29.5t-15.5-36Q16 694 16 680q0-17 5.5-35.5T34 610h4q5 26 24.5 63t39.5 63q9 14 28 38t37 50.5q18 26.5 25 46.5h92l-69 202zm40-202h72q-8-18-25-42t-34-46q-17-22-26-34-13-18-27.5-43.5T36 658q-1 5-1 12.5t1 15.5q3 16 14 39.5T71 769q7 13 12 25t8 20q4 15 5.5 31.5T99 871zm83 310h176l4-6q8-11 15-21t29-12h20l46-143 57 30 1-11q-2-28-15.5-56T481 909L347 739q20 45 35 87t24 67q14 40 16.5 73.5t2.5 49.5q0 10-6.5 35t-22 53q-15.5 28-43.5 49l-156 6zm761-15l169-104-95-137-307-139zM73 1054h128q15-44 28-81.5t28-81.5H17q14 41 28 80.5t28 82.5zm372 87h73l9-90-44-24z" fill="currentColor"/></svg>