<svg xmlns="http://www.w3.org/2000/svg" viewBox="-10 0 1379 988"><path d="M594 988l-161-83q-9 4-22 4-27 0-61-15t-63.5-37Q257 835 243 815q-22-2-54-15.5t-66.5-37Q88 739 58 708.5t-49-67Q-10 605-10 564q0-67 32.5-114t83-77Q156 343 209 326q36-30 93.5-69T455 188q14-37 52.5-71.5t86-65Q641 21 682 0l30 31q-10 12-29.5 47T647 150q28-2 59-4t64-2q42 0 94.5 6.5T974 169q21-16 46-26.5t43-15.5l199-59 20 49q-29 40-47 63.5t-29 36q-11 12.5-17 19.5 77 33 128.5 75t51.5 91q0 31-28 59t-76 51q-48 23-110 41l25 22q5 24 16.5 49.5t23 46Q1231 691 1236 698l-26 36q-25-7-61.5-21t-76-33q-39.5-19-74-40.5T942 595q-35 3-69.5 5t-68.5 2q-52 0-95.5-3.5T627 588q14 35 29.5 66t24.5 43l-31 31q-41-21-87.5-54t-83-71Q443 565 430 528l-50-23q-37-18-76-32t-82-14q-68-1-105 34t-37 83q0 24 18.5 47.5T144 667q27 20 53.5 34t41.5 18q5-2 28-7.5t51-5.5q53 0 86.5 17t53 41q19.5 24 28 47.5T496 847q4 2 18.5 12.5T547 885q18 15 33 30t19 26q3 10 .5 24t-5.5 23zm-183-99q19 0 37.5-13.5T477 849q-2-9-8.5-28.5T445 779q-17-22-47.5-37.5T318 726q-21 0-43 4.5t-35 9.5q-17-5-46-20.5T134 681q-31-23-52-50t-21-55q0-38 21-69t57-49.5q36-18.5 83-18.5 42 0 80.5 13t85.5 35l36 17v-8q0-23 12.5-38.5T461 436l8 18q-8 5-17 15.5t-9 26.5q0 28 19 57t50 57.5q31 28.5 66.5 52.5t68.5 41l8-9q-9-14-20-37t-22-50q-11-27-19.5-52.5T583 513l20-3q3 25 15 57 78 15 186 15 30 0 61.5-1.5T928 577q-10-16-10-33 0-24 11.5-41.5T952 477l10 16q-8 6-16.5 19.5T937 544q0 20 19.5 41.5t51 41.5q31.5 20 68 37.5t70 30.5q33.5 13 57.5 20l9-17q-7-11-17-30t-19.5-41.5Q1166 604 1162 584q-4-3-13.5-12t-22.5-19l5-12 19-5q57-16 102.5-36.5T1324 454q26-25 26-52 0-44-49-83t-129-72l-3-16q17-20 36.5-44t54.5-73q-3-7-5-11t-5-12q-47 14-91 27t-90 27q-20 6-47 18.5T975 194q-20 18-20 42 0 15 8 29t15 22l-14 14q-9-10-19-28t-10-37q0-29 22-51-52-10-100.5-15.5T770 164q-72 0-132 6-12 29-15 51l-19-3q2-18 11.5-44t22.5-53.5Q651 93 664 69t22-37l-8-9q-33 18-69.5 40.5T540 112q-32 26-52 53.5T468 220q0 16 7.5 25t15.5 11l-6 19q-12-4-24.5-18T448 220q0-6 1-10-88 29-141.5 67T218 343q-50 16-98 44t-79.5 72Q9 503 9 564q0 38 18.5 72t48 63q29.5 29 63 50.5T203 783q31 12 51 14 11 19 39 40.5t60 36.5q32 15 58 15zm-9-57q-11 0-17.5-7.5T378 807q0-10 6.5-16.5T402 784q10 0 17 6.5t7 16.5q0 10-7 17.5t-17 7.5zm0-15q9 0 9-10 0-8-9-8t-9 8q0 10 9 10zm184 136q0-3-2-7-5-13-24-30t-39.5-32Q500 869 491 862l-12 14zm-25 1l-95-68q-7 7-15 11z" fill="currentColor"/></svg>