<svg xmlns="http://www.w3.org/2000/svg" viewBox="0 0 595.3 394"><path d="M392 79.6c0 7.4 5.8 9.7 17.3 6.7 10.8-6 21.2-16.8 31.3-32.4 10.1-15.6 14.9-26.1 14.5-31.3-11.9 2.6-25.3 9.1-40.2 19.5-14.9 10.6-22.5 23-22.9 37.5zM24.6 204.2c25.3-28.7 50.8-43 76.5-43s52.9 14.3 81.5 43c22 19.7 43 31.3 63.1 34.6-4.1-8.9-17.5-30.7-40.2-65.3 65.1 26.8 121 37.6 167.5 32.4 4.8 0 7.3-7.8 7.3-23.5 5.2-17.1 15.1-24.6 29.6-22.3 8.9 0 23.1 7.6 42.4 22.9 19.7-6.7 34.4-13.4 44.1-20.1 13.4-8.6 28.1-20.7 44.1-36.3-24.9-20.1-54.7-33.5-89.3-40.2-8.2 0-19.4 5-33.5 15.1-19.7 8.9-33.3 9.1-40.8.6-5.2-8.6-6.1-18.2-2.8-29 0-7.8-9-12.8-27.1-14.8s-37.3-2.6-57.8-1.7c-20.5.9-56 15.2-106.7 42.7 21.2-31.6 30.3-54.4 27.4-68.1-18.2 0-36.9 16.2-55.8 48.6-41 25.3-74.5 48.4-100.5 69.2-17.1 24.8-26.8 43.3-29 55.2zM405.4 188c-12.3 20.1 8.6 35.7 62.5 46.9-19-27.9-32.6-44.5-40.8-49.7-8.1-5.2-15.4-4.3-21.7 2.8zM231.7 394c-122.9-46.5-192.2-78.8-208-96.9-15.8-18-23.7-46-23.7-84C0 180 12.7 152.6 38 131c21.2-21.2 56.2-45 105-71.5 7.4-16.4 19-29.7 34.6-39.9 15.6-10.2 32.6-15.4 50.8-15.4 6.7 12.7 6.7 29.4 0 50.3C250 41.5 283.7 35 329.5 35l48.6 3.4c4.8-.4 13.9-5.1 27.1-14.2 13.2-9.1 31-16.8 53.3-23.2 13.8-2.6 19.5.4 17.3 8.9 1.9 13.8-3.5 32.9-16.2 57.5 39.5 11.2 70.4 23.5 92.7 36.9 13.8 3 28.1 10.1 43 21.2-12.7 10.8-26.2 18.1-40.8 21.8-31.3 29.8-58.1 48.8-80.4 57 14.1 19.4 23.6 40.6 28.5 63.7-12.3 0-51.7-14-118.4-41.9-48 7.4-91.8 3.9-131.2-10.6 15.6 26.4 20.8 43.9 15.6 52.5-33.1-5.2-56.8-12.8-70.9-22.9-19-12.7-38.5-27.9-58.6-45.8-11.2-11.9-26.6-17.9-46.3-17.9-22.3 0-39.5 18.2-51.4 54.7-.7 23.1 6.5 35.7 21.8 38 5.2-10.4 15.3-20 30.2-28.8 14.9-8.7 34.8-7 59.8 5.3 25.3 12.7 38.3 35.7 39.1 69.2 3.4 8.6 13.2 19.4 29.6 32.4 16.4 9.7 20.8 21.4 13.4 35.2l-3.6 6.6zm-75.3-92.1c-3 5.2-6.9 6.9-11.7 5-7.1-2.2-10.1-6.9-8.9-14 2.2-6 7.1-8 14.5-6.1 7 4.5 9 9.5 6.1 15.1zm6.7 13.4c2.6 2.2 5.6 2.6 8.9 1.1-.7-5.2-2.4-12.2-5-20.9s-11.7-16.8-27.4-24.3c-24.2-11.9-44.3-1.7-60.3 30.7l83.2 40.8c-4.8-7.4-6-16-3.4-25.7l4-1.7zm5.5 15.6c-.4 11.9 19.7 27.9 60.3 48-1.9-4.8-7.1-10.4-15.6-16.8-19-13.4-30.9-24.9-35.7-34.6l-9 3.4z"/></svg>