<svg xmlns="http://www.w3.org/2000/svg" viewBox="0 0 581.2 555.6"><path d="M80.8 22.4c4.2 4.2 6.4 7.6 6.4 10v2.7c-1.2 7.9-4.5 11.8-10 11.8h-4.5c-4.8-3-7.3-7.6-7.3-13.6l2.7-8.2-18.1 10c3 0 9.1 17 18.2 50.9v4.5c-3.6 12.7-5.5 23.6-5.5 32.7l2.7 29.1h.9c2.4-12.1 11.8-26.9 28.2-44.5C106.6 96.3 117.2 89 126.3 86l3.6.9-32.7 43.6c-9.7 13.9-14.5 25.7-14.5 35.4 6.1 25.4 30.3 54.8 72.7 88.1 40.6 28.5 83.6 52.7 129 72.7 11.5 6.7 53 27.3 124.5 61.8v-.9c-26-35.1-65.4-90.5-118.1-166.2L215.3 125c-18.8-20-33.3-30.6-43.6-31.8-3-1.2-7-12.7-11.8-34.5-8.5 9.1-17.9 14.5-28.2 16.4h-4.5l-30-2.7c0-1.2 9.4-4.2 28.2-9.1 10.9-6.7 16.4-15.7 16.4-27.3v-.9c-16.4-9.1-33.3-13.6-50.9-13.6l-10.1.9zm31.8 237.1c20 70.9 30 120.8 30 149.9l-.9 7.3h.9c6.7 0 18.5 8.8 35.4 26.3 4.8-5.5 10.6-9.7 17.3-12.7-42.4-62.4-66.6-112.3-72.7-149.9-3.6-14-6.9-20.9-10-20.9zm30.9 27.2v.9c6.1 24.2 15.1 47.2 27.3 69l41.8 65.4c14.5 2.4 29.1 9.4 43.6 20.9h.9l-.9-.9v-.9l-1.8-53.6v-25.4c-40-23.6-77-48.7-110.9-75.4zm55.4 16.4v.9c67.8 43.6 114.2 75.1 139 94.5L396 463l68.1 73.6 63.6-10.9v-.9c-30.3-32.1-61.8-66.9-94.5-104.5-1.8 0-68.4-32.7-199.9-98.1l-34.4-19.1zm-44.5 143.5l-24.5 83.6h6.4l2.7-1.8c14.5 1.8 24.2 3.6 29.1 5.5 0-2.4 5.5-4.2 16.4-5.5l20 1.8v-1.8l-4.5-79.9-20 17.3-3.6.9c-3 0-10-6.7-20.9-20h-1.1zm393.4-229.8l-139-153.5 96.3 178.1 42.7-24.6zm-301.6-85.4L382.4 6.9 577.8 224c4.2 7.9 4.5 14.2.9 19.1-5.5 5.5-15.4 2.4-30-9.1 6.7 17 7.3 26.3 1.8 28.2-4.2 3.6-13.6 0-28.2-10.9 4.2 15.1 3 25.1-3.6 30-6.7 1.2-13.3-2.7-20-11.8L392.4 67.8c-2.4-7.3-7.9-12.4-16.4-15.4-7.9 1.8-14.2 5.1-19.1 10l-96.3 90.8c2.4 1.8 8.2 9.4 17.3 22.7 31.5 39.4 71.5 95.1 119.9 167.2L555 453.9l.9 4.5v2.7c0 4.2-3.3 7.3-10 9.1l-16.4-6.4c22.4 15.7 39.4 29.4 50.9 40.9h-2.7c-19.4-8.5-49.4-25.4-89.9-50.9l67.2 71.8.9 5.5c0 7.9-8.8 12.4-26.3 13.6l-71.8 10.9c-1.2 0-33.6-34.5-97.2-103.6-29.1-33.9-50.3-54.2-63.6-60.9l-24.5-15.4v1.8c0 28.5 2.1 60 6.4 94.5v.9c-2.4 4.2-5.5 6.4-9.1 6.4-3 0-11.5-7.9-25.4-23.6l-20-10v.9l4.5 83.6h26.3c13.3 0 20-.6 20-1.8 19.4 4.2 32.4 10.9 39.1 20v.9l-13.6-1.8-14.5 1.8-27.3-1.8-92.7 2.7-66.3-1.8-5.5-.9-8.2.9H71.8l-7.3-1.8h-7.3l-35.4 1.8-11.8-1c-2.4 0-5.8 1.5-10 4.5v-3.6c0-9.7 12.1-17.6 36.3-23.6l16.4.9 40.9-.9 12.7.9 27.3-93.6c-7.3-1.2-10.9-4.2-10.9-9.1l.9-12.7c0-33.3-13-94.5-39.1-183.5-26.6-32.1-40-66-40-101.7v-.9c0-12.7 1.8-24.2 5.5-34.5-6.1-25.4-11.5-38.2-16.4-38.2l-7.3-.9-11.8.9-.9-.9v-.9c0-7.9 7-17.3 20.9-28.2 7.9-4.8 13.3-7.6 16.4-8.2C67.9 3.5 86.6-.9 107.2 0c20.6.9 37.2 9.2 50 25 6.7 3.6 13.6 13.3 20.9 29.1 4.2 17 7.3 25.4 9.1 25.4 16.3 4.9 36 22.2 59 51.9z"/></svg>