<svg xmlns="http://www.w3.org/2000/svg" viewBox="-10 0 1030 1014"><path d="M505 1014q-143 0-243.5-36T95 880.5Q29 819-10 745h204q17-23 62-27l73-5 11-71q0-5 .5-10t.5-10q0-44-15-92t-29-89l-7-21q-10-13-19.5-25.5T252 370q-20-27-43.5-62T185 235v-63q0-11-3.5-26.5T157 130q-14 0-20 6t-8 10h-20v-19q0-30 13-44t26-23l22-21q4-8 25-23.5T267 0q42 0 68 14.5T378 53q17 24 32 55 5 3 22 12t30 16q28 27 61 67.5t65.5 84Q621 331 648 367l10.5 12.5 27 32.5q27 32.5 33.5 40.5t30.5 36q24 28 18.5 19.5 7 5 26.5 23t44 41q24.5 23 45.5 43l-24 25q-18-12-38-23.5T774 588l63 93-101 64h284q-39 74-105 135.5T748.5 978Q648 1014 505 1014zM375 745h154v-13q-14-1-32.5-2.5T466 728V628q14 3 30.5 10.5T524 652V515q33 0 57 16t38.5 36q14.5 20 21.5 34l75 134q26-16 47.5-29.5T812 675q-6-9-18.5-27.5t-27-40Q752 586 740 568q-48-28-105.5-59.5t-117-63Q458 414 404 386.5T309 338q-14-7-36-22.5t-39-38Q217 255 217 227q0-20 17-39.5t47.5-33Q312 141 352 138l1 17q-52 3-85 26.5T236 227q0 21 14.5 40t34.5 34.5q20 15.5 36 23.5 51 26 111 56.5t122 63Q616 477 673 509t104 59.5q47 27.5 77 48.5l5-6q-6-6-21-19t-32.5-28q-17.5-15-32-27T753 520q-6-5-26.5-29.5t-47-56Q653 403 631 375q-26-35-58-78t-65-82.5Q475 175 446 148q-3-1-20-10.5T394 120q-14-29-28.5-52T328 32.5Q305 20 267 20q-34 0-50.5 5.5t-22 11.5q-5.5 6-6.5 8l-26 25q-10 8-20 18.5T129 118q3-5 15.5-17T174 89q9 0 16.5 4t12.5 9q9 2 9-4v-6q-8 0-14-5.5T192 72q0-7 6-13.5t15-6.5h37q23 0 39 14.5t16 36.5q0 15-10.5 26.5t-23 19.5q-12.5 8-20.5 12-3 2-8.5 1.5T236 156h-7v11h-14q0-8-4-23.5t-13.5-28Q188 103 170 103q-6 0-11.5 3t-9.5 7q2 0 4-.5t4-.5q28 0 37.5 20t9.5 40v63q0 22 11.5 45.5t27.5 46q16 22.5 31 42.5 24 30 52.5 63.5T378 490q41 44 56 84t13 68l-5 86q-13 0-33 1.5t-34 2.5zM212 81q10 0 10-9t-10-9q-8 0-8 9t8 9zm14 59q0-2-.5-5t-.5-4q0-9 5.5-16t15.5-7q11 0 16.5 8t5.5 13q0 4-2 8 7-6 15-15t8-19q0-16-12.5-27.5T245 64h-13q1 2 1.5 4t.5 6q0 10-9 16 4 7 2 14-1 4-5.5 6t-8.5 3q4 6 8 13t5 14zm20 6q9 0 9-13 0-4-2-8t-7-4q-10 0-10 12 0 6 3.5 9.5t6.5 3.5zm103 567l23-1 17-93q8 2 18.5 5.5T426 633v-9q1-15-11.5-48.5T362 500q-8-10-18.5-21.5T323 455q14 38 26 81t12 86q0 5-.5 10.5T359 644zm239 32h110l-75-138q-6-11-18-27t-28-28q-16-12-33-12v148q-13-10-30.5-21.5T485 653v56q14 0 33.5 2t30.5 6q15 4 24 12t15 16zm-196-34l32-2 3-52q-4-3-10-6t-13-5q-2 9-6 29t-6 36zm-104 34h5q6-9 18-15l-23 2zm-37 0h24v-11q-15 0-24 11zm57 0h15q5-6 11-11-10 0-16 3.5t-10 7.5zm34 0h20v-11q-7 0-12 3.5t-8 7.5zm-124 0h14q5-6 11-11-9 0-15 3.5t-10 7.5zm324 0h20q-5-4-10-6t-9-4h-1zm-37 250q126 0 218-30.5t155.5-83Q942 829 982 765H28q40 64 103.5 116.5t155.5 83Q379 995 505 995z" fill="currentColor"/></svg>