<svg xmlns="http://www.w3.org/2000/svg" viewBox="0 0 539.6 600.5"><path d="M179.7 0c-2.7 0-5.4.1-8.1.3-23.1 1.5-40.5 10.9-47 25.6-1.5 3.4-.9 7.4 1.5 10.3 2.4 2.9 6.2 4.2 9.9 3.3 1.2-.3.4-.3 1.8.1.7.2 2 .5 3.6 1 1.8 5.6 3.2 9 4 11.1.9 2.4 1.2 3.3 1.4 6.7-5.2 18.4-3.2 36.9-1.2 46.3 3.2 15.6 12.8 32.6 25.4 48.7 0 1.2.1 2.4.5 3.6 6.1 18.7 13.2 44 18.3 67.6 5.1 23.6 7.8 46.3 6.4 56.2-.7 5 2.5 9.8 7.4 11 .2.1.4.1.6.2l-17.6 58.3c-14.1-2.1-29.4 2.3-38.5.2-5.4-1.2-23.6 3.1-28.5 12H82.9c-2.1-26.6-16.1-41.2-42.1-43.9C14.5 321.3.9 336 0 362.6v19.1h17.7l18.2 33.7h58.9l17.7-33.7h52.3L245 498.2v102.4h19.1v-219h150.7V368l3.3 3.6c2.3 2.5 5.6 3.6 8.9 3.1 19.4-3.2 38.7-6.5 58.1-9.7 3.6-.6 6.5-3.1 7.7-6.5 1.2-3.4.4-7.2-2-9.9-7.2-8.1-14.6-16-21.9-23.9l55.3 36c4.6 3 10.7 1.7 13.7-2.9s1.7-10.7-2.9-13.7l-44.9-29.2c.9-.8 1.9-1.7 2.5-3 1.6-3.1 1.2-6.2.7-7.9-.5-1.6-1.1-2.4-1.6-3.1-1.8-2.5-2.8-3-4.1-4-1.3-1-2.8-2-4.4-3.1-3.2-2.2-6.9-4.6-10-6.7-3.2-2.1-6.1-4.3-6.2-4.4-.3-.3-.6-.5-1-.8-26.4-18.6-52.9-37.2-79.4-55.8-.1-.1-.2-.1-.3-.2-26.9-37.7-52.3-77.2-82-113.9C290 94 273.2 61 244 48.7c-1.6-8.7-5.2-22.7-16.1-33.3C215.9 3.8 198.5-.1 179.7 0zm.7 19.9c9 .1 16.8 1.4 23.1 3.6-1 7.5-5.6 19-31.8 25.8 24.3-1.8 40.2-3.8 48.4-10.2 3 6.7 4.6 14.2 5.3 18.6.6 3.7 3.3 6.8 6.9 7.9 20.8 6.4 39.2 37.1 56.7 58.8 31.7 39.1 59.1 82.7 89.7 124.5-14.1-6.9-28.2-13.9-42.4-20.8-39.4-20.7-79.9-37-113.6-62.6-19.6-16.4-39.1-33.2-46.4-54.8-2.5-16.6 9.9-35.8 25.6-42.7 4.3-1.8 6.8-6.3 5.9-10.9-.8-4.6-4.7-8-9.3-8.2-1.6-.1-3.1.2-4.5.9-12.6 5.5-23.3 15.3-30.2 27.3.3-5.1 1.1-10.3 2.5-15 .3-1.1.5-2.3.4-3.5-.3-6.2-1.4-10.4-2.7-14.1-1.4-3.6-2.8-6.9-5.3-15.3-.6-2-1.8-3.8-3.5-5.1 4.7-2.1 10.5-3.7 17.6-4.2 1.4-.1 2.8-.1 4.2-.1-3.9.9-6.7 4.3-6.7 8.4 0 4.8 3.9 8.6 8.6 8.6 4.8 0 8.6-3.9 8.6-8.6 0-4.1-3.1-7.6-7.1-8.3zm39.8 181.2c20.2 15.5 41.8 29.1 63 42.7-.2 14.6.2 29.3 1.6 44.1-6.9-4.5-14.5-7.9-23.3-10-13-21.2-27.4-40.7-36.1-61.4-1.8-4.4-3.5-9.7-5.2-15.4zm-8.3 33.4c9.1 18.3 20.7 34.7 31 51-2 1.3-3.7 2.7-5.2 4.1-.4.3-.6.6-.9.9-5.6-6.5-12.5-11.7-20.5-15.2.4-11.6-1.5-25.6-4.4-40.8zm96.1 1.6c6.5 3.2 13 6.5 19.3 9.8.1 0 .2.1.3.1 26 12.7 52 25.7 78.4 38.3 18.6 22.4 38.6 43.1 57.9 64.1-11.6 1.9-23.2 3.9-34.8 5.8l-85.5-93c-.4-.4-.8-.8-1.3-1.2-11.2-8.4-22.7-16.3-34.3-23.9zm-5 20.6c9.1 6.1 18.1 12.2 26.6 18.7 26.7 29.1 53.4 58.1 80.2 87.2h-81.9c-7.3-8.1-24.3-15.5-32.3-10.7-7-.6-14.9-.3-23 .2l-2.8-50.2c7.5 3.8 13.6 9.4 20.9 18.1 2.9 3.4 7.8 4.5 11.8 2.6 4.1-1.9 6.3-6.3 5.5-10.8-3.4-18.2-4.7-36.5-5-55.1zm-81.5 46.4c1.9 2.2 3.7 4.7 5.4 7.4 1.4 2.4 3.8 4 6.5 4.6 2.7.6 5.5-.1 7.8-1.7 4.2-3 6.7-5.9 8.9-8.1l2.6 47.1c-9.2-.6-18.7-1.3-23.1 3.2-4.2-3.2-12.6-3.5-22.9-3.2l14.8-49.3zM40.8 336.4c15.1 2.1 22.9 10.8 23.5 26.1H17.7c0-15.3 7.7-24 23.1-26.1zm-4.9 45.2h58.9L86 397.1H44.3l-8.4-15.5zm152 0h57.6v83.8l-57.6-83.8z"/></svg>