<svg xmlns="http://www.w3.org/2000/svg" viewBox="-10 0 837 1017"><path d="M547 1017V875L322 692h-99l-15 63H89l-13-56q-17-5-37-18T4.5 646.5Q-10 625-10 596q0-43 19-57.5T47 524q21 0 36.5 15T99 577q0 11-4 20t-8 16q-8 11-8 18 0 13 11.5 23t21.5 10h26q15-20 56-24l63-4 10-64q0-4 .5-9t.5-9q0-39-13-81.5T229 393l-7-19q-8-11-16.5-22.5T189 330q-19-24-40-55.5T128 210v-57q0-11-2-24t-20-13q-13 0-18.5 5t-6.5 9H63v-17q0-27 12-39.5T97 52l20-18q4-8 22.5-21T204 0q56 0 82.5 27.5T333 96q4 3 19 10.5t27 14.5q25 24 55 60t59 74.5q29 38.5 52 71.5l9.5 11.5 24 28.5q24 28.5 30 35.5t28 32q22 25 16.5 17.5 6 4 23.5 20.5t39 37Q737 530 756 548l-23 22q-16-10-34-20t-43-25l56 82-90 57h205v28H574v325zM299 664h139v-11q-13-1-29.5-2.5T381 649v-91q13 3 28 9.5t24 11.5V459q30 0 51 14t34 32.5q13 18.5 20 29.5l67 120 85-53-64-96q-43-25-94.5-53T427 397q-53-28-101-53t-85-43q-13-6-32.5-20T174 246.5Q159 226 159 202q-1-27 33-51.5t87-27.5l1 16q-46 3-74.5 23T178 202q0 18 12.5 35t29.5 30q17 13 32 20 57 29 126 64.5T514.5 424q67.5 37 124 69.5T728 549l4-4q-6-6-19.5-17.5t-29-25Q668 489 655 478t-18-15q-6-5-24-26t-41.5-49.5Q548 359 528 334q-23-32-51.5-70t-58-73.5Q389 155 364 131q-3-1-18-9t-29-16q-12-26-25.5-46T258 29q-20-11-54-11-31 0-46 4.5t-20 10q-5 5.5-5 7.5l-23 22q-8 8-17.5 17T81 105q3-5 14-15.5T121 79q8 0 14.5 3.5T147 90q2 1 5 .5t3-3.5q0-4-1-5-7 0-12-5t-5-13q0-7 5.5-12.5T156 46h33q20 0 34 13t14 32q0 13-9 23.5T207.5 132q-11.5 7-18.5 11-2 1-7 1t-6-5h-6v9h-12q0-7-3.5-20.5t-12.5-25Q133 91 117 91q-6 0-10.5 3t-7.5 6h7q25 0 33.5 17.5T148 153v57q0 29 22 60.5t41 57.5q22 27 46.5 56t44.5 50q37 40 50.5 76.5T364 572l-4 77q-12 0-30 1.5t-31 2.5zM155 72q8 0 8-8t-8-8q-8 0-8 8t8 8zm12 52q0-2-.5-4t-.5-3q0-21 19-21 10 0 14.5 7t4.5 12q0 5-2 7 7-5 14-13t7-18q0-14-11-24t-28-10h-12q2 4 2 8 0 9-8 15 5 5 2 12-2 6-13 8 4 5 7 11.5t5 12.5zm18 6q8 0 8-12 0-4-2-7.5t-6-3.5q-9 0-9 11 0 12 9 12zm91 506l21-1 15-84q7 1 16.5 5t16.5 9l1-9q1-14-10.5-43.5T289 445q-8-8-17-18.5T254 405q12 35 22.5 73t10.5 76v10l-1 10zm214 28h98l-66-123q-6-10-17-24t-24.5-25Q467 481 451 481v133q-11-9-26.5-19.5T399 582v49q12 1 29 3t28 5q13 4 21 11t13 14zM90 680v-4q-11-4-21-16t-10-29q0-8 3-15t8-14q3-5 6.5-11.5T80 577q0-15-9.5-24T47 544q-13 0-25.5 10.5T9 596q0 24 13.5 41.5t32.5 28Q74 676 90 680zm225-46l29-3 2-45q-4-3-8.5-5.5T326 576q-2 7-5.5 25.5T315 634zm-92 30h4q5-8 16-14l-20 3zm-33 0h21v-10q-14 0-21 10zm-30 0h12l5-5 5-5q-8 0-13.5 3t-8.5 7zm80 0h14q1-2 3.5-5t5.5-5q-8 0-13.5 3t-9.5 7zm31 0h17v-10q-12 0-17 10zm178 0h17q-4-4-8-6t-8-3h-1zm-345 71h89l10-43H94zm443 107V692H362z" fill="currentColor"/></svg>