<svg xmlns="http://www.w3.org/2000/svg" viewBox="0 0 590.2 523.9"><path d="M201.5 15c2.8 3.2 4.2 6.6 4.2 10.2-1.6 6-4.8 9-9.6 9-5.6-2-8.4-5.6-8.4-10.8l1.8-5.4-12.5 7.1c9.6 17.5 13.3 33.2 11.1 46.9-2.2 13.8-2.3 28.2-.3 43.4 13.6-25.9 30.5-42.5 50.8-49.6-25.1 30.7-36.4 53.6-33.8 68.8 2.6 15.1 21.8 36.7 57.7 64.6 28.3 20.3 83.5 49.6 165.6 87.9l28.1 13.8v-1.2L351.6 152.5c-37.1-51-64.6-79.1-82.5-84.3l-6.6-23.9c-8.8 11.2-25.3 14.4-49.6 9.6 23.5-5.6 35.3-14.4 35.3-26.3-2-5.6-6.9-9.5-14.7-11.7-7.8-2.2-18.5-2.5-32-.9zm23.9 185.9c15.1 50.6 22.7 91.1 22.7 121.4 11.6 7.2 20.9 14.6 28.1 22.1l13.2-10.2c-30.7-53.4-48.4-89-53.2-106.7-4.8-17.7-8.4-26.6-10.8-26.6zm23.9 21.6c6 27.1 23.7 61.8 53.2 104.1 9.2 2 20.7 8 34.7 17.9v-62.2l-87.9-59.8zm46.7 14.3c49.8 32.3 84.1 55.8 102.9 70.6l103.5 105.2c22.7 2.8 38.3 1 46.6-5.4l-76.5-82.5c-52.7-24.7-111.6-54-176.5-87.9zm242.2 127.4l-6 2.4 9 9.6 6-6.6-9-5.4zm-143.6-40.7c-6-6.4-20.3-16.7-43.1-31.1 0 22.3 1.4 47.6 4.2 75.9-.8 6-4.2 7.4-10.2 4.2-13.6-15.1-24.3-23.9-32.3-26.3l3 71.2c17.1-.4 32.3-3.2 45.4-8.4 15.5 0 23.3 5.4 23.3 16.1l13.2-4.2c27.5-10 47.8-18.1 61-24.5l-64.5-72.9zm82 91.5c-32.3 18.3-66.6 32.3-102.9 41.9-56.6 14.4-113.2 14.3-169.8-.3-56.6-14.6-114.6-43.8-174-87.6 51.8 54.2 107.9 91.5 168.3 111.8 60.4 20.3 115.6 22.4 165.6 6.3 50-16.1 91-36.4 122.9-60.7L476.6 415zm92.7-41.8c7.6 6 14.6 12.6 20.9 19.7-2 0-10.2-4-24.5-12l-9 12 18.5 19.7c-13.6 15.5-33.3 22.5-59.2 20.9-76.1 60.2-151.9 90.3-227.2 90.3-65 0-124.5-18.1-178.5-54.4S22.7 402 9.5 376.1c-12-19.9-12.7-32.5-2.1-37.7 10.6-5.2 21.2-1.8 32 10.2 20.4 22 58.6 43.1 114.8 63.4 10-4.4 20.9-4.9 32.9-1.5 12 3.4 22.9 3.3 32.9-.3l21.5-73.6c-5.6 0-8.4-3.6-8.4-10.8.8-29.5-3.6-61.8-13.2-96.9-9.6-35.1-18.8-58.5-27.8-70.3-9-11.8-15-25.4-18.2-41-3.2-15.5-2.6-32.5 1.8-50.8-4-19.5-9-29.3-14.9-29.3h-13.2c0-12.4 7.6-21.7 22.7-28.1 15.2-6.2 29-9.4 41.3-9.4 33.1-.4 54.4 11.8 64 36.5l7.2 22.7c19.1 7.6 43.7 33.7 73.6 78.3 29.1 36.7 59.6 78.7 91.5 126.2l103.5 74.2c7.2-4 14.1-4 20.6 0 6.6 4 8.1 10.2 4.5 18.5 9.2 9.6 8 13-3.6 10.2l-3.6 6.6zm-311.6-25.8l-17.9 65.2c17.1 5.6 30.7 6.2 40.7 1.8l16.7 3-3.6-67.6c-9.6 5.6-16.3 11.2-20.3 16.7l-15.6-19.1z"/></svg>