<svg xmlns="http://www.w3.org/2000/svg" viewBox="-10 0 1135 1013"><path d="M522 1013q-138 0-238.5-35.5T118 879q-65-63-96.5-146T-10 556v-25h38q31 143 105 221.5T338 859q20-12 56-15l83-6 13-84q1-5 1-11.5V730q0-51-17-107.5T441 518l-10-25-45-57q-16-21-34-47t-31-55q-13-29-13-58v-75q0-8-2.5-21T295 157q-8-10-24-10t-24 7q-8 7-9 12h-18v-17q0-34 15.5-51T266 70l26-26q3-6 13-16.5t32.5-19Q360 0 400 0q51 0 81 16.5T530 62q19 29 36 65 6 3 25.5 13.5T627 159q34 32 73 79.5t77 98.5q38 51 69 93 0 1 13.5 17.5t34 40.5q20.5 24 42.5 48.5t39 43q17 18.5 23 22.5 5-17 9-34t8-37h40v25q0 24-2 47.5t-6 45.5q21 20 43 40.5t35 32.5l-24 30q-15-10-32.5-20.5T1031 708l-4 12-4 11 45 67-148 95-3-6q-65 58-163.5 92T522 1013zm6-138h26q42-1 80-4.5t71-11.5q-16-2-37-3t-34-1V744q17 4 37.5 12.5T704 772V605q37 0 64 18.5t44 42.5q17 24 26 40l91 161 115-76-85-123q-57-33-125-70.5T695.5 523Q625 486 560 452.5T446 395q-13-7-31.5-21t-37-32q-18.5-18-31-38.5T334 264q0-23 21.5-46.5t59-39.5q37.5-16 84.5-19v19q-64 4-104.5 30.5T354 264q0 22 19 45.5t43.5 42Q441 370 457 378q51 25 116.5 59t137 72q71.5 38 140 75.5T975 654q31 17 60.5 36t61.5 39l3-5-111-102-14-12q-6-5-21.5-22.5t-37-42.5q-21.5-25-44-52.5T830 440q-30-41-68-91.5T684.5 251Q645 204 613 173q-3-2-23.5-12.5T550 141q-17-35-34-62.5T472 35q-27-16-72-16-39 0-59 7.5t-26.5 16Q308 51 307 54l-30 29q-11 9-23.5 20.5T239 138q3-6 14.5-19.5T285 105q10 0 19 4t16 10q3 2 6.5 1t3.5-6v-6q-10 0-17-6.5T306 84q0-9 7-16.5t19-7.5h37q28 0 46.5 17.5T434 120q0 18-10.5 32T399 175.5q-14 9.5-23 14.5-4 1-10.5.5T358 184h-8v11h-11q-4-24-17.5-49T285 121q-7 0-12.5 2.5T263 130q2 0 4-.5t4-.5q34 0 45 24t11 48v75q0 26 12.5 53t31 53q18.5 26 35.5 48 28 37 61.5 77t59.5 68q33 35 51 68.5t25.5 60Q611 730 610 743l-6 112q-15 0-37.5 1t-38.5 3zM345 164v-10q0-11 7-19.5t18-8.5q13 0 19 9.5t6 16.5q0 6-1 10 9-7 16.5-18t7.5-24q0-19-13.5-32T369 75h-16q2 4 2 9 0 17-13 22 1 3 3 7.5t1 9.5q-1 4-5.5 6t-9.5 4q4 6 8 14.5t6 16.5zm-15-69q10 0 10-11 0-9-10-9t-10 9q0 11 10 11zm40 78q13 0 13-17 0-5-3-10.5t-10-5.5q-14 0-14 16 0 9 5 13t9 4zm127 671l25-1 19-108q24 6 49 18v-11q1-17-15-62t-62-94q-10-11-22-24.5T466 534q17 45 31 96t14 100q0 7-.5 13t-1.5 13zm25 150q131 0 226-33.5T906 868l-32-58q-41 27-86 46t-108 29q-63 10-158 10-58 0-119.5-5.5t-121-24q-59.5-18.5-112-56T76.5 709Q36 646 14 550H9q0 92 30.5 172.5t93 141.5Q195 925 292 959.5T522 994zm505-361q3-20 5-40.5t2-42.5h-5q-4 18-8.5 35t-10.5 33zM742 851q36-10 66.5-24t56.5-34l-44-79q-18-34-41.5-58.5T722 624v185q-15-11-36-24t-34-15v68q19 0 45.5 3t44.5 10zm266-141q2-5 4-13l-21-13zM541 841l43-3 4-66q-3-4-13-9t-19-8q-3 11-7.5 38t-7.5 48zm-116 31h8q4-4 8.5-8t10.5-7l-27 2zm-56-7l4-5q-4 0-14 2zm137 11q2-1 6-1v-13q-7 0-13 4t-10 9q4 1 8.5 1zm-39-1q2-4 5.5-7t6.5-6q-10 0-17 3.5t-11 8.5h8l8 1zm-56-5v-8q-12 0-20 6 4 1 9.5 1.5t10.5.5z" fill="currentColor"/></svg>