<svg xmlns="http://www.w3.org/2000/svg" viewBox="0 0 515.6 594.5"><path d="M176 13.1c2.4 2.8 3.7 5.7 3.7 8.9-1.4 5.2-4.2 7.8-8.4 7.8-4.9-1.7-7.3-4.9-7.3-9.4l1.6-4.7-11 6.3c8.4 15.3 11.6 29 9.7 41-1.9 12-2 24.6-.3 37.9 11.8-22.6 26.6-37.1 44.4-43.4-21.9 26.8-31.8 46.8-29.5 60.1 2.3 13.2 19.1 32 50.4 56.4 24.7 17.8 73 43.4 144.7 76.8l24.6 12v-1l-91.4-128.5c-32.4-44.6-56.4-69.1-72.1-73.7l-5.7-20.9c-7.7 9.8-22.1 12.5-43.4 8.4 20.5-4.9 30.8-12.5 30.8-23-1.7-4.9-6-8.3-12.8-10.2-6.8-2-16.1-2.2-28-.8zm20.9 162.4c13.2 44.2 19.9 79.6 19.9 106.1 10.1 6.3 18.3 12.7 24.6 19.3l11.5-8.9c-26.8-46.7-42.3-77.8-46.5-93.3-4.3-15.4-7.4-23.2-9.5-23.2zm20.9 18.9c5.2 23.7 20.7 54 46.5 90.9 8 1.7 18.1 7 30.3 15.7v-54.3l-76.8-52.3zm40.8 12.5c43.5 28.2 73.5 48.8 89.9 61.6l90.4 91.9c19.9 2.4 33.4.9 40.8-4.7l-66.9-72.1c-46.1-21.5-97.5-47.1-154.2-76.7zm211.6 111.3l-5.2 2.1 7.8 8.4 5.2-5.7-7.8-4.8zm-125.4-35.6c-5.2-5.6-17.8-14.6-37.6-27.2 0 19.5 1.2 41.6 3.7 66.3-.7 5.2-3.7 6.4-8.9 3.7-11.8-13.2-21.2-20.9-28.2-23l2.6 62.2c15-.3 28.2-2.8 39.7-7.3 13.6 0 20.4 4.7 20.4 14.1l11.5-3.7c24-8.7 41.8-15.8 53.3-21.4l-56.5-63.7zm71.5 80c-28.2 16-58.2 28.2-89.9 36.6-49.5 12.5-98.9 12.5-148.4-.3-49.5-12.7-100.1-38.2-152-76.5 45.3 47.4 94.3 79.9 147.1 97.7 52.8 17.8 101 19.6 144.7 5.5 43.7-14.1 79.5-31.8 107.4-53l-8.9-10zm-191.2-59.1l-15.7 56.9c15 4.9 26.8 5.4 35.5 1.6l14.6 2.6-3.1-59c-8.4 4.9-14.3 9.8-17.8 14.6l-13.5-16.7zm95.1 145.3v108.1h45.5v37.6H141.5v-37.6H187V450.3c-28.2-5.2-58.3-18.6-90.4-40.2-47.4-31.7-76.8-58.9-88.3-81.5-10.4-17.4-11.1-28.4-1.8-32.9 9.2-4.5 18.5-1.6 28 8.9 17.8 19.2 51.2 37.6 100.3 55.4 8.7-3.8 18.3-4.3 28.7-1.3 10.4 3 20 2.9 28.7-.3l18.8-64.3c-4.9 0-7.3-3.1-7.3-9.4.7-25.8-3.1-54-11.5-84.6-8.4-30.6-16.5-51.1-24.3-61.4-7.8-10.3-13.1-22.2-15.9-35.8-2.8-13.6-2.3-28.4 1.6-44.4-3.5-17.1-7.8-25.6-13.1-25.6H129c0-10.8 6.6-19 19.9-24.6 13.2-5.6 25.3-8.4 36-8.4 28.9-.3 47.5 10.3 55.9 31.9l6.3 19.9c16.7 6.6 38.1 29.4 64.3 68.4 25.4 32 52.1 68.8 79.9 110.2l90.4 64.8c6.3-3.5 12.3-3.5 18 0 5.7 3.5 7.1 8.9 3.9 16.2 8 8.4 7 11.3-3.1 8.9l-3.1 5.7c6.6 5.2 12.7 11 18.3 17.2-1.7 0-8.9-3.5-21.4-10.4-2.1 2.8-4.7 6.3-7.8 10.4l16.2 17.2c-11.8 13.6-29.1 19.7-51.7 18.3-49.3 38.8-92.8 62.2-130.8 70.2zm-31.3 6.8c-23.3 5.2-46.7 5.4-70 .5v100.8h70V455.6z"/></svg>