<svg xmlns="http://www.w3.org/2000/svg" viewBox="-10 0 867 1022"><path d="M142 1022v-58h127V754q-52-13-101.5-39T78 647.5Q38 606 14 545t-24-144h32q32 113 92 170.5T254 651q13-8 41-11l63-4 9-64q2-10 2-18 0-39-13.5-81.5T329 393l-7-19q-8-11-16.5-22.5T289 330q-18-24-39-55.5T229 210v-57q0-11-2-24t-21-13q-12 0-17.5 5t-7.5 9h-17v-17q0-27 11.5-39.5T198 52l19-18q4-8 22.5-21T304 0q38 0 61.5 12.5t39.5 34Q421 68 434 96q5 3 19.5 10.5T480 121q25 24 54.5 60t59 74.5Q623 294 646 327l9.5 11.5 24 28.5q24 28.5 30 35.5t27.5 32q21.5 25 17 17.5v1q11-25 18-52h32q0 49-9 89 16 15 34 31.5t28 26.5l-24 22q-11-8-23.5-15T782 540l-6 14 36 53-116 72-5-7q-30 26-65 44.5T554 746v218h131v58zm258-355q32 0 63.5-3t60.5-10v-1q-13-1-24.5-2.5T482 649v-91q13 3 28 9.5t24 11.5V459q30 0 51 14t34 32.5q13 18.5 19 29.5l65 118 87-51-63-96q-43-25-94.5-53T528 397q-53-28-101.5-53T341 301q-12-6-31.5-20t-35-34.5Q259 226 259 202q0-27 33.5-51.5T380 123l1 16q-46 3-74.5 23T278 202q1 18 13.5 35t29.5 30q17 13 31 20 37 19 86 44t102 53q53 28 103.5 56t92.5 52q33 20 51 31t26.5 17q8.5 6 14.5 9l4-4q-22-22-47-41t-47-41q-5-5-23.5-26t-42-49.5Q649 359 629 334q-23-32-52-70t-58.5-73.5Q489 155 464 131q-2-1-17.5-9T418 106q-13-26-26-46t-33.5-31Q338 18 304 18q-45 0-57.5 9.5T233 40l-22 22q-9 8-18 17t-11 26q2-5 13-15.5T222 79q7 0 14 3.5t11 7.5q8 2 8-3v-5q-7 0-12.5-5T237 64q0-7 5.5-12.5T256 46h33q20 0 34.5 13T338 91q0 13-9.5 23.5T308 132q-11 7-18 11-2 1-7.5 1t-6.5-5h-5v9h-13q0-7-3.5-20.5t-12.5-25Q233 91 217 91q-5 0-9.5 3t-8.5 6h7q25 0 33.5 17.5T248 153v57q0 29 22.5 60.5T312 328q21 27 46 56t45 50q38 40 51 76.5t11 61.5l-4 77q-13 0-31 1.5l-30 2.5zM255 72q9 0 9-8t-9-8q-7 0-7 8t7 8zm12 52v-7q0-21 19-21 10 0 14.5 7t4.5 12q0 3-2 7 7-5 13.5-13t6.5-18q0-14-11-24t-27-10h-12q2 4 2 8 0 9-8 15l2.5 5-.5 7q-3 6-13 8 3 5 6 11.5t5 12.5zm19 6q8 0 8-12 0-4-2-7.5t-6-3.5q-9 0-9 11 0 12 9 12zm91 506l21-1 15-84q8 1 17 5t16 9v-9q1-14-10-43.5T389 445q-17-18-34-40 11 35 22 73t11 76v10l-1 10zm402-161q4-22 6-49-4 11-7.5 21t-7.5 20zM397 751q44 0 94.5-9.5t100-31.5q49.5-22 89.5-58l-19-36q-53 40-120 55t-145 15q-91 0-167-22T97.5 585.5Q41 529 9 426q4 74 31 129t68.5 92.5q41.5 37.5 91 60.5T300 741q51 10 97 10zm160-105q26-9 49.5-20.5T651 597l-29-56q-5-10-16-24t-25-25q-14-11-30-11v133q-11-9-26.5-19.5T499 582v49q8 1 20 3t23 5q10 3 15 7zm205-113l2-4-8-4zM416 634l28-3 3-45q-4-3-9-5.5t-12-4.5q-1 7-4.5 25.5T416 634zm-88 30q5-7 15-14l-20 3v10q3 0 5 1zm-17-2v-8q-9 0-16 5zm-31-6l3-2q-2 0-4 .5t-4 .5q1 1 5 1zm73 10q2-3 5-6.5t6-5.5q-7 0-13.5 3.5T340 665zm36 1v-13q-7 0-11 4t-6 8q4 1 8.5 1zM288 964h247V752q-37 10-71.5 14t-66.5 4q-25 0-52.5-2.5T288 759zm-127 39h504v-19H161z" fill="currentColor"/></svg>