<svg xmlns="http://www.w3.org/2000/svg" viewBox="-10 0 693 1027"><path d="M17 1027V715q0-32 13.5-46.5T73 651q8-11 17-17t31-8l63-4 9-59q1-5 1.5-9t.5-9q0-39-13.5-82T155 383l-6-18q-9-11-17.5-22.5T115 320q-18-23-39-50t-21-60v-57q0-10-2-23.5T32 116q-12 0-17.5 5.5T7 130h-17v-17q0-26 11.5-38.5T24 53l20-19q3-7 21.5-20.5T130 0q38 0 61.5 13T231 48q16 22 29 49 5 2 19.5 9.5T306 121q25 25 54.5 58.5t59 69.5q29.5 36 52.5 68 20 25 43 52.5t41.5 48Q575 438 580 443t22.5 21q17.5 16 39.5 36.5t41 38.5l-24 22q-16-11-33.5-21T583 515l55 78-89 57h44q42 0 60.5 13.5T672 715v312h-70V759q0-26-9-36t-17-10q-11 0-21.5 8.5T531 741l-18 16 5 4q3 3 14.5 13.5t21.5 25q10 14.5 10 30.5 0 8-7 16.5t-18 8.5q-16 0-27.5-16t-18-34.5Q487 786 486 781l-1-3q-4 3-9 6l-10 6 3 2q3 2 12.5 13t17.5 26q8 15 8 30 0 10-6 18.5t-19 8.5q-15 0-25.5-17.5t-16-37Q435 814 435 809v-3l-19 8h1q4 4 15.5 23.5T444 882q0 12-6.5 20.5T418 911q-11 0-20-12t-13.5-29.5Q380 852 380 838v-7.5l1-5.5v-3q-4 1-8 1.5t-9 .5q3 7 6 18.5t3 28.5q0 20-6.5 32.5T345 916q-15 0-22-12.5t-7-32.5q0-17 3.5-28.5T325 824q-4 0-8-.5t-8-1.5v3q1 2 1 5.5v7.5q0 14-4.5 31.5T292 899q-9 12-20 12-13 0-19.5-8.5T246 882q0-25 11.5-44.5T274 814l-10-4-9-4v3q0 5-5.5 24.5t-16 37Q223 888 208 888q-13 0-19-8.5t-6-18.5q0-15 8-30t17.5-26q9.5-11 12.5-13l2-1-19-13v3q-1 5-7.5 23.5t-18 34.5Q167 855 151 855q-11 0-17.5-8.5T127 830q0-16 10-30.5t21-25q11-10.5 14-13.5l5-4q-5-4-9.5-8t-9.5-8q-12-11-22.5-19.5T113 713q-8 0-16.5 10T88 759v268zm209-377h138v-11q-13-2-29-3t-27-1v-87q13 3 28 10t24 12V449q30 0 51 14.5t33.5 32.5q12.5 18 19.5 30l67 115 85-54-63-90q-43-25-94.5-53T354 388q-53-28-101-53t-85-43q-13-6-32.5-18T101 244q-15-18-15-42-1-27 32.5-51t87.5-28l1 17q-46 2-74.5 22T105 202q0 18 12.5 32.5t29.5 25q17 10.5 31 18.5 57 29 126 64.5T440.5 415q67.5 37 124 69.5T654 540l4-5q-6-5-19-16.5t-28.5-25Q595 480 582 469t-18-15q-5-4-23.5-25.5t-42-50Q475 350 455 325q-23-31-52-67t-58.5-69Q315 156 291 132q-3-2-18.5-10T244 107q-13-27-26-46.5T184.5 30Q164 19 130 19q-45 0-57 9T60 41L37 63q-9 7-18 16T8 105q2-5 13-15t27-10q14 0 25 11 9 2 9-4 0-3-1-5-7 0-12-5t-5-12q0-7 5-13t14-6h32q21 0 35 13t14 32q0 13-9.5 23.5t-20.5 18q-11 7.5-18 11.5-2 2-7 1t-6-6h-6v10H85q0-7-3.5-21T69 103q-9-11-25-11-6 0-10.5 3t-8.5 6q2 0 4-.5t3-.5q25 0 33.5 17.5T74 153v57q0 29 22.5 56.5T138 319q22 27 46.5 56t44.5 50q38 40 51 76.5t11 61.5l-4 72q-12 0-30 1t-31 3zM93 124v-7q0-8 5-14.5t14-6.5q10 0 14.5 7t4.5 12q0 5-2 7 7-5 13.5-12.5T149 91q0-14-11-24t-27-10H99q1 2 1.5 3.5t.5 5.5q0 9-8 14l2.5 5-.5 8q-3 6-13 8 8 11 11 23zM82 72q8 0 8-7 0-8-8-8t-8 8q0 7 8 7zm30 58q8 0 8-12 0-3-2-6.5t-6-3.5q-9 0-9 10 0 12 9 12zm91 492l21-1 15-79q17 3 33 13l1-8q1-13-10.5-43T215 436q-8-9-16.5-19.5T181 396q11 34 22 73t11 76v9.5l-1 10.5zm214 28h98l-67-118q-5-10-16-24t-25-25q-14-11-29-11v133q-11-9-27-20t-26-12v44q12 1 29 3t28 5q13 4 21 11t14 14zm-175-30l29-3 2-41q-4-2-8.5-5t-11.5-5q-2 8-5.5 24.5T242 620zm-93 30h4q3-4 7.5-7.5t9.5-6.5l-21 3zm18 0h13q2-2 4.5-5t5.5-5q-9 0-14.5 3t-8.5 7zm-51 0h21v-10q-13 0-21 10zm81 0h18v-10q-11 0-18 10zm-110 0h12l5-5 5-5q-8 0-13.5 3t-8.5 7zm289 0h17q-4-4-8-6t-8-3h-1zM37 1007h31V759q0-38 14.5-51.5T114 694q17 0 30 9t28 23q17 16 41 34.5t56 31.5q32 13 76 13t76-13q32-13 56-31.5t41-34.5q15-14 28-23t30-9q16 0 30.5 13.5T621 759v248h32V715q0-26-14-35.5t-46-9.5H97q-32 0-46 9.5T37 715zm502-170q7 0 7-8 0-9-7.5-20.5t-17-20.5q-9.5-9-14.5-13l-3 1q1 7 6 21.5t13 27q8 12.5 16 12.5zm-388 0q9 0 16.5-12.5t12.5-27q5-14.5 7-21.5l-4-1q-5 4-14.5 13t-17 20.5Q144 820 144 829q0 8 7 8zm332 33q7 0 7-9 0-15-13.5-32T457 805l-4 1q0 6 4 21.5t10.5 29Q474 870 483 870zm-276 0q9 0 15.5-13.5t10.5-29q4-15.5 4-21.5l-4-1q-6 7-19.5 24T200 861q0 9 7 9zm212 23q7 0 7-11 0-17-9-33.5T402 824l-3 1q0 3-.5 6t-.5 6q0 15 5.5 35.5T419 893zm-148 0q10 0 15.5-20.5T292 837v-12l-4-1q-6 8-15 24.5t-9 33.5q0 11 7 11zm74 6q5 0 8-8t3-20q0-14-3.5-25t-5.5-18h-4q-3 7-6 18t-3 25q0 12 2.5 20t8.5 8z" fill="currentColor"/></svg>