<svg xmlns="http://www.w3.org/2000/svg" viewBox="0 0 505.3 604.7"><path d="M81.5 126.7c-19.2.1-39.4 3.9-54.9 16-7.4 6-13.6 14.2-15 23.9 2.9 8.4 13 .5 21.8 5.7 4.8 6.9 8.2 20.4 9.1 28.6-5.4 21.3-5.3 44.1.5 65.3 6.1 20.5 18.2 38.5 31 55.4 12.8 54 35.2 111.9 32.3 168.1.5 4.4 4.3 7.9 8.5 8.8-7.6 25.4-15.3 50.8-22.9 76.2-20.8 1.5-43.9-4.2-64.4.6C16.6 577.8-5 586.8 1 601.5c24.7-7.2 49.1-3.2 73.8-3.1 30.2-.2 60.3 3 90.5 1.7 21.6-.3 43.2-1.4 64.7-1.7 15.3 3 28.7-2.1 43.8 1.6 10.4-12.7-29.1-22.3-38.2-22.9-10.4 2.5-22 1-33 1.4-1.3-22.5-2.5-45-3.8-67.4 12.3 5.9 21.6 16 30.5 26 5.8 4.6 16 .5 16.4-7-3.9-26.1-5.3-51.8-5.3-78.4 13 8.8 26.3 17.2 38.3 27.2 38.2 41.4 76.2 83.1 114.6 124.3 25.2 4.5 91.3.5 87.9-28.8-14.8-16.8-30.3-33.1-45.5-49.5 9.6 2.9 66.3 46.9 69.3 34.5 2.1-8.7-24.3-22.7-32-28.4 13-.1 16.3-12.7 7-20.7-44-31.5-89-61.7-132.8-93.5-36.1-51-71.2-102.8-109.7-152.2-21.6-27.8-40.7-60.5-74-75.4-2.8-16.7-9.3-33.7-22.3-45.1-16.7-14.1-38.4-17.5-59.7-17.4zm40.7 29.2c-.5 21.9-25.1 20-39.1 28.1 14.2 13.8 42.5 7.9 56.1-5.1 2.7 7.2 3.9 15.1 6 22.6 2.7 5.2 9.2 5.5 13.8 8.1 76.1 68.1 129 160 188.7 242.4-89.6-43.9-182-81.8-253.7-153-7.6-9.4-14.2-19.9-17.8-31.4-4.6-28.7 43.8-46 37.7-71.6-23.6 4.8-43.9 28-53.7 49.5-1.6-14.5-.6-29.2 3.2-43.2 1-11.8-4.9-22.6-8.3-33.6-1.4-4.8-2.7-9.8-5.7-13.9 2.2-1.6 4.5-3.2 7-4.6-1.5 7.2 3.6 15.7 11.2 16.2 11.8-.6 15.9-12.9 10.4-22 16.7-.8 30 3.2 44.2 11.5zm8.8 221.5c28.1 22.2 58.6 41.2 88.7 60.6-.4 21-.4 42 1.6 62.9-10.3-7.7-22.3-13.6-34.9-16.1-.9-2.5-2.9-4.5-4.1-6.9-21.6-32.4-41.5-63.2-51.9-101 .3.2.5.3.6.5zm36.5 116c-4.2 2.5-7.9 5.7-11.4 9.1-7.6-9.3-17.5-16.9-28.7-21.4.7-25.9-4.8-51.4-10.1-76.7 12 32.1 31.9 60.3 50.2 89zm209.1-4.2c24.6 29.7 51.3 57.5 77.3 85.9-16.8 2.8-33.6 5.7-50.4 8.5L291.3 461.8c-25.3-19.2-52.1-36.3-78.7-53.5 54.6 27.1 109.1 54.4 164 80.9zm-238.8 23.7c4 4.1 6.7 9.4 10.7 13.6 10.6 6 18-5 24.8-11.6 1.2 21.1 2.3 42.3 3.5 63.4-20 1-38.6.1-58.7-.5 6.5-21.6 13.1-43.3 19.7-64.9z"/><path d="M80.6 0C50.9-.2 22.9 20.4 13.5 48.4c-8.6 24-3 52.4 14.3 71.2 18 20.6 48.2 28.9 74.2 20.9 29.5-8.4 51.8-37.3 51.5-68.1.5-28.7-18.3-56.4-44.9-67-8.8-3.7-18.4-5.7-28-5.4zm1.5 19c28.7-.9 55.4 24.5 55 53.4.6 24.9-19.3 47.7-43.6 52-21.2 4.2-45.1-4.2-57-22.7-11.2-16.6-11.8-39.7-.9-56.6 9.7-16 27.7-26.4 46.5-26.1z"/></svg>