<svg xmlns="http://www.w3.org/2000/svg" viewBox="-10 0 842 1024"><path d="M74 1024q5-25 22.5-40.5T154 965l75-8 12-74q2-12 2-22 0-48-16.5-100.5T194 664l-7-23q-22-29-42-54-15-20-32-44t-29-50q-12-26-12-53v-70q0-8-1.5-19.5t-8.5-20q-7-8.5-22-8.5t-22 7q-7 7-9 12h-19v-20q0-32 14.5-47.5T33 247l23-23q3-6 16-18t41-19q-22-13-35-36t-13-51q0-41 29-70.5T165 0q41 0 70.5 29.5T265 100q0 29-14.5 52.5T212 189q41 12 62 42.5t40 68.5q5 3 23 12.5t33 17.5q31 30 67 74t71.5 91q35.5 47 63.5 87l12 14 29.5 35.5q29.5 35.5 37 44T685 715q27 31 20 21 7 6 28.5 26t48.5 45q27 25 50 47l-25 27q-20-13-45.5-29.5T706 818l71 105-141 89-91-166q-6-12-18-30t-28.5-33Q482 768 461 764v170q-14-10-34-22t-31-13v59q16 0 37.5 2t34.5 6q20 7 33.5 25.5T517 1024q-22-13-55-13H262q-32 0-55 13 0-3 1-6t3-6q-11 1-19.5 4t-19.5 8q1-3 2-6.5t2-6.5h-12q-19 0-31 2.5t-26 10.5q1-3 1.5-6t2.5-6q-10 1-18.5 4t-18.5 8zm91-843q34 0 57-23.5t23-57.5q0-34-23-57t-57-23q-34 0-57.5 23T84 100q0 34 23.5 57.5T165 181zm113 814h168v-14q-15-1-36-2.5t-34-1.5V870q16 3 35 11.5t30 15.5V741q32 0 56.5 18t41 41q16.5 23 24.5 37l81 147 104-67-77-118q-52-30-114.5-64.5t-127-68.5Q365 632 306 602t-104-53q-16-9-40.5-28.5t-43.5-44Q99 452 99 428q0-22 19.5-43t54-36.5Q207 333 250 330l1 19q-60 5-96.5 29.5T118 428q0 20 17.5 42t40.5 39.5q23 17.5 37 25.5 57 29 123.5 63t135 70.5Q540 705 604 740.5T719.5 807q51.5 31 83.5 53l4-5q-7-6-23.5-21.5t-35.5-33q-19-17.5-35-32T691 749q-8-6-30.5-32t-51-60.5Q581 622 557 592q-28-38-63-85t-71-91q-36-44-67-73-3-1-22-11t-36-19q-15-32-31-57.5t-41-40Q201 201 160 201q-37 0-55 7t-24 14.5q-6 7.5-7 10.5l-28 27q-11 8-22.5 19T9 311q4-5 14.5-18T53 280q10 0 18 4t15 10q2 1 5.5 0t3.5-5v-5q-9 0-16.5-6.5T71 261q0-8 7-16t18-8h34q30 0 46 17t16 40q0 17-10 29.5T159 345q-13 9-22 14-4 1-9.5.5T121 353h-8v10h-10q-4-22-16.5-45T53 295q-10 0-20 8 2 0 4-.5t3-.5q31 0 41.5 22.5T92 370v70q0 35 24.5 73t48.5 69q26 34 57.5 71t56.5 63q45 49 61 94t15 63l-5 104q-14 0-35.5 1.5T278 981zM95 271q9 0 9-10 0-9-9-9t-9 9q0 10 9 10zm14 64q0-1-.5-4t-.5-5q0-10 6.5-19.5T131 297q12 0 19 9t7 16q0 3-2 9 9-7 15-15.5t6-21.5q0-17-13-29t-33-12h-14q2 4 2 8 0 15-10 20 3 5 3 10 0 12-15 14 9 16 13 30zm22 6q4 0 8-2.5t4-10.5q0-4-2.5-9t-9.5-5q-11 0-11 14 0 7 4 10t7 3zm117 620l25-1 19-98q9 2 21 7t22 10l1-10q1-17-14-56t-58-85q-10-11-21-23.5T221 678q15 42 28 89.5t13 93.5q0 6-.5 12t-1.5 12zm45-1l37-2 4-59q-4-2-11.5-6t-15.5-6q-2 9-6.5 32t-7.5 41zm-110 35h5q4-5 8.5-9t10.5-8l-24 3zm56 5q4-2 10.5-3.5T263 995v-12q-16 0-24 17zm-37 0q3-1 8-2l10-2q6-7 13-13-13 0-20 5.5t-11 11.5zm-62 0q5-2 13-3.5t15-1.5v-12q-19 0-28 17zm-37 0q8-2 18-4 3-4 6-7l6-6q-11 0-18.5 5.5T103 1000zm382 0q-5-7-11.5-10.5T462 984h-2v11l14 2 11 3z" fill="currentColor"/></svg>