<svg xmlns="http://www.w3.org/2000/svg" viewBox="-10 0 773 864"><path d="M247 864q2-66 26-118.5t60-100q36-47.5 74-99.5 26-36 48.5-69.5t35.5-60q13-26.5 13-40.5 0-28-28-44.5T400.5 307Q353 299 296 296h-13l-197-8q-17-1-33 6t-25 14h-38q5-54 27-85t58-46.5q36-15.5 81-25.5 41-7 77.5-11t52.5-6q1-2 19-22t51-46.5q33-26.5 77-46T531 0q73 0 125 28.5t79.5 75Q763 150 763 205q0 48-13 102.5t-33 112Q697 477 676 534q-21 54-39.5 108.5t-30.5 104Q594 796 594 837v9.5l1 17.5zm24-20h303v-7q0-65 25.5-145.5T657 527q32-85 59-169t27-153q0-49-25-91.5t-72.5-68Q598 20 531 20q-45 0-83.5 16T379 74q-30 22-48 40t-21 23q4 11 6 32t2 40q0 17-3 38t-7 31q65 4 113.5 13.5t75.5 29q27 19.5 27 55.5 0 25-29 75t-70 105q-22 31-48.5 65.5T326 693q-24 37-39.5 75T271 844zm197-662q-13 0-22.5-9t-9.5-23q0-14 9.5-23t22.5-9q13 0 22.5 9t9.5 23q0 14-9.5 23t-22.5 9zM14 272q12-22 43-39t90-17h151v-7q0-13-2-28.5t-4-27.5q-13 1-49 4.5T160 171q-55 12-94 32t-52 69zm13 13q9-5 24.5-11t35.5-5l202 8q2-9 4-20t3-21H147q-57 0-84.5 16T27 285z" fill="currentColor"/></svg>