<svg xmlns="http://www.w3.org/2000/svg" viewBox="0 0 331.2 373.1"><path d="M269.1 373.1H120.9c-3.2-58.2 7.6-101.6 32.4-130.1 24.8-28.6 42.3-48.2 52.5-58.9 10.1-10.7 14.9-21.9 14.4-33.6-28.3-14.4-64.3-21.6-108.1-21.6-29.4 0-63.3 1.9-101.7 5.6-6.9 4.3-10.4-4-10.4-24.8 11.2-14.4 31.1-24.2 59.7-29.2 28.6-5.1 43.6-7.9 45.2-8.4 20.3-14.4 40.6-31 60.9-49.6 24-16.5 54.5-23.9 91.3-22 36.8 1.9 59.7 19.9 68.5 54.1 8.8 34.2 7.3 62.7-4.4 85.7s-27.6 50.1-47.6 81.3c-20.1 30.9-21.6 81.5-4.5 151.5zm-51.3-29.7v-27.2c2.1-47 18.3-92.4 48.4-136.1 30.2-43.8 42-79.3 35.6-106.5-9.6-19.8-19.9-32.2-30.8-37.2-10.9-5.1-25.1-7.6-42.4-7.6-17.4 0-35.1 8.3-53.3 24.8 1.6 19.8-6.9 31-25.6 33.6l-10.4 12c0 6.9 14.5 11.7 43.6 14.4 29.1 2.7 47.2 7.5 54.5 14.4 7.2 6.9 10.8 18.4 10.8 34.4S233.8 200 205 227.3c-28.8 27.2-43.5 66.2-44 116.9 3.7 0 22.7-.2 56.8-.8zM229 69.6c-9.6 0-14.4-5.1-14.4-15.2s4.8-15.2 14.4-15.2c10.1 0 15.2 5.1 15.2 15.2s-5 15.2-15.2 15.2z"/></svg>