<svg xmlns="http://www.w3.org/2000/svg" viewBox="-10 0 1296 884"><path d="M416 884v-48q0-40 7-73t23-65.5q16-32.5 42.5-70T554 541q39-49 74-93.5t57-81q22-36.5 22-61.5 0-27-7-35.5T685 256q-18 4-41 6.5t-43 2.5q-16 0-45.5-4t-61-10q-31.5-6-55.5-10.5t-31-6.5L75 277q-10 3-28 3-20 0-38.5-7.5T-10 243q0-17 16-31t39-23q23-9 45-13l271-57q4-8 16-27.5T411.5 51Q434 30 470 15t87-15q24 0 48 6t46 17q52 21 121.5 42.5t144 36Q991 116 1058 116q45 0 91.5-5.5T1222 100q9-2 21-2t21.5 4.5q9.5 4.5 9.5 17.5 0 14-11 19.5t-23 9.5q-14 5-45.5 10t-68 9q-36.5 4-64.5 4-29 0-63.5-3t-68-8q-33.5-5-57.5-12 54 27 111.5 51t122 38.5Q1171 253 1248 253q16 0 27 6t11 17q0 20-21 27.5t-78 7.5q-60 0-127-19t-134.5-51.5Q858 208 799 170q23 45 23 89 0 43-18.5 90.5t-44.5 93Q733 488 712 523q-17 27-36.5 63.5T638 665q-18 42-29.5 83T597 825q0 9 1 27t2 32zm20-20h143q-1-8-1.5-20t-.5-19q0-47 19-104t46.5-111.5Q670 555 695 513q22-34 46.5-77.5T784 346q18-46 18-87 0-38-20-80t-54.5-78Q693 65 649 42.5T557 20q-44 0-75 12.5t-52 31Q409 82 396.5 100T379 128q10 19 19 42t14 45q11 3 36 8t55.5 10.5q30.5 5.5 57 9T601 246q20 0 44-3t43-9q11 5 24.5 20.5T726 305q0 25-22.5 64.5t-58.5 87Q609 504 570 553q-47 60-76.5 103.5T450 742q-14 42-14 95zm626-712q59 0 107-8t65-13q7-2 13-5t6-7q0-5-12.5-2.5L1223 120q-10 2-55 9t-110 7q-53 0-112-9.5t-117-25Q771 86 721 69l21 20q72 30 151.5 46.5T1062 152zm-597 5q-15 0-25-10.5T430 122q0-15 10-25t25-10q14 0 24.5 10t10.5 25q0 14-10.5 24.5T465 157zm0-16q19 0 19-19t-19-19q-8 0-14 5.5t-6 13.5q0 8 6 13.5t14 5.5zm722 150q46 0 63-3t17-10q0-4-7.5-4.5t-14.5-.5q-83 0-160.5-20.5T929 197q-78-35-163-81 2 2 8.5 9t10.5 13q36 24 83 50.5t101 50q54 23.5 110 38t108 14.5zM10 237l370-60q-3-10-7-19.5t-9-18.5L94 195q-23 5-50.5 16T10 237zm37 23q6 0 12-.5t11-1.5l323-42q-2-4-3-9.5t-3-10.5L19 256q5 2 12.5 3t15.5 1z" fill="currentColor"/></svg>