<svg xmlns="http://www.w3.org/2000/svg" viewBox="0 0 595.3 403"><path d="M587.7 117.8c-13.7 3.6-28.1 5.4-43.2 5.4-25.2 0-58.7-7.6-100.5-22.7-19.4-8.6-40.3-20.2-62.7-34.6-2.9 7.2-5.4 27.4-7.6 60.5-2.2 28.8-8.6 49-19.4 60.5-4.3 13.7-13.9 34.6-28.6 62.7-14.8 28.1-25 50.1-30.8 65.9-8.6 25.2-11.9 50.4-9.7 75.6-6.5 7.9-19.4 11.9-38.9 11.9-26.6-.7-42.1-.7-46.5 0 0-2.9-1.4-5.6-4.3-8.1s-5-4.9-6.5-7c0-33.1 10.8-65.5 32.4-97.2 20.2-25.9 40.7-51.9 61.6-77.8 21.6-30.3 32.4-60.5 32.4-90.8 0-7.2-.7-14.4-2.2-21.6-23.8-7.2-49.3-10.8-76.7-10.8-28.1 0-66.6 4.3-115.6 13-54.7 8.6-94 13.7-117.8 15.1-2.2-1.4-3.2-3.6-3.2-6.5 0-3.6 2.9-9 8.6-16.2 2.2-5 9.7-8.3 22.7-9.7C55 78.9 91.7 69.2 141.4 56.2c18-4.3 34.9-16.9 50.8-37.8C206 6.1 226.5 0 253.9 0c-2.9 0 25.6 2.5 85.3 7.6 12.2 4.3 32.8 10.8 61.6 19.4 47.5 10.8 83.9 16.2 109.1 16.2 23 0 45.7-3.6 68.1-10.8 7.9 2.2 11.9 5.8 11.9 10.8 0 2.9-1.4 6.1-4.3 9.7-7.2 5.8-17.3 9-30.3 9.7-10.8-.7-22-1.1-33.5-1.1-35.3 1.4-76-2.5-122.1-11.9 46.1 33.9 92.6 50.8 139.4 50.8 5.8 0 13.5-1.1 23.2-3.2 9.7-2.2 17.8-2.9 24.3-2.2 5.8 0 8.6 3.6 8.6 10.8.1 4.4-2.4 8.4-7.5 12zm-233.3 28c2.9-22.3 4.3-38.9 4.3-49.7 0-25.2-5.4-43.2-16.2-54-9.4-9.4-18.7-15.1-28.1-17.3-6.5-1.4-20.5-2.9-42.1-4.3-23-.7-42.3 3.2-57.8 11.9S184 55.8 169.6 76.7c10.1-.7 23-2 38.9-3.8 15.8-1.8 27.4-2.7 34.6-2.7 9.4 0 19.4 1.1 30.3 3.2 13 2.2 25.9 4 38.9 5.4 13.7 2.9 20.2 8.3 19.4 16.2 2.2 10.1 3.2 19.4 3.2 28.1 0 25.2-8.3 52.2-24.8 81-10.1 17.3-31.3 47.5-63.7 90.8-23 22.3-33.5 49-31.3 79.9 7.9 7.9 16.6 11.9 25.9 11.9 7.2 0 13.7-3.6 19.4-10.8 7.9-31.7 15.3-57.6 22.1-77.8 6.8-20.2 20.7-48.3 41.6-84.3 18-30.9 28.1-53.5 30.3-68zM250.6 54c-3.6 7.9-9.7 10.1-18.4 6.5-7.9-3.6-9.7-9.7-5.4-18.4 3.6-7.9 9.4-10.1 17.3-6.5 8 4.4 10.1 10.5 6.5 18.4z"/></svg>