<svg xmlns="http://www.w3.org/2000/svg" viewBox="0 0 466.2 594.5"><path d="M309.2 101.1c-.6 0-1 1.4-1.1 2.7.1-1 1.1-1.6 1.3-2.6 0-.1-.1-.1-.2-.1zm-64.5 47.2c13.2 0 19.2 11.3 14.8 23.7-11.5 5.2-21.4 12.6-28.9 22.3-16.3 21-42.1 65.7-77.4 135.2-35.2 69.4-62.8 106.2-82.6 110.2-1.3.1-2.6.2-3.9.2-13.4 0-20.9-7.8-22.4-23.8 0-14.3 33.3-64.3 98.4-149.6 41.4-54.3 56.5-76.5 82.7-111.5 6.4-3.9 12.1-6.1 17.1-6.6.8-.1 1.5-.1 2.2-.1zM350.2 40.7h2.5c9.2.3 18.9 3 28.9 6.6 39.7 14.3 51.4 71.4 36.7 170.6-14.7 99.2-21 209.5-21 333.3h-52.5c-4-51.6 1.7-109.5 18.4-174.5 16.7-65.1 24.2-113.6 21-147-15.9-44.4-41.2-66.9-76.1-66.9H302c-9.9 0-11.3.3-21.5 3.9 5.5-14.9 8.9-25.8 32.8-43.3 6 9.7 15.6 17.1 27.6 17.1 19 0 35.4-17.7 35.4-36.7 0-16.7-15.1-32.8-34.1-32.8-16.2.7-29.8 15.3-32.8 30.2.3.2.8.4 1.3 1.3-.9.6-1.8.8-2.6 1.3-23.7 15.3-39.6 18.2-68.2 26.2 14.5-19.4 30.9-33.8 40.7-47.2 19.9-27.4 43.2-42.1 69.6-42.1zM339.6 0c-1.8 0-3.5 0-5.3.1-33.3 1.2-78.9 43.7-136.4 128.6S83.6 286.5 27.3 345.2C-8.4 400-9.3 440.1 26 465.9 42.5 478 58.1 484 72.4 484c16.3 0 31.1-7.8 44.1-23.4 16.7-13.5 34.9-44.1 55.1-90.5 20.2-46.4 42.2-86.7 65.6-122 20.9-31.6 41.2-47.9 61.2-47.9 2.4 0 4.7.2 7.1.7 22.2 4.4 36.4 20.8 42 48.6 5.6 27.8-3.5 75.1-24.9 141.7-21.4 66.7-26.6 134.4-17.1 203.4h141.7c-11.9-114.3-9.1-231.3 9.2-350.4s11-190-22.3-212.6C402.5 10.2 371.2 0 339.6 0z"/></svg>