<svg xmlns="http://www.w3.org/2000/svg" viewBox="-10 0 742 877"><path d="M448 877v-35q0-43 10.5-97T486 636q17-55 34-100 4-9 8-18.5t7-19.5q20-49 33.5-85t13.5-50q0-33-24.5-53T470 290q-31 0-58 10.5T370 331q-12 18-33.5 49.5t-46.5 69Q265 487 242 521t-38.5 56.5Q188 600 186 603q-21 27-42.5 32T96 640q-7 2-13 3.5T70 645q-18 0-36.5-10t-31-28Q-10 589-10 566t15-47.5Q20 494 39.5 473T73 439l222-203q11-11 23.5-26t16.5-33q1-9 7.5-29.5t20-45.5q13.5-25 36-48.5T455 15q34-15 81-15 55 0 99.5 21T706 78.5q26 36.5 26 81.5 0 33-9 77t-22 90q-13 46-24 85-5 17-9 31.5t-7 25.5q-13 48-25 125t-12 167v116zm19-19h138v-97q0-92 12.5-170T642 464q3-11 7-26t9-32q11-37 24-83t21.5-89.5Q712 190 712 160q0-41-23-72.5T626 38q-40-18-90-18-48 0-80.5 17t-53 42.5Q382 105 371.5 130T357 170l63 1 33-15q-1-2-1-8 0-17 12.5-29t28.5-12q17 0 29 12t12 29q0 17-12 29t-29 12q-19 0-32-15l-30 13q-3 21-3 37 0 17 1.5 30.5T432 274q17-3 38-3 73 0 102.5 25t29.5 67q0 10-7 32.5t-18.5 51Q565 475 554 505q-4 9-8 19t-7 19q-18 45-34.5 99.5t-27 107Q467 802 467 842zm26-687q9 0 16-7t7-16q0-9-7-16t-16-7q-9 0-16 7t-7 16q0 9 7 16t16 7zM70 625q21 0 44-17.5t46-47.5q37-49 77-100.5T315 359q22-28 44-49t54-31q-2-8-3.5-23t-1.5-32q0-8 .5-17t1.5-17q-13 0-29-.5t-29-.5q-6 20-19.5 35.5T308 251L87 454q-13 12-31.5 31T23 525.5Q9 547 9 566q0 26 20.5 42.5T70 625zm64-8q13-1 20.5-6.5T173 589l150-215-2-1-145 199q-11 14-21 25t-21 20z" fill="currentColor"/></svg>