<svg xmlns="http://www.w3.org/2000/svg" viewBox="0 0 329.4 270"><path d="M131.9 29c9.9 0 14.8 5.3 14.8 16 0 9.9-4.9 14.8-14.8 14.8s-14.8-4.9-14.8-14.8c0-10.7 4.9-16 14.8-16zM30.8 111.6L0 133.8V98c0-22.2 13.6-37.8 40.7-46.8C94.9 20 126.6 4.4 135.6 4.4c46.8-9 75-3.9 84.4 15.4 9.5 19.3 8.6 47.3-2.5 83.8-11.1 36.6-6.4 61.8 14.2 75.8 8.2-33.7 24.2-50.3 48.1-49.9 23.8.4 39.2 11.1 46.2 32.1s3.1 44.2-11.7 69.7c-14.8 25.5-34.7 38.4-59.8 38.8-25.1.4-48.5-7.2-70.3-22.8-21.8-15.6-34.1-35.8-37-60.4-2.9-24.7-2.9-45 0-61s-5.5-21.4-25.3-16c-19.6 5.2-50 5.8-91.1 1.7zm254 73.9c-1.6 15.6-11.5 23.2-29.6 22.8-18.1-.4-35.5-8.8-52.4-25.3-16.8-16.4-19.1-44.6-6.8-84.4 12.3-39.9 9-59.8-9.9-59.8-1.6 17.3-4.7 32.9-9.2 46.8-4.5 14-8.2 36.6-11.1 67.8-2.9 31.2 6.6 55.1 28.4 71.5 21.8 16.4 43.4 24 64.7 22.8 21.4-1.2 37-15.8 46.8-43.8 9.9-27.9 5.1-44.6-14.2-49.9-19.3-5.3-30.6-.4-33.9 14.8s5.8 20.9 27.2 16.7zM82.6 89.4l-44.4 9.9c19.7 2.5 38.2 1.8 55.5-1.8 17.3-3.7 34.1-7.2 50.5-10.5s25.9-14.8 28.4-34.5c0-18.9-11.5-29.6-34.5-32.1-7.4 0-27.5 9.5-60.4 28.4 6.6 5.8 9.5 11.5 8.6 17.3 0 4.1-2.3 5.3-6.8 3.7-4.5-1.6-7.2-7.8-8-18.5-3.3.8-4.9 3.3-4.9 7.4l16 27.1c36.2-4.9 51.4-7.6 45.6-8-5.8-.4-13.6 1-23.4 4.3l-1.2-3.7c2.5-.8 6.8-2.3 12.9-4.3 6.2-2.1 11.7-3.1 16.6-3.1 5.8 0 8.6 2.1 8.6 6.2.1 4.8-19.7 8.9-59.1 12.2z"/></svg>