<svg xmlns="http://www.w3.org/2000/svg" viewBox="0 0 595.3 162.7"><path d="M595.3 0H0v162.7h436.1c37.1-6.7 71.5-28.6 103.3-65.7 31.9-37 50.5-69.4 55.9-97zM573 18.2c-7.4 12.5-15 19.7-22.7 21.7-29.3.7-86.6-4-171.8-14.1l6.6-7.6H573zm-254.6 0c-17.5 30.3-37.6 45.5-60.1 45.5H17.7V18.2h300.7zm231.4 36.4c-9.8 14.5-19.9 22.6-30.3 24.3-39.8-6.1-91.6-18.9-155.6-38.4l9.1-7.6 176.8 21.7zM518 95.5c-9.8 12.8-21.2 19.2-34.4 19.2-43.1-15.2-89.4-34.7-139-58.6l9.1-8.1L518 95.5zM336 64.7l138.5 64.7c-14.8 10.8-29.6 15.3-44.5 13.6-33-19.5-67.7-43.5-104.1-71.8l10.1-6.5zm-38.4 20.7l15.2-6.6 92 66.7h-33.4c-29.6-18.8-54.2-38.9-73.8-60.1zm-80.3-.5c4.7 21.6 16.2 41.8 34.4 60.6H231c-14.8-18.9-24.8-39.1-29.8-60.6h16.1zm60.6 0c16.2 21.6 38.7 41.8 67.7 60.6h-26.3c-24.6-18.9-43.5-39.1-56.6-60.6h15.2zm-93 0c4 21.6 13.6 41.8 28.8 60.6h-22.2c-12.1-18.9-20-39.1-23.8-60.6h17.2zm-92.4 0c.3 21.6 3.4 41.8 9.1 60.6H82.9c-4-18.9-5.9-39.1-5.6-60.6h15.2zm-29.8 0c-.3 21.6.2 41.8 1.5 60.6H47.5V84.9h15.2zm184.4 0c9.1 21.6 25.1 41.8 48 60.6h-28.8c-14.8-18.9-26.3-39.1-34.4-60.6h15.2zm-96.5 0c3.4 21.6 11.3 41.8 23.8 60.6h-20.2c-10.1-18.9-16.2-39.1-18.2-60.6h14.6zm-30.3 0c3 21.6 9.3 41.8 18.7 60.6h-18.7c-8.4-18.9-13.5-39.1-15.2-60.6h15.2zm-88 0v60.6H17.7V84.9h14.6z"/></svg>