<svg xmlns="http://www.w3.org/2000/svg" viewBox="-10 0 1525 400"><path d="M528 400q-14 0-27.5-5.5T479 376q-6 9-16 15.5t-23 6.5q-13 0-23.5-6.5T400 375q-7 10-17 16.5t-23 6.5q-13 0-23.5-6.5T320 375q-7 10-17 16.5t-23 6.5q-13 0-23.5-6.5T240 375q-7 10-17 16.5t-23 6.5q-13 0-23.5-6.5T160 375q-7 10-17 16.5t-23 6.5q-13 0-23.5-6.5T80 375q-7 10-17 16.5T40 398q-24 0-37-18t-13-38V0h881l543 54q20 2 43.5 10t40.5 24q17 16 17 43 0 21-13 34t-32.5 19q-19.5 6-37.5 6-7 0-14-.5t-15-1.5q10 9 16.5 20t6.5 26q0 32-23.5 44.5T1354 291q-17 0-44-5.5t-56-13.5q13 18 13 42 0 30-22 47.5t-48 17.5q-22 0-48-8.5t-48.5-18.5q-22.5-10-34.5-17l-19-12q1 4 1.5 7.5t.5 6.5q0 23-15.5 41T992 396q-28 0-55.5-16.5T886 344v1q0 21-14 37.5T835 399q-20 0-38-10.5T765 362q-4 17-19 27.5T714 400q-19 0-32-8t-22-21q-6 15-19.5 22t-28.5 7q-11 0-23.5-5.5T568 377q-14 23-40 23zM9 195h481q57 0 96.5-.5t69.5-5q30-4.5 56.5-15T769 143q27-19 51.5-53.5T862 19H9zm1423-25q11 0 26.5-3.5t26.5-12q11-8.5 11-24.5 0-26-26.5-39.5T1412 74L882 21l-18 36 435 95q34 8 71 13t62 5zm-78 102q19 0 36-9t17-29q0-23-24-36t-54-19q-32-7-55.5-12t-51.5-11q-28-6-71.5-15.5t-114.5-25Q965 100 854 76l-22 33q131 45 213 72.5t109 36.5q14 4 40.5 13t57 18.5q30.5 9.5 58 16t44.5 6.5zm-157 88q18 0 34.5-12.5T1248 314q0-28-18.5-41t-40.5-21L818 126l-26 24q50 30 100.5 60T993 269l89 51q20 10 53 25t62 15zm-205 17q17 0 27-12.5t10-27.5q0-10-4-19.5t-14-15.5L776 164l-26 14 119 123q11 12 31.5 30t45 32q24.5 14 46.5 14zm-159 3q16 0 25-10.5t9-24.5q0-10-4-15.5t-8-13.5L732 188l-44 16 77 125q12 19 30 35t38 16zm-119 1q13 0 23-9t10-23q0-5-.5-9t-3.5-9l-75-122-42 5 36 112q7 22 18.5 38.5T714 381zm-674-3q14 0 22-11.5t8-24.5V215H9v127q0 13 8 24.5T40 378zm400 0q15 0 22.5-11.5T470 342V215h-60v127q0 13 7.5 24.5T440 378zm-80 0q14 0 22-11.5t8-24.5V215h-60v129q0 13 8 23.5t22 10.5zm-80 0q14 0 22-11.5t8-24.5V215h-60v127q0 13 7.5 24.5T280 378zm-80 0q14 0 22-11.5t8-24.5V215h-60v127q0 13 7.5 24.5T200 378zm-80 0q14 0 22-11.5t8-24.5V215H89v127q0 13 8 24.5t23 11.5zm408 3q17 0 23.5-13.5T558 341l-15-125h-53v126q0 20 12.5 29.5T528 381zm84 0q13 0 23.5-8.5T646 348q0-4-1.5-9t-2.5-10q-8-26-18-56t-18-57h-43l15 125q3 21 13 30.5t21 9.5z" fill="currentColor"/></svg>