<svg xmlns="http://www.w3.org/2000/svg" viewBox="-10 0 348 1300"><path d="M-10 1300V219q0-40 5.5-79t22-70.5Q34 38 66 19t84-19q67 0 102.5 33t35.5 92q0 36-19.5 60T225 223q-24 14-37 19 4 17 15 65.5t27 118q16 69.5 34.5 150T302 738q19 82 36 156-91 22-168.5 67.5T48 1066v234zm19-20h20v-221q46-63 121.5-110.5T316 879q-4-18-15.5-66.5T273 695q-16-69-34.5-149t-37-162.5Q183 301 166 228q3-1 19-7.5t35.5-19.5q19.5-13 33.5-32t14-44q0-47-29.5-76T150 20q-46 0-74 17T33.5 82.5Q19 111 14 146.5T9 219z" fill="currentColor"/></svg>