<svg xmlns="http://www.w3.org/2000/svg" viewBox="0 0 246.8 594.5"><path d="M90.4 82.4c9.8-29 23.9-50.4 42.2-64.3 18.3-13.8 41.6-19.7 70-17.7 28.3 2 43.1 19.2 44.2 51.5 1.1 32.4-13.9 55-45.2 68-.9 4.9-1.3 15.8-1.3 32.8 0 17 3.8 54.2 11.4 111.8 7.1 54.9 11.6 101.5 13.4 139.9-48.6 7.1-87.7 26.1-117.2 56.9v133.2H63.6l18.1-412.4L0 137.3l12.7-21.4 69.6 37.5 6-43.5L17.4 61l10.7-18.7 62.3 40.1zm6 336.1c25.4-17 59.8-31 103.1-42.2-.9-24.5-4.9-62.9-12.1-115.1-5.8-48.6-8.7-85.5-8.7-110.5 0-17.4 1.3-33.5 4-48.2 11.6-4 21.1-10.3 28.5-18.7 7.4-8.5 11.3-20.3 11.7-35.5-.4-8.9-4.6-16-12.4-21.1-7.8-5.1-19.6-6.2-35.5-3.3-15.8 2.9-30 12.1-42.5 27.4-12.5 15.4-20.3 43.6-23.4 84.7-3.1 41-7.3 135.2-12.7 282.5z"/></svg>