<svg xmlns="http://www.w3.org/2000/svg" viewBox="0 0 313.4 575"><path d="M6.9 139.1c-8.5-29.4-9.2-55-2-76.8s22.9-40 47.3-54.5S98.5-1 117.9 24.9c19.4 25.9 19.9 53.1 1.7 81.6 2.1 4.5 7.9 13.8 17.6 27.7 9.7 13.9 34.1 42.4 73.1 85.3 37.2 41 67.5 76.8 90.8 107.3-35.9 33.6-57.1 71.5-63.8 113.6l76 109.4-36.2 25.2L56.7 226c-17.5-27.4-35.1-53.7-49.8-86.9zm196.7 272.6c11.2-28.4 31.4-59.6 60.6-93.5-14.7-19.7-39.9-48.9-75.6-87.7-32.5-36.6-55.9-65.2-70.2-85.8-9.9-14.3-18-28.3-24.2-41.9 7.2-9.9 11.5-20.5 12.7-31.6 1.2-11.2-2.3-23.1-10.6-35.8-5.5-7-12.9-10.4-22.2-10.2-9.3.2-19.7 6.1-31.1 17.5-11.4 11.4-17.8 27-19.3 46.8-1.5 19.8 8.2 47.4 29.1 82.9S124 287.7 203.6 411.7z"/></svg>