<svg xmlns="http://www.w3.org/2000/svg" viewBox="-10 0 1470 1303"><path d="M217 1303l-7-3q1-25 7-45t16-35q-10 1-19.5 2t-22.5 6q-20 7-38 8.5t-32 1.5q-12 0-23.5-4.5T80 1225q-9 2-24 10.5t-31 19Q9 1265-2 1273l-8-3q2-45 20-73.5t44.5-44Q81 1137 110 1132q14-15 48.5-21t95.5-8q4 0 30.5 1.5t66.5 3q40 1.5 85 1.5 50-1 98.5-3.5t82.5-5.5q34-3 43-6 33-11 55.5-40t35-67q12.5-38 13.5-78-5-146-10.5-300.5t-11-308.5Q737 146 732 0h172l-32 909q-1 32 6 71t26 70q19 31 54 39 40 8 83 11.5t81 5.5q19 1 36 2t31 3q62 6 99.5 21t51.5 29q29 6 55.5 21t44 43.5q17.5 28.5 20.5 73.5l-8 3q-17-11-37-20t-34-12q-4 4-14.5 9t-26.5 5q-14 0-31.5-5t-35.5-11q-20-7-39.5-13t-35.5-6q-16 0-27 .5t-19 1.5q-7 1-15.5 1.5t-20.5.5q-23 0-72.5-10.5T944 1220q-41-10-76.5-18t-49.5-8q-14 0-45 8t-65 18l-86 22-66 11q-12 0-20.5-.5T520 1251q-8-1-19-1.5t-27-.5q-17 0-37 6t-39 13q-19 6-36.5 11t-31.5 5q-11 0-22.5-4.5T289 1271q-14 3-34 12t-38 20zm113-38q12 0 28.5-5t33.5-11q20-7 41.5-13t40.5-6q18 0 28.5.5t19.5 1.5q7 1 15 1.5t19 .5q23 0 64-10.5t83-22.5q37-10 68-18.5t47-8.5q15 0 51.5 8.5T949 1201q50 12 97 22.5t70 10.5q11 0 19-.5t15-1.5q9-1 19.5-1.5t28.5-.5q19 0 40 6t41 13q17 6 33.5 11t27.5 5q12 0 20-5-10-13-18.5-33t-12.5-49q-12-13-47-27.5t-95-20.5q-14-1-30.5-2t-35.5-2q-40-2-84-5.5t-83-11.5q-31-7-51.5-29t-31.5-52q-11-30-15.5-61.5T852 908l32-888H752l32 888q2 62-24.5 117.5T682 1103q-17 8-47.5 12.5t-67 7Q531 1125 496 1126t-61 2q-44 1-83.5-.5t-65.5-3q-26-1.5-30-1.5-114 0-135 26-4 28-7.5 40t-13.5 24q10 5 21 5t28.5-1.5q17.5-1.5 34.5-7.5 19-6 34-7t32-1q17-17 37.5-26.5T330 1161q9-4 34.5-7.5t59-7q33.5-3.5 67.5-6.5t60-4q6-1 23-3.5l34-5 22-2.5-1 20q-7-1-23 1.5t-31.5 5.5q-15.5 3-22.5 4-51 3-105 7.5T340 1179q-4 28-12 48t-18 33q10 5 20 5zm-319-23q14-7 36-21.5t35-16.5q8-10 10.5-18t7.5-32q-32 9-57.5 30T11 1242zm1429 29q-7-37-33-58t-57-29q5 24 12.5 40.5t15.5 25.5q32 7 62 21zm-1209 0q14-7 31-13t30-8q7-10 15-26.5t12-39.5q-32 9-57.5 29.5T231 1271z" fill="currentColor"/></svg>