<svg xmlns="http://www.w3.org/2000/svg" viewBox="0 0 595.3 550.7"><path d="M312.8 0c2 38.9 4.2 109.3 6.4 211.3s.4 163.2-5.7 183.7c-6.1 20.5-21.8 34.7-47.3 42.8-8.7 2.8-19.7 4.1-33 4.1-25.8 0-60.4-5.2-103.7-15.5-6.2-.4-12.2-.7-18-.7-40.9 0-71.4 11-91.5 32.9-23 25-26.1 47.6-9.5 67.8 3-10.1 11-21.3 23.9-33.7s23.6-18.6 32.2-18.6c3 0 10 .9 20.8 2.7 2.1.3 4.8.5 8.2.5 14.7 0 41.8-3.1 81.6-9.2 16.9.7 32 1.1 45.4 1.1 23.4 0 41.3-1.1 53.9-3.4 17.2 3 24.2 7.6 21.2 13.6-3 6.1-16.5 10.9-40.5 14.4-9.6 1.4-20 2.1-31.3 2.1-16.9 0-35.6-1.6-56.2-4.8-7.3-1.1-14.2-1.7-20.7-1.7-24.2 0-43 7.8-56.6 23.3-5.6 8.1-8.7 14.4-9.5 18.9-.8 4.5 3.7 10.9 13.3 18.9 7.6-15.7 19.9-26.3 37.1-31.8 5.6 0 13.4 3.7 23.5 11s24.7 11 43.9 11c21.2 0 40.9-4.2 59.1-12.5 18.2-8.3 33-16.5 44.3-24.6 11.4-8.1 28.4-21.7 51.1-40.9 17.6 19.8 52.3 29.7 104 29.7 9 0 18.5-.3 28.5-.9 22.2 12.1 44.9 18.4 68.2 18.9 15.1 6.1 21 17.7 17.4 34.8 14.6-11.6 22-20.5 22-26.5 0-9.6-8.8-24.4-26.5-44.3s-42.7-29.9-75-29.9c-17.7 1.5-39.3 4.7-64.8 9.5-3.9.7-7.6 1.1-11.3 1.1-20.2 0-36.5-11.3-49-34-7.6-23.2-10.2-74.5-8-153.8 2.3-79.3 3.4-135.8 3.4-169.7 0-33.8 1.3-66.4 3.8-97.7h-55.1z"/></svg>