<svg xmlns="http://www.w3.org/2000/svg" viewBox="0 0 309.4 341.4"><path d="M35.4 10.4c20.3-14 53.1-13.9 98.3.6 45.3 14.4 87.4 43.7 126.4 87.8s54.8 85.9 47.4 125.3c-7.4 39.4-26 69.9-55.6 91.3-29.7 21.5-65.2 29.7-106.5 24.6-41.4-5.1-76.5-34.5-105.4-88.4S-2.1 147.8.3 101.7c2.3-46 14-76.5 35.1-91.3zM60 45.5c-9.4 6.2-14.8 26.9-16.4 62.1-1.6 35.1 8.6 75.1 30.4 120 21.9 44.9 48 68.9 78.4 72 30.4 3.1 55.8-2.7 76.1-17.6 20.3-14.8 34-37.1 41-66.7s-7-61.9-42.1-96.6-69.1-57.6-101.9-68.5S70.9 37.7 60 45.5z"/></svg>