<svg xmlns="http://www.w3.org/2000/svg" viewBox="-10 0 1405 1194"><path d="M1367 1194q-14-14-38-47.5t-49-77.5q-25-44-42-91-9-25-16-52t-13-53q-14-55-36-117.5T1115 639q-19-26-50.5-56T995 527q-38-26-75-42-4 11-24.5 32T857 554q24 4 49.5 11t43.5 26l12-8q7-6 15-6 3 0 5.5.5t5.5 1.5q5-2 12-4.5t11-2.5q6 0 6 4 0 5-4.5 11t-8.5 11q0 9-6.5 15T982 626l15-1q20 0 27 12 7 2 16.5 6t9.5 9q0 4-9 6.5t-17 3.5q-5 8-18 8-5 0-11-.5t-20-4.5l10 31q3 7 3 15t-6 16v7q0 7-1.5 14.5T975 756q-4 0-9-8t-8-14q-11-4-16-18l-7-23-1-6q-4 14-11 25t-15 11q-5 6-11 12t-10 6q-5 0-5-9 0-11 4-21-3-4-3-11 0-11 7-19l7-12-16 6q-2 1-5 1h-5q-10 0-14-4-3 1-8 1-8 0-13.5-1.5T830 666q0-5 8-10t13-8q5-13 24-16l23-5q-24-1-55.5-4T782 613q-29-7-48.5-19.5T714 562q0-9 11.5-23.5t29.5-30q18-15.5 35-28.5l-11 3q-31 7-68 13.5t-86 6.5q-27 0-67.5-4.5T480 489q9 12 19 30t16.5 37q6.5 19 6.5 33 0 30-23.5 39.5T435 638q-12 0-32.5-3.5T363 627q-19-4-28-6l1 15q2 20-11 28-2 7-5 16.5t-7 9.5q-4 1-8-8t-5-17q-8-5-8-23v-10l-9 12q-13 16-27 15-5 4-14 9.5t-12 2.5q-4-2-.5-11.5T236 644q-1-6 1-11.5t7-11.5q6-8 12-12l8-6-31-11q-20-5-23-21-5-4-13-10.5t-6-10.5q1-5 11-4t17 2q10-7 24-2l22 8 6 2-3-4q-3-3-5-6.5t-4-7.5q-7-15-1-24-2-7-3-17t2-11q4-1 12 6t12 12q6 1 12 6t9 15l5 13 1-2q1-4 2-7.5t3-7.5q5-15 16-17 4-6 10-13t11-5q4 1 3.5 11t-1.5 16q8 13-1 30l-10 20 70-3-74-95q-21-3-40-3-8 0-17 1.5t-19 3.5q-14 3-30.5 6t-41.5 3q-22 0-55-6.5t-66-19Q35 438 12.5 419T-10 376q0-25 16-40.5t40.5-24Q71 303 96.5 300t44.5-3q20 0 38 4.5t34 9.5q14 4 26.5 7t25.5 3q22 0 47-5t44-8q20-23 49.5-52.5T459 200l-49-47-5 22q-5 21-18 24-3 6-8.5 14t-9.5 7q-4-1-5-10t0-17q-6-8-3-24l6-16-11 6q-16 11-30 4-7 2-17.5 3t-13.5-3q-1-3 5.5-10.5T314 141q0-11 16-18 7-4 20-8l-28-8q-13-4-19-16-5-4-13.5-9.5T283 72q1-5 11.5-5.5T312 66q10-10 30-2l31 11-2-10q-1-4-1.5-8t-.5-8q0-18 8-23 1-7 3.5-16.5T388 0q5 0 8.5 9.5T402 26q12 6 12 27l-1 16 6-8q9-13 22-13 4-5 12.5-10t11.5-2q4 3 .5 12.5T460 64q3 14-9 29l-10 11q12 6 33.5 16.5T510 142q31 24 43.5 46.5T548 235q-8 10-20.5 24.5T502 285q26-3 51.5-5t48.5-2q113 0 202 18-10-15-18-35t-8-39q0-9 1.5-24.5t10-28Q798 157 818 157q12 0 39.5 5.5t60 14Q950 185 977 192q10 3 20 7t17 6l-20-12q-16-10-16-24-5-4-10-11t-5-12q0-4 7-4 9 0 21 6 2 0 4-.5t3-.5q8 0 17 7l13 11q-3-12-3.5-16t-.5-6q0-15 8-21 0-6 3-17t8-11q4 0 8 8.5t6 15.5q7 2 10 12t3 22v4l-1 5 18-24q4-5 10-8t11-4q5-4 11.5-9t10.5-5q4 0 4 6 0 5-2.5 11.5T1128 140q1 3 1 9t-2.5 11q-2.5 5-6.5 10l-20 26q25 2 34 7t11 13q7 3 13.5 8.5t6.5 9.5q0 3-6 4t-12 1h-11q-7 5-16 5-7 0-13-3l-15-6q5 8 8.5 14.5t3.5 12.5q0 5-1 7 2 4 3.5 10t1.5 11q0 7-3 7-5 0-12-6t-11-10q-11 0-25-13-2-1-6-4t-11-5q-19 3-30 11.5T992 281q-9 0-32.5-4.5T915 265q5 8 9.5 16t9.5 17q7 21 9 38 92 37 151 88t94 104q35 53 53 96 15 39 28.5 88t25 99q11.5 50 19.5 92.5t12 68.5q11 65 33 119t36 84zM393 298q14-1 33.5-4l32.5-5q12-2 26-14t27-27q13-15 21-26 11-14 .5-29.5T498 157q-11-9-33-20t-38-18q-1-3-3.5-6.5T419 107l20-24q11-13 3-19-4-3-11 6-2 1-5 7t-13 25q-4-5-9-6t-7-1l2-42q0-16-9-16-7 0-7 11 0 2 2 9.5t6 34.5q-4 0-10 4l-44-18q-15-7-19 4-1 7 10 11.5t17 5.5l30 8q-1 3-2 9.5t0 7.5q-22 7-28.5 9t-8.5 3q-10 5-6 11 4 9 18 0l28-16q1 2 5.5 5t8.5 4l-10 21q-1 4-2.5 7.5T375 174q-2 10 4 11 7 3 11-12l7-30q7 0 12.5-2.5T420 136l62 61-2 11zm529 30q-1-3-2-8t-6-14q-6-13-17.5-30T877 248l10-13q12 5 32.5 11.5t40 11Q979 262 988 262q7-5 23-12t32-9q7-1 14.5 5t11.5 12l6.5 6.5 6.5 2.5q7 0 7-6 0-8-11-19l-17-18q9-5 11-11l39 14q3 1 5.5 1.5t4.5.5q10 0 10-6t-6-7q-3-1-11-3t-36-6q1-2 .5-5t-.5-5l31-36q2-4 4-6t2-6q0-9-7-9-5 0-10.5 6t-11.5 15l-18 26q-5-7-16-7 1-21 1.5-27t.5-8q0-14-8-14-6 0-6 11 0 1 .5 7t5.5 31q-6 2-15 11l-15-17q-13-13-19-12-5 0-5 6 0 5 11 11l24 17q-2 4-2 7.5v6.5q0 7 1 11-31-7-65.5-15t-65-14.5q-30.5-6.5-51.5-11t-26-4.5q-9 0-13.5 9t-5.5 20q-1 11-1 17 0 23 13 46.5t22 33.5q24 6 46.5 12.5T922 328zm446 842l3-2q-14-31-34-82t-30-111q-5-28-13.5-71t-19.5-92.5q-11-49.5-24-96.5t-28-83q-15-37-42.5-82t-73-89.5q-45.5-44.5-114-81t-164.5-59Q732 298 602 298q-36 0-80 5t-87.5 11.5Q391 321 354 328q-26 5-52.5 9t-36.5 4q-14 0-28-4t-29-8q-16-4-32.5-8t-34.5-4q-16 0-38.5 2.5t-44 8.5Q37 334 23 345.5T9 376q0 19 20.5 34.5t50 25.5q29.5 10 59.5 15.5t50 5.5q21 0 37.5-3t30.5-6q10-2 20-3.5t20-1.5q25 0 47.5 2.5T399 455q15 3 43.5 8t62.5 9.5q34 4.5 66 7.5t54 3q49 0 84.5-6t64.5-13q23-5 44-9t40-4q33 0 72.5 17t78.5 44.5q39 27.5 71 58t51 57.5q43 61 62.5 120.5T1228 868q6 25 12 51t16 53q15 39 35.5 78t41 70.5q20.5 31.5 35.5 49.5zM63 361q-4-1-9.5-2T42 359q-3 1-4-.5t2-3.5q8-8 17-13 33-6 68-6 34 0 59 5l12 7q1 1 1 3t-4 4q-4 2-6.5 2.5T180 359q-11-2-24.5-3t-30.5-1q-32 0-62 6zm1163 394q-4-4-8.5-11.5T1211 731q-29-86-75-145t-102.5-96.5Q977 452 917.5 431T802 400.5Q746 391 699.5 389t-74.5-3q-8-1-14.5-1H597q-46 0-91 4.5t-80 8.5q-26 4-50 6t-44 2q-19 0-49-2.5t-53-6.5q-5-1-13-3.5t-14-6.5q-3-2-3-4.5t4-2.5q6 0 11-.5t19-2.5q15 3 42.5 6t55.5 3q19 0 42-2t50-5q36-4 79-8.5t94-4.5h29q32 1 80.5 4T813 383.5Q871 394 931.5 416t118 61q57.5 39 104 99.5T1229 724q3 8 3.5 15t.5 14q0 4-2.5 4.5t-4.5-2.5zM159 431q-33 0-61-7t-46-14q-5-5-7.5-9t-4.5-7q-1-1 0-3t3-1q4 1 9 2.5t10 .5q17 8 42 13t55 5q10 3 17.5 3.5t13.5-.5q3 0 4 3.5t-2 4.5q-6 2-15 5.5t-18 3.5zm807 289q7 0 7-9 0-4-2-10l-17-45q1-1 2.5-3.5t1.5-5.5q28 5 36.5 6.5t10.5 1.5q8 0 9-5 0-5-5-7.5t-12-2.5h-42q0-8-7-15l22-11q7-4 12.5-7.5t5.5-7.5q0-7-9-7-6 0-11 4l-21 17q-5-7-12-9-17-18-52-23t-64-5h-24q21-15 44.5-34.5t41.5-37q18-17.5 21-26.5-12-4-22.5-6t-21.5-2q-5 0-9 .5t-9 .5q-10 6-27.5 18t-36 26q-18.5 14-31 27T733 562q0 13 18.5 22t47.5 15.5q29 6.5 60 10t56 6.5q-3 5-5.5 11t-2.5 12l-29 7q-5 1-9.5 3.5T864 656q0 6 6 6 7 0 19-6l20-9q4 9 11 14l-18 28q-3 8-3 12 0 7 6 7 4 0 7-7t5-13l8-24h12l5-1 8 30q4 11 7 19t9 8zm-653-66q4 0 6.5-5t1.5-12l-2-32q3 0 7.5-1t7.5-3q23 6 54.5 12t46.5 6q32 0 50-6t18-24q0-13-8-32.5T476.5 519Q466 501 458 493q-11-6-40-12t-52-10l77 99-4 9-101 4q-3-12-13-20l12-27q3-5 3.5-10t-4.5-7q-5-2-10 7-1 2-2 5.5t-2 7.5l-4 22q-4-2-10-1.5t-8 .5l-11-30q-7-15-15-11-6 2-2 13 1 2 3 5t5 6l15 21q-2 1-5.5 6t-4.5 8l-28-12q-4-1-10.5-3t-8.5-3q-10-3-13 4-3 9 12 14l46 13q1 2 2.5 4.5t3.5 4.5l-24 21-5 5-5 4q-5 9-1 13 6 6 17-8l25-34q3 5 16 5l-4 23q-1 4-1.5 7.5t-.5 5.5q0 12 7 12z" fill="currentColor"/></svg>