<svg xmlns="http://www.w3.org/2000/svg" viewBox="0 0 595.3 474"><path d="M151.8 120c-19.9 0-32.9-2.7-39.1-8-6.2-5.3-12.4-8-18.6-8-17.7-.4-44.2 9.7-79.5 30.5v3.3c37.6 24.3 63.4 36.5 77.6 36.5 4.4 0 10.5-2.9 18.2-8.6 7.7-5.7 19.3-8.8 34.8-9.3C200.4 162.2 228 167 228 171c19.4 6.2 37.5 9.3 54 9.3s43-3.5 79.2-10.6 67.2 3.1 92.8 30.5c25.6 27.4 45.3 57.6 59 90.5 13.7 32.9 33.1 83.4 58.3 151.5h4c-33.6-138.3-63.4-221.8-89.5-250.6-26.1-28.7-47.1-47-63-54.7-15.9-7.7-38.6-16-67.9-24.9-29.4-8.8-57.8-13.3-85.2-13.3-16.8 0-42.2 5.5-76.2 16.6-14.5 3.1-28.4 4.7-41.7 4.7zm-79.5-5.3h21.9l3.3 2.7c0 8.4-5.5 13.3-16.6 14.6-10.2-1.8-15.2-5.5-15.2-11.3-.1-4 2.1-6 6.6-6zm55 18.5c61.4 0 120.9-1.2 178.3-3.6 57.5-2.4 106.9 12.8 148.5 45.7 41.5 32.9 75.3 101.5 101.4 205.8h-.7c-4.4-6.6-14.8-33.7-31.2-81.2s-36.3-83-60-106.4c-23.6-23.4-59.1-40.2-106.4-50.4-31.4-3.1-61.1-3.9-89.2-2.3-28.1 1.5-75 2.8-140.9 3.6-4.9 0-8-1.5-9.3-4.6v-2c1.5-3 4.6-4.6 9.5-4.6zm-44.4 14c8.8.9 13.3 5.3 13.3 13.3l-2.7 2.7H71.6c-4 0-6-1.8-6-5.3 0-7.2 5.8-10.7 17.3-10.7zm331.4 41.1c-7.1 4-18.3 8.4-33.8 13.3 18.6 8.8 33.1 21.2 43.7 37.1 1.8-4.4 5.9-6.1 12.3-5 6.4 1.1 10.5 4.5 12.3 10.3l11.9 2-1.3 5.3-11.3-1.3c-2.2 4.9-6.2 9.1-11.9 12.6 7.1 4 8.4 11.5 4 22.5l3.3 8.6-4.6 1.3-2.7-7.3c-7.1 0-12.2-2.7-15.2-8-1.8 5.3-5.3 8.6-10.6 9.9l-2 9.3h-4l-1.3-11.3c-4.9-1.8-7.3-5.3-7.3-10.6-8.4 2.2-14.1.2-17.2-6l-9.9-1.3.7-3.3h8c2.2-7.1 5.1-10.4 8.6-9.9-2.7-6.6-.7-11 6-13.3-16.8-11-38-21.9-63.6-32.5-5.3-4.4-5.5-12.8-.7-25.2-20.3 6.6-37.5 9.9-51.4 9.9-13.9 0-33.7-4.9-59.3-14.6 6.2 11.9 10.8 24.7 13.9 38.4 0 8.8-3.5 14.1-10.6 15.9-27.4-2.7-51.3-3.1-71.6-1.3 4.9 5.3 4.6 10.2-.7 14.6 3.1 1.3 4.2 5.5 3.3 12.6l7.3 3.3-2 4-8.6-4c-6.2 4.4-12.4 3.5-18.6-2.7-2.7 4.9-6.6 6.8-11.9 6l-6 9.9-3.3-2.7 2.7-9.3c-4-3.5-5.5-8-4.6-13.3-5.7 3.1-11.5 3.1-17.2 0l-6.6 5.3-2.7-3.3 6.6-6.6c1.3-11.9 6.2-17.9 14.6-17.9-4-5.7-5.7-11.3-5.3-16.6l-10.6-4 1.3-5.3 11.3 3.3c4.4-4 9.7-5 15.9-3 6.2 2 9.1 5.6 8.6 10.9 16.8-9.7 35.6-14.4 56.3-13.9-11.5-10.6-19.4-19.7-23.9-27.2-18.6-1.3-30.4.9-35.5 6.6-5.1 5.7-14.9 8.6-29.5 8.6-13.7 0-38.7-11.9-74.9-35.8C4.9 151.1 0 147.6 0 143.2v-11.9c0-4 4.6-7.1 13.9-9.3 38.4-22.5 63.2-34 74.2-34.5 18.6 0 29.6 2.8 33.1 8.3 3.5 5.5 12.4 7.8 26.5 7 .9-7.1 6.8-16.1 17.9-27.2-20.3.4-38.9-4-55.7-13.3 0 4.9-2.9 8.3-8.6 10.3-5.7 2-11 1-15.9-3l-11.3 2.7-.7-4.6 9.9-3.3c-.4-5.7 1.3-11.5 5.3-17.2-8.4 0-13.3-6-14.6-17.9l-6.6-6.6 3.3-3.3 7.3 4c5.3-2.2 10.8-1.8 16.6 1.3-.9-5.3.4-9.7 4-13.3L96.1 2l4-2 5.3 9.3c5.3-.9 9.1.9 11.3 5.3C123.8 7.1 127.5 2.2 128 0l8 15.9c3.1 0 6.6-1.3 10.6-4 .4 13.7-2.9 24.1-9.9 31.2 20.3 2.2 44.4 2 72.3-.7 6.6 1.3 9.9 6.6 9.9 15.9-3.1 13.7-7.7 26.3-13.9 37.8 27.4-8.8 52-13.3 73.9-13.3s45.4 4.4 70.6 13.3h-.7c-3.5-12.4-5.1-25.6-4.6-39.8 1.8-8.8 6.4-13.3 13.9-13.3 26.1 8.8 49.3 14.8 69.6 17.9-3.5-6.2-2.2-11 4-14.6-2.7-1.8-2.9-6-.7-12.6l-6-5.3 2-3.3 8 6c7.1-2.7 13-.4 17.9 6.6 3.1-4 7.3-5.1 12.6-3.3l8-8 3.3 3.3-5.3 8c3.1 4.9 3.5 9.7 1.3 14.6 6.2-1.8 11.9-.4 17.2 4l7.3-4 2 4-8 4.6c-4 11.5-9.9 16.1-17.9 13.9 2.2 7.1 2.4 13.3.7 18.6l9.3 6-2 4.6-9.9-6.6c-5.3 3.1-10.7 3.1-16.2 0s-7.6-7.3-6.3-12.6c-18.6 5.3-37.8 5.5-57.7.7 8.8 13.3 14.1 21.9 15.9 25.9 39.8 19.9 71 46 93.8 78.2 22.8 32.3 44 84.3 63.6 156.1s29.9 110.1 30.8 115c0 6.6-4.9 11-14.6 13.3-11 0-23-20.1-35.8-60.3-32.3-98.1-60.7-159.9-85.2-185.3-24.6-25.4-39.8-38.8-45.5-40.1z"/></svg>