<svg xmlns="http://www.w3.org/2000/svg" viewBox="0 0 547.3 594.8"><path d="M57.5 0C40 .9 22.5 6.2 7.4 15-8.4 24.2 4.3 42 15 49.8 26.7 58.5 40.2 66.4 55.6 63c10-2.2 32.2-7.5 33.2-.5 2.8 21.4-20 47.4-10.8 72.1 7.5 20.3 24.8 38.7 47.9 40.4 63.5 4.6 126.4-7.4 189.7-8.5 105.3-1.8 158.1 52.7 170 86.3 11.3 32 19.5 65.6 16.6 99.7-3.4 41-9.5 82.5-6.1 123.5 3 36.2 15.5 71.4 24.1 106.5 4.2 17.2 25.1 16.4 24.3-2.4-1.8-45.3-12.2-83.9-11-125.7 1-35.9 10.2-70.4 12.3-106.4 2.5-41.7 14.1-182.3-99.8-223.2-86-30.9-232.7-2.7-326-12.8 6.3-22.3 18.3-41.8 15.5-65.1-2.2-18.4-22.3-25.3-37.6-29.5C83.2 13.4 73.4-.7 57.5 0zm0 19.4c12 2.8 21.5 12.9 34 16.4 10.5 2.9 27.8 6.8 24.2 22.2-4.8 20.5-18.6 40.4-14.3 61.9 3.2 15.7 23 14.7 35.6 14.6 208.9-1.6 304.2-22.2 357.2 49.6 54.7 73.9 36 147.9 22.4 241.3 3.8-55.1 22.1-141.9-34.6-216.8-23.9-31.7-64.5-45-101.8-54.4-66.1-16.7-218.1 8.5-259.5.6-15.9-3-27.2-22.6-25.8-38.8 1.9-21.5 18.8-41.5 12.5-63.2-4.9-16.6-26.2-11.1-39.5-10.4-13.9.7-27.2 4.4-39.6-6.5-14.1-12.6 27.2-17 29.2-16.5zm-2.9 5.3c-6.6-.2-23.8 8-8 8.1 5.6 0 25.9 3.7 13.3-5-1.7-1.2-3.2-3-5.3-3.1z"/></svg>