<svg xmlns="http://www.w3.org/2000/svg" viewBox="-10 0 983 1002"><path d="M855 1002q-61-36-102.5-97.5T711 755q0-21 3.5-53.5t7-66.5q3.5-34 3.5-59 0-94-25.5-143.5t-82-68.5Q561 345 468 345q-34 0-77.5 3.5t-86.5 8q-43 4.5-76 8t-47 3.5q-28 0-46-24.5T117 277q0-16 2-38.5t9-42.5q-13 4-25.5 6.5T73 205q-13 0-29.5-3T12 189q-15-10-22-32 2-28 22-45.5t47.5-26Q87 77 109 77q44 0 73.5 11t29.5 51q0 25-5.5 43t-5.5 35q0 28 9 37t22 9q14 0 45.5-5t72.5-12q41-7 85.5-12t84.5-5q39 0 78 3L817 51q21-17 43.5-34T912 0q33 0 47 16t14 36q0 28-15 41.5T921 107q-12 0-21-4t-14-7q-9 13-27.5 41.5t-41 61.5Q795 232 777 260q-11-10-31.5-22T702 217q-23-9-43-11l-35 30q61 9 108.5 35t75 76.5Q835 398 835 481q0 35-7 71t-13.5 75q-6.5 39-6.5 84 0 81 19 150t53 119zm-81-771q9-13 27-41t39.5-60.5Q862 97 880 70q7 5 19 11t22 6q14 0 23-8t9-27q0-12-9-22t-32-10q-24 0-46 17t-35 28L682 188q25 4 50 17.5t42 25.5zm79 748l4-5q-39-64-54-125.5T788 716q0-46 7-87.5t14-78.5q7-37 7-69 0-91-37-141.5t-102.5-71Q611 248 524 248q-36 0-81 5t-88.5 12q-43.5 7-77 12t-47.5 5q-49 0-49-65 0-8 3-24t5.5-31.5Q192 146 192 139q0-43-83-43-22 0-45 8.5t-39 22Q9 140 9 155q5 14 26.5 22t37.5 8q11 0 29.5-3.5T146 172l5 7q-7 27-11 52t-4 47q0 26 12.5 48t36.5 22q21 0 65-6t101-11.5q57-5.5 117-5.5 101 0 161.5 20t88 73.5Q745 472 745 575q0 27-4 62t-7.5 68q-3.5 33-3.5 54 0 45 16.5 88.5t44.5 78q28 34.5 62 53.5zM104 137q-15 0-15-14t15-14q13 0 13 14t-13 14z" fill="currentColor"/></svg>