<svg xmlns="http://www.w3.org/2000/svg" viewBox="0 0 551.3 594.4"><path d="M24.2 29.7c0 7.2 7 11.7 20.9 13.3 41.7 1.1 61.2 9.2 58.4 24.2-7.2 23.4-10.8 38.6-10.8 45.9 0 26.1 15.8 40.3 47.5 42.5 107.9-7.2 185.4-10 232.7-8.3 47.3 1.7 84.8 21.1 112.6 58.4 27.8 37.3 37.5 106.2 29.2 206.8 19.5-79 20.4-140.5 2.9-184.7-17.5-44.2-42.1-71.9-73.8-83-31.7-11.1-91.7-14.6-180.1-10.4-88.4 4.2-136.6 3.6-144.7-1.7-8.1-5.3-12.4-11.8-12.9-19.6-.6-5.6 1-14.7 4.6-27.5 3.6-12.8 5.4-23.4 5.4-31.7S104 38 80.1 31.3C69.5 21.3 57.7 16.9 44.6 18c-13 1.1-19.9 5-20.4 11.7zm25-5c10 3.3 14.5 5.8 13.3 7.5-1.1 1.7-5.6 2.5-13.3 2.5s-11.7-1.5-11.7-4.6c0-3.1 3.9-4.9 11.7-5.4zm187.7 87.5c-.6-5 1-13.9 4.6-26.7 3.6-12.8 5.4-23.4 5.4-31.7S234.9 38 211 31.3c-10.6-10-22.4-14.5-35.4-13.3-13.1 1.1-19.9 5-20.4 11.7 0 7.2 6.9 11.7 20.8 13.3 41.7 1.1 61.2 9.2 58.4 24.2-7.2 23.4-10.8 38.6-10.8 45.9 7.1 0 11.6-.3 13.3-.9zm-8.4-95c26.7 6.7 39.2 18.5 37.5 35.4-1.7 17-3.9 30.6-6.7 40.9s-1.4 16.5 4.2 18.8c15-.6 42.8-1.1 83.4-1.7 87.3-1.1 143.2 18.2 167.6 58 24.5 39.8 36.7 78 36.7 114.7s-4 74.8-12.1 114.3-6.8 99.8 3.8 181c.6 13.3-4.4 18.3-15 15-6.1 0-13.9-22-23.4-65.9-11.7-36.7-14.6-87.4-8.8-152.2 5.8-64.8-3.8-115.6-28.8-152.6s-62.5-55.3-112.6-55c-50 .3-118.1 3.5-204.3 9.6-32.2 0-53-4.2-62.1-12.5-9.2-8.3-14.2-17.5-15-27.5-.8-10-1-18.1-.4-24.2 1.7-8.9 5.1-20 10.4-33.4 5.3-13.3 3.8-17.9-4.6-13.8-8.3 4.2-23.5 2.2-45.5-5.8C11 52 0 41.6 0 28.8 0 12.2 15.4 2.7 46.3.5c30.9-2.2 48 3.3 51.3 16.7 26.7 6.7 39.2 18.5 37.5 35.4-1.7 17-3.9 30.6-6.7 40.9-2.8 10.3-1.4 16.8 4.2 19.6 6.7 3.9 18.2 5.1 34.6 3.8 16.4-1.4 28.8-2.4 37.1-2.9 1.1-9.5 4.3-20.8 9.6-34.2 5.3-13.3 3.8-17.9-4.6-13.8-8.3 4.2-23.5 2.6-45.5-4.6s-32.9-17.8-32.9-31.7c0-17.2 15.4-27 46.3-29.2 30.9-2.2 48 3.3 51.3 16.7zm-48.4 7.5c10 3.3 14.5 5.8 13.3 7.5-1.1 1.7-5.4 2.5-12.9 2.5s-11.4-1.5-11.7-4.6c-.2-3.1 3.6-4.9 11.3-5.4z"/></svg>