<svg xmlns="http://www.w3.org/2000/svg" viewBox="-10 0 972 1012"><path d="M938 1012q-66-39-112-106.5T780 741q0-23 4-58.5t8-73q4-37.5 4-64.5 0-103-28.5-158T677 311q-62-21-165-21-37 0-84.5 4t-94.5 8.5q-47 4.5-83.5 8.5t-51.5 4q-32 0-50-26t-18-72q0-17 3.5-43t11.5-48q-14 4-30 7t-35 3q-14 0-32-2.5t-34-13Q-2 110-10 86q2-31 24-50T65.5 8.5Q95 0 119 0q47 0 79 13.5T230 66q0 27-7 47t-7 39q0 30 10.5 42t24.5 12q16 0 50.5-6t80-13.5Q427 179 476 173t93-6q71 0 133 10.5T811.5 217q47.5 29 74.5 83t27 140q0 39-7.5 78.5t-15 82.5q-7.5 43-7.5 92 0 89 21 165t58 129zm-4-25l4-6q-43-69-59-136.5T863 699q0-51 8-96.5t15.5-86Q894 476 894 440q0-98-40.5-153.5t-112.5-78Q669 186 574 186q-40 0-89 5.5t-97 13q-48 7.5-84.5 13T252 223q-54 0-54-71 0-9 3-26.5t6-34.5q3-17 3-25 0-25-23-35.5T119 20q-24 0-49 9T27.5 53Q10 68 9 85q6 15 29.5 23t41.5 8q13 0 32.5-3.5T159 102l6 9q-8 29-12 56t-4 51q0 28 14 53t39 25q23 0 71.5-6.5t111-13Q447 270 512 270q83 0 141 11.5t94 41.5q36 30 52.5 83.5T816 544q0 30-4 68.5t-8 74.5q-4 36-4 60 0 48 18 95.5t48.5 85.5q30.5 38 67.5 59zM113 64q-16 0-16-15 0-16 16-16 15 0 15 16 0 6-4.5 10.5T113 64zm65 559q1-13 6.5-38.5t18-56.5q12.5-31 36.5-59t62-46.5q38-18.5 94-18.5t94 18.5q38 18.5 61.5 46.5t36.5 59q13 31 18 56.5t6 38.5zm22-19h389q-3-20-12.5-50T546 494.5q-21-29.5-57.5-50T395 424q-57 0-94 20.5t-58 50Q222 524 212.5 554T200 604zM76 948q-43 0-62-26.5T-5 863q0-31 19-58t62-27h605q44 0 62.5 27t18.5 58q0 32-18.5 58.5T681 948zm0-19h605q33 0 47.5-20.5T743 863q0-24-14.5-44.5T681 798H76q-33 0-47.5 20.5T14 863q0 25 14.5 45.5T76 929z" fill="currentColor"/></svg>