<svg xmlns="http://www.w3.org/2000/svg" viewBox="-10 0 740 1021"><path d="M700 1021q-37-21-64-51.5T587 903q-22-36-42-71-10 4-30 9t-45 5q-35 0-71-15t-66-29q-26 14-68 30t-88 16q-54 0-89-23t-35-61q0-15 9-32t17-27q-4-9-11-29t-7-53q0-14 2.5-36t5.5-46q4-30 7.5-59t3.5-53q0-20-4.5-36.5T65 360q-6-16-11-35t-5-44q0-39 10.5-76T99 140q-16 3-28 3-11 0-30.5-3.5T5.5 127Q-10 118-10 99q0-16 14-39.5T48.5 18Q79 0 129 0q44 0 69 16t44 32q23 20 50.5 47.5t47.5 60q20 32.5 20 67.5 0 66-29.5 129.5T267 478q-7 13-18.5 35t-23 46.5Q214 584 207 606t-4 36q30 0 58 7t45 23l71-22q1 0 16-4.5t37-8.5q22-4 44-4 45 0 73 16t40.5 38.5Q600 710 600 728q0 14-2.5 27t-3.5 20q25 62 56 117t80 107zM202 758q37 0 65.5-6t61.5-17q34-11 67.5-20t63.5-9q29 0 61 10.5t57 36.5q1-6 1.5-12.5t.5-12.5q0-14-10.5-32T536 665.5Q513 653 474 653q-27 0-51 5.5T382 669q-19 4-42.5 12t-48 14.5Q267 702 247 702q-28 0-45.5-18T184 638q0-41 22-85.5t44-84.5q19-35 40.5-75t36-83.5Q341 266 341 223q0-35-18-63.5t-44-52Q253 84 229 63q-16-15-39-29t-61-14q-42 0-68.5 14.5t-39 33Q9 86 9 99q0 11 12 16t27 6.5q15 1.5 23 1.5t23-2.5q15-2.5 29-5t17-3.5q11-4 23-6t25-2q11 0 23 2t22 6l-6 19q-10-4-20-5.5t-19-1.5q-11 0-21 1t-20 6q-50 22-64.5 63.5T68 281q0 22 5 39.5T84 354q5 16 10 34t5 41q0 25-3.5 54.5T88 543q-3 25-5 46t-2 34q0 40 10 59.5t14 25.5q5 7 17.5 19t32.5 21.5q20 9.5 47 9.5zM83 82q-16 0-16-15t16-15q14 0 14 15T83 82zm164 600q10 0 19-1t16-3q-17-8-36-12t-38-4q4 6 13.5 13t25.5 7zm-70 146q37 0 73-12.5t63-25.5l-29-22q-37 9-82 9-30 0-52.5-10t-37-23Q98 731 91 722q-7 8-13 18.5T72 764q0 29 29.5 46.5T177 828zm520 171l6-4q-26-28-61.5-82.5T579 790q-10-24-30.5-38t-45-20q-24.5-6-43.5-6t-38 4q37 8 61 20 32 15 48 30t24 30q15 26 37.5 64.5T642 948q27 35 55 51zM470 826q19 0 36-4t28-8q-8-11-21.5-22.5T474 767q-17-8-46-15.5T377 741q-10 3-21 6t-21 6q-8 2-14 4.5t-13 4.5q9 7 22 15t22 12q21 10 54 23.5t64 13.5z" fill="currentColor"/></svg>