<svg xmlns="http://www.w3.org/2000/svg" viewBox="0 0 354.6 594.4"><path d="M24.5 34.9c-.5-7.7 3.4-14.5 11.6-20.4 7.3-5 15.7-8.8 25.2-11.6C70.8.2 78.9-.6 85.5.5s12.4 3.7 17.4 7.8c22.2-5 45.9-3.9 71.1 3.4 25.2 7.3 43.1 28.6 53.8 64 10.7 35.4 1.4 77.7-27.9 126.9-29.3 49.2-50.1 90.4-62.6 123.5-12.5 33.1-17.1 55-14 65.7s17.6 9.8 43.2-2.7 50.9-18.7 75.9-18.7c23.1-.5 44.6 6.1 64.3 19.7 19.7 13.6 27.6 43.6 23.5 89.8-.5 14.1 7.7 52.2 24.5 114.4-38.1-20.4-61-49.7-68.7-87.8-12.3 13.2-26.8 19.7-43.6 19.7-27.2 0-50.1-9.1-68.7-27.2-31.8 10.9-61.9 16.3-90.5 16.3-29 0-50.1-4.8-63.3-14.3C6.6 491.6 0 472.7 0 444.3c0-28.4 12.7-53.2 38.1-74.5 2.3-26.3 4-74.6 5.1-145C44.4 154.4 54.5 102 73.5 67.5c-14.1 1.8-25.9-.6-35.4-7.1-9.5-6.6-14-15.1-13.6-25.5zM128 22.6c-9.5 5.4-20.6 10.7-33.4 15.7C68.3 48.3 52.4 48.8 47 40c-5.4-8.8-3.1-14.9 7.1-18 10.2-3.2 16.3-1.7 18.4 4.4 2 6.1.1 10.1-5.8 11.9 1.8-2.7 2.6-5.3 2.4-7.8-.2-2.5-2-4.7-5.4-6.5s-7.1-1.6-11.2.7-5.8 5.6-5.1 9.9c.7 4.3 3.9 6.9 9.5 7.8 5.7.9 17.8-1.8 36.4-8.2l31.3-12.3 3.4.7zm-38.2 0c-8.6-6.8-19.5-8.4-32.7-4.8s-20 9.3-20.4 17C41.3 48 48.7 54.7 58.9 55c10.2.2 18.5-.6 24.8-2.4 29.5-14.1 57.4-17.7 83.7-10.9 4.1 5 3.6 7.7-1.4 8.2-23.1-2.3-39.3-1.8-48.3 1.4-16.8 5.9-29.8 25.4-39.1 58.5S64.1 188.5 63 246.6c-1.1 58.1-2.4 100.7-3.7 128-3.2 47.6 7.9 74.3 33.4 80 25.4 5.7 51.5 1.4 78.3-12.9 26.8-14.3 52.5-21.3 77.3-21.1 24.7.2 46.4 11.5 65 33.7 2.7-42.7-20.9-64-70.8-64-23.6.5-45.7 6-66.4 16.7-20.6 10.7-38.1 16.1-52.4 16.3-14.3.2-21.4-11.2-21.4-34.4 0-23.1 11.6-61.9 34.7-116.4 13.6-31.3 30.5-62.5 50.7-93.6 20.2-31.1 26.8-62.4 19.7-93.9-7-31.5-21.6-51.1-43.6-58.5-22.1-7.6-46.7-8.9-74-3.9zM41.5 392.9c-17.7 20.9-24.4 43.7-20.1 68.4 4.3 24.7 25.4 37.2 63.3 37.4s71.1-7.4 99.7-22.8c28.6-15.4 53.8-21.7 75.6-18.7 21.8 2.9 35.1 16.7 39.8 41.2 4.8 24.5 16.5 46.1 35.1 64.7-11.8-23.6-19.7-47.1-23.8-70.4-4.1-23.4-17.1-39-39.1-47-22-7.9-50.3-4.5-84.7 10.2-34.5 14.7-62.8 21.9-85.1 21.4-22.2-.5-39.9-12.7-53.1-36.8-5.1-13.6-7.6-29.4-7.6-47.6zm153.2 98c16.3 13.2 32.2 19.7 47.6 19.7 20.9-5 34-12 39.5-21.1-16.8-24.4-45.8-24-87.1 1.4zM55.1 24.7c2.7-.9 5.7-.2 8.8 2 3.2 2.3 3.9 5.3 2 9.2-1.8 3.9-4.9 5.3-9.2 4.4-4.3-.9-6.9-2.7-7.8-5.4-1.3-3.7.8-7.1 6.2-10.2z"/></svg>