<svg xmlns="http://www.w3.org/2000/svg" viewBox="-10 0 741 1024"><path d="M274 1024q-63 0-114.5-20t-89-51.5Q33 921 12 884t-22-70H94q-40-23-40-65 0-15 9-32t17-27q-5-8-11.5-28.5T62 608q0-14 2.5-35.5T70 526q4-30 7.5-59t3.5-52q0-20-4.5-29.5T66 360q-6-16-11-35t-5-44q0-39 10.5-76t39.5-65q-17 3-28 3t-30.5-3.5Q22 136 6.5 127T-9 99q0-16 14-39.5T50 18Q81 0 130 0q43 0 68 16t45 32q23 20 50.5 47.5t47.5 60q20 32.5 20 67.5 0 44-13.5 83.5t-35 77.5Q291 422 268 463q-7 13-18.5 35t-23 46.5Q215 569 208 591t-4 36q30 0 58 7.5t45 22.5l71-22q1-1 16-4.5t37-7.5q22-4 44-4 46 0 73.5 16t40 38q12.5 22 12.5 40 0 13-2 27t-4 20q26 62 56 117t80 107l-30 22q-51-28-84.5-75T555 835q-7 32-30 65.5T465.5 962q-36.5 28-85 45T274 1024zm-71-281q37 0 65.5-6.5T330 720q34-10 67.5-19.5T461 691q29 0 61 10.5t57 36.5q1-5 1.5-11.5t.5-13.5q0-14-10.5-31.5t-34-30.5Q513 638 475 638q-27 0-51.5 6T383 654q-28 7-66 20t-69 13q-28 0-45.5-18T185 624q0-42 22-86.5t44-84.5q20-35 41-71.5t35.5-76Q342 266 342 223q0-35-18-63.5t-44.5-52Q253 84 230 63q-17-15-39.5-29T130 20q-43 0-69 14.5t-38.5 33Q10 86 10 99q0 11 12 16t26.5 6.5Q63 123 72 123q8 0 23-2.5t28.5-5Q137 113 141 112q11-4 23-6t25-2q11 0 22.5 2t22.5 6l-6 19q-10-4-20-5.5t-19-1.5q-10 0-20.5 1t-20.5 6q-49 22-64 63.5T69 281q0 22 5 39.5T85 354q5 16 10 27t5 34q0 25-3.5 54T89 528q-3 26-5 46.5T82 608q0 40 10 60t14 25q5 7 17.5 19t32 21.5Q175 743 203 743zM84 82q-16 0-16-15t16-15q14 0 14 15T84 82zm164 586q20 0 35-5-16-8-35.5-12t-38.5-4q4 7 13 14t26 7zm-70 146h4q36-1 71-13.5t61-25.5l-29-22q-19 5-39 7.5t-43 2.5q-30 0-52.5-10t-37-23.5Q99 716 92 708q-7 8-13 18t-6 23q0 30 29.5 47.5T178 814zm520 170l6-3q-26-29-61.5-84T580 775q-9-23-30-37.5T505 717q-24-6-44-6-19 0-38 4 17 5 33 10t27 10q32 15 48.5 30t24.5 30q15 27 37.5 65.5t49.5 73q27 34.5 55 50.5zM471 814h6q16-1 32-5.5t26-8.5q-8-11-21-23t-39-25q-17-8-45.5-15.5T378 726q-11 3-21 6t-21 7q-7 2-13.5 4.5T309 747q9 7 22 15t22 12q21 10 53.5 25t64.5 15zm-195 0h114q-15-7-29-14t-27-13q-12 6-26.5 13T276 814zm-2 191q62 0 109.5-19.5t80-48q32.5-28.5 50-57T532 833H16q1 19 18.5 47.5t50 57q32.5 28.5 80 48T274 1005z" fill="currentColor"/></svg>