<svg xmlns="http://www.w3.org/2000/svg" viewBox="0 0 438 594.4"><path d="M76.7 30.7C80.6 42.1 87 47.9 95.9 48.1s16-.7 21.5-2.7c26-12.2 50.2-15.3 72.6-9.4 3.5 4.7 3.1 7.3-1.2 7.7-20.1-2.4-34-2.2-41.9.6-14.6 5.1-25.2 19-31.9 41.6-6.7 22.6-10.2 56-10.6 100.1 1.6 68.9-1.2 115.3-8.3 139.3-2.4 40.9 7.5 63.8 29.5 68.8 22 4.9 50-1.1 83.8-18 19.3-9.4 37.1-14 53.4-13.6 16.3.4 35.3 12.2 57 35.4 2-36.6-20.7-56.3-67.9-59-18.1.4-36.1 5.1-54 14.2s-33.1 13.7-45.5 13.9c-12.4.2-18.7-9.7-18.9-29.8-.2-20.1 9.7-53.7 29.8-100.9 12.2-27.2 27-54.2 44.3-81.2 17.3-27 22.7-54.1 16.2-81.5-6.5-27.3-29.6-45.9-69.4-55.8l1.2 1.8c-7.9 4.7-17.5 9.2-28.9 13.6-22.4 7.9-36.2 8.4-41.3 1.5S83 22.6 93.7 19.1c8.3-1.6 13.2 0 14.8 4.7 1.6 4.7-.6 7.9-6.5 9.4 2-2 3.1-4 3.5-6.2.4-2.2-.6-3.8-3-5-2.4-1.2-6-1-10.9.6s-6.9 4-5.9 7.4 3.8 5.6 8.6 6.8c4.7 1.2 15.2-1 31.3-6.5l27.2-11.2-.6-1.8c-17.7 2.4-27.5 3.3-29.5 3-7.5-5.9-16.3-7.3-26.6-4.1-7.8 2.1-14.2 7-19.4 14.5zm137 394.9c14.2 11.8 28.1 17.7 41.9 17.7 18.1-4.3 29.3-10.6 33.6-18.9-14.1-21.2-39.3-20.8-75.5 1.2zM90.9 23.6c1.6-.4 3.2.1 5 1.5 1.8 1.4 2.1 3.2.9 5.6-1.2 2.4-2.9 3.2-5 2.7-2.2-.6-3.4-1.7-3.8-3.2-.8-2.5.1-4.6 2.9-6.6zM312.3 415c-5.9-15.3-17.3-26.1-34.2-32.2-16.9-6.1-40.4-2.4-70.5 11.2s-54.8 20.2-74.1 19.8c-19.3-.4-34.6-10.8-46-31.3-4.3-11.8-6.5-25.6-6.5-41.3-15.3 17.7-21.2 37.3-17.4 58.7 3.7 21.4 22 32.3 54.9 32.5 32.9.2 61.7-6.4 86.5-19.8 24.8-13.4 46.6-18.8 65.5-16.2 18.9 2.6 31.5 15.8 37.8 39.8 2.8 11 8.1 27.3 15.9 49 9.4 15.7 12.3 16.8 8.6 3.2-3.9-13.5-10.7-38-20.5-73.4zm33 69c2 8.3 6.9 26 14.8 53.1-29.5-11.8-47.8-29.5-54.9-53.1H39c41.7 57.8 101.7 87.4 180 88.5h-.6c78.7-1.2 138.9-30.7 180.6-88.5h-53.7zm-4.1-20.6H438c-42.9 87-115.9 130.6-219 131-103.1-.4-176.1-44.1-219-131h298.7c-2.4-7.1-4.1-15.3-5.3-24.8-11 12.2-23.6 18.3-37.8 18.3-24 0-43.9-8.1-59.6-24.2-27.5 9.8-53.9 14.8-79.1 14.8s-43.4-4.9-54.6-14.8c-11.2-9.8-16.9-26.4-17.1-49.6-.2-23.2 10.7-44.1 32.7-62.6 7.5-22.8 10.6-63 9.4-120.4-2.3-64.5 5-111.8 21.9-141.7-12.6 2-22.9 0-31-5.9-8.1-5.9-12.1-13.2-12.1-21.8-.4-7.1 3-13.2 10-18.3 6.3-4.3 13.6-7.7 21.8-10 8.3-2.4 15.2-3 21-1.8 5.7 1.2 10.7 3.3 15.1 6.5 19.3-4.3 39.3-1.8 59.9 7.7 20.7 9.4 35.8 28.6 45.5 57.6 9.6 28.9 2.2 64-22.4 105.4-24.6 41.3-42.2 76.4-52.8 105.4-10.6 28.9-14.7 48-12.1 57.3 2.6 9.2 15.1 8.6 37.5-2.1 22.4-10.6 43.1-16.3 62-17.1 22.4-.4 41.9 4.6 58.4 15.1 16.5 10.4 24.2 26.7 23 48.7-1.3 21.8 1.5 48 8.2 78.3z"/></svg>