<svg xmlns="http://www.w3.org/2000/svg" viewBox="0 0 595.3 375.9"><path d="M50.2 20.8c8.1.8 12.1 4 12.1 9.8 0 7.7-6.2 11.5-18.5 11.5-8.9 0-13.3-2.7-13.3-8.1 2-8.8 8.6-13.2 19.7-13.2zm58.1 24.8C95.4 26.4 79.3 16.7 60 16.7c-28.9.4-43.1 7.5-42.7 21.4 0 13.5 14.2 20.2 42.7 20.2h37.5C114.3 70.6 122 48 108.3 45.6zm422.3 330.3c-41.2 0-51.7-37.1-31.5-111.4 20.2-74.3 15.6-111.4-26.8-111.4s-46.2 37.1-24.3 111.4c21.9 74.3-3.8 110.7-58.6 110.9-56.5.2-86.6-43-59.8-127.9 26.8-84.9 20.3-126.9-29.2-127.3-52.8-.5-57.9 42.6-35.2 127.9 22.7 85.3-4.4 124.8-72.9 126.7-28.1 0-53.9-13.1-77.4-39.3-23.5-26.2-35.2-57.5-35.2-94.1 0-40 4.3-74.3 13-102.8s8.6-49.7-.3-63.5c-41.2.8-66.9-2.1-77.1-8.7C5.1 59.9 0 50.6 0 38.7.8 16.4 16.9 3.5 48.5 0c37 0 61.2 10.4 72.8 31.2 11.5 20.8 14.8 48.1 9.8 82s-14.5 76.6-14.5 128.2c0 28.9 13.8 51.4 27.5 67.6 13.7 16.2 29.7 24.3 48.2 24.3 50.1 0 50.8-40.6 29.1-123.3-19.3-73.4 18.5-123.3 78.1-123.3 66.2 0 96.3 42.2 71.1 126.7-25.2 84.5-15 126.7 19.5 126.7s41.1-36.8 19.9-110.3c-21.2-73.5 9.6-110.3 62.6-110.3 54.2 0 81.4 42 65.2 109.7-17.6 73.6-21.8 109.7-7.2 109.7 9.6-1.2 21.3-2.5 34.9-4 13.7-1.5 23.6 3.3 29.7 14.4-31.9 17.3-53.5 26-64.7 26v.6z"/></svg>