<svg xmlns="http://www.w3.org/2000/svg" viewBox="-10 0 1176 734"><path d="M276 734q-63 0-104-30t-60.5-81Q92 572 92 508q0-28 8-67t19-79.5q11-40.5 21-73.5 13-44 24-84.5t11-67.5q0-17-8-22.5t-15-5.5q-13 0-26 4t-28 4q-42 0-70-13T-5 83v-5h-5V65q5-12 18-27.5T45 11Q69 0 108 0q70 0 105.5 34.5T249 121q0 34-13.5 85.5T206 314q-17 55-30.5 108.5T162 511q0 69 30.5 111t86.5 42q40 0 62.5-22t32-53q9.5-31 9.5-58 0-20-3.5-53.5T372 411q-5-32-8-64t-3-53q0-33 4.5-67t18-63.5q13.5-29.5 39-47.5T489 98q55 0 83 24.5t38 60.5q10 36 10 70 0 17-4.5 53.5T606 386q-7 47-12.5 91.5T588 542q0 31 4.5 59t22.5 45.5q18 17.5 57 17.5 31 0 50-15t28.5-37.5q9.5-22.5 13-47T767 520q0-20-2.5-49.5T758 410q-3-31-5.5-59.5T750 300q0-30 3-65t14.5-66q11.5-31 37.5-51t73-20q55 0 83.5 23.5t38 59q9.5 35.5 9.5 69.5 0 22-3 56t-7.5 73q-4.5 39-9.5 76-4 41-8 72.5t-4 42.5q0 56 19 79.5t46 23.5q33 0 55-6.5t53-19.5l16 26q-18 22-52.5 41.5T1041 734q-46 0-76-22t-44-59.5Q907 615 907 570q0-22 5-61t10-79q7-45 12.5-90t5.5-73q0-43-11.5-71T880 168q-29 0-41.5 19t-16 47q-3.5 28-3.5 53 0 18 3 48.5t6 63.5q4 34 6.5 64.5T837 513q0 16-2 43t-9.5 57.5q-7.5 30.5-24.5 58t-47.5 45Q723 734 675 734q-56 0-87.5-19t-46-48.5Q527 637 523 604t-4-61q0-29 5-71t12-83q5-37 9.5-69.5T550 268q0-43-13-71.5T492 168q-32 0-46.5 34.5T431 285q0 16 3 43t7 57q4 36 8 73t4 64q0 59-16.5 100t-43 65.5Q367 712 336 723t-60 11zm0-20q34 0 70.5-18t61.5-60q25-42 25-114 0-26-4-62.5t-8-72.5q-4-31-7-58t-3-44q0-56 19.5-96.5T492 148q43 0 60.5 34.5T570 268q0 21-4.5 54T555 392q-6 42-11.5 83t-5.5 68q0 25 3.5 54.5t16.5 56q13 26.5 40.5 43.5t76.5 17q42 0 68.5-16t41.5-41q15-25 22-53t8.5-52.5Q817 527 817 513q0-18-2.5-48.5T809 401q-4-33-6.5-64t-2.5-50q0-30 4-62.5t21-54.5q17-22 55-22 49 0 64 33t15 86q0 31-5.5 75.5T942 433q-6 41-10.5 78.5T927 570q0 59 27.5 101.5T1041 714q32 0 59.5-12.5T1143 673l-2-4q-22 10-43.5 17t-55.5 7q-35 0-59.5-29T958 570q0-26 12-118 5-37 9.5-76t7.5-72.5q3-33.5 3-53.5 0-30-8-61t-32.5-51.5Q925 117 878 117q-39 0-61.5 18T784 181q-10 28-12.5 60t-2.5 59q0 20 3 48.5t6 59.5q3 31 6 60.5t3 51.5q0 22-4 50t-16 53.5Q755 649 732 666t-60 17q-49 0-70.5-20.5t-27-52.5q-5.5-32-5.5-68 0-22 5.5-67t11.5-92q5-42 10-79t5-51q0-29-8.5-61T560 138.5Q536 117 489 117q-35 0-56.5 16.5t-33 43Q388 203 384 234t-4 60q0 20 3.5 51t7.5 64q4 35 7.5 67t3.5 55q0 31-11 66.5T353.5 658Q327 683 279 683q-66 0-101-47.5T143 511q0-37 14-91.5T187 308q16-55 29-105t13-82q0-43-30-72.5T108 19q-35 0-55.5 8T22 45.5Q12 56 9 64h30v13H19q6 5 26 12.5T98 97q13 0 26.5-4.5T152 88q13 0 28 10t15 38q0 29-11.5 70.5T158 294q-17 55-31.5 111T112 508q0 58 17 104.5t53.5 74Q219 714 276 714zM99 59q-16 0-16-14 0-16 16-16 14 0 14 16 0 14-14 14z" fill="currentColor"/></svg>