<svg xmlns="http://www.w3.org/2000/svg" viewBox="0 0 595.3 417.5"><path d="M39.7 19.3c-1.1 0-2.1.1-3.2.3-8.4 4-11.4 8.2-9 12.6 1.2 3.2 5.2 5.4 12 6.6 1.4.2 2.6.4 3.9.4 4.9 0 8.6-1.9 11.1-5.7 3.2-4.8 2.1-8.5-3.3-11.1-4.2-2.1-8-3.1-11.5-3.1zm-1-4.6c6.7 0 14.7 2 24.1 6.1 9.9-1.8 19.3-2.6 28.2-2.6 13.4 0 25.6 2 36.7 5.9 18.5 6.6 31.2 23.7 38 51.5 6.8 27.7 1.3 55.2-16.5 82.6-17.7 27.3-32.6 54.7-44.6 82.3-20.3 47.9-30.5 83.2-30.5 105.9 6.9 10.4-9.5 32.6-28.1.9 6.4-96.2-27.6-218.4 37.7-297.1 9.4-3.6 23-5.4 40.6-5.4 1.8 0 3.6 0 5.4.1 4.4-.4 4.8-2.8 1.2-7.2-7.4-2-15-2.9-22.7-2.9-16 0-32.8 4.2-50.2 12.5-5.8 1.1-11.1 1.7-15.7 1.7-14.6 0-23.2-5.8-25.6-17.3 3.5-11.4 10.8-17 22-17zM43.9 0c-13.6 0-25 3.9-34.3 11.8C3.2 18.2 0 24.7 0 31.5c0 8.8 5 16.2 15 22.1 7.9 4.7 15.9 7.1 24 7.1 2.2 0 4.3-.2 6.5-.5C-3.2 133.6 25.4 258.5 22.7 348c7.1 67.9 63.8 69.9 129.2 69.4 62.2 0 93.3-26.9 93.3-80.8L228.9 220c0-21.5 24-32.3 40.3-32.3 16.4 0 35.6 10.8 35.6 32.3l-16.1 116.7c0 53.8 25.8 80.8 67.3 80.8h.9c40.5 0 60.7-26.7 60.7-80.2l-10.1-116.7c0-21.5 18.3-32.3 34.6-32.3 16.4 0 35 10.8 35 32.3l-10.4 116.7c0 53.5 20.2 80.2 60.7 80.2h.9c11.6 0 33.9-8.6 67-25.7-5.6-10.2-14.2-15.2-25.8-15.2-1.6 0-3.3.1-5 .3-14.2 1.6-26.2 3-36.2 4.2-16.8 0-25.1-14.6-25.1-43.7l10.4-116.7c0-46.3-30.8-69.4-71.5-69.4S371 174.4 371 220.7l10.1 116.7c0 29.1-8.4 43.7-25.1 43.7v-.6c-16.8 0-30.2-14.6-30.2-43.7L341.9 220c0-45.9-31.6-68.8-72.7-68.8-46.7 0-80.4 22.9-80.4 68.8l15.8 116.7c.5 44.7-79.6 51.1-92.1 23.2-10.4-6.8-12.6-33.2-2.2-66.1s30.2-71.4 57.3-113.3c27.1-41.9 30.2-79.4 20.3-112.5-10-33.1-26.4-52.6-49.4-58.3-16.2-4.1-32.1-6.1-47.6-6.1-6.4 0-12.8.4-19.1 1.1C61.7 1.5 52.4 0 43.9 0z"/></svg>