<svg xmlns="http://www.w3.org/2000/svg" viewBox="-10 0 1118 636"><path d="M219 636q-42 0-78.5-14T82 574q-22-34-22-96 0-27 1-49.5t1-44.5q0-22-3.5-46T48 294q-5-14-8.5-28T36 233q0-31 8.5-59T75 123q-7 1-12.5 1.5T52 125q-19 0-40.5-8.5T-10 87q0-17 12-35.5t37-32Q64 6 102 6q33 0 55 12.5T194 43q17 15 37.5 37.5t34.5 49q14 26.5 14 52.5 0 52-20.5 93.5T213 364q-20 37-34.5 68.5T164 497q0 33 14 51t48 18q40 0 61.5-22t29.5-53q8-31 8-58 0-20-3.5-53.5T314 313q-4-32-7.5-64t-3.5-53q0-33 4.5-67t18-63.5Q339 36 364.5 18T431 0q56 0 84 24.5T553 85q10 36 10 70 0 17-5 53.5T548 288q-6 47-11.5 91.5T531 444q0 31 4.5 59t22 45.5Q575 566 614 566q31 0 50.5-15t29-37.5q9.5-22.5 13-47T710 422q0-20-3-49.5t-6-60.5q-4-31-6.5-59.5T692 202q0-30 3-65t14.5-66Q721 40 747 20t73-20q56 0 84.5 23.5t38 59Q952 118 952 152q0 22-3 56t-7.5 73q-4.5 39-9.5 76-5 41-8.5 72.5T920 472q0 56 18.5 79.5T984 575q33 0 55-6.5t54-19.5l15 26q-17 22-51.5 41.5T983 636q-46 0-75.5-22T864 554.5Q850 517 850 472q0-22 5-61t10-79q6-45 11.5-90t5.5-73q0-43-11.5-71T822 70q-29 0-41.5 19T765 136q-3 28-3 53 0 18 2.5 48.5T771 301q3 34 5.5 64.5T779 415q0 16-2 43t-9.5 57.5q-7.5 30.5-24.5 58t-47.5 45Q665 636 618 636q-56 0-88-19t-46.5-48.5Q469 539 465 506t-4-61q0-29 5.5-71t11.5-83q5-37 10-69.5t5-51.5q0-43-13-71.5T435 70q-32 0-47 34.5T373 187q0 16 3 43t7 57q4 36 8 73t4 64q0 59-16.5 99.5t-43 65.5q-26.5 25-57 36T219 636zm0-20q36-1 72-19.5t60.5-60.5Q376 494 376 424q0-26-4.5-62.5T363 289q-4-31-6.5-58t-2.5-44q0-56 19-96.5T435 50q43 0 60 34.5t17 85.5q0 21-4.5 54t-9.5 70q-7 42-12 83t-5 68q0 25 3.5 54.5t16.5 56q13 26.5 40.5 43.5t76.5 17q41 0 68-16t42-41q15-25 22-53t8.5-52.5Q760 429 760 415q0-18-3-48.5t-6-63.5q-3-33-6-64t-3-50q0-30 4.5-62.5T768 72q17-22 54-22 50 0 64.5 33t14.5 86q0 31-5 75.5T884 335q-5 41-10 78.5t-5 58.5q0 59 27.5 101.5T983 616q32 0 60-12.5t43-28.5l-2-4q-23 10-44 17t-56 7q-35 0-59.5-29T900 472q0-13 3.5-42.5T912 354q5-37 9.5-76t7.5-72.5q3-33.5 3-53.5 0-30-8-61t-32.5-51.5Q867 19 820 19q-39 0-61 18t-32 46q-10 28-12.5 60t-2.5 59q0 20 2.5 48.5T720 310q4 31 6.5 60.5T729 422q0 22-4 50t-16 53.5Q697 551 674 568t-60 17q-49 0-70.5-20.5t-27-52.5q-5.5-32-5.5-68 0-22 5.5-67t11.5-92q6-42 10.5-79t4.5-51q0-29-8.5-61T502 40.5Q478 19 431 19q-35 0-56.5 16.5t-32.5 43Q331 105 327 136t-4 60q0 20 3 51t8 64q4 35 7.5 67t3.5 55q0 31-11 66.5T297.5 560Q272 585 227 585q-40 0-61.5-21.5T144 496q0-36 17-73.5t33-66.5q23-40 44.5-81.5T260 182q0-40-25.5-69.5T181 58q-14-12-32-22t-47-10q-33 0-53.5 11t-30 25Q9 76 9 87q0 8 9 12t20.5 5.5Q50 106 56 106q7 0 18.5-2t22-4.5Q107 97 110 96q9-3 18.5-4t18.5-1q9 0 18 1t17 4l-4 20q-18-5-31-5-8 0-15.5 1t-16.5 4q-38 16-49 49t-11 68q0 17 3 30.5t8 25.5q9 23 12.5 47t3.5 48q0 26-1 49t-1 45q0 54 19 83.5t50.5 42Q181 616 219 616zM66 73q-12 0-12-11 0-12 12-12 11 0 11 12 0 11-11 11z" fill="currentColor"/></svg>