<svg xmlns="http://www.w3.org/2000/svg" viewBox="-10 0 1394.111 1064"><path d="M475 1064l-14-20-12-3-15-7q-10-7-18.5-16.5T405 1006l-10-4-1 14-23 5-25-36-2 11-26 1-24-59-9 13-15-1-12-44h-23l-6-67-8 10-15-2q-1-12-2-31t-1-34q0-38 16.5-70t59.5-39q-7-15-10-31-26-6-46-17-6 5-25.5 13t-48.5 8q-16 0-40.5-5t-50-16.5Q33 613 14 596t-24-40q5-22 23-40t41.5-31Q78 472 101 465t39-8q29-2 49.5 4.5T216 471q10-5 20.5-10.5T260 451q2-17 9-33-38-4-57-32t-24-63q-3-15-5-34t-3-31l15-4 9 9-4-67 22-5 5-45 15-3 11 12 15-62 26-4 3 12 19-41 24 2 3 14 9-6 9-13.5L376 38q7-7 14-9.5t11-4.5l11-22 19-2 5 27 26-23 19 10-12 28 31-17 11 15-21 25 29-6 4 20-64 33q-32 58-52 102t-28 74q9-6 26-18t33.5-22q16.5-10 24.5-10 8-1 12.5.5l7.5 2.5q14-11 34.5-22t33.5-13q8-1 14 1t10 5l4-5q4-5 20-9.5t34-8.5q18-4 29-5t17 1q6 2 10 4 9-7 25-10.5t41-5.5q14-1 24.5 3t16.5 8q7-6 19-9.5t23-4.5q23-2 38.5 3t23.5 9q5-5 14-9.5t23-6.5q12-2 23 0 7-9 26-27t44-32q19-11 43.5-21.5t46-19Q1141 58 1152 53l67-50 15 13-4 10 1 2 15-6 9 21-7 5 1 2 8-1 2 18-13 11v2l11 1 2 18-9 2v2l9 3q0 4-1 12t-4 18q-7 26-36 45t-54 30q13 9 25.5 20t22.5 22q25 7 47 24.5t39 37.5q17 20 26 35 11 18 25 48t24 58q10 28 11 41t-7 42q-8 29-19 59t-20 50q-8 16-23.5 37.5t-35.5 41q-20 19.5-44 28.5-8 10-19 21.5t-23 21.5q16 5 38.5 14.5t42 23.5q19.5 14 25.5 32 8 22 8 30l-9 3v3l10 1v18l-12 2v2l15 10-1 18h-9v2l8 4-8 22-16-5-1 2 6 10-14 14-71-45q-12-3-34-10t-47-15.5q-25-8.5-45-17.5-29-14-50-31t-27-25q-15 5-34 5-14 0-23.5-3.5T930 853q-7 5-23 11t-38 6q-10 0-22.5-2.5T826 860q-6 4-15.5 9.5T787 875q-25 0-41.5-2t-27.5-9q-3 3-9 5.5t-17 2.5q-11 0-29-2.5t-34-6q-16-3.5-21-7.5l-4-4q-4 3-9.5 5.5T581 860q-13 0-35-10t-36-20q-3 2-7.5 4t-12.5 2q-7 0-25.5-9t-37-19.5Q409 797 400 792q13 28 39 67t65 89l68 23v20l-30-2 25 21-9 18-33-12 17 25-18 13-29-19-1 28zm-27-964q7-4 21-10t25-11v-2l-24 5-6-14 18-14-1-2-20 9-13-7 13-24-3-1-15 22-17-1-4-29-2-1-3 18q-5 0-12.5 1.5T392 45q-10 9-19 23 20 4 41 14t34 18zm775 50q4-4 7-9.5t5-10.5q2-7 2.5-10t1.5-5h-8l-2-18 9-5-1-2h-10l-2-15 13-9-1-2-12 2-8-17 13-8-1-2-9 4-9-8 4-10-1-2-45 37q16 20 31 44t23 46zm-127 50q7-4 20-6 5-1 11 .5t13 3.5q24-8 44-19t23-15q-5-23-21.5-48T1153 73q-24 9-58 23.5t-55 27.5q-20 11-35.5 24T981 171l8 4q3-2 7.5-3t9.5-2q13-1 41 8t49 22zM276 400q17-33 31-50 8-10 21-23t27-23q6-30 26.5-80T435 114q-12-8-32-17.5T364 84l-22 14h-11V83l-4 1-33 61-8-1-2-26h-3l-19 78-13-1-3-13h-3l-4 58h-12l-4-22h-3l8 87-10 2-13-22h-2q1 7 2 18t2 17q1 4 1.5 9t2.5 10q3 11 10.5 25t20.5 25q13 11 34 11zm700-163q-1-8-2-18.5t0-13.5q0-8 3-14-5-2-14.5-4.5T939 185q-12 1-17 4t-6 5q-2 2 0 17t3 21q16 0 30 1.5t27 3.5zm-138 2q7-1 19.5-2.5T882 234q4-1 8.5-1h8.5q-1-5-1.5-12t-1.5-19q-5-4-19-9t-37-4q-11 1-23 4t-12 7q2 10 8 20t7 12q5 2 9.5 3.5t8.5 3.5zm230 22q1-7 3.5-16t3.5-13q2-8 8-17-20-11-42.5-19t-33.5-6q-7 1-10 6t-3 11q0 4 .5 17t1.5 18q13 4 23.5 9t18.5 9q3-1 5.5-1.5t6.5-.5q7 0 18 3zm-361-29q20-5 43.5-5.5t44.5.5q-8-13-9-25v-1q-2-1-9-5.5t-20-3.5q-26 2-40 4.5t-18 8.5q0 9 3 16t5 11zm-95 23q16-7 36-12t40-9q-6-10-9-27-1-1-4.5-3t-11.5-1q-10 1-25.5 4t-28.5 7q-13 4-16 6-4 4-3 8 0 8 8.5 15t13.5 12zm546 58l38-51q-17-16-40-33t-39-16q-10 1-16 9.5t-7 14.5q-7 16-7 32 14 7 31 17.5t40 26.5zm-636-32q17-7 33.5-12.5T588 259q-5-5-10-11t-9-14q-1-3-5-6t-11-2q-12 1-31.5 9.5T495 252zm201 131q8-4 31-16t63-17q0-26 1.5-59.5T826 255q-20-8-45.5-8.5T724 249q-29 3-56 8.5T622 271q0 5 3.5 25.5T632 335q2 15 5.5 37.5T644 410q19-2 42.5-.5T723 412zm194-13q9-3 38-12.5t56-12.5q1-9 2.5-28t2.5-36q1-17 2-21 1-5 1.5-8.5t2.5-7.5q-17-8-44-14.5t-58-7.5q-9 1-18.5 1t-18.5 2q-13 1-22 2t-15 1q-5 27-7 61t-2 59q26 1 46 8t34 14zm-476-69q26-23 63-40l-31-32q-1-1-8-1-5 1-17.5 8t-26 16q-13.5 9-22.5 16 4 5 10 10.5t10 8.5q6 5 12 8.5t10 5.5zm781 79l82-55q-12-21-38.5-46.5T1212 273l-41 53q16 16 24.5 32t15.5 35q2 4 5.5 8t5.5 8zm-704 48q19-10 50-24t57-20q-3-13-6-29.5t-4.5-30Q613 340 612 338q-2-11-4.5-29.5T603 277q-32 5-68.5 19.5t-66 36Q439 354 426 380q-6 13-9 32t-3 32q7-3 17-3 16-1 44 5t43 11zm577-63q12-3 29-5.5t33-3.5q8-1 15-1.5t15 .5q-8-17-20.5-33t-32.5-31q-22-16-48.5-30t-34.5-13q-8 1-10 5t-3 9q-1 4-2.5 20.5t-3 34.5q-1.5 18-1.5 28 18 2 36 9t28 11zm-799 9q30-18 65.5-29t54.5-15l10-14-10-6-10-8q-13-10-22-23-15 8-33 24.5T322 363q-5 5-12.5 16T296 403zm1030 225q9-17 18-43.5t15-51q6-24.5 5-36.5-1-11-8.5-35t-19-50q-11.5-26-21.5-42l-84 58q9 27 11 47 1 11 1 18v11l.5 10.5q.5 10.5.5 16.5t-1.5 22.5Q1241 570 1237 579zM314 523l5-3 34-3 1-6q1-8 9.5-27t30.5-31q0-10 2.5-31.5T404 382q-20 5-48.5 14.5T304 421q-8 5-13.5 13.5T283 450zm718 109q12-1 30-8.5t31-14.5l-8-100v-23l-.5-42.5q-.5-42.5-.5-32.5-13-6-31.5-12.5T1021 393q-21 1-44.5 8T938 412l7 103 2 105q16 4 40 8.5t45 3.5zm-192 12q24 0 48.5-11t38.5-21v-31.5l-.5-41q-.5-41-.5-23.5-2-23-4-53t-3-41q-15-9-40.5-17.5T829 398q-41 3-63 13.5T737 426l4.5 22.5L745 473q1 9 0 27.5t-2 23.5q0 2 2 12.5t3.5 22Q750 570 750 576q0 12-1.5 25t-2.5 23q7 4 30 12t64 8zm328-35q21 0 36-3 13-17 17-38t4-37q0-9-1-16.5t-1-11.5v-11l-1-15q-1-17-7.5-37t-20.5-37q-7-1-16-.5t-19 1.5q-30 3-56 8l1 97 8 96q12 1 27 2.5t29 1.5zm-516 20q14 0 36.5-3t38.5-6q1-7 2.5-19t1.5-25q0-6-3-24.5t-4-26.5q1-6 2-24.5t0-25.5q-1-12-3.5-24.5T718 431q-16-1-38.5-2t-36.5 1q-16 1-37.5 8.5t-42 17.5Q543 466 529 473l-4 60 9 63q15 6 36.5 14t44 13.5Q637 629 652 629zm-212-12q11 0 34.5-7t40.5-14q-2-15-5-30.5t-4-31.5l3-59q-18-5-41.5-10.5T433 460q-22 2-35 12.5t-19 22q-6 11.5-6 16.5 0 11 .5 18t.5 10q0 15 2 33 0 5 7 16t21.5 20q14.5 9 35.5 9zm-162 11l17-65q-5-9-6-20 1-3 2-7t3-9l-23-63q-19 3-35.5 14.5T212 500l6 46-2 51q8 10 25.5 19.5T278 628zm-84-138q4-2 5-5-8-3-23-7t-34-2q-5 1-12 1.5t-14 2.5q25 2 45 5t33 5zM60 527q13-12 31-17.5t33-6.5q13-1 29-1h29q-17-4-41-7t-54-6q-28 11-49 26zm69 56q15 0 36.5-2.5T197 577l3-27-5-28q-10-1-32-1t-37 1q-11 1-25.5 4t-25 9.5Q65 542 64 554t11 18.5q12 6.5 27 8.5t27 2zm-104 1l24-14q-4-8-4-17 0-5 3-11l-25-12q-11 13-14 27 3 14 16 27zm301-35h28v-13l-28 3-18 3-1 2 1 1zm93 148q-8-17-12-38.5t-6-30.5q-22-10-33-28t-12-27l-1-5h-34l-5-3-25 75q3 8 9.5 16t15.5 12q24 11 52.5 18.5T419 697zM92 618q61-9 95-20-13 2-29 3t-29 1q-16 0-34-4t-32-14l-22 13q22 15 51 21zm1141 117q26-12 50-39.5t34-49.5l-87-48q-1 4-4 8.5t-5 8.5q-5 19-12.5 36t-20.5 34zM149 627q19 0 33.5-5t22.5-9q-2-1-3-2l-3-3q-25 9-76 17 7 1 14 1.5t12 .5zm477 158q1-13 1.5-31.5T629 723q0-3 1-16t2-30q1-17 3-30-26-4-58.5-15T525 613q-15 5-41.5 14t-43.5 9h-9l-9-1q1 12 6 31t13 32q14 25 46 43.5t69 29.5q37 11 70 14zm447-41q8 0 33-16t45-33q19-17 29.5-34t16.5-34q-7 1-14.5 1H1168q-17 0-33.5-1t-28.5-3q-10 6-27.5 14t-34.5 12q1 10 4 28t6 34q3 16 4 20 1 5 3.5 8.5t11.5 3.5zm-166 39h18.5l18.5-1q30-3 56.5-12t42.5-19q-3-7-5-15-1-4-4-21t-6-36q-3-19-4-28-28 0-57.5-7t-38.5-9q-13 9-33 17.5T850 663q2 26 6.5 59.5T869 782q6 1 15.5 1zm-158 19q32 0 57-2.5t44-12.5q-8-31-12.5-64t-6.5-59q-41-2-65.5-11T733 639q-13 2-36 5.5t-43 3.5q-1 16-2.5 38.5L649 724q-2 19-3 39.5t0 25.5q18 6 46.5 9t56.5 4zm-344-29q4-7 9.5-13.5T425 748q4-5 9-8.5t9-6.5q-2-4-5-7t-6-7q-19-2-55-9.5T309 687q8 12 16 22t13 15q12 13 31.5 27.5T405 773zm-27 224l4-1-3-14 12-2 24 10q18-5 36.5-17.5T481 950q-42-54-70-100t-39-75q-13-8-26-18t-22-19q-6-7-16-19.5T289 691q-25 1-38.5 14T231 734.5q-6 16.5-7 28.5-1 4-1 9v10q0 6 .5 17t.5 18l3-1 8-23h11l6 88h2l1-24 12-1 13 56h3l1-13 12-3 32 73h2l-1-25 7-3zm766-195q15 0 36.5-19t36.5-37l-42-47-11 10q-27 22-56 40 1 6 4 15.5t6 16.5q2 5 8.5 13t17.5 8zm-654 14q8 0 12-4l23-31q-18-7-35-16t-30-20q-5 3-10.5 7t-10.5 9q-4 4-9 10.5t-9 10.5q10 6 24 14t27 14q13 6 18 6zm546 20q11 0 33-10t40-23q-3-4-5.5-8t-3.5-8q-1-4-4-12.5t-5-15.5q-13 5-18 5-4 0-7-.5t-5-.5q-8 5-18 11t-23 10q0 6 .5 18.5t.5 16.5q0 6 4 11.5t11 5.5zm-455 4q7 0 10.5-3.5t4.5-6.5q1-4 3-7.5t5-7.5q3-6 9-12-16-1-33.5-5.5T545 787l-24 32q7 7 27.5 14t32.5 7zm387 6q14 0 23.5-3t13.5-5q-1-3-1.5-7t-1.5-8q-1-3-1-13.5V791q-13 4-26.5 6.5T944 802q-1 7-1.5 19.5T944 840q2 6 24 6zm-99 5q22 0 36-7t19-11v-19l1-12q-4 1-9 1h-9q-12 0-24-.5t-20-.5l-8 4-9 4q-1 2-6 12.5t-5 20.5q0 4 12 6t22 2zm-177 1q16 0 16-4 1-8 3-15.5t3-12.5q-20-2-40.5-5.5T637 805q-2 2-7.5 8.5T620 826q-3 4-3 8 0 5 4 8 3 2 16.5 4.5t29 4Q682 852 692 852zm513 88q14-20 28-46t18-50q-4-4-28.5-14.5T1170 813q-13 9-26 9-12 0-20-5-20 14-47.5 26t-40.5 12q-8 0-14-2 7 8 24.5 21.5T1087 899q23 11 58 22.5t60 18.5zm-418-85q12 0 19-5t9-7q0-7 2-14t4-12q-16 3-34 3.5t-38 .5h-15q-1 3-4 10.5t-2 15.5q4 6 18.5 7t40.5 1zm483 129l1-1-6-10 9-9 9 3 1-2-13-7 5-17h13v-2l-13-7v-15l11-2v-2l-9-4 1-18 7-1q0-3-5-14-4-10-13-19-6 23-19.5 48.5T1221 951zm-790 61l3-1-1-29 16-4 19 20 2-2-16-22 11-9 21 6 1-2-19-11 3-15 24 1v-2q-11-2-26-6t-22-7q-13 10-32 23t-38 21q5 4 11 9.5t11 8.5q6 3 13.5 3.5t12.5-.5z" fill="currentColor"/></svg>