<svg xmlns="http://www.w3.org/2000/svg" viewBox="0 0 464.6 357.2"><path d="M146 9.2c-2.6 7.9.6 9.2 4.5 9.2 1.8 0 8.4.1 8.6 1.4-1.8 5.8-5.7 13 1.4 13 .7 0 1.5-.1 2.5-.2-3.5 4.9-9.2 7.2-12 7.1-6.5-.3-25.1-14.4-25.8-14.3 3.3-10.1 12.4-11.5 20.8-16.2zm258 7.7c-5.6 6.1-3.4 7.1.5 7.1 2 0 4.5-.3 6.6-.3 4.6 0 7.6 1.2 1.1 9-2 3.9 1.4 4.2 5.1 4.2h2.3c4.8 0 8.7.5.9 8.8-2.6 4.8-5.6 6.8-8.5 6.8-9.9 0-19.5-22.3-15.3-32.1 2.1-1.6 4.8-2.5 7.3-3.5zM389 22c-8.3 13.8 15.5 30 10 35.5-8.1 4.5-14 10.2-21.3 10.2-2.9 0-40.8-7-35.1-17.2C354.4 32.4 369.9 28.3 389 22zM262.5 59.9c3.3 6.5 6.5 13 9.8 19.6-1.3-.2-14.9.7-20.1.7-7.1 0-13.2-1.8-15.8-10.1-13.2-13.3 19.2-7.6 26.1-10.2zm13.3-1.4c1.4 0 16.5.2 17.5.2 7.4 0 5.9 12 9.1 17.7 1.5 3-3.7 4.7-9.7 4.7-6.3 0-13.5-1.9-14.4-6.2-3.1-6.8-10.7-16.4-2.5-16.4zm-52.1 5.8c3.7 6.5 14 16.5 5.4 16.5-1.5 0-10.2.7-12.7.7-9.6 0-22.4-6.9-15.6-12.1 7.6-2 15.2-3.8 22.9-5.1zm90.5-6c9 0 13.7 4.5 11.4 16.4 2.9 6-.7 8.7-5.3 8.7-5.1 0-11.3-3.3-10.8-8.9l-4.5-15c3.4-.8 6.5-1.2 9.2-1.2zm18.7 5.1c16.8.2 30.9 4.3 22.6 23.6.1 1.7-1.7 2.4-4.4 2.4-6.4 0-17.6-4.1-17.7-8.5 0-5.7-1.3-12.7-.5-17.5zm-145.7 5.5c18.6 14.5-8 23.6-8.7 23.6-5.3 0-9.5-9.1-14.5-11.6 8.3-3.1 14.7-9.5 23.2-12zm-31 15c2.9 4.8 17 10.8 12.4 14.7-6.2 4-12.5 8.4-18.7 8.4-3.6 0-7.1-1.5-10.5-5.4-20.8-7.3 10.9-12.6 16.8-17.7zm208.3-10c9.8 2.1 39.5 11.8 29.5 26.9-1.8 6.2-4.1 8.5-6.9 8.5-6.6 0-15.7-12.8-24.6-15.2.5-7.7.9-12.6 2-20.2zm-75.9 13.7c18 2.3 36.8-2.6 49.5 7.8-1.7 9.6 1.3 20.6-.4 30.1-3.5.3-9.1.6-15.4.6-16.1 0-36.2-1.7-34.4-8.4.1-10.3.7-19.9.7-30.1zm-10.8-.8v36.1c-9.3 2.7-31.6 6.4-46.4 6.4-8.2 0-14.1-1.2-13.8-4.4-1.9-13.9-2.5-19.6-4.4-33.4 22.4-.2 42.1-4.5 64.6-4.7zm73.2 14.1c10.4 5.3 23.5 9.9 32.7 20.1 9.9 6.9 12.7 10.1 5.6 10.1-1.7 0-27.2-1.8-34.7-5.5-10.6 0-4.5-19.5-3.6-24.7zM114.5 39.6c1.7 0 9 .2 10.4.2 16.2 0 15.2 12.3 11 25.1-6.9 15.4-20.7 31.1-27.5 46.2 3.8-3.3 10.8-8.3 16.9-8.3 2.6 0 5 .9 6.9 3.2 10 7.8-27.4 25.9-32.1 25.9-7 0-12.8-4-17.6-8.3-7.1-6.4-10.4-19.2-7.5-19.2.5 0 1.1.3 1.9 1.1 1.1-5.8-1.6-19.3 1.1-19.3.9 0 2.5 1.6 5 5.5.6.7 1.1 1 1.4 1 3.7 0-1.5-29.5 1.7-29.5h.1c.8.9 1.5 1.3 2.2 1.3 4.6 0 7.9-16.7 11.5-21 5.7-2.4 9.5-3.9 14.6-3.9zm294.8 53.9c10.9 6 36.1 22.8 29.4 33.1-8.4 4.8-16.8 9.6-25.3 14.4-1.5-12.2-26.5-18.3-16.8-30.2 4.3-7.1 8.5-10.1 12.7-17.3zm-205.6-6c2.2 15.5 4.3 31 6.5 46.5-12.6 2.6-27.3 11.2-50.4 11.2-3.5 0-7.2-.2-11.1-.6.9-9.8 6-17.6 6.9-27.5 17.4-8.9 30-19.6 48.1-29.6zm-62.8 34.2c-1.4 9.5-3 16.4-5.5 25.3-7 7-11.2 15.8-21.5 17.7-.5.3-1.1.4-1.7.4-8.1 0-18.1-23.9-4.2-24.4 12.9-4.8 20.6-12.8 32.9-19zm-80.1 33.1c9.1 0 16.7 10.3 3.7 11.1-12.6 2.1-25.4 6-38 7.1-20.2-3.2 8.8-13 16.1-15.3 4.3-1.1 8.7-1.7 13.1-1.7 1.8-.8 3.5-1.2 5.1-1.2zm61.2 27.4c-5.8 0-17.7-6.2-3.8-8.1l4.9-3.4c.1 0 3.4 11.5-1.1 11.5zm-50.5-10.1c-1.7 5.1 4 17.7-2.8 17.7h-.4c-12.7-.2-25.4-.3-38.1-.5-2.7-9.8 5.4-10.3 13-11.4 9.4-2 18.9-3.9 28.3-5.8zm-60 3.2c7.7 1.9 14.6 4.3 11.3 13.6-2.1 4.3-6.3 7.2-9.7 7.2-3.5 0-6.4-3-5.7-10.3-.2-3.9 1.7-7.6 4.1-10.5zm141.1-20.8l19.6.2c2.2 14.6 4.5 29.2 6.7 43.8-5.5.9-12.9 2-20.2 2-12.3 0-24.5-3-27.2-14.5-2.5-12.4.2-22.7 10.7-29.8 3-1.4 6.6-1.7 10.4-1.7zM344 132.4c6.7 2.2 10.2 4.3 16.9 6.5.2 22.2-1.3 44.5-1.2 66.7-3.9.3-7.4.5-10.9.5-7.9 0-15.4-.8-25.6-1.8-.9-22.4-1.9-45.6-2.8-68 7.5-.7 22.1-3.2 23.3-3.1l.3-.8zm97.9 1.3c8.8 25.2 10 46.8 5.2 72.7-13.4-8-28.9-9-25.5-27.2 2.4-12.9-8.1-29.6 1.8-35.3 7.5-4.3 11-5.9 18.5-10.2zm-39.6 3.5c12.9 18.7 14 45.8 4.5 65.9-2.7 2.3-8.1 3.3-13.9 3.3-9.1 0-19.1-2.4-21-6.2-.1-20.6-.3-41.2-.4-61.8 10.3-.3 20.6-.7 30.8-1.2zm-180.4 3.5c1.8 0 7.6.3 8.7.3 5.8 0 13.2 1.9 13.6 24.6.9 22.2-.2 19.2.8 41.3-5.7.5-11.1.9-16.2.9-13.5 0-25.3-2.5-38.5-10.8-2.3-14.9-4.6-29.8-6.8-44.8 13.8-4.7 24.3-11.5 38.4-11.5zM26.6 196.6l45.3.6c2.2 9.4-4.5 11.1-12.8 11.1-5.1 0-18.1-.6-19.2-.4-7.7-1.9-32-2.3-13.3-11.3zm69-42.1l5.7 55.2-19.7-6.1-.6-43.3 14.6-5.8zM280.7 132c9.9 2.4 18.5 2.8 28.4 5.2 1 23.6 3.3 42.4 4.3 66-11.1 4.8-22.6 8.5-34 8.5-7.4 0-14.8-1.6-22-5.4-.9-22-2.6-44.6-3.5-66.6 9.4-3.2 17.2-4.8 26.8-7.7zM124 190.3c6.8 9.4 23.4 36.5 20 36.5-1.6 0-27-6.4-36.9-8.8 2.5-9.8-2.1-27.1 9.1-27.1 1 0 7.3 1.4 7.8-.6zm256.9 22.8c10.8 0 20.3 2 8.8 10.8-9.5 7.5-13.2 21.6-26.5 22.5-.5.2-.9.2-1.4.2-9.2 0-11.6-32.2.7-32.2h.3s9.4-1.3 18.1-1.3zm34.3-10c11.8 7.8 40.8 7.1 19.4 24.7-5.9 6.4-10.4 19.1-16.5 19.1-2.6 0-27.5-18.3-10.1-33.2 2.5-3.4 5.7-6.5 7.2-10.6zm-87.8 14.5c10.1 0 18 2.2 16 9.9.1 7.9-1.8 13.7-1.6 21.6-17.7 2.8-26.9 5.1-45.6 7.7.2-13.3-2.9-21.9-2.7-35.2 5-.5 21.2-4 33.9-4zm-107.3 0l-6.6 44.1c-17-9.1-38-9.3-50.3-23.6-2.4-9.2-16.1-28.4-10.5-29.7 3.5-.2 61.6 3.8 67.4 9.2zm171.8 15.3s27.3 18.5 8.5 25.9c-5.3 4.3-11.8 2.2-15.1 5.5-9.8-10.6-7.9-17.7 2.3-26.3l4.3-5.1zm-106 .7c-.2 9.6-.3 19.2-.5 28.8-14.4.9-26.5 4.2-39.5 4.2-5.7 0-11.5-.6-17.8-2.4-5.8-2.4 3.1-36.3 4.6-45.8h.8c3.3 0 51.1-6.1 52.4 15.2zM161.8 251c10 4.2 30 5.7 14.2 16.7-1.4 4-4.6 5.4-8.4 5.4-8.5 0-19.9-7.5-20.1-10.3 4.8-3.9 9.5-7.8 14.3-11.8zm29.5 10.6c14.3 1.7 21.5 5.1 13.9 21-11.1 1.2-25.7-2.1-13.9-21zm164.9-4.5c3.2 0 6.7.4 9.4.4 1.1 0 2-.1 2.8-.2 12.8 13.1-2.3 17.8-14.9 22.3-2.3 1.7-3.9 2.5-5 2.5-4.6 0 .1-13.2-1-18.2-1.3-5.8 3.3-6.8 8.7-6.8zm-138.8 13.3c6.6 4.7 25.1.1 21.9 8.2-.3 6-.2 10-4.3 10-6.1 0-20.5-.8-20-3.6l2.4-14.6zm122.9-10.1c-.4 7.9-2.2 11.1-2.6 19-18.9 5.1-30.3 7.4-49.3 8.2l2.6-18.2c16.7-1.9 32.9-6.2 49.3-9zm-59.9 11.6l-2 16.7c-.5 3.8-30.2 2.6-29.7 1l3.7-13.9c.4-1.8 25.3-2.9 28-3.8zm121.6 4.9c.6 0 18.4 2.6 9.3 18.6-4.6 7.9-9.2 11.1-15.6 11.1-6.9 0-15.8-3.7-29.1-9.3-11.5-11.2 8.3-16.2 15.2-22.1.6-.1 16.6 1.7 20.2 1.7zm23.3 8c10.8 6.1 14 11.6.9 15.2 5.6 6.7 16.3 16.1 8.7 16.1-1.6 0-9.1-1.8-9.7-1.8-4.9 0 1.9 9.4-.2 9.4-.8 0-2.6-1.2-6.5-4.3-19.1-4 13.8-20 6.8-34.6zm-315.7-53.5c12.9 0 29.2 4.5 41.5 7.4 10.3 9.9-5.2 13.9-10.5 20.2-1.7-.8-3-1.2-3.9-1.2-3.6 0-1.5 6.1.2 13.3 2.6 15.1 12.9 23.1 20.6 35.7 8.3 9-2.5 23-12.6 23-3.1 0-6.1-1.3-8.5-4.4-.7-1.2-1.3-1.7-1.8-1.7-2 0-2.8 7.5-4.9 7.5-1 0-2.3-1.6-4.1-6.3-3.3-3.5-8.8-10.3-9.9-10.3-1.3 0-2.1 1.7-2.2 6.4-4.1-8.9-10.3-25-13.8-19.6-.1.1-.3 0-.4.1-1.1-6.8-2.7-17.1-4.5-16-1.2.6-3.1 1.6-5.7 5.6-2.5-5.4-1.7-21.8-5.2-21.8-1 0-2.2.4-3.7 1.2-1.8-16.7 0-30.2 21.3-38.3 2.4-.6 5.2-.8 8.1-.8zm61.4 84.8c10.9 5.2 17.5 6.9 11.2 12 1.7 1.9 1.3 2.4.1 2.4-1.3 0-3.5-.6-5-.6-1.9 0-2.7 1 1.4 5.4 2.7 3.6 2.2 4.5.4 4.5-1.7 0-4.6-.8-7-.8-2.9 0-5.2 1.2-3.6 6.6 0 1.7-1.2 2.4-3.2 2.4-8.3 0-28.7-12.7-12.4-12.7h.6c8.4-3.2 14.7-10.8 17.5-19.2zM148.9 0c-12.8 4.3-27.9 6.6-34.7 18.2-9.2 7.2-16.1 10.6-23.4 15.1-1.2 3.3-1.2 16.2-9.3 16.2-.7 0-1.4-.1-2.3-.2h-.7c-2.3 9.6 2.4 17-3.7 17-1 0-2.2-.2-3.8-.6-2.5 12.7-.8 23.3-7 33-5.9 21.5 14.7 33.2 25.3 45-1.3 4.3-3.9 5.7-7.6 5.7-6.6 0-17.4-7.6-48 .3-16.6 5.9-35 17.8-33.7 38.7-.7 23.4 28 29.3 48 30.2 16.3.7 22.8-3.4 31.6-3.4 6.9 0 13.2 1.5 17.8 6.4-26.5 3.9-31.4 26-28.3 42.9 1.1 5.4 1.5 21.9 4.6 21.9 1.3 0 4.5-2.8 6.4-3.8 1.2 5.6 3.3 19.8 5.5 19.8 1.4 0 3.2-.9 5.6-3 1.4 4.9 4.8 21.2 6.3 21.2 1.3 0 2.9-1 5-3.4 2.9 12.6 11.8 20.7 11.7 20.3-.4-1.8 6-5.1 7.6-5.5 2.5 3.2 6.8 10 10.6 10 1.6 0 3-1.2 4.2-4.2 5.8 9.2 20.2 19.5 31.3 19.5 2 0 4-.3 5.7-1.1-1.3-6.8 1.5-8.1 5.3-8.1 2.3 0 5.4-.7 7.2.5 9.7 6.4-.9-4.1 4.1-6.6 4.1-2 14.9-.9 2.8-11.5 19-5.6-9-16.1-16-19.5-10.6-7.9-17.1-21.4-26.4-31.5-3.2-3.4-4-4.7-3.2-4.7 2.7 0 22.9 14.4 29.6 14.4.4 0 .7-.2 1-.1 35.5 12.1 65.5 14.3 95.6 12.3 41-2.7 51.9-9.4 66.4-9.4h.5c11.7 21.4 38.7 23.5 60.2 26.4 7.2.2 21.8 17 30.5 17 2.4 0 10.4 1.8 5.6-4.4-5.7-6.8-2.2-7.7 2.8-7.7 1.8 0 3.7.1 5.5.1 5.3 0 9.2-1 3-8.6-8.7-8-13.1-13.6-1.3-18.3-5-11.3-18.9-17.5-27.9-26-14.7-3.8 8.7-5.2 18.8-23.9 14.3-13.7 25.6-34.9 25.7-54.5 2.7-35.2 3.5-72.6-37.9-101.2-15.2-8.9-13.5-10.7-27.9-17.1 8.8-15.1 26.3-8.4 30.8-27.3 3.8-5.6 9.6-17-.1-17-.5 0-1.1 0-1.8.1-.6.2-1.1.2-1.5.2-6.2 0 3.5-14.2-5-14.2-1 0-2.3.2-3.9.7-.2.1-.4.2-.6.2-2.2 0 3.3-11.6-1.9-11.6-1 0-2.3.4-4.1 1.4-16.3 4.6-32.5-1.8-51.6 15.3-17.6 10.2-22.6 24.1-38.1 24.1-.8 0-1.6 0-2.4-.1-5.5-.2-10.9-.2-16.4-.2-38 0-76.2 3.9-112.7 15.2-18.8 5.6-33.2 14.1-50.4 23.5 7.8-12.6 5.8-28.4 18.4-37.2 10.4-4.6 30.5-21.1 8.7-21.2C171.2 17 168.4 9 160.8 9c-2.1 0-4.6.6-7.3 2-1-3.9 1-10.6-4.6-11z"/></svg>