<svg xmlns="http://www.w3.org/2000/svg" viewBox="-10 0 1505.231 426"><path d="M721.23 426l-4-16 11-9-39 4-2-17 32-13h-34v-15l21-7-21 2v-4q-19 3-44 3t-35-1q-25-2-60-10t-71-19q-1 5-1.5 10t-.5 9q5 22 7 31t2 14q0 11-4 18.5t-13 7.5q-17 0-36.5-4t-40.5-4q-14 0-47.5 4.5t-59.5 9.5l-3-16 11-9-40 4-1-17 31-8-34-3v-15l32-6-26-6 1-16 111-6q-1-8-1.5-17t.5-18q-55-29-104-55t-101-52q-22-11-50-24.5t-54-26q-26-12.5-41-18.5-17-8-21-27t5-35l-3-2q7-15 23.5-31t25.5-16q8 0 25 6t36 12l33 12q34 6 72.5-1t83.5-2q19 2 37.5 12.5t41 25q22.5 14.5 53.5 29.5t76 24q42 9 82 12t73 3q26 0 51-1.5t51 .5q30 2 79 16.5t105.5 35q56.5 20.5 110 41.5t94 37.5q40.5 16.5 55.5 20.5 24 8 70.5 21t105 28q58.5 15 118.5 28l-10 46q-109-15-204-27t-185-21q-90-9-183-14 0 1-.5 2.5t-.5 2.5q5 23 7 32t2 14q0 10-4 18t-12 8q-17 0-37-4.5t-40-4.5q-13 0-34 2.5t-41 6q-20 3.5-32 5.5zm170-24q10 0 10-11 0-2-2-11.5l-4-19-2-11.5q1-28 10-51t23-39l17 7q-15 17-21 31.5t-8 27.5q97 5 182.5 13.5t175 20.5q89.5 12 197.5 28l3-16q-45-10-96-22t-98-24q-47-12-83-23-16-5-56.5-21.5t-94-37.5q-53.5-21-109.5-41.5t-104-34.5q-48-14-76-16-22-2-47-.5t-53 1.5q-35 0-75.5-3t-83.5-12q-46-9-78-23.5T363.73 84q-22.5-15-39.5-25.5t-34-12.5q-40-5-80.5 2t-78.5 2l-35-13q-18-6-33.5-12t-20.5-6q-6 0-15 9t-13 18l10 7 10 18 16-5 12 18 23-6 16 22q6-1 14-3.5t13-3.5l11 22q6 0 13.5-2.5t12.5-2.5l10 21 17-1 86 48-4 6-84-36-24 2-12-22q-6 0-13.5 2t-12.5 2l-10-18q-6 1-12 3t-11 3l-18-24-25 5-9-15-18 5-12-22h-3q-1 6 1 13.5t9 10.5q26 12 56 26.5t54.5 26q24.5 11.5 32.5 15.5 47 24 102.5 52.5t98.5 51.5q1-8 3-17t5-19l18 5q-9 33-9 63 0 10 1 20t4 26l-89 3 6 7-12 7 14 6-10 13h15l1 16q18-3 41-6t36-3q5 0 25.5 3t37.5 6q11 0 11-10 0-2-2-11.5t-4.5-19q-2.5-9.5-2.5-11.5 2-20 7.5-45t19.5-56l17 8q-8 16-12 29.5t-7 26.5q35 11 70.5 19t57.5 9q20 0 45-.5t33-2.5v-3q14-1 30.5-3.5t39.5-2.5q9 0 24 .5t25 1.5q-2-11-1-21 1-16 8.5-35t19.5-33l13 12q-10 13-15.5 26.5t-6.5 29.5q-1 10 0 16t4 23q-15-1-34.5-2.5t-28.5-1.5q-27 0-40 6l19 6-11 12 14 6-10 17h16v16q18-2 41.5-5.5t36.5-3.5q5 0 25.5 3.5t37.5 6.5zm-850-347l-15-10q5-8 11.5-10.5t12.5-2.5q8 0 14 3t10 6l-13 13q-2-1-4.5-3t-6.5-2q-5 0-9 6zm245 58q-1-2-1.5-5.5t-1.5-5.5q-4 7-16 7-11 0-16-7t-5-16l-4 4-14-11q4-4 12-9t19-5q18 0 26 10t9.5 22q1.5 12 1.5 16zm-20-20q6 0 7-4-4-7-15-7 0 11 8 11z" fill="currentColor"/></svg>