<svg xmlns="http://www.w3.org/2000/svg" viewBox="0 0 592.8 169.2"><path d="M81.2 16c-18.6-1.4-35.4-.5-50.4 2.5-19.2-7.7-24.8-2-16.9 17.2L20.1 23l6.1 19.7 4.5-17.2 7.8 19.3L41.8 28l9 19.3 2-15.2 7.4 16 2.1-13.5L70.1 51l5.3-10.2c7.9 8.7 15.5 12.9 22.8 12.5 7.2-.4 22.6 7.6 46.1 24 2.2-17.5 10.5-27.1 25-28.7 9.3-5.2 16.1-5.6 20.5-1.2v4.5l-13.9 5.7c-10.7.3-16.8 6.4-18.4 18.4 0 9.3 8.2 15.2 24.6 17.6 5.5-6.6 19.8-9.8 43-9.8 31.2-1.4 46.7-6.1 46.7-14.3 2.7-13.7 10.1-21.3 22.1-23 7.4.3 15.4 1.2 24.2 2.9-4.1 7.4-11.8 10.4-23 9-6 .5-9.3 4.1-9.8 10.7 0 11.8 7.5 20.4 22.5 25.8 3.6 0 6.3-2.3 8.2-7-.8-3.8 3.7-5.6 13.5-5.3 12.3 1.4 27.6 3 45.9 4.9 15.3 0 31.2 4.5 47.6 13.5 83.9 39.9 135.3 58.4 154.2 55.3-27.6-12.3-47.8-22-60.7-29.1-12.8-7.1-30.3-16.8-52.5-29.1l-38.9-26.2c-35.3-15.3-60.7-24.7-76.3-28.3-15.6-3.6-52.1-6.1-109.5-7.8-52.5 1.1-84.3-2.2-95.5-9.8-8.2-5.2-17.9-8.3-29.1-9.4-9.2-9.5-20.4-9.6-33.5-.6zm4.1 2c10.4-7.4 18.9-5.2 25.4 6.6-6.8-1.1-11.1-.3-12.7 2.5-3.6 2.5-6.7 2.1-9.4-1.2.8-3.1-.3-5.7-3.3-7.9zm251.3 84.5c-1.9 9.8-4 14.6-6.1 14.3-39.1 4.9-62.9 5.7-71.5 2.3s-13.6-1.7-15 5.1c-5.2-9.3-9.6-9.4-13.1-.4l-2-7.4c-5.2-1.6-8.1-.8-8.6 2.5l-1.2 5.3c-5.5-13.9-2.9-21 7.8-21.3 9.3-1.6 24.2.3 44.7 5.7 10.7-1.9 16-4.9 16-9-9.3-4.1-15.4-6.1-18.4-6.1-46.5 1.4-69.7 4.2-69.7 8.6-2.2 9.8-4.2 14.6-6.1 14.3-39.4 4.9-63.3 5.7-72 2.3-8.6-3.4-13.5-1.7-14.6 5.1-5.2-9.3-9.6-9.3-13.1 0L91 116c-4.9-1.6-7.7-.7-8.2 2.9l-1.6 4.9c-5.2-13.7-2.5-20.8 8.2-21.3 9.3-1.6 24.2.3 44.7 5.7 10.7-1.9 16-4.9 16-9 0-4.6-17.5-16.3-52.5-34.8-29.8-2.5-56.4-7.7-79.9-15.6-10.2.8-15-2.5-14.4-9.9l5.3-.8-7.8-5.7c-1.1-6.8-1.1-12 0-15.6C1.1 2.6 11.3-1 31.6 6.1c12.8-1.4 29.9-1.4 51.2 0C88 2 93.7 0 100 0c17.8 0 40.3 5.9 67.6 17.6 0 1.1 47.7 2.9 143.1 5.3 27.3 3 55.6 10.1 84.9 21.3C410.1 49.4 426.9 58 446 70c12.8 9.6 45.6 28.4 98.4 56.6 17.2 9.3 32.1 16.7 44.7 22.1 4.1 4.4 4.8 9.3 2 14.8-6.3 8.5-27.5 7.4-63.5-3.3-40.2-15-79.4-31.7-117.7-50-23.4-8.7-47.9-11.3-73.3-7.7z"/></svg>