<svg xmlns="http://www.w3.org/2000/svg" viewBox="0 0 595.3 400.2"><path d="M107.1 22.3C81.6 19.4 59 20 39.2 23.9 14.8 14 7.8 21.6 18 46.6L24.9 36l9 19.1 7.4-15.4 8.5 18.6 5.8-14.8L65.7 61 71 49.3 77.9 62l5.8-7.4 6.9 11.1 5.8-8c11 7.8 21.1 11.4 30.5 10.9 9.4-.5 29.2 9.8 59.6 31 2.8-22.6 13.6-35 32.3-37.1 12-6.7 20.9-7.2 26.5-1.6v6.4l-18 6.9c-13.8.7-21.7 8.7-23.9 23.9 0 12 10.6 19.6 31.8 22.8 7.1-8.1 25.6-12.2 55.7-12.2 39.9-1.8 59.9-8 59.9-18.6 3.9-17.7 13.6-27.6 29.2-29.7 9.2 0 19.6 1.2 31.3 3.7-5.3 9.2-15.2 12.9-29.7 11.1-8.1 1.1-12.4 5.7-12.7 13.8 0 15.5 9.7 26.7 29.2 33.4 4.6 0 8.1-2.8 10.6-8.5-1.4-5.3 4.4-7.8 17.5-7.4 15.5 1.8 33.6 11.1 54.1 28.1 12.4 14.8 20.9 33.4 25.4 55.7 30.4 109.6 54.6 172.6 72.6 189.2-10.6-35.7-17.8-62.4-21.5-80-3.7-17.7-8.6-41.5-14.6-71.6l-6.9-56.2c-10.6-43.8-26.3-75.4-47.2-94.9-6.7-6.7-19.6-13.3-38.7-19.6-8.1-5.3-54.8-9-139.9-11.1-82.3 0-123.5-4.2-123.5-12.7-14.1-8.1-30.7-13.1-49.8-14.8-10.6-6.8-20.3-5.5-29.1 3.7zm3.2 1c12.4-5.3 23.3-2.5 32.9 8.5-8.8-1.4-14.3-.2-16.4 3.7-4.6 2.8-8.7 2.3-12.2-1.6-.1-5.3-1.5-8.8-4.3-10.6zm357.8 140.5c5.3 5.3 3.7 12.2-4.8 20.7-17.7 9.2-28.8 19.1-33.4 29.7 12 0 18 3.5 18 10.6-.4 6-7.2 9-20.7 9l24.4 166.4H272.5v-91.7h-54.6v91.7H36.6l27.6-165.9c-14.5 0-21.7-3.2-21.7-9.5 0-7.1 6-10.6 18-10.6-4.9-10.6-16.3-20.5-33.9-29.7-8.1-8.5-9-15.4-2.7-20.7h444.2zM57.8 184.5c12.4 9.2 19.8 19.1 22.3 29.7h330.2c2.5-10.6 9.9-20.5 22.3-29.7H57.8zm27.5 49.3L61.5 379H194v-94.4h102.3V379h132.5L405 233.8H85.3zm349.9-101.3c-2.8 12.7-5.5 18.9-8 18.6-50.9 6.4-81.9 7.3-93 2.9-11.1-4.4-17.4-2.2-18.8 6.6-6.7-12-12.4-12-17 0l-3.2-9.5c-6.4-2.5-9.9-1.4-10.6 3.2l-2.1 6.4c-6.7-17.7-3.2-26.9 10.6-27.6 12-2.1 31.3.4 57.8 7.4 13.8-2.5 20.7-6.4 20.7-11.7-12.4-5.3-20.5-8-24.4-8-59.7 1.8-89.6 5.5-89.6 11.1-2.8 12.7-5.5 18.9-8 18.6-50.9 6.4-81.9 7.3-93 2.9-11.1-4.4-17.4-2.2-18.8 6.6-6.7-12-12.4-12-17 0l-3.2-9.5c-6.4-2.5-9.9-1.4-10.6 3.2l-2.1 6.4c-6.7-17.7-3.2-26.9 10.6-27.6 12-2.1 31.1.4 57.3 7.4 14.1-2.5 21.2-6.4 21.2-11.7 0-5.7-22.6-20.5-67.9-44.5-38.5-3.5-75.7-10.2-111.8-20.1-7.4.7-11.1-2.5-11.1-9.5l8-4.8-10.1-7.4c-1.4-8.8-1.4-15.5 0-20.1C6.7 7.2 20 2.7 40.8 8c16.6-1.8 38.7-1.8 66.3 0 6.7-5.3 14.1-8 22.3-8 23 0 52.1 7.8 87.5 23.3 0 1.1 61.7 3.2 185 6.4 19.1 0 41.5 4.9 67.3 14.8 32.2 15.9 55 42.2 68.4 79 6.7 17.7 12.2 40.1 16.4 67.3 1.4 19.1 10.1 64.3 26 135.7 5.3 23 10.4 42.6 15.4 58.8-.7 7.1-4.8 11.1-12.2 12.2-13.4 0-29.5-21.2-48.2-63.6-18.7-50.2-34.8-100.2-48.2-150-11.1-28.9-28.3-46.1-51.6-51.4z"/></svg>