<svg xmlns="http://www.w3.org/2000/svg" viewBox="-10 0 1141.333 896"><path d="M75.333 896l51-442-59-106h183l3-2-35 1-1-14 28-6-30-4v-13l28-3-24-7 1-14 98-3q-1-8-1.5-14.5t.5-14.5q-49-25-90.5-47.5t-87.5-45.5q-20-9-45-20.5t-48.5-22.5q-23.5-11-36.5-17-14-7-18-25.5t4-31.5l-2-1q6-14 20.5-28.5T36.333 0q7 0 23 5l32 10 29 11q29 5 63-1t73-2q23 2 44.5 17t53.5 33.5q32 18.5 84 29.5 36 8 70.5 10t63.5 2q19 0 38-2t39-3v-1q22-2 51.5-4t60-3.5q30.5-1.5 54.5-1.5 87 0 137.5 21t74.5 53.5q24 32.5 31 68t7 65.5q0 30-.5 61t-.5 67q0 31 1 68t4 72q4 43 12.5 78.5t21 70q12.5 34.5 28.5 77.5l-36 15q-32-27-55.5-69.5t-41-93.5q-17.5-51-30.5-103.5t-22-99.5q-9-47-16-82l-47 86 51 441zm1021-101l12-5q-20-50-36-101.5t-22-110.5q-4-35-5-72.5t-1-69.5q0-31 .5-63t.5-65q0-27-6-59t-28-61.5q-22-29.5-68.5-48.5t-127.5-19q-26 0-56.5 1.5t-57 3q-26.5 1.5-40.5 2.5v1q-20 1-42 4t-47 3q-30 0-65.5-3t-72.5-10q-54-11-86.5-29.5t-53.5-33.5q-21-15-40-17-35-4-70 2t-68 1l-31-11q-16-5-29-10.5t-18-5.5q-5 0-13 8.5t-12 15.5l9 7 9 14 14-4 11 16 19-5 14 20q5-1 12-3.5t11-3.5l10 19q5 0 12-2t11-2l9 18h15l75 41-4 5-73-31-21 2-10-20q-5 0-12 2t-11 2l-8-16q-13 4-21 5l-16-20-21 5-8-15-15 5-12-19h-1q-2 5-.5 12t8.5 9q23 10 49.5 22.5t47.5 23l27 13.5q41 21 89.5 46t85.5 45q1-8 3-15.5t4-15.5l19 4q-7 27-7 55 0 8 .5 17t2.5 22l-80 4 6 5-11 7 12 5-9 11h14v16h124q8 0 8-10 0-1-1.5-10t-3.5-17.5q-2-8.5-2-10.5 2-17 6-38.5t17-48.5l17 7q-6 13-10.5 25.5t-6.5 23.5q31 9 60.5 12.5t48.5 5.5q21-1 46.5-2t32.5-2v-3q12-1 26.5-3.5t33.5-2.5q7 0 19.5.5t20.5 1.5q-1-10 0-19 0-14 6.5-29.5t17.5-27.5l14 11q-8 11-13 23t-6 26q-1 8 0 14t4 20q-13-1-30-2.5t-26-1.5q-12 0-20 1.5t-14 3.5l15 6-8 9 11 6-8 15h13l1 17h123q9 0 9-11 0-2-1.5-10.5l-3-17-2.5-10.5q1-24 8.5-44t19.5-34l18 7q-13 14-18.5 27t-7.5 24l31 1q43 1 65 15t30.5 31.5q8.5 17.5 11.5 29.5 7 32 15.5 77.5t20 97q11.5 51.5 27.5 101.5t37 93q21 43 48 70zm-1059-745l-13-9q9-12 21-12 8 0 13 3t8 6l-11 11q-4-4-10-4-4 0-8 5zm214 51l-3-10q-5 6-14 6-10 0-14.5-6t-4.5-14l-3 3-11-9q3-4 10-8.5t16-4.5q16 0 22.5 9t8 19.5q1.5 10.5 1.5 13.5zm-18-18q5 0 6-4-3-6-13-5l2 6 5 3zm190 265h219l4-3-35 2-1-13 28-11-30-1v-10l19-7-19 2v-3q-11 1-27 1.5t-31 0q-15-.5-21-.5-22-1-51-4.5t-60-13.5l-1.5 7.5-.5 6.5q8 35 8 40 0 2-.5 4t-.5 3zm392 0h110q-4-15-22.5-31.5t-69.5-16.5l-24-1q0 2-.5 3t-.5 2q5 19 6.5 25t1.5 11q0 6-1 8zm-672 95h723l42-75h-807q10 19 21 38t21 37zm-45 434h264V652h285v225h264l-47-414h-719zm283 0h247V671h-247z" fill="currentColor"/></svg>