<svg xmlns="http://www.w3.org/2000/svg" viewBox="0 0 586.4 344.4"><path d="M118 23.4C90.8 21.8 66.3 23 44.3 27c-27.5-10.8-35.5-2.2-24 25.8l8.4-19.2 9 29.3 6.6-25.8 12 28.7 4.8-24.6 13.2 27.5 3-22.2 10.2 24L91 50.3l10.8 24 8.4-15c11.6 13.2 22.7 19.5 33.2 18.9s33 11.1 67.4 35c2.8-26 14.8-39.9 35.9-41.9 14-8 24-8.8 29.9-2.4v7.2l-19.8 7.8c-15.6.8-24.6 9.8-26.9 27 0 13.6 12 22.2 35.9 25.8 8-9.2 28.9-13.8 62.9-13.8 45.1-2 67.7-9 67.7-21 4-20 15-31.1 32.9-33.5 10.4 0 22.2 1.4 35.3 4.2-6 10.4-17.2 14.8-33.5 13.2-9.2.8-14 5.8-14.4 15 0 17.6 11 30.1 32.9 37.7 5.2 0 9-3.2 11.4-9.6-1.2-6 5.6-8.6 20.4-7.8 24.8-.4 39.3 11.8 43.7 36.5 2.8 17.6-.7 34.2-10.5 50-9.8 15.8-34 32.2-72.8 49.4-55.1 21.2-92 43.5-110.8 67.1 37.1-14.8 67.6-26.7 91.3-35.6 23.8-9 49.9-21.2 78.5-36.5 28.5-15.4 47.4-38.4 56.6-69.2 9.2-30.7 11.4-54.3 6.6-70.7-4.8-16.4-20.5-30.8-47-43.4-26.4-12.7-82.2-18.2-167.2-16.6-77.1 1.6-123.8-3.2-140.1-14.4C198 30.5 183.9 26 167.1 24c-13.6-13.2-30-13.4-49.1-.6zm6.6 3.6c14.8-10.8 26.9-7.8 36.5 9-10-1.6-16-.2-18 4.2-5.2 3.6-9.8 3-13.8-1.8.9-4.9-.7-8.7-4.7-11.4zm372.5 119.1c-8.8 16-20.8 25.2-35.9 27.5-43.1 5.2-71 5.3-83.5.3-12.6-5-19.9-2.5-21.9 7.5-7.2-13.2-13.4-13.2-18.6 0l-3.6-10.8c-7.2-2.8-11.2-1.6-12 3.6l-2.4 7.2c-7.6-20-3.8-30.1 11.4-30.5 14-2.8 35.7 0 65.3 8.4 16-3.2 24-7.8 24-13.8v.6c-14-6.4-23.2-9.6-27.5-9.6-67.5 2-101.2 6.2-101.2 12.6-3.2 14.4-6.2 21.4-9 21-57.5 7.2-92.5 8.3-105.1 3.3-12.6-5-19.9-2.5-21.9 7.5-7.2-13.2-13.4-13.2-18.6 0l-3.6-10.8c-7.2-2.8-11.2-1.6-12 3.6l-2.4 7.2c-7.6-20-3.8-30.1 11.4-30.5 14-2.8 35.7 0 65.3 8.4 16-3.2 24-7.8 24-13.8 0-6.4-25.6-23.2-76.7-50.3C99 90.6 60.1 83 25.8 71.9c-14.8.8-21.8-4-21-14.4l7.8-1.2-11.4-9c-1.6-10-1.6-17.6 0-22.8C1.2 4.2 16-1 45.5 9 64.7 7 89.8 7 121 9c7.2-6 15.6-9 25.2-9 26 0 58.9 8.8 98.8 26.4 0 1.6 69.7 4 209 7.2 47.9 6 83.4 18.5 106.6 37.4s30.7 49.9 22.8 92.8c-8 42.9-26.6 74.5-55.7 94.6-29.1 20.2-63.8 37.5-103.9 52.1-40.1 14.6-73.6 25.9-100.3 33.8-10.8.8-14.8-4.2-12-15 1.6-14.8 23.8-36.5 66.5-65.3 61.9-25.2 100.4-47.2 115.6-66.2s15-37.2-.6-54.8l4.1 3.1z"/></svg>