<svg xmlns="http://www.w3.org/2000/svg" viewBox="-10 0 1439 309"><path d="M272 309q-29 0-56.5-2.5t-45.5-12q-18-9.5-18-30.5 0-20 15.5-29t36.5-11q21-2 37-2h108q-5-4-26-19.5T265.5 173Q229 159 177 159h-58q-20 0-40 3-10 1-22 2t-19 0q-23-1-31.5-8.5T-2 137q0-9 4-17-12-10-12-29V74q0-16 13-27t30-11h67q19 0 37-5.5T174 18q19-6 39-12t41-6q23 0 49 5.5T355 17q18 5 44 9t86 9q32 2 71.5 4.5T634 45q38 3 67.5 6t41.5 7q75 22 163 55.5t179.5 67Q1177 214 1265 238t164 28v43H797q-52 0-103.5-6T587 297q-52 0-96.5 6t-91.5 6zm81-108q4-36 17.5-79.5T402 47q-12-2-25.5-5T350 36q-24-6-49.5-11T254 20q-18 0-36.5 5.5T181 37q-20 7-39.5 13T100 56H33q-10 0-17 4T9 74v17q0 8 9 17l28-17 13 12 15-9 18 14 22-13 21 10 24-16 19 17 20-14 20 12 64 15v7l-69-5-15-8-19 13-20-16-24 15-25-10-17 14-18-15-18 11-12-12-18 10q-8 5-9 8.5t-1 5.5q0 7 21 8 8 0 18.5-1t20.5-2q10-1 21-2t21-1h58q68 0 111.5 22t64.5 40zM245 74q-15 0-20-16l-3 5-16-5q-1 0 2.5-7t12-13.5Q229 31 244 31q18 0 26.5 15T281 66l-9 4q-4-6-7-9-4 13-20 13zm-1-16q7 0 7-6 0-2-3-2.5t-5-.5q-5 0-8 1 2 8 9 8zm553 232h613v-7q-89-8-174-31.5T1067.5 197q-83.5-31-166-63T737 77q-11-3-39.5-6.5t-66-6.5Q594 61 555 58.5T484 54l-61-4q-14 21-25.5 51.5T379 164q-7 32-8 57v21H240q-10 0-26 1t-29 6q-13 5-13 15 0 11 16 16.5t39.5 7.5q23.5 2 43.5 1h128q46 0 92.5-5.5T587 278q52 0 104.5 6t105.5 6zM39 88l-15-9q5-8 12-11t13-3q15 0 23 10L60 87q-2-1-5-3t-6-2q-6 0-10 6z" fill="currentColor"/></svg>