<svg xmlns="http://www.w3.org/2000/svg" viewBox="0 0 593.8 119.3"><path d="M150.4 0c-.7 0-1.5 0-2.2.1-11.4.6-18.3 2.3-20.7 5.1s-5.8 3.8-10.2 3c-4.4-.9-10.1-1-17-.4-7 .6-12.6 3.5-16.8 8.9-17.9 3.1-34.6 5.3-50.3 6.4-9.1-2.6-16.8-3.1-23.2-1.5C3.6 23.2.3 29.6 0 41c1.1 13.3 7.8 20 20 20 17 1.4 29.8 3.4 38.3 6 8.5 2.6 28 4.4 58.3 5.5 14.2 8 30.1 9.7 47.7 5.1 9.9 5.1 14.8 11.1 14.5 18.1-.3 7-7 9.4-20.2 7.2-13.2-2.1-35.7-3.2-67.5-3.2-10.8 0-14.5 6.2-11.1 18.7l506.9.9c9.9-12.5 9.1-22.3-2.6-29.4-91.4-18.7-147.5-29.7-168.2-33-20.7-3.3-40.8-10.1-60.3-20.4s-44.6-15.3-75.4-14.7c-30.8.6-58.4-3.5-82.8-12.3C177.4 3 161.7-.1 150.4 0zm6.8 12.4c12.5 0 25.6 3.8 39.2 11.5 5.2 2.2 10.5 4.2 15.8 6l-24.7 50.6C181 75.3 175.2 70 170 64.4l-9 .9c-12.8 6.2-24.1 7-34.1 2.1 5.4-3.1 7-5.2 4.7-6.4-11.4 0-23 .3-34.9.9-17.9 1.1-32.7-.9-44.3-6-19.3 0-29-1.1-29-3.4 15.6.2 25.1.3 28.6.2 3.4-.1 8 .2 13.6 1.1 5.7.9 12.7 1.4 21.1 1.7 8.4.3 21.1-.7 38.1-3 3.4-.3 4.7.4 3.8 2.1-.9 1.7.4 2.7 3.6 3 3.3.3 5-.9 5.3-3.4 1.4-5.1-2.1-7.4-10.4-6.8-8.4.6-15 1.2-19.8 1.9-4.8.7-9.7-.8-14.5-4.7-4.8-3.8-9.2-3.8-13 .2-3.8 4-6.9 4.1-9.2.4-2.3-3.7-5.1-4.1-8.5-1.3-3.4 2.8-6.2 2.6-8.3-.6-2.1-3.3-4.7-3.8-7.7-1.5s-5.1 2-6.4-.9c-1.3-2.8-2.8-4.6-4.7-5.3-1.8-.7-4 .7-6.6 4.2-2.6 3.5-4.7 6.5-6.4 8.7-9.1 1.4-13.4-1.2-13-7.9.4-6.7 3.2-10 8.3-10 5.1 0 12.9.4 23.4 1.3 10.5.9 26.5-1.6 48.1-7.2 4.5-4 9.2-6.2 13.8-6.8 4.7-.6 8.9-.1 12.6 1.3 2.8 1.1 7.4.3 13.6-2.6 6.5-2.8 15.9-4.2 28.4-4.2zm-48.7 9.1c-1.6 0-3.2.2-4.6.5-4.5 1-8.5 3.3-11.9 7l2.1 3.8c1.4-3.4 4.5-6 9.4-7.7 4.8-1.7 10.6-1.3 17.5 1.3v-3c-4.7-1.3-8.9-1.9-12.5-1.9zm6.5 6.6c-9.7-.1-15.9 2.6-18.7 8.2 5.4 4.5 14.1 2 26-7.7-2.7-.3-5.1-.5-7.3-.5zM17.5 32c-3.4.6-4.9 1.9-4.5 4 .4 2.1 2.1 3.2 4.9 3.2s4.7-1.1 5.5-3.4c1.4-2.2-.5-3.5-5.9-3.8zm222 4.5c11.9 1.9 24 2.7 36.5 2.3 28.1-.9 51.7 3.6 70.7 13.4s38.6 16.2 58.8 19.2c20.2 3 74 13.1 161.4 30.4L213.4 98c-1.1-.6-2.1-1.2-3.1-1.8l29.2-59.7zm-205.4.2c.3 4.8 2.1 8.8 5.5 11.9-5.1 0-8.8-.3-11.1-.9.6-3.6 2.4-7.3 5.6-11zm16.2 4.7c.6 2.6 2.4 5.4 5.5 8.5-3.7-.9-7.1-1.1-10.2-.9 1.1-3.1 2.7-5.6 4.7-7.6zM66 42.7c0 2.6 1.1 3.4 3.4 2.6.3 2 1.1 3.8 2.6 5.5-4.3 0-7.8-.4-10.6-1.3 1.1-3.1 2.6-5.4 4.6-6.8zm17.1.4c1.4.9 2.6 3.1 3.4 6.8-4.5-.6-7.4-1.3-8.5-2.1 1.9-1.5 3.6-3 5.1-4.7z"/></svg>