<svg xmlns="http://www.w3.org/2000/svg" viewBox="0 0 418.1 261.9"><path d="M418.1 261.9h-397C10.6 259.7 3.5 254 0 244.8c12.8-26.9 34.6-43.8 65.4-50.9-10.6-4.8-16.5-10.6-17.8-17.2 9.2-22.5 26.4-36.3 51.5-41.6-6.2-4.4-9.9-9.9-11.2-16.5 11.9-19.8 31.7-32.8 59.4-39-6.2-.4-9.7-6.2-10.6-17.2 24.2-26 48.4-41.7 72.7-47.2 24.2-5.5 53.3-9.9 87.2-13.2C330.5-1.3 371-.5 418.1 4.3v257.6zM395 30.1c-48-5.3-94.6-3.2-139.7 6.3-45.1 9.5-67.7 17.9-67.7 25.4 5.7 11.4 11.7 20.5 17.8 27.1-43.2 11.4-67.4 21.6-72.7 30.4 7.5 10.1 16.3 18.1 26.4 23.8-42.3 8.8-65.4 20-69.4 33.7 7.5 11.9 15.6 21.1 24.4 27.7C75.3 219 58 230.3 61.9 238.2h332.3l.8-208.1z"/></svg>