<svg xmlns="http://www.w3.org/2000/svg" viewBox="-10 0 1015 685"><path d="M-10 685q39-48 97-95t134-81L24 493q25-25 66.5-54.5t95-57.5Q239 353 296 333q-49-4-104-9t-100-9q39-28 92-57.5t109-54Q349 179 399 166q-35-4-71.5-8t-65.5-8q42-32 86-59.5t97-48Q498 22 565.5 11T722 0h283v685zm43-20h953V19H722q-108 0-181.5 15.5T414 76.5Q361 103 314 136l149 18v19q-46 6-103 26t-113 47.5Q191 274 148 301l202 17 2 17q-61 18-115 42.5t-96.5 51Q98 455 71 477l195 16 2 17q-83 34-140.5 75T33 665z" fill="currentColor"/></svg>