<svg xmlns="http://www.w3.org/2000/svg" viewBox="0 0 470.9 537.8"><path d="M38.4 25.8c2.4-.9 5.1-.4 8.2 1.8 3.1 2.1 3.8 5.1 2.1 8.9-1.7 3.8-4.5 5.3-8.5 4.6s-6.5-2.5-7.5-5.3c-.9-3.4.9-6.7 5.7-10zm73.1-.7c-8 4.3-18.9 9.2-32.7 14.9-27 9-43.6 9.4-49.7 1.1-6.2-8.3-2.6-14.3 10.7-18.1 9.5-2.4 15.1-.7 17 5 1.9 5.7-.7 9.5-7.8 11.4 2.8-2.4 4.5-4.9 5-7.5.5-2.6-.9-4.7-4.3-6.4-3.3-1.7-7.7-1.3-13.1 1.1-5.4 2.4-7.7 5.4-6.7 9.2.9 3.8 4.3 6.4 9.9 7.8 5.7 1.4 18.5-1.2 38.3-7.8l31.2-12.1 2.2 1.4zm-37.6-1.5c-8.5-7.1-19.2-8.8-32-5-9 3.3-16.6 9.2-22.7 17.8 4.7 13.7 12.4 20.7 23.1 20.9 10.7.2 19.3-.6 25.9-2.5 30.8-14.7 59.9-18.5 87.3-11.4 3.8 5.2 3.3 8-1.4 8.5-24.1-.5-42.4 1.7-54.7 6.4-12.3 4.7-23.2 20.2-32.7 46.5-9.5 26.3-14.1 80.6-13.8 163 .2 82.4.7 144.6 1.4 186.8.7 42.1 42.7 63 126 62.5 61.1 0 91.6-56.8 91.6-170.4 0-64.4 16.1-96.8 48.3-97.3 32.7.5 49 32.9 49 97.3 1.4 32.2 3.9 67.6 7.5 106.2s26.6 62.4 69.2 71.4c-28.9-16.6-45.6-42.4-50.1-77.4-4.5-35-7.5-68.4-8.9-100.1 0-72.9-22.3-109.4-66.8-109.4-44 0-66 36.5-66 109.4 0 98-24.6 147-73.9 147-61.5 0-92.3-13.5-92.3-40.5s11.5-68.5 34.4-124.6c23-56.1 43-101.9 60-137.4s21.7-69.8 13.8-103c-7.8-33.1-22.8-53.5-45.1-61.1-22-7.6-47.8-8.8-77.1-3.6zM88.1 8.7c23.2-5.7 48.5-5.1 76 1.8 27.5 6.9 48.3 37.8 62.5 92.7l-2.1 41.9c-2.8 19.4-13.7 49.5-32.7 90.2-32.2 64.4-54.4 116-66.8 154.8-12.3 38.8-12.3 62.3 0 70.3s30.8 11.8 55.4 11.4c35.5 0 53.7-41.7 54.7-125 0-83.8 28.4-125.7 85.2-125.7s85.2 41.9 85.2 125.7c.9 31.7 3.4 62.7 7.5 93 4 30.3 13.6 51.7 28.8 64.3 15.1 12.5 24.9 23.8 29.1 33.7-66.8 0-103.3-23.8-109.7-71.4-6.4-47.6-10.1-87.5-11-119.7 0-54.4-9.9-81.7-29.8-81.7-19.4 0-29.4 27.2-29.8 81.7 0 127.4-36.7 191-110.1 191-76.2 0-121.4-10.3-135.6-30.9-14.2-20.6-20.4-45.6-18.5-74.9 1.9-29.4 1.9-88.1 0-176.1-1.9-88.1 7.1-149.8 27-185.3-11.8 1.9-23.8-.7-35.9-7.8C5.4 55.6-.4 46.8 0 36.4c-.5-8.5 3.6-15.6 12.1-21.3 7.6-5.7 17.3-9.8 29.1-12.4S62.5-.6 69.6.6c7.1 1.1 13.3 3.9 18.5 8.1z"/></svg>