<svg xmlns="http://www.w3.org/2000/svg" viewBox="-10 0 1414 1238"><path d="M186 1238q-15 0-25-8.5t-10-20.5q0-18 10-23.5t19-5.5h8q2-2 7.5-6t9.5-7l-1-4-122 21q-4 4-14 9.5t-25 5.5q-14 0-28-8t-14-26q0-15 12.5-26.5T41 1127q14 0 24.5 2.5T79 1138l82-10 1-3-45-8q-9 7-33 7-15 0-26-9t-11-25q0-17 13.5-27.5T87 1052q35 0 46 29l59 18 1-4-14-8q-9 0-22-5t-13-23q0-13 8-21t24-8q18 0 26 10t8 20l29 23 95 7q15 0 24-4 5-2 12-17t15-35.5q8-20.5 12-35.5 5-17 10.5-40t10.5-43.5q5-20.5 6-30.5-1-2-1-10l-1 1q-24-25-54-59t-56.5-68Q285 714 271 689q-10-18-24.5-52T216 560q-16-43-31-87t-27-82q-11-9-27.5-23.5t-33-31Q81 320 72 304q-11-18-25-42t-27-48Q7 190-3 173q-5-9-5-18 0-6 3-13.5T1 130q-4-5-7.5-14.5T-10 94q0-22 21-43.5t53-36Q96 0 128 0q16 0 45 5t61 11.5Q266 23 292 29q6-5 24-15t45-10q32 0 51 25.5T438 80q9 4 32 17l46 26q17 10 42.5 22.5t53 23.5q27.5 11 52.5 17 18 4 58.5 16.5T813 234q50 19 98.5 45t84.5 58q35 31 78.5 74t85.5 88.5q42 45.5 74.5 84.5t47.5 63q33 52 56 109.5t37.5 112Q1390 923 1397 968t7 72q0 26-5 51t-19 48q-15 24-36 32.5t-30 10.5q-12 20-33.5 29t-38.5 9q-14 0-47.5-4t-59.5-9l-170-28q-8-1-16.5-2t-22.5-1q-6 0-19 1t-31 7l-29 23q-1 5-11 15t-25 9q-15-1-24.5-11t-7.5-22q2-18 12-22.5t19-3.5q3 0 5 .5t3 .5q3-1 9-5t10-6l-1-4-124 9q-4 5-14.5 9t-25.5 2q-14-2-27.5-11t-11.5-27q2-15 15.5-25.5t28.5-8.5q32 2 37 15l82-2 1-4-43-11q-10 6-34 3-12-1-21-7.5t-11-18.5q-27-10-74-36.5T527 969q-9 27-25.5 59.5T467 1091q-18 30-33 51.5t-21 26.5l-166 17-27 24q-1 6-10 17t-24 11zm0-19q12 0 17-7.5t5-14.5l29-28 170-20q8-7 25-33.5t35.5-61Q486 1020 500 987t17-54q2-21 5-53t5.5-65q2.5-33 4.5-59l19 1q-2 25-4.5 58.5t-5 66Q539 914 536 935q0 3-.5 5.5T534 946q37 49 82 76.5t74 38.5q5-13 17-19.5t24-5.5q34 4 43 33l56 24 2-4-14-9q-8-1-20.5-7.5T786 1048q3-28 35-25 18 1 25 12t6 21l26 24 83 24 66-1q-22-11-50-27t-53-37q-25-21-41.5-46.5T866 938q0-57 32.5-80.5T978 834q25 0 62 15t79.5 39.5q42.5 24.5 84 53T1279 996l-11 16q-33-26-74-53.5t-81.5-51q-40.5-23.5-76-38.5T978 854q-39 0-66 19t-27 65q0 32 23.5 59t57 48.5Q999 1067 1029 1081t44 19l125 35-5 19-117-33-111 2-92-27-36-32q0-8-4-15.5t-15-8.5q-5-1-8.5 2.5t-4.5 7.5q-1 8 3.5 11t8.5 4h8l26 24-14 18-76-24q-6-24-33-27-9-2-15 4.5t-6 11.5q-1 9 6 13.5t13 5.5q25 2 32-2l56 17-6 27-101 5q-2-6-11.5-9t-21.5-3q-20-2-21 16-2 9 6 12.5t15 4.5q15 1 23.5-2t10.5-8l141-7 5 24-30 22q-3-2-14-1.5t-12 12.5q0 5 3 8.5t12 4.5q12 1 17.5-6t6.5-14l32-25q20-7 35-9t22-2q17 0 26 1t17 3l169 27q25 5 58 9.5t46 4.5q17 0 39-12.5t22-40.5q0-15-18.5-30.5t-45-30.5q-26.5-15-51.5-26.5t-39-17.5q-14-6-40-22t-54-36q-28-20-51-37l12-16q23 17 50.5 36.5t52 35.5q24.5 16 38.5 21 15 6 42 19t55.5 29.5q28.5 16.5 48 35.5t19.5 39v6.5l-1 6.5q4-1 9-3t10-6q1-5 1-10v-10q0-49-8.5-102.5T1308 924q-16-52-38-94-17-34-45.5-69.5t-61-68q-32.5-32.5-61.5-58t-47-40.5l11-15q19 15 48.5 41t62.5 59.5q33 33.5 63 70t48 71.5q22 43 38 96.5t25 109q9 55.5 9 106.5 14-14 19-43.5t5-49.5q0-26-7-69.5t-21-97q-14-53.5-36.5-109.5T1266 658q-15-24-47.5-63t-74.5-84q-42-45-84.5-87T983 352q-34-31-81.5-56T805 252q-49-19-88.5-31T659 205q-26-6-54.5-17.5T550 163q-26-13-44-24-19-11-44-24.5T420 93q-3-23-17.5-46T361 24q-20 0-37.5 9T297 50q-25-6-57.5-13.5T177 24q-30-5-49-5-25 0-52.5 13.5t-47 31Q9 81 9 94q0 9 4 18t9 15q24 37 39.5 61.5T95 236l-15 13q-18-23-33-46.5T13 148q-1 2-1 7 0 6 2 10 14 25 36 63.5T89 294q10 14 26.5 31t33 32q16.5 15 26.5 22 12 38 27 82.5t30.5 87.5q15.5 43 30 78t24.5 53q14 26 39.5 57.5t51 60Q403 826 419 843q-2-21-6-48.5t-7-55q-3-27.5-6-47.5l20-2 23 195q-1 9-5.5 30.5t-10.5 46q-6 24.5-11 42.5t-14.5 40q-9.5 22-19 39.5T367 1104q-18 8-35 5l-98-11-38-29q-1-7-6-14.5t-15-7.5q-5 0-8.5 4t-3.5 8q0 7 4 10t9 3q6 0 8-1l28 22-12 19-77-16q-4-11-12.5-17.5T87 1072q-9 0-14.5 6.5T67 1090q0 9 7.5 13t13.5 4q12 0 20.5-1.5t11.5-3.5l57 11-4 28-99 15q-3-6-13-8t-21-1q-20 2-20 18 0 9 8 12t16 3q14 0 21.5-4t9.5-9l140-21 7 23-27 25q-3-1-14 0t-11 14q0 4 4 7.5t12 3.5zm122-865q-10-14-25.5-30.5T244 288q-13 10-29 14t-26 4q-12 0-28.5-6T132 279.5Q120 265 120 240q0-14 5-27-32-19-48-38l14-13q17 18 42 34 10-14 25.5-20.5T189 169q16 0 33.5 6.5t29.5 22q12 15.5 12 42.5 0 19-8 33 25 19 41.5 37t26.5 32zm-68-93q5-10 5-21 0-29-19.5-40T189 189q-24 0-39 18 12 7 23.5 13t21.5 11q26 15 45 30zm-51 26q8 0 18.5-2.5T228 275q-10-7-20-13.5T186 249t-22-12.5-22-12.5q-1 4-1.5 8t-.5 8q0 26 18 36.5t31 10.5z" fill="currentColor"/></svg>