<svg xmlns="http://www.w3.org/2000/svg" viewBox="0 0 581.5 441.7"><path d="M296.2 424.2c-39.6-12.8-63.3-22.2-70.9-28.2-6.4-3.6-10.9-3.6-13.5 0-2.6 3.6.2 7.8 8.4 12.6 8.2 4.8 13.9 10.1 17.1 15.9 3.2 5.8 2.4 11.5-2.4 17.1H0c-.4-8.4 5.6-16.3 18-23.7 12.4-7.4 21.2-11.7 26.4-12.9 57.3-6.4 90.4-14.3 99.4-23.7 9-9.4 14.6-21.4 16.8-36 2.2-14.6-7.2-29.4-28.2-44.5-21-15-38.5-37.1-52.6-66.4-14-29.2-21-47.5-21-54.7 0-7.2-4.3-13.8-12.9-19.8-8.6-6-16.8-18.5-24.6-37.5-7.8-19-6.3-38.9 4.5-59.8L18 55.4c12.4-22 29.3-35.1 50.8-39.3 21.4-4.2 39.9-4.5 55.6-.9 25.2-14 46.1-18.3 62.5-12.9s26.6 15.5 30.6 30.3c35.6 46.9 95.2 89.5 178.7 127.9 83.5 38.4 137.6 81.9 162.2 130.3 24.6 48.5 29.6 83.9 15 106.3-14.6 22.4-30 35.3-46.3 38.7-16.2 3.4-36.3 5.3-60.4 5.7H244.5c8-9.1 25.2-14.9 51.7-17.3zM471 278.3c-16.4 15.6-33.1 28.2-50.2 37.8-17 9.6-26.8 19-29.4 28.2-2.6 9.2-1.4 19.6 3.6 31.2 5 11.6 19.2 16.6 42.6 15 23.4-1.6 47.2-3.4 71.2-5.4 12.4-2.4 19-1.5 19.8 2.7.8 4.2-4.6 7.9-16.2 11.1-56.1 14.4-98.4 19.9-127 16.5-28.6-3.4-44.3-3.6-46.9-.6-2.6 3-4.5 6.9-5.7 11.7 27.6-2.8 63.7-2.9 108.1-.3 44.5 2.6 72.5-1 84.1-10.8 11.6-9.8 18.8-18.6 21.6-26.4 2.8-7.8 3.1-13.8.9-18-2.2-4.2-18.9-5.2-50.2-3-31.2 2.2-51.2-.1-59.8-6.9-8.6-6.8-4.5-11.4 12.3-13.8 16.8-2.4 32.9-2 48.4 1.2 15.4 3.2 32.9 1 52.6-6.6-10.4-31.6-28.1-59.8-53.2-84.4-25-24.6-49.4-42.1-73-52.6-23.6-10.4-51-22.4-82-36-31-13.6-80-50.9-146.9-111.7-2.4-13.2-8.3-22.7-17.7-28.5-9.4-5.8-26.3-2.9-50.8 8.7-28.4-4.4-48.7-3.3-60.7 3.3s-13.3 17.1-3.9 31.5c9.4 14.4 22.1 29 38.1 43.8 2 5.2-.8 8.6-8.4 10.2-18.4-13.2-34.4-31-48.1-53.5-7.2 7.6-8.3 19-3.3 34.2 5 15.2 11.8 26.7 20.4 34.5 8.6 7.8 14.2 16.4 16.8 25.8 2.6 9.4 9.9 26.5 21.9 51.4 12 24.8 25.5 44.3 40.5 58.3s25.8 24.3 32.4 30.9c6.6 6.6 9.9 15.9 9.9 27.9 0 12.4-3.5 28.1-10.5 47.2-7 19-43.3 29.3-109 30.9-5.2 0-7.8 2.4-7.8 7.2 0 4 2.6 6 7.8 6 17.6 0 37-1.2 58.3-3.6 21.2-2.4 42.4-1.8 63.7 1.8 21.2 3.6 24.4 1.4 9.6-6.6-14.8-8-11.4-25.7 10.2-53.2 21.6-27.4 25-64.8 10.2-112 19.6 13.2 29.2 37 28.8 71.5 2 28 18.9 45.9 50.8 53.5 31.8 7.6 54 9.6 66.4 6-6.8-24-6-43.4 2.4-58.3 8.4-14.8 23.2-24.4 44.5-28.8 21.5-4.2 42.3-10.6 62.8-19zM183.8 62c-6.8 12-17.4 14.6-31.8 7.8-12.8-5.6-15.6-14.8-8.4-27.6 6.4-12 16.4-14.8 30-8.4 13.2 6.4 16.6 15.8 10.2 28.2z"/></svg>