<svg xmlns="http://www.w3.org/2000/svg" viewBox="-10 0 556 1238"><path d="M356 1238q-2-12-3-21.5t-1-16.5q0-29 7-59t15-62q7-26 13.5-53t9.5-57q4-40 7-85.5t3-92.5q0-24-1-48.5t-3-49.5q-12 4-30.5 9t-44.5 6l-186 40-5-18 30-8-7-9-31 5-2-19 22-1-6-10h-20v-19l93 1q-18-12-34-27.5T154 608q-14-21-27.5-56T102 478q-11-39-17.5-72.5T78 353q0-23 4-52t8-52q2-15 4-27t2-16q0-12-10.5-24T64 159q-8-8-17-15t-25-21q-4-3-10-10.5T4 94q-5-2-9.5-7.5T-10 71q0-14 15.5-30.5t54-28.5Q98 0 166 0q35 0 58 14t36 31.5Q273 63 277 76q7 19 27 54t46 76q26 41 50.5 78t40.5 60q8 12 25 42.5t35.5 75.5Q520 507 533 563t13 120q0 70-14.5 147.5T493 983q-24 75-51 141t-53 114zm17-18h4q6-11 22.5-47t38-90q21.5-54 41.5-120t33.5-138Q526 753 526 683q0-62-12.5-116.5t-30-98Q466 425 449.5 396T425 355q-16-23-40.5-60.5t-51-78.5Q307 175 286 139t-28-56q-3-11-14-26t-30-26.5Q195 19 166 19q-57 0-91.5 9.5t-50 21Q9 61 9 68q0 3 5 6.5T24 80l56 29-9 18-40-22q0 1 3 3t12 9.5q9 7.5 31 27.5 14 12 26.5 27t12.5 34q0 7-2 18.5t-5 27.5q-4 23-8 51t-4 50q0 18 6 50t16.5 69.5q10.5 37.5 23.5 71t27 54.5q32 45 85 71h9q1-4-4-21.5t-11-36q-6-18.5-9-27.5l37-51 14 13-31 39q6 18 12.5 40t11.5 39.5q5 17.5 5 23.5-14 1-35.5.5t-43-.5q-21.5 0-35.5 1l4 6 20-1 1 13-14 2 5 7q9-3 33.5-7t51.5-9q27-5 44-10 1-7-5-34t-12-49l18-22 16 11-13 16q5 16 10 39t7 37q24-1 46.5-8.5T420 666q4 37 5.5 68t1.5 57q0 48-3 94.5t-7 85.5q-3 28-10 57t-14 56q-8 30-14.5 58.5T372 1200q0 7 .5 11.5t.5 8.5zM100 90q-10 0-17.5-7.5T75 65q0-10 7.5-17.5T100 40q11 0 18 7.5t7 17.5q0 10-7 17.5T100 90zm0-14q11 0 11-11t-11-11q-11 0-11 11t11 11z" fill="currentColor"/></svg>