<svg xmlns="http://www.w3.org/2000/svg" viewBox="0 0 470.6 594.6"><path d="M470.6 574c0 5.7-.8 11.4-2.3 17.1-1.5 5.7-7.6 4.4-18.1-3.9-6.6-12.7-12.1-30.3-16.5-52.7-25.5-89.1-40.6-142-45.4-158.6-8.8-12.7-27.9-19.1-57.3-19.1h-77.7c-34.2 0-53.8-3.9-58.6-11.8-18-27.6-36.2-54.9-54.6-81.6-18.9-32-30.7-63.6-35.5-94.8C102 151 93.5 136.3 79 124.4 29.8 102.5 3.5 81 0 59.9c3.9-14 14.6-25.7 31.9-34.9C49.3 15.8 63.3 9.3 74 5.6 84.8 1.9 94.3 0 102.7 0c20.2 0 39.2 7.8 56.9 23.4S200.5 58.8 229 83c44.8 21.9 76.8 41.9 96.1 59.9s40.7 40 64.2 66.2c23.5 26.1 43.3 76.2 59.6 150.4 12.3 55.6 19.5 127.1 21.7 214.5zm-21-67.2l-14.5-116.5c-5.3-22.4-10.8-44.5-16.5-66.5-18.4-80.3-79.4-151.4-183-213.3-18-3.9-41.2-19.5-69.8-46.7-26.3-25.5-48.9-39.3-67.8-41.5-21 5.3-37.2 12.8-48.6 22.5 1.8 5.7 5.7 8.7 11.8 8.9 6.1.2 13.8 1.6 23 4.3 7.5 5.3 6.8 10.3-2 15.1-13.2-.9-29-2.4-47.4-4.6 0 4.4 17.1 15.4 51.3 32.9 14 11.4 25.7 26.5 34.9 45.4 5.3 11 11.4 28.2 18.4 51.7 7 23.5 13.8 40.9 20.4 52.3 6.6 11.4 14 23.7 22.4 36.9 8.3 13.2 18 21.9 29 26.3 12.7-.4 20.4-3.9 23-10.5-.4-3.9-1.6-12.9-3.6-27-2-14 .1-30.7 6.3-50 6.1-19.3 13.2-29 21.1-29-8.3 24.6-7 55.9 3.9 94.1 14 11.4 21.1 18 21.1 19.7 0 5.3-6.5 10.2-19.4 14.8-12.9 4.6-19 7.1-18.1 7.6 2.6 2.2 12.5 3 29.6 2.3 17.1-.7 33.6-1.4 49.4-2.3 15.8-.9 25.7-4.2 29.6-9.9-.4-1.3-4.4-6.6-11.8-15.8-7.5-9.2-10-16.3-7.6-21.4 2.4-5 5.4-7.6 8.9-7.6 7.5 0 15.6 5.5 24.4 16.5 19.7 24.6 36.9 61.2 51.3 109.9l30.3 101.4z"/></svg>