<svg xmlns="http://www.w3.org/2000/svg" viewBox="0 0 574.6 158.8"><path d="M574.6 131.7c0 6.6-20.2 10.4-60.5 11.4-25.6 2.4-61 .9-106.1-4.3-45.1-5.2-92.1-.9-141 12.8-72.1 11.9-120.4 8.9-144.9-8.9S71 119.9 42 127.5c-28-1.9-42-11.2-42-27.8s9.5-30.4 28.5-41.3C4.7 32.8 0 15.4 14.2 6.4 28.5 1.7 39.9 15.2 48.4 47c9-31.8 18.7-47.5 29.2-47C88 .5 93.9 5.6 95 15.3c1.2 9.7-7.7 22-26.7 36.7 22.8 8.1 44.4 18.3 64.8 30.6 34.2 17.6 76.7 19.9 127.4 7.1 66.5-14.2 117.1-14.2 152 0 34.9 14.2 73.5 21.6 115.7 22.1 20 3.3 35.4 10 46.4 19.9zM23.5 92.6c-.9 9.5 3.1 14.5 12.1 15 33.2-9 64.8-3.3 94.7 17.1 28.5 12.8 59.2 17.1 92.2 12.8 33-4.3 62.4-8.9 88.3-13.9s54-5 84.4 0c30.4 5 56.7 7.5 79 7.5 22.3 0 45.1-1.2 68.3-3.6-36.1-1.9-62.4-4-79-6.4-16.6-2.4-37.5-7.7-62.7-16-25.2-8.3-53.2-10.3-84-6.1-30.9 4.3-60.3 9.3-88.3 15-34.2 6.6-64.6 3.1-91.1-10.7C100.9 82.4 74 72.2 57 72.6c-17.1.5-28.3 7.2-33.5 20zm49.1-4.3C66 94.5 58.3 98 49.5 99c-8.8.9-13.6-1.2-14.6-6.4-.9-5.2 2.6-9.1 10.7-11.7 8-2.7 17.1-.2 27 7.4z"/></svg>