<svg xmlns="http://www.w3.org/2000/svg" viewBox="-10 0 1404.195 394"><path d="M397 394q-44 0-70.5-6t-44-19.5Q265 355 249 335l-42-51q-8-9-19-22t-22-13q-5 0-10 1t-10 3q-10 2-22.5 4T95 259q-40 0-72.5-17T-10 194q0-23 22.5-47T73 111L-2 38q-11-10-5.5-24T13 0q11 0 20 8l95 92 95-92q9-8 20-8 15 0 20.5 14T259 38l-76 73q32 12 53 31.5t28 29.5l35 47q10 14 25.5 27.5T361 260q26 0 60.5-10t79.5-25q23-8 64-19.5t81-11.5q49 0 94 15.5t90 34.5q24 11 70.5 28.5T1010 304q63 14 139 14 46 0 80-1.5t67-5q33-3.5 74-9.5 13-2 19.5 6.5t4 19.5q-2.5 11-14.5 17-58 28-117.5 38.5T1144 394q-59 0-123.5-6T895 376q-51-6-95.5-10t-76.5-4q-40 0-82.5 5T559 378q-39 6-80.5 11t-81.5 5zM94 105l11-1-82-81q-5-5-9-5t-4 3q0 3 7 10zm68 0l78-74q7-7 7-10t-4-3q-4 0-9 5l-83 80zm235 270q40 0 79.5-5t79.5-11q41-7 82-12t85-5q33 0 78.5 4.5T897 356q60 7 126 13t121 6q52 0 109.5-11t106.5-32q11-5 10-8t-11-1q-52 9-98 12t-112 3q-74 0-139-14t-113-32.5Q849 273 822 262q-40-17-86.5-32.5T646 214q-37 0-76.5 10.5T507 243q-46 15-82 26t-64 11q-29 0-47-16.5T284 231l-35-48q-6-7-21-22t-40-27.5Q163 121 130 121q-35 0-62.5 12t-43 29Q9 179 9 194q0 22 26 34t60 12q16 0 27-2t19-4q7-1 13-2.5t12-1.5q18 0 32.5 15.5T222 272l42 50q18 23 45.5 38t87.5 15zM120 172q-17 0-17-17 0-16 17-16 16 0 16 16 0 17-16 17z" fill="currentColor"/></svg>