<svg xmlns="http://www.w3.org/2000/svg" viewBox="-10 0 1358 555"><path d="M2 555v-78h1264V79H740V0h608v555zm20-20h1307V20H760v39h526v437H22zm341-136q-40 0-64-5.5t-40-17Q243 365 228 346l-38-47q-7-9-17.5-21T153 266q-4 0-9 1.5t-10 2.5q-8 2-19.5 4.5T87 277q-37 0-67-14t-30-48q0-28 21.5-47T68 137L-1 71q-10-9-5-22t19-13q10 0 18 8l87 84 87-84q8-8 18-8 14 0 19 13t-5 22l-69 67q29 11 48 28.5t26 26.5l32 43q10 13 23.5 25.5T331 274q22 0 54-9.5t74-22.5q21-7 58.5-18t73.5-11q44 0 86 15t82 32q22 9 59.5 25t91 29q53.5 13 122.5 13 42 0 73-1t60.5-4.5q29.5-3.5 67.5-9.5 12-2 18 6.5t4 19.5q-2 11-13 16-54 26-108.5 35.5T1026 399q-53 0-102.5-5.5T818 383q-46-5-86.5-9.5T662 369q-38 0-76.5 5T511 385q-35 5-72.5 9.5T363 399zM87 132l9-1-74-74q-7-5-9-5-3 0-3 3t6 9zm62 0l71-68q6-6 6-9t-3-3q-2 0-9 5l-75 74zm214 248q37 0 73-4.5t72-9.5q37-6 75-11t79-5q29 0 70.5 4.5T820 363q55 6 106 11.5t100 5.5q47 0 100-9.5t98-29.5q10-4 9-7t-9-1q-48 8-90.5 11t-101.5 3q-69 0-123-13t-93-30q-39-17-64-27-36-16-78.5-30T591 233q-34 0-70 10t-57 17q-42 13-74.5 23.5T331 294q-27 0-43.5-15.5T260 248l-32-43q-5-6-19-20t-36-25.5Q151 148 120 148q-49 0-80 22.5T9 215q0 20 24 31t54 11q16 0 26-2t17-3q13-5 23-5 16 0 29 14t22 25l38 46q17 21 42 34.5t79 13.5zM110 195q-6 0-10.5-4.5T95 180q0-16 15-16t15 16q0 15-15 15z" fill="currentColor"/></svg>