<svg xmlns="http://www.w3.org/2000/svg" viewBox="-10 0 1060.087 526"><path d="M436 526q-15 0-37.5-12t-46-28.5Q329 469 312 453l1-1q-26-5-45.5-10.5T230 430l-13-5h-29q-71 0-110.5-20T24 372l-6 4q-4 1-14 1t-10-13q0-13 11-18.5T16 335q0-6-13-14t-13-17q0-7 4.5-14.5T9 282q9 0 15 3 11-14 49.5-49T174 170L256 0h657L803 229q4 1 8.5 1.5t8.5.5q15 0 34-7t39-18l115-65q19 23 30.5 68t11.5 90q1 44-9.5 90t-33.5 70l-103-73q-11-9-26.5-18.5T851 358q-11 0-27.5 5.5T787 378q18 9 38.5 22t34.5 29q14 16 14 33t-14 29q-14 12-38 12-22 0-51.5-8.5t-58-20Q684 463 662 453t-29-13q-36 11-78 17.5t-88 6.5h-4q5 6 9 12.5t4 13.5q0 36-40 36zm348-301l98-206H269l-66 137q42-18 92.5-30T404 114q76 0 132.5 12.5T635 157q42 18 75 35 19 10 37 19t37 14zM467 445q62 0 115-12.5t97-30q44-17.5 78-32.5 2 0 3-1t3-1v-1q28-12 50-20.5t38-8.5q11 0 23.5 5t17.5 10q6-24 6-56 0-20-1.5-37t-5.5-30q-10 7-28.5 13.5T820 250q-31 0-59-11.5T701 210q-32-17-72-35t-95-30q-55-12-130-12-77 0-139 20t-108 47.5Q111 228 82 254t-39 38q-4 5-6 21t0 31q2 15 6 19 14 11 48.5 27t96.5 16h32q14-11 31-31t30.5-40.5Q295 314 298 300q16-3 41.5-6.5T387 290q52 0 85.5 16.5T506 349q0 20-16.5 32.5T448 400q-25 6-52 6-26-1-58.5-13T287 364q-10 14-22.5 26.5T241 413q24 8 52.5 15.5t70 12Q405 445 467 445zm534-13q15-19 22.5-57t7.5-76q-1-38-9.5-75t-20.5-57l-90 50q4 19 5 40t1 40q0 17-1 35t-6 35zM136 282q-21 0-21-20 0-7 5.5-13.5T136 242q9 0 14.5 6.5T156 262q0 20-20 20zm260 104q36 0 63.5-8.5T487 349q0-17-28.5-28T387 310q-16 0-37.5 2t-35.5 4q-5 14-15 29 15 15 44.5 28t52.5 13zm426 98q15 0 24-6.5t9-15.5q0-14-16.5-28t-38-26Q779 396 763 389q-22 10-48 21t-55 21q19 9 49 21.5t60.5 22Q800 484 822 484zm-386 22q21 0 21-16 0-6-9-14t-13-12q-51-1-87-6 19 15 45 31.5t43 16.5z" fill="currentColor"/></svg>