<svg xmlns="http://www.w3.org/2000/svg" viewBox="0 0 595 298"><path d="M550.4 65.7c29.9 24.7 44.8 56.1 44.6 94-.2 38-15.3 75.1-45.2 111.6-33.4-27.3-61.6-48.1-84.6-62.5-6.9-2.6-17.8.4-32.5 9.1 0 13 8.5 27.5 25.4 43.6-41.2 4.8-78.1-2.4-110.6-21.5l-91.7 15.6c-3 11.3-.9 25.4 6.5 42.3-38.2-5.2-71.1-21.9-98.9-50.1-36.9-3.9-69-11.1-96.3-21.5C39.7 216 17.3 203.2 0 188c.4-10.8 7.4-22.6 20.8-35.1 26.5-32.1 56-59.6 88.5-82.6 6.9-20.4 18.4-41 34.5-61.8C205.4 2.8 268.7 0 333.8 0s124 4.6 177 13.7l-56.6 118.4c12.5.8 44.6-21.3 96.2-66.4zm-9.8 47.5l-57.3 44.9v24.7c34.3 26.5 51.6 39.9 52 40.3 17.3-13.9 25.8-32.9 25.4-56.9-.3-24-7-41.7-20.1-53zm-70.2-83.3c-111-9.5-213.8-10-308.4-1.3l-18.9 42.3C257.2 70 353.7 85 432.6 115.8l37.8-85.9zm-7.2 141.2c-4.8-11.7-15-20.4-30.6-26-15.6-5.6-43.8-14.9-84.6-27.7-40.8-12.8-88-19.2-141.8-19.2s-89.6 5-107.3 15c-17.8 10-38 29.9-60.5 59.9 10 20.8 24.2 28 42.6 21.5 18.4-6.5 17.5-3.3-2.9 9.8 8.7 9.5 25.8 11.5 51.4 5.9 14.7-7.4 22.8-18.5 24.1-33.5 1.3-15 .9-31.1-1.3-48.5 4.8 0 9.5 3.8 14.3 11.4 4.8 7.6 11.1 12.5 18.9 14.6 3 .9 8.8 1.5 17.2 2 8.5.4 22.2-1.8 41.3-6.8 19.1-5 35.8 5.3 50.1 30.9-19.5 14.3-39.3 18.9-59.2 13.7-20-5.2-32.5-7.8-37.7-7.8-14.3 0-24.4 3-30.3 9.1-5.9 6.1-8.8 12.6-8.8 19.5s10.4 13 31.2 18.2c52 0 96.2-2.9 132.4-8.8s67.6-12.5 94-19.8c26.5-7.6 42.3-18.6 47.5-33.4zm-338.9-10.4c-5.6 10-12.6 15-20.8 15s-13.3-3.7-15.3-11.1c-2-7.4-.5-13.9 4.2-19.5 4.8-5.6 10.5-7.7 17.2-6.2 6.7 1.5 11.6 8.8 14.7 21.8z"/></svg>