<svg xmlns="http://www.w3.org/2000/svg" viewBox="0 0 594.2 267.1"><path d="M594.1 129.2c-19.2 9.4-34.3 24.3-45.3 44.7-.4 22.4 10.4 43.2 32.4 62.4 8.2 6.1 8 9.6-.6 10.4-17.1-.8-35.6-9.1-55.4-24.8-19.8-15.7-41.5-21.9-65.2-18.7-3.3 7.3 1.8 17.7 15.3 31.2-37.9-6.5-71.2-13.7-99.7-21.4-34.7-.8-82.2-1.4-142.6-1.8-10.6 11.4-12 26.7-4.3 45.9 4.9 7.7 4.3 11-1.8 9.8-59.1-26.9-98.1-51.6-116.9-74-8.2-6.5-19.2-10-33-10.4-13.9-.4-31.6-6.3-53.2-17.7-15.1-9.4-23-21.4-23.9-36.1 14.7-18.4 35.7-36.1 63-53.2s60.4-31.6 99.1-43.4c36-18.9 62.3-29.5 79.1-32 14.7-.8 16.1 2.4 4.3 9.8-16.7 17.5-24.3 32.8-22.6 45.9 26.9 16.3 54.1 28.2 81.7 35.8 27.5 7.5 56.7 19.8 87.5 36.7 30.8 16.9 68.4 23.8 112.9 20.5 33.9-15.5 60.6-25.1 80.1-28.8 6.8 0 9.9 3.1 9.1 9.2zm-514-26.3c13.1-1.6 20.2 2.7 21.4 12.8.4 10.2-4.1 16.5-13.5 19-11.4-1.2-17.7-5.7-19-13.5.1-8.5 3.8-14.6 11.1-18.3zm450.3 62.4c-18.4 3.7-40.8 4.6-67.3 2.8-26.5-1.8-55-10.3-85.3-25.4-30.4-15.1-61-27.6-91.8-37.6-30.8-10-55.6-20.9-74.3-32.7-24.5-17.5-49.9-20.6-76.2-9.2-26.3 11.4-48.6 22.8-67 34.3s-31 24.1-37.9 37.9c17.1 17.5 33 26.4 47.7 26.6 14.7.2 30.1-3.9 46.2-12.2 16.1-8.4 16.6-29.7 1.5-63.9 31 19.6 34.3 46.7 9.8 81.4 15.5 9.8 39.1 16.3 70.7 19.6 31.6 3.3 58.7 5.3 81.4 6.1 22.6.8 52.7-.8 90.2-4.9 37.5-4.1 67.1-6.1 88.7-6.1 21.6 0 42.8 2.4 63.6 7.3-4.4-9.5-4.4-17.5 0-24zm-319.9 43.5c-29.8-6.1-56.1-12.8-78.9-20.2 14.7 18.8 39.8 34.7 75.3 47.7-.5-8.2.7-17.4 3.6-27.5zM81.4 120.7c3.7 1.6 6.2 1.7 7.6.3 1.4-1.4 1.6-3.1.6-4.9-1-1.8-2.8-2.5-5.2-2.1-2.4.3-3.4 2.6-3 6.7z"/></svg>