<svg xmlns="http://www.w3.org/2000/svg" viewBox="-10 0 1167 520"><path d="M469 520q-28-6-65.5-23T329 457q-37-23-63-45-57-9-111.5-22.5t-97-28.5Q15 346-3 333l9-28q-4-6-9-14.5t-7-13.5l177-119q30-21 70-42t80.5-42Q358 53 390 34t47-34l13 10q-16 31-19.5 63.5T432 141q34 9 63.5 18.5T547 176q28 8 71.5 21.5T709 225q47 14 84 25 17 5 45.5 10.5T890 266q23 0 59.5-8t76.5-20q40-12 72.5-24t46.5-20l12 13q-69 92-84 116 5 10 19.5 32t31.5 46.5q17 24.5 30 42.5l-11 13q-30-17-70-40.5t-83.5-41Q946 358 905 358l30 63q-2 9-12.5 15t-24.5 6q-20 0-45.5-8T805 418l-95-35q-9 1-17 3t-16 3q-22 5-58 12t-79 13.5q-43 6.5-85 9.5zm-57-385q-3-25-2-49t9-49q-25 17-60 37.5T284 117q2 0 4.5-.5t4.5-.5q26 0 57 6t62 13zm-3 271q47 0 98.5-6t95.5-14.5q44-8.5 70-14.5 34-7 78.5-14.5t87-12.5q42.5-5 71.5-5 23 0 45 6 6-13 6-31 0-20-7-37-19 4-35.5 6.5T890 286q-24 0-54-6t-49-11q-3-1-22.5-7t-49-14.5Q686 239 653 229t-62.5-19q-29.5-9-48.5-15-30-9-74.5-23T376 147q-47-11-83-11-22 0-40 4t-31 10q-2 2-12.5 7T181 174L15 283l10 22-7 20q22 13 65.5 27.5T180 378l72-46-14-23 18-17q-6-8-12.5-15T232 262l15-12 36 44-20 19q4 7 8.5 14t7.5 11l-71 46q53 10 105.5 16t95.5 6zM136 272q-11 0-18-7.5t-7-17.5q0-11 7-18t18-7q10 0 17.5 7t7.5 18q0 10-7.5 17.5T136 272zm974 144q-19-27-36.5-55.5T1052 322q7-13 27-41.5t37-51.5q-28 11-66.5 23T973 273q3 9 5 20t2 21q0 20-6 36 36 11 71 30t65 36zM136 258q4 0 7.5-3.5t3.5-7.5q0-5-3.5-8t-7.5-3q-11 0-11 11 0 4 3 7.5t8 3.5zm267 103q-16 0-38-4.5T324.5 346q-18.5-6-24.5-8l8-18q5 2 22.5 7.5t38 10Q389 342 403 342q26 0 43-6.5t23-10.5q-11-3-34-10t-47.5-12.5Q363 297 348 297q-10 0-18.5 2.5T313 305l-8-17q9-4 19.5-7.5T348 277q14 0 39 5.5t52.5 13.5q27.5 8 50.5 16v20q-13 9-38 19t-49 10zm495 62q9 0 15-4-5-11-14.5-31.5T884 359q-29 1-65 5.5T749 375l63 24q21 8 45 16t41 8zm-453 70q-2-15-5-36t-5-32q-7 1-13.5 1H409q-23 0-49.5-2t-55.5-6q33 24 72.5 45t68.5 30z" fill="currentColor"/></svg>