<svg xmlns="http://www.w3.org/2000/svg" viewBox="-10 0 1197 442"><path d="M1149 442q-36-21-89-45.5t-110.5-44Q892 333 842 326l50 63q-25-6-45-9.5t-35-3.5q-32 0-69.5 9T671 415l-78-63q-4 1-10 1-15 0-44.5-4T471 337.5q-38-7.5-76-17.5l-22 83-119-134q-23-1-45-10t-30-15q-34-8-73-35.5T35.5 145Q4 109-10 75l30-16L9 24q20-7 56.5-15.5T141 0q26 0 59 5t67 12.5q34 7.5 63 15T375 45l67 21L715 0q-13 26-26 63.5T675 135l29 8 201-41-58 85q22 7 45 12t42 5q31 0 59-5.5t45-11.5q11-3 34.5-10t51-15.5Q1151 153 1173 145l14 23q-22 15-45 35.5t-39.5 43Q1086 269 1086 288q0 20 10 41t23.5 40q13.5 19 26 31.5T1163 417zM967 338q14-23 14-57 0-30-15-59-7 1-15.5 1H934q-27 0-62-10t-59-17L369 64q-15-5-42.5-12t-61-14.5Q232 30 199.5 25T141 20q-30 0-61 5.5T32 36q1 7 3 17.5T39 71L14 84q15 27 42 56t59.5 52q32.5 23 63.5 31 51-18 68-61l18 8q-17 41-62 64l9 5q25-10 43-29t26-40l18 8q-8 19-23 37.5T239 247q3 1 6 1.5t6 .5q23-16 46-48t31-57q15 0 38 2t39 5q58 11 87 32.5t45 37.5q-26 11-58.5 19.5T418 249q-31 0-54-4t-55-24q-18 23-35 37 32 16 77 29.5t91.5 23.5q46.5 10 84.5 16t56 6q9 0 26.5-3t36.5-7q31-7 72-13t84-6q38 0 81 9.5t84 24.5zM655 129q2-28 9.5-54.5T681 28q-46 11-99.5 24T479 76zM132 80q-11 0-18-7.5T107 55q0-10 7-17t18-7q11 0 18 7t7 17q0 10-7 17.5T132 80zm0-14q4 0 7.5-3.5T143 55q0-4-3.5-7t-7.5-3q-4 0-7.5 3t-3.5 7q0 4 3.5 7.5T132 66zm696 115l34-50-118 25q39 11 55.5 16.5t21.5 7q5 1.5 7 1.5zm-410 49q22 0 44.5-4.5T503 214q-13-11-35.5-23.5T401 170q-15-3-31.5-4t-27.5-2q-8 21-21 41 28 17 48 21t49 4zm710 179q-12-14-26.5-34t-25-43q-10.5-23-10.5-44 0-23 15-46t34.5-42q19.5-19 34.5-30-13 5-34 12.5t-41 14q-20 6.5-31 9.5t-26 6.5q-15 3.5-32 6.5 15 30 15 62 0 34-16 63 45 17 82.5 35t60.5 30zm-765-46l13-48q-21-6-41-12t-37-14zm310 28q33-18 69.5-26t69.5-8h15l15 1-26-34q-4 0-7.5-.5t-6.5-.5q-41 0-81 6.5T649 343q-8 2-15 3t-15 2z" fill="currentColor"/></svg>