<svg xmlns="http://www.w3.org/2000/svg" viewBox="0 0 595.3 227.7"><path d="M595.3 113.2c-9.5 10.3-21.7 18.2-36.5 23.5-14.8 5.4-25.1 9.5-30.6 12.4-5.6 2.9-8.8 8-9.6 15.5 0 9.1 8.4 19.1 25.1 30 16.7 10.9 27.1 20.5 31.2 28.8-41.2 10.7-77.1-1.2-107.7-35.9-24.7-7-31.8 1-21 24.1-10.7-3.3-19.2-7.3-25.4-12.1-6.2-4.7-13.4-7.1-21.7-7.1-15.3 0-29.9 11.8-43.9 35.3-21.4-6.6-38.8-16.7-52-30.3-13.2-13.6-20.2-20.4-21-20.4l-108.3-26.6c-7 7-9.7 15.9-8 26.6-26.4-2.9-47.2-20.6-62.5-53.2-2.1-5-13-12.8-32.8-23.5-19.8-10.7-40.4-27-61.9-48.9-5.4-4.1-8-9.9-8-17.3-2.1-6.6.6-13.6 8-21C19.4 4.7 38.8.4 66.9 0c21.4 0 55.3 6.6 101.5 19.8 44.1 10.3 75.3 15.1 93.4 14.2 39.2-11.5 71.8-14.6 97.8-9.3-16.5 16.1-23.5 31.8-21 47 9.5 7.4 22.1 12.2 37.7 14.2 33.4-4.1 61-5.8 82.9-4.9-8.7 9.5-12.8 20.6-12.4 33.4 7 5.8 17.3 8.7 30.9 8.7 44.2-18.9 83.3-22.2 117.6-9.9zm-94.7 47.7c-10.3-7.4-21.2-11.8-32.8-13 3.3 3.7 2.7 7.8-1.9 12.4 11.2 3.3 22.8 3.5 34.7.6zM380 175.7c-17.3-2.5-41.5-4.3-72.4-5.6 12 14.4 24.3 25 37.1 31.6 7.4-8.7 19.2-17.3 35.3-26zm71.1-25.3c.8-6.2-11.2-14-36.2-23.5-25-9.5-42.9-16.4-53.8-20.7-10.9-4.3-29.8-12.5-56.6-24.4-26.8-12-63.7-24.3-110.8-37.1-47-12.8-75.3-20.6-84.8-23.5-9.5-2.9-20.6-4.8-33.4-5.9s-23.6-.8-32.5.6c-8.9 1.4-12.5 3.9-10.8 7.4 1.7 3.5 7.9 9.7 18.9 18.6C62 50.6 63.1 54 54.2 52c-8.9-2.1-16.4-3.7-22.6-5-3.7 5.4 16.9 20.2 61.9 44.5 24.3 12 40.6 15.1 48.9 9.3 2.5-4.5 3.9-12.6 4.3-24.1.4-11.5 5.6-20.6 15.5-27.2 8.2 15.7 34.6 28 79.2 37.1 14.8 6.2 19.2 10.3 13 12.4-4.1 4.1-17.7 7-40.8 8.7-23.1 1.7-40.2 1.7-51.4 0 0 11.1 8 19.2 24.1 24.1 21.9 6.2 63.9 12.3 126.2 18.3 62.3 6 100.8 9 115.4 9 14.7-.1 22.4-3 23.2-8.7zM94.7 44.5c-4.1 6.2-9.3 7.4-15.5 3.7-5.8-4.1-6.6-9.3-2.5-15.5 4.1-5.8 9.1-6.6 14.8-2.5 5.9 4.2 6.9 9 3.2 14.3z"/></svg>