<svg xmlns="http://www.w3.org/2000/svg" viewBox="-10 0 1272 581"><path d="M1171 581q-38-31-78.5-59t-80.5-59q-36-29-85.5-45.5T827 391l-3 67q-39-8-69-24.5T704 399q-21-18-32-30l-8-2q-21-3-53-10.5t-67.5-18Q508 328 475 316t-57-24l-1 69q-14-9-38-29.5T330 283q-25-28-44-60h1q-25-10-50-16t-48-6q-30 0-61 7t-58 17q-27 10-44 19l-7-3q-3 3-7 5t-6 4l-16-22q11-38 36-76t69-70q44-32 111-51t162-17q21-4 58-9t74-5q57 0 131.5 21T783 82q77 40 141 96l-38 43q37 24 75 47t70 39.5q32 16.5 50 20.5 10 2 32 3t47 1.5q25 .5 44 .5h58l-135 93q4 12 11.5 39t16 58.5Q1163 555 1171 581zM870 210l27-30q-60-50-132-86T623.5 39Q554 20 500 20h-18.5L463 21q77 11 135.5 33T697 99.5q40 23.5 62 37.5 46 30 69 45.5t42 27.5zm153 236q18-12 34-35t16-55q0-2-.5-5t-.5-5q-23-6-59.5-26T932 272.5Q888 245 841 214t-92-60q-20-13-54.5-33.5t-83-40.5q-48.5-20-111-33.5T361 33q-93 0-156 19t-102 48.5Q64 130 42.5 162T12 220q29-22 73.5-42T195 153l1 20q-42 3-74.5 13T63 210q26-10 60-19.5t66-9.5q15 0 30.5 2.5T250 190q19-15 24-34t4-40l19-2q2 22-2.5 43.5T272 197l3 1q20-16 28-38t7-42l19-2q2 22-6 46t-27 44q34 14 65 31t56 31q20 13 53.5 25.5t70.5 24q37 11.5 71 19.5t55 11q11 2 24 3.5t28 3.5q46 5 101.5 14.5t109 27.5q53.5 18 93.5 49zM243 90q-8 0-13-5t-5-13q0-7 5-12.5t13-5.5q8 0 13 5.5t5 12.5q0 8-5 13t-13 5zm221 132q-35 0-64-11t-47-22.5Q335 177 332 175l24-59q47 4 95 26t77 60q-10 7-28 13.5t-36 6.5zm0-20q20 0 34-6-23-25-58-39.5T369 137q-3 7-7 16t-6 16q11 7 39 20t69 13zm-65 123v-45q-17-10-38.5-22T316 236q20 29 43.5 52.5T399 325zm737 204q-6-23-15-55t-16-55l95-67q-23 0-54.5-.5T1092 349v7q0 36-16.5 62t-36.5 41q23 18 48 34.5t49 35.5zm-331-96l3-46q-25-5-48-7.5t-43-5.5l-14-1q16 16 42 34t60 26z" fill="currentColor"/></svg>