<svg xmlns="http://www.w3.org/2000/svg" viewBox="0 0 592.6 265.8"><path d="M592.1 171.7c2.1 9-2 14.4-12.5 16.3-10.5 1.9-19.1 8.9-25.9 20.8-.9 17.5 2 30.8 8.6 40s7.5 14.2 2.6 15c-4.9.9-7.8 1.5-8.6 1.9-10.2-6-27.6-18.1-52.2-36.5-24.5-18.3-46.5-30.3-65.9-35.8-19.4-5.5-33.8-10-43.2-13.4-3.8 10.2-1.9 22.4 5.8 36.5-7.7 6-33.3-8.5-76.8-43.5-41.8-6-80.2-14.9-115.2-26.9-10.2-.4-15.4 9.4-15.4 29.4-10.7-6.8-29.2-25.6-55.7-56.3C106 101.3 60.2 99.4 0 113.4 6.4 66 33.1 34.8 80 19.6S176.1-1.9 227.5.5s92.9 10.3 124.5 24c31.6 13.7 70 38.6 115.2 74.9-17.9 2.6-29 8.3-33.3 17.3 12.8 8.1 26.6 16.9 41.3 26.2 14.7 9.4 32.5 16.2 53.4 20.5 21 4.2 42.1 7 63.5 8.3zM426.9 94.2c-27.3-23-62.7-42.9-106.2-59.5s-95.4-20.9-155.5-12.8c52.1 6.8 94.2 16.2 126.4 28.2s57.5 22.6 75.8 32c18.3 9.4 32.4 16.9 42.2 22.4l17.3-10.3zm117.2 96.7c-23.9-5.5-56.5-20.8-97.9-45.8-41.4-25-79.9-46.4-115.5-64.3C295 62.9 236.2 47.9 154.3 36c7.3 29 7 51.8-.6 68.5 14.5 9.4 31 16.5 49.6 21.4 18.6 4.9 45.6 11.3 81 19.2 35.4 7.9 62.3 12.6 80.6 14.1 18.3 1.5 38.2 5.2 59.5 11.2 21.3 6 38.6 12.9 51.8 20.8 13.2 7.9 32.6 20.2 58.2 36.8-3.4-10.2-.2-22.6 9.7-37.1zM137.6 92.3c2.6-9.4 3.8-17.2 3.8-23.4s-3-13.1-9-20.8c-6-7.7-16-10.7-30.1-9S74 46.2 59.7 55.4c-14.3 9.2-24.2 19.1-29.8 29.8 46.3-8 82.1-5.7 107.7 7.1zM81.3 61.6c2.6-11.1 7.9-17.1 16-17.9 8.1-.9 13.9 1.8 17.3 8 3.4 6.2.4 10.7-9 13.4-9.4 2.8-17.5 1.6-24.3-3.5z"/></svg>