<svg xmlns="http://www.w3.org/2000/svg" viewBox="0 0 586 300.4"><path d="M259.2 16.5c59.9 21.8 97.9 29.2 158.2 21.1 21.7 0 39.3 5.8 48.1 13.7 3.1 2.7 4.9 5.5 5.1 8.3.2 2.5-.9 5.2-3.9 8.4-8.1 8.4-26.9 16.6-60.3 22H399c-67.8-20.9-128-35-195.1-35-4.5 0-9 .1-13.6.2 17.8-27.7 42-38.5 68.2-38.6.3-.1.5-.1.7-.1zM90.7 100.8c-9 0-15.7 4.5-17.7 10.3-2.1 6.1.8 13.3 9.9 17.8l.6.3h1.9c10 0 16.2-5.3 17.7-11.6 1.6-6.7-2.4-14.1-11.4-16.8l-.4-.1-.6.1zm-68.9 29zM15.9 152zM494 162zm67.7-73.4c13.9 25 7.2 75.2-3.7 92.3-10.5-.6-20.5-3.3-30.4-6.6-8-2.7-15.8-5.8-23.8-8.8 7.2-13.4 10-37.5 2.5-56.2 17.7-9 35.8-16.9 55.4-20.7zm-3.7 92.3zm-395.5-51.2c-9.8-10.1-24.1-4-27.1 3.6 18-7.5 22.7 2.8 22.3 4.2-4.6 13.6-32.9 49.6-57.4 58.3v.2c-14-5.8-29.9-12.8-44.3-19.9-15.2-7.6-28.6-15.3-35.8-21.9-1.1-1.1-2.1-2-2.8-2.9.1 0 .2-.1.3-.1l5.2-2.1V145c.2-.3.3-.6.5-.9 1.3-3.1 1.2-6.7-.9-10.3-.2-.9-.3-1.6-.4-2.3.8-.4 1.8-1 3-1.6l.4-.2.4-.3c37.4-25.6 80.1-39.7 122.6-49.5 10.5 15.8 13.6 32 14 49.8zm-1.6 18.1c-4.1 23-15.6 43.7-32.5 59.1-4.9-1.8-11.1-4.1-18.1-7 23.7-10.5 35.7-32.8 50.6-52.1zM385.3 103l7.8 2.7c34 12 68.4 10 103.6 7.2 6.7 16.7 3.5 39.1-2.7 49.1-.8-.3-1.6-.5-2.4-.8-12.3-4-25-6.8-38.5-6.8-15 0-30.9 3.5-48.3 12.9-22.7 14-47 25.1-70.9 37h-.1c-60.3 13.8-107.5 19.4-179.6 3.9 32.4-35.1 39.4-80.5 15.5-130.8 72.2-15.1 146.1 5.7 215.6 25.6zm21.7 81.4c78 40 1.5 63.4-55 29.8 19.6-7.4 37.1-19.1 55-29.8zm-251.9 45.9c14.8 1.9 29.6 4.3 44.4 6.5 9.7 10.1 15.6 21 21.9 28.6 22.9 27.6-7.1 22.4-25.2 6.3-14.8-13-28.3-26.9-41.1-41.4zM259.2 0h-.7C224.3.2 193 15.9 172 53.9c-30 8.2-59.3 19-88.8 28.8-23.3 8.3-45.9 18.2-66.3 32.9-2.2 1.2-3.9 2.1-5.1 2.9-2.6 1.6-4.4 3.6-5.4 5.9-.9 2.2-1.2 4.7-.8 7.6.2 1.6.6 3.6 1.1 6.4v.1c-1.2.8-2.2 1.8-3.1 2.7C1 143.9-.2 147.4 0 151c.2 2.9 1.3 5.8 3.2 8.7 1.5 2.2 3.4 4.4 5.9 6.6 8.3 7.6 23 16.2 39.6 24.5 29.9 14.9 66.1 28.9 80 33.7 17.6 21.5 36.1 41.5 57.1 59.9l.8.6c27.1 23.4 57.2 11.9 65.5 14.8 19.3 6.7-34.8-62.3-18.3-61.9 33.4.9 66.8-3.3 98.4-12.4 76.3 52.4 190.2-2.9 94-49.9 9.6-3.5 18.6-4.9 27.1-4.9 11.7 0 22.6 2.6 33.2 6.1 12.1 3.9 23.9 9 35.8 13.1 12.8 4.4 25.9 7.6 39.7 7.6h3.7l2.5-2.7c18-20 27.2-89.5 4.1-120.2l-3-4c-26.6 2.5-49.8 15.1-73.7 25.7-17.6 4.8-35.5 2.7-53.3 2.4 17.6-5.5 29.4-12.2 36.3-19.3 6.4-6.6 9.1-14 8.5-21.3-.6-7-4.3-13.6-10.5-19.1-11.8-10.6-33.7-21.4-59.4-17.9-70.7 9.7-110.9-6.8-158-21.1z"/></svg>