<svg xmlns="http://www.w3.org/2000/svg" viewBox="-10 0 1272 463"><path d="M444 463q-19 0-40.5-11.5t-42-28Q341 407 324 390t-26-27q-23-8-47-12t-50-8q-17-4-35-7t-33-6q-34-8-72-23t-63-36l16-20-24-21q46-51 91-84.5t96.5-51Q229 77 294 73L417 0q80 0 160 5t149.5 17Q796 34 847 55l-30 75q41 7 85 13.5t81.5 11q37.5 4.5 61.5 4.5t63.5-11.5q39.5-11.5 81-28T1262 88q-3 36-16.5 66.5t-32 53.5q-18.5 23-35.5 35 9 12 26.5 34.5t31 55Q1249 365 1247 404q-28-27-71-49t-88-34.5q-45-12.5-79-12.5-20 0-47 4t-56 9l17 86q-37 0-78.5-6T766 386q-37-9-60-18-46 11-95.5 18.5T521 394q-17 0-33-.5t-32-1.5l23 43q0 4-6 16t-29 12zm353-336l25-61q-47-18-111-28T572.5 23.5Q498 19 422 20l-88 51q120 0 199 11t132 22q32 6 65.5 12t66.5 11zM521 375q42 0 92-8t97-19q47-11 81-20 38-9 79.5-18t78-15q36.5-6 60.5-6 16 0 34.5 3t38.5 7q13-29 13-65 0-35-12-60-11 2-20.5 3.5T1045 179q-35 0-83.5-5.5t-102-14.5q-53.5-9-105-18.5T661 123q-54-10-129.5-21T343 91q-67 0-118.5 10T131 134q-42 23-82 61 16 30 16 51 0 19-11 38 38 17 83 26 11 3 24.5 5.5T189 320q29-19 44-44.5t16-62.5l20 1q-3 70-54 111l14 3q61-40 64-115l19 1q-2 74-57 119 64 15 128.5 28.5T521 375zm700-19q-9-26-31.5-59.5T1149 241q22-16 49-48t35-68q-28 13-63.5 25.5T1102 170q13 31 13 64 0 39-14 70 32 9 64 22.5t56 29.5zM168 218q-11 0-19-8t-8-19q0-11 8-19t19-8q11 0 19 8t8 19q0 11-8 19t-19 8zm0-16q4 0 7.5-3.5t3.5-7.5q0-4-3.5-7.5T168 180q-4 0-7.5 3.5T157 191q0 4 3.5 7.5t7.5 3.5zM37 275q8-14 8-29 0-18-11-36l-17 18 24 20-16 20q2 1 5 3t7 4zm388 28q-29 0-60-6t-50-12l14-73q11 0 35.5.5t55.5 5q31 4.5 62.5 15T539 262q-16 13-47.5 27T425 303zm0-20q21 0 44.5-7t36.5-14q-24-15-55.5-21.5t-60.5-8q-29-1.5-45-1.5-2 11-4 20.5t-4 20.5q11 2 35.5 6.5T425 283zm474 105l-12-63q-36 8-92 22-14 3-29 7t-23 6q33 10 76 18.5t80 9.5zm-455 55q5 0 8.5-2t5.5-3q-4-7-13-25l-12-24q-29-3-54.5-7.5T333 372q15 15 34 31.5t39.5 28Q427 443 444 443z" fill="currentColor"/></svg>