<svg xmlns="http://www.w3.org/2000/svg" viewBox="-10 0 1228 1175"><path d="M1073 1175q-34 0-58.5-18.5t-43-43.5q-18.5-25-35.5-45-5-5-22.5-23t-47-41.5q-29.5-23.5-68-46T714 920q25 21 42.5 46t17.5 56q0 61-50 61-17 0-43-16t-52.5-41q-26.5-25-44.5-51-7-10-17-25l-18-27-11-17h-48q-77 0-146-13t-140-59q-36-22-73.5-61.5T61 680Q29 627 9.5 563T-10 427q0-56 13-101.5t28.5-77Q47 217 55 203q-5-20-7-33t-2-39q0-21 9.5-42.5T74 55l8 10q2 3 5 6t9 3q6 0 8-4.5t2-9.5q0-7-3-17t-5-17q10-6 31-16t69-10q39 0 77 14.5T341 43q15 8 39.5 12.5T432 65q27 5 50 13 53 19 107.5 59.5t102 96Q739 289 771 354q8 17 25.5 62.5T837 519l101 30q7 2 22.5 9.5t29 23Q1003 597 1003 623q0 33-21 47t-39 14q-8 0-15.5-1.5T909 678q24 49 49.5 89.5T1008 828q15 13 48 32t71.5 38q38.5 19 70.5 34 7 19 13.5 48t6.5 48q0 47-16 75.5t-39.5 44.5q-23.5 16-48 21.5t-41.5 5.5zm-127-125q19-8 46.5-24t50-48q22.5-32 29.5-87-23-13-44-25.5T996 843q-27-24-56.5-72.5T881 662q-29-60-54-119.5T784 437q-10-23-18.5-44T753 362q-30-60-76.5-113.5t-99-93.5Q525 115 475 97q-34-13-71-17.5T333 61q-28-12-64-27t-71-15q-35 0-51 6t-26 12q1 5 2 11.5t1 14.5q0 31-28 31-7 0-11.5-2.5T76 87q-4 8-7 19t-3 25q0 25 2 38t8 37q-10 17-26 49t-28.5 75Q9 373 9 427q0 69 19 131t50 112.5q31 50.5 67 88.5t69 59q47 30 91 44.5t89 19q45 4.5 96 4.5 29 0 60-.5t66-.5q62 0 116.5 20t98 49q43.5 29 73 56t42.5 40zM241 98q-11 0-19.5-8T213 71q0-11 8.5-19.5T241 43q11 0 19 8.5t8 19.5q0 11-8 19t-19 8zm0-16q4 0 7.5-3.5T252 71q0-4-3.5-7.5T241 60q-11 0-11 11 0 4 3.5 7.5T241 82zm-70 183q-22 0-47-3l2-20q25 3 45 3 44 0 73-13.5t58-42.5l14 14q-32 32-64 47t-81 15zm6 35q-13 0-26.5-1t-27.5-3l3-20q14 2 27 3.5t24 1.5q52 0 87.5-20t65.5-51l13 14q-33 35-70.5 55.5T177 300zm201 143q-19 0-32-12.5t-20-30q-7-17.5-10-31.5-3-15-8-41.5t-8-45.5l76-51 99 36q11 4 29 14.5t18 38.5q0 26-15 48.5t-38.5 39q-23.5 16.5-48 26T378 443zm0-19q21 0 50-13.5t51.5-37.5q22.5-24 22.5-53 0-18-13-24.5t-21-9.5l-90-32-57 38q2 10 6.5 33.5T336 365q3 18 13 38.5t29 20.5zm561 241q11 2 27.5-7t16.5-35q0-20-10.5-31t-23-16.5Q937 570 932 568l-85-26q12 28 25 56.5t26 56.5zm134 490q15 0 36-5t41.5-18.5q20.5-13.5 34.5-38.5t14-65q0-21-5-45t-10-39q-15-7-41-19t-52-25q-8 55-31 88t-51 51q-28 18-49 26 3 4 6.5 9t6.5 9q18 24 42 48t58 24zm-349-91q30 0 30-42 0-35-27-61.5T670 910q-13-2-27-3.5t-27-1.5h-55l39 59q17 25 40.5 47.5T687 1049q23 15 37 15z" fill="currentColor"/></svg>