<svg xmlns="http://www.w3.org/2000/svg" viewBox="0 0 551.6 524"><path d="M535.1 497c-23.7 22.2-44.3 30.8-61.8 25.6-17.5-5.2-46.4-36-86.6-92.3-15.6-16.1-31-24.4-46.2-24.9-7.6 9.9-8 22.5-1.4 37.6 6.6 15.1 13.5 30.3 20.6 45.4-67.2-3.8-110.1-32.2-128.5-85.2-5.2-9-21.3-15.6-48.3-19.9-27-4.3-61.8-15.9-104.4-34.8-42.6-18.9-67.9-57.3-76-115-8-57.8 2.8-121.2 32.7-190.3-1.4-15.1 3.1-26.6 13.5-34.4C59.1 1 69.7-1.6 80.3 1 91 3.6 97 4.9 98.4 4.9 108.4-.3 115.2 2 119 12c48.3 8 90.9 19.8 127.8 35.1 36.9 15.4 65.3 43.7 85.2 84.9 19.9 41.2 36.7 76.4 50.4 105.8 13.7 29.3 39.5 52.1 77.4 68.2-23.2 27-28.2 45.9-14.9 56.8 49.2 27 79.8 46.5 91.6 58.6 11.8 12.1 16.7 25 14.6 38.7-2.1 13.7-7.5 26-16 36.9zm-15.6-17.1c12.8-21.8 10.7-38.5-6.4-50.1-17-11.6-33-21.8-47.9-30.5-14.9-8.8-25.9-13.8-33-15.3-14.2 0-22 8-23.4 24.1 0 7.1 5.8 19.4 17.4 36.9 11.6 17.5 28 34.1 49.3 49.7 18 5.8 32.6.8 44-14.8zM414.4 307.4c-26-14.7-49.1-44.6-69.2-89.8-20.1-45.2-43.2-83.2-69.2-114-26-30.8-82.6-52.5-169.7-65.3-11.8 2.8-20.7 3-26.6.4-5.9-2.6-8.5-.9-7.8 5 .7 5.9 1.8 11.6 3.2 17 1.4 5.4 2.1 9.6 2.1 12.4-1.4 6.6-10.8 20.7-28 42.2-17.3 21.5-22.5 57.6-15.6 108.3s30.7 85 71.4 103 88.3 30.5 142.7 37.6c54.4 7.1 91.4 13.1 110.8 18.1 19.4 5 33.6 2 42.6-8.9-.2-26.5 4.3-48.5 13.3-66zm-88.8 149.8c-12.3-19.9-18.2-38.3-17.8-55.4l-32-5c-9-.5-9.3 7.8-1.1 24.9 8.5 17 25.4 28.9 50.9 35.5z"/></svg>