<svg xmlns="http://www.w3.org/2000/svg" viewBox="-10 0 1258 456"><path d="M45 456l-23-10q1-14 14.5-42T65 352q-28 15-52 42l-14-20q14-30 31.5-49.5T68 291q-18 2-37 8t-34 17l-7-35q14-11 26-18.5T39 250l-49-1v-41l49-2q-11-4-23-12t-26-19l7-35q15 12 34 17.5t37 8.5q-20-15-37.5-34T-1 83l14-21q11 13 25 24.5T65 105Q50 80 36.5 52.5T22 11L45 0q5 10 19.5 28t33 37q18.5 19 35 32t26.5 13q14 0 29-5.5T215 94q28-10 61-20t65-12q22-1 60-4.5t67-9.5l26-6q24-5 50-10.5t52-5.5q18 0 40.5 2.5T672 33v26q-10 1-26.5 5.5L618 72q15 3 29 6t28 7l43-37 309 82-34 48q10 2 18 3t14 1q15 0 36-6t41-13q19-7 37-12t32-5q34 0 55.5 25.5T1248 228q0 32-21.5 57.5T1171 311q-14 0-32-5.5t-37-11.5q-20-8-41-14t-36-6q-6 0-14 1t-18 3l34 48-309 83-43-38q-14 4-28 7t-29 6l27.5 7.5L672 397v27q-13 2-35.5 4t-40.5 2q-26 0-52-5t-50-11l-26-6q-29-5-67-8.5t-60-5.5q-32-2-65-11.5T215 363q-12-5-27-10.5t-29-5.5q-10 0-26.5 13t-35 32q-18.5 19-33 37T45 456zm4-34q13-18 34.5-40t42.5-38.5q21-16.5 33-16.5 17 0 33.5 6t30.5 12q20 7 39 13t38 11q28-33 40.5-71t15.5-70q-3-32-15.5-70T300 88q-19 4-38 10t-39 14q-14 5-30.5 11t-33.5 6q-12 0-33-16.5T83.5 74Q62 52 49 35q7 15 19 36t24.5 41.5Q105 133 116 148q-22-9-46-22T29 97q17 28 46.5 49t64.5 44q-53-3-83-8T5 162q27 21 47.5 29.5T102 207l-1 17-92 2v4l92 3 1 16q-29 7-49.5 16T5 294q22-14 52-19.5t83-7.5q-35 23-64.5 44T29 359q17-15 41-28.5t46-21.5q-11 15-23.5 35.5t-24.5 41Q56 406 49 422zm547-11q13 0 25-1t22-2q-50-11-105-31.5T446 325v-22q23-7 52-17t42-15q22-10 34-19t21-19v-10q-9-9-21-18.5T540 186q-13-5-42-15t-52-17v-22q37-32 92-52t105-31q-20-3-47-3-25 0-49.5 5T499 61l-27 7q-29 6-67.5 9T342 82q-5 0-10 .5T322 84q27 34 39 72.5t14 71.5q-2 34-14 72t-39 73q5 1 10 1t10 1q24 1 62.5 4.5T472 389l27 6q23 6 47.5 11t49.5 5zm378-237l22-32q-69-19-136-36.5T723 69l-25 22q7 1 18 4.5t46 12.5q19 5 43 13t50 16q31 11 62 20.5t57 16.5zM575 371q28-3 53-8.5t55-13q30-7.5 74-19.5 19-5 43-13.5t49-15.5q33-11 67-21.5t62.5-17.5q28.5-7 46.5-7 13 0 28 3.5t30 7.5q6-9 8.5-19.5t2.5-18.5q0-8-2.5-18.5T1083 190q-15 5-30 8.5t-28 3.5q-18 0-46.5-7T916 177q-34-11-67-21-25-8-49-16t-43-13q-44-12-74-20t-55-12.5Q603 90 575 86q-30 9-62 23t-50 32q2 1 17.5 5t35 10q19.5 6 31.5 12 26 11 41 23t26 25v24q-11 14-26 25.5T547 288q-12 6-31.5 12t-35 10q-15.5 4-17.5 5 18 18 50 32t62 24zM285 188q-11 0-19-8t-8-20q0-11 8-19t19-8q11 0 19.5 8t8.5 19q0 12-8.5 20t-19.5 8zm0-17q11 0 11-11 0-10-11-10-4 0-7.5 3t-3.5 7q0 4 3.5 7.5t7.5 3.5zm886 120q25 0 41.5-19.5T1229 228q0-23-16.5-43t-41.5-20q-10 0-27 5t-35 11q-2 1-4 1.5t-3 1.5q6 11 8.5 23.5t2.5 20.5q0 9-2.5 21t-8.5 24q3 0 7 2 18 7 35 11.5t27 4.5zm-886 32q-11 0-19-8t-8-19q0-11 8-19t19-8q11 0 19.5 8t8.5 19q0 11-8.5 19t-19.5 8zm438 64q70-18 137-36t136-36l-22-33q-26 7-57 16.5T855 319q-26 8-50 16.5T762 348q-35 9-46 12.5t-18 4.5zm-438-80q11 0 11-11 0-4-3.5-7.5T285 285q-4 0-7.5 3.5T274 296q0 4 3.5 7.5t7.5 3.5z" fill="currentColor"/></svg>