<svg xmlns="http://www.w3.org/2000/svg" viewBox="-10 0 795 1199"><path d="M87 1199l-18-25q14-15 29-32t28-37l-12 4-9-10 12-55-15 16-11-8 17-53-20 17-10-9q5-21 15.5-55t26-67q15.5-33 33.5-50-3-15-5-31.5t-2-33.5q0-42 6-76-32 30-44.5 62.5T86 826l-11-6q-8 19-23.5 33.5T15 881l-25-31q18-12 30.5-29T38 792q-7 0-15.5-.5T9 791l47-51q-5-2-9-3t-6-2l27-27q-7-2-13.5-3t-9.5-2q16-14 38.5-30t45-29.5Q151 630 168 626q9-30 15-36 4-3 11.5-6t21.5-5q-9-11-9-31 0-10 2.5-26t6.5-33h-79q-23 0-33-8.5T94 454q0-20 9-45l58-176 8-3 9 13 18-87 8-2 14 31q5-20 11-41.5t11-40.5l12-4 19 30q5-17 5-38 0-13-10.5-35T245 18l31-18q5 3 16 16t20.5 30.5Q322 64 322 80q0 19-.5 28t-1.5 14q5-2 10.5-3.5t9.5-2.5l6 21q-15 17-37 42t-44 53.5Q243 261 225 287q-14 20-27.5 46.5t-25 53.5Q161 414 154 433h78q5-15 8-26t5-13l-1 1q4-9 11.5-14.5T270 373v-19q0-25 6.5-48.5T297 260q10-14 26.5-32.5T354 209q7 0 14 9.5t11 18.5h16q4-9 11.5-18.5T421 209q14 0 30.5 18.5T478 260q14 22 20.5 45.5T505 354v19q7 2 14 7.5t11 14.5v-1q1 2 4.5 13t8.5 26h78q-8-19-19-46t-25-53.5Q563 307 550 287q-17-26-39.5-54.5t-44-53.5Q445 154 429 137l6-21q4 1 9.5 2.5T455 122q-1-5-1.5-14t-.5-28q0-16 9.5-33.5t21-30.5Q495 3 499 0l31 18q-10 16-20.5 38T499 91q0 11 2 21t3 17l20-30 11 4q5 19 11 40.5t11 41.5l14-31 8 2 18 87 9-13 8 3 58 176q9 25 9 45 0 18-10 26.5t-33 8.5h-80q5 17 7.5 33t2.5 26q0 20-9 31 14 2 21 5t11 6q2 2 7 11t9 25q16 4 38.5 17.5t45 29.5q22.5 16 39.5 30-3 1-9.5 2t-13.5 3l27 27q-2 1-6.5 2t-8.5 3l47 51q-5 0-13.5.5t-15.5.5q4 12 17 29t31 29l-25 31q-20-13-36-27.5T700 820l-11 6q-10-37-22.5-70T622 693q3 17 5 37t2 40q0 17-2 33.5t-5 31.5q18 17 33 50t25.5 67q10.5 34 16.5 55l-10 9-20-17 17 53-11 8-15-16 12 55-9 10-12-4q13 20 28 37t29 32l-18 25q-29-17-52-36t-44-45l-29 6-7-6q11-20 23-46t21-53q9-27 9-47t-5.5-37q-5.5-17-10.5-28-26 44-64 71t-74 39q-6 13-18 28.5t-25.5 27Q398 1084 387 1084t-24.5-11.5q-13.5-11.5-25-27T320 1017q-36-12-74.5-38.5T182 908q-5 10-10.5 27.5T166 972q0 20 9 47t21.5 53q12.5 26 22.5 46l-7 6-29-6q-21 26-43.5 45T87 1199zm50-726h83q2-6 3.5-12t3.5-11h-96q7-22 19-52.5t28-62.5q16-32 34-58 14-21 35-47t42.5-51q21.5-25 38.5-43-7 2-16 5.5t-14 5.5l5-32.5 3-34.5q0-16-10.5-33T274 20l-6 3q7 11 16 31t9 37q0 16-5 35.5T278 157l-8 1-19-30q-6 22-13.5 48.5T225 225l-8 1-12-30-17 81-7 2-11-19q-12 34-26.5 77T119 414q-9 24-9 40 0 19 27 19zm417 0h84q27 0 27-19 0-16-9-40-11-34-25-77t-25-77l-12 19-7-2-17-81-12 30-8-1q-5-22-12.5-48.5T524 128l-19 30-8-1q-4-11-9.5-30.5T482 91q0-17 9-37t16-31l-6-3q-10 10-21 27t-11 33q0 15 3 34.5l5 32.5q-5-2-14-5.5t-16-5.5q16 18 38 43t43 51q21 26 36 47 17 26 33 58t28 62.5q12 30.5 19 52.5h-97q2 5 3.5 11t3.5 12zM387 314q16-1 41-9.5t41-19.5q-3-7-8-14-8-12-20-27t-20-15q-1 0-5 9l-8 18h-42q-3-9-7-18t-5-9q-7 0-20 15t-20 27q-2 3-4.5 6.5T305 285q16 11 41 19.5t41 9.5zm-98 66q16-8 38.5-14t59.5-6q38 0 60 6t38 14v-26q0-13-2-25.5t-6-25.5q-19 11-45.5 20.5T387 334q-18-1-44-10.5T297 303q-8 27-8 51zm30-21q-8 0-14-5.5t-6-14.5q0-7 6-13t14-6q8 0 14 6t6 13q0 9-6 14.5t-14 5.5zm137 0q-20 0-20-20 0-7 5.5-13t14.5-6q7 0 13 6t6 13q0 9-6 14.5t-13 5.5zm-137-12q8 0 8-8 0-7-8-7-7 0-7 7 0 8 7 8zm137 0q7 0 7-8 0-7-7-7-8 0-8 7 0 8 8 8zm-69 48q15 0 36-.5t45-6.5q-14-6-33.5-9.5T387 375q-27 0-46.5 3.5T306 388q24 6 45.5 6.5t35.5.5zm0 204q22 0 50-2.5t53-8q25-5.5 41.5-15.5t16.5-25q0-14-5-37t-11.5-47q-6.5-24-12.5-41.5t-7-20.5q-1-4-6-6-35 15-67 17t-52 2q-20 0-52-2t-66-17q-6 2-7 6-1 3-7 20.5T242.5 464q-6.5 24-11.5 47t-5 37q0 15 16.5 25t42 15.5q25.5 5.5 53 8T387 599zm11 411q26-3 62-17t70-41.5q34-27.5 56.5-72T609 770q0-44-6-80t-13-58.5q-7-22.5-11-25.5t-16-6.5q-12-3.5-35-1.5-30 6-60 18.5t-50 33Q398 670 398 700zm-21 0V700q0-30-20.5-50.5t-50.5-33Q276 604 246 598q-23-2-34.5 1.5T196 606q-3 3-10.5 25.5T172 690q-6 36-6 80 0 65 22.5 109.5t56.5 72q34 27.5 69.5 41.5t62.5 17zm10-351q12-23 36-40-8 1-17 .5t-19-.5q-10 0-18.5.5T352 619q11 8 20.5 18t14.5 22zM18 859q20-15 33.5-31T70 796l8 2q11-39 28.5-71.5T157 667q2-11 5-21-19 8-43 23.5T79 696l14 6-30 29q6 3 12 5l-35 40q5-1 10.5-2t7.5-1q-1 15-14 40t-33 38zm739 0l7-8q-20-13-32.5-38T717 773q2 0 7.5 1t10.5 2l-35-40q6-2 12-5l-30-29 14-6q-16-12-40.5-27.5T612 646q1 4 3 10t3 12v-1q33 27 51 59.5t28 71.5l8-2q4 16 18 32t34 31zM96 1178q25-15 42.5-34.5T174 1101l19 4q-15-30-29.5-64.5T149 972q0-28 9-51t13-31q-7-18-13-36-11 14-22 37.5t-20.5 50Q106 968 100 990l16-11 11 8-16 47 19-16 8 8-15 69 26-14 8 6q-14 23-29 46t-36 40zm583 0l4-5q-21-17-36.5-40t-28.5-46l8-6 26 14-15-69 8-8 19 16-16-47 11-8 16 11q-6-22-15.5-48.5T639 891q-11-24-22-37-3 9-6.5 18t-7.5 17q4 7 13.5 31t9.5 52q0 34-14.5 68.5T582 1105l19-4q18 23 35.5 42.5T679 1178zm-292-111q10 0 23-14t22-29q-25 6-45 6t-45-6q10 15 22.5 29t22.5 14z" fill="currentColor"/></svg>