<svg xmlns="http://www.w3.org/2000/svg" viewBox="-10 0 1118 1083"><path d="M249 1083q-15 0-24.5-6.5T215 1057q0-13 13-19t23-6h23q14-23 30.5-54.5T321 927q0-4-6.5-18t-14-29.5Q293 864 289 857q-2-2-5-4.5t-5-4.5q-4 23-14 47.5T242 932h-17q-18-16-37.5-41.5t-33-58Q141 800 141 762q0-33 1-48.5t3-23.5q1-6 0-13 0-2-12.5-18.5T104 621q-16-21-28-36-15-21-35.5-50T5 473.5Q-10 441-10 412q0-20 1.5-39t2.5-30h30q1 13 3 29t6 33q8 39 28.5 72t46 64.5Q133 573 155 606q-2-10-3-21.5t-3-19.5q-4-27-15-66t-20-76q-9-37-9-57 0-26 9.5-47t18.5-31l22 7q-2 8-4 22.5t-2 29.5q0 11 6 32t13 44q12 41 21.5 82.5T203 591q4 38 12.5 61t20.5 40q8 11 18.5 20.5T273 728q13-20 33.5-33t46.5-20q-2-16-5-54.5t-3-87.5q0-90 17.5-178.5t52.5-163Q450 117 503.5 66T629 0l-8 405q60-73 122-132t122.5-93.5Q926 145 983 145q23 0 61 3.5t64 6.5L861 528q-35 45-74 84.5T712 686q-21-10-57-21.5T587 653q-27 0-47.5 6.5T503 677q66 20 94 60 7-12 22-22.5t46-10.5q50 0 102 20.5t99.5 54.5q47.5 34 85.5 74t60 80q22 40 22 72 0 22-4.5 40.5t-9.5 34.5h-29q0-8-3.5-27.5T974 1015q-10-18-30-24-14-5-37.5-8t-49.5-6l-26-3q12 13 26.5 24.5T885 1020q14 12 25 21.5t15 26.5l-6 6q-10-8-19.5-7.5T884 1079q-52-35-78.5-61T761 961l-13-4q-46-16-89.5-42T587 861q-8 8-21 16 7 14 13 27.5t6 20.5q0 25-4 54.5t-10 57q-6 27.5-11 46.5h-54q-9 0-13-2t-6-2l-2 4h-62q-21 0-29-11-1 4-2.5 7t-2.5 4h-54q-17 0-24-7-4 6-4 7zm124-413q12-2 24.5-3t25.5-1h8q39-59 82-120t88-117l8-404q-60 18-106 67t-76.5 119.5Q396 282 380.5 365T365 533q0 47 3 84t5 53zm-38 393h43q3-9 13-32t19-52q9-29 9-54 0-7-7-21.5t-17-32Q385 854 376 839l16-10q6 9 15 24t16 30q7 1 13.5 1H449q35 0 59-6-4-7-7.5-13.5T495 855l16-11q9 14 19 31.5t17 32q7 14.5 7 19.5 0 13-3 37.5t-8.5 49Q537 1038 532 1052h-34q-11 0-13.5 2t-2.5 3q0 6 14 6h47q4-13 13.5-52t9.5-86q0-7-7-21.5t-17.5-32L522 839l17-10q2 5 7.5 13t10.5 17q11-6 17-14l-1-18 97-9q27-3 36.5 3.5T725 844q28 52 37 73t14 29q16 31 38.5 55.5T882 1056q4-9 16-6-25-20-51-39.5T805 968q-26-37-40-75.5T722 813q-4-6-14.5-7.5T680 805q-10 0-40.5 3t-55.5 6l-2-19q1 0 4-.5t7-.5q1-17-5-31-13-27-42-45t-63-26q-21 20-42 42l-15-14q23-24 44.5-43.5t49-31.5q27.5-12 67.5-12 28 0 63.5 10t58.5 19q33-32 68.5-68t66.5-76q59-90 115-173.5T1074 171q-17-1-43.5-3.5T983 165q-53 0-111 34t-118.5 91.5Q693 348 633.5 421t-115 152Q463 652 414 727l-16-11 20-31q-37 1-69.5 12.5t-53 34Q275 754 275 788q0 32 24.5 52t58.5 31q-3-5-6-9.5t-4-6.5l17-11q9 14 18.5 31.5t16.5 32q7 14.5 7 19.5 0 15-7.5 38t-17.5 47q-10 24-18 40h-27q-17 0-17 5 0 2 2.5 4t12.5 2zM225 907v-41h19v32q8-16 12.5-36.5T263 824q-8-16-8-36 0-23 8-42-8-7-20.5-17.5T221 704q-28-39-37-111-5-39-13-79.5T149 429q-7-23-12-44.5t-5-34.5q0-15 4-27h-3q-3 7-5.5 18t-2.5 25q0 15 5.5 40.5t13.5 55q8 29.5 14.5 57T168 566l6 44 6 44-13 4q-16-31-38.5-59.5T83 541q-23-29-41-61t-25-70q-2-14-4-26.5T11 362H8q-1 11-1.5 25.5T6 411q0 26 14.5 55.5T53 521q18 25 27 38 19 23 38 48t32.5 44q13.5 19 14.5 25 1 4 .5 8t-1.5 9q-1 7-2 22.5t-1 46.5q0 50 21 86t43 59zm783 145q2-10 4-21.5t2-25.5q0-30-21-67.5t-56.5-75q-35.5-37.5-81-69t-94.5-51Q712 723 665 723q-34 0-45 15.5T608 761q5 14 6 31 18-2 37.5-4t27.5-3q22-1 37 1.5t21 12.5q23 36 39.5 74.5T815 951q22 4 44 6 26 3 50 7t41 9q29 9 41.5 34t16.5 45zM201 836q-13 0-18.5-9t-5.5-18q0-9 5.5-18t16.5-9q14 0 18.5 8t4.5 20q0 14-6.5 20t-14.5 6zm0-14q5 0 5-12 0-13-7-13-4 0-5 4t-1 8q0 4 2 8.5t6 4.5zm547 115l-40-84q-5-10-11-13.5t-26-2.5l-72 7v1q23 24 64.5 50t84.5 42zm-499 126h46l6-9q1-7 8-14 14-22 29-54t15-61q0-5-4.5-16.5T338 884q-9-3-17-7 8 15 14 29.5t6 20.5q0 13-10.5 36.5t-24.5 48q-14 24.5-24 40.5h-31q-17 0-17 5 0 6 15 6zm87-31h17q12-26 23.5-56t11.5-49q0-3-5-12t-11-20q-3 0-9-2 4 10 6.5 18.5T372 925q0 23-11.5 52.5T336 1032zm163 0h19q6-20 11-51.5t5-50.5q0-3-4.5-13T519 896q-4 2-7.5 2t-7.5 1q8 16 8 26 0 26-4.5 55t-8.5 52zm-76 31h39v-6q0-8 4.5-13t11.5-8q5-20 9.5-49.5T492 925q0-7-8-23l-12 1q4 8 6.5 14t2.5 10q0 13-3 37.5t-8 49q-5 24.5-11 38.5h-35q-10 0-13 2t-3 3q0 6 15 6zm-13-29q4-1 7.5-1.5t6.5-.5h21q6-20 11-51.5t5-50.5q0-5-12-26h-8l-8-1q2 7 4 12.5t2 9.5q0 23-9.5 53.5T410 1034z" fill="currentColor"/></svg>