<svg xmlns="http://www.w3.org/2000/svg" viewBox="-10 0 1179 1085"><path d="M233 800q-18 0-23.5-11.5T204 752v-49q0-12-3.5-31.5t-13-40q-9.5-20.5-28.5-34T109 584q-20 0-39.5 14.5T38 628q-10 13-16.5 19.5T7 654q-9 0-13-6t-4-13q0-13 12-30 3-5 17-21t37-29.5Q79 541 109 541q41 0 64.5 14t35.5 30q-1-23-9.5-49.5t-30-45Q148 472 109 472q-25 0-42.5 15T34 522q-7 9-13 15t-14 6q-9 0-13-6.5t-4-12.5q0-13 12-30 3-6 17-21.5t37-29Q79 430 109 430q43 0 67.5 15t36.5 31V112q0-14-2.5-31t-12-29Q189 40 167 40t-33.5 13.5Q122 67 117.5 83t-5.5 24q0 10-4 20.5T92 138q-11 0-14.5-8.5T74 110q0-7 3.5-24.5t13-37.5q9.5-20 28-34T167 0q87 0 87 107v369q12-16 36.5-31t67.5-15q31 0 53.5 13.5t36 29Q461 488 465 494q12 17 12 30 0 6-5 12.5t-12 6.5q-8 0-15-7t-16-19q-9-13-26.5-29T358 472q-39 0-60.5 18.5t-30 45Q259 562 258 585q12-16 35.5-30t64.5-14q31 0 53.5 13.5t36 29.5q13.5 16 17.5 21 12 17 12 30 0 7-5 13t-12 6q-8 0-15-6.5T429 628q-9-13-26.5-28.5T358 584q-31 0-50 13.5t-28.5 34q-9.5 20.5-13 40T263 703v49q0 25-5.5 36.5T233 800zm0-16q15 0 15-32v-49q0-13 3.5-35.5t15-45.5q11.5-23 33.5-38.5t58-15.5q34 0 54 19t30 33q3 4 8 11t10 7q2 0 2-3 0-7-9-21-4-6-16.5-19.5T404 569q-20-12-46-12-36 0-57 13t-31 28.5Q260 614 256 621l-13-3v-27q0-27 9-58t34-53.5q25-22.5 72-22.5 34 0 53.5 19.5T442 509q3 4 8.5 11t9.5 7q2 0 2-3 0-7-9-22-4-6-16.5-19.5T404 457q-20-12-46-12-36 0-58 13t-33.5 28.5Q255 502 252 510l-14-3V107q0-47-18.5-69T167 16q-26 0-41 12t-23 29q-8 17-10.5 32T90 110q0 12 2 12 3 0 3.5-7t1.5-10q0-5 3-18t10-27.5q7-14.5 21-25T167 24q29 0 42 14.5t16.5 35Q229 94 229 112v395l-14 3q-4-8-15-23.5T167 458q-22-13-58-13-26 0-46 12t-32.5 25.5Q18 496 14 502q-9 15-9 22 0 3 2 3 5 0 18-19 10-13 30.5-32t53.5-19q47 0 72 22.5t34 53.5q9 31 9 58v27l-13 3q-4-7-14-22.5T166 570q-21-13-57-13-26 0-46 12t-32.5 25.5Q18 608 14 614q-9 14-9 21 0 3 2 3 5 0 18-19 10-13 30.5-32t53.5-19q36 0 58 15.5t33.5 38.5q11.5 23 15 45.5T219 703v49q0 32 14 32zm358-14q-23 0-23-18 0-9 9-12.5t15-3.5h16q9-16 20.5-37t11.5-34q0-3-4.5-12t-9.5-19.5q-5-10.5-8-15.5l-7-6q-3 16-9.5 32.5T587 669h-12q-18-17-37-46.5T519 555q0-23 .5-33.5T521 506q1-4 0-8 0-1-8-12t-19-25.5Q483 446 475 436q-10-14-23.5-33.5t-23.5-41Q418 340 418 320q0-13 .5-25.5T420 274h21q0 17 5 42 8 39 34 70t48 64l-4-27q-3-19-10-45t-13-50.5q-6-24.5-6-38.5 0-17 6-31t12-21l15 5q-4 14-4 34 0 8 4 22t9 30q8 27 14 55t9 57q3 26 8.5 41t14.5 27q4 8 11.5 14l12.5 10q19-27 51-35-1-11-3.5-37t-2.5-59q0-60 12.5-119.5t37-110Q726 121 763 86.5T848 41l-5 268q61-73 121.5-121.5T1083 139q15 0 41 2.5t45 4.5l-165 252q-24 30-50 56.5T904 503q-15-7-40-14.5t-46-7.5q-18 0-32 4.5T761 498q46 14 63 40 5-8 15-15t31-7q42 0 85 21t80 53q37 32 59.5 66.5T1117 718q0 14-3 26.5t-6 23.5h-20q0-6-2-19t-8.5-25q-6.5-12-20.5-15-10-3-26-5.5t-32-4.5l-18-2q8 9 17.5 16.5T1017 728l17.5 14 9.5 18-4 4q-15-13-24 3-35-23-52.5-40.5T934 689l-9-3q-31-11-60-28.5T817 621q-3 3-6 5.5t-7 5.5q5 9 8.5 18t3.5 14q0 26-6 56t-11 50h-36q-6 0-8-1.5t-4-1.5l-1 3h-42q-15 0-20-7l-2 4-1 3h-36q-10 0-17-5-2 4-2 5zm83-276q15-4 31-4h5q26-39 56-81.5t61-79.5l5-268q-40 12-70.5 45t-51 80q-20.5 47-31 102.5T669 401q0 31 2 56.5t3 36.5zm-25 262h28q2-6 9-21.5t13-35q6-19.5 6-35.5 0-7-10-25t-19-33l11-6q4 6 10 16t11 20q5 1 9 1h8q11 0 21.5-1.5T765 633q-3-5-5.5-9.5T755 617l12-8q9 15 18.5 33t9.5 23q0 9-2 25.5t-5 33q-3 16.5-7 25.5h-24q-10 0-10 3 0 4 9 4h32q3-8 9-34t6-58q0-7-10-25t-19-33l11-6q6 6 12 20 8-5 12-10l-1-11 65-7q19-2 25 2.5t12 14.5q19 36 25 50t9 19q11 21 26 37.5t45 36.5q2-6 10-4-16-14-33.5-27T963 693q-16-25-26-50.5T908 589q-4-6-29-5-6 0-26.5 2t-37.5 4l-1-13h3l5-1q0-13-4-20-9-19-28-31t-42-17q-7 6-14 13t-14 15l-10-9q23-23 45-42.5t63-19.5q19 0 43 6t40 12q22-21 45-43t44-48q40-61 77-117t77-116q-11-1-29-3t-32-2q-44 0-94 35t-100.5 91q-50.5 56-98 122T702 531l-14-7 13-21q-38 1-65.5 18T608 572q0 22 17 35t40 21q-3-3-5-6.5t-3-4.5l12-8q9 15 18.5 33t9.5 23q0 15-10 41t-18 43h-20q-10 0-10 3 0 2 1.5 3t8.5 1zm-74-104v-27h13v21q5-10 8-24t5-25q-6-12-6-25 0-16 6-28-6-4-14-11.5T572 516q-19-27-25-74-2-27-8-53.5T524 332q-5-16-8-30.5t-3-22.5q0-10 2-18h-1q-2 5-4 11.5t-2 16.5q0 14 6 39t13.5 51.5Q535 406 537 423q2 15 4 29.5t4 29.5l-9 3q-14-27-35.5-52.5t-40-52.5Q442 353 436 319q-1-9-2.5-18t-2.5-14h-1q-1 7-1.5 17t-.5 16q0 18 10 37.5t21.5 36Q471 410 478 419q19 23 37 47.5t20 31.5q0 6-1 10-1 5-1.5 15.5T532 555q0 33 14 57.5t29 39.5zm525 97q1-7 2.5-14t1.5-17q0-26-21.5-58t-56-62q-34.5-30-76-49.5T870 529q-23 0-30 10t-8 15q1 4 2 9.5t2 11.5q12-1 25-2.5t18-2.5q15 0 24.5 1.5T918 580q16 24 26.5 50t25.5 52q7 1 15 2t15 2q18 2 34 4t27 6q19 6 27.5 23t11.5 30zM559 605q-9 0-12.5-6.5T543 586q0-5 3-11.5t11-6.5q16 0 16 19 0 9-4.5 13.5T559 605zm0-10q3 0 3-8 0-9-5-9-2 0-2.5 3t-.5 5q0 9 5 9zm366 77l-26-56q-4-7-8-9.5t-17-.5l-48 4h-1q16 16 43.5 34t56.5 28zm-334 84h31l4-5q1-6 5-10 10-15 19.5-36t9.5-41q0-9-10-27l-10-5q5 10 8.5 19.5T652 665q0 9-7 24.5t-16 32q-9 16.5-16 27.5h-21q-8 0-11 3 0 4 10 4zm58-20h11q8-18 16-38t8-33q0-5-11-21-1 0-5-2 5 15 5 22 0 15-7.5 35T649 736zm109 0h14q4-14 7-35t3-34q0-1-3-8t-7-14l-10 2q3 5 4 9.5t1 7.5q0 18-2.5 37t-6.5 35zm-50 20h26v-4q0-5 3-8.5t7-5.5q4-14 7-33t3-41q0-4-5-16l-8 1q5 12 5 16 0 9-2 25.5t-5.5 33Q735 740 732 749h-23q-5 0-7.5 1t-3.5 2q0 4 10 4zm-9-19q2-1 5-1h18q5-14 8-35t3-34q0-4-8-17-7 0-11-1 1 5 2.5 9t1.5 6q0 16-6 36t-13 37zM36 1085q8-40 22.5-79.5T97 934q24-32 61-51.5t91-19.5q54 0 91.5 19.5T402 934q24 32 38 71.5t22 79.5zm654 0q8-40 22.5-79.5T751 934q24-32 61-51.5t91-19.5q54 0 91 19.5t61 51.5q24 32 38.5 71.5t22.5 79.5zm-630-20h378q-10-45-30.5-87T349 909q-38-27-100-27t-100 27q-38 27-58.5 69T60 1065zm654 0h378q-10-45-30.5-87t-58.5-69q-38-27-100-27t-100 27q-38 27-58.5 69t-30.5 87z" fill="currentColor"/></svg>