<svg xmlns="http://www.w3.org/2000/svg" viewBox="-10 0 846 1093"><path d="M132 1093q-43 0-74.5-29.5T8 987.5Q-10 941-10 890q0-68 16-112t28-70l217-454q-2-13-5-28.5t-3-20.5q0-14 8-24-10-7-20.5-21T220 124q0-10 8-30.5t23-42Q266 30 287.5 15T335 0q24 0 37 7.5T390 22h45q5-7 18.5-14.5T491 0q26 0 47.5 15T575 51.5q15 21.5 23 42t8 30.5q0 22-10.5 36T574 181q9 11 9 24 0 5-3 20.5t-6 28.5l217 454q14 27 29.5 70.5T836 890q0 51-18 97.5t-50.5 76Q735 1093 693 1093q-45 0-89.5-33t-83-90Q482 913 454 841t-41-151q-13 79-41.5 151t-67 129q-38.5 57-83 90t-89.5 33zm426-924q28-13 28-45 0-9-6.5-26t-19-35q-12.5-18-30-31T491 19q-21 0-31.5 9.5T447 42q-2 3-4 11.5T441 74q0 19 10.5 39.5T482 147q17 4 37 10t39 12zm-291 0q19-6 39.5-12t36.5-10q21-13 31.5-33.5T385 74q0-12-2.5-20.5T379 42h-1q-2-4-12.5-13.5T335 19q-22 0-40 13t-30.5 31q-12.5 18-19 35t-6.5 26q0 15 8 27t20 18zm113-29q6-2 15.5-3.5T413 135q7 0 17 1.5t15 3.5q-12-15-18-32.5T421 74q0-19 5-32h-27q5 13 5 32 0 16-6 33.5T380 140zm11 176q5-1 10.5-1h22l10.5 1 31-152q-14-4-27-6.5t-25-2.5q-14 0-27 2.5t-26 6.5zm-47 15q7-4 14-6.5t14-4.5l-31-153-32 9zm137 0l35-155-32-9-30 153q15 3 27 11zm-177 38q5-8 10.5-14.5T326 342l-36-160q-16 5-22 11.5t-6 11.5q0 8 4 26.5t5 22.5zm218 0l32-115q1-4 5-22.5t4-26.5q0-5-6-11.5T535 182l-36 160q6 6 12 12.5t11 14.5zm171 705q36 0 64-27t43.5-69q15.5-42 15.5-88 0-64-15-106t-27-68L566 283l-47 167q-9 32-18 52t-26.5 30Q457 542 422 543v34q0 71 15.5 142t42 135q26.5 64 61 113.5t73.5 78q39 28.5 79 28.5zm-561 0q40 0 79-28.5t73.5-78Q319 918 346 854t42-135q15-71 15-142v-34q-34-1-51.5-11T325 502q-9-20-18-52l-48-167L52 716q-13 26-28 68T9 890q0 46 15.5 88t43 69q27.5 27 64.5 27zm184-686h193q-14-28-39-41t-57-13q-32 0-57.5 13T316 388zm97 135q44-1 60-21t27-58l10-37H315l10 37q10 38 27 58t61 21z" fill="currentColor"/></svg>