<svg xmlns="http://www.w3.org/2000/svg" viewBox="0 0 431.5 594.6"><path d="M215.8 230.5c-9.2 0-15.8-14.6-19.8-43.8-4-29.2-14.2-63.4-30.6-102.7-16.5-39.3-44.7-58.5-84.6-57.6s-58 22.2-54.3 63.9c3.7 41.7 39.6 149.2 107.6 322.6 16.2-76.8 43.5-115.2 81.6-115.2v-67.2zm-61.3 260.7l13.8-73.7c-1.8-4-5.5-5.3-11.2-4l-16.5 69.1c1.4 7.5 6 10.4 13.9 8.6zm30.3 37.6c-5.3-7.9-11.7-14.8-19.4-20.7-7.7-5.9-14.8-6.1-21.4-.7-6.6 5.5-9.7 14.3-9.2 26.3.4 12.1 4.8 21.7 13.2 29 8.3 7.2 18.7 12.5 30.9 15.8 12.3 3.3 19.4 2.9 21.4-1.3s1.4-11.1-1.6-20.7c-3.1-9.7-7.7-19-13.9-27.7zm61.9 0c-5.7 8.8-10.2 18-13.5 27.7-3.3 9.7-4 16.6-2 20.7 2 4.2 9.1 4.6 21.4 1.3 12.3-3.3 22.7-8.6 31.3-15.8 8.6-7.2 12.9-16.9 13.2-29 .2-12.1-2.9-20.8-9.2-26.3-6.4-5.5-13.5-5.3-21.4.7-7.9 5.8-14.5 12.8-19.8 20.7zm30.3-37.6c7.9 1.8 12.5-1.1 13.8-8.6L275 413.5c-6.1-1.3-10.1 0-11.9 4l13.9 73.7zm-61.2 92.2c11.9-51.8 27.2-81.6 46.1-89.5-4.4-44.3-12.3-68.5-23.7-72.4.9 20.6 2 42.8 3.3 66.5 1.3 4-.7 5.9-5.9 5.9h-7.9c-1.8-14-3.5-42.8-5.3-86.2 7-1.8 14.8-3.8 23.4-6.3s13.9-7.7 16.1-15.8c2.2-8.1-1.5-12.2-11.2-12.2h-69.8c-9.2 0-12.8 4.1-10.9 12.2 2 8.1 7.2 13.4 15.8 15.8s16.3 4.5 23.4 6.3c-1.3 43.5-3.1 72.2-5.3 86.2H196c-5.3 0-7.2-2-5.9-5.9 1.3-23.7 2.6-45.9 4-66.5-11.9 4-20 28.1-24.4 72.4 19.3 7.9 34.7 37.7 46.1 89.5zm40.1-221.2c0-7.9-3.7-14.9-11.2-21.1h-57.9c-7 6.1-10.8 13.2-11.2 21.1h80.3zm-13.8-33.6c.4-4.8-1.8-9.9-6.6-15.1-6.1-1.8-12.7-2.6-19.8-2.6s-13.6.9-19.8 2.6c-4.8 5.3-7 10.3-6.6 15.1h52.8zm-26.3-30.9c38.6 0 65.8 38.4 81.6 115.2 68.5-173.4 104.5-280.9 108-322.6 3.5-41.7-14.7-63-54.6-63.9-39.9-.9-68.1 18.3-84.6 57.6s-26.7 73.5-30.6 102.7c-4 29.2-10.5 43.8-19.8 43.8v67.2zm0-127.1c13.2-49.6 25-87.2 35.6-112.9 10.5-25.7 25.5-42 44.8-49 19.3-7 39.7-9.8 61.2-8.2 21.5 1.5 38.5 8 51 19.4 12.5 11.4 20 27.7 22.4 48.7 2.4 21.1-.5 45.2-8.9 72.4-40.8 119.4-77 216.2-108.6 290.3 1.3 25.9 1 50.5-1 73.7-2 23.3-6.5 42.8-13.5 58.6-11.4 20.6-39.1 30.9-83 30.9s-71.3-10.3-82.3-30.9c-7.5-15.8-12.2-35.3-14.2-58.6-2-23.3-2.3-47.8-1-73.7C87.2 357.1 51 260.4 9.7 141 1.4 113.8-1.6 89.6.8 68.6s9.9-37.3 22.4-48.7C35.7 8.4 52.7 1.9 74.2.4s41.9 1.2 61.2 8.2c19.3 7 34.2 23.4 44.8 49 10.6 25.8 22.4 63.4 35.6 113z"/></svg>