<svg xmlns="http://www.w3.org/2000/svg" viewBox="-10 0 1183 547"><path d="M733 547q-2-2-8-5t-14-3h-62q-3-2-9-6.5t-11-9.5l-2 3q-2-1-5.5-2t-9.5-1l-81-5-18-14q-2-6-5-29t-5-48.5q-2-25.5-4-37.5-10 1-23 3l-26 4q-24 4-49.5 7t-41.5 3q2 13 1.5 32t-1 35.5q-.5 16.5.5 24.5 8 5 24.5 12t30.5 14l-10 13q-9-3-24.5-7.5T350 522l-1-1-10 10q-14-4-32.5-15T276 490q4-26 7.5-46.5T289 404q-44-4-76-15-8 10-23 25-14 12-23 23l-21 65q-13 5-30 10.5T91 521q-13 6-15 14l-8-5 8-17 3-5-60 13-9 14-10-8 17-25 47-16 27-73 61-29q-1-12 2-29-4-3-7-5.5t-7-6.5l-21-8q-16 27-40 27h-3l2 16-14 2-2-21q-2 0-4-2l-5 21-14-6 6-24q-17-19-17-61 0-22 8-44t21-36q-4-8-17.5-32T15 122Q4 92-3 64t-7-33q0-8 2.5-13.5T0 12q3-1 6 4t4 9q5 18 12.5 46.5t19.5 61Q54 165 71 195l4-1q-2-8-7.5-33.5T62 107q1-18 2.5-39t3-37Q69 15 71 11q3-5 5.5-8T83 0q6 0 8 6.5T92 19q0 7-4 32.5T84 105q0 30 2 49t6 38q24 2 36 22h25q5-3 21.5-13t36-18.5Q230 174 243 174q9 0 15 3 18-2 53.5-7t75.5-10q7-13 19-33.5t26-42Q446 63 459.5 47T483 25q8-1 16.5 7t9.5 13l3 27q13-15 22.5-24t13.5-9q14 0 20 7.5t6 16.5q3 19 5.5 37t5.5 37q51-5 95.5-8.5T755 125q79 0 149 4.5t124 15q54 10.5 84.5 29.5t30.5 47q0 12-10.5 20t-28.5 13q27 15 48 32.5t21 30.5q0 12-9 23.5t-22 17.5q-7 3-26 6t-41 4.5q-22 1.5-37 1.5-22 0-59.5-2.5T895 361l39 11q1 1 13 4t23 9q11 6 11 15 0 11-19.5 25.5t-44 24.5Q893 460 876 460q-23 0-54-5.5T766 443l-137-33q4 27 8 46t5 20q11 15 21 22 4 0 13 .5t18 1.5q37 5 60 21zM410 157l34-5 8-24 10-28q10-28 7-15 7-16 23-38 1-2-1-3t-4 0q-10 9-24.5 29T434 116q-14 23-24 41zm-54 230q13 0 39-3.5t52-7.5q23-3 42.5-6t29.5-3q7 0 18 1.5t40 8.5l-8-46-7-1q-19-1-53-5t-74-9q-12 17-23 31t-16 19l-13-12q7-7 20.5-24.5t28-40Q446 267 456 246q9-21 22-51t26-58q13-28 24-41 28-34 28-33 0-6-8-6-2 0-18 20t-38.5 49q-22.5 29-44 56.5T414 226q-9 12-18.5 36t-17 51q-7.5 27-11.5 49l-18-4q2-7 5-21t7-29q-44-5-78-9.5t-46-6.5q-6 6-13 11.5t-14 9.5q-11 7-24 13.5T163 337l11 4q-3 8-5 19t-3 19q4-7 11.5-20.5T191 335l12 7-9 17q12 6 28 13l4-12q11 0 21-3 8-2 21-8t21-10q0-2-.5-3t-.5-2q-7 3-20 8t-23 9l-6-13 57-25q19 0 21 27 1 7 1.5 18t-.5 28q9 1 18 1zM495 91l6-7-2-21-6 9zm235 436l3-5q-8-3-19-5t-21-3q-11-1-20.5-1H658q-6-4-12.5-9.5T631 484q-2-5-8.5-31.5t-14-63Q601 353 596 319q-8-58-18-115T559 89l-6 6 42 281q2 13 8 36t12 45q6 22 11 32 5 11 12 18.5t15 13.5q9 0 21-.5t17 .5q7 0 18.5 1.5T730 527zM475 116l9-11-1-13q-2 5-4 11t-4 13zm46 28l20-3-4-26q-9 13-16 29zm554 97q22-4 35.5-9t13.5-11q0-22-29-37t-80.5-23.5q-51.5-8.5-118-12T755 145q-62 0-167 11l8 45q29-1 54.5-1.5t42.5-.5q26 0 65.5 2.5T843 208q45 4 88 8.5t77.5 9.5q34.5 5 51.5 9 4 2 7.5 3t7.5 3zm-581-38l56-2-6-40-34 4q-5 9-8.5 18.5T494 203zm-217 5l27-1 103-2 23-31-155 20q2 8 2 14zM145 323q8-3 25-11t29-16q22-13 40.5-36t18.5-52q0-15-15-15-12 0-38 13.5T159 233h-25q3 14 3 31 0 31-9 53zm-66 19q16 0 27.5-23t11.5-55q0-31-8.5-42T86 211q-15 0-27 25t-12 51q0 26 8 40.5T79 342zm959 9q15 0 34.5-1.5t37-4q17.5-2.5 23.5-5.5 21-9 21-23 0-8-16.5-20.5t-39.5-24q-23-11.5-44-18.5-14-4-46-9t-74.5-9.5q-42.5-4.5-88-8t-85.5-6q-40-2.5-67-2.5h-41.5l-52.5 1q4 23 7.5 47t7.5 48q52 5 113 11t121.5 12q60.5 6 110 9.5t79.5 3.5zm-472-40q-3-21-6-44t-7-47l-67 2q-3 8-6.5 16.5T473 254q-5 11-11.5 22T447 298q36 5 67 8t50 4zm-199-22q5-17 11.5-34.5T393 224l-89 3-29 1q-2 13-8 24t-14 22q16 2 47 6.5t67 8.5zM81 269q-9 0-13-7t-4-16q0-9 4.5-15.5T81 224q18 0 18 22 0 10-4.5 16.5T81 269zm0-13q6 0 6-10 0-3-1-6.5t-5-3.5q-4 0-5.5 3.5T74 246q0 10 7 10zm795 184q13 0 32-7.5t34-16.5q15-9 14-14-2-7-30-15-11-3-33.5-9.5t-49-13.5q-26.5-7-48.5-11-44-4-88-9t-90-9q2 14 4.5 27t4.5 26q25 7 61 16t84 20q23 6 52.5 11t52.5 5zm-585-56q1-6 .5-15t-.5-15l-39 16q-7 3-12.5 3.5t-8.5.5q10 3 27.5 6t32.5 4zM81 503l45-16 21-64q7-5 15.5-12.5T175 400q4-3 8.5-10t7.5-11l-3-1.5-3-1.5-10 17-62 33zm536 4q-4-4-7-10-5-13-14-43.5T581 398q-21-5-32.5-7t-18.5-3q1 15 3 40t4 45.5q2 20.5 5 22.5 7 1 20.5 3t24.5 3q8 1 15.5 2t14.5 3zm-281 1q-3-8-3-29.5v-43l-1-29.5h-15q-2 17-7 41t-8 37q7 4 15.5 10.5T336 508z" fill="currentColor"/></svg>