<svg xmlns="http://www.w3.org/2000/svg" viewBox="0 0 593.4 301"><path d="M105.2 136.9c6.7 19.7 8.8 44.4 6.4 74 7.2-13.6 13.9-27.4 20.2-41.4 6.3-14 10.3-13.9 12.2.4 1.9 14.3 3.3 24.3 4.4 30.2h16.8c24.3-50.6 37.6-51.7 40-3.2 4.8-7.7 11.9-16.3 21.4-25.6 9.5-9.3 20.7-21.3 33.8-36-60.4-4.2-112.1-3.7-155.2 1.6zm122.7 91.6c8.8 0 18.5-5.9 29.2-17.6C336 105.1 379.3 48.8 387 42.2c5.9 1.9 8.9.5 9-4.2.1-4.7-3.1-6.7-9.6-6.2s-10.3 3.2-11.4 8c-1.9 3.2-33.4 35.2-94.7 95.9-21.6 22.4-38 39.6-49.4 51.6-11.3 12-15.9 21.9-13.8 29.6 2.1 7.7 5.7 11.6 10.8 11.6zm102.3-99.2l56 4.4c.8-25.6 2.7-52.6 5.6-81.2-9.3 6.7-29.9 32.3-61.6 76.8zm-9.2 14l-28 41.6 95.9-4.4c-1.9-13.6-2.7-24-2.4-31.2l-65.5-6zm-279.4-1.2c10.4-.3 15.6 5.6 15.6 17.6 0 23.5-2.8 35.2-8.4 35.2-13.9 1.1-20.8-10.3-20.8-34 0-12.5 4.5-18.8 13.6-18.8zm363 8.8l4.4 32 166.7 5.2c.3-6.9-8.4-14.5-26-22.8s-66-13.1-145.1-14.4zm-228.7 49.2l18.8-.8c.8-32.5-5.5-32.3-18.8.8zm-40.4-18.4l-6.4 17.6h9.2l-2.8-17.6zm274.3 11.6c0 12 2.7 25.2 8 39.6H429c-6.4-12.3-9.6-25.3-9.6-39.2l-9.6-.4zm-17.6 1.6h-8.4c-4.5 14.1-3.9 27.6 2 40.4l16.4-1.2c-.8-3.8-4.1-16.8-10-39.2zm-33.2 1.6c-3.5 14.7-2.7 28 2.4 40l15.2-1.2c-4.8-14.4-5.2-27.6-1.2-39.6l-16.4.8zm-29.2.8c-2.1 13.3-1.3 26.1 2.4 38.4l18.8-.4c-3.2-13.3-3.2-26.1 0-38.4l-21.2.4zm-27.6 2.4c-2.9 9.9-2.1 22.3 2.4 37.2l17.6-.8c-2.9-12.8-3.3-25.5-1.2-38l-18.8 1.6zm130.8-3.6c-2.4 12.3.8 25.2 9.6 38.8l24 4.4c-6.1-8.8-6.8-20-2-33.6l-31.6-9.6zm-281.1 16l2.8 7.6 6-7.6h-8.8zm323.8-5.2c-5.9 12.3-5.5 23.1 1.2 32.4h14.4c-2.9-8.3-2.9-18.4 0-30.4l-15.6-2zm28.8 3.2c-4.3 12.5-5.1 23.1-2.4 31.6l12.8.8c-.3-9.3 1.5-18.8 5.2-28.4-4.8-1.9-10-3.2-15.6-4zm23.2 5.6c-4.8 8.3-5.2 17.6-1.2 28l.8-.8 14.4 2c-1.9-10.9-1.9-20.1 0-27.6l-14-1.6zm24 2c-2.7 8.8-3.5 15.3-2.6 19.6.9 4.3 4.2 6.8 9.8 7.6 15.5-.8 23.3-5 23.4-12.6.1-7.6-10.1-12.5-30.6-14.6zm-398.6 20.4c-7.2 7.2-5.9 9.5 4 6.8l-4-6.8zm89.2-.8c14.7 2.9 32.1 2.9 52.4 0-4.3-15.2-4.9-27.6-2-37.2l-11.2.4c-4 7.2-11.7 16.4-23.2 27.6-8 6.1-13.4 9.2-16 9.2zm-38 0c-2.9-6.4-5.5-14.4-7.6-24l-23.2-.8c-4.8 5.6-9.3 12.3-13.6 20l5.2 9.2c14.7-1.6 27.7-3.1 39.2-4.4zm-55.6-7.6c-3.7-7.7-6.4-13.6-8-17.6h-16c-9.3 13.6-17.3 21.3-24 23.2 12.3 6.7 22.4 8.8 30.4 6.4 8-2.4 13.9-6.4 17.6-12zm11.6 23.6l-19.2 2.4c-7.7-.8-8.8-3.5-3.2-8-17.1 4.8-32.6 2.5-46.8-6.8-7.5 4-14.8 3.5-22-1.6-4.5 5.1-7.5 12.1-8.8 21.2l-4.8 5.2-.8-10.8v-.4l-6.8 2.4h-3.2c10.1-6.9 16-13.9 17.6-20.8-3.2 5.9-6.8 9.1-10.8 9.6v-4H40.4c2.4-7.2 4.1-12.5 5-16 .9-3.5 1.8-5.3 2.6-5.6 2.4 0 3.6 4.7 3.6 14l6.4-4.4c-3.2-1.3-4.8-7.6-4.8-18.8v-11.6h2.4c1.1 0 2.1 2.1 3.2 6.4 0 10.1 1.6 15.2 4.8 15.2 5.1-8 8.1-17.8 9-29.4.9-11.6-1.3-29.1-6.6-52.6-6.7-12.8-14-19.2-22-19.2s-13.9 4.7-17.8 14.2c-3.9 9.5-5.6 23.7-5.2 42.6.4 18.9 5.4 33.7 15 44.4 2.4-4.3 3.6-10.8 3.6-19.6 2.9-2.1 5.6-2 8 .4.3 9.6-1.7 17.1-6 22.4v9.6c-2.4 2.4-5.3 2.1-8.8-.8-1.3 4.3-.9 6.9 1.2 8l.8 3.2h-4l10.8 12h-.8l-6.8-2.4v.8c5.9 2.9 8.8 6.3 8.8 10v1.2c-7.2-3.2-12-7-14.4-11.4-2.4-4.4-3.6-8.9-3.6-13.6 0-4.7.9-10.1 2.8-16.2l-7.2-8.4c-4.3 13.6-5 21.8-2.2 24.6 2.8 2.8 4.2 6.1 4.2 9.8l-8.4-3.6 5.6 8.8-4 .4 4.4 12.4h-.4C11.9 266.6 8 259.1 8 246.1c-1.3-2.7-2.1-7.2-2.4-13.6 0-5.1 2.8-13.1 8.4-24-1.9-3.7-2.8-15.7-2.8-36 0-41 7.1-62 21.2-62.8L0 11.4C-.2 1.5 2.7.6 8.8 8.6l34.4 99.1h1.6L72 5.8c4.8-7.7 8.1-7.7 10 0L56.8 108.9c8.3 2.1 13.9 6.9 16.8 14.4 4-9.1 10.4-10.4 19.2-4 52.5-2.7 114.3-1.7 185.5 2.8 18.1-17.6 48-46.1 89.5-85.6 2.1-8.8 8.8-13.2 20-13.2 12.3 0 19.6 10 22 30l-4 10.4 2 18.4-4.4 23.2 6-1.2.4 4.4-6.8 4.4v5.6l4.8-1.6v4.8l-4.8 3.6.4 5.2 6.4-1.6.4 4-4.8 2.8c84 2.1 135.3 7.5 154.1 16.2 18.8 8.7 30 24.9 33.8 48.6-33.3-2.1-70.1-3.9-110.3-5.2 16 3.5 32.5 6.8 49.6 10s30.4 5.1 40 5.8c9.6.7 15.8 3.9 18.6 9.6 2.8 5.7 3.1 12.6.8 20.6-2.3 8-12.7 11.9-31.2 11.8-18.5-.1-37.8.1-57.8.6s-44-1.3-72-5.6c0 1.1-2 3.3-6 6.8l1.6 4.4 7.2-5.6 4.8 1.2c0 1.6-1.3 4.5-4 8.8l6.8 8 8.8-6.4 5.2 4-4.8 8 10.4 5.6 4.8-7.2 4.8 2.4-2.8 6.8 8 3.2 2.8-6.8 6.4 1.6-2 7.6h5.6l2.8-7.2 4 .8.8 7.2 4.4-.8 1.2-5.6h4l2 6.4h5.6l2.4-4.8 3.6 2.8c-1.9 8.8-11.4 12.7-28.6 11.6-17.2-1.1-32.2-5.1-45.2-12-12.9-6.9-26.3-20.8-40.2-41.6-66.6 3.2-113.7 5.3-141.3 6.2-27.6.9-44.8-1.7-51.8-7.8-13.6 1.6-26.5 3.2-38.8 4.8l15.2 10.4 19.6 7.6c-2.1 2.4-7.1 3.7-15 4-7.9.3-13.7-1.6-17.6-5.6-3.8-4-9-8.6-15.4-13.6zm-89.1-24c4.5 2.1 10.5 1.5 17.8-1.8 7.3-3.3 11.9-13.7 13.6-31 1.7-17.3.2-34.3-4.6-51s-11.1-20.1-18.8-10.2c2.7 16.3 4 33.2 4 51 0 17.7-4 32-12 43zm347.4 16.8l8.8-1.2v-.8c-6.2.5-9.1 1.2-8.8 2z"/></svg>