<svg xmlns="http://www.w3.org/2000/svg" viewBox="-10 0 1180.286 330.125"><path d="M1143.286 330.125l-92-77q-2 1-2.5.5t-2.5.5l16 60-8 1-26-60q-5-2-15-3l14 58-10 2-28-67-13-3 5 59-8 3-26-70q-3-1-5-1t-5-1l6 58-8 3-22-67-10-2 2 56h-10l-14-61q-4-1-8-1.5t-9-1.5l10 58-10 4-33-68-18-3 10 55-7 2-32-61-13-2 16 61-8 4-42-68h-8l13 65-9 3-29-69h-10l6 64-8 1-27-65q-2 0-4 .5t-3 .5l4 68-9 1-22-68q-4 0-8 .5t-9 .5l20 60-10 6-39-64-17 2 21 57-8 3-44-57-14 1 22 60-8 2-46-58-12 1 24 66-13 4-42-66q-4 0-7.5.5t-8.5 1.5l34 58-8 8-60-62-18 2 40 66-12 4-53-66q-4 1-7.5 1t-7.5 1l20 66-12 4-36-67-24 2 17 66-11 4-38-70q-11-1-18-3l23 67-10 5-51-80q-7 4-19.5 7.5t-25.5 3.5q-18 0-35-11t-25-28q-34 9-50.5 36t-22.5 59q-1 9-4 17.5t-13 8.5q-11 0-13.5-8t-1.5-23q3-44 31-78t71-46l-.5-.5.5-1.5q-40-18-61.5-54t-20.5-78q1-16 4-23t14-6q11 1 12.5 9.5t2.5 17.5q2 34 17 63.5t49 40.5q19-17 43-17 16 0 27.5 5.5t18.5 9.5l43-91 13 4-16 69q5-2 10.5-3t10.5-3l25-67 12 3-8 57 11-1 30-64h11l-10 60 18-2 40-70 13 5-19 63h9l8-1 32-67 12 4-13 62h12l34-67 12 5-17 60h13l30-68h12l-10 67q4-1 8.5-1h8.5l41-67 11 3-17 63h14l32-67 10 2-14 65q6 0 11.5.5t9.5.5l34-67 9 3-14 65h13l33-67 10 4-13 65q3 0 6 .5t6 .5l36-69 11 4-17 67 10 1 40-62 10 3-22 63 15 2 41-60 9 4-23 61 19 4 35-61 9 2-16 65q6 2 8 2l44-55 9 6-24 58 15 5 37-58 10 5-23 62 8 3 42-49 6 4-26 55q2 1 4.5 2t3.5 2l62-37 2 5-42 43 11 5 53-29 4 7-37 34q8 4 10 7l58-22 1 8-44 28q1 3 2 4.5t2 5.5l99-15 3 13-100 22q-1 1-.5 3t-.5 3l81 84zm-1046-182l2-5q-37-14-52.5-45.5t-17.5-69.5q-1-5-1-10t-1-5q-1 0-3 16-3 38 17 70.5t56 48.5zm950 66q-2-1-3.5-3.5t-4.5-6.5q-4-4-25.5-16t-54-26.5q-32.5-14.5-68.5-25.5-66-19-145.5-26.5t-153.5-7.5q-61 0-119 3t-110 5q-61 3-94.5 12t-47.5 20.5q-14 11.5-17 23.5 5 1 18 4.5t34 3.5q9 0 37.5-3.5t65.5-8.5q44-7 98.5-13.5t106-11.5q51.5-5 88.5-5 59 0 126 6.5t136 24.5q69 18 133 51zm-892 2q11 0 20-2.5t14-4.5q-4-8-5-17t-1-19q0-14 6-26-3-2-12.5-8t-24.5-6q-15 0-28.5 11t-13.5 31q0 17 14.5 29t30.5 12zm877 20q8 0 11-1-63-34-131-52t-134.5-25q-66.5-7-125.5-7-37 0-88 5t-104 12q-53 7-98 13-38 5-66.5 8.5t-39.5 3.5q-20 0-33-2.5t-20-4.5q2 13 15.5 22t58.5 9q10 0 36-3t62-8q44-6 99.5-12.5t114-11.5q58.5-5 110.5-5t109 9.5q57 9.5 108 21.5t84 20q12 3 21 5.5t11 2.5zm-1027 68q1 0 1.5-4.5t1.5-9.5q7-37 26-67t57-40q0-1-.5-2.5t-.5-2.5q-37 11-61 41.5t-25 68.5q0 16 1 16z" fill="currentColor"/></svg>