<svg xmlns="http://www.w3.org/2000/svg" viewBox="0 0 593 168.3"><path d="M548 107.3c12.2 12.6 20.8 24.7 25.9 36.3 5 11.6 6.4 19.3 4.1 23-2.3 3.8-7.4.9-15.2-8.5-7.8-9.5-16.6-18.7-26.5-27.8-9.9-9-13.8-5.7-11.7 10.1 2.1 15.8.4 23.7-5 23.7-6.7-.8-12.6-7.7-17.7-20.5s-8.9-20.5-11.7-23c-2.7-2.5-5.1 1.3-6.9 11.4-1.9 10.1-4.7 17-8.5 20.8-6.7-2.9-12.9-11.3-18.6-24.9-5.7-13.7-11.9-22.2-18.6-25.6-6.7-3.4-8.1.4-4.1 11.4 4 10.9 5.4 19.1 4.1 24.6-2.5 3.8-6.5 4.2-12 1.3-5.1-.4-10.7-7.6-17-21.5-6.3-13.9-12.1-21.1-17.4-21.8-5.3-.6-8 1.4-8.2 6-.2 4.6 1.1 9.4 3.8 14.2 2.7 4.8 2.6 8.5-.3 11 2.1 4.6-.8 8.6-8.8 12-10.9-1.3-17.7-12.2-20.2-32.8-.8-8-3.6-12.3-8.2-12.9-4.6-.6-8.9.3-12.9 2.8s-4.1 6.3-.3 11.4c3.8 5.1 5.3 10.1 4.4 15.2 0 2.9-1.5 6.5-4.4 10.7-9.3-.4-15.7-6.4-19.3-18-3.6-11.6-8.7-17.4-15.5-17.4-6.7 0-10.7 1.5-12 4.4-1.3 2.9-.4 6.5 2.5 10.7 2.9 4.2 4.2 8.8 3.8 13.9 2.1 3.4.2 6.5-5.7 9.5-5.9-.8-12.4-6.2-19.6-16.1-7.2-9.9-13.3-15-18.3-15.5-5.1-.4-9.8.1-14.2 1.6-4.4 1.5-4.4 5.4 0 11.7 4.4 6.3 7.5 11.6 9.2 15.8 2.1 4.2-.8 7.4-8.8 9.5-4.2.8-7.8-.5-10.7-4.1-2.9-3.6-6.2-9.2-9.8-16.7-3.6-7.6-8.2-11.6-13.9-12-5.7-.4-10.1 0-13.3 1.3-3.2 1.3-3.3 5.2-.3 11.7 2.9 6.5 5.3 12.5 6.9 18-.8 5.1-3.8 7.6-8.8 7.6-4.6 1.3-10.7-3.5-18.3-14.2-7.6-10.7-13.4-16.3-17.4-16.7-4-.4-8.2.2-12.6 1.9s-5.4 5.3-2.8 10.7c2.5 5.5 4.2 10.1 5 13.9 0 4.6-2.3 7.4-6.9 8.2-5.9.8-12.4-5.3-19.6-18.3-7.2-13-13.7-21.3-19.6-24.6-5.9-3.4-15.4-5.9-28.4-7.6-18.1 4.6-29.4 14.7-33.8 30.3-4.4 15.6-12.1 22.5-23 20.8C.4 147-2.5 140.6 2.4 134.9s13-13.2 24.6-22.4c11.6-9.3 18.8-19.6 21.8-30.9-2.6-10.7-9.4-21.5-20.3-32.6-11-11.2-18.4-20.5-22.4-27.8-4-7.4-1.6-12.7 7.3-16.1 12.2-.4 18.7 6.8 19.6 21.8.8 14.9 13.5 27.2 37.9 36.9 9.3.4 20-2.8 32.2-9.8 12.2-6.9 20.1-15.4 23.7-25.3 3.6-9.9 7.7-14.8 12.3-14.8 4.6 0 7.3 1.7 7.9 5 .6 3.4-.4 7.6-3.2 12.6-2.7 5.1-4.1 9.4-4.1 12.9 0 3.6 2.5 7.3 7.6 11 6.7-.8 11.3-4.5 13.6-11 2.3-6.5 4.5-13 6.6-19.6 2.1-6.5 5.8-10.9 11-13.3 5.3-2.3 8.8-1.6 10.7 2.2 1.9 3.8 1.5 8.6-1.3 14.5-2.7 5.9-4.3 12.1-4.7 18.6-.4 6.5 2.1 8.6 7.6 6.3s11.2-9.4 17-21.1c5.9-11.8 12.2-18.7 18.9-20.8s9 .3 6.9 7.3c-2.1 6.9-4.3 12.7-6.6 17.4-2.3 4.6-.9 8.1 4.1 10.4 5.1 2.3 10.9-3.8 17.7-18.3 6.7-14.5 12.7-21.5 18-20.8 5.3.6 5.7 6.1 1.3 16.4-4.4 10.3-4.5 16.7-.3 19.3 4.2 2.5 8.2 2.5 12 0 3.8-2.5 8.6-9.3 14.5-20.2 5.9-10.9 11.8-17.3 17.7-18.9 5.9-1.7 8.3.7 7.3 7.3-1.1 6.5-1.8 12.5-2.2 18-.4 5.5 1.7 8.6 6.3 9.5 4.6.8 11-5.7 19.3-19.6 8-13.9 14.3-19.5 18.5-16.8 4.2 2.7 5.6 6.7 4.1 12s-1.6 10.9-.3 17 4.3 9.6 9.2 10.4c4.8.8 8.6-3.4 11.4-12.6 2.7-9.3 6.9-16.8 12.6-22.7 5.7-5.9 10.3-7.7 13.9-5.4 3.6 2.3 3.6 7.4 0 15.2-3.6 7.8-4.4 14.4-2.5 19.9 1.9 5.5 5.5 7.6 10.7 6.3 5.3-1.3 11.2-6.2 17.7-14.8 6.5-8.6 12.9-14.7 19.3-18.3 6.3-3.6 9.5-2 9.5 4.7s-2.7 13.5-8.2 20.2c-5.5 6.7-5.7 11.3-.6 13.6 5.1 2.3 12.9-1.3 23.7-10.7 10.7-9.5 18.7-14.1 24-13.9 5.3.2 5.8 3.6 1.6 10.1-4.2 6.5-7.2 12.1-8.8 16.7-1.7 4.6.3 7.4 6 8.2 5.7.8 13-2.8 22.1-11 9-8.2 16.1-13.3 21.1-15.2s8.5-1.3 10.4 1.9c1.9 3.2-1.3 10.1-9.5 20.8s-7.6 16.4 1.9 17c9.5.6 17 .4 22.7-.6 5.7-1.1 10.8-1.1 15.5 0 4.6 1.1 5.8 4.1 3.5 9.2s-7.7 10.6-16.1 16.7c-8.7 6.1-18 9.6-28.1 10.4zm-12.6-6.9c.4-6.7-4.8-13-15.8-18.9-51.8-17.3-120.2-23-205.2-17.4-85 5.7-161.2 11.3-228.5 16.7 33.7 7.2 62.2 10.3 85.5 9.5s57.1-2.9 101.3-6.3c44.2-3.4 80.1-5.1 107.6-5.1 27.6 0 50.2 2.1 67.9 6.3 17.7 4.2 40.4 12 68.2 23.4 8.5 2.1 14.8-.6 19-8.2z"/></svg>