<svg version="1" xmlns="http://www.w3.org/2000/svg" width="196" height="322.7" viewBox="0 0 147 242"><path d="M9.2 13.2C-2.3 61.7-2.6 93.2 8 125.3a187.3 187.3 0 0 0 19.6 40.2 194.7 194.7 0 0 0 92.6 72.7c9.1 3.1 25.8 5.2 25.8 3.2 0-.4-1.5-2.4-3.4-4.4a251.4 251.4 0 0 1-24.8-34.3c-12.8-23.1-17.7-43.1-18.5-76.2l-.6-21-5.7-3.3C68.1 87.7 36.8 44.9 25.1 9.5l-3-9-4.9-.3-4.8-.3-3.2 13.3zm16.7 16.3a252.7 252.7 0 0 0 27 44c7.3 9.6 23.9 25.6 32.3 31l7.8 5v14c.1 44.6 10.1 75 34.4 104.8a24 24 0 0 1 4.3 6.4c-.9.8-11.3-2.5-20.9-6.7a186 186 0 0 1-94.3-96.8A152 152 0 0 1 6.4 69c1.1-16.5 5.3-41.6 9.8-58.5l1-4 2.8 8c1.5 4.4 4.2 11.1 5.9 15z"/></svg>