<svg xmlns="http://www.w3.org/2000/svg" viewBox="-10 0 464 767"><path d="M409 767q-49-10-105.5-39t-112-75q-55.5-46-101-107.5t-73-137Q-10 333-10 245q0-46 6.5-91.5t15.5-85Q21 29 29 0h31q7 34 29 82t55 98q33 50 74 91.5t85 63.5q0 11-.5 24.5T302 384q0 86 17 151.5T369.5 656Q403 711 454 767zm0-20h2q-43-49-71.5-100.5T297 532q-14-63-14-148v-37q-43-24-82.5-64T129 195.5q-32-47.5-54-94T44 20q-7 25-15 62.5t-14 80Q9 205 9 245q0 83 26 155t69.5 131q43.5 59 96 104t107 73.5Q362 737 409 747z" fill="currentColor"/></svg>