<svg xmlns="http://www.w3.org/2000/svg" viewBox="-10 0 464 767"><path d="M-10 767q51-56 84.5-111T125 535.5Q142 470 142 384q0-11-.5-24.5T141 335q44-22 85-63.5t74-91.5q33-50 55-98t29-82h31q8 29 17 68.5t15.5 85Q454 199 454 245q0 88-27.5 163.5t-73 137Q308 607 252.5 653t-112 75Q84 757 35 767zm43-20h2q47-10 101.5-38.5t107-73.5q52.5-45 96-104T409 400q26-72 26-155 0-40-6-82.5t-14-80Q407 45 400 20q-9 35-31 81.5t-54 94Q283 243 243.5 283T161 347v37q0 85-14 148t-42.5 114.5Q76 698 33 747z" fill="currentColor"/></svg>