<svg xmlns="http://www.w3.org/2000/svg" viewBox="0 0 404.8 594.6"><path d="M201.7 167c28.9-20.5 51.9-16.3 68.8 12.7 6.2 164.3-16.7 276.6-68.8 336.7-51.7-60.1-74.4-172.3-68.1-336.7 17.4-29 40.1-33.2 68.1-12.7zm0 378.8c8 3.1 15.3 11 21.7 23.7 6.5 12.7 15.3 21 26.4 25.1 10.7.4 17.1-3.8 19.4-12.7-8.9-26.7-23.2-42.3-42.8-46.8 50.8-68.1 74.8-179 72.1-332.7 28.1 13.4 51.1 21.8 69.1 25.4 18 3.6 28.7 2.7 32.1-2.7 3.3-5.3 5-14.5 5-27.4 0-12.9-13.8-40.5-41.4-82.8-27.6-42.3-49.8-72-66.5-89.2C280.2 8.6 261.9 0 241.8 0c-16 .4-24 1.8-24 4-.4 8.5 7 13.8 22.4 16 15.4 2.2 22.8 5.8 22.4 10.7 0 4-5.8 6-17.4 6-11.1 0-16.3 2.7-15.4 8 4.5 3.6 15.5 5.7 33.1 6.3 17.6.7 38 18.8 61.1 54.4 23.2 35.6 36.1 62.8 38.7 81.5-31.6 0-55.2-10-70.8-30.1-28.1-36.1-58.1-41.9-90.2-17.4-31.2-24.5-60.8-18.7-88.8 17.4C97.3 177 73.5 187 41.4 187c2.7-18.7 15.7-45.9 39.1-81.5 23.4-35.6 43.9-53.8 61.5-54.4 17.6-.7 28.6-2.8 33.1-6.3.9-5.3-4.2-8-15.4-8-11.6 0-17.4-2-17.4-6-.4-4.9 7-8.5 22.4-10.7 15.4-2.2 22.8-7.6 22.4-16 0-2.2-8.2-3.6-24.7-4-19.6 0-37.7 8.6-54.4 25.7s-39 46.8-66.6 89.1C13.8 157.2 0 184.8 0 197.7s1.7 22 5 27.4c3.3 5.3 13.9 6.2 31.7 2.7 17.8-3.6 41-12 69.5-25.4-2.7 153.6 21.4 264.5 72.1 332.7-19.6 4.5-33.8 20-42.8 46.8 2.2 8.9 8.7 13.1 19.4 12.7 11.1-4 19.8-12.4 26.1-25.1 6.3-12.7 13.2-20.6 20.7-23.7z"/></svg>