<svg xmlns="http://www.w3.org/2000/svg" viewBox="-10 0 840 1137"><path d="M337 1137q-15 0-39.5-3.5T254 1125v-19q41-26 63-41.5t38-28.5l-1-12q-89-130-130-261t-41-244q0-17 2-39.5t4-37.5q-14 2-37.5 5.5T106 451q-52 0-84-12.5T-10 413v-24q0-14 13.5-45t35-65Q60 245 84 220q34-35 55.5-63t28.5-38q1-4 3-9t3-10q3-13 8-27t16-24q19-20 53-34.5T333 0v30q-19 8-43 28.5T251 95l57-29 26 30-45 44-54 24-33 9-16.5 33-26.5 51.5q-26.5 51.5-30 56T102 361q25-3 49.5-6t50.5-6q3-8 13-26.5t25.5-38.5q15.5-20 36.5-34t48-14q32 0 51 11.5t34 28.5q14-17 33.5-28.5T494 236q27 0 50.5 18t42.5 44.5q19 26.5 30 50.5 26 3 49 5.5t51 6.5q-10-18-25-44.5T662.5 262q-14.5-28-27-52T617 173l-33-9-53-24-46-44 26-30 55 29q-15-16-38-36.5T487 30V0q48 0 82 14.5T622 49q11 10 15.5 24t7.5 27q2 5 3.5 10t3.5 9q7 10 28.5 38t55.5 63q23 25 45 59t35.5 65q13.5 31 13.5 45v24q0 13-32.5 25.5T714 451q-17 0-42-3t-42-6q2 13 4 33.5t2 43.5q0 112-41.5 243T465 1023l1 12q23 19 45 34.5t55 36.5v19q-20 5-44 8.5t-39 3.5q-24 0-42.5-14t-30.5-31q-12 17-31 31t-42 14zm0-19q21 0 41-21.5t32-41.5q12 20 31.5 41.5T483 1118q10 0 25-2t29-4q-25-17-45.5-33t-45.5-36v-26q89-129 130-258t41-240q0-26-3.5-55t-7.5-47q22 4 54 9t54 5q43 0 69.5-8.5T810 408v-19q0-12-12.5-40.5T765 288q-20-32-43-55-35-35-57-63.5T635 130q-4-9-8-25-3-11-7.5-22.5T608 63q-19-20-46.5-34.5T502 15l4 3q24 12 50 38.5t40 47.5l-15 16-64-31-5 6 29 29q13 5 24.5 10.5T590 146l43 12q0 2 10 21.5t25 48q15 28.5 32 59.5t31.5 57.5Q746 371 755 385l-152-18q-9-24-25.5-50T540 273q-21-18-46-18-29 0-46 13t-31 28h-15q-13-15-31-28t-46-13q-24 0-45.5 18t-38 44Q225 343 216 367L64 385q9-14 24-40.5t31.5-57.5q16.5-31 31.5-59.5t25-48q10-19.5 10-21.5l44-12q12-5 24-11t24-11l29-29-5-6q-15 8-32 16t-31 15l-15-16q9-13 24.5-30.5T282 41q18-15 34-22l-3 1q-34 1-59.5 14T212 63q-8 8-12 19.5t-7 22.5q-2 7-4 13.5t-5 11.5q-7 11-29.5 39.5T97 233q-22 23-42 55t-33 60.5Q9 377 9 389v19q0 6 27 14.5t70 8.5q21 0 53-5t55-9q-4 18-7.5 47t-3.5 55q0 111 41 240t129 258v26q-25 20-45.5 36t-45.5 33q13 2 28.5 4t26.5 2zm64-112q-80-126-121.5-242T238 521q0-70 11-113.5t27-66.5q16-23 32.5-31t27.5-8q18 0 39.5 11.5T410 345q13-20 34-31.5t40-11.5q11 0 27.5 8t32.5 31q16 23 27 66.5T582 521q0 127-41.5 243T418 1006zm9-24q75-119 113.5-229.5T562 521q0-64-8.5-103.5t-21.5-60q-13-20.5-26-28t-22-7.5q-17 0-39 19t-35 52q-13-33-35-52t-39-19q-9 0-22 7.5t-26.5 28q-13.5 20.5-22 60T257 521q0 121 38.5 231.5T410 982z" fill="currentColor"/></svg>