<svg xmlns="http://www.w3.org/2000/svg" viewBox="0 0 17.7 25.9"><path d="M17.7 16.5h-6.4v9.3h-.8v-4.3l-3.4-5H4.8L4.1 18H1.6l-.8-1.4H0v-.8c0-1 .6-1.8 1.7-1.9 1.1.1 1.7.7 1.8 2h14.1v.7zm-7.2 0H8l2.5 3.6v-3.6zm-7.7-.8c0-.7-.4-1-1-1-.7 0-1 .3-1 1h2zm1.3.8H1.6l.4.7h1.8l.3-.7z"/><path d="M9.4 4.3c.7-.5 1.3-.4 1.8.3.2 4.2-.4 7.1-1.8 8.7C8.1 11.8 7.5 9 7.7 4.7c.4-.8 1-.9 1.7-.4zm0 9.8l.6.6c.2.3.4.5.7.6.3 0 .4 0 .5-.3-.2-.7-.6-1-1-1.2C11.3 12 12 9.2 12 5.2l1.8.7h.7l.1-.8c0-.3-.4-1-1-2S12.1 1 11.7.6C11.4.3 11 0 10.4 0l-.6.1c0 .2.2.4.6.4s.6.1.6.3c0 .1 0 .2-.4.2-.3 0-.4.1-.4.2l.8.2c.5 0 1 .5 1.6 1.4.6 1 1 1.6 1 2.1-.8 0-1.4-.3-1.8-.8-.7-.9-1.5-1-2.3-.4-.9-.7-1.6-.5-2.4.4-.4.5-1 .8-1.8.8.1-.5.4-1.2 1-2C7 1.8 7.4 1.3 8 1.3s.7 0 .8-.2c.1 0 0-.2-.4-.2C8 1 8 1 8 .8l.6-.3c.4 0 .6-.2.6-.4h-.6C8 0 7.5.1 7.1.6L5.4 3c-.7 1.1-1.2 1.8-1.2 2.1l.1.7c.2.2.4.2 1 .1A6 6 0 0 0 7 5.2c0 4 .5 7 1.8 8.6-.5.1-.8.5-1 1.2 0 .2.1.3.4.3.3 0 .5-.3.7-.6l.5-.6z"/></svg>