<svg xmlns="http://www.w3.org/2000/svg" viewBox="-10 0 497 1141"><path d="M156 1141q5-18 10.5-40t9.5-41.5q4-19.5 4-30.5 0-57-21-99.5t-52.5-73Q75 826 43.5 806T-10 774l145-672q2-8 6.5-24.5T157 43q11-18 30.5-30.5T238 0q31 0 51 12.5T319.5 43q10.5 18 15 34.5T341 102l146 672q-22 12-54 32t-63 50.5q-31 30.5-52 73t-21 99.5q0 11 4 30.5t9.5 41.5q5.5 22 10.5 40zm26-20h113q-6-22-12-50.5t-6-41.5q0-61 19.5-104t49.5-73q30-30 62-51t56-36L322 105q-1-6-5-20t-13-29q-9-15-25-25.5T238 20q-25 0-41 10.5T172.5 56q-8.5 15-12 29t-5.5 20L13 765q24 15 56 36t61.5 51q29.5 30 49 73t19.5 104q0 13-6 41.5t-11 50.5z" fill="currentColor"/></svg>