<svg xmlns="http://www.w3.org/2000/svg" viewBox="0 0 325.8 595.3"><path d="M162.9 0c-16.3 0-30.2 10-41.9 23.5C84.3 69.8 66 129 45.6 183.8 26.1 241.2.9 304.9 0 366.2c11.8 51.9 73.1 48.9 100.4 88.3 13.4 40.8-.8 99.3-4.5 140.8H230c-3.2-42.4-18-98.9-4.5-140.8 24.4-37.7 92.4-38.8 100.4-88.3-2.6-61.6-24.3-125-45.6-182.4-21.3-54.8-38-113.7-75.4-160.3C193.1 10 179.2 0 162.9 0zm0 19.8c8 0 17.2 5.4 27 16.7 34.8 44.7 52.2 101.8 71.8 154.3 18.5 54.7 42.9 115.9 44.3 174.3-20 39.8-74.3 42.5-98.7 81.3-14.8 40.5-3.9 83.6 1.8 125h-92.4c5.9-43 16.1-82.2 1.8-125-17.6-43.3-82.3-38.9-98.7-81.3 3.4-59 23.9-119.1 44.3-174.3 20.9-52.5 36-109.5 71.8-154.3 9.8-11.3 19-16.7 27-16.7z"/></svg>