<svg xmlns="http://www.w3.org/2000/svg" viewBox="0 0 532 435.9"><path d="M281.8 25.6C201.1 24.3 123.7 37.7 49.7 66c-2.7 1.8-4 3.9-4 6.4 0 2.5 1.3 4.6 4 6.4 74 28.2 151.3 41.7 232.1 40.4-9.4-31.1-9.4-62.3 0-93.6zm88.8 47c-8.1-27.4-28.9-42.2-62.6-44.4-10.8 29.6-10.8 59.2 0 88.8 33.7-2.7 54.5-17.5 62.6-44.4zm25.6 15.5c-15.2 37.7-51.3 56.5-108.3 56.5C168.6 144.2 74 122.2 4 78.7c-2.7-1.8-4-3.9-4-6.4 0-2.5 1.3-4.6 4-6.4C74 22.4 168.6.4 287.9 0c56.9 0 93 18.8 108.3 56.5 132.7 14.3 168.2 140.6 106.3 378.7l-29.6.7c56.9-230.1 31.3-346-76.7-347.8z"/></svg>