<svg xmlns="http://www.w3.org/2000/svg" viewBox="-10 0 1010.133 755"><path d="M976 755q-19 0-26-19.5T940 688q-7-52-16.5-111t-25-116.5Q883 403 858 354t-62-81.5Q759 240 706 231q-15 33-45.5 53t-65 29.5Q561 323 534 323q-70 0-139-16.5T262.5 263q-63.5-27-117-58.5t-93.5-63Q12 110-10 86q45-24 117-43.5t161-31Q357 0 455 0q79 0 136 24t89.5 63q32.5 39 35.5 83 69 11 117 51.5T912.5 322Q944 382 962 451.5T988.5 590q8.5 69 11.5 127 1 16-5.5 27T976 755zM528 303q-17-27-25-56t-8-57q0-43 17-83.5T561 34q-23-7-49.5-11T455 19q-92 0-174.5 9.5t-149 26Q65 71 22 91q29 29 81 65t120 69.5q68 33.5 146 55T528 303zm448 432q7 0 5-18-1-45-8.5-108T948 478q-17-68-47-129.5t-75-104Q781 202 716 190l-19-3q1-43-29-83t-87-62q-32 29-49 68t-17 80q0 29 8.5 58t26.5 55q27-3 57-13.5t54-30q24-19.5 32-50.5l19 3q57 10 96.5 44.5t66 85Q901 392 917 451.5t25.5 120Q952 632 959 686q2 21 6 35t11 14z" fill="currentColor"/></svg>