<svg xmlns="http://www.w3.org/2000/svg" viewBox="-10 0 951 534"><path d="M18 534q-12 0-20-4.5t-8-17.5q0-14 14.5-27T42 459q9-5 34-17.5t59.5-28Q170 398 209 384t77.5-23.5Q325 351 357 351q35 0 79 12t91 27q47 15 92 27t83 12q60 0 95.5-11t53-28q17.5-17 23-34.5T879 325q0-31-34-57.5T727 230q-26 51-72.5 72T556 323q-70 0-139-16.5T284.5 263Q221 236 167 204.5t-94-63Q33 110 11 86q46-24 117.5-43.5t161-31Q379 0 477 0q78 0 135 24t89 63q32 39 36 83 51 6 97.5 22.5t76.5 48q30 31.5 30 81.5 0 58-30.5 95.5t-85 55.5Q771 491 701 491q-34 0-81.5-11.5t-97.5-27q-50-15.5-93.5-27T358 414q-32 0-69.5 10.5t-74.5 25Q177 464 147 478t-46 21q-30 13-54 24t-29 11zm532-231q-17-27-25-56t-8-57q0-43 17-83.5T583 34q-23-7-50-11t-56-4q-92 0-175 9.5t-149.5 26Q86 71 43 91q28 29 80.5 65t121 69.5Q313 259 391 280.5T550 303zM19 514q3 0 24.5-9.5T93 482q20-9 51-23.5t68-29.5q37-15 75-25t71-10q27 0 71 12t94 27q50 15 97.5 27t80.5 12q98 0 159.5-37T922 322q0-46-30-74t-76.5-42Q769 192 720 187h-2q1-43-29-83t-86-62q-32 29-49.5 68T536 190q0 60 36 113 32-1 61.5-13.5T685 256q22-21 30-47 102 11 142.5 43.5T898 325q0 15-6 36t-25.5 40.5Q847 421 808 434.5T702 448q-37 0-82.5-11.5t-93-27Q479 394 435 382.5T357 371q-38 0-86 14t-93.5 33q-45.5 19-80 35.5T52 476q-25 13-32.5 20.5T12 511q0 3 7 3z" fill="currentColor"/></svg>