<svg xmlns="http://www.w3.org/2000/svg" viewBox="-10 0 1174.074 535"><path d="M274 535q-45 0-71-24.5T177 441q0-49 27-72t70-23h788q11 0 22-10t11-29q-1-14-10.5-26.5T1062 268H279q-13 48-65 65-45 15-74 35t-48.5 44.5Q72 437 55 465H13q-6-28-11.5-71.5t-8.5-87q-3-43.5-3-73.5t3-74q3-44 8.5-87T13 0h42q17 28 36.5 52.5T140 97q29 20 74 35 52 17 66 66h782q15 0 39 9.5t43.5 33.5q19.5 24 19.5 66t-17 66q-17 24-40.5 33.5T1062 416H274q-9 0-18.5 5.5T246 441q0 16 10.5 20t17.5 4h846q21 0 32 9.5t12 25.5q1 21-11.5 28t-32.5 7zM27 445h18q24-40 59.5-73.5T208 314q26-9 41.5-30.5T265 232q0-29-15.5-51T208 150q-65-23-101.5-58T45 17H27q-5 26-9 66t-6.5 80.5Q9 204 9 233q0 34 3.5 75t8 78q4.5 37 6.5 59zm247 71h846q11 0 17.5-3t6.5-12q0-16-24-16H274q-12 0-30-8t-18-36q0-26 16.5-35t31.5-9h788q17 0 36-8t32.5-27.5Q1144 342 1144 307t-15.5-54.5q-15.5-19.5-35-27.5t-31.5-8H284q0 4 .5 7.5t.5 7.5q0 5-.5 8.5t-.5 7.5h778q21 0 36 19t16 39q1 29-16.5 44.5T1062 366H274q-34 0-56 18.5T196 441q0 35 21 55t57 20z" fill="currentColor"/></svg>