<svg xmlns="http://www.w3.org/2000/svg" viewBox="0 0 595.3 267.1"><path d="M38.4 31.5C52.3 52.5 69 65 88.5 69s30.8 11.4 33.7 22.4c2.9 10.9 2.9 21.8 0 32.8-2.9 10.9-14.2 18.4-33.7 22.4-19.5 4-36.2 16.5-50.1 37.5-9.7-18.9-14.5-44.3-14.5-76.2s4.9-57.5 14.5-76.4zm110.3 97c13-3.8 28.3-5.7 46-5.7h340.8c16 0 23.9 8 23.9 23.9-.8 15.1-8.6 22.7-23.3 22.7H135.4c-29 0-43.5 15.7-43.5 47.2 0 34 14.5 50.8 43.5 50.4h459.9v-29.6H142.4c-14.7 0-22.5-5.7-23.3-17 0-16 8-23.9 23.9-23.9h393.1v-.6c35.3.4 52.9-16.4 52.9-50.4 0-33.2-15.3-49.8-46-49.8H194.7c-17.6 0-33-1.7-46-5h.6C145.5 71 129.5 57 101.1 48.8 72.8 40.6 58.6 26.7 58.6 6.9 54 2.3 48.3 0 41.6 0 25.2 0 14.2 14 8.5 41.9 2.8 69.8 0 91.8 0 107.7s2.8 37.9 8.5 65.8 16.7 41.9 33.1 41.9c6.7 0 12.4-2.3 17-6.9 0-19.7 14.2-33.8 42.5-42.2 28.3-8.4 44.4-21 48.2-37.8h-.6z"/></svg>