<svg xmlns="http://www.w3.org/2000/svg" viewBox="0 0 206.3 594.5"><path d="M196.9 32l-45.8 35.7 45.8 35.7c-30.5 21.3-51.8 33-64 35.1v345.6l55.8-54.6 17.6 18.2-62.1 57.7c33.4 16.3 50 46 49.5 89.1H41.4c0-43.1 16.7-72.7 50.2-89.1l-62.1-57.1L47 430.9l55.8 52.7v-345c-32.2-2.1-57.2-8.2-74.9-18.2C10.1 110.4.8 92.8 0 67.7c.8-24.7 10.2-42 28.2-52.1 18-10 43-15.3 74.9-15.7s63.3 10.4 93.8 32.1zM30.1 68.4c0 27.2 23.2 41.8 69.6 43.9 21.7 0 38.9-4.4 51.4-13.2l-46.4-31.4 47-30.7c-12.5-7.9-30.1-11.3-52.7-10-45.9 3.7-68.9 17.5-68.9 41.4zm37 504.2h101c-5.4-32.2-22.2-48.3-50.2-48.3-27.6 0-44.5 16.1-50.8 48.3z"/></svg>