<svg xmlns="http://www.w3.org/2000/svg" viewBox="-10 0 355 1089"><path d="M-6 1089q0-38 17.5-70.5t45-57.5Q84 936 114 921q-17-8-45-23t-49-25l24-46 97 51V271q0-10-8.5-18.5T83 228l-10-4q-18-7-37-17T3.5 177.5Q-10 158-10 123q0-52 38.5-87.5T147 0q56 0 99.5 16T310 48l-26 16q-18 11-37 25t-19 33q0 18 17 31.5t38 23.5q21 10 34 16l-119 60v625l97-51 24 46q-21 10-49.5 25T225 921q30 15 57.5 40t45 57.5Q345 1051 345 1089zm24-19h303q0-31-34-74.5T183 920l110-56-6-11-109 56V241l99-48q-14-6-29.5-15.5t-27-23.5Q209 140 209 122q0-28 22-45.5T274 47q-15-8-47-17.5T147 20Q77 20 43 49.5T9 123q0 28 11.5 43.5t28 24Q65 199 79 205l13 5q32 13 46.5 22.5t18.5 19q4 9.5 4 19.5v638L52 853l-6 11 110 56q-70 32-104 75.5T18 1070z" fill="currentColor"/></svg>