<svg xmlns="http://www.w3.org/2000/svg" viewBox="-10 0 1920 1089"><path d="M1558 1089q0-38 17.5-70.5T1621 961q28-25 58-40-16-8-45-23t-50-25l24-46 98 51V271q0-10-8.5-18.5T1648 228l-11-4q-18-7-37-17t-32.5-29.5Q1554 158 1554 123q0-52 39-87.5T1711 0q56 0 100 16t64 32l-27 16q-18 11-36.5 25t-18.5 33q0 18 16.5 31.5t38 23.5q21.5 10 34.5 16l-120 60v625l97-51 25 46q-21 10-50 25t-45 23q30 15 57.5 40t45.5 57.5q18 32.5 18 70.5zm-1564 0q0-38 17.5-70.5t45-57.5Q84 936 114 921q-17-8-45-23t-49-25l24-46 97 51V271q0-10-8.5-18.5T83 228l-10-4q-18-7-37-17T3.5 177.5Q-10 158-10 123q0-52 38.5-87.5T147 0q56 0 99.5 16T310 48l-26 16q-18 11-37 25t-19 33q0 18 17 31.5t38 23.5q21 10 34 16l-119 60v625l97-51 24 46q-21 10-49.5 25T225 921q30 15 57.5 40t45 57.5Q345 1051 345 1089zm1173 0q0-38 18-70.5t45.5-57.5q27.5-25 57.5-40-17-8-45.5-23t-49.5-25l24-46 98 51V271q0-10-9-18.5t-50-24.5l-10-4q-17-7-36.5-17t-33-29.5Q1163 158 1163 123q0-52 39-87.5T1320 0q55 0 99 16t64 32l-26 16q-18 11-37 25t-19 33q0 18 17 31.5t38 23.5q21 10 35 16l-120 60v625l97-51 25 46q-21 10-49.5 25t-45.5 23q30 15 57.5 40t45.5 57.5q18 32.5 18 70.5zm-782 0q0-38 17.5-70.5t45-57.5q27.5-25 57.5-40-16-8-44.5-23T411 873l24-46 97 51V271q0-10-8.5-18.5T474 228l-10-4q-17-7-36.5-17t-33-29.5Q381 158 381 123q0-52 39-87.5T538 0q55 0 99 16t64 32l-26 16q-18 11-37 25t-19 33q0 18 17 31.5t38 23.5q21 10 35 16l-120 60v625l97-51 25 46q-21 10-49.5 25T616 921q30 15 57.5 40t45 57.5Q736 1051 736 1089zm391 0q0-38 17.5-70.5T839 961q28-25 58-40-17-8-45.5-23T802 873l24-46 97 51V271q0-10-8.5-18.5T865 228l-10-4q-18-7-37-17t-32.5-29.5Q772 158 772 123q0-52 38.5-87.5T929 0q56 0 99.5 16t63.5 32l-26 16q-18 11-37 25t-19 33q0 18 17 31.5t38.5 23.5q21.5 10 34.5 16l-120 60v625l97-51 25 46q-21 10-50 25t-45 23q30 15 57.5 40t45.5 57.5q18 32.5 18 70.5zm806-19h304q0-31-34.5-74.5T1748 920l109-56-6-11-108 56V241l98-48q-14-6-29.5-15.5t-27-23.5q-11.5-14-11.5-32 0-28 22.5-45.5T1838 47q-15-8-47-17.5t-80-9.5q-70 0-103.5 29.5T1574 123q0 28 11 43.5t27.5 24Q1629 199 1644 205l13 5q32 13 46 22.5t18 19q4 9.5 4 19.5v638l-108-56-6 11 109 56q-69 32-103.5 75.5T1582 1070zm-391 0h304q0-31-34.5-74.5T1357 920l109-56-6-11-108 56V241l98-48q-13-6-29-15.5t-27.5-23.5q-11.5-14-11.5-32 0-28 22.5-45.5T1447 47q-15-8-47-17.5t-80-9.5q-70 0-103.5 29.5T1183 123q0 28 11 43.5t27.5 24Q1238 199 1253 205l13 5q31 13 45.5 22.5t18.5 19q4 9.5 4 19.5v638l-108-56-6 11 109 56q-70 32-104 75.5t-34 74.5zm-1173 0h303q0-31-34-74.5T183 920l110-56-6-11-109 56V241l99-48q-14-6-29.5-15.5t-27-23.5Q209 140 209 122q0-28 22-45.5T274 47q-15-8-47-17.5T147 20Q77 20 43 49.5T9 123q0 28 11.5 43.5t28 24Q65 199 79 205l13 5q32 13 46.5 22.5t18.5 19q4 9.5 4 19.5v638L52 853l-6 11 110 56q-70 32-104 75.5T18 1070zm782 0h304q0-31-34.5-74.5T965 920l110-56-6-11-108 56V241l98-48q-14-6-29.5-15.5t-27-23.5Q991 140 991 122q0-28 22-45.5t43-29.5q-15-8-47-17.5T929 20q-70 0-103.5 29.5T792 123q0 28 11 43.5t27.5 24Q847 199 861 205l14 5q32 13 46 22.5t18 19q4 9.5 4 19.5v638l-108-56-6 11 109 56q-70 32-104 75.5t-34 74.5zm-391 0h303q0-31-34-74.5T574 920l110-56-6-11-109 56V241l99-48q-13-6-29-15.5T611.5 154Q600 140 600 122q0-28 22-45.5T665 47q-15-8-47-17.5T538 20q-70 0-104 29.5T400 123q0 28 11.5 43.5t27.5 24q16 8.5 31 14.5l13 5q32 13 46.5 22.5t18.5 19q4 9.5 4 19.5v638l-109-56-5 11 109 56q-70 32-104 75.5t-34 74.5z" fill="currentColor"/></svg>