<svg xmlns="http://www.w3.org/2000/svg" viewBox="-10 0 897 1088"><path d="M689 535q0-28 12.5-48.5T736 455l-42-24 20-35 47 26V138q0-4-4-9t-24-12l-5-2q-11-5-26-16t-15-39q0-29 24-44.5T774 0q31 0 60 10.5T877 31q-19 4-36 11t-17 18q0 15 19.5 24T877 96l-62 26v300l47-26 20 35-43 24q48 22 48 80zm-465 0q0-58 48-80l-43-24 20-35 47 26V138q0-4-4-9t-24-12l-5-2q-10-5-25.5-16T222 60q0-29 24-44.5T309 0q32 0 60.5 10.5T412 31q-19 4-36 11t-17 18q0 15 19.5 24T412 96l-62 26v300l47-26 20 35-42 24q22 11 34.5 31.5T422 535zm-232 0q0-28 12.5-48.5T39 455l-42-24 20-35 47 26V138q0-4-4-9t-24-12l-5-2q-10-5-25.5-16T-10 60q0-29 24-44.5T77 0q32 0 60.5 10.5T180 31q-19 4-36 11t-17 18q0 15 19 24t33 12l-62 26v300l48-26 20 35-43 24q22 11 35 31.5t13 48.5zm465 0q0-28 12.5-48.5T504 455l-42-24 20-35 47 26V138q0-4-4-9t-24-12l-5-2q-11-5-26-16t-15-39q0-29 24-44.5T542 0q31 0 60 10.5T645 31q-19 4-36.5 11T591 60q0 15 19.5 24T644 96l-62 26v300l47-26 20 35-42 24q22 11 34.5 31.5T654 535zM13 515h155q0-10-13-27.5T109 454l55-30-4-6-61 33V113l39-17q-11-4-21-13t-10-23q0-12 10-19t20-9q-8-4-22.5-8T77 20q-31 0-49.5 10T9 60q0 17 10.5 25.5T44 99l6 2q23 9 27.5 14t4.5 13v323l-61-33-3 6 54 30q-33 16-46 33.5T13 515zm698 0h154q0-10-12.5-27.5T806 454l55-30-3-6-62 33V113l40-17q-12-4-22-13t-10-23q0-12 10-19t20-9q-7-4-21.5-8T774 20q-31 0-49 10t-18 30q0 17 10 25.5T741 99l6 2q24 7 28 13t4 14v323l-61-33-3 6 55 30q-34 16-46.5 33.5T711 515zm-233 0h155q0-10-13-27.5T574 454l55-30-4-6-61 33V113l39-17q-12-4-21.5-13T572 60q0-12 10-19t20-9q-7-4-22-8t-38-4q-31 0-49.5 10T474 60q0 17 10.5 25.5T508 99l7 2q24 7 28 13t4 14v323l-61-33-3 6 54 30q-33 16-46 33.5T478 515zm-232 0h154q0-10-12.5-27.5T341 454l55-30-3-6-61 33V113l39-17q-12-4-22-13t-10-23q0-12 10.5-19t19.5-9q-8-4-22-8t-38-4q-31 0-49 10t-18 30q0 17 10 25.5T276 99l6 2q25 7 29 13t4 14v323l-61-33-4 6 55 30q-34 16-46.5 33.5T246 515zm341 573q0-28 12.5-48.5T634 1008l-43-23 20-35 48 26V692q0-4-4.5-9T630 670l-4-1q-11-5-26-16t-15-39q0-29 24-44.5t62-15.5q32 0 60.5 10.5T774 585q-18 4-35.5 10.5T721 613q0 15 19.5 24.5T774 649l-62 27v300l47-26 20 35-42 23q22 11 34.5 31.5T784 1088zm-465 0q0-28 12.5-48.5T169 1008l-42-23 20-35 47 26V692q0-4-4.5-9T166 670l-5-1q-10-5-25.5-16T120 614q0-29 24-44.5t63-15.5q32 0 60.5 10.5T310 585q-19 4-36.5 10.5T256 613q0 15 19.5 24.5T309 649l-62 27v300l48-26 20 35-43 23q22 11 34.5 31.5T319 1088zm232 0q0-28 12.5-48.5T401 1008l-42-23 20-35 47 26V692q0-4-4-9t-24-13l-5-1q-10-5-25.5-16T352 614q0-29 24-44.5t63-15.5q32 0 60.5 10.5T542 585q-19 4-36 10.5T489 613q0 15 19.5 24.5T542 649l-62 27v300l47-26 20 35-43 23q48 24 48 80zm254-19h155q0-10-13-28t-46-34l54-29-3-7-61 33V667l39-17q-12-4-21.5-14t-9.5-23q0-11 10-18t20-9q-7-4-22-8.5t-39-4.5q-31 0-49 10.5T604 614q0 16 10.5 25t23.5 13l7 2q23 10 27.5 15t4.5 13v322l-61-33-4 7 55 29q-33 16-46 34t-13 28zm-465 0h155q0-10-13-28t-46-34l55-29-4-7-61 33V667l39-17q-11-4-21-14t-10-23q0-11 10-18t20-9q-8-4-22.5-8.5T207 573q-31 0-49.5 10.5T139 614q0 16 10 25t24 13l7 2q23 10 27.5 15t4.5 13v322l-61-33-3 7 54 29q-33 16-46 34t-13 28zm233 0h154q0-10-12.5-28t-46.5-34l55-29-3-7-61 33V667l39-17q-12-4-22-14t-10-23q0-11 10-18t20-9q-8-4-22-8.5t-38-4.5q-31 0-49 10.5T372 614q0 16 10 25t24 13l6 2q23 10 27.5 15t4.5 13v322l-61-33-3 7 55 29q-34 16-46.5 34t-12.5 28z" fill="currentColor"/></svg>