<svg xmlns="http://www.w3.org/2000/svg" viewBox="-10 0 425 1087"><path d="M-9 350q0-37 31-52l-28-16 14-23 31 17V90q0-3-3-6t-16-8l-3-1q-7-3-17-10.5T-10 39q0-20 15.5-29.5T47 0q21 0 39.5 6.5T114 20q-12 2-23 6.5T80 39q0 10 12.5 16t21.5 8L74 80v196l31-17 13 23-29 16q32 14 32 52zm294 0q0-37 31-52l-28-16 14-23 31 17V90q0-3-3-6t-16-8l-3-1q-7-3-17-10.5T284 39q0-20 15.5-29.5T341 0q21 0 39.5 6.5T408 20q-12 2-23 6.5T374 39q0 10 12.5 16t21.5 8l-40 17v196l31-17 13 23-29 16q32 14 32 52zm-147 0q0-37 31-52l-28-16 14-23 31 17V90q0-3-2.5-6T167 76l-3-1q-7-3-17-10.5T137 39q0-20 16-29.5T194 0q21 0 39.5 6.5T261 20q-12 2-23 6.5T227 39q0 10 12.5 16t21.5 8l-40 17v196l31-17 13 23-29 16q32 14 32 52zm161-13h102q0-6-8.5-18T362 297l36-20-2-4-40 22V74l25-11q-8-2-14.5-9T360 39q0-8 7-12.5t13-5.5q-5-3-14-6t-25-3q-20 0-32 6.5T297 39q0 11 6.5 16.5T319 64l4 1q16 5 19 9.5t3 9.5v211l-41-22-2 4 36 20q-22 10-30.5 22t-8.5 18zm-147 0h102q0-6-8.5-18T215 297l36-20-2-4-40 22V74l25-11q-7-2-14-9t-7-15q0-8 7-12.5t13-5.5q-4-3-13.5-6T194 12q-20 0-32 6.5T150 39q0 11 6.5 16.5T172 64l4 1q17 5 19.5 9.5T198 84v211l-41-22-2 4 36 20q-22 10-30.5 22t-8.5 18zM5 337h102q0-6-8.5-18T68 297l36-20-2-4-40 22V74l25-11q-8-2-14.5-9T66 39q0-8 7-12.5T86 21q-5-3-14-6t-25-3q-20 0-32 6.5T3 39q0 11 6.5 16.5T25 64l4 1q16 5 19 9.5t3 9.5v211l-41-22-2 4 36 20q-22 10-30.5 22T5 337zm280 382q0-39 31-52l-28-16 14-23 31 17V459q0-3-3-6t-16-8l-3-2q-7-2-17-9.5T284 408q0-19 15.5-29.5T341 368q21 0 39.5 7t27.5 14q-12 2-23 6.5T374 407q0 10 12.5 16t21.5 8l-40 17v197l31-17 13 23-29 16q32 13 32 52zm-147 0q0-39 31-52l-28-16 14-23 31 17V459q0-3-2.5-6t-16.5-8l-3-2q-7-2-17-9.5T137 408q0-19 16-29.5t41-10.5q21 0 39.5 7t27.5 14q-12 2-23 6.5T227 407q0 10 12.5 16t21.5 8l-40 17v197l31-17 13 23-29 16q32 13 32 52zm-147 0q0-39 31-52l-28-16 14-23 31 17V459q0-3-3-6t-16-8l-3-2q-7-2-17-9.5T-10 408q0-19 15.5-29.5T47 368q21 0 39.5 7t27.5 14q-12 2-23 6.5T80 407q0 10 12.5 16t21.5 8l-40 17v197l31-17 13 23-29 16q32 13 32 52zm14-13h102q0-7-8.5-18.5T68 666l36-20-2-4-40 22V442l25-11q-8-2-14.5-8.5T66 407q0-8 7-12t13-5q-5-3-14-6t-25-3q-20 0-32 7T3 408q0 11 6.5 16.5T25 433l4 1q16 5 19 9t3 9v212l-41-22-2 4 36 20q-22 10-30.5 21.5T5 706zm294 0h102q0-7-8.5-18.5T362 666l36-20-2-4-40 22V442l25-11q-8-2-14.5-8.5T360 407q0-8 7-12t13-5q-5-3-14-6t-25-3q-20 0-32 7t-12 20q0 11 6.5 16.5T319 433l4 1q16 5 19 9t3 9v212l-41-22-2 4 36 20q-22 10-30.5 21.5T299 706zm-147 0h102q0-7-8.5-18.5T215 666l36-20-2-4-40 22V442l25-11q-7-2-14-8.5t-7-15.5q0-8 7-12t13-5q-4-3-13.5-6t-25.5-3q-20 0-32 7t-12 20q0 11 6.5 16.5T172 433l4 1q17 5 19.5 9t2.5 9v212l-41-22-2 4 36 20q-22 10-30.5 21.5T152 706zm133 381q0-37 31-52l-28-15 14-23 31 16V827q0-3-3-6t-16-8l-3-1q-7-2-17-9.5T284 776q0-19 15.5-29t41.5-10q21 0 39.5 6.5T408 757q-12 2-23 7t-11 12q0 10 12.5 16t21.5 8l-40 17v196l31-16 13 23-29 15q32 14 32 52zm-294 0q0-37 31-52l-28-15 14-23 31 16V827q0-3-3-6t-16-8l-3-1q-7-2-17-9.5T-10 776q0-19 15.5-29T47 737q21 0 39.5 6.5T114 757q-12 2-23 7t-11 12q0 10 12.5 16t21.5 8l-40 17v196l31-16 13 23-29 15q32 14 32 52zm147 0q0-37 31-52l-28-15 14-23 31 16V827q0-3-2.5-6t-16.5-8l-3-1q-7-2-17-9.5T137 776q0-19 16-29t41-10q21 0 39.5 6.5T261 757q-12 2-23 7t-11 12q0 10 12.5 16t21.5 8l-40 17v196l31-16 13 23-29 15q32 14 32 52zm161-12h102q0-7-8.5-18.5T362 1034l36-19-2-4-40 21V811l25-11q-8-2-14.5-8.5T360 776q0-7 7-12t13-6q-5-3-14-5.5t-25-2.5q-20 0-32 6.5T297 776q0 11 6.5 16.5T319 802l4 1q16 4 19 8.5t3 9.5v211l-41-21-2 4 36 19q-22 11-30.5 22.5T299 1075zm-147 0h102q0-7-8.5-18.5T215 1034l36-19-2-4-40 21V811l25-11q-7-2-14-8.5t-7-15.5q0-7 7-12t13-6q-4-3-13.5-5.5T194 750q-20 0-32 6.5T150 776q0 11 6.5 16.5T172 802l4 1q17 4 19.5 8.5t2.5 9.5v211l-41-21-2 4 36 19q-22 11-30.5 22.5T152 1075zm-147 0h102q0-7-8.5-18.5T68 1034l36-19-2-4-40 21V811l25-11q-8-2-14.5-8.5T66 776q0-7 7-12t13-6q-5-3-14-5.5T47 750q-20 0-32 6.5T3 776q0 11 6.5 16.5T25 802l4 1q16 4 19 8.5t3 9.5v211l-41-21-2 4 36 19q-22 11-30.5 22.5T5 1075z" fill="currentColor"/></svg>