<svg xmlns="http://www.w3.org/2000/svg" viewBox="0 0 193 614.7"><path d="M193 40.2c-30.7 25.5-55.5 65-74.5 118.5 0 24.2 4.9 89.9 14.6 156.9 9.7 66.9 12.2 141.2 7.4 222.8-12.1 55.3-26.8 80.5-44 75.8-17.3 4.8-32-20.5-44-75.8-5.2-81.6-2.9-155.9 6.8-222.8s14.6-132.7 14.6-156.9C55.3 105.2 30.7 65.6 0 40.2 20.3 13.4 52.5 0 96.5 0c43.6 0 75.8 13.4 96.5 40.2zm-37.5 0c-16.4-8.6-36.1-13.8-58.9-15.5-23 2.1-42.8 7.3-59.7 15.5 21.6 25.5 41.5 60.2 59.6 104.3 17.7-44.1 37.4-78.9 59-104.3zm-59 151.5C82.7 316.1 75.6 417.2 75.1 454.8c.4 63 7.6 104.9 21.4 125.7 13.4-20.7 20.5-62.6 21.4-125.7-.9-37.1-8-138.3-21.4-263.1z"/></svg>