<svg xmlns="http://www.w3.org/2000/svg" viewBox="-10 0 451 1096"><path d="M215 1096q-27 0-50.5-38t-38-107Q112 882 112 790q0-45 5.5-103.5T131 566q8-62 17-119t16.5-99.5Q172 305 175 286q-14-5-31-17t-24-30q-10-22-24.5-52.5T67 129q-11-24-33.5-30.5T-10 92V56Q8 38 65 19T215 0q94 0 151 19t75 37v36q-21 0-43.5 6.5T363 129q-13 27-27.5 57.5T311 239q-8 18-25 30t-30 17q3 19 10.5 61.5t16 99.5q8.5 57 16.5 119t13.5 120.5Q318 745 318 790q0 92-14.5 161t-38 107q-23.5 38-50.5 38zm0-20q18 0 37.5-35.5t33-100Q299 876 299 790q0-45-6-110t-16-138.5Q267 468 255 397t-22-128q14 0 32.5-9t27.5-29q10-22 25-53t28-57q13-28 35-37t40-9V64q-5-4-26-15t-64.5-20.5Q287 19 215 19t-115 9.5Q57 38 36 49T9 64v11q19 0 40.5 9T85 121q14 26 28.5 57t24.5 53q8 20 27 29t33 9q-11 57-22 128t-21 144.5Q145 615 138.5 680T132 790q0 86 13.5 150.5t32.5 100q19 35.5 37 35.5z" fill="currentColor"/></svg>