<svg xmlns="http://www.w3.org/2000/svg" viewBox="-10 0 937 1096"><path d="M455 1096q-26 0-50-38t-38.5-107Q352 882 352 790q0-51 7-120t16.5-140q9.5-71 19.5-130-52 7-104 12t-94 5q-47 0-69-19.5T106 346q0-17 4-38t8-34l-22.5 2.5L65 278q-36 0-55.5-13.5T-10 231q0-11 7.5-31T29 164q24-16 72-16 43 0 72.5 17.5T203 220q0 17-6.5 30t-13 25.5Q177 288 177 303q0 12 7.5 24t21.5 12h14l21.5-2q21.5-2 42.5-6 23-4 56-11t71-15l4-19q-14-5-31-17t-24-30q-10-22-24.5-52.5T307 129q-11-24-34-30.5T230 92V56q17-18 74-37T455 0q94 0 151 19t75 37v36q-21 0-43.5 6.5T603 129q-13 27-27.5 57.5T550 239q-7 18-24 30t-30 17q0 3 1 5 39-6 73-6 60 0 116.5 10.5t102 37q45.5 26.5 72.5 74T888 528q0 46-8.5 86.5T862 698q-9 43-9 99 0 52 10 86t23 55q13 21 21 34 13 22 16.5 35t3.5 23q0 18-17 18-8 0-29.5-20t-46-55.5Q810 937 792.5 892T775 797q0-28 8-72.5t15.5-92.5q7.5-48 7.5-87 0-58-19-94.5t-68-53Q670 381 580 381q-13 0-30 1.5t-37 3.5q7 43 15 96.5t14.5 109q6.5 55.5 11 107T558 790q0 92-14.5 161T505 1058q-24 38-50 38zm0-20q18 0 37.5-35.5t33-100Q539 876 539 790q0-45-6.5-110T516 541.5Q506 468 494.5 397T472 269q14 0 33-9t28-29q10-22 25-53t28-57q13-28 34.5-37t40.5-9V64q-5-4-26-15t-64.5-20.5Q527 19 455 19t-115.5 9.5Q296 38 275 49t-26 15v11q19 0 40.5 9t35.5 37q13 26 27.5 57t25.5 53q8 20 27 29t33 9q-11 57-22 128t-21 144.5Q385 615 378.5 680T372 790q0 86 13.5 150.5t32.5 100q19 35.5 37 35.5zM201 397q46 0 97-5t101-12l8-54q-36 7-67.5 14T287 351q-28 4-47.5 6t-33.5 2q-24 0-36-16.5T158 303q0-19 6.5-32.5T177 245q6-12 6-25 0-26-24-39t-58-13q-40 0-59.5 12.5t-26 27.5Q9 223 9 231t17 18q17 10 55 10 14 0 32.5-3.5T144 249q-6 25-12 54.5t-6 39.5q0 54 75 54zM93 219q-14 0-17-12v-2q0-7 5.5-12t13.5-5q7 0 12 4t5 11q0 6-5.5 11T93 219zm814 811q2 0 2-3 0-5-2-15.5T891 979q-6-10-20-32.5t-25.5-59Q834 851 834 797q0-58 8.5-103t17.5-85q9-40 9-81 0-70-26.5-114t-70-68Q729 322 676 313t-106-9q-33 0-70 6 4 21 9 56 20-1 37.5-2.5T580 362q85 0 134.5 14t73.5 39.5q24 25.5 31 58.5t7 71q0 42-7.5 90.5t-15.5 92q-8 43.5-8 69.5 0 47 16.5 89t38 74.5q21.5 32.5 38.5 51t19 18.5z" fill="currentColor"/></svg>