<svg xmlns="http://www.w3.org/2000/svg" viewBox="0 0 363.4 594.5"><path d="M184.7 83c9.7-22.4 21.1-37.1 40.5-50.9 2.9-1.1 2.9-2.3 0-3.4-31-14.3-55.3-14.3-86.2 0-2.9 1.1-2.9 2.3 0 3.4 20.1 13.8 31.1 28.5 39.7 50.9h6zm61.2 491l-11.3-128.5c-16.6 36.1-34.4 37.8-53.3 5.2-17.2 31-34.7 29.5-52.4-4.3L117.5 574h128.4zM86.8 173.5c0-26.9 6.9-40.2 20.6-59.7 1.7-2.3 1.1-3.4-1.7-3.4-33.8-2.3-52.8 5.6-76.9 30.2-1.7 1.7-1.4 2.6.9 2.6 24.1 5.7 34.8 12.3 52 32.9l5.1-2.6zm194.9 2.6c17.2-20.6 27.6-26.9 51.1-32.1 2.9 0 3.4-.9 1.7-2.6-24.1-25.2-43.1-33.1-76.9-30.2-2.9 0-3.4.9-1.7 2.6 13.8 20.1 20.6 33.6 20.6 60.6l5.2 1.7zm-86.8-59.6c-3.4 45.3-3.2 147.9.9 307.8 4.7 9.5 7.4 18.2 17.3 12-5.2-8-9.9-26.9-7.6-56.7 10.9-63.1 22.8-110.6 35.7-142.7s17.3-49.9 13.3-53.3c1.7-28.1-3-52.7-20.8-73.9-5.7-7.5-4-12 5.2-13.8 49.9-9.2 90.3 6.3 121.2 46.4 5.7 7.5 4 12-5.2 13.8-27.5 4-50.7 17.8-69.6 41.3-3.4-1.1-11.3 11.6-23.6 38.3s-24.5 76.1-36.5 148.3c-1.1 31 1.4 41.8 7.7 32.7 8-13.8 12.8-16.6 14.2-8.6 1.4 8 3 18.6 4.7 31.8l13.8 154.8H97l13.8-154.8c1.7-13.2 3.3-23.8 4.7-31.8 1.4-8 6.4-5.2 15 8.6 8.6 9.2 10.9-1.7 6.9-32.7-11.5-72.8-23.4-122.5-35.7-149.2-12.3-26.7-20.5-39.1-24.5-37.4-18.3-24.2-41.2-38.2-68.7-42.2-9.2-1.7-10.9-6-5.2-12.9 31-40.1 71.4-55.9 121.2-47.3 8.6 1.7 10.3 6.3 5.2 13.8-17.8 21.8-25.8 46.4-24.1 73.9-4 4 3.6 22.1 16.2 54.2s24.6 79.4 36.1 141.9c4.6 30.4.3 47.2-8.5 57.6 6.4 3.3 11.8 8.6 18.2-12 4-159.9 4-262.5 0-307.8-4-8.6-2.7-15.8-2.7-21.5-7.5-26.9-23.5-47.3-48.1-61-7.5-4.6-7.5-9.5 0-14.6 43.6-25.8 87.1-25.8 130.7 0 7.5 5.2 7.5 10 0 14.6-24.6 13.8-41.3 34.1-49.9 61 0 5.6 1.3 12.8-2.7 21.4z"/><path d="M214.6 434.5c3.5-7.1 39.6-63.2 44.1-70.6 6.7-9.3 15.9-26.3 23.9-27.4 14.4-.2 30.4 74.6 37.6 86.1 16.7 21.9 13.1 34.6 12.9 46.3 1.4 15.3-1.8 39.1-14.9 41.6-13.3 1.9-21.8-22-26.9-35-2.8-7.7-12.4-22.9.8-47.9 2.5-9.9-7.1-35.8-9.6-43-1.9-14.5-13.6-1.2-17.2 6.4-3.9 7.3-28.9 46.8-33.3 54.7-.6 10.1-23.2-3-17.4-11.2zm101.5 61.6c5.7-.1 5.5-31.1 3.1-48-7.2-12.2-8.9-19.9-13-40-6.4-20.2-10.5-24.6-11.5-23.2-1.8-1.1 1.1 15.6 4 25.1 3.7 19.7 2.2 28.9-1 42.7 3.5 21.6 13 44.6 18.4 43.4zM148.3 434.3c-3.5-7.1-39.6-63.2-44.1-70.6-6.7-9.3-15.9-26.3-23.9-27.4-14.3 0-30.3 74.7-37.5 86.2-16.7 21.9-13.1 34.6-12.9 46.3-1.4 15.3 1.8 39.1 14.9 41.6 13.3 1.9 21.8-22 26.9-35 2.8-7.7 12.4-22.9-.8-47.9-2.5-9.9 7.1-35.8 9.6-43 1.9-14.5 13.6-1.2 17.2 6.4 3.9 7.3 28.9 46.8 33.3 54.7.5 10.1 23.1-3 17.3-11.3zM46.8 496c-5.7-.1-5.5-31.1-3.1-48 7.2-12.2 8.9-19.9 13-40 3.1-8.3 8.1-24.7 11.5-23.8 2.5.6-1.6 14.9-4 25.6-3.7 19.7-2.2 28.9 1 42.7-3.5 21.7-13 44.7-18.4 43.5z"/></svg>