<svg xmlns="http://www.w3.org/2000/svg" viewBox="-10 0 571 1103"><path d="M275 1103q-37 0-67.5-18t-48.5-48.5q-18-30.5-18-68.5 0-41 23-74.5t59-48.5l-91-141-31 100q4 9 6.5 18.5T110 849q0 30-11 55.5T73.5 946Q59 962 48 962t-22.5-22Q14 918 14 888t11-54.5Q36 809 60 793l56-162 13-2 108 170-105-362q-23-4-39-25.5T67 366q-3-7-6-14.5T54 337q-7-11-25-15t-32-2l-7-29q7-7 36-20t79-26q50-13 81-15t42 0l3 27q-12 4-24.5 15.5T194 302q0 8 .5 15.5T196 333q1 23-1.5 50.5T172 426l82 270V192q-21-9-31-33.5T209 108q-2-8-3-16t-3-15q-4-13-20.5-21T152 46V16q9-5 40-10.5T275 0q52 0 83.5 5.5T399 16l-5 27q-12 1-26.5 9T348 77q-2 7-3.5 15t-2.5 16q-5 22-14 48t-32 36v504l83-270q-20-15-23-42.5t-1-50.5q1-8 1.5-15.5t.5-15.5q0-18-12.5-29.5T320 257l3-27q10-2 42 0t81 15q50 13 78.5 26t36.5 20l-7 29q-14-2-32 2t-25 15q-4 7-7 14.5t-6 14.5q-11 24-26.5 45.5T419 437L313 799l108-170 13 2 56 162q24 16 35 40.5t11 54.5q0 30-11.5 52T502 962q-11 0-25.5-16T451 904.5Q440 879 440 849q0-17 2.5-26.5T449 804l-31-100-91 140q37 15 60 48.5t23 75.5q0 38-18 68.5t-48.5 48.5q-30.5 18-68.5 18zm0-927q18 0 27.5-12t13-28.5Q319 119 322 105q1-8 3-16.5t4-16.5q4-15 20-26.5T379 30v-1q-8-2-31-5.5T275 20q-36 0-63.5 3T172 28v3q11 2 27.5 10.5T222 72q1 8 3 16.5t4 16.5q2 13 6 29.5t13 29q9 12.5 27 12.5zm-4 658h9V196h-9zm131-418q18 4 30-5.5t20.5-25Q461 370 466 358q3-8 7-15.5t8-13.5q10-21 29-25t29-4l1-3q-11-5-37.5-14.5T441 264q-47-12-71-14t-32-2v1q12 7 25 22t13 31v16.5l-1 16.5q-1 14-1.5 31t5.5 31.5q6 14.5 23 18.5zm-253 0q17-4 22.5-18.5T177 366q0-17-1-31-1-8-1.5-16.5t.5-16.5q0-16 12.5-31t24.5-22v-1q-7 0-31 2t-71 14q-35 9-61.5 18.5T11 297l1 3q11 0 29 4t29 25q4 6 8 13.5t7 15.5q6 12 14 27.5t20 25q12 9.5 30 5.5zm147 382l106-362-8-2-98 330zm-42 0v-34l-97-330-8 2zm-19 42q6-2 9-2L126 652 77 794q2 0 5 .5t5 .5l41-122zm80 0l107-167 41 122q2 0 5-.5t5-.5l-49-142-118 185zm187 105q7 0 12-20.5t5-36.5q0-12-5-30.5T499.5 825q-9.5-14-23.5-14-10 0-14 12t-4 26q0 25 8 47t18.5 35.5Q495 945 502 945zm-454 0q7 0 17.5-13.5T84 896q8-22 8-47 0-14-4-26t-14-12q-15 0-24.5 14t-14 32.5Q31 876 31 888q0 16 5 36.5T48 945zm227-36q13-12 24.5-23t22.5-22q-11-4-22.5-7t-24.5-3q-23 0-46 10zm-64 154l64-62 65 62q18-12 30-30l-62-65 62-64q-6-9-13.5-17T340 874l-65 62-64-62q-9 5-16.5 13T180 904l63 64-63 65q14 19 31 30zm169-48q5-11 7.5-22.5T390 968q0-12-2.5-24t-7.5-23l-45 47q12 13 22.5 24.5T380 1015zm-210 0l46-47-46-47q-9 23-9 47 0 26 9 47zm105 68q13 0 24.5-2.5t22.5-7.5l-47-45-46 45q23 10 46 10z" fill="currentColor"/></svg>