<svg xmlns="http://www.w3.org/2000/svg" viewBox="-10 0 571 1103"><path d="M164 1103l54-194h30L132 454q-23-4-39-25t-26-46l-6-14-7-14q-7-11-25-15t-32-2l-7-29q7-7 36-20t79-26q50-13 81-15.5t42 .5l3 27q-12 4-24.5 15T194 319q0 8 .5 16t1.5 16q1 23-1.5 50.5T172 443l82 321V192q-21-9-31-33.5T209 108q-2-8-3-16t-3-15q-4-13-20.5-21T152 46V16q9-5 40-10.5T275 0q52 0 83.5 5.5T399 16l-5 27q-12 1-26.5 9T348 77q-2 7-3.5 15t-2.5 16q-5 22-14 48t-32 36v572l83-321q-20-14-22.5-41.5T355 351q1-8 1.5-16t.5-16q0-18-12.5-29T320 275l3-27q10-3 42-.5t81 15.5q50 13 78.5 26t36.5 20l-7 29q-14-2-32 2t-25 15q-4 7-7 14l-6 14q-11 25-26.5 46T419 454L303 909h30l54 194zm111-927q18 0 27.5-12t13-28.5Q319 119 322 105q1-8 3-16.5t4-16.5q4-15 20-26.5T379 30v-1q-8-2-31-5.5T275 20q-36 0-63.5 3T172 28v3q11 2 27.5 10.5T222 72q1 8 3 16.5t4 16.5q2 13 6 29.5t13 29q9 12.5 27 12.5zm-4 733h9V196h-9zM149 434q17-5 22.5-19t5.5-31q0-17-1-31-1-8-1.5-16.5t.5-16.5q0-16 12.5-31t24.5-23v-1q-7 0-31 2.5T110 282q-35 9-61.5 18.5T11 315l1 3q11 0 29 4t29 24q4 7 8 14.5t7 15.5q6 12 14 27t20 25q12 10 30 6zm253 0q18 4 30-6t20.5-25q8.5-15 13.5-27 3-8 7-15.5t8-14.5q10-20 29-24t29-4l1-3q-11-5-37.5-14.5T441 282q-47-12-71-14.5t-32-2.5v1q12 8 25 23t13 31q1 8 .5 16.5T375 353q-1 14-1.5 31t5.5 31q6 14 23 19zM254 867v-34l-97-382-8 3zm42 0l106-413-8-3-98 382zm-107 216h173l-44-155h-85z" fill="currentColor"/></svg>