<svg xmlns="http://www.w3.org/2000/svg" viewBox="0 0 226.1 596"><path d="M42 0c-8.6 0-17.1.7-25.4 1.7-12.1 3.1-4.7 17.7 6.6 15.7 21.3 2.5 47.6 3.8 63.7 15.9 21.4 23.3 11.8 71.7 14.3 94.6.2 1.2.2 92.8.2 139.2-29.8-14.3-65.2-18.3-97.1-11.9-12.5 6.6 5.4 15.3 13.7 13.1 31.2 3.4 66.6 11.7 82.4 40.7 5.2 17.4-17.5-3-26.9-1.6-22.5-4.9-46.9-5.7-69.3-1.9-11.9 7.8 5.6 15 13.8 13.3 31.8 3.8 67 12.5 82.4 41.5.1 20.8.1 19.7.3 23.8-24.3 2.3-45.6 12.4-63.9 30.3-20.9 20.5-31.4 45.7-31.4 75.4 0 28.6 10.2 53.4 30.5 74.5S81.4 596 111.6 596c29 0 53.9-10.4 74.8-31.1s31.4-45.8 31.4-75.1c0-29-10.4-53.9-31.1-74.8-17.6-17.8-38.4-28-62.3-30.7-.4-6.4-.6-4 2-23.6 7.7-31.8 62.9-36.7 97.2-44.6 8.6-10.1-12.1-12.9-20.5-11.9-26.6-2-54.3 1.9-78.2 14.2-.8-19.2 18.1-30.2 31.6-37.9 21.4-9.2 44.9-10.1 67.2-15 9-7.8-8.2-14.2-16.4-12.4-28.3-2.7-57.4 1.4-82.9 14 .4-72.4 1.6-142.6-.5-211.1-1.7-21.2-13.9-40.6-34.4-47C74.7 2.4 58.3 0 42 0zm69.3 401.1c18.9 0 37.7 6.9 56.4 20.5H54.9c16.9-13.3 35.1-20.1 54.6-20.5h1.8zM41 435.5h139.4c6.4 6.8 11.1 15.3 13.9 25.3H27.1c3.2-10 7.9-18.4 13.9-25.3zm-16.3 41h173.2c1.6 8.4 1.8 16.9.6 25.3H24.1c-1.2-8.4-1-16.8.6-25.3zm3 41.1h167.1c-2.4 9.3-7 17.7-13.9 25.3H41.6c-6.8-6.8-11.5-15.3-13.9-25.3zm27.8 41h110.4c-14.9 13.3-33.6 19.7-56.1 19.3s-40.7-6.8-54.3-19.3z"/></svg>