<svg xmlns="http://www.w3.org/2000/svg" viewBox="-10 0 571 1103"><path d="M275 1103q-37 0-67.5-18t-48.5-48.5q-18-30.5-18-68.5 0-32 14.5-60t39-47q24.5-19 54.5-24L132 437q-23-4-39-25.5T67 366q-3-7-6-14.5T54 337q-7-11-25-15t-32-2l-7-29q7-7 36-20t79-26q50-13 81-15t42 0l3 27q-12 4-24.5 15.5T194 302q0 8 .5 15.5T196 333q1 23-1.5 50.5T172 426l82 270V192q-21-9-31-33.5T209 108q-2-8-3-16t-3-15q-4-13-20.5-21T152 46V16q9-5 40-10.5T275 0q52 0 83.5 5.5T399 16l-5 27q-12 1-26.5 9T348 77q-2 7-3.5 15t-2.5 16q-5 22-14 48t-32 36v504l83-270q-20-15-23-42.5t-1-50.5q1-8 1.5-15.5t.5-15.5q0-18-12.5-29.5T320 257l3-27q10-2 42 0t81 15q50 13 78.5 26t36.5 20l-7 29q-14-2-32 2t-25 15q-4 7-7 14.5t-6 14.5q-11 24-26.5 45.5T419 437L302 837q29 5 54 24t39.5 47q14.5 28 14.5 60 0 38-18 68.5t-48.5 48.5q-30.5 18-68.5 18zm0-927q18 0 27.5-12t13-28.5Q319 119 322 105q1-8 3-16.5t4-16.5q4-15 20-26.5T379 30v-1q-8-2-31-5.5T275 20q-36 0-63.5 3T172 28v3q11 2 27.5 10.5T222 72q1 8 3 16.5t4 16.5q2 13 6 29.5t13 29q9 12.5 27 12.5zm-4 658h9V196h-9zM149 416q17-4 22.5-18.5T177 366q0-17-1-31-1-8-1.5-16.5t.5-16.5q0-16 12.5-31t24.5-22v-1q-7 0-31 2t-71 14q-35 9-61.5 18.5T11 297l1 3q11 0 29 4t29 25q4 6 8 13.5t7 15.5q6 12 14 27.5t20 25q12 9.5 30 5.5zm253 0q18 4 30-5.5t20.5-25Q461 370 466 358q3-8 7-15.5t8-13.5q10-21 29-25t29-4l1-3q-11-5-37.5-14.5T441 264q-47-12-71-14t-32-2v1q12 7 25 22t13 31q1 8 .5 16.5T375 335q-1 14-1.5 31t5.5 31.5q6 14.5 23 18.5zM254 798v-34l-97-330-8 2zm42 0l106-362-8-2-98 330zm-21 111l47-45q-11-4-22.5-7t-24.5-3q-23 0-46 10zm-64 154l64-62 65 62q17-11 31-30l-63-65 63-64q-7-9-14.5-17T340 874l-65 62-64-62q-9 5-16.5 13T180 904l63 64-63 65q14 19 31 30zm-41-48l46-47-46-47q-9 23-9 47 0 26 9 47zm210 0q10-20 10-47 0-26-10-47l-45 47zm-105 68q13 0 24.5-2.5t22.5-7.5l-47-45-46 45q23 10 46 10z" fill="currentColor"/></svg>