<svg xmlns="http://www.w3.org/2000/svg" viewBox="-10 0 418 1004"><path d="M170 1004l-36-18q-4 2-12 6.5t-15 8.5H-10v-39q20-4 43.5-9.5T76 942q19-5 25-10 10-7 19-15.5t10-9.5l90-199-67-18L245 0l102 41q27 11 39 38.5t12 53.5v698q-3 16-6.5 37t-3.5 29q0 8 6.5 37t13.5 55l-41 15-36-18q-4 2-12 6.5t-15 8.5H187v-10zm194-21l20-6q-5-22-10-47.5t-5-32.5q0-9 3-30.5t6-38.5V133q0-20-8.5-43T339 59l-79-31-86 648 101 28q26 7 37.5 20t17.5 24q-1 15-2 37t-1 35q0 23 2 49.5t3 42.5q-7 8-17.5 19T294 949q-9 5-37.5 14T205 978v3h93q3-2 13-7t18-10zm-197 0l18-12q-5-23-5-35 11-19 23.5-41.5t23-41Q237 835 242 828q5-9 15-29.5t19.5-41Q286 737 289 730q-5-3-14.5-7T239 713l-90 199q-6 8-16.5 19T112 949q-6 4-23.5 9T49 968.5Q27 974 8 978v3h93q3-2 13-7t18-10zm36-24q17-4 43.5-12t36.5-15q8-5 16.5-13t13.5-13q-1-7-2.5-23.5t-2.5-34q-1-17.5-1-28.5 0-16 1-36.5t1-27.5q-1-5-6-11-5 12-13.5 30.5t-17.5 36q-9 17.5-14 25.5-4 7-12 21.5T228.5 890q-9.5 17-17.5 31t-11 19q0 10 3 19z" fill="currentColor"/></svg>