<svg xmlns="http://www.w3.org/2000/svg" viewBox="0 0 431.4 594.6"><path d="M31.7 319c18.6 9.9 44.1 33.1 76.3 69.5h.6V45.3c-4.6-9.1-15.7-13.7-33.5-13.7L31.7 319zM405.9 55.9c-.4-12.8-9.9-21.9-28.5-27.3-18.6 5.4-28.1 14.5-28.5 27.3-3.7 27.7-4.8 56.7-3.1 86.9 12.8 166.7 19.7 266.4 20.5 299.1.4 46.3-4.1 89.6-13.7 129.7h49.6c-9.5-40.1-14.1-83.4-13.7-129.7.4-32.7 6.6-132.4 18.6-299.1 2.5-30.2 2.1-59.2-1.2-86.9zm-83.2 30.4l-156.4 85 158.9 17.4c-2.9-37.2-3.7-71.4-2.5-102.4zM134 87.5v73.2l149.6-73.2H134zm190-24.8l1.9-13.7c5.3-29.3 22.5-44 51.4-44 30.6 0 47.6 14.7 50.9 44.1 3.7 32.3 4.1 63.5 1.2 93.7-12.4 166.7-18.4 266.4-18 299.1-.8 46.3 4.6 92.3 16.1 137.8 1.2 9.5-3.1 14.5-13 14.9H340c-9.9 0-14.3-5-13-14.9 11.2-45.5 17-87.5 17.4-126H134.7v140.9H96.8V448.7c0-29-32.3-65.2-96.8-108.6v-2.5L51.5 0c46.3-.8 74.1 11.8 83.2 37.9v24.8H324zm10.5 247.6l-5.6-95-169.4 95h175zm-36-104.2l-163.8-17.4v110.5l163.8-93.1zm45.3 224l-5.6-93.7-177.5 93.7h183.1zm-53.4-95.6H134.7V414l155.7-79.5z"/></svg>