<svg xmlns="http://www.w3.org/2000/svg" viewBox="-10 0 791 1005"><path d="M157 1005V877q0-38-11-66t-46-37l-110-28L81 4l103 41q21 9 33 29.5t16 42.5h323q17-53 44-85t55-32q30 0 58 35t46 94.5Q777 189 777 263q0 44-8 108.5T749 508l-23 138q-12 67-20.5 118t-8.5 70q0 37 11 62.5t27 43q16 17.5 32 34.5l14 16v15H530v-17l14-14q15-17 31-34.5t27-43q11-25.5 11-62.5 0-10-3-34H234v205zm403-20h190q-25-25-48.5-58.5T678 834q0-21 8.5-73.5T706 643l23-138 20-136q20-136 8-106 0-68-15-123.5T703.5 52Q680 20 655 20q-24 0-47.5 32t-39 87.5Q553 195 553 263q0 42 8 106t20 136q12 72 24 138 11 65 19.5 117.5T633 834q0 59-24 92.5T560 985zm-383 3h37V137q0-20-8.5-42T175 63L96 32 10 731l102 28q29 8 42.5 26.5t18 40.5q4.5 22 4.5 42zm57-651l296-200H234zm24 7h281q-2-23-3.5-43.5T534 263q0-62 12-113zm-24 210l283-190H234zm22 9h314q-7-50-15-99t-13-93zm-22 211l312-192H234zm24 7h350q-5-26-10.5-61T585 646l-10-59z" fill="currentColor"/></svg>