<svg xmlns="http://www.w3.org/2000/svg" viewBox="-10 0 932 1141"><path d="M376 1141q5-18 10.5-40t9-41.5q3.5-19.5 3.5-30.5t-.5-21q-.5-10-2.5-20-87 38-167.5 64.5T94 1079q-29 0-55.5-7.5T-2 1056v-35q17 2 38.5 4.5T76 1028q11 0 24-2t25-4q-23-20-51.5-52.5t-52-72Q-2 858-10 814h37q10 26 31.5 54t47 54q25.5 26 50.5 46t43 29q35-12 68-26.5t68-31.5l13-6q-29-13-62-37t-61-55l18-29q22 14 42.5 24.5T327 857q-30-31-62.5-50.5T210 774l145-672q2-8 6.5-24.5t15-34.5Q387 25 407 12.5T458 0q31 0 51 12.5T539.5 43q10.5 18 15 34.5T561 102l146 672q-21 12-51.5 30.5t-60.5 46Q565 878 544 917q23 2 46 3t45 1q26 0 64.5-2t79.5-5.5q41-3.5 75.5-7T907 901l15 87-268 2q-36 1-71 9t-66 20v10q0 11 4 30.5t9.5 41.5q5.5 22 10.5 40zm146-227q19-40 48.5-68t60-47q30.5-19 53.5-34L542 105q-1-6-5-20t-13-29q-9-15-25-25.5T458 20q-25 0-41 10.5T392.5 56q-8.5 15-12 29t-5.5 20L233 765q28 18 67 43.5t70 66.5q40 16 78 25.5t74 13.5zM94 1060q41 0 98-16t123-43q66-27 134-58l97 15 1 17q-26 8-50 21.5t-42 27.5q38-18 89-35t110-18l245-3-8-46q-20 2-53 5t-70.5 6q-37.5 3-72.5 5t-60 2q-59 0-120.5-7.5t-127.5-30Q321 880 249 837l-1 1q29 32 70 55t81 37l-55 27q-37 17-70.5 32t-76.5 28q-18-9-43.5-28T101 945q-27-25-50-53t-35-53q11 39 39 76.5t58.5 67.5q30.5 30 51.5 47-17 6-44.5 11.5T76 1047q-33 0-59-3 12 6 32.5 11t44.5 5zm308 61h112q-5-22-11-50.5t-6-41.5v-2q-28 12-51 24l-15-31q16-13 34.5-25t45.5-24l-60-7-36 16q2 11 3 23.5t1 25.5q0 13-6 41.5t-11 50.5z" fill="currentColor"/></svg>