<svg xmlns="http://www.w3.org/2000/svg" viewBox="0 0 530.9 595.3"><path d="M292 0c-16.3 0-30.2 10-41.9 23.5-36.7 46.3-55 105.5-75.4 160.3-19.5 57.5-44.7 121.1-45.6 182.4 11.8 51.9 73.1 48.9 100.4 88.3 3.2 9.9 4.9 20.8 5.4 32.2-8.4.1-16.4.2-23.3.3-48.2 2.1-96-11.8-144.1-6.5-9.8 4.3-13.8 16.7-19.2 25.7 12.3-1.8 16.7-10.7 31.6-10.3 27.5.5 54.7 4.7 82.1 7.4-17.7 31-65.9 40.7-97.8 38.4-30.2-2.2-40.1-38.6-47.9-64.3l-.4.1c-5.3 1.2-10.6 2.5-15.9 3.7 6.1 39.4 23.9 73.8 65 82.7 50.4 8.2 95.4-12.3 129.2-49 11.9-2.6 27.8-1.2 40.3-1.3-1.8 28.4-7.4 57.8-9.5 81.7h134c-1.9-24.5-7.6-53.8-9.5-82.3 12.1-1.3 90 .4 86.9 4.2-12.1 14.6-24 29.5-36.6 43.8l25.5 15.3c13.8-14.5 24.3-33 41.3-43.9 20-9.5 42.7-8.4 64.3-10.5v-36.5c-41.4.1-113.4.2-181.8.4.6-11 2.2-21.6 5.4-31.4 24.4-37.7 92.4-38.8 100.4-88.3-2.6-61.6-24.3-125-45.6-182.4-21.3-54.8-38-113.7-75.4-160.3C322.2 10 308.3 0 292 0zm0 19.8c8 0 17.2 5.4 27 16.7 34.8 44.7 52.2 101.8 71.8 154.3 18.5 54.7 42.9 115.9 44.3 174.3-20 39.8-74.3 42.5-98.7 81.3-4.7 13-6.9 26.2-7.3 39.5-26.6.1-52 .3-74.3.5-.5-13.1-2.6-26.4-7.1-40-17.6-43.3-82.3-38.9-98.7-81.3 3.4-59 23.9-119.1 44.3-174.3 20.9-52.5 36-109.5 71.8-154.3 9.7-11.3 18.9-16.7 26.9-16.7zm37.9 493.3c1.8 19.5 5.6 39.1 8.2 58.4h-92.4c2.7-19.9 6.4-39 8.1-58 23.2-.2 49.9-.4 76.1-.4z"/></svg>