<svg xmlns="http://www.w3.org/2000/svg" viewBox="-10 0 1250.5 1141"><path d="M527 1141q4-17 11-43t10-46q-13 2-25.5 4t-24.5 4q-35 4-71.5 9t-72.5 5q-39 0-62.5-6t-39-17.5Q237 1039 222 1021l-37-45q-7-9-17-20.5T149 944q-4 0-9 1t-9 2q-9 2-21 4.5T84 954q-37 0-65.5-16T-10 894q0-20 19.5-43T66 817l-67-65q-10-8-5-21t19-13q9 0 17 8l84 82 85-82q9-8 18-8 14 0 18.5 13t-3.5 21l-69 65q29 11 47.5 28t24.5 26l32 41q9 13 22.5 25.5T322 950q23 0 53-9.5t71-23.5q12-3 29-8t37-10q-21-33-49.5-57T407 801.5Q380 785 361 774l145-672q2-8 6.5-24.5T528 43q11-18 30-30.5T609 0q32 0 51.5 12.5t30 30.5Q701 61 706 77.5t6 24.5l146 672q-21 12-51 30.5t-60 46Q717 878 696 917l42 18q21 9 62.5 25t98 28.5Q955 1001 1023 1001q40 0 70.5-1.5t59-4.5q28.5-3 65.5-9 12-2 18 7t4 20q-2 11-13 17-52 26-105 35t-105 9q-51 0-109-5.5T796 1057q-35-4-68-7.5t-58-4.5q2 19 9 48t13 48zm148-231q20-38 49-65t58.5-46q29.5-19 52.5-34L693 105q-2-6-5.5-20T675 56q-9-15-24.5-25.5T609 20q-34 0-51 17.5t-23.5 38Q528 96 526 105L384 765q21 13 48 30.5t54 42q27 24.5 48 57.5 11-2 21-3t20-1q26 0 51 5.5t49 13.5zm-530-98l69-66q6-6 6-9t-3-3q-4 0-8 5l-73 71zm-60 0l8-1-72-72q-4-5-8-5-3 0-3 3t6 9zm269 242q35 0 70-4.5t71-10.5q36-5 72.5-9.5t76.5-4.5q29 0 69 3.5t84 8.5q54 6 112.5 11.5t107.5 5.5q46 0 97.5-10t95.5-28q9-4 8-7t-8-1q-47 8-88 10.5t-99 2.5q-66 0-123.5-12.5t-101-28.5Q755 964 732 954q-35-15-76.5-29.5T575 910q-33 0-68 10t-56 17q-40 13-72 23t-57 10q-26 0-42-15t-27-29l-31-42q-5-6-18.5-19.5T168 840q-22-11-52-11-47 0-77 22T9 894q0 19 23 29.5T86 934q14 0 23.5-2t17.5-3q6-1 11.5-2.5T149 925q16 0 28.5 13.5T198 962l37 46q16 20 41 33t78 13zM108 874q-15 0-15-15t15-15q5 0 9.5 4.5T122 859q0 6-4.5 10.5T108 874zm445 247h113q-5-15-10-38t-7-39h-5q-19 0-38 1.5t-38 3.5q-2 17-6.5 38t-8.5 34z" fill="currentColor"/></svg>