<svg xmlns="http://www.w3.org/2000/svg" viewBox="0 0 466.1 484.2"><path d="M466.1 458.7l-23.4 25.4c-90.2-30.4-146.4-50.9-168.8-61.6-25.4-11.6-64.4-39-116.9-82C104.6 297.4 52.2 207.8 0 71.7l123.9 52.9c-4 46.9 4.1 95 24.4 144.3s50.3 85.4 90.1 108.1c-37.5-63.4-65-133.5-82.4-210.3L108.5 0 235 81.7c-10.7 37.1-17 73.9-18.8 110.5 0 21 1.6 47.5 4.7 79.7 3.1 32.1 13.4 59.6 30.8 82.4 17.4 22.8 44.4 44.9 81 66.3-55.4-67.9-85.9-165.2-91.7-292l107.1 95.8c-19.2 34.4-30.4 72.1-33.5 113.2 1.3 21 6.9 37.9 16.7 50.9 12.5 19.6 35.9 36.6 70.3 50.9 32.3 10.2 53.8 16.6 64.5 19.3zm-142-230.3l-60.9-57.6c7.1 47.3 17.6 92.9 31.5 136.6l29.4-79zM206.9 87.1l-65.6-43.5c17.9 62.5 36.2 123.2 54.9 182.1.9-59 4.5-105.2 10.7-138.6zM97.8 142.6l-58.3-30.8c21.9 59.8 51.8 116.3 89.7 169.4-20.9-59.8-31.4-106-31.4-138.6z"/></svg>