<svg xmlns="http://www.w3.org/2000/svg" viewBox="-10 0 716 820"><path d="M696 820q-53-4-122-21t-143-46.5Q357 723 289 680t-119-99q-46-51-65.5-95T80 410.5Q75 379 74 366q-6-16-12-36.5T49 287q-10-31-21-65.5t-21-66Q-3 124-10 104l24-10q24 40 65.5 81t92.5 69q-13 20-27.5 55T130 367q0 45 24 94t59 87q26 28 54.5 51t55.5 41q-38-47-60.5-96.5T228 447q-15-59-18-109t-3-79v-11l-1-9v1q-7-33-15.5-71T172 95q-5-20-11-44.5T151 9l25-9q23 40 68 80t91 68q-28 28-50.5 68.5T262 302q0 51 11.5 103.5T307 511q28 71 82.5 125.5T500 717q-64-60-91-124.5T373 455q-7-26-16.5-60.5t-20-71q-10.5-36.5-21-70T298 197l24-10q23 43 62.5 76.5T474 327q-13 19-28.5 53.5T429 449q-2 53 21 104t49 85q35 46 65.5 71.5T629 750q34 15 77 30zm-15-21l2-6q-40-13-72-28.5t-62.5-42Q518 696 483 650q-18-25-35-58t-28-70q-11-37-10-74 1-28 13-61t23-54q-35-21-64-44.5T331 237q10 33 21.5 71.5t22 76Q385 422 392 451q7 53 22.5 101.5t49.5 95q34 46.5 95 94.5l-8 16q-52-16-103-49t-93-81q-42-48-67-109-22-54-33.5-108.5T243 302q0-42 18-79t44-71q-34-22-68.5-49.5T177 38q3 13 6.5 25.5T191 90q9 37 18.5 74.5T226 235v24q1 29 3.5 77.5T247 442q14 58 46 119.5T386 677l-11 16q-36-19-85.5-52.5T198 562q-37-40-62.5-93T110 367q0-29 11.5-62.5T144 250q-36-20-66.5-48T24 145q11 30 22 65.5T67 281q8 22 14.5 43.5T93 362q1 12 6 43t24 74q19 43 61 90 48 53 112 93.5t134 69Q500 760 565.5 777T681 799z" fill="currentColor"/></svg>