<svg xmlns="http://www.w3.org/2000/svg" viewBox="-10 0 975 1001"><path d="M-10 1001v-68h67V828q0-17 6-26t23-9q18 0 23.5 11t5.5 24v105h82v-60q0-38-11-66t-46-37L30 742 121 0l103 41q26 11 38 38.5t12 53.5v800h96V828q0-17 6-26t23-9q18 0 23 11t5 24v105h83v-60q0-38-11.5-66T453 770l-111-28L434 0l102 41q27 11 39 38.5t12 53.5v800h95V828q0-17 6-26t23-9q18 0 23.5 11t5.5 24v105h82v-60q0-38-11-66t-46-37l-110-28L746 0l103 41q26 11 38 38.5t12 53.5v800h66v68zm19-20h936v-28h-66V133q0-20-8.5-42T840 59l-79-31-86 699 102 28q28 8 42 26.5t18.5 40.5q4.5 22 4.5 42v89H720V828q0-5-1.5-10t-7.5-5q-9 0-9 15v125H567V133q0-20-8.5-42T528 59l-79-31-86 699 101 28q29 8 43 26.5t18 40.5q4 22 4 42v89H408V828q0-5-2-10t-7-5q-10 0-10 15v125H254V133q0-20-8.5-42T215 59l-79-31-86 699 102 28q29 8 42.5 26.5t18 40.5q4.5 22 4.5 42v89H95V828q0-5-1.5-10t-7.5-5q-9 0-9 15v125H9z" fill="currentColor"/></svg>