<svg xmlns="http://www.w3.org/2000/svg" viewBox="0 0 555.1 594.4"><path d="M60.4 320.3c18.7 10 44.2 33.2 76.6 69.8h.6V45.5c-4.6-9.6-15.8-14.3-33.6-14.3L60.4 320.3zm180.7.6c18.7 10 44 33.2 76 69.8h1.2V46.1c-5-9.6-16.2-14.3-33.6-14.3l-43.6 289.1zm245.5 234.9V450.5c0-29.1-32.2-65.4-96.6-109v-1.9L441.1.7c46.9-.8 75 11.8 84.1 38v517.1h29.9v38.6H0v-38.6h34.9v-61.1h38.6v61.1h52.3V449.9c0-29.1-32.4-65.4-97.2-109V339L80.4 0c46.9-.8 74.8 11.8 83.5 38v517.1h52.3v-61.7h38.6v62.3h51.7V450.5c0-29.1-32.4-65.4-97.2-109v-1.9L260.4.7c46.9-.8 75 11.8 84.1 38v517.1h51.7v-64.2h38.6v63.6l51.8.6zm-65.4-234.9c18.7 10 44.2 33.2 76.6 69.8h1.2V46.1c-5-9.6-16.4-14.3-34.3-14.3l-43.5 289.1z"/></svg>