<svg xmlns="http://www.w3.org/2000/svg" viewBox="0 0 512.8 594.5"><path d="M450.5 487c-1.3 21.8-.1 38.5 3.5 50.3 3.6 11.7 8.5 20 14.8 24.8 6.3 4.8 10.6 3.4 12.9-4.4 2.3-7.7 1.3-17.4-3.1-28.9-4.5-11.5-13.9-25.5-28.1-41.8zM27 258.3c15.1 8 35.6 26.8 61.6 56.5h.6V36.5c-3.8-8-12.8-11.9-27-11.9L27 258.3zm145.2.6c15.5 8 36 26.6 61.6 55.9h1.3V37.1c-4.2-7.5-13.4-11.3-27.6-11.3l-35.3 233.1zM0 446.8h79.8v-83.6c0-23.5-26.2-52.8-78.5-88v-1.9L42.7 0c38.1-.8 60.7 9.4 67.9 30.8v416.6H225v-84.2c0-23.5-26-52.8-77.9-88L188.5 0c37.7-.4 60.3 9.8 67.9 30.8V448h114.4v-84.8c0-23.5-26-52.8-77.9-88v-1.9L333.6 0c38.1-.4 60.7 9.8 67.9 30.8V448c21.8-.8 40.8 2.3 57.2 9.4 28.1 20.5 45 43.5 50.9 68.8 5.9 25.3 3.8 43.6-6.3 54.7-10.1 11.1-22.5 15.4-37.4 12.9-14.9-2.5-27.4-15.7-37.7-39.6-10.3-23.9-12.7-49.4-7.2-76.7H0v-30.7zm317.9-187.9c15.1 8 35.6 26.6 61.6 55.9h.6V37.1c-3.8-7.5-12.8-11.3-27-11.3l-35.2 233.1z"/></svg>