<svg xmlns="http://www.w3.org/2000/svg" viewBox="-10 0 898 1001"><path d="M827 1001q-28 0-45-15t-24-38q-7-23-7-47 0-26 6-45t17-39H-10v-59h174v-90q0-31-9.5-53.5T116 585l-92-23L100 0l86 33q22 9 32 31.5t10 44.5v649h197v-90q0-31-9.5-53.5T377 585l-92-23L361 0l86 33q22 9 32 31.5t10 44.5v649h198v-90q0-31-10-53.5T639 585l-93-23L623 0l86 33q22 9 32 31.5t10 44.5v649h22q50 0 74.5 25t32.5 62.5q8 37.5 8 72.5 0 48-19.5 65.5T827 1001zm0-20q15 0 28-13t13-50q0-31-6.5-63T834 800.5Q813 778 768 778h-36V112q0-17-7.5-35T699 51l-60-25-71 521 85 23q24 7 35 22.5t14.5 34Q706 645 706 662v116H470V112q0-17-7.5-35T437 51l-60-25-71 521 85 23q24 7 35 22.5t14.5 34Q444 645 444 662v116H209V112q0-17-7.5-35T176 51l-60-25-71 521 85 23q24 7 35.5 22.5t14.5 34q3 18.5 3 35.5v116H6v20h792v18q-13 21-20.5 43t-7.5 42q0 30 12.5 55t44.5 25z" fill="currentColor"/></svg>