<svg xmlns="http://www.w3.org/2000/svg" viewBox="0 0 295 598.2"><path d="M21.5 2.2c-15.9 4-6.1 23.1 8.7 20.5 27.9 3.2 62.2 5 83.3 20.8 27.9 30.5 15.4 93.8 18.6 123.8.2 1.6.3 121.4.3 182.1-3.5 2.4.1 18-1.4 54.8 6.8 22.7-22.9-4-35.1-2.1-29.5-6.4-61.4-7.5-90.7-2.4-15.5 10.2 7.3 19.6 18 17.4 41.6 5 87.6 16.3 107.8 54.3.2 42.2 0 70.1 1.1 108.9-1 23.8 30.8 23.8 30.9.4-.3-38.2-3-71.8 2-108.9 10.1-41.6 82.3-48 127.2-58.3 11.2-13.2-15.9-16.9-26.9-15.5-34.8-2.7-71 2.5-102.3 18.6-1.1-25.1-.6-44.7-.7-67.2.6-94.8 2.1-186.5-.6-276.1-2.2-27.7-18.2-53.2-45-61.4C87.4-1.4 53-1.7 21.5 2.2z"/></svg>