<svg xmlns="http://www.w3.org/2000/svg" viewBox="-10 0 1180 1002"><path d="M884 1002q-21 0-27.5-13.5T850 945V822q0-14-4-37.5t-15-47Q820 714 797.5 698T739 682q-24 0-47 17t-37 35q-10 15-18.5 23t-17.5 8q-10 0-15-7.5t-5-15.5q0-14 13-34 5-8 21-26t43-34q27-16 62-16 49 0 79 17t44 35V131q0-17-3-36.5T843 61q-12-14-37-14t-38.5 15.5Q754 78 749 97t-6 29q0 11-5 23t-20 12q-13 0-17-9.5t-4-22.5q0-8 4-28.5t15-44q11-23.5 32.5-40T806 0q101 0 101 126v558q14-18 44-35t79-17q36 0 62.5 16t42.5 34q16 18 21 26 14 20 14 34 0 8-6 15.5t-15 7.5q-9 0-17.5-8t-18.5-23q-10-15-31-33.5t-53-18.5q-36 0-58 16t-33 39.5q-11 23.5-15 47t-4 37.5v123q0 30-6.5 43.5T884 1002zm-609 0q-21 0-27.5-13.5T241 945V822q0-14-4-37.5t-15-47Q211 714 188.5 698T130 682q-24 0-47 17t-37 35q-11 15-19 23t-17 8q-11 0-15.5-7.5T-10 742q0-14 14-34 4-8 20-26t42.5-34Q93 632 129 632q49 0 79 17t44 35V131q0-17-3-36.5T234.5 61Q223 47 197 47q-25 0-38.5 15.5T140 97q-5 19-6 29 0 11-5 23t-20 12q-13 0-17-9.5T88 129q0-8 4-28.5t15-44q11-23.5 32.5-40T197 0q101 0 101 126v558q14-18 44.5-35t78.5-17q36 0 62.5 16t43 34q16.5 18 20.5 26 14 20 14 34 0 8-6 15.5t-15 7.5q-9 0-17-8t-19-23q-11-15-31.5-33.5T420 682q-36 0-58 16t-33 39.5q-11 23.5-15 47t-4 37.5v123q0 30-6.5 43.5T275 1002zm0-18q10 0 13.5-9.5T292 945V822q0-16 4.5-42t17.5-53q13-27 38.5-45.5T420 663q27 0 46 11t32 25.5q13 14.5 21 25.5 4 5 10 13t11 8q3 0 3-4 0-8-11-25-5-7-19.5-23t-38-30Q451 650 421 650q-42 0-68 15t-39 33.5Q301 717 297 726l-16-4V126q0-108-84-108-30 0-47.5 14.5t-27 34.5Q113 87 110 105t-3 24q0 14 2 14 4 0 4.5-8t1.5-12q1-6 4-21t11.5-32Q139 53 155 41t42-12q34 0 49.5 17T266 86.5q4 23.5 4 44.5v591l-16 4q-5-9-18-27.5T197 665q-26-15-68-15-30 0-53.5 14t-38 30Q23 710 19 717 8 732 8 742q0 4 2 4 4 0 22-23 7-9 20-23.5T84.5 674q19.5-11 45.5-11 42 0 67.5 18.5T236 727q13 27 17.5 53t4.5 42v123q0 20 3.5 29.5T275 984zm609 0q11 0 14-9.5t3-29.5V822q0-16 4.5-42t17.5-53q13-27 38.5-45.5T1029 663q26 0 45.5 11t33 25.5Q1121 714 1128 725q4 5 10 13t11 8q2 0 2-4 0-9-10-25-5-7-19.5-23t-37.5-30q-23-14-54-14-42 0-68 15t-39 33.5Q910 717 906 726l-16-4V126q0-108-84-108-30 0-47.5 14.5t-27 34.5Q722 87 719 105t-3 24q0 14 2 14 4 0 4.5-8t1.5-12q1-6 4-21t11.5-32Q748 53 764 41t42-12q34 0 49.5 17T875 86.5q4 23.5 4 44.5v591l-16 4q-4-9-17.5-27.5T806 665q-26-15-68-15-31 0-54 14t-37 30q-14 16-19 23-11 15-11 25 0 4 2 4 4 0 22-23 7-9 20-23.5t32.5-25.5q19.5-11 45.5-11 42 0 67.5 18.5T845 727q13 27 17.5 53t4.5 42v123q0 20 3 29.5t14 9.5z" fill="currentColor"/></svg>