<svg xmlns="http://www.w3.org/2000/svg" viewBox="-10 0 571 1002"><path d="M275 1002q-21 0-27.5-13.5T241 945v-56q0-14-4-37.5t-15-47Q211 781 188.5 765T130 749q-24 0-47 17t-37 35q-11 15-19 23t-17 8q-11 0-15.5-8t-4.5-15q0-14 14-35 4-7 20-25t42.5-34Q93 699 129 699q49 0 76.5 17t40.5 35q-1-28-11-58.5t-35-52Q175 619 130 619q-30 0-50.5 17.5T42 677q-7 10-15 17t-17 7q-11 0-15.5-7.5T-10 679q0-14 14-35 4-7 20-25t42.5-34Q93 569 129 569q50 0 79.5 17t43.5 36V131q0-17-3-36.5T234.5 61Q223 47 197 47q-25 0-38.5 15.5T140 97q-5 19-6 29 0 11-5 23t-20 12q-13 0-17-9.5T88 129q0-8 4-28.5t15-44q11-23.5 32.5-40T197 0q101 0 101 126v496q15-19 44-36t79-17q36 0 62.5 16t43 34q16.5 18 20.5 25 14 21 14 35 0 7-6 14.5t-15 7.5q-9 0-17-8.5T504 670q-11-15-31.5-33T420 619q-45 0-69.5 21.5t-35 52Q305 723 304 751q14-18 41.5-35t75.5-17q36 0 62.5 16t43 34q16.5 18 20.5 25 14 21 14 35 0 7-6 15t-15 8q-9 0-17-8t-19-23q-11-15-31.5-33.5T420 749q-36 0-58 16t-33 39.5q-11 23.5-15 47t-4 37.5v56q0 30-6.5 43.5T275 1002zm0-18q10 0 13.5-9.5T292 945v-56q0-16 4.5-42t17.5-53q13-27 38.5-45.5T420 730q27 0 46 11t32 26q13 15 21 25 4 4 10 12.5t11 8.5q3 0 3-4 0-8-11-25-5-6-19.5-22.5t-38-30.5Q451 717 421 717q-42 0-66.5 15T318 765.5Q306 784 302 793l-16-4v-31q0-24 6-51.5t20.5-52q14.5-24.5 40.5-40t67-15.5q27 0 46 11t32 25.5q13 14.5 21 25.5 3 5 10 13.5t11 8.5q3 0 3-4 0-8-11-25-5-7-19.5-23t-38-30Q451 587 421 587q-42 0-68 15t-39 33q-13 18-18 27l-15-3V126q0-108-84-108-30 0-47.5 14.5t-27 34.5Q113 87 110 105t-3 24q0 14 2 14 4 0 4.5-8t1.5-12q1-6 4-21t11.5-32Q139 53 155 41t42-12q34 0 49.5 17T266 86.5q4 23.5 4 44.5v528l-16 3q-4-9-17-27t-39.5-33Q171 587 129 587q-30 0-53.5 14t-38 30Q23 647 19 654 8 669 8 679q0 4 2 4 5 0 22-23 7-10 20-24.5T84.5 610q19.5-11 45.5-11 41 0 67.5 15.5t41 40q14.5 24.5 20.5 52t6 51.5v31l-16 4q-5-9-17-27.5T195.5 732Q171 717 129 717q-30 0-53.5 14t-38 30.5Q23 778 19 784 8 799 8 809q0 4 2 4 4 0 22-23 7-10 20-24t32.5-25q19.5-11 45.5-11 42 0 67.5 18.5T236 794q13 27 17.5 53t4.5 42v56q0 20 3.5 29.5T275 984z" fill="currentColor"/></svg>