<svg xmlns="http://www.w3.org/2000/svg" viewBox="0 0 295.8 598.2"><path d="M21.7 2.2c-15.9 4-6.1 23.1 8.7 20.5 27.9 3.2 62.2 5 83.3 20.8 27.9 30.5 15.4 93.8 18.6 123.8.2 1.6.3 121.4.3 182.1-39-18.7-85.3-24-127-15.6-16.4 8.6 7.1 20 17.9 17.1 40.7 4.4 87.1 15.3 107.8 53.2 6.8 22.7-22.9-4-35.1-2.1-29.5-6.4-61.4-7.5-90.7-2.4-15.5 10.2 7.3 19.6 18 17.4 41.6 5 87.6 16.3 107.8 54.3.2 42.2 0 70.1 1.1 108.9-1 23.8 30.8 23.8 30.9.4-.3-38.2-3-71.8 2-108.9 10.1-41.6 82.3-48 127.2-58.3 11.2-13.2-15.9-16.9-26.9-15.5-34.8-2.7-71 2.5-102.3 18.6-1.1-25.1 23.6-39.5 41.3-49.6 27.9-12 58.7-13.2 87.8-19.6 11.8-10.2-10.8-18.6-21.5-16.2-37-3.6-75 1.9-108.4 18.3.6-94.8 2.1-186.5-.6-276.1-2.2-27.7-18.2-53.2-45-61.4C87.6-1.4 53.2-1.7 21.7 2.2z"/></svg>