<svg xmlns="http://www.w3.org/2000/svg" viewBox="0 0 277.8 594.5"><path d="M210.8 549.8c-49.4-28.3-98.9-28.3-148.7 0 49.8 27.9 99.4 27.9 148.7 0zm-83.7-46.4c0-32.6-.4-50.6-1.3-54.1-1.7-7.7-10.5-17.6-26.4-29.6-15.9-12-46.6-20.6-92.1-25.8-9.9-3.4-9.9-6.9 0-10.3 48.5-6 88.6.4 120.4 19.3-.4-8.2-1.1-13.9-1.9-17.4-1.7-7.7-10.5-17.7-26.4-29.9-15.9-12.2-46.6-20.9-92.1-26.1-9.9-3-9.9-6.4 0-10.3 48.5-5.6 88.6.9 120.4 19.3V97.9c0-25.3-4.5-44-13.5-56C98 27.3 76.1 19.5 48.6 18.7c-11.2 0-21.7-1.5-31.5-4.5-5.6-4.3-5.6-8.2 0-11.6C26.9.9 37 0 47.3 0c35.6 0 63.1 8.4 82.4 25.1 13.7 10.7 20.6 35 20.6 72.7v240.8c31.3-18 71.2-24.2 119.7-18.7 10.3 3.4 10.3 6.9 0 10.3-45.5 5.1-76.2 13.7-92.1 25.8-15.9 12-24.7 21.9-26.4 29.6-.9 3.4-1.3 9.2-1.3 17.4 31.3-18.5 71.2-24.9 119.7-19.3 10.3 3.4 10.3 6.9 0 10.3-45.5 5.2-76.2 13.7-92.1 25.8-15.9 12-24.7 21.9-26.4 29.6-.9 3.4-1.3 21.5-1.3 54.1 36.1 4.3 68.9 19.7 98.5 46.4-74.7 59.7-149.4 59.7-224 0 29.8-26.3 63.9-41.7 102.5-46.5z"/></svg>