<svg xmlns="http://www.w3.org/2000/svg" viewBox="-10 0 695 1006"><path d="M337 1006q-70 0-133-7T93 980q-48-12-75.5-28.5T-10 917q0-23 42-42.5t113.5-32Q217 830 303 828v-47q0-14-4-37t-15-46.5Q273 674 250.5 658T192 642q-24 0-47 17t-37 34q-21 31-36 31-11 0-15.5-7.5T52 701q0-13 14-34 4-7 20-25t42.5-34q26.5-16 62.5-16 49 0 76.5 16.5T308 644q-1-28-11-59t-35-52.5Q237 511 192 511q-30 0-50.5 17.5T104 570q-7 10-15 16.5T72 593q-11 0-15.5-7T52 572q0-15 14-36 4-6 20-24.5t42.5-34.5q26.5-16 62.5-16 50 0 79.5 17.5T314 515V131q0-17-3-36.5T296.5 61Q285 47 259 47q-25 0-38.5 15.5T202 97q-5 19-6 29 0 11-5 23t-20 12q-13 0-17-9.5t-4-22.5q0-8 4-28.5t15-44q11-23.5 32.5-40T259 0q101 0 101 126v389q15-19 44-36.5t79-17.5q36 0 62.5 16t43 34.5Q605 530 609 536q14 21 14 36 0 7-6 14t-15 7q-9 0-17-8t-19-22q-11-15-31-33.5T483 511q-45 0-70 21.5T377.5 585Q367 616 366 644q14-19 41.5-35.5T483 592q36 0 62.5 16t43 34q16.5 18 20.5 25 14 21 14 34 0 8-6 15.5t-15 7.5q-15 0-36-31-11-15-31-33t-52-18q-36 0-58.5 16T391 697.5Q380 721 376 744t-4 37v47q87 2 158 14.5t113 32q42 19.5 42 42.5 0 18-27.5 34.5t-76 28.5Q533 992 470 999t-133 7zm-17-179h34v-46q0-16 4.5-42t17.5-52.5q13-26.5 38.5-45T483 623q26 0 45 11t32 25.5q13 14.5 21 25.5l10 12.5 11 7.5q3 0 3-4 0-7-11-24-5-7-19.5-23t-38-30Q513 610 483 610q-42 0-66.5 15T380 658.5Q368 677 364 686l-16-4v-32q0-23 6-50.5t20.5-52q14.5-24.5 41-40T483 492q26 0 45 11t32 25.5q13 14.5 21 24.5 3 5 10 13.5t11 8.5q3 0 3-3 0-6-3-12t-8-14q-5-6-19.5-22t-38-30Q513 480 483 480q-42 0-68 15t-39 33q-13 18-18 26l-15-3V126q0-108-84-108-30 0-47.5 14.5t-27 34.5Q175 87 172 105t-3 24q0 14 2 14 4 0 4.5-8t1.5-12q1-6 4-21t11.5-32Q201 53 217 41t42-12q34 0 49.5 17T328 86.5q4 23.5 4 44.5v420l-16 3q-4-8-17-26t-39.5-33Q233 480 191 480q-30 0-53.5 14t-38 30Q85 540 81 546q-11 15-11 26 0 3 2 3 5 0 22-23 7-10 20-24t32.5-25q19.5-11 45.5-11 41 0 67.5 15.5t41 40q14.5 24.5 20.5 52t6 50.5v32l-16 4q-5-9-17-27.5T257.5 625Q233 610 191 610q-30 0-53.5 14t-38 30Q85 670 81 677q-11 15-11 24 0 4 2 4 4 0 22-22 7-10 20-24t32.5-25q19.5-11 45.5-11 42 0 67.5 18.5t38.5 45q13 26.5 17.5 52.5t4.5 42zm17 159q89 0 162.5-11.5T617 947q44-16 44-30 0-15-44-31t-117.5-27.5Q426 847 337 847q-88 0-161.5 11.5T58 886q-44 16-44 31 0 14 44 30t117.5 27.5Q249 986 337 986z" fill="currentColor"/></svg>