<svg xmlns="http://www.w3.org/2000/svg" viewBox="-10 0 327 966"><path d="M153 966q-39 0-58.5-76T75 687q0-71 8-144t19-137q11-64 19-105-17-7-31.5-26T62 237q-7-11-19-29t-25.5-35.5Q4 155-10 148v-20q7-11 23-23.5T48 92q13 0 23.5 3.5T89 102q3-21 11.5-44.5T122 17q13-17 31-17t31.5 17q13.5 17 22 40.5T218 102q7-3 17-6.5t24-3.5q20 0 35 12.5t23 23.5v20q-14 7-28 24.5T263.5 208Q252 226 245 237l-28 38-31 26q8 41 19 105t19 137q8 73 8 144 0 127-19.5 203T153 966zm1-773q10-23 20.5-40t24.5-34q-3-20-9-43.5t-15.5-40Q165 19 153 19t-21 16.5q-9 16.5-15 40t-9 43.5q14 17 24.5 34t21.5 40zm-1 753q18 0 31-35t20.5-94q7.5-59 7.5-130 0-53-5.5-110T193 466q-8-54-16.5-100T162 288q25-7 38.5-23.5T230 225q13-19 31-47.5t39-40.5q-5-6-15.5-15.5T259 112q-34 0-56 32t-50 93q-28-61-49.5-93T48 112q-15 0-26 9.5T7 137q21 12 38.5 40.5T77 225q16 23 29.5 39.5T145 288q-6 32-15 78t-17 100q-8 54-13.5 111T94 687q0 71 7.5 130t20.5 94q13 35 31 35z" fill="currentColor"/></svg>