<svg xmlns="http://www.w3.org/2000/svg" viewBox="-10 0 781 1006"><path d="M380 1006q-71 0-138-7t-120.5-19Q68 968 36 951.5T4 917q0-22 47-42t127-32.5Q258 830 356 828V694q-3-8-13.5-24.5T312 639q-20-14-51-14-26 0-46 15.5T184 669q8 8 8 21 0 10-3 23t-7 25q-3 10-5.5 19.5T174 772q0 11 2 20.5t8 19.5l-16 14q-10-4-23.5-12T122 794q-22 14-38.5 19.5T35 826q-2-21-1.5-41.5T39 742q-18-5-31-17t-18-22l7-25q12 6 20 6t18-3q10-3 17-7 11-7 22-17 11-9 22.5-18t23.5-9q8 0 14 2t10 4q15-17 43-38.5t74-21.5q34 0 57.5 11t37.5 24V466q-3-8-13.5-24.5T312 411q-20-14-51-14-26 0-46 15.5T184 440q8 10 8 22 0 10-3 23t-7 25q-3 10-5.5 19.5T174 544q0 11 2 20.5t8 19.5l-16 14q-10-4-23.5-12T122 566q-22 14-38.5 19.5T35 598q-2-21-1.5-41.5T39 514q-18-5-31-17t-18-22l7-25q12 6 20 6t18-3q10-3 17-7 11-7 22-17 11-9 22.5-18t23.5-9q8 0 14 2t10 4q15-17 43-38.5t74-21.5q34 0 57.5 11t37.5 24V155q0-27-6-51.5T324.5 64Q305 49 264 49q-28 0-48.5 15.5T184 92q8 10 8 22 0 10-3 23t-7 25q-3 10-5.5 19.5T174 196q0 11 2 20t8 19l-16 15q-10-4-23.5-12T122 218q-22 14-38.5 19.5T35 250q-2-21-1.5-42t5.5-42q-18-5-31-17t-18-22l7-25q12 6 20 6t18-3q10-3 17-7 11-7 22-17t22.5-18.5Q108 54 120 54q8 0 14 2t10 4q16-19 45-39.5T264 0q49 0 77.5 14.5t42 38Q397 76 401 103t4 52v228q14-13 37-24t58-11q47 0 74.5 21.5T617 408q4-2 9.5-4t14.5-2q12 0 23.5 9t22.5 18q11 10 22 17 7 4 17 7t18 3q8 0 20-6l7 25q-5 10-18.5 22T722 514q5 22 5.5 42.5T726 598q-31-7-48-12.5T639 566q-9 12-22.5 20T593 598l-16-14q6-10 8-19.5t2-20.5q0-5-2.5-14.5T579 510q-4-12-7.5-25t-3.5-23q0-7 2.5-12.5t6.5-9.5q-10-12-30.5-27.5T500 397q-31 0-51 14t-30.5 30.5Q408 458 405 466v145q14-13 37-24t58-11q47 0 74.5 21.5T617 636q4-2 9.5-4t14.5-2q12 0 23.5 9t22.5 18q11 10 22 17 7 4 17 7t18 3q8 0 20-6l7 25q-5 10-18.5 22T722 742q5 22 5.5 42.5T726 826q-31-7-48-12.5T639 794q-9 12-22.5 20T593 826l-16-14q6-10 8-19.5t2-20.5q0-5-2.5-14.5T579 738q-4-12-7.5-25t-3.5-23q0-12 9-21-10-13-30.5-28.5T500 625q-31 0-51 14t-30.5 30.5Q408 686 405 694v133q98 1 177.5 14t127 33q47.5 20 47.5 43 0 18-32 34.5T639 980q-54 12-121 19t-138 7zm-5-179h11V690q17-39 46-61.5t70-22.5q26 0 45.5 11.5T581 644q14 15 24 26-10 8-13.5 15t-2.5 11q1 10 3 17.5t5 18.5q4 11 7 21.5t3 18.5q0 10-2 17t-4 13q8-4 16-11t12-17q4-14 3.5-30t-4.5-29l20-13q10 9 26.5 15.5T705 724q20 0 30.5-10t14.5-15q-8 6-24.5 2T699 691q-6-3-12-8t-12-11q-10-8-19-13.5t-18-5.5q-13 0-24 10-7-9-21.5-25t-37-29Q533 596 502 596q-41-1-69.5 18.5T390 660l-4-2V462q17-39 46-62t70-23q26 0 45.5 11.5t33.5 27q14 15.5 24 26.5-10 8-13.5 15t-2.5 11q1 10 3 17.5t5 18.5q4 11 7 21.5t3 18.5q0 10-2 17t-4 13q8-4 16-11t12-17q4-14 3.5-30t-4.5-29l20-13q10 9 26.5 15.5T705 496q20 0 30.5-10t14.5-15q-8 6-24.5 2T699 463q-6-3-12-8t-12-11q-10-8-19-13.5t-18-5.5q-13 0-24 10-7-9-21.5-25t-37-29Q533 368 502 368q-41-1-69.5 18.5T390 432l-4-2V155q0-22-3.5-45.5t-15-44Q356 45 331 32.5T264 20q-33 0-56.5 13T169 62q-15 16-22 25-11-10-24-10-9 0-18 5.5T86 96q-11 11-24 19-11 6-27 10t-24-2q4 5 15 15t30 10q13 0 30-6.5t27-15.5l20 13q-4 13-5 29t4 30q4 10 12.5 17t15.5 11q-2-6-4-13t-2-17q0-8 3-18.5t7-21.5q3-11 5-18.5t3-17.5q0-4-3-11t-13-15q11-12 26-27t35-26.5Q237 29 264 29q52 0 75.5 19T369 97.5q6 30.5 6 64.5v268l-4 2q-14-26-42.5-45.5T259 368q-32 0-54 13t-36.5 29Q154 426 147 435q-11-10-24-10-9 0-18 5.5T86 444q-6 6-12 11t-12 8q-11 6-27 10t-24-2q4 5 15 15t30 10q13 0 30-6.5t27-15.5l20 13q-4 13-5 29t4 30q4 10 12.5 17t15.5 11q-2-6-4-13t-2-17q0-8 3-18.5t7-21.5q3-11 5-18.5t3-17.5q0-4-3-11t-13-15q10-11 24-26.5t33.5-27Q233 377 259 377q40 0 70 23t46 62v196l-4 2q-14-26-42.5-45.5T259 596q-32 0-54 13t-36.5 29Q154 654 147 663q-11-10-24-10-9 0-18 5.5T86 672q-6 6-12 11t-12 8q-11 6-27 10t-24-2q4 5 15 15t30 10q13 0 30-6.5t27-15.5l20 13q-4 13-5 29t4 30q4 10 12.5 17t15.5 11q-2-6-4-13t-2-17q0-8 3-18.5t7-21.5q3-11 5-18.5t3-17.5q0-4-3-11t-13-15q10-11 24-26t33.5-26.5Q233 606 259 606q40 0 70 22.5t46 61.5zM53 225q20-5 31.5-9t27.5-14q-3-11-3.5-24.5T112 152q-11 7-25.5 11T59 168q-8 27-6 57zm655 348q2-30-6-57-13-1-28-5t-25-11q4 12 3.5 25.5T649 550q16 10 27.5 14t31.5 9zm-655 0q20-5 31.5-9t27.5-14q-3-11-3.5-24.5T112 500q-11 7-25.5 11T59 516q-8 27-6 57zm0 228q20-5 31.5-9t27.5-14q-3-11-3.5-24.5T112 728q-11 7-25.5 11T59 744q-8 27-6 57zm655 0q2-30-6-57-13-1-28-5t-25-11q4 12 3.5 25.5T649 778q16 10 27.5 14t31.5 9zM380 986q67 0 129.5-6.5T622 962q50-11 79.5-22.5T731 917q0-11-29.5-23T622 871q-50-11-112.5-17.5T380 847q-66 0-128.5 6.5T139 871q-50 11-79.5 23T30 917q0 11 29.5 22.5T139 962q50 11 112.5 17.5T380 986z" fill="currentColor"/></svg>