<svg xmlns="http://www.w3.org/2000/svg" viewBox="0 0 355.1 594.6"><path d="M36.4 275.4c2 8.1 6.9 14.1 14.5 18.2 9.3 1.2 13.9 3.6 13.9 7.3.8 2.8-.8 5.1-4.8 7-4 1.8-6.5 2.7-7.3 2.7-8.1 6.1-11.7 14.1-10.9 24.2 10.5-9.3 17.4-14.9 20.6-17 14.1-5.2 22.4-11.3 24.8-18.2-2.8-6.5-10.9-11.5-24.2-15.1-8.8 0-17.7-3-26.6-9.1zm-3 18.8c-9.3 2-16.8 6.3-22.4 12.7 4 4.4 12.1 7.3 24.2 8.5 3.2-6.1 7.3-9.9 12.1-11.5-6-3.7-10.7-6.9-13.9-9.7zM34 365c2.8 8.1 8.5 13.7 17 17 8.9.4 13.5 2.2 13.9 5.5.8 3.2-.7 6-4.5 8.2-3.8 2.2-6.2 3.3-7 3.3-7.7 6.5-10.5 14.7-8.5 24.8 9.7-10.1 16.2-16.2 19.4-18.2 13.7-6.9 21.2-13.7 22.4-20.6-3.2-6.5-11.5-10.9-24.8-13.3-8.9.8-18.2-1.4-27.9-6.7zm-1.2 19.4c-8.9 2.8-15.9 7.7-21.2 14.5 4.8 4 13.1 6.1 24.8 6.1 2.8-6.5 6.7-10.5 11.5-12.1-6.4-3.2-11.5-6.1-15.1-8.5zm288.3 0c-3.6 2.4-8.7 5.2-15.1 8.5 5.2 1.6 9.1 5.7 11.5 12.1 11.7 0 20-2 24.8-6.1-4.8-6.8-11.9-11.7-21.2-14.5zm-1.2-19.4c-9.7 5.2-18.8 7.5-27.3 6.7-13.7 2.4-22.2 6.9-25.4 13.3 1.6 6.9 9.1 13.7 22.4 20.6 3.2 2 9.9 8.1 20 18.2 1.6-10.1-1.4-18.4-9.1-24.8-.8 0-3.1-1.1-7-3.3-3.8-2.2-5.4-4.9-4.5-8.2.4-3.2 5.2-5 14.5-5.5 8.1-3.2 13.6-8.9 16.4-17zm1.8-70.8c-3.6 2.8-8.3 5.9-13.9 9.1 4.8 1.6 8.9 5.5 12.1 11.5 11.7-1.2 19.6-4 23.6-8.5-5.2-6.5-12.5-10.5-21.8-12.1zm-3-19.4c-9.3 6.1-18.2 9.1-26.7 9.1-13.3 3.6-21.4 8.7-24.2 15.1 2 6.9 10.1 13.1 24.2 18.8 3.2 1.6 10.3 7.1 21.2 16.4.8-10.1-2.8-18.2-10.9-24.2-.8 0-3.2-.8-7.3-2.4-4-1.6-5.7-4-4.8-7.3 0-3.6 4.4-6.1 13.3-7.3 8.1-4.1 13.2-10.1 15.2-18.2zM34 85.8c8.5 2.4 16.6 1.6 24.2-2.4 6.1-6.9 10.3-9.5 12.7-7.9 2.8 1.2 3.9 4 3.3 8.5-.6 4.4-1.1 7.1-1.5 7.9.4 10.1 5 17.6 13.9 22.4-1.6-14.1-2.2-23.2-1.8-27.3 2.8-14.5 2-24.6-2.4-30.3-6.9-1.2-15.3 2.6-25.4 11.5-4.8 7.3-12.5 13.2-23 17.6zm14.6 13.3c-3.6 8.5-4.2 16.8-1.8 24.8 6.1-.8 12.7-5.9 20-15.1-3.2-6.1-4-11.7-2.4-17-6.6 3.3-11.8 5.7-15.8 7.3zm196.8 454.3c-45.2-27.1-91.9-27.1-139.9 0 48 28.3 94.7 28.3 139.9 0zm-57.5-44.2c33.9 4.4 65 19.2 93.3 44.2-69 54.9-139.3 54.9-210.8 0 27.9-24.6 60.2-39.4 96.9-44.2-.4-42-1-64.8-1.8-68.4-1.2-7.3-9.4-16.6-24.5-27.9-15.1-11.3-30.2-17.8-45.1-19.4C85.8 404 75.5 411.9 65 417.1c-8.5 5.2-14.3 11.9-17.6 20-4.4 5.7-8.5 4.6-12.1-3-1.6-6.5-2-13.1-1.2-20C11.5 410.9.4 406.2.8 400.2c-1.6-5.7 6.9-13.7 25.4-24.2-3.2-7.7-4.8-15.1-4.8-22.4.8-4 3.8-4.4 9.1-1.2 8.5 5.7 16.2 8.7 23 9.1 15.3 0 29.5 5.7 42.4 17 19 0 42.8 6.3 71.5 18.8-.4-7.7-1-21.4-1.8-41.2-1.2-7.3-8.5-15.8-21.8-25.7-13.3-9.9-29.3-16.9-47.8-20.9-11.3 9.3-22.4 16.2-33.3 20.6-8.9 4.4-15.3 10.5-19.4 18.2-4.8 5.2-8.7 4-11.5-3.6-1.2-6.5-1-13.3.6-20.6C10 318.6-.7 313.1.1 307.5c-1.2-5.7 7.9-13.1 27.3-22.4-2.4-7.7-3.4-15.1-3-22.4 1.2-4 4.4-4 9.7 0 7.7 6.1 14.9 9.7 21.8 10.9 15.3 1.2 28.7 7.9 40 20 25 0 48.9 6.1 71.5 18.2v-226c.8-34.3-6.9-54.7-23-61.2-16.2-6.5-32.5 3.6-49.1 30.3 2 14.5 1.6 27.7-1.2 39.4-1.2 9.7.4 18.4 4.8 26 1.2 7.3-2 9.7-9.7 7.3-6.1-2.4-11.7-6.3-17-11.5-17 15.7-27.7 21.6-32.1 17.6-4.8-2-5.7-13.7-2.4-35.1-8.1-2.4-14.9-5.9-20.6-10.3-2.4-3.2-.8-5.9 4.8-7.9 9.7-2.8 17-6.9 21.8-12.1C53 56.1 66.1 48.7 83.1 45.8c17-29.5 33-44.7 48.2-45.7 15.1-1 28.5 4.9 40 17.9 11.5 12.9 17.3 35.5 17.3 67.8v225.9c21.4-12.1 45-18.4 70.9-18.8 11.3-12.1 24.6-18.8 40-20 6.5-1.2 13.7-4.8 21.8-10.9 4.8-4 8.1-4 9.7 0 0 7.3-1 14.7-3 22.4 19.4 9.3 28.5 16.8 27.3 22.4.8 5.7-9.9 11.3-32.1 17 1.6 6.9 1.8 13.5.6 20-2.8 7.7-6.7 8.9-11.5 3.6-4-7.7-10.5-13.7-19.4-18.2-11.3-4.4-22.4-10.7-33.3-18.8-15.3 3.2-30.4 9.8-45.1 19.7-14.7 9.9-22.9 18.5-24.5 25.7-.4 20.2-.8 33.9-1.2 41.2 21.4-12.5 45-19 70.9-19.4h-.6l.6.6c12.1-11.3 25.8-17 41.2-17 6.9-.4 14.5-3.4 23-9.1 5.2-3.2 8.3-2.8 9.1 1.2 0 7.3-1.6 14.7-4.8 22.4 19 10.5 27.5 18.6 25.4 24.2.4 6.1-10.7 10.7-33.3 13.9.8 6.9.4 13.5-1.2 20-3.6 7.7-7.7 8.7-12.1 3-3.2-8.1-9.1-14.7-17.6-20-10.5-5.2-20.4-12.3-29.7-21.2-19.8 3.6-35.9 10.2-48.5 19.7-12.5 9.5-19.6 17.9-21.2 25.1-.7 4-1.3 26.8-2.1 68.8z"/></svg>