<svg xmlns="http://www.w3.org/2000/svg" viewBox="-10 0 781 1002"><path d="M264 1002v-56h92V729q-3-8-13.5-25T312 673q-20-14-51-14-26 0-46 16t-31 28q8 8 8 22 0 10-3 22.5t-7 24.5q-3 10-5.5 19.5T174 806q0 11 2 20.5t8 19.5l-16 14q-10-4-23.5-12T122 829q-22 13-38.5 18.5T35 860q-2-20-1.5-41t5.5-43q-18-4-31-16.5T-10 737l7-25q12 6 20 6t18-3q10-3 17-6 5-3 10.5-8T74 691q11-9 22.5-17.5T120 665q8 0 14 1.5t10 3.5q15-17 43-38.5t74-21.5q34 0 57.5 11t37.5 25V501q-3-8-13.5-25T312 445q-20-14-51-14-26 0-46 16t-31 28q8 8 8 22 0 10-3 22.5t-7 24.5q-3 10-5.5 19.5T174 578q0 11 2 20.5t8 19.5l-16 14q-10-4-23.5-12T122 601q-22 13-38.5 18.5T35 632q-2-20-1.5-41t5.5-43q-18-4-31-16.5T-10 509l7-25q12 6 20 6t18-3q10-3 17-6 5-3 10.5-8T74 463q11-9 22.5-17.5T120 437q16 0 24 5 15-17 43-38.5t74-21.5q34 0 57.5 11t37.5 25V155q0-27-6-51.5T324.5 64Q305 49 264 49q-28 0-48.5 15.5T184 92q8 10 8 22 0 10-3 23t-7 25q-3 10-5.5 19.5T174 196q0 11 2 20t8 19l-16 15q-10-4-23.5-12T122 218q-22 14-38.5 19.5T35 250q-2-21-1.5-42t5.5-42q-18-5-31-17t-18-22l7-25q12 6 20 6t18-3q10-3 17-7 11-7 22-17t22.5-18.5Q108 54 120 54q8 0 14 2t10 4q16-19 45-39.5T264 0q49 0 77.5 14.5t42 38Q397 76 401 103t4 52v263q14-14 37-25t58-11q47 0 74.5 21.5T617 442q8-5 24-5 12 0 23.5 8.5T687 463l12 10 10 8q7 3 17 6t18 3q8 0 20-6l7 25q-5 10-18.5 22.5T722 548q5 22 5.5 43t-1.5 41q-31-7-48-12.5T639 601q-9 11-22.5 19T593 632l-16-14q6-10 8-19.5t2-20.5q0-5-2.5-14.5T579 544q-4-12-7.5-24.5T568 497q0-13 9-22-10-12-30.5-28T500 431q-31 0-51 14t-30.5 31Q408 493 405 501v145q14-14 37-25t58-11q47 0 74.5 21.5T617 670q4-2 9.5-3.5T641 665q12 0 23.5 8.5T687 691l12 10 10 8q7 3 17 6t18 3q8 0 20-6l7 25q-5 10-18.5 22.5T722 776q5 22 5.5 43t-1.5 41q-31-7-48-12.5T639 829q-9 11-22.5 19T593 860l-16-14q6-10 8-19.5t2-20.5q0-5-2.5-14.5T579 772q-4-12-7.5-24.5T568 725q0-13 9-22-10-12-30.5-28T500 659q-31 0-51 14t-30.5 31Q408 721 405 729v217h101v56zm20-20h203v-17H386V724q17-39 46-61.5t70-22.5q26 0 45.5 11.5t33.5 27q14 15.5 24 26.5-10 7-13.5 14t-2.5 12q1 9 3 17t5 18q4 11 7 21.5t3 18.5q0 10-2 17.5t-4 12.5q8-4 16-11t12-17q4-14 3.5-29.5T628 750l20-14q10 9 26.5 15.5T705 758q20 0 30.5-10t14.5-15q-8 6-24.5 2t-26.5-9q-6-4-12-9l-12-10q-21-19-37-19-14 0-24 9-7-9-21.5-25t-37-29Q533 630 502 630q-41-1-69.5 18.5T390 694l-4-2V496q17-39 46-61.5t70-22.5q26 0 45.5 11.5t33.5 27q14 15.5 24 26.5-10 7-13.5 14t-2.5 11q1 10 3 17.5t5 18.5q4 11 7 21.5t3 18.5q0 10-2 17.5t-4 12.5q8-4 16-11t12-17q4-14 3.5-29.5T628 522l20-14q10 9 26.5 15.5T705 530q20 0 30.5-10t14.5-15q-8 6-24.5 2t-26.5-9q-6-4-12-9l-12-10q-21-19-37-19-14 0-24 9-7-9-21.5-25t-37-29Q533 402 502 402q-41-1-69.5 18.5T390 466l-4-2V155q0-22-3.5-45.5t-15-44Q356 45 331 32.5T264 20q-33 0-56.5 13T169 62q-15 16-22 25-11-10-24-10-9 0-18 5.5T86 96q-11 11-24 19-11 6-27 10t-24-2q4 5 15 15t30 10q13 0 30-6.5t27-15.5l20 13q-4 13-5 29t4 30q4 10 12.5 17t15.5 11q-2-6-4-13t-2-17q0-8 3-18.5t7-21.5q3-11 5-18.5t3-17.5q0-4-3-11t-13-15q11-12 26-27t35-26.5Q237 29 264 29q52 0 75.5 19T369 97.5q6 30.5 6 64.5v302l-4 2q-14-26-42.5-45.5T259 402q-32 0-54 13t-36.5 29Q154 460 147 469q-10-9-24-9-16 0-37 19l-12 10-12 9q-11 5-27 9t-24-2q4 5 15 15t30 10q13 0 30-6.5t27-15.5l20 14q-4 13-5 28.5t4 29.5q4 10 12.5 17t15.5 11q-2-5-4-12.5t-2-17.5q0-8 3-18.5t7-21.5q3-11 5-18.5t3-17.5q0-4-3-11t-13-14q10-11 24-26.5t33.5-27Q233 412 259 412q40 0 70 22.5t46 61.5v196l-4 2q-14-26-42.5-45.5T259 630q-32 0-54 13t-36.5 29Q154 688 147 697q-10-9-24-9-16 0-37 19l-12 10-12 9q-11 5-27 9t-24-2q4 5 15 15t30 10q13 0 30-6.5t27-15.5l20 14q-4 13-5 28.5t4 29.5q4 10 12.5 17t15.5 11q-2-5-4-12.5t-2-17.5q0-8 3-18.5t7-21.5q3-10 5-18t3-17q0-5-3-12t-13-14q10-11 24-26.5t33.5-27Q233 640 259 640q40 0 70 22.5t46 61.5v241h-91zM53 225q20-5 31.5-9t27.5-14q-3-11-3.5-24.5T112 152q-11 7-25.5 11T59 168q-8 27-6 57zm655 382q2-30-6-57-13-1-28-5t-25-11q4 12 3.5 25.5T649 584q16 10 27.5 14.5T708 607zm-655 0q20-4 31.5-8.5T112 584q-3-11-3.5-24.5T112 534q-11 7-25.5 11T59 550q-8 27-6 57zm0 228q20-4 31.5-8.5T112 812q-3-11-3.5-24.5T112 762q-11 7-25.5 11T59 778q-8 27-6 57zm655 0q2-30-6-57-13-1-28-5t-25-11q4 12 3.5 25.5T649 812q16 10 27.5 14.5T708 835z" fill="currentColor"/></svg>