<svg xmlns="http://www.w3.org/2000/svg" viewBox="-10 0 983 1002"><path d="M408 1002v-56h91V748q-3-8-13.5-24.5t-30-30.5Q436 679 405 679q-27 0-46.5 15.5T328 722q8 10 8 22 0 10-3 22.5t-7 25.5q-4 10-6.5 19t-2.5 15q0 21 11 39l-17 14q-9-3-22.5-11T265 848q-21 14-38.5 19.5T178 879q-1-20-1-41t6-43q-18-5-31.5-17T133 756l8-24q6 2 11 4t9 2q8 0 17.5-3t16.5-7q12-7 22-17 12-10 23-18.5t23-8.5q9 0 15 2t10 4q14-17 42.5-38.5T405 630q34 0 57 11t37 24V520q-3-8-13.5-24.5t-30-30.5Q436 451 405 451q-27 0-46.5 15.5T328 494q8 10 8 22 0 10-3 22.5t-7 25.5q-4 10-6.5 19t-2.5 15q0 21 11 39l-17 14q-9-3-22.5-11T265 620q-21 14-38.5 19.5T178 651q-1-20-1-41t6-43q-18-5-31.5-17T133 528l8-24q6 2 11 4t9 2q8 0 17.5-3t16.5-7q12-7 22-17 12-10 23-18.5t23-8.5q9 0 15 2t10 4q14-17 42.5-38.5T405 402q34 0 57 11t37 24v-64H273l-72 17h-93l-65-28-53-50 23-33 58 40q8 5 26 10.5t32 9.5l74-3-2-9q-4 1-17.5 1.5t-16.5.5q-10 0-33.5-3.5T99 317l7-44q5 1 24.5 3.5T163 279q10 0 29.5-2.5T218 273l50 22 231-12V155q0-27-6-51.5T468 64q-19-15-60-15-28 0-48.5 15.5T328 92q8 10 8 22 0 10-3 23t-7 25q-4 10-6.5 19.5T317 196q0 21 11 39l-17 15q-9-4-22.5-12T265 218q-21 14-38.5 19.5T178 250q-1-21-1-42t6-42q-18-5-31.5-17T133 127l8-25q12 6 20 6t17.5-3q9.5-3 16.5-7 12-7 22-17 12-10 23-18.5t23-8.5q9 0 15 2t10 4q15-19 44-39.5T408 0q49 0 77.5 14.5t42 38Q541 76 545 103t4 52v125l53-3 221 4 8-6L848 8h110l15 333-20 32H549v64q14-13 37-24t57-11q46 0 74.5 21.5T760 462q4-2 10-4t15-2q12 0 23.5 8.5T831 483q10 10 22 17 7 4 16.5 7t17.5 3q4 0 9-2t11-4l8 24q-5 10-18.5 22T865 567q6 22 6 43t-1 41q-31-6-48.5-11.5T783 620q-10 12-23.5 20T737 651l-17-14q11-18 11-39 0-6-2.5-15t-6.5-19q-4-13-7-25.5t-3-22.5q0-12 8-22-11-12-30.5-27.5T643 451q-31 0-50.5 14t-30 30.5Q552 512 549 520v145q14-13 37-24t57-11q46 0 74.5 21.5T760 690q4-2 10-4t15-2q12 0 23.5 8.5T831 711q10 10 22 17 7 4 16.5 7t17.5 3q4 0 9-2t11-4l8 24q-5 10-18.5 22T865 795q6 22 6 43t-1 41q-31-6-48.5-11.5T783 848q-10 12-23.5 20T737 879l-17-14q11-18 11-39 0-6-2.5-15t-6.5-19q-4-13-7-25.5t-3-22.5q0-12 8-22-11-12-30.5-27.5T643 679q-31 0-50.5 14t-30 30.5Q552 740 549 748v198h101v56zm19-20h203v-17H529V744q16-40 46-62.5t71-22.5q25 0 44.5 11.5t34 27Q739 713 749 724q-10 8-13.5 15t-2.5 11q0 10 2 17.5t6 18.5q4 11 6.5 21.5T750 826q0 18-6 30 7-4 16-11t13-17q4-14 3.5-30t-4.5-29l19-13q10 9 27 15.5t31 6.5q19 0 30-10t14-15q-8 6-24 2t-26-10q-7-4-12.5-9T819 726q-21-19-38-19-12 0-23 10-7-9-21.5-25t-37-29Q677 650 645 649q-40 0-69 19.5T534 714l-5-3V516q16-40 46-62.5t71-22.5q25 0 44.5 11.5t34 27Q739 485 749 496q-10 8-13.5 15t-2.5 11q0 10 2 17.5t6 18.5q4 11 6.5 21.5T750 598q0 18-6 29 7-4 16-10.5t13-16.5q4-14 3.5-30t-4.5-29l19-13q10 9 27 15.5t31 6.5q19 0 30-10t14-15q-8 6-24 2t-26-10q-7-4-12.5-9T819 498q-21-19-38-19-12 0-23 10-7-9-21.5-25t-37-29Q677 422 645 421q-40 0-69 19.5T534 486l-5-3V155q0-22-3.5-45.5t-15-44q-11.5-20.5-36-33T408 20q-33 0-57 13t-39 29q-15 16-22 25-11-10-23-10-10 0-19 5.5T229 96q-13 13-24 19-10 6-26 10t-24-2q3 5 14 15t30 10q14 0 31-6.5t27-15.5l19 13q-4 13-4.5 29t3.5 30q4 10 13 17t16 11q-6-12-6-30 0-8 2.5-18.5T307 156q4-11 6-18.5t3-17.5q0-4-3.5-11T299 94q10-12 25.5-27t36-26.5Q381 29 408 29q51 0 74.5 19t30 49.5Q519 128 519 162v321l-5 3q-13-26-42-45.5T403 421q-32 1-54.5 14t-37 29Q297 480 290 489q-11-10-23-10-17 0-38 19-6 5-11.5 10t-12.5 9q-10 6-26 10t-24-2q3 5 14 15t30 10q14 0 31-6.5t27-15.5l19 13q-4 13-4.5 29t3.5 30q4 10 13 16.5t16 10.5q-6-11-6-29 0-8 2.5-18.5T307 558q4-11 6-18.5t3-17.5q0-4-3.5-11T299 496q10-11 24.5-26.5t34-27Q377 431 402 431q41 0 71 22.5t46 62.5v195l-5 3q-13-26-42-45.5T403 649q-32 1-54.5 14t-37 29Q297 708 290 717q-11-10-23-10-17 0-38 19-6 5-11.5 10t-12.5 9q-10 6-26 10t-24-2q3 5 14 15t30 10q14 0 31-6.5t27-15.5l19 13q-4 13-4.5 29t3.5 30q4 10 13 17t16 11q-6-12-6-30 0-8 2.5-18.5T307 786q4-11 6-18.5t3-17.5q0-4-3.5-11T299 724q10-11 24.5-26.5t34-27Q377 659 402 659q41 0 71 22.5t46 62.5v221h-92zm122-627h391l13-20-12-307h-75l-16 262-13 11-235-5-53 3zM196 225q21-5 32-9t28-14q-3-11-3.5-24.5T255 152q-10 7-24.5 11t-27.5 5q-9 26-7 57zm-86 146h90l71-16h228v-53l-237 12-48-21q-6 1-23.5 3t-28.5 2q-8 0-24-1t-21-3l-1 9q13 5 28 7t23 2q4 0 22.5-1t23.5-2l6 41-90 5q-16-4-37-10.5T64 333l-49-33-6 7 41 36zm742 256q2-32-7-58-29 0-52-15 3 12 2.5 25t-3.5 25q17 10 28 14t32 9zm-656 0q21-5 32-9t28-14q-3-12-3.5-25t2.5-25q-23 15-52 15-9 26-7 58zm0 228q21-5 32-9t28-14q-3-12-3.5-25t2.5-25q-23 15-52 15-9 26-7 58zm656 0q2-32-7-58-29 0-52-15 3 12 2.5 25t-3.5 25q17 10 28 14t32 9z" fill="currentColor"/></svg>