<svg xmlns="http://www.w3.org/2000/svg" viewBox="0 0 575.3 594.6"><path d="M163.1 295.6c2.2 8.7 7.4 15.2 15.6 19.5 10 1.3 15 3.9 15 7.8.9 3-.9 5.5-5.2 7.5s-6.9 2.9-7.8 2.9c-8.7 6.5-12.6 15.2-11.7 26 11.3-10 18.6-16 22.1-18.2 15.2-5.6 24.1-12.1 26.7-19.5-3-6.9-11.7-12.4-26-16.3-9.6 0-19.1-3.2-28.7-9.7zm-3.2 20.1c-10 2.2-18 6.7-24.1 13.7 4.3 4.8 13 7.8 26 9.1 3.5-6.5 7.8-10.6 13-12.4-6.5-3.9-11.4-7.3-14.9-10.4zm.6 76.1c3 8.7 9.1 14.7 18.2 18.2 9.5.4 14.5 2.4 15 5.9.9 3.5-.8 6.4-4.9 8.8-4.1 2.4-6.6 3.6-7.5 3.6-8.2 6.9-11.3 15.8-9.1 26.7 10.4-10.8 17.3-17.3 20.8-19.5 14.7-7.4 22.8-14.7 24.1-22.1-3.5-6.9-12.4-11.7-26.7-14.3-9.5.7-19.5-1.7-29.9-7.3zm-1.3 20.8c-9.5 3-17.1 8.2-22.8 15.6 5.2 4.3 14.1 6.5 26.7 6.5 3-6.9 7.2-11.3 12.4-13-6.9-3.5-12.4-6.5-16.3-9.1zm309.5 0c-3.9 2.6-9.3 5.6-16.3 9.1 5.6 1.7 9.8 6.1 12.4 13 12.6 0 21.5-2.2 26.7-6.5-5.3-7.4-12.9-12.6-22.8-15.6zm-1.3-20.8c-10.4 5.6-20.2 8-29.3 7.2-14.7 2.6-23.8 7.4-27.3 14.3 1.7 7.4 9.8 14.7 24.1 22.1 3.5 2.2 10.6 8.7 21.5 19.5 1.7-10.8-1.5-19.7-9.8-26.7-.9 0-3.4-1.2-7.5-3.6-4.1-2.4-5.7-5.3-4.9-8.8.4-3.5 5.6-5.4 15.6-5.9 8.7-3.4 14.5-9.5 17.6-18.1zm1.9-76.1c-3.9 3-8.9 6.3-15 9.8 5.2 1.7 9.5 5.9 13 12.4 12.6-1.3 21-4.3 25.4-9.1-5.6-7-13.4-11.3-23.4-13.1zm-3.2-20.8c-10 6.5-19.5 9.8-28.6 9.8-14.3 3.9-23 9.3-26 16.3 2.2 7.4 10.8 14.1 26 20.2 3.5 1.7 11.1 7.6 22.8 17.6.9-10.8-3-19.5-11.7-26-.9 0-3.5-.9-7.8-2.6-4.3-1.7-6.1-4.3-5.2-7.8 0-3.9 4.8-6.5 14.3-7.8 8.6-4.5 14-11 16.2-19.7zM160.5 92.1c9.1 2.6 17.8 1.7 26-2.6 6.5-7.4 11.1-10.2 13.7-8.5 3 1.3 4.2 4.3 3.6 9.1-.7 4.8-1.2 7.6-1.6 8.5.4 10.8 5.4 18.9 15 24.1-1.7-15.2-2.4-24.9-2-29.3 3-15.6 2.2-26.4-2.6-32.5-7.4-1.3-16.5 2.8-27.3 12.4-5.3 7.7-13.5 14-24.8 18.8zm15.6 14.3c-3.9 9.1-4.6 18-2 26.7 6.5-.9 13.7-6.3 21.5-16.3-3.5-6.5-4.3-12.6-2.6-18.2-6.9 3.5-12.5 6.1-16.9 7.8zm150.2 109.2c76.3-.9 131.1.7 164.5 4.6V96l84.5-.7v165.1c-114 .4-197 .2-249-.6v74.8c23-13 48.3-19.7 76.1-20.2 12.1-13 26.4-20.2 42.9-21.5 6.9-1.3 14.7-5.2 23.4-11.7 5.2-4.3 8.7-4.3 10.4 0 0 7.8-1.1 15.8-3.3 24.1 20.8 10 30.6 18 29.3 24.1.9 6.1-10.6 12.1-34.5 18.2 1.7 7.4 2 14.5.7 21.5-3 8.2-7.2 9.5-12.4 3.9-4.3-8.2-11.3-14.7-20.8-19.5-12.1-4.8-24.1-11.5-35.8-20.2-16.5 3.5-32.6 10.5-48.4 21.1-15.8 10.6-24.6 19.8-26.3 27.6-.4 21.7-.9 36.4-1.3 44.2 23-13.4 48.3-20.4 76.1-20.8h-.7l.7.7c13-12.1 27.7-18.2 44.2-18.2 7.4-.4 15.6-3.7 24.7-9.8 5.6-3.5 8.9-3 9.8 1.3 0 7.8-1.7 15.8-5.2 24.1 20.4 11.3 29.5 19.9 27.3 26 .4 6.5-11.5 11.5-35.8 15 .9 7.4.4 14.5-1.3 21.5-3.9 8.2-8.2 9.3-13 3.3-3.5-8.7-9.8-15.8-18.9-21.5-11.3-5.6-21.9-13.2-31.9-22.8-21.2 3.9-38.6 10.9-52 21.1-13.4 10.2-21 19.2-22.8 27-.4 3.9-1.1 35.8-2 95.6H384v26H244.4v-26h58.5c0-59.8-.4-91.7-1.3-95.6-1.3-7.8-10.1-17.8-26.3-29.9-16.3-12.1-32.4-19.1-48.4-20.8-10.9 11.2-21.9 19.6-33.2 25.3-9.1 5.6-15.4 12.8-18.9 21.5-4.8 6.1-9.1 5-13-3.3-1.7-6.9-2.2-14.1-1.3-21.5-24.3-3.5-36.2-8.5-35.8-15-1.7-6.1 7.4-14.7 27.3-26-3.5-8.2-5.2-16.3-5.2-24.1.9-4.3 4.1-4.8 9.8-1.3 9.1 6.1 17.3 9.3 24.7 9.8 16.5 0 31.6 6.1 45.5 18.2 20.4 0 45.9 6.7 76.7 20.2-.4-8.2-1.1-23-2-44.2-1.3-7.8-9.1-17-23.4-27.6-14.3-10.6-31.4-18.1-51.4-22.4-12.1 10-24.1 17.3-35.8 22.1-9.5 4.8-16.5 11.3-20.8 19.5-5.2 5.6-9.3 4.3-12.4-3.9-1.3-6.9-1.1-14.3.7-22.1-23.8-5.6-35.3-11.5-34.5-17.6-1.3-6.1 8.5-14.1 29.3-24.1-2.6-8.2-3.7-16.3-3.3-24.1 1.3-4.3 4.8-4.3 10.4 0 8.2 6.5 16 10.4 23.4 11.7 16.5 1.3 30.8 8.5 42.9 21.5 26.9 0 52.4 6.5 76.7 19.5v-74.8c-87.1-3-146.9-1.3-179.4 5.2-36.4 9.5-68.9 8.9-97.5-2-22.5-13-30.8-23.2-24.7-30.6 3.9-6.5 16.6-4.1 38 7.2 21.5 11.3 50.8 11.1 88.1-.7-8.2-13.4-20.8-18.9-37.7-16.3-21.2 2.2-34.3 2-39.3-.7-5-2.6-8.2-6.2-9.8-10.7-1.5-4.6 4.3-7.3 17.6-8.1 13.2-.9 29.1-.4 47.8 1.3 29.9 6.5 51.1 16.3 63.7 29.3 37.7-9.5 82.1-15.4 133.3-17.6V92.1c.9-36.8-7.4-58.7-24.7-65.7-17.3-6.9-34.9 3.9-52.7 32.5 2.2 15.6 1.7 29.7-1.3 42.3-1.3 10.4.4 19.7 5.2 28 1.3 7.8-2.2 10.4-10.4 7.8-6.5-2.6-12.6-6.7-18.2-12.4-18.2 16.9-29.7 23.2-34.5 18.9-5.2-2.2-6.1-14.7-2.6-37.7-8.7-2.6-16-6.3-22.1-11.1-2.6-3.5-.9-6.3 5.2-8.5 10.4-3 18.2-7.4 23.4-13 10-13 24.1-21 42.3-24.1 18.2-31.6 35.4-48 51.7-49.1s30.6 5.3 42.9 19.2C320 33.1 326.1 57.3 326.1 92v123.6zm230.1-102c-29.5-3-44 9.9-43.6 38.7.4 28.8.2 55.6-.7 80.3 14.3 5.6 28.8 9.1 43.6 10.4l.7-129.4z"/></svg>