<svg xmlns="http://www.w3.org/2000/svg" viewBox="0 0 280.4 594.5"><path d="M51.7 379.5C72 379 97.8 386 129 400.3c-.4-8.2-1.1-14.1-1.9-17.5-1.7-7.8-9.6-17.1-23.7-27.9-14.1-10.8-31.3-18.2-51.7-22.1v46.7zm174.7 0v-46.1c-15.6 3.9-31.3 11-47.1 21.4-15.8 10.4-24.6 19.5-26.3 27.3-.9 3.9-1.3 10-1.3 18.2 23-13.5 47.9-20.4 74.7-20.8zm-74.7 122.1c16.5 3 28.2 11.3 35.1 24.7v68.2h-18.2v-63c-19.1-16-38.1-15.6-57.2 1.3v61.7H93.2v-68.2c6.9-13.4 18.6-21.4 35.1-24 0-33.4-.4-51.8-1.3-55.2-1.7-7.8-10.6-17.8-26.6-29.9-16-12.1-32.3-19.1-48.7-20.8V423H27v-29.9l-19.5-1.9c-10-3.5-10-6.9 0-10.4l19.5-1.3v-50.7l-19.5-2.6c-10-3-10-6.5 0-10.4l19.5-1.3v-26h24.7v26c27.3.9 53.1 7.8 77.3 20.8V92.9c0-25.6-4.4-43.5-13.3-53.9-8.9-10.4-17.8-15.5-26.7-15.3-8.9.2-19.8 4.9-32.8 14L66 55.9 48.4 67.6l-11-18.8-16.9 11c-10.4-.9-14.1-7.1-11-18.8L27 28.6 17.2 11 35.4 0l9.7 18.2C64.7 6.1 80.7.4 93.2 1.3s23.9 6.5 34.1 16.9c10.2 10.4 16.8 20.8 19.8 31.2 3 10.4 4.5 24.9 4.5 43.5v242.4c22.5-13.4 47.4-20.1 74.7-20.1v-26.6h24v26l22.1 1.9c10.4 3.5 10.4 6.9 0 10.4l-22.1 2.6v50l22.1 1.3c10.4 3.5 10.4 6.9 0 10.4l-22.1 2.6V423h-24v-24.7c-20.4 4.3-37.3 11.6-50.7 21.8-13.4 10.2-21 19.2-22.7 27-.7 3.4-1.2 21.6-1.2 54.5z"/></svg>