<svg xmlns="http://www.w3.org/2000/svg" viewBox="-10 0 675 1104"><path d="M328 1104q-45 0-82-22t-59-59q-22-37-22-82 0-31 12-60t32-51l-82-326q-16-2-30-12t-27-23q-11-12-16.5-26.5T39 415q-13-20-42-15l-7-16q2-6 11.5-19.5T31 346q8-2 16-2t15 2q2-17 8.5-37T90 274q19 7 34 21.5t25 28.5q11-11 27-14 19-5 34 1.5t20 11.5l2 18q-27 8-30 33-2 16 0 31.5t-2 30.5q-5 18-12 33t-20 25l78 307q13-7 28-13t32-8V233q-14-7-25.5-20T260 184q-7-14-9-29t-8-30q-8-23-37-25l-3-18q4-5 17-15.5T253 56q16 0 30 8 6-16 17-34.5T327 0q16 11 27.5 29.5T372 64q14-8 30-8 20 0 32.5 10.5T451 82l-3 18q-27 2-37 25-6 15-8 30t-9 29q-8 16-19.5 29T348 233v547q34 5 61 21l78-307q-13-10-20.5-25T455 436q-4-15-2-30.5t0-31.5q-3-25-31-33l2-18q5-5 20-11.5t35-1.5q14 3 27 14 10-14 25-28.5t33-21.5q13 15 19.5 35t8.5 37q7-2 15.5-2t16.5 2q19 5 29 18.5t12 19.5l-8 16q-27-5-42 15-9 13-14.5 27.5T585 469q-13 13-27 23t-30 12l-83 325q21 22 33 51t12 61q0 45-21.5 82t-58.5 59q-37 22-82 22zm-1-991q4-8 11.5-19T355 75q-4-13-11-27.5T327 24q-10 9-17 23.5T299 75q9 8 16.5 19.5T327 113zm-4 666h9V217q17-5 27-16.5t18-25.5q7-14 9.5-28.5T393 118q4-13 13.5-22T427 83q-4-3-9.5-5.5T402 75q-18 0-34 17.5t-27 38Q330 151 327 160q-3-9-14-29.5t-26.5-38Q271 75 253 75q-10 0-16 2.5T227 83q26 9 35 35 5 14 7 28.5t9 28.5q7 14 17.5 25.5T323 217zm214-396q6-7 16-16t20-13q-1-14-4-30t-10-28q-12 7-22.5 19.5T519 340q7 10 11.5 22t6.5 21zm-419 0q2-9 6.5-21t10.5-22q-6-12-16.5-24.5T96 296q-7 12-10.5 28T82 354q10 4 20 13t16 16zm105 434l8-6-83-328q15-10 22-23t11-29q3-15 1.5-30t-.5-29q3-29 25-42-4-2-10.5-3t-15.5 1q-17 4-28.5 25T135 396.5q-6 22.5-6 31.5-5-8-20.5-25T73 373q-20-13-37-8-9 2-14.5 6t-8.5 8q26 0 43 25 7 13 13 26.5T85 456q10 11 23 19.5t31 9.5zm208-1l85-331q18-1 30.5-9.5T569 456q11-12 16.5-25.5T599 404q15-25 42-25-3-4-8-8t-15-6q-17-5-37 8t-35.5 30Q530 420 525 428q0-9-6-31.5T502 353q-11-21-28-25-10-2-16.5-1t-10.5 3q23 13 25 42 1 14-.5 29t2.5 30q3 16 10.5 29t22.5 23l-84 327q2 2 4 3.5t4 2.5zm-103 67l67-67q-15-8-32-13t-35-5q-19 0-36 5t-32 13zm84 174q19-15 31-32l-86-84 86-83q-6-10-14-17.5T412 826l-84 86-86-85q-8 7-16 14.5T212 858l85 83-85 84q6 9 14 16.5t16 14.5l86-85zm42-49q17-31 17-67 0-35-17-66l-68 66zm-253-1l68-66-68-65q-16 30-16 65 0 36 16 66zm127 78q18 0 35-5t32-13l-67-67-68 67q15 8 32 13t36 5z" fill="currentColor"/></svg>