<svg xmlns="http://www.w3.org/2000/svg" viewBox="0 0 138.8 594.6"><path d="M58.8 48.5c-5.8-8.7-7-18.8-3.6-30.3 8.7-22.1 18-24.1 28.1-5.8C88.2 23 88.7 35 84.8 48.5c63.5 27.4 71 80.6 22.4 159.5 25.5 47.6 23.6 96-5.8 145 19.7 50 14.4 102.7-15.9 158-2.9 18.3 2.4 43.1 15.9 74.3 3.4 12.5-4.6 12.3-23.8-.7-14-9.1-23.7-17.6-29.2-25.3-5.5-7.7-10.5-23.6-14.8-47.6-38.5-63.5-41.2-116.4-8-158.7-28.4-52-27.2-101 3.6-147.2C-17.9 116.8-8 64.4 58.8 48.5zm13 20.2C43.4 73.5 28.6 87 27.4 109.1c-1.2 22.1 8.1 55.3 27.8 99.6-26 42.3-27.7 90.4-5.1 144.3-25.5 46.7-24.5 98.9 2.9 156.6 3.4 24.1 7.5 36 12.3 35.7 4.8-.2 6.5-13.8 5.1-40.8 19.2-50 21.6-98.9 7.2-146.5 27.4-41.9 30.3-91.4 8.7-148.6 20.2-44.7 28-78.5 23.5-101.4s-17.3-35.9-38-39.3z"/></svg>