<svg xmlns="http://www.w3.org/2000/svg" viewBox="-10 0 1266 342"><path d="M133 342q-39 0-73.5-7T3 317l1-40q23 4 52 6.5t54 2.5q15 0 33-2.5t38-7.5q-23-20-52.5-49t-58-65q-28.5-36-50-76.5T-10 3h48q13 34 42.5 71.5t66 72.5q36.5 35 71.5 61.5t59 38.5q53-16 108-40t108-51q-39-18-90.5-48T312 36l25-36q102 60 193 92t174 44q83 12 163 12 36 0 88-3t107.5-7.5q55.5-4.5 102.5-9t71-7.5l20 102-363 3q-54 1-105 13t-96 30.5Q647 288 611 306l-23-39q23-16 50-32.5t64-32.5l-85-10q-91 41-181 75t-168.5 54.5Q189 342 133 342zm0-19q55 0 132.5-21T433 246.5Q523 212 614 171l123 18 1 22q-31 10-64 26t-55 32l4 8q50-24 120-46.5T893 207l338-3-11-60q-27 3-72.5 7t-97.5 7.5q-52 3.5-100.5 6T867 167q-80 0-164-11.5t-173.5-42Q440 83 342 26l-5 8q40 41 97.5 71T547 154q-66 32-113 53t-84.5 34.5Q312 255 273 267q-24-11-59-37.5T142 168q-37-35-68.5-73T24 23h-9q12 38 38 77.5t58.5 75Q144 211 175 239t52 45q-23 8-57 15t-61 7q-21 0-45.5-2T23 299v9q17 7 49.5 11t60.5 4z" fill="currentColor"/></svg>