<svg xmlns="http://www.w3.org/2000/svg" viewBox="0 0 594.7 127.7"><path d="M21.8.1C14.5 1.7 7.3 3.3 0 4.9c3.1 25.8 13.1 50.8 29.8 70.8 14.9 18.2 35.8 32.6 59.4 35.9 16.4 1.6 33 1.1 49.4.4 30.7-1.6 61.5-9.9 87.5-26.8 15.5-9.9 28.9-22.7 40.5-36.9 2.7-2.5 6.9-.7 10.3-1.3 63.5-.6 126.9-2.1 190.4-.2 4.1-.9-1.5 3.2-2.2 4.5-16.7 18.9-33 38.1-50.3 56.5 11.7 6.6 23.3 13.2 35 19.8 19-18.7 33.4-42.6 56.7-56.6 21.9-11.2 47.3-9.9 71.2-12l17.1-1.5V10.3c-101.4.3-202.8.3-304.2 2-51.5 1.5-102.5-7.3-153.8-9.7-14.7-.6-29.5-.4-44.1 1.4-10 2.4-14.1 13-19 20.9-2.4 4.2-4.9 8.2-7.5 12.2 4.9 2.4 8.7-2.6 12.9-4.2 9.2-5.3 19.4-10.6 30.4-9.1 37.7.6 75.2 6.1 112.7 9.6-7.7 16.8-25.1 26-41.6 32.2-29.4 11.6-61.1 17-92.6 17.5C70.9 81.8 57.2 69.3 47.5 56c-12.4-16.6-19-36.5-25.2-56l-.5.1z"/></svg>