<svg xmlns="http://www.w3.org/2000/svg" viewBox="0 0 181.3 594.6"><path d="M14.4 0h108.5c10.9 0 12.6 6.4 5.3 19.3-11.7 20.6-19.8 50.6-24.5 89.9 20.6 38.9 30.3 92.8 29.2 161.7-.5 72.6-13.9 139.4-40.3 200.1-1.9 24.9 21.2 53.5 69.4 85.8 17.1 13.2 22.9 23.7 17.2 31.5-5.6 7.8-14.7 8.4-27.1 1.8-55.2-37-84-70.6-86.4-101-8.6 14.8-17.7 26.5-27.4 35-16.3 5.8-23.7 1-22.2-14.6 3.1-10.1 10.3-23 21.6-38.5C14 393.1 1.5 327.4.3 273.7c0-66.1 9.9-120.8 29.8-164-5-39.7-14.4-69.8-28-90.4C-3 6.4 1.1 0 14.4 0zm13.4 19.3c11.7 20.6 18.7 42.6 21 65.9 11.3-6.6 23-6.6 35 0 6.6-23.3 14-45.3 22.2-65.9H27.8zm21.6 96.3c1.2 9.3 6.6 14.6 16.3 15.8 9.7-1.2 15-6.6 15.8-16.3 0-9.3-5.3-14.6-15.8-15.8-9.7 1.1-15.2 6.5-16.3 16.3zm40.2 24.5c-5.4 8.6-13.4 13.2-23.9 14-10.9-.8-18.1-5.4-21.6-14-14.4 36.2-21 80.5-19.8 133.1 1.2 49 9.7 105.4 25.7 169.2 10.5 19.1 21 18.7 31.5-1.2 19.8-62.6 29.8-119.4 29.8-170.4.7-51-6.5-94.6-21.7-130.7z"/></svg>