<svg xmlns="http://www.w3.org/2000/svg" viewBox="-10 0 325 1101"><path d="M295 1101q-7 0-23-11.5t-34.5-28Q219 1045 202 1028t-27-28q-18-21-38.5-48T98 897q-10 9-30.5 29T30 962l-32-40 75-71q-4-9-15.5-38t-24-73.5q-12.5-44.5-22-100T2 522q0-62 12-126.5t29.5-120Q61 220 78 184q-4-8-4-20 0-11 3-20l-20-24-33.5-40.5Q-10 39-10 38 3 26 39 13t88-13q51 0 86.5 13T263 38l-88 106q4 8 4 20t-4 20v1q3 9 12.5 40t19.5 77.5q10 46.5 17.5 101T232 514q0 55-15.5 118t-38 122Q156 813 135 855q13 25 32.5 54.5T214 969q13 14 25.5 27t28.5 28q25 24 36 35t11 22q0 6-3 13t-17 7zM89 127q14-16 38-16 22 0 38 16l70-86q-9-5-34-13.5T127 19q-34 0-64 7.5T18 41q8 9 21.5 25.5T67 100q14 17 22 27zm38 70q14 0 23.5-10t9.5-23q0-14-9.5-24T127 130q-14 0-24 10t-10 24q0 13 10 23t24 10zm168 884q6 0-4.5-10.5T257 1038q-14-13-28-27.5T202 981q-28-32-51.5-66T113 854q22-39 44.5-97T196 635q16-64 16-121 0-65-10-128t-22.5-111.5Q167 226 160 204q-13 12-33 12t-36-13q-9 20-25.5 68T35 384q-14 65-14 138 0 64 12 128t29.5 117.5Q80 821 96 855l-74 68 9 12q10-9 32-30t38-37q22 37 45 67t42 52q9 10 24.5 26t32 31.5q16.5 15.5 30.5 26t20 10.5z" fill="currentColor"/></svg>