<svg xmlns="http://www.w3.org/2000/svg" viewBox="0 0 315.1 563.5"><path d="M177.2 105c4.3-11 5.8-23.1 4.6-36.5-1.2-22.5-2.4-39.6-3.7-51.1C176.9 5.8 181.5 0 191.8 0c9.7 0 14.2 5.8 13.2 17.4-.9 11.6-2.3 28.6-4.1 51.1-1.2 14 .3 26.2 4.6 36.5h42c4.3-11 5.5-23.1 3.7-36.5-1.2-22.5-2.4-39.6-3.7-51.1C246.3 5.8 250.9 0 261.2 0c10.4 0 14.9 5.8 13.7 17.4-1.2 11.6-2.7 28.6-4.6 51.1-1.2 14 .3 26.2 4.6 36.5h21c6.7 0 8.8 3.7 6.4 11-14.6 54.8-16.4 93.3-5.5 115.5 11 22.2 17 61 18.3 116.5-2.4 41.4-9.4 79.5-21 114.2s-29.8 68.5-54.8 101.4H74.9c-25-32.9-43.1-66.7-54.3-101.4C9.3 427.4 2.4 389.4 0 348c1.2-55.4 7.2-94.2 17.8-116.5 10.7-22.2 8.7-60.7-5.9-115.5-2.4-7.3-.3-11 6.4-11h21c4.3-10.4 5.8-22.5 4.6-36.5C42 46 40.6 28.9 39.7 17.4 38.8 5.8 43.2 0 53 0c10.3 0 15 5.8 14.1 17.4-.9 11.5-2.3 28.6-4.1 51.1-1.2 13.4.3 25.6 4.6 36.5h41.1c4.3-10.4 5.8-22.5 4.6-36.5-1.8-22.5-3.2-39.6-4.1-51.1-1-11.6 3.7-17.4 14.1-17.4 9.7 0 14.2 5.8 13.2 17.4-.9 11.6-2.3 28.6-4.1 51.1-1.2 13.4.3 25.6 4.6 36.5h40.2zm41.1 427.5c42-56.6 63-118.1 63-184.5 0-53-5.2-90.3-15.5-111.9s-13.4-39.9-9.1-54.8c4.3-14.9 6.4-29.7 6.4-44.3h-212c0 14.6 2.1 29.4 6.4 44.3 4.3 14.9 1.2 33.2-9.1 54.8S32.9 295 32.9 348c0 66.4 21 127.9 63 184.5h122.4z"/></svg>