<svg xmlns="http://www.w3.org/2000/svg" viewBox="-10 0 589 964"><path d="M151 964q-26-27-54-67.5t-52.5-90Q20 757 5 701t-15-113q0-54 12.5-101T33 405q18-35 35-53-13-44-28.5-93T11 167h75V0h61v167h51V0h61v167h51V0h61v167h50V0h62v167h75l-57 185q8 8 27 35.5t35 77Q579 514 579 588q0 57-15 113t-39.5 105.5q-24.5 49.5-53 90T417 964zm8-19h250q9-9 32.5-40t51-79q27.5-48 47-108.5T559 588q0-59-13-105.5t-31.5-78Q496 373 479 358l52-171h-68V19h-22v168h-90V19h-22v168h-90V19h-22v168h-89V19h-22v168H37l53 171q-17 15-36 46.5t-32 78Q9 529 9 588q0 50 14 101.5T60 789q23 48 49 88t50 68z" fill="currentColor"/></svg>