<svg xmlns="http://www.w3.org/2000/svg" viewBox="-10 0 250 774"><path d="M115 774q-25 0-54-17.5T11 704q-21-35-21-86 0-28 10.5-48.5T21 537V430h45v-52q0-4-2.5-12T44 341q-28-29-40-51.5T-7 227q2-64 14.5-115.5t39-81.5Q73 0 115 0t68 30q26 30 39 81.5T237 227q1 40-11.5 62.5T185 341q-16 17-19 24t-3 13v52h45v106q11 13 21.5 33.5T240 618q0 51-21 86t-50 52.5Q140 774 115 774zM41 522h148v-73h-46v-71q0-6 3.5-17t24.5-34q26-27 36.5-46t9.5-54q-2-94-29-151t-73-57q-47 0-74.5 57T12 227q0 35 10.5 54T58 327q21 23 24.5 34.5T86 378v71H41zm74 232q21 0 45.5-15t42-45.5Q220 663 220 618q0-30-13.5-49.5T186 541H44q-8 7-21.5 26.5T9 618q0 45 17.5 75.5t42 45.5Q93 754 115 754z" fill="currentColor"/></svg>