<svg xmlns="http://www.w3.org/2000/svg" viewBox="-10 0 327 1075"><path d="M36 1075l-14-14q32-31 62.5-64.5T142 926Q73 830 31.5 716.5T-10 474q0-84 16.5-140T46 247q23-31 43-41L41 52q-1-4-2.5-11T37 29q0-11 5-18.5T60 3q20 0 28 29l41 140V38q0-16 3-27t21-11q18 0 21.5 12t3.5 26v134l40-140q9-29 28-29 14 0 19 8t5 18q0 11-3 18l-50 159q20 10 43.5 41t40 87Q317 390 317 474q0 129-42 242.5T165 926q54 74 120 135l-14 14q-32-31-61.5-64T153 942q-26 36-56 69t-61 64zm117-166q65-93 104.5-202T297 474q0-84-17.5-138t-41-82.5Q215 225 195 218l56-177q2-7 1-13t-6-6q-7 0-11 16l-55 178h-19V38q0-7-2-12.5t-6-5.5q-7 0-7 18v178h-19L72 38q-4-10-7-13t-5-3q-5 0-5 6.5T57 41l55 177q-19 7-43.5 35.5t-42 82.5Q9 390 9 474q0 124 39.5 233T153 909z" fill="currentColor"/></svg>