<svg xmlns="http://www.w3.org/2000/svg" viewBox="0 0 182.1 619.1"><path d="M91 0c6.8 0 10 11.6 9.5 34.7l-2 57.2c0 10.9 1.6 21.6 4.8 32h5.4c4.1-11.4 6.6-22.5 7.5-33.4 2.3-22.2 4.1-40.9 5.4-55.9C123.4 11.4 127.7.1 134.5.5c6.8.9 8.6 12.9 5.4 36.1L131 92.5c-1.4 10.9-.9 21.3 1.4 31.3h7.5c5.9-11.4 9.8-22.5 11.6-33.4 4.1-22.2 6.8-39.7 8.2-52.4 4.1-23.2 9.5-34.1 16.3-32.7 6.8 1.4 7.7 13.4 2.7 36.1l-12.3 51.8c-2.3 10.9-2.7 21.8-1.4 32.7h-.7c3.6 18.6 7.7 36.6 12.3 53.8 12.3 104-7 209.3-57.9 316-12.3 20-5.2 40.5 21.1 61.6s39.5 38 39.5 50.7c2.7 9.1-.5 12.5-9.5 10.2-12.7-2.3-25.4-13.3-38.1-33-12.7-19.8-26.3-32.8-40.9-39.2-14.5 6.4-28.2 19.4-40.9 39.2-12.7 19.8-25.2 30.8-37.5 33-9.5 2.3-12.9-1.1-10.2-10.2 0-12.7 13.2-29.6 39.5-50.7s33.4-41.7 21.1-61.6C12.3 389.1-7 283.8 5.2 179.8c4.5-17.3 8.6-35.2 12.3-53.8.9-10.9.2-21.8-2-32.7L3.2 41.5C-1.8 18.8-.9 6.8 5.9 5.4c6.8-1.4 12.3 9.5 16.3 32.7 1.4 12.7 4.1 30.2 8.2 52.4 1.8 10.9 5.7 22 11.6 33.4h7.5c2.3-10 2.7-20.4 1.4-31.3L42 36.8C38.8 13.6 40.6 1.6 47.4.7c6.8-.5 11.1 10.9 12.9 34.1 1.4 15 3.2 33.6 5.4 55.9.9 10.9 3.4 22 7.5 33.4h5.4c3.2-10.4 4.8-21.1 4.8-32l-2-57.2C81 11.6 84.2 0 91 0zm0 485.6c29.5-48.6 49.4-98.8 59.6-150.5 10.2-51.8 12.1-103.5 5.8-155.3C146 155.3 124.2 143 91 143c-33.1 0-54.9 12.3-65.4 36.8-6.4 51.8-4.4 103.5 5.8 155.3C41.7 386.9 61.5 437 91 485.6z"/></svg>