<svg xmlns="http://www.w3.org/2000/svg" viewBox="-10 0 1122 268"><path d="M1105 268q-36-2-82-15t-94.5-35q-48.5-22-92-53T761 95q-32-39-46-85l10-10q46 1 102.5 23T940 81.5q56 36.5 102 82.5t70 96zm-726 0q-36-2-82-15t-94-35q-48-22-91.5-53t-76-70Q3 56-10 10L0 0q46 1 102.5 23T215 81.5Q271 118 317 164t70 96zm363 0q-36-2-82-15t-94-35q-48-22-91.5-53T399 95q-32-39-46-85l9-10q46 1 102.5 23t113 58.5Q634 118 680 164t70 96zm-381-18q-24-44-65.5-84.5t-91-72Q155 62 105 42.5T13 20q17 48 58.5 87.5t94 69.5Q218 207 270 225.5t91 24.5zm363 0q-24-44-65.5-84.5t-91-72Q518 62 468 42.5T376 20q17 48 58 87.5t93.5 69.5q52.5 30 105 48.5T724 250zm363 0q-24-44-65.5-84.5t-91.5-72q-50-31.5-100-51T738 20q17 48 58.5 87.5t94 69.5q52.5 30 105 48.5T1087 250z" fill="currentColor"/></svg>