<svg xmlns="http://www.w3.org/2000/svg" viewBox="0 0 574.1 142.9"><path d="M127.1 142.1c-24.1 3.6-51.3-5-81.8-25.9C14.9 95.3-.2 70.2 0 40.9S14.9-1.3 44 2.4c29 3.6 51.9 22 68.4 55.2 16.6 33.1 21.5 61.3 14.7 84.5zm-32-36.8c-5.9-45-25.9-67.9-60-68.8-3.6 34.5 16.4 57.4 60 68.8zm268.5 36.8c-24.1 3.6-51.3-5-81.8-25.9-30.4-20.9-45.5-46-45.3-75.3.2-29.3 14.9-42.1 44-38.5 29.1 3.6 51.8 22 68.1 55.2 16.3 33.1 21.3 61.3 15 84.5zm-32.1-36.8c-5.9-45-25.9-67.9-60-68.8-3.6 34.5 16.4 57.4 60 68.8zM571.4 140c-24.1 3.6-51.3-5-81.8-25.9-30.4-20.9-45.5-46-45.3-75.3.2-29.3 14.9-42 44-38.2 29.1 3.9 51.8 22.4 68.1 55.5 16.4 33.3 21.4 61.2 15 83.9zm-32-36.1c-5.9-45-25.9-68.1-60-69.5-3.6 34.5 16.4 57.7 60 69.5z"/></svg>