<svg xmlns="http://www.w3.org/2000/svg" viewBox="-10 0 397 1030"><path d="M379 268q-36-2-82-15t-94-35q-48-22-91.5-53t-76-70Q3 56-10 10L0 0q46 1 102.5 23T215 81.5Q271 118 317 164t70 96zm-18-18q-24-44-65.5-84t-91-72Q155 62 105 42.5T13 20q17 48 58.5 88t94 69.5Q218 207 270 225.5t91 24.5zm18 399q-36-2-82-15t-94-35q-48-22-91.5-53t-76-70Q3 437-10 391l10-10q46 1 102.5 23T215 462.5Q271 499 317 545t70 96zm-18-18q-24-44-65.5-84t-91-72Q155 443 105 423.5T13 401q17 48 58.5 88t94 69.5Q218 588 270 606.5t91 24.5zm18 399q-36-2-82-15t-94-35q-48-22-91.5-53t-76-70Q3 818-10 772l10-10q46 1 102.5 23T215 843.5Q271 880 317 926t70 96zm-18-18q-24-44-65.5-84.5t-91-72Q155 824 105 804.5T13 782q17 48 58.5 88t94 69.5Q218 969 270 987.5t91 24.5z" fill="currentColor"/></svg>