<svg xmlns="http://www.w3.org/2000/svg" viewBox="-10 0 863 731"><path d="M379 268q-36-2-82-15t-94-35q-48-22-91.5-53t-76-70Q3 56-10 10L0 0q46 1 102.5 22.5t112.5 58q56 36.5 102 83t70 96.5zm466 0q-36-2-82-15t-94-35q-48-22-91.5-53t-76-70Q469 56 456 10l9-10q46 1 102.5 22.5t113 58Q737 117 783 163.5t70 96.5zm-484-18q-24-44-65.5-84.5t-91-72Q155 62 105 42.5T13 20q17 48 58.5 87.5t94 69.5Q218 207 270 225.5t91 24.5zm466 0q-24-44-65.5-84.5t-91-72Q621 62 571 42.5T479 20q17 48 58 87.5t93.5 69.5q52.5 30 105 48.5T827 250zM670 731q-36-2-82-15t-94.5-35q-48.5-22-92-53t-76-70Q293 519 280 473l10-11q46 1 102.5 23T505 543.5q56 36.5 102 83t70 96.5zm-19-19q-24-44-65-84t-91-72q-50-32-100-51.5T303 482q17 49 58.5 88.5t94 69Q508 669 560 687.5t91 24.5z" fill="currentColor"/></svg>