<svg xmlns="http://www.w3.org/2000/svg" viewBox="-10 0 416 1076"><path d="M198 1076q-17 0-34.5-8t-22.5-13q2-10 6-43.5t8.5-76.5q4.5-43 8-84.5T167 782q0-34-6.5-68.5T140 647L-10 506l15-16 117 97q-5-17-8.5-38.5T108 500L-8 389l14-17 100 82v-26q0-16 .5-31t1.5-29l-98-96 13-15 90 72q2-18 6-34.5t8-30.5L40 144l16-13 82 95q5-11 9-21t8-18L95 54l19-10 62 111 5-6 4-149h26l3 149 6 6 61-111 20 10-61 133q5 8 9 18t8 21l82-95 17 13-87 120q4 14 7.5 30.5T283 329l90-72 13 15-98 96q1 14 1.5 29t.5 31v26l100-82 14 17-117 111q-2 27-5.5 48.5T274 587l116-97 16 16-150 141q-14 32-20.5 66.5T229 782q0 27 3 68.5t8 84.5q5 43 9 76.5t5 43.5q-5 5-22 13t-34 8zm0-20q10 0 20.5-4t14.5-8q-2-14-6-46.5t-8-72.5q-4-40-7-78.5t-3-64.5q0-47 7-75.5t18-56.5l155-142-2-1-140 120-4-4q8-23 14.5-50t10.5-73l119-109-2-2-116 100q1-15 1.5-29t.5-32q0-17-.5-31t-1.5-29l100-93-2-1-99 84q-3-29-7-51t-9-42l87-115-2-2-87 108q-7-23-13-38t-12-28l60-128-2-1-61 122q-11-21-20-23l-3-144h-3l-2 144q-10 2-19 21L112 61l-2 1 61 128q-7 13-13 28t-12 38L58 148l-1 2 87 115q-5 20-9.5 42t-6.5 51L28 274l-1 1 100 93q-1 15-1.5 29t-.5 31q0 18 .5 32t1.5 29L10 389l-1 2 119 109q3 46 9.5 73t14.5 50l-3 4L8 507l-1 1 155 142q11 28 18 56.5t7 75.5q0 26-3 64.5t-7.5 78.5q-4.5 40-8.5 72.5t-6 46.5q5 4 15.5 8t20.5 4zm-13-386q-14-41-22.5-77.5t-13-77.5q-4.5-41-4.5-93 0-68 11-125.5T189 183h18q21 56 32.5 113.5T251 422q0 52-4.5 93t-13 77.5Q225 629 211 670zm13-19q16-49 24.5-102.5T231 422q0-60-8-110.5T198 211q-17 50-25 100.5T165 422q0 73 8.5 126.5T198 651z" fill="currentColor"/></svg>