<svg xmlns="http://www.w3.org/2000/svg" viewBox="0 0 229.1 594.5"><path d="M103.2 380.3c-13.8-3.3-31.1-14.7-52-34.1-20.9-19.4-35.1-37.1-42.6-52.9-7.1-15.5-9.8-11.3-8.1 12.5 10.4 25.1 24.9 47.5 43.2 67.3 18.4 19.8 38.6 38.7 60.8 56.7.4 48-1.7 103-6.3 164.8h41.3c-6.3-63.1-9-118-8.1-164.8 14.6-13.4 28.9-27.9 42.9-43.5 14-15.7 26.6-33.2 37.9-52.6 11.3-19.4 16.9-32 16.9-37.6 0-5.6-.4-11-1.3-16-5.4 6.3-14.8 18.7-28.2 37.3-13.4 18.6-24.9 33.1-34.5 43.5-9.6 10.4-17.2 16.3-22.9 17.5-5.6 1.3-9.7 1.7-12.2 1.3 8.8-16.3 21.1-34 37-53.3s30.1-42 42.6-68.3c7.5-12.1 12.1-22.1 13.8-30.1-12.1 4.6-22.7 14.7-31.6 30.4-9 15.7-18.2 30.8-27.6 45.4-9.4 14.6-21.6 22.8-36.6 24.4 1.3-5.8 4.7-13.2 10.3-21.9 5.6-8.8 14.1-20.2 25.4-34.1 11.3-14 21.8-30.9 31.6-50.7 9.8-19.8 17.2-36.2 22.2-49.2-6.3-.8-11.9 4.4-16.9 15.7-5 11.3-14.8 26.3-29.4 45.1-14.6 18.8-24 28.2-28.2 28.2-4.2 0-7.5-1-10-3.1 31.7-38.4 50.4-65.8 56.1-82.1 5.6-16.3 10.1-36.5 13.5-60.8-7.5 2.9-13.4 10.4-17.5 22.6-3.8 10.4-9.9 22.1-18.5 35.1-8.6 12.9-21.4 22.6-38.5 28.8 21.7-36.3 35-67.5 39.8-93.3 4.8-25.9 6.6-43.4 5.3-52.6C164 62 157.5 75 153.3 94.6c-4.2 22.1-13.4 39.5-27.6 52 2.9-35.1 3.7-61.2 2.2-78.3-1.5-17.1-2.2-39.9-2.2-68.3-15.5 27.6-23.9 49.1-25.4 64.5-1.5 15.5 2 43.4 10.3 83.9-18.8-14.2-30.5-32.8-35.1-55.8-4-21.2-11.5-32.5-22.4-33.7 6.3 24.2 12.9 49.4 20 75.5s18 48.8 32.6 68c-18-8.8-29.7-17.6-35.1-26.6-5.4-9-11.1-21.2-16.9-36.6s-13.4-24.4-22.6-26.9c-.4 2.1-.6 4.4-.6 6.9 0 5.4 2 12.4 6 21s8.8 20.8 14.4 36.6c5.6 15.9 22.4 45.5 50.4 89-13.8-2.9-25-9.1-33.5-18.5-8.6-9.4-17.6-22.7-27.3-39.8-9.6-17.1-17.3-28.8-23.2-35.1-2.5 4.2-1 14.1 4.4 29.8 5.4 15.7 11.3 28.1 17.5 37.3 6.3 9.2 16.7 23.8 31.3 43.9 18 16.3 26.5 28.6 25.7 37-4.6-1.7-17.8-12.7-39.5-33.2-19.2-18.4-34.2-33.4-45.1-45.1-1.3 1.3-1.9 2.9-1.9 5 0 2.9 2 7.6 6 14.1s8.9 12.5 14.7 18.2c5.8 5.6 15.5 18.1 28.8 37.3 16.5 24.3 31.1 45.6 44 63.6z"/></svg>