<svg xmlns="http://www.w3.org/2000/svg" viewBox="0 0 422 370.5"><path d="M133.8 27zm-67.1 4.2zM301.1 14c.3 0 .6.1 1 .1 5.2.7 9.9 3.6 13.3 7.7 6.6 8 8.7 21.1-3.2 32.1-2.6 2.3-5.8 3.1-9.2 2.8-.7-.1-1.4-.1-2.1-.3-4.9-.9-9.9-3.7-13.8-7.5-7.1-7-11.2-18-.9-29.4 5.1-4.4 10.3-5.9 14.9-5.5zm-65.2.8c.3 0 .6.1 1 .1 5.2.7 9.9 3.6 13.3 7.7 6.6 8 8.7 21.1-3.2 32.1-2.6 2.3-5.8 3.1-9.2 2.8-.7-.1-1.4-.1-2.1-.3-4.9-.9-9.9-3.7-13.8-7.5-7.1-7-11.2-18-.9-29.4 5.1-4.4 10.2-5.8 14.9-5.5zm97 32.1c-.3 6-.6 12.2-.9 18.1h-11.4c.3-.3.6-.5.9-.8 5.8-5.4 9.5-11.3 11.4-17.3zM167.7 15.5c.3 0 .6.1 1 .1 5.2.7 9.9 3.6 13.3 7.7 6.6 8 8.7 21.1-3.2 32.1-2.6 2.3-5.8 3.1-9.2 2.8-.7-.1-1.4-.1-2.1-.3-4.9-.9-9.9-3.7-13.8-7.5-7.1-7-11.2-18-.9-29.4 5.1-4.4 10.2-5.9 14.9-5.5zm100.7 29.8c1.9 5 5 9.6 9 13.5 2.4 2.3 5 4.4 7.8 6.1h-28.7c6.4-6.1 10.2-12.8 11.9-19.6zm-11.9 19.5zM101.6 14.4c.3 0 .6.1 1 .1 5.2.7 9.9 3.6 13.3 7.7 6.6 8 8.7 21.1-3.2 32.1-2.6 2.3-5.8 3.1-9.2 2.8-.7-.1-1.4-.1-2.1-.3-4.9-.9-9.9-3.7-13.8-7.5-7.1-7-11.2-18-.9-29.4 5.1-4.4 10.3-5.9 14.9-5.5zm99.6 24.4c1.1 7.8 5.1 15.1 10.9 20.8 2 1.9 4.1 3.7 6.3 5.2H189c8.2-7.9 11.9-17.1 12.2-26zm-12.2 26zm-54.8-20.2c1.8 5.9 5.2 11.2 9.7 15.7 1.7 1.7 3.6 3.3 5.5 4.6-9.6 0-19 .1-28 .1.2-.2.4-.3.6-.5 6.6-6 10.5-12.9 12.2-19.9zM121.4 65zM35 20c.3 0 .6.1 1 .1 5.2.7 9.9 3.6 13.3 7.7 6.6 8 8.7 21.1-3.2 32.1-2.6 2.3-5.8 3.1-9.2 2.8-.7-.1-1.4-.1-2.1-.3-4.9-.9-9.9-3.7-13.8-7.5-7.1-7-11.2-18-.9-29.4 5.1-4.4 10.3-5.8 14.9-5.5zm33.4 24.5c1.9 5.4 5.2 10.4 9.4 14.6 2.4 2.4 5 4.4 7.8 6.1-9.9.1-18.6.2-25.9.4 5.5-6.6 8.2-13.9 8.7-21.1zm-8.7 21.2zm271.7 11.5c-.2 3.7-.4 7.2-.5 10.3v2.8c-34 .2-250.1 1.8-268.4 1.5-3.1-5.7-5.9-10-9.4-13.8 8.3-.2 19.5-.4 32.7-.5 28.1-.3 65.2-.4 102.1-.5 63.9 0 127.3.2 143.5.2zM62.5 91.8zm326.3 118.1zm-27.6.3c-.1.1-.2.2-.3.2-.1 0 .1-.1.3-.2zm31.5-66.2c2 .2 3.8.7 5.2 1.6 3.3 1.9 5.4 5.7 4.4 12.2-1.3 8.3-7.5 19.4-21.9 32.7l-.3.2-.1.3c-11.9 12.7-16.3 17.4-18.6 19.1-2.1 0-4.7.1-8.4 1h-.1l-10 .3c0-1.1 0-2.1-.1-3.2 6-11 14.4-25.3 20-35.7l.4-.7.3-.7c4.7-13.3 11.8-21 18.7-24.7 3.7-1.9 7.4-2.7 10.5-2.4zm-61.9-41.4c-.2 24.6-.5 49.1-.7 73.6l.3 14.7c-1.1 2-2.2 3.9-3.2 5.7-15.2.4-59.3 1.4-103.7 2.6-27.5.8-55 1.6-76 2.5-10.5.4-19.4.8-25.8 1.2-3.3.2-5.9.4-7.9.6-1.1.1-2 .2-2.8.3-.2 0-.3.1-.5.1-1.4-3.7-2.8-7.3-4.1-12.1l-.1-.4-.2-.4c-12.5-28.9-25.1-57.9-37.6-86.8 41.2-.1 230-1.4 262.3-1.6zM110.4 203.9zm240.3 27.6c8.9 13.6 17.7 27.3 26.6 40.9-7.6 3.3-15.3 6.5-22.9 9.8l-4-36.8c-.1-4.6-.1-9.2-.2-13.8.2 0 .4-.1.5-.1zm-19.9-.3c.3 22.4.7 44.8 1 67.2l.2 14.5.4-.2c.3 15.1.5 30.2.8 45.3l-209.8-3c-2.2-36.1-3.7-80.8-5.9-116.9 71.9-2.2 141.7-4.6 213.3-6.9zM123.3 355.1zM333.7 28.2s-3.9-10.9-7.6-15.3C320.5 6.1 312.6 1.4 303.9.3c-.6-.1-1.1-.1-1.7-.2-8.4-.6-17.4 2.1-25.4 9.1l-.3.3-.3.3c-4.6 5-7.4 10.2-8.9 15.4-1.5-4.1-3.7-8-6.5-11.4-5.6-6.8-13.5-11.5-22.2-12.7-.6-.1-1.1-.1-1.7-.2-8.4-.6-17.4 2.1-25.4 9.1l-.3.3-.3.3c-6.7 7.3-9.7 15-10 22.5-.9-6.9-3.8-13.4-8.2-18.7-5.7-6.8-13.5-11.5-22.2-12.6-.6-.1-1.1-.1-1.7-.2-8.4-.6-17.4 2.1-25.4 9.1l-.4.3-.3.3c-4.7 5.1-7.6 10.4-9 15.7-1.4-5-3.9-9.7-7.2-13.7C121 6.5 113.1 1.8 104.4.7c-.6-.1-1.1-.1-1.7-.2-8.4-.6-17.4 2.1-25.4 9.1l-.3.3-.3.3c-6.2 6.8-9.3 14-9.9 21C65.3 26.7 63 22.6 60 19 54.4 12.2 46.5 7.5 37.8 6.3c-.6-.1-1.1-.1-1.7-.2-8.4-.6-17.4 2.1-25.4 9.1l-.3.3-.3.3c-15.6 17-11.3 36.7 1.1 49l.9.9s13.6 11.9 20.7 12c.3.2.5.3.8.5l2 3.1 1.4-.9c8.7 6 11.6 11.1 17.3 22.2 0 0 0 .1.1.1l-.1.9h.5c13.1 30.4 26.5 61.1 39.8 91.8 1.5 5.6 3.3 9.8 4.9 14.4l-1.4.9 3.6 5.6c1.2 4.3 2.4 9.7 3.2 17.5 2.5 38.5 4 88.9 6.6 127.7l.4 5.7 5.7.1 221.8 3.2 6.3.1-.1-5h1.1l10.7-.2 6.1-.1-.7-6-6.2-56.8c13-5.6 26-11.1 39-16.7l10.6-4.5-6.3-9.7c-9.6-14.8-19.3-29.7-28.9-44.5.1 0 .1-.1.2-.1l17.7-16.9c1.6-1.7 3.3-3.5 5.1-5.4 0 0 25.7-31.2 27.6-43.7 2.3-14.4-3.6-26.1-13.8-32-4-2.4-8.7-3.8-13.6-4.1-6.8-.5-14.1.9-21.1 4.6-11.1 5.8-21.4 17.2-27.7 34.7-1 1.8-2 3.6-3 5.5.3-27.1.5-54.4.8-81.7 1-21.8-9.3-67.5-9.5-59.8z"/></svg>