<svg xmlns="http://www.w3.org/2000/svg" viewBox="-10 0 1261 733"><path d="M142 733q-49 0-80.5-5T30 695q0-8 2.5-26t6.5-44q6-41 14-97.5T66.5 409Q72 347 72 289q0-53-10.5-91.5T37 132q-14-27-26-45Q2 72-4 60.5T-10 39q0-25 18-32t50-7h800q32 0 50 7t18 32q0 10-5.5 21.5T905 87q-13 20-28 48t-24 70h4q78 0 148.5 32t126 90q55.5 58 87.5 136t32 170q0 40-9 64t-37 24q-12 0-25-6t-22-23q-9-17-9-51 0-63-21.5-122t-61-106q-39.5-47-95-74.5T847 311h-3q1 56 7 113.5t13 110q7 52.5 13 90.5 4 26 6.5 44t2.5 26q0 28-30 33t-82 5zm616-528h75q9-46 25.5-77T888 76q8-13 13.5-22t5.5-15q0-13-13-16t-36-3h-42q-17 41-33 87.5T758 205zm-94 0h75q8-53 24-101.5T795 20h-95q-7 29-18.5 78T664 205zm-97 0h77q5-56 16-104t20-81H580q-4 40-7.5 87.5T567 205zm-99 0h79q2-50 5.5-97.5T560 20h-92zm-100 0h80V20h-92q4 50 7.5 92t4.5 93zm-96 0h77q-2-50-5-92t-8-93H236q9 33 19.5 81T272 205zm-95 0h75q-6-58-17.5-107T216 20h-94q16 35 31.5 83.5T177 205zm-94 0h74q-8-51-24-97.5T99 20H58q-23 0-36 3T9 39q0 6 5.5 15T28 76q13 21 29 52t26 77zm1122 497q16 0 21-19t5-50q0-89-31-164t-85.5-130q-54.5-55-126-85T837 224H87q2 15 3 31t1 34v2h749q81 0 142.5 30t102.5 80q41 50 62 112.5t21 127.5q0 38 12.5 49.5T1205 702zm-737 11h92q-6-100-12-200.5T544 311h-76zm112 0h90q-11-72-17-144.5t-9-139q-3-66.5-4-118.5h-76q-4 96 2.5 195T580 713zm110 0h82q-23-118-31-225t-9-177h-73q1 81 8 187.5T690 713zm-335 0h93V311h-78q0 43-1.5 96.5t-4 109.5q-2.5 56-5 107t-4.5 89zm437 0q35 0 54.5-2.5T866 695q0-6-2-23.5t-6-43.5q-6-38-13.5-89.5t-13-110.5q-5.5-59-6.5-117h-73q1 80 10 184.5T792 713zm-546 0h90q2-38 4.5-88.5T345 518q2-56 3.5-110t1.5-97h-74q-1 52-4 118.5t-9 139Q257 641 246 713zm-101 0h81q16-108 23-214.5t8-187.5h-73q-1 70-9 177t-30 225zm-21 0q20-113 29.5-217.5T164 311H91q-1 58-6.5 117T72 538.5Q65 590 59 628q-9 53-9 67 0 13 20.5 15.5T124 713z" fill="currentColor"/></svg>