<svg xmlns="http://www.w3.org/2000/svg" viewBox="0 0 414.5 293.7"><path d="M414.5 293.7h-25.7c.8-91-3-146.3-11.3-166.1-8.4-19.8-19.7-30.9-34-33.3-3.7 69.3-2.7 135.8 3.1 199.5H10.1c2.4-63.6 2.8-121.2.9-172.8S5.6 35.7.3 20.2C-1.7 6.3 6.6-.4 25.4 0h311.4c13.1 1.2 19 8 17.7 20.2-4.1 13.9-7.5 30.2-10.4 48.9 15.1 2 28 10 38.9 23.9 10.8 13.9 18.3 31.9 22.3 54.1 4.1 22.3 7.2 71.1 9.2 146.6zm-89.9-14.1V94.2H305v185.4h19.6zm-39.2 0V94.2h-19.6v185.4h19.6zm-39.8 0V94.2H226v185.4h19.6zM87.8 69.2c0-17.1-2.7-33.4-8-48.9H60.3c5.3 15.5 8 31.8 8 48.9h19.5zm118.7 210.4V94.2h-19.6v185.4h19.6zM48.6 69.2c.4-17.2-2.4-33.5-8.5-49H20.5c5.7 15.5 8.6 31.8 8.6 48.9h19.5zm118.1 210.4V94.2h-19.6v185.4h19.6zm-39.1 0V94.2H108v185.4h19.6zm-39.8 0V94.2H68.2v185.4h19.6zm-39.2 0V94.2H29.1v185.4h19.5zm79-210.4c0-17.1-1.8-33.4-5.5-48.9h-19.6c3.7 15.5 5.5 31.8 5.5 48.9h19.6zm39.1 0V20.3h-19.6v48.9h19.6zm39.8 0V20.3h-19.6v48.9h19.6zm39.1 0c0-17.1 1.8-33.4 5.5-48.9h-19.6c-3.7 15.5-5.5 31.8-5.5 48.9h19.6zm39.8 0c0-17.1 2.7-33.4 8-48.9h-19.6c-5.3 15.5-8 31.8-8 48.9h19.6zm39.2 0c0-17.1 2.9-33.4 8.6-48.9h-19.6C307.8 35.7 305 52 305 69.2h19.6z"/></svg>