<svg xmlns="http://www.w3.org/2000/svg" viewBox="0 0 589.1 396.9"><path d="M589.1 396.9h-36.9c-3.2-58.8-18-103-44.5-132.4-26.5-29.4-69.6-43.4-129.3-42.1-1.4 6.8-2.7 15.5-4.1 26-1.4 10.5-1.6 31-.7 61.6H60.9c1.8-18.2-.2-50.2-6.2-95.8C40.1 143.9 21.9 72.5 0 0h433.1c-17.8 60.7-34 125.2-48.6 193.6 58.8.9 104.3 15.5 136.5 43.8 32.2 28.3 54.9 81.5 68.1 159.5zM401 28.7h-41.1c-8.2 55.2-16 110.2-23.3 164.9h23.3L401 28.7zm-79.4 164.9c6.4-54.7 14.1-109.7 23.3-164.9h-35.6C302.4 83.9 299 138.9 299 193.6h22.6zm-38.3 0c0-54.7 3.6-109.7 10.9-164.9h-33.5v164.9h22.6zM245.6 28.7H223v164.9h22.6V28.7zm110.9 193.7h-19.8v59.5h15.7c1.3-29.6 2.7-49.5 4.1-59.5zm-149.2-28.8V28.7h-22.6v164.9h22.6zm114.3 28.8H299v59.5h22.6v-59.5zm-38.3 0h-22.6v59.5h22.6v-59.5zm-151.9-28.8c-.9-54.7-3.9-109.7-8.9-164.9H88.9c7.8 55.2 15.1 110.2 21.9 164.9h20.6zm114.2 88.3v-59.5H223v59.5h22.6zM95.1 193.6c-5-54.7-12.3-109.7-21.9-164.9h-41c13.2 55.2 26.5 110.2 39.7 164.9h23.2zm112.2 28.8h-22.6v59.5h22.6v-59.5zm-37.6 0h-22.6v59.5h22.6v-59.5zm-38.3 0h-20.5v59.5h20.5v-59.5zm-36.3 59.5v-59.5H72.5c3.2 11.9 5.7 31.7 7.5 59.5h15.1zm74.6-88.3V28.7h-28.1c3.6 55.2 5.5 110.2 5.5 164.9h22.6z"/></svg>