<svg xmlns="http://www.w3.org/2000/svg" viewBox="-10 0 1263 937"><path d="M1207 937q-12 0-25.5-6t-22.5-23.5q-9-17.5-9-51.5 0-61-20-118.5t-58-104q-38-46.5-90.5-75T863 527q-5 63-7 116.5t-2 88.5H126q0-39-3.5-104T112 487q-7-76-19-147-14-70-38.5-132.5T13 107Q3 85-3.5 69.5T-10 46q0-24 14.5-35T65 0h850q46 0 60.5 11T990 46q0 8-6.5 23.5T967 107q-17 38-41.5 100.5T887 340q-4 20-7 40t-5 41q75 3 143 36.5t121 91q53 57.5 83.5 134T1253 849q0 39-9 63.5t-37 24.5zM767 420h87q3-21 6-41.5t7-42.5q14-73 38.5-135T949 99q10-20 15.5-33.5T970 46q0-13-10.5-20T915 19h-62l1 1q-38 110-58 210.5T767 420zm-95 0h76q8-89 27.5-189.5T833 19H714q-17 102-27 204.5T672 420zm-88 0h69q4-94 14-196.5T694 19h-92q-10 92-13.5 197T584 420zm-84 0h65q1-99 4.5-204T583 19h-83zm-86 0h66V19h-84q9 92 13 197t5 204zm-288 0h85q-9-89-28.5-189.5T125 20l1-1H65q-34 0-45 7T9 46q0 6 6 19.5T30 99q19 40 44 102t38 135q4 22 7.5 42.5T126 420zm199 0h70q-2-99-5.5-204T376 19h-92q17 102 27 204.5T325 420zm-94 0h75q-5-94-15-196.5T264 19H145q38 111 57.5 211.5T231 420zm976 497q16 0 21-18.5t5-49.5q0-82-29.5-156t-83-131q-53.5-57-125-89.5T839 440H128q2 17 3.5 34t3.5 33h707q84 0 146 30.5t102 81.5q40 51 60 112.5t20 124.5q0 39 12.5 50t24.5 11zM584 713h63v-85l2-101h-65zm83 0h70v-12q0-39 .5-82.5T740 527h-71q-2 54-2 101zm-167 0h64V527h-64zm256 0h78q0-34 2-82t6-104h-83q-2 48-2.5 91.5T756 701zm-341 0h65V527h-65zm-83 0h63V527h-66q3 108 3 186zm-90 0h70q0-38-.5-85T310 527h-72q2 48 3 91.5t1 82.5zm-96 0h76v-12q0-39-.5-82.5T219 527h-82q4 56 6 104t3 82z" fill="currentColor"/></svg>