<svg xmlns="http://www.w3.org/2000/svg" viewBox="0 0 336.7 301.6"><path d="M39.3 21c-9.4 0-14 5.4-14 16.1 0 11.2 4.7 16.8 14 16.8 10.3 0 15.4-5.6 15.4-16.8 0-10.7-5.1-16.1-15.4-16.1zm85.6 0c-9.4 0-14 5.4-14 16.1 0 11.2 4.7 16.8 14 16.8 10.3 0 15.4-5.6 15.4-16.8 0-10.7-5.2-16.1-15.4-16.1zm97.4 256.8c6.1 0 20.5-26.9 43.1-80.7 22.7-53.8 34.1-85.8 34.4-96.1.2-10.3-3.2-15.4-10.2-15.4H47c-7 0-10.4 5.1-10.2 15.4.2 10.3 11.7 42.3 34.4 96.1s37.1 80.7 43.1 80.7h108zM168.3 21c6.5 0 12-3.5 16.5-10.5 4.4-7 13.4-10.5 27-10.5 13.1 0 21.9 3.5 26.3 10.5 4.4 7 10.2 10.5 17.2 10.5 6.5 0 12.4-3.5 17.5-10.5C278 3.5 286.2 0 297.4 0c10.3 0 18.4 2.2 24.2 6.7s9.9 14.8 12.3 31.2c1.9 15.4 2.8 31.3 2.8 47.7-40.2 113.6-73.4 185.6-99.6 216H99.6C73.4 271.2 40.2 199.2 0 85.6c0-16.4.9-32.3 2.8-47.7C5.1 21.5 9.2 11.1 15.1 6.7 20.9 2.2 29 0 39.3 0c11.2 0 19.4 3.5 24.5 10.5 5.1 7 11 10.5 17.5 10.5 7 0 12.6-3.5 16.8-10.5 4.2-7 13.1-10.5 26.7-10.5s22.6 3.5 27 10.5c4.5 7 10 10.5 16.5 10.5zm43.5 0c-10.3 0-15.4 5.4-15.4 16.1 0 11.2 5.1 16.8 15.4 16.8 9.4 0 14-5.6 14-16.8.1-10.7-4.6-16.1-14-16.1zm85.6 0c-10.3 0-15.4 5.4-15.4 16.1 0 11.2 5.1 16.8 15.4 16.8 9.4 0 14-5.6 14-16.8 0-10.7-4.6-16.1-14-16.1z"/></svg>