<svg xmlns="http://www.w3.org/2000/svg" viewBox="-10 0 759 717"><path d="M160 717L-10 161h82q-16-12-25.5-30.5T37 90q0-37 27-63.5T128 0q26 0 47.5 13.5T208 49q11-22 33-35.5T289 0q26 0 47.5 13.5T369 49q11-22 33-35.5T450 0q26 0 47.5 13.5T530 49q11-22 33-35.5T611 0q38 0 64 26.5T701 90q0 46-35 71h83L579 717zm-32-556q29 0 49.5-21T198 90q0-31-20.5-51T128 19q-30 0-50.5 21T57 90q0 29 20.5 50t50.5 21zm161 0q29 0 49.5-21T359 90q0-31-21-51t-49-20q-28 0-49.5 20T218 90q0 29 21 50t50 21zm161 0q29 0 50-20.5T521 90q0-31-21-51t-50-20q-29 0-50 20t-21 51q0 29 21 50t50 21zm161 0q29 0 50-21t21-50q0-29-21-50t-50-21q-28 0-49.5 20T540 90q0 29 21 50t50 21zm-428 0h50q-17-13-25-30-8 17-25 30zm161 0h50q-17-13-25-30-9 19-25 30zm161 0h50q-17-13-25-30-9 19-25 30zM174 697h390l158-516H16z" fill="currentColor"/></svg>