<svg xmlns="http://www.w3.org/2000/svg" viewBox="-10 0 1130 1019"><path d="M120 1019l-18-14 19-26q9-13 17.5-23.5T177 945h134V709q0-26-3-60t-9-71q-55 18-103.5 29T110 618q-34 0-64.5-9T-2 591v-34q19 3 38.5 5.5T89 565q16 0 33.5-3t27.5-5q-27-24-60.5-60.5t-62-82Q-1 369-10 320l39 3q12 29 37 61t55 61q30 29 59.5 51.5T231 530q14-5 27.5-9.5T286 510q-2-7-4-14.5t-4-14.5l-74-89q-33-39-53.5-79.5T130 210q0-48 9-101.5T168 0h240q16 40 27 86.5t14 93.5q32 10 69 32.5t59 42.5q29 11 47.5 27.5T657 318l89 125q31 0 76-2.5t92.5-6.5q47.5-4 87.5-7.5t61-6.5l17 94-282 3 322 451-51 43-132-135 55 119-202-17-99-192-52-31 19 102-18 8-80-43v123h96q30 0 38.5 10.5T712 979l20 26-20 14-12-18H338l-13 18-18-14 3-4H133zm196-521q20-8 40-17l40-18 23-9q-34-16-77.5-41.5T264 351l21-32q22 13 46 26v-4q0-38 24-60t59-31q35-9 69-9 26 0 47 3-24-16-52.5-31T429 191q0-42-10.5-89T394 20H182q-17 51-24.5 100t-7.5 96q0 40 11.5 70.5T189 340q16 23 29 38zm41-361q-15 0-25-10t-10-25q0-14 10-24.5T357 67q14 0 24 10.5t10 24.5q0 15-10 25t-24 10zm-137 0q-15 0-25-10t-10-25q0-14 10-24.5T220 67q14 0 24 10.5t10 24.5q0 15-10 25t-24 10zm137-16q7 0 12.5-6t5.5-13q0-7-5.5-12.5T357 84q-19 0-19 18 0 7 5.5 13t13.5 6zm-137 0q7 0 12.5-6t5.5-13q0-7-5.5-12.5T220 84q-7 0-13 5.5t-6 12.5q0 7 6 13t13 6zm61 106l-33-89 18-7 23 62 19-62 17 5-29 91zm442 216l-81-113q-23-31-59-51t-94-20q-32 0-64.5 7T371 291.5Q350 310 350 344q0 8 1 11 104 52 195 69t177 19zM110 598q48 0 115-18t144.5-48Q447 502 526 466l109 17 1 19q-30 10-56 25t-47 31q44-21 104.5-40.5T767 497l286-2-9-53q-24 3-62 6.5t-82 7q-44 3.5-85.5 5.5t-70.5 2q-69 0-141-8t-149.5-33Q376 397 292 348l-1 2q34 35 82 60t95 41l-65 30q-43 20-84 36t-91 32q-21-10-50-32.5t-60-52Q87 435 60 403t-43-60h-2q10 33 31.5 66t48 63q26.5 30 52 53.5T190 563q-20 8-47.5 14.5T89 584q-18 0-36-.5T21 581q14 7 37 12t52 5zm421-61q14-10 30.5-20t38.5-19l-72-12q-19 10-41 18zM351 984h337l-16-22H564l-23-17V806l9-13 84 45-19-103 12-10 81 48 97 186 153 13-61-135-350-263-24 12-18-30q2-1 4.5-3t4.5-4l-47-35q-26 11-52 21.5T363 555l85 102q31 37 42.5 73.5T502 816v129l-21 17H366zm720 2l25-22-321-447h-8q-54 1-105 15t-94 32l345 258zm-925-2h176l4-5q8-11 15-21t29-12V769l17-13 95 78v-19q0-51-12-84.5T434 669l-90-107-24 9q5 31 8 63.5t3 67.5v243l-21 17H161zm243-39h93v-84l-93-76z" fill="currentColor"/></svg>