<svg version="1" xmlns="http://www.w3.org/2000/svg" width="381.3" height="202.7" viewBox="0 0 286 152"><path d="M11.6 2C4.2 4.3-.9 13.7.6 22.3 1.9 30.5 9.5 35.4 37 45.9c14.4 5.6 22.3 10.3 52.5 31.2 39.2 27.2 37.5 26.4 85.9 39.9 44.8 12.5 48.5 13.9 66.8 25.5 11.9 7.6 15.7 8.8 25.4 8.3 5.9-.3 7.7-.8 10.8-3.2 4.5-3.4 6.6-7.9 6.6-14.2 0-10.5-9-17.3-33.5-25.4-13.6-4.4-22.2-9.6-50.2-29.8-40.4-29.2-44.5-31-115.2-51.3-25.4-7.3-28.2-8.3-37.5-13.8-14.8-8.8-20.8-11.3-28-11.7a33 33 0 0 0-9 .6zM30 10.1c2.5 1.1 9 4.6 14.5 7.9C56 24.7 69.4 29.3 100 37c45.8 11.5 57.7 17.4 106.5 52.4 20.6 14.8 26.7 18.2 45 24.9 15.3 5.6 21.6 8.8 24.9 12.7 5.1 6.1 2.6 14.5-5.1 17.1-7.7 2.5-17.5-.4-30.3-9.1-12.3-8.3-19.4-11-62-23.1-17.3-5-34.6-10.2-38.5-11.6-12.4-4.5-23.6-11-41.5-23.9C63.9 51.1 55.4 46.1 34.1 38 7.9 28.1 2.7 23.2 7.8 13c3-6.2 12-7.3 22.2-2.9z"/></svg>