<svg xmlns="http://www.w3.org/2000/svg" viewBox="-10 0 905 478"><path d="M831 478q-23 0-42.5-10T750 444.5Q731 431 710 421q-27-13-70-26t-90-25.5Q503 357 462 345t-65-23q-24-11-58-34.5T266.5 237Q228 210 193 187t-60-34q-18-8-42-16.5T44 118Q21 108 5.5 94T-10 60q0-24 9.5-37T22 5q13-5 24-5 25 0 47.5 10.5t44 24.5Q159 49 181 59q44 13 98 28t108 32q54 17 97 35 39 17 83 47.5t88.5 63.5q44.5 33 87.5 57 14 8 39 16t51 18.5q26 10.5 44 26t18 39.5q0 24-16 40t-48 16zm0-20q22 0 33.5-10t11.5-26q0-16-15-28t-37.5-21q-22.5-9-46.5-17t-41-16q-21-9-52-31t-67.5-48.5q-36.5-26.5-73-51T477 171q-72-33-149.5-51T175 77q-20-7-41-20.5t-43-25Q69 20 46 20q-11 0-24 7.5T9 60q0 14 15 24.5T61 104q22 9 44 16.5t36 14.5q52 25 98.5 58.5t88.5 64q42 30.5 78 46.5 25 12 66.5 24t88.5 25q47 13 89 26t69 25q16 8 34.5 21t38 23q19.5 10 39.5 10z" fill="currentColor"/></svg>