<svg xmlns="http://www.w3.org/2000/svg" viewBox="-10 0 709 709"><path d="M344 709q-12 0-24-17.5t-21.5-46q-9.5-28.5-15.5-62t-6-65.5q0-43 13.5-79t23.5-53l-1-1q-17 10-53 23.5T181 422q-47 0-91-10t-72-25.5Q-10 371-10 355q0-12 17.5-24t46-22q28.5-10 62-15.5T181 288q43 0 78.5 13.5T312 324l2-1q-10-17-23.5-52.5T277 192q0-32 6-65.5T298.5 64Q308 35 320 17.5T344 0q17 0 32.5 28t25 72.5Q411 145 411 192q0 42-13 77.5T375 322l2 2q17-10 52.5-23t77.5-13q32 0 65.5 5.5T635 309q29 10 46.5 22t17.5 24q0 16-28 31.5T599 412q-44 10-92 10-42 0-78-13.5T377 385l-2 2q9 17 22.5 52.5T411 518q0 47-9.5 91t-25 72Q361 709 344 709zm-14-396q7-3 15-3 5 0 13 2 3-5 11-24t15.5-44.5Q392 218 392 192q0-27-5-56t-12.5-55q-7.5-26-16-42T344 23q-6 0-14 16t-15.5 42q-7.5 26-12.5 55t-5 56q0 43 13 75.5t20 45.5zm-149 89q26 0 52-7.5t45-15.5q19-8 24-11-1-3-1.5-6t-.5-7q0-6 2-14-13-8-45.5-21T181 307q-26 0-55.5 5T70 324.5q-26 7.5-42 16T12 355q0 6 16 14t42 15.5q26 7.5 55.5 12.5t55.5 5zm326 0q27 0 56-5t55-12.5q26-7.5 42-15.5t16-14q0-6-16-14.5t-42-16q-26-7.5-55-12.5t-56-5q-42 0-74.5 13T387 341q2 8 2 14 0 4-.5 7t-1.5 7q6 3 24.5 11t44 15q25.5 7 51.5 7zm-162-22q10 0 17.5-7.5T370 355q0-10-7.5-17.5T345 330q-10 0-17.5 7.5T320 355q0 10 7.5 17.5T345 380zm-1 307q6 0 14.5-16t16-42q7.5-26 12.5-55.5t5-55.5q0-25-7-50.5t-15.5-45Q361 403 358 397q-3 2-6.5 2H345q-4 0-7.5-.5T330 397q-7 13-20 45.5T297 518q0 26 5 55.5t12.5 55.5q7.5 26 15.5 42t14 16z" fill="currentColor"/></svg>