<svg xmlns="http://www.w3.org/2000/svg" viewBox="0 0 435 436.5"><path d="M217.1 28.7c-14.1 0-19.4 14.9-15.9 44.6 2 22.2 7.3 49.7 15.9 82.5 8.6-32.8 14.1-60.3 16.6-82.5 3.1-29.7-2.4-44.6-16.6-44.6zm0 379.1c14.1 0 19.4-14.9 15.9-44.6-2-22.7-7.3-50.4-15.9-83.2-8.6 32.8-14.1 60.5-16.6 83.2-3 29.7 2.5 44.6 16.6 44.6zm189.2-189.9c0-13.6-14.9-18.9-44.6-15.9-22.2 2-49.9 7.3-83.2 15.9 33.3 8.6 61 14.1 83.2 16.6 29.7 3.1 44.6-2.5 44.6-16.6zm-224 35.5c-9.6-6.6-21.2-9.8-34.8-9.8-9.6 0-24.5 2.5-44.6 7.6-20.2 5-37.7 7.6-52.6 7.6-14.9 0-27-3.4-36.3-10.2-9.3-6.8-14-17.3-14-31.4 0-14.1 4.9-24.5 14.8-31 9.8-6.6 21.9-9.8 36.3-9.8 14.4 0 31.6 2.5 51.8 7.6 20.2 5 34.8 7.6 43.9 7.6 14.1 0 26-3 35.6-9.1 5.5-9.6 8.3-21.2 8.3-34.8 0-9.1-2.5-23.7-7.6-43.9-5-20.2-7.4-37.7-7.2-52.6.3-14.9 3.7-27.1 10.2-36.7C192.7 4.8 203 0 217.1 0c14.1 0 24.5 4.9 31 14.8 6.6 9.8 10 22.1 10.2 36.7.3 14.6-2.1 32-7.2 52.2-5 20.2-7.6 34.8-7.6 43.9 0 13.6 3 25.5 9.1 35.6 9.6 6.1 20.9 9.1 34 9.1 9.6 0 24.5-2.5 44.6-7.6 20.2-5 37.7-7.6 52.6-7.6 14.9 0 27.1 3.4 36.7 10.2 9.6 6.8 14.4 17 14.4 30.6 0 14.1-4.9 24.5-14.8 31-9.8 6.6-22.1 10-36.7 10.2-14.6.3-32-2.1-52.2-7.2-20.2-5-34.8-7.6-43.9-7.6-13.6 0-25.5 3-35.6 9.1-5.5 9.6-8.3 21.2-8.3 34.8 0 9.6 2.5 24.5 7.6 44.6 5 20.2 7.4 37.7 7.2 52.6-.3 14.9-3.7 27.1-10.2 36.7-6.6 9.6-16.9 14.4-31 14.4-14.1 0-24.5-4.9-31-14.8-6.6-9.8-10-22.1-10.2-36.7-.3-14.6 2.1-32 7.2-52.2 5-20.2 7.6-34.8 7.6-43.9.1-14-2.7-25.9-8.3-35.5zM28 217.1c0 14.1 14.9 19.7 44.6 16.6 22.7-2.5 50.4-8.1 83.2-16.6-32.8-8.6-60.5-14.1-83.2-16.6-29.7-2.5-44.6 3-44.6 16.6zm214.9.8c-1.5-15.1-9.8-23.2-25-24.2-14.6.5-22.7 8.6-24.2 24.2 1 15.1 8.6 23.5 22.7 25 16.6 0 25.4-8.4 26.5-25z"/></svg>