<svg xmlns="http://www.w3.org/2000/svg" viewBox="0 0 595.3 437.5"><path d="M88.6 55.8H57.4l15.4 44.1 15.8-44.1zm326.9 0h-31.8l15.9 44.1 15.9-44.1zM502 418.5h48.7l17.9-65.6H483l19 65.6zM147.5 147c-12.3 0-18.4 14.3-18.4 43 0 28.3 6.1 42.5 18.4 42.5 14.7 0 22-14.2 22-42.5.1-28.6-7.3-43-22-43zm89.2 0c-12.3 0-18.4 14.3-18.4 43 0 28.3 6.1 42.5 18.4 42.5 14.3 0 21.5-14.2 21.5-42.5 0-28.6-7.2-43-21.5-43zm97.8-91.2v71.7c19.5 0 29.3 20.6 29.5 61.7.2 41.2-12.7 61.7-38.7 61.7-25.6 0-38.4-20.5-38.4-61.5 0-41.3 9.9-62 29.7-62V55.8h-71.2V128c19.5 0 29.3 20.6 29.5 61.7.2 41.2-12.6 61.7-38.2 61.7s-38.4-20.5-38.4-61.5c0-41.3 9.9-62 29.7-62V55.8h-71.7V128c19.5 0 29.3 20.6 29.5 61.7.2 41.2-12.6 61.7-38.2 61.7s-38.4-20.5-38.4-61.5c0-41.3 9.7-62 29.2-62V55.8H106l-22 64.5v317.1H61.5v-317L40 55.8H0V34.3h33.8L21 0h17.4l12.8 34.3h44.1L108.1 0h17.4l-13.3 34.3h248.5L347.3 0h17.4L378 34.3h43.5L434.9 0h17.4L439 34.3h12.8c26.3 1.4 47 24.8 62 70.2 15 45.4 22 121.8 21 229h60.5l-30.7 104h-76.8L458 334h60.5c3.4-186.8-18.8-279.5-66.6-278.2h-19l-22.5 64.5v317.1h-22v-317l-21.5-64.5h-32.4zm-9.2 91.2c-12.3 0-18.4 14.2-18.4 42.5S313 232 325.3 232c14.7 0 22-14.2 22-42.5s-7.3-42.5-22-42.5z"/></svg>