<svg xmlns="http://www.w3.org/2000/svg" viewBox="0 0 595.3 474"><path d="M136.9 57l14.2 42.7L164.8 57h-27.9zm292.5 0L443 99.7 457.3 57h-27.9zm-244.3 0l-22.5 69.6V474h-23V126.5L117.2 57H79.4c-17.5 0-31.6 11.7-42.2 35-6.9 16.8-13.3 44-19.2 81.6l-18-2.7c0-7.7 2.6-23.7 7.7-48.2 14.6-58.8 38.5-88.2 71.7-88.2h30.7L99.1 0h19.2l11 34.5h43.3l11-34.5h19.7l-11.5 34.5h210.8L391 .5l20.3-.5 10.4 34.5h42.7l11-34.5h20.8l-11.5 34.5h30.7c33.6 0 57.7 29.4 72.3 88.2 5.1 24.5 7.7 40.5 7.7 48.2l-18.6 2.7c-5.5-37.6-11.9-64.8-19.2-81.6-10.6-23.4-25.2-35-43.8-35h-35.6l-23 69.6V474H431V126.5L409.6 57H185.1z"/></svg>