<svg xmlns="http://www.w3.org/2000/svg" viewBox="0 0 214.8 594.6"><path d="M86.1 301v-54.7c-18.7 0-28 8.9-28 26.7-.1 18.7 9.3 28 28 28zm24.6 192.2c49.8.4 75.2 34.2 82.7 101.4H0c7.6-67.2 36.2-101 86.1-101.4V319.7c-31.6 0-47.4-15.6-47.4-46.7.4-30.7 16.2-46 47.4-46V75.6c0-28 10.1-49.4 30.4-64 20.2-14.7 49-15.3 86.4-2 8.4 2.2 12.5 6 12 11.3-2.2 4.9-7.1 6-14.7 3.3-35.6-8.9-56.6-8.6-69.7 1-13.1 9.6-19.7 31.2-19.7 65v403zm60.7 83.3c-10.7-43.1-35.6-64.7-74.7-64.7-40 0-64.9 21.6-74.7 64.7h149.4z"/></svg>