<svg xmlns="http://www.w3.org/2000/svg" viewBox="-10 0 698 1026"><path d="M339 1026q-64 0-126.5-6.5T100 1001q-50-12-80-29t-30-38q0-20 26.5-36T88 869.5Q133 857 189.5 850t116.5-9V505q-49-4-83-23.5T189 414q0-36 15.5-54.5t42-26Q273 326 306 323V126q0-28 15-57.5t45-49Q396 0 440 0q29 0 52.5 10T530 34q14 14 14 26 0 20-12 27t-26 7q-6 0-11.5-3T483 84q-8-5-17-10t-22-5q-29 0-44.5 16.5t-21 38.5q-5.5 22-5.5 40v677q60 2 116.5 9T591 869.5q45 12.5 71 28.5t26 36q0 21-30 38t-80 29q-50 12-112.5 18.5T339 1026zm-14-185h29V164q0-22 7.5-49T388 68.5Q407 49 444 49q17 0 29 6.5T494 68q7 6 12 6 7 0 12.5-2.5T524 60q0-11-24.5-25.5T440 20q-38 0-63.5 16.5t-38.5 41Q325 102 325 126zm-19-350v-13q-34-1-61.5-13.5T217 414q0-38 27.5-50t61.5-14v-12q-41 2-71.5 16.5T204 414q0 40 30 56.5t72 20.5zm0-28v-98q-29 2-51.5 12T232 414q0 27 22.5 37.5T306 463zm33 544q61 0 119.5-6.5t105.5-17q47-10.5 74.5-23.5t27.5-26q0-13-27.5-26T564 884q-47-11-105.5-17.5T339 860q-61 0-119.5 6.5T114 884q-47 11-74.5 24T12 934q0 13 27.5 26t74.5 23.5q47 10.5 105.5 17T339 1007z" fill="currentColor"/></svg>