<svg xmlns="http://www.w3.org/2000/svg" viewBox="0 0 269.9 594.6"><path d="M125.7 299.4v-53.9c-19.1 0-28.6 8.6-28.6 25.9 0 19.1 9.5 28.4 28.6 28zm23.9 224c24.8 0 51.2 8 85.8 23.9l29.3 4.7c7.1 4.9 7.1 10 0 15.3l-29.3 4c-66 31-132.1 31-198.1 0l-32.6-4c-6.2-5.3-6.2-10.4 0-15.3l32.6-4.7c33.7-16 63.2-23.9 88.4-23.9V318.6c-31.9 0-47.9-15.7-47.9-47.2.4-30.1 16.4-45.2 47.9-45.2V75.3c0-27.9 10-49.2 29.9-63.8 19.9-14.6 48.5-15.3 85.8-2 8.4 2.2 12.4 5.8 12 10.6-2.2 5.3-7.1 6.6-14.6 4-35.5-8.9-56.4-8.5-69.5 1-13.1 9.5-19.6 31.1-19.6 64.8v433.5zm-89.1 37.3c50.5 17.7 101.1 17.7 151.6 0V558c-50.5-17.7-101.1-17.7-151.6 0v2.7z"/></svg>