<svg xmlns="http://www.w3.org/2000/svg" viewBox="-10 0 354 1026"><path d="M12 1026V776h95V545q-49-5-83-24.5T-10 453q0-36 15.5-54.5T48 372q27-8 59-10V126q0-28 15-57.5t44.5-49Q196 0 241 0q29 0 52.5 10t37 24Q344 48 344 60q0 20-11.5 27T307 94q-6 0-11.5-3T283 84h1q-7-5-16.5-10T245 69q-29 0-44.5 16.5t-21 38.5q-5.5 22-5.5 40v612h88v250zm114-250h28V164q0-22 7.5-49t27-46.5Q208 49 245 49q17 0 28.5 6.5T295 68q8 6 12 6 7 0 12.5-2.5T325 60q0-11-24.5-25.5T241 20q-38 0-63.5 16.5t-38.5 41Q126 102 126 126zm-19-246v-13q-34-1-61.5-13.5T18 453q0-37 27.5-50t61.5-14v-12q-42 2-72.5 16.5T4 453q0 41 30 57t73 20zm0-28v-98q-29 2-51.5 12T33 453q0 27 22.5 37t51.5 12zm-76 504h211V796H31z" fill="currentColor"/></svg>