<svg xmlns="http://www.w3.org/2000/svg" viewBox="-10 0 1183 620"><path d="M192 620q-15 0-39.5-2T100 608q-28-8-53-26T6 533.5Q-10 503-10 456q0-56 23-88.5t56.5-49Q103 302 134 296v-99q-23-9-35-42l-16-42q-4-11-17-28.5T25 58V38q22-13 56-25.5T161 0q47 0 80.5 12.5T297 38v20q-28 9-41 26.5T239 113l-15 42q-14 33-35 42v94h138v-41q-8-2-17.5-9t-9.5-27q0-14 4-41.5t11-57q7-29.5 16.5-50T352 45q11 0 20.5 20.5t16.5 50q7 29.5 11 57t4 41.5q0 20-9.5 27t-17.5 9v41h177v-94q-23-9-35-42l-15-42q-5-11-17.5-28.5T446 58V38q22-13 55.5-25.5T582 0q47 0 80 12.5T717 38v20q-27 9-40 26.5T660 113l-16 42q-12 33-35 42v94h177v-41q-7-2-17-9t-10-27q0-14 4-41.5t11-57q7-29.5 16.5-50T811 45q11 0 20.5 20.5t16.5 50q7 29.5 11 57t4 41.5q0 20-10 27t-17 9v41h139v-94q-23-9-35-42l-16-42q-4-11-17-28.5T866 58V38q23-13 56-25.5T1002 0q47 0 80 12.5t56 25.5v20q-28 9-40.5 26.5T1080 113l-15 42q-14 34-36 42v99q32 6 65 22.5t56 49q23 32.5 23 88.5 0 47-16 77.5t-41 48.5q-25 18-52.5 26t-52.5 10q-25 2-40 2zm0-19h779q17 0 47-3.5t61.5-17q31.5-13.5 53-43T1154 456q0-40-14-66t-36.5-42q-22.5-16-47.5-24t-46-11V183q11-4 21-12.5t15-22.5l16-42q4-11 16.5-30t37.5-31q-17-9-44-17.5t-70-8.5q-41 0-68.5 9.5T887 48q26 10 38.5 29t16.5 29q4 10 8 21t8 21q5 14 15 22.5t21 12.5v129q-7-1-13-1H816v-81q9 1 18.5-2.5T844 214q0-12-3.5-34.5t-8.5-46q-5-23.5-11-40T811 77q-4 0-10 16.5t-11 40q-5 23.5-8.5 46T778 214q0 10 9.5 13.5T806 230v81H589V183q12-4 22-12.5t15-22.5l15-42q4-11 16.5-30T695 45q-16-9-43-17.5T582 19q-43 0-70 8.5T468 45q25 12 37 31t17 30l16 42q10 27 36 35v128H358v-81q9 1 18-2.5t9-13.5q0-12-3.5-34.5t-8.5-46q-5-23.5-10.5-40T352 77q-5 0-10.5 16.5t-10.5 40q-5 23.5-8.5 46T319 214q0 10 9.5 13.5T347 230v81H182l-13 1V183q26-8 36-35 4-10 8-21t8-21q4-10 16.5-29T276 48q-19-10-47-19.5T161 19q-43 0-70.5 8.5T47 45q26 12 38 31t17 30l15 42q5 14 15 22.5t21 12.5v130q-21 3-46 11t-47.5 24Q37 364 23 390T9 456q0 52 22 81.5t53 43q31 13.5 61 17t47 3.5zm30-36q-16 0-44-2.5T120.5 550Q91 540 71 518t-20-62q0-39 20.5-61t50-32.5Q151 352 179 349t43-3h719q15 0 43 3t57.5 13.5q29.5 10.5 50 32.5t20.5 61q0 40-20.5 62t-49.5 32q-29 10-57 12.5t-44 2.5zm0-19h719q14 0 39-2t51-10.5q26-8.5 44-26.5t18-51q0-32-18.5-50.5t-45-27q-26.5-8.5-51-11T941 365H222q-13 0-37.5 2.5t-51 11q-26.5 8.5-45 27T70 456q0 33 18 51t44 26.5q26 8.5 51 10.5t39 2z" fill="currentColor"/></svg>