<svg xmlns="http://www.w3.org/2000/svg" viewBox="0 0 595.3 336.2"><path d="M75 304.1c-29.5 0-44.3-13.9-44.3-41.6 0-27.3 14.8-40.9 44.3-40.9h443.9c30.5 0 45.7 13.6 45.7 40.9 0 27.3-15 41.1-45 41.6H75zm79.8-275.5c-15.9 10.5-25.5 23-28.6 37.5-3.2 14.5-8.8 23-16.7 25.2-8 2.3-16 2.3-24.2 0s-13.9-10.7-17-25.2c-3.2-14.5-12.5-27-28-37.5 14.1-6.8 33.2-10.2 57.3-10.2 23.5 0 42.6 3.4 57.2 10.2zM193 158.2c-12.7-7.3-16.7-18.8-11.9-34.4S189.8 95 193 84.5c3.2 10.5 7.2 23.5 11.9 39.2s.8 27.2-11.9 34.5zM556.4 28.6c-15.5 10.5-24.8 23-28 37.5-3.2 14.5-8.9 23-17 25.2-8.2 2.3-16.4 2.3-24.5 0-8.2-2.3-13.8-10.7-16.7-25.2-3-14.5-12.4-27-28.3-37.5 14.5-6.8 33.6-10.2 57.3-10.2 24 0 43.1 3.4 57.2 10.2zM394.8 158.9c-12.7-7.7-16.7-19.3-11.9-34.8 4.8-15.5 8.8-28.4 11.9-38.9 2.7 10.5 6.6 23.4 11.6 38.9s1.1 27-11.6 34.8zM354.6 28.6c-15.5 10.5-24.8 23-28 37.5-3.2 14.5-8.9 23-17 25.2-8.2 2.3-16.4 2.3-24.5 0-8.2-2.3-13.8-10.7-16.7-25.2-3-14.5-12.4-27-28.3-37.5 14.5-6.8 33.6-10.2 57.3-10.2 24 0 43.1 3.4 57.2 10.2zm52.5 161v-19.8c15.5-15 20.7-30.2 15.7-45.7-5-15.5-8.7-28.3-11.3-38.5-2.5-10.2-8.1-15.3-16.7-15.3s-14.3 5.1-17 15.3c-2.7 10.2-6.5 23.1-11.3 38.5-4.8 15.5.8 30.7 16.7 45.7v19.8h-75.7v-81.8c16.4 0 27.7-10.6 34.1-31.7C348 55 358.4 44.4 373 44.4c3.6-3.6 5.5-8.2 5.5-13.6 0-11.8-10.6-19.9-31.7-24.2S309.1 0 297.3 0c-11.8 0-28.2 2.2-49.1 6.5-20.9 4.3-31.4 12.4-31.4 24.2 0 5.5 1.6 10 4.8 13.6 14.5 0 25 10.6 31.4 31.7 6.4 21.1 16.6 31.7 30.7 31.7v81.8h-78.4V169c15.5-14.5 20.8-29.7 16-45.3-4.8-15.7-8.5-28.6-11.3-38.9-2.7-10.2-8.4-15.3-17-15.3-8.2 0-13.8 5.1-16.7 15.3-3 10.2-6.8 23.2-11.6 38.9s.8 30.8 16.7 45.3v20.5h-73.6v-81.8c16.4 0 27.6-10.6 33.8-31.7s16.5-31.7 31-31.7c3.6-3.6 5.5-8.2 5.5-13.6 0-11.8-10.5-19.9-31.4-24.2S109.3 0 97.5 0C85.2 0 68.6 2.2 47.7 6.5S16.4 18.9 16.4 30.7c0 5.5 1.8 10 5.5 13.6 14.5 0 24.9 10.6 31 31.7s16.3 31.7 30.3 31.7h.7v81.8h-8.2c-50.5 0-75.7 24.3-75.7 73 0 49.1 25 73.6 75 73.6h444.6c50 0 75.2-24.5 75.7-73.6 0-48.6-25.5-73-76.4-73H510v-81.8c15.9 0 27-10.6 33.4-31.7 6.4-21.1 16.8-31.7 31.4-31.7 3.6-3.6 5.5-8.2 5.5-13.6 0-11.8-10.5-19.9-31.4-24.2S511.4 0 499.1 0c-11.8 0-28.2 2.2-49.1 6.5-20.9 4.3-31.4 12.4-31.4 24.2 0 5.5 1.8 10 5.5 13.6 14.5 0 24.9 10.6 31 31.7 6.1 21.1 16.3 31.7 30.3 31.7h.7v81.8h-79z"/></svg>