<svg xmlns="http://www.w3.org/2000/svg" viewBox="0 0 525.1 445"><path d="M78 28.1c3.1 0 165.5 50.7 163.6 50.8l-82.9 6.2s-82.8-57-80.7-57zm27 46.3l29.7 14.9-34.9 5.3-43.7-18.4 48.9-1.8zm169.5 17l.1 65.5h-.3c-8.5 0-174.4-35.4-189.2-37.5-21.4-3-20.9-6.2 1.2-8.6 7.8-.8 188.2-19.4 188.2-19.4zM90.6 140c4.9 0 44.9 5 44.9 6.6 0 2.9-27.9 13.8-36.8 16.1-3.5.9-47.2-.4-49.1-.5-10.6-.8 39.6-22.2 41-22.2zm64 15.1l89.6 12.7L45.7 218l108.9-62.9zm144.5-65.7c11.4 0 37.9 11.4 46.5 23.3 7.3 10.1 2.7 16.5-.2 20.6-11.3 16-49.3 23-49.7 22-2-5-5.3-8.8-5.4-34.1.1-26.9 4.7-31.8 8.8-31.8zM17.8 4c-1.5 4 4.9 9.7 20.4 18.1 13.6 7.4 50.6 32.8 50 34.8-.4 1.3-17.1 2.5-41.7 3.2-39.6 1-41.1 1.2-41.7 5.5-.9 6.4 1.9 8 31.7 17.7 34.4 11.3 39.2 16.4 18 18.3-49 4.3-52.2 9.8-52.2 12.4 0 5.8 7.6 9.6 18.9 9.6 8 0 43.9 7.6 45.7 9.5.5.5-45.1 23.6-50.9 25.5-15.8 5.2-21.2 16.7-10 19.1 3.2.7 69.7 1.8 68.6 2.6L3.7 229.7c-5.6 3.9-2.9 16.6 7.2 16.6 4.5 0 281.4-75.1 286.3-75.1 17.6 0 51.3-20.9 56.3-23.8 4.1-2.5 6-8.7 16.1-3.8 87.9 42.3 128.8 44.7 122.1 199.8L490.6 445l33.1-.8.6.6.8-187.4c.4-85-104.1-138.4-153.4-148.9-9.2-2-11.4-.9-14.6-4.9-2.5-3.1-33.8-24.3-55.1-28.2C268.9 69.5 72.7 6 46.3 1.9 20.7-2.2 18.9 1.2 17.8 4z"/></svg>