<svg xmlns="http://www.w3.org/2000/svg" viewBox="-10 0 1081 665"><path d="M1015 665l-47-11q9-21 22-55.5t22.5-71q9.5-36.5 9.5-64.5 0-49-27-76.5t-70-40Q882 334 833.5 331t-91.5-3q-7 35-37.5 60T633 430h-1l-259 52q-74 15-142 41t-115 76l-10 10-9 9-26-16q4-17 27.5-50.5T159 482h-5q-24 0-53 2t-52.5 3.5Q25 489 19 490l-9-27 138-85q-46-11-89.5-28.5T-10 309q25-23 68.5-40.5T148 240L10 155l9-27q6 1 29.5 2.5T101 134q29 2 53 2h5q-37-36-60.5-69.5T71 16L97 0l9 9 10 10q47 50 115 76t142 41l259 53 1-1q38 15 67 38t39 54h31q113 0 179 24.5t94 65.5q28 41 28 93 0 29-9.5 66.5T1039 603q-13 36-24 62zM573 275q5-19 15.5-35.5T616 206l-247-50q-50-11-102.5-28T169 85q-45-26-73-62l-3 2q9 22 38.5 56.5t70.5 69q41 34.5 86 56.5 53 26 124 40t161 28zm-398-42q26-5 49-9t42-6q-23-12-45-28.5T179 155q-5 1-11.5 1H154q-24 0-50-2.5T57.5 148Q37 145 30 145l4 2zm829 410q10-24 21-56t19-65q8-33 8-59 0-48-26-85t-87.5-58.5Q877 298 770 298h-16l-30 1q-4-30-28-52t-59-36q-23 25-36 47.5T588 309q0 28 13 50.5t36 47.5q38-16 62.5-40.5T724 310q53 0 108.5 4t103 18.5q47.5 14.5 77 45.5t29.5 85q0 24-8 58t-19.5 66.5Q1003 620 993 641zM301 384q52-22 119-34.5T569 324q-1-4-1-7.5v-15l1-7.5q-82-13-149-25t-119-35v1q-17 0-53 4.5T169 253q-43 9-83 23t-66 33q26 19 66 33t83 23q43 9 79 13.5t53 4.5zM96 595q28-36 73-62t97.5-43Q319 473 369 462l247-49q-17-18-27.5-34.5T573 344q-90 14-161 27.5T288 411q-45 22-86 56.5t-70.5 69Q102 571 93 593zM28 470l5-1q17-2 53.5-4.5T154 462h13.5l11.5 1q43-38 87-63-19-2-42-5.5t-49-9.5z" fill="currentColor"/></svg>