<svg xmlns="http://www.w3.org/2000/svg" viewBox="-10 0 593 592"><path d="M286 592q-61 0-114.5-23T77 505.5q-41-40.5-64-94T-10 296q0-62 23-115.5t64-94Q118 46 171.5 23T286 0q61 0 115 23t95 63.5q41 40.5 64 94T583 296q0 62-23 115.5t-64 94Q455 546 401 569t-115 23zM9 278q15-14 41.5-35t62.5-41.5q36-20.5 80-34t93-13.5q49 0 93 13.5t80 34q36 20.5 62.5 41.5t41.5 35q-2-48-23-94.5T481.5 100Q444 63 394 41T286 19q-58 0-107.5 22t-87 59q-37.5 37-59 83.5T9 278zm277 295q75 0 137-35.5t100-97Q561 379 563 302q-14-16-41.5-37.5T457 222q-37-21-80.5-35T286 173q-47 0-90.5 14T115 222q-37 21-64.5 42.5T9 302q3 77 40.5 138.5t99.5 97Q211 573 286 573z" fill="currentColor"/></svg>