<svg xmlns="http://www.w3.org/2000/svg" viewBox="0 0 310.6 317.5"><path d="M310.4 153.3c2.1 42.1-12.1 80-42.8 113.7s-67.9 50.6-111.7 50.6c-44.2 0-81.4-16.9-111.4-50.6S-.4 195.1 0 152.6c0-42.9 16.6-79.1 49.9-108.5C83.2 14.7 118.5 0 155.9 0c37.4 0 72.6 14.7 105.6 44.1 33 29.4 49.3 65.8 48.9 109.2zm-20-11c-4.3-36.1-20.7-65.1-49.3-87.3-28.6-22.1-57.1-33.2-85.6-33.2-28.6 0-57.2 11.1-86 33.2-28.8 22.1-45.1 51.2-48.9 87.3 38.6-36.9 83.7-55.4 135.2-55.4 51.6 0 96.4 18.5 134.6 55.4zm0 27.1c-45.1-40.4-89.9-60.5-134.6-60.5-45.1 0-90.2 20.2-135.2 60.5 8.2 40.4 24.8 71.6 49.9 93.7 25.1 22.1 53.6 33 85.3 32.5 33.1-.4 61.8-11.5 86.3-33.2 24.5-21.7 40.6-52.7 48.3-93z"/></svg>