<svg xmlns="http://www.w3.org/2000/svg" viewBox="-10 0 1266 490"><path d="M-10 490q0-68 28-138t81.5-133q53.5-63 131-112.5t176-78Q505 0 623 0t217 28.5q99 28.5 176 78T1146.5 219q53.5 63 81.5 133t28 138h-27q-13-26-48-67.5t-89.5-87.5q-54.5-46-126-86.5t-158-66.5Q721 156 623 156t-184.5 26q-86.5 26-158 66.5t-126 86.5Q100 381 65 422.5T17 490zm1246-23q-2-63-30.5-127T1125 218.5q-52-57.5-126.5-102T829.5 46Q735 20 623 20q-139 0-250.5 39t-191 103.5q-79.5 64.5-123 143T10 462q18-29 55.5-70.5T159 306q56-44 127-82.5T442 161q85-24 181-24 98 0 184 25t158 64.5q72 39.5 127.5 84.5t92 86.5Q1221 439 1236 467z" fill="currentColor"/></svg>