<svg xmlns="http://www.w3.org/2000/svg" viewBox="0 0 513.6 166.8"><path d="M486.9 137.2c-52.8-39-104.4-64.9-154.7-77.9-50.3-12.9-100.7-12.9-151 0S79.4 98.2 26.5 137.2c46.1-48.2 96-81.9 149.6-101C229.8 17.1 284 17 338.8 35.9 393.6 54.8 443 88.6 486.9 137.2zm-8.5 18.6c10.3 10.6 19.9 13.6 29 8.8 9-4.8 8.2-16-2.4-33.8-11.7-22.7-40.5-49.8-86.4-81.3C372.7 17.9 318.8 1.4 256.7 0c-62 1.4-116 17.9-161.9 49.4C49 81 20.2 108.1 8.5 130.8c-10.6 17.7-11.3 28.9-1.9 33.5 9.4 4.6 18.9 1.6 28.4-9 18.1-19.1 59.5-40.7 124.4-64.6 64.9-23.9 129.7-23.9 194.6 0s106.3 45.6 124.4 65.1z"/></svg>