<svg xmlns="http://www.w3.org/2000/svg" viewBox="0 0 537.3 174.7"><path d="M353.5 89c-56.8 39.7-113.5 39.7-170.3 0 56.8-18.5 113.6-18.5 170.3 0zm155.8 54.6C454 102.8 400 75.6 347.4 62.1c-52.7-13.5-105.4-13.5-158 0-52.7 13.5-106.7 40.7-161.9 81.5C75.7 93.1 127.9 57.9 184.1 37.8c56.2-20 113-20.1 170.3-.3 57.3 19.9 108.9 55.2 154.9 106.1zm-240.9-2.8c39 0 75.7-14.8 110.2-44.5 62.3 24.5 102.9 47.1 121.9 67.9 10.8 10.4 20.9 13.1 30.3 8.1 9.5-5 8.6-16.8-2.5-35.3-12.2-23.7-42.4-52.1-90.4-85.1-48-33-104.5-50.3-169.4-51.8C203.5 1.9 147 19.2 98.9 52s-78.2 61.1-90.4 84.9C-2.2 155.4-2.8 167.1 6.8 172c9.6 4.8 19.5 1.7 29.5-9.5 18.9-20 59.5-42.1 121.9-66.2 34.5 29.6 71.2 44.5 110.2 44.5z"/></svg>