<svg xmlns="http://www.w3.org/2000/svg" viewBox="-10 0 1266 490"><path d="M-10 490q0-68 28-138t81.5-133q53.5-63 131-112.5t176-78Q505 0 623 0t217 28.5q99 28.5 176 78T1146.5 219q53.5 63 81.5 133t28 138h-27q-13-26-48.5-68.5t-91.5-89Q1033 286 961 246q-70 52-156.5 82T623 358q-94 0-181-30t-157-82q-72 40-127.5 86.5t-91 89Q31 464 17 490zm1246-23q-2-63-30.5-127T1125 218.5q-52-57.5-126.5-102T829.5 46Q735 20 623 20q-139 0-250.5 39t-191 103.5q-79.5 64.5-123 143T10 462q18-29 55.5-70.5T159 306q56-44 127-82.5T442 161q85-24 181-24 98 0 184 25t158 64.5q72 39.5 127.5 84.5t92 86.5Q1221 439 1236 467zM623 338q89 0 170.5-26.5T942 236q-68-34-148-57t-171-23q-90 0-170.5 23T304 236q67 49 148.5 75.5T623 338z" fill="currentColor"/></svg>