<svg xmlns="http://www.w3.org/2000/svg" viewBox="0 0 443.7 412.7"><path d="M190.6 287.4c-9.5 3.2-16.8 8.6-21.8 16.3l-68.1 94c-11.8 13.6-21.1 17.9-27.9 12.9-6.8-4.5-5.4-14.5 4.1-30l68.1-94c5.9-7.3 8.9-15.9 8.9-25.9-5.4-8.2-12.5-13.6-21.1-16.3L21.8 209C5 202.2-2 194.7.7 186.5c2.3-7.7 12.3-9.5 30-5.4L141 217.2c8.6 3.6 17.7 3.6 27.2 0 5.4-7.7 7.9-16.1 7.5-25.2V75.6C177 57.9 182 49 190.6 49c8.2 0 12.9 8.9 14.3 26.6v116.5c-.5 9.1 2.3 17.5 8.2 25.2 9.1 3.2 17.9 3.2 26.6 0l111-36.1c17.3-4.1 27.2-2 30 6.1 2.7 7.7-4.3 15-21.1 21.8l-110.3 35.4c-9.1 2.7-16.3 8.2-21.8 16.3-.5 9.5 2.3 17.9 8.2 25.2l68.8 94c9.1 15.4 10.2 25.7 3.4 30.7-6.4 5-15.4.7-27.2-12.9l-68.1-94c-5.6-8.2-12.9-13.6-22-16.4zm-33.4-34.7c0 7.3 3.1 14.5 9.2 21.8 6.1 7.3 14 10.9 23.5 10.9 10.4 0 18.7-3.4 24.9-10.2 6.1-6.8 9.2-14.3 9.2-22.5 0-9.1-3.5-16.8-10.6-23.2-7-6.4-14.6-9.5-22.8-9.5-10 0-18.1 3.3-24.2 9.9-6.1 6.6-9.2 14.2-9.2 22.8zm6.2 0c0 5.9 2.5 11.7 7.5 17.4 5 5.7 11.4 8.5 19.1 8.5 8.6 0 15.3-2.6 20.1-7.8 4.8-5.2 7.2-11.2 7.2-18.1 0-7.3-2.8-13.5-8.5-18.7-5.7-5.2-11.7-7.8-18.1-7.8-8.2 0-14.8 2.7-19.8 8.2-5 5.4-7.5 11.5-7.5 18.3zM179 0c39.5 0 73.3 6 101.5 18.1 28.2 12 53.4 28.6 75.6 49.7 22.3 21.1 42.2 48.6 59.9 82.4 17.7 33.8 26.9 60.1 27.6 78.7.7 18.6-12.4 5.9-39.2-38.1-26.8-44-49.7-75.2-68.8-93.3-19.1-18.2-41-32.7-65.7-43.6C245.2 43 214.8 37.6 179 37.6V0z"/></svg>