<svg xmlns="http://www.w3.org/2000/svg" viewBox="-10 0 1180 1212"><path d="M1125 610q-64-144-146-248.5T787 200q-110-57-259-57V0q129 0 228.5 33.5t172 93Q1001 186 1050 263t78 164q29 87 42 176zm11-18l14-2q-13-85-43-167.5t-78-155q-48-72.5-116.5-128T753 52q-91-32-206-32v104q140 2 250 59.5t194 161Q1075 448 1136 592zm-859 620l-3-57 187-403-436-96-35-42 53-21 452 53 24-452 31-35 32 35 24 453 452-54 53 21-36 42-434 96 186 403-4 57-49-20-224-381-223 381zm18-28l20-9 235-402 236 402 20 9 2-25-195-422 452-99 14-15-23-10-469 55-24-466-13-14-12 14-24 466-469-55-23 10 14 15 452 99-195 422z" fill="currentColor"/></svg>