<svg xmlns="http://www.w3.org/2000/svg" viewBox="0 0 366.1 349.2"><path d="M183 228.9c-9.2 3.1-16.1 8.3-20.9 15.7l-65.4 90.3c-11.3 13.1-20.3 17.2-26.8 12.4-6.5-4.4-5.2-14 3.9-28.8l65.4-90.3c5.7-7 8.5-15.3 8.5-24.9-5.2-7.8-12-13.1-20.3-15.7l-106.6-34C4.7 147.2-2.1 140 .5 132.1c2.2-7.4 11.8-9.2 28.8-5.2l106 34.7c8.3 3.5 17 3.5 26.2 0 5.2-7.4 7.6-15.5 7.2-24.2V25.5C170 8.5 174.7 0 183 0c7.8 0 12.4 8.5 13.7 25.5v111.8c-.4 8.7 2.2 16.8 7.8 24.2 8.7 3.1 17.2 3.1 25.5 0l106.6-34.7c16.6-3.9 26.2-2 28.8 5.9 2.6 7.4-4.1 14.4-20.3 20.9l-106 34c-8.7 2.6-15.7 7.8-20.9 15.7-.4 9.2 2.2 17.2 7.8 24.2l66.1 90.3c8.7 14.8 9.8 24.6 3.3 29.4-6.1 4.8-14.8.7-26.2-12.4L204 244.6c-5.3-7.8-12.2-13.1-21-15.7zm-32-33.3c0 7 2.9 14 8.8 20.9s13.4 10.5 22.6 10.5c10 0 18-3.3 23.9-9.8 5.9-6.5 8.8-13.7 8.8-21.6 0-8.7-3.4-16.1-10.1-22.2-6.8-6.1-14.1-9.2-21.9-9.2-9.6 0-17.3 3.2-23.2 9.5-6 6.3-8.9 13.6-8.9 21.9zm5.9 0c0 5.7 2.4 11.2 7.2 16.7 4.8 5.5 10.9 8.2 18.3 8.2 8.3 0 14.7-2.5 19.3-7.5 4.6-5 6.9-10.8 6.9-17.3 0-7-2.7-13-8.2-18-5.5-5-11.2-7.5-17.3-7.5-7.8 0-14.2 2.6-19 7.8-4.8 5.1-7.2 11-7.2 17.6z"/></svg>