<svg xmlns="http://www.w3.org/2000/svg" viewBox="0 0 415.8 412.7"><path d="M208.5 243.7c-8.5 2.8-15 7.7-19.5 14.6l-60.8 83.9c-10.5 12.2-18.8 16-24.9 11.5-6.1-4.1-4.9-13 3.6-26.7l60.8-83.9c5.3-6.5 7.9-14.2 7.9-23.1-4.9-7.3-11.1-12.2-18.8-14.6l-99.1-31.6c-15-6.1-21.3-12.8-18.8-20.1 2-6.9 10.9-8.5 26.7-4.9l98.5 32.2c7.7 3.2 15.8 3.2 24.3 0 4.9-6.9 7.1-14.4 6.7-22.5V54.7c1.2-15.8 5.7-23.7 13.4-23.7 7.3 0 11.5 7.9 12.8 23.7v103.9c-.4 8.1 2 15.6 7.3 22.5 8.1 2.8 16 2.8 23.7 0l99.1-32.2c15.4-3.6 24.3-1.8 26.7 5.5 2.4 6.9-3.8 13.4-18.8 19.5l-98.5 31.6c-8.1 2.4-14.6 7.3-19.5 14.6-.4 8.5 2 16 7.3 22.5l61.4 83.9c8.1 13.8 9.1 22.9 3 27.4-5.7 4.5-13.8.6-24.3-11.5l-60.8-83.9c-4.8-7.5-11.3-12.3-19.4-14.8zm-29.8-31c0 6.5 2.7 13 8.2 19.5 5.5 6.5 12.5 9.7 21 9.7 9.3 0 16.7-3 22.2-9.1s8.2-12.8 8.2-20.1c0-8.1-3.1-15-9.4-20.7-6.3-5.7-13.1-8.5-20.4-8.5-8.9 0-16.1 2.9-21.6 8.8-5.5 6-8.2 12.7-8.2 20.4zm5.5 0c0 5.3 2.2 10.4 6.7 15.5s10.1 7.6 17 7.6c7.7 0 13.7-2.3 17.9-7 4.3-4.7 6.4-10 6.4-16.1 0-6.5-2.5-12.1-7.6-16.7s-10.4-7-16.1-7c-7.3 0-13.2 2.4-17.6 7.3-4.5 4.9-6.7 10.4-6.7 16.4zm-159.3-3.6c0 24.7 5 47.7 14.9 69 9.9 21.3 22.6 40 38 56.2 15.4 16.2 34.5 29 57.4 38.3 22.9 9.3 47.1 14 72.6 14 25.5 0 49.3-4.7 71.4-14 22.1-9.3 41.6-22.1 58.7-38.3 17-16.2 30.4-35 40.1-56.2 9.7-21.3 14.6-44.3 14.6-69 0-24.7-4.9-48-14.6-69.9s-23-40.9-40-57.1c-17-16.2-36.6-29.2-58.7-38.9s-45.9-14.6-71.4-14.6c-25.5 0-49.7 4.9-72.6 14.6-22.9 9.7-42.4 22.7-58.7 38.9-16.2 16.2-28.9 35.3-38 57.1-9.1 21.9-13.7 45.2-13.7 69.9zm-24.9-3c0-28.4 5.5-55 16.4-79.9s25.8-46.8 44.7-65.6c18.8-18.8 40.8-33.6 66-44.4C152.2 5.4 179.1 0 207.9 0c28.8 0 55.7 5.4 80.8 16.1 25.1 10.7 47.1 25.5 66 44.4 18.8 18.8 33.7 40.7 44.7 65.6s16.4 51.6 16.4 79.9c0 28.8-5.5 55.6-16.4 80.5s-25.8 46.7-44.7 65.3c-18.8 18.6-40.8 33.4-66 44.4-25.1 10.9-52.1 16.4-80.8 16.4-28.8 0-55.7-5.5-80.8-16.4-25.1-10.9-47.1-25.7-66-44.4-18.8-18.6-33.7-40.4-44.7-65.3S0 234.8 0 206.1z"/></svg>