<svg xmlns="http://www.w3.org/2000/svg" viewBox="-10 0 1191 1192"><path d="M586 1192q-99 0-188-30t-163.5-85Q160 1022 105 947.5T20 784q-30-89-30-188t30-188q30-89 85-163.5T234.5 115Q309 60 398 30T586 0q98 0 187.5 30T937 115q74 55 129 129.5t85 163.5q30 89 30 188t-30 188q-30 89-85 163.5T937 1077q-74 55-163.5 85T586 1192zm0-20q95 0 181.5-29t158.5-82q72-53 125-125t82-158.5q29-86.5 29-181.5t-29-181.5q-29-86.5-82-158.5T926 131q-72-53-158.5-82T586 20q-95 0-181.5 29t-159 82Q173 184 120 256T38 414.5Q9 501 9 596t29 181.5Q67 864 120 936t125.5 125q72.5 53 159 82t181.5 29zm-273-80l-4-57 187-403-435-96-36-42 53-21 452 53 24-452 32-35 31 35 24 453 452-54 53 21-36 42-434 96 186 403-4 57-49-20-223-381-224 381zm17-28l20-9 236-402 235 402 20 9 2-25-195-422 452-99 14-15-23-10-469 55-24-466-12-14-13 14-24 466-469-55-23 10 14 15 452 99-195 422z" fill="currentColor"/></svg>