<svg xmlns="http://www.w3.org/2000/svg" viewBox="-10 0 1274 367"><path d="M87 205q-37 0-58-16.5T-1 148q-9-24-9-46 0-40 21-71T87 0h1080q55 0 76 31t21 71q0 22-9 46t-30 40.5q-21 16.5-58 16.5zm0-20h1080q30 0 46.5-13.5T1237 139q7-19 7-37 0-32-16.5-57.5T1167 19H87q-44 0-61 25.5T9 102q0 18 7 37t24 32.5Q57 185 87 185zm296 182q-22 0-38-15.5T329 313q0-23 16-38.5t38-15.5q22 0 38 15.5t16 38.5q0 23-16 38.5T383 367zm244 0q-22 0-38-15.5T573 313q0-23 16-38.5t38-15.5q22 0 38 15.5t16 38.5q0 23-16 38.5T627 367zm244 0q-22 0-38-15.5T817 313q0-23 16-38.5t38-15.5q22 0 38 15.5t16 38.5q0 23-16 38.5T871 367zm-488-18q14 0 25-10.5t11-25.5q0-14-11-25t-25-11q-15 0-25.5 11T347 313q0 15 10.5 25.5T383 349zm244 0q15 0 25.5-10.5T663 313q0-14-10.5-25T627 277q-14 0-25 11t-11 25q0 15 11 25.5t25 10.5zm244 0q15 0 25.5-10.5T907 313q0-14-10.5-25T871 277q-14 0-24.5 11T836 313q0 15 10.5 25.5T871 349z" fill="currentColor"/></svg>