<svg xmlns="http://www.w3.org/2000/svg" viewBox="0 0 595.3 148.5"><path d="M226 141.7l12.7-25.4c21.9 2.5 26.1 13.2 12.7 32.1l-25.4-6.7zm369.3-96.2c0 20.9-7.2 36.8-21.6 47.7H23.9C8 82.3 0 66.4 0 45.5 0 25.6 8 10.4 23.9 0h549.8c14.4 10.4 21.6 25.6 21.6 45.5zm-24.6 0c0-7-1.7-12.3-5.2-16-3.5-3.7-8.7-5.6-15.7-5.6h-505c-6.5 0-11.6 1.9-15.3 5.6-3.7 3.7-5.6 9.1-5.6 16s1.9 12.7 5.6 17.2c3.7 4.5 8.8 6.7 15.3 6.7h505c7.5 0 12.8-2.2 16-6.7 3.3-4.5 4.9-10.2 4.9-17.2zm-286.5 96.2l12.7-25.4c21.4 2.5 25.6 13.2 12.7 32.1l-25.4-6.7zm58.2-.7l12.7-25.4c21.4 2.5 25.6 13.2 12.7 32.1l-25.4-6.7z"/></svg>