<svg xmlns="http://www.w3.org/2000/svg" viewBox="0 0 595.3 127.8"><path d="M532.5 107.7c11.5 0 22.1-5.1 31.8-15.2 6-8.3 9-17.5 9-27.6 0-9.7-3.9-19.6-11.7-29.7-8-10.1-17.4-15.2-28.5-15.2h-471c-11 0-20.5 5.1-28.3 15.2s-12 20-12.4 29.7c0 10.1 3.2 19.3 9.7 27.6 9.7 10.1 20 15.2 31.1 15.2h470.3zM297.7 0h233.4c21.2 0 37.3 6.9 48.3 20.7 10.1 13.4 15.4 28.1 15.9 44.2-.5 16.1-5.8 30.4-15.9 42.8-11 13.4-27.4 20-49 20H64.9c-21.6 0-38.2-6.7-49.7-20C5.5 95.3.5 81 0 64.9c0-16.1 5.3-30.8 15.9-44.2C26.9 6.9 43 0 64.2 0h233.5z"/></svg>