<svg xmlns="http://www.w3.org/2000/svg" viewBox="-10 0 1128 242"><path d="M49 242q-41 0-50-15t-9-46V61q0-31 9-46T49 0h1009q42 0 51 15t9 46v120q0 31-9 46t-51 15zm0-19h1009q28 0 34-10.5t6-31.5V61q0-21-6-31.5T1058 19H49q-28 0-34 10.5T9 61v120q0 21 6 31.5T49 223zm166-38l-68-86-59 76-16-12 75-97 68 87q16-21 34-44t34-43l68 87q16-21 34-44t33-43l68 87 67-87 68 87q16-21 34-44t34-43l67 87q17-21 34.5-44T824 66l68 87 68-87 75 97-16 12-59-76-68 86-68-86q-17 20-34.5 43.5T756 185l-67-86q-16 20-34 43.5T621 185l-68-86-67 86-68-86q-16 20-34 43.5T351 185l-68-86q-16 20-34 43.5T215 185z" fill="currentColor"/></svg>