<svg xmlns="http://www.w3.org/2000/svg" viewBox="-10 0 1274 361"><path d="M140 361q-43 0-72-17t-46-44.5Q5 272-2.5 240.5T-10 181q0-29 7.5-60T22 62q17-28 46-45t72-17h974q43 0 72 17t46 45q17 28 24.5 59t7.5 60q0 28-7.5 59.5t-24.5 59q-17 27.5-46 44.5t-72 17zm0-20h974q37 0 62.5-16t40.5-40.5q15-24.5 21.5-52t6.5-51.5q0-24-6.5-52T1217 76.5Q1202 52 1176.5 36T1114 20H140q-37 0-62.5 16T37 76.5Q22 101 15.5 129T9 181q0 24 6.5 51.5t21.5 52Q52 309 77.5 325t62.5 16zm390-87v-42H138v-67h392v-39h69v39h43v-39h69v39h392v67H711v42h-69v-42h-43v42zm19-20h30v-41h83v41h29v-41h392v-29H691v-38h-29v38h-83v-38h-30v38H158v29h391z" fill="currentColor"/></svg>