<svg xmlns="http://www.w3.org/2000/svg" viewBox="-10 0 1274 776"><path d="M140 361q-43 0-72-17t-46-45Q5 271-2.5 240t-7.5-60q0-28 7.5-59.5t24.5-59Q39 34 68 17t72-17h974q43 0 72 17t46 44.5q17 27.5 24.5 59t7.5 59.5q0 29-7.5 60t-24.5 59q-17 28-46 45t-72 17zm0-20h974q37 0 62.5-16t40.5-40.5q15-24.5 21.5-52.5t6.5-52q0-24-6.5-51.5t-21.5-52Q1202 52 1176.5 36T1114 20H140q-37 0-62.5 16T37 76.5q-15 24.5-21.5 52T9 180q0 24 6.5 52T37 284.5Q52 309 77.5 325t62.5 16zm0 435q-43 0-72-17t-46-44.5Q5 687-2.5 655.5T-10 596q0-29 7.5-60T22 477q17-28 46-45t72-17h974q43 0 72 17t46 45q17 28 24.5 59t7.5 60q0 28-7.5 59.5t-24.5 59q-17 27.5-46 44.5t-72 17zm0-20h974q37 0 62.5-16t40.5-40.5q15-24.5 21.5-52t6.5-51.5q0-24-6.5-52t-21.5-52.5q-15-24.5-40.5-40.5t-62.5-16H140q-37 0-62.5 16T37 491.5Q22 516 15.5 544T9 596q0 24 6.5 51.5t21.5 52Q52 724 77.5 740t62.5 16z" fill="currentColor"/></svg>