<svg xmlns="http://www.w3.org/2000/svg" viewBox="0 0 595.3 338.7"><path d="M531.8 107.6c11.5 0 22.1-4.8 31.7-14.5 6-8.3 9-17.7 9-28.3 0-9.7-3.9-19.4-11.7-29.3-7.8-9.9-17.2-14.8-28.3-14.8H61.4c-10.6 0-19.8 4.9-27.6 14.8s-12 19.7-12.4 29.3c0 10.6 3 20 9 28.3 10.1 9.7 20.7 14.5 31.7 14.5h469.7zM529.8 0C551 0 567 6.9 578.1 20.7c10.6 13.8 16.1 28.7 16.6 44.8-.5 16.1-5.7 30.1-15.9 42.1-11.5 13.3-27.8 20-49 20H64.2c-21.2 0-37.5-6.7-49-20C5.5 95.7.5 81.6 0 65.5c0-16.1 5.3-31 15.9-44.8C26.9 6.9 43 0 64.2 0h465.6zm2.7 318c11.5 0 22.1-4.8 31.7-14.5 6-8.3 9-17.5 9-27.6 0-9.7-3.9-19.5-11.7-29.7-7.8-10.1-17.2-15.2-28.3-15.2H62.8c-11 0-20.5 5.1-28.3 15.2-7.8 10.1-11.7 20-11.7 29.7 0 10.1 3 19.3 9 27.6C41.4 313.2 52 318 63.5 318h469zm-1.3-106.9c21.2 0 37.2 6.7 48.3 20 10.1 13.8 15.4 28.7 15.9 44.8-.5 16.1-5.5 30.1-15.2 42.1-11.5 13.8-28.1 20.7-49.7 20.7h-465c-21.6 0-38.2-6.9-49.7-20.7-9.7-12-14.7-26-15.2-42.1 0-16.1 5.3-31 15.9-44.8 11-13.3 27.1-20 48.3-20h466.4z"/></svg>