<svg xmlns="http://www.w3.org/2000/svg" viewBox="-10 0 1156 1162"><path d="M609 1162q-30-19-55-38.5t-40-46.5q-15-27-15-69 0-33 11.5-55t28.5-35.5q17-13.5 32.5-20.5t23.5-9V449L448 579V161H171L-10 325V0h1156v325L964 161H526v235l148-130v622q8 2 23.5 9t32.5 20.5q17 13.5 29 35.5t12 55q0 42-15.5 69t-40.5 46.5q-25 19.5-54 38.5l-12-11q19-33 30.5-65.5T691 1012q0-19-14-36t-42-17q-28 0-42.5 17t-14.5 36q0 41 12 73.5t31 65.5zM9 282l156-140h806l155 140V19H9zm575 840q-13-25-19-51t-6-59q0-25 19-49t57-24q38 0 57 24t19 49q0 33-6.5 59t-18.5 51q28-20 46.5-45.5T751 1008q0-35-17-58t-40-34q-23-11-40-11V309L507 440V161h-40v375l148-130v499q-17 0-39.5 11T536 950q-17 23-17 58 0 43 18.5 68.5T584 1122z" fill="currentColor"/></svg>