<svg xmlns="http://www.w3.org/2000/svg" viewBox="-10 0 1394 434"><path d="M1237 434h-13.5l-13.5-1q-251-20-515-41.5T180 350q-103-8-146.5-35.5T-10 233v-32q0-53 44.5-80.5T180 84q251-21 515-42t515-41q6-1 13.5-1h13.5q74 0 110.5 32.5T1384 119v196q0 55-36.5 87T1237 434zm0-19q64 0 96-27t32-73V119q0-46-32-73t-96-27h-12l-13 1-1030 84q-89 7-131 30T9 201v32q0 44 42 67t131 30q251 22 515 43t515 41q7 1 13 1zm-62-85l-946-59q-58-4-89.5-10t-44-16Q83 235 83 221v-8q0-14 12.5-23.5t44-16Q171 167 229 163l946-59h21q43 0 69 16.5t26 63.5v66q0 47-26 63.5t-69 16.5zm21-19q34 0 55-12.5t21-48.5v-66q0-35-21-48t-55-13h-10l-10 1-946 59q-71 4-99 11.5T103 213v8q0 11 28 18.5t99 11.5l946 59q5 1 10 1z" fill="currentColor"/></svg>