<svg xmlns="http://www.w3.org/2000/svg" viewBox="0 0 595.3 255.5"><path d="M595.3 255.5H0V230h42.2v-89.1H0v-26.3h42.2V25.5H0V0h595.3v25.5h-42.2v89.1h42.2v26.3h-42.2V230h42.2v25.5zm-67.7-140.9V25.5H456v89.1h71.6zm-97.1 0V25.5h-71.6v89.1h71.6zM526.8 230v-89.1H456V230h70.8zM333.5 114.6V25.5h-71.6v89.1h71.6zM429.7 230v-89.1h-71.6V230h71.6zM235.6 114.6V25.5h-70.8v89.1h70.8zM333.5 230v-89.1h-71.6V230h71.6zM139.3 114.6V25.5H68.4v89.1h70.9zM235.6 230v-89.1h-70.8V230h70.8zm-97.1 0v-89.1h-70V230h70z"/></svg>