<svg xmlns="http://www.w3.org/2000/svg" viewBox="-10 0 1336 571"><path d="M-10 571V78q0-18 12-37t47-19q27 0 51.5 20T147 94.5q22 32.5 43 69.5 23 40 47 79.5t51 65q27 25.5 58 25.5 29 0 52.5-22t43-57q19.5-35 38.5-73 22-44 46-86t55.5-69Q613 0 658 0q44 0 75.5 27t56 69q24.5 42 46.5 86 19 38 38 73t42.5 57q23.5 22 53.5 22 31 0 57.5-25.5t51-65Q1103 204 1126 164q21-37 43-69.5t46-52.5q24-20 51-20 36 0 48 19t12 37v493zm19-20h1297V94q0-22-5.5-37T1266 42q-21 0-42 19t-41 49q-20 30-39 64-23 41-50.5 82.5t-58 69Q1005 353 970 353q-36 0-62.5-23.5t-48-60.5Q838 232 818 190q-21-42-43-81t-50.5-64Q696 20 658 20t-66.5 25Q563 70 541 109t-43 81q-21 42-42 79t-47.5 60.5Q382 353 346 353q-35 0-66-27.5t-58-69Q195 215 172 174q-19-34-39.5-64T91 61Q70 42 49 42q-28 0-34 15T9 94z" fill="currentColor"/></svg>