<svg xmlns="http://www.w3.org/2000/svg" viewBox="0 0 595.3 236.1"><path d="M299.2.6c16.7 0 34.1 13.9 35.3 30.3 1.5 20.1 8.4 47.7 14.1 82.5 5.6 34.8 29.2 45.8 82.9 45.4 53.8 0 77.3-11.1 82.9-45.7 5.6-34.6 11.9-61.9 13.8-82.5C530.9-1.2 558.2 0 595.3 0v236H0V0c36.7 0 62.5.3 66.8 30.6 2.9 20.6 8.4 47.9 14.1 82.5 5.6 34.6 29.2 45.7 82.9 45.7 53.8.4 77.3-10.6 82.9-45.4 5.6-34.8 12.9-63.3 14.1-82.5C261.8 15.1 276.3.6 293 .6h6.2zm-3.1 19.3c-9.6 2.1-14.1 4.8-16.6 20.4-2.5 15.6-6.8 42.3-12.8 80-6 37.7-40.3 57.4-102.9 59.1-62.5-1.7-96.7-21.5-102.5-59.4-5.8-37.9-10.5-64.6-14.1-80s-7.9-19.8-25.4-19.4v194.9h551.7V20.6c-17.5-.4-21.9 4-25.4 19.4-3.5 15.4-8.2 42.1-14.1 80-5.8 37.9-40 57.7-102.5 59.4-62.5-1.7-96.8-21.4-102.9-59.1-6-37.7-10.3-64.4-12.8-80-2.5-15.6-8.5-18.3-18.1-20.4h-1.6z"/></svg>