<svg xmlns="http://www.w3.org/2000/svg" viewBox="-10 0 1060 450"><path d="M-10 450V70q0-18 11-36t45-18q35 0 63.5 35.5T164 132q17 30 35 59.5t37.5 48.5q19.5 19 40.5 19 20 0 36.5-16.5t31-42Q359 175 373 147q18-36 37-70t45.5-55.5Q482 0 520 0q37 0 63.5 22t46 55.5Q649 111 667 147q14 28 28.5 53.5t31 42Q743 259 763 259t40-19.5q20-19.5 39-49t35-58.5q17-29 35.5-56T951 32.5Q971 16 994 16q34 0 45 18t11 36v380zm19-20h1022V70q0-11-7-23t-30-12q-26 0-51.5 33T894 142q-19 33-39 64t-43 51.5Q789 278 763 278t-46-18q-20-18-36-46t-32-59q-16-34-34-65t-41-51q-23-20-54-20t-54 20.5Q443 60 425 91t-35 64q-15 30-31.5 58.5t-36 46.5Q303 278 277 278t-48.5-20.5Q206 237 186 206t-39-64q-23-41-48.5-74T46 35q-22 0-29.5 12T9 70z" fill="currentColor"/></svg>