<svg xmlns="http://www.w3.org/2000/svg" viewBox="-10 0 1184 602"><path d="M-10 602V99q0-16 5.5-39.5T19 18Q37 0 75 0q40 0 60.5 19t30 49q9.5 30 18.5 63 21 92 76.5 165t138 115.5Q481 454 582 454t183-42.5Q847 369 902 296t78-165q8-33 17.5-63t30.5-49q21-19 61-19 38 0 56 18t23.5 41.5Q1174 83 1174 99v503zm19-20h1146V99q0-14-4-33t-18-33q-14-14-44-14t-46.5 17q-16.5 17-25 43.5T1001 135q-27 102-86 178T771 431q-85 42-189 42t-189-42q-85-42-143.5-118T164 135q-7-29-16.5-55.5t-26-43.5Q105 19 75 19T31 33Q17 47 13 66T9 99z" fill="currentColor"/></svg>