<svg xmlns="http://www.w3.org/2000/svg" viewBox="0 0 445.8 261.9"><path d="M425.1 241.3V33.5c-4.7-8.6-11.4-12.9-20-12.9-16.3 0-27.8 13.3-34.5 40-6.7 26.7-22.8 52.7-48.4 78.1-25.6 25.4-58.8 38.1-99.7 38.1-40.9 0-74.1-12.6-99.7-37.7S81.2 87.8 74.5 61c-6.7-26.9-18-40.3-33.9-40.3-9 0-15.7 4.3-20 12.9V242l404.5-.7zm-202.5-85.2c46.9-2.2 79-16.3 96.4-42.6 17.4-26.2 29.4-51.7 35.8-76.4C361.3 12.4 378 0 405.1 0c17.2 0 30.8 6.9 40.6 20.6v241.3H0V20.6C9.5 6.9 22.8 0 40 0c27.1 0 43.9 12.4 50.3 37.1 6.5 24.7 18.4 50.2 35.8 76.4s49.6 40.5 96.5 42.6z"/></svg>