<svg xmlns="http://www.w3.org/2000/svg" viewBox="0 0 461.9 381"><path d="M440.5 359.6V143.7c-4.5-8.9-11.4-13.4-20.7-13.4-16.5 0-28.2 13.8-35.1 41.4-6.9 27.6-23.6 54.6-50.1 80.9-26.5 26.3-61.2 39.4-103.9 39.4-41.9.4-76.1-12.5-102.6-38.8-26.5-26.3-43.2-53.2-50.1-80.9-7-27.5-19-41.3-35.9-41.3-8.9 0-15.8 4.2-20.7 12.7v215.9h419.1zm-82.2-212.5c0-33.9-12.8-63.2-38.4-87.9-25.6-24.7-55.1-37.1-88.6-37.1-33.9 0-63.1 12.1-87.6 36.4-24.5 24.3-37 53.8-37.4 88.6-.4 34.3 11.6 63.6 36.1 87.9 24.5 24.3 54.1 36.4 88.9 36.4 34.8 0 64.6-11.8 89.6-35.4 24.9-23.7 37.4-53.3 37.4-88.9zm20.7-21.4c8.5-11.1 22.3-16.7 41.4-16.7 17.8 0 31.6 7.1 41.4 21.4V381H0V131c10.2-14.7 24.3-22 42.1-22 20.1 0 34.1 6 42.1 18 3.1-34.8 19.8-65.1 50.1-90.9 29-24.5 60.8-36.5 95.6-36.1 35.2 0 68 12.3 98.3 36.8 33.4 27.6 50.3 57.2 50.8 88.9z"/></svg>