<svg xmlns="http://www.w3.org/2000/svg" viewBox="-10 0 1184 979"><path d="M-10 979V476q0-16 5.5-39.5T19 395q18-18 56-18 33 0 52 13t30 33q0-88 33.5-164.5t92-134.5q58.5-58 135-91T582 0q88 0 164.5 33t135 91q58.5 58 92 134.5T1007 422q11-20 30.5-32.5T1089 377q38 0 56 18t23.5 41.5q5.5 23.5 5.5 39.5v503zm592-148q99 0 179.5-40t136-110Q953 611 976 522q12-46 12-97 0-84-31.5-157.5T869 138q-56-56-129.5-87.5T582 19q-84 0-157.5 31.5T295 138q-56 56-87.5 129.5T176 425q0 59 17 115 26 84 81.5 150t134 103.5Q487 831 582 831zM9 959h1146V476q0-14-4-33t-18-33q-14-14-44-14t-46.5 17q-16.5 17-25 43.5T1001 512q-27 102-86 178T771 808q-85 42-189 42t-189-42q-85-42-143.5-118T164 512q-7-29-16.5-55.5t-26-43.5Q105 396 75 396t-44 14q-14 14-18 33t-4 33z" fill="currentColor"/></svg>