<svg xmlns="http://www.w3.org/2000/svg" viewBox="-10 0 1156 1169"><path d="M422 1169q-12 0-31-15.5t-38.5-41.5q-19.5-26-33-58.5T306 987q0-32 14.5-53t33-32.5Q372 890 383 886V234h79v46h118V161H171L-10 325V0h1156v325L964 161H658v406h-78v-94H462v413q11 4 29 15.5t33 32.5q15 21 15 53 0 34-13.5 66.5t-33 58.5q-19.5 26-39 41.5T422 1169zM9 282l156-140h806l155 140V19H9zm590 265h40V161h-40zm-177 600q12 0 28.5-15t32.5-39q16-24 26.5-52t10.5-54q0-24-12.5-41.5t-30.5-29Q459 905 442 901V253h-40v648q-17 4-34.5 15.5t-30 29Q325 963 325 987q0 26 10.5 54t26.5 52q16 24 32 39t28 15zm40-781h118v-67H462zm0 87h118v-67H462z" fill="currentColor"/></svg>