<svg xmlns="http://www.w3.org/2000/svg" viewBox="0 0 548.8 277.8"><path d="M80.7 182.9c9.1-29.2 9.1-58.1 0-86.9h386.9c-10.6 29.2-10.6 58.1 0 86.9H80.7zm50-121.5l30.7-60.2H35.2l30.1 60.2h65.4zm351 0L512.4 0H386.3l29.5 60.8-.6.6H0V96h40.3c10.2 28.8 10.2 57.8 0 86.9H0v34.7h240.9l-29.5 60.2h126.1l-30.7-60.2h242v-34.7H509c-12.5-28.8-12.5-57.8 0-86.9h39.8V61.4h-67.1zm-61.3-35.8h59.1l-18.2 35.8h-22.7l-18.2-35.8zm-351.7 0h58.5l-17.6 35.8H86.9L68.7 25.6zM262.5 217h22.2l18.2 35.8h-58.5l18.1-35.8z"/></svg>