<svg xmlns="http://www.w3.org/2000/svg" viewBox="0 0 486.8 594.5"><path d="M47.6 190.2c3.6 0 6.9 1.3 9.1 4 11.7 4.6 29.2 22.3 46.7 51.7-2.6 10.5-4.4 21.3-7.3 32-23.9-14.6-46.2-29-54-42.6-24.2-27.4-7.7-45.1 5.5-45.1zm390 1.7c22.6 0 25 31.4 10.1 41.8-7.8 14.3-29 31.9-55.4 47.2-3.8-11.9-8.6-23.4-13.1-35 18-31.2 29.6-44.9 42.2-49.7 6.2-3 11.6-4.3 16.2-4.3zM143.3 31.8c10.5 0 29.4 10.4 40.3 14.8 130.8 57.2 314.6 467.6 94.8 517.3-227-1.7-165.7-222.6-131.3-380.4 5.8-56.5-8.9-109.6-10.2-136.9-3.2-11 .1-14.8 6.4-14.8zM138.8 0c-24 0-34.5 16.3-32.5 48.1 1.8 35.8 16.6 84.1 11.7 132.4-1.1 10-5.4 20.4-7.3 30.4-12.1-26.5-27.5-41.4-42.3-47.2-9.1-2.1-17.2-3.1-24.4-3.1-50.8 0-53.9 49.7-28.2 89.9 12.6 21.9 38.8 42.6 72.9 60.9-.3 1.1-1.2 1.9-1.5 3-32.1 167.5 18.3 280.1 181.4 280.1 3.7 0 7.4-.1 11.1-.2 160.5-16.8 144.8-166 122.5-284.5 32.8-18 59.7-37.8 71.5-59.3 29.1-49.9 4.4-94.1-31.2-94.1-8.2 0-16.9 2.3-25.7 7.4-16.8 6.3-33.5 28.5-49.6 50.2C328 130.3 269.5 58.5 196.5 17.7 172.4 5.9 153.2 0 138.8 0z"/></svg>