<svg xmlns="http://www.w3.org/2000/svg" viewBox="-10 0 757 936"><path d="M371 936q-129 0-200.5-75.5T99 643q0-29 6-75t17-89q-35-24-65.5-57.5T8 355.5Q-10 323-10 301q0-20 10.5-36T33 249q17 0 39.5 15t46 38q23.5 23 42.5 47 9-34 15-69t5-70q-1-7-2.5-19t-3.5-25q-2-19-4.5-40T168 84q0-35 11.5-59.5T226 0q39 0 83.5 28.5T400 107q46 50 89 113t79 132q16-21 38.5-45.5T653 264q24-18 43-18 23 0 33.5 9.5t14 23.5q3.5 14 3.5 26 0 14-10.5 42t-38 61.5Q671 442 622 474q17 47 26.5 91.5T658 649q0 87-37.5 151.5T518 900.5Q453 936 371 936zm0-19q80 0 140-35.5t93.5-96Q638 725 638 649q0-56-20-124t-54.5-139Q529 315 486 249.5T397 132q-46-52-90.5-82.5T226 19q-23 0-31 19.5T187 84q0 19 2.5 40t5.5 39q2 13 3.5 24.5T200 209q1 58-14 117t-33 113q-9 28-17 67t-13 77q-5 38-5 60 0 130 67.5 202T371 917zm244-462q44-29 68.5-59t34-54.5Q727 317 727 305q0-13-5-26.5T696 265q-17 0-39 19t-43 44q-21 25-36 44 11 21 20 41.5t17 41.5zm-488 4q2-8 4-14l4-12q4-15 9-30t10-31q-17-23-39.5-47.5t-44-40.5Q49 268 33 268q-12 0-18 10t-6 23q0 18 16.5 46.5t43 58.5Q95 436 127 459z" fill="currentColor"/></svg>