<svg xmlns="http://www.w3.org/2000/svg" viewBox="0 0 595.2 95.4"><path d="M304.8 0c-27.2 0-49.5 23.7-49.5 49.5 0 26.3 24.4 45.9 49.5 45.9s48.6-19.9 48.6-45.9C353.4 23.9 332 0 304.8 0zm0 18c15 0 29.7 17.2 29.7 31.5 0 13.9-15.1 27-29.7 27s-30.6-13.2-30.6-27c.1-14.2 15.5-31.5 30.6-31.5zM49.5 0C22.2 0 0 23.7 0 49.5c0 26.3 24.4 45.9 49.5 45.9S98 75.5 98 49.5C98 23.9 76.7 0 49.5 0zm0 18c15 0 29.7 17.2 29.7 31.5 0 13.9-15.1 27-29.7 27s-30.6-13.2-30.6-27C18.9 35.3 34.3 18 49.5 18zM546.6 0c-27.2 0-49.5 23.7-49.5 49.5 0 26.3 24.4 45.9 49.5 45.9s48.6-19.9 48.6-45.9c0-25.6-21.4-49.5-48.6-49.5zm0 18c15 0 29.7 17.2 29.7 31.5 0 13.9-15.1 27-29.7 27S516 63.3 516 49.5c0-14.2 15.4-31.5 30.6-31.5z"/></svg>