<svg xmlns="http://www.w3.org/2000/svg" viewBox="-10 0 791 181"><path d="M691 181q-38 0-64.5-26.5T600 91q0-37 26.5-64T691 0q37 0 63.5 27T781 91q0 37-26.5 63.5T691 181zm-611 0q-37 0-63.5-26.5T-10 91q0-37 26.5-64T80 0q37 0 63.5 27T170 91q0 37-26.5 63.5T80 181zm305 0q-37 0-63.5-26.5T295 91q0-37 26.5-64T385 0q38 0 64.5 27T476 91q0 37-26.5 63.5T385 181zM80 162q29 0 50-21t21-50q0-29-21-50T80 20q-29 0-50 21T9 91q0 29 21 50t50 21zm305 0q29 0 50-21t21-50q0-29-21-50t-50-21q-29 0-49.5 21T315 91q0 29 20.5 50t49.5 21zm306 0q29 0 49.5-21T761 91q0-29-20.5-50T691 20q-30 0-50.5 21T620 91q0 29 20.5 50t50.5 21z" fill="currentColor"/></svg>