<svg xmlns="http://www.w3.org/2000/svg" viewBox="-10 0 987 793"><path d="M411 793q-110 0-192-19.5T84 735q-22-8-43.5-20t-36-25Q-10 677-10 664q0-19 17-33t60-35q21-10 56.5-29.5t75-50.5q39.5-31 74.5-76.5T330.5 332Q353 270 353 189q0-64-6-108T334 0h643v101q0 95-20 193t-62 187.5Q853 571 786.5 641t-160 111Q533 793 411 793zm0-20q117 0 207-39.5T772 626q64-68 105-155t60.5-182Q957 194 957 101V19H358q6 31 10.5 70t4.5 100q0 87-24 152.5t-61 113Q251 502 209.5 534t-78 51Q95 604 75 614q-37 17-50 28t-13 22q0 11 25.5 26.5T91 716q52 19 134 38t186 19z" fill="currentColor"/></svg>