<svg xmlns="http://www.w3.org/2000/svg" viewBox="-10 0 844 793"><path d="M274 793q-51 0-103-6t-99-16q-47-10-82-22 49-28 104.5-63.5t104-84.5Q247 552 278 484t31-161q0-52-8.5-112t-23-116Q263 39 244 0h590v69q0 72-10 153.5T790 385q-24 81-65.5 154.5T621 670q-62 57-148 90t-199 33zm0-20q109 0 192-32t142.5-87.5Q668 598 708 526.5T771 376q23-79 33-158t10-149V19H274q11 24 20.5 61.5t17 80.5q7.5 43 12 85.5T328 323q0 75-20.5 134.5t-54 105.5Q220 609 181 643.5t-76.5 59Q67 727 38 743q44 12 107.5 21t128.5 9z" fill="currentColor"/></svg>