<svg xmlns="http://www.w3.org/2000/svg" viewBox="0 0 597.3 138.3"><path d="M57.4 0L45.1 26.6l-39 87.1L0 126l25.6 12.3 6.1-13.3 26.6-60.4 13.3 23.6L84 112.7l12.3-24.6 14.3-25.6L124 88.1l12.3 24.6 12.3-24.6 13.3-25.6 14.3 25.6 12.3 24.6 12.3-24.6 13.3-24.6 13.3 24.6 13.3 24.6L253 88.1l13.3-25.6 13.3 25.6 13.3 24.6 12.3-24.6 13.3-25.6L332 88.1l13.3 24.6 12.3-24.6 13.3-25.6 13.3 25.6 12.3 24.6 13.3-24.6 13.3-25.6 13.3 25.6 12.3 24.6L462 88.1l13.3-25.6 14.3 26.6 12.3 22.5 13.3-22.5 14.3-27.7 35.9 64.5 7.2 12.3 24.6-13.3-6.1-12.3-49.1-88-12.3-21.5-12.3 22.5L502 52.3l-14.3-26.6L474.4 2l-11.3 23.6-14.3 25.6-13.3-25.6L423.1 1l-12.3 24.6-13.3 25.6-14.3-25.6L370.9 1l-12.3 24.6-14.3 25.6L331 25.6 318.6 1l-12.3 24.6L293 51.2l-14.3-25.6L266.4 1l-12.3 24.6-13.3 24.6-13.3-24.6L214.1 1l-12.3 24.6-13.3 25.6-13.3-25.6L161.9 1l-12.3 24.6-13.3 25.6L123 25.6 110.7 1 97.3 25.6 84 51.2 70.7 25.6 57.4 0z"/></svg>