<svg xmlns="http://www.w3.org/2000/svg" viewBox="0 0 598 592.6"><path d="M57.4 454.1l-12.3 26.7L6.2 568 0 580.3l25.6 12.3 6.2-13.3 26.7-60.5 13.3 23.6L84.1 567l12.3-24.6 14.4-25.6 13.3 25.6 12.3 24.6 12.3-24.6 13.3-25.6 14.4 25.6 12.3 24.6 12.3-24.6 13.3-24.6 13.3 24.6 13.3 24.6 12.3-24.6 13.3-25.6 13.3 25.6 13.3 24.6 12.3-24.6 13.3-25.6 13.3 25.6 13.3 24.6 12.3-24.6 13.3-25.6 13.3 25.6L397 567l13.3-24.6 13.3-25.6 13.3 25.6 12.3 24.6 13.3-24.6 13.3-25.6 14.4 26.7 12.3 22.6 13.3-22.6 14.4-27.7 35.9 64.6 7.2 12.3 24.6-13.3-6.2-12.3-49.2-88.2-12.3-21.5-12.2 22.4-15.4 26.7-14.4-26.7-13.3-23.6-11.3 23.6-14.4 25.6-13.2-25.6-12.3-24.6-12.3 24.6-13.4 25.6-14.4-25.6-12.3-24.6-12.3 24.6-14.4 25.6-13.3-25.6-12.3-24.6-12.3 24.6-13.3 25.6-14.4-25.6-12.3-24.6-12.3 24.6-13.3 24.6-13.3-24.6-13.3-24.6-12.3 24.6-13.3 25.6-13.3-25.6-13.3-24.6-12.3 24.6-13.3 25.6-13.3-25.6-12.3-24.6-13.3 24.6-13.3 25.6-13.3-25.6-13.8-25.7zM57.4 227.1l-12.3 26.7-39 87.2L0 353.2l25.6 12.3 6.2-13.3 26.7-60.5 13.3 23.6 12.3 24.6 12.3-24.6 14.4-25.6 13.3 25.6 12.3 24.6 12.3-24.6 13.3-25.6 14.4 25.6 12.3 24.6 12.3-24.6 13.3-24.6 13.3 24.6 13.3 24.6 12.3-24.6 13.3-25.6 13.3 25.6 13.3 24.6 12.3-24.6 13.3-25.6 13.3 25.6 13.3 24.6 12.3-24.6 13.3-25.6 13.3 25.6 12.3 24.6 13.3-24.6 13.3-25.6 13.3 25.6 12.3 24.6 13.3-24.6 13.3-25.6 14.4 26.7L502 339l13.3-22.6 14.4-27.7 35.9 64.6 7.2 12.3 24.6-13.3-6.2-12.3-49.2-88.2-12.3-21.5-11.7 22.4-15.4 26.7-14.4-26.7-13.3-23.6-11.3 23.6-14.4 25.6-13.2-25.6-12.3-24.6-12.3 24.6-13.4 25.7-14.4-25.6-12.3-24.6-12.3 24.5-14.4 25.6-13.3-25.6-12.3-24.6-12.3 24.6-13.3 25.6-14.4-25.6-12.3-24.6-12.3 24.6-13.3 24.6-13.3-24.6-13.3-24.6-12.3 24.6-13.3 25.6-13.3-25.6-13.3-24.6-12.3 24.6-13.3 25.6-13.3-25.6-12.3-24.6-13.3 24.6-13.3 25.6-13.3-25.6-13.8-25.6zM57.4 0L45.1 26.7l-39 87.2L0 126.2l25.6 12.3 6.2-13.3 26.7-60.5 13.3 23.6 12.3 24.6 12.3-24.6 14.4-25.6 13.3 25.6 12.3 24.6 12.3-24.6L162 62.7l14.4 25.6 12.3 24.6L201 88.3l13.3-24.6 13.3 24.6 13.3 24.6 12.3-24.6 13.3-25.6L280 88.2l13.3 24.6 12.3-24.6L319 62.6l13.3 25.6 13.3 24.6L358 88.2l13.3-25.6 13.3 25.6 12.3 24.6 13.3-24.6 13.3-25.6L437 88.2l12.3 24.6 13.3-24.6L476 62.6l14.4 26.7 12.3 22.6L516 89.2l14.4-27.7 35.9 64.6 7.2 12.3 24.6-13.3-6.2-12.3-49.2-88.2-12.4-21.5L518 25.6l-15.4 26.7-14.4-26.7-13.3-23.5-11.3 23.6-14.4 25.6L436 25.6 423.6 1l-12.3 24.6L398 51.3l-14.4-25.6L371.3 1 359 25.6l-14.4 25.6-13.3-25.6L319 1l-12.3 24.6-13.3 25.6L279 25.6 266.7 1l-12.3 24.6-13.3 24.6-13.3-24.6L214.4 1l-12.3 24.6-13.3 25.6-13.3-25.6L162.1 1l-12.3 24.6-13.3 25.6-13.3-25.6L110.8 1 97.4 25.6 84.1 51.3 70.8 25.6 57.4 0z"/></svg>