<svg xmlns="http://www.w3.org/2000/svg" viewBox="0 0 595.3 140.8"><path d="M500 115.6c-8.2-8.2-12.2-23.4-12.2-45.6 0-21.8 4.1-36.7 12.2-44.9H95.9c8.2 8.2 12.2 23.1 12.2 44.9 0 22.2-4.1 37.4-12.2 45.6H500zM17.7 140.8C5.9 140.8 0 136.3 0 127.2c0-7.7 6.1-11.6 18.4-11.6h43.5c10.9-8.2 16.3-23.4 16.3-45.6 0-21.8-5.4-36.7-16.3-44.9H17.7C5.9 25.1.2 20.6.7 11.5.2 3.9 5.9 0 17.7 0h560.6c11.3 0 17 3.9 17 11.6 0 9.1-5.7 13.6-17 13.6H534c-10.9 8.2-16.3 23.1-16.3 44.9 0 22.2 5.4 37.4 16.3 45.6h43.5c11.8 0 17.7 3.9 17.7 11.6 0 9.1-5.7 13.6-17 13.6H17.7z"/></svg>