<svg xmlns="http://www.w3.org/2000/svg" viewBox="-10 0 1207 379"><path d="M-10 379V0h1207v379zm19-19h73l-50-48 61-59-61-61 60-53-59-59 54-60H9zm101 0h102l-50-48 60-59-60-61 60-53-59-59 54-60H114L60 79l61 61-60 53 59 60-60 59zm129 0h102l-50-48 61-59-61-61 60-53-59-59 54-60H243l-54 59 61 61-60 53 60 60-60 59zm130 0h101l-50-48 61-59-61-61 61-53-60-59 55-60H373l-55 59 61 61-60 53 60 60-60 59zm129 0h102l-50-48 60-59-60-61 60-53-59-59 54-60H502l-54 59 61 61-60 53 59 60-60 59zm130 0h101l-50-48 61-59-61-61 60-53-59-59 54-60H631l-54 59 61 61-60 53 60 60-60 59zm129 0h101l-49-48 60-59-60-61 60-53-59-59 54-60H761l-54 59 61 61-60 53 59 60-60 59zm129 0h102l-50-48 61-59-61-61 60-53-59-59 54-60H890l-54 59 61 61-60 53 60 60-60 59zm130 0h101l-50-48 61-59-61-61 61-53-60-59 55-60h-103l-55 59 61 61-60 53 60 60-60 59zm129 0h32V20h-28l-54 59 61 61-60 53 59 60-60 59z" fill="currentColor"/></svg>