<svg xmlns="http://www.w3.org/2000/svg" viewBox="0 0 585.1 158.7"><path d="M48.4 138.8c0-4.3 1.3-9.1 3.9-14.6 2.6-5.5 3.9-10.6 3.9-15.3 0-4.3-1.3-9.1-3.9-14.6-2.6-5.5-3.9-10.6-3.9-15.3 0-4.3 1.3-9.1 3.9-14.6s3.9-10.6 3.9-15.3c0-4.3-1.3-9.1-3.9-14.6S48.4 24 48.4 19.2H19.2v119.6h29.2zm52 0c0-4.3 1.2-9.1 3.6-14.6 2.4-5.5 3.6-10.6 3.6-15.3 0-4.3-1.2-9.1-3.6-14.6-2.4-5.5-3.6-10.6-3.6-15.3 0-4.3 1.2-9.1 3.6-14.6 2.4-5.5 3.6-10.6 3.6-15.3 0-4.3-1.2-9.1-3.6-14.6-2.4-5.5-3.6-10.6-3.6-15.3H71.2c0 4.7 1.2 9.8 3.6 15.3 2.4 5.5 3.6 10.3 3.6 14.6 0 4.7-1.2 9.8-3.6 15.3-2.4 5.5-3.6 10.3-3.6 14.6 0 4.7 1.2 9.8 3.6 15.3 2.4 5.5 3.6 10.3 3.6 14.6 0 4.7-1.2 9.8-3.6 15.3-2.4 5.5-3.6 10.3-3.6 14.6h29.2zm51.9 0c0-4.3 1.2-9.1 3.6-14.6 2.4-5.5 3.6-10.6 3.6-15.3 0-4.3-1.2-9.1-3.6-14.6-2.4-5.5-3.6-10.6-3.6-15.3 0-4.3 1.2-9.1 3.6-14.6 2.4-5.5 3.6-10.6 3.6-15.3 0-4.3-1.2-9.1-3.6-14.6-2.4-5.5-3.6-10.6-3.6-15.3h-29.9c0 4.7 1.3 9.8 3.9 15.3 2.6 5.5 3.9 10.3 3.9 14.6 0 4.7-1.3 9.8-3.9 15.3-2.6 5.5-3.9 10.3-3.9 14.6 0 4.7 1.3 9.8 3.9 15.3 2.6 5.5 3.9 10.3 3.9 14.6 0 4.7-1.3 9.8-3.9 15.3-2.6 5.5-3.9 10.3-3.9 14.6h29.9zm51.3 0c0-4.3 1.3-9.1 3.9-14.6 2.6-5.5 3.9-10.6 3.9-15.3 0-4.3-1.3-9.1-3.9-14.6-2.6-5.5-3.9-10.6-3.9-15.3 0-4.3 1.3-9.1 3.9-14.6 2.6-5.5 3.9-10.6 3.9-15.3 0-4.3-1.3-9.1-3.9-14.6-2.6-5.5-3.9-10.6-3.9-15.3h-29.2c0 4.7 1.3 9.8 3.9 15.3 2.6 5.5 3.9 10.3 3.9 14.6 0 4.7-1.3 9.8-3.9 15.3-2.6 5.5-3.9 10.3-3.9 14.6 0 4.7 1.3 9.8 3.9 15.3 2.6 5.5 3.9 10.3 3.9 14.6 0 4.7-1.3 9.8-3.9 15.3-2.6 5.5-3.9 10.3-3.9 14.6h29.2zm52 0c0-4.3 1.2-9.1 3.6-14.6 2.4-5.5 3.6-10.6 3.6-15.3 0-4.3-1.2-9.1-3.6-14.6-2.4-5.5-3.6-10.6-3.6-15.3 0-4.3 1.2-9.1 3.6-14.6 2.4-5.5 3.6-10.6 3.6-15.3 0-4.3-1.2-9.1-3.6-14.6-2.4-5.5-3.6-10.6-3.6-15.3h-29.2c0 4.7 1.2 9.8 3.6 15.3s3.6 10.3 3.6 14.6c0 4.7-1.2 9.8-3.6 15.3s-3.6 10.3-3.6 14.6c0 4.7 1.2 9.8 3.6 15.3 2.4 5.5 3.6 10.3 3.6 14.6 0 4.7-1.2 9.8-3.6 15.3-2.4 5.5-3.6 10.3-3.6 14.6h29.2zM585.1 0v158.7H0V0h585.1zM306.8 138.8c0-4.3 1.3-9.1 3.9-14.6 2.6-5.5 3.9-10.6 3.9-15.3 0-4.3-1.3-9.1-3.9-14.6-2.6-5.5-3.9-10.6-3.9-15.3 0-4.3 1.3-9.1 3.9-14.6 2.6-5.5 3.9-10.6 3.9-15.3 0-4.3-1.3-9.1-3.9-14.6-2.6-5.5-3.9-10.6-3.9-15.3h-29.2c0 4.7 1.3 9.8 3.9 15.3 2.6 5.5 3.9 10.3 3.9 14.6 0 4.7-1.3 9.8-3.9 15.3-2.6 5.5-3.9 10.3-3.9 14.6 0 4.7 1.3 9.8 3.9 15.3 2.6 5.5 3.9 10.3 3.9 14.6 0 4.7-1.3 9.8-3.9 15.3-2.6 5.5-3.9 10.3-3.9 14.6h29.2zm52 0c0-4.3 1.3-9.1 3.9-14.6 2.6-5.5 3.9-10.6 3.9-15.3 0-4.3-1.3-9.1-3.9-14.6-2.6-5.5-3.9-10.6-3.9-15.3 0-4.3 1.3-9.1 3.9-14.6 2.6-5.5 3.9-10.6 3.9-15.3 0-4.3-1.3-9.1-3.9-14.6-2.6-5.5-3.9-10.6-3.9-15.3h-29.2c0 4.7 1.2 9.8 3.6 15.3 2.4 5.5 3.6 10.3 3.6 14.6 0 4.7-1.2 9.8-3.6 15.3-2.4 5.5-3.6 10.3-3.6 14.6 0 4.7 1.2 9.8 3.6 15.3 2.4 5.5 3.6 10.3 3.6 14.6 0 4.7-1.2 9.8-3.6 15.3-2.4 5.5-3.6 10.3-3.6 14.6h29.2zm51.9 0c0-4.3 1.2-9.1 3.6-14.6 2.4-5.5 3.6-10.6 3.6-15.3 0-4.3-1.2-9.1-3.6-14.6-2.4-5.5-3.6-10.6-3.6-15.3 0-4.3 1.2-9.1 3.6-14.6s3.6-10.6 3.6-15.3c0-4.3-1.2-9.1-3.6-14.6s-3.6-10.6-3.6-15.3h-29.2c0 4.7 1.2 9.8 3.6 15.3 2.4 5.5 3.6 10.3 3.6 14.6 0 4.7-1.2 9.8-3.6 15.3-2.4 5.5-3.6 10.3-3.6 14.6 0 4.7 1.2 9.8 3.6 15.3 2.4 5.5 3.6 10.3 3.6 14.6 0 4.7-1.2 9.8-3.6 15.3-2.4 5.5-3.6 10.3-3.6 14.6h29.2zm51.3 0c0-4.3 1.3-9.1 3.9-14.6 2.6-5.5 3.9-10.6 3.9-15.3 0-4.3-1.3-9.1-3.9-14.6-2.6-5.5-3.9-10.6-3.9-15.3 0-4.3 1.3-9.1 3.9-14.6 2.6-5.5 3.9-10.6 3.9-15.3 0-4.3-1.3-9.1-3.9-14.6-2.6-5.5-3.9-10.6-3.9-15.3h-29.2c0 4.7 1.3 9.8 3.9 15.3 2.6 5.5 3.9 10.3 3.9 14.6 0 4.7-1.3 9.8-3.9 15.3-2.6 5.5-3.9 10.3-3.9 14.6 0 4.7 1.3 9.8 3.9 15.3 2.6 5.5 3.9 10.3 3.9 14.6 0 4.7-1.3 9.8-3.9 15.3-2.6 5.5-3.9 10.3-3.9 14.6H462zm52 0c0-4.3 1.2-9.1 3.6-14.6 2.4-5.5 3.6-10.6 3.6-15.3 0-4.3-1.2-9.1-3.6-14.6-2.4-5.5-3.6-10.6-3.6-15.3 0-4.3 1.2-9.1 3.6-14.6s3.6-10.6 3.6-15.3c0-4.3-1.2-9.1-3.6-14.6S514 24 514 19.2h-29.2c0 4.7 1.2 9.8 3.6 15.3 2.4 5.5 3.6 10.3 3.6 14.6 0 4.7-1.2 9.8-3.6 15.3-2.4 5.5-3.6 10.3-3.6 14.6 0 4.7 1.2 9.8 3.6 15.3 2.4 5.5 3.6 10.3 3.6 14.6 0 4.7-1.2 9.8-3.6 15.3-2.4 5.5-3.6 10.3-3.6 14.6H514zm22 0h29.9V19.2H536c0 4.7 1.3 9.8 3.9 15.3 2.6 5.5 3.9 10.3 3.9 14.6 0 4.7-1.3 9.8-3.9 15.3-2.6 5.5-3.9 10.3-3.9 14.6 0 4.7 1.3 9.8 3.9 15.3 2.6 5.5 3.9 10.3 3.9 14.6 0 4.7-1.3 9.8-3.9 15.3-2.6 5.5-3.9 10.3-3.9 14.6z"/></svg>