<svg xmlns="http://www.w3.org/2000/svg" viewBox="-10 0 1181 792"><path d="M76 792v-48q27-5 60-12t60-15q27-8 38-16 15-9 32-32.5t33-53.5q16-30 26-57 32-71 54-115l32-64H-10V0h1181v379H745q22 38 40 77.5t27 63.5q9 25 19 51.5t18 49q8 22.5 13 34.5 8 20 22.5 46t19.5 43q1 10-4.5 25.5T884 792h-38q-14 0-26-5.5t-22-5.5q-8 0-26.5 1.5T731 786q-22 2-41 4t-28 2h-98v-48q21-4 46-10t48-12q23-6 34-11 31-14 43-22.5t9-23q-3-14.5-18-44.5-31-60-66.5-117.5T590 379h-26q-25 75-52 122.5T457 589q-6 9-18 26t-25.5 35.5Q400 669 389 684q-1 3-2 10t-1 15q0 7 3 19.5t5 22.5q-1 11-6 21t-17 20h-31q-14 0-28.5-5.5T287 781q-10 0-34.5 2.5t-49.5 5q-25 2.5-37 3.5zM9 360h1143V20H9zm28-28V48h1087v284zm20-20h1048V67H57zm39 462l65-2q8 0 25.5-1.5t38-3.5q20.5-2 37.5-3.5t24-1.5q12 0 27 5.5t28 5.5h22q6-4 8-8t4-14q-2-4-5-18.5t-3-23.5q0-16 2-30 12-16 26.5-36t27-38q12.5-18 18.5-27 31-47 56.5-91T542 379H434q-13 23-36 69.5T346 562q-12 27-28.5 59T282 680q-19 27-36 38-10 7-36 15t-57 15q-31 7-57 11zm487-1l75-1q8 0 27.5-1.5t43-3.5 43-3.5Q791 762 798 762q12 0 24.5 5.5T848 773h28q6-8 9-30-4-14-19-39.5T843 660q-4-12-13-36t-19-51.5Q801 545 793 525q-10-25-28.5-65.5T722 379H615q29 63 62.5 119T743 615q17 34 22.5 52t-8.5 31q-14 13-54 29-12 5-33 11t-44.5 12q-23.5 6-42.5 10z" fill="currentColor"/></svg>