<svg xmlns="http://www.w3.org/2000/svg" viewBox="0 0 595.3 409.4"><path d="M0 0v158.2h290C232.7 226.6 184.6 290 145.7 348.3c-18.5 14.3-34.5 23.4-47.9 27.1-5.6 2.8-23.8 5.5-54.8 8.3-26.8 1.9-40.2 6.2-40.2 13.2v.7l.7.7c0 5.1 29.4 8.3 88.1 9.7 6.9-2.3 15.7-3.5 26.4-3.5h6.9c12.5 2.3 21 3.5 25.7 3.5h.7c9.7 0 16.9-2.8 21.5-8.3 4.6 0 8.1-10.9 10.4-32.6 0-5.6 17.9-28.6 53.8-69 35.8-40.5 56.3-70.4 61.4-89.8 0-7.9 6.5-11.8 19.4-11.8 14.3.5 29.4 10.4 45.1 29.8 35.6 42.6 67.1 87 94.4 133.2 0 1.8-3.5 3.2-10.4 4.2-16.7 10.6-30.1 16.9-40.2 18.7-36.1 6-54.1 12.5-54.1 19.4v1.4c0 3.2 20.6 5.3 61.7 6.2l45.8-4.2 47.2 4.2c10.6-1.4 16-5.8 16-13.2 0-8.3-3.7-17.3-11.1-27.1-14.8-18.5-29.6-42.8-44.4-72.9-33.3-68.9-73.5-114.9-120.7-138.1h248.4V0H0zm21.5 20.8h552.3v115.9H21.5V20.8z"/></svg>