<svg version="1" xmlns="http://www.w3.org/2000/svg" width="242.7" height="244" viewBox="0 0 182 183"><path d="M4.6 5.4A807.1 807.1 0 0 0 1.1 97c2.8 40.5 22.3 68.4 55.8 79.6a97.7 97.7 0 0 0 39 5.1 91.4 91.4 0 0 0 39.8-9.8 80.5 80.5 0 0 0 42.5-57.4c3.5-16.7 3.2-46.8-.9-104.8l-.6-8.7h-5.9l.7 12c.4 6.6.5 12 .3 12-.3 0-2.9-3.2-5.9-7-2.9-3.9-5.6-7-5.9-7-.4 0-4.4 4.7-9 10.5S142.5 32 142.4 32c-.2 0-4-4.7-8.4-10.5a86.5 86.5 0 0 0-8.9-10.5c-.4 0-4.3 4.7-8.6 10.5a95.3 95.3 0 0 1-8.7 10.5c-.3 0-4.3-5-8.8-11.1a44.7 44.7 0 0 0-8.9-10.3l-8.5 11.1c-4.2 5.7-7.8 10.3-8 10.3-.2 0-4-4.7-8.6-10.5A86.5 86.5 0 0 0 56.1 11c-.4 0-4.3 4.7-8.7 10.5C43.1 27.3 39.3 32 39 32c-.3 0-4.3-5-9-11l-8.5-11-1.7 2.3-6.3 8.2-4.7 6 .6-8 1.2-12.6c.5-4.6.5-4.7-2.5-5.1-2.9-.4-3-.4-3.5 4.6zm27.7 28.3c3.4 4.5 6.4 8.2 6.7 8.2.3 0 4.2-4.9 8.8-11l8.3-11 8.1 10.3L73 41.3c.6.7 8.8-9.1 16.3-19.6 1.2-1.7 2-.9 9.1 8.5l8.6 11.1c.4.5 4.7-4.2 9.6-10.3 4.8-6 9.1-10.7 9.4-10.3l8.5 11.1c4.2 5.7 8.1 10 8.5 9.5.5-.4 4.4-5.4 8.9-11.1l8-10.2 6.2 8.1c7.6 10 7.6 9.9 8.5 41.2.7 24.7-.1 35.4-3.5 48.9a75.6 75.6 0 0 1-38.1 48.5c-14.3 7.1-22.6 8.8-42.5 8.7-20-.1-27.5-1.6-42-8.8-21.5-10.7-35.3-30.7-40.1-58-1.8-10.1-2.1-28-1-53.9l.8-16.8 6.6-9 6.7-9 2.3 2.8 8.5 11z"/></svg>