<svg xmlns="http://www.w3.org/2000/svg" viewBox="-10 0 574 577"><path d="M277 577q-81 0-146-33T28 443q-38-68-38-173 0-35 2-83.5T-2.5 88Q1 38 4 0l19 2q-1 11-2.5 33T17 83l40-52 56 71q13-17 27.5-36.5T167 31l56 71q13-17 27.5-37T277 30l54 72 56-71 54 71 56-71 40 52q-2-26-3.5-48T531 2l19-2q3 38 6 88t5.5 98.5Q564 235 564 270q0 105-38 173T423.5 544Q359 577 277 577zm0-19q76 0 136.5-30.5t96-94.5Q545 369 545 270q0-31-2-72.5t-4-79.5l-42-56-56 71-54-71-56 71-54-71q-13 17-28 36.5T223 133l-56-71q-13 17-27.5 36.5T113 133L57 62l-42 56q-2 38-4 79.5T9 270q0 99 35.5 163t96 94.5Q201 558 277 558z" fill="currentColor"/></svg>