<svg xmlns="http://www.w3.org/2000/svg" viewBox="0 0 556 528.1"><path d="M0 0v157.7l12.8.1 76-72.7H186v292.8l29.7-1.1V85.1h133.2l1 192.3 27.7 1.5V85.1h92.1l70.5 73 15.8.9L555.5.3 0 0m31.4 24.6h497.7v85.9L484 59.9H74.4l-42.9 49.6-.1-84.9z"/><path d="M201.2 430.7c-7.4 2.5-13.1 6.7-17 12.7l-53 73.1c-9.2 10.6-16.4 14-21.7 10.1-5.3-3.5-4.2-11.3 3.2-23.3l53-73.1c4.6-5.7 6.9-12.4 6.9-20.1-4.2-6.4-9.7-10.6-16.4-12.7l-86.4-27.5c-13.1-5.3-18.5-11.1-16.4-17.5 1.8-6 9.5-7.4 23.3-4.2l85.8 28.1c6.7 2.8 13.8 2.8 21.2 0 4.2-6 6.2-12.5 5.8-19.6v-90.6c1.1-13.8 4.9-20.7 11.7-20.7 6.4 0 10.1 6.9 11.1 20.7v90.6c-.4 7.1 1.8 13.6 6.4 19.6 7.1 2.5 14 2.5 20.7 0l86.4-28.1c13.4-3.2 21.2-1.6 23.3 4.8 2.1 6-3.4 11.7-16.4 17l-85.8 27.5c-7.1 2.1-12.7 6.4-17 12.7-.4 7.4 1.8 14 6.4 19.6l53.5 73.1c7.1 12 7.9 20 2.6 23.8-4.9 3.9-12 .5-21.2-10.1l-53-73.1c-4.3-6.5-10-10.7-17-12.8zm-26-27.1c0 5.7 2.4 11.3 7.2 17 4.8 5.7 10.9 8.5 18.3 8.5 8.1 0 14.6-2.6 19.3-7.9 4.8-5.3 7.2-11.1 7.2-17.5 0-7.1-2.7-13.1-8.2-18-5.5-4.9-11.4-7.4-17.7-7.4-7.8 0-14 2.6-18.8 7.7-4.9 5-7.3 10.9-7.3 17.6zm4.8 0c0 4.6 1.9 9.1 5.8 13.5s8.8 6.6 14.8 6.6c6.7 0 11.9-2 15.6-6.1 3.7-4.1 5.6-8.7 5.6-14 0-5.7-2.2-10.5-6.6-14.6-4.4-4.1-9.1-6.1-14-6.1-6.4 0-11.5 2.1-15.4 6.4-3.9 4.3-5.8 9-5.8 14.3z"/></svg>