<svg xmlns="http://www.w3.org/2000/svg" viewBox="0 0 277.6 276.7"><path d="M137.9 103.6c21.1 1.8 32.5 12.9 34.3 33.4-1.2 22.3-12.6 34-34.3 35.1-21.7-1.2-34-12.9-36.9-35.1 2.4-20.5 14.6-31.6 36.9-33.4zM0 138.8c0 19.3 3.7 37.3 11 54 7.3 16.7 17.1 31.2 29.4 43.5 12.3 12.3 26.9 22.1 43.9 29.4 17 7.3 35.1 11 54.5 11s37.3-3.7 54-11c16.7-7.3 31.3-17.1 43.9-29.4 12.6-12.3 22.5-26.8 29.9-43.5 7.3-16.7 11-34.7 11-54 0-19.3-3.7-37.3-11-54-7.3-16.7-17.3-31.3-29.9-43.9-12.6-12.6-27.2-22.5-43.9-29.9-16.7-7.3-34.7-11-54-11s-37.5 3.7-54.5 11-31.6 17.3-43.9 29.9C28.1 53.4 18.3 68.1 11 84.8s-11 34.7-11 54zm28.1.9c0-14.6 2.9-28.5 8.8-41.7 5.8-13.2 13.8-25 23.7-35.2 10-10.2 21.8-18.3 35.6-24.2 13.8-5.9 28.5-8.8 44.4-8.8 15.8 0 30.4 2.9 43.9 8.8s25.3 13.9 35.6 24.2c10.2 10.2 18.3 22 24.2 35.1 5.9 13.2 8.8 27.1 8.8 41.7 0 15.2-2.9 29.4-8.8 42.6-5.9 13.2-13.9 24.7-24.2 34.7-10.2 10-22.1 17.7-35.6 23.3-13.5 5.6-28.1 8.3-43.9 8.3-15.8 0-30.6-2.8-44.4-8.3-13.8-5.6-25.6-13.3-35.6-23.3s-17.9-21.5-23.7-34.7c-5.9-13.1-8.8-27.3-8.8-42.5z"/></svg>