<svg id="svg1472" xmlns="http://www.w3.org/2000/svg" viewBox="0 0 8.6 12.5"><style>.st0{stroke:#000;stroke-width:.4}</style><g id="g3318"><path id="path1474" d="M4.2 3.2c.6.1 1 .4 1 1 0 .7-.4 1-1 1.1-.7 0-1-.4-1.1-1.1 0-.7.4-1 1.1-1zM0 4.2a3.8 3.8 0 0 0 1.2 2.9c.4.4.8.7 1.4 1a4.5 4.5 0 0 0 3.2 0c.5-.2.9-.5 1.3-.9a3.8 3.8 0 0 0 1.2-2.9c0-.6 0-1.2-.2-1.7a3 3 0 0 0-.9-1.3C6.8.9 6.3.6 5.8.4A3 3 0 0 0 4.2 0c-.6 0-1.1.1-1.6.4s-1 .5-1.3.9c-.4.3-.7.8-1 1.3-.2.5-.3 1-.3 1.6zm.9 0L1.1 3l.7-1.1c.3-.3.7-.6 1.1-.7a3.2 3.2 0 0 1 2.7 0l1.1.7.7 1.1c.2.4.3.8.3 1.3s-.1.9-.3 1.3l-.7 1-1.1.7c-.4.2-.9.2-1.3.2-.5 0-.9-.1-1.3-.3-.5-.1-.9-.3-1.2-.6l-.7-1-.2-1.4z"/><path id="path1568" class="st0" d="M.2 9.5v.8h8.1v-.8H.2z"/><path id="path3316" class="st0" d="M.2 11.5v.8h8.1v-.8H.2z"/></g></svg>