<svg xmlns="http://www.w3.org/2000/svg" viewBox="0 0 400.9 339.6"><path d="M221 0c-39.3 0-70.2 13.6-97.9 41.4-28.4 28.4-40.4 59.4-41 99.3-.3 23.1 4.4 43.4 13.8 61.9 7.5 36.4 7.9 97.4-2.1 97.4-17.2 0-7.4-45.8-8.2-60.1-1.4-24.3-15.8-45-32.8-61.4-4-3.8-8.3-8-14-8.6-11.5-1.2-24.1-2.2-35.1 1.8-4.2 1.5-4.4 7.5-3 11.4 1.4 4 4.1 8.3 8.8 8.8 6.9.8 13.6-1.2 20.5-1.3 2.5 0 5.6 0 7.4 2-3.8 7.1-9.1 14.1-9.9 22.5-.3 3.3-.3 6.6.8 9.8 11.1 30.8 17.9 101.4 64 101.4 8.7 0 12.9-1.8 15.7-4.4 20.5-19 20.8-51.2 19.6-77.9 27.1 25.5 57.6 36.1 95.3 36.6 39.7.6 71.1-13.8 99.3-41 7.5-7.2 13.9-14.7 19.2-22.4 1.2 26.4 2.5 53 12.2 77.8 7.6 19.6 24.6 33.8 42.9 43.5 6.2 3.3 4.8-1.6 1.4-4.9-11.7-11.4-21.4-25.3-27.1-41-9.8-26.9-8.8-55.9-8.2-84 .4-17.2 1.1-34.4.1-51.6h-.1c.5-5.3.8-10.7.9-16.3.5-40.2-13.5-70.9-41.4-99.3C294 12.6 263 .4 222.9 0H221zm3.6 30c14.9 0 29.7 3.1 44.7 9.3 28.6 11.8 47.9 32.3 60.6 60.1 13 28.4 12 57.1 0 85.5-12 28.3-32.6 46.9-60.6 58.8-29.5 12.5-59.9 11.3-89.5 0-28.4-10.8-47.3-31.7-60.1-58.8-6.3-13.2-8.9-27.8-8.9-43.2-.1-29.9 13-56.4 33-77.9 9.8-10.6 22-18.8 36.1-24.5 14.9-6.2 29.8-9.3 44.7-9.3zm-2.6 75.1c-22.6 0-37.7 13.1-37.4 33.9.3 22.6 15.4 35.6 37.4 35.6s35.1-13.1 34.7-35.6c-.2-20.8-13.3-33.9-34.7-33.9z"/></svg>