<svg xmlns="http://www.w3.org/2000/svg" viewBox="-10 0 1075 704"><path d="M608 704q-79 0-148-33t-117-88q-9 17-27.5 44.5T268 676q-29 21-71 21-44 0-72.5-14T80 647.5Q64 626 57.5 602T51 558q0-33 5-62.5t5-62.5q0-12-4-40t-9-61q-5-33-9-60.5T35 232q0-19 8-40.5T71 151q-8 1-15.5 2T45 154q-9 0-22-1t-23-7q-10-6-10-22 0-15 14.5-32.5T42 61q23-13 48-13 31 0 61 16t54 41q24 25 38 52.5t14 49.5q0 35-17 81t-34 84q-20 44-38 91t-18 90q0 31 16 52t41 21q21 0 37.5-14.5t28.5-34q12-19.5 19-35.5t8-19q-21-37-32.5-81T256 352q0-73 27.5-136.5t76-112q48.5-48.5 112-76T608 0q73 0 136.5 27.5t112 76q48.5 48.5 76 112T960 352q0 24-3 46 0 15 5.5 46t14 64.5Q985 542 995 563q8 16 19 33.5t20.5 31Q1044 641 1046 644q7 8 13 19.5t6 19.5q0 12-15 12-17 0-35.5-11.5T982 656q-16-17-35.5-52.5T916 522q-30 54-77 95t-106 64q-59 23-125 23zm0-19q69 0 129.5-26t106-71.5Q889 542 915 481.5T941 352q0-69-26-129t-71.5-106q-45.5-46-106-71.5T608 20q-69 0-129.5 25.5t-106 71.5Q327 163 301 223t-26 129q0 69 26 129.5t71.5 106Q418 633 478.5 659T608 685zm-411-7q29 0 51.5-13.5T287 632q16-19 26.5-37t15.5-28q-4-6-8.5-12t-8.5-12q-7 18-21.5 42t-35 42Q235 645 207 645q-32 0-54-26.5T131 553q0-47 18-95t39-94q19-40 34.5-80t15.5-77q0-19-13-43t-34.5-46Q169 96 143 82T90 68q-20 0-38.5 9.5T21 100Q9 113 9 124q0 8 13.5 9.5T45 135q21 0 43-6t45-6q8 0 17.5 1.5T169 130l-10 17q-5-3-12-4t-14-1q-33 0-56 28t-23 62q0 27 6.5 63T74 367.5q7 36.5 7 65.5 0 32-5 61.5T71 558q0 24 10 52t37.5 48q27.5 20 78.5 20zm411-252q-31 0-52.5-21.5T534 352q0-31 21.5-52.5T608 278q31 0 52.5 21.5T682 352q0 31-21.5 52.5T608 426zm0-20q23 0 38.5-16t15.5-38q0-22-15.5-38T608 298q-23 0-38.5 16T554 352q0 22 15.5 38t38.5 16zm436 269q2 0-3-7.5t-12.5-17.5q-7.5-10-11.5-16-8-10-20.5-28T978 572q-10-21-18.5-54T945 454q-3 10-6.5 19.5T931 493q8 51 25.5 91t39.5 61q6 6 13.5 12.5T1024 668q13 7 20 7z" fill="currentColor"/></svg>