<svg xmlns="http://www.w3.org/2000/svg" viewBox="0 0 513.6 466.2"><path d="M486.9 137.2c-52.8-39-104.4-64.9-154.7-77.9-50.3-12.9-100.7-12.9-151 0S79.4 98.2 26.5 137.2c46.1-48.2 96-81.9 149.6-101C229.8 17.1 284 17 338.8 35.9 393.6 54.8 443 88.6 486.9 137.2zm-8.5 18.6c10.3 10.6 19.9 13.6 29 8.8 9-4.8 8.2-16-2.4-33.8-11.7-22.7-40.5-49.8-86.4-81.3C372.7 17.9 318.8 1.4 256.7 0c-62 1.4-116 17.9-161.9 49.4C49 81 20.2 108.1 8.5 130.8c-10.6 17.7-11.3 28.9-1.9 33.5 9.4 4.6 18.9 1.6 28.4-9 18.1-19.1 59.5-40.7 124.4-64.6 64.9-23.9 129.7-23.9 194.6 0s106.3 45.6 124.4 65.1z"/><path d="M255.7 345.9c-9.2 3.1-16.1 8.3-20.9 15.7l-65.4 90.3c-11.3 13.1-20.3 17.2-26.8 12.4-6.5-4.4-5.2-14 3.9-28.8l65.4-90.3c5.7-7 8.5-15.3 8.5-24.9-5.2-7.8-12-13.1-20.3-15.7l-106.6-34c-16.1-6.5-22.9-13.7-20.3-21.6 2.2-7.4 11.8-9.2 28.8-5.2l106 34.7c8.3 3.5 17 3.5 26.2 0 5.2-7.4 7.6-15.5 7.2-24.2V142.5c1.3-17 6.1-25.5 14.4-25.5 7.8 0 12.4 8.5 13.7 25.5v111.8c-.4 8.7 2.2 16.8 7.8 24.2 8.7 3.1 17.2 3.1 25.5 0l106.6-34.7c16.6-3.9 26.2-2 28.8 5.9 2.6 7.4-4.1 14.4-20.3 20.9l-106 34c-8.7 2.6-15.7 7.8-20.9 15.7-.4 9.2 2.2 17.2 7.8 24.2l66.1 90.3c8.7 14.8 9.8 24.6 3.3 29.4-6.1 4.8-14.8.7-26.2-12.4l-65.4-90.3c-5.2-7.7-12.2-13-20.9-15.6zm-32.1-33.3c0 7 2.9 14 8.8 20.9 5.9 7 13.4 10.5 22.6 10.5 10 0 18-3.3 23.9-9.8 5.9-6.5 8.8-13.7 8.8-21.6 0-8.7-3.4-16.1-10.1-22.2-6.8-6.1-14.1-9.2-21.9-9.2-9.6 0-17.3 3.2-23.2 9.5-5.9 6.3-8.9 13.6-8.9 21.9zm5.9 0c0 5.7 2.4 11.2 7.2 16.7 4.8 5.5 10.9 8.2 18.3 8.2 8.3 0 14.7-2.5 19.3-7.5 4.6-5 6.9-10.8 6.9-17.3 0-7-2.7-13-8.2-18-5.5-5-11.2-7.5-17.3-7.5-7.8 0-14.2 2.6-19 7.8-4.8 5.1-7.2 11-7.2 17.6z"/></svg>