<svg xmlns="http://www.w3.org/2000/svg" viewBox="-10 0 708 1166"><path d="M-10 1166l162-634q-49-42-78.5-102T44 301q0-62 23.5-116.5t64.5-96q41-41.5 95.5-65T344 0q62 0 116.5 23.5t95.5 65q41 41.5 64.5 96T644 301q0 69-29.5 129T535 532l163 634zm354-585q58 0 109-22t89.5-60.5q38.5-38.5 60.5-89T625 301q0-58-22-109t-60.5-89.5Q504 64 453 42T344 20q-58 0-109 22t-89.5 60.5Q107 141 85 192T63 301q0 58 22 108.5t60.5 89Q184 537 235 559t109 22zm0-218q-25 0-43.5-18T282 301q0-26 18.5-44t43.5-18q25 0 43.5 18t18.5 44q0 26-18.5 44T344 363zm0-20q17 0 29.5-12.5T386 301q0-18-12.5-30.5T344 258q-18 0-30.5 12.5T301 301q0 17 12.5 29.5T344 343zM14 1147h97l180-366-124-226zm563 0h96L521 555 397 781q45 91 90 183t90 183zm-444 0h20l180-366-117-208q-5-3-11.5-6.5T192 560l121 220zm402 0h20L375 780l120-220q-6 4-12.5 7t-11.5 6L355 781zM344 762l98-178q-46 17-98 17-51 0-99-17zm-169 385h338L344 803z" fill="currentColor"/></svg>