<svg xmlns="http://www.w3.org/2000/svg" viewBox="0 0 334.8 594.6"><path d="M249.3 361.2l-33.6 45.5 71.1 98.3-37.5-143.8zM43.2 573l116.7-166.2-62.3-84.7-5.6 20 46.3 64.7L40 542.6 32 573h11.2zm6.3-67.9l71.9-98.3-33.6-47.1-38.3 145.4zM303.7 573l-7.2-29.6L199 406.8l44.8-64.7-5.6-20-60.7 84.7L294.1 573h9.6zM166.2 132.7c18.6 1.1 28.8 10.7 30.4 28.8-1.1 19.7-11.2 30.1-30.4 31.2-19.2-1.1-29.3-11.5-30.4-31.2 1.1-18.2 11.2-27.8 30.4-28.8zm1.6 196.5c-24 0-40-2.1-47.9-6.4l57.5 83.1L57.5 573h221.4L159.8 406.8l60.7-84.7c-4.2 4.7-21.8 7.1-52.7 7.1zm164.6-167c0 40.5-10.3 73.1-30.8 97.9-20.5 24.8-34.2 39.6-41.2 44.4l74.3 290.1H1.6l73.5-290.1c-1.6.5-14.5-10.7-38.8-33.6C12.1 248 0 211.8 0 162.2c0-42.6 14.5-80.4 43.6-113.5C72.6 15.7 114-.5 167.8 0c51.7 0 91.8 17.3 120.3 51.9 28.5 34.7 43.3 71.4 44.3 110.3zm-163.8-131c-42.1 0-75.2 13.2-99.5 39.6-24.2 26.4-36.4 56.9-36.4 91.5-.5 40 12.5 72.7 39.2 98.3C98.5 286.2 131 299 169.4 299c39.4 0 70.6-13.9 93.5-41.6 22.9-27.7 34.9-59.4 36-95.1.5-33.6-10.4-63.7-32.8-90.3-22.4-26.7-54.9-40.3-97.5-40.8z"/></svg>