<svg xmlns="http://www.w3.org/2000/svg" viewBox="0 0 585.2 594.5"><path d="M352.5 214.8h-38.1v73.1c46.7 16.6 77 17.1 91 1.6 14-15.6-3.6-40.5-52.9-74.7zm-124.5 0c16.6 28 33.7 46.2 51.4 54.5V214l-51.4.8zM93.4 186l404.7.8v28h-91c30.1 32.2 27.2 61.2-8.6 87.2-31.1 21.8-59.1 28-84 18.7v273.9h-35V307.4c-36.8-19.2-68.2-50.1-94.2-92.6H93.4l.8.8V186h-.8zM557.2 58.4c0-20.2-9.1-30.3-27.2-30.3-15 0-33.2 16.3-54.5 49-21.3 32.7-42.8 49-64.6 49-21.8 0-43.3-16.3-64.6-49-21.3-32.7-39.2-49-53.7-49s-32.4 16.3-53.7 49-42.8 49-64.6 49c-21.8 0-43.3-16.3-64.6-49S70.6 28 56 28c-18.7 0-28 10.1-28 30.3v128.4h529.2V58.4zm28 0v156.4H0V58.4C0 19.5 18.7 0 56 0c22.8 0 44.9 16.6 66.1 49.8 21.3 33.2 38.7 49.8 52.1 49.8 13 0 30.1-16.6 51.4-49.8C246.9 16.6 269.3 0 292.6 0c23.3 0 45.7 16.6 66.9 49.8 21.3 33.2 38.4 49.8 51.4 49.8 13.5 0 30.9-16.6 52.1-49.8C484.3 16.6 506.3 0 529.2 0c37.3 0 56 19.5 56 58.4z"/></svg>