<svg xmlns="http://www.w3.org/2000/svg" viewBox="0 0 545.3 594.5"><path d="M272.7 0c43.6.5 77.4 15.3 101.6 44.4 24.2 29 36.6 60 37.1 92.8 0 33.9-12.2 65.6-36.7 95.2-24.5 29.6-58.5 44.6-102 45.2-38.2 0-71.3-13-99.2-39.1-28-26.1-41.9-59.8-41.9-101.2 0-36 12.4-67.9 37.1-95.6C193.3 13.8 228 0 272.7 0zm-.8 105.7c19.4 1.6 30.1 11.8 32.3 30.7-1.6 20.4-12.4 31.5-32.3 33.1-19.9-1.6-30.4-12.6-31.5-33.1 1.1-18.9 11.6-29.1 31.5-30.7zm.8-79.9c-35.5 0-63.5 11.2-83.9 33.5-20.4 22.3-30.7 48-30.7 77-.5 33.9 10.5 61.6 33.1 83.1 22.6 21.5 49.7 32.3 81.5 32.3 33.3-.5 60.4-12.4 81.1-35.5 20.7-23.1 31.3-49.7 31.9-79.9-1.6-28.5-11.8-53.9-30.7-76.2-18.9-22.3-46.3-33.7-82.3-34.3zm-18.6 568.7V276.7h35.5v317.8h-35.5zm-75.8-374.3l30.7 16.1L31.5 580.8 0 564.7l178.3-344.5zm367 344.5l-31.5 16.1-177.4-344.4 30.7-16.1 178.2 344.4z"/></svg>