<svg xmlns="http://www.w3.org/2000/svg" viewBox="-10 0 634 940"><path d="M8 940l-18-7 182-517q-43-31-69-80T77 230q0-63 31-115.5T191 31Q243 0 307 0q63 0 115 31t83 83.5Q536 167 536 230q0 57-25.5 106T441 416l183 517-19 7-182-513q-47 29-107 32v477h-19V459q-60-3-107-32zm299-500q58 0 105.5-28.5t76-76.5Q517 287 517 230q0-58-28.5-105.5t-76-76Q365 20 307 20T201.5 48.5q-47.5 28.5-76 76T97 230q0 57 28.5 105t76 76.5Q249 440 307 440zm0-162q-20 0-34-14.5T259 230q0-20 14-34t34-14q20 0 34 14t14 34q0 19-14 33.5T307 278zm0-20q11 0 19.5-8.5T335 230q0-12-8.5-20.5T307 201q-12 0-20.5 8.5T278 230q0 11 8.5 19.5T307 258z" fill="currentColor"/></svg>