<svg xmlns="http://www.w3.org/2000/svg" viewBox="0 0 321.6 325.4"><path d="M321.5 157.1c1.8 43.1-13.3 82-45.2 116.5-31.9 34.5-70.3 51.8-115.2 51.8-45.3 0-83.6-17.3-114.9-51.8C15 239.1-.4 200 0 156.4c0-44 17.3-81.1 51.8-111.2C86.4 15.1 122.8 0 161.1 0S235.7 15.1 270 45.2c34.3 30.2 51.5 67.5 51.5 111.9zM299 145.9c-4.4-37-21.2-66.8-50.5-89.4s-58.5-34-87.8-34-58.6 11.3-88.1 34C43.1 79.2 26.4 109 22.4 145.9H299zm0 23.7H22.5c8.4 44 25.4 77.3 51.2 100 25.7 22.7 54.9 33.8 87.5 33.3 33.9-.4 63.4-11.8 88.5-34 24.9-22.1 41.4-55.3 49.3-99.3z"/></svg>