<svg xmlns="http://www.w3.org/2000/svg" viewBox="-10 0 1130 1155"><path d="M-1 1155v-20h112v-83H-1v-19h112v-83H-1v-20h536V796q-34-22-64-49t-50-48.5Q401 677 396 672H224q-5 6-20.5 21T162 720.5Q136 733 102 734q-35 0-57-12t-34-30.5q-12-18.5-16.5-37T-10 625q0-50 18.5-86.5T68 502q21 0 43.5 12t44 30q21.5 18 38 35.5T218 607h89v-79h38V388h-38V253h38V125h-38V10h131v25h45V10h130v115h-37v128h37v135h-37v140h37v79h296l7-393q-24-15-41.5-38T857 123V84q0-18 15.5-36T910 22V0h56v23q21 8 36.5 25.5T1018 84v39q0 30-18.5 53T958 214l7 393h150v65H709q8 13 17 34t9 40q0 35-22.5 61T633 833q-9 0-19-2t-20-5v104h526v20h-110v83h110v19h-110v83h110v20zm508-548h87v-59h-38V369h38v-96h-38V105h38V30h-92v38h32v507h-27zm-180 0h86v-32h-27V68h33V30h-92v75h37v168h-37v96h37v179h-37zm610-402q22-12 41.5-33t19.5-49V84q0-17-19.5-32.5T937 36q-22 0-41.5 15.5T876 84v39q0 28 19.5 49t41.5 33zM406 556h109V88H406zm522 51h18l-7-381h-4zm-766 0h31q-14-16-35.5-35.5t-45-34.5Q89 522 68 522q-20 0-34 14 9-4 25-4 15 0 36 14t40 32q19 18 27 29zm-122 0h96q-9-10-23-23.5t-30-24Q67 549 53 549q-9 0-16.5 4T29 569q0 12 4 22t7 16zm62 107q34 0 58-14.5t37-27.5h-26q-7 9-22 18.5t-41 9.5q-25 0-44.5-17t-33-42.5Q17 615 12 590q-1 10-1.5 19.5T10 627q1 38 27.5 63t64.5 24zm-39-61h1033v-26H45q3 5 8.5 12.5T63 653zm584 126q22 2 39.5-2.5T704 762q0-11-13-27.5T657.5 701Q637 684 615 672h-21v84q29 20 53 23zm-73-37v-70h-19v56q4 4 9 7.5t10 6.5zm-39-31v-39h-41q7 8 17.5 18.5T535 711zm98 102q48 0 68-23-11 5-26 7t-28 1q-23-1-51-16.5T541 745q-27-21-47.5-41T465 672h-36q15 15 38 38.5t50.5 47Q545 781 575 797t58 16zm82-75q-4-19-14.5-39T686 672h-35q18 13 36 31.5t28 34.5zm-607-58q20 0 33-8H81q11 8 27 8zm447 250h19V818q-5-2-10-4.5t-9-5.5zm-424 103h200v-83H131zm659 0h200v-83H790zm-220 0h201v-83H570zm-219 0h200v-83H351zm439 102h200v-83H790zm-220 0h201v-83H570zm-219 0h200v-83H351zm-220 0h200v-83H131z" fill="currentColor"/></svg>