<svg xmlns="http://www.w3.org/2000/svg" viewBox="-10 0 1130 1158"><path d="M-1 1158v-20h112v-83H-1v-19h112v-83H-1v-20h536V799q-34-22-64-49t-50-48.5Q401 680 396 675H224q-5 6-20.5 21T162 723.5Q136 736 102 737q-35 0-57-12t-34-30.5q-12-18.5-16.5-37T-10 628q0-50 18.5-86.5T68 505q21 0 43.5 12t44 30q21.5 18 38 35.5T218 610h184q-5-8-8-18.5t-3-24.5q0-15 6-32.5t22-27.5q-20-16-32.5-50.5T374 369V268q0-50 11-89t33-55q-16-10-21.5-28T391 64q0-21 9-38.5T417 0l14 13q-7 7-14 20.5T410 64q0 14 8.5 31.5T449 113q22 0 30-17.5t8-31.5q0-17-6.5-30.5T467 13l14-13q8 8 17 25.5t9 38.5q0 14-5.5 32T480 124q22 16 33 55t11 89v101q0 53-13 87.5T479 507q16 10 22 27.5t6 32.5q0 14-4 24.5t-8 18.5h246V166q25-25 48.5-49T813 83q0-16-15-16-11 0-19 13.5T763 108l-9 16q-5 8-13 16.5t-22 8.5q-14 0-22.5-9.5T688 119q0-8 7-26.5t20.5-39Q729 33 749 18.5T795 4q39 0 60.5 21T877 78q0 26-14 46.5T837 156l-32 29v425h310v65H709q8 13 17 34t9 40q0 35-22.5 61T633 836q-9 0-19-2t-20-5v104h526v20h-110v83h110v19h-110v83h110v20zm762-548h25V177l37-35q10-10 22.5-26.5T858 78q0-24-16.5-39.5T795 23q-21 0-37.5 12T730 64.5q-11 17.5-16.5 33T708 119q0 10 11 10 6 0 11-6t8-12l8-13q8-16 20.5-33T798 48q20 0 27.5 10t7.5 25q0 10-12 25.5T792.5 141Q776 158 761 173zM449 499q22 0 38.5-34t16.5-96V268q0-58-14-97t-41-39q-28 0-42 39t-14 97v101q0 62 17 96t39 34zm-25 111h49q4-5 9-16t5-27q0-14-8-31.5T449 518q-23 0-31 17.5t-8 31.5q0 15 4.5 26t9.5 17zm-262 0h31q-14-16-35.5-35.5t-45-34.5Q89 525 68 525q-20 0-34 14 9-4 25-4 15 0 36 14t40 32q19 18 27 29zm-122 0h96q-9-10-23-23.5t-30-24Q67 552 53 552q-9 0-16.5 4T29 572q0 12 4 22t7 16zm62 107q34 0 58-14.5t37-27.5h-26q-7 9-22 18.5t-41 9.5q-25 0-44.5-17t-33-42.5Q17 618 12 593q-1 10-1.5 19.5T10 630q1 38 27.5 63t64.5 24zm-39-61h1033v-26H45q3 5 8.5 12.5T63 656zm652 85q-4-19-14.5-39T686 675h-35q18 13 36 31.5t28 34.5zm-607-58q20 0 33-8H81q11 8 27 8zm539 99q22 2 39.5-2.5T704 765q0-11-13-27.5T657.5 704Q637 687 615 675h-21v84q29 20 53 23zm-14 34q48 0 68-23-11 5-26 7t-28 1q-23-1-51-16.5T541 748q-27-21-47.5-41T465 675h-36q15 15 38 38.5t50.5 47Q545 784 575 800t58 16zm-98-102v-39h-41q7 8 17.5 18.5T535 714zm39 31v-70h-19v56q4 4 9 7.5t10 6.5zm-19 188h19V821q-5-2-10-4.5t-9-5.5zm235 103h200v-83H790zm-220 0h201v-83H570zm-219 0h200v-83H351zm-220 0h200v-83H131zm659 102h200v-83H790zm-220 0h201v-83H570zm-219 0h200v-83H351zm-220 0h200v-83H131z" fill="currentColor"/></svg>