<svg xmlns="http://www.w3.org/2000/svg" viewBox="-10 0 1130 1179"><path d="M-1 1179v-20h112v-83H-1v-19h112v-83H-1v-20h536V820q-34-22-64-49t-50-48.5Q401 701 396 696H224q-5 6-20.5 21T162 744.5Q136 757 102 758q-35 0-57-12t-34-30.5q-12-18.5-16.5-37T-10 649q0-50 18.5-86.5T68 526q21 0 43.5 12t44 30q21.5 18 38 35.5T218 631h699V470q-16-2-34-12.5T865 416q0-36 16-74t29-60H770V176q0-42 30-42 9 0 21 9 0-16 11-28t28-12q7 0 14 2.5t12 6.5l6-50q3-22 15-42t38-20q26 0 38 20t15 42l6 50q11-9 25-9 16 0 28 12t12 28q12-9 21-9 30 0 30 42v106H979q13 22 29 60t16 74q0 31-17.5 41.5T972 470v161h143v65H709q8 13 17 34t9 40q0 35-22.5 61T633 857q-9 0-19-2t-20-5v104h526v20h-110v83h110v19h-110v83h110v20zm946-966q26 0 49-14L978 64q-1-16-9.5-30.5T945 19q-16 0-24 14.5T912 64q-5 31-9 67t-8 68q25 14 50 14zM219 603V291q0-31 16-59.5t47.5-47.5q31.5-19 77.5-20V28h219v136q46 1 77.5 20t48 47.5Q721 260 721 291v312h-20V291q0-39-31-72t-91-35v419h-19V47h-80v556h-20V47h-80v556h-20V184q-59 2-90.5 35T238 291v312zm810-440q9 0 14.5-6t5.5-14q0-20-20-20-8 0-14 5.5t-6 14.5q0 8 6 14t14 6zm-169 0q9 0 14.5-6t5.5-14q0-20-20-20-8 0-14 5.5t-6 14.5q0 8 6 14t14 6zm-70 99h310v-86q0-23-10-23-3 0-10.5 6t-17.5 15q-22 18-51.5 38.5T945 233q-36 0-65.5-20.5T828 174q-10-9-17.5-15t-10.5-6q-10 0-10 23zm223-74l9-6q-6-1-11-4zm-136 0l1-10q-2 1-5 2t-5 2q2 1 4.5 3t4.5 3zm60 443h16V282h-16zm-20-180V307q-12 22-22.5 52.5T884 416q0 19 11 26t22 9zm55 0q11-2 22-9t11-26q0-26-10.5-56.5T972 307zM162 631h31q-14-16-35.5-35.5t-45-34.5Q89 546 68 546q-20 0-34 14 9-4 25-4 15 0 36 14t40 32q19 18 27 29zm-122 0h96q-9-10-23-23.5t-30-24Q67 573 53 573q-9 0-16.5 4T29 593q0 12 4 22t7 16zm62 107q34 0 58-14.5t37-27.5h-26q-7 9-22 18.5t-41 9.5q-25 0-44.5-17t-33-42.5Q17 639 12 614q-1 10-1.5 19.5T10 651q1 38 27.5 63t64.5 24zm-39-61h1033v-26H45q3 5 8.5 12.5T63 677zm45 27q20 0 33-8H81q11 8 27 8zm607 58q-4-19-14.5-39T686 696h-35q18 13 36 31.5t28 34.5zm-68 41q22 2 39.5-2.5T704 786q0-11-13-27.5T657.5 725Q637 708 615 696h-21v84q29 20 53 23zm-73-37v-70h-19v56q4 4 9 7.5t10 6.5zm-39-31v-39h-41q7 8 17.5 18.5T535 735zm98 102q48 0 68-23-11 5-26 7t-28 1q-23-1-51-16.5T541 769q-27-21-47.5-41T465 696h-36q15 15 38 38.5t50.5 47Q545 805 575 821t58 16zm-78 117h19V842q-5-2-10-4.5t-9-5.5zm235 103h200v-83H790zm-659 0h200v-83H131zm439 0h201v-83H570zm-219 0h200v-83H351zm-220 102h200v-83H131zm659 0h200v-83H790zm-220 0h201v-83H570zm-219 0h200v-83H351z" fill="currentColor"/></svg>