<svg xmlns="http://www.w3.org/2000/svg" viewBox="-10 0 1130 1184"><path d="M-1 1184v-20h112v-83H-1v-19h112v-83H-1v-20h536V825q-34-22-64-49t-50-48.5Q401 706 396 701H224q-5 6-20.5 21T162 749.5Q136 762 102 763q-35 0-57-12t-34-30.5q-12-18.5-16.5-37T-10 654q0-50 18.5-86.5T68 531q21 0 43.5 12t44 30q21.5 18 38 35.5T218 636h201q6-9 16-15.5t23-8.5l49-8q14-3 26-12.5t16-19.5l32-63-13.5-40.5L552 425l-40-28q-23-13-48-33.5T421.5 320Q404 297 404 276q0-25 17-49t30-39q24-26 34.5-42t8.5-34q-53 2-90 35t-69 83h-26q0-34 13-65.5t42-58.5q13-12 31-25t35-23q17-10 25-13 0-3 5.5-14t20-21Q495 0 522 0q23 0 41.5 18T582 65q1 19-4.5 33.5T565 126l-36 68q-2 2-7.5 12.5T521 217q3 0 6.5-2.5t7.5-5.5l18-12q6-4 16-9t26-5q42 0 76 19.5t55 35.5q11 8 31 23.5t42 32.5q22 17 41 30.5t27 18.5q7 5 25.5 16t40.5 24.5q22 13.5 41 24.5-2 6-7.5 13t-14.5 8q-5 16-24 28.5T871 470q-26 0-45.5-4t-31.5-3q-39 4-67 4v19q1 2 3.5 16t2.5 17q0 5-1.5 20t-1.5 28q0 10 4 38 14 16 20 31h361v65H709q8 13 17 34t9 40q0 35-22.5 61T633 862q-9 0-19-2t-20-5v104h526v20h-110v83h110v19h-110v83h110v20zm628-548h107q-1-3-5.5-10T715 611q-3-24-3-44 0-13 1-28.5t1-19.5q0-1-2.5-12.5T707 485q-1-40-7-50l17-7q4 5 5 10t3 10q7 0 24.5-1t41.5-3q20-2 40 3t40 3q20 0 33-1.5t26-11.5L552 332q-25-8-38.5-19.5T500 280q0-19 17.5-31t37.5-18.5q20-6.5 25-6.5l2 19q-23 4-42.5 14T520 280q0 18 12 24.5t23 10.5l374 106q8 1 13-2t7-5q-8-5-26-15.5l-36-21-26-15.5q-8-4-27-18t-42-31q-23-17-43-32.5T718 256q-19-16-51-35t-72-19q-12 0-19.5 3t-12.5 6l-22 14q-3 2-11.5 7.5T517 238q-8-1-12-7.5t-4-13.5q0-5 3-13t6-13l36-71q5-8 11-22.5t6-32.5q0-16-10-31t-31-15q-23 0-34 8.5T474.5 45q-2.5 9-2.5 13-1 17 11.5 26.5T510 102q6 24-5 45t-38 50q-16 17-30 39t-14 36q0 18 18.5 40.5t45.5 43q27 20.5 52 35.5 18 11 39.5 24t39 24q17.5 11 23.5 16 25 17 43 49.5T704 605q0 9-13 12l-58 9q-10 2-16 8 2 2 10 2zM505 68q-6 0-10.5-5T490 51q0-6 4.5-10.5T505 36q16 0 16 15 0 7-4.5 12T505 68zm0-11q6 0 6-6 0-5-6-5-5 0-5 5 0 6 5 6zM321 218q6-20 24-49t47-55q29-26 68-35-3-5-3.5-8l-1.5-9q-19 10-41.5 24.5T375 116q-24 23-38.5 54T321 218zm17-17q25-39 60.5-67.5T477 99l-5-5-5-5q-32 5-57.5 24.5t-43.5 44Q348 182 338 201zm123 435h104q5-2-11-18 3-5 7.5-11.5t14-22.5q9.5-16 26.5-48l14-15-4-12 24-36q-9-5-25.5-16T578 436l24 75-32 61q-7 15-21.5 28.5T517 617l-54 9q-13 1-15 8 2 2 13 2zm127 0h8q13-19 39-24l46-8q2-1 4-1t1-3q-2-32-8-61t-29-52l-16 24 4 13-18 21-40 72q4 5 6 10t3 9zm-426 0h31q-14-16-35.5-35.5t-45-34.5Q89 551 68 551q-20 0-34 14 9-4 25-4 15 0 36 14t40 32q19 18 27 29zm-122 0h96q-9-10-23-23.5t-30-24Q67 578 53 578q-9 0-16.5 4T29 598q0 12 4 22t7 16zm62 107q34 0 58-14.5t37-27.5h-26q-7 9-22 18.5t-41 9.5q-25 0-44.5-17t-33-42.5Q17 644 12 619q-1 10-1.5 19.5T10 656q1 38 27.5 63t64.5 24zm-39-61h1033v-26H45q3 5 8.5 12.5T63 682zm472 58v-39h-41q7 8 17.5 18.5T535 740zm39 31v-70h-19v56q4 4 9 7.5t10 6.5zm73 37q22 2 39.5-2.5T704 791q0-11-13-27.5T657.5 730Q637 713 615 701h-21v84q29 20 53 23zm-539-99q20 0 33-8H81q11 8 27 8zm607 58q-4-19-14.5-39T686 701h-35q18 13 36 31.5t28 34.5zm-82 75q48 0 68-23-11 5-26 7t-28 1q-23-1-51-16.5T541 774q-27-21-47.5-41T465 701h-36q15 15 38 38.5t50.5 47Q545 810 575 826t58 16zm-78 117h19V847q-5-2-10-4.5t-9-5.5zm-204 103h200v-83H351zm219 0h201v-83H570zm-439 0h200v-83H131zm659 0h200v-83H790zm0 102h200v-83H790zm-439 0h200v-83H351zm-220 0h200v-83H131zm439 0h201v-83H570z" fill="currentColor"/></svg>