<svg xmlns="http://www.w3.org/2000/svg" viewBox="-10 0 1123 977"><path d="M876 887l-35-2q4-21 8.5-59.5t10-85q5.5-46.5 10-93t7-83Q879 528 879 510q0-15-1-43t-6.5-63.5q-5.5-35.5-17.5-71T820.5 268Q799 239 765 222l-8 24q-15-2-24.5-3t-17.5-1q-32 0-64 10.5T586 282l-27-34q-4 1-7.5 3t-6.5 4l-32 14-32 13 79 25q-7 7-28 21t-63 14q-22 0-50-9t-46-17q-9 1-17.5 2t-16.5 2q-17 1-39.5 1.5t-42.5.5q-32 0-64-1.5t-53.5-8.5q-21.5-7-21.5-21 0-8 9.5-11t9.5-8q0-3-11.5-7T114 247q0-10 11-19.5t26-18.5q15-9 27-16 13-7 25.5-13t24.5-14q5-6 32.5-30.5T347 93q14-18 37-40t48-37.5Q457 0 476 0t26 7.5q7 7.5 7 18.5 0 6-3 12l-5 10-20 25h4q125 0 208.5 22T830 156q53 39 83.5 90t48 109Q979 413 993 473q22 90 41.5 154t39 110.5Q1093 784 1113 822l-30 15q-17-16-38.5-32.5t-41.5-28Q983 765 972 765q-16 0-34 19.5t-34.5 48Q887 861 876 887zM380 83q17-3 35.5-5.5T454 74l31-39v1q4-6 4-10 0-6-13-6-19 0-46.5 20.5T380 83zm552 569q45 0 82-27-10-32-19.5-68T975 478q-13-54-29.5-109t-46-104.5q-29.5-49.5-81-88t-132.5-61Q605 93 485 93q-68 0-117.5 14t-81 34Q255 161 243 180q-13 8-27 15t-28 15q-15 8-34 20t-20 19q7 2 16.5 8t9.5 14q0 12-16 20 17 9 44 10.5t53 1.5l7-71q16-12 38-25t61-13q58 0 78 10t20 23q0 19-31.5 33.5T324 275q-19 0-36-2t-24-3l-4 33q20 0 40.5-1t37.5-2q47-2 101-22.5t98-40.5q40-18 83-34t73-16q62 0 100.5 27t60.5 68.5q22 41.5 31.5 87T897 453q2 38 2 57 0 15-3.5 52.5T887 646q22 6 45 6zM591 257q59-34 124-34h15l14 1 3-9q-24-9-54-9-24 0-53.5 10T578 240zm-392-13q-7 0-12-5t-5-12q0-6 5-11t12-5q7 0 11.5 5t4.5 11q0 7-4.5 12t-11.5 5zm125 12q49 0 75.5-10.5T426 227q0-4-19-9.5t-59-4.5q-32 2-50.5 11T267 242q-1 2-1 9 6 1 23 3t35 2zm145 66q26 0 46-9l-63-19q-11 5-23 8t-22 6q14 5 30 9.5t32 4.5zM-1 977v-20h59v-83H-1v-19h59v-83H-1v-20h382V618q-34-22-64-49t-50-48.5Q247 499 241 494h-17q-5 6-20.5 21T162 542.5Q136 555 102 556q-35 0-57-12t-34-30.5q-12-18.5-16.5-37T-10 447q0-50 18.5-86.5T68 324q21 0 43.5 12t44 30q21.5 18 38 35.5T218 429h590v65H555q8 13 17 34t9 40q0 35-22.5 61T479 655q-10 0-19.5-2t-19.5-5v104h375v20h-60v83h60v19h-60v83h60v20zm163-548h31q-14-16-35.5-35.5t-45-34.5Q89 344 68 344q-20 0-34 14 9-4 25-4 15 0 36 14t40 32q19 18 27 29zm-122 0h96q-9-10-23-23.5t-30-24Q67 371 53 371q-9 0-16.5 4T29 391q0 12 4 22t7 16zm62 107q34 0 58-14.5t37-27.5h-26q-7 9-22 18.5t-41 9.5q-25 0-44.5-17t-33-42.5Q17 437 12 412q-1 10-1.5 19.5T10 449q1 38 27.5 63t64.5 24zm-39-61h726v-26H45q3 5 8.5 12.5T63 475zm429 126q23 2 40.5-2.5T550 584q0-11-13-27.5T503.5 523Q483 506 461 494h-21v84q29 20 52 23zm69-41q-4-19-14.5-39T532 494h-35q18 13 36 31.5t28 34.5zm-453-58q20 0 33-8H81q11 8 27 8zm312 62v-70h-20v56q5 4 10 7.5t10 6.5zm-39-31v-39h-42q16 18 42 39zm98 102q47 0 67-23-11 5-26 7t-28 1q-23-1-51-16.5T386.5 567q-26.5-21-47-41T311 494h-37q16 15 39 38.5t50.5 47Q391 603 421 619t58 16zm-79 117h20V640q-5-2-10-4.5t-10-5.5zm459 116h6q4-9 14.5-28.5t25-41.5q14.5-22 32-37t35.5-15q17 0 41 14.5t44.5 30.5q20.5 16 27.5 23l2-2q-16-31-32.5-71.5T1020 645q-20 14-42.5 20t-45.5 6q-23 0-47-6-6 58-13.5 115.5T859 868zM77 855h150v-83H77zm170 0h150v-83H247zm169 0h150v-83H416zm170 0h149v-83H586zM77 957h150v-83H77zm509 0h149v-83H586zm-339 0h150v-83H247zm169 0h150v-83H416z" fill="currentColor"/></svg>