<svg xmlns="http://www.w3.org/2000/svg" viewBox="-10 0 1130 1187"><path d="M266 613q-18 0-37.5-24t-37-59q-17.5-35-28-70T153 403q0-34 19.5-46.5T256 343V174q0-34-11.5-67.5T218 50h-75V0h245v50h-73q-16 23-27.5 56.5T276 174v169q64 1 83.5 13.5T379 403q0 22-10.5 57T341 530q-17 35-37 59t-38 24zm354-442q-27 0-53-11.5T515 130q-31-23-52.5-47T441 40q0-17 9-28t28-11q17 0 34 12t33 26q16 14 38.5 29T633 83h447v88zm-354-56q12-49 36-84h67V19H162v12h69q10 16 19.5 38t15.5 46zm354 36h441v-49H633q-32 0-57.5-16.5T533 54q-16-13-30-23t-25-10q-17 0-17 19 0 14 18 34.5t46 39.5q25 17 47.5 27t47.5 10zm-16 246q-43 0-87-5.5t-73-19Q415 359 415 336q0-34 36-48.5T559 272l-40-39q32-8 70-13.5t91-5.5q41 0 82 12t73 23q9 4 18.5 7.5T870 262q23 6 59.5 13t77 13.5q40.5 6.5 73.5 9.5v69H921q-34 6-76.5 13t-100 12q-57.5 5-140.5 5zm0-20q79 0 133.5-4.5t97-11Q877 355 920 348h142v-32q-12-1-38-5.5t-57.5-10q-31.5-5.5-59-11T865 280q-8-2-17.5-5t-19.5-7q-31-11-70-23t-78-12q-30 0-49.5.5t-36 3Q578 239 557 243l30 29q44 1 89.5 3.5t85 6.5q39.5 4 65.5 7l-2 19q-29-3-72.5-7t-92.5-7q-49-3-95-3-130 0-130 45 0 13 26 22t65 14q39 5 78 5zM276 591q14-7 28.5-30t27-52.5q12.5-29.5 20-58T359 403q0-22-15.5-30.5T276 363zm-20 0V363q-51 1-67 9.5T173 403q0 19 7.5 47.5t20 58q12.5 29.5 27 52.5t28.5 30zM-1 1187v-20h112v-83H-1v-19h112v-83H-1v-20h536V828q-34-22-64-49t-50-48.5Q401 709 396 704H224q-5 6-20.5 21T162 752.5Q136 765 102 766q-35 0-57-12t-34-30.5q-12-18.5-16.5-37T-10 657q0-50 18.5-86.5T68 534q21 0 43.5 12t44 30q21.5 18 38 35.5T218 639h666q-25-16-40-43t-15-59q0-34 16.5-61t44-43.5Q917 416 950 416t60.5 16.5q27.5 16.5 44 43.5t16.5 61q0 32-15.5 59t-40.5 43h100v65H709q8 13 17 34t9 40q0 35-22.5 61T633 865q-9 0-19-2t-20-5v104h526v20h-110v83h110v19h-110v83h110v20zm951-692l47-47q-21-12-47-12-27 0-48 12zM414 615q3-42 22.5-78t52.5-58q33-22 77-22t77 22q33 22 52.5 58t22.5 78zm472 1l64-62 64 62q7-6 15-15l-63-64 63-64q-4-4-7-7.5t-8-6.5l-64 63-65-63q-8 6-14 14l63 64-63 65q7 9 15 14zm-450-21h259q-9-47-41.5-82.5T566 477q-55 0-88 35.5T436 595zm604-10q11-22 11-48 0-25-11-47l-47 47zm-180 0l47-48-47-47q-12 21-12 47 0 27 12 48zm-698 54h31q-14-16-35.5-35.5t-45-34.5Q89 554 68 554q-20 0-34 14 9-4 25-4 15 0 36 14t40 32q19 18 27 29zm788 0q26 0 47-12l-47-47-48 47q23 12 48 12zm-910 0h96q-9-10-23-23.5t-30-24Q67 581 53 581q-9 0-16.5 4T29 601q0 12 4 22t7 16zm62 107q34 0 58-14.5t37-27.5h-26q-7 9-22 18.5t-41 9.5q-25 0-44.5-17t-33-42.5Q17 647 12 622q-1 10-1.5 19.5T10 659q1 38 27.5 63t64.5 24zm-39-61h1033v-26H45q3 5 8.5 12.5T63 685zm652 85q-4-19-14.5-39T686 704h-35q18 13 36 31.5t28 34.5zm-607-58q20 0 33-8H81q11 8 27 8zm539 99q22 2 39.5-2.5T704 794q0-11-13-27.5T657.5 733Q637 716 615 704h-21v84q29 20 53 23zm-73-37v-70h-19v56q4 4 9 7.5t10 6.5zm-39-31v-39h-41q7 8 17.5 18.5T535 743zm98 102q48 0 68-23-11 5-26 7t-28 1q-23-1-51-16.5T541 777q-27-21-47.5-41T465 704h-36q15 15 38 38.5t50.5 47Q545 813 575 829t58 16zm-78 117h19V850q-5-2-10-4.5t-9-5.5zm-204 103h200v-83H351zm439 0h200v-83H790zm-659 0h200v-83H131zm439 0h201v-83H570zm-219 102h200v-83H351zm439 0h200v-83H790zm-659 0h200v-83H131zm439 0h201v-83H570z" fill="currentColor"/></svg>