<svg xmlns="http://www.w3.org/2000/svg" viewBox="-10 0 1130 1186"><path d="M455 170q-26 0-52.5-11.5T350 129q-31-23-52.5-47T276 39q0-17 9.5-28T314 0q16 0 32.5 12T380 38q17 14 39.5 29T469 82h554v88zm0-20h549v-49H469q-32 0-57.5-16.5T368 53q-15-13-29-23t-25-10q-18 0-18 19 0 14 18.5 34.5T361 113q25 17 47.5 27t46.5 10zm31 246q-31 0-71-3t-77-10q-37-7-61-19t-24-29q0-23 28.5-36.5t73-20Q399 272 446 271l-40-39q21-6 60-12.5t82-11.5q43-5 78-5 41 0 82 12t73 24q9 3 18.5 6.5T816 251q23 6 60 13.5t77 13.5q40 6 73 9v69H868q-29 7-65 15t-65 13q-11 2-39 4t-65.5 3.5q-37.5 1.5-76.5 3t-71 1.5zm0-20q31 0 69-1.5t74.5-3q36.5-1.5 65-3.5t40.5-4q29-4 65.5-12t65.5-15h142v-32q-11-1-37.5-5.5t-58-10q-31.5-5.5-59-11T811 269q-8-2-17-5t-20-7q-31-11-70-23t-78-12q-30 0-64 3t-65 8q-31 5-52 9l30 29q44 1 89.5 3.5t85 6.5q39.5 4 65.5 7l-2 19q-30-3-73.5-7t-93-7q-49.5-3-94.5-3-44 0-85 4.5T299.5 309Q273 319 273 335q0 12 22 19.5t55.5 12.5q33.5 5 70 7t65.5 2zM-1 1186v-20h112v-83H-1v-19h112v-83H-1v-20h536V827q-34-22-64-49t-50-48.5Q401 708 396 703H224q-5 6-20.5 21T162 751.5Q136 764 102 765q-35 0-57-12t-34-30.5q-12-18.5-16.5-37T-10 656q0-50 18.5-86.5T68 533q21 0 43.5 12t44 30q21.5 18 38 35.5T218 638h622q-25-16-40-43t-15-59q0-34 16.5-61t44-43.5Q873 415 906 415t60.5 16.5q27.5 16.5 44 43.5t16.5 61q0 32-15.5 59T971 638h144v65H709q8 13 17 34t9 40q0 35-22.5 61T633 864q-9 0-19-2t-20-5v104h526v20h-110v83h110v19h-110v83h110v20zm907-692l47-47q-21-12-47-12-27 0-48 12zM292 614q3-42 22.5-78t53-58q33.5-22 76.5-22 44 0 77 22t52.5 58q19.5 36 23.5 78zm550 1l64-62 64 62q7-6 15-15l-63-64 63-64q-7-9-15-14l-64 63-65-63q-8 6-14 14l63 64-63 65q7 9 15 14zm-527-21h259q-9-47-42-82.5T444 476q-54 0-87 35.5T315 594zm681-10q11-22 11-48 0-25-11-47l-47 47zm-180 0l47-48-47-47q-12 21-12 47 0 27 12 48zm-654 54h31q-14-16-35.5-35.5t-45-34.5Q89 553 68 553q-20 0-34 14 9-4 25-4 15 0 36 14t40 32q19 18 27 29zm744 0q26 0 47-12l-47-47-48 47q23 12 48 12zm-866 0h96q-9-10-23-23.5t-30-24Q67 580 53 580q-9 0-16.5 4T29 600q0 12 4 22t7 16zm62 107q34 0 58-14.5t37-27.5h-26q-7 9-22 18.5t-41 9.5q-25 0-44.5-17t-33-42.5Q17 646 12 621q-1 10-1.5 19.5T10 658q1 38 27.5 63t64.5 24zm-39-61h1033v-26H45q3 5 8.5 12.5T63 684zm652 85q-4-19-14.5-39T686 703h-35q18 13 36 31.5t28 34.5zm-607-58q20 0 33-8H81q11 8 27 8zm539 99q22 2 39.5-2.5T704 793q0-11-13-27.5T657.5 732Q637 715 615 703h-21v84q29 20 53 23zm-73-37v-70h-19v56q4 4 9 7.5t10 6.5zm-39-31v-39h-41q7 8 17.5 18.5T535 742zm98 102q48 0 68-23-11 5-26 7t-28 1q-23-1-51-16.5T541 776q-27-21-47.5-41T465 703h-36q15 15 38 38.5t50.5 47Q545 812 575 828t58 16zm-78 117h19V849q-5-2-10-4.5t-9-5.5zm235 103h200v-83H790zm-659 0h200v-83H131zm439 0h201v-83H570zm-219 0h200v-83H351zm-220 102h200v-83H131zm659 0h200v-83H790zm-220 0h201v-83H570zm-219 0h200v-83H351z" fill="currentColor"/></svg>