<svg xmlns="http://www.w3.org/2000/svg" viewBox="-10 0 1145 1215"><path d="M-1 1215v-20h112v-83H-1v-19h112v-83H-1v-20h536V856q-34-22-64-49t-50-48.5Q401 737 396 732H224q-5 6-20.5 21T162 780.5Q136 793 102 794q-35 0-57-12t-34-30.5q-12-18.5-16.5-37T-10 685q0-50 18.5-86.5T68 562q21 0 43.5 12t44 30q21.5 18 38 35.5T218 667h15v-20l41-6q9-2 13.5-9.5T295 616l19-82 2-24q2-8 4-21.5t4-16.5q13-19 36-28.5t42-14.5q19-6 40.5-11.5T473 400l1-16-20-62-113 41-27-21-2-19 86-96 7-16 15-16 43-2 3 19-22 6-3 5 19-2 5 17-36 18-24 28 30-18q13-13 41-19l21-6v-16l-20 2-4-34-24-4 33-45q6-13 10-17 7-10 18-25t23-28q12-13 22-18-10-8-10-24 0-13 9.5-22.5T577 0q14 0 23 9.5t9 22.5q0 10-4 18t-12 11q4 12 4.5 30t.5 38q0 42-10.5 64T557 228v12l48 13q11 3 16 12t7 15l29 108-14 77 10 17v19l-16 36-26-6 10-28-4-11-9 21-24-3 7-39 7-82-21-57-14 46-2 40q0 2 2 14.5t4 24.5q2 12 2 13 0 11-7 25.5T538 511q-13 2-40.5 4t-44.5 4q8 15 23 53t23 84l-44 11h660v65H709q8 13 17 34t9 40q0 35-22.5 61T633 893q-9 0-19-2t-20-5v104h526v20h-110v83h110v19h-110v83h110v20zM577 48q16 0 16-16 0-15-16-15-15 0-15 15 0 16 15 16zm-31 167q19-15 25.5-38.5T578 128V86l-5-21q-6 0-18.5 12t-25 28Q517 121 510 133l31 30q10 10 13 21.5t-5 19.5l-5 5zm83 309l10-23-3-17-12-16 14-83-30-97q-1-5-4.5-12t-9.5-9l-56-17v-18l-13-28 9-7q6-5 4-10t-6-8l-32-31-22 33 9 5 2 25 24-2v49l-37 6q-9 2-19.5 6.5T441 281l-67 36-3-12 50-58 30-15-1-3-22 3-2-4 10-15 18-6v-3l-21 3-13 11-7 15q-14 19-38 46.5T334 326l1 8 9 7 124-45 26 88-2 28q-11 13-30 18.5T417 444q-14 5-29.5 10T358 472q37 5 77 27 23-2 52.5-4t43.5-3q11-1 15-8t4-14q0 1-2-11.5t-4.5-25Q541 421 541 419l4-44 21-76h21l29 89-9 82-6 31h2l8-19h13l8 19-7 22zm30-8q0-9 4.5-25t17-28.5Q693 450 719 450q16 0 27.5 4.5T763 464h53q-21-21-45-52t-40.5-68Q714 307 714 269q0-40 14-66t43-26q28 0 52 21.5t46 43.5q11 12 23 23t26 21q17 11 37 27.5t35 38q15 21.5 15 48.5 0 14-1 25.5t-2 17.5q-1 2-1 4v3l2.5 6q2.5 6 10.5 5 7 0 23-10.5t30-35q14-24.5 14-65.5 0-25-9.5-56t-21.5-48q-12-11-26.5-27t-14.5-31q0-18 12.5-28t24.5-10q16 0 27 12t17.5 27.5q6.5 15.5 8.5 24.5 10 20 23 58.5t13 77.5q0 43-13.5 76.5t-33 56Q1069 505 1051 516zM516 180q-18-3-26-12 4-2 8-2 14 0 18 14zm167 316h250q-20-12-35.5-27T873 442l15-11q9 10 24 25.5t37 27.5q22 12 51 12h46q5-3 22-19t32-47q15-31 15-80 0-33-11-71t-24-61q-2-11-11-29.5t-23-18.5q-5 0-11 5t-6 13q0 11 13 24.5t24 21.5q13 23 23.5 55t10.5 61q0 49-17.5 77.5t-38.5 41q-21 12.5-30 12.5-21 0-27-11.5t-6-19.5q0-1 .5-4t.5-5q1-7 2-17.5t1-23.5q0-22-13-40.5t-31-33Q923 312 907 302q-14-9-25-20t-27-26q-20-21-42-40t-42-19q-19 0-28 20.5t-9 51.5q0 31 14 63t36 61.5q22 29.5 44.5 52.5t38.5 37H755q-4-4-13.5-8.5T719 470q-20 0-27 8.5t-9 17.5zM253 667h64l59-174q-7-3-15-5.5t-17-3.5q-1 5-3 12.5t-4 15.5l-3 23-20 89q-7 27-25 30l-36 5zm163-3l60-18q-7-43-23-79.5T430 518q-7-5-14.5-9t-20.5-8q1 4 3 15.5t5 16.5q2 3 9 14.5t16 25.5q9 14 16 24l7 10q2 3 3 8t1 7q0 7-7 13t-15 11l-20 10zm-79 3h56l-6-17 30-16q13-7 13-16v-4l-3-7q-10-14-23-32t-16-23q-5-12-5-18zm-175 0h31q-14-16-35.5-35.5t-45-34.5Q89 582 68 582q-20 0-34 14 9-4 25-4 15 0 36 14t40 32q19 18 27 29zm-122 0h96q-9-10-23-23.5t-30-24Q67 609 53 609q-9 0-16.5 4T29 629q0 12 4 22t7 16zm62 107q34 0 58-14.5t37-27.5h-26q-7 9-22 18.5t-41 9.5q-25 0-44.5-17t-33-42.5Q17 675 12 650q-1 10-1.5 19.5T10 687q1 38 27.5 63t64.5 24zm-39-61h1033v-26H45q3 5 8.5 12.5T63 713zm45 27q20 0 33-8H81q11 8 27 8zm607 58q-4-19-14.5-39T686 732h-35q18 13 36 31.5t28 34.5zm-68 41q22 2 39.5-2.5T704 822q0-11-13-27.5T657.5 761Q637 744 615 732h-21v84q29 20 53 23zm-73-37v-70h-19v56q4 4 9 7.5t10 6.5zm-39-31v-39h-41q7 8 17.5 18.5T535 771zm98 102q48 0 68-23-11 5-26 7t-28 1q-23-1-51-16.5T541 805q-27-21-47.5-41T465 732h-36q15 15 38 38.5t50.5 47Q545 841 575 857t58 16zm-78 117h19V878q-5-2-10-4.5t-9-5.5zm-424 103h200v-83H131zm220 0h200v-83H351zm439 0h200v-83H790zm-220 0h201v-83H570zm-439 102h200v-83H131zm220 0h200v-83H351zm439 0h200v-83H790zm-220 0h201v-83H570z" fill="currentColor"/></svg>