<svg xmlns="http://www.w3.org/2000/svg" viewBox="-10 0 1130 1003.059"><path d="M931 346.059q-18 0-45.5-3t-57.5-6q-37-4-78-8t-70-4q-25 0-62 1.5t-79.5 4q-42.5 2.5-83.5 5.5-46 3-85.5 5t-55.5 2q-49 0-76.5-5.5t-39-27q-11.5-21.5-13.5-67.5-7-1-23.5-5t-30.5-15.5q-14-11.5-14-33.5 0-19 15-29t31.5-14.5q16.5-4.5 22.5-4.5 5-46 29.5-73t88.5-27q68 0 137 3 35 1 74 2.5t81 1.5q55 0 119-10.5t117-20.5q44-8 79.5-13.5t52.5-2.5q24 4 37.5 33.5t13.5 104.5q0 100-18.5 149.5t-48.5 55.5q-5 1-8.5 1.5t-8.5.5zm0-20h12q-6-6-20-23.5t-30.5-41q-16.5-23.5-28-49t-11.5-47.5q0-20 13-42t31.5-43q18.5-21 35.5-37t25-23q-17-1-49 4t-73 13q-54 10-117.5 20.5T596 68.059q-43 0-81.5-1.5t-74.5-2.5q-35-1-68-2.5t-68-1.5q-44 0-65.5 15.5t-28.5 44.5q-7 29-7 67 0 48 4 75.5t15 40.5q11 13 33 17t59 4q17 0 55-2.5t85-5.5q41-3 84-5t80-3.5q37-1.5 62-1.5 31 0 71.5 3.5t78.5 7.5q31 4 58 6.5t43 2.5zm30-11q15-21 24.5-62t9.5-114q0-45-6-72t-14-38q-2 2-18 16t-35.5 35q-19.5 21-34.5 44t-15 41q0 22 14.5 49.5t35 54q20.5 26.5 39.5 46.5zm-777-92v-62q-7 1-18 3.5t-20.5 8.5q-9.5 6-9.5 16 0 12 9.5 19.5t20.5 10.5q11 3 18 4zm-185 780v-20h112v-83H-1v-19h112v-83H-1v-20h536v-134q-34-22-64-49t-50-48.5q-20-21.5-25-26.5H224q-5 6-20.5 21t-41.5 27.5q-26 12.5-60 13.5-35 0-57-12t-34-30.5q-12-18.5-16.5-37t-4.5-29.5q0-50 18.5-86.5t59.5-36.5q21 0 43.5 12t44 30q21.5 18 38 35.5t24.5 27.5h897v65H709q8 13 17 34t9 40q0 35-22.5 61t-79.5 26q-9 0-19-2t-20-5v104h526v20h-110v83h110v19h-110v83h110v20zm163-548h31q-14-16-35.5-35.5t-45-34.5q-23.5-15-44.5-15-20 0-34 14 9-4 25-4 15 0 36 14t40 32q19 18 27 29zm-122 0h96q-9-10-23-23.5t-30-24q-16-10.5-30-10.5-9 0-16.5 4t-7.5 16q0 12 4 22t7 16zm62 107q34 0 58-14.5t37-27.5h-26q-7 9-22 18.5t-41 9.5q-25 0-44.5-17t-33-42.5q-13.5-25.5-18.5-50.5-1 10-1.5 19.5t-.5 17.5q1 38 27.5 63t64.5 24zm-39-61h1033v-26H45q3 5 8.5 12.5t9.5 13.5zm511 89v-70h-19v56q4 4 9 7.5t10 6.5zm-466-62q20 0 33-8H81q11 8 27 8zm607 58q-4-19-14.5-39t-14.5-27h-35q18 13 36 31.5t28 34.5zm-68 41q22 2 39.5-2.5t17.5-14.5q0-11-13-27.5t-33.5-33.5q-20.5-17-42.5-29h-21v84q29 20 53 23zm-112-68v-39h-41q7 8 17.5 18.5t23.5 20.5zm98 102q48 0 68-23-11 5-26 7t-28 1q-23-1-51-16.5t-55-36.5q-27-21-47.5-41t-28.5-32h-36q15 15 38 38.5t50.5 47q27.5 23.5 57.5 39.5t58 16zm-78 117h19v-112q-5-2-10-4.5t-9-5.5zm-204 103h200v-83H351zm439 0h200v-83H790zm-220 0h201v-83H570zm-439 0h200v-83H131zm659 102h200v-83H790zm-439 0h200v-83H351zm-220 0h200v-83H131zm439 0h201v-83H570z" fill="currentColor"/></svg>