<svg xmlns="http://www.w3.org/2000/svg" viewBox="-10 0 1130 1152"><path d="M-1 1152v-20h112v-83H-1v-19h112v-83H-1v-20h536V793q-34-22-64-49t-50-48.5Q401 674 396 669H224q-5 6-20.5 21T162 717.5Q136 730 102 731q-35 0-57-12t-34-30.5q-12-18.5-16.5-37T-10 622q0-50 18.5-86.5T68 499q21 0 43.5 12t44 30q21.5 18 38 35.5T218 604h7L356 0h18l130 604h14v-35h48q17-7 43.5-15.5T653 540q-16-8-38-21t-43-31q-21-18-35-40t-14-46q0-5 .5-9t1.5-8q2-8 2-12v-8q0-8-3.5-20T505 333q-16 0-20 14h-14v-15q0-11 6-28.5t24-24.5q3-5 16-19t43-19l-29-3 14-122q6-63 40-63 14 0 19 6.5t7 14.5q3-6 10-11t17-5q19 0 26 10.5t7 26.5q0 16-2 32l-15 124-14-2q23 12 34 31.5t17 41.5q21 6 40.5 13.5t42.5 22q23 14.5 56 41.5 38 32 69.5 57.5T953 492q26 11 58.5 21.5T1061 529q12 4 31.5 15.5T1115 569v100H709q8 13 17 34t9 40q0 35-22.5 61T633 830q-9 0-19-2t-20-5v104h526v20h-110v83h110v19h-110v83h110v20zm246-548h239L365 54q-30 137-60 275t-60 275zm341-372l16-131q1-13-3-22.5T585 69q-10 0-15.5 14.5T562 117l-14 111zm53 6l13-112q2-19 1-35t-16-16q-17 0-20 27l-16 132zm-28 331h481q-6-9-18.5-15.5T1051 544q-18-5-50-16t-58-22q-25-11-56.5-37T816 410q-32-26-54.5-39.5t-43-20Q698 344 673 336q-4-19-12-38.5T635 265q-18-13-48-13-31 0-48.5 12.5T516 289q-13 4-19 14t-7 19q3-2 7-4 0-4 4-10.5t15-6.5q6 0 11.5 2t10.5 4v-4q-10-3-10-13 0-14 15-14 3 0 5 1 9-3 18-3 22 0 28.5 12t6.5 20q0 10-8 22t-21 22l-5-7q9-10 9-20t-7-10q-5 0-7 5t-2 11q0 11 2 17l-10 4q-5-10-15.5-24.5T516 311q-6 0-8 6 21 0 29 18.5t8 29.5v8q0 5-.5 8.5T543 388q-1 4-1.5 7.5t-.5 6.5q0 23 17 44.5t41.5 40.5q24.5 19 50 32.5T691 540v5q-20 6-41 12t-39 12zm-58-239q-1-9 2.5-18t13.5-9q18 0 16 20 2-2 3.5-7.5t1.5-9.5q0-5-4-13t-20-8q-6 0-10 1 1 1 1 4 0 10-9 13 0 3 .5 6t.5 5l-9-1q3 3 6.5 8t6.5 9zm-10-36q5 0 5-4 0-5-5-5-4 0-4 5 0 4 4 4zM162 604h31q-14-16-35.5-35.5t-45-34.5Q89 519 68 519q-20 0-34 14 9-4 25-4 15 0 36 14t40 32q19 18 27 29zm-122 0h96q-9-10-23-23.5t-30-24Q67 546 53 546q-9 0-16.5 4T29 566q0 12 4 22t7 16zm500 0h553v-18H540zM102 711q34 0 58-14.5t37-27.5h-26q-7 9-22 18.5t-41 9.5q-25 0-44.5-17t-33-42.5Q17 612 12 587q-1 10-1.5 19.5T10 624q1 38 27.5 63t64.5 24zm-39-61h1033v-26H45q3 5 8.5 12.5T63 650zm45 27q20 0 33-8H81q11 8 27 8zm607 58q-4-19-14.5-39T686 669h-35q18 13 36 31.5t28 34.5zm-68 41q22 2 39.5-2.5T704 759q0-11-13-27.5T657.5 698Q637 681 615 669h-21v84q29 20 53 23zm-73-37v-70h-19v56q4 4 9 7.5t10 6.5zm-39-31v-39h-41q7 8 17.5 18.5T535 708zm98 102q48 0 68-23-11 5-26 7t-28 1q-23-1-51-16.5T541 742q-27-21-47.5-41T465 669h-36q15 15 38 38.5t50.5 47Q545 778 575 794t58 16zm-78 117h19V815q-5-2-10-4.5t-9-5.5zm235 103h200v-83H790zm-220 0h201v-83H570zm-219 0h200v-83H351zm-220 0h200v-83H131zm659 102h200v-83H790zm-220 0h201v-83H570zm-219 0h200v-83H351zm-220 0h200v-83H131z" fill="currentColor"/></svg>