<svg xmlns="http://www.w3.org/2000/svg" viewBox="-10 0 1130 1199"><path d="M-1 1199v-20h112v-83H-1v-19h112v-83H-1v-20h536V840q-34-22-64-49t-50-48.5Q401 721 396 716H224q-5 6-20.5 21T162 764.5Q136 777 102 778q-35 0-57-12t-34-30.5q-12-18.5-16.5-37T-10 669q0-50 18.5-86.5T68 546q21 0 43.5 12t44 30q21.5 18 38 35.5T218 651h129L148 268q-11-22-14-37t-3-25q0-25 15.5-44t44.5-19q32 0 46.5 15.5T252 192q0 10-4.5 24t-9.5 24q44 53 90.5 106.5T419 452l-94 113 45 86h56q7-10 20-16t35-7l61-4 10-63 1-17q0-39-13-81t-26-78l-6-18-33-44q-18-22-38.5-53T416 206v-56q0-10-2-23t-20-13q-12 0-17.5 5t-7.5 9h-17v-17q0-26 11.5-38.5T386 52l19-18q4-7 22-20.5T490 0q55 0 81 27.5T617 95l45 24q25 24 54 59t57 73q28 38 51 70l9.5 11 24 28q24 28 29.5 35t27 31.5q21.5 24.5 16 16.5 5 4 22.5 20.5t39 37Q1013 521 1032 538l-24 22q-15-11-32.5-21T933 514l55 81-88 56h215v65H709q8 13 17 34t9 40q0 35-22.5 61T633 877q-9 0-19-2t-20-5v104h526v20h-110v83h110v19h-110v83h110v20zm585-548h135v-11q-12-1-28-2.5t-27-1.5v-89q13 3 27.5 9.5T715 568V450q30 0 50 14t33 31.5q13 17.5 19 29.5l66 117 83-52-62-94q-42-24-92.5-51.5t-102.5-55q-52-27.5-99.5-52T526 295q-13-6-31.5-19.5T461 242q-15-20-15-44-1-26 32-50t86-27l1 16q-45 2-73 22t-28 39q1 18 13 34.5t29 29.5q17 13 31 20 56 28 123.5 63t134 71Q861 452 916 484t88 55l3-5q-6-5-18.5-16.5T961 493q-15-13-28-24t-18-15q-6-5-23.5-25.5t-40.5-48Q828 353 808 328q-23-31-51-68.5t-57-72Q671 153 647 129l-46-24q-12-26-25-45.5T543 29q-20-11-53-11-44 0-56.5 9.5T420 40l-22 21-17 17-11 25q2-4 13-14.5T409 78q8 0 14 3.5t11 7.5q8 2 8-4 0-3-1-4-6 0-11.5-5T424 63q0-7 5.5-12.5T443 45h32q20 0 34 12.5T523 89q0 14-9 24t-20 17q-11 7-18 11-2 2-7 1t-6-6h-6v10h-12q0-7-3.5-20.5t-12-24.5Q421 90 405 90q-5 0-9.5 3t-8.5 6l7-1q25 0 33 17.5t8 34.5v56q0 29 21.5 60t40.5 56q21 26 45.5 54.5T587 426q36 39 49 74.5t12 60.5l-5 75q-12 0-29.5 1.5T584 640zM454 122l-1-7q0-8 5.5-14.5T472 94q10 0 14 7.5t4 11.5q0 5-2 7 7-5 14-13t7-18q0-14-11-23.5T471 56h-12q3 5 3 8 0 5-2.5 8.5T453 79q4 4 2 12-2 6-13 8 4 5 7.5 11t4.5 12zm-12-51q8 0 8-8 0-7-8-7-7 0-7 7 0 8 7 8zm30 57q8 0 8-12 0-10-8-10-9 0-9 10 0 12 9 12zM315 546l79-94q-43-52-89-105t-90-105q5-9 11-24t6-26q0-11-9.5-20.5T191 162q-20 0-29.5 13t-9.5 31q0 11 3 24t11 29zm246 78l21-1 14-82q17 2 33 13v-9q2-13-9.5-42T573 437q-8-9-16.5-19T539 397q12 34 22.5 72t10.5 75v9.5l-1 9.5zm210 27h96l-66-120q-5-10-15.5-24T761 482.5Q747 472 732 472v130q-11-9-26-19t-25-12v48q12 1 29 3t27 5q13 4 20.5 10.5T771 651zm-172-29l29-3 2-45q-4-2-8.5-4.5T609 565zm-437 29h31q-14-16-35.5-35.5t-45-34.5Q89 566 68 566q-20 0-34 14 9-4 25-4 15 0 36 14t40 32q19 18 27 29zm-122 0h96q-9-10-23-23.5t-30-24Q67 593 53 593q-9 0-16.5 4T29 613q0 12 4 22t7 16zm62 107q34 0 58-14.5t37-27.5h-26q-7 9-22 18.5t-41 9.5q-25 0-44.5-17t-33-42.5Q17 659 12 634q-1 10-1.5 19.5T10 671q1 38 27.5 63t64.5 24zm407-107h3q6-7 16-14l-19 3zm-33 0h21v-10q-7 0-12 3t-9 7zm80 0h17v-10q-7 0-11 3t-6 7zm-109 0h13q3-4 9-9-8 0-13.5 3t-8.5 6zm79 0h13l4.5-4.5 4.5-4.5q-8 0-13.5 3t-8.5 6zm204 0h18q-8-6-17-9h-1zM63 697h1033v-26H45q3 5 8.5 12.5T63 697zm45 27q20 0 33-8H81q11 8 27 8zm607 58q-4-19-14.5-39T686 716h-35q18 13 36 31.5t28 34.5zm-68 41q22 2 39.5-2.5T704 806q0-11-13-27.5T657.5 745Q637 728 615 716h-21v84q29 20 53 23zm-73-37v-70h-19v56q4 4 9 7.5t10 6.5zm-39-31v-39h-41q7 8 17.5 18.5T535 755zm98 102q48 0 68-23-11 5-26 7t-28 1q-23-1-51-16.5T541 789q-27-21-47.5-41T465 716h-36q15 15 38 38.5t50.5 47Q545 825 575 841t58 16zm-78 117h19V862q-5-2-10-4.5t-9-5.5zm15 103h201v-83H570zm220 0h200v-83H790zm-439 0h200v-83H351zm-220 0h200v-83H131zm439 102h201v-83H570zm-439 0h200v-83H131zm220 0h200v-83H351zm439 0h200v-83H790z" fill="currentColor"/></svg>