<svg xmlns="http://www.w3.org/2000/svg" viewBox="-10 0 1130 1214"><path d="M-1 1214v-20h112v-83H-1v-19h112v-83H-1v-20h536V855q-34-22-64-49t-50-48.5Q401 736 396 731H224q-5 6-20.5 21T162 779.5Q136 792 102 793q-35 0-57-12t-34-30.5q-12-18.5-16.5-37T-10 684q0-50 18.5-86.5T68 561q21 0 43.5 12t44 30q21.5 18 38 35.5T218 666h63V222q0-6 .5-12t1.5-11l-4-7h-5q-21 0-39.5-17.5T205 133q-11-24-11-44v-9l1-8-37-22q4-11 18-23t35-19q21-7 46-2l-12 39q24 5 48 30t26 60q23-19 52-26t50-7q21 0 50 7t53 26q1-36 25-60.5T598 45L585 6q26-5 47 2t35 19q14 12 18 23l-38 22q1 4 1.5 8t.5 9q0 20-11 44t-29.5 41.5Q590 192 569 192h-6l-3 7q1 5 1.5 11t.5 12v444h230q-17-8-27-17t-10-20q0-19 30-36t68-24v-36q0-14-5.5-36.5t-22-40Q809 439 775 439q-17 0-33.5 11.5T715 476q-13 17-24 17-18 0-18-22 0-5 3-12t7-12q3-5 15-18t31.5-24q19.5-11 45.5-11 34 0 53 14t30 27q-2-20-9.5-40.5T824 360q-17-14-49-14-21 0-35.5 13T712 388q-8 12-21 12-18 0-18-17 0-14 10-28 4-7 16-20.5t31-24q19-10.5 45-10.5 35 0 55.5 12t30.5 27V102q0-12-1-26t-8-24q-7-10-25-10t-26 10q-8 10-10 22.5T788 94q0 14-6.5 19.5T765 119q-8 0-13.5-7.5T746 96q0-6 2.5-21t10-32.5q7.5-17.5 24-30T827 0q42 0 59.5 24.5T904 94v245q10-16 30.5-27.5T991 300q26 0 45 11t31 24q12 13 15 20 9 17 9 30 0 5-4 10t-12 5q-13 0-26-17-8-11-22-24t-37-13q-31 0-48.5 14t-25 34.5Q909 415 908 435q10-13 29.5-27t53.5-14q25 0 44.5 11t31.5 24q12 13 15 18 9 13 9 24 0 9-3.5 15.5T1075 493q-7 0-12.5-3.5T1049 476q-8-11-22-24t-37-13q-35 0-51.5 17.5t-21.5 40q-5 22.5-5 36.5v36q41 6 69 23.5t28 36.5q0 11-10 20t-26 17h142v65H709q8 13 17 34t9 40q0 35-22.5 61T633 892q-9 0-19-2t-20-5v104h526v20h-110v83h110v19h-110v83h110v20zm871-647h24v-34q0-11 4-30t14-38q10-19 29-32t49-13q28 0 45 16.5t25 27.5q2 4 6.5 9.5t8.5 5.5q0-1 .5-1.5t.5-1.5q0-7-7-17-4-5-14-16t-26-21q-16-10-38-10-30 0-47.5 10.5t-26 23Q909 458 906 465l-17-3v-22q0-22 9-48t31-45q22-19 61-19 28 0 45.5 16t24.5 27q2 3 7 9.5t8 6.5q0-1 .5-2t.5-2q0-6-7-16-4-5-14-16.5t-26-21.5q-16-10-38-10-30 0-49 10.5T913 353q-10 13-12 19l-15-2V94q0-39-13.5-57.5T827 18q-28 0-41.5 17t-18 36Q763 90 763 96q0 9 2 9 4 0 5-5.5t1-8.5q0-5 4-21t16-30.5Q803 25 827 25t35 12q11 12 14 28.5t3 31.5v273l-15 2q-3-6-12.5-19t-28-23.5Q805 319 775 319q-23 0-39.5 10T709 350.5Q699 362 696 367q-7 10-7 18 0 2 2 2 1 0 4.5-3t10.5-13q7-11 26-27t43-16q38 0 60 19t31 45q9 26 9 48v22l-16 3q-4-7-12.5-19.5t-25.5-23Q804 412 775 412q-22 0-38.5 10t-27 21Q699 454 696 459q-7 10-7 17 0 3 2 3 4 0 15-16 7-11 24-27t45-16q30 0 48.5 13t29 32q10.5 19 14 38t3.5 30zM274 172q25 0 25-32 0-22-11-39.5T262 73q-15-10-29-10-9 0-14.5 5.5T213 89q0 16 8.5 35.5T244 158q14 14 30 14zm295 0q16 0 29.5-14t22-33.5Q629 105 629 89q0-15-5.5-20.5T609 63q-14 0-29 10t-26 27.5Q543 118 543 140q0 15 7.5 23.5T569 172zM421 417l118-221q-8-30-29-46t-46-22q-25-6-43-6t-43 6q-25 6-46 22t-28 46zm121 227V231L432 438zm-241-2l109-204-109-206zm17 24h206q-14-13-36-27.5T442 619l3-19q19 3 36.5 12.5T513 632l-92-173-92 173q15-10 32.5-19.5T398 600l2 19q-23 5-45.5 19.5T318 666zm-156 0h31q-14-16-35.5-35.5t-45-34.5Q89 581 68 581q-20 0-34 14 9-4 25-4 15 0 36 14t40 32q19 18 27 29zm720 0q25 0 50-5.5t41.5-14Q990 638 990 629q0-15-32.5-29T882 586q-25 0-50 6.5T791 609q-16 10-16 20 0 9 16.5 17.5t41 14Q857 666 882 666zm-842 0h96q-9-10-23-23.5t-30-24Q67 608 53 608q-9 0-16.5 4T29 628q0 12 4 22t7 16zm62 107q34 0 58-14.5t37-27.5h-26q-7 9-22 18.5t-41 9.5q-25 0-44.5-17t-33-42.5Q17 674 12 649q-1 10-1.5 19.5T10 686q1 38 27.5 63t64.5 24zm-39-61h1033v-26H45q3 5 8.5 12.5T63 712zm511 89v-70h-19v56q4 4 9 7.5t10 6.5zm73 37q22 2 39.5-2.5T704 821q0-11-13-27.5T657.5 760Q637 743 615 731h-21v84q29 20 53 23zm-539-99q20 0 33-8H81q11 8 27 8zm607 58q-4-19-14.5-39T686 731h-35q18 13 36 31.5t28 34.5zm-180-27v-39h-41q7 8 17.5 18.5T535 770zm98 102q48 0 68-23-11 5-26 7t-28 1q-23-1-51-16.5T541 804q-27-21-47.5-41T465 731h-36q15 15 38 38.5t50.5 47Q545 840 575 856t58 16zm-78 117h19V877q-5-2-10-4.5t-9-5.5zm-204 103h200v-83H351zm-220 0h200v-83H131zm659 0h200v-83H790zm-220 0h201v-83H570zm0 102h201v-83H570zm-219 0h200v-83H351zm-220 0h200v-83H131zm659 0h200v-83H790z" fill="currentColor"/></svg>