<svg xmlns="http://www.w3.org/2000/svg" viewBox="-10 0 1130 1228"><path d="M-1 1228v-20h112v-83H-1v-19h112v-83H-1v-20h536V869q-34-22-64-49t-50-48.5Q401 750 396 745H224q-5 6-20.5 21T162 793.5Q136 806 102 807q-35 0-57-12t-34-30.5q-12-18.5-16.5-37T-10 698q0-50 18.5-86.5T68 575q21 0 43.5 12t44 30q21.5 18 38 35.5T218 680h63V236q0-6 .5-12t1.5-11l-4-7h-5q-21 0-39.5-17.5T205 147q-11-24-11-44v-9l1-8-37-22q4-11 18-23t35-19q21-7 46-2l-12 39q24 5 48 30t26 60q23-19 52-26t50-7q21 0 50 7t53 26q1-36 25-60.5T598 59l-13-39q26-5 47 2t35 19q14 12 18 23l-38 22q1 4 1.5 8t.5 9q0 20-11 44t-29.5 41.5Q590 206 569 206h-6l-3 7q1 5 1.5 11t.5 12v444h230l34-122h11l-39-49-13 34q4 4 5 12t1 15q0 23-11.5 45t-28 36.5Q735 666 718 666q-6 0-13-10t-7-23q0-15 4.5-35.5t14.5-38q10-17.5 28-23.5l38-85 14-2 46 54-67-200q-17-2-27.5-17.5T731 253q-3-5-5-10l-4-10q-5-8-18-10.5t-23-1.5l-7-26q7-5 29.5-14t57.5-18q35-9 59.5-11t33.5 0l3 24q-8 2-17 10t-9 22v10.5l1 11.5q1 16-1 36t-15 30l47 143V141q-15-6-22-23t-9-36q-1-6-2-11.5T828 60q-3-10-14.5-15T792 38V11q7-4 30.5-7.5T883 0q37 0 60.5 3.5T975 11v27q-10 2-21.5 7T939 60q-2 5-2 10.5T935 82q-2 19-9.5 36T903 141v298l48-143q-14-10-15.5-30t-.5-36q1-6 1-11.5V208q0-14-9-22t-17-10l3-24q9-2 33.5 0t59.5 11q35 9 57 18t29 14l-6 26q-10-1-23 1.5t-18 10.5l-4 10-5 10q-7 17-18 32.5T990 303l-66 200 45-54 14 2 39 85q18 6 28.5 23.5t14.5 38q4 20.5 4 35.5 0 13-7 23t-14 10q-16 0-32.5-14.5t-28-36.5Q976 593 976 570q0-7 1-15t5-12l-14-34-38 49h11l34 122h140v65H709q8 13 17 34t9 40q0 35-22.5 61T633 906q-9 0-19-2t-20-5v104h526v20h-110v83h110v19h-110v83h110v20zM883 130q20 0 25.5-19t7.5-32l5-23q4-16 16-21.5t20-7.5v-2q-8-2-28-4t-46-2q-26 0-45.5 2T810 25v2q7 2 19 7.5T845 56l6 23q2 13 7.5 32t24.5 19zm-609 56q25 0 25-32 0-22-11-39.5T262 87q-15-10-29-10-9 0-14.5 5.5T213 103q0 16 8.5 35.5T244 172q14 14 30 14zm295 0q16 0 29.5-14t22-33.5Q629 119 629 103q0-15-5.5-20.5T609 77q-14 0-29 10t-26 27.5Q543 132 543 154q0 15 7.5 23.5T569 186zM421 431l118-221q-8-30-29-46t-46-22q-25-6-43-6t-43 6q-25 6-46 22t-28 46zm459 127h6V144h-6zm-86-269q18-5 19-23.5t0-34.5q0-5-.5-11.5T812 208q0-11 9-22t18-17q-6 0-22.5 1.5T766 181q-25 7-44 13t-26 10v3q7 0 21 2.5t21 16.5q2 5 5 10.5t6 11.5q5 12 15.5 29t29.5 12zm179 0q19 5 29-12t16-29q3-6 5.5-11.5t5.5-10.5q8-14 21-16.5t20-2.5l1-3q-8-4-26-10t-44-13q-34-9-50.5-10.5T928 169q9 6 18 17t9 22q0 5-.5 11.5T954 231q-1 16 0 34.5t19 23.5zM542 659V245L432 452zm-241-3l109-204-109-206zm598-127l74-226-6-1-68 202zm-31 0v-25l-69-202-5 1zm36 29h8l59-76 25 54q3-1 8-1l-32-65zm-49 0h8l-68-88-32 65q5 0 8 1l25-54zM318 680h206q-14-13-36-27.5T442 633l3-19q19 3 36.5 12.5T513 646l-92-173-92 173q15-10 32.5-19.5T398 614l2 19q-23 5-45.5 19.5T318 680zm728-31q6 0 6-16 0-15-5-34t-15-33.5q-10-14.5-25-14.5-8 0-10.5 6t-2.5 13q0 31 18 55t34 24zm-326 0q17 0 35-24t18-55q0-7-3-13t-11-6q-14 0-24 14.5T720 599q-5 19-5 34 0 16 5 16zm90 31h147l-29-103h-89zm-648 0h31q-14-16-35.5-35.5t-45-34.5Q89 595 68 595q-20 0-34 14 9-4 25-4 15 0 36 14t40 32q19 18 27 29zm-122 0h96q-9-10-23-23.5t-30-24Q67 622 53 622q-9 0-16.5 4T29 642q0 12 4 22t7 16zm62 107q34 0 58-14.5t37-27.5h-26q-7 9-22 18.5t-41 9.5q-25 0-44.5-17t-33-42.5Q17 688 12 663q-1 10-1.5 19.5T10 700q1 38 27.5 63t64.5 24zm-39-61h1033v-26H45q3 5 8.5 12.5T63 726zm652 85q-4-19-14.5-39T686 745h-35q18 13 36 31.5t28 34.5zm-68 41q22 2 39.5-2.5T704 835q0-11-13-27.5T657.5 774Q637 757 615 745h-21v84q29 20 53 23zm-73-37v-70h-19v56q4 4 9 7.5t10 6.5zm-39-31v-39h-41q7 8 17.5 18.5T535 784zm-427-31q20 0 33-8H81q11 8 27 8zm525 133q48 0 68-23-11 5-26 7t-28 1q-23-1-51-16.5T541 818q-27-21-47.5-41T465 745h-36q15 15 38 38.5t50.5 47Q545 854 575 870t58 16zm-78 117h19V891q-5-2-10-4.5t-9-5.5zm-204 103h200v-83H351zm-220 0h200v-83H131zm439 0h201v-83H570zm220 0h200v-83H790zm-439 102h200v-83H351zm-220 0h200v-83H131zm439 0h201v-83H570zm220 0h200v-83H790z" fill="currentColor"/></svg>