<svg xmlns="http://www.w3.org/2000/svg" viewBox="-10 0 1151 1184"><path d="M-1 1184v-20h112v-83H-1v-19h112v-83H-1v-20h536V825q-34-22-64-49t-50-48.5Q401 706 396 701H224q-5 6-20.5 21T162 749.5Q136 762 102 763q-35 0-57-12t-34-30.5q-12-18.5-16.5-37T-10 654q0-50 18.5-86.5T68 531q21 0 43.5 12t44 30q21.5 18 38 35.5T218 636h140l12-23 7-4 41-65 28-95q-17-13-28-28.5T399 388l-39-83-117 15-27-24-25-39 1-16 74-72q-9-4-20.5-18t-20-33.5Q217 98 217 79q0-11 8-31t27-39l14 4q-3 17-3.5 25t-.5 17q0 27 13.5 45t41.5 32q13-8 27-8 8 0 20 4 32-17 41.5-42.5T415 5l10-5q10 13 19.5 32t9.5 39q0 17-6 36.5T428 142l19-6 4 7-6 21q69 15 114.5 25.5t78 15.5q32.5 5 62.5 5 17 0 46-3.5t63-8.5q34-5 65-8.5t50-3.5q61 0 95.5 10t50 28q15.5 18 19.5 42l27 142q7 16 16 33.5t9 46.5q0 14-6 34l-15 1q-17-10-25-28t-8-36q0-14 7-48l-10-63-16 65 8 54-16 169h55v65H709q8 13 17 34t9 40q0 35-22.5 61T633 862q-9 0-19-2t-20-5v104h526v20h-110v83h110v19h-110v83h110v20zm1044-564l14-154-9-53 27-101-7-41q-3-18-14.5-33.5t-42-24.5q-30.5-9-87.5-9-19 0-49.5 4t-64.5 8.5q-34 4.5-63.5 8.5t-45.5 4q-33 0-71-6t-74.5-14.5Q519 200 489 193t-48-9l-7 20-41 4-5-14 33-7 10-33-54 26-8-13q28-13 49-36t21-61q0-6-3.5-16T430 39q0 43-19.5 71T358 148l-5-10q-18 0-29 6.5T300 163l-89 87 19 32 44-9 7 11-44 11 14 6 118-15 41-34 12 11-40 36 34 79q17 38 46.5 58.5T532 464l-30-40q-18-26-25.5-51t-7.5-59h19q0 32 6.5 55t25.5 49l37 49-27 145 19 7 51-189-13-40 20-6 13 41-3 10 215 11 99-30-51-79 20-8 55 87 68 50-7 146zM281 157l15-15q-31-15-41-39.5T245 45q-6 12-7.5 19T236 79q0 24 9.5 48t35.5 30zm10 69l-4-20 5-12 38-8 3 13-21 10-10 14zm-55 43l-13-23 23-5 7 14zM85 520V351h22q28 38 55 69.5t59 31.5q31 0 58.5-31.5T335 351h22v169zm19-19h233V380q-14 20-31.5 41T267 457q-21 15-46 15t-46.5-15q-21.5-15-39-36T104 380zm725 135h149l12-23 7-4 7-135-59-42-18 7-23 61zm-15-17l74-126 15-47-46 14-27 87-43 65zm-250 17h185l12-23 7-4 41-65 25-77-46 14-6-13 18-6-187-9zm-145-17l74-126 2-20q-10-3-17-7l-14-8-25 89-43 65zm15 17h58l12-23 6-4 25-127q-13-2-20-4l-6 22zm-272 0h31q-14-16-35.5-35.5t-45-34.5Q89 551 68 551q-20 0-34 14 9-4 25-4 15 0 36 14t40 32q19 18 27 29zm-122 0h96q-9-10-23-23.5t-30-24Q67 578 53 578q-9 0-16.5 4T29 598q0 12 4 22t7 16zm62 107q34 0 58-14.5t37-27.5h-26q-7 9-22 18.5t-41 9.5q-25 0-44.5-17t-33-42.5Q17 644 12 619q-1 10-1.5 19.5T10 656q1 38 27.5 63t64.5 24zm279-107h27l2-4-24-6zm617 0h26l2-4-23-6zm-225 0h26l2-4-24-6zm-261 0h26l2-4-23-6zM63 682h1033v-26H45q3 5 8.5 12.5T63 682zm652 85q-4-19-14.5-39T686 701h-35q18 13 36 31.5t28 34.5zm-68 41q22 2 39.5-2.5T704 791q0-11-13-27.5T657.5 730Q637 713 615 701h-21v84q29 20 53 23zm-73-37v-70h-19v56q4 4 9 7.5t10 6.5zm-39-31v-39h-41q7 8 17.5 18.5T535 740zm98 102q48 0 68-23-11 5-26 7t-28 1q-23-1-51-16.5T541 774q-27-21-47.5-41T465 701h-36q15 15 38 38.5t50.5 47Q545 810 575 826t58 16zM108 709q20 0 33-8H81q11 8 27 8zm447 250h19V847q-5-2-10-4.5t-9-5.5zm15 103h201v-83H570zm-439 0h200v-83H131zm220 0h200v-83H351zm439 0h200v-83H790zm-439 102h200v-83H351zm-220 0h200v-83H131zm659 0h200v-83H790zm-220 0h201v-83H570z" fill="currentColor"/></svg>