<svg xmlns="http://www.w3.org/2000/svg" viewBox="-10 0 1130 1223"><path d="M-1 1223v-20h112v-83H-1v-19h112v-83H-1v-20h536V864q-34-22-64-49t-50-48.5Q401 745 396 740H224q-5 6-20.5 21T162 788.5Q136 801 102 802q-35 0-57-12t-34-30.5q-12-18.5-16.5-37T-10 693q0-50 18.5-86.5T68 570q21 0 43.5 12t44 30q21.5 18 38 35.5T218 675h173q-72-17-128-47t-90-66q-16-17-16-34 1-12 7.5-20.5T185 499q14 0 27 8t27 18q53 38 114.5 63.5T482 624L315 140h-33l31 59-210-69 210-69-31 59h609v20H668l146 423q15-9 29.5-18.5T872 525q14-10 27.5-18t27.5-8q14 0 20 8.5t7 20.5q1 10-3.5 17.5T938 562q-34 36-88.5 66T724 675h253V389h-86q0-19 10-41t29-40.5q19-18.5 47-24.5v-23q-5-7-20.5-26.5T928 198l91-119q-4-5-8-13.5t-4-21.5q0-13 12-28.5T1057 0q27 0 37.5 13t10.5 32q0 16-6 34.5t-11 28.5q-16 37-32.5 75t-32.5 75v24q28 5 48 23t31 41q11 23 11 43h-86v286h88v65H709q8 13 17 34t9 40q0 35-22.5 61T633 901q-9 0-19-2t-20-5v104h526v20h-110v83h110v19h-110v83h110v20zm998-943h6v-25l68-155q3-7 9-24t6-31q0-10-6.5-18t-22.5-8q-16 0-23 9t-7 16q0 13 4 22t8 12l-90 120q7 8 22 25t26 30zM274 166l-24-26h-28v-20h28l24-26-108 36zm392 453q35-8 67-19.5t63-27.5L647 140H502zm-108 11q23 0 45-2t44-6L481 140H336l168 487q25 3 54 3zm354-260h180q-5-23-28.5-47t-61.5-24q-41 0-63.5 23.5T912 370zm84 305h12V389h-12zm-438 0q79 0 150-17.5t127-46q56-28.5 89-63.5 11-10 11-19-2-11-8-11-9 0-20 7t-23 16q-45 34-100 58t-113 37q-58 13-113 13t-114-13q-59-13-115-37t-101-58q-12-9-23.5-16t-19.5-7q-8 0-8 11-1 6 2 10t8 9q32 34 88 63t128.5 46.5Q476 675 558 675zm-396 0h31q-14-16-35.5-35.5t-45-34.5Q89 590 68 590q-20 0-34 14 9-4 25-4 15 0 36 14t40 32q19 18 27 29zm-122 0h96q-9-10-23-23.5t-30-24Q67 617 53 617q-9 0-16.5 4T29 637q0 12 4 22t7 16zm62 107q34 0 58-14.5t37-27.5h-26q-7 9-22 18.5t-41 9.5q-25 0-44.5-17t-33-42.5Q17 683 12 658q-1 10-1.5 19.5T10 695q1 38 27.5 63t64.5 24zm-39-61h1033v-26H45q3 5 8.5 12.5T63 721zm45 27q20 0 33-8H81q11 8 27 8zm525 133q48 0 68-23-11 5-26 7t-28 1q-23-1-51-16.5T541 813q-27-21-47.5-41T465 740h-36q15 15 38 38.5t50.5 47Q545 849 575 865t58 16zm-98-102v-39h-41q7 8 17.5 18.5T535 779zm39 31v-70h-19v56q4 4 9 7.5t10 6.5zm141-4q-4-19-14.5-39T686 740h-35q18 13 36 31.5t28 34.5zm-68 41q22 2 39.5-2.5T704 830q0-11-13-27.5T657.5 769Q637 752 615 740h-21v84q29 20 53 23zm-92 151h19V886q-5-2-10-4.5t-9-5.5zm235 103h200v-83H790zm-220 0h201v-83H570zm-219 0h200v-83H351zm-220 0h200v-83H131zm659 102h200v-83H790zm-220 0h201v-83H570zm-219 0h200v-83H351zm-220 0h200v-83H131z" fill="currentColor"/></svg>