<svg xmlns="http://www.w3.org/2000/svg" viewBox="-10 0 1192 1213"><path d="M-1 1213v-20h112v-83H-1v-19h112v-83H-1v-20h536V854q-34-22-64-49t-50-48.5Q401 735 396 730H224q-5 6-20.5 21T162 778.5Q136 791 102 792q-35 0-57-12t-34-30.5q-12-18.5-16.5-37T-10 683q0-50 18.5-86.5T68 560q21 0 43.5 12t44 30q21.5 18 38 35.5T218 665h173q-72-17-128-47t-90-66q-16-17-16-34 1-12 7.5-20.5T185 489q14 0 27 8t27 18q53 38 114.5 63.5T482 614L315 130h-33l31 59-210-69 210-69-31 59h508v20H668l146 423q15-9 29.5-18.5T872 515q14-10 27.5-18t27.5-8q14 0 20 8.5t7 20.5q1 10-3.5 17.5T938 552q-34 36-88.5 66T724 665h253V477q-17-1-38-15t-21-49q0-34 13-66t31-64H828V127h35q2 2 6 7t9 10q2-13 13-21.5t25-8.5q9 0 19 5l1-24q1-55 18-75t48-20q32 0 48.5 20.5T1068 95v24q10-5 20-5 14 0 25 8.5t13 21.5q5-5 9-10t6-7h35v156h-135q14 24 29 56t15 74q0 34-20.5 48t-37.5 16v188h155v65H709q8 13 17 34t9 40q0 35-22.5 61T633 891q-9 0-19-2t-20-5v104h588v20h-172v83h172v19h-172v83h172v20zM1002 205q13 0 26-3t23-7l-3-100q-1-43-12-59.5T1002 19q-23 0-34 16.5T956 95l-3 100q10 4 23 7t26 3zm-728-49l-24-26h-28v-20h28l24-26-108 36zm392 453q35-8 67-19.5t63-27.5L647 130H502zm-108 11q23 0 45-2t44-6L481 130H336l168 487q25 3 54 3zm530-449q8 0 14-5.5t6-13.5q0-7-6-13t-14-6q-7 0-13 5t-6 14q0 10 6 14.5t13 4.5zm-172 0q7 0 13-5.5t6-13.5q0-7-6-13t-13-6q-8 0-13.5 6t-5.5 13q0 19 19 19zm-69 93h310V147h-7q-14 17-37.5 35t-52 30.5Q1032 225 1002 225t-58.5-12.5Q915 200 891.5 182T854 147h-7zm149 401h12V283h-12zm-19-208V298q-15 28-27 56t-12 59q0 24 13.5 33t25.5 11zm50 0q12-2 25-11.5t13-32.5q0-31-12-58t-26-55zM558 665q79 0 150-17.5t127-46q56-28.5 89-63.5 11-10 11-19-2-11-8-11-9 0-20 7t-23 16q-45 34-100 58t-113 37q-58 13-113 13t-114-13q-59-13-115-37t-101-58q-12-9-23.5-16t-19.5-7q-8 0-8 11-1 6 2 10t8 9q32 34 88 63t128.5 46.5Q476 665 558 665zm-396 0h31q-14-16-35.5-35.5t-45-34.5Q89 580 68 580q-20 0-34 14 9-4 25-4 15 0 36 14t40 32q19 18 27 29zm-122 0h96q-9-10-23-23.5t-30-24Q67 607 53 607q-9 0-16.5 4T29 627q0 12 4 22t7 16zm62 107q34 0 58-14.5t37-27.5h-26q-7 9-22 18.5t-41 9.5q-25 0-44.5-17t-33-42.5Q17 673 12 648q-1 10-1.5 19.5T10 685q1 38 27.5 63t64.5 24zm-39-61h1099v-26H45q3 5 8.5 12.5T63 711zm570 160q48 0 68-23-11 5-26 7t-28 1q-23-1-51-16.5T541 803q-27-21-47.5-41T465 730h-36q15 15 38 38.5t50.5 47Q545 839 575 855t58 16zm82-75q-4-19-14.5-39T686 730h-35q18 13 36 31.5t28 34.5zm-68 41q22 2 39.5-2.5T704 820q0-11-13-27.5T657.5 759Q637 742 615 730h-21v84q29 20 53 23zm-73-37v-70h-19v56q4 4 9 7.5t10 6.5zm-39-31v-39h-41q7 8 17.5 18.5T535 769zm-427-31q20 0 33-8H81q11 8 27 8zm447 250h19V876q-5-2-10-4.5t-9-5.5zm235 103h200v-83H790zm-659 0h200v-83H131zm439 0h201v-83H570zm-219 0h200v-83H351zm-220 102h200v-83H131zm659 0h200v-83H790zm-220 0h201v-83H570zm-219 0h200v-83H351z" fill="currentColor"/></svg>