<svg xmlns="http://www.w3.org/2000/svg" viewBox="-10 0 1130 1218"><path d="M-1 1218v-20h112v-83H-1v-19h112v-83H-1v-20h536V859q-34-22-64-49t-50-48.5Q401 740 396 735H224q-5 6-20.5 21T162 783.5Q136 796 102 797q-35 0-57-12t-34-30.5q-12-18.5-16.5-37T-10 688q0-50 18.5-86.5T68 565q21 0 43.5 12t44 30q21.5 18 38 35.5T218 670h199V465l-24 3v-49l24-5V235q-21-5-28-22l-15 13-13-15 23-19q1-16 13-28t29-12q18 0 30 12.5t12 29.5q0 15-9 26.5T436 235v175l14-3 67-55 36-100h37q-1-5-5-13t-11-14q-3-1-12-3.5t-17-4.5v-28q5-5 16-12.5t23-12.5l13-138q2-14 10-20t18-6q9 0 16 10 4-10 19-10 11 0 19 7t7 23l-15 137q10 3 21 12t15 26q4 17 5 35.5t1 28.5l43 103-30 94h20v20h-51v29h-15l22 155h413v65H709q8 13 17 34t9 40q0 35-22.5 61T633 896q-9 0-19-2t-20-5v104h526v20h-110v83h110v19h-110v83h110v20zM653 158q2-15 4-38.5t4.5-48Q664 47 666 28q1-8-6-8-8 0-9 7l-11 127q8 2 13 4zm-48-1q6-3 15-3l12-126q0-8-7-8-8 0-8 8zm-179 60q10 0 16.5-6.5T449 194q0-9-6.5-15.5T426 172q-9 0-15.5 6.5T404 194q0 10 6.5 16.5T426 217zm183 35h23q11-10 20-20.5t9-20.5q0-12-5-25t-28-13q-21 0-38.5 8.5T563 197v6q4 1 10 2t10 2q9 8 16 21.5t10 23.5zm50 0h33q0-14-1.5-29T680 200q0 2 .5 5t.5 6q0 15-8.5 26T659 252zm33 214h13l31-94-43-100H567l-34 93-74 60-23 6v11l26-4 84-67 17-44h11l21 46h61l12-66h14l37 77zm-3-54l9-26-17-35-7 31zM436 670h17v-11l53-21 1-6h-48l26-147v-19h64l30-70v-11l-9-22-7 19-94 75-33 5zm129-204h105l7-20-1-16-15-37h-62l-1 8zm-158-19l10-2v-10l-10 2zm147 49h129l-1-10H558zm-39 111l29-92h-15l12-29h-26zm-35 7h20V486h-2zm138 55h64l-22-154h-23l27 136zm-62 1h31v-9l54-22-25-124h-8zm-78 0h59l51-155h-23l-43 138zm-316 0h31q-14-16-35.5-35.5t-45-34.5Q89 585 68 585q-20 0-34 14 9-4 25-4 15 0 36 14t40 32q19 18 27 29zm-122 0h96q-9-10-23-23.5t-30-24Q67 612 53 612q-9 0-16.5 4T29 632q0 12 4 22t7 16zm62 107q34 0 58-14.5t37-27.5h-26q-7 9-22 18.5t-41 9.5q-25 0-44.5-17t-33-42.5Q17 678 12 653q-1 10-1.5 19.5T10 690q1 38 27.5 63t64.5 24zm-39-61h1033v-26H45q3 5 8.5 12.5T63 716zm652 85q-4-19-14.5-39T686 735h-35q18 13 36 31.5t28 34.5zm-68 41q22 2 39.5-2.5T704 825q0-11-13-27.5T657.5 764Q637 747 615 735h-21v84q29 20 53 23zm-73-37v-70h-19v56q4 4 9 7.5t10 6.5zm-466-62q20 0 33-8H81q11 8 27 8zm427 31v-39h-41q7 8 17.5 18.5T535 774zm98 102q48 0 68-23-11 5-26 7t-28 1q-23-1-51-16.5T541 808q-27-21-47.5-41T465 735h-36q15 15 38 38.5t50.5 47Q545 844 575 860t58 16zm-78 117h19V881q-5-2-10-4.5t-9-5.5zm235 103h200v-83H790zm-220 0h201v-83H570zm-219 0h200v-83H351zm-220 0h200v-83H131zm659 102h200v-83H790zm-220 0h201v-83H570zm-219 0h200v-83H351zm-220 0h200v-83H131z" fill="currentColor"/></svg>