<svg xmlns="http://www.w3.org/2000/svg" viewBox="-10 0 1130 1149"><path d="M303 592q-18 0-38-35.5T245 456q0-27 5-64t12-76q7-39 13-71 5-27 8.5-45.5T287 177q0-8-7.5-27t-20-43Q247 83 230 61q-5-5-13-11t-22-2l-9-17Q245 0 303 0t117 31l-9 17q-14-4-22 2t-13 11q-17 22-29.5 46t-20 43q-7.5 19-7.5 27 0 4 3.5 22.5T331 245q6 32 13 71t12 76q5 37 5 64 0 65-20.5 100.5T303 592zm772 8q-13 0-27.5-26.5t-25-65.5q-10.5-39-10.5-78 0-25 1.5-61t-2.5-71q-4-35-21-57-20-28-72.5-39.5T790 190q-47 0-93 6.5t-96 6.5q-28 0-45.5-14.5T537 156q-1-19 7-31.5t7-25.5q0-16-22-17-19-2-35-11.5T478 46q0-23 17.5-33.5T545 2q37 0 53.5 18.5T615 56q0 15-5 29.5t-5 27.5q0 10 18 11t35 1q55 0 110.5-4t115.5-4q34 0 69.5 7.5t65.5 25q30 17.5 48.5 47T1086 270q0 43-8.5 89t-8.5 83q0 25 3.5 51.5T1083 540q8 24 8 42t-16 18zM303 154q16-38 35.5-71T376 33q-39-14-73-14t-73 14q18 17 37.5 50t35.5 71zm772 426q2 0-2-11.5t-8-27.5q-5-16-10.5-43.5T1049 442q0-43 8.5-85.5t8.5-86.5q0-49-27-78t-69-42q-42-13-86-13-56 0-112 4t-114 4q-15 0-32-.5t-29-7q-12-6.5-12-24.5 0-14 5.5-27.5T596 56q0-11-12-23t-39-12q-48 0-48 24 0 6 12 11.5t25 6.5q17 2 27.5 9T572 92q0 17-8 32.5t-7 30.5q0 10 12 19t32 9q25 0 58-3t67.5-6q34.5-3 63.5-3 93 0 142.5 13t73.5 45q18 24 22.5 59.5t3.5 73q-1 37.5-1 68.5 0 35 8 69.5t18.5 57.5q10.5 23 17.5 23zm-772-15q9 0 17.5-16.5T335 507q6-25 6-51 0-25-5-61t-12-75q-7-39-13-72-2-13-4-24t-4-21q-2 10-4 21t-4 24q-6 33-13.5 72T269 395q-5 36-5 61 0 26 6 51t14.5 41.5Q293 565 303 565zm295 23q3-41 23-77t53-58q33-22 77-22t77 22q33 22 52.5 58t22.5 77zm23-20h259q-9-47-42-82.5T751 450q-55 0-88 35.5T621 568zM-1 1149v-20h112v-83H-1v-19h112v-83H-1v-20h536V790q-34-22-64-49t-50-48.5Q401 671 396 666H224q-5 6-20.5 21T162 714.5Q136 727 102 728q-35 0-57-12t-34-30.5q-12-18.5-16.5-37T-10 619q0-50 18.5-86.5T68 496q21 0 43.5 12t44 30q21.5 18 38 35.5T218 601h897v65H709q8 13 17 34t9 40q0 35-22.5 61T633 827q-9 0-19-2t-20-5v104h526v20h-110v83h110v19h-110v83h110v20zm163-548h31q-14-16-35.5-35.5t-45-34.5Q89 516 68 516q-20 0-34 14 9-4 25-4 15 0 36 14t40 32q19 18 27 29zm-122 0h96q-9-10-23-23.5t-30-24Q67 543 53 543q-9 0-16.5 4T29 563q0 12 4 22t7 16zm62 107q34 0 58-14.5t37-27.5h-26q-7 9-22 18.5t-41 9.5q-25 0-44.5-17t-33-42.5Q17 609 12 584q-1 10-1.5 19.5T10 621q1 38 27.5 63t64.5 24zm-39-61h1033v-26H45q3 5 8.5 12.5T63 647zm45 27q20 0 33-8H81q11 8 27 8zm525 133q48 0 68-23-11 5-26 7t-28 1q-23-1-51-16.5T541 739q-27-21-47.5-41T465 666h-36q15 15 38 38.5t50.5 47Q545 775 575 791t58 16zm-98-102v-39h-41q7 8 17.5 18.5T535 705zm39 31v-70h-19v56q4 4 9 7.5t10 6.5zm73 37q22 2 39.5-2.5T704 756q0-11-13-27.5T657.5 695Q637 678 615 666h-21v84q29 20 53 23zm68-41q-4-19-14.5-39T686 666h-35q18 13 36 31.5t28 34.5zM555 924h19V812q-5-2-10-4.5t-9-5.5zm-204 103h200v-83H351zm439 0h200v-83H790zm-659 0h200v-83H131zm439 0h201v-83H570zm0 102h201v-83H570zm220 0h200v-83H790zm-439 0h200v-83H351zm-220 0h200v-83H131z" fill="currentColor"/></svg>