<svg xmlns="http://www.w3.org/2000/svg" viewBox="-10 0 1137 1114.111"><path d="M-1 1114.111v-20h112v-83H-1v-19h112v-83H-1v-20h536v-134q-34-22-64-49t-50-48.5q-20-21.5-25-26.5H224q-5 6-20.5 21t-41.5 27.5q-26 12.5-60 13.5-35 0-57-12t-34-30.5q-12-18.5-16.5-37t-4.5-29.5q0-50 18.5-86.5t59.5-36.5q21 0 43.5 12t44 30q21.5 18 38 35.5t24.5 27.5h37q-18-3-31-13v-35q11-5 28-10.5t31-5.5q23 0 46.5 2.5t47.5 1.5q11 0 28-2t32-5q15-3 21-7t9-16.5q3-12.5 4.5-26l2.5-22.5q-14-25-27.5-53t-16.5-57q-2-11-5.5-25t-11.5-24q-8-10-23-10-14 0-41 9.5t-47 18.5h-41q0-16 8-36.5t28-39.5q22-19 44-30 8-10 16.5-20t21.5-15q4-2 14-4l-67-64 53-53 72 102 70-100 46 53-66 69q10 16 20 34t18 35q16 31 32 56.5t38 41q22 15.5 55 15.5 22 0 57.5-5t70.5-10q29-5 53.5-8.5t39.5-3.5q28 0 46.5 3.5t30.5 7.5q26-22 38.5-61t18.5-86q7-49 12-84.5t7-42.5q1-5 10.5-15t20.5-18q11-8 18-7 8 1 17 10t16 19.5q7 10.5 7 18.5 0 21-11 54.5t-23 68.5q-20 54-41 104.5t-54 78.5q5 14 5.5 29t.5 29q0 10 .5 20t2.5 17q4 12 14 26.5t19 28.5q9 14 11 27 1 11-9.5 21t-33.5 14h107v65H709q8 13 17 34t9 40q0 35-22.5 61t-79.5 26q-9 0-19-2t-20-5v104h526v20h-110v83h110v19h-110v83h110v20zm991-779q27-26 47-74t37-96q12-34 22.5-67t10.5-50q0-7-8-17t-14-11q-6-2-16 9.5t-12 15.5q-2 5-7 40.5t-11 83.5q-7 47-19.5 88t-39.5 67l4 4 6 7zm-573-199l16-3-56-79-23 22zm-127 416q23 0 48.5-4.5t49.5-4.5q25 0 54.5 2t54.5 4q28-35 50.5-62.5t58.5-51.5l11 15q-6 4-14.5 10t-13.5 11q10 4 27.5 8.5t38.5 4.5q37 0 87.5-13.5t90.5-32.5q-4-9-9-24t-5-32h19q4 33 24 57.5t48.5 41.5q28.5 17 58.5 25v19q-6 3-28 4.5t-45 2.5q-23 1-30 1-23 0-44.5-2t-46.5-2q-11 0-15.5 5.5t-4.5 10.5l17 4q4-1 24-2t41-2.5q21-1.5 29-1.5 29 0 58 3t61 3q17 0 32-5.5t14-11.5q-1-8-9.5-21.5t-18.5-28q-10-14.5-14-26.5-4-10-4.5-21t-.5-23q0-17-1.5-35.5t-11.5-34.5q-7-7-24.5-13t-61.5-6q-11 0-37 3.5t-53 8.5q-34 5-71 10t-60 5q-39 0-64-17t-43-45q-18-28-35-62-10-18-20.5-37t-26.5-43l67-68-18-21-70 96q-1 0-14.5 1t-29 3.5q-15.5 2.5-24.5 6.5-7 3-15 11t-16 18q-13 10-23.5 16t-21.5 16q-16 15-20.5 26.5t-5.5 17.5q11-13 29.5-24.5t33.5-17.5l5 12q-10 5-21.5 11t-21.5 14q15-7 40-16t41-9q24 0 36 13t16.5 31q4.5 18 6.5 32 2 22 11.5 43.5t20.5 40.5q4-17 10-31t14-27l16 10q-21 37-30 91-2 17-6.5 38.5t-12.5 27.5q-7 6-24.5 10t-37 5.5q-19.5 1.5-32.5 1.5-23 1-46.5-1.5t-48.5-2.5q-8 0-20.5 3.5t-20.5 6.5v6q7 7 23.5 11t24.5 4zm87-340l-4-10q3-12 11.5-18.5t19.5-6.5q6 0 10 1.5t6 3.5l1 16q-28 3-44 14zm132 354h249l-28-5q1-17 11-34.5t31-17.5q23 0 46 2.5t48 2.5q8 0 23.5-1.5t29.5-5.5q-25-11-43-24.5t-31-28.5q-26 13-60 24t-68 18q-34 7-62 7-31 0-53.5-7.5t-27.5-9.5q-17 16-33.5 38zm-347 0h31q-14-16-35.5-35.5t-45-34.5q-23.5-15-44.5-15-20 0-34 14 9-4 25-4 15 0 36 14t40 32q19 18 27 29zm-122 0h96q-9-10-23-23.5t-30-24q-16-10.5-30-10.5-9 0-16.5 4t-7.5 16q0 12 4 22t7 16zm62 107q34 0 58-14.5t37-27.5h-26q-7 9-22 18.5t-41 9.5q-25 0-44.5-17t-33-42.5q-13.5-25.5-18.5-50.5-1 10-1.5 19.5t-.5 17.5q1 38 27.5 63t64.5 24zm695-107h137q-17-2-33.5-2.5t-34.5-.5q-7 0-30 .5t-39 2.5zm-460 0h107q-12-2-27-2.5t-29-.5q-30 0-51 3zm-274 46h1033v-26H45q3 5 8.5 12.5t9.5 13.5zm472 58v-39h-41q7 8 17.5 18.5t23.5 20.5zm112 68q22 2 39.5-2.5t17.5-14.5q0-11-13-27.5t-33.5-33.5q-20.5-17-42.5-29h-21v84q29 20 53 23zm68-41q-4-19-14.5-39t-14.5-27h-35q18 13 36 31.5t28 34.5zm-141 4v-70h-19v56q4 4 9 7.5t10 6.5zm59 71q48 0 68-23-11 5-26 7t-28 1q-23-1-51-16.5t-55-36.5q-27-21-47.5-41t-28.5-32h-36q15 15 38 38.5t50.5 47q27.5 23.5 57.5 39.5t58 16zm-525-133q20 0 33-8H81q11 8 27 8zm447 250h19v-112q-5-2-10-4.5t-9-5.5zm-204 103h200v-83H351zm219 0h201v-83H570zm-439 0h200v-83H131zm659 0h200v-83H790zm-220 102h201v-83H570zm-219 0h200v-83H351zm-220 0h200v-83H131zm659 0h200v-83H790z" fill="currentColor"/></svg>