<svg xmlns="http://www.w3.org/2000/svg" viewBox="-10 0 1130 1200"><path d="M8 560l-18-9 77-124q-10-15-20.5-35T36 351q0-18 9.5-38.5T66 280q-11-12-20.5-28T36 214q0-22 9.5-39T66 147q-12-16-25.5-40.5T27 62q0-26 16.5-44T80 0q20 0 36 18t16 44q0 20-13.5 44.5T93 147q11 11 21 28t10 39q0 22-10.5 38.5T93 281q12 12 21.5 31.5T124 351q0 21-10.5 42T91 427q4 9 17.5 30.5t30 47Q155 530 169 551l-18 9-71-111zm72-428q11-16 21.5-35.5T112 62q0-18-9.5-30T80 20q-13 0-23 12T47 62q0 15 10.5 34.5T80 132zm531 10l46-81h19l27 56 32-56h19l27 56 32-56h20l26 56 32-56h20l27 56 31-56h20l27 56 31-56h20l40 81h-23l-27-56-32 56h-19l-27-56-32 56h-19l-28-56-31 56h-19l-28-56-31 56h-19l-28-56-31 56h-20l-27-56-32 56zM384 580l-64-53 22-40q4-7 6-15t-5-8q-7 0-11 10t-15 10q-8 0-14-5t-10-12q-3-4-6.5-8t-11.5-4l-60-2-19-154h197q-48-21-93.5-45.5t-74.5-53Q196 172 196 140t15.5-47.5Q227 77 250 77q30 0 41 17.5t11 33.5q0 16-10 28t-25 12q-13 0-22-8t-9-20q0-10 5.5-16.5T256 117q6 0 11.5 3.5T273 131q0 14-11 14-2 0-4-1.5t-4-2.5q1 2 3.5 5.5t7.5 3.5q8 0 12.5-7t4.5-15q0-10-6.5-21T250 96q-14 0-24.5 11T215 140q0 23 20 44.5t52.5 41q32.5 19.5 71 37T435 296L566 64l40 18zm-7-31L580 92l-6-3q-19 33-43.5 76.5t-48 85Q459 292 444 319H218l15 114 46 3q12 0 18 6t11 13q5 9 9 9t9-9.5q5-9.5 19-9.5 20 0 22 17.5t-8 33.5l-14 27zM80 266q9-12 16.5-25t7.5-27q0-14-7.5-28T80 163q-11 9-18 23t-7 28q0 14 7.5 27T80 266zm531 87l46-82h19l27 57 32-57h19l27 57 32-57h20l26 57 32-57h20l27 57 31-57h20l27 57 31-57h20l40 82h-23l-27-57-32 57h-19l-27-57-32 57h-19l-28-57-31 57h-19l-28-57-31 57h-19l-28-57-31 57h-20l-27-57-32 57zM80 410q9-14 16.5-30t7.5-29q0-13-7-28.5T80 296q-11 11-18 26.5T55 351q0 13 7.5 29T80 410zm531 158l46-82h19l27 57 32-57h19l27 57 32-57h20l26 57 32-57h20l27 57 31-57h20l27 57 31-57h20l40 82h-23l-27-56-32 56h-19l-27-56-32 56h-19l-28-56-31 56h-19l-28-56-31 56h-19l-28-56-31 56h-20l-27-56-32 56zM-1 1200v-20h112v-83H-1v-19h112v-83H-1v-20h536V841q-34-22-64-49t-50-48.5Q401 722 396 717H224q-5 6-20.5 21T162 765.5Q136 778 102 779q-35 0-57-12t-34-30.5q-12-18.5-16.5-37T-10 670q0-50 18.5-86.5T68 547q21 0 43.5 12t44 30q21.5 18 38 35.5T218 652h897v65H709q8 13 17 34t9 40q0 35-22.5 61T633 878q-9 0-19-2t-20-5v104h526v20h-110v83h110v19h-110v83h110v20zm163-548h31q-14-16-35.5-35.5t-45-34.5Q89 567 68 567q-20 0-34 14 9-4 25-4 15 0 36 14t40 32q19 18 27 29zm-122 0h96q-9-10-23-23.5t-30-24Q67 594 53 594q-9 0-16.5 4T29 614q0 12 4 22t7 16zm62 107q34 0 58-14.5t37-27.5h-26q-7 9-22 18.5t-41 9.5q-25 0-44.5-17t-33-42.5Q17 660 12 635q-1 10-1.5 19.5T10 672q1 38 27.5 63t64.5 24zm-39-61h1033v-26H45q3 5 8.5 12.5T63 698zm45 27q20 0 33-8H81q11 8 27 8zm607 58q-4-19-14.5-39T686 717h-35q18 13 36 31.5t28 34.5zm-68 41q22 2 39.5-2.5T704 807q0-11-13-27.5T657.5 746Q637 729 615 717h-21v84q29 20 53 23zm-73-37v-70h-19v56q4 4 9 7.5t10 6.5zm-39-31v-39h-41q7 8 17.5 18.5T535 756zm98 102q48 0 68-23-11 5-26 7t-28 1q-23-1-51-16.5T541 790q-27-21-47.5-41T465 717h-36q15 15 38 38.5t50.5 47Q545 826 575 842t58 16zm-78 117h19V863q-5-2-10-4.5t-9-5.5zm-204 103h200v-83H351zm439 0h200v-83H790zm-220 0h201v-83H570zm-439 0h200v-83H131zm659 102h200v-83H790zm-659 0h200v-83H131zm220 0h200v-83H351zm219 0h201v-83H570z" fill="currentColor"/></svg>