<svg xmlns="http://www.w3.org/2000/svg" viewBox="-10 0 1130 1163"><path d="M488 342V50q0-18 9.5-34T531 0q28 0 42 24.5T601 84q6 18 13.5 36.5T632 156q23 37 58 63.5t91 26.5q57 0 92-26.5t57-63.5q10-17 17.5-35.5T962 84q13-35 27-59.5T1032 0q24 0 33 16t9 34v292zm20-19h547V50q0-11-5-20.5t-18-9.5q-19 0-30 20.5T981 91q-7 16-15 36t-19 39q-24 39-64 69.5T781 266q-62 0-101.5-30.5T616 166q-11-19-19-39t-15-36q-11-28-22-49.5T531 20q-13 0-18 9.5T508 50zM377 545q-49 0-70.5-11T266 500l-32-38q-5-7-14-17t-16-10q-7 0-15 3-8 1-17 3t-22 2q-31 0-57.5-13T66 389q0-23 19.5-38.5T134 325l-57-54q-8-8-4-19t15-11q9 0 16 7l71 69 71-69q8-7 16-7 11 0 15 11t-3 19l-58 54q25 10 42 24.5t22 21.5l27 36q8 10 18 20.5t26 10.5q18 0 44-7.5t60-18.5q18-6 49-15t60-9q36 0 70.5 12t67.5 26q19 8 49.5 21.5t74.5 24Q870 482 927 482q34 0 60-2t50-5.5q24-3.5 56-7.5 10-2 14.5 6.5t3 19Q1109 503 1100 508q-41 20-87.5 28.5T922 545q-43 0-84-5t-87-9q-38-4-71.5-7.5T623 520q-32 0-63.5 3.5T499 532q-29 5-60 9t-62 4zM148 321l9-1-61-61q-4-4-7-4t-3 2q0 3 5 8zm54 0l57-56q5-6 5-8t-3-2q-3 0-7 4l-61 61zm175 205q30 0 60-4.5t59-8.5q31-4 62-8.5t65-4.5q24 0 58 3.5t72 7.5q45 5 86.5 10t82.5 5q39 0 82-6.5t81-23.5q8-3 7.5-7t-7.5-2q-39 6-74 10t-84 4q-56 0-100.5-10.5t-77-24Q717 453 696 444q-29-13-64-25t-68-12q-28 0-57.5 8.5T460 430q-35 11-61.5 19t-47.5 8q-23 0-36.5-12.5T292 420l-26-36-16-16-30-20.5q-30-20.5-44-9.5-40 0-65 16.5T86 389q0 17 19.5 26t44.5 9q13 0 20.5-1.5T185 419q5-1 9.5-2t9.5-1q13 0 25.5 11.5T249 447l31 39q13 17 32.5 28.5T377 526zM169 372q-13 0-13-11 0-14 13-14 12 0 12 14 0 11-12 11zM-1 1163v-20h112v-83H-1v-19h112v-83H-1v-20h536V804q-34-22-64-49t-50-48.5Q401 685 396 680H224q-5 6-20.5 21T162 728.5Q136 741 102 742q-35 0-57-12t-34-30.5q-12-18.5-16.5-37T-10 633q0-50 18.5-86.5T68 510q21 0 43.5 12t44 30q21.5 18 38 35.5T218 615h897v65H709q8 13 17 34t9 40q0 35-22.5 61T633 841q-9 0-19-2t-20-5v104h526v20h-110v83h110v19h-110v83h110v20zm163-548h31q-14-16-35.5-35.5t-45-34.5Q89 530 68 530q-20 0-34 14 9-4 25-4 15 0 36 14t40 32q19 18 27 29zm-122 0h96q-9-10-23-23.5t-30-24Q67 557 53 557q-9 0-16.5 4T29 577q0 12 4 22t7 16zm62 107q34 0 58-14.5t37-27.5h-26q-7 9-22 18.5t-41 9.5q-25 0-44.5-17t-33-42.5Q17 623 12 598q-1 10-1.5 19.5T10 635q1 38 27.5 63t64.5 24zm-39-61h1033v-26H45q3 5 8.5 12.5T63 661zm584 126q22 2 39.5-2.5T704 770q0-11-13-27.5T657.5 709Q637 692 615 680h-21v84q29 20 53 23zm68-41q-4-19-14.5-39T686 680h-35q18 13 36 31.5t28 34.5zm-141 4v-70h-19v56q4 4 9 7.5t10 6.5zm-39-31v-39h-41q7 8 17.5 18.5T535 719zm98 102q48 0 68-23-11 5-26 7t-28 1q-23-1-51-16.5T541 753q-27-21-47.5-41T465 680h-36q15 15 38 38.5t50.5 47Q545 789 575 805t58 16zM108 688q20 0 33-8H81q11 8 27 8zm447 250h19V826q-5-2-10-4.5t-9-5.5zm-204 103h200v-83H351zm-220 0h200v-83H131zm439 0h201v-83H570zm220 0h200v-83H790zm-439 102h200v-83H351zm219 0h201v-83H570zm-439 0h200v-83H131zm659 0h200v-83H790z" fill="currentColor"/></svg>