<svg xmlns="http://www.w3.org/2000/svg" viewBox="-10 0 1130 1177"><path d="M602 587V273q0-26 10.5-53t40.5-50q30-23 90-35V0h225v135q59 12 89.5 35t41 50q10.5 27 10.5 53v314h-19V273q0-22-9-45t-35.5-42q-26.5-19-77.5-30v431h-19V19h-84v568h-19V19h-84v568h-19V156q-52 11-78 30t-35 42q-9 23-9 45v314zm-337-34l-1-33q-1 0-3 .5t-3 .5q-16 2-33.5 4.5T191 528q-27 0-41.5-6T125 503l-17-22q-3-3-8-8.5t-9-5.5q-2 0-4.5.5t-4.5.5q-4 1-9 2.5T61 472q-22 0-36-11.5T11 433q0-22 15.5-32.5T50 389l-26-25q-5-5-1-13.5t15-8.5q7 0 11 4l6 6 24 26 25-26q1-2 5-6t11-4q11 0 15.5 8.5T134 364l-26 25q11 4 22 13t14 13l15 19q4 6 9.5 11.5T183 451q10 0 21.5-4t29.5-10l8-3-56-57 40-184q9-42 19-79t23.5-60.5Q282 30 302 30q21 0 34.5 23.5t23 60.5q9.5 37 19.5 79 12 55 22 100.5t18 83.5l-62 63 7 2q15 7 41.5 20.5T479 476q28 0 50-1.5t48-4.5q7-1 9.5 5t3.5 13q0 15-7 19-22 12-52.5 16.5T476 528q-24 0-41.5-3t-43.5-5q-15-1-27.5-2.5T341 515l-1 38zm72-121l61-61q-8-38-17.5-78.5T359 197q-8-37-16.5-70.5t-18.5-55Q314 50 302 50q-11 0-21 22.5T262 129q-9 34-16 68l-39 174 56 57q8-2 16-3.5t15-1.5q13 0 23 2.5t20 6.5zM88 386h6l29-28q2-1 2-3t-2-2q-1 0-3 2zm-24 0h6l-31-31q-2-1-2-1.5t-2-.5q-2 0-1.5 2t2.5 3zm127 122q16 0 32.5-2t32.5-4q17-3 34.5-5.5T327 494q13 0 28.5 2t36.5 5q25 2 43 4.5t41 2.5q21 0 44.5-3.5T566 492q4-1 4-4t-4-1q-23 4-41.5 6t-45.5 2q-46 0-74-12t-44-20q-16-7-32.5-13.5T294 443q-15 0-31 4.5t-26 8.5q-19 6-34 10.5t-27 4.5q-12 0-19.5-7T145 450l-15-20q-3-5-16-15t-33-10q-22 0-36.5 9T30 433q0 9 11 14t25 5q7 0 11.5-.5T85 450q3-1 5.5-2t5.5-1q7 0 14 7l11 11 17 21q7 10 17.5 16t35.5 6zM78 431q-11 0-11-11t11-11q11 0 11 11t-11 11zm206 103h36l1-20q-10 1-19 1.5t-18 1.5zM-1 1177v-20h112v-83H-1v-19h112v-83H-1v-20h536V818q-34-22-64-49t-50-48.5Q401 699 396 694H224q-5 6-20.5 21T162 742.5Q136 755 102 756q-35 0-57-12t-34-30.5q-12-18.5-16.5-37T-10 647q0-50 18.5-86.5T68 524q21 0 43.5 12t44 30q21.5 18 38 35.5T218 629h897v65H709q8 13 17 34t9 40q0 35-22.5 61T633 855q-9 0-19-2t-20-5v104h526v20h-110v83h110v19h-110v83h110v20zm163-548h31q-14-16-35.5-35.5t-45-34.5Q89 544 68 544q-20 0-34 14 9-4 25-4 15 0 36 14t40 32q19 18 27 29zm-122 0h96q-9-10-23-23.5t-30-24Q67 571 53 571q-9 0-16.5 4T29 591q0 12 4 22t7 16zm62 107q34 0 58-14.5t37-27.5h-26q-7 9-22 18.5t-41 9.5q-25 0-44.5-17t-33-42.5Q17 637 12 612q-1 10-1.5 19.5T10 649q1 38 27.5 63t64.5 24zm-39-61h1033v-26H45q3 5 8.5 12.5T63 675zm472 58v-39h-41q7 8 17.5 18.5T535 733zm-427-31q20 0 33-8H81q11 8 27 8zm607 58q-4-19-14.5-39T686 694h-35q18 13 36 31.5t28 34.5zm-68 41q22 2 39.5-2.5T704 784q0-11-13-27.5T657.5 723Q637 706 615 694h-21v84q29 20 53 23zm-14 34q48 0 68-23-11 5-26 7t-28 1q-23-1-51-16.5T541 767q-27-21-47.5-41T465 694h-36q15 15 38 38.5t50.5 47Q545 803 575 819t58 16zm-59-71v-70h-19v56q4 4 9 7.5t10 6.5zm-19 188h19V840q-5-2-10-4.5t-9-5.5zm15 103h201v-83H570zm220 0h200v-83H790zm-439 0h200v-83H351zm-220 0h200v-83H131zm439 102h201v-83H570zm220 0h200v-83H790zm-439 0h200v-83H351zm-220 0h200v-83H131z" fill="currentColor"/></svg>