<svg xmlns="http://www.w3.org/2000/svg" viewBox="-10 0 1138 1192"><path d="M641 372q2-10 6-27t16-30.5q12-13.5 36-13.5 20 0 30.5 3t19.5 6q7 3 15 5t21 2h29q-44-45-73.5-94T711 121q0-43 16-69t43-26q25 0 52 24t48 47l21 22 24 20q18 15 38 37t34.5 47q14.5 25 14.5 50 0 7-.5 14.5T1000 300q-2 7-1.5 11.5t11.5.5q28-10 46-38t18-71q0-25-10.5-50t-24-47.5q-13.5-22.5-24-41T1005 34q0-12 8.5-23T1039 0q15 0 30.5 17t29 45q13.5 28 21.5 62t8 67q0 77-35.5 127T986 369q-27 2-45-9 3 11-10.5 11.5t-23.5.5zm23-20h258q-15-12-29-26.5T871 301l16-13q10 14 27 30t34 25q16 10 40 8 61-1 91-47t30-113q0-40-11.5-79.5t-28-66Q1053 19 1039 19q-7 0-10.5 5.5T1025 36q0 8 10.5 25t23.5 40q13 23 23.5 49.5T1093 203q0 52-26.5 88t-61.5 41q-16 3-24-1.5t-4-17.5q2-7 4-16t2-24q0-23-13-45t-32-41q-19-19-36-33-7-6-14-11t-12-10l-21-23q-20-21-43-43t-42-22q-18 0-29 21t-11 55q0 53 38 108t93 107h-76q-16 0-25.5-2t-17.5-5q-7-3-17-5.5t-26-2.5q-19 0-26 10.5t-9 20.5zM337 568v-33q-2 0-3 .5t-3 .5q-16 2-33 4.5t-34 2.5q-27 0-41-6t-25-19l-18-22q-3-3-7.5-8.5T164 482q-6 0-12.5 2.5T134 487q-22 0-36-11.5T84 448q0-22 15-32.5t24-11.5l-26-25q-6-5-1.5-13.5T111 357q8 0 11.5 4t5.5 6l24 26 24-26q2-2 5.5-6t11.5-4q11 0 15 8.5t-1 13.5l-26 25q11 4 22 13t14 13l15 19q5 6 10 11.5t13 5.5q10 0 21.5-4t30.5-10l8-3-57-57 41-184q9-42 19-79t23.5-60.5Q355 45 375 45t34 23.5Q423 92 432.5 129t18.5 79q12 55 22.5 100.5T492 392l-63 63 8 2q15 7 41 20.5t73 13.5q28 0 50.5-1.5T650 485q6-1 9 5t4 13q0 6-2 11.5t-6 7.5q-22 12-52 16.5t-55 4.5q-23 0-41-3t-44-5q-15-1-27-2.5t-22-2.5l-1 38zm73-121l60-61q-7-38-17-78.5T432 212q-8-37-16.5-70.5t-18.5-55Q387 65 375 65q-11 0-21 22.5T335 144q-9 34-17 68l-38 174 56 57q17-5 31-5 12 0 22.5 2.5T410 447zm-249-46h6l28-28q2-1 2-3t-1-2q-2 0-4 2zm-24 0h6l-32-31q-2-2-3-2t-1 2q0 2 1 3zm127 122q17 0 33-2l32-4q17-3 34.5-5.5T399 509q14 0 29.5 2t35.5 5q25 2 43 4.5t41 2.5q22 0 45.5-3.5T638 507q5-1 5-4t-5-1q-22 4-41 6t-46 2q-46 0-73-12t-44-20q-17-7-33-13.5t-34-6.5q-15 0-30.5 4.5T310 471q-19 7-34 11t-27 4q-12 0-19.5-7T217 465l-14-20q-4-5-16.5-15T153 420q-22 0-36 9t-14 19q0 9 11 14t25 5q7 0 11-.5t8-1.5q3-1 5.5-2t5.5-1q8 0 14 7t10 11l18 21q8 10 18 16t35 6zm-113-77q-11 0-11-11t11-11q11 0 11 11t-11 11zm585 140q3-41 22.5-77t52.5-58q33-22 77-22t77 22q33 22 52.5 58t23.5 77zm22-19h260q-10-48-42.5-83T888 449q-54 0-87 35t-43 83zm-401-18h36l1-20q-10 1-19 1.5t-18 1.5zM-1 1192v-20h112v-83H-1v-19h112v-83H-1v-20h536V833q-34-22-64-49t-50-48.5Q401 714 396 709H224q-5 6-20.5 21T162 757.5Q136 770 102 771q-35 0-57-12t-34-30.5q-12-18.5-16.5-37T-10 662q0-50 18.5-86.5T68 539q21 0 43.5 12t44 30q21.5 18 38 35.5T218 644h897v65H709q8 13 17 34t9 40q0 35-22.5 61T633 870q-9 0-19-2t-20-5v104h526v20h-110v83h110v19h-110v83h110v20zm163-548h31q-14-16-35.5-35.5t-45-34.5Q89 559 68 559q-20 0-34 14 9-4 25-4 15 0 36 14t40 32q19 18 27 29zm-122 0h96q-9-10-23-23.5t-30-24Q67 586 53 586q-9 0-16.5 4T29 606q0 12 4 22t7 16zm62 107q34 0 58-14.5t37-27.5h-26q-7 9-22 18.5t-41 9.5q-25 0-44.5-17t-33-42.5Q17 652 12 627q-1 10-1.5 19.5T10 664q1 38 27.5 63t64.5 24zm-39-61h1033v-26H45q3 5 8.5 12.5T63 690zm584 126q22 2 39.5-2.5T704 799q0-11-13-27.5T657.5 738Q637 721 615 709h-21v84q29 20 53 23zm-539-99q20 0 33-8H81q11 8 27 8zm525 133q48 0 68-23-11 5-26 7t-28 1q-23-1-51-16.5T541 782q-27-21-47.5-41T465 709h-36q15 15 38 38.5t50.5 47Q545 818 575 834t58 16zm-98-102v-39h-41q7 8 17.5 18.5T535 748zm116-39q18 13 36 31.5t28 34.5q-4-19-14.5-39T686 709zm-77 70v-70h-19v56q4 4 9 7.5t10 6.5zm-19 188h19V855q-5-2-10-4.5t-9-5.5zm15 103h201v-83H570zm-219 0h200v-83H351zm-220 0h200v-83H131zm659 0h200v-83H790zm-220 102h201v-83H570zm220 0h200v-83H790zm-439 0h200v-83H351zm-220 0h200v-83H131z" fill="currentColor"/></svg>