<svg xmlns="http://www.w3.org/2000/svg" viewBox="-10 0 1130 1013"><path d="M-1 1013v-20h112v-83H-1v-19h112v-83H-1v-20h536V654q-34-22-64-49t-50-48.5Q401 535 396 530H224q-5 6-20.5 21T162 578.5Q136 591 102 592q-35 0-57-12t-34-30.5q-12-18.5-16.5-37T-10 483v-18h144q-19-1-25-7-8-10-8-23 0-15 9-21 10-5 23.5-8.5T166 401q22 0 49.5-.5t52.5-1q25-.5 38-2.5 35-3 51-10-5-16-15-34.5T319.5 321Q307 308 296 308q-8 0-16 2.5t-15 5.5q-5 1-10.5 2.5T244 320q-7 0-19.5-8t-23-19.5Q191 281 191 270q0-29 16-53t39-43q23-19 45-32t34-19q12-18 39.5-44.5t74-47Q485 11 554 11q25 0 45 .5t33 1.5h25q9 0 25.5-3T713 4q9-1 15.5-2.5T739 0q10 0 17.5 4.5T764 19q0 6-22 20 20 0 20 18 0 7-17 26t-48 35q-32 16-67.5 25.5T556 155q-35 2-67 7.5T428 176l1 1q2 3 4 6.5t3 7.5q7 13 17 29.5t27 28.5q17 12 44 12 32 0 73.5-9.5T683 230q46-12 90-22t78-10q46 0 77 22.5t49 52.5q18 30 25 53 3 11 5.5 21.5t4.5 18.5q5 28 8 28 8-1 18-16 3-7 10-17t18-10q13 0 20 15t7 29q0 30-19 48.5t-50 21.5h91v65H709q8 13 17 34t9 40q0 35-22.5 61T633 691q-9 0-19-2t-20-5v104h526v20h-110v83h110v19h-110v83h110v20zm162-566h249q58 0 70-15 2-4 2-10 0-8-2.5-18t-6.5-19l17-7q7 16 10 31 5 6 24 20.5t53 14.5q27 0 53.5-13.5T681 403l24-14q20-11 44-23.5t56-21.5q-4-9-7-18t-3-18q0-13 3.5-24t6.5-16l17 9q-2 4-4.5 12t-2.5 19q0 25 22 48t44 42l27 25H715q-31 0-31 16 0 5 6.5 6.5T704 447h223q16 0 24.5-3.5T960 429q0-8-9.5-21.5t-23.5-29Q913 363 901 350l14-13q14 14 29 31.5t25.5 34Q980 419 980 429q0 3-.5 6t-.5 5q5 2 12 4.5t17 2.5q29 0 47-13.5t18-38.5q0-8-1.5-16.5t-5.5-8.5q-2 0-6 6.5t-6 11.5q-13 24-33 25-14 1-19.5-11.5T992 370q-1-8-3-18t-6-20q-6-21-22.5-48T917 237q-27-20-66-20-33 0-76.5 10.5T688 249q-44 11-88 21t-76 10q-33 0-53.5-13.5t-32-32.5Q427 215 419 200q-6-12-14-23.5T387 157q-7-5-14.5-10.5T357 137q15-12 39-26.5T447.5 84Q475 72 501 67q20-4 46.5-7.5t53-6.5q26.5-3 45.5-5l30-3q14-2 30-7.5t27.5-11Q745 21 745 19h-6q-2 0-22 5-14 2-31.5 5.5T657 33h-11.5L631 32q-14 0-33.5-.5T554 31q-52 0-90 12t-63.5 30q-25.5 18-41 36T337 138q-10 6-31 18t-43 29.5q-22 17.5-37.5 39T210 270q0 11 14 21l32-29 13 14-27 25h2q4 0 14-4 8-2 17.5-5t20.5-3q15 0 30.5 14.5t29 36Q369 361 377 381q5-2 10-4.5t10-5.5l10 16q-21 14-47 21t-52 9q-14 2-39 2.5t-52.5 1q-27.5.5-50.5.5-34 1-45 9 0 1-.5 2t-.5 3q0 7 1 7 2 2 10 3.5t30 1.5zm256-288q32-9 66-15.5t72-7.5q35-1 69-11t64-25q25-12 39.5-25T742 58q-3 0-4 1-3 0-14.5 4T701 71q-7 3-13.5 5.5T676 80q-9 3-30.5 9t-47 12q-25.5 6-45.5 11-12 2-23 3.5t-21 3.5q-22 4-48 9.5T406 147l5.5 5.5 5.5 6.5zm-8-35q27-11 51.5-16t45.5-8q11-1 21-3.5t22-4.5q26-5 55-12.5T653 67h-5q-29 3-71 8t-73 11q-25 5-50 16t-45 22zM292 226q-11 0-16.5-6t-5.5-11q0-12 11.5-16t22.5-4q18 0 30 6v11q-6-2-11-2-2 5-8 13.5t-23 8.5zm425 178h141q-11-10-22-20.5T816 360q-32 9-55.5 21T717 404zm-281 61h255q-10-2-18-7t-8-19v-3q-20 11-42.5 19.5T577 464q-27 0-46.5-9T499 436q-5 14-23 20.5t-40 8.5zm512 0h44q-13-1-23-8-6 6-21 8zM59 511h1037v-26H42q5 14 17 26zm43 61q39 0 60.5-14.5T197 530h-26q-7 9-22 18.5t-41 9.5q-28 0-51-20.5T21 485H10q4 34 29 60.5t63 26.5zm545 65q22 2 39.5-2.5T704 620q0-11-13-27.5T657.5 559Q637 542 615 530h-21v84q29 20 53 23zm-73-37v-70h-19v56q4 4 9 7.5t10 6.5zm-39-31v-39h-41q7 8 17.5 18.5T535 569zm180 27q-4-19-14.5-39T686 530h-35q18 13 36 31.5t28 34.5zm-82 75q48 0 68-23-11 5-26 7t-28 1q-23-1-51-16.5T541 603q-27-21-47.5-41T465 530h-36q15 15 38 38.5t50.5 47Q545 639 575 655t58 16zM108 538q20 0 33-8H81q11 8 27 8zm447 250h19V676q-5-2-10-4.5t-9-5.5zM351 891h200v-83H351zm219 0h201v-83H570zm-439 0h200v-83H131zm659 0h200v-83H790zM570 993h201v-83H570zm-219 0h200v-83H351zm-220 0h200v-83H131zm659 0h200v-83H790z" fill="currentColor"/></svg>