<svg xmlns="http://www.w3.org/2000/svg" viewBox="-10 0 1130 1216"><path d="M-1 1216v-20h112v-83H-1v-19h112v-83H-1v-20h536V857q-34-22-64-49t-50-48.5Q401 738 396 733H224q-5 6-20.5 21T162 781.5Q136 794 102 795q-35 0-57-12t-34-30.5q-12-18.5-16.5-37T-10 686q0-50 18.5-86.5T68 563q21 0 43.5 12t44 30q21.5 18 38 35.5T218 668h188q6-11 13.5-27.5T431 612q2-8 5.5-31.5t6.5-53q3-29.5 5-54.5-7-7-21.5-24T403 420q-7-11-20.5-34T358 346q-14 9-29.5 18t-34.5 9q-12 0-22.5-5.5T261 349q0-9 5.5-21t17.5-26l74-81q7-71 46-132T504 0q1 2 14 14t24 22q-41 34-63.5 64t-32 56q-9.5 26-14.5 49 11-10 25-17t22-7q15 0 15 12 0 9-14.5 26T436 251q5 23 17 45t28 31q16 9 44.5 15t60 9.5Q617 355 644 355q17 0 33-.5t33-1.5q33-3 61-3 27 1 50.5 5t36.5 20q24 11 42.5 35t18.5 48q0 31-18 31-10 0-13.5-7t-6.5-14q-2-4-6.5-10.5T866 448l-2 8-3 8 45 100-10 70 4 34h215v65H709q8 13 17 34t9 40q0 35-22.5 61T633 894q-9 0-19-2t-20-5v104h526v20h-110v83h110v19h-110v83h110v20zm427-548h32l4-44q2-13 8.5-36.5t12.5-50q6-26.5 8-48.5h24q-7-17-13.5-33.5T486 423l14-9q24 41 41 102 6 21 12 48.5t10.5 50.5q4.5 23 4.5 28 0 3-3.5 10.5T557 668h25v-6q0-38-5.5-76t-9.5-76q-2-22-2.5-29t-.5-12q0-30 10-67l18 5q-4 17-6 32.5t-2 29.5v10l1 11h18q22 0 49.5-3t53-6.5Q731 477 747 474q2-15 5-30.5t8-28.5l18 6q-4 12-6.5 24.5T768 470q-2 28-5 59.5t-5.5 57Q755 612 752 620q-3 10-10 24.5T728 668h23q2-9 3-21.5t3-21.5q7-16 17.5-37.5T792 555q7-10 21-34t26-52.5q12-28.5 12-52.5 0-32-25-39t-56-7q-13-1-28 0t-31 2q-33 3-67 3-27 0-61-3.5T519 361q-30-7-48-17-19-10-32-34.5t-20-51q-7-26.5-7-44.5 0-36 25-83 9-19 30.5-45.5T518 37l-6-6q-55 39-81 91t-32 106l-13-1q10-76 38-121.5T503 22l-6-5q-24 17-42.5 33.5t-34 41Q405 116 390 154q-7 20-10.5 41t-3.5 33q-15 17-32 36t-30 33.5Q301 312 299 315q11 4 18 12.5t9 15.5q11-5 21-12t17-12q13 23 31 51.5t25 39.5q10 15 24 31t23 25q-2 28-5 59.5t-6 57.5q-3 26-6 35-3 8-10.5 23.5T426 668zm8-434q7-4 18.5-14t16.5-14q4-4 3-6t-5-1q-6 2-17 10t-17 14zm-71 51q-8 0-12-4.5t-4-8.5q0-8 8-10.5t16-2.5q6-1 12 1l9 3v7q-1 0-3.5-.5t-4.5-.5q-1 3-5 9.5t-16 6.5zm-74 71q4 0 9-2t7-3q-1-6-6-12t-10-6q-4 1-6.5 12t6.5 11zm611 112q2 0 2-6 0-17-11-33.5T865 403q3 9 1 21 8 6 15.5 15t11.5 17q3 4 4.5 8t2.5 4zm-43 200h24l-4-34 9-67-36-76q-3 7-6 13.5t-7 12.5l34 53-4 62zm-255 0h102q5-7 15-24.5t14-29.5q2-6 4-23t4-37.5q2-20.5 3.5-37T746 496v-1q-15 3-40 6.5t-52.5 6Q626 510 603 510h-8l-8-1 .5 3.5 1.5 17q1.5 17 4 44.5t9 88zm-125 0h60q4-6 8-13t4-12q0-11-4-34t-10.5-50.5Q528 531 522 508h-16q0 4-4 22t-9.5 40q-5.5 22-9.5 38.5t-4 18.5zm294 0h65l10-36 4-58-24-36q-12 20-17 28-7 10-15 25.5t-13.5 27Q775 630 776 629zm-609 0h31q-14-16-35.5-35.5t-45-34.5Q89 583 68 583q-20 0-34 14 9-4 25-4 15 0 36 14t40 32q19 18 27 29zm-122 0h96q-9-10-23-23.5t-30-24Q67 610 53 610q-9 0-16.5 4T29 630q0 12 4 22t7 16zm62 107q34 0 58-14.5t37-27.5h-26q-7 9-22 18.5t-41 9.5q-25 0-44.5-17t-33-42.5Q17 676 12 651q-1 10-1.5 19.5T10 688q1 38 27.5 63t64.5 24zm-39-61h1033v-26H45q3 5 8.5 12.5T63 714zm584 126q22 2 39.5-2.5T704 823q0-11-13-27.5T657.5 762Q637 745 615 733h-21v84q29 20 53 23zm68-41q-4-19-14.5-39T686 733h-35q18 13 36 31.5t28 34.5zm-141 4v-70h-19v56q4 4 9 7.5t10 6.5zm-39-31v-39h-41q7 8 17.5 18.5T535 772zm98 102q48 0 68-23-11 5-26 7t-28 1q-23-1-51-16.5T541 806q-27-21-47.5-41T465 733h-36q15 15 38 38.5t50.5 47Q545 842 575 858t58 16zM108 741q20 0 33-8H81q11 8 27 8zm447 250h19V879q-5-2-10-4.5t-9-5.5zm-204 103h200v-83H351zm-220 0h200v-83H131zm659 0h200v-83H790zm-220 0h201v-83H570zm-219 102h200v-83H351zm-220 0h200v-83H131zm659 0h200v-83H790zm-220 0h201v-83H570z" fill="currentColor"/></svg>