<svg xmlns="http://www.w3.org/2000/svg" viewBox="-10 0 1127 1173"><path d="M-10 1173v-20h113v-83H-10v-19h113v-83H-10v-20h536V814q-34-22-64-49t-50-48.5Q392 695 387 690H-10v-65h9v-31q7-11 22.5-21.5T58 562q11 0 24 4t20 8q11-1 45-5.5t76-10q42-5.5 79-9.5l-3-26q-8-6-29.5-25T234 453q-6-12-15.5-42T199 344q-10-37-17-68-32-8-64.5-17T52 242q-22-6-36.5-17.5T1 199v-26l83-3q9-13 26.5-25.5t35-21Q163 115 174 113q8-23 11-52.5T188 0h21q7 11 15.5 28.5T237 63q6-30 6-63h22q8 14 16.5 38t8.5 45q0 29-16 59 14 18 26 40.5t22 42.5q2 5 5.5 13t5.5 15q10 28 22 55t27 32q24 8 51.5 9.5T484 351q22 0 53.5-5.5T595 335q40-7 74-12.5t68-5.5q61 0 111 27t89 69.5q39 42.5 67 88.5t45.5 85.5Q1067 627 1074 648q21 59 32 116.5t11 104.5q0 7-2 19t-3 22q-54-25-82.5-77T976 707q-10-27-20-62.5T936 572q-10-37-21.5-68T890 456h-3l38 124q2 5 3 9.5t1 9.5q0 6-2 13t-6 13h26v65H700q8 13 17 34t9 40q0 35-22.5 61T625 851q-10 0-20-2t-20-5v104h526v20h-110v83h110v19h-110v83h110v20zM193 112h27q0-5 .5-10t.5-12q0-14-5.5-31.5T205 31q-1 22-3.5 42.5T193 112zm904 769v-12q0-46-10.5-100.5T1054 654q-6-17-22-54t-42-82q-26-45-63-86t-84.5-68Q795 337 737 337q-29 0-64 5.5T599 355q-26 5-58.5 10.5T484 371q-23 0-52-2t-55-10q-22-8-37.5-38.5T313 259q-3-7-5.5-13.5T302 232q-8-19-18.5-38.5T262 158q-2 2-3.5 4.5T255 167l-12-14q12-14 20-32t8-38q0-11-3.5-25T260 35q-1 20-5 40t-11 37q-7 20-11.5 28t-8.5 14l-15-11q2-3 3-6t3-7q-44 0-70 14.5T94 188l-73 1v15h66v12l-46 2q6 5 16 6l143 37q7 32 17 69.5t19.5 69Q246 431 253 444q8 16 21 29.5t24 23.5v-16q0-41 11-71l17 7q-5 12-7 29.5t-2 34.5q0 10 1.5 24.5T325 564L98 595q-5-4-16-8.5T58 582q-13 0-24.5 6.5T17 602v23h9v-16h11v16h13v-16h11v16h6q2-4 5-8t5-6q11 4 29.5 9t31.5 5h225q20-1 40-10.5t20-34.5V477h19v64h28q38 0 76.5-12t71-28q32.5-16 51.5-29-5-11-11-31t-6-28h18q0 7 4.5 23.5T684 461q7 15 27.5 37t43 40.5Q777 557 790 562l-3 16q-56 0-94.5 8.5T627 599q-11-4-28.5-8.5T568 586q-13 0-22 7t-13 14v18h12v-16h10v16h13v-16h11v16h10q2-3 3.5-7t2.5-6q18 5 37.5 8.5T669 625h218q13-1 18.5-10t5.5-16q0-7-3-13l-37-120q0-11 2-25.5t7-19.5q24 18 41 51.5t29.5 74.5q12.5 41 23 81.5T995 701q25 70 45 114.5t57 65.5zM170 178q-13 0-13-11 0-8 13-8 14 0 14 8 0 11-14 11zm252 447h92v-23q2-5 15.5-19.5T568 568q13 0 32 4t31 8q16-2 47.5-8.5T754 563q-19-15-41.5-36.5T679 489q-15 10-47.5 27t-75 30.5Q514 560 470 560h-28v20q0 31-20 45zM9 671h918v-26H9zm616 160q47 0 67-23-11 5-26 7t-28 1q-23-1-51-16.5T532.5 763q-26.5-21-47-41T457 690h-37q15 15 38 38.5t51 47q28 23.5 57.5 39.5t58.5 16zm81-75q-4-19-14.5-39T677 690h-35q18 13 35.5 31.5T706 756zm-68 41q23 2 40-2.5t17-14.5q0-11-13-27.5T649 719q-20-17-43-29h-21v84q29 20 53 23zm-72-37v-70h-20v56q10 8 20 14zm-40-31v-39h-41q8 8 18 18.5t23 20.5zm20 219h20V836q-5-2-10-4.5t-10-5.5zm16 103h200v-83H562zm219 0h201v-83H781zm-439 0h200v-83H342zm-220 0h200v-83H122zm440 102h200v-83H562zm-220 0h200v-83H342zm-220 0h200v-83H122zm659 0h201v-83H781z" fill="currentColor"/></svg>