<svg xmlns="http://www.w3.org/2000/svg" viewBox="-10 0 1130 1208"><path d="M-1 1208v-20h112v-83H-1v-19h112v-83H-1v-20h536V849q-34-22-64-49t-50-48.5Q401 730 396 725H224q-5 6-20.5 21T162 773.5Q136 786 102 787q-35 0-57-12t-34-30.5q-12-18.5-16.5-37T-10 678q0-50 18.5-86.5T68 555q21 0 43.5 12t44 30q21.5 18 38 35.5T218 660h242q6-9 18-15.5t32-7.5l55-4q7-44 8.5-55t1.5-15q0-26-8-56.5T548 443l-84 52q-37 24-73 30.5t-79-5.5q-19-5-34.5-17t-25-23.5Q243 468 243 467l217-162q-4-7-6.5-15.5T451 271v-50q0-9-1-20t-17-11q-10 0-15.5 5t-6.5 7h-18v-17q0-23 10-35.5t20-20.5l18-15q3-8 20.5-19.5T521 83q50 0 74.5 25.5T637 171l17 9L883 0q2 1 10 13t15.5 30q7.5 18 7.5 38 0 45-15.5 77.5T852 222l-85 78q11 15 21.5 30.5T810 360l156 249-81 51h230v65H709q8 13 17 34t9 40q0 35-22.5 61T633 886q-9 0-19-2t-20-5v104h526v20h-110v83h110v19h-110v83h110v20zm756-925l83-76q29-26 44-56.5T897 81q0-17-7-31.5T879 28l-42 33q3 6 7 18t4 26q0 25-14 48t-43 48l-59 53q6 7 11.5 14.5T755 283zm-35-44l58-52q50-44 50-82 0-10-2.5-18T821 74L672 190q1 1 3 2t3 1q10 10 20.5 21.5T720 239zM607 660h119v-10q-11-2-25-2.5t-23-.5v-83q11 2 21.5 8t16.5 11V477q27 0 46.5 13t31.5 29.5q12 16.5 18 26.5l58 104 74-47-150-236q-31-41-64.5-87T662 202q-2-1-16-8.5T620 179q-17-35-36-56.5T521 101q-41 0-52.5 8.5T457 121l-20 19q-8 7-16 15t-10 23q2-4 12-13t24-9q12 0 22 10 2 0 5-.5t3-3.5q0-3-1-4-6 0-11-4.5t-5-11.5q0-6 5-11t13-5h28q19 0 31.5 11t12.5 29q0 18-16.5 29.5T507 212q-2 1-6.5 1t-5.5-4h-5v7h-10q0-6-3.5-18T465 176q-8-10-23-10-5 0-8.5 3t-6.5 5q2 0 3.5-.5t2.5-.5q22 0 29.5 16t7.5 32v50q0 25 20.5 47t37.5 44q19 24 41.5 49.5T609 455q34 36 45 68.5t9 55.5l-5 68q-10 0-25 .5t-26 2.5zM487 195q0-1-.5-3t-.5-3q0-7 5-13t13-6q8 0 12.5 6t4.5 11q0 4-1 5 6-4 11-10.5t5-15.5q0-13-9.5-22t-23.5-9h-11q2 4 2 7 0 9-8 14 1 2 2 4.5t0 6.5q-1 5-11 7 7 10 10 21zm-10-46q6 0 6-7t-6-7q-8 0-8 7t8 7zm27 51q6 0 6-10 0-3-1.5-6.5T504 180q-8 0-8 10t8 10zM359 442q19 5 41.5-2t50.5-24l62-41-9-12q-7-11-16.5-21T470 322L330 427q5 3 12 7.5t17 7.5zm-42 59q38 11 71.5 4.5T455 479l86-55-7-21q-2-3-4.5-6.5T524 390l-62 42q-32 21-58 28.5t-50-.5q-14-4-24.5-10.5T314 438l-43 32q5 7 17.5 16.5T317 501zm268 132l18-1 13-74q7 1 15 4.5t15 7.5q1-18-9-44t-41-61q-7-7-15-16t-16-19q10 31 19.5 65t9.5 68q0 3-.5 8t-2.5 19q-2 14-6 43zm189 27h81l-60-109q-8-13-25-33t-37-20v118q-8-8-19.5-17T693 588v41q11 1 26.5 2.5T744 636q11 3 18 10.5t12 13.5zm-612 0h31q-14-16-35.5-35.5t-45-34.5Q89 575 68 575q-20 0-34 14 9-4 25-4 15 0 36 14t40 32q19 18 27 29zm457-28l25-3 3-38q-4-2-8-4.5t-11-4.5q-1 7-4 22.5t-5 27.5zM40 660h96q-9-10-23-23.5t-30-24Q67 602 53 602q-9 0-16.5 4T29 622q0 12 4 22t7 16zm62 107q34 0 58-14.5t37-27.5h-26q-7 9-22 18.5t-41 9.5q-25 0-44.5-17t-33-42.5Q17 668 12 643q-1 10-1.5 19.5T10 680q1 38 27.5 63t64.5 24zm434-107h4q3-3 6-6.5t8-5.5l-18 2zm-29 0h19v-9q-5 0-10 3t-9 6zm72 0h16v-9q-6 0-9.5 3t-6.5 6zm158 0h17q-4-3-8.5-4.5T737 652zm-256 0h11q1-2 4-4t5-4q-14 0-20 8zm71 0h12q1-2 3.5-4t5.5-4q-8 0-13 2.5t-8 5.5zM63 706h1033v-26H45q3 5 8.5 12.5T63 706zm584 126q22 2 39.5-2.5T704 815q0-11-13-27.5T657.5 754Q637 737 615 725h-21v84q29 20 53 23zm68-41q-4-19-14.5-39T686 725h-35q18 13 36 31.5t28 34.5zm-141 4v-70h-19v56q4 4 9 7.5t10 6.5zm-39-31v-39h-41q7 8 17.5 18.5T535 764zm98 102q48 0 68-23-11 5-26 7t-28 1q-23-1-51-16.5T541 798q-27-21-47.5-41T465 725h-36q15 15 38 38.5t50.5 47Q545 834 575 850t58 16zM108 733q20 0 33-8H81q11 8 27 8zm447 250h19V871q-5-2-10-4.5t-9-5.5zm-204 103h200v-83H351zm219 0h201v-83H570zm-439 0h200v-83H131zm659 0h200v-83H790zm-220 102h201v-83H570zm-219 0h200v-83H351zm-220 0h200v-83H131zm659 0h200v-83H790z" fill="currentColor"/></svg>