<svg xmlns="http://www.w3.org/2000/svg" viewBox="-10 0 1121 1193"><path d="M-10 1193v-20h113v-83H-10v-19h113v-83H-10v-20h536V834q-34-22-64-49t-50-48.5Q392 715 387 710H-10v-65h511v-83q-61-9-115.5-39T296 437q-35-56-38-142h34q23 82 65 125t101 59q5-3 12-5t18-3l41-3 7-47q0-3 .5-6.5t.5-6.5q0-29-9.5-60.5T508 289l-5-14-24-32q-14-18-29.5-41T434 155v-42q0-8-1-15.5T422 90q-8 0-12.5 4t-5.5 7h-18V83q0-20 8.5-29T412 39l14-14q3-5 19-15t50-10q41 0 63 20.5T594 71q3 2 14.5 8T629 89q18 18 39 44.5t42 55.5q21 29 40 52 25 31 45 52.5t30 34.5q4-7 7.5-15t6.5-18h28q0 34-6 66 11 11 22.5 21.5T902 398l-16 25q-8-6-20-14t-20-12l-5 10 27 40-85 52-4-5q-30 26-67.5 42.5T633 560v85h478v65H700q8 13 17 34t9 40q0 35-22.5 61T625 871q-10 0-20-2t-20-5v104h526v20h-110v83h110v19h-110v83h110v20zm575-703q24 0 46.5-2t44.5-7v-1l-18-2-13-1v-71q9 1 18.5 6t14.5 9v-88q25 0 43 11.5t28.5 26Q740 385 745 393l44 79 55-32-48-72q-42-23-93-50.5t-99-53Q556 239 522 221q-9-4-23.5-14T473 182q-11-15-11-34-1-19 24-37t64-20l1 16q-34 2-52.5 14.5T480 148q1 21 20 38t35 25q36 18 85 44t100 53.5q51 27.5 92 51.5 37 22 49 30.5t19 13.5l2-3q-24-18-51.5-45.5t-53.5-57Q751 269 733 246q-17-23-38-51t-42.5-54Q631 115 612 97q-1-1-12.5-7T578 79q-14-30-29.5-47.5T495 14q-34 0-43.5 7t-9.5 9l-16 16q-6 5-13 11.5T404 77q2-5 9-11.5t21-6.5q12 0 18 8 7 2 7-3 0-1-.5-2t-.5-2q-5 0-10-3.5t-5-9.5q0-15 18-15h22q16 0 27.5 10.5T522 67q0 15-13.5 25T484 106h-5l-5-4h-4v7h-11q0-8-5.5-24.5T431 68q-9 0-13 6h4q19 0 25 12.5t6 26.5v42q0 21 19 44.5t33 42.5q16 19 34 40.5t33 36.5q27 30 37 56.5t9 45.5l-4 56q-11 0-25.5 1t-23.5 2zM459 53q5 0 5-6t-5-6q-7 0-7 6t7 6zm8 38q0-2-.5-3t-.5-2q0-6 4.5-11t10.5-5q9 0 12 5t3 8q0 4-1 6 5-4 9-9t4-13q0-10-8-17.5T481 42h-10q2 1 2 6 0 7-7 11 5 3 2 9-1 2-4 3.5l-5 2.5q2 4 4.5 8.5T467 91zm14 5q5 0 5-9 0-8-5-8-7 0-7 8 0 9 7 9zm67 372l15-1 11-62q6 2 12.5 4.5T599 415v-5q1-11-7.5-32.5T557 328q-6-7-12.5-14.5T531 298q9 25 17 53.5t8 56.5v7l-1 7zm295-118q2-9 3-18l2-18-11 30zM563 547q53 0 107-16t99-57l-12-16q-11 13-41 25t-70.5 19.5Q605 510 563 510q-67 0-123-17.5T342.5 432Q301 389 278 314q4 69 32.5 114t71 71q42.5 26 90 37t91.5 11zm117-72q19-6 36.5-14.5T750 439l-22-41q-5-11-20-27.5T676 354v98q-8-7-19.5-15t-18.5-9v37q14 0 31 5 4 1 7 2t4 3zm151-82l2-3-6-4zm-254 73l20-1 2-34q-3-2-6.5-4t-8.5-3q-1 5-3 18t-4 24zm-65 23q2-6 11-11l-15 2v8q3 0 4 1zm-39-7h4l2-1q-2 0-3.5.5t-2.5.5zm71 8h13v-9q-5 0-8.5 3t-4.5 6zm-44-3v-6q-8 0-12 4zm30 3q1-2 4-4.5t4-4.5q-6 0-10.5 3t-6.5 5zm-9 155h92v-82q-24 3-50 3-11 0-21.5-.5T521 564zM9 691h1082v-26H9zm616 160q47 0 67-23-11 5-26 7t-28 1q-23-1-51-16.5T532.5 783q-26.5-21-47-41T457 710h-37q15 15 38 38.5t51 47q28 23.5 57.5 39.5t58.5 16zm-99-102v-39h-41q8 8 18 18.5t23 20.5zm40 31v-70h-20v56q10 8 20 14zm19 14q29 20 53 23 23 2 40-2.5t17-14.5q0-11-13-27.5T649 739q-20-17-43-29h-21zm121-18q-4-19-14.5-39T677 710h-35q18 13 35.5 31.5T706 776zM546 968h20V856q-5-2-10-4.5t-10-5.5zm235 103h201v-83H781zm-219 0h200v-83H562zm-220 0h200v-83H342zm-220 0h200v-83H122zm659 102h201v-83H781zm-219 0h200v-83H562zm-220 0h200v-83H342zm-220 0h200v-83H122z" fill="currentColor"/></svg>