<svg xmlns="http://www.w3.org/2000/svg" viewBox="-10 0 1130 1167"><path d="M962 610q-14-5-29-17.5T918 563q0-16 9.5-29t28.5-18V168q-23 19-39 48t-19 65h-18q-2-10-4.5-34t-2.5-50q0-26 6-42 8-22 21-42.5T924 75q9-15 18-33t9-42h14q10 11 15.5 35.5t4.5 54q-1 29.5-13 52.5 4 3 10.5 8t12 17q5.5 12 5.5 38v311q18 5 28 18t10 29q0 17-15.5 29.5T993 610l-11-11q5-3 11-11t6-19q0-8-7-13t-14-5q-8 0-14.5 5t-6.5 13q0 11 5.5 19t10.5 11zm-650 0q-14-5-29.5-17.5T267 563q0-16 10-29t28-18V168q-22 19-38 48t-19 65h-18q-2-10-4.5-34t-2.5-50q0-26 6-42 7-22 20.5-42.5T274 75q9-15 17.5-33T301 0h14q10 11 15.5 35.5t4 54Q333 119 321 142q4 3 11 8t12 17q5 12 5 38v311q19 5 28.5 18t9.5 29q0 17-15.5 29.5T342 610l-10-11q5-3 10.5-11t5.5-19q0-8-6.5-13t-14.5-5q-8 0-14.5 5t-6.5 13q0 11 6 19t11 11zm205 5q-18-1-33-10t-16-19v-24q13-10 43.5-19t52.5-15l17-5q10-2 28-12t33-24q15-14 15-31l-1-420h103l-4 427q0 16 2 31.5t4 29.5q2 13 3.5 22t1.5 27q0 19-15.5 30T712 614q-12 0-26-2.5t-27-4.5q-11-2-20.5-4t-14.5-2q-9 0-27.5 5t-32.5 9zm4-20h40l16-4 25-6q25-6 22-3 14 0 39 5 13 3 26 5t23 2q15 0 24.5-5.5T746 573q0-10-1.5-21.5T742 527q-2-14-4.5-30.5T736 463q0-38 .5-89.5T738 265q1-57 1.5-111.5T740 55h-65l2 401q0 23-17.5 41t-39 30Q599 539 587 542l-18 5q-19 5-44.5 12.5T487 572v10q1 5 11.5 9t22.5 4zm371-385h7q2-21 15.5-43t22.5-36q5-9 15-29.5T963 56h-7q-1 15-13 32.5T923 120q-12 21-21.5 46t-9.5 44zm-651 0h8q2-21 15.5-43t21.5-36q6-9 16-29.5T313 56h-8q-2 15-13 32.5T273 120q-13 21-22.5 46t-9.5 44zm708 381l2-3q-9-7-9-24 0-11 8.5-20t26.5-9q17 0 25.5 9t8.5 20q0 16-8 24l1 3q7-4 12-11t5-16q0-15-9-26t-29-12V195q0-14-4.5-19.5T972 173q-1 2 0 9t1 18v326q-21 1-31 12t-10 26q0 9 5.5 16t11.5 11zm-651 0l2-3q-8-6-8-24 0-11 8.5-20t25.5-9q18 0 26.5 9t8.5 20q0 17-9 24l2 3q6-4 11.5-11t5.5-16q0-15-10-26t-29-12V195q0-14-4.5-19.5T322 173q-1 2-.5 9t.5 18v326q-20 1-30 12t-10 26q0 9 5 16t11 11zM-1 1167v-20h112v-83H-1v-19h112v-83H-1v-20h536V808q-34-22-64-49t-50-48.5Q401 689 396 684H224q-5 6-20.5 21T162 732.5Q136 745 102 746q-35 0-57-12t-34-30.5q-12-18.5-16.5-37T-10 637q0-50 18.5-86.5T68 514q21 0 43.5 12t44 30q21.5 18 38 35.5T218 619h897v65H709q8 13 17 34t9 40q0 35-22.5 61T633 845q-9 0-19-2t-20-5v104h526v20h-110v83h110v19h-110v83h110v20zm163-548h31q-14-16-35.5-35.5t-45-34.5Q89 534 68 534q-20 0-34 14 9-4 25-4 15 0 36 14t40 32q19 18 27 29zm-122 0h96q-9-10-23-23.5t-30-24Q67 561 53 561q-9 0-16.5 4T29 581q0 12 4 22t7 16zm62 107q34 0 58-14.5t37-27.5h-26q-7 9-22 18.5t-41 9.5q-25 0-44.5-17t-33-42.5Q17 627 12 602q-1 10-1.5 19.5T10 639q1 38 27.5 63t64.5 24zm-39-61h1033v-26H45q3 5 8.5 12.5T63 665zm652 85q-4-19-14.5-39T686 684h-35q18 13 36 31.5t28 34.5zm-607-58q20 0 33-8H81q11 8 27 8zm539 99q22 2 39.5-2.5T704 774q0-11-13-27.5T657.5 713Q637 696 615 684h-21v84q29 20 53 23zm-73-37v-70h-19v56q4 4 9 7.5t10 6.5zm-39-31v-39h-41q7 8 17.5 18.5T535 723zm98 102q48 0 68-23-11 5-26 7t-28 1q-23-1-51-16.5T541 757q-27-21-47.5-41T465 684h-36q15 15 38 38.5t50.5 47Q545 793 575 809t58 16zm-78 117h19V830q-5-2-10-4.5t-9-5.5zm235 103h200v-83H790zm-439 0h200v-83H351zm-220 0h200v-83H131zm439 0h201v-83H570zm-219 102h200v-83H351zm439 0h200v-83H790zm-659 0h200v-83H131zm439 0h201v-83H570z" fill="currentColor"/></svg>