<svg xmlns="http://www.w3.org/2000/svg" viewBox="-10 0 1130 1212"><path d="M-1 1212v-20h112v-83H-1v-19h112v-83H-1v-20h536V853q-34-22-64-49t-50-48.5Q401 734 396 729H224q-5 6-20.5 21T162 777.5Q136 790 102 791q-35 0-57-12t-34-30.5q-12-18.5-16.5-37T-10 682q0-50 18.5-86.5T68 559q21 0 43.5 12t44 30q21.5 18 38 35.5T218 664h59l65-95V203H115q-42 0-68.5-14.5T20 143q0-18 10.5-30.5T58 100q22 0 30.5 10.5T99 131q23-1 43-6l36-9q14-4 26.5-7.5T229 105q25 0 34.5 13t11.5 28q2 16 11 23.5t18 13.5h38V80h20v489l65 95h70q14-20 56-23l62-5 10-64q2-10 2-17 0-40-13.5-82.5T587 393l-7-19q-8-11-16.5-22.5T547 330q-18-24-39.5-55.5T486 210v-57q0-10-2-23.5T464 116q-12 0-17.5 5t-7.5 9h-18v-17q0-26 12-39t23-21l19-19q4-8 22.5-21T562 0q38 0 61.5 12.5t39 34.5Q678 69 691 97q5 2 19.5 9.5T737 121q26 24 55.5 60t58.5 75q29 39 52 71 20 25 43 52.5t41 48q18 20.5 24 25.5t23.5 20.5q17.5 15.5 39.5 36t41 38.5l-24 23q-16-11-34-21t-43-25l56 82-89 57h134v65H709q8 13 17 34t9 40q0 35-22.5 61T633 890q-9 0-19-2t-20-5v104h526v20h-110v83h110v19h-110v83h110v20zm659-548h138v-11q-13-1-29.5-2.5T739 649v-91q14 3 29 9.5t24 11.5V459q30 0 51 14.5t33.5 32.5q12.5 18 19.5 30l67 119 85-53-64-96q-43-25-94.5-53T785 397q-53-28-101-53t-85-43q-13-6-32-20t-34.5-34.5Q517 226 517 202q0-27 33.5-51.5T638 123l1 17q-46 2-74.5 22T536 202q1 18 13.5 35t29.5 30q17 13 31 20 57 29 126 64.5T872.5 424q67.5 37 124 70t89.5 56l4-5q-6-5-19-16.5t-28.5-25Q1027 490 1014 479t-18-16q-5-5-23.5-26t-42-49.5Q907 359 887 334q-23-32-52-70t-58.5-73Q747 156 722 132q-2-2-17.5-10T675 106q-12-26-25.5-46T616 29q-20-11-54-11-45 0-57.5 9.5T491 40l-23 22q-8 8-17.5 17T440 105q2-5 13-15.5T480 79q7 0 14 3.5t11 8.5q2 1 5 .5t3-4.5v-5q-7 0-12.5-5T495 64q0-7 5.5-12.5T514 46h33q20 0 34.5 13T596 91q0 13-9.5 23.5t-21 18Q554 140 547 143q-2 1-7 1t-6-5h-6v9h-12q0-7-3.5-20.5T500 103q-9-11-25-11-5 0-9.5 3t-8.5 5h7q25 0 33.5 17.5T506 153v57q0 29 22 61t41 58q22 27 46.5 55.5T661 434q38 40 51 76.5t11 61.5l-5 77q-12 0-30 1.5l-30 2.5zM525 124q0-2-.5-4t-.5-3q0-21 20-21 10 0 14.5 7t4.5 12q0 3-2 7 7-5 13.5-13t6.5-18q0-14-11-24t-27-10h-13q3 3 3 8 0 10-9 15 5 5 2 13-2 7-12 7 3 5 6 11.5t5 12.5zm-12-52q9 0 9-8 0-7-9-7-8 0-8 7 0 8 8 8zm31 58q7 0 7-12 0-3-1.5-7t-5.5-4q-9 0-9 11 0 12 9 12zm-429 53h158q-14-12-18-34-1-9-6.5-16.5T229 125q-10 0-21.5 2.5T184 134q-18 5-43 11t-60 6q0-5-3.5-18T58 120q-9 0-13.5 6.5T40 143q0 20 21.5 30t53.5 10zm520 453l21-1 14-83q18 2 34 13v-8q1-14-10.5-44T647 445q-8-8-16.5-18.5T612 405q12 35 23 73.5t11 76.5v9.5l-1 9.5zm213 28h99l-67-123q-5-10-16-24t-25-25q-14-11-30-11v133q-11-9-26.5-19.5T757 582v50q12 1 29 2.5t28 4.5q13 4 21 11t13 14zm-175-30l29-2 3-46q-6-5-21-10-1 8-5 26t-6 32zm-511 30h31q-14-16-35.5-35.5t-45-34.5Q89 579 68 579q-20 0-34 14 9-4 25-4 15 0 36 14t40 32q19 18 27 29zm139 0h41v-60zm61 0h41l-41-60zm-322 0h96q-9-10-23-23.5t-30-24Q67 606 53 606q-9 0-16.5 4T29 626q0 12 4 22t7 16zm62 107q34 0 58-14.5t37-27.5h-26q-7 9-22 18.5t-41 9.5q-25 0-44.5-17t-33-42.5Q17 672 12 647q-1 10-1.5 19.5T10 684q1 38 27.5 63t64.5 24zm479-107h4q7-9 16-14l-20 3zm-33 0h21v-10q-6 0-11.5 3t-9.5 7zm81 0h18v-10q-7 0-11.5 3t-6.5 7zm-30 0h13q1-2 4-4.5t6-4.5q-9 0-14.5 3t-8.5 6zm-81 0h13l4.5-4.5 5.5-4.5q-9 0-14 3t-9 6zm289 0h18q-10-7-17-9h-1zM63 710h1033v-26H45q3 5 8.5 12.5T63 710zm511 89v-70h-19v56q4 4 9 7.5t10 6.5zm-466-62q20 0 33-8H81q11 8 27 8zm525 133q48 0 68-23-11 5-26 7t-28 1q-23-1-51-16.5T541 802q-27-21-47.5-41T465 729h-36q15 15 38 38.5t50.5 47Q545 838 575 854t58 16zm-98-102v-39h-41q7 8 17.5 18.5T535 768zm112 68q22 2 39.5-2.5T704 819q0-11-13-27.5T657.5 758Q637 741 615 729h-21v84q29 20 53 23zm68-41q-4-19-14.5-39T686 729h-35q18 13 36 31.5t28 34.5zM555 987h19V875q-5-2-10-4.5t-9-5.5zm-204 103h200v-83H351zm-220 0h200v-83H131zm439 0h201v-83H570zm220 0h200v-83H790zm-439 102h200v-83H351zm219 0h201v-83H570zm-439 0h200v-83H131zm659 0h200v-83H790z" fill="currentColor"/></svg>