<svg xmlns="http://www.w3.org/2000/svg" viewBox="-10 0 1130 1177"><path d="M557 587V273q0-26 10.5-53t41-50q30.5-23 89.5-35V0h225v135q60 12 90.5 35t41 50q10.5 27 10.5 53v314h-20V273q0-22-9-45t-35-42q-26-19-78-30v431h-19V19h-84v568h-19V19h-84v568h-19V156q-51 11-77.5 30T585 228q-9 23-9 45v314zm-267 28l15-34q4-10 7-20t3-17q0-22-9-34.5T287 486l-78-77 74-324q4-19 10-37t18.5-30Q324 6 349 6q24 0 37 12t19 30q6 18 10 37l74 324-78 77q-10 11-19.5 23.5T382 544q0 7 3.5 17t7.5 20l14 34zm29-20h59l-4-8q-5-10-8-20.5t-3-22.5q0-28 10.5-43.5T397 472l70-69-72-314q-4-22-13-43t-33-21q-25 0-33.5 21T302 89l-72 314 70 69q13 13 24 28.5t11 43.5q0 12-3.5 22.5T323 587zM-1 1177v-20h112v-83H-1v-19h112v-83H-1v-20h536V818q-34-22-64-49t-50-48.5Q401 699 396 694H224q-5 6-20.5 21T162 742.5Q136 755 102 756q-35 0-57-12t-34-30.5q-12-18.5-16.5-37T-10 647q0-50 18.5-86.5T68 524q21 0 43.5 12t44 30q21.5 18 38 35.5T218 629h897v65H709q8 13 17 34t9 40q0 35-22.5 61T633 855q-9 0-19-2t-20-5v104h526v20h-110v83h110v19h-110v83h110v20zm163-548h31q-14-16-35.5-35.5t-45-34.5Q89 544 68 544q-20 0-34 14 9-4 25-4 15 0 36 14t40 32q19 18 27 29zm-122 0h96q-9-10-23-23.5t-30-24Q67 571 53 571q-9 0-16.5 4T29 591q0 12 4 22t7 16zm62 107q34 0 58-14.5t37-27.5h-26q-7 9-22 18.5t-41 9.5q-25 0-44.5-17t-33-42.5Q17 637 12 612q-1 10-1.5 19.5T10 649q1 38 27.5 63t64.5 24zm-39-61h1033v-26H45q3 5 8.5 12.5T63 675zm45 27q20 0 33-8H81q11 8 27 8zm525 133q48 0 68-23-11 5-26 7t-28 1q-23-1-51-16.5T541 767q-27-21-47.5-41T465 694h-36q15 15 38 38.5t50.5 47Q545 803 575 819t58 16zm-98-102v-39h-41q7 8 17.5 18.5T535 733zm39 31v-70h-19v56q4 4 9 7.5t10 6.5zm141-4q-4-19-14.5-39T686 694h-35q18 13 36 31.5t28 34.5zm-68 41q22 2 39.5-2.5T704 784q0-11-13-27.5T657.5 723Q637 706 615 694h-21v84q29 20 53 23zm-92 151h19V840q-5-2-10-4.5t-9-5.5zm235 103h200v-83H790zm-220 0h201v-83H570zm-439 0h200v-83H131zm220 0h200v-83H351zm439 102h200v-83H790zm-439 0h200v-83H351zm-220 0h200v-83H131zm439 0h201v-83H570z" fill="currentColor"/></svg>