<svg xmlns="http://www.w3.org/2000/svg" viewBox="-10 0 1130 1175"><path d="M870 618q-35 0-49.5-24.5T802 529q0-12-2.5-31T784 472q-12-4-55-14-33-7-77.5-18.5t-95.5-29Q505 393 455 366t-94-65q-33-29-62-69t-52.5-80Q223 112 207 80t-22-46l32-34 630 372q18 11 38 28t33.5 44q13.5 27 13.5 69 0 52-13.5 78.5T870 618zm0-19q24 0 33.5-21.5T913 513q0-36-12-60t-30-39q-18-15-34-25L222 24l-14 14q8 17 23.5 47t37 66.5q21.5 36.5 48.5 72t57 62.5q41 36 89.5 61.5t97.5 43q49 17.5 94 29t78 19.5q19 4 34.5 8t24.5 8q19 10 24.5 31t5.5 41q3 31 13.5 51.5T870 599zM-1 1175v-20h112v-83H-1v-19h112v-83H-1v-20h536V816q-34-22-64-49t-50-48.5Q401 697 396 692H224q-5 6-20.5 21T162 740.5Q136 753 102 754q-35 0-57-12t-34-30.5q-12-18.5-16.5-37T-10 645q0-50 18.5-86.5T68 522q21 0 43.5 12t44 30q21.5 18 38 35.5T218 627h897v65H709q8 13 17 34t9 40q0 35-22.5 61T633 853q-9 0-19-2t-20-5v104h526v20h-110v83h110v19h-110v83h110v20zm163-548h31q-14-16-35.5-35.5t-45-34.5Q89 542 68 542q-20 0-34 14 9-4 25-4 15 0 36 14t40 32q19 18 27 29zm-122 0h96q-9-10-23-23.5t-30-24Q67 569 53 569q-9 0-16.5 4T29 589q0 12 4 22t7 16zm62 107q34 0 58-14.5t37-27.5h-26q-7 9-22 18.5t-41 9.5q-25 0-44.5-17t-33-42.5Q17 635 12 610q-1 10-1.5 19.5T10 647q1 38 27.5 63t64.5 24zm-39-61h1033v-26H45q3 5 8.5 12.5T63 673zm652 85q-4-19-14.5-39T686 692h-35q18 13 36 31.5t28 34.5zm-607-58q20 0 33-8H81q11 8 27 8zm539 99q22 2 39.5-2.5T704 782q0-11-13-27.5T657.5 721Q637 704 615 692h-21v84q29 20 53 23zm-73-37v-70h-19v56q4 4 9 7.5t10 6.5zm-39-31v-39h-41q7 8 17.5 18.5T535 731zm98 102q48 0 68-23-11 5-26 7t-28 1q-23-1-51-16.5T541 765q-27-21-47.5-41T465 692h-36q15 15 38 38.5t50.5 47Q545 801 575 817t58 16zm-78 117h19V838q-5-2-10-4.5t-9-5.5zm15 103h201v-83H570zm220 0h200v-83H790zm-439 0h200v-83H351zm-220 0h200v-83H131zm659 102h200v-83H790zm-220 0h201v-83H570zm-219 0h200v-83H351zm-220 0h200v-83H131z" fill="currentColor"/></svg>