<svg xmlns="http://www.w3.org/2000/svg" viewBox="-10 0 1130 1130"><path d="M613 554q-48-54-91-110.5t-69.5-117Q426 266 426 198q-1-68 8-113t24-85h35l213 280-24 32q-14-8-30.5-14t-29.5-6q-8 0-15 5t-7 18q0 11 6 36t15.5 56q9.5 31 19.5 61t18 51zm2-27l20-14q-8-21-17-50t-17.5-59q-8.5-30-14-54t-5.5-35q0-24 13-33t28-9q11 0 25.5 3.5T676 288l5-7q-8-10-29-38t-49.5-66.5q-28.5-38.5-60-80T484 19h-13q-12 35-19.5 76T445 198q0 63 24 119.5T532 426q39 52 83 101zM-1 1130v-20h112v-83H-1v-19h112v-83H-1v-20h536V771q-34-22-64-49t-50-48.5Q401 652 396 647H224q-5 6-20.5 21T162 695.5Q136 708 102 709q-35 0-57-12t-34-30.5q-12-18.5-16.5-37T-10 600q0-50 18.5-86.5T68 477q21 0 43.5 12t44 30q21.5 18 38 35.5T218 582h897v65H709q8 13 17 34t9 40q0 35-22.5 61T633 808q-9 0-19-2t-20-5v104h526v20h-110v83h110v19h-110v83h110v20zm163-548h31q-14-16-35.5-35.5t-45-34.5Q89 497 68 497q-20 0-34 14 9-4 25-4 15 0 36 14t40 32q19 18 27 29zm-122 0h96q-9-10-23-23.5t-30-24Q67 524 53 524q-9 0-16.5 4T29 544q0 12 4 22t7 16zm62 107q34 0 58-14.5t37-27.5h-26q-7 9-22 18.5t-41 9.5q-25 0-44.5-17t-33-42.5Q17 590 12 565q-1 10-1.5 19.5T10 602q1 38 27.5 63t64.5 24zm-39-61h1033v-26H45q3 5 8.5 12.5T63 628zm45 27q20 0 33-8H81q11 8 27 8zm607 58q-4-19-14.5-39T686 647h-35q18 13 36 31.5t28 34.5zm-68 41q22 2 39.5-2.5T704 737q0-11-13-27.5T657.5 676Q637 659 615 647h-21v84q29 20 53 23zm-73-37v-70h-19v56q4 4 9 7.5t10 6.5zm-39-31v-39h-41q7 8 17.5 18.5T535 686zm98 102q48 0 68-23-11 5-26 7t-28 1q-23-1-51-16.5T541 720q-27-21-47.5-41T465 647h-36q15 15 38 38.5t50.5 47Q545 756 575 772t58 16zm-78 117h19V793q-5-2-10-4.5t-9-5.5zm15 103h201v-83H570zm220 0h200v-83H790zm-439 0h200v-83H351zm-220 0h200v-83H131zm659 102h200v-83H790zm-220 0h201v-83H570zm-439 0h200v-83H131zm220 0h200v-83H351z" fill="currentColor"/></svg>