<svg xmlns="http://www.w3.org/2000/svg" viewBox="-10 0 1130 1168"><path d="M606 322V85q0-37 14.5-61T663 0q16 0 26.5 9.5T700 35q0 13-6.5 21T679 70q-3 3-6 5.5t-3 3.5q0 6 7 25 4 16 9.5 37t5.5 41q0 30-22.5 44T626 245v77zm-112 0v-77q-22-5-44.5-19T427 182q0-20 5-41t10-37q7-19 7-25 0-1-3-3.5t-6-5.5q-7-6-14-14t-7-21q0-16 10.5-25.5T457 0q28 0 42 24t14 61v237zm132-98q21-4 33.5-16t12.5-26q0-18-4.5-37t-9.5-35q-3-9-5-17.5T651 79q0-7 4.5-13T667 56l9-9 5-12q0-15-18-15-19 0-28 18t-9 47zm-132 0V85q0-29-9-47t-28-18q-18 0-18 15 0 7 4.5 12t9.5 9q6 4 10.5 10t4.5 13q0 5-2 13.5t-5 17.5q-4 16-9 35t-5 37q0 14 12.5 26t34.5 16zm66 391q-39 0-70.5-18.5T439 546q-19-32-19-71t19-70.5q19-31.5 50.5-50T560 336q39 0 70.5 18.5t50 50Q699 436 699 475t-18.5 71q-18.5 32-50 50.5T560 615zm0-19q33 0 60-16.5t43.5-43.5q16.5-27 16.5-61 0-33-16.5-60T620 371.5Q593 355 560 355t-60.5 16.5Q472 388 456 415t-16 60q0 34 16 61t43.5 43.5Q527 596 560 596zm20-44V397h19v155zm-60 0V397h20v155zM-1 1168v-20h112v-83H-1v-19h112v-83H-1v-20h536V809q-34-22-64-49t-50-48.5Q401 690 396 685H224q-5 6-20.5 21T162 733.5Q136 746 102 747q-35 0-57-12t-34-30.5q-12-18.5-16.5-37T-10 638q0-50 18.5-86.5T68 515q21 0 43.5 12t44 30q21.5 18 38 35.5T218 620h897v65H709q8 13 17 34t9 40q0 35-22.5 61T633 846q-9 0-19-2t-20-5v104h526v20h-110v83h110v19h-110v83h110v20zm163-548h31q-14-16-35.5-35.5t-45-34.5Q89 535 68 535q-20 0-34 14 9-4 25-4 15 0 36 14t40 32q19 18 27 29zm-122 0h96q-9-10-23-23.5t-30-24Q67 562 53 562q-9 0-16.5 4T29 582q0 12 4 22t7 16zm62 107q34 0 58-14.5t37-27.5h-26q-7 9-22 18.5t-41 9.5q-25 0-44.5-17t-33-42.5Q17 628 12 603q-1 10-1.5 19.5T10 640q1 38 27.5 63t64.5 24zm-39-61h1033v-26H45q3 5 8.5 12.5T63 666zm45 27q20 0 33-8H81q11 8 27 8zm525 133q48 0 68-23-11 5-26 7t-28 1q-23-1-51-16.5T541 758q-27-21-47.5-41T465 685h-36q15 15 38 38.5t50.5 47Q545 794 575 810t58 16zm-98-102v-39h-41q7 8 17.5 18.5T535 724zm39 31v-70h-19v56q4 4 9 7.5t10 6.5zm73 37q22 2 39.5-2.5T704 775q0-11-13-27.5T657.5 714Q637 697 615 685h-21v84q29 20 53 23zm68-41q-4-19-14.5-39T686 685h-35q18 13 36 31.5t28 34.5zM555 943h19V831q-5-2-10-4.5t-9-5.5zm235 103h200v-83H790zm-220 0h201v-83H570zm-439 0h200v-83H131zm220 0h200v-83H351zm439 102h200v-83H790zm-439 0h200v-83H351zm-220 0h200v-83H131zm439 0h201v-83H570z" fill="currentColor"/></svg>