<svg xmlns="http://www.w3.org/2000/svg" viewBox="-10 0 1130 1167"><path d="M543 610q-13-5-26.5-17.5T503 563q0-16 10-29t28-18V168q-22 19-38 48t-20 65h-18q-2-10-4-34t-2-50q0-26 5-42 7-22 21-42.5T509 75q10-15 18.5-33T537 0h13q9 11 13 30.5t4 40.5q0 21-1 34h6q7-17 20-36.5T621 35q16-14 33-14 23 0 29.5 12t6.5 20q0 18-10.5 29.5t-25 21q-14.5 9.5-27.5 24T609 166q10 7 25.5 20t27 32q11.5 19 11.5 42 0 32-19.5 47T612 322q-9 0-21-3t-16-6v203q19 5 28.5 18t9.5 29q0 17-13.5 29.5T573 610l-10-11q4-3 7.5-11t3.5-19q0-18-16-18t-16 18q0 11 4 19t8 11zM656 64q10 0 10-10t-10-10q-9 0-9 10t9 10zM477 210h7q3-21 16.5-43t21.5-36q5-9 15.5-29.5T548 56h-7q-2 15-13 32.5T508 120q-12 21-21.5 46t-9.5 44zm116-52q4-25 20-47.5T649 78q-6 1-12-1t-8-6q-16 16-29 41t-15 41zm16 130q8 0 15.5-9t7.5-28q0-15-10-30.5T600.5 194Q589 183 585 180v80q0 12 5.5 20t18.5 8zM-1 1167v-20h112v-83H-1v-19h112v-83H-1v-20h536V808q-34-22-64-49t-50-48.5Q401 689 396 684H224q-5 6-20.5 21T162 732.5Q136 745 102 746q-35 0-57-12t-34-30.5q-12-18.5-16.5-37T-10 637q0-50 18.5-86.5T68 514q21 0 43.5 12t44 30q21.5 18 38 35.5T218 619h897v65H709q8 13 17 34t9 40q0 35-22.5 61T633 845q-9 0-19-2t-20-5v104h526v20h-110v83h110v19h-110v83h110v20zm163-548h31q-14-16-35.5-35.5t-45-34.5Q89 534 68 534q-20 0-34 14 9-4 25-4 15 0 36 14t40 32q19 18 27 29zm-122 0h96q-9-10-23-23.5t-30-24Q67 561 53 561q-9 0-16.5 4T29 581q0 12 4 22t7 16zm62 107q34 0 58-14.5t37-27.5h-26q-7 9-22 18.5t-41 9.5q-25 0-44.5-17t-33-42.5Q17 627 12 602q-1 10-1.5 19.5T10 639q1 38 27.5 63t64.5 24zm-39-61h1033v-26H45q3 5 8.5 12.5T63 665zm584 126q22 2 39.5-2.5T704 774q0-11-13-27.5T657.5 713Q637 696 615 684h-21v84q29 20 53 23zm-539-99q20 0 33-8H81q11 8 27 8zm607 58q-4-19-14.5-39T686 684h-35q18 13 36 31.5t28 34.5zm-141 4v-70h-19v56q4 4 9 7.5t10 6.5zm-39-31v-39h-41q7 8 17.5 18.5T535 723zm98 102q48 0 68-23-11 5-26 7t-28 1q-23-1-51-16.5T541 757q-27-21-47.5-41T465 684h-36q15 15 38 38.5t50.5 47Q545 793 575 809t58 16zm-78 117h19V830q-5-2-10-4.5t-9-5.5zm235 103h200v-83H790zm-439 0h200v-83H351zm219 0h201v-83H570zm-439 0h200v-83H131zm659 102h200v-83H790zm-439 0h200v-83H351zm-220 0h200v-83H131zm439 0h201v-83H570z" fill="currentColor"/></svg>