<svg xmlns="http://www.w3.org/2000/svg" viewBox="-10 0 1130 1050"><path d="M-1 1050v-20h112v-83H-1v-19h112v-83H-1v-20h536V691q-34-22-64-49t-50-48.5Q401 572 396 567H224q-5 6-20.5 21T162 615.5Q136 628 102 629q-35 0-57-12t-34-30.5q-12-18.5-16.5-37T-10 520q0-50 18.5-86.5T68 397q21 0 43.5 12t44 30q21.5 18 38 35.5T218 502h66q1 0 5-10t31-11l7-45q0-3 .5-6.5t.5-7.5q0-30-10.5-63T298 298l-5-14-25-34q-13-18-29-38.5T223 165v-59.5L212 97q-13 0-15.5 4t-3.5 6h-19V88q0-20 9-30.5T200 40l18-14q2-6 17-16t49-10q43 0 65.5 24T387 79q3 2 14 8.5T421 98q28 28 63 70t61 80q3 4 14.5 18t25 30.5q13.5 16.5 25 30T625 344q4 4 17.5 16t29.5 28q16 16 30 29l-23 18-54-33 38 56-66 44h96q1 0 5-10t31-11l7-45q0-3 .5-6.5t.5-7.5q0-30-10.5-63T707 298l-5-14-25-34q-14-18-29.5-38.5T632 165v-42q0-9-.5-17.5T621 97q-14 0-16 4l-3 6h-18V88q0-20 8.5-30.5T609 40l19-14q1-6 16-16t49-10q44 0 66 24t37 55q3 2 14 8.5T830 98q29 28 62 68.5t62 81.5q1 1 12.5 15t30 35.5Q1015 320 1034 344q5 4 18 16t29 28q16 16 30 29l-23 18-54-33 38 56-66 44h109v65H709q8 13 17 34t9 40q0 35-22.5 61T633 728q-9 0-19-2t-20-5v104h526v20h-110v83h110v19h-110v83h110v20zm361-548h95v-8q-10-1-20.5-2t-17.5-1v-66q10 1 20 5.5t16 8.5v-91q26 0 43.5 11.5t27.5 26q10 14.5 15 22.5l47 80 55-36-43-61-285-163-20-12-28.5-23.5Q236 169 251 160q0-25 25-41.5T341 99v18q-39 3-54.5 15T271 160q0 21 20.5 35t35.5 22l351 200 2-2q-5-5-20.5-18.5l-31-27L608 352q-4-4-17.5-20.5t-31-38Q542 272 527 253q-26-35-60.5-77.5T404 105q-1-1-13-7t-22-12q-14-30-30.5-49T284 18q-34 0-42.5 8T232 36l-19 16q-6 6-13 12t-7 21q2-3 8.5-11.5T222 65q6 0 11 3t9 6q6 3 6-3v-4q-5 0-10-3t-5-10q0-8 5-12.5t11-4.5h21q21 0 31.5 10T312 72q0 15-13.5 26T275 114q-2 1-6 1.5t-5-4.5h-4v8h-11q0-9-5.5-25.5T220 77q-8 0-13 5h5q19 0 25 13t6 28v42q0 23 16.5 43.5T290 249q17 20 35 41.5t34 37.5q28 31 39 60t9 48l-3 55q-8 0-21 1t-23 2zm410 0h94v-8q-10-1-20.5-2t-17.5-1v-66q10 1 20 5.5t16 8.5v-91q27 0 44 11.5t27 26q10 14.5 15 22.5l47 80 55-36-43-61-285-163-20-12-28.5-23.5Q645 169 660 160q0-25 25.5-41.5T751 99v18q-40 3-55.5 15T680 160q0 21 20.5 35t35.5 22l351 200 2-2q-5-5-20.5-18.5t-30.5-27q-15-13.5-20-17.5t-18.5-20.5q-13.5-16.5-31-38T936 253q-26-35-60.5-77.5T813 105q-2-1-13-7l-22-12q-14-30-30.5-49T693 18q-33 0-42 8t-10 10l-19 16q-6 6-12.5 12T603 85q2-3 8-11.5t20-8.5q6 0 11.5 3t8.5 6q6 3 6-3v-4q-5 0-9.5-3T643 54q0-17 15-17h21q21 0 31.5 10T721 72q0 15-13.5 26T684 114q-2 1-6 1.5t-5-4.5h-4v8h-11q0-9-5.5-25.5T629 77q-8 0-13 5h5q19 0 25 13t6 28v42q0 23 16.5 43.5T699 249q16 20 35 41.5t34 37.5q28 31 38.5 60t9.5 48l-2 55q-9 0-22 1t-22 2zM657 60q7 0 7-6t-7-6q-6 0-6 6t6 6zm-409 0q7 0 7-6t-7-6q-6 0-6 6t6 6zm9 40v-5q0-17 14-17 7 0 10.5 5t3.5 10q0 1-.5 2.5T284 98q5-4 10-11t5-15q0-10-8.5-16.5T270 49h-8q1 1 1 6 0 6-5 11l2 4-1 6q-2 6-10 6 4 8 8 18zm410 0q0-1-.5-2.5T666 95q0-17 14-17 7 0 10.5 5t3.5 10q0 1-.5 2.5T693 98q5-4 10-11t5-15q0-10-8.5-16.5T679 49h-8q1 1 1 6 0 6-5 11l2 4v6q-2 6-11 6l4.5 9zm-396 4q5 0 5-9 0-2-1-5t-4-3q-7 0-7 8 0 9 7 9zm409 0q6 0 6-9 0-2-1.5-5t-4.5-3q-7 0-7 8 0 9 7 9zm68 377l16-1 11-60q12 2 22 10l1-6q1-10-7-33t-35-51q-6-7-11.5-13T732 313q8 27 16.5 53.5T757 422q0 4-.5 7.5T755 437zm-409 0l16-1 11-60q10 1 22 10l1-6q1-10-7-33t-35-51q-6-7-12-13t-13-14q9 27 17.5 53.5T348 422q0 4-.5 7.5T346 437zm571 21h72l-51-90q-10-18-25.5-32T879 366v102q-8-7-19-14t-19-8v32q8 0 20.5 1.5T882 483q10 3 16.5 9t11.5 10zm-409 0h71l-50-90q-11-18-26-32t-26-14v102q-8-7-19.5-14t-18.5-8v32q8 0 20.5 1.5T473 483q9 3 16.5 9t11.5 10zm-339 0h31q-14-16-35.5-35.5t-45-34.5Q89 417 68 417q-20 0-34 14 9-4 25-4 15 0 36 14t40 32q19 18 27 29zm208-23l19-1 2-32q-2-1-6-3.5t-7-4.5zm409 0l19-1 2-32q-2-1-6-3.5t-7-4.5zM40 502h96q-9-10-23-23.5t-30-24Q67 444 53 444q-9 0-16.5 4T29 464q0 12 4 22t7 16zm62 107q34 0 58-14.5t37-27.5h-26q-7 9-22 18.5t-41 9.5q-25 0-44.5-17t-33-42.5Q17 510 12 485q-1 10-1.5 19.5T10 522q1 38 27.5 63t64.5 24zm195-107h7q1-2 4-5t5-4q-14 0-16 9zm409 0h7q2-2 4.5-5t4.5-4q-14 0-16 9zm-372 0h14v-7q-9 0-14 7zm409 0h14v-7q-9 0-14 7zm134 0h13q-3-2-6-3t-7-3zm-409 0h13q-3-2-6-3t-7-3zm254 0h9q4-4 7-6-6 0-10 2t-6 4zm-409 0h8q2-2 8-6-6 0-10 2t-6 4zM63 548h1033v-26H45q3 5 8.5 12.5T63 548zm511 89v-70h-19v56q4 4 9 7.5t10 6.5zm59 71q48 0 68-23-11 5-26 7t-28 1q-23-1-51-16.5T541 640q-27-21-47.5-41T465 567h-36q15 15 38 38.5t50.5 47Q545 676 575 692t58 16zm-98-102v-39h-41q7 8 17.5 18.5T535 606zm180 27q-4-19-14.5-39T686 567h-35q18 13 36 31.5t28 34.5zm-68 41q22 2 39.5-2.5T704 657q0-11-13-27.5T657.5 596Q637 579 615 567h-21v84q29 20 53 23zm-539-99q20 0 33-8H81q11 8 27 8zm447 250h19V713q-5-2-10-4.5t-9-5.5zM351 928h200v-83H351zm439 0h200v-83H790zm-659 0h200v-83H131zm439 0h201v-83H570zm-439 102h200v-83H131zm220 0h200v-83H351zm219 0h201v-83H570zm220 0h200v-83H790z" fill="currentColor"/></svg>