<svg xmlns="http://www.w3.org/2000/svg" viewBox="-10 0 1130 1057"><path d="M566 505l-2-17 6-6-26 3-1-12 22-8-24-1v-10l14-5-14 1v-3q-13 2-30 2h-24q-16-2-40.5-7T398 429l-1 13q3 16 4.5 21.5t1.5 9.5q0 8-3 16t-8 8q-12 0-25.5-3t-27.5-3q-10 0-32.5 3.5T266 501l-2-17 8-6-28 3v-12l21-5-23-2v-11l21-5-18-3 1-11 70-5q-1-4-1-10.5V404q-38-19-67.5-37T182 331q-15-7-36-16.5T106 297q-19-8-29-13-11-5-14-21t3-27l-2-1q4-11 16-25t18-14q5 0 19.5 4t26.5 8l23 8q21 4 45 .5t52-2.5l74-165q7-14 20-31.5T396 0q21 0 30.5 11t9.5 24q0 20-13.5 30.5T390 75q-1 12-2 36t-3 51q-2 27-3 49h-96l-3 5q16 5 32 16t40 24q24 13 60 20 28 6 56 8t50 2q17 0 34.5-1t34.5 0q20 2 53.5 11.5t72 24q38.5 14.5 75 28.5t64 25q27.5 11 37.5 14 17 6 48.5 15t71 19q39.5 10 80.5 19l-6 44q-112-15-203.5-26.5T696 443v3q4 16 5 22t1 10q0 7-3 15t-8 8q-12 0-26-3t-27-3q-10 0-32.5 3.5T566 505zM295 191h68l9-138q18 3 31.5-1.5T417 35q0-5-5-10t-16-5q-17 0-26 13.5T356 57zm291 291q12-1 27.5-3.5T638 476q4 0 15.5 2t21.5 4q7 0 7-7 0-2-3-14.5t-3-14.5q0-19 6.5-38t16.5-29l18 4q-10 12-14 22t-6 19q66 3 124 8.5t119 14q61 8.5 135 18.5l2-10q-46-10-99.5-23T889 408q-11-4-38.5-15t-64-25q-36.5-14-75-28t-71-23.5Q608 307 589 305q-16-2-32.5-.5T521 306q-24 0-51.5-2.5T412 296q-42-9-67.5-23T303 247q-16-12-30-13-28-3-55.5 1.5t-53.5.5l-24-9q-12-4-22.5-8t-13.5-4q-5 0-11.5 6T84 233l7 5 7 12 11-3 8 12 16-3 10 15 19-5 7 14q4 0 9.5-1t8.5-1l7 14 12-1 58 33-3 3-57-24-16 1-8-14q-5 0-10 1t-8 1l-7-12-8 2-7 2-12-16-18 4-6-11-11 3-9-15h-2q-2 13 6 17 17 8 38 17.5t37.5 17.5q16.5 8 22.5 11 32 17 66.5 36t63.5 35l2-12 3-12 19 3q-3 11-4 21t-1 21v16.5l2 21.5-60 2 4 5-8 5 9 5-6 7h10l1 12q11-2 27-4.5t25-2.5q3 0 15 2.5t22 4.5q7 0 7-8 0-1-2.5-13.5T377 442q2-13 5-33.5t13-41.5l18 5q-9 22-13 39 25 7 48.5 12.5T487 429h31l23-1v-2q9-1 20-3t27-2q13 0 27 2-1-7-1-15 1-11 6-23.5t13-22.5l15 9q-6 8-10 17t-4 20q-1 7 0 14.5t2 19.5q-10-1-23-2t-20-1q-19 0-26 4l12 3-7 9 10 4-7 11h11zM103 239l-10-6q3-5 7.5-7t8.5-2q11 0 16 7l-8 8q-3-3-8-3-4 0-6 3zm166 40q0-3-2-7-2 5-11 5-7 0-10.5-5t-3.5-11l-3 3-8-7q2-4 7.5-7.5T252 246q18 0 21.5 14.5T277 279zm-14-13q5 0 5-3-3-5-9-5 0 8 4 8zM-1 1057v-20h112v-83H-1v-19h112v-83H-1v-20h536V698q-34-22-64-49t-50-48.5Q401 579 396 574H224q-5 6-20.5 21T162 622.5Q136 635 102 636q-35 0-57-12t-34-30.5q-12-18.5-16.5-37T-10 527q0-50 18.5-86.5T68 404q21 0 43.5 12t44 30q21.5 18 38 35.5T218 509h897v65H709q8 13 17 34t9 40q0 35-22.5 61T633 735q-9 0-19-2t-20-5v104h526v20h-110v83h110v19h-110v83h110v20zm163-548h31q-14-16-35.5-35.5t-45-34.5Q89 424 68 424q-20 0-34 14 9-4 25-4 15 0 36 14t40 32q19 18 27 29zm-122 0h96q-9-10-23-23.5t-30-24Q67 451 53 451q-9 0-16.5 4T29 471q0 12 4 22t7 16zm62 107q34 0 58-14.5t37-27.5h-26q-7 9-22 18.5t-41 9.5q-25 0-44.5-17t-33-42.5Q17 517 12 492q-1 10-1.5 19.5T10 529q1 38 27.5 63t64.5 24zm-39-61h1033v-26H45q3 5 8.5 12.5T63 555zm652 85q-4-19-14.5-39T686 574h-35q18 13 36 31.5t28 34.5zm-82 75q48 0 68-23-11 5-26 7t-28 1q-23-1-51-16.5T541 647q-27-21-47.5-41T465 574h-36q15 15 38 38.5t50.5 47Q545 683 575 699t58 16zm14-34q22 2 39.5-2.5T704 664q0-11-13-27.5T657.5 603Q637 586 615 574h-21v84q29 20 53 23zm-112-68v-39h-41q7 8 17.5 18.5T535 613zm-427-31q20 0 33-8H81q11 8 27 8zm466 62v-70h-19v56q4 4 9 7.5t10 6.5zm-19 188h19V720q-5-2-10-4.5t-9-5.5zM131 935h200v-83H131zm659 0h200v-83H790zm-439 0h200v-83H351zm219 0h201v-83H570zm-439 102h200v-83H131zm220 0h200v-83H351zm439 0h200v-83H790zm-220 0h201v-83H570z" fill="currentColor"/></svg>