<svg xmlns="http://www.w3.org/2000/svg" viewBox="-10 0 1130 1210"><path d="M-1 1210v-20h112v-83H-1v-19h112v-83H-1v-20h536V851q-34-22-64-49t-50-48.5Q401 732 396 727H224q-5 6-20.5 21T162 775.5Q136 788 102 789q-35 0-57-12t-34-30.5q-12-18.5-16.5-37T-10 680q0-50 18.5-86.5T68 557q21 0 43.5 12t44 30q21.5 18 38 35.5T218 662h303l14-270q-20-16-38.5-47T474 283q-8 2-14 2-14 0-27-13t-13-30q0-10 7.5-19t26.5-9q6 0 12.5 2.5T477 222l7-7 10-8-70-75q-17-18-26-36t-9-41q0-25 17-40t38-15q19 0 30 7t16 16l-2-11h144l-2 11q5-9 16-16t30-7q22 0 38.5 15T731 55q0 23-9 41t-26 36l-69 75q6 4 10.5 8t8.5 7q10-8 22-8 19 0 26.5 9t7.5 19q0 17-12.5 30T662 285q-6 0-14-2-4 31-22.5 62.5T586 393l14 269h515v65H709q8 13 17 34t9 40q0 35-22.5 61T633 888q-9 0-19-2t-20-5v104h526v20h-110v83h110v19h-110v83h110v20zM608 197l74-79q14-15 22-30.5t8-32.5q0-16-10.5-25.5T676 20q-19 0-28 11t-9 22q0 11 5 19t13 8q10 0 13.5-9.5T674 52l20-1q1 16-7.5 32T657 99q-27 0-35-30l-22 125q6 2 8 3zm-96 0l8-3-22-125q-8 30-35 30-21 0-29.5-16T426 51l20 1q0 9 3.5 18.5T463 80q8 0 13-8t5-19q0-11-9-22t-28-11q-15 0-25 9.5T409 55q0 33 30 63zm27-8q5-1 10.5-1.5t11.5-.5q5 0 10.5.5t9.5 1.5l27-158h-96zm22 195q13 0 29-21t27.5-51q11.5-30 11.5-59 8 4 18 8t15 4q7 0 13.5-7t6.5-16q0-8-14-8-8 0-13.5 5.5T645 251l-14.5-14.5-28-20q-28-20-41.5-9.5t-42 9.5q-28.5-1-28 20T477 251q-4-6-9.5-11.5T454 234q-14 0-14 8 0 9 6.5 16t13.5 7q5 0 15-4t18-8q0 29 11.5 59t27 51q15.5 21 29.5 21zm0-54q-7 0-19-4t-9-17q1-5 3-14.5t6-16.5q-7-3-19-5t-22-1q-2-6-2-10.5V253q3-1 11.5-5t18.5-4q12 0 21 7.5t9 15.5q0 11-2.5 17.5T554 299q0 9 7 9t7-9q0-8-2.5-14.5T563 267q0-8 9-15.5t21-7.5q10 0 18.5 4t12.5 5q0 4-.5 8.5T621 272q-23-2-40 6 3 7 5 16.5t3 14.5q3 13-9 17t-19 4zm-1 31q-16 0-29-7l9-17q10 5 20 5 11 0 23-5l8 17q-13 7-31 7zm-19 301h40l-14-259h-6q-4 0-7-1zm-379 0h31q-14-16-35.5-35.5t-45-34.5Q89 577 68 577q-20 0-34 14 9-4 25-4 15 0 36 14t40 32q19 18 27 29zm-122 0h96q-9-10-23-23.5t-30-24Q67 604 53 604q-9 0-16.5 4T29 624q0 12 4 22t7 16zm62 107q34 0 58-14.5t37-27.5h-26q-7 9-22 18.5t-41 9.5q-25 0-44.5-17t-33-42.5Q17 670 12 645q-1 10-1.5 19.5T10 682q1 38 27.5 63t64.5 24zm-39-61h1033v-26H45q3 5 8.5 12.5T63 708zm652 85q-4-19-14.5-39T686 727h-35q18 13 36 31.5t28 34.5zm-68 41q22 2 39.5-2.5T704 817q0-11-13-27.5T657.5 756Q637 739 615 727h-21v84q29 20 53 23zm-73-37v-70h-19v56q4 4 9 7.5t10 6.5zm-39-31v-39h-41q7 8 17.5 18.5T535 766zm98 102q48 0 68-23-11 5-26 7t-28 1q-23-1-51-16.5T541 800q-27-21-47.5-41T465 727h-36q15 15 38 38.5t50.5 47Q545 836 575 852t58 16zM108 735q20 0 33-8H81q11 8 27 8zm447 250h19V873q-5-2-10-4.5t-9-5.5zm-204 103h200v-83H351zm-220 0h200v-83H131zm439 0h201v-83H570zm220 0h200v-83H790zm-439 102h200v-83H351zm-220 0h200v-83H131zm439 0h201v-83H570zm220 0h200v-83H790z" fill="currentColor"/></svg>