<svg xmlns="http://www.w3.org/2000/svg" viewBox="-10 0 1130 1153"><path d="M651 286l4-203q1-34 12-58.5T710 0q19 0 26 10t7 20q0 15-13 23.5T709 63l18 71q2 8 4.5 19.5T734 172q0 13-8.5 17t-18.5 9q-8 3-18 7.5t-17 8.5l-1 72zm-112 0l-1-72q-7-4-17-8.5t-17-7.5q-11-5-19.5-9t-8.5-17q0-7 2.5-18.5T483 134l18-71q-8-1-21-9.5T467 30q0-10 7-20t26-10q33 0 43.5 24.5T555 83l4 203zm134-95q5-3 11-5t14-6q5-1 10-4t5-6q0-5-2-14.5t-3-14.5l-22-94q17 2 27-3.5T723 30q0-10-13-10-19 0-27 17.5T675 83zm-136 0l-2-108q0-28-8-45.5T500 20q-13 0-13 10 0 8 10 13.5t27 3.5l-22 94q-1 5-3 14.5t-2 14.5q0 3 5 6t10 4q9 4 14.5 6t10.5 5zM-1 1153v-20h112v-83H-1v-19h112v-83H-1v-20h536V794q-34-22-64-49t-50-48.5Q401 675 396 670H224q-5 6-20.5 21T162 718.5Q136 731 102 732q-35 0-57-12t-34-30.5q-12-18.5-16.5-37T-10 623q0-50 18.5-86.5T68 500q21 0 43.5 12t44 30q21.5 18 38 35.5T218 605h377v-79h-63q-20 0-25-9.5t-5-22.5V366q-31 1-40 4t-9 13v96q0 9-10 9t-10-9v-96q0-22 13-29t59-7q10-12 25.5-26t35-24q19.5-10 39.5-10 22 0 43 11.5t37 27q16 15.5 24 26.5v142q0 13-5.5 22.5T678 526h-63v79h500v65H709q8 13 17 34t9 40q0 35-22.5 61T633 831q-9 0-19-2t-20-5v104h526v20h-110v83h110v19h-110v83h110v20zm533-647h146q7 0 9-3.5t2-8.5V358q-6-9-19.5-21t-30-21q-16.5-9-34.5-9t-34.5 9q-16.5 9-30 21T521 358v136q0 12 11 12zm-370 99h31q-14-16-35.5-35.5t-45-34.5Q89 520 68 520q-20 0-34 14 9-4 25-4 15 0 36 14t40 32q19 18 27 29zm-122 0h96q-9-10-23-23.5t-30-24Q67 547 53 547q-9 0-16.5 4T29 567q0 12 4 22t7 16zm62 107q34 0 58-14.5t37-27.5h-26q-7 9-22 18.5t-41 9.5q-25 0-44.5-17t-33-42.5Q17 613 12 588q-1 10-1.5 19.5T10 625q1 38 27.5 63t64.5 24zm-39-61h1033v-26H45q3 5 8.5 12.5T63 651zm584 126q22 2 39.5-2.5T704 760q0-11-13-27.5T657.5 699Q637 682 615 670h-21v84q29 20 53 23zm-73-37v-70h-19v56q4 4 9 7.5t10 6.5zm-39-31v-39h-41q7 8 17.5 18.5T535 709zm98 102q48 0 68-23-11 5-26 7t-28 1q-23-1-51-16.5T541 743q-27-21-47.5-41T465 670h-36q15 15 38 38.5t50.5 47Q545 779 575 795t58 16zm82-75q-4-19-14.5-39T686 670h-35q18 13 36 31.5t28 34.5zm-607-58q20 0 33-8H81q11 8 27 8zm447 250h19V816q-5-2-10-4.5t-9-5.5zm235 103h200v-83H790zm-659 0h200v-83H131zm439 0h201v-83H570zm-219 0h200v-83H351zm0 102h200v-83H351zm439 0h200v-83H790zm-659 0h200v-83H131zm439 0h201v-83H570z" fill="currentColor"/></svg>