<svg xmlns="http://www.w3.org/2000/svg" viewBox="-10 0 1130 1172"><path d="M592 353q0-41 1-89.5t3-90.5q2-42 5-61 5-43 23.5-77.5T677 0q22 0 32.5 11T720 38q0 15-11.5 26T681 80q2 10 4 23t7 39q5 25 8 44.5t3 27.5q0 15-19 22t-35 14q-12 5-21 11t-15 11q-1 25-1 47.5V353zm21-106q15-8 31-15 11-4 25-9.5t14-12.5q0-6-3-23t-8-42q-5-28-8-47t-5-31q17-1 29-10t12-19q0-7-4.5-12.5T677 20q-25 0-38.5 29.5T620 115q-2 19-4 56.5t-3 75.5zm56 293V391h105q115 0 184.5 8.5t101 25.5q31.5 17 31.5 41t-31.5 40.5q-31.5 16.5-101 25T774 540zm-260 0q-115 0-184.5-8.5t-101-25Q92 490 92 466t31.5-41q31.5-17 101-25.5T409 391h105v149zm183-13q-26 0-44.5-18.5T529 464q0-26 18.5-44.5T592 401q26 0 44.5 18.5T655 464q0 26-18.5 44.5T592 527zm97-6h85q150 0 224-15.5t74-39.5q0-25-74-40t-224-15h-85zm-280 0h86V411h-86q-150 0-224 15t-74 40q0 24 74 39.5T409 521zm183-14q18 0 30.5-12.5T635 464q0-18-12.5-31T592 420q-18 0-31 13t-13 31q0 18 13 30.5t31 12.5zM-1 1172v-20h112v-83H-1v-19h112v-83H-1v-20h536V813q-34-22-64-49t-50-48.5Q401 694 396 689H224q-5 6-20.5 21T162 737.5Q136 750 102 751q-35 0-57-12t-34-30.5q-12-18.5-16.5-37T-10 642q0-50 18.5-86.5T68 519q21 0 43.5 12t44 30q21.5 18 38 35.5T218 624h897v65H709q8 13 17 34t9 40q0 35-22.5 61T633 850q-9 0-19-2t-20-5v104h526v20h-110v83h110v19h-110v83h110v20zm163-548h31q-14-16-35.5-35.5t-45-34.5Q89 539 68 539q-20 0-34 14 9-4 25-4 15 0 36 14t40 32q19 18 27 29zm-122 0h96q-9-10-23-23.5t-30-24Q67 566 53 566q-9 0-16.5 4T29 586q0 12 4 22t7 16zm62 107q34 0 58-14.5t37-27.5h-26q-7 9-22 18.5t-41 9.5q-25 0-44.5-17t-33-42.5Q17 632 12 607q-1 10-1.5 19.5T10 644q1 38 27.5 63t64.5 24zm-39-61h1033v-26H45q3 5 8.5 12.5T63 670zm570 160q48 0 68-23-11 5-26 7t-28 1q-23-1-51-16.5T541 762q-27-21-47.5-41T465 689h-36q15 15 38 38.5t50.5 47Q545 798 575 814t58 16zm-98-102v-39h-41q7 8 17.5 18.5T535 728zm39 31v-70h-19v56q4 4 9 7.5t10 6.5zm-466-62q20 0 33-8H81q11 8 27 8zm539 99q22 2 39.5-2.5T704 779q0-11-13-27.5T657.5 718Q637 701 615 689h-21v84q29 20 53 23zm68-41q-4-19-14.5-39T686 689h-35q18 13 36 31.5t28 34.5zM555 947h19V835q-5-2-10-4.5t-9-5.5zm235 103h200v-83H790zm-659 0h200v-83H131zm220 0h200v-83H351zm219 0h201v-83H570zm0 102h201v-83H570zm-219 0h200v-83H351zm-220 0h200v-83H131zm659 0h200v-83H790z" fill="currentColor"/></svg>