<svg xmlns="http://www.w3.org/2000/svg" viewBox="0 0 595.3 574.7"><path d="M595.3 574.7H0V0h595.3v574.7zM562 541.4V183.1H454V33.3H33.3v508H562zm-1-391.6V33.3h-73.6v116.4H561z"/><path d="M142.9 49.5c-6.5-.4-13.2-.4-20.1.1-28.6 1.9-49.4 13.9-56.5 30.2-1.2 2.7-4.4 9.5 1.2 8.1 19.1-2.4 17.2 3.9 20 4.6 2.4 7.4 7.6 22.3 8 28.2-6.4 22.7-4 46.5-1.7 58 3.9 19.3 16.6 41.8 33.3 62.8-.4 1.4-.5 2.9 0 4.4 7.9 24.3 17.2 57.2 23.8 88 6.6 30.8 10.4 60 8.4 74.5-.6 4 2 7.7 5.8 8.7 1.2.3 2.2.8 3.3 1.2L144 499.1c-18.9-4-40.2 2-52.6-1-8.5-2.1-41.2 6-38.7 22.8 7.9-6.6 11.2-3.3 21.3-3.5 10.1-.2 31.5-4.8 39.3-.1 32.8-1.3 48.8 1.5 83 1.6 20.8-.2 57.9-1 78.4-2.1 12.6.1 19.1 1.6 25.4 1.4 5.6-.2 10.9-3.5 25 .4-8.2-11.3-32.1-22.6-43-16.2-9.5-1-20.3-.6-31.3-.1l-4.1-74.6c12.8 5.3 22.6 13.6 33.8 26.9 2.3 2.6 6.1 3.4 9.2 1.9 3.2-1.5 4.9-5 4.3-8.4-5.1-27.4-5.6-53.2-5.3-80.7 14.2 9.3 28.3 18.8 41.6 28.8 38.3 41.7 76.7 83.3 115 124.9 1.8 1.9 4.4 2.8 6.9 2.4 25-4.2 50.1-8.3 75.1-12.5 2.8-.5 5.1-2.4 6.1-5.1.9-2.7.4-5.7-1.6-7.8-19.6-21.9-39.8-43-59.4-64.5 37.3 22.9 85.5 52.2 81.5 45.2-2.5-4.3-23.7-19.9-46.8-36.2 3.7 1.5 7.3 3.2 10.9 4.7.1.1.3.2.4.3 2.7.9 4.2 1.5 7.1 1.6.7 0 1.5 0 2.9-.4s3.7-1.6 5-4c1.3-2.4 1-4.9.6-6.3-.4-1.3-1-2-1.4-2.6-1.6-2.2-2.7-2.9-4.3-4.1-1.6-1.2-3.4-2.5-5.4-3.9-4-2.8-8.9-5.9-13-8.7-4.1-2.8-7.9-5.4-8.7-6.1l-.7-.7c-34.2-24.1-68.4-48.1-102.6-72.2-.2-.2-.5 0-.7-.1-35.2-49-68.3-100.6-106.7-148.1-19.6-24.3-42.2-66.7-78.7-80.8-1.8-10.4-5.7-29.7-19.9-43.5-12.1-11.7-29.5-17-49-18.2zm-17.3 12.4c21.2-1.4 38 4.3 49.4 12.4.2 1.4.5 2.8.2 4.2-1.3 6.5-5.1 12.6-10.4 16.6-8.3 5.5-18.4 7-27.9 9.4-2.4.2-.5.8.8 1 6.5 1.1 20.4 2.8 27 2.6 7.3-.8 14.2-3.9 20.2-8.2 2.1-1.8 3.9-3.9 5.4-6.2 3.9 9.1 6 18.8 6.9 24.2.5 2.9 2.5 5.3 5.3 6.1 30 9.2 53.7 50.4 75.9 77.8 45.6 56.3 84.4 119.4 129 178.3-24.7-12-49.3-24.2-74.1-36.2-50.6-26.7-103.3-47.9-147.7-81.5-.1-.1-.1-.2-.2-.2-25.6-21.3-51.7-43.8-61.7-73.6-3.9-24.3 46.3-68 40.7-69.8-10.2-3.3-47.6 28-54.9 57.8-.1-.4-.3-.8-.4-1.2-1.9-9.4-4.1-33.1 1.8-52.2.3-.9.4-1.8.3-2.7-.4-7.7-1.6-12.2-3.3-16.7-1.7-4.5-3.7-9.1-6.9-20.2-.8-2.8-3.7-8.6-5.5-9.1 4.9-3.6 9.9-7.4 17-9.9-2.1 2-3.5 4.9-3.5 8.3 0 6.1 4.3 10.9 9.6 10.9s9.6-4.9 9.6-10.9v-.1c0-4.9-2.9-8.9-6.7-10.3 1.4-.2 2.6-.5 4.1-.6zm24 204.5c1.7 1.7 3.6 3.3 5.3 5 5.6 20.6 10.9 43.3 18.3 60.8 12.7 30.2 32.1 56.5 48.5 83.2-4 2.2-7.5 4.6-10.1 7.1-2.1 2-3.6 3.4-5.2 5.1-8.2-10.7-18.6-19.1-31.3-23.7 1.2-19.1-2.9-45.1-8.9-73.5-4.8-22-10.7-43.8-16.6-64zm26.5 23.9c30.3 24.9 64 45.8 96.9 67-.5 24-.5 46.9 2.2 70.5-10.9-9.1-22.7-15.7-37.6-19.4-.6-.2-1.2.3-1.8.3-17.1-28-36.5-54.3-48.4-82.7-4.1-9.6-7.7-22.3-11.3-35.7zm41.3 11.4c35.7 20.8 73.4 37.3 109.1 56 .1 0 .1 0 .1.1 34.2 16.7 68.2 33.8 102.7 50.2 25.9 31.4 54.1 60.5 81.2 90.2-18.9 3.2-37.8 6.4-56.7 9.5-37.5-40.8-75-81.4-112.5-122.2-.3-.4-.6-.7-1-1-39.6-29.9-83.2-54.9-122.9-82.8zm-30.6 127.2c4.3 4 8.2 8.7 11.6 14.3 1.1 1.8 3.1 3.1 5.2 3.5 2.1.4 4.3 0 6.1-1.3 5.7-4.1 9.2-8.5 12.6-11.8 1.3-1.2 2.6-2.1 3.9-3.1l3.9 71.8c-13-.8-27.1-2.7-33.5 3.6-5.6-4.4-17.8-4.6-31.8-4.2l22-72.8z"/></svg>