<svg xmlns="http://www.w3.org/2000/svg" viewBox="0 0 595.3 593.8"><path d="M556 556.8V174.3H40v382.5h516zm-556 37V138.1h595.3v455.7H0zm529.6-433.9c-13.6-27.2-20.4-47.3-20.4-60.4 0-17.6 5-34.2 15.1-49.8-13.6 0-23.1-7-28.7-21.1 5.6-17 20.2-26.6 43.8-28.6 31.2 0 46.8 17.4 46.8 52.1-3.5 20.1-9.7 36.2-18.5 48.3-8.8 12.1-12.7 24.1-11.7 36.2 1.5 11.1 4.3 18.9 8.3 23.4h-34.7zm15.1 0c-1-6.5-2-14.3-3-23.4-.5-17.1 4.4-32.2 14.7-45.3C566.7 78.1 572.1 65 572.6 52c-1-25.7-12.1-38.5-33.2-38.5-17.6 0-26.7 5-27.2 15.1 0 6 3.5 8.6 10.6 7.5 10.6-.5 23.1.5 37.7 3l-8.3 9.8C533.1 59.5 524 76.3 525 99.4c0 9.6 5.5 26.4 16.6 50.5l3.1 10zm3.8-133.5c-15.6-11.1-24.1-11.1-25.7 0h25.7zM367.4 160.7C353.8 134 347 113.9 347 100.3c0-17.1 5-33.7 15.1-49.8-14.1.5-23.9-6.3-29.4-20.4 5.5-17.1 20.4-26.7 44.5-28.7 30.7 0 46 17.4 46 52.1-3 20.1-8.9 36.1-17.7 47.9-8.8 11.8-12.7 24-11.7 36.6 1.5 11.1 4 18.6 7.5 22.6h-33.9zm15.1 0c-1.5-6.5-2.5-14.1-3-22.6-.5-17.1 4.4-32.2 14.7-45.3 10.3-13.1 15.7-26.2 16.2-39.2-1-25.7-12.1-38.5-33.2-38.5-17.6 0-26.7 5-27.2 15.1 0 6 3.5 8.3 10.6 6.8 10.6 0 23.1 1.3 37.7 3.8l-8.3 9.8c-19.1 10.6-28.4 27.2-27.9 49.8 0 10.1 5.5 27.2 16.6 51.3l3.8 9zm3-132.8c-15.6-11.6-23.9-11.6-24.9 0h24.9zM205.2 160.7c-13.6-26.7-20.4-46.8-20.4-60.4 0-17.1 5-33.7 15.1-49.8-14.1.5-23.9-6.3-29.4-20.4 5.5-17 20.4-26.6 44.5-28.6 30.7 0 46 17.4 46 52.1-3 20.1-8.9 36.1-17.7 47.9-8.8 11.8-13 24-12.4 36.6 2 11.1 4.8 18.6 8.3 22.6h-34zm15.1 0c-1.5-6.5-2.8-14.1-3.8-22.6 0-17.1 5-32.2 15.1-45.3 10.1-13.1 15.6-26.2 16.6-39.2-1-25.7-12.1-38.5-33.2-38.5-18.1 0-27.2 5-27.2 15.1 0 6 3.5 8.3 10.6 6.8 10.6 0 23.1 1.3 37.7 3.8l-8.3 9.8c-19.1 10.6-28.4 27.2-27.9 49.8 0 10.1 5.5 27.2 16.6 51.3l3.8 9zm3-132.8c-15.6-11.6-23.9-11.6-24.9 0h24.9zm-181 132.8c-13.6-27.2-20.4-47.5-20.4-61.1 0-17.1 5-33.7 15.1-49.8-14.1.5-23.6-6.3-28.7-20.4C13.3 12.3 27.9 2.7 52.1.7c30.7 0 46 17.4 46 52.1-3 20.1-8.9 36.1-17.7 47.9-8.8 11.8-12.7 24-11.7 36.6 1.5 11.1 4.3 18.9 8.3 23.4H42.3zm15 0c-1-7-2-14.8-3-23.4-.5-17.1 4.4-32.2 14.7-45.3 10.3-13 15.8-26.1 16.3-39.2-1-25.7-12.1-38.5-33.2-38.5-17.6 0-26.7 5-27.2 15.1 0 6 3.5 8.3 10.6 6.8 10.6 0 23.1 1.3 37.7 3.8l-8.3 9.8C45.8 60.4 36.5 77 37 99.6c0 10.1 5.5 27.2 16.6 51.3l3.7 9.8zm3.8-133.5c-16.1-11.6-24.6-11.6-25.7 0h25.7zm223.3 409.6h9.1l-3.8-98.8h-1.5l-3.8 98.8zm.8 12.9l-1.5 9.8h10.6l-.8-9.8h-8.3zm-1.5 22.6l-.8 6H295v-6h-11.3zm-.8 18.1V501h12.8v-10.6h-12.8zm-.7 22.6l-.8 22.6h15.8l-.8-22.6h-14.2zm-12.9-328.9h39.2v17.4c20.1 8 30.2 25.7 30.2 52.8 0 28.2-8.6 46.3-25.7 54.3-5 7-7.5 16.6-7.5 28.7l6 210.5h-46l6.8-210.5c0-12.1-2.8-21.6-8.3-28.7-16.6-8-24.9-26.2-24.9-54.3 0-27.2 10.1-44.8 30.2-52.8v-17.4zm14.4 12.1v17.4c-17.1 0-26.9 13.6-29.4 40.7 0 17.6 3.8 30.1 11.3 37.3 7.5 7.3 15.3 10.9 23.4 10.9 8 0 15.7-3.6 23-10.9 7.3-7.3 10.9-19.7 10.9-37.3-2.5-27.2-12.3-40.7-29.4-40.7v-17.4h-9.8z"/></svg>