<svg xmlns="http://www.w3.org/2000/svg" viewBox="-10 0 1291 1227"><path d="M-10 1227V0h1291v1227zm19-19h1252V19H9zm49-49V68h1154v831H918v260zm20-20h820V879h295V88H78zm464-39l35-466-212 16v-81l203 28-13-25q-27-53-52-111t-41-113q-16-55-16-99 0-37 17-69t50.5-52q33.5-20 84.5-20 50 0 83.5 20t50.5 52q17 32 17 69 0 44-16 99t-40.5 113Q668 519 641 572q-4 7-7 13t-6 11l203-27v81l-212-15 34 465zm49-500h3l-29-67q-13-28-25.5-65t-23-77q-10.5-40-17-76.5T493 251q0-40 31-67t74-27q43 0 74.5 27t31.5 67q0 38-11 89.5T664.5 445Q647 498 629 538l-27 62h3q15-24 36-67t41.5-94.5Q703 387 716.5 337t13.5-88q0-48-33-84.5T598 128q-66 0-99 36.5T466 249q0 38 13.5 87T513 436q20 51 41 94.5t37 69.5zm7-34l14-30q19-41 35.5-93.5T674 339q10-51 10-88 0-32-25.5-53T598 177q-36 0-61 21t-25 53q0 27 6 63t16.5 75.5q10.5 39.5 23 76.5t24.5 65zm213 63v-38l-180 25zm-427 0l183-13-183-25zm180 452h68q-3-50-7.5-111t-9-124q-4.5-63-8.5-118.5t-7-94.5h-4zm402 78V947h246v212zm20-20h207V967H986z" fill="currentColor"/></svg>