<svg xmlns="http://www.w3.org/2000/svg" viewBox="-10 0 1291 1227"><path d="M-10 1227V0h1291v1227zm19-19h1252V19H9zm957-929V68h246v211zM58 1159V68h860v260h294v831zm928-899h207V88H986zM78 1139h1115V348H898V88H78zm265-48q-11 0-18.5-5t-7.5-15q0-10 10-14.5t17-4.5h18q11-19 24-42.5t13-39.5q0-3-5-13.5t-11-22q-6-11.5-9-17.5l-8-8q-3 18-10 37t-18 28h-14q-20-19-42-52t-22-78q0-25 1-37.5t2-19.5q0-3 .5-5t-.5-5q0-1-9.5-13.5t-22-28.5Q219 719 210 706q-13-15-28-38t-26.5-48Q144 595 144 573q0-15 1-30t2-23h23q1 10 2.5 22.5T177 568q6 30 22 55.5t35.5 49.5q19.5 24 36.5 50l-4-32q-4-21-12-51t-15-58.5q-7-28.5-7-44.5 0-20 7-36t14-23l16 5q-1 6-2.5 17t-1.5 22q0 8 4.5 24.5T280 582q10 31 17 63t11 67q3 29 9.5 46t16.5 31q5 8 13.5 16t14.5 13q20-32 58-42-1-12-3.5-41.5T414 667q0-70 14-139t42.5-127.5q28.5-58.5 71-98T640 251l-6 309q70-85 137-136t132-51q19 0 49 3t51 6L819 662q-28 35-57.5 66T705 784q-18-8-46.5-16.5T605 759q-21 0-36.5 5T539 778q25 7 43.5 18.5T611 824q6-9 18-17.5t36-8.5q38 0 78 16t77 42q37 26 66 57t46 62q17 31 17 56 0 17-3 31t-8 27h-22q0-6-2.5-21t-10.5-29q-8-14-23-19-11-3-29-5.5t-38-5.5l-20-2q9 10 20 19t22 17q11 9 19 16.5t11 20.5l-4 4q-8-6-15.5-5.5T834 1088q-41-27-61-47t-34-44l-10-3q-35-12-69-32.5T604 920q-4 4-7.5 6.5T588 932q6 11 10.5 21t4.5 16q0 29-6.5 64.5T583 1091h-41q-7 0-10-1.5t-5-1.5l-1 3h-48q-17 0-22-8-3 6-5 8h-42q-10 0-18-5-1 1-2 2.5t-1 2.5zm96-318q17-4 36-4h6q30-46 64.5-94t69.5-92l6-309q-46 13-81.5 51t-59 93Q457 473 445 537t-12 130q0 35 2 63.5t4 42.5zm-30 303h34q2-7 10-25t15-40q7-22 7-42 0-8-11.5-28T441 904l13-9q5 7 12 19t12 23q5 1 10 1h9q25 0 47-5-3-5-6-10.5t-5-7.5l13-9q11 17 22 37.5t11 26.5q0 11-2.5 30t-6.5 37.5q-4 18.5-8 29.5h-27q-12 0-12 4 0 5 11 5h36q4-10 11-40.5t7-66.5q0-8-11.5-28T554 904l13-9q6 8 14 24 7-4 13-12l-1-13 75-8q21-1 28.5 3.5T710 906q23 41 29.5 57t10.5 22q12 24 29.5 43t52.5 42q4-5 12-4-19-16-39-31t-32-32q-20-29-31-58.5T709 883q-5-9-33-7-7 0-31 3t-43 5l-2-16h3.5l5.5-1q0-14-4-23-10-21-32.5-34.5T524 789q-8 8-16.5 16T492 822l-11-11q26-27 52-49t72-22q21 0 49 6.5t47 13.5q26-24 52-49t50-56q45-69 85-129t85-129q-12-2-33-3.5t-37-1.5q-41 0-85 25.5T728.5 486Q683 529 638 584t-87 114.5Q509 758 471 816l-17-8 16-24q-43 1-75 20t-32 59q0 25 19.5 41t45.5 24q-6-9-8-13l13-9q10 17 21 37.5t11 26.5q0 11-5.5 29t-13 36.5Q439 1054 433 1067h-22q-13 0-13 4 0 5 11 5zm-85-121v-32h16v25q6-12 9.5-28t4.5-29q-5-12-5-28 0-17 5-32-7-5-16-13.5T322 798q-21-29-29-85-3-31-10-61.5T266 586q-6-17-9-34t-3-27q0-10 2-20h-2q-2 4-4 12.5t-2 19.5q0 16 7 45t14.5 59q7.5 30 10.5 51l6 34 4 34-10 3q-16-32-40.5-60.5t-46.5-60Q171 611 164 571q-1-10-2.5-20t-2.5-17h-2q-1 9-1 20.5V573q0 20 11.5 43t25 42q13.5 19 20.5 28 14 19 29 38t25 33.5q10 14.5 11 19.5 1 4 .5 6.5t-.5 6.5q-1 6-2 18t-1 36q0 37 16 65.5t33 45.5zm605 112q2-8 3.5-16.5t1.5-19.5q0-29-24.5-66.5t-64.5-72q-40-34.5-87.5-57T665 813q-26 0-34.5 12t-9.5 18q2 4 2.5 10t1.5 13q14-1 29-2.5t21-1.5q17-1 28.5 1t16.5 9q18 28 30.5 57.5T780 990q9 1 17.5 2t16.5 2q20 2 38.5 5t31.5 7q23 7 32.5 26.5T929 1067zM307 900q-10 0-14.5-7t-4.5-13q0-7 4-14t12-7q19 0 19 21 0 11-5 15.5t-11 4.5zm0-11q3 0 3-9 0-10-6-10-4 0-4 10 0 9 7 9zm422 90l-32-65q-3-7-7.5-11t-20.5-2l-55 6h-1q18 19 50 39t66 33zm-386 97h36l4-7q2-8 7-11 11-18 22-42.5t11-46.5q0-4-3-13t-8-18l-13-6q6 11 10.5 22t4.5 16q0 11-8 28.5t-18.5 36.5q-10.5 19-17.5 32h-26q-12 0-12 4 0 5 11 5zm67-24h13q10-20 18.5-43t8.5-39q0-5-12-24-2 0-6-2 6 15 6 25 0 17-8.5 40.5T410 1052zm126 0h15q5-16 9-40.5t4-39.5q0-1-4-8.5t-9-16.5l-10 2q3 6 4 11.5t1 8.5q0 21-2.5 43t-7.5 40zm-58 24h30v-5q0-13 12-16 4-16 7.5-38t3.5-48q0-3-2-7.5t-4-10.5l-9 1q2 6 4 11t2 7q0 11-2.5 30t-6.5 37.5q-4 18.5-7 29.5h-27q-13 0-13 4 0 5 12 5zm-10-22q3-2 11-2h16q4-16 8-40.5t4-39.5q0-3-9-19h-6.5l-6.5-1q4 9 4 17 0 18-7 41.5t-14 43.5z" fill="currentColor"/></svg>