<svg xmlns="http://www.w3.org/2000/svg" viewBox="-10 0 1128 1227"><path d="M-10 1227l60-93h59V467q-14-2-20.5-13T82 432q0-14 7.5-23.5T111 398L49 290h-4v-54h43l-5-22.5-3-31.5q0-27 10.5-58.5t34-59.5q23.5-28 63-46T285 0q47 0 95.5 10.5T473 36q44 15 76 26l492 174h23v54h-4l-63 108q29 3 29 34 0 11-7 22t-20 13v667h59l60 93zm119-991h873L542 80q-31-11-73.5-25.5t-90-25Q331 19 285 19q-52 0-88 16t-57 41q-21 25-30.5 53.5T100 182q0 19 3.5 33t5.5 21zm-44 35h980v-15H65zm68 126h843q16-27 31-53t30-54H71zm-17 51h876q7 0 10.5-5t3.5-11q0-15-14-15H116q-15 0-15 15 0 6 4 11t11 5zm56 686h764V468H172zm-146 74h1056l-35-54h-68V468h-24v686H152V468h-23v686H61zm461-112v-42l22-87q-18-6-38.5-12T435 936q-10-16-22-36t-21-37.5q-9-17.5-11-27.5h-8q-8-4-22.5-17t-28-28Q309 775 305 767q-4-7-6.5-18t-2.5-23q0-9 2-20t11-19q9-8 31-8l6 3q2-23 10-49.5t28.5-50.5q20.5-24 61-40.5T554 524q67 1 107.5 17.5t61 40.5q20.5 24 28.5 50.5t10 49.5l7-3q21 0 30.5 8t11.5 19q2 11 2 20 0 12-2.5 23t-6.5 18q-4 8-17.5 23T757 818q-15 13-23 17h-7q-2 10-11 27.5T695 900q-12 20-23 36-35 17-51 23t-23 8l23 87v42zM367 679q18-15 48.5-27t92.5-12q11 0 22 .5t24 1.5q12-1 23.5-1.5t21.5-.5q62 0 92.5 12t48.5 27q-4-29-19.5-59.5T666 567q-39-22-112-24-55 2-90.5 15t-55 33q-19.5 20-29 43T367 679zm151 271h72q1-1 13.5-5t28.5-10q16-6 26-13 11-17 22.5-37.5t20-39Q709 827 709 816h22q7-4 19-15.5t22.5-24.5q10.5-13 13.5-19 6-10 6-31 0-8-3.5-18T773 698l-29 16q-1-1-.5-2t-.5-3l-7-7q-11-11-26-20.5T669 666q-26-6-70-6h-21.5l-23.5 1q-13-1-24-1h-22q-43 0-69.5 6t-41 15.5Q383 691 372 702l-8 7v5l-29-16q-12 0-15.5 10t-3.5 18q0 9 1 17.5t5 13.5q2 6 12.5 19t23 24.5Q370 812 377 816h22q0 11 8.5 29.5t20 39Q439 905 449 922q11 8 32 15.5t37 12.5zm3-109V722q-2-2-3-5t-3-6l-39-5v-12l50-2 14 26v103h27V718l14-26 51 2v12l-39 5q-2 3-3.5 6l-2.5 5v119zm131-73q-21 0-35.5-5.5T598 754v-17q8-8 22.5-13.5T652 718q23 0 36.5 7.5L711 738v13q-8 6-23 11.5t-36 5.5zm-197 0q-21 0-35.5-5.5T397 751v-13q8-5 21.5-12.5T455 718q17 0 31.5 5.5T509 737v17q-4 3-18.5 8.5T455 768zm1-17q8 0 8-9 0-8-8-8h-1q-8 0-8 8 0 9 9 9zm196 0q9 0 9-9 0-8-9-8t-9 8q0 9 9 9zm18 1q8-1 13-3t11-3v-3q-4-2-9.5-4t-13.5-4q1 3 1 7 0 7-2 10zm-233 0q-2-6-2-10 0-1 .5-3t.5-4q-8 2-13 4t-9 4v3q5 1 10 3t13 3zm196-1q-2-6-2-9 0-2 2-6-14 3-19 6v3q1 1 6 2.5t13 3.5zm-158 0q7-2 12-3.5t7-2.5v-3q-6-3-19-6 1 2 1 6 0 6-1 9zm79 143q-23 0-44-1.5t-31-3.5v-17q10-1 19.5-3t13.5-3 13.5-3q6.5-2 13.5-8 7 4 10.5 5.5t4.5 1.5q1 0 4.5-1.5T569 855q6 6 13 8t14 3q4 1 13.5 3t19.5 3v17q-10 2-31 3.5t-44 1.5zm0-12l59-2v-1q-13-1-18-1t-25-5q-4 3-8.5 3.5t-7.5-.5q-3 1-7.5.5T538 873q-20 5-25.5 5t-18.5 1v1zm-48 195h95v-23l-22-85h-50l-23 85z" fill="currentColor"/></svg>