<svg xmlns="http://www.w3.org/2000/svg" viewBox="0 0 180.1 594.5"><path d="M175 139.1v455.4H5.1V139.1H175zm-24 50.3v-26.8H29.2v26.8H151zM140.9 214H29.7v134.1L140.9 214zM151 380.5V233L29.7 380.5H151zm0 51.4v-27.4H29.2v27.4H151zm0 24.1H28.1v118.5H151V456zm24-316.9h-33.5l2.8-15.1c-3-3.4-4.5-6.8-4.5-10.3 0-3.5.7-6.6 2.2-9.2-5.2-4.5-7.2-13.7-5.9-27.7s8.5-39.6 21.5-76.8c13.4 37.3 20.8 62.9 22.1 76.8 1.3 14-.8 23.2-6.4 27.7 1.9 2.6 2.7 5.7 2.5 9.2-.2 3.5-1.8 7-4.7 10.3l3.9 15.1zm-25.7-5h17.3l-2.8-8.4c-4.1 1.5-8.2 1.5-12.3 0l-2.2 8.4zm8.4-13.4c6.3-1.1 9.5-3.8 9.5-8.1s-1.6-7.3-4.7-8.9c-3.2-1.7-6.2-1.7-9.2 0-3 1.7-4.5 4.7-4.5 8.9-.1 4.3 2.9 7 8.9 8.1zm-28 18.4H96.2L99 124c-3-3.4-4.5-6.8-4.5-10.3 0-3.5.7-6.6 2.2-9.2-5.2-4.5-7.2-13.7-5.9-27.7 1.3-14 8.5-39.6 21.5-76.8 13.4 37.3 20.8 62.9 22.1 76.8 1.3 14-.8 23.2-6.4 27.7 1.9 2.6 2.7 5.7 2.5 9.2-.2 3.5-1.8 7-4.7 10.3l3.9 15.1zm-25.7-5h17.3l-2.8-8.4c-4.1 1.5-8.2 1.5-12.3 0l-2.2 8.4zm8.4-13.4c6.3-1.1 9.5-3.8 9.5-8.1s-1.6-7.3-4.7-8.9c-3.2-1.7-6.2-1.7-9.2 0-3 1.7-4.5 4.7-4.5 8.9 0 4.3 3 7 8.9 8.1zm-27.9 19H50.4l3.4-15.1c-3-3.4-4.6-6.8-4.7-10.3-.2-3.5.7-6.6 2.5-9.2-5.2-4.5-7.2-13.7-5.9-27.7C47 63.4 54.2 37.8 67.2.6 80.6 37.9 88 63.5 89.3 77.4c1.3 14-.8 23.2-6.4 27.7 1.5 2.6 2.2 5.7 2.2 9.2 0 3.5-1.5 7-4.5 10.3l3.9 15.1zm-26.3-5h17.3l-2.2-8.4c-4.1 1.5-8.2 1.5-12.3 0l-2.8 8.4zm9-13.4c6.3-1.1 9.5-3.8 9.5-8.1s-1.6-7.3-4.7-8.9c-3.2-1.7-6.3-1.7-9.5 0s-4.7 4.7-4.7 8.9c-.1 4.2 3 6.9 9.4 8.1zm-28 17.8H5.1L8.5 124c-3-3.4-4.6-6.8-4.7-10.3-.2-3.5.7-6.6 2.5-9.2C1 100-.9 90.8.4 76.8S8.9 37.3 21.9 0C35.3 37.3 42.7 62.9 44 76.8c1.3 14-.8 23.2-6.4 27.7 1.5 2.6 2.2 5.7 2.2 9.2 0 3.5-1.5 7-4.5 10.3l3.9 15.1zm-26.2-5h17.3l-2.2-8.4c-4.1 1.5-8.2 1.5-12.3 0l-2.8 8.4zm8.9-13.4c6.3-1.1 9.5-3.8 9.5-8.1s-1.6-7.3-4.7-8.9c-3.2-1.7-6.3-1.7-9.5 0s-4.7 4.7-4.7 8.9c-.1 4.3 3.1 7 9.4 8.1z"/></svg>