<svg xmlns="http://www.w3.org/2000/svg" viewBox="-10 0 430 1230"><path d="M-10 1230V236h32l13-22q-10-8-10-23 0-19 19-28-9-16-15-33t-6-39q0-29 9.5-49.5T55 0h3q13 21 22 41.5T89 91q0 22-5.5 38.5T69 163q19 9 19 28 0 15-10 23l13 22h30l13-22q-10-8-10-23 0-20 18-28-9-16-14.5-33T122 91q0-29 9-49.5T153 0h3q13 21 22.5 41.5T188 91q0 22-5.5 38.5T168 163q19 9 19 28 0 15-11 23l14 22h29l14-22q-10-8-10-23 0-20 18-28-9-16-15-33t-6-39q0-29 9.5-49.5T252 0h3q13 21 22.5 41.5T287 91q0 22-6 38.5T267 163q8 4 13 11t5 17q0 15-10 23l14 22h29l13-22q-10-8-10-23 0-19 18-28-8-16-14-33t-6-39q0-29 9.5-49.5T351 0h3q13 21 22 41.5t9 49.5q0 22-5.5 38.5T365 163q19 9 19 28 0 15-10 23l13 22h33v994zM352 147q13-23 14-56-1-31-14-56-13 25-14 56 1 33 14 56zm-98 0q13-24 13-56 0-30-13-56-14 25-14 56 0 33 14 56zm-99 0q13-23 14-56-1-31-14-56-13 25-14 56 1 33 14 56zm-99 0q7-11 10-25t4-31q-1-16-4-30T56 35Q43 61 43 91q0 32 13 56zm1 56q11 0 11-12t-11-12q-12 0-12 12t12 12zm98 0q12 0 12-12t-12-12q-11 0-11 12t11 12zm99 0q12 0 12-12 0-5-3.5-8.5T254 179q-5 0-8.5 3.5T242 191q0 12 12 12zm99 0q11 0 11-12t-11-12q-12 0-12 12t12 12zM45 236h23l-8-14h-7zm98 0h24l-9-14h-6zm99 0h24l-9-14h-6zm98 0h24l-8-14h-7zM9 277h391v-21H9zm0 388l372-369H9zm19 9h372V305zM9 734h391v-41H9zm0 60h391v-41H9zm0 417h391V813H9z" fill="currentColor"/></svg>