<svg xmlns="http://www.w3.org/2000/svg" viewBox="0 0 594.4 594.5"><path d="M399 139.1v455.4H229.1V139.1H399zm-24.1 50.3v-26.8H253.1v26.8h121.8zm-10 24.6H253.7v134.1L364.9 214zm10 166.5V233L253.7 380.5h121.2zm0 51.4v-27.4H253.1v27.4h121.8zm0 24.1H252v118.5h122.9V456zM399 139.1h-33.5l2.8-15.1c-3-3.4-4.5-6.8-4.5-10.3 0-3.5.7-6.6 2.2-9.2-5.2-4.5-7.2-13.7-5.9-27.7 1.3-14 8.5-39.6 21.5-76.8 13.4 37.3 20.8 62.9 22.1 76.8 1.3 14-.8 23.2-6.4 27.7 1.9 2.6 2.7 5.7 2.5 9.2-.2 3.5-1.8 7-4.7 10.3l3.9 15.1zm-25.7-5h17.3l-2.8-8.4c-4.1 1.5-8.2 1.5-12.3 0l-2.2 8.4zm8.3-13.4c6.3-1.1 9.5-3.8 9.5-8.1s-1.6-7.3-4.7-8.9c-3.2-1.7-6.2-1.7-9.2 0-3 1.7-4.5 4.7-4.5 8.9 0 4.3 3 7 8.9 8.1zm-27.9 18.4h-33.5L323 124c-3-3.4-4.5-6.8-4.5-10.3 0-3.5.7-6.6 2.2-9.2-5.2-4.5-7.2-13.7-5.9-27.7 1.3-14 8.5-39.6 21.5-76.8 13.4 37.3 20.8 62.9 22.1 76.8 1.3 14-.8 23.2-6.4 27.7 1.9 2.6 2.7 5.7 2.5 9.2-.2 3.5-1.8 7-4.7 10.3l3.9 15.1zm-25.7-5h17.3l-2.8-8.4c-4.1 1.5-8.2 1.5-12.3 0l-2.2 8.4zm8.4-13.4c6.3-1.1 9.5-3.8 9.5-8.1s-1.6-7.3-4.7-8.9c-3.2-1.7-6.2-1.7-9.2 0-3 1.7-4.5 4.7-4.5 8.9-.1 4.3 2.9 7 8.9 8.1zm-28 19h-34.1l3.4-15.1c-3-3.4-4.6-6.8-4.7-10.3-.2-3.5.7-6.6 2.5-9.2-5.2-4.5-7.2-13.7-5.9-27.7 1.3-14 8.5-39.6 21.5-76.8 13.4 37.3 20.8 62.9 22.1 76.8 1.3 14-.8 23.2-6.4 27.7 1.5 2.6 2.2 5.7 2.2 9.2 0 3.5-1.5 7-4.5 10.3l3.9 15.1zm-26.2-5h17.3l-2.2-8.4c-4.1 1.5-8.2 1.5-12.3 0l-2.8 8.4zm8.9-13.4c6.3-1.1 9.5-3.8 9.5-8.1s-1.6-7.3-4.7-8.9c-3.2-1.7-6.3-1.7-9.5 0s-4.7 4.7-4.7 8.9c-.1 4.2 3.1 6.9 9.4 8.1zm-27.9 17.8h-34.1l3.4-15.1c-3-3.4-4.6-6.8-4.7-10.3-.2-3.5.7-6.6 2.5-9.2-5.2-4.5-7.2-13.7-5.9-27.7s8.5-39.6 21.5-76.8c13.4 37.3 20.8 62.9 22.1 76.8 1.3 14-.8 23.2-6.4 27.7 1.5 2.6 2.2 5.7 2.2 9.2 0 3.5-1.5 7-4.5 10.3l3.9 15.1zm-26.3-5h17.3l-2.2-8.4c-4.1 1.5-8.2 1.5-12.3 0l-2.8 8.4zm9-13.4c6.3-1.1 9.5-3.8 9.5-8.1s-1.6-7.3-4.7-8.9c-3.2-1.7-6.3-1.7-9.5 0s-4.7 4.7-4.7 8.9c-.1 4.3 3 7 9.4 8.1z"/><path d="M566 184.9c2.6 0 5.4.1 8.3.4v127.9c-15.7-.9-30.9 1.3-45.7-5 .9-25.5 1.1-53.2.7-82.9-.5-26.9 11.8-40.4 36.7-40.4zm28.4-18.3l-88 1.3v128.3c-34.5-4-74.6-6-120.2-6-88.2 0-158.3 2.4-210.2 15.4-15.1-17.1-33.7-28-65.8-29.4-13.1-1.2-44.4.8-49.7 2-13.2 2.8-19.5 3.7-18.1 8.4 1.3 4.7 4.6 8.4 9.7 11.1 2.8 1.5 8.2 2.2 16.1 2.2 6.6 0 15-.5 25.2-1.5 2.5-.3 4.9-.5 7.2-.5 13.9 0 24.5 5.8 31.7 17.3-19.8 6.2-37.5 9.2-52.9 9.2-14.9 0-27.7-2.9-38.4-8.6-14-7.5-24.3-11.2-31-11.2-3.9 0-6.5 1.2-8 3.7-6.3 7.6 2.2 18.1 25.5 31.6 15.7 6.2 32.5 9.3 50.4 9.3 15.9 0 32.6-2.4 50.3-7.3 25.2-5 55.3-7.6 90.3-7.6 11.7 0 23.9.3 36.6.8 36.5 1.6 104.6 2.4 204.3 2.4 39.9 0 84.9-.1 134.9-.4V166.6z"/></svg>