<svg xmlns="http://www.w3.org/2000/svg" viewBox="-10 0 1238 1230"><path d="M400 1230V617h-54l-91 18H138l-82-36-66-63 27-40 73 51q10 5 33 13t41 12l103-9-3-15q-3 0-15 1t-23 1.5q-11 .5-15 .5-8 0-24.5-1.5t-34-5Q135 541 126 536l10-51q4 1 17 3t28 3q15 1 25 1 9 0 23.5-1.5t28-3Q271 486 277 485l63 28 60-2V236h32l13-22q-9-9-9-23 0-20 18-28-9-16-15-33t-6-39q0-29 9.5-49.5T465 0h3q13 21 22.5 41.5T500 91q0 22-6 38.5T480 163q7 4 12.5 11t5.5 17q0 15-10 23l14 22h29l13-22q-10-8-10-23 0-19 18-28-8-16-14-33t-6-39q0-29 9.5-49.5T564 0h2q13 21 22.5 41.5T598 91q0 22-5.5 38.5T578 163q19 9 19 28 0 15-10 23l13 22h29l14-22q-10-8-10-23 0-20 18-28-9-16-15-33t-6-39q0-29 9.5-49.5T662 0h3q13 21 22.5 41.5T697 91q0 22-5.5 38.5T677 163q18 8 18 28 0 15-10 23l14 22h29l13-22q-9-8-9-23 0-20 18-28-9-16-15-33t-6-39q0-29 9.5-49.5T761 0h3q13 21 22 41.5t9 49.5q0 22-5.5 38.5T775 163q19 9 19 28 0 15-10 23l13 22h33v257l207 2 11-8 22-337h135l23 434-26 33H830v613zM762 147q7-11 10-25t4-31q-1-16-4-30t-10-26q-13 26-13 56 0 32 13 56zm-98 0q13-24 13-56 0-30-13-56-14 25-14 56 0 33 14 56zm-99 0q13-23 14-56-1-31-14-56-13 25-14 56 1 33 14 56zm-99 0q14-23 14-56 0-31-14-56-13 26-13 56 0 32 13 56zM140 616h114l90-18h847l17-24-21-405h-98l-21 332-17 14-305-3-413 20-60-27q-8 0-31 3.5t-36 3.5q-7 0-20-1t-25-2q-12-1-16-2l-3 17q16 6 38 8t31 2q4 0 19-.5l30-1 19-.5 8 46-124 10q-20-4-46-12.5T81 560l-61-42-11 15 54 48zm623-413q11 0 11-12t-11-12q-12 0-12 12t12 12zm-99 0q12 0 12-12 0-5-3.5-8.5T664 179q-5 0-8.5 3.5T652 191q0 12 12 12zm-98 0q11 0 11-12t-11-12q-12 0-12 12t12 12zm-99 0q12 0 12-12 0-5-4-8.5t-8-3.5q-4 0-8 3.5t-4 8.5q0 12 12 12zm-12 33h24l-9-14h-7zm296 0h23l-8-14h-7zm-99 0h24l-9-14h-6zm-99 0h24l-9-14h-6zm-133 41h390v-21H420zm0 233l164-8 208-206H420zm192-9l39-2 96-7 63 1V305zM439 674h371v-57H495zm-19-9l47-48h-47zm0 69h390v-41H420zm0 60h390v-41H420zm0 417h390V813H420z" fill="currentColor"/></svg>