<svg xmlns="http://www.w3.org/2000/svg" viewBox="0 0 595.3 584.6"><path d="M595.3.7v62.7h-20V516h20v68h-86.7v-68h20V78H71.3v437.9H328V182.6h46.7v333.3h18v68.7h-50v-22h-296v21.3H0v-68h24.7V63.3H0V0h71.3v31.3h454.6V.7h69.4zm-14.7 44.6V14.7h-37.3v30.7h-486V14.7H14.7v30.7h24.7v485.3H14.7v38.7H32v-21.3h328.6v22H378v-39.3h-17.3V197.3h-18v333.3H57.3V63.3h485.3v467.3h-19.3v38.7h57.3v-38.7h-20V45.3h20zM169.3 256H238l24.7-102.7H143.3l26 102.7zM300 122.7l-43.3 162.6H150l-41.3-162 191.3-.6zm7.3 347.9H96.7c8-81.3 43.1-122 105.3-122 62.2 0 97.3 40.7 105.3 122zm-24-22c-11.1-52-38.2-78-81.3-78-43.6 0-70.9 26-82 78h163.3z"/></svg>