<svg xmlns="http://www.w3.org/2000/svg" viewBox="-10 0 1339 1003"><path d="M174 1003V693H-10V254h76q-13-16-25-40t-12-52q0-45 36-84-19-3-31.5-11T21 45q0-16 19.5-30.5T96 0q40 0 63.5 22T183 82q0 22-11.5 41.5T147 160q-10 12-16 22.5t-6 18.5q0 13 9 28.5t18 24.5h102q-13-16-25-40t-12-52q0-45 36-84-19-3-31.5-11T209 45q0-16 19.5-30.5T284 0q40 0 63.5 22T371 82q0 22-11.5 41.5T335 160q-10 12-16 22.5t-6 18.5q0 13 9 28.5t18 24.5h102q-13-16-25-40t-12-52q0-45 36-84-19-3-31.5-11T397 45q0-16 19.5-30.5T472 0q40 0 63.5 22T559 82q0 22-11.5 41.5T523 160q-10 12-16 22.5t-6 18.5q0 13 9 28.5t18 24.5h102q-13-16-25-40t-12-52q0-45 36-84-19-3-31.5-11T585 45q0-16 19.5-30.5T660 0q40 0 63.5 22T747 82q0 22-11.5 41.5T711 160q-10 12-16 22.5t-6 18.5q0 13 9 28.5t18 24.5h102q-13-16-25-40t-12-52q0-45 36-84-19-3-31.5-11T773 45q0-16 19.5-30.5T848 0q40 0 63.5 22T935 82q0 22-11.5 41.5T899 160q-10 12-16 22.5t-6 18.5q0 13 9 28.5t18 24.5h102q-13-16-25-40t-12-52q0-45 36-84-19-3-31.5-11T961 45q0-16 19.5-30.5T1036 0q40 0 63.5 22t23.5 60q0 22-11.5 41.5T1087 160q-10 12-16 22.5t-6 18.5q0 13 9 28.5t18 24.5h102q-13-16-25-40t-12-52q0-45 36-84-19-3-31.5-11T1149 45q0-16 19.5-30.5T1224 0q40 0 63.5 22t23.5 60q0 22-12 41.5t-25 36.5q-9 12-15 22.5t-6 18.5q0 13 9 28.5t18 24.5h49v439h-184v310zm19-19h932V674h184V274h-36q-13-12-26.5-33t-13.5-40q0-13 8-26t18-27q11-15 21.5-32t10.5-34q0-28-18-45t-49-17q-26 0-40.5 8T1169 45q0 8 15.5 12.5T1223 62v16q-22 16-34.5 41t-12.5 43q0 30 19 61t42 51h-152q-13-12-26.5-33t-13.5-40q0-13 8-26t18-27q11-15 21.5-32t10.5-34q0-28-18-45t-49-17q-26 0-40.5 8T981 45q0 8 15.5 12.5T1035 62v16q-22 16-34.5 41T988 162q0 30 19 61t42 51H897q-13-12-26.5-33T857 201q0-13 8-26t18-27q11-15 21.5-32T915 82q0-28-18-45t-49-17q-26 0-40.5 8T793 45q0 8 15.5 12.5T847 62v16q-22 16-34.5 41T800 162q0 30 19 61t42 51H709q-13-12-26.5-33T669 201q0-13 8-26t18-27q11-15 21.5-32T727 82q0-28-18-45t-49-17q-26 0-40.5 8T605 45q0 8 16 12.5t38 4.5v16q-22 16-34.5 41T612 162q0 30 19 61t42 51H521q-13-12-26.5-33T481 201q0-13 8-26t18-27q11-15 21.5-32T539 82q0-28-18-45t-49-17q-26 0-40.5 8T417 45q0 8 16 12.5t38 4.5v16q-22 16-34.5 41T424 162q0 30 19 61t42 51H333q-13-12-26.5-33T293 201q0-13 8-26t18-27q11-15 21.5-32T351 82q0-28-18-45t-49-17q-26 0-40.5 8T229 45q0 8 16 12.5t38 4.5v16q-22 16-34.5 41T236 162q0 30 19 61t42 51H145q-13-12-26.5-33T105 201q0-13 8-26t18-27q11-15 21.5-32T163 82q0-28-18-45T96 20q-26 0-40.5 8T41 45q0 8 16 12.5T95 62v16q-22 16-34.5 41T48 162q0 30 19 61t42 51H9v400h184zM72 617V338h1174v279h-121V463H193v154zm20-19h82V444h971v154h82V358H92zm164 326V521h806v403zm20-20h767V540H276z" fill="currentColor"/></svg>