<svg xmlns="http://www.w3.org/2000/svg" viewBox="0 0 595.3 397.9"><path d="M574.6 306.7V157.2H20.7v149.5h27.2V179.2h501.5v128.1l25.2-.6zm-45.9 70.5V194.8H67.9v182.5h460.8zm-456.2-240c-1.7-3-3-9.7-3.9-20.1-.4-14.7 3.7-27.6 12.3-38.8 8.6-11.2 13.4-22.4 14.2-33.6-.9-22-10.4-33-28.5-33-15.1 0-22.9 4.3-23.3 12.9 0 5.2 3 7.3 9.1 6.5 9.1-.4 19.8.4 32.4 2.6l-7.1 8.4c-16.4 9.1-24.4 23.5-23.9 43.4 0 8.2 4.7 22.6 14.2 43.4l4.5 8.3zm78.9-2c-1.3-1.7-2.4-7.8-3.2-18.1-.4-14.7 3.7-27.6 12.3-38.8 8.6-11.2 13.4-22.4 14.2-33.6-.9-22-10.4-33-28.5-33-15.5 0-23.3 4.3-23.3 12.9 0 5.2 3 7.3 9.1 6.5 9.1-.4 19.8.4 32.4 2.6l-7.1 8.4c-16.4 9.1-24.4 23.5-23.9 43.4 0 8.2 4.7 22.6 14.2 43.4l3.8 6.3zm77 2l-3.2-20.1c-.4-14.7 3.7-27.6 12.3-38.8 8.6-11.2 13.4-22.4 14.2-33.6-.9-22-10.4-33-28.5-33-15.5 0-23.3 4.3-23.3 12.9 0 5.2 3 7.3 9.1 6.5 9.1-.4 19.8.4 32.4 2.6l-7.1 8.4c-16.4 9.1-24.4 23.5-23.9 43.4 0 8.2 4.7 22.6 14.2 43.4 1.7 5 3 7.8 3.8 8.3zm234.3 0c-3.5-3-5.6-9.7-6.5-20.1-.4-14.7 3.7-27.7 12.3-39.1 8.6-11.4 13.4-22.5 14.2-33.3-.8-22.5-10.3-33.7-28.5-33.7-15.5 0-23.3 4.3-23.3 12.9 0 5.2 3 7.3 9.1 6.5 9.1 0 19.8 1.1 32.4 3.2l-7.1 8.4c-16.4 9.1-24.4 23.3-23.9 42.7 0 8.6 4.7 23.1 14.2 43.4.8 3 3.2 6.1 7.1 9.1zm-404.5 0c-11.6-23.3-17.5-40.5-17.5-51.8 0-15.1 4.3-29.5 12.9-43.4-12.1.4-20.5-5.4-25.2-17.5C33.2 9.9 45.9 1.7 66.6 0c26.3 0 39.5 14.9 39.5 44.6-2.6 17.3-7.7 31-15.2 41.1s-11.1 20.6-10.7 31.4c1.7 9.5 4.1 16.2 7.1 20.1h50.5c-11.6-23.3-17.5-40.5-17.5-51.8 0-15.1 4.3-29.5 12.9-43.4-12.1.4-20.5-5.4-25.2-17.5C112.8 9.9 125.5 1.7 146.2 0c26.3 0 39.5 14.9 39.5 44.6-2.6 17.3-7.7 31-15.2 41.1-7.5 10.1-11.1 20.6-10.7 31.4 1.7 9.5 4.1 16.2 7.1 20.1h47.9c-11.6-23.3-17.5-40.5-17.5-51.8 0-15.1 4.3-29.5 12.9-43.4-12.1.4-20.5-5.4-25.2-17.5C189.8 9.9 202.5 1.7 223.2 0c26.3 0 39.5 14.9 39.5 44.6-2.6 17.3-7.7 31-15.2 41.1-7.5 10.1-11.1 20.6-10.7 31.4 1.7 9.5 4.1 16.2 7.1 20.1h47.9c-11.6-23.3-17.5-40.8-17.5-52.4 0-14.7 4.3-28.9 12.9-42.7-11.6.4-19.8-5.6-24.6-18.1C267.5 9.3 280 1.3 300.2 0c26.7 0 40.1 14.9 40.1 44.6-3 17.3-8.3 31-15.9 41.1-7.5 10.1-10.9 20.6-10 31.4 1.3 9.5 3.7 16 7.1 19.4h46.6c-11.6-22.9-17.5-40.1-17.5-51.8 0-14.7 4.3-28.9 12.9-42.7-11.6.4-19.8-5.6-24.6-18.1C343.8 9.3 356.3 1.3 376.6 0c26.7 0 40.1 14.9 40.1 44.6-2.6 17.3-7.7 31-15.2 41.1-7.5 10.1-11.1 20.6-10.7 31.4 1.3 9.5 3.7 16 7.1 19.4h47.9c-11.6-22.9-17.5-40.1-17.5-51.8 0-14.7 4.3-28.9 12.9-42.7-12.1.4-20.5-5.6-25.2-18.1C420.8 9.3 433.5 1.3 454.2 0c26.3 0 39.5 14.9 39.5 44.6-2.6 17.3-7.7 31-15.2 41.1-7.5 10.1-11.1 20.6-10.7 31.4 1.7 9.5 4.1 16 7.1 19.4h47.9c-11.6-22.9-17.5-40.1-17.5-51.8 0-14.7 4.3-28.9 12.9-42.7-12.1.4-20.5-5.6-25.2-18.1C497.8 9.3 510.5 1.3 531.2 0c26.3 0 39.5 14.9 39.5 44.6-2.6 17.3-7.7 31-15.2 41.1-7.5 10.1-11.1 20.6-10.7 31.4 1.7 9.5 4.1 16 7.1 19.4h43.4v190.9h-45.9v70.5H47.9v-70.5H0V137.2h58.2zm246.6 0c-.9-6-1.7-12.7-2.6-20.1-.4-14.7 3.8-27.7 12.6-39.1 8.8-11.4 13.5-22.5 13.9-33.3-.9-22.5-10.3-33.7-28.5-33.7-15.1 0-22.9 4.3-23.3 12.9 0 5.2 3 7.3 9.1 6.5 9.1 0 19.8 1.1 32.4 3.2l-7.1 8.4c-16.4 9.1-24.2 23.3-23.3 42.7 0 8.6 4.7 23.1 14.2 43.4l2.6 9.1zm78.3 0c-2.2-3-3.7-9.7-4.5-20.1-.4-14.7 3.8-27.7 12.6-39.1 8.8-11.4 13.5-22.5 13.9-33.3-.9-22.5-10.4-33.7-28.5-33.7-15.1 0-22.9 4.3-23.3 12.9.4 5.2 3.7 7.3 9.7 6.5 8.6 0 19.2 1.1 31.7 3.2l-6.5 8.4c-16.8 9.1-24.8 23.3-23.9 42.7 0 8.6 4.7 23.1 14.2 43.4l4.6 9.1zm154.6 0l-4.5-20.1c-.4-14.7 3.7-27.7 12.3-39.1 8.6-11.4 13.4-22.5 14.2-33.3-.8-22.5-10.3-33.7-28.5-33.7-15.5 0-23.3 4.3-23.3 12.9 0 5.2 3 7.3 9.1 6.5 9.1 0 19.8 1.1 32.4 3.2l-7.1 8.4c-16.4 9.1-24.4 23.3-23.9 42.7 0 8.6 4.7 23.1 14.2 43.4l5.1 9.1zM517 22.6h22c-13.4-9.9-20.7-9.9-22 0zm-464.6 0h22c-13.4-9.9-20.7-9.9-22 0zm79.6 0h22c-13.4-9.9-20.7-9.9-22 0zm77 0h21.4c-13.4-9.9-20.5-9.9-21.4 0zm77 0h22c-13.4-9.9-20.7-9.9-22 0zm76.4 0h22c-13.4-9.9-20.7-9.9-22 0zm77.6 0h22c-13.4-9.9-20.7-9.9-22 0z"/></svg>