<svg xmlns="http://www.w3.org/2000/svg" viewBox="0 0 582.2 468.3"><path d="M540.5 448.8V169.5h-494v279.3h122.3v-24.3h-100V191.8H519v232.1H419v25h121.5zM47.2 147.3c-1.9-2.8-3.5-9.7-4.9-20.8 0-15.7 4.6-29.8 13.9-42s14.4-24.2 15.3-35.8C70.6 24.5 60.4 12.5 41 12.5c-16.7 0-25.2 4.6-25.7 13.9.5 5.6 3.9 7.9 10.4 6.9 9.3 0 20.8 1.2 34.7 3.5l-7.6 9c-17.6 9.7-26.2 25-25.7 45.9 0 9.3 5.1 24.8 15.3 46.6l4.8 9zm84.8-1.4c-1.4-1.9-2.8-8.3-4.2-19.5-.5-15.7 4.1-29.8 13.5-42s14.5-24.2 14.9-35.8c-.5-24.1-10.4-36.1-29.9-36.1-16.7 0-25.2 4.6-25.7 13.9.5 5.6 3.9 7.9 10.4 6.9 9.3 0 20.8 1.2 34.7 3.5l-7.6 9c-17.6 9.7-26.2 25-25.7 45.9 0 9.3 5.1 24.8 15.3 46.6l4.3 7.6zm82.7 1.4l-4.2-20.8c-.5-15.7 4.1-29.8 13.5-42 9.5-12.3 14.5-24.2 14.9-35.8-.5-24.1-10.4-36.1-29.9-36.1-16.7 0-25.2 4.6-25.7 13.9.5 5.6 3.9 7.9 10.4 6.9 9.3 0 20.8 1.2 34.7 3.5l-7.6 9c-17.6 9.7-26.2 25-25.7 45.9 0 9.3 5.1 24.8 15.3 46.6 2 5.4 3.4 8.4 4.3 8.9zm251.5 0c-3.7-2.8-6.3-9.7-7.6-20.8-.5-16.2 4.1-30.3 13.5-42.4 9.5-12 14.5-24.1 14.9-36.1-.5-23.6-10.4-35.4-29.9-35.4-16.7 0-25.2 4.6-25.7 13.9.5 5.6 3.9 7.9 10.4 6.9 9.3-.5 20.8.5 34.7 2.8l-7.6 9c-17.6 9.7-26.2 25.2-25.7 46.6 0 8.8 5.1 24.3 15.3 46.6 1 3.1 3.5 6.1 7.7 8.9zm97.3 0v321h-164v-66.7h96.6V214.7H91v186.9h97.3v66.7H23.6v-321H32c-12.5-24.5-18.8-43.1-18.8-55.6 0-15.7 4.6-31 13.9-45.9-13 .5-22-6-27.1-19.5C5.1 10.7 18.8 2.1 41 .7c28.3 0 42.4 16 42.4 47.9-2.8 18.6-8.2 33.3-16.4 44.2s-11.9 22.1-11.5 33.7c1.9 10.2 4.4 17.1 7.6 20.8h54.2c-13-24.5-19.5-43.1-19.5-55.6 0-15.7 4.9-31 14.6-45.9-13 .5-22-6-27.1-19.5C90.4 10.6 104.1 2 126.3.6c28.3 0 42.4 16 42.4 47.9-2.8 18.5-8.2 33.2-16.3 44.1-8.1 10.9-11.9 22.1-11.5 33.7 1.9 10.2 4.4 17.1 7.6 20.8h51.4c-13-24.5-19.5-43.1-19.5-55.6 0-15.7 4.9-31 14.6-45.9-13 .5-22-6-27.1-19.5 5.1-15.7 18.8-24.3 41-25.7 28.3 0 42.4 16 42.4 47.9-2.8 18.5-8.2 33.2-16.3 44.1-8.1 10.9-11.9 22.1-11.5 33.7 1.9 10.2 4.4 17.1 7.6 20.8h51.4c-12.5-25-18.8-43.5-18.8-55.6 0-16.2 4.6-31.5 13.9-45.9-13 0-21.8-6.5-26.4-19.5 4.6-15.7 18.1-24.5 40.3-26.4 28.3 0 42.4 16 42.4 47.9-2.8 18.5-8.2 33.3-16.3 44.5-8.1 11.1-11.7 22.2-10.8 33.3 1.4 10.2 3.9 17.4 7.6 21.5h50c-12.5-25-18.8-43.5-18.8-55.6 0-16.2 4.6-31.5 13.9-45.9-12.5 0-21.3-6.5-26.4-19.5 5.5-15 18.9-23.8 40.7-25.7 28.7 0 43.1 16 43.1 47.9-3.2 18.5-8.9 33.3-17 44.5-8.1 11.1-11.7 22.2-10.8 33.3 1.4 10.2 3.9 17.4 7.6 21.5h51.4c-13-25-19.5-43.5-19.5-55.6 0-16.2 4.9-31.5 14.6-45.9-13 0-22-6.5-27.1-19.5 5.1-15.7 18.8-24.5 41-26.4 28.3 0 42.4 16 42.4 47.9-2.8 18.5-8.2 33.3-16.3 44.5-8.1 11.1-11.9 22.2-11.5 33.3 1.9 10.2 4.4 17.4 7.6 21.5h51.4c-13-25-19.5-43.5-19.5-55.6 0-16.2 4.9-31.5 14.6-45.9-13 0-22-6.5-27.1-19.5 5.1-15.7 18.8-24.5 41-26.4 28.3 0 42.4 16 42.4 47.9-2.8 18.5-8.2 33.3-16.3 44.5-8.1 11.1-11.9 22.2-11.5 33.3 1.9 10.2 4.4 17.4 7.6 21.5h1.6zm-266.8 0c-.9-6-1.9-13-2.8-20.8-.5-16.2 4.1-30.3 13.5-42.4 9.5-12 14.5-24.1 14.9-36.1-.9-23.6-11.1-35.4-30.6-35.4-16.2 0-24.5 4.6-25 13.9 0 5.6 3.2 7.9 9.7 6.9 9.7-.5 21.3.5 34.7 2.8l-7.6 9c-17.6 9.7-26.2 25.2-25.7 46.6 0 8.8 5.1 24.3 15.3 46.6l3.6 8.9zm84 0c-2.3-2.8-3.9-9.7-4.9-20.8-.5-16.2 4.1-30.3 13.5-42.4 9.5-12 14.5-24.1 14.9-36.1-.9-23.6-11.1-35.4-30.6-35.4-16.2 0-24.5 4.6-25 13.9 0 5.6 3.2 7.9 9.7 6.9 9.7-.5 21.3.5 34.7 2.8l-7.6 9c-17.6 9.7-25.9 25.2-25 46.6 0 8.8 4.9 24.3 14.6 46.6l5.7 8.9zm165.4 0l-4.9-20.8c-.5-16.2 4.1-30.3 13.5-42.4 9.5-12 14.5-24.1 14.9-36.1-.5-23.6-10.4-35.4-29.9-35.4-16.7 0-25.2 4.6-25.7 13.9.5 5.6 3.9 7.9 10.4 6.9 9.3-.5 20.8.5 34.7 2.8l-7.6 9c-17.6 9.7-26.2 25.2-25.7 46.6 0 8.8 5.1 24.3 15.3 46.6l5 8.9zm-21.5-123h23.6c-14.8-10.2-22.7-10.2-23.6 0zm-498.9 0h23.6c-14.3-10.2-22.2-10.2-23.6 0zm85.5 0h23.6c-14.4-10.2-22.2-10.2-23.6 0zm82 0h23.6c-14.4-10.2-22.3-10.2-23.6 0zm83.3 0h23.6c-14.8-10.2-22.6-10.2-23.6 0zm82 0h23.6c-14.3-10.2-22.2-10.2-23.6 0zm83.4 0h23.6c-14.8-10.2-22.7-10.2-23.6 0z"/></svg>