<svg xmlns="http://www.w3.org/2000/svg" viewBox="-10 0 1128 1227"><path d="M-10 1227l60-93h59V467q-14-2-20.5-13T82 432q0-14 7.5-23.5T111 398L49 290h-4v-54h43l-5-22.5-3-31.5q0-27 10.5-58.5t34-59.5q23.5-28 63-46T285 0q47 0 95.5 10.5T473 36q44 15 76 26l492 174h23v54h-4l-63 108q29 3 29 34 0 11-7 22t-20 13v667h59l60 93zm119-991h873L542 80q-31-11-73.5-25.5t-90-25Q331 19 285 19q-52 0-88 16t-57 41q-21 25-30.5 53.5T100 182q0 19 3.5 33t5.5 21zm-44 35h980v-15H65zm68 126h843q16-27 31-53t30-54H71zm-17 51h876q7 0 10.5-5t3.5-11q0-15-14-15H116q-15 0-15 15 0 6 4 11t11 5zm-90 760h1056l-35-54h-68V468h-24v686H152V468h-23v686H61zm146-74h764V468H172z" fill="currentColor"/></svg>