<svg xmlns="http://www.w3.org/2000/svg" viewBox="-10 0 1406 1227"><path d="M-10 1227l60-93h56V728l-85-34 8-19 77 31v-78l-85-35 8-18 77 31V489l-85-35 8-18 77 31v-78l-85-35 8-18 77 31V25h20v350l155 63V25h19v421l151 61v-40q-14-2-21-13t-7-22q0-14 8-23.5t22-10.5l-62-108h-4v-54h43q-3-9-5.5-22.5T422 182q0-27 10.5-58.5t34-59.5q23.5-28 63-46T627 0q46 0 95 12t93 28q44 16 76 28l428 168h23v54h-4l-63 108q29 3 29 34 0 11-6.5 22t-20.5 13v667h59l60 93zm461-991h820L884 87q-31-12-74-28t-90.5-28Q672 19 627 19q-52 0-88 16t-57.5 41q-21.5 25-31 53.5T441 182q0 19 3.5 33t6.5 21zm-45 35h917v-15H406zm69 126h779q16-27 31-53t31-54H413zM281 538v-79l-155-62v78zm177-90h812q7 0 11-5t4-11q0-15-15-15H458q-15 0-15 15 0 6 4 11t11 5zm-7 159v-79l-151-61v79zM26 1208h1334l-35-54h-68V468h-24v686H494V468h-24v686H61zm488-74h700V468H514zM281 677V559l-155-62v117zm170 69V628l-151-61v118zm-170 31v-79l-155-62v78zm170 69v-79l-151-61v79zm-325 288h155V799l-155-63zm174 0h151V867l-151-61z" fill="currentColor"/></svg>