<svg xmlns="http://www.w3.org/2000/svg" viewBox="0 0 589.8 572.3"><path d="M556.5 517.8h33.3v54.5H0l33.3-54.5h37.5v-166l-48.4-14.5v-18.8l48.4 15.1v-22.4l-48.4-15.1v-18.8l48.4 15.1v-50.3l-46.6-14.5v-18.2l46.6 14.5v-23l-46.6-14.5v-18.2l46.6 13.9V0h21.8v188.9l56.9 15.7V0h21.8v210.7l47.8 12.7v-23h-23.6c12.9-68.6 72-96.5 177.1-83.6 105.2 12.9 174.7 35.3 208.6 67.2 9.3 9.3 8.5 14.7-2.4 16.4h-22.4v317.4zM545 182.3c-97.3-33.1-173.7-47.3-229.2-42.7-55.5 4.6-83.9 18.1-85.1 40.3l314.3 2.4zm-12.1 336.1v-318H242.8v317.9h290.1zM219.2 264.6v-23l-47.8-12.7v23l47.8 12.7zm-69.6-18.7v-23l-56.9-15.7v23l56.9 15.7zm69.6 87.2v-50.3l-47.8-12.1v49.7l47.8 12.7zm350.6 221.6v-18.8h-522l-12.1 18.8h534.1zM149.6 314.3v-49.7l-56.9-16.4v50.3l56.9 15.8zm69.6 59.9v-23l-47.8-12.1v22.4l47.8 12.7zm-69.6-18.7v-23l-56.9-15.7v22.4l56.9 16.3zm69.6 162.9v-126l-47.8-12.7v138.1l47.8.6zm-69.6-.6V373.6l-56.9-15.7v160.5l56.9-.6z"/></svg>