<svg xmlns="http://www.w3.org/2000/svg" viewBox="-10 0 909 1134"><path d="M-10 1134l94-107h18V888q0-10 3.5-19.5T126 859q17 0 20.5 9.5T150 888v139h12V888q0-10 3.5-19.5T186 859q17 0 20.5 9.5T210 888v139h12V888q0-10 3.5-19.5T246 859q17 0 20.5 9.5T270 888v139h11V471q-23-5-53.5-16T166 430q-38-19-65.5-39.5T73 356q0-8 5-14.5t18-6.5q7 0 15 5.5t19 12.5q24 16 57 34 22 11 49 21t45 15v-16q-21-6-46-15t-49-21q-38-19-66-39.5T92 297q0-8 4.5-14.5T115 276q7 0 15.5 5t19.5 13q11 8 26 16.5t31 17.5q16 8 36.5 16.5T281 358v-15q-14-5-28-11t-28-13q-38-19-66-39t-28-34q0-9 5-15.5t18-6.5q7 0 15.5 5.5T189 243q10 7 25 15.5t32 17.5q7 4 16.5 8t18.5 8v-36h21q-3-20-13-37t-23-29H161v-73h58q27 0 53-13.5T325 72q38-23 88-47.5T530 0q67 0 117 24.5T734 72q28 18 53.5 31.5T840 117h59v73H794q-13 12-23.5 29T757 256h21v771h108v107zm190-964h699v-33h-39q-32 0-59.5-14.5T724 89q-37-24-82.5-46.5T530 20q-67 0-112 22.5T336 89q-30 19-57.5 33.5T219 137h-39zm142 86h416q1-18 9.5-35t19.5-31H293q24 29 29 66zm-41 68v-13q-23-9-43-20-38-19-59-34-10-6-16.5-10.5T154 242q-5 0-5 4 0 9 25 25.5t59 32.5q12 5 24 10.5t24 9.5zm20 703h32V313h393v714h32V276H301zm-20-638v-12q-18-5-40.5-14.5T199 343q-20-10-34-18.5T140 309q-10-7-16.5-11.5T115 293q-5 0-5 4 0 10 25 25.5t58 32.5q22 11 45 19.5t43 14.5zm72 638h354V333H353zm-72-574v-12q-18-4-47.5-15T179 402q-19-10-33.5-18.5T121 368q-22-15-25-15-6 0-6 3 0 10 25 26t59 32q29 14 57 24t50 15zm-160 574h10V887q0-9-5-9t-5 9zm60 0h10V887q0-9-5-9t-5 9zm60 0h11V887q0-9-6-9-5 0-5 9zm-206 88h832v-69H95z" fill="currentColor"/></svg>