<svg xmlns="http://www.w3.org/2000/svg" viewBox="-10 0 903 1117"><path d="M-10 482V0h903v482H600v-66h221V77H61v339h222v66zm19-19h254v-27H42V57h799v379H619v27h254V20H9zm377 654l34-441-202 15v-81l194 28-13-25q-28-53-52.5-105T306 406.5Q290 357 290 314q0-37 17-69t50.5-51.5Q391 174 441 174t84 19.5q34 19.5 51 51.5t17 69q0 43-16 92.5T536 508q-25 52-52 105-6 15-13 25l194-28v81l-203-15 35 441zm52-475l-30-67q-17-38-33-84.5t-27-92Q337 353 337 317q0-40 30-67t74-27q44 0 75 27t31 67q0 38-11 83.5t-28 92Q491 539 473 580l-28 62 3-1q15-24 36-63.5t41.5-86q20.5-46.5 34-93T573 314q0-47-33-84t-99-37q-65 0-98 37t-33 84q0 38 13.5 84t33.5 91.5q20 45.5 41 85.5t37 66zm3-35l15-30q19-40 35.5-86.5T518 399q10-45 10-82 0-32-25.5-53T441 243q-35 0-60 21t-25 53q0 36 10.5 81t26.5 91q16 46 33 83zm-203 63l173-13-173-25zm407 0v-38l-170 25zm-238 428h69q-3-46-7.5-103t-9-116q-4.5-59-9-112.5T443 674h-3z" fill="currentColor"/></svg>