<svg xmlns="http://www.w3.org/2000/svg" viewBox="-10 0 903 1161"><path d="M-10 482V0h903v482H600v-66h221V77H61v339h222v66zm19-19h254v-27H42V57h799v379H619v27h254V20H9zm438 698q-25 0-41.5-18.5T389 1105q0-11 1.5-43.5T396 949l21-432q-21-8-43.5-28.5t-38.5-55Q319 399 319 348q0-58 25-88t69-33v-39h69v39q43 3 68 33t25 88q0 51-16 85.5t-38.5 55Q498 509 477 517l22 432q3 79 4.5 112t1.5 44q0 19-16 37.5t-42 18.5zm0-657q16 0 41.5-15t46-49q20.5-34 20.5-92 0-105-93-105v-35h-30v35q-45 0-69.5 26T338 348q0 43 12.5 73t30.5 48.5q18 18.5 36 26.5t30 8zm0 638q16 0 27-12t11-25q0-11-1.5-43.5T479 950l-21-427q-3 0-5.5.5t-5.5.5q-3 0-5.5-.5t-5.5-.5l-20 427q-4 79-6 111.5t-2 43.5q0 13 11.5 25t27.5 12z" fill="currentColor"/></svg>