<svg xmlns="http://www.w3.org/2000/svg" viewBox="0 0 505.9 660"><path d="M505.9 269.9H351.8v-28.6h124.8v-212H29.3v212h124.8v28.6H0V0h505.9v269.9z"/><path d="M223.7 64.9v27.6c-25 6-45.2 25.4-43.7 90.1 1 40.9 27 80 48.9 87.9l-6 389.5h61.2l-11.4-388.3c34.1-9.1 49.5-58.6 50.5-88.9 2.1-65.4-24.8-85.1-47.1-91.1V64.9h-52.4zm18.9 18.9h14.6v26.5c9.6-.3 15.6-.4 20.3 1.6 25.5 9.1 27.3 48.4 26.3 70.3-1.3 30.2-16.4 65.3-39.2 71-9.3 2.7-20.9 3-30.1-.8-15.7-7-35.4-42.4-35.4-69.8 0-44.4 6.9-62.7 25.1-70.7 5.9-2.4 12.2-1.5 18.4-1.7V83.8zm7.5 196.7L260 482l-14.3-.1 4.4-201.4zm-4.8 220.7l15.3.1.4 16.7h-16.1l.4-16.8zm16.3 35.7l.4 11.8h-17.7l.3-11.8h17zm.9 31l.5 17.8-19.6.2.4-18.3 18.7.3zm1 36.8l1.1 36.4h-22.5l.9-36.1 20.5-.3z"/></svg>