<svg xmlns="http://www.w3.org/2000/svg" viewBox="-10 0 743 1153"><path d="M-10 1153V0H96v205Q208 75 362 75q155 0 265 130V0h106v1153zm19-19h705V19h-67v1047H77V19H9zm87-773q27-37 63-70t85.5-53.5Q294 217 362 217q67 0 116.5 20.5t85.5 53q36 32.5 63 70.5V236q-26-35-65.5-67t-90-53Q421 95 362 95q-60 0-110.5 21t-90 53.5Q122 202 96 237zm6 26h519q-26-38-60-72.5T478 258q-49-22-116-22t-116 22q-49 22-83.5 56.5T102 387zm-6 86h531v-67H96zm0 86h531v-67H96zm0 488h256V578H96zm276 0h255V578H372z" fill="currentColor"/></svg>