<svg xmlns="http://www.w3.org/2000/svg" viewBox="0 0 347.3 594.5"><path d="M307.7 577.7c-2.2-10.3-7.8-18.4-16.8-24.2H56.4c-9.4 5.8-15.2 13.9-17.5 24.2h268.8zM213 532.1l-6-233.8h-67.2l-6 233.8H213zm11.4-251.3l8.1 251.2h54.4L272.1 90H74.6L59.8 532h54.4l8.1-251.2h102.1zm48.3-218.3l13.4-40.3H60.5l13.4 40.3h198.8zM7.4 594.5c-.4-12.5 3.9-25.2 13.1-38s14.4-25.9 15.8-39.3L50.4 89.3c-3.1-25.5-10.5-47.9-22.2-67.2H14.8C4.9 22.2 0 18.4 0 10.7 0 3.6 4.9 0 14.8 0h317.1c10.3 0 15.5 3.6 15.5 10.7 0 7.6-5.2 11.4-15.5 11.4h-13.4c-11.6 19.3-19 41.7-22.2 67.2l14.1 427.9c1.3 13.4 6.6 26.5 15.8 39.3 9.2 12.8 13.5 25.4 13.1 38H7.4z"/></svg>