<svg xmlns="http://www.w3.org/2000/svg" viewBox="-10 0 1164 938"><path d="M572 938q-39 0-62-66.5T487 695q0-72 9.5-145T518 414.5Q530 352 538 310q-20-6-34.5-21.5T484 252q-3-17-12-36.5T450 181q-10-10-29.5-22.5T388 141q-83 17-154 45.5T111 246v681H-10V180Q124 97 264.5 48.5T572 0q167 0 307.5 48.5T1154 180v747h-121V246q-52-31-123-59.5T756 141q-13 5-33 17.5T693 181q-14 15-22 34.5T659 252q-4 21-19 36.5T606 310q8 42 20 104.5T647.5 550q9.5 73 9.5 145 0 110-23 176.5T572 938zM9 908h82V235q55-34 130.5-64t165-49.5Q476 102 572 102t185.5 19.5Q847 141 922 171t130 64v673h82V190q-128-78-263.5-124T572 20q-162 0-298.5 46T9 190zm563 11q25 0 45-60t20-164q0-51-6-108t-15-113q-9-56-18-103t-16-78q23-2 39-15t19-29q4-20 13.5-42t25.5-39q8-8 20-16.5t25-16.5q-37-7-75-10.5t-77-3.5q-77 0-152 14 13 8 25 16.5t20 16.5q16 17 25.5 39t13.5 42q3 16 19 29t39 15q-7 31-16.5 78T527 474q-9 56-15 113t-6 108q0 104 20.5 164t45.5 60z" fill="currentColor"/></svg>