<svg xmlns="http://www.w3.org/2000/svg" viewBox="0 0 581.8 515.9"><path d="M291.2 156.1c-8.9 64-14.7 107.1-17.3 129.3-1.3 15.1-2 40.7-2 76.6 0 24 .9 46 2.7 66 3.1 20 8.7 39.5 16.7 58.6 8-19.1 13.6-38.7 16.7-58.6 1.8-19.5 2.7-41.3 2.7-65.3 0-36.4-.9-62-2.7-76.6-2.3-22.7-7.9-66.1-16.8-130zm-.6-137.3C255.5 17 210 22.7 154 35.8S52.6 64.1 18 81.4v416.5h26V96.1c44.9-21.8 88.3-37.2 130.3-46.3 42-9.1 80.7-13.4 116.3-13h.7c36-.4 75 4 117 13.3s85.4 24.7 130.3 46V498h25.3V81.4c-34.2-16.9-79.4-31.9-135.6-45-56.2-13.1-101.9-18.8-137-17l-.7-.6zm.6 35.3c-26.2 0-47.1 2.2-62.6 6.7 16.4 28.9 37.3 50.6 62.6 65.3v.7c24.9-14.7 45.8-36.4 62.6-65.3-15.9-5-36.8-7.4-62.6-7.4zm0 461.2c-5.3 0-9.8-1.8-13.3-5.3-16.4-35.1-24.7-84.4-24.7-147.9-1.8-52.4 4.9-127.3 20-224.6-21.8-16.4-39.5-37.3-53.3-62.6l-18-12C122 80.1 74.9 96.3 60.6 111.4v404.5H0V64.1c63.5-24.4 119.1-41.4 166.6-51S255.7-.8 291.2.1c35.1-.4 76.5 4 124.3 13.3s103.2 26.4 166.3 51.3v451.2h-60.6V111.4C507 96.7 459.9 80.5 379.9 62.8l-18 12c-13.8 25.8-31.5 46.9-53.3 63.3 15.1 97.3 22 172.2 20.7 224.6-.4 63.5-8.7 112.8-24.7 147.9-4 3.6-8.4 5.3-13.3 5.3v-.6z"/></svg>