<svg xmlns="http://www.w3.org/2000/svg" viewBox="0 0 524 457.9"><path d="M193.5 291c-11.7 0-20.1 8.4-25.1 25.1-5 16.7-11.6 28.2-19.9 34.6-8.3 6.4-18.1 9.6-29.5 9.6s-17.2 14.1-17.6 42.4H177V354c0-17.9 5-26.9 15-26.9 6.2.3 9.3-6 9.3-19.1 0-11.3-2.6-17-7.8-17zm35.7 111.6V84.8c-7.6 0-10.3-4.1-8.3-12.4 2.1-7.2 4.5-15.5 7.2-24.8-3.1-6.5-12.3-12.3-27.6-17.3s-32.6-9.4-51.9-13.2c-48.2 0-83 8.3-104.4 24.8 2.8 9.3 5.3 17.6 7.8 24.8 1.7 8.3-1 12.4-8.3 12.4v323.5H85c.3-39.3 11-58.8 32-58.6 21 .2 33.6-11.4 37.7-34.6 4.1-23.3 15.7-34.9 34.6-34.9 18.9 0 28.4 9.1 28.4 27.4v15.5c0 17.9-4.1 26.9-12.4 26.9-7.9 0-11.9 3.3-11.9 9.8v48.6h35.8zm48 0V84.8c-7.6 0-10.3-4.1-8.3-12.4 2.1-7.2 4.5-15.5 7.2-24.8-3.4-4.1-8.1-6.2-14-6.2s-10.7 2.1-14.5 6.2c2.8 9.3 5.3 17.6 7.8 24.8 2.1 8.3-.7 12.4-8.3 12.4v317.8h30.1zm53.8 0V354c0-6.5-4.1-9.8-12.4-9.8-7.9 0-11.9-9-11.9-26.9v-15.5c0-18.3 9.3-27.4 27.9-27.4 18.9 0 30.6 11.6 34.9 34.9 4.3 23.3 17 34.8 38 34.6 21-.2 31.5 19.4 31.5 58.6h41.9V79.1c-7.6 0-10.3-4.1-8.3-12.4 2.1-7.2 4.5-15.5 7.2-24.8-21-16.5-55.6-24.8-103.9-24.8-19.6 3.8-37 8.2-52.2 13.2-15.2 5-24.3 10.8-27.4 17.3 2.8 9.3 5.2 17.6 7.2 24.8 2.1 8.3-.7 12.4-8.3 12.4v317.8H331zm0-111.6c-5.2 0-7.8 5.7-7.8 17.1 0 13.1 3.1 19.5 9.3 19.1 10 0 15 9 15 26.9v48.6h74.9c0-28.2-5.7-42.4-17.1-42.4-11.7 0-21.6-3.2-29.7-9.6-8.1-6.4-14.7-17.9-19.9-34.6-5.1-16.8-13.4-25.1-24.7-25.1zm161.2 149.3l-6.7-20.2H39l-7.2 20.2h460.4zm-230-412.8c23.4-2.8 43-7.3 58.6-13.7 15.7-6.4 34-10.9 55-13.7 53.4-1 102 9.3 145.7 31 3.1 2.8 3.1 5.3 0 7.8-4.1 2.1-11.4 3.1-21.7 3.1 2.8 9.3 5.2 17.6 7.2 24.8 2.1 8.3-.7 12.4-8.3 12.4v323.5l18.6 55.3H7l18.6-55.3V79.1c-7.6 0-10.5-4.1-8.8-12.4 2.4-7.2 5-15.5 7.8-24.8-10.7 0-18.1-1-22.2-3.1-3.1-2.4-3.1-5 0-7.8C46.4 9.4 95.2-1 148.6.1c21 2.8 39.3 7.3 54.8 13.7s35.1 10.9 58.8 13.7z"/></svg>