<svg xmlns="http://www.w3.org/2000/svg" viewBox="-10 0 1475 1149"><path d="M-10 1149l73-137h29V247q-5-6-13.5-21T70 203q0-8 4.5-23t8.5-26H34V92h101q10-5 21-10t23-10q50-23 114-47.5T433 0q46 0 89 16.5T598 57q33 24 53 47h153q19-23 53-47t76-40.5Q975 0 1022 0q76 0 140.5 24.5T1276 72q12 5 23 10t21 10h101v62h-49q4 11 8.5 26t4.5 23q0 8-9 23t-13 21v765h30l72 137zM631 146h193q19-22 50.5-46T944 59.5Q982 43 1021 43q49 0 98 13.5t91.5 32Q1253 107 1285 123l23 12h93v-23h-84q-10-5-23-11t-26-11q-48-23-110.5-46.5T1022 20q-47 0-88 16.5T862 77q-31 24-48 46H642q-17-22-48-46t-72-40.5Q481 20 433 20q-73 0-135 23.5T187 90q-13 5-25.5 11T138 112H54v23h94l22-12q31-16 74.5-34.5t92.5-32Q386 43 435 43q38 0 76 16.5t69 40.5q31 24 51 46zm-476 866h90q0-30 5.5-57.5T279 906q25-23 58-36.5t59-35.5q14-12 28-34.5t33-50.5q12-18 34-36.5t57-18.5q16 0 29 4.5t20 8.5v161h-47v144h70V249q-5-6-13-21t-8-23q0-8 4.5-24t7.5-26q-12-14-37.5-36t-61-39.5Q477 62 435 62q-49 0-96 13.5t-88.5 32Q209 126 179 141l-16 8q3 9 8.5 27t5.5 27q0 8-9 23.5T155 247zm680 0h70V868h-47V707q7-4 20-8.5t29-4.5q34 0 56.5 18.5T999 749q18 28 32 50.5t28 34.5q26 22 59.5 35.5T1176 906q24 21 29 48.5t5 57.5h90V247q-4-5-13-20.5t-9-23.5q0-9 5.5-26.5t9.5-27.5l-17-8q-31-15-72-33.5t-88-32Q1069 62 1021 62q-42 0-78 17.5T881 119q-26 22-38 36 4 10 9 26t5 24q0 8-9 23t-13 21zm484 0h25V239q7-9 14-20.5t7-15.5q0-8-5-24t-8-25h-41q-3 9-8 25t-5 24q0 4 7 15.5t14 20.5zm-1208 0h25V239q7-9 14-20.5t7-15.5q0-8-5-24t-8-25h-41q-3 9-8 25t-5 24q0 4 7 15.5t14 20.5zm680 0h25V241q7-9 14-20.5t7-15.5q0-5-3.5-16.5T827 166h-48q-3 11-6 22.5t-3 16.5q0 4 7 15.5t14 20.5zm-107 0h88V249q-4-5-13-20.5t-9-23.5q0-6 2.5-17t6.5-22h-64q4 11 7 22t3 17q0 8-8.5 23.5T684 249zm-44 0h24V241q7-9 14.5-20.5T686 205q0-5-3.5-16.5T675 166h-47q-3 11-6.5 22.5T618 205q0 4 7.5 15.5T640 241zm285 0h266q-1-27-5-51t-23-41q-26-24-58.5-37t-58.5-34q-17-14-31-37.5T983 760q-10-15-28.5-31T907 713q-21 0-29 6v130h47zm-660 0h265V849h48V719q-4-2-11.5-4t-18.5-2q-29 0-47.5 16T472 760q-18 28-32.5 51.5T409 849q-26 21-58.5 34T293 920q-20 17-24 41t-4 51zM26 1130h1403l-52-99H79z" fill="currentColor"/></svg>