<svg xmlns="http://www.w3.org/2000/svg" viewBox="0 0 593.8 594.5"><path d="M572 568.2V29.3H22.5v541.9h24.8V57.9h499.1v510.4H572zM232.3 422.4v-239l-39.8 24.1-40.6-24.1v239h80.4zm0 138.3v-106h-80.4v106h80.4zm210.4-138.3v-239l-39.1 24.1-41.3-24.1v239h80.4zm0 138.3v-106h-80.4v106h80.4zm39.1 0v33.8H323.2v-33.8h20.3V148.1l38.3 19.5 10.5-19.5V87.2H203.7v60.9l11.3 19.5 34.6-19.5v412.6h21v33.8H112v-33.8h21V148.1l38.3 19.5 10.5-19.5V87.2h-109v507.4H0V0h593.8v594.5h-72.2V87.2H414.9v60.9l10.5 19.5 35.3-19.5v412.6h21.1z"/></svg>