<svg xmlns="http://www.w3.org/2000/svg" viewBox="-10 0 1228 283"><path d="M184 283q-7-21-35-43t-69-40.5Q39 181-10 168v-53q49-12 90-31t69-41q28-22 35-43h30q24 46 70.5 71T392 96q12 0 46-4t83-10.5Q570 75 626 68q62-9 133-19t138-17q67-7 118-6 99 1 151 29t52 86q0 59-52 87t-151 29q-51 0-118-6.5t-138-17Q688 223 626 215q-56-8-105-14t-83-10q-34-4-46-4-61 0-107.5 25T214 283zm22-27q12-19 35.5-39.5t60.5-35q37-14.5 90-14.5 13 0 48.5 4t85 11q49.5 7 103.5 14 72 9 147.5 19T915 231.5q63 6.5 100 6.5 82-1 132.5-24t50.5-73q0-50-50.5-72.5T1015 45q-37 0-100 6.5t-138.5 16Q701 77 629 87q-54 8-103.5 14.5t-85 10.5q-35.5 4-48.5 4-53 0-90-14.5T241.5 66Q218 45 206 27q-8 28-12.5 56t-4.5 58q0 31 4.5 58.5T206 256zm-23-12q-13-51-13-103 0-51 13-102-25 26-71.5 50T9 129v25q56 16 102.5 40t71.5 50z" fill="currentColor"/></svg>