<svg xmlns="http://www.w3.org/2000/svg" viewBox="-10 0 282 1228"><path d="M131 1228q-59 0-87-52t-29-151q0-51 7-118.5T39 768q10-71 18-133 8-55 14.5-104T82 448q4-34 4-46 0-61-25-107.5T-10 224v-30q21-8 42.5-35.5t40-69Q91 48 104 0h54q13 48 31.5 89.5t40 69Q251 186 272 194v30q-46 24-71 70.5T176 402q0 12 4 46t10.5 83q6.5 49 14.5 104 8 62 18 133t17 138.5q7 67.5 7 118.5-1 99-29 151t-87 52zM29 193q26-7 50.5-10.5T131 179q27 0 51.5 3.5T233 193q-26-25-50-72T143 19h-24q-16 55-40 102t-50 72zm102 1015q50 0 73-50.5t23-132.5q0-37-6-100t-16-138.5Q195 711 185 638q-8-54-14-103t-10-84.5q-4-35.5-4-48.5 0-52 14.5-89.5t35-61Q227 228 246 216q-29-8-57-12.5t-58-4.5q-30 0-58 4.5T16 216q19 12 39.5 35.5t35 61Q105 350 105 402q0 13-4 48.5T90.5 535Q84 584 77 638q-10 73-20 148.5T41 925q-6 63-6 100 0 82 23 132.5t73 50.5z" fill="currentColor"/></svg>