<svg version="1" xmlns="http://www.w3.org/2000/svg" width="120" height="498.7" viewBox="0 0 90 374"><path d="M33.1 10.2C26.3 31.9 12.7 54.6 3.7 59.5.2 61.3 0 61.8 0 66.1c0 4.5.2 4.8 4.3 7.3a61.2 61.2 0 0 1 18.8 20.8c1.7 3.3 3.9 9.4 5 13.6 3.4 13.4 2.7 25.2-5.1 80.7-8.7 62-12.5 93.1-14.1 114.5-2 27 .6 50.9 7 64.6 3 6.4 3 6.4 7.2 6.4h4.1l-1.7-2.8-3.1-4.7c-2.6-4.1-6.4-20.1-7.4-31-1.5-17.6.9-46.8 8.6-104 12.8-94.3 14.1-109.1 10.8-123.8a64.6 64.6 0 0 0-17.5-31.9l-7.7-7.7 7-1.6a125 125 0 0 1 61.6 1c2 .5 1.6 1.2-5.2 7.9-6 5.9-8.2 9-11.9 16.7-2.5 5.2-5.1 11.9-5.9 14.9-1.8 7.7-1.6 30.6.6 47l8.1 61c3.5 26.1 7.4 56.5 8.6 67.5 2.6 23.6 3.1 54.6 1.1 64a79.1 79.1 0 0 1-8.2 22.9l-3 4.6h4c4.7 0 6-1.6 9.6-11.9 4.3-12.3 5.7-25.2 5.1-47.1-.6-22-2.4-39.3-10.3-96.5-11-80.2-11.6-85.2-11.1-96.5A58.3 58.3 0 0 1 84 74c4.8-3.1 5-3.4 5-7.9-.1-4.3-.3-4.8-4-7-9.1-5.6-20.7-25-28-46.8L53.1.5 44.7.2l-8.4-.3-3.2 10.3zm18.3 4.9a161 161 0 0 0 19 38.3c3.1 4.3 4.9 7.6 4 7.2a128 128 0 0 0-60 0c-1.5.6-1.3.1.7-2.2 7.1-7.7 17.4-27.2 22.3-41.9a461 461 0 0 0 3.1-9.3c.3-.7 2.1-1.2 4.2-1.2h3.8l2.9 9.1z"/></svg>