<svg xmlns="http://www.w3.org/2000/svg" viewBox="0 0 595.3 593.5"><path d="M0 0v270.5h181.3v-35.1H33V32h530.3v203.4H413.9v35.1h181.3V0H0zm308.8 124.1l-3.3 244.2c.4 26 1.7 42.7 3.9 50.2 7.8 27.5 11.7 50.4 11.7 68.6.4 21.9-2.6 42.7-8.9 62.4-2.2 9.7-7.1 14.9-14.5 15.6-7.8-1.1-12.8-6.3-15-15.6-6.3-19.7-9.1-40.5-8.4-62.4 0-18.2 3.9-41.1 11.7-68.6 2.2-7.4 3.3-24.2 3.3-50.2L286 124.1h22.8zM90.7 388.6c8.4 0 18.7 8.7 30.8 26.2 12.1 17.4 21.4 44.2 27.9 80.3 6.1 24.5 1.9 43.1-12.7 55.8-13.4 11.6-27.5 17.4-42.5 17.4-1.4 0-2.7 0-4.1-.1-1.4.1-2.7.1-4.1.1-15 0-29.1-5.8-42.5-17.4C28.9 538.1 25.1 519.5 32 495c5.4-36.1 14.7-62.8 27.9-80.3 13.2-17.4 23.5-26.1 30.8-26.1zm419.9 3.4c-.8 57.7 21.7 37.9 29.2 65.8 7.4 16.7.7 45.5-20.2 106.2H481c-20.5-60.7-27-89.5-19.6-106.2 14.3-30.9 29.2-7.4 29.2-65.8h20zM265.9 93.5l5.6 274.3c.7 26.4-3.2 52.2-11.7 77.5-4.5 13.4-6.7 27.3-6.7 41.8 1.1 63.6 16 98.1 44.6 103.7 28.6-5.6 43.5-40.3 44.6-104.3 0-14.5-2-28.1-6.1-40.7-7.1-25.6-11.3-51.7-12.8-78.1L329 93.4h-63.1zm298 260.1H437.4c-16.6 0-1.6 26.5 0 28.5 6.8 0 11.4.5 17.6 1.5s9.3 5.1 9.3 12.4c0 8.4-5 17.1-15.1 25.9-13.7 15.3-19.5 27.3-21.5 36.2-4 10 4.4 55.1 25.3 135h94.5c21.3-80 29.7-125.2 25.3-135.6-1.6-8.4-7.3-20.3-20.9-35.6-10-8.8-15.1-17.5-15.1-25.9 0-7.2 2.9-11.3 8.7-12.4 5.8-1 10.6-1.5 18.2-1.5 3.9-2.5 18.5-28.5.2-28.5zm-473.8 8.5c-16.1 0-33 11.3-50.6 33.9S10.3 451.8 5 495.6c-6.5 31.8.1 56.4 19.8 73.6 18.5 16.2 38.8 24.3 60.9 24.3 1.5 0 2.9 0 4.4-.1h3.1c22.5 0 42.6-8.2 60.2-24.5 18.4-17.1 25.5-41.7 21.3-73.9-5.8-41-17.3-73.4-34.5-97.2-17.3-23.8-34-35.7-50.1-35.7z"/></svg>