<svg xmlns="http://www.w3.org/2000/svg" viewBox="-10 0 1139 1234"><path d="M-10 482V0h1138v482H835v-66h221V77H61v339h222v66zm19-19h254v-27H42V57h1034v379H854v27h254V20H9zm550 769q-16 0-39-29t-40.5-81q-17.5-52-17.5-120 0-41 14-71t29-47q15-17 19-23l-26-593h121l-26 593q7 6 22 23t27.5 46q12.5 29 12.5 72 0 68-17.5 120t-40 81q-22.5 29-38.5 29zm0-20q11 0 29.5-26.5t33-74Q636 1064 636 1002q0-48-21.5-82.5T573 872l26-584h-80l25 584q-20 13-41 47.5t-21 82.5q0 62 14.5 109.5t33 74Q548 1212 559 1212zm-429 22q-45 0-73.5-16.5T15 1160q-13-41-13-112 0-62 9.5-119.5T38 826q17-45 40.5-71.5T130 728q28 0 51.5 26.5T222 826q17 45 26.5 102.5T258 1048q0 71-13 112t-41.5 57.5Q175 1234 130 1234zm0-19q39 0 63-15t34.5-51q10.5-36 10.5-101 0-58-8.5-112T206 839.5Q191 797 171.5 772T130 747q-22 0-41.5 25T54 839.5Q39 882 30.5 936T22 1048q0 65 10.5 101t34.5 51q24 15 63 15zm744 18l-27-112q-9-38-19-77t-10-81q0-44 31-79.5t92-48.5v-37H836v-49h276v49h-106v37q61 13 92 48.5t31 79.5q0 40-9 79t-19 79l-28 112zm15-19h169l24-98q9-37 18-74.5t9-78.5q0-38-31-69.5T986 852v-73h106v-11H855v11h106v73q-62 10-92.5 41.5T838 963q0 39 9 76.5t18 76.5z" fill="currentColor"/></svg>