<svg xmlns="http://www.w3.org/2000/svg" viewBox="-10 0 1480 1165"><path d="M1248 1165V301L1100 0h70l115 235L1401 0h69l-147 301v864zm-1111 0V301L-10 0h69l116 235L291 0h69L212 301v864zm370 0V301L360 0h69l116 235L661 0h69L583 301v864zm371 0V301L730 0h69l116 235L1031 0h69L953 301v864zm-721-20h36V296L329 19h-26L175 280 46 19H21l136 277zm370 0h36V296L699 19h-26L545 280 417 19h-26l136 277zm370 0h36V296l136-277h-25L915 280 787 19h-26l136 277zm370 0h36V296l136-277h-25l-129 261-128-261h-26l136 277z" fill="currentColor"/></svg>