<svg xmlns="http://www.w3.org/2000/svg" viewBox="-10 0 1259 183"><path d="M516 183q-47 0-72-19.5T407 131H-10V52h417q12-14 37-33t72-19q38 0 66 17t37 46q10-29 37.5-46T723 0q47 0 72 19t37 33h417v79H832q-12 13-37 32.5T723 183q-39 0-66.5-17.5T619 120q-9 28-37 45.5T516 183zm0-20q38 0 63.5-20T605 91q0-31-25.5-51T516 20q-29 0-48.5 9.5t-32 22L416 71H9v40h407q7 8 19.5 20.5t32 22Q487 163 516 163zm207 0q28 0 48-9.5t32.5-22Q816 119 823 111h407V71H823l-19.5-19.5-32.5-22q-32.5-22-48-9.5-39 0-64 20t-25 51q0 32 25 52t64 20z" fill="currentColor"/></svg>