<svg xmlns="http://www.w3.org/2000/svg" viewBox="0 0 593.7 321.8"><path d="M253 0c-4.5 0-9 .6-13.5 1.9-9 2.5-19.8 8.3-32.3 17.3H1.1v61.7h206c12.5 9 23.3 14.8 32.3 17.3 4.5 1.2 9 1.9 13.5 1.9-48.2 58.5-87.4 109.1-117.8 151.9-22.9 12.3-39.5 22.1-49.8 29.3-10.3 7.2-25.8 12.6-46.4 16.1-26 1.8-39 5.9-39 12.5V319.2c-.4 2.6 19.9 3.3 61.2 2 22-5.7 38.6-7.1 49.8-4.3 11.2 2.9 20.4 4.3 27.6 4.3 7.2 0 12.9-1.9 17.1-5.6 4.3-3.7 7.5-15.3 9.8-34.6 0-5.3 18.6-25.8 55.8-61.6 37.2-35.8 58.5-62.9 63.9-81.4 0-4.8 6.9-11 20.8-18.4 4.9 0 16.1 9.4 33.6 28.3 34.1 40.4 57.3 69.2 69.6 86.3 12.3 17.1 14 28.2 5 33.3-9 5.1-17.9 11.9-26.9 20.4-9 8.6-18.4 12.4-28.2 11.5-19.7 3.1-29.6 8.1-29.6 15.2v6.6h69.3c19.3-10.1 35.1-12.6 47.4-7.6 12.3 5.1 21.9 7.6 28.6 7.6 10.3-1.3 15.5-5.5 15.5-12.5 0-7.5-3.6-16-10.8-25.7-11.2-17.6-25.3-48.4-42.4-92.6-16.2-42.4-43-73.5-80.4-93.4 8.2-2.9 17.8-8.3 28.7-16.2h208.3V19.2H385.4C372.8 10.2 362 4.4 353 1.9s-18-2.5-27.1 0c-9 2.5-17.5 8.3-25.6 17.3H292c-8-9-16.5-14.8-25.6-17.3C262 .6 257.5 0 253 0z"/></svg>