<svg xmlns="http://www.w3.org/2000/svg" viewBox="-10 0 1098 712"><path d="M8 712v-62q29-6 64.5-16t67-21q31.5-11 46.5-21 20-13 40.5-47.5T265 467q18-43 32-79 7-17 13.5-33t10.5-27q17-38 41.5-82t47.5-85q-19-6-32-17t-20-20H-10V45h368q11-13 33.5-29T453 0q36 0 58 19t28 45q6-26 28-45t59-19q38 0 60.5 16T720 45h368v79H720q-7 9-20 20t-32 17q29 47 54 92t40 73q11 22 25 53.5t28 64.5q14 33 25.5 59t16.5 38q12 28 20 57.5t15 52.5q1 14-11 32t-25 29h-50q-19 0-36-8t-30-8q-21 0-41.5 7t-45.5 9H530v-62q29-6 63.5-15.5t65-20.5q30.5-11 46.5-21 14-9 18-16.5t4-15.5q0-11-12.5-32t-31-47q-18.5-26-36-51T621 389q-7-12-18.5-33.5t-24.5-45q-13-23.5-23-43T542 239q-3 5-16.5 36T491 349q-21 43-44 83-8 13-23.5 35.5t-34 47.5Q371 540 356 559q-1 4-2.5 13.5T352 593q0 9 3.5 27t7.5 31q-2 15-9 31t-24 30h-42q-19 0-35.5-8t-29.5-8q-22 0-42 7t-45 9zm445-563q27 0 48-17t21-48q0-31-21-47.5T453 20q-37 0-56.5 16.5T367 64H9v40h358q10 12 29.5 28.5T453 149zm173 0q36 0 55.5-16.5T711 104h358V64H711q-10-11-29.5-27.5T626 20q-28 0-49 16.5T556 84q0 31 21 48t49 17zM26 692h104q22 0 47.5-7.5T223 677q16 0 33 7.5t36 7.5h31q17-11 20-42-2-5-6.5-25t-4.5-32q0-10 2-21.5t4-19.5q15-20 34-44.5t35-47q16-22.5 23-35.5 18-31 35-66t31.5-66q14.5-31 23.5-50.5l9-19.5v-1h25q4 9 15 30.5t24.5 47.5q13.5 26 26 49t19.5 33q9 14 23.5 35.5T692 462q15 23 27 40.5t15 24.5q16 30 16 44t-36 39q-14 9-43.5 19.5t-64 20.5Q572 660 544 666v26h103q22 0 47.5-7.5T740 677q17 0 34 7.5t35 7.5h39q21-14 25-42-7-26-16-51.5T838 547q-5-14-16.5-41.5T796 446q-14-32-28-62.5T744 333q-13-26-38.5-72.5T650 166q-5 2-11.5 2H626q-37 0-59-19t-28-45q-6 26-28 45t-58 19h-14l-12-2q-23 40-47.5 84.5T338 334q-5 11-10 26.5T316 393q-15 39-33 83t-39 80q-21 36-46 52-14 10-44 20.5T89.5 649Q55 659 26 666z" fill="currentColor"/></svg>