<svg xmlns="http://www.w3.org/2000/svg" viewBox="-10 0 630 1144"><path d="M379 1144v-55q-15-1-33.5-2t-31.5-3q-7 11-16.5 24t-16.5 23l-160-107 32-46q-8-9-16.5-21.5T121 933q-11 4-24 9t-23 9L2 773l52-20q-5-22-8-46.5T41 668h-51V476h51q2-14 5-38.5t8-46.5L2 372l72-179 47 18q7-11 15.5-24t16.5-21q-8-11-17-24t-15-22L281 12l33 49q14-3 32-4t33-2V0h193v55h48v56H371q-54 0-104 30t-89.5 88.5Q138 288 115 374T92 572q0 112 23 197.5t62.5 144Q217 972 267 1002t104 30h249v57h-48v55zm20-19h153v-56h48v-17H371q-57 0-110.5-31t-96-92Q122 868 97 778.5T72 572q0-117 25-206.5T164.5 215q42.5-61 96-92T371 92h229V74h-48V19H399v56q-20 0-49 1.5T304 82l-29-42-126 86q7 11 15 21.5t14 20.5q-10 10-24.5 30.5T130 235l-45-17-58 142 49 19q-5 19-8.5 42.5t-6 44Q59 486 58 495H9v154h49q1 9 3.5 29.5t6 44Q71 746 76 765l-49 18q15 38 28.5 71T85 925q10-4 23-8.5t22-8.5q9 17 23.5 37.5T178 976l-29 42 126 86 29-43q18 4 46.5 6t48.5 2z" fill="currentColor"/></svg>