<svg xmlns="http://www.w3.org/2000/svg" viewBox="-10 0 630 1144"><path d="M38 1144v-55h-48v-57h249q53 0 103-30t89.5-88.5q39.5-58.5 63-144T518 572q0-112-23.5-198t-63-144.5Q392 171 342 141t-103-30H-10V55h48V0h192v55q16 1 34 2t32 4l32-49 160 108q-6 9-15 22t-16 24q7 8 16 21t15 24l48-18 72 179-52 19q5 22 8 46.5t5 38.5h51v192h-51q-2 14-5 38.5t-8 46.5l52 20-72 178q-10-4-23-9t-24-9q-7 11-16 23.5T457 978l31 46-160 107q-7-10-16-23t-16-24q-13 2-31.5 3t-34.5 2v55zm19-19h154v-56q20 0 48-2t46-6l29 43 127-86-29-42q9-10 23.5-30.5T479 908q20 8 46 17 15-38 28.5-71t29.5-71l-50-18q5-19 8.5-42.5t6-44Q550 658 551 649h49V495h-49q-1-9-3.5-29.5t-6-44Q538 398 533 379l50-19-58-142-46 17q-9-16-23.5-36.5T432 168q6-10 13.5-20.5T461 126L334 40l-28 42q-18-4-46.5-5.5T211 75V19H57v55H9v18h230q57 0 110.5 31t95.5 92q42 61 67 150.5T537 572q0 117-25 206.5T445 929q-42 61-95.5 92T239 1052H9v17h48z" fill="currentColor"/></svg>