<svg xmlns="http://www.w3.org/2000/svg" viewBox="-10 0 1281 931"><path d="M1070 931l-171-71 26-63-257-108-27 64-222-93 27-63-258-107-26 64-172-72 79-190 50 21 42-102-50-21L191 0l171 71-26 64 257 107 27-64 222 93-27 63 258 107 26-63 172 71-79 190-50-21-42 102 49 22zm-10-25l64-154-50-21 57-138 50 21 64-155-136-56-26 64-293-122 26-64-186-77-26 63-293-122 26-63-136-57-64 155 50 20-57 138-50-20-64 154 135 56 27-63 293 122-26 63 185 77 27-63 293 122-26 63zm-40-133L138 406l103-247 882 366zm-11-26l88-211-845-352-88 211z" fill="currentColor"/></svg>