<svg xmlns="http://www.w3.org/2000/svg" viewBox="0 0 589.3 337.6"><path d="M192.5 0c-9.9-.1-19.4 3.4-25.9 8.3-10.3 7.8-16.6 17.8-20.7 25-.6 1.1-1.2 2.3-1.8 3.4h-30v33.1h23.5c.5 10.6 3.1 21.7 8.1 32.8.3.7.7 1.3 1.1 1.9l-11.7 29.3C55.8 166.7 0 240.9 0 321.1c0 9.1 7.4 16.5 16.5 16.5h527.4v-33.1h-109l78-195.6c18.5-6.7 34.6-18.3 43.8-34.2.9-1.5 1.8-3.2 2.7-5h29.9v-33h-21.2c-.8-11.6-6.6-24.8-18.9-31.9-5.7-3.3-11.8-4.7-17.7-4.8-9.9-.1-19.4 3.4-25.9 8.3-10.3 7.8-16.6 17.8-20.7 25-.6 1.1-1.2 2.3-1.8 3.4h-22.6c-.8-11.6-6.6-24.8-18.9-31.9-5.7-3.3-11.8-4.7-17.7-4.8-9.9-.1-19.4 3.4-25.9 8.3-10.3 7.8-16.6 17.8-20.7 25-.6 1.1-1.2 2.3-1.8 3.4h-35.1c-.8-11.6-6.6-24.8-18.9-31.9-5.7-3.3-11.8-4.7-17.7-4.8-9.9-.1-19.4 3.4-25.9 8.3-10.3 7.8-16.5 17.8-20.7 25-.6 1.1-1.2 2.3-1.8 3.4h-26c-.8-11.6-6.6-24.8-18.9-31.9-6-3.3-12.1-4.7-18-4.8zm-1.8 32c.6.1 1.4.6 3 1.4 2.6 1.5 3.1 1.9 3 3.3h-12.4c.8-.8 1.6-1.5 2.3-2.1 2.5-1.8 3-2.7 4.1-2.6zm111.1 0c.6.1 1.4.6 3 1.4 2.6 1.5 3.1 1.9 3 3.3h-12.4c.8-.8 1.6-1.5 2.3-2.1 2.5-1.8 3.1-2.7 4.1-2.6zM422 32c.6.1 1.4.6 3 1.4 2.6 1.5 3.1 1.9 3 3.3h-12.4c.8-.8 1.6-1.5 2.3-2.1 2.4-1.8 3-2.7 4.1-2.6zm107.7 0c.6.1 1.5.6 3 1.4 2.6 1.5 3.1 1.9 3 3.3h-12.4c.8-.8 1.6-1.5 2.3-2.1 2.5-1.8 3-2.7 4.1-2.6zM171 69.8h6.2c-1.8 1.3-3.8 2.5-5.8 3.7-.2-1.3-.3-2.5-.4-3.7zm49.4 0h28.2c.5 10.4 3 21.4 7.9 32.3l-80.7 202.4h-73.3l79.3-198.8c15.1-6.9 28-17.3 35.9-31 .9-1.4 1.8-3.2 2.7-4.9zm61.7 0h6.1c-1.8 1.3-3.8 2.5-5.8 3.7-.1-1.3-.2-2.5-.3-3.7zm49.4 0h37.3c.4 9.6 2.6 19.6 6.8 29.7l-81.8 205.1h-82.4l78.8-197.7c16.3-6.9 30.2-17.7 38.5-32.1 1-1.5 1.9-3.3 2.8-5zm70.8 0h6.2c-1.8 1.3-3.8 2.5-5.8 3.7-.2-1.3-.3-2.5-.4-3.7zm49.4 0h24.8c.4 8.7 2.3 17.7 5.7 26.8l-82.9 207.9h-69.9l78.4-196.6c17.4-6.8 32.4-18 41.1-33.2.9-1.4 1.9-3.2 2.8-4.9zm58.3 0h6.2c-1.8 1.3-3.8 2.5-5.8 3.7-.2-1.3-.3-2.5-.4-3.7zM116.3 180.9L67 304.5H34.1c5.9-48.2 36.9-94.3 82.2-123.6z"/></svg>