<svg xmlns="http://www.w3.org/2000/svg" viewBox="-10 0 1292 700"><path d="M-10 700q11-59 40-109.5t67.5-91q38.5-40.5 79-70.5t76-48.5Q288 362 310 356l41-137q-5-8-10.5-20T330 172h-57q-8 7-24.5 15.5T212 196q-25 0-40-14.5T157 149q0-18 15-32.5t40-14.5q20 0 36.5 9t24.5 16h48v-12q0-25 11-52t32-45q21-18 51-18 32 0 49 16.5T486.5 54q5.5 21 5.5 35 0 10-2 19t-5 19h81v-12q0-25 10.5-52T608 18q21-18 51-18 32 0 49 16.5T730.5 54q5.5 21 5.5 35 0 10-2 19t-4 19h80v-12q0-25 10.5-52T852 18q21-18 51-18 32 0 49 16.5T974.5 54q5.5 21 5.5 35 0 19-6 38h80v-12q0-25 10.5-52t31.5-45q21-18 51-18 32 0 49 16.5t22.5 37.5q5.5 21 5.5 35 0 19-6 38h62v45h-86q-25 34-65 58l-121 404h274v66zm987-66h14l125-416q37-20 64.5-55.5T1208 89q0-11-4.5-28.5T1186 30q-13-13-39-13-25 0-42 15.5T1079 71q-9 23-9 44v12h17q-1-3-.5-6t.5-6q0-17 6-36.5t19-33.5q13-14 33-14 21 0 30.5 11t12.5 25.5q3 14.5 3 23.5 0 20-11.5 42.5t-28 41.5q-16.5 19-32.5 29l-11-3q-7-10-13-29h-16q5 15 11.5 26.5T1101 218zm-733 0h15l124-416q37-20 64.5-55.5T475 89q0-11-4.5-28.5t-17-30.5Q441 17 415 17q-25 0-42 15.5T347 71q-9 23-9 44 0 3-.5 6t.5 6h16v-12q0-17 6-36.5T379 45q13-14 33-14 21 0 31 11t13 25.5q3 14.5 3 23.5 0 20-11.5 42.5t-28 41.5Q403 194 387 204l-12-3q-2-5-5.5-12.5T363 172h-16q10 29 22 46l-61 202zm489 0h14l125-416q36-20 63.5-55.5T963 89q0-11-4-28.5T942 30q-13-13-39-13-25 0-42 15.5T835 71q-9 23-9 44v12h17q-1-3-1-6v-6q0-17 6-36.5T867 45q13-14 33-14 21 0 31 11t13 25.5q3 14.5 3 23.5 0 20-11.5 42.5t-28 41.5Q891 194 875 204l-12-3q-3-5-5.5-12.5L852 172h-17q5 15 11.5 26.5T857 218zm-245 0h15l125-416q36-20 63.5-55.5T719 89q0-11-4-28.5T698 30q-13-13-39-13-25 0-42 15.5T591 71q-9 23-9 44v12h17q-1-3-1-6v-6q0-17 6-36.5T623 45q13-14 33-14 21 0 31 11t13 25.5q3 14.5 3 23.5 0 20-11.5 42.5t-28 41.5Q647 194 631 204l-12-3q-3-5-6-12.5t-6-16.5h-16q5 15 11.5 26.5T613 218zM371 127h62q9-19 9-36 0-11-4.5-27T412 48q-21 0-31 23.5T371 115zm733 0h61q4-10 7-19t3-17q0-11-5-27t-25-16q-22 0-32 23.5t-10 43.5v6l1 6zm-245 0h62q4-10 7-19t3-17q0-11-5-27t-26-16q-21 0-31 23.5T859 115zm-244 0h62q4-10 7-19t3-17q0-11-5-27t-26-16q-21 0-31 23.5T615 115zm-403 52q18 0 33-9t21-15h149q2-3 4-5.5t4-6.5H266q-6-6-21-15t-33-9q-17 0-27.5 9.5T174 149q0 11 10.5 20.5T212 179zm505-24h186q2-3 4.5-5.5t4.5-6.5H723zm488 0h58v-12h-52zm-244 0h187q1-3 3.5-5.5t4.5-6.5H967zm-488 0h186q2-3 4.5-5.5t4.5-6.5H479zm291 479h195l125-415q-5-7-11-19.5t-11-27.5H950q-25 34-65 58zM630 185q4-3 7.5-6t7.5-7h-20q2 6 5 13zm244 0q4-3 7.5-6t7.5-7h-20q2 6 5 13zM275 634h196l124-415q-5-8-10.5-20T574 172H462q-27 34-65 58zm843-449l8-6 7-7h-20q2 3 3 6.5t2 6.5zm-732 0q4-3 7.5-6t7.5-7h-21q1 3 3 6.5t3 6.5zm134 449h195l124-415q-4-7-10-19.5T818 172H706q-25 34-65 58zM14 680h1248v-26H47q13-39 43.5-79t68.5-75q38-35 74.5-60.5T296 404l7-25q-28 10-71 34.5T144.5 477Q100 516 64 567T14 680zm61-46h152l62-206q-25 12-56 33.5t-62 50q-31 28.5-56.5 60T75 634z" fill="currentColor"/></svg>