<svg xmlns="http://www.w3.org/2000/svg" viewBox="-10 0 1255 547"><path d="M-10 547v-66h200V218q-13-7-28.5-24.5T137 152H-10V98h139q4-38 27-68t59-30q36 0 58.5 30T300 98h44q5-38 27.5-68T430 0q36 0 58.5 30T515 98h44q4-38 27-68t59-30q35 0 57.5 30T730 98h44q4-38 27-68t58-30q36 0 58.5 30T944 98h45q4-38 26.5-68T1074 0q36 0 58.5 30t26.5 68h86v54h-93q-9 23-25 40.5t-28 25.5v263h146v66zm217-67h16V209q11-7 26.5-22t25.5-35h-17q-7 17-19 28t-20 16h-8q-12-7-30.5-29T162 113q0-35 15.5-58T215 32q20 0 34.5 18.5T267 98h16q-4-32-21.5-56.5T215 17q-32 0-50.5 30T146 113q0 22 11 41.5t25.5 34Q197 203 207 209zm859 0h17V209q10-7 25.5-22t25.5-35h-16q-8 17-20 28t-20 16h-8q-12-7-30.5-29t-18.5-54q0-35 15-58t38-23q20 0 34.5 18.5T1127 98h16q-4-32-22-56.5T1074 17q-32 0-50.5 30t-18.5 66q0 22 11 41.5t25 34q14 14.5 25 20.5zm-215 0h17V209q11-7 26-22t26-35h-17q-8 17-20 28t-20 16h-7q-13-7-31.5-29T806 113q0-35 15.5-58T859 32q20 0 34.5 18.5T912 98h16q-4-32-22-56.5T859 17q-32 0-50.5 30T790 113q0 22 11 41.5t25.5 34Q841 203 851 209zm-430 0h17V209q11-7 26.5-22t25.5-35h-17q-8 17-20 28t-19 16h-8q-12-7-30.5-29T377 113q0-35 15-58t38-23q20 0 34.5 18.5T482 98h16q-4-32-21.5-56.5T430 17q-32 0-51 30t-19 66q0 22 11 41.5t25.5 34Q411 203 421 209zm215 0h17V209q11-7 26.5-22t25.5-35h-17q-8 17-19.5 28T649 196h-8q-12-7-31-29t-19-54q0-35 15.5-58T645 32q20 0 34 18.5T697 98h16q-4-32-22-56.5T645 17q-32 0-51 30t-19 66q0 22 11 41.5t25 34q14 14.5 25 20.5zm403-382h71q-3-22-13-35.5T1074 49q-13 0-23 13.5T1039 98zm-215 0h71q-3-22-12.5-35.5T859 49q-13 0-23 13.5T824 98zm-215 0h71q-3-22-12.5-35.5T645 49q-14 0-24 13.5T609 98zm-215 0h71q-2-22-12-35.5T430 49q-13 0-23 13.5T394 98zm-215 0h72q-3-22-12.5-35.5T215 49q-14 0-23.5 13.5T179 98zm862 35h184v-16h-187q0 8 3 16zM9 133h122q-1-4-1.5-8t-.5-8H9zm602 0h164q-1-4-1-8v-8H608q0 8 3 16zm-430 0h165q-1-4-1.5-8t-.5-8H178q0 4 1 8zm215 0h165q-1-4-1.5-8t-.5-8H393q0 4 1 8zm430 0h164q-1-4-1.5-8t-.5-8H823q0 8 3 16zm248 46q6-4 13-10.5t12-16.5h-50q11 18 25 27zM240 481h165V218q-13-7-28.5-24.5T352 152h-59q-10 23-25.5 40.5T240 218zm-25-302q5-4 12.5-10.5T240 152h-50q5 10 12 16.5t13 10.5zm644 0q6-4 13-10.5t12-16.5h-50q6 10 13 16.5t12 10.5zm25 302h165V218q-12-7-28-24.5T996 152h-59q-9 23-25 40.5T884 218zM645 179q5-4 12-10.5t13-16.5h-51q6 10 13 16.5t13 10.5zm25 302h165V218q-13-7-28.5-24.5T781 152h-59q-9 23-24.5 40.5T670 218zm-215 0h165V218q-13-7-28.5-24.5T566 152h-59q-9 23-24.5 40.5T455 218zm-25-302q5-4 12-10.5t13-16.5h-51q6 10 13 16.5t13 10.5zM9 527h1216v-26H9z" fill="currentColor"/></svg>