<svg xmlns="http://www.w3.org/2000/svg" viewBox="0 0 582.4 269.9"><path d="M188.4 135.3c16.2 0 24.3-17.3 24.3-51.9 0-38.1-7.9-57.1-23.6-57.1-16.6 0-25 19-25 57.1 0 34.1 8.1 51.4 24.3 51.9zm100.5.6c16.2 0 24.3-17.3 24.3-51.9 0-38.1-7.9-57.1-23.6-57.1-16.6 0-25 19-25 57.1 0 34.2 8.1 51.5 24.3 51.9zm105.1-.6c15.8 0 23.9-17.1 24.3-51.2 0-38.5-8.1-57.8-24.3-57.8-16.2 0-24.3 19-24.3 57.1 0 34.6 8.1 51.9 24.3 51.9zm104.4 0c16.2 0 24.3-17.1 24.3-51.2 0-38.5-7.9-57.8-23.6-57.8-16.6 0-25 19-25 57.1 0 34.6 8.1 51.9 24.3 51.9zM108.3 82.7c0-37.6-8.1-56.5-24.3-56.5s-24.3 19-24.3 57.1c0 34.6 8.1 51.9 24.3 51.9 15.8.1 23.9-17.5 24.3-52.5zm21.7 0c0 47.3-10.3 73.3-30.9 78.1V237h75.5v-76.2c-21.4-5.3-32.2-32-32.2-80.1C142 32.2 157.6 5.3 189.1 0c30.6 5.3 46 32.4 46 81.4 0 47.7-10.5 74.2-31.5 79.4V237h71.6v-75.5c-21.4-5.3-32.2-32-32.2-80.1-.4-49 15.1-75.9 46.6-80.8 30.6 4.8 46 32 46 81.4 0 47.7-10.5 74.2-31.5 79.4V237h75.5v-76.2c-21.4-4.8-32.2-31.3-32.2-79.4 0-49 15.5-75.9 46.6-80.8 30.6 4.8 46 31.7 46 80.8 0 48.2-10.3 74.6-30.9 79.4V237h75.5v-76.2c-21.4-4.8-32.2-31.3-32.2-79.4-.4-49 15.1-75.9 46.6-80.7 30.6 4.8 46 31.7 46 80.8 0 48.2-10.5 74.6-31.5 79.4V237H545v32.8H30.9V237h38.7v-76.2c-21.4-4.8-32.2-31.3-32.2-79.4C37.4 32.4 53 5.5 84 .7c30.7 4.8 46 32.1 46 82zm397.9 166.1H48.6v7.2h480l-.7-7.2zM0 96.5V68.9h582.4v27.6H0z"/></svg>