<svg xmlns="http://www.w3.org/2000/svg" viewBox="-10 0 538 1169"><path d="M238 1169q-24 0-46-44t-22-127q0-28 3.5-74t8.5-98.5q5-52.5 10.5-102t10-87Q207 599 209 584q-8-3-15-8t-13-13q-7-9-14-22.5T153 515q-10-21-17-29-7-10-20-17.5T90 460v-26q14-8 41.5-17.5T200 403v-14q-35-5-69-21t-57-52q-17-28-23.5-65T42 183q-1-11-3-23t-3-22q-8-42-20.5-72.5T-10 14L29 0q16 19 33.5 56T88 133l4 21q3 18 8 41.5t12 46q7 22.5 16 35.5 17 24 43 39t67 15q27 0 46-6-26-11-54.5-28T181 256q-20-24-20-57 0-34 23-64t67-30q41 0 60.5 24.5T331 176q0 20-11.5 38.5T285 233q-24 0-34-14.5T241 191h20q0 7 5.5 15t18.5 8q14 0 20-12t6-26q0-16-15-34t-45-18q-34 0-52 24t-18 51q0 29 20.5 51t50 38q29.5 16 57.5 27 24-16 39-38 9-13 16-35.5t12-46q5-23.5 7-41.5 1-5 2-10.5t2-10.5q9-40 26.5-77T447 0l38 14q-12 21-24.5 52T440 138q-1 10-3 22t-3 23q-3 33-9 68.5T401 316q-11 18-25 31 43 25 82.5 64T528 511l-17 9q-30-58-68.5-96T358 361q-19 13-40 19.5t-43 8.5v14q41 4 68.5 13.5T386 434v26q-13 1-26 8.5T340 486q-3 4-8 12t-10 17q-5 12-13 25.5T295 563q-12 15-28 21 2 15 6.5 52.5t10 87q5.5 49.5 10.5 102t8.5 98.5q3.5 46 3.5 74 0 83-22 127t-46 44zm0-798q24 0 50.5-4.5T338 349l-14-6-14-6q-30 14-72 14-48 0-77-16.5T112 289q-11-16-19-40t-12.5-48.5Q76 176 73 157l-4-20q-8-35-21-66.5T23 23q-1 0-1.5.5T19 25q9 19 19 46.5T55 134q4 19 6 47 3 31 9 65t21 60q26 40 67.5 52.5T238 371zm119-34q8-6 15-13.5t13-17.5q14-25 20.5-60t9.5-65q1-13 2.5-25t2.5-22q7-40 17-65t20-44l-4-1q-12 16-25 47.5T407 137l-2 10-2 10q-3 19-8 43.5T382.5 249q-7.5 24-19.5 40-14 22-33 35 7 3 13.5 6t13.5 7zm-137 64h36v-11q-5 1-9 1h-18l-9-1zm18 167q11 0 22-3t19-14q4-6 11-19t15-26q5-10 10-18t9-14q17-22 40-27-16-9-46.5-18t-79.5-9q-51 0-81 8t-45 16q24 8 39 30l19 32q7 12 14 25t13 20q8 11 19 14t22 3zm0 582q14 0 31-39t17-113q0-28-3.5-72.5T274 829q-5-52-10.5-101t-10-86.5Q249 604 247 588h-19q-2 16-6.5 53.5T212 728q-5 49-10 101t-8.5 96.5Q190 970 190 998q0 74 17 113t31 39z" fill="currentColor"/></svg>