<svg xmlns="http://www.w3.org/2000/svg" viewBox="0 0 291.6 594.5"><path d="M129.5 568.1c10.9.4 16.5-32.3 17-98-.4-28.5-5.9-91.1-16.3-187.9h-.6C119 379 113.5 441.6 113.1 470.1c.4 65.8 5.9 98.5 16.4 98zM181 208.7c-13-6.3-30-9.4-50.9-9.4s-37.7 3.1-50.3 9.4c13.4 9.2 21.6 20.3 24.5 33.3 2.9 13 8 20.4 15.1 22.3 7.1 1.9 14.2 1.9 21.4 0S153 255 155.9 242c2.9-13 11.3-24.1 25.1-33.3zm-24.5-23.3c30.2 5.9 45.3 14.2 45.3 25.1 0 4.6-1.7 8.4-5 11.3-12.6 0-21.7 9.4-27.3 28.3-5.7 18.9-13.1 28.3-22.3 28.3 0 4.2 3.9 32.2 11.6 83.9 7.8 51.7 9.5 109.5 5.3 173.1-4.6 39-16.1 58.7-34.6 59.1-17.6-.4-28.9-20.1-33.9-59.1-3.8-63.7-1.8-121.4 6-173.1 7.8-51.7 11.4-79.7 11-83.9-8.8 0-16-9.4-21.7-28.3-5.7-18.9-14.8-28.3-27.3-28.3-3.4-2.9-5-6.7-5-11.3 0-10.9 15.1-19.3 45.3-25.1-18.4-8.8-33.2-18.1-44.3-28-11.1-9.8-18.3-21.4-21.7-34.6-3.4-13.2-5.9-30.9-7.5-53.1C28.5 47.6 18.4 24.3 0 0h1.9c11.3 12.2 20.9 22.6 28.9 31.4 8 8.8 14.8 27.3 20.4 55.6 5.7 28.3 17.5 46.5 35.5 54.7 18 8.2 32.7 15.2 44 21.1 10.5-5.9 24.7-12.9 42.7-21.1 18-8.2 29.9-26.4 35.5-54.7 5.7-28.3 12.5-46.8 20.4-55.6 8-8.8 17.8-19.3 29.5-31.4h1.9c-19.3 24.3-29.6 47.6-31.1 69.8-1.5 22.2-3.9 39.9-7.2 53.1-3.4 13.2-10.5 24.8-21.4 34.9-6.3 5.4-12.2 9.7-17.6 12.9-5.3 3.1-14.3 8-26.9 14.7zM274 230c-26.4-33.5-59.1-55.7-98-66.6-39-10.9-64.4-27.2-76.4-49-11.9-21.8-12.6-41-1.9-57.5s23.9-24.9 39.6-25.1 27.5 3.6 35.5 11.3c8 7.8 11.9 17.7 11.9 29.9s-2.9 20.9-8.8 26.4c-5.9 5.4-13 8.2-21.4 8.2-7.5 0-14.3-2.9-20.4-8.8-6.1-5.9-9.1-13.4-9.1-22.6h15.1c4.2 13.4 10.6 18.3 19.2 14.8 8.6-3.6 11.8-10.7 9.7-21.4s-9-17.6-20.7-20.7c-11.7-3.1-23 1-33.9 12.6-10.9 11.5-11.3 26.1-1.3 43.7s35.5 33 76.4 46.2c40.9 13.2 74.9 37 102.1 71.3L274 230z"/></svg>