<svg xmlns="http://www.w3.org/2000/svg" viewBox="0 0 581.7 594.5"><path d="M178.6 559.1h226c0-59.8-37.7-89.7-113-89.7-75.3.1-113 29.9-113 89.7zm165-122.1c70.8 13.6 106.2 66.1 106.2 157.5H133.4c0-91.4 34.9-143.9 104.7-157.5-45.7-25.1-80.9-49.2-105.5-72.3-24.6-23.1-40.7-49.9-48.2-80.3S71.3 213.3 67.8 162C64.3 110.8 41.7 56.8 0 0h3.8C29.4 28.6 51.1 53.1 69 73.5c17.8 20.3 33 63 45.6 128.1 12.6 65.1 39.1 107.3 79.5 126.6 40.4 19.3 72.7 35.5 96.8 48.6 24.1-13.1 56.4-29.3 96.8-48.6s66.9-61.5 79.5-126.6c12.6-65.1 27.8-107.8 45.6-128.1C530.6 53.1 552.3 28.6 578 0h3.8c-41.7 56.8-64.3 110.8-67.8 162s-9 92.1-16.6 122.4-24 57.3-49.4 80.6c-25.4 23.4-60.2 47.4-104.4 72zm196.7 35.5c-49.2-62.8-110.5-104.4-183.9-124.7s-121.2-50.9-143.5-91.6c-22.4-40.7-23.5-76.7-3.4-108.1 20.1-31.4 44.8-47.1 74.2-47.1 29.4 0 51.6 7.2 66.7 21.5 15.1 14.3 22.6 32.9 22.6 55.8s-5.5 39.4-16.6 49.7c-11.1 10.3-24.6 15.4-40.7 15.4-13.6 0-26-5.7-37.3-17-11.3-11.3-17-25.5-17-42.6h27.9c8 25.1 20.1 34.3 36.2 27.5 16.1-6.8 22.2-20.1 18.5-39.9-3.8-19.8-16.6-32.7-38.4-38.4-21.9-5.8-43.1 2.3-63.7 24.1-20.6 21.9-21.6 49.1-3 81.8s66.2 61.4 142.8 86.3c76.6 24.9 140.5 69.5 191.8 133.8l-33.2 13.5z"/></svg>