<svg xmlns="http://www.w3.org/2000/svg" viewBox="0 0 278.6 277.8"><path d="M178.7 75.6l-30.4 3.9 16.3 110.7 31.6-5.8-17.5-108.8zm-60.5 2.2L85.1 83l16.8 112.1 31.8-4.9-15.5-112.4zm22.3-46.3c4.8 0 9.6.3 14.6.8 30.3 3.4 50.9 16.4 73.5 50 33.5 49.8 21.5 115.5-37.6 153.2-18.1 9.1-36.4 13.3-53.9 13.3-68.7 0-124.9-63.8-103.7-139.4 13.2-47.3 56.2-77.9 107.1-77.9zM144.3 0c-22.5 0-45.9 5.3-68.1 16.2-39.1 19.1-62.9 49.9-72.8 94C-13.5 186 34 258.5 112.1 275.8c6 1.3 13 2 20.5 2 25.8 0 57.7-7.3 75.7-18.5 78.9-48.8 93.5-144.2 32.7-216.2C217.1 14.8 181.9 0 144.3 0z"/></svg>