<svg xmlns="http://www.w3.org/2000/svg" viewBox="-10 0 582 582"><path d="M281 582q-60 0-113-22.5T75 497q-40-40-62.5-93T-10 291q0-60 22.5-113T75 85q40-40 93-62.5T281 0q60 0 112.5 22.5t93 62.5q40.5 40 63 93T572 291q0 60-22.5 113t-63 93q-40.5 40-93 62.5T281 582zm0-20q56 0 105.5-21t86.5-58q37-37 58-86.5T552 291q0-56-21-105.5t-58-87Q436 61 386.5 40T281 19q-56 0-105.5 21t-87 58.5Q51 136 30 185.5T9 291q0 56 21 105.5T88.5 483q37.5 37 87 58T281 562zm-98-106V125h65v331zm131 0V125h65v331zm-111-19h25V145h-25zm131 0h25V145h-25z" fill="currentColor"/></svg>