<svg xmlns="http://www.w3.org/2000/svg" viewBox="-10 0 582 582"><path d="M281 582q-60 0-113-22.5T75 497q-40-40-62.5-93T-10 291q0-60 22.5-113T75 85q40-40 93-62.5T281 0q60 0 112.5 22.5t93 62.5q40.5 40 63 93T572 291q0 60-22.5 113t-63 93q-40.5 40-93 62.5T281 582zm0-380L421 59q-31-19-66.5-29.5T281 19q-39 0-74.5 10.5T140 59zM124 512l157-159 157 159q19-13 35-29t29-35L343 291l159-157q-13-19-29-35t-35-29L281 229 124 70q-38 26-64 64l159 157L60 448q26 38 64 64zm-75-80l142-141L49 150q-19 31-29.5 67T9 291q0 39 10.5 74.5T49 432zm464 0q39-64 39-141t-39-141L370 291zM281 562q76 0 140-39L281 380 140 523q64 39 141 39z" fill="currentColor"/></svg>