<svg xmlns="http://www.w3.org/2000/svg" viewBox="0 0 299.8 293.7"><path d="M299.1 146.8c.5-34.4-13.3-67.5-41.1-99.3C230.1 15.9 194.4 0 150.9 0 104.2 0 67.4 15.2 40.4 45.5 13.5 75.9 0 109.2 0 145.5c0 40.8 15.7 75.6 47.2 104.3 31.5 28.8 65.6 43.4 102.3 43.8 44.4-.5 80.6-15.7 108.4-45.9 27.9-30.1 41.8-64.2 41.8-102.3l-.6 1.4zM150.9 174l-70 70c-11.8-7.3-20.4-16.1-25.8-26.5l70-69.3-73.4-73.4c5-11.8 13.8-20.2 26.5-25.2l72.7 72.7 72.7-72.7c10.9 5 19.5 13.6 25.8 25.8l-72.1 72.7 71.4 71.4c-5.9 11.8-14.7 20.4-26.5 25.8L150.9 174zm1.4-87L98.6 34c34-15.4 69.3-15.4 106 0l-52.3 53zm112.8 7.5c15.4 36.7 15.4 72.1 0 106l-53-53 53-53zM152.3 207.3l53 53c-34.4 15.4-69.8 15.4-106 0l53-53zM36 197.8c-15.4-36.7-15.4-72.1 0-106l53 53-53 53z"/></svg>