<svg xmlns="http://www.w3.org/2000/svg" viewBox="0 0 375.4 388.9"><path d="M187.7 134.9c5.1 0 9.7.9 14.6 2.2 5 1.4 10.2 3 14.6 5.6 4.4 2.6 8.8 6.3 12.4 10.1 3.6 3.8 6.4 8.2 9 12.4 2.6 4.2 4.3 8 5.6 13.5 1.4 5.5 2.2 11.6 2.2 16.9 0 8.4-1.2 16.3-4.5 23.6-3.3 7.3-7.2 13.2-12.4 18-5.2 4.7-11.9 8.4-19.1 12.4-7.2 4-14.7 6.7-22.5 6.7-8.2 0-15.4-2.5-22.5-5.6-7.1-3.2-13.6-6.8-19.1-12.4-5.5-5.6-9.4-11.8-12.4-19.1-2.9-7.3-4.5-15.2-4.5-23.6 0-8.2 1.5-16.2 4.5-23.6 2.9-7.4 6.9-13.5 12.4-19.1 5.5-5.6 12.1-10.4 19.1-13.5 7.2-3.1 14.4-4.5 22.6-4.5zm0-19.1c-11 0-21 1.6-30.3 5.6-9.3 4.1-17.6 9.5-24.7 16.9-7.2 7.4-13 16.2-16.9 25.9-3.8 9.7-5.6 20.2-5.6 31.5s2 21.3 5.6 30.3c4.1 9.8 9.7 18.7 16.9 25.9 7.2 7.2 15.4 12.6 24.7 16.9 9.3 4.3 19.4 6.7 30.3 6.7 10 0 19.7-2.4 29.2-6.7 9.6-4.3 17.6-9.7 24.7-16.9 7.2-7.2 12.9-16.3 16.9-25.9 3.9-9.6 6.7-19.1 6.7-30.3 0-7.6-1.7-15.8-3.4-22.5-1.9-6.7-4.5-12.1-7.9-18-3.3-5.9-7.6-11.7-12.4-16.9-4.8-5.1-10.1-9.3-15.7-12.4-5.6-3.1-11.3-5.8-18-7.9-6.5-2-13.2-2.2-20.1-2.2zm0-87.7c13.9 0 27.9 1.8 41.6 5.6 13.6 3.8 27.1 9.6 39.3 16.9 12.2 7.3 22.7 15.4 32.6 25.9 9.9 10.5 18.6 22.1 25.9 33.7 7.3 11.6 13.1 24.2 16.9 39.3 3.8 15.1 5.6 30.4 5.6 45 0 23.2-4.5 45.2-13.5 65.2s-20.6 36.4-34.8 49.5c-14.2 13.1-32 24.9-51.7 36-19.7 11-40.3 16.9-61.8 16.9-22.6 0-43.5-4.8-62.9-13.5-19.5-8.7-36.6-20.6-51.7-36-15.1-15.4-26.7-32.8-34.8-52.8-8.1-20-12.4-42-12.4-65.2 0-22.6 4.2-44.9 12.4-65.2 8.1-20.3 19.7-37.4 34.8-52.8 15.1-15.4 32.3-27.5 51.7-36 19.3-8.6 40.2-12.5 62.8-12.5zm0-28.1c-26.7 0-50.4 4.7-73.1 14.6S71.4 38.2 54 56.2s-31.2 39.4-40.5 62.9S0 168.3 0 195.6s4.8 51 13.5 73.1c9.9 23.8 23 44.4 40.5 61.8 17.4 17.4 38.1 32.3 60.7 42.7 22.6 10.5 46.4 15.7 73.1 15.7 24.4 0 48.7-5.3 71.9-15.7 23.2-10.5 43.3-25.3 60.7-42.7 17.4-17.4 30.9-37.5 40.5-60.7 9.6-23.2 14.6-48 14.6-75.3 0-18.6-1.6-36.6-5.6-52.8-4.6-16.3-11-30.7-19.1-45-8.1-14.2-18.7-28-30.3-40.5-11.6-12.5-24.6-22.8-38.2-30.3s-27.6-13-43.8-18C222 2.9 204.6 0 187.7 0z"/></svg>