<svg xmlns="http://www.w3.org/2000/svg" viewBox="-10 0 689 690"><path d="M335 690q-72 0-134.5-26.5t-110-74q-47.5-47.5-74-110T-10 345q0-71 26.5-133.5t74-110Q138 54 200.5 27T335 0q71 0 133.5 27t110 74.5q47.5 47.5 74 110T679 345q0 72-26.5 134.5t-74 110q-47.5 47.5-110 74T335 690zm0-20q67 0 126-25t103.5-70q44.5-45 70-103.5T660 345q0-67-25.5-126t-70-103.5Q520 71 461 45.5T335 20q-68 0-127 25.5t-103.5 70Q60 160 34.5 219T9 345q0 68 25.5 126.5t70 103.5Q149 620 208 645t127 25zm51-557q-14 0-24.5-10.5T351 78q0-15 10.5-25.5T386 42q15 0 25.5 10.5T422 78q0 14-10.5 24.5T386 113zm-93 0q-14 0-25-10.5T257 78q0-15 11-25.5T293 42q15 0 25.5 10.5T329 78q0 14-10.5 24.5T293 113zm93-15q8 0 14-6.5t6-13.5q0-8-6-14t-14-6q-7 0-13.5 6T366 78q0 7 6.5 13.5T386 98zm-93 0q8 0 14-6.5t6-13.5q0-8-6-14t-14-6q-8 0-14 6t-6 14q0 7 6 13.5t14 6.5zm173 44q-14 0-24.5-10.5T431 106q0-14 10.5-24.5T466 71q15 0 25.5 10.5T502 106q0 15-10.5 25.5T466 142zm-260 0q-14 0-25-10.5T170 106q0-14 11-24.5T206 71q15 0 25.5 10.5T242 106q0 15-10.5 25.5T206 142zm260-16q8 0 14-6t6-14q0-7-6-13.5T466 86q-7 0-13.5 6.5T446 106q0 8 6.5 14t13.5 6zm-260 0q8 0 14-6t6-14q0-7-6-13.5T206 86q-8 0-14 6.5t-6 13.5q0 8 6 14t14 6zm332 74q-14 0-24.5-10.5T503 165q0-15 10.5-25.5T538 129q15 0 25.5 10.5T574 165q0 14-10.5 24.5T538 200zm-402 1q-14 0-24.5-10.5T101 166q0-15 10.5-25.5T136 130q15 0 25.5 10.5T172 166q0 14-10.5 24.5T136 201zm402-16q8 0 14-6t6-14q0-8-6-14t-14-6q-8 0-14 6t-6 14q0 8 6 14t14 6zm-402 1q8 0 14-6.5t6-13.5q0-8-6-14t-14-6q-7 0-13.5 6t-6.5 14q0 7 6.5 13.5T136 186zm-48 88q-15 0-25.5-10.5T52 239q0-15 10.5-25.5T88 203q15 0 25.5 10.5T124 239q0 14-10.5 24.5T88 274zm270 1q-15 0-25.5-10.5T322 240q0-15 10.5-25.5T358 204q14 0 24.5 10.5T393 240q0 14-10.5 24.5T358 275zm224 3q-14 0-25-10.5T546 242q0-14 11-24.5t25-10.5q15 0 25.5 10.5T618 242q0 15-10.5 25.5T582 278zM88 259q8 0 14-6t6-14q0-8-6-14t-14-6q-8 0-14 6t-6 14q0 8 6 14t14 6zm270 1q7 0 13.5-6.5T378 240q0-8-6.5-14t-13.5-6q-8 0-14.5 6t-6.5 14q0 7 6.5 13.5T358 260zm224 2q8 0 14-6t6-14q0-8-6-14t-14-6q-8 0-14 6t-6 14q0 8 6 14t14 6zm-324 37q-14 0-24.5-10.5T223 263q0-14 10.5-24.5T258 228q15 0 25.5 10.5T294 263q0 15-10.5 25.5T258 299zm0-16q8 0 14-6t6-14q0-8-6-14t-14-6q-7 0-13.5 6t-6.5 14q0 8 6.5 14t13.5 6zm178 40q-15 0-25.5-10.5T400 287q0-14 10.5-25t25.5-11q14 0 24.5 11t10.5 25q0 15-10.5 25.5T436 323zm0-16q7 0 13.5-6t6.5-14q0-8-6.5-14t-13.5-6q-8 0-14 6t-6 14q0 8 6 14t14 6zm165 54q-14 0-24.5-10.5T566 325q0-14 10.5-24.5T601 290q15 0 25.5 10.5T637 325q0 15-10.5 25.5T601 361zm-531 0q-15 0-25.5-10.5T34 325q0-14 10.5-24.5T70 290q14 0 25 10.5t11 24.5q0 15-11 25.5T70 361zm0-16q8 0 14-6t6-14q0-8-6-14t-14-6q-8 0-14 6t-6 14q0 8 6 14t14 6zm531 0q8 0 14-6t6-14q0-8-6-14t-14-6q-8 0-14 6t-6 14q0 8 6 14t14 6zm-368 48q-15 0-25.5-11T197 357q0-15 10.5-25.5T233 321q15 0 25.5 10.5T269 357q0 14-10.5 25T233 393zm0-16q8 0 14-6t6-14q0-8-6-14t-14-6q-8 0-14 6t-6 14q0 8 6 14t14 6zm214 50q-14 0-24.5-10.5T412 391q0-14 10.5-25t24.5-11q15 0 25.5 11t10.5 25q0 15-10.5 25.5T447 427zm0-16q8 0 14-6t6-14q0-8-6-14t-14-6q-8 0-14 6t-6 14q0 8 6 14t14 6zm149 35q-14 0-24.5-10.5T561 410q0-14 10.5-24.5T596 375q15 0 25.5 10.5T632 410q0 15-10.5 25.5T596 446zm-520 2q-15 0-25.5-10.5T40 412q0-14 10.5-25T76 376q14 0 24.5 11t10.5 25q0 15-10.5 25.5T76 448zm520-18q8 0 14-6t6-14q0-8-6-14t-14-6q-7 0-13.5 6t-6.5 14q0 8 6.5 14t13.5 6zm-520 2q8 0 14-6t6-14q0-8-6-14t-14-6q-8 0-14 6t-6 14q0 8 6 14t14 6zm201 51q-14 0-24.5-10.5T242 448q0-15 10.5-25.5T277 412q15 0 25.5 10.5T313 448q0 14-10.5 24.5T277 483zm98 13q-15 0-25.5-10.5T339 460q0-14 10.5-24.5T375 425q14 0 24.5 10.5T410 460q0 15-10.5 25.5T375 496zm-98-28q8 0 14-6t6-14q0-8-6-14t-14-6q-8 0-14 6t-6 14q0 8 6 14t14 6zm98 12q8 0 14-6t6-14q0-7-6-13.5t-14-6.5q-8 0-14 6.5t-6 13.5q0 8 6 14t14 6zm187 44q-14 0-25-10.5T526 489q0-15 11-25.5t25-10.5q15 0 25.5 10.5T598 489q0 14-10.5 24.5T562 524zm-448 7q-15 0-25.5-10.5T78 495q0-14 10.5-25t25.5-11q14 0 24.5 11t10.5 25q0 15-10.5 25.5T114 531zm448-22q8 0 14-6t6-14q0-8-6-14t-14-6q-8 0-14 6t-6 14q0 8 6 14t14 6zm-448 6q8 0 14-6t6-14q0-8-6-14t-14-6q-8 0-14 6t-6 14q0 8 6 14t14 6zm62 75q-14 0-24.5-10.5T141 555q0-15 10.5-25.5T176 519q15 0 25.5 10.5T212 555q0 14-10.5 24.5T176 590zm323 4q-15 0-25.5-10.5T463 558q0-14 10.5-25t25.5-11q14 0 24.5 11t10.5 25q0 15-10.5 25.5T499 594zm-323-19q8 0 14-6t6-14q0-8-6-14t-14-6q-7 0-13.5 6t-6.5 14q0 8 6.5 14t13.5 6zm323 3q8 0 14-6t6-14q0-8-6-14t-14-6q-8 0-14 6t-6 14q0 8 6 14t14 6zm-73 58q-14 0-24.5-10.5T391 601q0-15 10.5-25.5T426 565q15 0 25.5 10.5T462 601q0 14-10.5 24.5T426 636zm-172 4q-14 0-24.5-10.5T219 604q0-14 10.5-24.5T254 569q15 0 25.5 10.5T290 604q0 15-10.5 25.5T254 640zm88 9q-15 0-25.5-10.5T306 614q0-15 10.5-25.5T342 578q14 0 25 10.5t11 25.5q0 14-11 24.5T342 649zm84-28q8 0 14-6t6-14q0-8-6-14t-14-6q-7 0-13.5 6t-6.5 14q0 8 6.5 14t13.5 6zm-172 4q8 0 14-6.5t6-14.5q0-7-6-13.5t-14-6.5q-7 0-13.5 6.5T234 604q0 8 6.5 14.5T254 625zm88 9q8 0 14-6t6-14q0-8-6-14t-14-6q-8 0-14 6t-6 14q0 8 6 14t14 6z" fill="currentColor"/></svg>