<svg xmlns="http://www.w3.org/2000/svg" width="10.7" height="11"><path d="M10.7 5.5q0-.8-.2-1.4L10 2.7 9 1.6l-1-.8Q7.4.4 6.7.2L5.4 0Q4.2 0 3.3.4q-1 .4-1.7 1.2-.8.8-1.2 1.8-.4 1-.4 2.1 0 1.2.4 2.1.4 1 1.2 1.8.7.7 1.7 1.2 1 .4 2 .4 1.1 0 2.1-.4 1-.5 1.7-1.2.8-.7 1.2-1.7.4-1 .4-2.2zM4 1.4q.4 0 .5.4 0 .4-.5.5-.4 0-.5-.5 0-.4.5-.4zM.7 5.5q0-1 .4-1.8.4-.9 1-1.5.6-.7 1.5-1Q4.4.8 5.3.8q.7 0 1.2.2.6.1 1.1.4.6.3 1 .8l.7 1 .5 1 .2 1.3q0 1-.4 1.9-.4.8-1 1.5-.7.6-1.5 1t-1.8.4q-1 0-1.7-.4-.9-.4-1.5-1-.6-.7-1-1.5-.4-.9-.4-1.9zM3 2.1q.4 0 .4.4T3 3q-.4 0-.4-.5 0-.4.4-.4zm2.4-1q.4 0 .4.5 0 .4-.4.5Q5 2 5 1.6q0-.4.4-.5zm3 1.3q0 .4-.3.6-.4.2-.6-.2-.1-.4.2-.6.4-.1.6.2zM7 1.7q0 .4-.3.6-.4.2-.6-.2-.1-.4.2-.6.4-.2.7.2zM9 3.5q0 .4-.3.6-.4.1-.6-.3-.1-.3.2-.6.4-.1.7.3zM2.6 8.8q-.2-.3.2-.6.3-.2.6.2.1.3-.2.6-.3.2-.6-.2zm1.2.8q-.2-.4.2-.7.3-.2.6.2.2.3-.1.6-.4.2-.7-.1zm-2-1.8q-.3-.3.1-.6.4-.2.6.2.2.3-.1.6-.4.2-.7-.2zm-.5-3.1q.2-.3.6-.1.4.2.2.6-.3.3-.7.1-.3-.3-.1-.6zm0 1.4q.3-.3.7 0 .3.1.1.5-.2.3-.6.2-.4-.3-.1-.7zm.3-2.7q.3-.4.7-.1.3.2.1.6-.2.3-.6.1-.4-.2-.2-.6zm8 2.8q-.3.3-.7.1-.3-.1-.2-.5.2-.4.6-.3.4.2.3.7zM9.5 5q-.3.3-.7.1-.3-.1-.2-.5.2-.4.6-.3.4.3.3.7zm-.3 2.5q-.2.3-.6.1-.3-.1-.2-.5.2-.4.6-.2.4.1.2.6zm-2.4 2q-.4 0-.4-.4t.4-.5q.4 0 .5.5 0 .4-.5.5zM8 8.8q-.5 0-.5-.4 0-.5.5-.5.4 0 .5.5 0 .4-.5.4zM5.6 9.8q-.4 0-.4-.4t.4-.5q.4 0 .5.5 0 .4-.5.4zm-.9-6.1q.4 0 .5.4 0 .4-.5.5-.4 0-.4-.5 0-.4.4-.4zm1.4 0q.4 0 .4.4t-.4.5q-.4 0-.5-.5 0-.4.5-.5zm.8 1q.4 0 .4.5 0 .4-.4.5-.4 0-.5-.5 0-.4.5-.4zM6.5 6q.5 0 .5.5 0 .4-.5.5-.4 0-.4-.5 0-.4.4-.5zm-1.2.6q.4 0 .4.5 0 .4-.4.4t-.5-.4q0-.5.5-.5zM4 5.9q.4 0 .4.4t-.4.5q-.4 0-.5-.5 0-.4.5-.4zm-.4-1.2q.4 0 .4.4t-.4.5q-.4 0-.5-.5 0-.4.5-.4z"/></svg>