<svg xmlns="http://www.w3.org/2000/svg" viewBox="-10 0 1162 784"><path d="M-10 784V476q39 9 77 34.5t69 57q31 31.5 50 59.5L327 0h488l141 627q19-28 50.5-59.5t69-57Q1113 485 1152 476v308zm213-141h736L798 19H343zm296-472l-13-14q5-16 18-35t44-40q25-17 52.5-22.5T644 55l11 15q-5 21-18.5 39.5T600 143q-27 18-56 23t-45 5zm11-19q13-2 35.5-6t43.5-19q20-13 28.5-26T631 75q-13 0-34.5 5.5T559 98q-22 16-33 30t-16 24zm-11 156l-13-14q5-16 18-35t44-41q25-17 52.5-22.5T644 192l11 15q-5 21-18.5 39.5T600 280q-27 18-56 22.5t-45 5.5zm11-20q13-2 35.5-6t43.5-19q20-13 28.5-25.5T631 212q-13 0-34.5 5.5T559 235q-22 16-33 29.5T510 288zm-11 157l-13-15q5-15 18-34t44-41q25-17 52.5-22t43.5-4l11 14q-5 21-18.5 39.5T600 417q-27 18-56 22.5t-45 5.5zm11-20q13-1 35.5-5.5T589 400q20-14 28.5-26.5T631 348q-13 0-34.5 6T559 372q-22 16-33 29t-16 24zm-11 156l-13-14q5-15 18-34.5t44-40.5q25-17 52.5-22.5T644 466l11 14q-5 21-18.5 39.5T600 553q-27 18-56 23t-45 5zm11-19q13-2 35.5-6t43.5-19q20-13 28.5-26t13.5-26q-13 0-34.5 5.5T559 509q-22 16-33 29.5T510 562zM9 764h1123V500q-35 12-70.5 41.5t-64 63Q969 638 955 663H187q-14-25-42.5-58.5t-64-63Q45 512 9 500z" fill="currentColor"/></svg>