<svg xmlns="http://www.w3.org/2000/svg" viewBox="0 0 579.7 452.4"><path d="M552 432.2v-73.7c0-17.2-3.8-25.8-11.3-25.8-6.7 0-12 8.6-15.8 25.8-7.1 26-12 41.6-14.5 46.6H69.3c-2.5-5-7.4-20.6-14.5-46.6-3.8-17.2-9-25.8-15.8-25.8-8 0-12 8.6-12 25.8v73.7h525zm-107.8-49.7L387.5 27.7H192.2l-56.7 354.7h308.7zM411.5 0L472 382.5h16.4c11.8-52.9 29-79.4 51.7-79.4 26.5.4 39.7 10.5 39.7 30.2v119.1H0V333.3c0-19.7 13.2-29.8 39.7-30.2 22.7 0 39.9 26.5 51.7 79.4h16.4L168.2 0h243.3zM238.2 112.8c15.5-35.3 36.8-53.2 63.6-53.9 26.9-.6 34.6 9.7 23 30.9-11.5 21.2-40.4 28.9-86.6 23zm-.7 77.5c16-35.7 37.4-53.9 64.3-54.5 26.9-.6 34.4 9.7 22.7 30.9-11.8 21.2-40.7 29.1-87 23.6zm0 76.2c16-35.3 37.4-53.3 64.3-54.2 26.9-.8 34.4 9.5 22.7 30.9-11.8 21.4-40.7 29.2-87 23.3zm0 85.1c16-35.3 37.4-53.2 64.3-53.9 26.9-.6 34.4 9.7 22.7 30.9-11.8 21.2-40.7 28.9-87 23z"/></svg>