<svg xmlns="http://www.w3.org/2000/svg" viewBox="0 0 638.2 594.5"><path d="M212 594.5h228.6V0H212v594.5zM412.7 340H297.5v226.7h-57.6V25.9h172.9V340zm0 27.9v198.8h-87.4V367.9h87.4zm-1.9-183.5H243.7C250.1 126.1 278 97 327.3 97s77.1 29.1 83.5 87.4zm-19.2-16.3c-9-37.1-30.4-55.7-64.4-55.7-34.6 0-56.3 18.6-65.3 55.7h129.7z"/><path d="M89 244.9V276l-16.5-1.6-8.9-1c-19-4.5-28.7-9.1-33.9-12.8 4.8-3.4 14.2-7.7 34.1-12.8 8.6-.9 16.5-1.9 25.2-2.9zm390.2-2.9c53.7 0 101.2 2.9 120 7.8 6.3 1.8 10.8 4.2 13.5 6.8 1.7 1.7 2.4 3 2.3 4.2 0 1.5-1 3.2-3 5.2-3 2.9-7.7 5.6-14.2 7.7-14.7 3.9-44.4 5.4-81.3 5.4-11.1 0-22.8-.1-35-.4-53.6-1.1-115.5-4.4-169.3-7.7-25.1-1.6-49.4-3.7-92.6-3.7-13.5 0-28.8.2-46.6.7-.8 0-22.9 1.8-33.6 4.1-7.3 1.6-13.3 3.5-20.6 5l.2-30.7c6.8 1.6 11.7 3.7 18.5 5.6 8.8 2.4 33 4.2 36.7 4.2h.3c19 .1 36.5.4 53.4.4 28 0 54.2-.6 82.9-3.4h.4l.4-.1c44.5-7.8 109.7-11.1 167.6-11.1zM90 204l-.5 17.1c-9.2 1-20.5 2.9-29.2 3.8l-.8.1-.8.2c-44 11.1-48.7 21.3-54.3 29.4L0 261.2l4.7 6.6C10.2 275.6 20 286.9 59 296l.7.2.7.1 9.6 1 18.5 1.8-.3 23.9H119l.4-23.2c7.6-1.6 17.4-3.5 25-5.2 9.1-2 28.1-3.6 28.7-3.6 17.7-.5 32.9-.7 46.3-.7 43 0 66.8 2.1 91.4 3.6 54.1 3.4 116.3 6.7 170.3 7.8 11.7.2 23 .4 33.8.4 39.8 0 72.3-1.8 89.5-6.4 10.5-3.4 18.3-8 23.8-13.3 6.4-6.2 9.8-13.6 10.1-21.1.2-7.8-3-15.4-9.4-21.5-5.5-5.2-13.3-9.6-23.5-12.4-20.7-5.4-70.9-8.5-127.2-8.5-58.8 0-124.4 3.4-169.8 11.3-27.7 2.6-53.2 3.2-80.5 3.2-16.9 0-34.6-.2-53.8-.4h-.3c-3.2 0-23.2-1.6-30.1-3.4-7.7-2.1-18.1-6.3-25.9-8l.2-17.4-28-.2z"/></svg>