<svg xmlns="http://www.w3.org/2000/svg" viewBox="-10 0 1213 1227"><path d="M241 1227V619q-10 10-16.5 20.5T214 658h-30q-7-21-35-42.5t-69-40Q39 557-10 544v-54q49-13 90-31.5t69-40q28-21.5 35-42.5h30q4 8 10.5 18t16.5 20V0h741v402q5 0 10-.5t9-.5q90 1 146 28.5t56 87.5q0 64-56 89.5T1001 633h-9l-10-1v595zm51-777V50h639v355l31-2V19H260v413q13 10 32 18zm100 21q12 0 46-4t83-10q49-6 105-14 73-10 150-20t136-16V70H311v389q34 12 81 12zm55-94q0-51 22.5-91t60.5-63q38-23 84-23t84 23q38 23 60.5 63t22.5 91zm20-20h293q-3-34-22-65.5t-51-52Q655 219 614 219q-42 0-74 20.5t-51.5 52Q469 323 467 357zM206 631q11-19 33.5-39.5t60-34.5q37.5-14 92.5-14 13 0 48.5 4t85 10q49.5 6 103.5 14t111 15q57 7 109 13.5t91.5 10Q980 613 1001 613q81 0 132-22t51-74q0-50-51-73t-132-23q-21 0-60.5 3.5T849 434q-52 6-109 13.5T629 463q-54 7-103.5 13.5t-85 10.5q-35.5 4-48.5 4-53 0-90-14.5t-60.5-35Q218 421 206 402q-17 59-17 119 0 28 4 56t13 54zm-25-15q-6-23-8.5-47t-2.5-48q0-27 3-53.5t10-52.5q-25 26-71.5 50T9 505v24q54 16 101 39t71 48zm371 541h360V627q-59-7-136-16.5T626 591q-56-8-105-14.5T438 566q-34-4-46-4-24 0-44 3.5t-37 9.5v122h241zm-292 51h702V631q-7 0-15-1l-16-2v548H292V748h209v409h31V717H292V583q-9 4-17 9t-15 10zm51-51h171V767H311z" fill="currentColor"/></svg>