<svg xmlns="http://www.w3.org/2000/svg" viewBox="0 0 504.7 594.5"><path d="M326.8 399.1v171.3h-75.7V399.1h75.7zm0-24.1H227v195.4h-49.1V140.5c17.7 5 43 7.5 75.7 7.5 24.9 0 49.3-2.5 73.2-7.5V375zm-74-251.1c-95.3.6-164.6-33-207.9-100.6h414.9c-44.3 67.6-113.3 101.2-207 100.6zm98.1 10c66-16.6 117.2-61.3 153.8-133.9H0c36 72.1 87.3 117.2 153.8 135.5v459h197.1V133.9zm-25.8 143.8H180.4c5.5-50.4 29.7-75.7 72.3-75.7 42.8.1 66.9 25.3 72.4 75.7zm-15.8-13.3c-8.3-32.7-27.2-49.1-56.5-49.1-29.4 0-48 16.4-55.7 49.1h112.2z"/></svg>