<svg xmlns="http://www.w3.org/2000/svg" viewBox="-10 0 1062 1221"><path d="M248 1221V357q-84-42-138-103T27.5 126Q-1 59-10 0h1062q-9 59-38 126t-82.5 128Q878 315 794 357v864zm273-826q105 0 185-25t137-66.5q57-41.5 95-91t59.5-100Q1019 62 1028 20H14q9 42 30.5 92.5t59.5 100q38 49.5 95.5 91t137 66.5Q416 395 521 395zm-253 807h506V366q-7 3-15 6.5t-16 5.5v465H571v327H299V378q-8-2-16-5.5t-15-6.5zm50-51h233V823h173V385q-43 14-94 22t-109 8q-58 0-108.5-8T318 385zm79-543q-1-26 12-57t41-53q28-22 71-22t71 22q28 22 41 53t12 57zm20-20h209q-3-19-15-40t-34.5-36.5Q554 496 521 496t-55.5 15.5Q443 527 431 548t-14 40zm185 582V874h141v296zm20-19h102V894H622z" fill="currentColor"/></svg>