<svg xmlns="http://www.w3.org/2000/svg" viewBox="-10 0 1333 681"><path d="M235 681V552h197q-105-19-187.5-52t-145-71Q37 391-10 355l19-33q50 32 118.5 63.5t150 57.5Q359 469 448 485q0-10 2-28t8-37q6-19 18-32 23-23 58-30.5t67-11.5q16-1 31-3t26-7q17-6 34-23.5t33-37.5h-1q22-27 44.5-49t50.5-22q35 0 48 23.5t13 54.5v200q22-5 43.5-9.5T966 463V176L881 21l38-21 47 87V41h43v124l133 240q47-20 88-41t74-42l19 33q-32 23-70 48.5t-84 50.5l33 58q8 2 28.5 15.5T1265 567q10 20 14 42.5t1 41q-3 18.5-13 24.5t-27-1.5q-17-7.5-34-23t-29-35.5q-14-25-15-50t2-33l-33-59q-52 25-114 45.5T882 552h209v129zm881-266l12-5L913 21l-11 6zM994 136V56h-12v59zm-12 323q3-1 6-1.5t6-2.5V225l-12-21zm-326 45q52 0 103.5-5T861 486V282q0-24-8.5-41T819 224q-21 0-40.5 19.5T739 287q-17 21-35.5 40.5T665 355q-12 4-28.5 7t-33.5 4q-31 3-62.5 9.5T490 402q-11 11-16 29.5t-6 35q-1 16.5 0 21.5 46 7 93.5 11.5T656 504zm353-53q24-7 47-15l46-16-93-166zM656 552q119 0 216.5-18.5t176.5-48q79-29.5 140-64t107-67.5l-3-5q-51 33-121 64t-153.5 56Q935 494 843 508.5T656 523q-95 0-187-14.5T294 469q-83-25-153-56T20 349l-3 5q46 33 107 67.5t139.5 64q78.5 29.5 176 48T656 552zm603 107q10-5 7-32t-17-52q-14-26-31-35.5t-27-16.5l-35-62q-3 2-6 3t-5 2l35 64q-1 11-1.5 30.5T1192 607q14 24 35.5 41.5T1259 659zm-1004 2h817v-89H255z" fill="currentColor"/></svg>