<svg xmlns="http://www.w3.org/2000/svg" viewBox="0 0 585.9 212.4"><path d="M298.9 17.2c-19.5 21.7-44.7 37.9-75.7 48.6-16.6 8.8-23.4 25.8-20.4 50.8C146 104.5 87.1 86.2 26 61.9c-27.1-8.2-36.1 16.5-12.1 30.4 55.7 32.6 107 55.1 170.7 65.2H136v49.2h327v-49.2h-75.7c32.3-9.5 60.9-28 89.8-44.8l15.7 15.7c7.6 19 15.3 38.2 25.8 55.8 11.2 16.2 42.5 36.9 62 24.2 13.2-14-.9-39.9-10-52.3-17.7-18-45.5-27.4-68.5-37l-13.2-13.2c27.5-15.9 54.3-31.4 81.7-47.3 4.9-15.3-5.7-36.6-22.6-38.1-19.5 10.7-54.7 32.7-91.9 52.6L390.9 7.9c-7-2.1-13 6.9-7.1 11.5l60 60c-30.3 15.5-60.9 28.6-84.8 32.2V39.3c2.2-20.6-1.8-33.1-12.1-37.6-19.1-5.6-33.8 3.2-48 15.5zm29.2 8.2c4.7-.1 6.9 4.4 6.6 13.3v79.5c-34.6 4.4-71.4 4.4-110.5 0-1.1-18 3.7-30 14.4-35.9C267.7 72 293.8 54.7 317 30.4c4.6-3.3 8.3-4.9 11.1-5zm216 12.8c7.7 1.8 10.5 6.8 8.3 14.9C523 70.6 498.6 85 479.3 96.3l-13-13 77.8-45.1zM21 71.3c77.3 33.1 137.5 53.4 180.6 60.8 56.7 4.8 102.1 5.1 136.2.8 44.3-4.2 79.3-21.1 116.7-42.8l13 13c-43.7 26-92.5 48.1-143.8 51-45.9.7-92.1-.3-137.5-7.7-47.2-8.1-103.9-29.4-170.1-64L21 71.3zm501.7 70.9c12.1 6.5 25.3 11.8 34.7 22.1 4.7 3.8 21.8 32 9.5 33.1-21.2-1.3-34.4-15.6-43.6-33.7-4-8.4-8.6-16.6-12.4-25 .9-4.4 9.6 2.4 11.8 3.5zM152.5 173h293.3v19.9H152.5V173z"/></svg>