<svg xmlns="http://www.w3.org/2000/svg" viewBox="-10 0 991.88 821.091"><path d="M903 821.09q-72 0-130-30.5t-101-77q-43-46.5-71-98t-40-93.5l-296-235q-9 37-5 75 3 35 17.5 73t32 71.5q17.5 33.5 29.5 54.5 9 15 14 24 7 15 1.5 31.5t-25.5 16.5q-19 0-32.5-17t-26.5-34q-27-38-49-92t-29-107q-5-37-1-77.5t11-68.5l-179-143q-19-15-25.5-28t-7.5-25q0-17 10.5-28T33 .09q16-1 31 9t29 23l511 446q8 2 16 3l16 2q30 4 69 12.5t97 40.5q54 29 90.5 71.5t58 85.5q21.5 43 28 74.5t.5 38.5q-6 7-27 11t-49 4zm0-20q49 0 58-9 3-4-5-32t-28-66.5q-20-38.5-53.5-76.5t-80.5-63q-56-29-93.5-38.5t-66.5-13.5q-8-1-18.5-2.5t-19.5-3.5l-516-449q-12-11-23.5-20t-22.5-8q-26 2-24 21 0 9 4.5 18t19.5 20l543 432q12 40 38.5 90t67.5 96q41 46 96 75.5t124 29.5zm-579-188q10 0 12.5-6.5t-1.5-15.5q-1-1-4.5-7t-7.5-13q-13-21-31.5-54.5t-33.5-74q-15-40.5-18-79.5-5-45 9-89l-28-22q-6 25-10 61t1 70q7 50 28 101t46 86q12 17 21.5 30t16.5 13z" fill="currentColor"/></svg>