<svg xmlns="http://www.w3.org/2000/svg" viewBox="0 0 590.1 590.3"><path d="M587.5 565.5c-4.3 10.8-11.6 18.1-21.9 21.9-23.2 5.6-49.2 3-78.1-7.7-42.6-16.8-74.2-44.3-94.8-82.6s-43-88.2-67.1-149.7L158.5 181c-10.8-.9-17.8 7.1-21.3 23.9-10.8 51.2-1.1 116.8 29 196.7-9.5 5.6-18.5-.6-27.1-18.7-33.5-62.4-43.9-123.9-31-184.5 3.9-12.9 6.7-25.8 8.4-38.7.9-12.9-5.8-26.4-20-40.6L.5 22.3C-2.1 5.5 5.2-1.8 22.4.4l325.1 325.1c60.6 24.9 110.3 47.5 149 67.7 38.7 20.2 66.4 52 83.2 95.5 10.4 27.9 13 53.5 7.8 76.8zm-32.2-32.3c-3.4-25.8-14.1-49.6-31.9-71.3-17.8-21.7-41.2-39.7-70-53.9L383 371.3c-8.6-.9-12.3 2.8-11 11l36.1 71.6c13.3 30.1 31 53.6 52.9 70.6 21.9 17 46 27.2 72.2 30.6 16 1.8 23.4-5.6 22.1-21.9z"/></svg>