<svg xmlns="http://www.w3.org/2000/svg" viewBox="0 0 588.9 304"><path d="M6.1 1.5C21.6-4.8 39 9.2 58.2 43.6c14.4 25.5 22.7 48.1 25 67.7l51.6-30C161.1 65.8 182.1 56 198 51.9h-76V2.6h328.4V52h-48.8c26.6 3.7 51.5 9.8 74.6 18.3 23.1 8.5 55.4 24.2 96.8 47.2 14.8 7 19.2 15.7 13.3 26.1-4.8 6.7-13.3 8.1-25.5 4.4-61.4-24.4-120.6-42.7-177.5-54.9 3 25.2-3.9 42.2-20.5 51-31.1 10.7-56.4 27-76 48.8-15.9 15.2-32 20.3-48.3 15.5-10.4-4.4-14.4-17-12.2-37.7V98c-30 4.4-55.7 14.4-77.1 30v101l37.2 61.6c-2.6 11.1-9.4 15.3-20.5 12.8L84.3 161.8l-47.7 27.7c-7.4.4-13.8-4.3-19.1-13.9s-6.6-17.8-3.6-24.4l48.8-27.7c-14.4-12.6-29.2-31.6-44.4-57.1C-.9 33.5-5 11.8 6.1 1.5zm99.3 149.8l28.3 47.2v-63.2l-28.3 16zM16.6 19.2c-7 4.4-3.4 19 10.8 43.8 14.2 24.8 24.9 34.8 31.9 30 7-3.3 3.4-17.4-10.8-42.2S23.7 15.5 16.6 19.2zm234.2 72.1v79.9c-.4 14.4 5.5 17.2 17.8 8.3 23.3-24.4 49.6-41.8 78.8-52.2 10.7-5.9 15.5-17.9 14.4-36.1-39.3-4.3-76.3-4.3-111 .1zM40.5 171.8l114.8-66.6c27.4-14.8 58.2-24.3 92.4-28.6 34.2-4.3 79.8-4 136.8.8 43.3 7.4 103.7 27.7 181.4 61l5-11.1C504.3 92.6 447.3 71.2 400 63c-15.2-3-42.9-5.5-83.2-7.8h-54.9c-23.7-.7-60.1 9.8-109.3 31.6-17 8.9-57.1 32.2-120.4 69.9-2.3 8.2.5 13.2 8.3 15.1zm98.7-155.4v20h294.6v-20H139.2z"/></svg>