<svg xmlns="http://www.w3.org/2000/svg" viewBox="-10 0 1333 680"><path d="M394 680l-48-86v46h-43V516L170 276q-47 20-88 40.5T9 358l-19-32q31-24 69-49.5t85-49.5l-33-59q-8-2-29-15.5T48 114Q37 94 33 71t-1-41q3-18 13-25 10-5 27.5 2.5t35 23Q125 46 136 66q13 25 14 49.5t-1 32.5l33 60q52-25 113.5-45.5T430 129H221V0h856v129H881q106 19 188 52t144.5 71q62.5 38 109.5 74l-19 32q-50-32-118.5-63T1035 238q-82-26-171-42 0 10-1.5 28t-7.5 37q-6 19-18 32-22 23-57.5 30.5T712 334q-16 2-31.5 4t-26.5 6q-17 7-33 24.5T588 406q-21 26-43.5 48T494 476q-36 0-49-23t-13-55V199q-22 4-43 9t-43 10v286l86 155zM241 109h817V19H241zm-84 111q3-2 6-3t5-3l-36-64q1-10 2-30t-14-46q-13-25-34-42T54 21q-11 6-7 32.5T64 106q14 26 31 35.5t27 15.5zM20 331q51-33 121-64t153-56q83-25 175-39.5T656 157q95 0 187 14.5t175.5 39.5q83.5 25 153.5 56t121 64l3-5q-46-33-107-67.5t-140-64Q970 165 872.5 147T656 129q-119 0-216.5 18t-176 47.5Q185 224 124 258.5T17 326zm474 126q21 0 40-20t39-44q17-21 36-40t39-27q12-4 28.5-7t33.5-4q31-3 62-9.5t51-26.5q11-11 15.5-29.5t5.5-35q1-16.5 1-22.5-93-15-189-15-103 0-204 18v203q0 24 8.5 41.5T494 457zm-163 19V222q-3 1-6 1.5t-6 1.5v230zm-28-49V230q-23 7-46.5 14.5T211 260zm97 232l10-6-214-387-11 5zm-81-35h12v-58l-12-22z" fill="currentColor"/></svg>