<svg xmlns="http://www.w3.org/2000/svg" viewBox="0 0 593.9 213.8"><path d="M467.7 132.6c-27 16-48.8 26.1-65.1 30.3h78.3v50.9H142.6v-50.9h50.3c-27.4-3.8-53-10.1-76.8-18.9-23.8-8.8-57-24.9-99.7-48.6C1.1 88.3-3.5 79.3 2.6 68.6c5-6.9 13.7-8.4 26.3-4.6 63.2 25.1 124.2 44 182.8 56.6-3-25.9 4-43.4 21.1-52.6 32-11 58.1-27.8 78.3-50.3 16.4-15.6 32.9-21 49.7-16 10.7 4.6 14.9 17.5 12.6 38.9v74.8c58.7-8.8 156.7-73.1 195.4-94.3 7.6-.4 14.2 4.4 19.7 14.3s6.8 18.3 3.7 25.1c-41.5 24.1-81.3 47.3-124.5 72.1zm-119.4-10.3V40.1c.4-14.9-5.7-17.7-18.3-8.6-24 25.1-51 43-81.1 53.7-11 6.1-16 18.5-14.9 37.1 40.4 4.6 78.5 4.6 114.3 0zm216.5-82.8l-118.3 68.6c-28.2 15.2-59.9 25-95.1 29.4-35.2 4.4-82.2 4.1-140.8-.9C166 129 103.7 108.1 23.8 73.8l-5.1 11.4c68.6 35.8 127.2 57.9 176 66.3 15.6 3 44.2 5.7 85.7 8H337c24.4.8 61.9-10.1 112.6-32.6 17.5-9.1 58.9-33.1 124-72 2.1-8.4-.8-13.5-8.8-15.4zm-101.7 160v-20.6H159.7v20.6h303.4z"/></svg>