<svg xmlns="http://www.w3.org/2000/svg" viewBox="-10 0 1164 918"><path d="M-5 918V796h130l32-47q-72-35-119.5-89.5T-10 533q0-50 27-84t71.5-52.5Q133 378 188 373l46-73q30 25 45.5 58t15.5 65q0 30-13.5 62.5T246 540l-51-74h-17q-37 0-64 18t-27 49q0 43 39 71.5T227 650l110-157 22 2q46-26 72-79.5T457 299q0-61-24-107t-68-69l-28 1v-17l241-14 66-93h20l66 93 222 14v17l-41-2q38 25 58 70.5T989 299q0 63-23.5 115T901 497l51-4v17l-288 19v161q96-2 196.5-22t202.5-72l32-176h59v209q-22 47-61 79.5t-85.5 54Q961 784 917 796h225v122zM709 92l-45-63v60zm-110-1l45-3V29zm45 421V105l-247 16q38 25 58.5 71T476 299q0 63-23.5 115T389 497zm20 0l199-13q50-23 78-79t28-121q0-63-25.5-110T871 119l-207-13zM443 796h341q69 0 139-21t127-58.5q57-37.5 84-88.5V437h-22l-30 168q-107 61-221.5 82T626 708q-43 0-100.5-2T405 698.5q-63-5.5-123-17T174 651q-48-19-77-48t-29-70q0-41 33-62.5t74-21.5h27l45 61q15-18 21.5-41t6.5-46q0-23-9.5-49T236 330l-37 61q-44 1-88 16t-73 46Q9 484 9 533q0 59 37.5 107T147 723q63 35 140 54t156 19zm187-106h14V529l-297-18-100 145q56 14 121.5 21.5t133 10Q569 690 630 690zM149 796h144q-61-13-118-38zM14 901h1109v-88H14z" fill="currentColor"/></svg>