<svg xmlns="http://www.w3.org/2000/svg" viewBox="0 0 586 467.7"><path d="M585.4 233.5c6.6 82.9-41.9 139.2-145.4 169h111.8v65.1H0v-65.1h56.6c-3.9-20.6 3.1-36 21-46-51.3-25.4-77-57-77-94.7 0-44.7 27.6-70.8 82.9-78.3 17.1-10.1 33.1-24.8 48-44.1 20.6 29.8 29.2 57.2 25.7 82.2l5.9 3.9c6.1-11 12.1-15.2 17.8-12.8s5.5 8.2-.7 17.4l7.9 1.3c34.2-58.8 32.4-116.2-5.3-172.3L145.3 65c-11.4-2.2-13.2-6.1-5.3-11.8 13.6-6.6 35.1-11.4 64.5-14.5 24.6-1.3 59.6-2 105.2-2 0-24.6 4.6-36.8 13.8-36.8 9.2 0 13.8 12.3 13.8 36.8 18.4 0 53.9.9 106.6 2.6 32.9 2.6 55.9 7.2 69.1 13.8 4.8 7.5 2.4 10.3-7.2 8.6l-41.4-3.3c19.3 56.6 19.3 115.1 0 175.6 13.2-1.3 26.5-3.3 40.1-5.9 11.4-.9 13.4 3.5 5.9 13.2-72.4 17.5-130 26.3-173 26.3v85.5c46-2.2 92.5-12.4 139.4-30.6 46.9-18.2 70.4-50.8 70.4-97.7-.4-10.5 5.9-15.8 19.1-15.8 13.2.2 19.5 8.3 19.1 24.5zm-140.8 3.3c22.4-62.3 22.6-122.3.7-180.2-25.9-.9-61.8-1.3-107.9-1.3v195.4c43-2.7 78.7-7.3 107.2-13.9zm-134.8 13.8V55.3c-39-.4-74.5.2-106.6 2 32.9 57.4 34.2 116.9 3.9 178.2 37.4 8.3 71.6 13.3 102.7 15.1zm259.8-4.6c-2.6-15.8-5.3-15.8-7.9 0-.4 32.9-19.3 59.7-56.6 80.6-37.3 20.8-77 34-119.1 39.5-42.1 5.5-87.8 5.6-137.1.3s-92.6-14.9-129.9-28.9l-9.9 15.8c58.8 24.6 109.1 38.4 151 41.4 41.9 3.1 84.3 3.1 127.3 0s83.6-17.6 122-43.7c38.4-26.2 58.5-61.2 60.2-105zm-34.9 173.6H17.1v30.9h517.6v-30.9zM140.1 230.2c0-28.5-4.6-48.5-13.8-59.9-19.3 18-36.1 28.2-50.3 30.6-14.3 2.4-27.2 8.2-38.8 17.4-11.6 9.2-17.2 23.9-16.8 44.1 0 28.1 23.7 56.1 71 84.2l9.2-14.5c-40.3-24.6-61.4-48.2-63.1-71 1.8-21 10.2-34.4 25.3-40.1 15.1-5.7 40.9-2.6 77.3 9.2zm7.2 24.3c-41.2-17.1-66.8-23.6-76.6-19.4-9.9 4.2-14.6 12.8-14.1 26 .9 16.2 19.1 33.8 54.6 52.6l36.1-59.2zm41.5 151.3c-32.4-9.6-59.2-20.6-80.2-32.9-1.3 14.9-7.5 24.6-18.4 28.9l98.6 4zm-29.6-76.9v-59.2L130.9 319c10.5 4.4 19.9 7.7 28.3 9.9zm13.8 3.3c41.7 14 87.3 21 136.8 21v-85.5c-31.1 0-76.7-7.2-136.8-21.7v86.2z"/></svg>