<svg xmlns="http://www.w3.org/2000/svg" viewBox="0 0 588.8 322.5"><path d="M23.6 66.4h5c33.9 72.3 72 116.9 114.4 133.6 42.4 16.7 89.9 25.1 142.6 25.1 52.7 0 100.1-8.5 142.3-25.4 27.7-11.2 53.7-33.9 78.1-68.2 12.4-18.2 24.8-39.5 37.2-63.9l5-.6c-32.7 79-70.8 130.7-114.4 155.3-43.6 24.6-95 36.9-154.1 36.9S171 246.9 131.2 222.3C91.3 197.7 55.4 145.7 23.6 66.4zm-7.5 239.9v-28.5h554.4v28.5H16.1zm436-140.1V94.9l30.4 42.2c-11.2 14.4-21.4 24.1-30.4 29.1zm75.6 18c12.4-2.5 23.3 2.6 32.6 15.2s13.3 27.8 12.1 45.6c-16.9-3.7-30.1-12-39.4-24.8-9.3-12.9-11.1-24.9-5.3-36zM182.3 196c-8.7-2.1-20-5.8-34.1-11.2-26-10.3-51.3-32.9-75.7-67.6l83.7-6.8 16.1-1.2 39.1-3.7 16.1-1.2 60.8-5-2.5-12.4-57.7 5-14.3.6-45.8 4.2-13.6.6-90.5 8.1c-11.2-16.9-24-39.3-38.4-67-3.7-9.9-9.1-13.1-16.1-9.6-7 3.5-8.1 9.8-3.1 18.9 24 101.7 76.5 173.2 157.5 214.6L0 261.7v60.8h586.6v-60.8H405.5c50-26 84.1-56 102.3-89.9l3.7 5c-5.8 23.6-.8 43.6 14.9 60.1 15.7 16.5 34.9 24.8 57.7 24.8 7.4-21.5 6-42.6-4.3-63.3-10.3-20.7-28.5-31.4-54.6-32.2l-6.8-9.9c13.6-20.7 30.4-58.5 50.2-113.5 4.5-7.9 3.5-13.8-3.1-18-6.6-4.1-12.2-1-16.7 9.3-19 36-37.6 65.5-55.8 88.7l-40.9-56.4V5.6c0-3.7-3.5-5.6-10.5-5.6-6.6 0-9.9 1.9-9.9 5.6v32.2L413 12.4c-1.7-4.1-5.2-4.3-10.5-.6-5 3.7-6 7.4-3.1 11.2l32.2 43.4v114.1c-2.9 1.7-10.1 4.8-21.7 9.3-31 12-72.6 18.2-124.6 18.6-33.9 0-62.4-2.7-85.6-8.1v-68.8c24.8 0 33.5-22.3 26-67l-14.3-.6c7.4 35.6.6 53.3-20.5 53.3-20.7 0-27.3-17.6-19.8-52.7h-14.3c-7.4 44.6 1 67 25.4 67V196z"/></svg>