<svg xmlns="http://www.w3.org/2000/svg" viewBox="-10 0 1147.143 610"><path d="M95.143 610V461h158q-51-13-101-32.5t-91.5-46.5q-41.5-27-65.5-60-6-8-5-21t4-32q3-19 6.5-45.5t3.5-60.5q0-21-2-52t-5-61.5q-3-30.5-5-49.5h62q10 62 18 128t1 127q17 19 83.5 49t187.5 46V154q0-41 21-65.5t50.5-35.5q29.5-11 55.5-11h81q25 0 55 11t51 35.5q21 24.5 21 65.5v199q50-5 90-12.5t74-17.5V186l-76-113 34-25 42 61V49h43v123l70 102q25-16 47-34.5t41-39.5h54q-11 47-34 85t-55 68l15 21q2 0 8.5.5t11.5 2.5q6 2 20.5 16.5t31.5 33.5q17 19 29 36t12 25q0 20-14.5 35t-33.5 15q-14 0-20.5-5t-12.5-11q-2-3-13-17t-24-32.5q-13-18.5-23-34.5t-10-21q0-15 3-18l-13-19q-40 29-85.5 49t-92.5 32h158v149zm299-149h250q58 0 124-13t128-41.5q62-28.5 109.5-74.5t67.5-112h-21q-34 35-78 64.5t-106.5 50.5q-62.5 21-149.5 32.5t-207 11.5q-108 0-190-13t-138.5-32.5q-56.5-19.5-88.5-39.5t-41-33q2-14 2.5-29t.5-27q0-48-6-99t-12-86h-24q2 18 4.5 43.5t4 52q1.5 26.5 1.5 47.5 0 36-3.5 62.5t-6.5 46.5q-6 33-3 39 28 33 75 60.5t102 47.5q55 20 109 31t97 11zm117-101q41 0 78-1.5t70-3.5V154q0-34-18-54t-43-29q-25-9-46-9h-81q-22 0-47 9t-43 29q-18 20-18 54v198q33 4 70 6t78 2zm348-42q3-1 6-1.5t6-1.5V65h-12zm-16-160v-22l-45-66-10 7zm89 130l10-6-56-83v22zm-46 21q8-4 16-7t16-7l-32-46zm204 213q13 0 22-10t9-23q0-7-11-21.5t-26-30.5q-15-16-28.5-28.5t-18.5-15.5q-8-2-22-4l-18-26q-3 2-9 8l19 27q-1 3-2 8.5t-1 10.5q0 4 9 18t21.5 30.5q12.5 16.5 23 30t13.5 16.5q3 4 7.5 7t11.5 3zm-976 68h823V480h-823z" fill="currentColor"/></svg>