<svg xmlns="http://www.w3.org/2000/svg" viewBox="0 0 595.3 339.5"><path d="M329.5 227.6v-108c0-5.5-5-8.3-15-8.3s-15 13.3-15 39.9c0 12.2-9 18.3-27.1 18.3-27.7 0-47.8 17-60.4 50.9 51.4 8.1 90.5 10.5 117.5 7.2zm111.8 93.1v-25.5H118v24.9l323.3.6zM0 15C7 6.1 20.1 1.1 39.3 0 55.6-.3 70 3.5 82.5 11.7l-16 47c7.8 31.7 6.5 63.3-3.9 94.7 41.3 32.1 84.7 53.7 130.1 64.8 12.9-44.3 39.9-66.5 80.8-66.5 4.4 0 6.5-2.4 6.1-7.2 0-33.2 11.7-49.9 35.2-50.1 23.4-.2 35.2 6.6 35.2 20.2v111.9c58-7 111.1-24.2 159.5-51.5-39.1-18.1-62.8-59.8-70.9-125.1 20.3-8.9 40.2-7.6 59.8 3.9-8.5 50.2 23.8 87.1 96.9 110.8-85.3 68.2-154.1 105.3-206.6 111.2h72v63.7H98v-63.7h85.3c-60.2-16.2-118.7-50-175.5-101.3C29.5 122 26.9 68.9 0 15zm18.3 8.3c23.3 48 25.5 96.7 6.6 146.2 176.1 142.1 356.4 141.6 541-1.7-56.1-24.7-84.5-56.9-85.3-96.4-7-7.8-14-8.1-21-1.1 7 49.8 34.3 83.2 82 100.2-168.3 106-334.7 103.7-498.9-6.6C57 124.8 60 89.2 51.5 57.1L63.1 20c-15.5-6.3-30.4-5.2-44.8 3.3z"/></svg>