<svg xmlns="http://www.w3.org/2000/svg" viewBox="0 0 595.3 345.9"><path d="M297.3 286.5c85.6 0 154.1-14.1 205.4-42.2 51.4-28.2 77-65.7 77-112.5-15.7-28.9-22.7-51.7-20.9-68.6C560.6 46.3 566 34 575 26.4c-6.3-6.8-13.7-10.1-22.3-10.1-8.6 0-15.5 3.4-20.9 10.1 7.7 7.7 11.5 20 11.5 37.2 0 16.7 8.1 39.4 24.3 68.2 0 45.5-27.7 79.3-83.1 101.4-55.4 22.1-117.8 33.1-187.2 33.1-68.9 0-131.1-11-186.5-33.1-55.4-22.2-83.1-55.9-83.1-101.4C43.9 102.9 52 80.2 52 63.5c0-17.1 3.8-29.5 11.5-37.2-5.4-6.8-12.6-10.1-21.6-10.1-8.1 0-15.5 3.4-22.3 10.1 9.5 7.7 15.1 19.9 16.9 36.8 1.8 16.9-5.4 39.8-21.6 68.6 0 46.8 25.8 84.3 77.4 112.5 51.5 28.2 119.9 42.3 205 42.3zM27.7 302.7v31.1h537.2v-31.1H27.7zm304.7-52V99.3h-69.6v151.4h69.6zM0 131.8C18 103 26.2 80.1 24.7 63.2 23.1 46.3 14.9 34.9 0 29.1 10.8 9.7 24.5 0 41.2 0c17.1 0 32 9.7 44.6 29.1C71.4 35 64.2 46.3 64.2 63.2c0 16.9-7.2 39.8-21.6 68.6 0 41.9 26.8 72.3 80.4 91.2 41.4 14.4 83.1 23.2 125 26.4V84.5h99.3v164.9c41.4-2.7 82.9-11.5 124.3-26.4 53.6-18.9 80.4-49.3 80.4-91.2-14-28.8-21.1-51.7-21.3-68.6-.2-16.9-7.3-28.3-21.3-34.1C522.1 9.7 536.7 0 553.4 0c17.1 0 31.1 9.7 41.9 29.1-14.9 5.9-23.1 17.2-24.7 34.1-1.6 16.9 6.4 39.8 24 68.6 0 48.2-24.8 88.7-74.3 121.6-30.6 20.3-62.8 32.7-96.6 37.2h154.7V346H12.8v-55.4h158.8c-36.9-6.8-74.8-22.9-113.5-48.3C19.4 216.8 0 180 0 131.8z"/></svg>