<svg xmlns="http://www.w3.org/2000/svg" viewBox="0 0 590.8 579.4"><path d="M590.8 357.4c-43.5 46.3-76.8 76.8-99.9 91.6 19.4 12.5 31.9 28.4 37.5 47.9 5.6 19.4 3.9 35.6-4.9 48.6-15.7 3.2-31.2-1.7-46.5-14.9-15.3-13.2-25-32.3-29.1-57.2-44.9 13.9-81.6 22.7-110.3 26.4H441v79.8H76v-79.8h125.6C122.9 483 61.9 461.4 18.4 435.1 4.5 424-1.5 402.6.3 370.9c1.9-31.7 2.8-79.7 2.8-144 16.7-9.7 34.7-9.9 54.1-.7 1.9 70.3 4.9 119.4 9 147.1 20.8 29.6 59.2 49.7 115.2 60.4 26.4 5.6 49.5 8.7 69.4 9.4 19.9.7 49.5-1.3 88.8-5.9 15.3-1.9 28.5-5.1 39.6-9.7v-86l-40.9-63.1c1.9-8.8 6.7-12.3 14.6-10.4l27.1 40.2V227h17.3v108.2l43.7 66.6c17.6-5.1 36.3-14.6 56.2-28.4-46.3-24.5-75.9-77-88.8-157.5 25.4-11.1 50.4-9.3 74.9 5.6-16.2 62.8 19.6 108.1 107.5 135.9zm-193.6 10.4v54.1l29.1-9.7-29.1-44.4zm116.6 163c1.9-18.5-1.6-33.5-10.4-45.1-8.8-11.6-18.7-19.9-29.8-25l-9 4.9c1.4 12 5.6 24.4 12.5 37.1 6.9 12.8 19.1 22.1 36.7 28.1zM556.1 365c-62.5-31.5-94.1-71.9-95.1-121.4-8.8-10.2-17.6-10.6-26.4-1.4 9.3 62.5 38.6 105 88.1 127.7-48.1 40.7-92.5 66.5-133.2 77.4-40.7 10.9-84.7 16.3-131.8 16.3-47.2 0-90.8-7.6-130.8-22.9-40-15.3-65.3-32.4-76-51.3-10.6-19-15.7-62.2-15.3-129.8H26v133.2c0 21.3 26.6 40.2 79.8 56.9 53.2 16.7 93 26.8 119.4 30.5 26.4 3.7 56.2 4.3 89.5 1.7 33.3-2.5 71.5-10.9 114.5-25s85.3-44.7 126.9-91.9zM416.7 555.8v-31.9H100.9v31.2l315.8.7zM228.6 426.7c-1.4 6.5-4.4 9.9-9 10.4-4.2-.5-6.9-3.9-8.3-10.4-.5-52.7-.9-80.5-1.4-83.3-1.4-6-8.3-13.6-20.8-22.9-12.5-9.3-36.5-15.7-72.2-19.4-7.9-2.8-7.9-5.6 0-8.3 38.4-4.2 69.9.9 94.4 15.3-.5-6.5-.9-11.1-1.4-13.9-1.4-5.6-8.3-13-20.8-22.2-12.5-9.3-36.5-16-72.2-20.1-7.9-2.3-7.9-4.9 0-7.6 38.4-4.6 69.9.2 94.4 14.6v-184c0-19.4-3.5-33.8-10.4-43-12.5-11.1-29.6-17.1-51.3-18-8.8 0-16.9-1.2-24.3-3.5-4.6-2.8-4.6-5.6 0-8.3 7.4-1.4 15-2.1 22.9-2.1 28.2 0 50 6.2 65.2 18.7 10.2 8.3 15.3 27.1 15.3 56.2v183.9c25-13.9 56.4-18.7 94.4-14.6 7.9 2.8 7.9 5.3 0 7.6-35.6 4.2-59.7 10.9-72.2 20.1-12.5 9.3-19.4 16.9-20.8 22.9-.5 2.8-.9 7.2-1.4 13.2 25-14.3 56.4-19.2 94.4-14.6 7.9 2.8 7.9 5.3 0 7.6-35.6 3.7-59.7 10.2-72.2 19.4-12.5 9.3-19.4 16.9-20.8 22.9-.6 3-1 30.7-1.5 83.4z"/></svg>