<svg xmlns="http://www.w3.org/2000/svg" viewBox="-10 0 1108.143 610"><path d="M132 610V461h158q-71-17-131.5-49T54 328.5Q10 277-10 200h55q76 80 165 111.5T409 353V154q0-41 21-65.5T481 53q30-11 55-11h81q26 0 55.5 11T723 88.5q21 24.5 21 65.5v196q121-16 187.5-46t83.5-49q-7-61 1-127t18-128h62q-2 19-5 49.5t-5 61.5q-2 31-2 52 0 34 3.5 60.5t6.5 45.5q3 19 4 32t-5 21q-24 33-65.5 60t-91 46.5Q887 448 836 461h157v149zm312-149h250q43 0 97-11t109-31q55-20 102-47.5t75-60.5q3-6-3-39-3-20-6-46.5t-3-62.5q0-21 1.5-47.5t3.5-52q2-25.5 4-43.5h-24q-6 35-12 86t-6 99q0 12 .5 27t2.5 29q-9 13-41 33t-88.5 39.5Q849 353 767 366t-190 13q-120 0-207-11.5T220.5 335Q158 314 114 284.5T36 220H15q20 66 67.5 112T192 406.5Q254 435 320 448t124 13zm133-101q41 0 78-2t70-6V154q0-34-18-54t-43-29q-25-9-47-9h-81q-21 0-46 9t-43 29q-18 20-18 54v201q33 2 70 3.5t78 1.5zM151 590h823V480H151z" fill="currentColor"/></svg>