<svg xmlns="http://www.w3.org/2000/svg" viewBox="0 0 595.3 280.8"><path d="M298 264.4h214.4v-18.7H83.7v18.7H298zm0-86.6c64.2 0 124.5-11 180.7-32.9-45.8-45.3-106.1-68-180.7-68-75.2 0-135.7 22.7-181.5 68 56.8 21.9 117.3 32.9 181.5 32.9zm0 51.5c83.7 0 146.8-10.6 189.3-31.7 42.6-21.2 68.2-38.2 76.9-51.2 8.7-12.9 13.1-29.1 13.1-48.5 0-41.3-28.1-67-84.4-76.9l-4.5 23.2c33.9 5.5 50.8 24.6 50.8 57.5 0 25.9-24.9 47.8-74.7 65.7-49.8 17.9-105.3 26.9-166.6 26.9-61.7 0-117.5-9-167.3-26.9-49.7-18-74.6-39.9-74.6-65.8 0-32.9 17.2-52 51.5-57.5l-5.2-23.2C46 30.9 17.9 56.5 17.9 97.8c0 19.4 4.4 35.6 13.1 48.5 8.7 12.9 34.5 30 77.3 51.2s106.1 31.8 189.7 31.8zm0-168.1c79.7 0 144.2 24.6 193.4 73.9 20.9-6 31.4-17.2 31.4-33.6 0-23.9-17.7-39.3-53-46.3l9-55.3c77.7 13.9 116.5 46.6 116.5 97.8 0 23.4-5.6 42.6-16.8 57.5-11.2 14.9-29.4 29.1-54.5 42.6-25.1 13.4-51.2 23.9-78.1 31.4h82.2v51.5H67.2v-51.5h82.2c-26.9-7.5-52.8-17.9-77.7-31.4-24.9-13.4-43.1-27.6-54.5-42.6S0 121.2 0 97.8C0 46.6 38.8 13.9 116.5 0l9 55.3c-35.4 7-53 22.4-53 46.3 0 16.4 10.5 27.6 31.4 33.6 49.2-49.3 113.9-74 194.1-74z"/></svg>