<svg xmlns="http://www.w3.org/2000/svg" viewBox="-10 0 1015 510"><path d="M105 510V377h169q-52-12-102.5-31.5t-91.5-47Q39 271 14.5 235T-10 154q0-39 22-67t53-46.5Q96 22 125 12t43-12l24 77q-15 5-34.5 13.5t-34.5 23Q108 128 108 149t12 38q12 17 32 31 57-63 141-95.5T498 90q121 0 204.5 32.5T843 218q21-14 33-31t12-38q0-21-15-35.5t-35.5-23Q817 82 803 77l25-77q13 2 42 12t60 28.5Q961 59 983 87t22 67q0 45-24.5 81T915 298.5q-41 27.5-91.5 47T721 377h170v133zm327-133h132q43 0 98.5-8.5t112-25.5Q831 326 879 299.5t77.5-63Q986 200 986 154q0-32-17.5-56t-43-40.5Q900 41 875.5 32T837 20l-15 46q13 4 33 14.5t36 28q16 17.5 16 40.5 0 39-30 66.5T798.5 261q-48.5 18-104 28.5t-107.5 15q-52 4.5-89 4.5t-89.5-4.5q-52.5-4.5-108-15t-104-28.5Q148 243 118 215.5T88 149q0-23 16-40.5t36-28Q160 70 173 66l-15-46q-13 3-37.5 12T70 57.5Q44 74 26.5 98T9 154q0 46 29.5 82.5t77.5 63Q164 326 220.5 343T333 368.5q56 8.5 99 8.5zm66-88q31 0 73.5-3t89-9.5q46.5-6.5 89.5-18t76-29.5q-54-59-133.5-89T498 110q-115 0-195 30t-134 89q33 18 76 29.5t90 18q47 6.5 89.5 9.5t73.5 3zM124 490h747v-94H124z" fill="currentColor"/></svg>