<svg xmlns="http://www.w3.org/2000/svg" width="15.1" height="19.2"><path d="M7.6 4.8Q4 4.8 2.4 5q.5 1 .5 2.1 0 1.2-.5 2.1 1.6.2 5.2.2t5.1-.2q.6-1 .6-2 0-1.1-.6-2.2l-5.1-.2zm-.3-.5V1.5L4.7 4.3h2.6zm.6 0h2.5L8 1.5v2.8zm0 5.7V13l2.5-3-1 .1H7.9zm-.6 0H4.8l2.5 2.9V10zm.6 9.2h-.6v-5.7L4 9.9H2.3Q-.1 9.7 0 9.4q0-.4 1-.2.4 0 .7-.2.5-.9.5-1.9 0-1-.5-2H1q-1 .1-1-.2 0-.4 2.3-.5L4 4.3 7.3.8V.3q0-.3.3-.3t.3.3v.5L11 4.3h1.8q2.3.2 2.2.6 0 .3-1 .2h-.6q.5.9.5 2 0 1.2-.5 2.1h.7q.9-.2 1 .2 0 .3-2.3.5h-1.7l-3.3 3.6v5.7z"/></svg>