<svg xmlns="http://www.w3.org/2000/svg" viewBox="0 0 592.6 586.7"><path d="M246.5 325.1c1.5 31 18.7 46.6 51.5 47 32.5-.4 49.1-16 49.8-47H246.5zm2.2-49.9v26.1h98v-26.1c-32.4.8-65.1.8-98 0zm126.3-1.7c3 9.1 5.5 24.7 7.4 47 0 14.7-2.3 27.8-6.8 39.4-4.5 11.5-18.5 22.2-41.9 32-10.9 8.7-17.2 18.9-18.7 30.6v164.2h-34V422.5c-1.5-11.7-7.7-21.9-18.7-30.6-23.4-9.8-37.4-20.6-41.9-32.3-4.5-11.7-6.8-24.7-6.8-39.1.8-7.2 2.3-22.7 4.5-46.4-41.2-1.5-84.4-3-129.7-4.5-61.2-4.2-90.6-10.8-88.3-19.8 1.1-9.4 13.6-12.1 37.4-7.9 12.5 1.9 22.1.4 28.9-4.5 13.2-23.4 19.8-48.5 19.8-75.3 0-26.8-6.6-52.1-19.8-75.9-6.8-4.9-16.4-6.4-28.9-4.5C13.7 85.9 1.3 83.4.1 74.3-2.1 64.8 27.3 58 88.5 53.8c45.3-1.5 94-2.3 146.1-2.3V10.2C234.6 3.4 238.7 0 247 0c7.9 0 11.9 3.4 11.9 10.2v41.3h74.8V10.2c0-6.8 4-10.2 11.9-10.2s11.9 3.4 11.9 10.2v41.3c52.5 0 101.4.8 146.7 2.3 60.8 4.2 90.2 10.9 88.3 20.4-1.1 9.1-13.6 11.5-37.4 7.4-9.8-1.5-18.5-2.3-26.1-2.3 12.1 24.9 18.1 52.5 18.1 82.7 0 30.2-6 58-18.1 83.3l26.1-3.4c23.8-4.2 36.2-1.5 37.4 7.9 1.9 9.1-27.6 15.7-88.3 19.8-45.3 1.5-88.4 2.8-129.2 3.9zM296.3 71.4c-93.3 1.9-160.8 4.3-202.8 7.4 12.1 25.3 18.1 53 18.1 83.3 0 29.8-6 57.4-18.1 82.7 41.9 3.4 109.5 5.9 202.8 7.4 93.3-1.5 160.7-4 202.2-7.4 15.1-28.3 22.7-55.9 22.7-82.7 0-26.8-7.6-54.6-22.7-83.3-41.5-3.1-108.9-5.6-202.2-7.4z"/></svg>