<svg xmlns="http://www.w3.org/2000/svg" viewBox="-10 0 950 1010"><path d="M417 1010l17-274-85-92 1-65q-78-2-150-6.5T73 563q-55-5-83-9v-68l54 6q27-25 50-63t23-90q0-52-24-85t-50-58q-16 1-29.5 2t-23.5 3v-61q29-3 85.5-8t130-10q73.5-5 152.5-7l2-115h73l-2 114h69L498 0h73l1 115q81 2 153.5 6.5t128 9.5q55.5 5 86.5 9v61q-13-2-35.5-4t-52.5-4q23 28 39.5 68t16.5 78q0 53-13.5 91T860 494q27-2 47.5-4.5T940 486v68q-30 5-84.5 10t-125 9q-70.5 4-149.5 6l1 65-85 92 17 274zm136-895l-2-95h-33l1 94q8 1 17 1zm-175 0h16.5l17.5-1 1-94h-34zM9 179q31-3 83.5-7t116-7.5q63.5-3.5 129.5-6t124-2.5q57 0 124.5 2.5t133 6q65.5 3.5 119 7.5t81.5 7v-22q-38-5-109-10.5T649.5 137q-90.5-4-187.5-4-67 0-135.5 2.5t-130 6.5Q135 146 86 150.5T9 158zm453 332q54 0 119.5-2t131.5-5.5q66-3.5 119-7.5 24-25 40-62.5t16-94.5q0-39-19.5-80.5T823 191q-53-4-117-7.5T578.5 178q-63.5-2-116.5-2-62 0-133 2.5T190 185q-68 4-121 8 26 26 46.5 60t20.5 86q0 51-20.5 89.5T69 494q52 4 120.5 8t139.5 6.5q71 2.5 133 2.5zm0 50q97 0 187.5-4t161.5-9.5q71-5.5 109-10.5v-29q-27 3-80 7t-119 7.5q-66 3.5-134 6T462 531q-58 0-124-2.5t-129.5-6Q145 519 92.5 515T9 508v29q28 3 77 7t110.5 8q61.5 4 130 6.5T462 561zm-24 429h55l-16-261 85-94-1-55h-34v44l-62 72-62-72 1-44h-35v55l85 94zm-15-385h84v-24h-84zm42 61l36-41h-71z" fill="currentColor"/></svg>