<svg xmlns="http://www.w3.org/2000/svg" viewBox="0 0 584.5 594.5"><path d="M291.8 16.2h2.1c8.5 0 24.5 7.3 24.3 20.4H268.4c0-13.3 15.9-20.4 23.4-20.4zm-58 72.4c10.2.7 19.9 1.2 29.5 1.2 3.4 0 6.8-.1 10.1-.2v46.8l-39.6-47.8zm115.9 0l-39.6 47.8V90.7c9.4 0 22.8-1.1 39.6-2.1zm-166.7-2c10.9 1 21.6 1.5 32.5 2l57.9 68.1v37.6L183 86.6zm218.5 0L310 194.4v-36.6l59-69.1c10.4-.5 21.2-1.1 32.5-2.1zm-269.3-3c10.4 1 21.2 1.5 32.5 2l108.8 130.1v36.6L132.2 83.6zm320.2 0L310.1 253.3v-37.6L419.8 85.6c9.9-.5 21.2-1 32.6-2zM78.3 79.5c15.3 1.5 26.6 2.6 34.6 3.1l160.6 192.1v37.6L78.3 79.5zm429 0L310.1 313.3v-38.6L471.7 82.5c9.9-.9 22.2-2 35.6-3zM36.6 75.4c8.6.7 18.3 1.7 23.4 2l213.5 256.2v47.8c-82-61.7-165.9-126.5-232.8-207.4-14-14-14.1-36.5-9.1-60 5.2-16.9 7.7-28.6 5-38.6zm512.4 0c-2.7 10 .8 21.7 6.1 38.6 5 23.5 4.9 46-9.1 60-67.6 81.8-152.9 147-235.8 209.4v-49.8L524.6 77.5c5.9-.7 15.5-1.4 24.4-2.1zM292.5 0c-28.7 0-44 20.2-44.4 51.8h28.5v17.5c-56.8-.5-129-4.3-220.6-11.2l-32.5-2c-1.5 0-2.8-.1-4.2-.1C6.2 56 0 58.3 0 63.2c0 3.9 6.4 6.9 16.3 9.1 10.7 11.7 1 24.5-1 37.6-5.1 18.9-8.7 44 11.2 73.2 68.7 81.8 164.8 155.5 247 218.6v192.8h36.6V403.8c82.9-63.6 180.6-137.9 250.1-220.6 19.9-29.2 16.2-54.3 11.2-73.2-2-13.2-11.7-25.9-1-37.6 8.5-2.3 14.2-5.5 14.2-9.1 0-4.9-6.2-7.2-19.2-7.2-1.3 0-2.7 0-4.2.1l-29.5 2C438.1 65.1 364.8 68.9 307 69.3V51.8h31.5C339.8 20.3 319 0 293.1 0h-.6z"/></svg>