<svg xmlns="http://www.w3.org/2000/svg" viewBox="0 0 175.9 594.5"><path d="M36.1 0h16.6l-3.6 55.7h75.8L122 0h16.6c23.3 187.5 35.7 292.9 37.3 316.2 0 15.4-2.4 29.1-7.1 41.2-4.7 12-19.3 23.2-43.8 33.5-11.1 9.1-17.6 19.7-19.5 32v171.7h-35V422.8c-2-12.2-8.7-22.9-20.1-32-24.1-10.3-38.5-21.5-43.2-33.8S0 331.2 0 316.2C1.2 292.9 13.2 187.5 36.1 0zM48 80.5l-3.6 52.1h85.3l-3-52.1H48zm-4.8 78.8l-3 61.6h94.2l-3-61.6H43.2zm-4.7 88.2l-2.4 48.6h103l-3-48.6H38.5zM33.8 321c1.6 32.4 19.5 48.8 53.9 49.1 34.3-.4 51.9-16.8 52.7-49.1H33.8z"/></svg>