<svg xmlns="http://www.w3.org/2000/svg" viewBox="0 0 580.1 658.8"><path d="M280.5 89.8l-3.9 57H371l-3.3-57h-87.2zm-5.2 87.2l-3.3 67.5h104.2L373 177h-97.7zm-5.3 97l-2.6 54.4h114.1l-3.3-54.4H270zm-5.2 81.9c1.7 35.4 21.8 53.3 60.3 53.8 37.6-.4 56.8-18.4 57.7-53.8h-118zM305.4 546c-20.1-.4-47-1.3-80.6-2.6-33.6-1.3-66.9 1.3-99.6 7.9-36.7 10.1-69.5 9.4-98.3-2-22.7-13.1-31-23.4-24.9-30.8 3.9-6.6 16.6-4.2 38 7.2s51.1 11.1 89.1-.7c-8.3-13.1-21-18.6-38-16.4-21.8 2.2-35.3 2-40.3-.7-5-2.6-8.2-6.2-9.5-10.8-1.3-4.6 4.6-7.3 17.7-8.2 13.1-.9 29.3-.4 48.5 1.3 29.7 7 50.9 16.8 63.6 29.5 39.8-10.1 84.6-16 134.4-17.7v-34c-2.2-13.5-9.4-25.3-21.6-35.4-27.1-11.4-43.3-23.8-48.5-37.4-5.2-13.5-7.9-28.6-7.9-45.2 1.3-25.3 14.6-142 40-350h18.4L282 62.3h84.6L362.5 0h18.4c25.8 208 39.5 324.7 41.3 350 0 17.5-2.6 32.8-7.9 45.9-5.2 13.1-21.2 25.3-47.9 36.7-12.7 10.1-20.1 21.9-22.3 35.4v32.8h32.8c44.6 0 83.7 1.7 117.3 5.2V381.5l85.9-1.3v166.5c-110.1.4-188.8.2-236-.7v112.7h-38.7V546zm255-147.5c-29.7-3.1-44.4 9.9-43.9 39 .4 29.1.2 56-.7 81 14.4 6.1 29.3 9.6 44.6 10.5V398.5z"/></svg>