<svg xmlns="http://www.w3.org/2000/svg" viewBox="-10 0 1028 1005"><path d="M495 1005l12-199H346l-91 17H138l-82-36-66-62 27-38 73 51q10 6 33 13t41 12l103-8-3-16q-3 1-15 1.5t-23 1q-11 .5-15 .5-8 0-24.5-1.5t-34-5Q135 732 126 728l10-47q4 1 17 2.5t28 2.5q15 1 25 1 9 0 23.5-1.5t28-3Q271 681 277 680l63 33 173-14 1-18-124-122L427 0h61l-4 66h119l-4-66h61l37 559-124 122v13l274 1 11-8 21-265h121l18 350-26 34H580l12 199zm21-20h55l-19-312 125-122-35-532h-23l30 520-105 106-106-106 30-520h-24l-34 532 125 122zm-39-780h133l-6-120H483zm-9 138h151l-7-119H475zm-7 139h166l-7-119H467zm118 304h402l17-23-16-321h-83l-21 259-17 14-286-2zm-35-170l85-83-1-32H459l-1 32zM140 805h114l90-19h164l4-69-186 15-4-6-49-26q-8 1-31 4t-36 3q-7 0-20-.5t-25-1.5q-12-1-16-3l-3 13q16 7 38 9t31 2q4 0 19-.5l30-1 19-.5 8 45-124 11q-20-5-46-13t-36-15l-61-42-11 12 54 47z" fill="currentColor"/></svg>