<svg xmlns="http://www.w3.org/2000/svg" viewBox="-10 0 1016.875 1008"><path d="M469 1008q-10 0-27-20.5T408 934q-17-33-28.5-72T368 786q0-51 20-91.5t49-74.5l-3-68-28 4q-29 5-58.5 8.5T289 568q-47 0-68-10.5T182 525l-30-37q-5-7-13-16t-16-9q-13 0-26.5 3.5T70 470q-36 0-58-14.5T-10 418q0-17 14.5-37T56 353L1 301q-8-8-4-18t15-10q9 0 14 6l69 66 69-66q6-6 14-6 11 0 15 10t-3 18l-56 52q24 8 39.5 22t19.5 21l25 34q8 10 19 20t26 10q18 0 43-7.5t58-18.5q15-5 31-9.5t33-7.5L408 0h121l-19 417q16 4 37.5 11.5T600 449q18 7 51.5 19.5t79 23Q776 502 831 502q33 0 57.5-1.5t48-4Q960 494 990 490q9-1 13.5 7t3 18q-1.5 10-9.5 14-42 22-85 30.5t-85 8.5q-41 0-88.5-4.5T647 555q-28-4-57-7t-66-4h-20l-3 76q29 34 49 74.5t20 91.5q0 37-11.5 76T530 934q-17 33-34 53.5t-27 20.5zm-22-594q5-1 10.5-1.5t10.5-.5q5 0 11 .5t11 1.5l19-394h-80zm-328-65l57-54q5-5 5-7t-3-2q-3 0-7 4l-59 57zm-48 0l7-1-59-58q-3-4-6-4t-3 2q0 2 5 7zm218 200q28 0 57-4t57-9q29-5 59-8t62-3q23 0 56 3t69 7q43 4 90.5 9t87.5 5q38 0 79.5-8.5T983 517q8-3 7-5t-7-1q-38 6-71.5 8t-80.5 2q-54 0-100.5-10T649 488q-35-13-54-21-28-12-62-23.5T468 432q-26 0-54.5 8T368 454q-33 11-59 18.5t-46 7.5q-21 0-34-12t-22-24l-25-34q-4-5-15-15.5T138.5 375q-17.5-9-42.5-9-38 0-62.5 17.5T9 418q0 16 19 24.5t43 8.5q14 0 26-3.5t26-3.5q13 0 22.5 11t17.5 19l30 37q14 16 33.5 27t62.5 11zM89 408q-15 0-15-15t15-15q6 0 10.5 4.5T104 393q0 6-4.5 10.5T89 408zm380 577q8 0 21.5-19.5t27-50q13.5-30.5 23-65T550 786q0-55-21.5-91.5T481 626l3-81q-7 1-15 1.5t-16 2.5l4 77q-26 32-48 68.5T387 786q0 30 9.5 64.5t23.5 65q14 30.5 27.5 50T469 985z" fill="currentColor"/></svg>