<svg xmlns="http://www.w3.org/2000/svg" viewBox="0 0 537.9 594.5"><path d="M276.6 285.9l-21.3 5.3.7 36.7c0 31.1-1.3 51.3-4 60.7-9.3 32.9-14 60.2-14 82-.9 26.2 2.4 51.1 10 74.6 2.7 11.1 8.7 17.3 18 18.7 8.9-1.3 14.7-7.6 17.3-18.7 8-23.6 11.6-48.4 10.7-74.6 0-22.2-4.7-49.5-14-82-2.2-9.3-3.8-29.3-4.7-60l1.3-42.7zm21.3-3.3l-1.3 45.3c2.2 31.1 7.3 62.2 15.3 93.3 4.9 15.1 7.3 31.3 7.3 48.7-1.3 76.4-19.1 118-53.3 124.6-34.2-6.7-52-48-53.3-124 0-17.3 2.7-34 8-50 10.7-30.2 15.3-61.1 14-92.6l-.7-32.7c-43.1 6.7-83.1 3.1-120-10.7-22.7-16.9-47.5-21.8-74.6-14.7C13.1 268.2 0 259.5 0 243.9c0-15.1 8.9-28 26.7-38.7C4.5 181.2 0 165 13.4 156.5c13.3-4.4 24 8.4 32 38.7 8.4-30.2 17.6-45 27.3-44.3 9.8.7 15.1 5.4 16 14.3.9 8.9-7.3 20.2-24.7 34 21.3 8 41.5 17.8 60.7 29.3 32 16 68.2 18.7 108.6 8L227.9 0h75.3l-4.7 225.9c24-4.9 53.1-1.8 87.3 9.3 32.9 13.3 69.1 20 108.6 20 18.2 3.6 32.7 10 43.3 19.3 0 5.8-18.9 9.3-56.7 10.7-24 2.2-57.1.8-99.3-4.3-42-5.1-70-4.5-83.8 1.7zm-21.3-53.3L279.3 36h-26.7l2.7 196.6c9.3-1.3 16.4-2.4 21.3-3.3zm-254.6 8c-.9 8.9 2.9 13.6 11.3 14 31.1-8 60.7-2.7 88.6 16 26.7 12.4 55.4 16.6 86.3 12.3 30.9-4.2 58.4-8.7 82.6-13.3 24.2-4.7 50.4-4.7 78.6 0 28.2 4.7 52.8 7 73.6 7 20.9 0 42.2-1.1 64-3.3-33.3-1.8-57.8-3.8-73.3-6-15.6-2.2-35.2-7.2-59-15-23.8-7.8-50-9.7-78.6-5.7-28.7 4-56.3 8.9-83 14.7-32 5.8-60.4 2.2-85.3-10.7-33.8-19.6-58.7-29-74.6-28.3-15.9.6-26.3 6.7-31.2 18.3z"/></svg>