<svg xmlns="http://www.w3.org/2000/svg" viewBox="-10 0 1132 725"><path d="M170 725V618H-10v-76h180v-54q0-40 26.5-83.5T281 338q20-8 55.5-14.5T414 309q46-8 94.5-17t88-21q39.5-12 59.5-29 21-17 37-45.5t29-56.5q16-34 36-66t52-53q32-21 84-21 48 0 76 15.5t33 31.5v266h-80q-41 0-52.5 16T859 371v171h263v76H859v107h-69V618H239v107zm19-183h650V371q0-35 15.5-56t68.5-21h60V54q-7-10-27-22t-62-12q-47 0-75 19t-46 48.5Q755 117 740 149q-14 30-30 58.5T669 256q-22 19-64 32.5t-92 23q-50 9.5-96 17.5-40 7-75 13.5T288 356q-51 21-75 59.5T189 488zM9 598h1093v-37H9zm180 107h30v-87h-30zm620 0h30v-87h-30z" fill="currentColor"/></svg>