<svg xmlns="http://www.w3.org/2000/svg" viewBox="0 0 525.5 365.1"><path d="M487.8 337c0-15.2-22.6-22.8-67.8-22.8-45 0-79.2-10.1-102.5-30.4s-35.1-52.3-35.1-95.9c0-44.8 27.7-80.3 83-106.5C420.5 55.2 453 37.6 463 28.8l-4.6-6C383 64.7 317.7 85.7 262.6 85.7c-54.9 0-120.2-20.9-195.8-62.8l-3.6 6c9.9 8.8 42.4 26.3 97.6 52.6s82.7 61.7 82.7 106.5c0 43.7-11.6 75.6-34.7 95.9-23.4 20.3-57.7 30.4-102.9 30.4-45 0-67.5 7.6-67.5 22.8h449.4zM262.6 61.2c45.2 0 107-19.6 185.5-58.9C462.4-3 473.2.6 480.5 13.2c7.3 12.8 6.7 23.4-1.7 31.7-15.2 13.2-47.3 32.6-96.2 58.2-49.2 25.6-73.7 53.8-73.7 84.7 0 35.3 10 61 30.1 77.1 19.8 16.3 56 24.5 108.5 24.5 52 0 78 25.2 78 75.7H0c0-50.5 26.2-75.7 78.7-75.7s88.5-8.2 108.1-24.5c19.6-16.1 29.4-41.8 29.4-77.1 0-30.9-24.4-59.1-73.1-84.7C94.3 77.6 62 58.2 46.3 45c-7.7-8.4-7.9-19-.7-31.7C52.9.7 63.5-2.9 77.4 2.4 156.3 41.6 218 61.2 262.6 61.2z"/></svg>