<svg xmlns="http://www.w3.org/2000/svg" viewBox="-10 0 1191 806"><path d="M-10 806v-39q0-9 5-26t19.5-33Q29 692 57 686q68-14 137-19.5T332 643q44-11 85.5-37t68.5-70.5Q513 491 513 424q0-56-14.5-92T458 271.5Q432 247 398 225q-10-7-38.5-22T295 170q-38-20-76.5-39.5t-66-34.5Q125 81 120 77q-10-6-18-16.5T94 39q0-16 12.5-27.5T135 0q13 0 33.5 9.5T218 33q52 25 109.5 49.5T449 124q64 17 137 17 72 0 136-17t121.5-41.5Q901 58 953 33q29-14 49.5-23.5T1036 0q17 0 29 11.5t12 27.5q0 11-8 21.5T1051 77q-6 4-33 19t-65.5 34.5Q914 150 876 170q-36 18-64.5 33T773 225q-34 22-60 46.5T672.5 332Q658 368 658 424q0 67 27 111.5t68.5 70.5q41.5 26 85.5 37 69 18 138.5 23.5T1114 686q29 6 43 22t19 33q5 17 5 26v39zm19-20h1153v-19q0-7-3.5-20t-14.5-25q-11-12-34-16-69-13-139-19.5T834 662q-48-13-93-40.5T667.5 546Q639 498 639 424q0-60 16-99.5t43.5-66Q726 232 762 208q26-16 53.5-30t55.5-28l88-44 86-48q13-7 13-19 0-9-7.5-14.5T1036 19q-9 0-30 10t-45 22q-64 31-122 55.5t-119.5 39Q658 160 586 160q-73 0-134-14.5t-120-39Q273 82 210 51q-24-12-45-22t-30-10q-8 0-15 5.5T113 39q0 12 14 19 41 26 85.5 48t87.5 44q28 14 55.5 28t53.5 30q36 24 64 50.5t43.5 66Q532 364 532 424q0 74-28.5 122T430 621.5Q385 649 337 662q-68 18-137.5 24.5T61 706q-22 4-33.5 16t-15 25Q9 760 9 767z" fill="currentColor"/></svg>