<svg xmlns="http://www.w3.org/2000/svg" viewBox="-10 0 618 1141"><path d="M291 1141l55-129q-8-5-15-12.5T318 984l-126 55V821l130 57q2-3 4.5-6t4.5-5q-11-23-21-56.5T300 731q0-17 3.5-59t9.5-98.5q6-56.5 13.5-118.5t15-121.5Q349 274 356 226t11-75q-2-35-14-65t-40-48q-28-18-75-18-59 0-95 26.5t-55.5 67Q68 154 61 197.5T54 276q0 26 4.5 73.5T68 451q10 93 19.5 210T97 894q0 56-13.5 97.5t-35 73Q27 1096 4 1123l-14-13q22-25 42-55t33-69q13-39 13-92 0-116-9.5-232T49 453q-6-57-10-103t-4-74q0-30 4.5-66.5t17-73.5q12.5-37 35-68T150 18.5Q186 0 238 0q56 0 88 21t46 56q14 35 15 76 15 52 30.5 120.5T447 415q14 73 25.5 139t18 114q6.5 48 6.5 65 0 36-7 66.5T465 864q3 3 6 6.5t6 7.5l131-57v218l-128-55q-10 16-27 28l55 129zm56-287q24-16 52-16t51 15q16-30 21.5-58.5T477 733q0-16-5.5-58T456 574q-10-59-22.5-125T407 318q-14-65-28-119-6 43-14 104t-16 127.5q-8 66.5-15 128T323 666q-4 46-4 65 0 41 9 71.5t19 51.5zm-135 155l98-42q-6-17-6-34 0-21 9-38l-101-44zm376 0V851l-102 44q9 17 9 38 0 18-6 33zm-189 0q32 0 54-22.5t22-53.5q0-31-22-53t-54-22q-31 0-53 22t-22 53q0 31 22 53.5t53 22.5zm-78 113h158l-43-101q-17 7-37 7t-35-7z" fill="currentColor"/></svg>