<svg xmlns="http://www.w3.org/2000/svg" viewBox="0 0 297.9 594.5"><path d="M112.6 0c45.5.8 76.2 22.3 92.3 64.5 16.1 42.1 22.8 163.5 20.3 364.2 0 4.6 5.8 6.9 17.5 6.9l55.1-12.5v100.8l-60.1-15c-13.4 1.7-18.1 11.9-14.4 30.7l11.9 55.1h-97.6l17.5-55.7c3.8-18.4-1.3-28.6-15-30.7L80 523.9V423l43.8 12.5c19.6 0 29.4-2.3 29.4-6.9L164 168.3c0-88-17.5-132-52.6-132-42.1 0-68 30.7-77.6 92 2.1 102.6 1.8 184-.9 244.1-2.7 60.1-8.2 90.6-16.6 91.7-8.3 1-13.1-3.7-14.4-14.1C4 404.5 3.3 301.2 0 140.2c0-37.2 8.6-69.8 25.7-98C42.8 14.1 71.8 0 112.6 0zm70.8 83.9h-2.5c4.2 113.5 2.9 224.7-3.8 333.6h25c.9-194.5-5.4-305.7-18.7-333.6zm-22.6 386.7c1.3 19.6 10.6 29.2 28.2 28.8 17.9 0 27.5-9.6 28.8-28.8-1.3-18.4-10.8-27.7-28.8-28.2-17.1.9-26.5 10.3-28.2 28.2zM189 578.9c17.9-.8 25.6-6.8 22.8-17.8-2.7-11.1-10.3-22.4-22.8-34.1-12.1 12.1-19.4 23.7-21.9 34.7-2.5 11 4.8 16.8 21.9 17.2zm95.1-108.3c-1.3-17.9-7.3-25.6-18.1-22.8-10.8 2.7-22.1 10.3-33.8 22.8 12.1 12.5 23.7 20 34.7 22.5 11.1 2.5 16.8-5 17.2-22.5zm-189.6 0c.4 17.5 6.2 25 17.2 22.5 11.1-2.5 22.6-10 34.7-22.5-11.7-12.5-22.9-20.1-33.8-22.8-10.8-2.7-16.9 4.9-18.1 22.8z"/></svg>