<svg xmlns="http://www.w3.org/2000/svg" viewBox="0 0 581.2 594.5"><path d="M560 154.6c-3.5-38.9-25-60.4-64.4-64.4-37.2 5.3-58.6 26.8-64.4 64.4 4.4 38 25.9 60.4 64.4 67 41.1-6.6 62.6-29 64.4-67zm-232.9-51.1C318.7 85.4 304.3 73 284 66.3c-20.3 6.6-34.5 19-42.5 37.2h85.6zm-.7 17.3h-84.3c-.9 20.3 1.9 41.3 8.3 62.7 6.4 21.5 11.4 37.5 14.9 48.1h37.2c6.6-21.7 12.4-40.5 17.3-56.4 4.8-16 7-34.1 6.6-54.4zm189.8 132.7H51.7c1.8 14.2 17.3 21.2 46.4 21.2h361c36.7.4 55.7-6.6 57.1-21.2zM325.7 574.6c-16.8-33.2-25-75-24.6-125.4-1.8-47.3-3.1-98.2-4-152.6H270c0 54-1.1 104.8-3.3 152.6 0 50.4-7.7 92.2-23.2 125.4h82.2zm-298.6-343C6.4 215.2-2.5 192.6.6 163.9c5.3-54 16.6-91.3 33.8-112.1C51.7 31 69.6 20.6 88.2 20.6c19 .4 36.9 11.4 53.7 32.8 16.8 21.5 27.9 57.8 33.2 109.2 1.3 29.6-7.7 52.6-27.2 69h90.2c-6.6-26.5-14.4-56-23.2-88.3-18.1-.4-27.2-7.3-27.2-20.6-.4-12.8 8.6-19 27.2-18.6 1.8-9.7 10.4-23 25.9-39.8 10.6-9.7 15.9-19.2 15.9-28.5 0-8-5-12.8-14.9-14.6-10-1.8-15.6-5.3-16.9-10.6C238.1 3.5 257.8 0 283.9 0s45.8 3.3 59.1 10c-1.3 5.8-7 9.5-16.9 11.3-10 1.8-14.9 6.6-14.9 14.6 0 9.3 5.5 18.8 16.6 28.5 15 16.8 23.4 29.9 25.2 39.1 18.1 0 27.2 6.2 27.2 18.6 0 13.7-9.1 20.6-27.2 20.6-6.6 28.3-14.6 57.9-23.9 88.9h130.1c-31.4-13.7-47.8-39.4-49.1-77 6.2-50.9 34.7-79.4 85.6-85.6 52.6 4.4 81.2 33 85.6 85.6-7.5 46.9-23.9 72.5-49.1 77h41.1c-5.3 24.3-20.3 41.4-45.1 51.1-20.3 9.3-59.1 13.9-116.1 13.9h-95.5V355c-3.5 67.7 9.7 147.5 39.8 239.5h-144c29.6-92 42.7-171.9 39.1-239.5v-58.4h-95.6c-57.9 0-96.7-4.6-116.1-13.9C15.9 273.4 4 256.4 4 231.6h23.1zm-.6-68.4c-3.1 22.6 2.4 39.6 16.6 51.1 14.2 11.5 29.2 16.6 45.1 15.3 15.9.9 31-4.3 45.1-15.6 14.2-11.3 19.9-28.4 17.3-51.4-6.2-46.4-15.2-77.6-26.9-93.6-11.7-15.9-23.3-23.9-34.8-23.9-10.2 0-21.7 7.9-34.5 23.6-12.9 15.7-22.2 47.2-27.9 94.5zm29.8-53.7v-12c10.6-8 21.2-11.9 31.8-11.9 11.1 0 21.2 4 30.5 11.9v11.9c-9.3-8-19.5-11.9-30.5-11.9-10.5 0-21.1 4-31.8 12zm-13.9 65c8.4 5.8 18.1 10.2 29.2 13.3 11.1 3.1 21.7 3.3 31.8.7 10.2-2.7 20.3-6.9 30.5-12.6v11.3c-10.2 8-20.3 13.3-30.5 15.9-10.2 2.7-20.8 2.5-31.8-.3-11.1-2.9-20.8-8.1-29.2-15.6v-12.7z"/></svg>