<svg xmlns="http://www.w3.org/2000/svg" viewBox="-10 0 1179 1134"><path d="M401 1134q9-35 20.5-62t23.5-53q24-50 46-112t22-144q0-30-1-67t-3-72q-2-35-4-58H129q-44 0-75-20.5T6.5 493Q-10 461-10 425h135q-29-23-42.5-73T69 226q0-107 27.5-162.5T187 8q62 0 89.5 55.5T304 226q0 76-13.5 126T248 425h228l-40-104q-7-19-12-31.5t-8-23.5q-9-1-22.5-5t-24-14.5Q359 236 359 217q0-24 20-34.5t40-10.5q10-23 34-40t64-25q-7-14-18.5-28T477 59h-59V0h305v59h-59q-11 6-22.5 20T624 107q40 8 63.5 25t34.5 40q20 0 39.5 10.5T781 217q0 19-10 29.5T747.5 261q-13.5 4-23.5 5-3 11-7.5 23.5T705 321l-41 104h207q-26-16-41-43.5T815 322q0-34 16.5-62t44-44.5Q903 199 937 199t62 16.5q28 16.5 44.5 44.5t16.5 62q0 32-15.5 59.5T1004 425h165q0 36-17 68t-48 52.5q-31 20.5-74 20.5H653q-2 23-4 58t-3 72q-1 37-1 67 0 82 22.5 144t45.5 112q13 26 24 53t20 62zM438 40h265V20H438zM187 425q52 0 75-51t23-148q0-97-23-148t-75-51q-52 0-75.5 51T88 226q0 97 23.5 148t75.5 51zm349-320q8-1 16.5-1.5t17.5-.5q10 0 18.5.5T604 105q5-11 13-23.5T634 59H506q20 22 30 46zm-39 320h146l43-111q11-29 18.5-51t7.5-45q0-40-32.5-67.5T570 123q-77 0-109 27.5T429 218q0 25 8 48.5t18 47.5zm-85-179q-1-7-1.5-14t-.5-14q0-7 .5-13.5T412 192q-12 1-22.5 7T379 217q0 15 11.5 21.5T412 246zm317 0q10-1 21.5-7.5T762 217q0-12-10.5-18t-23.5-7q3 12 3 26 0 7-.5 14t-1.5 14zm212 179q41-2 70-32t29-71q0-43-30-73t-73-30q-43 0-73 30t-30 73q0 43 30.5 73t76.5 30zM129 547h901q53 0 84-31.5t35-71.5H10q4 40 35 71.5t84 31.5zm297 568h306q-7-21-16.5-43.5T695 1027q-24-52-46.5-114.5T626 763q0-30 1-67t2.5-72q1.5-35 3.5-58H525q2 23 4 58t3 72q1 37 1 67 0 87-22.5 149.5T463 1027q-10 22-20 44.5t-17 43.5z" fill="currentColor"/></svg>