<svg xmlns="http://www.w3.org/2000/svg" viewBox="-10 0 1122 1142"><path d="M-10 1142v-61h43l107-280h198l107 280h129V263q-9-7-39.5-15.5T464 233q-40-6-79-6-103 0-158 13V18q30 7 68.5 9.5T385 30q36 0 75-4.5t71.5-11Q564 8 580 0h62v1081h69q58-36 99.5-78.5T887 907q18-27 37.5-56t44.5-48.5q25-19.5 58-19.5 39 0 57 25t23 61.5q5 36.5 5 71.5v201zm603-61h29V20h-29zm-19-842V27q-15 5-47 10.5t-70 9Q419 50 385 50q-47 0-80-1.5T246 42v173q13-1 37.5-3t51.5-3q27-1 50-1 28 0 66.5 4t72.5 11q34 7 50 16zm171 842h347V941q0-31-3.5-62.5T1071 825q-14-22-44-22-26 0-48.5 18.5t-41 45Q919 893 903 918q-30 46-71 91t-87 72zM239 888l69-68H170zM54 1081h93l81-177-78-76zm278 0h92l-96-253-77 76zm-164 0h142l-71-155zM9 1122h1083v-22H9z" fill="currentColor"/></svg>