<svg xmlns="http://www.w3.org/2000/svg" viewBox="0 0 593 594.6"><path d="M81.7 384l36 60.5-38.4 123h99.9l-39-123.7 33.1-59.9H81.7zm-5.3 19.5l-49.3 164h36.7l37.4-123-23.8-41h-1zm102.2 0l-22.5 41 35.7 122.4h37.7l-50.3-163.4h-.6zM171 30.1v60.5h51.6c59.1 0 94.8 8.8 107.2 26.5v-87H171zm249.7 536.7h143.2V384.6c0-11-6.9-16.5-20.8-16.5-13.7 0-22.2 7.1-25.5 21.2-3.1 13.9-10 38.4-20.8 73.4-10.9 34.8-36.2 69.5-76.1 104.1zm-105.2 0c5.5-69 8-145.7 7.6-230.2V151.5c-9-11.9-20.3-21.2-33.7-27.8-13.4-6.4-35.7-9.6-66.8-9.6h-80V6.6h80c47.6 0 83.3-2.2 107.2-6.6h30.1v336.7c2.6 84.4 5.2 161.2 7.6 230.2 58.4-43 92.4-80.5 101.9-112.4 9.5-32 17.6-59.1 24.5-81.4 6.6-22.3 24.8-33.4 54.6-33.4s44.6 15.2 44.6 45.6v209.4H0v-27.1l62.8-204.7h130.6l61.5 204h60.6z"/></svg>