<svg xmlns="http://www.w3.org/2000/svg" viewBox="-10 0 381 1151"><path d="M-10 1151q30-118 49-225t28.5-196Q77 641 77 578q0-62-22-92.5T0 453v-46h71q-8-35-27-53T0 335v-46h72q-8-36-27.5-54.5T0 215v-46h72q-8-36-27.5-54.5T0 95V49h113V0h134v49h113v46q-25 1-44.5 19.5T288 169h72v46q-25 1-44.5 19.5T288 289h72v46q-25 1-44 19t-27 53h71v46q-33 2-55 32.5T283 578q0 63 9.5 152t29 196q19.5 107 49.5 225zM133 49h95V20h-95zM92 169h176q7-42 27-65t46-27v-9H20v9q26 4 45.5 27T92 169zm0 120h176q7-42 27-65t46-27v-9H20v9q26 4 45.5 27T92 289zm0 118h177q8-40 27-63t45-27v-8H20v8q25 4 44.5 27T92 407zm-78 724h332q-43-170-62.5-314.5T264 578q0-67 21.5-102.5T341 435v-9H20v9q33 5 55 40.5T97 578q0 94-20 238.5T14 1131z" fill="currentColor"/></svg>