<svg xmlns="http://www.w3.org/2000/svg" viewBox="0 0 251.7 594.5"><path d="M96.1 26.1V0h58.5v26.1h88.5c10 8.4 10 16.9 0 25.3H206c-4.2 4.7-6.1 12.9-5.5 24.5h42.7c10 8.4 10 16.9 0 25.3H206c-4.2 4.7-6.1 12.9-5.5 24.5h42.7c10.5 7.9 11.3 16.3 2.4 25.3H206c-4.2 3.7-6.1 11.9-5.5 24.5h42.7c10.5 9 10.5 17.4 0 25.3H206c-11.6 11.6-16.1 45.1-13.4 100.4v194.5c2.6 23.7 16.6 56.7 41.9 98.8H17.8c22.1-36.9 35.1-69.8 38.7-98.8V301.2c1.1-55.9-3.2-89.3-12.6-100.4H7.5c-10-9-10-17.4 0-25.3h42.7c1.1-11.6-1.1-19.8-6.3-24.5H7.5c-10-8.4-10-16.9 0-25.3h42.7c.5-11.6-1.6-19.8-6.3-24.5H7.5c-10-8.4-10-16.9 0-25.3h42.7c.5-11.6-1.6-19.8-6.3-24.5H7.5c-10-8.4-10-16.9 0-25.3h88.6zm11.8 0h34V12.6h-34v13.5zM70.8 75.9h108.3c0-11.6 2.1-19.8 6.3-24.5H65.2c4.2 4.7 6.1 12.9 5.6 24.5zm0 49.8h108.3c-1.1-11.6 1.1-19.8 6.3-24.5H65.2c4.2 4.7 6.1 12.9 5.6 24.5zm0 49.8h108.3c0-12.6 2.1-20.8 6.3-24.5H65.2c4.8 4.7 6.6 12.9 5.6 24.5zM172 253.8c-.5-22.1 2.9-39.8 10.3-53H66c7.9 13.2 11.3 30.8 10.3 53H172zm0 16.6H76.3v5.5H172v5.5H76.3v5.5H172v5.5H76.3v5.5H172v5.5H76.3v192.1c-6.9 31.1-15 57.2-24.5 78.3h145.5c-12.1-28.5-20.6-54.6-25.3-78.3V270.4zm0-11.1H76.3v5.5H172v-5.5z"/></svg>