<svg xmlns="http://www.w3.org/2000/svg" viewBox="-10 0 1204 714"><path d="M785 714V537L455 262H321l-20 79H139l-21-84q-52-11-79.5-40t-38-63Q-10 120-10 94q0-35 22.5-64.5T74 0q37 0 58 20t21 48q0 20-7 33t-15 23q-6 7-10.5 14.5T116 156q0 16 14.5 24t46.5 8h1017v74H859v452zM173 243h1002v-35H177q-43 0-62-13.5T96 156q0-14 6.5-24.5T115 112q7-8 13-18.5t6-25.5q0-20-16-34T74 20q-30 0-47.5 23T9 94q0 20 7 45.5t25 49q18 23.5 50 39t82 15.5zm-19 79h133l14-60H155l-17-2zm631 189v-47q-62-50-122-100.5T541 262h-56q77 64 149 124t151 125zm0-72V262H571zm20 255h35V262h-35z" fill="currentColor"/></svg>