<svg xmlns="http://www.w3.org/2000/svg" viewBox="-10 0 816 1164"><path d="M304 1164V810h-62L18 575Q5 561-2.5 547.5T-10 514q0-21 15.5-38T48 459q27 0 41.5 15.5T104 507q0 19-10 31l183 112q-16 14-30 28t-14 37q0 14 3.5 26.5T247 768q2-9 5-18.5t8-17.5v-41l47-47 9-62q1-4 1.5-9t.5-9q0-39-13.5-82T278 403l-6-19q-9-11-22-27.5T229 330q-19-24-40-55.5T168 210v-57q0-11-2-24t-20-13q-13 0-18.5 5t-6.5 9h-18v-17q0-27 12-39.5T137 53l20-19q4-8 22.5-21T244 0q56 0 82.5 27.5T373 96q4 3 19 10.5t27 14.5q25 24 55 60t59 74.5q29 38.5 52 71.5 29 34 58 68.5t60 66.5q6 6 23.5 22t39 36q21.5 20 40.5 38l-24 22q-16-10-33.5-20.5L706 534l55 83-115 71-75-137q-5-10-16-24t-25-25q-14-11-29-11v133q-11-9-27-19.5T448 592v68q48 29 36 92 9 27 9 58h-67v163h-55V810h-12v354zm166-441q1-15-7-27.5t-18-20q-10-7.5-14-7.5V568q13 3 28 9.5t24 11.5V469q30 0 51 14t34 32.5q13 18.5 19 29.5l67 120 85-53-63-96q-43-25-95.5-54t-107-58.5Q419 374 369 347.5T281 301q-13-6-32.5-20T214 246.5Q199 226 199 202q-1-27 33-51.5t87-27.5l1 16q-46 3-74.5 23T218 202q0 18 12.5 35t29.5 30q17 13 32 20 59 30 129 67.5t139.5 76Q630 469 687 502.5t90 56.5l4-5q-6-5-19-16.5t-28.5-25Q718 499 705 488t-18-15q-6-5-25.5-28t-45-53.5Q591 361 568 334q-23-32-51.5-70t-58-73Q429 156 404 132q-3-2-18-10t-29-16q-12-26-25.5-46T298 29q-20-11-54-11-31 0-46 4.5t-20 10q-5 5.5-5 7.5l-23 22q-8 8-17.5 17T121 105q3-5 14-15.5T161 79q8 0 14.5 3.5T187 91q2 1 5 .5t3-4.5q0-4-1-5-7 0-12-5t-5-13q0-7 5.5-12.5T196 46h33q20 0 34 13t14 32q0 13-9 23.5t-20.5 18Q236 140 229 143q-2 1-7 1t-6-5h-6v9h-12q0-7-3.5-20.5T182 103q-9-11-25-11-6 0-10.5 2.5T139 100h7q25 0 33.5 17.5T188 153v57q0 29 22 60.5t41 57.5q22 28 51.5 61.5T352 444q37 40 50.5 76.5T414 582l-4 77q-25-1-46 2t-29 15q15-3 33-3 36 0 61.5 13.5T470 723zM195 72q8 0 8-8t-8-8q-8 0-8 8t8 8zm12 52q0-2-.5-4t-.5-3q0-21 19-21 10 0 14.5 7t4.5 12q0 5-2 7 7-5 14-13t7-18q0-14-11-24t-28-10h-12q2 4 2 8 0 6-2 9t-6 6q5 5 2 13-2 5-13 7 4 5 7 11.5t5 12.5zm18 6q8 0 8-12 0-3-2-7t-6-4q-9 0-9 11 0 12 9 12zm56 574q6-5 13-10t14-9q7-11 19-22t20-17l15-85q7 1 16 5t17 9l1-9q1-14-10.5-43.5T338 455q-7-8-16-18.5T304 415q11 35 22 73t11 76v9.5l-1 10.5-10 62-18 21q-3 5-12 15t-17 18zm-59 57q-8-22-8-46 0-23 10-38.5t20-23.5L60 539q7-5 16-13t9-19q0-10-10-19.5T48 478q-18 0-28.5 11T9 514q0 14 7 25t17 22zm143-116q3-1 13.5-2t14.5-1l3-46q-4-3-8.5-5.5T376 586q-2 7-5.5 25.5T365 645zM262 791h212q-2-41-28-70t-78-29q-52 0-78 29.5T262 791zm128 163h16V810h-16zm-66 190h16V810h-16z" fill="currentColor"/></svg>