<svg xmlns="http://www.w3.org/2000/svg" viewBox="0 0 449.9 638.5"><path d="M273.2 362.6H157.4c9-25.8 28.4-39.4 58.4-40.8 30.3 1.3 49.4 14.9 57.4 40.8zM208.6 254l11.4 11.9 14-10.9 2.1 46.5c-13.1-2.4-27-2.4-41.9 0l13.4-47.5h1zm43.9-70.2c74.8 36.9 112.6 55.3 113.7 55.3 18.9 21.4 37 41.2 54.3 59.4v1l-36.7 5.7-72.3-77.5c-13.8-11.7-40-29.8-78.5-54.3v-1l19.5 11.4zm-51.2-20.7c19.3 15.2 40.3 29.5 63 42.9v46.5c-7.6-6.9-15.3-11-23.3-12.4l-23.8-37.2c-7.2-12.4-12.6-25.3-16-38.8v-1zm-17.5-15.5c2.1 0 4.1 4 6.2 11.9 3.1 21.4 16.7 49.8 40.8 85.3-3.8 1.7-7.1 4.3-9.8 7.8-9.6-10-16.4-15-20.2-15h-.5c.3-19.7-5.2-49.7-16.5-90zM171.4 12.2c10 0 19.6 2.8 28.9 8.3v.5c0 6.2-3.1 11.2-9.3 15-10.7 2.8-16 4.5-16 5.2l17.1 2.1h2.6c5.9-1 11.2-4.1 16-9.3 3.1 12.1 5.5 18.6 7.2 19.6 5.9.3 14.1 6.2 24.8 17.6l42.4 55.3c30 42.7 52.4 74.1 67.2 94v.5c-40.3-19.6-63.7-31.3-70.3-35.1-26.2-11-50.6-24.8-73.4-41.3-24.1-18.6-38.1-35.3-41.9-50.1 0-5.2 2.8-11.7 8.3-19.6l19.1-24.8-2.6-.5c-5.2 1.7-11 5.7-17.6 11.9-9.6 10-15.2 18.4-16.5 25.3h-.5l-1-16.5c0-5.2.9-11.4 2.6-18.6v-2.1c-5.2-19.3-8.6-28.9-10.3-28.9l10.3-6.2-1.6 5.2c0 3.4 1.6 5.9 4.7 7.2h2.1c3.4 0 5.3-2.1 5.7-6.2v-2.1c0-1.4-1-3.3-3.1-5.7l5.1-.7zM114 271.1c-43.8-48.2-71.1-79.5-82.2-93.8-11-14.3-16.9-24-17.6-29.2-.7-5.2.5-10.3 3.6-15.5 3.1-5.2 6.6-8 10.6-8.5s8.2.4 12.7 2.8c3.8 4.1 5.7 8.4 5.7 12.7 0 4.3-1.6 9.6-4.7 15.8 3.4 4.8 7.9 9.8 13.4 15 7.2 7.9 19.1 18.6 35.7 32 18.3 14.1 31.2 24.8 38.8 32-8.9 13.8-14.3 26-16 36.7zm113.7 288.8h19.1c11 0 16.5-7.2 16.5-21.7.7-23.1-6.5-76.3-21.7-159.7H298c-3.4-12.1-7.6-21.4-12.4-27.9l7.8-10.9c-.7-9-7.1-15.2-19.1-18.6-6.2-8.3-14.3-14.8-24.3-19.6l-2.1-48.1 10.9 5.7 19.6 17.1c-2.1-24.8-3.1-45.6-3.1-62.5l13.4 9.3c7.9 3.4 20 14.8 36.2 34.1 36.2 39.3 54.6 58.9 55.3 58.9 37.5-4.8 56.3-9.5 56.3-14l-38.8-43.9c22.7 14.5 39.8 24.1 51.2 28.9h1c-6.5-6.2-16.2-14-28.9-23.3l9.8 3.6c3.8-.7 5.5-3.8 5.2-9.3l-89.9-63c-27.6-41-50.3-72.7-68.2-95.1-5.2-7.2-12.7-17.5-22.7-30.7-10-13.3-19.5-21.1-28.4-23.5-1.4-.3-3.3-5.2-5.7-14.5-4.1-9.3-8.1-15-11.9-17.1C202 5.1 192.5.4 180.8-.1s-22.2 2-31.5 7.5c-2.1.3-5.2 1.9-9.3 4.7-8.3 6.2-12.4 11.7-12.4 16.5l.5.5 6.7-.5 4.1.5c3.1 0 6.2 7.2 9.3 21.7-1.7 5.9-2.6 12.4-2.6 19.6v.5c0 20.3 7.4 39.6 22.2 57.9 15.2 51 22.6 88.2 22.2 111.6 0 3.1 1.9 4.8 5.7 5.2l-15.5 53.7-20.2 17.3-31-32c.3-18.6 7.1-36.5 20.2-53.7-12.1-11.4-27.6-24.5-46.5-39.3-20-15.5-32.6-26-37.7-31.5-5.2-5.5-8.3-9-9.3-10.3 5.9-13.8 3.8-25.5-6.2-35.1-10-9.6-20.3-10.5-31-2.6S1.8 129 .4 139c-1.4 10 1.7 21 9.3 33.1L37 206l108.5 121.4c-5.2 11-6 18.8-2.6 23.3l-10.3 27.9h70.3v259.9h24.8v-78.6zm-.5-181.8c12.1 80.3 18.1 126.1 18.1 137.5l1 22.2h-18.6V378.1h-.5z"/></svg>