<svg xmlns="http://www.w3.org/2000/svg" viewBox="0 0 190.8 594.7"><path d="M33.4 304.7h139.9c0-15.4-7.3-29.8-21.8-43-14.6-13.2-30.6-19.8-48.3-19.8-17.6 0-33.6 6.6-48 19.8-14.5 13.2-21.8 27.6-21.8 43zm157.4 9.9v7.9h-48.6v123.7h-24.5V322.6H89.3v272.2H64.8V322.6H15.9v-7.9c0-24.9 7.3-45 21.8-60.2 14.3-15.2 29.3-24.6 45-28.1L6.6 57.3C-.5 42.1-1.9 30.4 2.3 22.2 6.7 14.3 14.1 8.2 24.5 4c17.9-8.1 30.3-4 37.4 12.3 4.9 10.8 3.5 21.3-4 31.4l73.7 102.2c-21.6 13-33.3 25.1-35.1 36.4-1.5 11.5.8 24.1 6.9 38h-.3c24.5 0 45.2 8.8 62.2 26.5 17.1 17.6 25.5 38.9 25.5 63.8zM42 48.4c8-10.6 10.3-19.6 7-27.1-3.3-7.3-9.5-8.9-18.5-5-13.9 6.4-17.1 18.2-9.6 35.4l58.5 128.6c4.9-15 14.1-26.9 27.8-35.7L42 48.4z"/></svg>