<svg xmlns="http://www.w3.org/2000/svg" viewBox="-10 0 371 1164"><path d="M95 1164V616H-10q3-42 26.5-77t60-58q36.5-23 81.5-27L29 155q-10-25-17-48T5 70q0-22 17-46T81 0q33 0 52.5 19T153 64q0 22-8.5 35.5T126 120l184 211q-50 22-79.5 54.5T190 454q45 4 82.5 26.5t61 58Q357 574 361 616H243v269h-55V616h-38v548zm79-717q7-31 36-66.5t70-54.5q-43-50-92-105.5T97 116q11-5 24-17.5T134 64q0-17-14.5-31T81 19q-31 0-44 17.5T24 70q0 12 6.5 33.5T46 147zM14 596h323q-8-34-32-62t-58-44.5Q213 473 175 473t-71.5 16.5Q70 506 46.5 534T14 596zm101 548h16V616h-16zm92-279h16V616h-16z" fill="currentColor"/></svg>