<svg xmlns="http://www.w3.org/2000/svg" viewBox="0 0 280.8 594.6"><path d="M121.4 292.3L92 385.6c-5.1 18.3 4.7 27.4 29.4 27.4V292.3zm38.3 120.8c24.5 0 34.3-9.1 29.4-27.4L159 292.4l.7 120.7zm-15.2 164.3V275.5h-8.3v301.9h8.3zM261.6 257v-21.5H18.5V257h243.1zM74.1 190.5c-.9 18.7-10.3 28.3-28.1 28.8-18.7-.4-28.3-10-28.8-28.8.4-17.9 10-27.4 28.8-28.8 17.8 1.3 27.2 10.9 28.1 28.8zm-40.7 0c0 8.2 4.2 12.5 12.6 12.9 7.7-.4 11.8-4.7 12.2-12.9-.4-7.7-4.5-11.9-12.2-12.6-8.4.7-12.6 4.9-12.6 12.6zm229.5.7c-.9 18.3-10.3 27.9-28.1 28.8-18.7-.9-28.3-10.5-28.8-28.8.4-18.3 10-27.9 28.8-28.8 17.9.9 27.2 10.5 28.1 28.8zm-40.3 0c.4 8.2 4.5 12.5 12.2 12.9 7.9-.4 12.1-4.7 12.6-12.9-.4-7.7-4.6-11.8-12.6-12.2-7.7.4-11.8 4.4-12.2 12.2zm-108.2 28.1c-20.9-22-30.1-50.2-27.4-84.3C94.7 45 112 0 138.9 0h1c26.9 0 44.2 45 51.9 134.9 3.1 34.2-6.1 62.3-27.4 84.3h116.4v56.2H174.6L205.4 376c12.3 38.4-2.9 57.5-45.6 57.5v161.1h-38.4v-161c-43 0-58.5-19.2-46.6-57.5l30.8-100.5H0v-56.2h114.4zm24.5-20.5c18.3-5.5 27.4-17.6 27.4-36.4-1.8-88.2-10.6-132.3-26.5-132.3h-1c-15.9 0-24.7 44.1-26.5 132.3.1 18.7 9 30.8 26.6 36.4z"/></svg>