<svg xmlns="http://www.w3.org/2000/svg" viewBox="-10 0 605 1162"><path d="M257 1162V809q-20-1-43-9.5t-39.5-28Q158 752 158 718q0-20 9-53t22.5-70.5q13.5-37.5 26-69T234 479H-10V305q0-25 9.5-43T31 244q12 0 27 8t32 20q-1-4-1.5-7.5T88 257q0-24 17-41t41-17q16 0 29 8t20 21l16-131q6-52 27-74.5T293 0q33 0 54 22.5T374 97l15 132q17-30 51-30 23 0 40 17t17 41q0 4-.5 7.5T495 272q16-12 31.5-20t27.5-8q23 0 32 18t9 43v174H351q7 17 19.5 49t25.5 69q13 37 22 69.5t9 51.5q0 34-16.5 53.5t-40 28Q347 808 328 809v353zm36-787q24 0 46.5-7t44.5-18l-29-250q-5-44-21-62.5T293 19q-26 0-42 19t-20 61l-30 251q22 11 44.5 18t47.5 7zm-147-80q16 0 27-11t11-27q0-16-11-27t-27-11q-16 0-27 11t-11 27q0 16 11 27t27 11zm294 0q16 0 27-11t11-27q0-16-11-27t-27-11q-16 0-27.5 11T401 257q0 16 11.5 27t27.5 11zM9 459h567V305q0-17-5-29.5T554 263q-12 0-30.5 12.5T482 306q-25 20-54.5 40.5t-63 34.5Q331 395 293 395t-72-14q-34-14-63.5-34.5T103 306q-22-18-41-30.5T31 263q-12 0-17 12.5T9 305zm393-119q19-11 38-26-27 0-43-19zm-219 0l5-44q-18 18-42 18h-1q19 15 38 26zm94 802h31V479h-31zm-20-352V479h-2q-5 12-17.5 43t-26 69Q198 629 188 664t-10 54q0 26 13 41t31.5 22q18.5 7 34.5 9zm71 0q16-2 34.5-9t31.5-22q13-15 13-41 0-20-10-55t-24-74q-14-39-26.5-69.5T330 479h-2z" fill="currentColor"/></svg>