<svg xmlns="http://www.w3.org/2000/svg" viewBox="0 0 286.7 594.6"><path d="M163 419c26.9 0 37.8-9.4 32.7-28.1l-33.4-104.2.7 132.3zm-15.5 158.8V268.5h-8.3v309.2h8.3zm119.7-327.5v-67.8c0-10.8-3.3-16.3-9.9-16.5-6.4-.2-20.1 10.1-41 31.1-21.2 21.2-45.4 31.7-72.8 31.7-28 0-52.4-10.6-73.1-31.7-20.9-20.9-34.7-31.3-41.3-31.1-6.8.2-10.3 5.7-10.3 16.5v67.8h248.4zm-123.7-45.9c18.5-5.7 27.8-18.4 27.8-38-2.2-90-11.5-134.9-27.8-134.9s-25.7 45-28.1 134.9c0 19.6 9.4 32.2 28.1 38zm67.2 167c29.3-9.7 37.7-23.3 25.1-40.7l-47-62.2h-11.2l33.1 102.9zm-21.9-175.6c6.6-4.6 17.1-14 31.4-28.1 14.6-14.3 28.6-21.5 42-21.5 15.9 0 24 12.3 24.5 37v85.3h-71.4l35.1 45.6c27.6 35.7 15.9 62.1-35.1 79 9.5 31.1-7.9 46.6-52.3 46.6v154.8h-39.4v-326H0v-85.3c0-24.7 8.2-37 24.5-37 13.4 0 31.2 10.9 53.2 32.7 8.4 7.9 15.1 13.8 20.2 17.5-7.1-16.8-9.6-35.8-7.6-57.2C98.2 46.4 116 0 143.5 0c27.3 0 45 46.4 52.9 139.2 2 22.3-.5 41.1-7.6 56.6z"/></svg>