<svg xmlns="http://www.w3.org/2000/svg" viewBox="0 0 179.7 594.5"><path d="M143.3 190.9H33.4c28.5 59.9 46.9 90.4 55.2 91.7 7.2-.5 25.4-31.1 54.7-91.7zM69.8 302c-18.4 3.3-32.1 9-41.1 17s-11.6 15.3-7.8 22c10 4.2 19 2.1 27-6.3 7.9-8.4 15.2-19.3 21.9-32.7zM.2 182.7l20.7-17 4.4-64.7c.4-35.2 5.2-63 14.4-83.5C42.6 5.9 48.9 0 58.5 0c11.7 0 21.8 5 30.1 15.1C96.6 5 106.3 0 117.6 0c10 0 17 5.9 20.7 17.6 8.8 20.5 13.6 48.3 14.4 83.5l3.8 64.7 19.5 17c-1.7 8.8-7.3 13.8-17 15.1-13 24.3-26.2 53.2-39.6 86.6 18.4 6.3 38.5 20.3 60.3 42.1-4.2 4.2-6.7 13-7.5 26.4-6.7-10-15-19-24.8-27s-21.4-13.8-34.8-17.6c26.8 18.4 41.6 42.9 44.6 73.5-10.9-2.9-18.6-.4-23.2 7.5-.4-18.4-4.8-34.3-13.2-47.7-4.6-5.9-10.5-8.8-17.6-8.8 2.9 77.8 5.7 165.1 8.2 261.8h-46c3.3-103.8 6.1-191.1 8.2-261.8-14.6 21.8-34.5 30.8-59.6 27-10.9-4.6-15.2-13.1-12.9-25.4 2.3-12.3 7-21.9 14.1-28.6 7.1-6.7 21.1-14 42.1-22C41 250.7 24.4 222 7.7 197.8c-5.9-1.7-8.4-6.7-7.5-15.1zM120.1 22c-9.2-5.4-16.7-3.8-22.6 5v123c9.6 10 18 13.6 25.1 10.7 7.1-16.3 10.7-39.8 10.7-70.3 0-25.9-4.4-48.8-13.2-68.4zM79.9 150V27c-5.9-8.8-13.4-10.5-22.6-5-8.8 19.7-13.2 42.5-13.2 68.4 0 30.6 2.7 52.7 8.2 66.5 8.3 5.5 17.5 3.2 27.6-6.9z"/></svg>