<svg xmlns="http://www.w3.org/2000/svg" viewBox="-10 0 389 1162"><path d="M191 1162q-27 0-35-17t-7-55l17-383-9 2q-13 2-26.5 4T98 715q-46 0-77-19t-31-55q0-31 20-46.5T59 579q32 0 59.5 14t50.5 34l3-85q-15-4-29-12.5T121 503q-8-17-9-46.5T100 406q-6-12-20.5-18.5T49 379q-16-2-27-2v-36q8-6 35-12L76 88q2-20 8-40.5t20.5-34Q119 0 146 0q22 0 35 9t20 24q7-15 19.5-24T255 0q28 0 42.5 13.5t20 34Q323 68 325 88l19 241q13 3 22 6.5t13 5.5v36q-10 0-26 2t-31 8.5q-15 6.5-21 18.5-10 21-11.5 50.5T280 503q-7 18-21.5 26.5T229 542l5 143q47 7 73.5 33t37.5 59q11 33 11 61h-19q0-24-9-52t-31-50.5Q275 713 238 706q24 34 44 87t20 133h-19q0-62-14-107t-32-77l15 348q1 38-7 55t-34 17zM77 324q20-3 48-6t66-3V92q0-26-8-49.5T146 19q-29 0-39 23T96 90zm247 0L306 90q-2-25-12-48t-39-23q-27 0-35.5 22T211 92v223q38 0 66 2.5t47 6.5zM201 525q13 0 32.5-5.5T262 493q8-18 9.5-47.5T283 395q7-15 21.5-22.5t30-10.5q15.5-3 25.5-3v-4q-5-3-20.5-8t-49-9q-33.5-4-89.5-4-57 0-90 4t-48.5 9Q47 352 42 355v4q15 0 40.5 7.5T119 395q10 21 11.5 50.5T140 493q9 21 28 26.5t33 5.5zm13 149l-5-129h-17l-4 99q7 8 14 15t12 15zM98 696q16 0 29.5-2.5T154 689l12-2 2-34q-23-22-50-38t-59-16q-21 0-35.5 10.5T9 641q0 27 25.5 41T98 696zm93 446h20q16 0 19.5-14t2.5-37l-17-381q-3-6-14.5-20T187 673l-18 418q-1 23 2.5 37t19.5 14z" fill="currentColor"/></svg>