<svg xmlns="http://www.w3.org/2000/svg" viewBox="-10 0 357 1162"><path d="M159 1162q-27 0-35.5-17t-6.5-55l23-548q-15-4-29-12.5T89 503q-8-17-9-46.5T68 406q-6-12-20.5-18.5T17 379q-16-2-27-2v-36q8-6 35-12L44 88q1-20 7-40.5t21-34Q87 0 114 0q22 0 35 9t20 24q6-15 19-24t35-9q28 0 42.5 13.5t20 34Q291 68 293 88l19 241q13 3 22 6.5t13 5.5v36q-16 0-42 5t-36 24q-10 21-11.5 50.5T248 503q-8 18-22 26.5T196 542l24 548q1 38-7 55t-35 17zM45 324q20-3 48-6t66-3V92q0-26-8-49.5T114 19q-29 0-39 23T64 90zm247 0L274 90q-2-25-12-48t-39-23q-27 0-36 22t-9 51v223q39 0 67 2.5t47 6.5zM169 525q13 0 32-5.5t29-26.5q7-18 9-47.5t12-50.5q7-15 21.5-22.5t30-10.5q15.5-3 25.5-3v-4q-5-3-21-8t-49-9q-33-4-89-4-57 0-90 4t-49 9q-16 5-21 8v4q15 0 40.5 7.5T87 395q10 21 11.5 50.5T108 493q9 21 28 26.5t33 5.5zm-10 617h19q17 0 20-14t2-37l-23-546h-17l-23 546q-2 23 1.5 37t20.5 14z" fill="currentColor"/></svg>