<svg xmlns="http://www.w3.org/2000/svg" viewBox="-10 0 525 1164"><path d="M162 1164q-26 0-34.5-17t-6.5-55l15-266H-10L5 597q2-40 10-73.5T38 465L52 87q2-33 16.5-60T115 0q16 0 29 7t21 18q8-11 20-18t29-7q32 0 46.5 27T277 87l15 378q3 7 6.5 14t6.5 15q10-40 36-58.5t61-18.5q34 0 57.5 19.5T483 487q-1 42-26.5 62.5T396 577q11 11 27 29.5t31 36q15 17.5 22 25.5 10 10 24.5 29.5T515 732q0 27-24 27-20 0-34-15.5T432 711q-3-4-13-20.5T396.5 653Q384 632 374 617q11 25 24 56t22 58q9 27 9 39 0 14-7 23t-23 9q-16 0-27-13t-17-28.5q-6-15.5-9-23.5-6-12-15-45l8 134H193l17 266q1 38-7 55t-35 17zM58 437q34-37 97-40V55q-1-14-12-24.5T115 20q-22 0-32 21T72 88zm213 0L257 88q-2-26-11-47t-32-21q-17 0-28.5 11T174 57v340q63 3 97 40zM35 528h259q-13-52-44-82t-85-30q-56 0-86.5 30T35 528zm286 37q21 0 45.5-2t46.5-9.5q22-7.5 36-23.5t14-43q0-20-17.5-35.5T402 436q-33 0-56.5 22T320 528h15q0-14 4.5-32.5t18-31.5q13.5-13 42.5-13 24 0 35 12.5t11 25.5q0 29-33 43.5T339 547h-21v2zm33-37h4q29 1 49-10.5t20-28.5q0-6-6-13t-21-7q-24 0-35.5 17.5T354 528zM28 565h273l-3-18H30q-1 5-1.5 9t-.5 9zm463 174q5 0 5-7 0-8-11.5-23T462 680q-7-8-23.5-27t-34-39.5Q387 593 375 581l-10 1q8 12 20.5 30t26 36.5q13.5 18.5 23.5 33t13 18.5q6 8 19 23.5t24 15.5zm-92 44q11 0 11-14 0-7-7.5-30.5T384 685q-11-30-21.5-57.5T345 584q-5 0-11.5.5t-9.5.5q5 29 13.5 59t16 53q7.5 23 10.5 33 3 7 7.5 19.5t11 23Q389 783 399 783zM11 807h307q-3-53-6-105t-7-104l-2-13H25q0 3-.5 6.5T24 598zm151 337h6q17 0 20-14t2-37l-16-267h-19l-15 267q-1 23 2 37t20 14z" fill="currentColor"/></svg>