<svg xmlns="http://www.w3.org/2000/svg" viewBox="0 0 197.8 594.6"><path d="M46.3 13.2c-9.3 0-13.9 6.6-13.9 19.8l-4 143.2c10.6-7.4 21-11.2 31.1-11.2V33c0-13.2-4.4-19.8-13.2-19.8zm47.3 0c-8.8 0-13.2 6.6-13.2 19.8l.6 132c10.1 0 20.3 3.7 30.4 11.2l-4-143.2c.1-13.2-4.5-19.8-13.8-19.8zm50.3 216.6c29.5-11 43.9-20.9 43-29.8-.9-8.8-6.5-12.6-16.9-11.2-10.4 1.4-19.1 15-26.1 41zm-9.3-6.6c6.2-27.3 17.4-42.3 33.7-45 16.3-2.6 26 3.7 29.1 19.2 3.1 15.4-11.5 29-43.7 40.7 26 4 39 21.6 39 52.9h-11.9c0-26.9-8.2-40.3-24.5-40.3 6.2 10.6 9.3 28 9.3 52.3h-11.9c0-30.9-6-49.6-17.9-56.2l5.3 86H83l7.3 239.4c0 15-6.7 22.5-20.2 22.5-12.8 0-19.2-7.5-19.2-22.5l7.3-239.4H0l6.6-109.5L20.5 33.1C20.5 11 27.6 0 41.7 0c15 0 24.3 4.9 27.8 14.6C72.5 4.9 80.6 0 93.6 0 111.2 0 120 11 120 33.1l14.6 190.1zm-18.5 23.5h-91l-4 65.5h99.5l-4.5-65.5zm-46-62.5c-26.9 0-41.2 13-43 39h87c-1.8-26-16.4-39-44-39zm-43.6 48.3l-.7 4.6h89v-4.6H26.5z"/></svg>