<svg xmlns="http://www.w3.org/2000/svg" viewBox="0 0 493.8 594.6"><path d="M225.9 12.6c-8.8 0-13.2 6.5-13.2 19.5L208.3 167c10.1-7.1 20.2-10.6 30.1-10.6V32.1c0-13-4.1-19.5-12.5-19.5zm44.6 0c-8.4 0-12.6 6.5-12.6 19.5v124.3c9.9 0 19.7 3.3 29.4 9.9L282.7 32c.1-12.9-4-19.4-12.2-19.4zm47.3 204.7c27.6-10.6 41-20.1 40.3-28.4-.4-8.2-5.6-11.7-15.5-10.6-9.7 1.3-18 14.3-24.8 39zM147.2 523.2c-18.7 0-37.1-13.1-55.2-39.4-17.9-26.2-33.1-39.4-45.6-39.4-15.4 0-23.1 8.3-23.1 24.8v102.9h447.5V468.6c0-16.1-7.9-24.1-23.8-24.1-12.6 0-27.8 13.1-45.6 39.4-17.9 26.2-36 39.4-54.6 39.4-18.3 0-34.8-11.1-49.6-33.4-14.8-22.3-26.6-35.7-35.4-40.3-8.8-4.6-18-4.5-27.4.3-9.7 4.6-22.2 18.1-37.4 40.3-15.4 22-32 33-49.8 33zm114.4-100.9c9.7 0 23.5 13.3 41.3 40 17.9 26.5 32.4 39.7 43.7 39.7 11.2 0 25.9-13.2 44-39.7 17.9-26.7 36.6-40 56.2-40 31.3 0 47 15.4 47 46.3v126H0V469.3c0-31.3 15.7-47 47-47 19.2 0 37.8 13.3 55.9 40 18.3 26.5 33.1 39.7 44.3 39.7 10.8 0 25.1-13.2 43-39.7 18.1-26.7 33.3-40 45.6-40l.7-108.1h-54.2l6.3-102.5 12.2-179.6c0-21.4 6.9-32.1 20.8-32.1 13.7 0 22.4 4.6 26.1 13.9C250.8 4.6 258.2 0 269.9 0c16.5 0 24.8 10.7 24.8 32.1l14.6 179.6h-.7c5.7-26.5 16.3-40.8 31.7-43 15.4-2.2 24.7 3.9 27.8 18.2 2.9 14.3-10.9 27.1-41.3 38.4 24.5 3.3 36.7 19.8 36.7 49.6h-10.6c0-25.6-7.9-38.1-23.8-37.7 6.4 10.1 9.6 26.7 9.6 49.6h-11.9c0-29.3-5.6-47.3-16.9-53.9l5.6 81.4h-55.2l1.3 108zM291 233.5h-85l-4.6 61.2h93.9l-4.3-61.2zM248.4 174c-25.4 0-38.9 12.6-40.7 37.7H289c-1.1-25.2-14.6-37.7-40.6-37.7zm-42 45.6v5h84l-.7-5h-83.3z"/></svg>