<svg xmlns="http://www.w3.org/2000/svg" viewBox="-10 0 674.143 1160"><path d="M0 1160v-20h81v-85H0v-20h81v-85H0v-20h284V794H149l15-205q3-41 12-79.5t29-68q20-29.5 55-42.5-3-8-11.5-19.5T224 368q-13 0-27 3t-28 8q-16 6-34 11t-36 5q-30 0-54.5-12.5T5 355q-15-15-15-23 0-28 28-28 7 0 14.5 3l17.5 7q12 4 24.5 8t20.5 4q16 0 32-4.5t33-10.5l14-5 55-182q-20-5-35.5-19.5T178 62q0-24 18-43t49-19q29 0 47 14t26 33q9-19 26.5-33T392 0q31 0 49 19t18 43q0 28-15.5 42.5T408 124l54 182 15 5q16 6 32 10.5t33 4.5q8 0 20.5-4t24.5-8l17.5-7 14.5-3q28 0 28 28 0 8-15 23t-40 27.5Q567 395 538 395q-18 0-35.5-5T468 379q-14-5-28-8t-27-3q-15 0-24 11.5T377 399q29 11 49.5 34t32.5 53q10-40 34-58.5t58-18.5q34 0 57.5 19.5T631 479q0 42-26 62.5T545 569q18 15 40.5 36t33.5 32q6 7 17 17.5t19.5 22.5q8.5 12 8.5 22 1 11-5 19t-19 8q-20 0-37-18t-30-34q-5-6-19.5-23.5T524 609q11 23 23.5 48t21.5 46.5q9 21.5 9 33.5 0 13-7.5 22.5T547 769q-16 0-26.5-13T504 727.5q-6-15.5-9-23.5-2-4-7.5-19T477 654l11 140H353v136h269v20h-82v85h82v20h-82v85h82v20zm440-861l-57-190q21-4 39-15t18-32q0-16-13-29.5T392 19q-25 0-38.5 12.5T334 61q-6 17-6 31v112q24 4 40.5 22t16.5 44q0 14-4 25 3-1 6.5-1.5t8.5-.5q12 0 22.5 2t21.5 4zm-244 0l22-4 23-2q4 0 7.5.5t7.5 1.5q-4-11-4-25 0-26 16-44t41-22V92q0-15-6-32t-20-29q-14-12-38-12-22 0-35 13.5T197 62q0 21 18 32t39 15zm122 18q20 0 34-13.5t14-33.5q0-20-14-33.5T318 223q-19 0-33 13.5T271 270q0 20 14 33.5t33 13.5zm28 74h12q5-9 18.5-26t36.5-17q14 0 30 4t31 9l32 10 32 5q24 0 44.5-8.5t33-19Q628 338 628 332q0-8-9-8-2 0-10 3t-15 5q-12 4-26.5 9t-25.5 5q-19 0-37-5t-35-12q-17-6-35.5-11t-38.5-5q-29 0-48 20t-20 53v3q5 0 9 .5t9 1.5zm-68 0h13q4-1 8.5-1.5t9.5-.5q-1-35-20.5-55.5T241 313q-20 0-38.5 5T167 329q-17 7-34.5 12T95 346q-10 0-25-5l-27-9q-7-2-15-5t-10-3q-9 0-9 8 0 6 12.5 16.5t33 19Q75 376 99 376q16 0 32-5l32-10q15-5 31-9t30-4q23 0 36 17t18 26zm40-41l8-13h-15zM193 520h250q-14-52-42-82t-83-30q-55 0-83 30t-42 82zm277 37q21 0 45.5-2t46.5-9.5q22-7.5 36-23.5t14-43q0-20-17.5-35.5T551 428q-33 0-56.5 22T469 520h14q0-14 4.5-32.5t19-31.5q14.5-13 42.5-13 24 0 35 12.5t11 25.5q0 29-33 43.5T488 539h-21zm33-37h4q28 1 48.5-10.5T576 481q0-6-6.5-13t-20.5-7q-24 0-36 17.5T503 520zm-316 37h263l-3-18H189q-1 5-1.5 9t-.5 9zm453 149q5 0 5-7 0-8-13.5-23T607 650q-8-8-24-22t-32-29q-16-15-27-26l-10 1q11 16 26 33.5t28.5 32.5q13.5 15 18.5 21 4 5 14 16t21 20q11 9 18 9zm-93 44q12 0 12-14 0-8-7.5-27.5t-19-44Q521 640 510 616t-18-40q-5 0-10.5.5t-8.5.5q10 36 22.5 70.5T513 697q3 7 9 20t12.5 23q6.5 10 12.5 10zm-377 24h297q-2-35-4.5-64t-5-60.5Q455 618 452 577H184q0 1-.5 6.5t-1.5 23q-1 17.5-4 57.5t-8 110zm134 156h29V794h-29zm-57 105h127v-85H247zm-146 0h127v-85H101zm293 0h127v-85H394zm0 105h127v-85H394zm-147 0h127v-85H247zm-146 0h127v-85H101z" fill="currentColor"/></svg>