<svg xmlns="http://www.w3.org/2000/svg" viewBox="0 0 306.6 594.5"><path d="M247.9 235.4c-.4-6.7-3.9-9.6-10.3-8.7s-10.6 2.9-12.5 6.2c-1.9 3.3-2.4 7-1.6 10.9.8 4 5.5 5.4 14.1 4.4s12-5.3 10.3-12.8zm-55.6 21.3c-4.6-16.2-10.3-26.2-17.2-30-6.9-3.7-14.3-5.6-22.2-5.6-7.9 0-15.5 1.9-22.8 5.6-7.3 3.7-13 13.7-17.2 30h79.4zm8.8 116.8l-8.7-98H113l-11.2 98h99.3zm57.4 126.1h-55v25.6h55v-25.6zm0 48.1h-55v23.7h55v-23.7zm-78-48.1h-54.3v25.6h54.3v-25.6zm0 48.1h-54.3v23.7h54.3v-23.7zM103 499.6H48v25.6h55v-25.6zm0 48.1H48v23.7h54.3l.7-23.7zm36.9-346c-1.7-5.8-5-9-10-9.4-32.1 6.2-53.6 6.8-64.6 1.6-11-5.2-19-10.9-24-17.2-6.2-9.2-2.9-10.8 10-5 6.2 2.9 13.9 5.8 23.1 8.7 0-2.9 10-49.3 30-139.3-14.2-2.1-21-9-20.6-20.6 2.9-9.6 10.6-16.2 23.1-20 17.9-1.2 31.4 4.2 40.6 16.2.4 2.1 2.3 4.8 5.6 8.1l6.9-8.1c2.9-5.4 6.9-9.5 11.9-12.2S182.7.2 189.4-.2c17.5 0 28.9 6.5 34.3 19.4 1.2 12.5-6 20-21.9 22.5.8 2.9 5.9 26.1 15.3 69.6 9.4 43.5 14.7 66.9 15.9 70.3l21.2-10c7.9-5.8 10.4-4.6 7.5 3.7-5.8 7.9-13.5 14.3-23.1 19-9.6 4.8-30.4 4.1-62.5-2.2-5 .4-8.3 3.5-10 9.4 0 2.9 3.5 5.2 10.6 6.9 7.1 1.7 14.8 6.1 23.1 13.4 8.3 7.3 12.3 14.1 11.9 20.3.8-17.1 8.2-25.9 22.2-26.5 13.9-.6 22.4 3.6 25.3 12.8 2.9 9.2 1.4 17.2-4.7 24s-18.4 9.7-37.2 8.4c1.2 11.2 18.9 29.1 53.1 53.7 2.1 13.7 5 26 8.7 36.8-22.9-22.5-43.3-41.8-61.2-58.1 8.7 20.4 23.1 37.9 43.1 52.5-.8 15.8 1.2 27.5 6.2 35l-45-40 6.2 43.7-58.7 15v77.4h136.8v22.5h-25v25.6h25v22.5h-25v23.7h25v23.1H0v-23.1h25v-23.7H0v-22.5h25v-25.6H0v-22.5h136.1v-77.4l-58.7-15 11.9-119.3c2.5-20.8 8-35.1 16.5-42.8 8.5-7.7 16.2-12.4 23.1-14.1 6.9-1.3 10.6-3.6 11-6.5zm6.2-163l-6.9-16.2c-8.7-8.3-18.1-12.3-28.1-11.9-7.5-.8-12.7 3.3-15.6 12.5 1.2 7.9 9.2 12.1 23.7 12.5L86.8 182.4c7.9 2.9 22.1 1.7 42.5-3.7-9.6-5-14.4-13.5-14.4-25.6 1.7-15.4 12.3-24.8 31.8-28.1l-.6-86.3zm65.6-19.3c-3.7-6.2-11-9.8-21.9-10.6-5.8 1.2-11.9 4-18.1 8.1-2.9 2.9-6.7 9.8-11.2 20.6v87.4c18.3 3.3 28.5 12.7 30.6 28.1 0 12.5-4.8 21-14.4 25.6 19.2 5.8 33.3 7.3 42.5 4.4 0-2.1-10.6-51.8-31.8-149.3 14.5-.4 22.6-5.2 24.3-14.3zM180.5 153c-.4-12.1-9.6-18.7-27.5-20-17.9 1.2-27.7 7.9-29.4 20 1.2 15 11 23.9 29.4 26.9 16.7-3 25.8-11.9 27.5-26.9z"/></svg>