<svg xmlns="http://www.w3.org/2000/svg" viewBox="0 0 242.6 594.7"><path d="M128.1 127.6v117.1c9.9-6.9 19.4-10.4 28.5-10.4l-28.5-106.7zm-3.9-27.8l76.3-91.2c7.3-6.5 14.2-9.3 20.7-8.4 6.5.9 12.3 4.9 17.5 12 5.2 7.1 5.1 14.4-.3 22-5.4 7.5-12.4 9.8-21 6.8-1.3.4-3.5 2.6-6.5 6.5s-8.8 13.2-17.5 27.8c-8.2 14.2-15.5 25.7-22 34.3-11.2-7.8-21.6-11.2-31.1-10.4v3.2c15.5 5.6 25.9 18.5 31.1 38.8-19.4-2.2-24.9 5-16.5 21.3 8.4 16.4 16.9 46.6 25.6 90.6-21.6 3-39 9.3-52.4 18.8v204.4c26.7 6.9 39.9 23.5 39.5 49.8 1.7 9.9-1.1 25.2-8.4 45.9-4.7 15.1-14.2 22.6-28.5 22.6 9.1-35.8 13.6-58.7 13.6-68.6-.9-19.8-10.1-29.8-27.8-29.8-16.4 0-25 9.9-25.9 29.8 0 9.9 4.7 32.8 14.2 68.6-14.2 0-23.9-7.5-29.1-22.6-7.3-20.7-10.4-36-9.1-45.9.9-26.3 14-42.9 39.5-49.8V119.2c-4.3-8.6-10.6-14.4-18.8-17.5-7.3 1.3-15.1 4.7-23.3 10.4-11.6 10.4-21.3 21.6-29.1 33.6-7.8 12.1-14.4 22.9-20.1 32.3C7 188.8 2.1 188.8-.1 178c-.4-8.6 3.2-20.6 11-35.9 7.8-15.3 13.6-30 17.5-44s8.8-23.8 14.9-29.4C55 60.1 70.6 48.9 90 35.1 115.4 12.7 130.3 6 134.6 15c2.6 4.3-3.3 13.2-17.8 26.5-14.4 13.4-24.7 23.7-30.7 31.1 9 15.5 21.8 24.6 38.1 27.2zm21.4-11c6 0 13.6 2.6 22.6 7.8 3.9-5.6 9.9-15.1 18.1-28.5 7.3-12.1 13.2-20.9 17.5-26.5 3.5-3.9 6.5-7.1 9.1-9.7 3.9 1.3 7.3 1.8 10.4 1.6 3-.2 6-2 9.1-5.5 1.3-2.2 1.3-5.1 0-8.7-1.3-3.7-3.5-6.3-6.5-7.8s-6.4-1.7-10-.6c-3.7 1.1-9.5 5.9-17.5 14.6-8.1 8.5-25.6 29.6-52.8 63.3zm-12.9 20c7.8 10.4 12.7 19.4 14.9 27.2 3-2.6 5.6-3.9 7.8-3.9s1.9-2.4-.6-7.1c-2.7-4.7-10.1-10.1-22.1-16.2z"/></svg>