<svg xmlns="http://www.w3.org/2000/svg" viewBox="0 0 576.4 594.6"><path d="M546.4 223.6H31.3c6.1 8.7 14.3 15.6 24.8 20.9h468.1c9.1-5.7 16.5-12.6 22.2-20.9zm-226.3 39.1h-63.2c.4 9.6 2.9 17.4 7.5 23.5 4.6 6.1 12.5 9.1 23.8 9.1s19.2-3 23.8-9.1c4.5-6.1 7.3-13.9 8.1-23.5zm-3.2 306.4c-4.8-45.2-9.8-80.7-15-106.6-5.2-25.9-5.9-76.8-2-152.9h-22.8c3.5 76.1 3 126.9-1.3 152.6-4.3 25.6-10 61.3-17 106.9h58.1zm176-363.8V77.5c4.3-24.8-7.2-48-34.6-69.8 1.3-3 3.9-5.3 7.8-6.8s8-1.2 12.4 1c24.8 14.3 38.5 39.3 41.1 75v128.4h56.7c-6.5 26.1-19.8 45.2-39.8 57.4H338.4c-.4 15.6-6.3 29.1-17.6 40.4-7.8 14.3-11.6 38-11.4 71.1.2 33 4.5 70 12.7 110.8s14.3 64.9 18.3 72c3.9 7.2 5.9 12.7 5.9 16.6 0 3.9-.7 10.9-2 20.9H234.7c-2.6-10-3.9-16.8-3.9-20.5 0-3.7 2.1-9.2 6.2-16.6 4.1-7.4 10.2-31.5 18.3-72.4 8-40.9 12-77.8 11.7-110.8-.2-33-4-56.7-11.4-71.1-10.4-10.9-16.1-24.6-17-41.1H41.7C18.3 250.3 4.3 231.6 0 206h57.4V77.5C61.7 52.8 50 29.7 22.2 8.4c1.7-3.5 4.5-6 8.1-7.5s7.9-1.2 12.7 1c24.8 14.8 38.2 40 40.4 75.6V206h82.8V77.5c4.3-24.8-7.4-47.8-35.2-69.1 1.7-3.5 4.5-6 8.1-7.5 3.7-1.5 7.9-1.2 12.7 1 24.8 14.8 38.2 40 40.4 75.6V206H275V77.5c4.3-24.8-7.4-48-35.2-69.8 1.7-3 4.5-5.3 8.1-6.8 3.7-1.5 7.9-1.2 12.7 1 24.8 14.3 38.3 39.3 40.4 75v128.4h83V77.5c4.3-24.8-7.4-48-35.2-69.8 1.7-3 4.5-5.3 8.1-6.8 3.7-1.5 7.9-1.2 12.7 1 24.8 14.3 38.2 39.3 40.4 75v128.4h82.9z"/></svg>