<svg xmlns="http://www.w3.org/2000/svg" viewBox="-10 0 1179 1151"><path d="M401 1151q9-35 20.5-62t23.5-53q24-50 46-112t22-144q0-30-1-67t-3-72q-2-35-4-58H129q-44 0-75-20.5T6.5 510Q-10 478-10 442h160V152q0-18-4.5-38T125 77.5Q109 61 75 56V8q6-2 17-5t21-3q54 0 79.5 41T218 144v298h129V152q0-18-4.5-38t-20-36.5Q307 61 272 56V8q6-2 16.5-5T310 0q54 0 79.5 41T415 144v298h130V152q0-18-4.5-38T520 77.5Q504 61 469 56V8q6-2 17-5t21-3q55 0 80 41t25 103v298h130V152q0-18-4.5-38T717 77.5Q701 61 667 56V8q5-2 16.5-5T705 0q54 0 79.5 41T810 144v298h129V152q0-18-4.5-38t-20-36.5Q899 61 864 56V8q6-2 16.5-5T902 0q54 0 79.5 41t25.5 103v298h162q0 36-17 68t-48 52.5q-31 20.5-74 20.5H653q-2 23-4 58t-3 72q-1 37-1 67 0 82 22.5 144t45.5 112q13 26 24 53t20 62zM170 442h28V144q0-52-21-88.5T114 19q-10 0-20 4v17q35 10 51.5 28.5T166 109q4 22 4 43zm197 0h29V144q0-52-21.5-88.5T311 19q-11 0-19 4v17q35 10 51 28.5t20 40.5q4 22 4 43zm197 0h29V144q0-52-21.5-88.5T508 19q-11 0-19 4v17q36 10 51.5 28.5T560 109q4 22 4 43zm197 0h29V144q0-52-21.5-88.5T706 19q-10 0-20 4v17q35 10 51 28.5t20 40.5q4 22 4 43zm198 0h28V144q0-52-21-88.5T903 19q-10 0-20 4v17q36 10 52 28.5t20 40.5q4 22 4 43zM129 564h901q53 0 84-31.5t35-71.5H10q4 40 35 71.5t84 31.5zm297 568h306q-7-21-16.5-43.5T695 1044q-24-52-46.5-114.5T626 780q0-30 1-67t2.5-72q1.5-35 3.5-58H525q2 23 4 58t3 72q1 37 1 67 0 87-22.5 149.5T463 1044q-10 22-20 44.5t-17 43.5z" fill="currentColor"/></svg>