<svg xmlns="http://www.w3.org/2000/svg" viewBox="-10 0 1005 1181"><path d="M438 1181q11-106 18-210t10-195.5q3-91.5 3-158.5v-33l-1-33q-13-4-22-9-7 14-22.5 36T388 620q-27 27-58.5 47T279 695l-21-21q8-19 28-50t47-58q20-20 42-35t35-23q-3-6-6-12.5t-4-13.5q-14 4-41 9t-56 5q-39 0-71-7t-47-12q-20 35-47.5 68t-56 60Q53 632 33 649l-43-38q40-47 76.5-99.5T124 406q26-68 45.5-132.5T224 151q20-33 50.5-53.5t65-30.5Q374 57 405 56l10-56h155l9 56q32 1 66 11t65 30.5q31 20.5 50 53.5 35 58 54.5 122.5T861 406q21 53 57.5 105.5T995 611l-43 38q-21-17-49.5-44t-56-60Q819 512 800 477q-15 5-47 12t-71 7q-29 0-56-5t-41-9q-2 7-4.5 13.5T574 508q13 8 35 22.5t42 35.5q28 27 48 58t28 50l-22 21q-19-8-50-28t-58-47q-21-20-36.5-42T538 542q-11 6-22 9-1 14-1 33v33q0 67 3 158.5T528 971q7 104 18 210zm514-557l14-16q-35-43-69-94t-55-101q-24-61-43-126.5T744 161q-19-31-49.5-50t-65-27.5Q595 75 563 75l-9-56h-52v76l30 31q63 2 113 23t80 84q23 49 41.5 109.5T810 453q17 33 43 66.5t53 61q27 27.5 46 43.5zm-919 0q19-16 46-43.5t53.5-61Q159 486 175 453q25-50 43.5-110.5T259 233q30-63 80-84t113-23l31-31V19h-53l-8 56q-32 0-66.5 8.5t-65 27.5Q260 130 241 161q-36 60-55.5 125.5T142 413q-21 50-54.5 101T18 608zm408-245q6-5 13-8t14-5q-3-13-8.5-41t-5.5-60q0-38 7.5-74.5T477 135h30q8 19 16 55.5t8 74.5q0 31-5.5 59t-9.5 42q15 5 28 13 7-13 22-36t38-45q26-26 53-44t42-25q-26-48-70.5-64.5T526 146l-34-34-34 34q-58 2-102 18.5T285 229q15 7 42 24.5t54 44.5q21 22 36.5 45t23.5 36zm47-16h9q3-11 8.5-39t5.5-59q0-29-6-60.5T494 155h-3q-4 11-11 40.5t-7 69.5q0 31 5.5 59t9.5 39zm77 35q10-6 33.5-21.5T644 339q28-27 45.5-56t19.5-33l-1-3q-11 5-37 21t-54 44q-21 21-36.5 44.5T559 391zm-146 0l6-7q-5-11-20.5-34T367 312q-28-28-54-44t-37-21l-1 3q3 5 20.5 33.5T340 339q22 22 45.5 37t33.5 22zm-19 36q1-6 3.5-11t4.5-10q-11-7-35-22t-47-38q-21-21-36-42.5T266 273q-17 39-30 79t-30 80q18-4 43.5-8.5T303 419q28 0 55 5.5t42 9.5zm184 0q14-4 41-9.5t57-5.5q28 0 53 4.5t43 8.5q-16-40-29.5-80T719 273q-10 16-25 37.5T658 353q-22 22-46 37.5T576 414l4.5 9 3.5 11zm-92 100q31 0 53.5-22t22.5-53q0-31-22.5-53.5T492 383q-31 0-53 22.5T417 459q0 31 22 53t53 22zm-189-57q28 0 54-5t40-9v-11q-13-3-39-8t-55-5q-38 0-66 6t-41 10l-2 4q0 1-.5 1h-.5q5 2 38.5 9.5T303 477zm378 0q38 0 71-7.5t39-9.5v-1l-2-4q-13-4-41.5-10t-66.5-6q-28 0-54 5t-40 8v11q14 4 39.5 9t54.5 5zm20 195l2-2q-5-10-21.5-36T637 579q-20-19-41-34t-33-22q-6 6-9 8 7 12 22 33.5t34 41.5q21 21 48 39t43 27zm-418 0q17-9 43.5-27t47.5-39q19-20 34-41t22-34q-2-1-4.5-3t-3.5-4q-12 7-33.5 21.5T347 579q-28 29-44.5 55T281 670zm177 489h65q-10-101-16.5-201T499 771.5q-3-88.5-3-154.5v-63h-8q1 14 1 32v31q0 66-3 154.5T476.5 960q-6.5 100-16.5 201z" fill="currentColor"/></svg>