<svg xmlns="http://www.w3.org/2000/svg" viewBox="0 0 395.8 594.5"><path d="M198.5 594.5c6.6-.4 13-4.4 19.2-11.9.9-17.2-1.1-40.8-6-70.8V348.5c0-36.2 1.8-64.8 5.3-86 1.3-6.6 23.6 7.5 66.8 42.3 11 4.4 14.3 1.1 9.9-9.9-35.3-43.6-52-66-50.3-67.1 1.8-1.1 28.7-4.7 80.7-10.9 10.6-4.8 10.6-9.5 0-13.9l-77.4-7.9c-3.1-3.5 12.6-26.9 47-70.1 4.4-11 1.1-14.3-9.9-9.9-43.2 35.3-66.6 51.1-70.1 47.6l-7.9-78c-4.4-11-9.3-11-14.5 0l-7.3 78c-3.5 3.5-27.1-12.3-70.8-47.6-10.6-4.4-13.9-1.1-9.9 9.9 34.8 43.2 50.5 66.6 47 70.1L73.6 203c-11 4.4-11 9 0 13.9 52 6.2 78.9 9.8 80.7 10.9 1.8 1.1-15 23.5-50.3 67.1-4.4 11-1.1 14.3 9.9 9.9 43.2-34.8 65.3-48.9 66.1-42.3 4 21.2 6 49.8 6 86v163.3c-4.8 30-6.8 53.6-6 70.8 6.2 7.5 12.4 11.5 18.5 11.9zm.7-354.4c-8.4 0-15.7-2.8-21.8-8.3-6.2-5.5-9.5-12.7-9.9-21.5.4-9.7 3.7-17.1 9.9-22.2 6.2-5.1 13.2-7.6 21.2-7.6 8.4 0 15.7 2.5 21.8 7.6 6.2 5.1 9.5 12.5 9.9 22.2-.4 8.8-3.7 16-9.9 21.5s-13.3 8.3-21.2 8.3zm-1.3-197.8c24.2 18.1 51.8 33.8 82.7 47.3 30.9 13.4 49.7 42.4 56.5 87 6.8 44.5 24.1 87.1 51.9 127.6 6.6-4.4 8.4-11.7 5.3-21.8-8.4-16.8-16.4-45.2-24.1-85.3-7.7-40.1-14.2-67-19.5-80.7-11.9-27.3-27.6-44.4-47-51.3-19.4-6.8-45-19.7-76.7-38.7V0h-58.2v27.1c-31.7 19-57.3 31.7-76.7 38.4-19.4 6.6-34.8 23.6-46.3 50.9-5.7 14.1-12.5 41.1-20.2 81-7.7 39.9-15.8 68.5-24.1 85.6-3.1 10.1-1.3 17.2 5.3 21.2 27.8-40.6 45.1-83 51.9-127.3 6.8-44.3 25.7-73.2 56.5-86.6 30.9-13.5 58.4-29.5 82.7-48z"/></svg>