<svg xmlns="http://www.w3.org/2000/svg" viewBox="0 0 234.7 594.5"><path d="M117.6 594.5c5.4 0 10.4-3.1 14.9-9.3.8-14.5-.6-34.2-4.3-59V392c0-30.2 1.4-54 4.3-71.4.8-5.4 3.9-5.9 9.3-1.6 5.4 4.3 12.8 10.9 22.4 19.6 7 6.6 13.9 12.2 20.5 16.8 8.3 3.3 10.8.6 7.5-8.1-4.6-6.6-9.9-13.7-16.2-21.1-7.9-10.4-14.1-18.4-18.6-24.2-4.6-5.8-6.1-9.1-4.7-9.9 1.4-.8 5-1.8 10.6-2.8 5.6-1 14.6-2.2 27-3.4 9.5-.4 18.2-1.4 26.1-3.1 8.3-3.7 8.3-7.5 0-11.2-7.9-1.7-16.4-2.7-25.5-3.1-12.8-1.2-24.6-2.5-35.4-3.7-2.5-2.9-1.7-7.1 2.5-12.7 4.1-5.6 10.1-13.6 18-23.9 6.6-7.5 12-14.5 16.2-21.1 3.7-9.1 1.2-11.8-7.5-8.1-6.2 4.6-12.8 9.9-19.9 16.2-9.9 8.7-17.6 15.4-23 20.2-5.4 4.8-9.3 5.7-11.8 2.8-1.2-11.6-2.5-24-3.7-37.3-.4-10.4-1.2-19.5-2.5-27.3-2.1-4.1-4.1-6.2-6.2-6.2-1.7 0-3.5 2.1-5.6 6.2-1.2 7.9-2.1 17-2.5 27.3-1.2 13.3-2.3 25.7-3.1 37.3-2.9 2.9-7 2-12.4-2.8s-13-11.5-23-20.2c-7-6.2-13.7-11.6-19.9-16.2-8.3-3.7-11-1-8.1 8.1 4.6 6.6 10.1 13.7 16.8 21.1 7.9 10.4 13.9 18.3 18 23.9 4.1 5.6 5 9.8 2.5 12.7-10.8 1.2-22.6 2.5-35.4 3.7-9.1.4-17.6 1.4-25.5 3.1-8.3 3.7-8.3 7.5 0 11.2 7.9 1.7 16.6 2.7 26.1 3.1 12.4 1.2 21.4 2.4 27 3.4 5.6 1 9 2 10.3 2.8 1.2.8-.3 4.1-4.7 9.9-4.3 5.8-10.7 13.9-18.9 24.2-6.2 7.5-11.4 14.5-15.5 21.1-3.3 8.7-.8 11.4 7.5 8.1 6.6-4.6 13.5-10.1 20.5-16.8 9.9-8.7 17.5-15.2 22.7-19.6 5.2-4.3 8.2-3.8 9 1.6 2.9 17.4 4.6 41.2 5 71.4v134.2c-4.1 24.8-6 44.5-5.6 59 4.8 6.2 9.8 9.3 14.8 9.3zm.6-292.6c-6.6 0-12.4-2.3-17.4-6.8-5-4.6-7.5-10.6-7.5-18 0-7.9 2.5-13.9 7.5-18s10.6-6.2 16.8-6.2c6.6 0 12.3 2.1 17.1 6.2 4.8 4.1 7.4 10.1 7.8 18-.4 7.5-3 13.5-7.8 18s-10.3 6.8-16.5 6.8zm108.1-90.7c-16.6-12.4-31.2-26.5-43.8-42.2-12.6-15.7-34.5-23.6-65.5-23.6-30.6 0-52.3 8-64.9 23.9-12.6 15.9-27.2 29.9-43.8 41.9-6.2 4.1-8.9 2.9-8.1-3.7 2.1-14.1 10.1-27.3 24.2-39.8 14.1-12.4 27.3-23 39.8-31.7l3.1-53.4c.4-29 4.1-52 11.2-69C80.9 4.6 85.9 0 93.3 0h46.6c7.9 0 13.3 4.6 16.2 13.7 7 17 10.8 40 11.2 69l3.1 53.4c9.9 8.7 22.6 19.3 37.9 31.7 15.3 12.4 24 25.5 26.1 39.1 1.2 7-1.5 8.5-8.1 4.3zM141.8 14.9c-7-4.6-12.8-3.1-17.4 4.3V108c6.2 7.9 12.8 10.8 19.9 8.7 5.4-13.3 8.1-27.5 8.1-42.9 0-21.4-3.6-41.1-10.6-58.9zm-31.7 93.2V19.3c-4.6-7.5-10.4-8.9-17.4-4.3-7 17.8-10.6 37.5-10.6 59 0 15.3 2.1 28.6 6.2 39.8 6.7 4.4 13.9 2.6 21.8-5.7z"/></svg>