<svg xmlns="http://www.w3.org/2000/svg" viewBox="-10 0 541 1189"><path d="M4 454l-14-14q26-28 67.5-58t91.5-50q-8-28-14-69.5t-6-83.5q0-81 19-130t59-49q20 0 33 16.5T260 61q7-28 21-44.5T314 0q40 0 58.5 49T391 179q0 42-6 83.5T372 332q50 20 91 50t68 58l-15 14q-26-28-65.5-57T362 348.5Q313 329 260 329t-102 19.5Q109 368 70 397T4 454zm163-129q22-7 45.5-11t47.5-4q25 0 48 4t46 11q7-27 12.5-66t5.5-80q0-73-14-116.5T314 19q-22 0-32.5 36T270 141h-19q-2-50-12-86t-32-36q-30 0-44 43.5T149 179q0 41 5.5 80t12.5 66zm45 864q14-139 20.5-262.5T240 681q-4-1-7-2l-6-2q-6 11-17 27t-28 33q-19 19-43.5 35T98 795l-22-23q7-16 23-40t35-44q16-16 31.5-27t26.5-17q-1-4-2.5-7t-2.5-8q-13 4-31.5 7t-40.5 3q-28 1-56-5.5T14 621v-31q17-6 45-12t56-7q22 0 41 3.5t31 7.5l2-6 2-5q-10-6-26-16.5T133 527q-20-19-35.5-43.5T75 443q4-6 11-11.5T97 421q16 7 41 23t44 35q16 16 26.5 31.5T225 537q8-5 15-6-4-10-8.5-31.5T227 449q0-28 6.5-56t12.5-44h31q6 16 12 44t6 56q0 29-4.5 50t-8.5 32q9 1 15 6 6-11 17-26.5t27-31.5q20-19 44-35t40-23q5 5 11.5 10.5T447 443q-7 16-22.5 40.5T389 527q-16 17-32 27.5T331 571q2 2 3 5l2 6q12-4 30.5-7.5T408 571q28 1 56 7t44 12v31q-16 6-44 12.5t-56 5.5q-23 0-41.5-3t-30.5-7q-1 5-3 8t-3 7q11 6 27 17t32 27q20 20 35 44t23 40l-23 23q-16-7-40.5-23T340 737q-17-17-27.5-33T295 677q-2 1-5.5 2t-6.5 2q2 122 7.5 245.5T310 1189zm47-661h4q2-6 7.5-27t5.5-52q0-19-4.5-42.5T263 368h-4q-4 11-8 33t-4 48q0 30 5 51t7 28zm-57 27l3-3 4-4q-5-10-15-25t-26-31q-19-18-37.5-30.5T102 444l-3 3q8 13 21 33t27 33q16 16 31 26.5t24 15.5zm118 0q10-5 24.5-15t31.5-27q13-13 27-33t21-33l-3-3q-10 5-28.5 17.5T355 492q-16 16-26.5 31T313 548l4 4zm-59 110q25 0 42-17.5t17-41.5q0-24-17-41t-42-17q-24 0-41 17t-17 41q0 24 17 41.5t41 17.5zm-146-45q22 0 40-3t28-7v-10q-10-3-28-6t-41-3q-26 0-47.5 4.5T34 603v4q14 5 37.5 9t43.5 4zm293 0q19 0 42.5-4t38.5-9v-4q-11-3-33-7.5t-48-4.5q-23 0-41 3t-28 6v10q11 4 28.5 7t40.5 3zm12 151l3-3q-5-10-17-28.5T376 702q-17-16-32.5-26.5T318 660l-6 6q5 9 15.5 24.5T355 722q14 14 33 28t32 21zm-318 0q13-7 33-21t33-28q17-16 27.5-31.5T211 666l-7-6q-10 5-25 15.5T147 702q-19 19-30.5 37.5T99 768zm132 398h55q-13-129-18.5-247.5T263 684h-4q-2 119-7 237.5T234 1169z" fill="currentColor"/></svg>