<svg xmlns="http://www.w3.org/2000/svg" viewBox="-10 0 1297 278"><path d="M519 278L93 233q-57-6-80-33t-23-61q0-34 23-61t80-33L519 0q8 19 20 38t26 33q14-15 32.5-24t40.5-9q22 0 41 9t33 24q13-14 25-33t20-38l426 45q57 6 80.5 33t23.5 61q0 34-23.5 61t-80.5 33l-426 45q-8-19-20-38t-25-33q-14 15-33 24t-41 9q-22 0-40.5-9T565 207q-14 14-26 33t-20 38zm-12-21q8-16 20.5-34.5T552 191q-14-23-14-52t14-52q-12-13-24.5-31T507 21L95 65q-47 5-66.5 27T9 139q0 25 20 47.5T95 213zm262 0l412-44q46-4 66-26.5t20-47.5q0-25-19-47t-67-27L769 21q-8 17-20.5 35T724 87q7 11 11 24.5t4 27.5q0 14-4 27.5T724 191q12 13 24.5 31.5T769 257zm-131-37q34 0 57.5-23.5T719 139q0-34-23.5-57.5T638 58q-34 0-57.5 23.5T557 139q0 34 23.5 57.5T638 220z" fill="currentColor"/></svg>