<svg xmlns="http://www.w3.org/2000/svg" viewBox="0 0 587 104.4"><path d="M347.2 0c-6.2 0-5.8 8.9 1 25.8 7.1 17 7.1 33.4 0 50.6-6.8 17.2-7.2 25.8-1 25.8 6.4 0 14.4-1.5 24.8-4.1 10.6-2.6 31-3.1 61-3.1 133.1-4.2 154-18 154-43.3 0-26-20.6-40.3-154-43.4-30 0-50.4-1.5-61-4.1C361.7 1.5 353.6 0 347.2 0zM239.8 1c-6.4 0-14.4 1.5-24.8 4.1-10.6 2.6-31 4.1-61 4.1C20.6 12.4 0 26.7 0 52.7c0 25.4 20.9 39.1 154 43.4 30 0 50.4 1.5 61 4.1 10.4 2.6 18.4 4.1 24.8 4.1 6.2 0 5.8-8.6-1-25.8-7.1-17.2-7.1-34.7 0-51.7 6.8-16.9 7.1-25.8 1-25.8zm54.7 2.1c-31.1 1.3-48.2 17.3-50.6 48.6 1.3 31.3 17.9 47.7 49.6 48.6 30.9-1.3 48-17.7 50.6-48.6-1.3-31.8-17.8-47.7-49.6-48.6zm0 18.6c19.2.4 29.1 10.8 30 30-1.3 18.7-11.8 28.5-31 28.9-19.2-.4-29.1-10.2-30-28.9 1.4-19.2 11.9-29.6 31-30zm78.6 4.1c39.9 0 81.2 1.3 124 3.1 43 1.8 64.1 9.3 64.1 22.7 0 13-21.1 20.8-64.1 22.7-42.8 2-84.1 3.1-124 3.1 6.8-16.9 6.8-34.6 0-51.6zm-159.2 2.1c-6.8 17-6.8 33.7 0 50.6-39.9 0-81.2-1.1-124-3.1-43-2-64.1-9.7-64.1-22.7 0-13.4 21.1-21 64.1-22.7 42.8-1.8 84.1-2.1 124-2.1z"/></svg>