<svg xmlns="http://www.w3.org/2000/svg" viewBox="0 0 17 16.6"><path d="M16 8.7h-5.4v7.8H10v-3.7L7.1 8.7H5.2l-.6 1.2H2.5l-.7-1.2h-.6V8c0-1 .5-1.5 1.5-1.6.9.2 1.4.7 1.5 1.6H16v.7zm-6 0H7.9l2.1 3v-3zM3.5 8c0-.5-.3-.9-.8-.9-.6.1-.9.4-.9.9h1.7zm1.1.7H2.5l.3.6h1.5l.3-.6zM8.5.7c.3 0 .5.2.5.5 0 .4-.3.5-.5.5-.3 0-.5-.4-.4-.6 0-.3.2-.4.4-.4zM5.1.6c.8 0 1.4.1 1.4.2v.6c0 .3-.9.4-1.9.4-1.6 0-3.5-.2-3.5-.6 0-.3 2.4-.6 4-.6zm6.8 0c1.6 0 4 .3 4 .6 0 .4-1.9.6-3.4.6-1.1 0-1.9-.1-1.9-.4V.8c0-.1.5-.2 1.3-.2zM8.6.1c-.1 0-.1 0 0 0-.9 0-1.1.7-1.1 1.1 0 .7.7 1.1 1 1.1.8 0 1.1-.6 1.1-1 0-.5-.2-1.2-1-1.2zM6 0C2.8 0 1.6.1.2.8c-.3.2-.3.7.2.9.8.5 1.5.7 4 .7h2.7c.5 0 .4-.1.3-.5C7.1 1.7 7 1 7.2.7 7.4.3 7.1.2 7 0H6zm5 0h-1c-.1.2-.4.3-.2.7.2.3.1 1-.1 1.1-.1.5-.1.5.3.5h2.7c2.4 0 3.1-.2 3.9-.7.5-.3.5-.8.1-.9C15.4.1 14.2 0 11 0z"/></svg>