<svg xmlns="http://www.w3.org/2000/svg" viewBox="0 0 530 142.9"><path d="M204.2 69.7c0-10-4.2-16.6-12.6-19.8-7.6 3.2-11.6 9.8-12 19.8.4 9.6 4.4 16.2 12 19.8 8.4-3.7 12.6-10.3 12.6-19.8zm-49.7 22.7V46.3c-63.9 2.8-104.6 7.8-122.2 15-7.2 5.6-7.2 10.6 0 15 17.6 7.9 58.3 13.3 122.2 16.1zm221 0c63.9-2.8 104.6-8.2 122.2-16.2 7.2-4.4 7.2-9.4 0-15-17.6-7.2-58.3-12.2-122.2-15v46.2zm-49.7-22.7c0 9.6 4.2 16.2 12.6 19.8 7.6-3.6 11.6-10.2 12-19.8-.4-10-4.4-16.6-12-19.8-8.4 3.2-12.6 9.8-12.6 19.8zm-60.5 39.5c14.8 0 26.4-4 34.7-12 8.4-8 12.6-17.4 12.6-28.1 0-10.4-4.2-19.7-12.6-27.8-8.4-8.2-20-12.3-34.7-12.3-15.2 0-26.9 4.1-35.3 12.3-8.4 8.2-12.6 17.5-12.6 27.8 0 10.8 4.2 20.2 12.6 28.1 8.3 8 20.1 12 35.3 12zm0 19.2c-15.2-.4-26-2.4-32.3-6-3.2 0-6.4.4-9.6 1.2l-6 17.4c-3.6 4.4-7.2 1.6-10.8-8.4-1.2-5.6-2.7-11.5-4.5-17.7-1.8-6.2-5.3-9.9-10.5-11.1-4.8 2-8.2 7.8-10.2 17.4-2 7.2-6.4 11-13.2 11.4-9.2-15.6-38-24.7-86.5-27.2C33.2 102.7 6 90.8 0 69.7 6 47.3 33.2 35 81.7 32.8c48.5-2.2 77.4-10.9 86.5-26.1 6.8 0 11.2 3.6 13.2 10.8 2 8.8 5.4 14 10.2 15.6 5.2 0 8.7-3 10.5-9 1.8-6 3.3-12 4.5-18 3.6-6.8 7.2-8 10.8-3.6l6 12.6c3.2.8 6.4 1.2 9.6 1.2 6.4-3.6 17.2-5.8 32.3-6.6 14.8.8 25.4 3 31.7 6.6 3.2 0 6.4-.4 9.6-1.2l6-12.6c3.6-4.4 7.2-3.2 10.8 3.6 1.2 6 2.7 12 4.5 18 1.8 6 5.3 9 10.5 9 4.8-1.6 8.2-6.8 10.2-15.6 2-7.2 6.4-10.8 13.2-10.8 9.2 15.2 38 23.9 86.5 26.1S524 47.3 530 69.7c-6 21.2-33.2 33-81.7 35.6s-77.4 11.7-86.5 27.2c-6.8-.4-11-4.2-12.6-11.4-2.4-9.6-6-15.4-10.8-17.4-5.2 1.2-8.7 4.9-10.5 11.1-1.8 6.2-3.3 12.1-4.5 17.7-3.6 10-7.2 12.8-10.8 8.4l-6-17.4c-3.2-.8-6.4-1.2-9.6-1.2-6.3 3.7-16.9 5.7-31.7 6.1z"/></svg>