<svg xmlns="http://www.w3.org/2000/svg" viewBox="-10 0 1319 291"><path d="M512 291v-85h-47v58l-351-44q-27-3-56-10T9.5 188Q-10 173-10 145t19.5-43Q29 87 58 80t56-10l351-44v59h47V0h19v74q18-30 49-48.5T649 7q38 0 69.5 18.5T768 74V0h19v85h47V26l351 44q27 3 55.5 10t48.5 22q20 15 20 43t-20 43q-20 15-48.5 22t-55.5 10l-351 44v-58h-47v85h-19v-75q-18 30-49.5 48.5T649 283q-38 0-69-18.5T531 216v75zm137-28q33 0 60-16t43-42.5q16-26.5 16-59.5 0-34-16.5-60.5t-43.5-42Q681 27 649 27t-58.5 15.5q-26.5 15.5-43 42T531 145q0 33 16 59.5t43 42.5q27 16 59 16zm-204-22V49L116 90q-23 3-48 8t-42 16Q9 125 9 145t17 31q17 11 42 16t49 8zm409 0l328-41q23-3 48.5-8t42.5-16q17-11 17-31t-17-31q-17-11-42.5-16t-48.5-8L854 49zm-389-55h47v-82h-47zm322 0h47v-82h-47z" fill="currentColor"/></svg>