<svg xmlns="http://www.w3.org/2000/svg" viewBox="0 0 595.3 464.4"><path d="M569.8 262.9c0-15.4-46.3-23-138.8-23V286c92.5 0 138.8-7.7 138.8-23.1zm-161.3 0c0-15.4-4.6-23-13.8-23-9 0-19-1-30.1-3.1V289c10.2-2.5 20.1-3.6 29.5-3.4 9.6.3 14.4-7.3 14.4-22.7zm-62.6 0c0-10.4-4.2-19.9-12.6-28.3-8.6-8.2-20.4-12.3-35.3-12.3-15.4 0-27.2 4.1-35.6 12.3-8.6 8.4-12.9 17.8-12.9 28.3 0 10.4 4.3 19.9 12.9 28.3 8.4 8.2 20.3 12.3 35.6 12.3 14.9 0 26.7-4.1 35.3-12.3 8.4-8.4 12.6-17.8 12.6-28.3zm-115.2-26.1c-10.2 2.5-20 3.6-29.2 3.4-9.2-.2-14 7.4-14.4 22.7 0 15.4 4.6 23 13.8 23 9.2 0 19.1 1 29.8 3.1v-52.2zm-66.4 3.1c-92.1 0-138.2 7.5-138.2 22.4v.6-.6c0 15.8 46.1 23.7 138.2 23.7v-46.1zM418 42.7c12.3-1.2 19.7-5.1 22.1-11.7 2.7-6.3 0-11.4-8-15.1-12.9-5.3-22.6-.1-29.2 15.7l-49.1 117.9c13.3-6.1 27.2-7.4 41.8-3.7L418 42.7zM199 145.9c14.5-3.7 28.3-2.5 41.2 3.7l-48.5-118c-6.3-15.8-16.1-21-29.2-15.7-8.4 3.7-11.3 8.7-8.6 15.1 2.7 6.6 10.2 10.4 22.7 11.7L199 145.9zM346.5 215c4.5-14.1 10.3-21.2 17.5-21.2 7 9.2 12.2 16.1 15.7 20.6s13.1 8.6 28.9 12.3c3.9-19.9 11.2-30 21.8-30.4 5.5 20.3 34.4 30.4 86.6 30.4 52.2 0 78.3 12.1 78.3 36.2 0 24.4-26.1 36.6-78.3 36.6-52.2 0-81.1 10-86.6 30.1-10.6-.4-17.9-10.4-21.8-30.1-15.8 3.9-25.4 8-28.9 12.3-3.5 4.3-8.7 11.1-15.7 20.3-7.2 0-13-7.1-17.5-21.2-3.3-2-8.8-.6-16.6 4.3-8 4.9-18.6 7.4-31.9 7.4-13.7 0-24.6-2.5-32.6-7.4-7.8-4.9-13.1-6.3-16-4.3-4.9 14.1-10.8 21.2-17.5 21.2-7.4-9.2-12.7-16-16-20.3-3.1-4.3-12.7-8.4-28.9-12.3-4.1 19.7-11.5 29.7-22.1 30.1-5.5-20.1-34.4-30.1-86.6-30.1-52.2 0-78.3-12.2-78.3-36.6 0-24.2 26.1-36.2 78.3-36.2 52.2 0 81.1-10.1 86.6-30.4 10.6.4 18 10.5 22.1 30.4 16.2-3.7 25.8-7.8 28.9-12.3 3.3-4.5 8.6-11.4 16-20.6 6.8 0 12.6 7.1 17.5 21.2 2.9 2 7 1.2 12.3-2.5-10.6-26.2-20.2-42.3-28.6-48.2-8.6-5.9-23.8-5.6-45.5.9L166.2 53.5c-11.7-1.4-19.6-7.1-23.7-16.9-5.9-14.9-.8-25.9 15.4-32.9C167.5-.2 176.2-1 184 1.2c7.6 2 14.4 10 20.6 24l74 180.6c12.5-4.3 25.2-4.5 38.1-.6l73.4-180c5.7-13.9 12.6-21.9 20.6-24 7.8-2.3 16.4-1.4 25.8 2.5 16.6 7 21.6 17.9 15.1 32.9-4.1 9.8-11.8 15.5-23 16.9l-21.2 111.8c-22.3-6.6-37.6-6.9-45.8-.9-8.4 5.9-17.6 21.8-27.6 47.6 5 4 9.2 5.1 12.5 3zm-29.8 248.8V311.5l17.2-3.1v156l-17.2-.6zm-117.1-20c20.7-30.7 35.4-55.1 44.2-73.1 9-18 14.9-37.2 17.8-57.4l15.7 7.4c-3.3 17-9.7 35.6-19.4 55.9-9.8 20.1-24.9 45.5-45.2 76.2l-13.1-9z"/></svg>