<svg xmlns="http://www.w3.org/2000/svg" viewBox="0 0 530.2 206.4"><path d="M141.4 60.8c-25.4 5.3-38.1 19.4-38.1 42.4 0 22.9 12.7 36.2 38.1 39.9h246.9c25.8-3.7 38.7-17 38.7-39.9s-12.9-37.1-38.7-42.4H141.4zm7.9 102.6c-38.1 2-60.2-13.9-66.3-47.9-40.1 9-60.2 36.9-60.2 83.5-3.3 4.9-6.8 7.4-10.4 7.4-4.5 0-8.4-4.3-11.7-12.9-2-17.2.3-34.1 7.1-50.7s18.9-29.8 36.5-39.6C26.7 92.9 14.5 79.6 7.8 63.3S-1.3 30.1.7 12.9C4 4.3 7.9 0 12.4 0c3.7 0 7.2 2.5 10.4 7.4C22.8 54 42.9 81.9 83 90.9c6.1-34 28.3-50.8 66.3-50.4h230.9c38.5-.4 60.8 16.4 66.9 50.4 40.1-9 60.2-36.9 60.2-83.5 3.3-4.9 6.8-7.4 10.4-7.4 4.1 0 7.8 4.3 11.1 12.9 2.5 17.2.3 34-6.4 50.4s-19.1 29.7-37.2 39.9c18 9.8 30.4 23 37.2 39.6 6.8 16.6 9.1 33.5 7.1 50.7-3.7 8.6-7.6 12.9-11.7 12.9-3.7 0-7.2-2.5-10.4-7.4 0-46.7-20.1-74.5-60.2-83.5-6.1 34-28.5 50-66.9 47.9h-231z"/></svg>