<svg xmlns="http://www.w3.org/2000/svg" width="18.1" height="8.9"><path d="M12.2 7.2H6Q4 7.2 3.5 5.3q-2 1-2 2.5 0 1-.8 1-.7.1-.7-1 0-2 1.8-3.4Q0 3.2 0 1.1 0 0 .7 0t.7 1q0 1.6 2 2.6.7-2 2.5-2h6.3q1.8 0 2.4 2 2-1 2-2.5 0-1 .7-1.1.8 0 .8 1 0 2.2-1.9 3.4 1.9 1.3 1.9 3.4 0 1.1-.8 1-.7 0-.7-1 0-1.5-2-2.5-.6 1.9-2.4 1.9zm0-4.7H6q-1.7 0-1.7 2 0 1.9 1.7 1.9h6.3q1.6 0 1.6-2 0-1.9-1.6-1.9zM3.4 4.1Q1 3 1 1 1 .5.7.5q-.2 0-.2.6 0 2 2.3 3.3Q.5 5.8.5 7.8q0 .6.2.6.3 0 .3-.6 0-2 2.4-3V4zm11.3.7q2.4 1 2.4 3 0 .6.3.6.2 0 .2-.6 0-2-2.3-3.3Q17.6 3 17.6 1q0-.6-.3-.6-.2 0-.2.6 0 2-2.4 3v.7z"/></svg>