<svg xmlns="http://www.w3.org/2000/svg" viewBox="0 0 14.8 20.3"><path d="M14.8 12.4H9.4v7.8h-.6v-3.7l-2.9-4.2H4l-.6 1.2H1.3l-.6-1.2H0v-.7c0-1 .5-1.5 1.5-1.6.9.1 1.4.6 1.5 1.6h11.9v.8zm-6 0H6.7l2.1 3v-3zm-6.5-.7c0-.5-.3-.9-.8-.9-.5.1-.8.4-.8.9h1.6zm1.1.7H1.3l.3.6h1.5l.3-.6z"/><path d="M8.6 8.4c-.1.5-.4.8-.9.8s-.8-.3-.8-.8V3.1c.1-.5.4-.8.8-.8.5 0 .8.3.9.8v5.3zm-2.2-.2c0 .8.3 1.3 1 1.4-.2.8-.8 1.3-1.8 1.3l-.2.2c0 .1.1.2.3.2l1.1-.1c.4-.1.6-.4.8-.8.2.4.5.6.8.8.3.1.7.2 1.1.1l.3-.2-.2-.2c-1 0-1.6-.4-1.8-1.3C8.7 9.5 9 9 9 8.2V3.3c0-.8-.3-1.3-1-1.4C8.2 1 8.7.6 9.7.6l.2-.2c0-.1-.1-.2-.3-.2-.4-.1-.7 0-1.1.1-.3.1-.6.4-.8.8-.2-.4-.5-.7-.8-.8C6.5.1 6.2.1 5.8.1l-.3.3.2.2c1 0 1.6.4 1.8 1.3-.8.1-1.1.6-1.1 1.4v4.9z"/></svg>