<svg xmlns="http://www.w3.org/2000/svg" viewBox="0 0 15.2 18"><path d="M15 10.1H9.7v7.8H9v-3.7L6.1 10H4.2l-.6 1.2H1.5L.9 10H.2v-.6c0-1 .5-1.5 1.5-1.6.9.1 1.4.6 1.5 1.6H15v.7zm-6 0H6.9l2.1 3v-3zm-6.5-.7c0-.5-.3-.9-.8-.9-.6.1-.9.4-.9.9h1.7zm1.1.7H1.5l.3.6h1.5l.3-.6zM4.1 1.7c-.8.1-1.1.5-1.1 1.2s.4 1 1.1 1.1h7.1c.7-.1 1.1-.5 1.1-1.1 0-.7-.4-1.1-1.1-1.2H4.1zm.2 2.9c-1.1.1-1.7-.4-1.9-1.4C1.2 3.5.7 4.3.7 5.6c-.1.2-.2.2-.3.2-.2 0-.3-.1-.4-.3C0 5 0 4.5.2 4s.5-.9 1-1.1c-.5-.3-.9-.7-1-1.1L0 .3c.1-.3.2-.4.4-.4l.3.2c0 1.3.6 2.1 1.7 2.4.2-1 .8-1.5 1.9-1.4h6.6c1.1 0 1.7.5 1.9 1.4 1.2-.3 1.7-1.1 1.7-2.4l.3-.2c.1 0 .2.1.3.4.1.5 0 1-.2 1.4-.2.5-.5.9-1.1 1.1.7.4 1 .7 1.2 1.2.2.5.3 1 .2 1.5l-.3.4-.3-.2c0-1.3-.6-2.1-1.7-2.4-.2 1-.8 1.4-1.9 1.4H4.3z"/></svg>