<svg xmlns="http://www.w3.org/2000/svg" viewBox="0 0 412.9 594.6"><path d="M311.4 118.6C308 59.8 321.5 30.7 352 31.4c30.4.6 45.9-2 46.3-7.9-1.3-6.8-18.9-9.3-53-7.6-34 1.7-49.8 35.9-47.2 102.7h13.3zm19 112.9V151L81.8 232.1l248.6-.6zm0-96.4h-248v80.5l248-80.5zM86.3 118.6c6.7-52-6-76.6-38.1-73.6S0 40.8 0 23.4 22.2-1.6 66.6.3s65.1 41.3 62.2 118.3H86.3zm27.9 0c3-66.8-12.7-101-46.9-102.7-34.2-1.7-51.8.8-52.6 7.6.4 5.9 15.9 8.6 46.3 7.9 30.4-.6 43.8 28.4 40 87.2h13.2zm216.2 227.6v-81.8l-248 81.8h248zm0-97.6h-248v80.5l248-80.5zM100.8 476.3c3.8 58.8-9.5 87.8-40 87.2-30.4-.6-45.9 2-46.3 7.9 1.3 6.8 18.9 9.3 53 7.6 34-1.7 49.6-35.9 46.6-102.7h-13.3zM82.4 362.7v80.5L331 362.7H82.4zm.7 97.1h247.3v-81.2L83.1 459.8zm264.4 16.5H129.4c3 76.5-17.8 115.8-62.2 118C22.8 596.4.6 588.8.6 571.5s16-24.5 47.9-21.6 44.5-21.6 37.7-73.6H65.3V118.6h218.2c-3-77 17.8-116.4 62.2-118.3s66.6 5.8 66.6 23.1-16 24.6-47.9 21.6-44.5 21.6-37.7 73.6h20.9v357.7zm-20.9 0c-6.8 52 5.9 76.5 38.1 73.6 32.1-3 48.2 4.2 48.2 21.6 0 17.3-22.2 24.9-66.6 22.8-44.4-2.1-65.1-41.4-62.2-118h42.5zm-27.9 0c-3 66.8 12.7 101 46.9 102.7 34.2 1.7 51.8-.8 52.6-7.6-.4-5.9-15.9-8.6-46.3-7.9-30.4.6-43.8-28.4-40-87.2h-13.2z"/></svg>