<svg xmlns="http://www.w3.org/2000/svg" viewBox="-10 0 929 1145"><path d="M39 1145H27l-13-1q-24-3-24-26 0-13 9.5-20t16.5-7q86 0 135.5-33T215 947h-2q-53 0-71-22.5T124 852V292q0-50 18-72.5t71-22.5h2q-14-78-63.5-111T16 53Q9 53-.5 46.5T-10 27q0-11 6.5-18T14 1q7-1 13-1h12q66 0 118.5 23t86 67Q277 134 284 197h341q7-63 40-107t85.5-67Q803 0 869 0h13l12 1q11 1 18 8t7 18q0 13-10 19.5T892 53q-86 0-135.5 33T693 197h2q53 0 71 22.5t18 72.5v560q0 50-18 72.5T695 947h-2q14 78 63.5 111t135.5 33q7 0 17 7t10 20q0 23-25 26-6 1-12 1h-13q-66 0-118.5-23t-85.5-67.5Q632 1010 625 947H284q-7 63-40.5 107.5t-86 67.5Q105 1145 39 1145zm198-948h25q-9-61-41.5-100.5t-80-58.5Q93 19 40 19H27l-12 1q-7 2-5 7 0 7 6 7 92 0 149 38.5T237 197zm409 0h25q15-86 72-124.5T892 34q7 0 7-7 0-5-6-7-6-1-12-1h-13q-53 0-100.5 19t-80 58.5Q655 136 646 197zM144 444l599-216q-15-11-48-11H213q-41 0-55 18t-14 57zm46 4h575V292q0-30-9-48zm-46 227l574-207H144zm53 1h568V472zm-46 224l567-204H144v156q0 31 7 48zm62 28h482q42 0 56-18t14-58V700L165 916q15 12 48 12zM40 1125q53 0 100.5-18.5t80-58Q253 1009 262 947h-25q-15 87-72 125.5T16 1111q-6 0-6 7-2 6 5 6 6 1 12 1zm828 0h13l12-1q6 0 6-6 0-7-7-7-92 0-149-38.5T671 947h-25q9 62 41.5 101.5t80 58Q815 1125 868 1125z" fill="currentColor"/></svg>