<svg xmlns="http://www.w3.org/2000/svg" viewBox="-10 0 963 1156"><path d="M71 1156L-1 948l58 41V637q-10-4-17-10.5T31 616q-10-15-18.5-28T-10 565v-22q11-7 35-12t41-5q18 0 42.5 5t34.5 12v22q-16 13-24 25.5T102 616q-2 4-8.5 10.5T76 637v352l31-20 26 19q8-84 33.5-161.5t64.5-141q39-63.5 87-106T418 522q-15-5-35-18t-39-37q-19-24-30-61-8-25-17-55.5T274 292q-14-28-37.5-46.5T176 227q-37 0-58.5 16t-31 40Q77 307 77 330v75q10 4 16.5 11t9.5 10q9 13 16.5 26t24.5 26v21q-11 7-35.5 12.5T67 517q-17 0-41.5-5.5T-10 499v-21q14-11 22.5-24T31 426q3-3 9.5-10T57 405v-75q0-28 11-56.5t37-47.5q26-19 71-19 43 0 70 19.5t42.5 49.5q15.5 30 25 63.5T332 400q11 39 29 60.5t36 32q18 10.5 31 13.5L387 82H180V0h581v82H554l-41 424q12-3 30.5-13.5t36.5-32q18-21.5 29-60.5 9-27 18.5-60.5t25-63.5q15.5-30 42.5-49.5t70-19.5q44 0 70.5 19t37.5 47.5q11 28.5 11 56.5v71q15 8 23 21t12 23q4 11 10.5 24.5T953 499l-27 21q-5-2-14-6.5t-17-9.5q-4 5-9.5 10.5T874 525q-6-5-11.5-10.5T854 504q-9 5-18 9.5t-14 6.5l-27-21q17-16 23.5-29.5T830 445q4-10 11.5-23t22.5-21v-71q0-23-9.5-47t-31-40Q802 227 765 227q-36 0-59.5 18.5T668 292q-14 28-23 58.5T628 406q-12 37-31 61t-39 37q-20 13-34 18 52 15 99.5 57.5t86.5 106q39 63.5 65 141T809 988l26-19 30 20V657h-1v-6q-15-8-22.5-21T830 607q-5-11-11.5-24.5T795 553l27-20q5 2 14 6t18 9q3-5 8.5-10.5T874 527q6 5 11.5 10.5T895 548q8-5 17-9t14-6l27 20q-17 16-23.5 29.5T919 607q-4 10-12 23t-22 21v338l58-41-72 208H728l-72-208 57 40q-2-31-14-70t-31-75q-19-36-42-58-17 4-31 0t-25-8q-11-5-24.5-10t-37.5-5l5-33q5-2 14.5-5.5T547 718q-2-12 0-29 17-2 29 0 3-9 6.5-18.5T588 657l34-5q-1 24 3 38.5t9 24.5q5 10 8 25t-2 31q25 24 45 63t33 80.5q13 41.5 15 74.5l31-20 25 18q-8-83-33.5-159t-64-137q-38.5-61-85-101T509 539l-26 276q10-4 26-9.5t36-5.5q37 0 56 25.5t19 56.5q0 25-12.5 51T583 979q-4 8-8 14.5t-7 11.5q-13 27-22 56t-13 48q-5 20-21 33.5t-41 13.5q-26 0-41.5-13.5T409 1109q-5-18-14-47.5t-22-56.5q-2-5-6-12l-8-14q-13-20-25.5-46T321 882q0-31 19-56.5t57-25.5q19 0 35 5.5t27 9.5l-27-276q-51 11-97.5 51T250 691q-38 61-63.5 137T153 987l24-18 32 20q2-35 16-79t36-83.5q22-39.5 49-62.5-4-11-3.5-20t2.5-13q4-18 8.5-32.5T320 666l17-14q12 4 32 18.5t31 28.5q12 13 23.5 34.5T437 768l-16 14q-20-4-35-1.5t-31 4.5q-4 0-13.5-.5T322 779q-24 20-44.5 57T244 914q-13 41-16 74l58-40-73 208zM200 62h542V20H200zm271 670l64-650H407zm350-230q9-4 25.5-18t27.5-34q11 20 27.5 34t25.5 18l5-4q-17-16-23-26t-8-16q-3-10-8-23.5T874 419q-14 0-18.5 13.5T847 456q-2 6-8 16t-23 26zm-754-5q15 0 31.5-3t24.5-7q-13-10-20-22.5T87 438q-2-2-6.5-8T66 424q-9 0-13 6t-6 8q-12 18-18 28.5T13 485q10 4 25.5 8t28.5 4zm807 9q4-4 6.5-7t4.5-6q-6-5-11-11-5 6-11 11 2 3 4.5 6t6.5 7zM66 619q10 0 14.5-6t6.5-9q8-14 15-26t20-22q-8-4-24-7.5T66 545q-12 0-27.5 4T13 558q10 8 16 18.5T46 604q1 2 5.5 8.5T66 619zm808-49q5-7 11-10-3-6-11-14-8 8-11 14 6 3 11 10zm0 63q14 0 19-13.5t8-23.5q2-6 8-15.5t23-26.5l-5-4q-9 4-25.5 18T874 602q-11-20-27.5-34T821 550l-5 4q17 17 23 26.5t8 15.5q4 10 8.5 23.5T874 633zM621 765q10-10 4-23t-11-23q-2-5-5-16.5t-2-34.5l-6 1q-4 9-6.5 30.5T599 743q-22-8-43.5-6.5T525 742l-1 6q23 1 34.5 4t16.5 6q10 4 23 10.5t23-3.5zm-267 0q17-2 31-5t29 0q-3-8-11-22.5T385 711q-8-9-21-18.5T341 679q0 13-3.5 24t-9.5 32q-1 2-3 9t5 15q6 7 13.5 7t10.5-1zm208-45q3-1 7-1h7v-7l1-7q-7-3-17-2 0 4 .5 8.5t1.5 8.5zm-101 416V839q-7-4-24.5-11.5T397 820q-28 0-42 19t-14 43q0 22 11.5 45.5T376 970l8 14 7 13q12 27 21.5 57.5T427 1104q4 11 12 20t22 12zm20 0q13-3 21-12t12-20q5-19 14.5-49.5T551 997l6.5-13 8.5-14q12-19 23.5-42.5T601 882q0-24-14-43t-42-19q-22 0-39.5 7.5T481 839zm-396 0h115l47-138-29 21-40-26-36 27-35-27-41 26-29-21zm657 0h115l48-138-30 21-40-26-36 27-35-27-40 26-30-21z" fill="currentColor"/></svg>