<svg xmlns="http://www.w3.org/2000/svg" viewBox="-10 0 534 1162"><path d="M262 1162q-13 0-27-7.5t-20-15.5l21-507q-28-7-49-38t-21-82q0-39 5.5-71.5T187 378L76 440q-13 7-28 15t-25 8q-15 0-24-10.5t-9-23.5q0-17 9.5-26T26 387l132-47-106-46q-18-7-29-15.5T12 255q0-10 7.5-16t18.5-6q5 0 15 3.5t14 5.5l150 74h1q-16-24-33-66t-17-94q0-41 10-76.5T209.5 22Q231 0 265 0t55.5 22q21.5 22 31 57.5T361 156q0 27-6.5 55T340 260l102-54q12-6 28.5-14.5T494 183q12 0 19 7t7 15q0 19-18.5 31.5T463 259l-133 72q37 10 80 23.5t81 33.5q14 7 23.5 16t9.5 17q0 10-9 21.5T493 454q-6 0-11.5-3.5T469 442l-12-9-16-10q-22-13-41-19t-38-10q35 35 54 76t26.5 78q7.5 37 7.5 59 0 25-7.5 38T416 658q-17 0-27-12t-10-37q0-4 .5-10.5T381 586q1-7 1.5-15t.5-16q0-21-8.5-43T356 472q1 8 1.5 16.5t.5 16.5q0 52-20 86t-51 41l22 508q-8 8-21.5 15t-25.5 7zm0-20q9 0 16-4.5t11-8.5l-22-514q30-3 51-33t21-77q0-14-1-32.5t-2.5-34Q334 423 334 421l2-2q13 13 28 37.5t26.5 51.5q11.5 27 11.5 47 0 9-.5 17.5T400 588q-1 6-1 11.5v9.5q0 30 17 30 14 0 14-32 0-18-6.5-48.5t-21-66Q388 457 365 423.5T308 366l1-5q35 9 75.5 21t66.5 25q18 10 30 20 10 8 12 8 5 0 8-5t3-9q0-5-15-13.5t-36.5-18Q431 380 411 373q-16-6-44.5-16T289 335l165-93q17-10 31.5-18.5T500 207q0-4-6-4-4 0-15.5 6T448 225l-153 81q8-15 19-41t19.5-56q8.5-30 8.5-53 0-35-8-66.5T309.5 39Q293 20 265 20t-44.5 19Q204 58 196 89.5t-8 66.5q0 53 18.5 94.5T241 315l-24 19-158-74q-4-1-10.5-4T38 253q-6 0-6 3 0 5 7.5 10T60 277l136 65-162 63Q9 415 9 429q0 5 3.5 9.5T23 443q7 0 19-6.5T66 423l153-80q-20 45-27 84t-7 85q0 47 22 74t50 28l-23 515q4 4 11 8.5t17 4.5zm-5-831q-26-29-40.5-69T202 156q0-49 15-85.5T265 34q33 0 47.5 36.5T327 156q0 38-15 82t-40 73zm8-22q20-26 31.5-63t11.5-70q0-41-10.5-71.5T265 54q-23 0-33 30.5T222 156q0 39 11.5 73t31.5 60zm-3 312q-23 0-42.5-20T200 512q0-67 17-115.5t45-73.5q27 25 44.5 73.5T324 512q0 49-19.5 69T262 601zm0-19q16 0 29-15.5t13-54.5q0-57-11.5-99T262 350q-19 21-31 62t-12 100q0 39 13 54.5t30 15.5z" fill="currentColor"/></svg>