<svg xmlns="http://www.w3.org/2000/svg" viewBox="-10 0 448 1152"><path d="M127 1152l22-153H34l110-433q-18-25-27-56.5T105 455q-21-6-38.5-15T49 408q0-16 11.5-23.5t25-10Q99 372 107 372q2-2 8-5l-20-28v-35L11 140q-7-13-14-32.5T-10 68q0-25 15-46.5T47 0q32 0 44.5 17T104 52q0 14-9 27.5T71 93q-21 0-28-14.5T36 56l19-1q1 4 3.5 11T71 73q6 0 10-7t4-14q0-11-8-22T47 19q-17 0-27.5 15.5T9 68q0 17 7 34t13 29l88 171h194l88-171q6-12 13-29t7-34q0-18-10.5-33.5T381 19q-22 0-30 11t-8 22q0 7 4 14t10 7q10 0 12.5-7t3.5-11l19 1q0 8-7 22.5T357 93q-15 0-24-13.5T324 52q0-18 12-35t45-17q27 0 42 21.5T438 68q0 20-7 39.5T417 140l-84 164v35l-21 28q6 3 8 5 9 0 23 2.5t25 10.5q11 8 11 23 0 23-17.5 32T323 455q-4 23-13 54.5T284 566l110 433H278l23 153zm167-794l19-25v-11H115v11q4 6 8.5 12t8.5 12q14-7 34.5-13t47.5-6q24 0 44.5 6.5T294 358zm-80 228q24 0 40-16t26.5-40q10.5-24 16.5-48.5t8-42.5q26-7 40-13.5t14-17.5q0-8-9.5-11.5T329 392q-11-1-15 0-12-11-39-23t-61-12q-35 0-61.5 12T114 392q-4-1-15 0t-21 4.5Q68 400 68 408q0 11 14.5 17.5T123 439q2 18 7.5 42.5t16 48.5q10.5 24 27 40t40.5 16zm-1-70q-6 0-16-2t-17-7.5q-7-5.5-4-18.5 1-7 4-20t8-21q-11-4-26-6.5t-29-1.5q-2-8-2.5-14t-.5-11q5-3 16-7.5t24-4.5q17 0 29.5 9t12.5 22q0 14-4 22t-4 19q0 12 9 12t9-12q0-11-3.5-19t-3.5-22q0-13 12-22t29-9q13 0 24.5 4.5T296 414q0 5-.5 11t-2.5 14q-31-2-54 8 4 8 7 21t5 20q3 19-12.5 23.5T213 516zm-1 41q-20 0-39-8l12-24q14 7 27 7 14 0 30-7l12 24q-21 8-42 8zM59 979h310L269 583q-24 22-55 22-33 0-55-22zm90 154h129l-20-134h-88z" fill="currentColor"/></svg>