<svg xmlns="http://www.w3.org/2000/svg" viewBox="-10 0 584 1139"><path d="M282 1139q-47 0-82-28t-61-74q-26-46-43.5-100.5T67.5 828q-10.5-54-16-98T44 661q-1-13-4.5-46.5t-8-81Q27 486 21 434q-6-53-11.5-106.5t-10-99q-4.5-45.5-7-75T-10 119q0-16 15-36.5t48.5-39Q87 25 143 12.5T282 0q83 0 139 12.5t89.5 31Q544 62 559 82.5t15 36.5q0 5-3 34.5t-7.5 74.5q-4.5 45-10 98.5T543 434q-6 53-10.5 100.5t-8 81.5q-3.5 34-4.5 45-2 25-7.5 69T496 828q-11 54-28.5 108.5t-43 100.5q-25.5 46-60.5 74t-82 28zM99 880h154q-12-23-22.5-54T220 776q0-18 9.5-38t19.5-39q9-17 16.5-33t7.5-28q0-12-6-28.5T253 575q-9-20-16.5-42.5T229 491q0-19 10-38t20-35q8-13 15.5-26t7.5-22q0-10-7-21t-16-23q-11-16-21.5-34T227 255q0-13 11.5-33t22.5-33q-12 1-26 2t-25 1q-26 0-50.5-9T135 143q0-28 28-44.5T243 82q58 0 95.5 24t37.5 59q0 20-14 36.5T334 231q-9 7-15.5 14t-6.5 11q0 4 6.5 15t14.5 23q11 17 22 36.5t11 37.5q0 28-11.5 49.5T331 456q-8 10-13 18.5t-5 15.5q0 13 7 32.5t15 40.5q8 22 15 41.5t7 33.5q0 14-9 34.5T329 714q-9 19-16.5 35.5T305 776q0 14 8 36t28 68h123q18-68 26-130t10-91q1-11 4.5-45t8-81.5Q517 485 523 432q6-54 11.5-107.5t10-98.5q4.5-45 7-74t2.5-33q0-18-25-41t-84.5-40.5Q385 20 282 20T119 37.5Q59 55 34 78T9 119q0 4 3 33t7.5 74q4.5 45 10 98.5T41 432q5 53 10 100.5t8.5 81.5q3.5 34 4.5 45 1 29 9.5 91T99 880zm176 0h45q-9-20-22-49t-13-55q0-13 8-32t19-39q9-19 17-37.5t8-29.5q0-10-6.5-29T316 570q-8-22-15-43.5t-7-36.5q0-11 6.5-22.5T316 444q10-14 20.5-33.5T347 368q0-14-10-31t-21-33q-10-14-17-26t-7-22q0-10 8.5-20t19.5-20q13-11 25-24.5t12-26.5q0-17-17-32t-43-23.5q-26-8.5-54-8.5-34 0-61.5 12.5T154 143q0 16 18.5 22.5T210 172q21 0 54.5-3t58.5-8q-10 9-28 25.5t-33 35Q247 240 247 255q0 16 8.5 30.5T274 314q11 14 19 28t8 28q0 14-7.5 28.5T276 428q-11 16-19.5 31.5T248 491q0 17 7 37t16 40q8 20 14.5 38t6.5 32q0 14-8 32.5T266 707q-9 18-17.5 36.5T240 776q0 13 5.5 33t13.5 39.5q8 19.5 16 31.5zm-46-729q-8 0-13.5-5.5T210 132q0-8 5.5-14t13.5-6q8 0 14 6t6 14q0 8-6 13.5t-14 5.5zm53 968q46 0 80-31.5t58-81.5q24-50 40-106H104q15 56 39 106t58 81.5q34 31.5 81 31.5z" fill="currentColor"/></svg>