<svg xmlns="http://www.w3.org/2000/svg" viewBox="-10 0 808 940"><path d="M151 940v-51q47-19 85-39t65-48.5q27-28.5 41.5-73T357 617V373q-64-6-123-29t-108-55.5q-49-32.5-84-69T-10 149h118q-13-11-21.5-28T78 84q0-34 24.5-59T162 0q35 0 59.5 25T246 84q0 20-8.5 37T216 149h126q-29-24-29-65 0-34 24.5-59T397 0q34 0 59 25t25 59q0 41-31 65h127q-14-11-22-28t-8-37q0-34 25-59t59-25q34 0 59 25t25 59q0 20-8 37t-22 28h113q-17 34-52 70.5t-84 69Q613 321 554 344t-123 29v244q0 67 14.5 111.5t41.5 73q27 28.5 65 48.5t85 39v51zm11-791q27 0 46-19t19-46q0-26-19-45t-46-19q-26 0-45 19T98 84q0 27 19 46t45 19zm235 0q26 0 45-19t19-46q0-26-19-45t-45-19q-27 0-46 19t-19 45q0 27 19 46t46 19zm234 0q27 0 45.5-19T695 84q0-26-18.5-45T631 20q-27 0-46 19t-19 45q0 27 19 46t46 19zM394 355q60 0 115.5-17t104-45q48.5-28 86-60.5T760 168H28q23 32 60.5 64.5t86 60.5q48.5 28 104 45T394 355zM170 920h448v-17q-47-19-85-40t-65-51.5q-27-30.5-41.5-77T412 617V374h-35v243q0 71-14.5 117.5t-41.5 77Q294 842 255.5 863T170 903z" fill="currentColor"/></svg>