<svg xmlns="http://www.w3.org/2000/svg" viewBox="0 0 595.3 541"><path d="M297 81.1c-14.7 0-22.9 21.2-24.7 63.6-1.8 42.4 3 105.1 14.4 188h20.6c11.9-82.9 16.8-145.6 14.8-188-2.1-42.4-10.5-63.6-25.1-63.6zm239.9 346.5l-13.1-74.2H327.2c.5 24.3 9.2 49 26.1 74.2h183.6zm-218 0c-6-24.7-9.9-49.5-11.7-74.2h-20.6c-1.4 24.7-5.3 49.5-11.7 74.2h44zm-51.5-74.3H73.6l-14.4 74.2h181.5c16.8-25.1 25.8-49.9 26.7-74.2zM82.5 275c-.5 16 4.9 29.4 16.2 40.2s24.9 16.2 40.9 16.2c16.5 0 29.9-5.8 40.2-17.5 10.3-11.7 15.5-24.9 15.5-39.5-.9-14.2-6.1-26.8-15.5-37.8-9.4-11-22.8-16.7-40.2-17.2-17.9 0-31.8 5.6-41.9 16.8-10.2 11.1-15.2 24.1-15.2 38.8zm327.2 57.7c-17-15.1-25.4-33.5-25.4-55-.5-44 6.1-73.6 19.6-88.7 13.5-15.1 30.1-22.7 49.8-22.7 18.3 0 34.1 8 47.4 24.1 13.3 16 20.2 44.5 20.6 85.2 0 18.8-8.7 37.8-26.1 57.1h57.7l42 208.3h-36.4L541 447.5H57.1L37.8 541H0l41.2-208.3h45.4c-16-15.1-24.1-33.5-24.1-55-.5-20.6 6.1-38.5 19.6-53.6 13.5-15.1 32.7-22.7 57.4-22.7 23.4 0 41.7 8 55 24.1 13.3 16 19.9 32.8 19.9 50.2 0 18.8-8.7 37.8-26.1 57.1h79c-2.7-33-7.6-65.9-14.4-98.6-6.9-32.8-9.9-64.3-8.9-94.5s8.9-52 24.1-65.3c8.7-6.4 13.7-21.1 15.1-44l-50.9-18.6c-5.5-4.1-5.5-8 0-11.7h130.6c5 3.7 4.8 7.6-.7 11.7l-50.9 18.6c1.4 22.9 6.4 37.6 15.1 44 15.1 13.3 23 35.1 23.7 65.3.7 30.2-2.4 61.8-9.3 94.5-6.9 32.8-11.5 65.6-13.7 98.6h82.6zm-5.5-57.7c0 16 5.5 29.4 16.5 40.2 11 10.8 22 16.2 33 16.2 11.5 0 22.3-5.8 32.7-17.5 10.3-11.7 15.5-24.9 15.5-39.5-.9-37.6-6.1-61.9-15.5-72.9-9.4-11-20.3-16.7-32.7-17.2-12.8 0-24.3 5.5-34.4 16.5-10.1 10.9-15.1 35.7-15.1 74.2z"/></svg>