<svg xmlns="http://www.w3.org/2000/svg" viewBox="-10 0 1264 1138"><path d="M-10 1138l128-448h125q-27-17-44-46.5T182 579q0-35 17.5-64.5t47-47Q276 450 312 450t65.5 17.5q29.5 17.5 47 47T442 579q0 35-17 64.5T380 690h204q-8-45-19.5-104T541 469.5Q529 412 520 369q-5-21-10-54.5t-5-60.5q0-33 9-64t30-53q21-22 56-28-2-13-6.5-27T585 57h-64V0h210v57h-64q-4 11-9 25t-6 27q35 6 56 28t30 53q9 31 9 64 0 27-5 60.5t-9 54.5q-9 43-21 100.5T688 586q-12 59-20 104h204q-34-27-48-84t-14-130q0-65 11.5-118t38.5-84q27-31 71-31t71 31q27 31 38.5 84t11.5 118q0 73-14.5 130T989 690h137l128 448h-79l-54-189H123l-54 189zM541 37h171V19H541zm79 70q1 0 3-.5t3-.5q1 0 3 .5t3 .5q1-13 5-26t9-24h-40q5 11 8.5 24t5.5 26zm-68 777h148q-28-18-46-43t-18-61q0-4 .5-11t1.5-15l11-64q7-46 18.5-105.5t23.5-118Q703 408 713 365q4-21 9.5-53.5T728 254q0-32-9.5-61T687 145q-22-19-61-19t-61 19q-22 19-31.5 48t-9.5 61q0 25 5.5 57.5T539 365q10 43 22 101.5t23 118Q595 644 603 690l11 64q1 8 1.5 15t.5 11q0 36-18 61t-46 43zm379-194q37 0 59-28.5t32-77q10-48.5 10-108.5t-10-108.5q-10-48.5-32-77T931 262q-37 0-59.5 28.5t-32.5 77Q829 416 829 476t10 108.5q10 48.5 32.5 77T931 690zm-619 0q46 0 78-32.5t32-78.5q0-46-32-78t-78-32q-46 0-78 32t-32 78q0 46 32 78.5t78 32.5zM15 1118h39l54-189h1027l55 189h39q-29-104-58.5-204.5T1111 709H665l-4 26h419l48 169H116l48-169h427l-4-26H132zm127-234h370q35-17 60-41.5t25-62.5q0-8-3-26H179zm598 0h362l-37-130H658q-3 18-3 26 0 38 25 62.5t60 41.5z" fill="currentColor"/></svg>