<svg xmlns="http://www.w3.org/2000/svg" viewBox="0 0 429.3 594.6"><path d="M222.9 289.7c.9 54.2 1.2 94.5 1 120.7-.2 26.2-9.7 80.6-28.4 163h84.7c-19.2-82.5-28.7-136.7-28.4-162.7.2-26-.1-66.4-1-121h-27.9zm14.2-19.8c26.5 0 57.4-8.3 92.9-24.8 35.5-16.8 61.7-42 78.7-75.7H65.5c17 33.7 43.2 59 78.7 75.7 35.5 16.5 66.5 24.8 92.9 24.8zM49.9 37l-2.6 1.3c0 12.8 6 24.5 17.9 35.1C77.3 84.2 85.5 92.2 90 97.2c4.2 5.3 6.3 13.4 6.3 24.5 0 6.4-2 16.4-6 30.1h22.5c1.8-11.5 2.8-23.1 3-35.1.2-11.7-4.7-21.3-14.9-28.8C90.5 80.2 79.5 72 67.8 63.4 55.9 54.9 49.9 46.1 49.9 37zm94.3-.6l-2.6 1.3c0 12.8 6.1 24.5 18.2 35.1 11.9 10.8 20.1 18.7 24.5 23.8 4.4 5.3 6.6 13.4 6.6 24.5 0 6.4-2.1 16.4-6.3 30.1H207c2.2-11.5 3.3-23.1 3.3-35.1 0-11.7-5.1-21.4-15.2-29.1-10.4-7.5-21.4-15.5-33.1-24.1-11.9-8.7-17.8-17.5-17.8-26.5zm86.6.6l-2.6 1.3c0 12.8 6 24.5 17.9 35.1 11.9 10.8 20.1 18.7 24.5 23.8 4.6 5.3 6.9 13.4 6.9 24.5 0 6.4-2.1 16.4-6.3 30.1H293c2.4-11.5 3.6-23.1 3.6-35.1 0-11.7-5.1-21.3-15.2-28.8-9.9-7.7-20.8-15.9-32.7-24.5-11.9-8.5-17.9-17.3-17.9-26.4zm-161 114.8c7.7-16.1 11.6-28.2 11.6-36.4 0-9.9-7.5-20.9-22.5-33.1-15-12.1-22.5-25.2-22.5-39.3C36.4 28.4 24.3 15.7 0 4.6l9.6-4c34.6 17.9 51.9 30.9 51.9 39 0 8.2 11.6 18.5 34.7 31.1 23.4 12.6 35.1 26.7 35.1 42.3v38.7l33.4-.7c7.3-16.1 10.9-28.2 10.9-36.4 0-9.9-7.5-20.9-22.5-33.1-15-12.1-22.5-25.2-22.5-39.4 0-14.6-11.9-27.3-35.7-38.4l8.9-4c34.6 18.3 51.9 31.5 51.9 39.7 0 7.7 11.7 17.9 35.1 30.4 23.1 12.6 34.7 26.7 34.7 42.3v38.7l25.1.7c7.3-16.1 10.9-28.2 10.9-36.4 0-9.9-7.5-20.9-22.5-33.1-15-12.1-22.5-25.2-22.5-39.4 0-14.6-11.8-27.3-35.4-38.4l9.6-4c34.2 17.9 51.3 30.9 51.3 39 0 8.2 11.6 18.5 34.7 31.1 23.1 12.6 34.8 26.7 35.1 42.3.2 15.7.3 28.6.3 38.7h31.4c7.3-16.1 10.9-28.2 10.9-36.4 0-9.9-7.5-20.9-22.5-33.1-15-12.1-22.5-25.2-22.5-39.4 0-14.6-11.8-27.3-35.4-38.4l9.6-4c34.2 17.9 51.3 30.9 51.3 39 0 8.2 11.6 18.5 34.7 31.1s34.8 26.7 35.1 42.3c.2 15.7.3 28.6.3 38.7h24.1v17.5c-20.1 42.6-48.6 73.1-85.7 91.6-28.2 14.6-52.6 23.5-73.1 26.8v60.2c0 68.8 13.7 151 41 246.7H163.4c26.9-95.2 40.3-177.5 40.3-246.7V287c-19.6-2.6-44-11.6-73.1-26.8-37-18.5-65.6-49.1-85.7-91.6v-17.5h24.9zM323.8 37l-2.6 1.3c0 12.8 6 24.5 17.9 35.1 11.9 10.8 20.1 18.7 24.5 23.8 4.6 5.3 6.9 13.4 6.9 24.5 0 6.4-2.1 16.4-6.3 30.1h22.2c2.2-11.5 3.4-23.1 3.6-35.1.2-11.7-4.9-21.3-15.2-28.8-10.1-7.7-21.2-15.9-33.1-24.5-12-8.5-17.9-17.3-17.9-26.4z"/></svg>