<svg xmlns="http://www.w3.org/2000/svg" viewBox="-10 0 1082 594"><path d="M-10 594l128-454h131q-12-11-19.5-26.5T222 80q0-33 23-56.5T301 0q33 0 56.5 23.5T381 80q0 18-7.5 33.5T354 140h125q-13-11-20.5-26.5T451 80q0-33 23.5-56.5T531 0q33 0 56 23.5T610 80q0 36-27 60h125q-27-24-27-60 0-33 23-56.5T760 0q33 0 56.5 23.5T840 80q0 18-7.5 33.5T813 140h131l128 454h-68l-56-195H113L58 594zm311-454q26 0 43-17.5T361 80q0-25-17-42.5T301 20q-25 0-42.5 17.5T241 80q0 25 17.5 42.5T301 140zm230 0q25 0 42.5-17.5T591 80q0-25-17.5-42.5T531 20q-25 0-42.5 17.5T471 80q0 25 17.5 42.5T531 140zm229 0q25 0 42.5-17.5T820 80q0-25-17.5-42.5T760 20q-25 0-42.5 17.5T700 80q0 25 17.5 42.5T760 140zM15 574h30l54-195h864l54 195h29L930 159H131zm92-220l47-169h754l47 169zm23-20h801l-37-130H168z" fill="currentColor"/></svg>