<svg xmlns="http://www.w3.org/2000/svg" viewBox="0 0 595.3 205.5"><path d="M574.8 36.9c-56.5 15.5-112 18.4-166.4 8.5-54.4-9.9-101.3-16.6-140.6-20.1s-71.3.1-95.8 11c-24.5 10.8-36.7 18.8-36.7 24s12.2 13.2 36.7 24c24.5 10.8 56.4 14.5 95.8 11 39.3-3.5 86.2-10.2 140.6-20.1 54.4-9.9 109.9-7.1 166.4 8.5V36.9zm-456.6 1.4C163 8.2 208.8-4.2 255.7 1.2c46.9 5.4 88.1 11.7 123.7 18.7s65.8 10.6 90.8 10.6c38.6 0 80.3-8 125.1-24V114c-44.8-16-86.5-23.8-125.1-23.3-25 0-55.2 3.4-90.8 10.2-35.6 6.8-76.8 13.1-123.7 18.7-46.9 5.7-92.7-6.6-137.5-36.7-8.5-7.5-20-7.8-34.6-.7-34.4 30.6-52.3 68.6-53.7 113.8 0 6.6-4.9 9.8-14.8 9.5C5.2 205.3.3 202.1.3 196c-2.8-47.1 21.2-92.3 72.1-135.7 13.1-8.5 28.4-15.8 45.8-22z"/></svg>