<svg xmlns="http://www.w3.org/2000/svg" viewBox="-10 0 1239 472"><path d="M-9 472q-1-9-1-17.5V437q0-91 32.5-154t86.5-99q54-36 120-47 5-37 48.5-68t114-50Q462 0 549 0q44 0 102 10t113 21q61 12 125 23t117 11q44 0 88-10.5t79.5-23.5q35.5-13 55.5-21v271q-20-8-55.5-21t-79.5-23.5q-44-10.5-88-10.5-53 0-117 10.5T764 260q-55 11-113 20.5T549 290q-86 0-156-18t-113.5-48Q236 194 230 157q-61 11-111 44.5t-80 92Q9 352 9 437q0 8 .5 17t1.5 18zm558-201q44 0 98-9.5T760 241q62-13 125.5-24t120.5-11q41 0 80 8t71 19q32 11 52 19V39q-31 13-86.5 29T1006 84q-57 0-120.5-10.5T760 50q-59-12-113-21t-98-9q-85 0-153 19T288 87q-40 29-40 58t40 58.5Q328 233 396 252t153 19z" fill="currentColor"/></svg>