<svg xmlns="http://www.w3.org/2000/svg" viewBox="-10 0 1177 580"><path d="M1086 580q0-54-18-107t-52.5-98Q981 330 934 300q-28 22-69 52.5t-91.5 60Q723 442 666.5 461T552 480q-85 0-162-24.5t-139.5-62Q188 356 148 316l-158 13V145l158 13q1-1 26-17.5t66.5-40Q282 77 333.5 54T440 15.5Q495 0 547 0q62 0 128.5 20t132 53.5Q873 107 931 148q33 24 73 61.5t77.5 90q37.5 52.5 61.5 122t24 158.5zM524 460h45.5l17.5-2V22q-10-1-20-1.5t-20-.5h-11l-12 1zm-19-2V23q-42 6-88.5 21.5t-92.5 37q-46 21.5-86.5 44T167 168v141q34 33 86 65t116.5 55Q434 452 505 458zm601 102h41q-2-82-25.5-145.5t-59-111.5q-35.5-48-73.5-82.5T920 164q-73-52-153.5-90T607 25v430q49-9 97-30.5t91-48q43-26.5 78-53.5t59-46q53 31 91 77t59.5 99q21.5 53 23.5 107zM9 308l100-8V174L9 166zm120-10l19-1V178l-19-2z" fill="currentColor"/></svg>