<svg xmlns="http://www.w3.org/2000/svg" viewBox="0 0 577.1 301.6"><path d="M278.2 0c65 0 128.7 30.8 191.3 92.4 44.8 26.4 74.1 57.8 88 94.3 13.9 36.5 20.5 74.8 19.5 114.9h-40c-10.1-72-32.6-115.2-67.6-129.7-62.8 59.5-126.3 89.2-190.3 89.2-65.6 0-133.3-30-203.2-90.1L0 178.9V84.1l75.9 7.4C131.6 30.5 199.1 0 278.2 0zm-8.3 18.9v223c5.8.9 12 .9 18.4 0V19.8c-6.2-.9-12.3-1.3-18.4-.9zm-180.2 137c57 52.7 110.3 81.4 160 86V19.8C200 21 146.7 49 89.7 103.9v52zM308.5 19.8v222.1h.5c47.5-6.1 101-35.6 160.5-88.3 42 13.5 69 57.5 80.9 132h11.5c-.6-24.8-5.8-53.2-15.6-85.1-9.8-31.9-35.4-61.8-76.8-89.7-59.5-53.6-112.9-84-160.5-91h-.5zM19.3 102.1V161l41.8-5.1v-52l-41.8-1.8z"/></svg>