<svg xmlns="http://www.w3.org/2000/svg" viewBox="0 0 552.3 595.3"><path d="M52.6 93.3c9.3 2.4 13.2 4.5 11.9 6.3-1.1 1.8-5 2.6-11.6 2.6s-10-1.4-10.3-4.3c-.2-2.6 3.1-4.1 10-4.6zm297.3 479.9h110.8v-93.6c.4-8.2-4.9-12.2-15.9-12.2-10.8 0-17.4 5.3-19.8 15.9-2.4 10.8-7.7 26.9-15.9 48.3-8.4 21.3-28.1 35.2-59.2 41.6zM282.1 40.7c10.8-5.3 16.2-10.8 16.2-16.5 0-6-3.2-9.1-9.6-9.6-13.7 0-20.5 6.8-20.5 20.5v121c9.7-9.7 20.6-15.3 32.7-16.9l-18.8-98.5zm232.5 458.1c22.5-64.6 22.5-131.1 0-199.4-22.3-68.3-62.3-101.5-120-99.5-58 2-107.5 3.3-148.5 4-41 .7-71.5.1-91.6-1.7-19.8-2-34.3-6.6-43.3-13.9-9-7.3-11.2-18.9-6.6-34.7 4.6-15.9 6.9-26.2 6.9-31.1 0-9.7-10.7-17.4-32.1-23.1-8.6-8.8-18.6-12.7-30.1-11.6-11.5.9-17.4 4.2-17.9 9.9 0 6.4 5.8 10.4 17.5 11.9 36.8.9 54 7.9 51.6 21.2-11 30-14 50.4-8.9 61.2 5.1 10.6 21.7 17.3 49.9 20.2 28 3.1 57 4.7 87 5 30 .2 77.4-1.2 142.2-4.3 64.8-3.3 108.7 29.7 131.6 98.9 22.8 69 26.8 131.4 12.3 187zM0 595v-27.1h250.7V235.5c-44.8.9-80.9.7-108.5-.7-27.8-1.5-46-7.1-54.6-16.5-8.8-9.5-14.3-20.3-16.5-32.4-2.2-12.1.3-25.5 7.6-40 7.3-14.6 7.3-20.1 0-16.5-7.3 3.7-20.6 2.1-40-5S9.6 108.2 9.6 97c.4-15 14.1-23.4 41-25.1 27.1-1.8 41.9 3.2 44.3 14.9 23.8 6 34.9 14.4 33.4 25.5-1.5 18.5-4 34-7.3 46.3-3.5 12.6 6.4 19.5 29.8 20.8 23.4 1.5 56.7 2.5 99.9 3V33.5c0-14.1 3.6-23.3 10.9-27.4 7.3-4.4 16.1-6.4 26.5-6 17.4 0 26.1 7.8 26.1 23.5 0 10.1-5.1 17.9-15.2 23.1l21.8 105.8c-21.4 1.3-36.3 11.2-44.6 29.8 31.3.4 70.4-.6 117.4-3 68.6 0 114.4 36 137.6 108.1 23.2 71.9 27.3 128.6 12.6 170.3-14.6 41.9-16.6 85-6.3 129.3-.7 8.6-4.9 10.5-12.6 5.6-23.4-36.4-30.3-73.4-20.8-111.1 9.5-37.7 3.2-89-18.9-153.8-22-64.8-57.7-96.2-106.8-94.3-49.2 2.2-82.5 2.9-99.9 2V568.5h24.1c49.6-10.1 78-24.7 85.3-43.7 7.3-19 13.6-37 18.9-54.2 5.3-17.2 19.4-25.8 42.3-25.8 23.4 0 35.1 11.6 35.1 34.7V595H0z"/></svg>