<svg xmlns="http://www.w3.org/2000/svg" viewBox="-10 0 491 809"><path d="M88 809l-98-359h186q1-3 3.5-9t2.5-15q0-19-16.5-40.5T129 342q-19-21-34-41t-15-39q0-22 5-44 2-11 4-23t2-24q0-22-13-42.5T49 87q-4-6-11-15T24 53q-7-11-11.5-21T8 14q0-5 2.5-9.5T22 0q11 0 20.5 6.5T62 23q12 13 27.5 29.5T113 78q22 23 40.5 49t18.5 51q0 13-5 30-2 7-4 13.5t-2 13.5q0 20 21 41t46 44q27 24 50 45.5t23 55.5q0 10-1 17t-2 12h183l-98 359zm109-359h81q3-12 3-29 0-26-22-47t-44-40q-27-24-50-48.5T142 235q0-9 2-17l4-16q1-6 3-12.5t2-11.5q0-19-17.5-43T99 90Q88 77 70 56.5T41 25q-8-7-12-7-5 0-1 7 7 14 17 26.5T66 78q17 22 31 44.5t14 48.5q0 15-2 27.5t-4 23.5q-2 11-4 20.5T99 262q0 13 12.5 28.5T144 329q19 22 38.5 47t19.5 50q0 14-5 24zm-94 339h265l88-319H15q22 82 44 159.5T103 789z" fill="currentColor"/></svg>