<svg xmlns="http://www.w3.org/2000/svg" viewBox="0 0 268.4 414.7"><path d="M64.9 39.3c13.5 21.9 35.4 35.5 49.4 49.5 15 15.1 29.7 28.4 30.3 64.3l2 102.9-29.3-1-2.4-95.1c-1.2-45.5-11.9-55.2-50-120.6zM212 285.4l-37.4 86.2c-4.2 13.4-13.4 20.1-27.6 20.1h-25.3c-14.6 0-23.9-6.9-28.2-20.7l-37.4-85.6H212zM26.4 0C18 0 45.2 55.9 60.8 78.9c23.4 34.7 31.9 60.5 31.9 81.9l-.2 95.3H19.1c-12.7 0-19.1 3.3-19.1 9.8 0 6.5 7.1 15.9 21.3 28.2 8.8 7.3 26.2 42.7 52.3 106.3 4.2 9.6 10 14.4 17.2 14.4h86.8c6.9 0 12.6-4.8 17.2-14.4 26-63.6 43.5-99 52.3-106.3 13.8-13 20.9-22.4 21.3-28.2 0-6.5-6.4-9.8-19.1-9.8h-2.2l-72.9-1c-9.8-69.5 1.2-87.4-12.3-125.8-7.1-20.2-2.5-31.6-45.6-67.8C84.2 34.1 34.9 0 26.4 0z"/></svg>