<svg xmlns="http://www.w3.org/2000/svg" viewBox="0 0 247.9 594.5"><path d="M185.9 20.4C138.7 21.8 85.4 25 25.9 30c-3.2 8.2-4.8 15.9-4.8 23.2s1.6 13.8 4.8 19.7c59 8.6 112.4 19.3 160 32V20.4zm34.8 385.5l15.7 39.5c7.7 22.7 11.6 43.6 11.6 62.7 0 18.6-4.3 37.7-12.9 57.2-8.6 19.5-19.5 29.3-32.7 29.3-13.2 0-23.9-9.8-32.3-29.3-8.4-19.5-12.6-38.6-12.6-57.2 0-19.5 3.6-40.4 10.9-62.7l-79.7-58.6 23.8-30.6 73.6 50.4V125.3C142.3 112.6 83.3 100.8 8.9 89.9 3 78.5 0 65.8 0 51.8c0-14.5 3-27.9 8.9-40.2C72.4 5.2 143.2 1.4 221.3 0v405.2l-.6.7zm-104.2-31.3l-7.5 10.9 65.4 47 6.8-12.3-64.7-45.6zM184.6 508c0 23.6 5.9 41.1 17.7 52.4 12.3-11.4 18.4-28.8 18.4-52.4 0-22.7-6.1-43.1-18.4-61.3-11.8 18.7-17.7 39.1-17.7 61.3z"/></svg>