<svg xmlns="http://www.w3.org/2000/svg" viewBox="-10 0 461 1144"><path d="M327 1144q-32 0-61.5-15t-47.5-44.5q-18-29.5-18-71.5 0-37 17.5-71t39.5-64l6-8 6-9-152-132 59-55 112 106V239q-14-10-57.5-23T129 203q-51 0-80.5 3T-10 216V17q30 7 59 9.5t80 2.5q54 0 98-9t68-20h61v845l9 8q14 14 34.5 36t36 52.5Q451 972 451 1011q0 64-36.5 98.5T327 1144zm10-318V19h-29v780zm-49-611V26q-23 8-66 15.5T129 49q-32 0-52-.5t-35-2Q27 45 9 42v149q20-2 53-4.5t67-2.5q43 0 89 8.5t70 22.5zm39 910q43 0 74-29t31-85q0-34-14.5-62T384 900.5Q365 880 351 867L176 701q-7 8-14 14t-16 14l136 117q49 42 86 83.5t37 85.5q0 41-21 62t-58 21q-40 0-60-26t-20-57q0-27 12.5-52t32.5-54l12-18-18-17q-3 5-6.5 8.5T273 890q-16 20-34.5 53.5T220 1013q0 54 33 83t74 29zm-1-46q28 0 44-16t16-48q0-28-19-55.5T317 904l-10 16q-19 26-30 48.5t-11 46.5q0 23 15 43.5t45 20.5z" fill="currentColor"/></svg>