<svg xmlns="http://www.w3.org/2000/svg" viewBox="-10 0 582 1156"><path d="M410 1156q-20 0-43-18.5t-39-55.5q-16-37-16-92 0-18 5.5-39t5.5-40q0-10-5.5-19.5T297 882q-29 0-43 36.5t-21 93.5h-79q0-20-7.5-46T121 916q-18-24-50-39t-81-12q0-31 2-71t6.5-78Q3 678 10 652q25-86 74-155t106-123q57-54 105-96 38-32 68.5-60t41.5-51q10-20 11-41.5t6-44.5q3-17 11-36t24-32q16-13 44-13 40 0 55.5 21T572 64q0 37-17.5 67.5T520 185q-9 13-15.5 23.5T498 224q0 8 2 22.5t5 33.5q5 27 10.5 63.5T521 409q0 92-24.5 166.5T445 714q-21 51-38 102t-17 102q0 67 14.5 109.5T430 1092q5 9 8 16.5t3 18.5q0 7-6 18t-25 11zm0-19q7 0 9-5.5t2-8.5q0-5-2-10t-6-12q-11-23-27-68t-16-115q0-55 17.5-106T428 706q26-63 50-134.5T502 409q0-29-5.5-63T486 283q-3-19-5.5-34t-2.5-25q0-10 7.5-22.5T504 174q16-22 32-50t16-60q0-16-10.5-30.5T501 19q-29 0-41.5 23T442 85q-5 23-6.5 45.5T423 176q-13 26-44 54.5T309 293q-49 41-104.5 93T102 505q-47 67-73 153-8 29-12.5 65.5T11 793q-1 33-1 53 49 2 79.5 18t48 39q17.5 23 25 47t9.5 43h44q7-57 25-94t56-37q26 0 35.5 16.5T342 911q0 18-5.5 39t-5.5 40q0 47 13.5 80t31.5 50q18 17 34 17z" fill="currentColor"/></svg>