<svg xmlns="http://www.w3.org/2000/svg" viewBox="0 0 388.4 599.5"><path d="M355.9 24.7c-50.7 23.6 3.1 41.9-177 168.6-74.8 79.1-137.4 162.4-145.7 235.6 3.1 10.6 39.7 26.5 67.8 49.9 4.6 3.8 44.9-15.9 42.6 25.2-.5 9.7-9.3 38.1-20.4 51.7 5.3 13.7 15.3 16.6 25.4 15.2 19.9-12.4 37.4-35.4 52.4-69 30.7-48.4 100-195.1 107.1-310.1 27.3-118.1 64.8-131.6 47.8-167.1zm-16.2 148.9c-3.5 19.5-5.4 67.6-16 104.7-11.5 38.9-86 258-153.1 306.6-9.5 6.9-13.5 14.6-20.6 14.6-2.7 0-5.5-.4-8.6-1.3-7.5-4.9-48.7-10.7-47.1-39.3.2-4 42.9-44.7 16-54.9-13.1-4.9-26.4 26.8-34.1 11.7-16.8-32.4-74-53.6-76.2-54.9.4-31.4 10.6-61 21.9-92.2C45.5 303.5 142.5 175.1 231 124.5c56-44.1 80.1-93 86-107.6C327.4-9 400-9.9 386.8 48.5c-1.7 7.5-30.7 51.5-47.1 125.1z"/></svg>