<svg xmlns="http://www.w3.org/2000/svg" viewBox="0 0 390.8 396.9"><path d="M24.4 165.6c0 34.7 11.6 63.3 34.9 85.7 23.3 22.4 51.6 33.6 85 33.6 34.7-.4 62.8-12.9 84.4-37.2s32.7-52 33.6-82.7c-2.2-29.9-13.1-56.6-32.6-80.1-19.6-23.5-48-35.5-85.4-35.9-37.3 0-66.7 11.6-88 34.9-21.3 23.3-31.9 50.5-31.9 81.7zm246.5-86.3c41.7-9.2 62.8-19.7 63.3-31.3.4-11.6-5.1-18.9-16.5-21.8-11.4-2.9-27 14.8-46.8 53.1zm3.3 57.3c30.8 52.3 51.2 95.1 61.3 128.5 6.2-6.2 13.6-11 22.4-14.5-22.9-45.7-50.8-83.7-83.7-114zm10.5 71.2c14.9 47.9 23.7 102.4 26.4 163.5 11-2.6 22-2.4 33 .7-22.9-87.6-42.7-142.3-59.4-164.2zm-17.1 27.7c-2.6 7.5-9.2 16.7-19.8 27.7-25 30.3-59.5 45.7-103.5 46.1-39.5 0-73.5-13.6-101.8-40.9C14.2 241.2 0 207.1 0 166.2 0 128 12.5 95 37.6 67.1c25-27.9 60.4-41.6 106.1-41.2 44.4.4 79.7 16.3 106.1 47.5 18.5-54 41.9-78.2 70.2-72.5 28.3 5.7 41.4 23 39.2 51.7-2.2 28.8-31.6 44.9-88.3 48.4 48.8 39.1 88.8 94 120 164.8-18 4.8-33 12.7-44.8 23.7 11.9 29.4 20.4 65.2 25.7 107.4-29.9-4-60.4-4.4-91.6-1.3 6.5-68.1 2.3-121.5-12.6-160.1z"/></svg>