<svg xmlns="http://www.w3.org/2000/svg" viewBox="-10 0 1171 948"><path d="M871 948q17-56 30.5-113T915 710q0-32-10-83t-26-106q-16-55-35-100 2 16 3.5 31.5T849 485q0 89-33.5 166.5T723 788q-59 59-136.5 92.5T420 914q-89 0-167-33.5T116 788q-59-59-92.5-136.5T-10 485q0-89 33.5-167T116 181q59-59 137-92.5T420 55q92 0 172 36t139.5 99.5Q791 254 822 335l4-2q4-23 15.5-63.5T873 183q20-46 49-88t66-68.5Q1025 0 1072 0q21 0 41.5 10.5t34 32Q1161 64 1161 98q0 52-35 100.5t-90 90Q981 330 922 361q39 25 72.5 64t59.5 84.5q26 45.5 42.5 90.5t22.5 83l-116 8q5 29 8.5 56t3.5 53q0 23-3 48.5t-6 42.5zm-35-570q50-21 103.5-50.5t99.5-66q46-36.5 74.5-78T1142 98q0-40-23-59t-47-19q-41 0-74 23t-58.5 59.5q-25.5 36.5-44 78T865 260q-12 38-17 64l31-15q9-39 29-83.5t46-84q26-39.5 53.5-65T1059 51q8 0 20.5 3.5t21.5 15q9 11.5 9 35.5 0 35-27.5 71.5t-71 70.5q-43.5 34-92 61.5T829 354q2 5 4 11.5t3 12.5zm66-82q47-26 90-58t70.5-66q27.5-34 27.5-67 0-23-11.5-28.5T1059 71q-20 0-42.5 21t-45 55.5Q949 182 931 221t-29 75zM420 895q85 0 159-32t130.5-88.5Q766 718 798 644t32-159q0-85-32-159.5t-88.5-131Q653 138 579 106T420 74q-85 0-159.5 32t-131 88.5Q73 251 41 325.5T9 485q0 85 32 159t88.5 130.5Q186 831 260.5 863T420 895zm591-224l85-6q-5-32-22-74t-43-85.5q-26-43.5-59-79.5t-71-55l-5 2q49 59 82 132t33 166zM902 914l85-36q3-14 6-34.5t3-43.5q0-52-13-109.5t-33.5-114q-20.5-56.5-42-106T869 385l-16 7q16 34 31 77.5t26.5 89q11.5 45.5 18 85T935 710q0 62-10 111t-23 93zm92-257q-5-71-29-130t-59-109q23 49 47 111.5T994 657z" fill="currentColor"/></svg>