<svg xmlns="http://www.w3.org/2000/svg" viewBox="0 0 359.6 316.3"><path d="M100.7 0C71.5 2.4 50.6 26.2 31.8 46.3c-34.2 42.1-39 102.4-23 152.9C29.7 258.9 87.4 300.7 148.2 313c79.1 15.9 167.2-27.5 200.6-101.3 18.2-47 12.6-101.9-10.4-146.3-13.5-24.9-33.4-46.1-59.8-58.2-15.9-8-34-2.1-46.3 9.1C203.2 31.4 198 66.8 193.2 96c1.6 7.1-12 27.4.5 25.9 8.7-4.1 18.7 3.4 17.1-11.6 5.2-22.2 5.3-46.8 18.4-66.3 2.4 17 9.1 34.1 17.5 48.4-3.2 24.3-4 52.6-23.2 70.4-17.7 13.2-42 13.3-62.9 9.7-27-6.2-35.9-36.2-39.5-60.3-.1-13.5-7.7-29.2 0-41.3 6.5-7.2 9.2-28.1 13.5-29 13.7 22.9 12.6 50.8 20 75.9 6.4-1.7 12.8-3.5 19.2-5.2-8.4-31.8-6.8-70.3-33.9-93.6-13-6.8-23.4-19.9-39.2-19zm1.3 19.7c19.9 2.2 9.4 26.7 3.6 37.7-2.1 12-10.7 1.6-16.9-.9-8.4-4.9-16.9-9.7-25.3-14.6C74.3 32.1 86.7 21 102 19.7zm158.4 3.5c10 1.3 35.8 11 29.7 20.6-10.4 10-20.7 20-31.1 30-5.7-14-13.5-29.5-9.1-44.8 2.3-3.5 6.4-6 10.5-5.8zm46.9 31.6c31.2 38.9 39.5 93.8 26 141.3-15.3 43.9-55.6 75.2-98.1 90.9C185 306.3 127 294.6 84 263.6c-32-22-57.6-55.7-62.1-95-5.7-38.7.7-81.8 27.2-112L98 84.8c2.7 32.9 5.9 70.8 32.9 93.7 24.9 20.3 61.1 19.2 89.9 8.4 27.2-10.5 39-40.2 42.5-67.1 3.3-10.6-1.4-24.7 9.3-31.5 11.5-11.1 23.1-22.3 34.7-33.5z"/></svg>