<svg xmlns="http://www.w3.org/2000/svg" viewBox="-10 0 904 817"><path d="M442 817q-80 0-160-28t-146-83.5Q70 650 30 569.5T-10 384q0-72 22-140.5T73 120q39-55 89.5-87.5T270 0q39 0 68 19.5T386.5 71q19.5 32 29 69.5T425 215q0 36-4.5 59t-9.5 42l-19-4q5-18 9-40t4-57q0-38-12.5-78T359 69q-1 22-13.5 39.5T317 142q-15 16-31.5 36.5t-27.5 49Q247 256 247 297q0 82 25.5 130.5T342 498q44 22 100 22t100-22q44-22 69.5-70.5T637 297q0-41-11.5-69.5t-28-49Q581 158 566 142t-28-33.5Q525 91 524 69q-20 28-32.5 68T479 215q0 35 4 57t9 40l-19 4q-5-19-9.5-42t-4.5-59q0-37 9.5-74.5t29-69.5Q517 39 546 19.5T614 0q57 0 107.5 32.5T811 120q39 55 61 123.5T894 384q0 105-40 185.5t-106 136Q682 761 602 789t-160 28zM268 169q8-12 17.5-22t18.5-19q14-15 24.5-28.5T339 72q0-20-15.5-36T270 20q-41 0-79 19t-70 53zm348 0l147-77q-32-34-70-53t-79-19q-38 0-53.5 16T545 72q0 14 10.5 27.5T580 128q9 9 18.5 19t17.5 22zM442 798q77 0 153.5-27t140-80Q799 638 837 561t38-177q0-78-27-151.5T777 107l-150 79q13 20 21 47.5t8 63.5q0 89-28 142.5t-76.5 77Q503 540 442 540t-109.5-23.5Q284 493 256 439.5T228 297q0-36 8-63.5t21-47.5l-150-79q-44 52-71 125.5T9 384q0 100 38 177t101.5 130q63.5 53 140 80T442 798z" fill="currentColor"/></svg>