<svg xmlns="http://www.w3.org/2000/svg" viewBox="0 0 595.3 553.1"><path d="M68 492.2h86.8l-43.1-69.5L68 492.2zM297.2 183c-53.5 23.2-80.1 54-79.7 92.6.2 38.6 13.5 64.2 40 76.9 26.5 12.7 52.9 12.7 79.4 0 26.5-12.7 39.7-38.4 39.7-76.9-.1-38.5-26.5-69.4-79.4-92.6zm23.4-15.3c53.5 25.4 80.2 62.1 80 110.1-.4 48-17.7 79.8-52 95.4-34.3 15.8-68.8 15.8-103.7 0-34.9-15.6-52.3-47.4-52.3-95.4s26.8-84.7 80.3-110.1l-70.4-46.1c-8-5.9-9.4-12.2-4.3-18.8 5.1-6.4 12.5-6.4 22.1 0l76.9 49.5 76-49.5c9.8-6.4 15.8-.1 17.8 18.8l-70.4 46.1zm253.5 366.1v-20.3H20.9v20.3h553.2zm-90.8-111.1l-42.8 69.5h86.8l-44-69.5zM0 553.1v-60.9h36.3l63.4-102.8V0h24.9v389.5l60.9 102.8h224.3l60.6-102.8V0h25.2v389.5l63.1 102.8h36.6v60.9H0z"/></svg>