<svg xmlns="http://www.w3.org/2000/svg" viewBox="0 0 595.3 385.2"><path d="M578.3 370.3v-15.7H17.6v15.7h560.7zM20 338.5h45.4L43 303.4l-23 35.1zm84.8 0h45.4l-22.4-35.1-23 35.1zm85.4 0h45.4l-22.4-35.1-23 35.1zm84.7 0h45.4l-22.4-35.1-23 35.1zm85.4 0h45.4l-22.4-35.1-23 35.1zm84.8 0h45.4l-22.4-35.1-23 35.1zm85.4 0h45.4l-22.4-35.1-23 35.1zm64.8 0v46.6H0v-46.6l33-51.8V0h20v286.7l32.4 51.8 33-51.8V0h19.4v286.7l32.4 51.8 33-51.8V0h20v286.7l32.4 51.8 32.4-51.8V0h20v286.7l32.4 51.8 33-51.8V0h20v286.7l31.8 51.8 33-51.8V0h20v286.7l32.4 51.8 33-51.8V0H563v286.7l32.3 51.8z"/></svg>