<svg xmlns="http://www.w3.org/2000/svg" viewBox="0 0 592.6 228.3"><path d="M278.3 0C176.1 0 100.3.7 66.5 6.1c-14.2 2.3-29.1 9.1-41.3 19.3C13 35.7 3.3 49.9 2.1 67c-3.6 51-1.8 101.7 0 152l.3 9.4H44l-.8-10.5c-1.8-24.2-2.8-53.9-2.4-80.9.4-27 2.5-51.6 5.8-63.3 3.6-12.8 12.9-21.1 21.8-22 4.6-.4 9.2-.8 13.7-1.1 11.4 6.5 83 46.6 129.1 59.1 35.6 9.7 64.5 11.1 87.2 11.1 22.7 0 51.6-1.4 87.2-11.1C431 97.3 501.4 58 514.2 50.8c3.3.3 6.7.5 10.1.9 9.9.9 18.3 7.3 21.8 19.9 3.3 11.6 5.4 36.9 5.8 64.4.4 27.5-.6 57.8-2.4 82l-.8 10.5h41.6l.3-9.4c1.8-50.3 3.5-101 0-152-1.2-17.1-11.1-31.1-23.3-41.2-12.2-10.1-27-16.7-40.7-19.6C510.7 3 482.4 1.7 443 .9 403.5 0 353.4 0 296.3 0h-18zm5.1 19.5h12.9c57.1 0 107.1 0 146.2.8 39.1.8 68 2.5 80 5 10.4 2.2 22.9 7.8 32.3 15.6 9.4 7.8 15.6 17.2 16.3 27.5 3.3 46.5 1.9 93.4.3 140.5h-1.9c1.4-22.7 2.2-48.8 1.8-73.2-.4-28.2-2-53.3-6.5-69.4-5.4-19.3-20.9-32.3-38.8-34-65.2-6.2-115.5 0-229.6 0s-164.6-6.2-229.9 0c-18.8 1.8-33.4 17-38.8 36.1-4.5 16-6.1 40.7-6.5 68.3-.4 24 .4 49.6 1.8 72.2h-1.9c-1.6-47.1-3-94 .3-140.5.7-10.3 6.9-20.1 16.3-28 9.4-7.9 21.7-13.4 31.9-15 29.7-4.8 109-5.8 213.8-5.9zM129.8 49c42.1 0 90 2.7 166.6 2.7 84.7 0 134.1-3.3 179.5-2.6-27.9 14.5-68.7 34.4-95.6 41.7-33.5 9.1-60.1 10.4-82 10.4s-48.6-1.3-82-10.4c-26.9-7.3-67.8-27.3-95.7-41.8h9.2zm72 65.4c-6.6.4-33.9 24.3-43.8 37.3-6.4 8.4-8.2 19.2-1.8 24.2 6.3 4.9 16.1.5 22.5-7.9 10.6-13.9 28.1-50.3 24.1-53.4-.2-.1-.5-.2-1-.2zm190.8 0c-.3 0-.6.1-.8.3-4 3.1 13.6 39.6 24.1 53.4 6.4 8.4 16.3 12.8 22.5 7.9 6.4-5 4.6-15.8-1.8-24.2-10-13.2-37.8-37.6-44-37.4zM233 122.2c-5.8.6-27.5 31.6-34.2 47-4.3 9.8-3.4 20.7 3.9 24 7.3 3.3 15.8-3.4 20-13.1 7-16.1 15.5-55.7 10.9-57.8-.1-.1-.3-.1-.6-.1zm128.4 0c-.1 0-.2 0-.4.1-4.6 2.1 3.9 41.7 10.9 57.8 4.3 9.8 12.8 16.4 20 13.1 7.4-3.3 8.2-14.2 3.9-24-6.8-15.7-29.1-47.5-34.4-47zm-90.3 5.8c-5.3.4-22.5 35.3-26.9 51.9-2.7 10.3-.2 20.9 7.6 23.1 7.7 2.1 15.1-5.8 17.8-16.2 4.5-17 6.8-57.5 1.9-58.8h-.4zm52.3 0h-.2c-4.9 1.3-2.6 41.8 1.9 58.8 2.7 10.3 10.1 18.2 17.8 16.2 7.8-2.1 10.3-12.8 7.6-23.1-4.4-16.8-22-52.4-27.1-51.9zm-27.4.5c-5 .6-13 39.8-13 57.3 0 10.7 5.1 20.3 13.2 20.3 7.9 0 13.1-9.6 13.1-20.3 0-17.6-8.1-57.3-13.1-57.3h-.2z"/></svg>