<svg xmlns="http://www.w3.org/2000/svg" viewBox="0 0 594.8 283.2"><path d="M31 15.3c-8.1 0-13.2 12-15.3 36.1v216h33V70.2c2-9.8 5.3-14.7 9.7-14.7C47.3 41.2 38.1 27.8 31 15.3zm390.4 124.5c-26.1 15.3-67.4 24.7-124 28.5-56.6-4.1-97.9-13.6-124-28.5L131.2 182c45.1 32.9 100.5 51.2 166.2 54.9 65.7-3.4 121.2-21.7 166.2-54.9l-42.2-42.2zM554.1 0c27.5 0 41 18.6 40.7 55.9v227.2h-64.1V70.7c0-3.4-1.2-5.1-3.6-5.1-24.4 25.1-55.4 47.4-93 67.1l52.4 51.9c-43.4 31.5-80.6 50.8-111.6 58-31 7.1-56.9 10.7-77.5 10.7-20.7-.3-46.5-4-77.5-10.9s-68-26.2-111.1-57.7l51.9-51.9C123 113 92 90.5 67.6 65.1c-2.4 0-3.6 1.9-3.6 5.6v212H0V55.9C0 18.6 13.6 0 40.7 0h513.4zM297.4 150.5c53.2-.7 102.4-14.5 147.7-41.4 45.2-26.9 77.9-58 97.9-93.3H51.9c20 34.9 52.7 65.8 98.1 92.8 45.4 26.9 94.5 40.9 147.4 41.9zM564.3 15.8c-7.5 12.2-16.8 25.6-28 40.2 4.4 0 7.8 4.7 10.2 14.2v197.2H579v-216c-2-23.8-6.9-35.6-14.7-35.6z"/></svg>