<svg xmlns="http://www.w3.org/2000/svg" viewBox="0 0 594.7 596.7"><path d="M334 0c-16.9.6-42.1.3-58.9 1.4-9 2.6-7.4 12.7-7.3 19.9.8 49.2 1.6 98.4 2.4 147.7-97.9.1-170.6.8-203.5 6.1-14.3 2.3-29.2 9.1-41.4 19.4C13 204.8 3.3 219 2.1 236.1c-3.6 51.2-1.8 102 0 152.5l.3 9.4h41.9l-.8-10.5c-1.8-24.2-2.9-54.1-2.4-81.2.4-27.1 2.5-51.8 5.8-63.5 3.6-12.9 12.9-21.2 21.9-22 4.6-.4 9.2-.8 13.7-1.1 11.4 6.5 83.3 46.7 129.6 59.3 35.7 9.7 64.7 11.1 87.5 11.1 22.8 0 51.7-1.4 87.5-11.1 45.6-12.4 116.3-51.8 129.1-59 3.3.3 6.7.5 10.1.9 10 .9 18.3 7.3 21.9 19.9 3.3 11.7 5.4 37 5.8 64.6.4 27.6-.6 58-2.4 82.2l-.8 10.5h41.8l.3-9.4c1.8-50.5 3.6-101.4 0-152.5-1.2-17.1-11.1-31.2-23.4-41.3-12.3-10.1-27.1-16.8-40.9-19.7-16-3.3-44.3-4.6-83.9-5.4-30.4-.6-67.2-.7-108.5-.8.6-93.6.6-169.2-2.2-169zm-17.4 19.4c-.3 49.9-.7 99.7-1.1 149.5h-25.7c-1-55.2-2.1-108.4-2.8-148.5 9.9-.3 19.8-.7 29.6-1zm-32.2 169.1h13c57.3 0 107.5 0 146.8.8 39.3.8 68.2 2.5 80.3 5 10.5 2.2 23 7.8 32.4 15.6 9.4 7.8 15.6 17.3 16.3 27.6 3.3 46.7 1.9 93.7.3 141h-1.9c1.4-22.8 2.2-49 1.8-73.5-.4-28.3-2-53.5-6.6-69.6-5.5-19.4-21-32.4-38.9-34.1-65.4-6.2-115.9 0-230.4 0s-165.2-6.2-230.7 0c-18.8 1.8-33.5 17-38.9 36.2-4.5 16-6.1 40.8-6.6 68.6-.4 24 .4 49.8 1.8 72.4h-1.9c-1.6-47.3-3-94.3.3-141 .7-10.4 6.9-20.2 16.3-28.1 9.4-7.9 21.8-13.4 32-15.1 29.8-4.7 109.4-5.7 214.6-5.8zm-154.1 29.6c42.3 0 90.3 2.7 167.2 2.7 85 0 134.6-3.3 180.2-2.6-28 14.5-69 34.5-96 41.9-33.6 9.2-60.3 10.4-82.3 10.4s-48.7-1.3-82.3-10.4c-27-7.4-68.1-27.4-96-41.9 3-.1 6.1-.1 9.2-.1zm72.2 65.7c-6.7.4-34 24.4-44 37.5-6.5 8.5-8.2 19.3-1.8 24.3 6.3 5 16.2.5 22.6-7.9 10.6-13.9 28.2-50.5 24.2-53.6-.2-.3-.5-.3-1-.3zm191.5 0c-.3 0-.6.1-.8.3-4 3.2 13.6 39.7 24.2 53.6 6.5 8.5 16.3 12.9 22.6 7.9 6.4-5 4.6-15.9-1.8-24.3-10.1-13.3-38-37.8-44.2-37.5zm-160 7.8h-.2c-5.8.6-27.6 31.7-34.3 47.2-4.3 9.8-3.4 20.7 4 24.1 7.3 3.3 15.8-3.4 20.1-13.2 7-16.1 15.5-55.9 10.9-58-.2-.1-.3-.1-.5-.1zm128.6 0c-.1 0-.2 0-.4.1-4.6 2.1 3.9 41.9 10.9 58 4.3 9.8 12.8 16.5 20.1 13.2 7.4-3.3 8.2-14.3 3.9-24.1-6.7-15.8-29.1-47.7-34.5-47.2zm-90.6 5.8c-5.4.4-22.6 35.5-27 52.1-2.7 10.3-.2 21 7.6 23.1 7.7 2.1 15.1-5.9 17.8-16.2 4.5-17 6.8-57.7 1.9-59h-.3zm52.5 0h-.2c-4.9 1.3-2.6 42 1.9 59 2.7 10.3 10.1 18.3 17.8 16.2 7.8-2.1 10.3-12.8 7.6-23.1-4.3-16.9-21.9-52.6-27.1-52.1zm-27.4.5c-5.1.6-13 40-13 57.5 0 7.4 2.4 14.3 6.6 17.8l-17.2.1c.5 27.8.9 42.9 1.4 70.8-37.4 28.6-74.4 57.6-112 85.9-21 13.7-45.3 22.2-69.9 26.7-14.5-.1-29.2-10-43.5-3.7-8.4 6.5-11.3 24.2-.1 29.6 27.7 14.9 60.5 14.7 90.7 9 27.1-4.6 54.5-7.3 81.7-11.2 18.6-1.6 38.8-5.1 56 4.3 14.3 6.4 30.7 17 46.6 9.2 12.5-7.8 19.8-22.4 22.9-36.5 2.5-18.4-9.9-34.7-9.7-53-1.4-20-3.7-40-4.6-60 .2-22.7.4-42.6.8-71.2l-13.5.1c-3.4 27.1-6.4 50-6.6 75.5 2.1 23.2 3.3 46.5 6 69.6 1.6 12.4 9.6 23.9 7.9 36.5-3.2 10.4-10.9 28.1-24.6 19.8-16.2-6.2-31.6-16.8-49.7-15.6-33-.4-65.5 7-98.2 10.2-18.2 2.6-36.3 6.8-54.7 6.4 31.9-7.2 63.5-19.4 88.6-40.9 34.2-26.6 68.6-53.1 102.7-79.8 1.5-1.8 1.8-33.7 1.4-80.4 1.3.6 2.7 1 4.3 1 8 0 13.1-9.6 13.1-20.4 0-17.6-8.1-57.5-13.2-57.5-.1.2-.2.2-.2.2z"/></svg>