<svg xmlns="http://www.w3.org/2000/svg" viewBox="-10 0 1208 1160"><path d="M116 1160v-82q11-1 34-4.5t51-11.5q16-4 38.5-14t45-19q22.5-9 41.5-14 51-15 76-24t39-20q27-20 43.5-40t23-48.5Q514 854 512 809q-1-29-2-65t-2-76l-1-8q-19 36-57 26-21-6-30-25t-2-45q5-17 21-44.5t29-49.5l5-8q-25-7-48-16l-1 12q-4 26-10.5 56.5T399 614q-12 24-31 32.5t-39-1.5q-20-10-25-30t6-44q7-17 28-41t37-43q2-2 4-4.5t3-4.5q-11-6-21-12t-20-13l-6 16q-9 23-21.5 51.5T290 565q-17 20-37.5 24.5T214 580q-17-14-18-34.5t15-42.5q11-15 36.5-34t45.5-33q4-5 12-10-14-11-26.5-22T255 383q-23-21-43-35t-46-14q-31 0-44.5 30T108 429v493H-10V333q0-41 18-66.5t44.5-37Q79 218 107 218h380L478 0h263q0 24-1.5 61t-2.5 78q-1 41-2 79h346q27 0 54 11.5t45 37q18 25.5 18 66.5v589h-118V429q0-35-13.5-65t-44.5-30q-26 0-46.5 14T933 383q-11 10-23.5 21T883 426q3 2 6 4.5t6 5.5q20 14 45.5 33t36.5 34q16 22 15 42.5T974 580q-18 14-38.5 9.5T898 565q-11-16-23.5-44.5T852 468l-5-15q-10 7-20.5 13T805 478l8 9q16 19 37 43t28 41q11 24 6 44t-25 30q-20 10-39.5 1.5T788 614q-7-17-13.5-47.5T764 511l-2-13q-22 9-48 16l6 8q13 22 29 49.5t21 44.5q7 26-2 45t-31 25q-7 2-14 2t-13-2q-1 3-1 5.5v4.5q-4 42-7.5 86.5T696 866q-2 39-3.5 65.5T691 964q0 8 3 28t8 45q5 25 9 47-3 18-10.5 39t-24.5 37h-72q-13 0-38.5-5.5t-50-11Q491 1138 482 1138q-22 0-53 10t-57 12zm391-942h208q1-34 2-71.5t1.5-70.5q.5-33 1.5-55H499zM9 902h79V429q0-28 7.5-54.5T121 331q18-17 49-17t52 16q21 16 46 38 31 28 76.5 61t107 56.5Q513 509 594 509t142.5-23.5Q798 462 843.5 429t76.5-61q25-22 45-38t52-16q32 0 50 17t25.5 43.5q7.5 26.5 7.5 54.5v473h78V333q0-34-14.5-55t-37-31q-22.5-10-45.5-10H107q-23 0-45.5 10T24 278Q9 299 9 333zm953-337q11-8 11-21.5T962 516q-11-14-34.5-32T884 452l-17-14-4 4 8 19q8 23 20 50.5t22 40.5q11 14 24.5 17.5T962 565zm-736 0q24 18 48-13 11-13 22.5-40.5T317 461l8-19-5-4-16 14q-20 14-43.5 32T226 516q-11 14-11 27.5t11 21.5zm624 63q13-6 15.5-19t-5.5-29q-7-15-26-38.5T798 500l-11-12-7 3 3 16q4 25 10 54.5t13 43.5q7 17 19.5 22.5t24.5.5zm-513 0q28 11 45-23 7-14 12.5-43.5T404 507l3-16-7-3-10 12q-17 18-36 41.5T327 580q-8 16-5 29t15 19zm395 39q13-3 18-16t1-29q-4-16-19-42t-29-47l-8-14-7 1v17q-1 25-.5 55t4.5 46q11 37 40 29zm-276 0q13 4 24-4t15-25q4-16 5-46t0-55v-17l-7-1-9 14q-13 21-28 47t-19 42q-4 16 1 29t18 16zm-321 472l231-1q15 0 37-5.5t43.5-11q21.5-5.5 35.5-5.5 11 0 36.5 6t51 11.5q25.5 5.5 37.5 5.5h57q7-6 16-22.5t10-33.5q-1-3-3.5-19t-6-36.5q-3.5-20.5-6-38.5t-2.5-25q0-8 .5-35t2-65.5Q676 825 679 781t8-87q0-2 .5-8t1.5-13q-10-11-16-30-4-18-4.5-49.5T668 537v-14q-12 2-25.5 3.5T616 528l5 15q7 25 15 55.5t8 48.5q0 27-13.5 43T594 706q-23 0-36.5-16T544 647q0-18 8-48.5t15-55.5q1-3 2-7l2-8q-14 0-26-1t-24-3q2 46 3.5 85t2.5 59l5 141q2 71-14.5 111T454 992q-13 10-43 19.5t-83 24.5q-19 5-41.5 14.5t-44 19Q221 1079 205 1083q-53 14-70 14zm459-453q13 0 21.5-10.5T624 647q0-17-7.5-46T602 549l-6-20h-5l-5 20q-7 23-14.5 52t-7.5 46q0 18 8.5 28.5T594 686z" fill="currentColor"/></svg>