<svg xmlns="http://www.w3.org/2000/svg" viewBox="-10 0 1208 1193"><path d="M594 1193q-27 0-42-28.5t-15-93.5q0-15 1.5-49t3.5-77q2-43 4-85-1-4-1.5-9t-.5-10q0-7 1.5-17t3.5-21q3-62 5-81-9-1-18-2.5t-17-2.5l1 14q0 25-.5 56.5T514 837q-7 25-24.5 37t-39.5 6q-21-6-30-25t-2-45q5-17 21-44.5t29-49.5l5-8q-25-7-48-16l-1 12q-4 26-10.5 56.5T399 808q-12 24-31 32.5t-39-1.5q-20-10-25-30t6-44q7-17 28-41t37-43q2-2 4-4.5t3-4.5q-11-6-21-12t-20-13l-6 16q-9 23-21.5 51.5T290 759q-17 20-37.5 24.5T214 774q-17-14-18-34.5t15-42.5q11-15 36.5-34t45.5-33q4-5 12-10-14-11-26.5-22T255 577q-23-21-43-35t-46-14q-31 0-44.5 30T108 623v493H-10V527q0-41 18-66.5t44.5-37Q79 412 107 412h457v-30q-33-12-60-44.5T461.5 261Q446 217 446 172q0-46 19.5-73.5t44.5-41Q535 44 552 40V0h83v40q18 4 43 17.5t44 41q19 27.5 19 73.5 0 45-15.5 89t-42 76.5Q657 370 624 382v30h457q27 0 54 11.5t45 37q18 25.5 18 66.5v589h-118V623q0-35-13.5-65t-44.5-30q-26 0-46.5 14T933 577q-11 10-23.5 21T883 620q3 2 6 4.5t6 5.5q20 14 45.5 33t36.5 34q16 22 15 42.5T974 774q-18 14-38.5 9.5T898 759q-11-16-23.5-44.5T852 662l-5-15q-10 7-20.5 13T805 672l8 9q16 19 37 43t28 41q11 24 6 44t-25 30q-20 10-39.5 1.5T788 808q-7-17-13.5-47.5T764 705l-2-13q-22 9-48 16l6 8q13 22 29 49.5t21 44.5q7 26-2 45t-31 25q-21 6-38.5-6T673 837q-4-18-4.5-49.5T668 731v-14q-8 1-17 2.5t-18 2.5l5 79q2 12 4 22.5t2 17.5q0 13-3 20 2 42 4.5 84.5t4 76.5q1.5 34 1.5 49 0 65-15 93.5t-42 28.5zm0-826q35 0 64.5-29t46.5-74q17-45 17-92 0-34-13-56t-31.5-34.5Q659 69 641.5 64T616 59V19h-44v40q-8 0-25.5 5t-36 17.5Q492 94 479 116t-13 56q0 47 17 92t46.5 74q29.5 29 64.5 29zm-11 45h22v-26q-4 1-11 1t-11-1zM9 1096h79V623q0-28 7.5-54.5T121 525q18-17 49-17t52 16q21 16 46 38 31 28 76.5 61t107 56.5Q513 703 594 703t142.5-23.5Q798 656 843.5 623t76.5-61q25-22 45-38t52-16q32 0 50 17t25.5 43.5q7.5 26.5 7.5 54.5v473h78V527q0-34-14.5-55t-37-31q-22.5-10-45.5-10H107q-23 0-45.5 10T24 472Q9 493 9 527zm953-337q11-8 11-21.5T962 710q-11-14-34.5-32T884 646l-17-14-4 4 8 19q8 23 20 50.5t22 40.5q11 14 24.5 17.5T962 759zm-736 0q24 18 48-13 11-13 22.5-40.5T317 655l8-19-5-4-16 14q-20 14-43.5 32T226 710q-11 14-11 27.5t11 21.5zm111 63q28 11 45-23 7-14 12.5-43.5T404 701l3-16-7-3-10 12q-17 18-36 41.5T327 774q-8 16-5 29t15 19zm513 0q13-6 15.5-19t-5.5-29q-7-15-26-38.5T798 694l-11-12-7 3 3 16q4 25 10 54.5t13 43.5q7 17 19.5 22.5t24.5.5zm-394 39q13 4 24-4t15-25q4-16 5-46t0-55v-17l-7-1-9 14q-13 21-28 47t-19 42q-4 16 1 29t18 16zm276 0q13-3 18-16t1-29q-4-16-19-42t-29-47l-8-14-7 1v17q-1 25-.5 55t4.5 46q11 37 40 29zm-138 19q13 0 21.5-10.5T624 841q0-17-7.5-46T602 743l-6-20h-5l-5 20q-7 23-14.5 52t-7.5 46q0 18 8.5 28.5T594 880zm0 294q17 0 27-24t10-79q0-13-1-42t-3-65q-2-36-4-74-11 10-29 10-19 0-30-10-2 38-4 74t-3 65q-1 29-1 42 0 55 10 79t28 24z" fill="currentColor"/></svg>