<svg xmlns="http://www.w3.org/2000/svg" viewBox="0 0 592.6 598.6"><path d="M268.2 0v27.7c-25.1 6.1-45.5 25.6-43.9 90.6 1 41.2 27.2 80.5 49.2 88.4l-.5 32.1c-99.5.1-173.3.7-206.5 6.1-14.2 2.3-29.1 9.1-41.3 19.3C13 274.5 3.2 288.7 2 305.7c-3.6 51-1.8 101.7 0 152l.3 9.4H44l-.8-10.5c-1.8-24.2-2.9-53.9-2.4-80.9.4-27 2.5-51.6 5.8-63.3 3.6-12.8 12.9-21.1 21.8-22 4.6-.4 9.2-.8 13.7-1.1 11.4 6.5 83 46.6 129.1 59.1 35.6 9.7 64.5 11.1 87.2 11.1 22.7 0 51.6-1.4 87.2-11.1 45.5-12.4 115.9-51.6 128.6-58.9 3.3.3 6.7.5 10.1.9 9.9.9 18.3 7.3 21.8 19.9 3.3 11.6 5.4 36.9 5.8 64.4.4 27.5-.6 57.8-2.4 81.9l-.8 10.5h41.6l.3-9.4c1.8-50.3 3.5-101 0-152-1.2-17.1-11.1-31.1-23.3-41.1-12.2-10.1-27-16.7-40.7-19.6-15.9-3.3-44.2-4.6-83.6-5.4-34.2-.7-76.7-.8-124.5-.8l-.9-30.7c34.3-9.2 49.8-59 50.8-89.4 2.1-65.8-25-85.6-47.4-91.6V0h-52.8zm19.1 19H302v26.7c9.7-.3 15.7-.4 20.4 1.6C348 56.4 349.8 96 348.9 118c-1.3 30.4-16.5 65.7-39.4 71.4-9.4 2.7-21 3.1-30.2-.8-15.8-7.1-35.6-42.7-35.6-70.2 0-44.6 7-63 25.3-71.1 5.9-2.4 12.3-1.5 18.5-1.7V19zm7.6 197.9l1.1 21.9h-1.6l.5-21.9zm-11.5 41.4h12.9c57.1 0 107.1 0 146.2.8 39.1.8 68 2.5 80 5 10.4 2.2 22.9 7.8 32.3 15.6 9.4 7.8 15.6 17.2 16.3 27.5 3.3 46.5 1.9 93.4.3 140.5h-1.9c1.4-22.7 2.2-48.8 1.8-73.2-.4-28.2-2-53.3-6.5-69.4-5.4-19.3-21-32.3-38.8-34-65.2-6.2-115.5 0-229.6 0s-164.6-6.2-229.9 0c-18.8 1.8-33.4 17-38.8 36.1-4.5 16-6.1 40.7-6.5 68.3-.4 24 .4 49.6 1.8 72.2h-1.9c-1.6-47.1-3-94 .3-140.5.7-10.3 6.9-20.1 16.3-28 9.4-7.9 21.7-13.4 31.8-15 29.8-4.9 109.1-5.9 213.9-5.9zm-153.5 29.5c42.1 0 90 2.7 166.6 2.7 84.7 0 134.1-3.3 179.5-2.6-27.9 14.5-68.7 34.4-95.6 41.7-33.5 9.1-60.1 10.4-82 10.4s-48.6-1.3-82-10.4c-26.9-7.3-67.8-27.3-95.7-41.8h9.2zm71.9 65.4c-6.6.4-33.9 24.3-43.8 37.4-6.4 8.4-8.2 19.2-1.8 24.2 6.3 4.9 16.1.6 22.5-7.9 10.6-13.9 28.1-50.3 24.1-53.4-.2-.2-.5-.3-1-.3zm190.8 0c-.3 0-.6.1-.8.3-4 3.1 13.6 39.6 24.1 53.4 6.4 8.4 16.3 12.8 22.5 7.9 6.4-5 4.6-15.8-1.8-24.2-10-13.2-37.8-37.6-44-37.4zM233.2 361h-.2c-5.8.6-27.5 31.6-34.2 47-4.3 9.8-3.4 20.7 4 24 7.3 3.3 15.8-3.4 20-13.1 7-16.1 15.5-55.7 10.9-57.8-.2-.1-.3-.1-.5-.1zm128.2 0c-.1 0-.2 0-.3.1-4.6 2.1 3.9 41.7 10.9 57.8 4.3 9.8 12.8 16.4 20 13.1 7.4-3.3 8.2-14.2 3.9-24-6.9-15.7-29.2-47.5-34.5-47zm-90.3 5.8c-5.3.4-22.5 35.3-26.9 51.9-2.7 10.3-.2 20.9 7.6 23.1 7.7 2.1 15.1-5.8 17.8-16.1 4.5-17 6.8-57.5 1.9-58.8-.2-.1-.3-.1-.4-.1zm52.3 0h-.2c-4.9 1.3-2.6 41.8 1.9 58.8 2.7 10.3 10.1 18.2 17.8 16.1 7.8-2.1 10.3-12.8 7.6-23.1-4.4-16.7-22-52.3-27.1-51.8zm-27.4.5c-5 .6-13 39.8-13 57.3 0 5.2 1.2 10.1 3.3 13.8h-16.5l-2.5 160.2H329l-4.7-160.2h-18.4c2.1-3.7 3.3-8.6 3.3-13.8 0-17.6-8.1-57.3-13.1-57.3h-.1zm9.4 72l.5 16.4h-16.2l.3-13.2c1.8 1.5 3.9 2.3 6.3 2.3 3.7 0 6.8-2.1 9.1-5.5zm1 35.4l.3 11.9h-17.8l.3-11.9h17.2zm-17.9 31l18.8.3.5 17.9-19.7.2.4-18.4zm19.9 37.2l1.1 36.6h-22.6l.8-36.3 20.7-.3z"/></svg>