<svg xmlns="http://www.w3.org/2000/svg" viewBox="-10 0 1014 1223"><path d="M419 1223l20-34v-51l30-31V954q-12-16-12-45 0-19 7-43t12-37q-13 0-25-1.5t-23-2.5q1 13 3 38.5t-3 45.5q-6 24-20.5 39.5T375 959q-19-5-25-25t-1-44q4-20 17-41t21-33q-23-7-40-15-1 13-3.5 37.5T333 882q-10 22-27 34t-34 5q-17-7-20-28t6-43q8-20 26-40.5t27-29.5q-8-4-15-10t-15-12q-4 12-12 37t-21 42q-15 19-34.5 27t-35.5-3q-15-11-12.5-32t17.5-41q13-17 35.5-33t32.5-22q-4-4-9-8.5t-9-8.5q-23-20-43.5-34T144 668q-31 0-45 30t-14 64v392h-95V678q0-62 32.5-89T95 562h374V391q0-37-2-61t-9-34l-14 30-11 26q-9 24-12.5 43t-4.5 44h-42q-1-11-2-29.5t-1-34.5v-23.5l2-22.5q6-45 17-75t23-55q7-14 16-29.5t18-29.5q8-13 15-24.5T472 97q7-17 10-46t3-51h29q11 9 22.5 31.5T548 86q0 32-10 61.5t-22.5 53Q503 224 493 237q16 11 23.5 32.5t9 47Q527 342 527 363v199h372q41 0 73 27t32 89v476h-95V762q0-34-13.5-64T851 668q-26 0-46 14t-43 34l-18 17q9 5 32 21t36 34q14 20 16.5 41T816 861q-16 11-35 3t-34-27q-13-17-21.5-41.5T713 758q-8 6-15 12t-15 10q8 8 26.5 28.5T736 850q10 22 7 43t-20 28q-18 7-35-5t-27-34q-8-18-10.5-42.5T648 801q-11 5-21 8.5t-20 6.5q8 11 21 32.5t17 41.5q5 24-1 44t-24 25q-19 5-33.5-10.5T566 909q-5-20-3-45.5t3-38.5q-11 1-23 2.5t-25 1.5q5 13 12.5 36.5T538 909q0 24-11 43v155l30 31v51l20 34h-59l-13-29v-35l-7-8-7 8v35l-13 29zm-30-804h8q3-33 17-74 5-16 16-37.5t22-40.5q7-12 12-20.5t9-14.5q8-11 21-33t23.5-51Q528 119 528 86q0-21-7.5-39T506 20h-2q0 14-3 40.5T489 105q-4 8-11 21.5T463 150l-18 30-15 28q-11 23-21.5 51.5T393 332q-2 10-3 22t-1 22q-1 19-.5 28t.5 15zm44-136l-20-10 26-56 20 9zm55 279h19V373q0-34-4-69.5T482 255l-11 18q11 12 14 41.5t3 76.5zM9 1134h57V762q0-28 7.5-54T99 665q18-17 49-17t51.5 16q20.5 16 45.5 38 33 28 65.5 53t76.5 40q44 15 110 15t110-15q44-15 77-40t65-53q26-22 46-38t51-16q31 0 49.5 17t26 43q7.5 26 7.5 54v372h56V678q0-52-26-74t-60-22H95q-34 0-60 22T9 678zm795-288q8-6 5-19.5T796 800q-12-16-33.5-32T730 745l-2 2q4 11 13.5 36.5T762 825q11 13 23 20t19 1zm-614 0q7 6 19-1t23-20q11-16 21-41t14-37l-3-2q-10 6-32 22.5T198 800q-10 13-12.5 26.5T190 846zm525 58q9-4 9.5-18t-6.5-28q-7-18-23.5-38T669 790l-5 2q1 14 4.5 39.5T679 874q7 15 17 24.5t19 5.5zm-436 0q9 4 19-5.5t17-24.5q7-17 10.5-42.5T330 792l-5-2q-8 9-25 29.5T276 858q-6 14-6 28t9 18zm100 36q10 2 18-9t12-27q4-17 3-42.5t-2-39.5l-6-1q-7 11-19 33t-17 41q-4 16-1.5 29.5T379 940zm236 0q10-2 12.5-15.5T626 895q-5-18-17-40.5T589 821l-5 1q-1 14-2 39t3 43q4 16 12.5 27t17.5 9zm-118 11q10 0 15.5-12.5T518 909q0-18-6.5-42.5T500 829h-6q-5 13-11.5 37t-6.5 43q0 17 5.5 29.5T497 951zm-45 251h12l7-15v-38l27-28 26 28v38l7 15h13l-7-15v-41l-30-31V969q-3 1-10 1-6 0-9-1v146l-29 31v41z" fill="currentColor"/></svg>