<svg xmlns="http://www.w3.org/2000/svg" viewBox="0 0 594.8 570.9"><path d="M401.3 208.5H193.5c13 43.2 4.3 77.5-26.2 102.9 86.8 55.6 173.6 55.4 260.3-.5-31.9-24-40.7-58.2-26.3-102.4zM296.9 353.6l8.2 19c12.7 36.4 15.3 58.8 7.7 67.4-10.6 11.7-21.3 11.7-31.9 0-7.5-8.6-4.8-31 8.2-67.4l7.8-19zm.5 25.2l-2.6 10.3c-5.8 17.5-8.2 29.3-7.2 35.5 1 6.2 4.3 9.3 9.8 9.3 5.5 0 8.7-3.2 9.8-9.5s-1.4-18.1-7.2-35.2l-2.6-10.4zm28.3-27.3l11.3 17c18.9 33.6 25.4 55.1 19.6 64.3-8.6 13.7-19 15.6-31.4 5.7-8.9-6.9-10.3-29.3-4.1-67.4l4.6-19.6zm4.6 24.2l-.5 10.3c-2.7 18.5-3.1 30.7-1 36.5 2.1 5.8 5.8 8.4 11.3 7.7 5.5-1 8.1-4.8 8-11.3-.2-6.5-4.5-17.7-13.1-33.4l-4.7-9.8zm-71 9.8c-8.6 16.1-12.9 27.4-13.1 33.7-.2 6.3 2.5 10 8 11.1 5.5 1 9.3-1.5 11.3-7.5 2.1-6 1.7-18.1-1-36.3l-.5-10.8-4.7 9.8zm13.9-13.9c6.2 38.1 4.8 60.5-4.1 67.4-12.3 9.9-22.8 8.1-31.4-5.7-5.8-9.6.7-31.2 19.6-64.8l11.3-17 4.6 20.1zm-47.3 5.7c-11.3 14.4-17.6 24.8-18.8 31.1-1.2 6.3.8 10.4 5.9 12.1 5.1 2.1 9.2.3 12.1-5.1 2.9-5.5 4.9-17.5 5.9-36l.5-10.8-5.6 8.7zm15.9-11.4c-.3 38.4-5.5 60.4-15.4 65.9-14.1 7.5-24 3.8-29.8-11.3-4.5-10.3 5.5-30.2 29.8-59.7l14.4-15.4 1 20.5zm-49.4-.5c-13.4 12-21.2 21-23.4 27-2.2 6-1.1 10.4 3.3 13.1 4.8 2.7 9.2 1.6 13.1-3.3 3.9-5 8-16.4 12.1-34.2l2.6-10.3-7.7 7.7zm18-8.7c-6.9 38.1-15.8 58.8-26.8 62.3-15.1 5.1-24.2-.3-27.3-16.5-2.7-11 10.6-28.8 40.1-53.5l16.5-12.3-2.5 20zm-49.9-7.2c-15.4 9.3-24.8 16.6-28 22.1-3.3 5.5-2.8 10.1 1.3 13.9 4.1 3.4 8.6 3.1 13.4-1 4.8-4.1 10.6-14.7 17.5-31.9l4.6-9.8-8.8 6.7zm19.1-5.7c-13.4 36.4-25.7 55.2-37 56.6-15.8 2.4-23.8-4.5-24.2-20.6-.7-11.3 15.6-26.8 48.9-46.3l18.5-9.3-6.2 19.6zm227.9-21.1l18.5 9.8c33.3 19.2 49.6 34.5 48.9 45.8-.3 16.1-8.4 23-24.2 20.6-11.3-1.4-23.8-20.1-37.6-56.1l-5.6-20.1zm16.5 19.1l4.1 9.8c7.2 16.8 13.1 27.4 17.8 31.6 4.6 4.3 9.2 4.5 13.6.8 4.1-3.4 4.5-7.9 1.3-13.4-3.3-5.5-12.6-13-28-22.6l-8.8-6.2zm-42.2-5.7l16.5 12.3c29.2 25 42.5 42.9 40.1 53.5-3.1 16.1-12.2 21.6-27.3 16.5-11-3.4-19.9-24.2-26.8-62.3l-2.5-20zm12.8 21.1l2.6 10.3c4.1 18.2 8.1 29.7 12.1 34.5 3.9 4.8 8.3 5.8 13.1 3.1 4.5-2.7 5.6-7.1 3.3-13.1-2.2-6-10-15-23.4-27l-7.7-7.8zM354 344.8l14.4 15.4c24.4 29.5 34.3 49.4 29.8 59.7-5.8 15.1-15.8 18.9-29.8 11.3-9.9-5.1-15.1-27.1-15.4-65.9l1-20.5zm8.7 23.2l1 10.8c.7 18.5 2.6 30.5 5.7 36s7.2 7.2 12.3 5.1c5.1-1.7 7.1-5.7 5.9-12.1-1.2-6.3-7.5-16.7-18.8-31.1l-6.1-8.7zM51.5 247.6c-14.1-5.1-22-15.3-23.7-30.4l1.5-8.7c-7.9 0-12.9 11.3-14.9 34v219.2h32.4V261.5c0-5.8 1.6-10.5 4.7-13.9zm22.1 0l82.3 57.6c31.2-24.7 39.6-56.9 25.2-96.7H99.8l.5 6.7c-1.3 18.2-10.3 29-26.7 32.4zm-8.3-46.8c8.2 0 12.9 4.6 13.9 13.9-1 8.6-5.7 13.2-13.9 13.9-8.2-.7-12.9-5.3-13.9-13.9 1.1-9.3 5.7-13.9 13.9-13.9zM90 215.2c-1.7-14.7-10.1-22.5-25.2-23.2-13.7 1.4-22.3 9.1-25.7 23.2 3.1 14.7 11.7 23 25.7 24.7 14.8-1.7 23.2-10 25.2-24.7zm-32.4-.5c.7 4.8 3.3 7.4 7.7 7.7 4.5-.3 7-2.9 7.7-7.7-.7-4.8-3.3-7.2-7.7-7.2s-7 2.4-7.7 7.2zm461.6 32.9c-14.4-3.8-22-14.6-22.6-32.4l1.5-6.7h-84.4c-14.7 39.4-6.3 71.7 25.2 96.7l80.3-57.6zm25.2.5c2.4 3.1 3.6 7.7 3.6 13.9v199.6h32.4V242.5c-1.4-20.6-6-30.9-13.9-30.9l1.5 7.2c-1 14-8.9 23.8-23.6 29.3zm13.3-54c25-.3 37.4 17.3 37 53v229.5h-61.2V265.1c0-5.5-1.5-8.4-4.6-8.7-31.6 21.6-59.3 42.4-83.4 62.3-64.1 34-113.2 51-147.2 51.2-34 .2-83.7-16.9-149.2-51.2L65.7 257c-3.1.3-4.6 3.1-4.6 8.2v212H0v-230c-.3-35.3 12.2-53 37.6-53 5.5-7.9 14.6-12 27.3-12.3 13 .7 22.5 4.8 28.3 12.3h410.6c3.4-7.2 12.2-11.3 26.2-12.3 14 .9 23.3 5 27.7 12.2zm-27.2 6.7c8.2 0 12.9 4.6 13.9 13.9-1 8.6-5.7 13.4-13.9 14.4-8.2-1-12.9-5.8-13.9-14.4 1-9.3 5.6-13.9 13.9-13.9zm24.7 14.4c-1.7-14.7-10.1-22.5-25.2-23.2-13.7 1.7-21.4 9.4-23.2 23.2 1.4 14.7 9.1 23.2 23.2 25.2 14.7-2.1 23.1-10.5 25.2-25.2zm-32.4 0c.3 4.5 2.9 7 7.7 7.7 4.5-.7 6.9-3.3 7.2-7.7-.3-5.1-2.7-7.7-7.2-7.7-4.8 0-7.4 2.5-7.7 7.7zM307.7 457c-.7 9.9 2.4 17.8 9.3 23.7 11.3 8.2 18.7 19.7 22.1 34.5 2.1 12.3 1 30-3.1 53-4.1 2.7-9.4 3.4-15.9 2.1 3.1-12 4.6-22.6 4.6-31.9 1.7-19.6-3.3-33.6-14.9-42.2-2.7-2.1-6.9-3.1-12.3-3.1-4.5 0-8.4 1.2-11.8 3.6-12 8.6-17.2 22.5-15.4 41.7 0 8.9 1.5 19.6 4.6 31.9-6.2 1.4-11.3.7-15.4-2.1-4.1-23-5.1-40.8-3.1-53.5 4.1-14.4 11.8-25.7 23.2-34 5.8-5.8 8.4-13.7 7.7-23.7V103.5c0-13.7-5.1-20.6-15.4-20.6-4.5 2.1-9.9 5.7-16.5 10.8-11 9.9-19.1 22.4-24.4 37.3-5.3 14.9-9.3 26.5-12.1 34.7-8.2 14.4-12.7 12.5-13.4-5.7 9.3-32.9 16.5-54.5 21.6-64.8 5.1-10.3 8.2-17 9.3-20.1 4.5-11 13.5-21.8 27.3-32.4 16.8-18.2 31-31.7 42.7-40.6 13.4-4.5 19-2.1 17 7.2-3.8 8.6-8.9 14.6-15.4 18-14.4 14.1-24.2 25.6-29.3 34.5 19.2 1 29 14.9 29.3 41.7V457z"/></svg>