<svg xmlns="http://www.w3.org/2000/svg" viewBox="-10 0 1014 1310"><path d="M419 806l20-34v-51l30-31V390q0-37-2-61t-9-33q-7 15-14 29.5T433 351q-9 25-12.5 43.5T416 438h-42q-1-11-2-29t-1-34v-23.5l2-22.5q6-46 17-75.5t23-54.5q7-15 16-30.5t18-29.5q8-12 15-23.5T472 96q7-16 10-45t3-51h29q11 9 22.5 31.5T548 86q0 32-10 61.5T515.5 200Q503 223 493 237q16 11 23.5 32.5t9 47Q527 342 527 363v327l30 31v51l20 34h-59l-13-29v-35l-7-8-7 8v35l-13 29zm-30-387h8q3-33 17-74 5-16 16-37.5t22-41.5q7-11 12-19.5t9-14.5q8-11 21-33t23.5-51Q528 119 528 86q0-21-7.5-39.5T506 19h-2q0 14-3 40.5T489 104q-4 9-11 22.5T463 150l-18 30-15 27q-11 24-21.5 52.5T393 332q-2 10-3 22t-1 22q-1 19-.5 27.5t.5 15.5zm44-137l-20-9 26-56 20 9zm19 503h12l7-15v-38l27-28 26 28v38l7 15h13l-7-15v-41l-30-31V373q0-23-1.5-47t-7-43.5Q493 263 482 255l-11 18q11 12 14 41.5t3 75.5v308l-29 31v41zm-462 525V931q0-61 32.5-88T95 816h804q41 0 73 27t32 88v379h-95V991q0-34-13.5-64T851 897q-26 0-46 14t-43 35l-18 16q9 6 32 21.5t36 33.5q14 20 16.5 41.5T816 1091q-16 11-35 3t-34-27q-13-17-21.5-42T713 988q-8 5-15 11t-15 11q8 8 26.5 28.5T736 1079q10 23 7 44t-20 28q-18 7-35-5t-27-35q-8-18-10.5-42.5T648 1030q-19 8-41 16 8 10 21 32t17 41q5 24-1 44.5t-24 24.5q-19 4-33.5-11t-20.5-39q-5-20-3-45t3-39q-11 2-23 3t-25 1q5 13 12.5 36.5t7.5 43.5q0 20-9.5 40.5T497 1199q-23 0-31.5-21.5T457 1138q0-20 7-43.5t12-36.5q-13 0-25-1t-23-3q1 13 3 38.5t-3 45.5q-6 24-20.5 39t-32.5 11q-19-4-25-24.5t-1-44.5q4-19 17-40.5t21-32.5q-10-4-20.5-8t-19.5-8q-1 14-3.5 38t-10.5 43q-10 23-27 35t-34 5q-17-7-20-28t6-44q8-20 26-40.5t27-28.5q-8-5-15-11t-15-11q-4 11-12 36t-21 43q-15 19-34.5 27t-35.5-3q-15-11-12.5-32.5T183 1017q13-17 35.5-33t32.5-22q-4-4-9-8t-9-8q-23-21-43.5-35T144 897q-31 0-45 30t-14 64v319zm19-20h57V991q0-27 7.5-53.5T99 894q18-17 49-17t51.5 15.5Q220 908 245 931q33 29 65.5 53.5T387 1024q44 15 110 15t110-15q44-15 77-39.5t65-53.5q26-23 46-38.5t51-15.5q31 0 49.5 17t26 43.5Q929 964 929 991v299h56V931q0-51-26-73.5T899 835H95q-34 0-60 22.5T9 931zm795-215q8-6 5-19t-13-26q-12-16-33.5-32.5T730 974l-2 2q4 11 13.5 36.5T762 1054q11 14 23 20.5t19 .5zm-614 0q7 6 19-.5t23-20.5q11-16 21-41t14-37l-3-2q-10 6-32 23t-34 33q-10 13-12.5 26t4.5 19zm525 58q9-4 9.5-17.5T718 1087q-7-18-23.5-38t-25.5-30l-5 2q1 13 4.5 39t10.5 43q7 15 17 24.5t19 5.5zm-436 0q9 4 19-5.5t17-24.5q7-17 10.5-42.5t4.5-39.5l-5-2q-8 10-25 30t-24 38q-6 15-6 28.5t9 17.5zm336 36q10-2 12.5-15.5T626 1124q-5-18-17-40t-20-34l-5 1q-1 13-2 38.5t3 44.5q4 16 12.5 26.5t17.5 8.5zm-236 0q10 2 18-8.5t12-26.5q4-18 3-43.5t-2-39.5l-6-1q-7 11-19 33t-17 41q-4 16-1.5 29.5T379 1169zm118 11q10 0 15.5-13t5.5-29q0-18-6.5-42t-11.5-38h-6q-5 14-11.5 38t-6.5 42q0 16 5.5 29t15.5 13z" fill="currentColor"/></svg>