<svg xmlns="http://www.w3.org/2000/svg" viewBox="0 0 584.7 594.5"><path d="M556.7 161.8v-58.1H27.3v58.1h529.4zM147.8 18.2H74.9l25.9 60.2h21.7l25.3-60.2zm-36.5 219.2c-14 34.5-21.6 86.1-22.8 154.8s.1 114.5 3.9 137.6c3.7 23.1 10 34.7 18.9 34.7 9.3 0 15.8-11.6 19.3-34.7s4.8-69 3.9-137.6c-1-68.7-8.7-120.3-23.2-154.8zM330.5 18.2h-72.8l25.9 60.2h21l25.9-60.2zm183.5 0h-72.8l25.2 60.2h21.7L514 18.2zm-39.2 219.2c-14.5 34.5-22.2 86.1-23.1 154.8-.9 68.6.4 114.5 3.9 137.6 3.5 23.1 9.9 34.7 19.3 34.7 8.9 0 15.2-11.6 18.9-34.7 3.7-23.1 5-69 3.9-137.6-1.3-68.7-8.9-120.3-22.9-154.8zm-180.7 0c-14.5 34.5-22.2 86.1-23.1 154.8-.9 68.6.4 114.5 3.9 137.6 3.5 23.1 9.9 34.7 19.3 34.7 9.3 0 15.8-11.6 19.3-34.7s4.8-69 3.9-137.6c-1.1-68.7-8.8-120.3-23.3-154.8zm25.2-50.4v38.5c9.8 39.2 17.4 77.5 22.8 114.8s7.4 76.3 6 116.9c-1.4 40.6-5.6 73.6-12.6 99.1-7 25.4-20.8 38.2-41.3 38.2-20.5 0-34.3-12.6-41.3-37.8-7-25.2-11.2-58.2-12.6-99.1-1.4-40.8.6-79.9 6-117.3 5.4-37.3 12.3-75.6 20.7-114.8V187H136.6v38.5c10.3 39.2 18 77.5 23.1 114.8 5.1 37.3 7 76.3 5.6 116.9-1.4 40.6-5.6 73.6-12.6 99.1-7 25.4-20.8 38.2-41.3 38.2-20.5 0-34.3-12.6-41.3-37.8S59 498.5 57.8 457.6c-1.2-40.8.8-79.9 6-117.3 5.1-37.3 12.1-75.6 21-114.8V187H51.1L0 216.4v-138h77.7L44.1 0h134.5l-32.9 78.4h114.1L226.2 0h135.2l-32.9 78.4h114.8L409.7 0h134.5l-32.9 78.4h73.5v138L532.9 187H500v38.5c9.8 39.2 17.3 77.5 22.4 114.8 5.1 37.3 7.1 76.3 6 116.9-1.2 40.6-5.4 73.6-12.6 99.1-7.2 25.4-20.9 38.2-41 38.2-20.5 0-34.3-12.6-41.3-37.8-7-25.2-11.2-58.2-12.6-99.1-1.4-40.8.5-79.9 5.6-117.3 5.1-37.3 12.1-75.6 21-114.8V187H319.3z"/></svg>