<svg xmlns="http://www.w3.org/2000/svg" viewBox="-10 0 1133 1109"><path d="M186 1109q-25 0-46-45.5t-34.5-125Q92 859 92 759q0-104 16-208t48-219h-50L-10 443V134h128L80 0h211l-38 134h236L451 0h211l-39 134h236L821 0h211l-38 134h129v309l-116-111h-51q33 115 48.5 219t15.5 208q0 100-13.5 179.5t-34.5 125q-21 45.5-45 45.5t-45-45.5q-21-45.5-34.5-125T834 759q0-104 15.5-208T897 332H586q32 115 47.5 219T649 759q0 100-13 179.5t-34 125q-21 45.5-46 45.5-24 0-45.5-45.5t-34.5-125Q463 859 463 759q0-104 15.5-208T526 332H215q32 115 48 219t16 208q0 100-13 179.5t-34.5 125Q210 1109 186 1109zm-48-975h94l33-114H106zm371 0h94l32-114H477zm370 0h94l33-114H847zM9 397l89-85h917l88 85V154H9zm177 689q14 0 27-28.5t23.5-75.5Q247 935 253 877t6-118q0-104-16.5-209T195 332h-19q-31 113-47.5 218T112 759q0 60 6 118t16.5 105q10.5 47 23.5 75.5t28 28.5zm370 0q15 0 28-28.5t23.5-75.5Q618 935 624 877t6-118q0-104-16.5-209T566 332h-20q-31 113-47 218t-16 209q0 60 6 118t16.5 105q10.5 47 23.5 75.5t27 28.5zm371 0q14 0 27.5-28.5t24-75.5Q989 935 995 877t6-118q0-104-17-209t-48-218h-19q-31 113-47.5 218T853 759q0 60 6 118t16.5 105q10.5 47 23.5 75.5t28 28.5z" fill="currentColor"/></svg>