<svg xmlns="http://www.w3.org/2000/svg" viewBox="0 0 439.2 594.5"><path d="M266.8 72.3c0-12.3-4.1-24.1-12.3-35.4-10.3-13.8-21.8-20.8-34.6-20.8-14.4-.5-27.4 6.9-39.2 22.3-6.7 10.3-10 21.5-10 33.8-1.5 10.3.5 22 6.2 35.4 9.2 14.4 23.3 22 42.3 23.1 16.9.5 29.5-6.9 37.7-22.3 8.1-13.8 11.4-25.8 9.9-36.1zm-56.9 386.1c5.1 4.6 5.1 10 0 16.2-3.6 0-6.8 5.4-9.6 16.2-2.8 10.8-4.2 21.5-4.2 32.3s1.4 21.4 4.2 31.9c2.8 10.5 9.4 15.8 19.6 15.8 9.7 0 16.2-5.3 19.2-15.8 3.1-10.5 4.6-21.2 4.6-31.9s-1.4-21.5-4.2-32.3c-2.8-10.8-6-16.2-9.6-16.2-4.6-6.2-4.6-11.5 0-16.2 3.6 0 6.8-5 9.6-15s4.2-20.4 4.2-31.1c0-10.8-1.4-21.4-4.2-31.9-2.8-10.5-6-15.8-9.6-15.8-4.6-6.2-4.6-11.8 0-16.9 3.6 0 6.8-4.9 9.6-14.6s4.2-20 4.2-30.8-1.4-21.5-4.2-32.3c-2.8-10.8-6-16.2-9.6-16.2-4.6-5.6-4.6-11 0-16.2 3.6 0 6.8-5.4 9.6-16.2 2.8-10.8 4.2-21.3 4.2-31.5 0-10.8-1.7-21.7-5-32.7-3.3-11-9.6-16.5-18.8-16.5-9.7 0-16.2 5.5-19.2 16.5-3.1 11-4.6 21.8-4.6 32.3 0 10.5 1.4 21.2 4.2 31.9 2.8 10.8 6 16.2 9.6 16.2 5.1 5.1 5.1 10.5 0 16.2-3.6 0-6.8 5.4-9.6 16.2-2.8 10.8-4.2 21.5-4.2 32.3s1.5 21 4.6 30.8c3.1 9.7 6.2 14.6 9.2 14.6 5.1 5.1 5.1 10.8 0 16.9-3.6 0-6.8 5.3-9.6 15.8s-4.2 21.2-4.2 31.9c0 10.8 1.4 21.2 4.2 31.1 2.8 10 6 15 9.6 15zM37.6 399.9c4.1 5.6 3.8 11.5-.8 17.7-3.6 0-6.9 5.3-10 15.8-3.1 10.5-4.6 21.2-4.6 31.9 0 10.8 1.5 21.5 4.6 32.3 3.1 10.8 9.5 16.2 19.2 16.2s16.2-5.4 19.2-16.2c3.1-10.8 4.6-21.5 4.6-32.3 0-10.8-1.4-21.4-4.2-31.9-2.8-10.5-6-15.8-9.6-15.8-4.6-5.6-4.4-10.3.8-13.8 3.6.5 7.6-3.7 11.9-12.7 4.4-9 7.3-18.7 8.8-29.2 1.5-10.5 1.8-21.4.8-32.7-1-11.3-3.3-17.2-6.9-17.7-3.6-7.2-2.6-11.5 3.1-13.1 3.6 1.5 8.2-1.7 13.8-9.6 5.6-7.9 10.4-16.8 14.2-26.5 3.8-9.7 6.2-20.1 6.9-31.1.8-11-.4-17.6-3.5-19.6-3.1-6.7-1.3-10 5.4-10 2.6 2.6 7.8.9 15.8-5 7.9-5.9 14.9-13.1 20.8-21.5 5.9-8.5 10.6-17.9 14.2-28.5 3.6-10.5 1.8-19.4-5.4-26.5-7.7-7.2-15.6-7.8-23.8-1.9-8.2 5.9-15.3 12.9-21.2 21.2-5.9 8.2-10.6 17.6-14.2 28.1-3.6 10.5-3.8 17-.8 19.6 1 7.7-1.8 13.1-8.5 16.2-3.6-2.1-8.6 1.3-15 10a110.3 110.3 0 0 0-15 28.1c-3.6 10-5.6 20.3-6.2 30.8-.5 10.5.8 16.5 3.8 18.1 3.6 6.7 2.3 12.3-3.8 16.9-3.6-.5-7.7 4.2-12.3 14.2-4.6 10-7.7 20.3-9.2 30.8-1.5 10.5-1.7 20.9-.4 31.1 1.5 10 3.9 15.6 7.5 16.6zm363.8 0c3.6-1 6-6.7 7.3-16.9 1.3-10.3 1.2-20.6-.4-31.1-1.5-10.5-4.6-20.8-9.2-30.8s-8.7-14.7-12.3-14.2c-5.6-4.6-6.9-10.3-3.8-16.9 3.1-1.5 4.4-7.6 3.8-18.1-.5-10.5-2.6-20.8-6.2-30.8s-8.6-19.4-15-28.1c-6.4-8.7-11.4-12-15-10-6.2-3.1-8.7-8.5-7.7-16.2 2.6-2.6 2.1-9.1-1.5-19.6-3.6-10.5-8.2-19.9-13.8-28.1-5.6-8.2-12.7-15.3-21.2-21.2-8.5-5.9-16.3-5.3-23.5 1.9-7.7 7.2-9.7 16-6.2 26.5s8.3 20 14.2 28.5c5.9 8.5 12.8 15.6 20.8 21.5 7.9 5.9 13.2 7.6 15.8 5 6.7 0 8.5 3.3 5.4 10-3.1 2.1-4.2 8.6-3.5 19.6.8 11 3.1 21.4 6.9 31.1 3.8 9.7 8.7 18.6 14.6 26.5 5.9 7.9 10.4 11.2 13.5 9.6 6.2 1.5 7.2 5.9 3.1 13.1-3.1.5-5.3 6.4-6.5 17.7-1.3 11.3-1 22.2.8 32.7 1.8 10.5 4.7 20.3 8.8 29.2 4.1 9 7.9 13.2 11.5 12.7 5.6 3.6 5.9 8.2.8 13.8-3.6 0-6.8 5.3-9.6 15.8s-4.2 21.2-4.2 31.9c0 10.8 1.7 21.5 5 32.3 3.3 10.8 9.6 16.2 18.8 16.2 10.3 0 16.8-5.4 19.6-16.2 2.8-10.8 4.2-21.5 4.2-32.3 0-10.8-1.4-21.4-4.2-31.9-2.8-10.5-6-15.8-9.6-15.8-5.1-5.8-5.6-11.7-1.5-17.4zM133.7 97.7c20.5-50.2 38.5-80.2 53.8-90 8.2-5.1 19-7.7 32.3-7.7 11.3 0 22 2.6 32.3 7.7 14.9 9.7 32.6 39.7 53.1 90 30.3 15.9 49.2 42.8 56.9 80.8 29.2 34.4 42.8 70.8 40.8 109.2 22 39 28.5 77.4 19.2 115.4 15.4 40.5 20.4 73.1 15 97.7-5.4 24.6-20.1 36.9-44.2 36.9-23.6 0-38.5-12.8-44.6-38.5-6.2-25.6-1.3-54.6 14.6-86.9-21-29.2-25.9-63.1-14.6-101.5-26.2-22-37.4-52.6-33.8-91.5-30.3-12.8-48.2-39-53.8-78.5l-10 8.5c15.4 29.2 14.6 61.3-2.3 96.1 16.9 39 16.9 75.4 0 109.2 16.9 39 16.9 75.9 0 110.8 16.9 34.9 22.3 65.1 16.2 90.8-6.2 25.6-21 38.5-44.6 38.5s-38.2-12.2-43.8-36.5c-5.6-24.4-.8-55.2 14.6-92.7-15.4-34.9-15.4-71.8 0-110.8-14.4-34.4-14.4-70.8 0-109.2-15.4-34.9-16.4-66.9-3.1-96.1l-8.5-8.5c-6.2 39.5-24.1 65.6-53.8 78.5 3.6 39-7.9 69.5-34.6 91.5 11.3 38.5 6.4 72.3-14.6 101.5 16.4 32.3 21.4 61.3 15 86.9-6.4 25.6-21.4 38.5-45 38.5s-38.3-12.5-44-37.1c-5.6-24.6-.5-57.2 15.4-97.7-9.7-37.9-3.6-76.4 18.5-115.4-2.1-38.5 11.5-74.9 40.8-109.2 7.7-37.9 26.9-64.9 57.7-80.8h-.9z"/></svg>