<svg xmlns="http://www.w3.org/2000/svg" viewBox="-10 0 564 1124"><path d="M37 1124l-14-14 52-51-60-55 59-49-59-50 60-52-60-58 60-48-60-51 60-52-60-55 59-50-59-47 60-55-60-48 60-55-61-56 46-33h-70V96h192q0-6 3-21.5t12-33Q206 24 224 12t48-12q30 0 47.5 12T346 41.5q9 17.5 12 33t3 21.5h193v149h-70l-48 35 59 54-60 55 60 48-59 54 59 47-60 51 60 55-60 52q14 12 31 26t29 25l-60 49 59 58-59 51q14 11 31 25t29 25l-60 49 59 54-67 66-13-14 52-51-60-55 59-49-59-50 60-52-60-58 59-48-59-51 59-52-59-55 59-50-60-47 60-55-60-48 60-55-60-56 45-33H289l-48 35 58 54-59 55 60 48-60 54 60 47-60 51 59 55-59 52q14 12 30.5 26t29.5 25l-61 49 60 58-59 51q32 25 60 50l-60 49 59 54-67 66-14-14 53-51-60-55 59-49-59-50 60-52-60-58 59-48-59-51 59-52-59-55 59-50-60-47 60-55-60-48 60-55-60-56 45-33H93l-48 35 59 54-59 55 60 48-60 54 60 47-60 51 59 55-59 52q14 12 30.5 26t29.5 25l-61 49 60 58-59 51q32 25 60 50l-60 49 59 54zM201 96h141q-1-7-5.5-25.5t-19-34.5Q303 20 272 20t-46 16q-15 16-20 34.5T201 96zM9 226h526V116H9z" fill="currentColor"/></svg>