<svg xmlns="http://www.w3.org/2000/svg" viewBox="0 0 396.5 594.4"><path d="M379.3 144.3V92H17.2v52.3h362.1zM174.7 38.4c.9 15 8.6 22.9 23.2 23.8 15-.9 22.9-8.8 23.8-23.8-.9-14.6-8.8-22.5-23.8-23.8-14.6 1.3-22.3 9.2-23.2 23.8zm221.8 36.4v86.7h-80.8c5.7 0 3 5-8.3 14.9s-11.1 20.1.3 30.4c11.5 10.4 11.5 20.6 0 30.8-11.5 10.1-11.5 20.5 0 31.1 11.5 10.6 11.5 21.1 0 31.4-11.5 10.4-11.5 20.6 0 30.8 11.5 10.1 11.5 20.5 0 31.1-11.5 10.6-11.5 20.8 0 30.8 11.5 9.9 11.5 20.1 0 30.4-11.5 10.4-11.5 20.7 0 31.1 11.5 10.4 11.5 20.7 0 31.1-11.5 10.4-11.5 20.8 0 31.4 11.5 10.6 11.5 21 0 31.1-11.5 10.1-17.2 25.6-17.2 46.3-23.4-20.7-29.2-36.2-17.5-46.3 11.7-10.1 11.7-20.5 0-31.1-11.7-10.6-11.7-21.1 0-31.4 11.7-10.4 11.7-20.7 0-31.1-11.7-10.4-11.7-20.7 0-31.1 11.7-10.4 11.7-20.5 0-30.4-11.7-9.9-11.7-20.2 0-30.8 11.7-10.6 11.7-21 0-31.1-11.7-10.1-11.7-20.4 0-30.8 11.7-10.4 11.7-20.8 0-31.4-11.7-10.6-11.7-21 0-31.1 11.7-10.1 11.7-20.4 0-30.8-11.7-10.4-11.6-20.5.3-30.4s14.6-14.9 7.9-14.9H215c5.7 0 3 5-8.3 14.9s-11.1 20.1.3 30.4c11.5 10.4 11.5 20.6 0 30.8-11.5 10.1-11.5 20.5 0 31.1 11.5 10.6 11.5 21.1 0 31.4-11.5 10.4-11.5 20.6 0 30.8 11.5 10.1 11.5 20.5 0 31.1-11.5 10.6-11.5 20.8 0 30.8 11.5 9.9 11.5 20.1 0 30.4-11.5 10.4-11.5 20.7 0 31.1 11.5 10.4 11.5 20.7 0 31.1-11.5 10.4-11.5 20.8 0 31.4 11.5 10.6 11.5 21 0 31.1-11.5 10.1-17.2 25.6-17.2 46.3-23.4-20.7-29.2-36.2-17.5-46.3 11.7-10.1 11.7-20.5 0-31.1-11.7-10.6-11.7-21.1 0-31.4 11.7-10.4 11.7-20.7 0-31.1-11.7-10.4-11.7-20.7 0-31.1 11.7-10.4 11.7-20.5 0-30.4-11.7-9.9-11.7-20.2 0-30.8 11.7-10.6 11.7-21 0-31.1-11.7-10.1-11.7-20.4 0-30.8 11.7-10.4 11.7-20.8 0-31.4-11.7-10.6-11.7-21 0-31.1 11.7-10.1 11.7-20.4 0-30.8-11.7-10.4-11.6-20.5.3-30.4 11.9-9.9 14.6-14.9 7.9-14.9h-64.9c5.3 0 2.3 5-8.9 14.9-11.3 9.9-11 20.1.7 30.4 11.7 10.4 11.7 20.6 0 30.8-11.7 10.1-11.7 20.5 0 31.1 11.7 10.6 11.7 21.1 0 31.4-11.7 10.4-11.7 20.6 0 30.8 11.7 10.1 11.7 20.5 0 31.1-11.7 10.6-11.7 20.8 0 30.8 11.7 9.9 11.7 20.1 0 30.4-11.7 10.4-11.7 20.7 0 31.1 11.7 10.4 11.7 20.7 0 31.1-11.7 10.4-11.7 20.8 0 31.4 11.7 10.6 11.7 21 0 31.1C95.9 558.2 90 573.6 90 594.4c-22.9-20.7-28.7-36.2-17.2-46.3 11.5-10.1 11.5-20.5 0-31.1-11.5-10.6-11.5-21.1 0-31.4 11.5-10.4 11.5-20.7 0-31.1-11.5-10.4-11.5-20.7 0-31.1 11.5-10.4 11.5-20.5 0-30.4-11.5-9.9-11.5-20.2 0-30.8 11.5-10.6 11.5-21 0-31.1-11.5-10.1-11.5-20.4 0-30.8 11.5-10.4 11.5-20.8 0-31.4-11.5-10.6-11.5-21 0-31.1 11.5-10.1 11.5-20.4 0-30.8-11.5-10.4-11.4-20.5.3-30.4 11.7-9.9 14.2-14.9 7.6-14.9H0V74.8h185.3c-16.3-4-24.9-16.1-25.8-36.4 1.3-24.3 14.1-37.1 38.4-38.4 24.7 1.3 37.5 14.1 38.4 38.4-.9 20.3-9.5 32.4-25.8 36.4h186z"/></svg>