<svg xmlns="http://www.w3.org/2000/svg" viewBox="0 0 562.2 532"><path d="M21.8 101.3v109.1l53.6-57.5h411.4l53.6 55.6V101.3H21.8zm92 336.4c14.6-59.3 21.8-108.8 21.8-148.5 0-39.2-5.7-79.2-17.2-119.7h-9.6C96.9 210 90.9 249.9 90.9 289.2c0 39.7 7.7 89.2 22.9 148.5zm167 0c15-59.3 22.5-108.8 22.5-148.5 0-39.2-5.8-79.2-17.5-119.7h-9.6C264.7 210.1 259 250 259 289.2c-.1 39.7 7.2 89.2 21.8 148.5zm167.6 0c14.8-59.3 22.2-108.8 22.2-148.5s-5.7-79.9-17.2-120.7h-9.6c-11.5 40.8-17.2 81-17.2 120.7s7.3 89.2 21.8 148.5zM562.2 82.5v162.7h-11.6l-76.1-76.7c11.5 32.4 17.2 72.9 17.2 121.4s-7.3 97.8-21.8 147.8c12.3 31.5 26 54.1 41 67.8 8.2 5.5 9.6 12 4.3 19.5-5.1 7.7-10.6 8.8-16.5 3.3-20.1-20.5-36.8-47.1-50.3-79.7-9.9 22.9-24.7 44.6-44.3 65.2-6 5.1-11.1 4-15.5-3.3-4.2-7.3-3.3-13.9 2.6-19.8 15-13.2 27-30.9 36-52.9-14.6-50-21.8-99.3-21.8-147.8 0-48.5 5.5-89 16.5-121.4l-114.4 1c11 31.7 16.5 71.9 16.5 120.4s-7.4 97.8-22.2 147.8c12.8 31.5 26.6 54.1 41.3 67.8 8.6 6 10.3 12.6 5 19.8-5.3 7.5-11.1 8.7-17.5 3.6-19.6-20.9-36.3-47.4-49.9-79.4-9.9 22.3-24.5 43.7-43.7 64.2-6.4 5.1-11.8 4-16.2-3.3-4.4-7.3-3.4-13.9 3-19.8 15.2-13.2 27.1-30.9 35.7-52.9-14.6-50-21.8-99.3-21.8-147.8 0-48.5 5.6-88.6 16.9-120.4h-115c11.5 31.7 17.2 71.9 17.2 120.4s-7.3 97.8-21.8 147.8c12.3 31.5 26 54.1 41 67.8 8.4 6 9.9 12.6 4.6 19.8-5.3 7.5-11.1 8.7-17.5 3.6-19.6-20.9-36-47.4-49.3-79.4-10.6 22.3-25.5 43.7-44.6 64.2-6.4 5.1-11.6 4-15.5-3.3-4.2-7.3-3.3-13.9 2.6-19.8 15-13.2 27.1-30.9 36.4-52.9-14.8-50-22.2-99.3-22.2-147.8 0-48.5 5.5-88.6 16.5-120.4l-72.8 75.7H0V82.5h89.6C79.3 60 65.1 41.7 47.3 27.6c-7.3-6-8.8-12.8-4.6-20.5 4.4-7.9 10-9.1 16.9-3.6 23.8 21.6 41.9 46.3 54.2 74.1 12.8-27.8 30.8-52.5 53.9-74.1C175.2-2 181-.8 185.2 7.1c4.4 7.7 3 14.6-4.3 20.5C163 41.7 148.8 60 138.2 82.5H257c-10.6-22.5-24.8-40.8-42.7-54.9-7.3-6.4-8.7-13.3-4.3-20.8 4.2-7.7 10-8.8 17.5-3.3 23.2 21.6 40.9 46.1 53.2 73.4 12.8-27.3 31.1-51.8 54.9-73.4 6.8-5.5 12.5-4.4 16.9 3.3 4.2 7.5 2.6 14.4-4.6 20.8-17.9 14.1-32 32.4-42.3 54.9H424c-10.6-22.5-24.7-40.8-42.3-54.9-7.5-6.4-9-13.3-4.6-20.8 4.4-7.7 10-8.8 16.9-3.3 23 21.6 41 46 53.8 73.4 12.8-27.3 30.9-51.8 54.2-73.4 7.3-5.5 13.1-4.4 17.5 3.3 4.4 7.5 2.9 14.4-4.6 20.8-17.6 14.1-32 32.4-43 54.9h90.3z"/></svg>