<svg xmlns="http://www.w3.org/2000/svg" viewBox="-10 0 937 639"><path d="M-10 639V198q0-43 16.5-64.5T69 112h51V49h50V0h20v49h166V0h19v49h166V0h20v49h166V0h19v49h50v63h51q46 0 63 21.5t17 64.5v441h-20V198q0-37-12-52t-48-15h-51v63h-50v97q30 5 46.5 33.5t24.5 76q8 47.5 10 108.5t2 130H87q0-69 2-130t10-108.5q8-47.5 24.5-76T170 291v-97h-50v-63H69q-35 0-47.5 15T9 198v441zm150-465h637V69H140zm133 396q0-76 6.5-137t24-99q17.5-38 52.5-43v-97H190v97q35 5 52 43t23.5 99q6.5 61 7.5 137zm185 0q1-42 3.5-89t10-88.5q7.5-41.5 23.5-69t46-32.5v-97H375v97q30 5 46 32.5t23 69q7 41.5 9.5 88T458 570zm186 15q1-79 6.5-143.5t23-105Q691 296 727 291v-97H561v97q36 5 53 45.5t23 105q6 64.5 7 143.5zm-537 34h147q0-61-2-116.5t-9-99q-7-43.5-22-68.5t-41-25q-26 0-40.5 25T118 403.5q-7 43.5-9 99T107 619zm185 0h147q0-61-2-116.5t-9-99q-7-43.5-22-68.5t-41-25q-26 0-40.5 25T303 403.5q-7 43.5-9 99T292 619zm186 0h146q0-61-2-116.5t-9-99q-7-43.5-21.5-68.5T551 310q-26 0-40.5 25.5t-21.5 69q-7 43.5-9 99T478 619zm185 0h147q0-61-2-116.5t-9-99q-7-43.5-22-68.5t-41-25q-26 0-40.5 25T674 403.5q-7 43.5-9 99T663 619z" fill="currentColor"/></svg>