<svg xmlns="http://www.w3.org/2000/svg" viewBox="-10 0 820 1121"><path d="M251 1121q-22 0-55-4t-68.5-18.5Q92 1084 60.5 1052t-51-87.5Q-10 909-10 823q0-76 10-121.5t23-72Q36 603 46 586q17-30 44.5-54.5T145 500q-17-11-17-33 0-15 10-26.5t24-12.5q-12-5-20-15t-8-24q0-14 9.5-25t22.5-14q-19-11-19-34 0-16 11-27.5t27-12.5q-24-10-24-37 0-16 12-28t28-12q16 0 28 12t12 28q0 16-11 27.5T203 279q24 12 24 37 0 14-9 25.5T195 355q19 12 19 34 0 16-10 27t-25 13q12 4 20.5 14.5T208 467q0 27-24 37 16 9 22 25.5t6 28.5q0 16-4 37.5T198 652q-6 32-13.5 69.5T177 793q0 48 18.5 76.5T251 898q38 0 55.5-29.5T324 793q0-34-7-71.5T303 652q-6-35-10-56.5t-4-37.5q0-12 6-29t23-25q-12-4-20-14.5t-8-24.5q0-24 23-36-21-11-21-35 0-26 24-38-17-12-17-32 0-17 12-28.5t28-11.5q-4-8-4-19 0-16 12-28t28-12q10 0 22 7 1-16 12.5-26.5T437 195q14 0 24 8t14 21q13-18 33-18 17 0 28.5 11.5T548 246v6h4q17 0 28.5 11.5T592 292q0 13-8 23h125q-9-9-9-25 0-27 24-37h-5q-16 0-28-12t-12-28q0-14 9-25h-7q-16 0-28-11.5T641 148q0-10 4-17-8 3-17 3-17 0-28.5-11.5T588 94q0-6 1-9-11 8-23 8-16 0-27.5-10.5T525 57q-10 23-36 23-14 0-24.5-8.5T450 51q-2 14-13.5 23T411 83q-23 0-35-20 0 16-11.5 28T336 103q-14 0-24-8 1 3 1.5 6t.5 6q0 16-11.5 28T274 147q-6 0-9-1 2 4 3 8.5t1 8.5q0 16-12 28t-28 12q-16 0-28-12t-12-28q0-16 12-28t28-12q2 0 4.5.5t4.5.5q-4-7-4-17 0-16 11.5-28T274 67q13 0 24 8-1-3-1.5-6t-.5-6q0-16 11.5-28.5T336 22q11 0 20.5 6T371 43q0-16 12-28t28-12q14 0 24.5 8.5T450 33q3-14 14-23.5T489 0q16 0 27 10.5T529 36q10-23 37-23 16 0 28 12t12 28q0 2-.5 4.5T605 62q10-8 23-8 17 0 28.5 11.5T668 94q0 11-4 18 4-1 8-2.5t9-1.5q16 0 28 11.5t12 28.5q0 15-9 26 1 0 3-.5t4-.5q16 0 28 12t12 28q0 13-6.5 23T736 250h4q17 0 28.5 11.5T780 290q0 14-9 25h39L708 867q35 13 57.5 44t22.5 70q0 34-16.5 62t-44.5 45q-28 17-62 17t-61.5-17q-27.5-17-44-45T543 981q0-39 22-70t57-44L520 317q-8-11-8-25v-6h-4q-13 0-23.5-8.5T470 257q-13 18-33 18-12 0-22-7-2 16-13 26.5T375 305q4 8 4 19 0 27-24 37 17 12 17 33 0 12-6.5 21.5T349 430q9 5 15 14.5t6 20.5q0 23-18 34 27 4 55.5 30t47.5 57q10 17 23 43.5t23 72Q511 747 511 823q0 90-20 146.5t-52 88q-32 31.5-68 45t-68 16q-32 2.5-52 2.5zM489 61q9 0 15-6.5t6-14.5q0-8-6-14t-15-6q-8 0-14 6t-6 14q0 8 6 14.5t14 6.5zm-78 2q8 0 14.5-6t6.5-14q0-8-6.5-14.5T411 22q-8 0-14 6.5T391 43q0 8 6 14t14 6zm155 10q8 0 14-6t6-14q0-8-6-14.5T566 32q-9 0-15 6.5T545 53q0 8 6 14t15 6zM336 83q8 0 14.5-6t6.5-14q0-9-6.5-15T336 42q-8 0-14 6t-6 15q0 8 6 14t14 6zm292 32q8 0 14.5-6.5T649 94q0-8-6.5-14T628 74q-8 0-14 6t-6 14q0 8 6 14.5t14 6.5zm-354 12q8 0 14.5-6t6.5-14q0-8-6.5-14.5T274 86q-8 0-14 6.5t-6 14.5q0 8 6 14t14 6zm407 42q8 0 14-6t6-15q0-8-6-14t-14-6q-8 0-14.5 6t-6.5 14q0 9 6.5 15t14.5 6zm-452 15q8 0 14-6.5t6-14.5q0-8-6-14t-14-6q-9 0-15 6t-6 14q0 8 6 14.5t15 6.5zm490 50q8 0 14-6t6-15q0-8-6-14t-14-6q-8 0-14.5 6t-6.5 14q0 9 6.5 15t14.5 6zm-282 21q8 0 14-6t6-14q0-8-6-14.5t-14-6.5q-9 0-15 6.5t-6 14.5q0 8 6 14t15 6zm-236 5q8 0 14-6t6-15q0-8-6-14t-14-6q-8 0-14.5 6t-6.5 14q0 9 6.5 15t14.5 6zm307 6q9 0 15-6t6-14q0-9-6-15t-15-6q-8 0-14 6t-6 15q0 8 6 14t14 6zm-133 20q8 0 14-6.5t6-14.5q0-8-6-14t-14-6q-9 0-15 6t-6 14q0 8 6 14.5t15 6.5zm365 25q8 0 14-6.5t6-14.5q0-8-6-14t-14-6q-8 0-14.5 6t-6.5 14q0 8 6.5 14.5T740 311zm-188 2q8 0 14-6.5t6-14.5q0-8-6-14t-14-6q-8 0-14.5 6t-6.5 14q0 8 6.5 14.5T552 313zm-365 23q8 0 14-6t6-14q0-8-6-14.5t-14-6.5q-9 0-15 6.5t-6 14.5q0 8 6 14t15 6zm152 8q9 0 15-6t6-14q0-8-6-14.5t-15-6.5q-8 0-14 6.5t-6 14.5q0 8 6 14t14 6zm302 517q6-1 12-1.5t12-.5q6 0 12 .5t11 1.5l99-526H544zM174 410q8 0 14-6.5t6-14.5q0-8-6-14t-14-6q-8 0-14.5 6t-6.5 14q0 8 6.5 14.5T174 410zm158 4q8 0 14-6t6-14q0-9-6-15t-14-6q-9 0-15 6t-6 15q0 8 6 14t15 6zm-2 72q8 0 14.5-6t6.5-15q0-8-6.5-14t-14.5-6q-8 0-14 6t-6 14q0 9 6 15t14 6zm-162 2q8 0 14-6t6-15q0-8-6-14t-14-6q-9 0-15 6t-6 14q0 9 6 15t15 6zm83 614q20 0 50.5-2.5t63.5-15q33-12.5 62-42t47-82.5q18-53 18-137 0-74-9.5-118.5t-22-69Q448 611 439 596q-18-31-45.5-54.5T342 518q-19 0-26 14.5t-7 25.5q0 16 4 36t10 54q6 31 13 70.5t7 74.5q0 32-9 60.5T305 900q-20 18-54 18t-54.5-18Q176 882 167 853.5t-9-60.5q0-35 7-74.5t13-70.5q7-34 10.5-54t3.5-36q0-11-6.5-25.5T159 518q-24 0-51 23.5T63 596q-10 15-22.5 39.5t-22 69Q9 749 9 823q0 80 17.5 132t46 82q28.5 30 61 44t64 17.5q31.5 3.5 53.5 3.5zm414-17q43 0 73.5-30t30.5-74q0-43-30.5-73T665 878q-43 0-73 30t-30 73q0 44 30 74t73 30z" fill="currentColor"/></svg>