<svg xmlns="http://www.w3.org/2000/svg" viewBox="0 0 528 594.6"><path d="M491.6 202.7l-22.5 236.8h-43.7L404 202.7h87.6zM328.9 17.5h2.6v1c-.7 11.2 4.6 17.9 16.5 19.8 11.6-1.3 18.2-7.3 19.5-17.5 4.3.3 8.6 1.3 12.6 2-.3 1-1 1.7-1 3-.3 10.9 5 17.2 16.5 19.8 9.9-1 15.9-5.6 18.5-13.6 4 2 7.9 4.6 12.2 7.3-.7 2.3-1.7 5.3-2 8.3-.3 11.2 5 17.5 16.5 19.5 7.3-.7 12.2-3.6 15.5-8.3 3.6 2.6 7.3 5.6 10.3 8.3-1.7 3-3.6 6-4 10.3-.3 11.2 6 17.9 17.5 19.8 3.6-.3 6.6-1.7 9.3-3 2.3 3.3 4.6 6.6 6.3 10.3-3 3-4.6 8.3-5.3 14.6 0 8.9 4.3 14.2 12.6 17.5-.3 1 .3 2.3 0 3-.3.3 0 .7 0 1-1.7-.3-4-1-5.3-1-4.3 0-6.9 4-8.3 12.6V181H404v-28.8c-2-8.6-5.3-12.6-9.3-12.6-2 0-4.3 1-7.3 2-1.3-2.6-3.6-6-5.3-9.3 3.3-3.3 5.6-7.3 6.3-13.2-1.3-11.2-7.6-17.9-18.9-18.9-5.3 0-9.3 1.3-12.2 4.3-2.3-1.3-4.6-2.3-7.3-3.3-2.3-.7-6.3-1.3-9.3-2-2.3-8.3-7.9-13.2-17.5-14.6-7.3.3-12.6 3-15.5 8.3-5.3-.7-10.6-1-15.9-1h-5c-3-5.6-6.9-8.6-14.2-9.3-10.9 0-17.5 6-18.9 17.5-6 2.6-11.2 6.6-16.5 10.6v-.3c-.3 0-.7.3-.7.3h-.3c-2.3-1.7-5.6-4-9.3-4.3-10.6.3-15.9 6.3-16.5 16.5-.3 5 1.7 8.3 4.3 11.2-2.6 3.3-5.3 6.9-7.3 10.6-2-1-5-2-7.3-2.3-10.6 0-15.5 6-16.5 16.5 0 7.3 2.3 12.6 8.3 15.5-1.3 3.3-2.3 7.3-3.3 10.6H186.7c-10.3 0-15.5 4.6-16.5 15.5-.3 8.6 4.3 14.6 13.6 17.5-.3 3.6-1.7 10.6-1 11.2-6.3 4.6-8.9 12.2-6.3 21.8 2.3 8.9 6.3 13.6 10.9 13.6.7 0 1 0 1.3-.3 5 4.6 4.3 7.6-1 8.3-8.6 7.3-12.2 14.9-11.2 23.8.7 9.3 7.9 30.1 20.5 64.2 13.2 34.1 13.9 62.5 2.3 84.7-11.9 22.8-28.4 34.4-48.6 34.4-20.5 0-36.4-11.6-47.6-34.4-11.6-22.2-10.9-50.6 2-84.7s20.2-54.9 20.8-64.2c.7-8.9-3.6-16.5-12.6-23.8-5.6-.7-5.6-3.6 0-8.3 2.3.7 4.6 1 6.9 1 7.9 0 13.6-4.3 15.9-12.2 2.3-9.3-3-17.2-15.5-23.8.7-8.3.3-8.9 1-15.5h.3c9.9 0 15.5-5.6 16.2-15.5-1-8.3-5.6-13.2-13.2-15.5 0-1 .7-5.3 1-6v-1.3.3c.3 0 .7-.3.7-.3h.3c11.6-1.3 17.5-6.9 18.5-17.5-1-6.9-4-12.6-9.3-15.5 1.3-3.6 2.6-7.6 4-11.2 1.3.3 2.6.7 4.3 1 11.6-1 17.9-6.6 18.5-17.5-.7-5.6-3.3-9.6-7.3-12.2 2.3-3.3 5.6-6.6 8.3-10.6 2 1 4.3 1.7 6.3 2.3 12.6-1.3 18.9-8.6 19.5-20.8-.3-4.6-2-8.6-4-11.2 3-3.6 6.3-7.6 9.3-10.6 2.6 4 6.9 6 13.6 7.3 12.6-1.3 18.9-7.6 19.5-19.5-.3-3.3 0-6-1-8.3 3.3-1.3 7.6-2 11.2-3.3 1.3 8.3 5.6 14.6 15.5 16.5 12.6-1.3 19.8-8.3 20.8-20.5 0-1-1-1.3-1-2 4-.7 7.6-1.7 11.2-2.3.3 10.6 5.6 16.5 16.5 18.9 12.9-1.3 19.8-7.9 20.8-19.8v-1h1c1.9-.2 3.8-.2 5.8-.2zM447.3 458c28.8 0 46 17.5 51.6 51.6-2.6 32.1-21.5 50.3-55.9 53.9-31.4-6.6-46.3-24.8-45.3-53.9 3.3-34 19.5-51.6 49.6-51.6zM88.5 281.1h1c2.3.3 4.6 1 7.3 2.3 11.2 3.3 14.6 10.3 11.2 21.5-3.3 11.2-10.6 32.7-22.5 64.2-11.9 31.4-11.9 61.2 0 88 11.6 27.1 33.1 41.3 65.1 42.3 32.4-1 54.6-15.2 66.1-42.3 11.6-26.8 11.6-56.6 0-88-11.9-31.4-19.2-52.9-22.8-64.2-3.6-11.2 0-18.2 11.2-21.5 3-1.3 6-2 8.3-2 6.6 0 11.6 4 15.5 12.2 6 11.2 17.9 37.7 35.4 80.7 17.2 42.3 20.2 81.4 8.3 115.7-11.9 34.7-28.1 56.6-47.6 66.1-19.8 9.6-44.6 15.5-74.4 16.5-29.8-1-53.9-6.9-73.4-16.5-19.5-9.6-35.4-31.4-47.6-66.1-11.9-34.4-9.3-73.4 8.3-115.7 17.5-43 28.4-69.4 34.1-80.7 3.9-8.2 9.9-12.5 16.5-12.5zM350.1 0c-8.9 0-15.2 4.3-17.5 12.6h-.3c-4 0-7.9.7-12.2 1C317.7 6 312.7 1.7 303.5 1c-9.3 0-15.2 4.6-17.5 13.6-4.3.3-8.9.3-13.2 1h-.3-.7-.3c-3-5.6-8.6-9.6-16.5-10.3-9.9 0-14.6 6-16.5 16.5-5 1.3-10.6 2-15.2 4-3.3-3-6.9-4.3-12.6-5-10.9 0-17.2 6-18.5 18.5-.3 3 0 6 1 8.3-3.6 3.3-6.9 7.6-10.3 11.2-3-2-6-3.6-10.6-4-11.2.3-18.2 6.6-19.5 18.5-.3 6.3 2.3 10.9 6.3 14.6-3 4-5 8.3-7.3 12.2h-.3-.7c-2-.7-3-1.7-5.3-2-9.9.3-16.2 6.3-17.5 16.5 0 6.9 3.3 11.6 8.3 14.6-2 4.3-3.6 8.6-5.3 12.2-1 0-2-.7-3-1-10.3.7-15.5 6.9-16.5 17.5-.3 8.3 4 12.9 11.2 15.5-.3 2.6-.7 5.6-1 8.3H120.8c-9.9.7-15.2 6-16.5 16.5 0 8.6 4.6 14.2 13.6 15.5l-2.3 14.6c-4-.7-7.6-1.3-10.6-1.3-8.3 0-13.6 2.6-16.2 8.6-3.6 8.9 0 17.9 11.2 24.8 0 3.3-1 4.6-3 4.6-1.7 0-3.6-1-6.3-2.6-1-.3-2-.3-3-.3-14.2 0-33.4 26.5-57.9 79-26.3 56.4-34.9 105-27 144.7 7.9 40 24.5 68.5 51.6 85 26.1 16.2 57.2 23.8 92.9 23.8h6.3c36 0 67.8-7.6 94.3-23.8 26.8-16.5 43.7-45 51.6-85 7.9-39.7-.7-88.3-26.8-144.5-24.5-52.6-44-79-57.9-79-1.3 0-2.3 0-3.3.3-2.6 1.7-4.6 2.6-6.3 2.6-2 0-3-1.3-3-4.6 4.3-3.6 4.6-10.6 1-19.8-3.3-7.9-8.9-12.2-17.2-12.2h1.7c0-2 1-6.9 1-10.3 9.3-2 13.9-7.9 14.6-17.5-1-7.9-4-12.6-10.3-14.6 1-3.6 2.6-6.9 4-10.6 1 .3 1.3 1 2.3 1.3 11.6-1.3 17.9-6.9 18.5-17.9-.7-5.6-2.6-9.6-6.3-12.2 2-3 4-6.3 6.3-9.3 2.3 1.3 5 2.3 8.3 3 11.2-1.3 16.9-6.6 17.5-17.5-.3-4-1.3-6.9-3-9.3 4.3-3.3 9.3-5.3 14.2-7.3 1.7 7.6 6 12.2 15.5 14.6 12.6-2 18.9-7.9 19.8-19.8-.3-1-1-2-1-3 1.7 0 4-1 5.6-1h.3c4 .3 6.9.7 10.6 1-.7 1.7-1 3.3-1 5.3-.7 10.6 4.6 17.2 16.5 19.5 11.9-1.3 19.5-7.3 20.5-18.5 1.3.3 2.6.7 4.3 1 2.6 1 5.6 2.6 8.3 4-1.3 2.6-3 6-3.3 9.6-.3 11.2 5.3 17.5 16.5 19.5 4-.3 7.6-1.7 10.3-3 1.7 3 2.6 6 3.3 9.3-3.6 1.7-7.6 4.3-12.6 7.3 5.6 13.6 8.6 22.5 9.3 28.8L406 451.8c-15.2 10.9-24.1 29.8-26.8 55.9 1.3 43.3 21.8 66.8 62.8 71.4 45.3 0 70.8-22.8 74.4-69.4-2-26.1-11.6-45.6-28.8-57.9l26.8-270.9c1-6.3 4.3-15.2 9.3-28.8-5-3.3-8.6-5.6-12.2-7.3 1-1 1.3-2.3 2-4.3.7-1 1-2.3 1-4 7.9-3 12.6-8.6 13.6-17.5-1.3-11.9-7.3-18.2-18.5-18.9-3.3 0-6 0-8.3 1-2.3-3.6-4-7.6-6.3-11.2 2.6-3.3 4.6-6.9 5-12.6-1.3-11.2-7.6-17.5-18.5-18.5-5.6 0-9.3 2.3-12.2 5.3-3.3-2.6-6.3-5.6-9.6-8.3 1-2.3 1-5.3 1.3-8.3-1.3-11.2-6.9-17.9-17.9-18.5-5.6 0-10.3 2-13.2 5-4.3-2.6-8.9-5.3-13.6-7.3v-1C415 14.5 408 8.2 396.8 7.2c-7.3 0-11.6 4-14.6 9.3-4.6-1-9.6-1.3-14.6-2h-1C364.6 6 360 .7 350.1 0z"/></svg>