<svg xmlns="http://www.w3.org/2000/svg" viewBox="0 0 563.3 484.2"><path d="M47.9 351.5c0-147.5 27.2-243 81.5-286.4C183.8 21.7 245.5 0 314.8 0c71.4 0 130.6 21.7 177.8 65.1s70.7 138.9 70.7 286.4c0 53.3-27.2 79.9-81.5 79.9-54.9 0-82.3-26.6-82.3-79.9 0-61.3-6-104.9-18-131-12-26.1-34.2-39.1-66.7-39.1s-54.9 13-67.1 39.1c-12.3 26.1-18.4 69.8-18.4 131H278v94.3h-80.7c-9.6 25.6-29 38.3-58.3 38.3-28.8 0-47.9-12.8-57.5-38.3H0v-94.3h47.9zm26.4 0h129.4c0-70.8 8.4-121.2 25.2-151 16.8-29.8 45.4-44.7 85.9-44.7 39.9 0 68.4 14.9 85.5 44.7 17 29.8 25.6 80.2 25.6 151 0 35.7 18.6 53.5 55.9 53.5 36.8 0 55.1-17.8 55.1-53.5 0-134.2-19.6-222-58.7-263.3C439 47 384.6 26.4 314.8 26.4c-70.3 0-128 20.8-173 62.3S74.3 217.8 74.3 351.5zm179.8 70.3v-46.3H23.2v46.3h230.9zm-86.3 24h-57.5c3.2 9.6 12.8 14.4 28.8 14.4 16.4 0 26-4.8 28.7-14.4z"/></svg>