<svg xmlns="http://www.w3.org/2000/svg" viewBox="-10 0 1155 1032"><path d="M194 1032v-89H-10V778h123q0-105 10-207.5t38.5-195Q190 283 247 209q70-92 175-150.5T663 0q62 0 129.5 18t130 61.5Q985 123 1035.5 198t80 188.5Q1145 500 1145 658q0 96-15.5 151.5t-40.5 82q-25 26.5-54.5 34T976 933q-21 0-49-4t-55.5-22Q844 889 826 847.5T808 732q0-109-11-187.5t-45.5-121Q717 381 646 381q-106 0-152 100.5T447 778h120v165H363v89zm782-119q23 0 49-5.5t48.5-29q22.5-23.5 37-75.5t14.5-145q0-154-28.5-263.5T1020 212q-48-73-108.5-115T787 37.5Q723 20 663 20q-133 0-232.5 55.5T263 220q-56 73-84 166t-37 194q-9 101-10 198h296q1-205 51.5-310.5T646 362q79 0 117.5 45T815 534.5Q828 617 828 732q0 66 15 103t38 53.5q23 16.5 48.5 20.5t46.5 4zM9 924h539V797H9zm205 89h129v-70H214z" fill="currentColor"/></svg>