<svg xmlns="http://www.w3.org/2000/svg" viewBox="-10 0 1057 1155"><path d="M519 1155q-94 0-171.5-22T208 1074q-62-37-107-82.5T28 899q-28-47-38-89h280q-3-76 21-148t67-136.5q43-64.5 96.5-119T564 310q42-32 70.5-57t46.5-51q8-12 14-32.5t11-42.5q7-31 16-60t29-48q20-19 59-19 35 0 53 21.5T881 70q0 15-11 37.5T846 155q-16 28-30 58t-14 48q0 14 1.5 26t3.5 25q2 16 5 39t3 59q0 88-19 166t-43.5 138Q728 774 710 810h337q-10 42-37.5 89t-73 92.5q-45.5 45.5-107 82.5T690 1133q-78 22-171 22zM289 810h399q13-25 31-65.5t35.5-92.5q17.5-52 29-113.5T795 410q0-34-2.5-56t-5.5-39q-2-13-3.5-25t-1.5-29q0-24 14.5-55t31.5-61q13-24 23.5-44.5T862 70q0-20-13.5-35T810 20q-30 0-46.5 16.5t-24.5 42q-8 25.5-14 52.5-4 23-10.5 44T697 212q-21 30-48.5 54T576 325q-54 41-106 93.5T376 533q-42 62-66 132t-21 145zm230 326q109 0 195-31t149-79q63-48 102.5-100.5T1020 830H17q15 43 54.5 95.5t103 100.5q63.5 48 149.5 79t195 31z" fill="currentColor"/></svg>