<svg xmlns="http://www.w3.org/2000/svg" viewBox="0 0 595.3 589.8"><path d="M296.7 560.9c106.9-2.1 189-41.7 246.4-118.8H52.8c57 77.1 138.3 116.7 243.9 118.8zm67.9-145.2c20.1-42.7 37.3-83.8 51.5-123.2 14.2-39.4 21.8-71.2 22.6-95.5.8-24.3 2.8-43.8 6-58.5 3.1-14.7 13.1-33.7 29.9-57.2 16.3-25.1 17.6-41.5 3.8-49-13.4-7.1-26.6 2.7-39.6 29.5-11.3 26.8-22.4 45.6-33.3 56.3s-26.3 22.8-46.2 36.5c-19.9 13.6-46.1 39.2-78.6 76.7-32.5 37.5-62.3 99-89.6 184.5h173.5zm230.7-.6C537 531.2 437.9 589.4 298 589.8c-140.4-.4-239.8-58.6-298-174.7h153.4c10.9-39.8 23.6-74.5 38-104 14.5-29.5 33.4-58.8 56.9-87.7 23.5-28.9 43.2-50 59.1-63.2 15.9-13.2 32.6-26.3 50-39.3 17.4-13 30.6-26 39.6-39s14.4-24.3 16-33.9c10.5-24.3 21.6-39.3 33.3-44.9 11.7-5.7 26.8-3.5 45.3 6.6 18 10.1 27.8 21.6 29.2 34.6 1.5 13-5.3 30.2-20.4 51.5-7.5 6.7-14.5 17.3-20.7 31.7-6.3 14.5-10.3 32.6-11.9 54.4-1.7 21.8-3.8 42.8-6.3 63.2-2.5 20.3-9.1 47.4-19.8 81.1-10.7 33.7-23.2 63.4-37.4 88.9h191z"/></svg>