<svg xmlns="http://www.w3.org/2000/svg" viewBox="-10 0 269 554"><path d="M86 554v-42H20v-84h75q-5-11-14.5-33.5T60 346q-11-26-20-49t-13-36q-4-15-13-38.5T-2.5 173q-7.5-26-7.5-48 0-59 36.5-92T125 0q62 0 98 32t36 93q0 22-7.5 48t-16 49.5Q227 246 222 261q-4 13-13 36t-20 49q-11 26-20.5 48.5T154 428h76v84h-66v42zm30-126h17q2-5 11.5-27t21-51q11.5-29 22-55.5T203 254q6-17 15-40.5t15.5-47.5q6.5-24 6.5-41 0-19-8.5-44T198 38q-25-18-73-18-49 0-74 18T17.5 81Q9 106 9 125q0 17 7 41t15.5 47.5Q40 237 46 254q5 14 15.5 40.5t22 55.5q11.5 29 21 51t11.5 27zm9-21L62 253q-3-7-12-30.5t-16.5-51Q26 144 26 124q0-41 24.5-65T125 35q49 0 73.5 24t24.5 65q0 20-7.5 47.5t-16 51Q191 246 188 253q-4 9-14.5 35.5t-23.5 59Q137 380 125 407zm0-50l44-112q3-7 11-30t15.5-49q7.5-26 7.5-42 0-32-19.5-51T125 55q-39 0-59 18.5T46 124q0 16 7.5 42T69 215q8 23 11 30zM39 493h172v-45H39zm67 42h38v-23h-38z" fill="currentColor"/></svg>