<svg xmlns="http://www.w3.org/2000/svg" viewBox="0 0 262.9 484.2"><path d="M163.8 455.8c-1.2-7.7-3.5-15.1-7.1-22.2h-50.5c-3.5 7.1-5.9 14.5-7.1 22.2h64.7zm63.8-51.4V368H35.2v36.4h192.4zm-71.8-64.8c55-115.3 80.8-195.8 77.6-241.6C230.2 52.2 196 29.3 131 29.3 66.6 29.3 32.7 52.2 29.5 98c-3.3 45.8 22.6 126.4 77.6 241.6h48.7zM131 0c78.6 0 122.1 27.8 130.4 83.4 8.3 55.6-17.1 141-76.3 256.3h72.7v94h-66.5c8.9 23.6 13.6 40.5 14.2 50.5H57.4c.6-10 5.3-26.9 14.2-50.5H5.1v-94h72.7C18.7 224.3-6.8 138.9 1.5 83.4 9.8 27.8 53 0 131 0z"/></svg>