<svg xmlns="http://www.w3.org/2000/svg" viewBox="0 0 372.5 372.5"><path d="M186.3 0C83.6 0 0 83.6 0 186.3s83.6 186.3 186.3 186.3c102.7 0 186.3-83.6 186.3-186.3S289 0 186.3 0zm0 19.8c92 0 166.4 74.4 166.4 166.4s-74.5 166.4-166.4 166.4c-92 0-166.4-74.5-166.4-166.4-.1-91.9 74.4-166.4 166.4-166.4zm0 31.6c-74.3 0-134.9 60.5-134.9 134.9s60.5 134.9 134.9 134.9 134.9-60.5 134.9-134.9S260.6 51.4 186.3 51.4zm0 19.8c63.6 0 115 51.4 115 115s-51.4 115-115 115-115-51.4-115-115c-.1-63.5 51.4-115 115-115z"/></svg>