<svg xmlns="http://www.w3.org/2000/svg" viewBox="-10 0 546 546"><path d="M263 546q-57 0-106.5-21t-87-58.5Q32 429 11 379.5T-10 273q0-57 21-106.5t58.5-87Q107 42 156.5 21T263 0q57 0 106.5 21t87 58.5q37.5 37.5 58.5 87T536 273q0 57-21 106.5t-58.5 87Q419 504 369.5 525T263 546zm0-20q52 0 97.5-20t80.5-54.5q35-34.5 55-80.5t20-98q0-52-20-98t-55-80.5Q406 60 360.5 40T263 20q-69 0-127 34.5t-92.5 92Q9 204 9 273t34.5 126.5Q78 457 136 491.5T263 526zm0-33q-60 0-110-30t-80-79.5Q43 334 43 273t30-110.5Q103 113 153 83t110-30q60 0 110 30t80 79.5Q483 212 483 273t-30 110.5Q423 433 373 463t-110 30zm0-20q55 0 100.5-27t72.5-72.5Q463 328 463 273t-27-100.5Q409 127 363.5 100T263 73q-55 0-100.5 27T90 172.5Q63 218 63 273t27 100.5q27 45.5 72.5 72.5T263 473z" fill="currentColor"/></svg>