<svg xmlns="http://www.w3.org/2000/svg" viewBox="-10 0 999 668"><path d="M27 668v-30q0-82 15-142l-52-16q8-49 28-92t56.5-76q36.5-33 96.5-51-74-30-108.5-62T18 138Q8 109 8 90q0-13 7-34t27.5-38.5Q63 0 101 0q32 0 56.5 19t42 45.5Q217 91 227 115t13 34h499q3-10 13.5-34T780 64.5Q797 38 822 19t57-19q38 0 58 17.5T964 56q7 21 7 34 0 19-10 48t-45 61q-35 32-108 62 89 27 129 86.5T989 480l-52 16q7 30 11 65t4 77v30H836q5-30 8-57.5t3-52.5q-1-77-19-133t-76-94H227q-58 38-76 94t-19 133q0 50 12 110zm19-20h73q-3-20-5-43.5t-1-46.5q1-83 22.5-143.5T221 311h537q65 43 86 103.5T866 558q1 23-1 46.5t-5 43.5h73v-10q0-81-15.5-137T878 406q-24-39-52.5-65.5T772 293V171q7-22 19-42.5T818 86q17-24 31.5-32t25.5-8q17 0 31 11.5T920 91q0 23-16 45t-38.5 41.5q-22.5 19.5-43 34T792 233v13q72-29 105.5-58t43.5-55q10-26 10-43 0-9-5.5-26t-21-31Q909 19 879 19t-55 24q-25 24-43.5 59T751 169H228q-11-33-30-67.5T154.5 43Q130 19 101 19q-30 0-46 14T33.5 64Q28 81 28 90q0 17 10 43t44 55q34 29 106 58v-13q-10-7-31-21.5t-43.5-34Q91 158 75 136T59 91q0-22 14-33.5T104 46q11 0 25.5 8T161 86q15 22 26.5 42.5T207 171v122q-26 21-54 47.5T101 406q-24 39-39.5 95T46 638zm142-439v-32q-8-22-19-41.5T145 97q-13-18-23.5-24.5T104 66q-6 0-16 4.5T78 91q0 21 16.5 41t41.5 39q25 19 52 38zm604 0q27-19 52-38t41-39q16-20 16-41 0-16-10-20.5T875 66q-8 0-18 6.5T834 97q-28 38-42 80zm-564 79v-98h523v98zm20-19h484v-60H248zM47 477q16-52 39.5-87.5t50-60.5q26.5-25 51.5-45v-8q-79 19-122 72T12 466l18 6 17 5zm884 0q9-2 18-5l18-6q-12-65-54-118t-121-72v8q24 20 50.5 45t49.5 60.5q23 35.5 39 87.5z" fill="currentColor"/></svg>