<svg xmlns="http://www.w3.org/2000/svg" viewBox="0 0 595.3 391.5"><path d="M125.4 111.8c-.4-10.4-2.1-22.6-5-36.5-2.9-13.9-10.2-27.1-21.8-39.6C84 24.5 71.7 18.6 61.5 18.2c-10.2-.4-18 1.5-23.4 5.6-4.6 5.4-6.7 13.2-6.2 23.4.4 10.2 6.4 22.6 18.1 37.1 12.1 11.6 25.2 19 39.3 22.2 14.1 3.1 26.1 4.9 36.1 5.3zm5 19.4c-44.5 9.2-79.9 41.8-106.1 98-6.2 22.9-5.2 35.2 3.1 36.8 8.3 2.1 15-2.5 20-13.7 8.8-46.7 36.4-87 83-121.1zm10.6 33c-18.3-11.2-38.6 5.4-60.8 49.9-22.3 44.5-34.8 95.1-37.8 151.6 7.1 8.7 16.8 8.7 29.3 0-1.6-93.9 21.5-161.1 69.3-201.5zm-33.7-70.5c-20.4-.4-36.8-6.2-49.3-17.4-8.3-8.7-12.8-18.6-13.4-29.6-.6-11 4.6-16.3 15.6-15.9 11 .4 21.1 4.8 30.3 13.1 11.2 12.4 16.8 29 16.8 49.8zM96.1 81.9c-.4-10.4-4.8-20.4-13.1-30-5.4-5-11.3-8-17.8-9-6.4-1-9.3 1.8-8.4 8.4.8 6.7 3.7 12.5 8.7 17.5 10 8.3 20.2 12.7 30.6 13.1zm403.1 0c10-.4 20-4.8 30-13.1 5-5 8-10.8 9-17.5 1-6.7-1.8-9.5-8.4-8.4-6.7 1-12.5 4.1-17.5 9-8.7 9.6-13.1 19.6-13.1 30zm-11.9 11.8c.4-20.8 6-37.4 16.8-49.9 9.2-8.3 19.2-12.7 30.3-13.1 11-.4 16.2 4.9 15.6 15.9-.6 11-5.1 20.9-13.4 29.6-12 11.3-28.5 17.1-49.3 17.5zm-33.7 70.5c47.8 40.4 70.9 107.5 69.3 201.6 12.5 8.7 22.3 8.7 29.3 0-2.9-56.6-15.4-107.1-37.4-151.6-22.1-44.6-42.4-61.2-61.2-50zm10.7-33c46.6 34.1 74.3 74.5 83 121.1 5 11.2 11.9 15.8 20.6 13.7 7.9-1.7 8.9-13.9 3.1-36.8-26.7-56.2-62.2-88.9-106.7-98zm4.9-19.4c10.4-.4 22.6-2.2 36.5-5.3 13.9-3.1 26.9-10.5 39-22.2 11.6-14.6 17.7-26.9 18.1-37.1.4-10.2-1.5-18-5.6-23.4-5.4-4.2-13.2-6-23.4-5.6-10.2.4-22.8 6.2-37.8 17.5-11.2 12.5-18.4 25.7-21.5 39.6-3.1 14-4.8 26.1-5.3 36.5zm-29.3 53.1v-46.2H155.4v46.2h284.5zM297.6 93.7h157.2c4.6-25.4 10.6-43.4 18.1-54 7.5-10.6 15.9-19.1 25.3-25.6 9.4-6.4 20.2-10.9 32.4-13.4C543-1.7 555.8 2 569.1 12c8.3 12.1 11.6 24.5 10 37.4-1.7 12.9-5.8 23.9-12.5 33.1-6.7 9.2-15.6 17.3-26.8 24.3-11.2 7.1-25.8 13.1-43.7 18.1 64.1 34.9 97.1 83.6 99.2 146-9.2 14.6-21 18.9-35.6 13.1 5.4 32 8.1 64.7 8.1 98-16.6 13.3-37.9 12.7-63.6-1.9.8-94.4-15.6-157.9-49.3-190.3H140.4c-33.7 32.4-50.3 95.9-49.9 190.3-25.8 14.6-46.8 15.2-63 1.9 0-33.3 2.5-65.9 7.5-98-14.6 5.8-26.2 1.5-34.9-13.1 1.7-62.4 34.5-111.1 98.6-146-17.9-5-32.4-11-43.7-18.1-11.2-7.1-20.1-15.2-26.5-24.3-6.4-9.2-10.6-20.2-12.5-33.1S17.3 24 25.6 12C39.3 2 52.3-1.7 64.6.7c12.3 2.5 23 7 32.1 13.4 9.2 6.4 17.5 15 25 25.6s13.5 28.6 18.1 54h157.8z"/></svg>