<svg xmlns="http://www.w3.org/2000/svg" viewBox="0 0 588.7 421.7"><path d="M355.6 324c-.6-37.2-20.9-57.6-60.9-61.4-38.9 2.5-59.5 23-62 61.4.4 34.5 20.9 55 61.4 61.4 42.7-7.2 63.2-27.7 61.5-61.4zm88.9-199l33.7-15.4-53.7-83.7c-6.7-4.4-10.3-.4-10.9 12l30.9 87.1zm54.9 159.2c3.4 9.3 7.6 12.9 12.6 10.6 5-2.3 5.7-7.9 2.3-16.9l-57.7-144.6-7.7 3.1 50.5 147.8zm30.3-13.4c3.2 7.6 7.3 10.4 12.3 8.3 5-2.1 5.7-7 2.3-14.6L472 126.8l-8.3 3.1 66 140.9zm-44.3-150.3l-8.3 3.7 83.2 133.2c4.2 7.6 8.1 10.4 11.7 8.3 3.6-2.1 3.3-6.4-.9-12.9l-85.7-132.3zM388.2 19.9c6.9-17 21.1-21.6 42.9-14L584 248.5c7.6 14.5 6.1 23.9-4.6 28.3-10.7 4.6-19.1.9-25.4-11.1 5.5 12 3.3 20.2-6.6 24.6-9.7 4.6-17.6 1-23.7-10.6 5.5 11.6 2.5 20.5-9.1 26.6-11.8 6.3-20.7 1.7-26.6-13.7L402.8 48.7l-82.6 190.6c41 14.5 61.3 42.7 60.9 84.6-.4 35.8-13.8 60.3-40.3 73.4h36.6v24.3H211v-24.3h36.3c-25.5-14.5-39.2-39-40.9-73.4 3.8-41.9 24.7-70.1 62.6-84.6L185.9 46.7 101 289.9c-6.1 15.8-15 20.7-26.6 14.6-11.8-6.3-15-15.4-9.4-27.4-5.9 11.6-13.8 15.1-23.7 10.6-9.7-4.4-11.8-12.4-6.3-24-6.5 11.6-15.1 15.1-25.7 10.6C-1.4 269.9-2.8 260.5 5 246L157.8 3.3c21.7-7.2 36-2.6 42.9 14l94 222.1 93.5-219.5zM17.5 251.1c-4.2 5.9-4.5 10-.9 12.3 3.6 2.5 7.6-.2 12-8l83.2-133.7-8.6-3.1-85.7 132.5zm107.8-123.5l-8.6-3.4-72.3 138.3c-3.2 7.2-2.5 12 2.3 14.3 5 2.5 9.1-.2 12.6-8l66-141.2zm14.5 6.9l-7.7-3.7-57.4 145.1c-3.4 9-2.7 14.6 2.3 16.9 4.8 2.5 8.9-1.2 12.3-11.1l50.5-147.2zM175 35.9c-.4-12.8-4-16.8-10.9-12l-53.7 83.7 34 14.9L175 35.9z"/></svg>