<svg xmlns="http://www.w3.org/2000/svg" viewBox="-10 0 754 654"><path d="M235 654v-53h32q-40-40-40-99 0-36 16.5-66.5T288 385q28-20 63-24L218 58l-78 474-19-3 7-43-39-15-15 48-18-5 15-50-42-16-22 47-17-8L214 0l155 355L524 0l220 487-17 8-21-46-39 15 15 50-18 5-15-48-39 15 7 43-19 3-78-474-133 303q35 4 63 24t44.5 50.5Q511 466 511 502q0 29-11 54.5T470 601h34v53zM131 466l62-381L37 430zm476 0l90-35L546 97zM254 634h230v-13h-77v-3q38-10 60.5-42.5T490 502q0-33-16.5-60.5t-44-44.5Q402 380 369 380q-34 0-61.5 17T264 441.5Q248 469 248 502q0 37 23.5 71.5T332 618v3h-78zm115-28q-44 0-74-30.5T265 502q0-43 30-73.5t74-30.5q43 0 73.5 30.5T473 502q0 43-30.5 73.5T369 606zm0-20q35 0 60-24.5t25-59.5q0-35-25-60t-60-25q-35 0-60 25t-25 60q0 35 25 59.5t60 24.5z" fill="currentColor"/></svg>