<svg xmlns="http://www.w3.org/2000/svg" viewBox="0 0 587 98.9"><path d="M238.5 49.5c0 14.8 7.2 22.2 21.7 22.2 14.5-.7 22.5-8.1 24.2-22.2-1.7-14.8-9.6-22.2-23.7-22.2-14.5 0-21.9 7.4-22.2 22.2zm-213-25.8c-6.4 17.2-6.2 34.3.5 51.5C95.6 64.1 158.4 58.4 214.2 58V40.9c-55.8-.4-118.7-6.1-188.7-17.2zm536 0c-70 11.1-132.9 16.8-188.8 17.2V58c55.9.3 118.6 6.1 188.3 17.2 6.7-17.2 6.9-34.3.5-51.5zm-213 25.8c-.3-14.8-7.7-22.2-22.2-22.2-14.1 0-22 7.4-23.7 22.2 1.7 14.1 9.8 21.5 24.2 22.2 14.5 0 21.7-7.4 21.7-22.2zm-55-29.8C299.2 9.9 309.8 5 325.3 5s27.9 8.1 37.3 24.2c62.6 0 134.6-9.8 216-29.3 11.1 33 11.1 65.9 0 98.9C497.2 79.4 425 70.3 362.1 71.7c-9.1 14.5-21.4 21.7-36.8 21.7-15.5 0-26.1-4.7-31.8-14.1-6.1 9.4-16.7 14.1-31.8 14.1-15.5 0-27.9-7.2-37.3-21.7-62.6-1.3-134.6 7.7-216 27.3C-2.8 65.9-2.8 33 8.3 0c81.4 19.5 153.4 29.3 216 29.3C233.8 13.1 246.2 5 261.7 5c15.1 0 25.7 4.9 31.8 14.7z"/></svg>