<svg xmlns="http://www.w3.org/2000/svg" viewBox="-10 0 832 189"><path d="M-10 189q11-15 24-34t21.5-35.5Q44 103 44 94q0-10-7.5-26.5T18 32.5Q7 14-3 0l346 62q3-20 12.5-24.5T379 33q8 0 15 1.5t12 6.5q5-5 12-6.5t15-1.5q13 0 22.5 5T468 62L815 0q-10 14-21 32.5t-18.5 35Q768 84 768 94q0 9 8.5 25.5T798 155q13 19 24 34l-354-68q-2 19-11.5 24t-23.5 5q-8 0-15-1.5t-12-6.5q-5 5-12 6.5t-15 1.5q-14 0-24-4.5T343 121zm46-29l306-60V82q-82-14-151.5-27T38 28q8 14 16.5 32.5T63 94q0 11-9 31t-18 35zm740 0q-9-15-18-35t-9-31q0-15 8.5-33.5T774 28q-83 14-153 27T469 82v18zm-397-30q7 0 12-4t5-20V78q0-16-5-21t-12-5q-6 0-11.5 4T362 75v34q0 14 5 17.5t12 3.5zm53 0q7 0 12-3t6-18V78q0-16-5-21t-12-5q-7 0-12 4.5T416 78v28q0 16 4.5 20t11.5 4z" fill="currentColor"/></svg>