<svg xmlns="http://www.w3.org/2000/svg" viewBox="-10 0 941 649"><path d="M238 649q3-17 6.5-52t3.5-75q0-32-7-89t-21.5-125.5q-14.5-68.5-37-135T129 55q-22 3-42 16.5t-32 43Q43 144 43 195v415q0 25-10 29.5T16 644q-7 0-16.5-4.5T-10 610V193q0-66 17.5-105t44-57.5Q78 12 106.5 6T157 0h606q22 0 50.5 6T869 30.5Q896 49 913.5 88T931 193v417q0 25-10 29.5t-17 4.5q-6 0-16-4.5T878 610V195q0-50-11.5-79T836 73.5Q817 60 796 56q-31 51-53.5 117.5t-37 134.5Q691 376 684 433t-7 89q0 40 3.5 75t6.5 52zM16 625q3 0 5-2.5t2-12.5V195q0-53 12.5-85T68 61.5Q88 45 111.5 39t46.5-6h604q23 0 47 6t44 22.5Q873 78 885.5 110t12.5 85v415q0 10 1.5 12.5t4.5 2.5q3 0 5-2.5t2-12.5V193q0-60-15.5-95t-39-52Q833 29 808 24t-45-5H157q-19 0-44 5T64 46Q40 63 24.5 98T9 193v417q0 10 2 12.5t5 2.5zm245 4h404q-2-15-4.5-44.5T658 522q0-30 6.5-86.5T685 311q14-68 36-136t54-122H150q31 54 53.5 121.5t36.5 136q14 68.5 21 125t7 86.5q0 33-2.5 62.5T261 629z" fill="currentColor"/></svg>