<svg xmlns="http://www.w3.org/2000/svg" viewBox="0 0 454 500"><path d="M354.3 0c35.6 104.7 74.2 249.3 99.7 457.9l-131.9-79.8c-35.3 36.8-52.2 77.5-50.6 121.9h-89.7c-1.5-44.5-18.2-84.9-49.8-121.2L0 457.9C15.3 249.3 48.8 97.1 100.5 1.5 184.8 27.1 269.4 26.6 354.3 0zM112.7 25.3L105 45.2c81.3 27.6 162.1 27.6 242.3 0l-7.7-19.9c-75 20.5-150.7 20.5-226.9 0zM96.6 63.7c-33.7 85.4-56.8 201.2-69 347.4 78.7-39.4 140.3-79.2 184.8-119.6-46.5-87.9-78.7-161.3-96.6-220.1l-19.2-7.7zm253.9 1.5c-82.3 26.6-152.4 30.4-210.1 11.5C169 158 200.2 225.5 234 279.2c57.3 50.1 121.2 94.3 191.7 132.7C398 249.3 373 133.7 350.5 65.2zM164.1 362c21.5 25.1 35 63.4 40.6 115h43.7c6.6-51.6 20.7-90 42.2-115L227 312.9 164.1 362z"/></svg>