<svg xmlns="http://www.w3.org/2000/svg" viewBox="-10 0 764 999"><path d="M267 999q0-26-4-61t-12-69q-8-34-21-56-48 52-107.5 99T-10 992V884q0-70 2.5-141.5T6 592q11-79 36-174 7-26 19.5-66.5T90 265q16-46 34-88.5t36-73.5V0h410v94q65 59 89 111t24 108v32q0 18 .5 27.5T686 394q2 12 8.5 35.5T713 499q21 81 31 180.5T754 884v108q-73-33-132.5-80T514 813q-13 22-21.5 56t-12 69q-3.5 35-3.5 61zM180 84h370V20H180zM9 961q78-40 142.5-99t114-124q49.5-65 84-126T403 505q23-55 41-115t31-116q13-56 20.5-100.5T504 103H183q-17 26-35.5 68.5T112 262q-17 48-30.5 91T61 423q-25 92-36 170.5T11.5 743Q9 814 9 884zm725 0v-77q0-105-9.5-203.5T694 504q-10-39-16-62t-9.5-37q-3.5-14-4.5-27t-1-33v-32q0-54-20-94.5t-46-69Q571 121 553 103h-29q-1 26-8.5 71.5t-20.5 102Q482 333 463 394t-43 119q-7 17-16.5 37.5T382 593q34 62 85 130.5T584.5 855Q651 918 734 961zm-447 18h170q2-17 5-50t12-68.5q9-35.5 26-62.5-41-47-72.5-94.5T372 613q-24 43-56 90.5T243 798q18 27 26.5 62.5t12 68.5q3.5 33 5.5 50z" fill="currentColor"/></svg>