<svg xmlns="http://www.w3.org/2000/svg" viewBox="-10 0 532 1240"><path d="M403 817q-14 0-32-13t-31-39.5Q327 738 327 699q0-13 4-27.5t4-27.5q0-7-2-13.5t-13-6.5q-21 0-29 25.5T278 715h-62q0-18-10-43.5t-34.5-44Q147 609 101 611q0-22 1.5-49.5T107 507q3-27 8-45 16-61 50-109.5t74-87q40-38.5 75-67.5 25-22 48-41.5t30-36.5q7-13 8-29t5-32q4-17 18-38t43-21q29 0 42.5 16T522 48q0 25-12 47t-25 38q-6 9-11 16t-5 11q0 5 2 15.5t4 23.5q4 20 7.5 46t3.5 45q0 65-17 118t-36 97q-15 36-27 72t-12 72q0 47 10.5 76.5T422 771q3 7 5.5 12.5T430 797q0 4-7 12t-20 8zm-1-19q4 0 5.5-3.5t1.5-6.5q0-4-2-7.5t-4-7.5q-8-16-18.5-45T374 649q0-39 12-75t28-74q19-44 35.5-94.5T466 290q0-19-3.5-43.5L456 201q-6-26-6-41 0-7 5.5-16t12.5-19q11-15 22.5-33.5T502 51q0-11-7.5-21.5T466 19q-20 0-29.5 16T424 65q-3 16-4 31t-9 31q-9 18-30.5 38T331 209q-34 29-74 66t-74 84q-34 47-49 107-7 31-10.5 68.5T120 593q41 1 65 19.5t35 42q11 23.5 13 40.5h30q4-40 17-66t40-26q23 0 28.5 15t5.5 26q0 13-4 27.5t-4 27.5q1 50 19.5 74.5T402 798zm-186 442q-63 0-114-30.5T20.5 1128Q-10 1077-10 1014t30.5-115Q51 847 102 816.5T216 786q63 0 114.5 30.5T413 899q31 52 31 115t-31 114q-31 51-82.5 81.5T216 1240zm0-309l100-99q-22-12-47-19t-53-7q-54 0-100 26zm-116 254l116-116 117 116q16-10 30-24t25-30l-116-117 116-117q-11-16-25-30t-30-25L216 959 100 842q-34 23-55 56l116 116-116 116q11 17 24.5 31t30.5 24zm299-72q25-45 25-99 0-53-25-100l-100 100zm-364 0l99-99-100-99q-25 45-25 99 0 27 7 52t19 47zm181 108q54 0 100-26l-100-99-99 99q46 26 99 26z" fill="currentColor"/></svg>