<svg xmlns="http://www.w3.org/2000/svg" viewBox="0 0 452.8 594.4"><path d="M452.8 17.4L201 594.4l-74-47.6c6.8-24.4 26.5-45.3 40-66.8-.2-8.4-4.2-12.6-11.9-12.6s-14.9 4.4-21.5 13.2C98.8 460 64 451 29.2 453.6 26.1 420.1 17.5 363 3.4 282.4h169.2c6.2.9 8.8-.4 7.9-4-30-21.6-61.6-44.3-94.8-68.1-33.3-23.8-56.3-47.5-69.1-71.1C3.8 115.7-1.6 94.2.4 74.5c2-19.6 9.3-33.7 21.8-42.3 12.6-8.6 25.1-11.9 37.7-9.9 12.6 2 22.1 6.7 28.8 14.2s9.9 16.3 9.9 26.4-2.4 18.9-7.3 26.4c-4.8 7.5-13.4 11.7-25.8 12.6-12.3.9-20.7-4.4-25.1-15.9C36 74.7 38 67.4 46.3 64.3c4.4 0 8.6 4.1 12.6 12.2 4 8.2 9 8.2 15.2 0 6.2-8.2 6.5-16.3 1-24.5S59 41.5 43.4 45.1c-15.6 3.5-23 17.6-22.1 42.3.9 24.7 13.2 49.4 37 74 107.1 83.7 170.8 124.3 191 121.6 5.7 0 11.2-4.4 16.5-13.2L417.1.2c15-1.3 26.9 4.4 35.7 17.2zm-23.1 11.9l-7.9-3.3-149.4 281.5h-236c7.1 39.7 13.4 71.4 19.2 121.6 32.6 0 52.7 6.2 73.4 18.5 25.9-17.9 43.9-8.7 55.2 7.9 15 22.2 1.8 39.3-10.6 55.9-11.8 15.7-15.8 19.6-15.8 25.3 7.4 8.6 30 19.7 34 22.3L429.7 29.3z"/></svg>