<svg xmlns="http://www.w3.org/2000/svg" viewBox="-10 0 708 1154"><path d="M557 1154q-18 0-30-12t-20-28q-8-16-12-29-6-18-15-53.5T466 959q-1-14-4.5-30t-12-27.5Q441 890 423 890q-28 0-37.5 17t-9.5 35v63H276q-3-45-23-81.5T202 874q-19-8-47-12t-56.5-5.5Q70 855 50 855q-9 0-21 .5t-15 .5q2-21 0-54.5T8 730q-4-38-8-71.5t-7-55q-3-21.5-3-22.5 179 0 291-10t167-29L110 173q-17-18-28-38.5T71 84q0-31 25.5-57.5T161 0q30 0 48 12t26.5 28.5Q244 57 244 70q0 29-16.5 46.5T183 134q-14 0-29.5-8.5T138 93q0-19 14.5-28.5T181 54l2 20q-8 1-17 5.5T157 93q0 13 9 17t17 4q19 0 30.5-11.5T225 70q0-14-15-32t-49-18q-30 0-50 20.5T91 84q0 25 10 42.5t24 33.5l343 374q8-4 14-7.5t11-8.5L643 5h55L583 502q-16 67-31.5 147T536 806q0 24 2.5 57t5.5 66q3 33 7 59.5t7 37.5q3 11 9 29.5t11 36.5q5 18 5 28 0 17-7.5 25.5T557 1154zm0-19q4 0 5.5-4t1.5-8q0-9-5-26t-10.5-35.5Q543 1043 540 1031q-3-13-7.5-40.5t-8-61.5q-3.5-34-6-67t-2.5-56q0-78 16-159.5T564 498L673 24h-15L510 528q-36 35-156.5 53T13 600q8 57 14.5 116T35 836h15q31 0 77 2t83 17q34 14 56 51t28 80h63v-44q0-16 5-32.5t19.5-28Q396 870 423 870q26 0 38.5 14.5t17 35Q483 940 485 958q4 35 13 69t16 51q5 17 16 37t27 20z" fill="currentColor"/></svg>