<svg xmlns="http://www.w3.org/2000/svg" viewBox="-10 0 1293 1256"><path d="M434 1256V862q-17 2-34.5 3t-34.5 1q-40 0-64.5-6.5t-40-19Q245 828 229 809l-38-47q-8-8-18-19t-20-11q-14 0-28 4.5T87 741q-38 0-67.5-16.5T-10 679q0-25 23.5-45.5T65 603l-68-65q-7-7-7-16 0-8 6-15t16-7q5 0 11 2.5T39 515l78 76 79-76q11-10 17-12.5t11-2.5q9 0 15.5 7.5T246 522q0 9-9 18l-67 64q30 11 48 28.5t25 25.5l32 44q10 13 24 26t33 13q19 0 44.5-7t57.5-17V186q0-34 4-67.5t19-60Q472 32 504.5 16T594 0q58 0 90.5 17.5t47.5 46Q747 92 750.5 125t3.5 63v533q4 2 10 4 22 9 64.5 25.5t101 30Q988 794 1058 794q42 0 73.5-1.5t61.5-5q30-3.5 68-8.5 2 0 3-.5t3-.5q8 0 12 6t4 13q0 6-4 12t-14 11q-50 26-104.5 36T1053 866q-47 0-99.5-4.5t-103.5-10q-51-5.5-96-10.5v78h-80v-84h-8q-40 0-77.5 5T513 851v405zm300-543V188q0-27-3-56.5t-16-55Q702 51 673.5 35T594 19q-50 0-78.5 14.5t-42 38.5q-13.5 24-17 53.5T453 186v524q2-1 4-1.5t4-1.5q7-1 15-4t18-6V186q0-18 3-40t12.5-41.5Q519 85 539 72.5T594 60q47 0 68 18.5t26.5 47Q694 154 694 186v512q11 3 20.5 7t19.5 8zm-221-21q20-5 40.5-9t40.5-4q21 0 41 3.5t39 9.5V186q0-26-4-51t-21-40.5Q632 79 594 79q-37 0-54.5 18t-22 43.5Q513 166 513 186zm-364-95l71-68q7-6 7-9t-4-3q-1 0-8 5l-76 73zm-62 0l9-1-75-74q-5-5-9-5-3 0-3 3t6 9zm278 248q50 0 98.5-7.5t99-14.5q50.5-7 103.5-7 33 0 79.5 4.5t99.5 10q53 5.5 106.5 10T1053 845q48 0 100.5-9.5T1252 806q9-3 9-6t-5-3q-1 0-2 .5t-2 .5q-48 8-90.5 11.5T1058 813q-69 0-128.5-13t-104-29.5Q781 754 756 744q-36-16-78.5-30.5T594 699q-34 0-70.5 10T466 726q-42 14-75.5 24T332 760q-27 0-44.5-14.5T259 715l-32-46q-5-7-18.5-20t-36-24Q150 614 119 614q-49 0-79 21.5T10 679q0 20 23 31t54 11q28 0 40.5-4.5T153 712q16 0 30.5 14t23.5 25l38 46q17 21 41 34.5t79 13.5zM110 662q-6 0-11.5-5T93 646q0-7 5.5-11.5T110 630q6 0 11 4.5t5 11.5q0 6-5 11t-11 5zm584 238h40v-61q-11-1-21-1.5t-19-1.5zm-241 337h41V854q-11 2-21 3l-20 2z" fill="currentColor"/></svg>