<svg xmlns="http://www.w3.org/2000/svg" viewBox="0 0 579.5 594.5"><path d="M333.9 400.9c0 5.8-4.5 8.8-13.5 8.8-8.5 0-12.8-2.9-12.8-8.8V60.1C304.9 38 296.3 27 281.9 27c-16.2 0-25.4 10.8-27.7 32.4v523c0 8.1-4.5 12.1-13.5 12.1-8.5 0-12.8-4.3-12.8-12.8V49.9c0-33.3 18-49.9 54-49.9 34.6 0 52 17.1 52 51.3v349.6z"/><path d="M49.1 238.6c.9 0 1.8.1 2.8.2.2 0 .6-.1 1.2-.1 8.4 0 53.4 5.7 82.7 38.1 3.4 3.7 19.7 6.2 38.8 6.2 20.8 0 44.9-2.9 59.1-10.1 32.4-6.3 54.8-8.1 72.1-8.1 22.4 0 36.3 2.9 52.7 2.9h1.6c38.8 0 78.5 18.4 123.6 18.4 2.9 0 5.8-.1 8.8-.2 5.2-.3 9.9-.4 14.1-.4 31.6 0 36.3 7 17.9 7-2.2 0-33.5.5-46.7.5-23 0-67.7-3.3-106.5-3.3-19.6 0-37.8.8-50.8 3.4-39.6 8-80.3 13.7-90.6 13.7-1 0-1.7-.1-2.1-.2-5.7-.3-10.3-.3-14.3-.3-6 0-10.5.2-14.7.2-11.8 0-21-1.5-54-12.6-23.9-7-26.3-27.4-67.5-31.4h-.1c-3 0-39.8 8.5-41.9 8.5-24.2-.1-7.4-32.4 13.8-32.4zM78.2 161c-6 0-13.1 5.5-20.3 21.9-1.2 2.8-9.2 29.9-9.2 29.9s-5.4-25.1-7.4-29c-6.8-13.4-15.9-18.6-23.6-18.6C6 165.2-1 184.4 5.9 197.3l24.6 27.1c.6.5.3.7-.1.7s-.9-.2-.5-.5l-12.4 6.2c-27.1 20.1-15.7 45.5-11.1 51.7 6 3 16.2 9.6 28.3 9.6 10.4 0 21.5-4.4 36-7.6 3.1-.7 6.1-1 9-1 19 0 32.4 13.8 41 22.4 0 0 32.8 21.8 103.8 21.8 51.1 0 87.9-17.1 119.9-17.1 5.1 0 107.8-1.5 128.9-1.5 16.1-.8 72.3-4.4 84.7-4.9 29.1-1.3 20.6-11.4 20.6-11.4S563.4 273 501.9 273h-5.2c-29.3 0-65.4-10.1-76.3-12.9-45-11.6-90.9-13.9-108.7-13.9h-3.8c-113 2.9-100.3 16-143.3 16-4.5 0-9.5-.1-15.4-.4-30.4-23-49.4-32.6-49.4-32.6-6.4-3.9-25.7-9.4-32.1-13.4 8.3-13.9 22.8-16.7 26-34.6.8-5.9-5.8-20.2-15.5-20.2z"/></svg>