<svg xmlns="http://www.w3.org/2000/svg" viewBox="0 0 577.8 594.6"><path d="M.7.3C.3.3 0 .7 0 1v5.3h.3V1C.3.7.3.7.6.7s.7 0 .7.3v3.6h.3V1C1.7.7 1.3.3.7.3zm355.1 23.2c9.3 2.3 17.5 3 27.1 3.3-12.2 36-18.2 74.1-15.5 112.1 35.4 16.9 71.1 22.2 107.5 22.2 25.8 0 51.9-2.6 78.7-6-39.7 123.7-128 212-223.6 271.2-44 27.4-130 51.6-200.7 63.2-1.3 0-2.3.3-3.6.3 5.3-1 10.9-2 16.9-3.6 55.6-12.9 115.1-31.7 149.8-48.9 83.7-41.3 154.4-135.6 171-213.6 3-13.9-1-27.1-9.6-36.7-8.3-9.9-20.2-16.5-34.4-21.5-18.2-6.6-40-9.9-62.5-9.9-6.9 0-14.2.3-21.5 1 13.2-45.5 22.1-88.5 20.4-133.1zM337.3 0c6.6 60.5-8.3 119.7-26.1 177.3 14.9-3 29.4-4.3 43.3-4.3 19.5 0 38.7 2.6 59.2 8.3 12.2 4.3 21.5 10.3 27.1 16.9 5.6 6.3 7.6 12.9 5.6 21.8-14.9 70.8-84 163.7-161.7 202.1-32.4 15.9-91.3 34.7-146.2 47.6-6.3 1.3-12.2 2.6-18.2 4V74.4c0-25.5 14.6-38.4 43.3-38.4 29.1 0 43.7 12.9 43.7 38.4v349.2h37V74.4c0-49.3-27.1-74.1-80.7-74.1S83.2 25.1 83.2 74.4v404.8c-10.9 1.7-21.5 2.6-30.8 3.6-15.2 3-49.6-1.3-49.9 20.2 3.3 10.6 18.9 11.9 30.8 11.9 4 0 7.3-.3 10.3-.3 11.2 0 24.8-.7 39.7-2v82h37V508c4-.3 7.9-1 11.9-1.7 72.1-11.9 158.4-35.1 207-65.5C454.6 369 539.6 265.5 577.6 133.9c-29.4 6.3-58.9 9.6-88 9.6-35.7 0-71.1-5-105.8-16.2-1.7-41.3 9.3-79.7 23.8-118.1-5.3.3-10.6.7-15.5.7-18.7 0-35.6-3.9-54.8-9.9z"/></svg>