<svg xmlns="http://www.w3.org/2000/svg" viewBox="-10 0 1250 1256"><path d="M418 1256v-237q-68 13-133.5 19t-125.5 6q-41 0-78-4t-62-8.5q-25-4.5-29-5.5l5-41q6 1 16.5 1.5t20.5.5q40 0 135.5-11.5T418 917V186q0-34 4-67.5t19-60Q456 32 488.5 16T578 0q58 0 90.5 17.5t47.5 46Q731 92 734.5 125t3.5 63v582q64-42 119.5-86t97.5-84q42-40 65-70-2-7-11-26.5T980 458q-20-26-53.5-54T841 352q10-36 13.5-52t3.5-33q0-9-4.5-28T842 198q-7-22-13-39h140q-6 14-12 36t-6 39q0 20 16 55t50.5 75.5q34.5 40.5 89.5 78t133 61.5q-45 72-104.5 133.5T1011 749q-65 50-127.5 88T770 902q-64 33-133.5 58T497 1003v253zm19-19h41V186q0-18 2.5-40t12-41.5q9.5-19.5 30-32T578 60q47 0 68 18.5t26.5 47Q678 154 678 186v621l20-12 20-12V188q0-27-3-56.5t-16-55Q686 51 657.5 35T578 19q-50 0-78.5 14.5t-42 38.5q-13.5 24-17 53.5T437 186zm60-347l10-3q38-13 76-31t75-38V186q0-26-4.5-51T632 94.5Q615 79 578 79t-54.5 18q-17.5 18-22 43.5T497 186zm0 91q68-17 135.5-41T761 884q47-25 105.5-60.5T987 742q62-46 119.5-103T1209 515q-75-27-127.5-65.5t-85.5-80Q963 328 947.5 292T932 234q0-21 4.5-35.5T942 179h-85q5 16 13 43.5t8 44.5q0 17-3.5 33T863 342q54 25 91 60t58.5 70.5Q1034 508 1041 534q-27 36-78.5 86.5T840.5 725Q770 779 685 828t-180 82l-8 3zm-338 44q118 0 259-26v-60q-97 29-169 44t-125 19.5q-53 4.5-92 4.5H11v4q17 2 59.5 8t88.5 6z" fill="currentColor"/></svg>