<svg xmlns="http://www.w3.org/2000/svg" viewBox="-10 0 477 1032"><path d="M229 1032q-18 0-39.5-3.5t-41-17.5Q129 997 116 967.5T103 886v-71l-31 21q-25 15-43 15-26 0-32.5-10t-6.5-21q0-17 23-46t46-55q14-16 24-29.5t20-30.5v-11q0-46-9-88.5T76 494l26-13-36-122q-7-25-14-62t-7-78q0-39 8.5-78T82 70q20-32 56-51t91-19q55 0 91 19t56 51q20 32 28.5 71t8.5 78q0 41-7.5 78T391 359l-36 122q7 4 13.5 7t12.5 6q-8 23-17 65.5t-9 88.5v11q9 17 19 30.5t25 29.5q22 26 45 55t23 46q0 11-7 21t-32 10q-18 0-43-15l-30-21v71q0 53-13 82.5t-33 43q-20 13.5-41.5 17T229 1032zM119 471q22-14 44-45t37.5-90.5Q216 276 219 175h19q3 101 18 160.5t37 90q22 30.5 44 45.5l35-118q7-23 14-59.5t7-74.5q0-48-13.5-94t-49-75.5Q295 20 229 20q-50 0-82 17.5t-50 46q-18 28.5-25.5 64T64 219q0 38 7 74.5T85 353zm2 153l6-11q21-44 42.5-76.5T229 504q37 0 59 32t43 77l5 11q1-43 9-75t12-46q-11-4-28.5-14.5t-36.5-32q-19-21.5-36-59T229 302q-10 58-27 95.5t-36.5 59q-19.5 21.5-37 32T101 503q4 14 11 46t9 75zm108 389q14 0 32-3t35-15q17-12 28-37.5t11-71.5V665q-11-18-22-43-18-37-36.5-68T229 523q-29 0-47.5 31T145 622q-6 12-11.5 22.5T122 665v221q0 45 11 70.5t28 38q17 12.5 35.5 15.5t32.5 3zM29 832q14 0 32-12l42-28v-97q-8 10-15 18.5T73 731q-14 16-29 34t-25 32Q9 811 9 817q0 4 3 9.5t17 5.5zm399 0q13 0 16.5-5.5t3.5-9.5q0-6-10-20t-25-32q-15-18-29-34-8-9-15.5-17.5T355 695v97l41 28q18 12 32 12z" fill="currentColor"/></svg>