<svg xmlns="http://www.w3.org/2000/svg" viewBox="0 0 250.2 594.5"><path d="M125.1 570c27.2 0 41.2-21.6 42.1-64.7-1.3-29.8 0-66 3.9-108.7l-45.9-86.7-45.9 86.7c3.9 42.7 5.2 78.9 3.9 108.7.7 43.1 14.7 64.7 41.9 64.7zm13-472.3v128.7c3.9 26.3 16.6 50.2 38.2 71.8 4.3-9.5 9.7-36.6 16.2-81.2s10.4-85.3 11.6-121.9c.4-17.3-5.8-33.1-18.8-47.5-12.9-14.4-33-21.7-60.2-21.7-27.2 0-47.2 7.2-60.2 21.7C52 62 45.8 77.8 46.2 95.1c1.3 36.7 5.2 77.3 11.6 121.9 6.5 44.6 11.9 71.7 16.2 81.2 21.6-21.6 34.3-45.5 38.2-71.8V97.7h25.9zM125.1 0c69 0 102.9 32.1 101.6 96.4-6 80.2-11.3 141.1-15.8 182.8-4.5 41.6-8.7 72.8-12.6 93.5 3 13.4 12.1 28.5 27.2 45.3 20.7 22 28.5 37.5 23.3 46.6-6.5 11.2-18.8 11.9-36.9 1.9-8.6-4.7-15.5-10.6-20.7-17.5-2.6 6.9-3.9 31.7-3.9 74.4 0 19.4-4.7 36.1-14.2 50.1s-25.4 21-47.9 21c-22.4 0-38.4-7-47.9-21s-14.2-30.7-14.2-50.1c0-42.7-1.3-67.5-3.9-74.4-5.2 6.9-12.1 12.7-20.7 17.5-18.1 9.9-30.4 9.3-36.9-1.9-5.2-9.1 2.6-24.6 23.3-46.6 15-16.9 24.1-32 27.1-45.4-3.9-20.7-8.1-51.9-12.6-93.5S29.6 176.6 23.6 96.3C22.3 32.1 56.1 0 125.1 0z"/></svg>