<svg xmlns="http://www.w3.org/2000/svg" viewBox="-10 0 459 1035"><path d="M153 1035l46-434q-50 2-106.5 10.5T-10 628V517q23 4 56 10t68.5 10.5Q150 542 181 544q-10-17-29-49t-41-73q-22-41-42-85.5t-32.5-87Q24 207 24 172q0-63 28-101t73-54.5Q170 0 220 0q49 0 94 16.5T387.5 71Q416 109 416 172q0 35-13 77.5t-32.5 87Q351 381 329 422t-41 73q-19 32-30 49 31-2 67-6.5t69-10.5l55-10v112q-47-9-103.5-17.5T240 601l46 434zm52-490h28q-14-26-34-62.5T157.5 404Q136 362 117 319.5T86 239q-12-38-12-67 0-47 23.5-73.5T155 61q34-11 65-11t64.5 11Q318 72 342 98.5t24 73.5q0 30-13.5 71.5t-34.5 87Q297 376 274 420t-43 80l15 26q11-19 29.5-50.5t39.5-71q21-39.5 39.5-81.5t30-81q11.5-39 11.5-70 0-55-25.5-88.5T305 35q-40-15-85-15t-85 15Q95 50 69.5 83.5T44 172q0 36 16 83.5t39.5 97q23.5 49.5 47 92.5t40 70.5Q203 543 205 545zm15-65q20-37 42-80t41-86q19-43 31-80t12-62q0-39-20.5-61.5t-49.5-32Q247 69 220 69t-56.5 9.5q-29.5 9.5-50 32T93 172q0 25 12 62t31 80q19 43 41.5 86t42.5 80zM9 605q22-4 56.5-9.5t75-10Q181 581 219 581t78.5 4.5q40.5 4.5 75.5 10t56 9.5v-64q-16 3-51 8.5T300 560q-43 5-81 5-27 0-65.5-4t-77-9.5Q38 546 9 541zm167 411h88q-13-101-22-206t-22-209z" fill="currentColor"/></svg>