<svg xmlns="http://www.w3.org/2000/svg" viewBox="0 0 320.5 594.6"><path d="M140.6 575.1c0 13 6.5 19.5 19.5 19.5 13.2 0 19.8-6.5 19.8-19.5l-6.6-343.9c8.8 0 14.4-6.2 16.9-18.5 2.6-12.3 11.8-9.4 27.4 8.9 17.4-19.8 19.7-36.9 6.9-51.3h95.9C319.8 56.8 266.2 0 159.7 0 53.2 0 0 56.8 0 170.3h95.9c-13 14.3-10.8 31.4 6.6 51.3 15.9-18.3 25-21.3 27.4-8.9 2.4 12.3 8.2 18.5 17.2 18.5l-6.5 343.9zm19.1-404.8h37.4c7.3 0 13.4 3.5 18.5 10.6 4.9 7.3 4.5 14.1-1 20.5-19.2-20.7-30.4-22.6-33.7-5.6-3.1 17.2-10 25.8-20.8 25.8-10.6 0-17.5-8.6-20.8-25.8-3.1-17-14.3-15.1-33.7 5.6-5.5-6.4-5.8-13.2-1-20.5 4.6-7.1 10.9-10.6 18.9-10.6h37-.8zm0-147.2c87.7 0 133.4 42.3 136.9 127h-89.3c0-40.1-15.9-60.2-47.6-60.2-31.1 0-47 20.1-47.6 60.2h-89c3.3-84.7 49.1-127 137.2-127h-.6zm0 79.4c23.4 0 35.1 15.9 35.1 47.6h-69.1c0-31.7 11.6-47.6 34.7-47.6h-.7z"/></svg>