<svg xmlns="http://www.w3.org/2000/svg" viewBox="-10 0 722 1032"><path d="M351 1032q-27 0-35-27t-8-71v-19.5l1-33.5 17-371q-18-8-26.5-26.5T289 451l-11-6q-10 9-21.5 23T235 498q-26-1-34-15t-8-24q0-22 19-43H-10v-31q0-16 2.5-50T5 257q10-44 32.5-88.5t62.5-83q40-38.5 101.5-62T351 0q88 0 149.5 23.5t101.5 62q40 38.5 62.5 83T697 257q10 44 12.5 78t2.5 50v31H489q19 19 19 43 0 10-8 24t-34 15q-21-34-43-53l-11 6q-1 14-10 32.5T376 510l17 371q1 19 1 33v20q0 44-8 71t-35 27zM9 396h226v-14q0-5 2.5-23.5t13-41.5q10.5-23 34.5-39.5t66-16.5q42 0 65.5 16.5t34 39.5q10.5 23 13 41.5T466 382v14h226v-11q0-16-2.5-48.5t-12-74q-9.5-41.5-30.5-84T588.5 100Q551 64 493 42T351 20q-84 0-142.5 22t-96 58Q75 136 54 178.5t-30.5 84q-9.5 41.5-12 74T9 385zm245 0h193v-14q0-4-2-19.5T434 328q-9-19-28.5-33T351 281q-35 0-55 14t-29 33q-9 19-11 34.5t-2 19.5zm97 100q22 0 33-20t12-39l31-15q12 11 25 25t24 31q8-2 10-7.5t2-11.5q0-8-6.5-20.5T459 416H242q-16 10-22.5 22.5T213 459q0 6 2 11.5t10 7.5q10-17 23.5-31t25.5-25l31 15q2 19 13 39t33 20zm0 517q16 0 19.5-22t3.5-57q0-14-1.5-54.5t-4-94q-2.5-53.5-5-108t-4.5-98q-2-43.5-3-63.5h-11q-1 20-3 64t-4.5 98q-2.5 54-5 107.5t-4 94Q327 920 327 934q0 35 4 57t20 22z" fill="currentColor"/></svg>