<svg xmlns="http://www.w3.org/2000/svg" viewBox="-10 0 722 1032"><path d="M351 1032q-27 0-35-27t-8-71v-19.5l1-33.5 17-465H-10v-31q0-16 2.5-50T5 257q10-44 32.5-88.5t62.5-83q40-38.5 101.5-62T351 0q88 0 149.5 23.5t101.5 62q40 38.5 62.5 83T697 257q10 44 12.5 78t2.5 50v31H375l18 465q1 19 1 33v20q0 44-8 71t-35 27zM9 396h224q2-28 11-59.5t34-53.5q25-22 73-22 47 0 71.5 22t34 53.5Q466 368 467 396h225v-11q0-16-2.5-48.5t-12-74q-9.5-41.5-30.5-84T588.5 100Q551 64 493 42T351 20q-84 0-142.5 22t-96 58Q75 136 54 178.5t-30.5 84q-9.5 41.5-12 74T9 385zm244 0h195q-1-24-9-50.5T410.5 300Q390 281 351 281q-40 0-60.5 19T262 345.5q-8 26.5-9 50.5zm98 617q16 0 19.5-22t3.5-57q0-13-1-53t-3-95.5q-2-55.5-4.5-116T361 555q-2-54-4-92t-2-47h-9q-1 11-2.5 49t-3.5 92.5q-2 54.5-4.5 114.5T331 787q-2 55-3 94.5t-1 52.5q0 35 4 57t20 22z" fill="currentColor"/></svg>