<svg xmlns="http://www.w3.org/2000/svg" viewBox="-10 0 589 1032"><path d="M284 1032q-27 0-35-27t-8-71v-19.5l1-33.5 17-555H-10q0-13 4-41.5t15-65q11-36.5 31.5-75T93 73q32-33 79-53T284 0q65 0 112 20t79.5 53q32.5 33 53 71.5t31.5 75q11 36.5 15 65t4 41.5H309l17 555q1 19 1 33v20q0 44-8 71t-35 27zM10 306h548q-1-16-9-50t-25.5-74q-17.5-40-48-77T398 44q-47-24-114-24T170 44q-47 24-77.5 61t-48 77Q27 222 19 256t-9 50zm274 707q16 0 20-22t4-57q0-11-1-45.5t-2.5-84.5q-1.5-50-3-108T298 579q-2-59-3.5-111t-3-89.5Q290 341 290 326h-11q0 15-1.5 53t-3 89.5Q273 520 271 579t-3.5 117q-1.5 58-3 108t-2.5 84.5q-1 34.5-1 45.5 0 35 3.5 57t19.5 22z" fill="currentColor"/></svg>