<svg xmlns="http://www.w3.org/2000/svg" viewBox="-10 0 333 1032"><path d="M156 1032q-27 0-35-27t-8-71q0-14 3-53l18-217q-18-6-31.5-20T87 605l-2-17q-1-13-9-24.5T54 552q-8 0-17.5 5.5T16 563q-6 0-16-4t-10-17q0-15 20-32 14-11 38.5-22.5T108 470V181q0-20-2-40.5T90 105q-5-5-9-8.5T73 89Q63 79 54 69t-9-21q0-17 16-32.5T117 0q39 0 68 29.5t29 80.5v361q31 7 53 17.5t35 21.5q21 18 21 32 0 13-10 17t-17 4q-11 0-20-5.5t-18-5.5q-13 0-21 11.5t-9 24.5l-2 17q-2 25-16 39t-32 20l18 217q1 19 2 33t1 20q0 44-8 71t-35 27zm38-564V110q0-42-23-66t-54-24q-29 0-40.5 9T65 48q0 5 6.5 11.5T86 73q5 6 10 10.5t10 9.5q18 19 20 42.5t2 45.5v286q7-1 14-1h14q11 0 20 .5t18 1.5zm-38 179q17 0 33-10t18-32l1-20q2-22 14.5-37.5T254 532q13 0 22.5 5.5T296 543q7 0 7-3t-13-15q-17-14-50.5-27T156 485q-50 0-83.5 13T23 525Q9 536 9 540q0 1 3 2t4 1q10 0 19.5-5.5T59 532q20 0 32 15.5t14 37.5l1 20q1 22 17 32t33 10zm0 366q16 0 20-22t4-57q0-17-2.5-53.5t-6-79q-3.5-42.5-7-79.5t-5.5-55h-6q-2 18-5 54.5t-6.5 79.5q-3.5 43-6 79.5T133 934q0 35 3.5 57t19.5 22z" fill="currentColor"/></svg>