<svg xmlns="http://www.w3.org/2000/svg" viewBox="0 0 149.8 594.6"><path d="M149.8 339.3c-3.7 7.3-8.9 7.2-15.5-.3s-15.3-14.2-26.1-20.2c-4.9 16.1-11.4 24.1-19.5 24.1l3.6 233.2c-.7 12.3-6.5 18.5-17.5 18.5-11.2 0-16.9-6.2-16.9-18.5l3-233.2c-8.4 0-14.8-8-19.2-24.1-11.2 6-20.1 12.7-26.5 20.2-6.2 7.5-11.2 7.6-15.2.3 0-65.3 15.3-97.9 46-97.9V68.8c0-12.1-1.9-18.2-5.6-18.2-16.1 0-24.1-8.4-24.1-25.1C16.2 8.5 27.3 0 49.6 0c37 0 55.6 22.9 55.6 68.8v172.6c29.7 0 44.6 32.6 44.6 97.9zM90 68.8c0-36.2-13.4-54.2-40.3-54.2-12.1 0-18.2 3.6-18.2 10.9 0 8.4 6.1 12.6 18.2 12.6 7.9 0 11.9 10.3 11.9 30.8v172.6H90V68.8zM74.7 329.7c9.3 0 15.1-9.5 17.5-28.4 7.3-11.7 19-9.5 35.1 6.6 0-32.2-11.2-48.3-33.7-48.3h-38c-22.5 0-33.7 16.1-33.7 48.3 16.8-16.1 28.8-18.3 36-6.6 2 18.9 7.6 28.4 16.8 28.4z"/></svg>