<svg xmlns="http://www.w3.org/2000/svg" viewBox="0 0 193.7 597.1"><path d="M81.9.5C36.6-.7-2.8 42.8.5 87.5c-2.4 34.6 4.8 68.9 6.7 103.4 7.1 13.6 27.6 8.8 34.5-2.5 10.5-14.6 5.8-33.5 1.6-49.5-4.7-28.4-6.4-60.1 9.2-85.6 21-28.2 70.5-26.9 88.7 3.7 15.2 22.4 11.2 54.9-8.4 73.4-18.9 22.3-47.2 37.1-59.3 64.7-7.7 27.9-1.2 57-3.8 85.4C67.2 384 65.9 487.6 64 591.2c11 9.2 26 3 38.8 5.9 14.1-7.2 13-25.3 11.9-38.8-5-108.7-1.4-217.5-4.1-326.2.3-12.4-3.7-26.6 9.4-33.7 26.1-25.3 53.8-50.5 69.9-83.7 16.3-48.3-20.2-106-70.7-112.2C106.9 0 94.3-.6 81.9.5z"/></svg>