<svg xmlns="http://www.w3.org/2000/svg" viewBox="-10 0 317 1045"><path d="M117 1045V269q3 0 22-9.5t42-26q23-16.5 40.5-39T239 144q0-15-5.5-32.5t-20-30Q199 69 171 69q-32 0-49.5 14.5T104 131v70l-78 63-36-43 47-38v-61q0-40 14-64.5t36-37Q109 8 131 4t39-4q53 0 83 21.5T295 76q12 33 12 69t-14 63.5q-14 27.5-34.5 47T218 287q-20 12-33 16v742zm20-20h28V291q3 0 22-9.5t42.5-28q23.5-18.5 40.5-46t17-63.5q0-31-11-59t-37-46.5Q213 20 170 20q-14 0-33 3.5t-37.5 14Q81 48 68.5 68T56 122v70l-39 31 12 14 56-45v-61q0-47 24.5-64.5T170 49q36 0 55.5 15.5t26.5 38q7 22.5 7 41.5 0 29-14 52t-34 40.5q-20 17.5-40.5 29T137 282z" fill="currentColor"/></svg>