<svg xmlns="http://www.w3.org/2000/svg" viewBox="-10 0 1057 1171"><path d="M519 1171q-94 0-171.5-22T208 1090q-62-37-107-82.5T28 915q-28-47-38-89h305q1-45-6.5-99T270 622.5Q259 572 249 535q120 0 199.5-3t131-10.5Q631 514 668 501L356 174q-17-18-28.5-38.5T316 85q0-31 25.5-58T406 0q30 0 48 12.5t26.5 29Q489 58 489 71q0 29-16.5 46T428 134q-13 0-29-8t-16-33q0-19 15-28t28-10l2 19q-8 1-17 5.5T402 93q0 13 9.5 17.5T428 115q19 0 30.5-12T470 71q0-14-14.5-32.5T406 20q-30 0-50 20.5T336 85q0 25 10 42t24 33l318 333q7-4 9-5.5t6-5.5L843 5h55L697 826h350q-10 42-37.5 89t-73 92.5q-45.5 45.5-107 82.5T690 1149q-78 22-171 22zM315 826h363L874 25h-16L720 493q-23 23-72 36t-139 19q-90 6-236 7 10 38 19.5 86.5t16 97.5q6.5 49 6.5 87zm204 326q109 0 195-31t149-79q63-48 102.5-100.5T1020 846H17q15 43 54.5 95.5t103 100.5q63.5 48 149.5 79t195 31z" fill="currentColor"/></svg>