<svg xmlns="http://www.w3.org/2000/svg" viewBox="0 0 581.5 594.4"><path d="M289.8 566.1c104.4-2 184.4-40.7 240.1-116.1H51c56.1 75.3 135.9 114 239.5 116.1h-.7zm84.1-142.4l175-396-3.7-.6L412.6 291H189.1l19.6 132.6h165.2zm207.6 0c-56.9 113.4-153.9 170.3-291 170.7C153.7 594 56.9 537.1 0 423.7h180.5l-23.9-158.4h165.2c-30.7-22.5-61.6-44.8-92.7-66.9-31.1-22.1-52.5-44.1-64.2-66-11.7-21.9-16.6-42.4-14.7-61.4 1.8-19 8.5-32.5 20-40.5s24.3-11.2 38.4-9.5c14.1 1.6 24.3 5.9 30.4 12.9 6.1 7 9.1 15.8 8.9 26.4-.2 10.6-2.5 19.3-6.8 26.1-4.3 6.8-13.1 10.5-26.4 11.4-13.3.8-22-4.1-26.1-14.7-4.1-10.6-1.4-17.4 8-20.3 4.5 0 8.5 3.7 12 11.1 3.5 7.4 7.7 7.4 12.6 0 4.9-7.4 4.8-14.8-.3-22.4-5.1-7.6-14.4-9.7-27.9-6.4-13.5 3.3-20 16.4-19.3 39.3.6 22.9 12 45.8 34.1 68.8 99.9 77.8 161.7 115.4 185.4 113L535.4 0c17.6.8 31.6 7.2 41.8 19L399.1 424.3l182.4-.6z"/></svg>