<svg xmlns="http://www.w3.org/2000/svg" viewBox="0 0 169.8 594.6"><path d="M129 451.4c-.9 12.1 3 21.8 11.7 29.2 13.8 10.4 23.1 24.9 27.9 43.4 2.6 16 1.1 38.3-4.5 66.8-4.8 3.5-11.2 4.3-19.5 2.6 3.9-15.1 5.8-28.5 5.8-40.2 2.2-24.2-4.1-41.9-18.8-53.2-3.5-2.2-8.6-3.2-15.6-3.2-6.1 0-11 1.5-14.9 4.5-15.1 10.8-21.6 28.1-19.5 51.9 0 11.7 1.9 25.3 5.8 40.8-8.2 1.3-14.7.2-19.5-3.2-5.6-28.5-6.9-51-3.9-67.4 5.2-18.2 14.9-32.4 29.2-42.8 7.3-7.3 10.6-17.1 9.7-29.2V131.1c0-17.3-6.5-25.9-19.5-25.9-5.6 2.2-12.5 6.5-20.7 13-14.3 12.5-24.6 28.2-31.1 47s-11.5 33.6-14.9 44.4C6.3 227.3.7 224.9-.2 202.5c11.7-41.5 20.7-68.8 27.2-82s10.4-21.7 11.7-25.6C44.5 81 56 67.6 73.3 54.6 94.4 31.3 112.4 14 127.1 2.7c16.9-5.6 24-2.6 21.4 9.1-4.8 10.8-11.2 18.4-19.5 22.7-18.2 18.2-30.5 32.6-37 43.4 24.2 1.3 36.5 19 37 53.2v320.3z"/></svg>