<svg xmlns="http://www.w3.org/2000/svg" viewBox="-10 0 192 1045"><path d="M117 1045l-17-30 4-34-6-5-10 11-12 57H6l18-32 12-52 25-28V292q0-12-5-20-13 29-23.5 53T17 367q-4 16-9 30l-18-4v-14q0-16 .5-40.5t2.5-51Q-5 261 0 239t20.5-52.5Q36 156 51 128q10-17 17.5-31.5T78 75q5-16 7-35.5T86 9l14-9q2 1 12.5 9.5t20 28Q142 57 142 88q0 25-15 58t-34 62q14 7 25 23.5t11 38.5v656l33 37-7 42 27 40zM11 322q6-19 17-39t22-42q5-8 11-19t14-22q18-27 33-58.5T123 88q0-22-5.5-36T106 30q-1 11-3 24t-7 27q-4 10-11 24.5T68 137q-14 26-29 56t-19 47q-5 18-6.5 39.5T11 322zm29-67l-14-5 13-32 14 5zm20 770l9-45 27-33 29 26-4 39 7 13h17l-10-15 7-41-33-35V270q0-17-9.5-28T82 226q-5 7-8.5 13T68 250l-2 3q15 15 15 38v648l-28 31-13 54z" fill="currentColor"/></svg>