<svg xmlns="http://www.w3.org/2000/svg" viewBox="0 0 18.8 27.1"><path d="M8.3 27v-5.2c-1.1.1-2.6-.5-2.5-2.5H3.5c-.2.8-2 2.1-2.8 0H0v-.7h.2c0-.5.5-1.2 1.4-1.2.6 0 1 .3 1.4 1.2h15.6v.7H8.9V22l.2 5h-.8zm0-5.9v-1.8H6.6c0 1.5.7 1.8 1.7 1.8zm-6-2.6c-.4-.9-1.1-.9-1.6 0h1.6zm.5.8H1.3c.3 1.1 1.6.4 1.5 0z"/><path d="M8.9 18.6l1.4 2.3-.7.4.3 1h-1c-.6-.4-.4-.5-.6-.6l.6-3zm.2.6l.5 1.6.3-.2-.8-1.2v-.2zM9 21.6h.3L8.8 19l.2 2.6zM9 13.7c0 .4.2.7.5 1 .4.2.7.7.8 1.2l-.1 2-.6.1.2-1.2c0-.7-.1-1.3-.6-1.6a.8.8 0 0 0-.5-.2l-.5.1c-.4.4-.6 1-.5 1.6 0 .4 0 .8.2 1.2h-.6c-.2-1-.2-1.6-.1-2 .2-.6.5-1 .9-1.4.2-.2.3-.5.3-.9V4c0-.5-.2-.8-.6-.8l-.7.5c-.4.4-.7.8-1 1.4-.1.6-.2 1-.4 1.3-.3.6-.5.5-.5-.2L6 3.6l.4-.8c.2-.4.5-.8 1-1.2C8 1 8.6.4 9 .1c.5-.2.7 0 .6.3-.1.3-.3.5-.6.7-.5.5-1 1-1.1 1.3.7 0 1 .6 1 1.6v9.7z"/></svg>