<svg xmlns="http://www.w3.org/2000/svg" viewBox="0 0 148.2 594.6"><path d="M0 207c25.4-46.7 40.6-78.2 45.6-94.3 5.1-15.9 16-30.5 32.7-44 17-13.4 28.4-36.4 34.4-68.8 16.5 11 20.3 27 11.2 48-8.8 20.9-18 36.4-27.4 46.3 15.9 2 26.7 11.7 32.4 29.1 5.7 17.4 2.5 34.7-9.6 51.9-12.3 17.2-11.9 34.5 1.3 51.9 13.2 17.6 13 35.2-.7 52.6s-13.7 34.8 0 52.3c13.7 17.4 13.9 34.4.7 50.9-13.2 16.3-13.1 34.9.3 55.9s16.2 37.7 8.3 50.3c-7.9 12.3-11.9 19.5-11.9 21.5 20.5 5.1 30.8 17.6 30.8 37.7 0 7.3-1.9 16.9-5.6 28.8-3.7 11.7-12.6 17.5-26.5 17.5 6-23.6 8.9-38.6 8.9-45 0-11-7.5-16.5-22.5-16.5-14.6 0-21.8 5.5-21.8 16.5 0 6.4 3.3 21.4 9.9 45-14.6 0-23.7-5.8-27.4-17.5-3.7-11.9-5.6-21.5-5.6-28.8 0-20.1 9.5-32.6 28.4-37.7 0-2 3.5-9.1 10.6-21.5 6.8-12.6 3.4-29.3-10.3-50.3s-13.9-39.6-.7-55.9c13.2-16.5 13.3-33.6.3-51.3-13-17.6-13-35.1 0-52.3 13-17.2 12.9-34.6-.3-52.3-13.2-17.4-12.9-34.7 1-51.9 14.1-17.2 17.9-31.1 11.2-41.7-6.4-10.8-13.3-9.9-20.8 2.6-7.5 12.3-14.2 20.4-20.2 24.1-6 3.7-13.3 14.1-22.2 31.1C26.1 208.5 14.6 213.6 0 207zm53.9-64.8l28.4-39.7-8.3-5.3c-7.1 6-11.5 12.5-13.2 19.5-1.7 6.9-4 15.4-6.9 25.5z"/></svg>