<svg xmlns="http://www.w3.org/2000/svg" viewBox="-10 0 197 1045"><path d="M122 1045l-17-30 4-34-6-5-10 11-12 57H11l18-32 12-52 25-29q5-12 12.5-34t7.5-36q0-8-4.5-16T72 829q-7-11-13-23t-6-27q0-14 7-26.5T74 729l10-16 5-14q5-14-4.5-13T75 671q-8-11-15-25t-7-32q0-17 8-31.5T76 555q5-9 9.5-18t4.5-16q0-8-4.5-15.5T75 489q-8-12-15.5-25T52 434q0-17 7.5-33T74 369q7-13 12-24.5t5-21.5q0-16-13-32t-20-23q-14 29-25 54.5T17 367q-4 16-9 30l-18-4v-14q0-16 .5-40.5t2.5-51Q-5 261 0 239t20.5-52.5Q36 156 51 128q10-17 17.5-31.5T78 75q5-16 7-35.5T86 9l14-9q2 1 12.5 9.5t20 28Q142 57 142 88q0 26-16 60t-35 63l-1.5 3-1.5 2q8 7 23.5 23.5t28 38.5q12.5 22 12.5 45 0 22-8 40t-16 32q-6 10-10.5 19t-4.5 20q0 9 5 17t11 15q8 11 15 23.5t7 31.5q0 18-7 32t-15 25q-5 9-10 17.5t-5 18.5q0 11 5 19.5t10 16.5q8 11 14 22.5t6 26.5q0 16-7 28.5T128 751l-10 14-5 14q-5 14 4 13.5t9 13.5q7 11 14 23.5t7 31.5q0 21-5.5 37T131 923l36 40-7 42 27 40zM11 322q6-19 17-39t22-42q5-8 11-19t14-22q18-27 33-58.5T123 88q0-22-5.5-36T106 30q-1 11-3 24t-7 27q-4 10-11 24.5T68 137q-14 26-29 56t-19 47q-5 18-6.5 39.5T11 322zm29-67l-14-5 13-32 14 5zm25 770l9-45 27-33 29 26-4 39 6 13h17l-9-15 7-41-39-40q5-8 12-27t7-41q0-14-5.5-24T109 817q-5-8-10-16.5T94 779q0-12 5.5-21.5T112 739q7-9 12.5-19t5.5-21q0-10-5-20t-11-18q-7-10-13.5-21.5T94 614q0-14 6-25t13-22q7-10 12.5-21t5.5-25q0-15-5.5-25T113 478q-8-10-14-20t-6-24q0-13 5.5-25t12.5-24q8-13 14.5-27.5T132 323q0-18-10.5-36T98 254q-13-15-20-22l-6 10-4 9q11 8 27 29.5t16 42.5q0 13-6 27.5T92 378q-7 14-13.5 28.5T72 434q0 13 6 24t13 21q8 10 13.5 20t5.5 22q0 11-5.5 21.5T92 565q-7 11-13 23.5T73 614q0 13 6 25t13 22q6 9 11 18.5t5 19.5q0 11-5.5 20.5T90 740q-6 9-12 19t-6 20q0 10 5 20.5T88 819q7 10 12.5 20.5T106 861q0 10-5 27t-10.5 33Q85 937 84 940l-26 30-13 54z" fill="currentColor"/></svg>