<svg xmlns="http://www.w3.org/2000/svg" viewBox="-10 0 333 1035"><path d="M157 1035q-7 0-20.5-4.5T123 1001V575q-14-7-24-20.5T87 521l-2-17q-1-13-9-24.5T54 468q-8 0-17.5 5.5T16 479q-6 0-16-4t-10-17q0-15 20-32 9-7 22.5-14.5T63 397l6.5-45.5L79 279q9.5-72.5 8.5-84t3.5-79q0-37-4.5-62.5T76 0h166q-6 28-10.5 53.5T227 116q0 37 3.5 81t9 85.5q5.5 41.5 10 73T256 399q15 7 26.5 14t19.5 13q21 18 21 32 0 13-10 17t-17 4q-11 0-20-5.5t-18-5.5q-13 0-21 11.5t-9 24.5l-2 17q-1 20-11 33t-24 21v426q0 25-13.5 29.5T157 1035zm77-642q-3-18-7-50t-8.5-71.5q-4.5-39.5-7.5-80t-3-75.5q0-39 4-62.5t7-33.5H100q2 10 6.5 33.5T111 116q0 35-3 75t-7.5 79q-4.5 39-9 71T84 391q31-9 72-9 23 0 42 3t36 8zm-78 170q17 0 33-10t18-32l1-20q2-22 14.5-37.5T254 448q13 0 22.5 5.5T296 459q7 0 7-3t-13-15q-17-14-50.5-27T156 401q-50 0-83.5 13T23 441Q9 452 9 456q0 1 3 2t4 1q10 0 19.5-5.5T59 448q20 0 32 15.5t14 37.5l1 20q1 22 17 32t33 10zm1 453q3 0 8.5-2.5t5.5-12.5V582q-4 1-7.5 1H156l-7-.5q-7-.5-6-.5v419q0 10 5.5 12.5t8.5 2.5z" fill="currentColor"/></svg>