<svg xmlns="http://www.w3.org/2000/svg" viewBox="0 0 153.6 594.6"><path d="M77.1 298c7.7 0 19.1-17.9 34.1-53.6-10.1-1.3-16.6 2.2-19.5 10.6-2.6 8.2-5.5 14.8-8.6 19.8-2.9 5.3-4.9 7.9-6 7.9-.9 0-3-2.6-6.3-7.9-3.1-5.1-6.1-11.7-8.9-19.8-2.6-8.4-9.1-11.9-19.5-10.6C58 280.1 69.6 298 77.1 298zm0-75.4c4 2.6 7.3 9.8 9.9 21.5 6-8.4 15.9-11.4 29.8-8.9l6-10.9c-15.4-7.7-30.6-11.7-45.6-11.9-14.8.2-30.1 4.2-46 11.9l6 10.9c13.9-2.4 23.8.6 29.8 8.9 2.7-11.7 6.1-18.9 10.1-21.5zm0 47.6c1.1-4.6 2.2-9.5 3.3-14.6 1.1-5.1 0-8.9-3.3-11.6-3.5 2.6-4.7 6.5-3.6 11.6s2.3 10 3.6 14.6zM128.7 0c-11 75-11 142.5 0 202.7 19.4 9.3 27.4 17.1 24.1 23.5-3.3 6.6-7.3 8.7-11.9 6.3-19.2 21.6-34.8 47.1-47 76.4-4.6 48.3-4 131.7 2 250.3 0 23.8-6.3 35.6-18.9 35.4h-.3c-12.6.2-18.9-11.6-18.9-35.4 6.2-118.6 6.8-202.1 2-250.3-12.3-29.3-28.1-54.8-47.3-76.4-4.6 2.4-8.6.3-11.9-6.3-3.3-6.4 4.9-14.2 24.5-23.5C36 142.5 36.1 75 25.5 0h103.2zm-19.5 15.2H45c2.2 25.6 3.4 54.2 3.6 86 .2 31.7-1.3 63.8-4.6 96.2 6.8-3.7 17.9-5.6 33.1-5.6 15 0 26 1.9 33.1 5.6-3.1-32.4-4.6-64.5-4.6-96.2s1.2-60.4 3.6-86z"/></svg>