<svg xmlns="http://www.w3.org/2000/svg" viewBox="0 0 180.2 594.6"><path d="M90 305.9c5.3 0 10.4-.8 15.2-2.3 4.6-1.3 8.4-9.5 11.2-24.5 2.9-14.8 12.8-27.9 29.8-39.4-21.4-8.6-40.1-12.9-56.2-12.9-15.9 0-34.5 4.3-55.9 12.9 17 11.5 27 24.6 30.1 39.4 3.1 15 6.8 23.1 11.2 24.5 4.6 1.5 9.5 2.3 14.6 2.3zm37-98.9c0-63.7 10.1-132.7 30.4-207h22.8c-20.7 73.9-31.1 144.1-31.1 210.7 16.5 6.2 24.8 14.4 24.8 24.8s-2 17.2-6 20.5c-15 0-25.8 11.8-32.4 35.4-6.6 23.4-17.1 35.1-31.4 35.1 0 64.4 2.2 146.9 6.6 247.7 0 13.7-6.6 20.5-19.8 20.5-13.2 0-19.8-6.8-19.8-20.5 4.2-100.8 6.3-183.3 6.3-247.7-14.8 0-25.5-11.7-32.1-35.1-6.6-23.6-17.4-35.4-32.4-35.4-4-3.3-6-10.1-6-20.5s8-18.6 24.1-24.8C31.1 144.1 20.7 73.9 0 0h22.2c20.7 74.3 31.1 143.1 31.1 206.4 24.4-3.3 49-3.1 73.7.6z"/></svg>