<svg xmlns="http://www.w3.org/2000/svg" viewBox="0 0 105.9 594.5"><path d="M53 0c18.7 0 28.7 11.5 29.8 34.4 9.5 292.6 16.6 452.2 21.5 478.9 5.1 26.7-2.2 49.2-21.8 67.5-19.6 18.3-39.2 18.3-58.9 0-19.6-18.4-27-40.9-22.2-67.5 5.1-26.7 12-186.3 20.8-478.9C23.8 11.5 34.1 0 53 0zm27.5 508H25.6c-3.3 23.4.4 40 11.2 49.9 10.8 9.9 21.5 9.9 32.1 0 10.8-9.9 14.7-26.6 11.6-49.9zM64.6 34.4c-.9-7.7-4.7-11.6-11.6-11.6-6.8 0-10.8 3.9-11.9 11.6-5.3 267.4-9.7 418.5-13.2 453.1h49.3c-3.6-34-7.7-185-12.6-453.1z"/></svg>