<svg xmlns="http://www.w3.org/2000/svg" viewBox="0 0 287.2 608.3"><path d="M99.6 556c-3.8 36-32.5 53.1-50.2 52.2C11.2 611 1.9 567.7.1 558-1.7 545.6 20 67.4 23.5 27.6c6.2-41.3 50.8-28.7 51.1-10.8 11.1 16.3 17 298.1 25 539.2zm-21.7-29.5c-4.4-93.3-14.4-464-13-489.2-4.2-21.8-22.1-16.3-22.8-1.1-5.3 8-12.8 370.4-18.6 490.3-2.8 72 53.3 69.8 54.4 0z"/><path d="M75.1 218.9L200.4 11.8l86.7 163.5-9.4 4.7-5.8-13.3-6.2 4.6 4.8 11.3-6.8 4.2-4.6-13-6.5 3.3 4.8 13.2-8.7 3.2-4.5-12.6-5.7 2.6 4 13.1-11.3 4.5-34.1-145.9-118.5 192-3.5-28.3zM262.8 157L205.6 43.8l29.8 125.9 27.4-12.7z"/></svg>