<svg xmlns="http://www.w3.org/2000/svg" viewBox="-10 0 641 634"><path d="M424 634q-11 0-32-1.5t-46-7.5q-25-6-48-19.5t-37.5-38Q246 543 246 504q0-44 15.5-81t33.5-69q17-31 32.5-65.5T343 211q0-31-15.5-51T282 140q-23 0-47 16t-47 62H-10q10-35 34.5-73t64-71q39.5-33 94-53.5T308 0q67 0 117.5 24.5t86 65q35.5 40.5 59 90t36.5 100q13 50.5 18.5 95T631 449q0 51-17 84.5t-43 54Q545 608 516 618t-54 13q-25 3-38 3zm0-19q12 0 34.5-3t48.5-12q26-9 50-27t39-48q15-30 15-76 0-29-5-71.5t-17.5-91Q576 238 554 191t-55.5-86Q465 66 418 42.5T308 19q-69 0-118.5 19T106 86q-34 29-55 59.5T19 198h158q24-44 51-60.5t54-16.5q40 0 60 24.5t20 65.5q0 47-15.5 83.5T312 364q-18 32-32.5 65T265 504q0 41 20 63.5t47.5 32.5q27.5 10 53.5 12.5t38 2.5z" fill="currentColor"/></svg>