<svg xmlns="http://www.w3.org/2000/svg" viewBox="0 0 595.3 516.6"><path d="M317.2 347.9h-57.5v70.7c3.1 2.3 11.6 5.7 25.6 10.3 46.7 15.9 78.5 15.5 95.4-1.1 16.6-16.7-4.5-43.3-63.5-79.9zm-140.5 0c17.8 27 37.7 46.4 59.8 58.3v-58.3h-59.8zM369.8 21.5c-12.6 0-20.5 12.8-23.6 38.5-3.3 25.7-20.9 46.3-52.9 61.8-32.2 15.3-61.4 41.3-87.6 77.9s-39.4 78.6-39.4 126.1h148.5c13.4-46 27.5-113.8 42.2-203.4 5.4-26.2 12.2-46.4 20.4-60.3 8-14 11.4-24.2 10.1-30.7-1.3-6.6-7.2-9.9-17.7-9.9zm-31.4 304.3L426 95.7c10-20.1 22.7-18.8 38.2 4l131 188.5-15.5 8.6-14.1-20.4-13.2 7.8 11.5 21.3-13.8 7.2-11.7-21.7-12.6 6.3 8.6 22.7-16.7 7.5L441 121.8l-77.6 204 131.6-.6v22.7H383.3c35.4 34.3 31.7 64.9-11.2 91.9-40 25.7-77.5 31.1-112.3 16.4v60.3h-23.3v-70.1c-43.3-20.5-80.5-53.2-111.8-98H0v-23.3h144.8c0-55.7 14.7-102.4 44-139.9 29.1-37.7 56.5-62.7 82.2-75 25.7-12.1 41.8-23.8 48.3-35.3 6.3-11.3 10.4-25.3 12.4-41.9 2.7-22 16.6-33 41.7-33 22 0 33.2 8.5 33.6 25.6 0 18.6-5.1 37-15.2 55.2-10.3 18.4-19.3 58.3-27 119.8-6 48.6-14.7 90.3-26.4 125.2zm218.7-60.9L455.7 116.1l66.1 168.1 35.3-19.3z"/></svg>