<svg xmlns="http://www.w3.org/2000/svg" viewBox="0 0 416.4 547.7"><path d="M283 175.7l64.7-102.8c15-10 30.2-29.6 45.6-58.9 10-5.8 17.7-5.6 23.1.6L199.3 547.7c-30.8-18.9-57-39.1-78.5-60.6 15-7.7 24.9-19 29.7-33.8 4.8-14.8-11.1-14.7-47.6.3-13.1-18.9-43.9-26.4-76.3-22.5L9.2 268.7l41.6-6.9c21.6-7.7 32.3-16.7 32.3-27.1v-1.2c-5.8-21.9-12.5-35.8-20.2-41.6C33.7 168 12.7 142.1 0 86.8c0-26.6 11.6-44.9 34.7-54.9 28.5-5 46.8 5.2 54.9 30.6 5 20-1.2 33.5-18.5 40.4-18.5 0-31-6-37.5-17.9h1.2c22.7.8 34.3-3.1 34.7-11.6-1.9-13.9-9.8-21-23.7-21.4-10.4 4.2-17.5 13.5-21.4 27.7-.4 28.5 18.5 59.9 56.6 94.1 15.4 10.8 25.2 16.2 29.5 16.2 7.7 0 21.6-13.5 41.6-40.4 34.7-32.7 59.9-52.4 75.7-58.9 20.8-13.9 34.5-27.7 41-41.6 6.5-13.9 14.6-27.3 24.3-40.4 10-9.6 22.5-11.4 37.5-5.2 12.3 10.8 17.4 19.9 15.3 27.4-2.1 7.5-7.9 18.9-17.3 34.1-9.4 15.2-16.7 28-21.7 38.4-5.2 10.5-13.1 34.6-23.9 72.3zM99.3 265.8v1.2l113.2-4c25-29.3 39.7-51.2 43.9-65.8 4.2-14.6 8.9-32.9 13.9-54.9 5-21.9 12.7-42.9 23.1-63 23.1-28.5 30.2-45.4 21.4-50.8-8.1-5-19.8 9-35.2 42.2-15 18.9-30.2 33.3-45.6 43.3-44.7 36.2-74.9 65.7-90.7 88.7-15.9 22.8-30.5 43.9-44 63.1zm-60.6 26l12.1 108.6c46.2 18.9 78.6 24.4 97.3 16.7 18.7-7.7 29-5.2 30.9 7.5 1.9 12.7-.8 29.3-8.1 49.7-11.9 16.6-7.7 28.1 12.7 34.7L366.7 82.2 244.3 282.6c-5 5.8-63.1 8.9-174.4 9.2H38.7z"/></svg>