<svg xmlns="http://www.w3.org/2000/svg" viewBox="-10 0 708 1155"><path d="M557 1155q-18 0-30-12t-20-28q-8-16-12-29-6-18-15-53.5T466 960q-1-14-4.5-30t-12-27.5Q441 891 423 891q-28 0-37.5 17t-9.5 35v63H276q-3-45-23-81.5T202 875q-19-8-47-12t-56.5-5.5Q70 856 50 856q-9 0-21 .5t-15 .5q2-21 0-54.5T8 731q-4-38-8-71.5t-7-55q-3-21.5-3-22.5 12 0 23.5-.5T36 581q15-30 50-80t103-119l29-29 30-28-138-151q-17-18-28-38.5T71 85q0-31 25.5-57.5T161 1q30 0 48 12t26.5 28.5Q244 58 244 71q0 29-16.5 46.5T183 135q-14 0-29.5-8.5T138 94q0-19 14.5-28.5T181 55l2 20q-8 1-17 5.5T157 94q0 13 9 17t17 4q19 0 30.5-11.5T225 71q0-14-15-32t-49-18q-30 0-50 20.5T91 85q0 25 10 42.5t24 33.5l138 151 64-55q26-22 45.5-39.5T397 193q6-8 10-29.5t8-44.5q2-17 5-34t8-28q10-25 27.5-41T506 0q75 0 75 61 0 31-17 61t-33 55q-11 17-19 30t-8 21q0 8 2.5 24t7.5 34q5 20 10 46t8 54L643 6h55L583 503q-16 67-31.5 147T536 807q0 24 2.5 57t5.5 66q3 33 7 59.5t7 37.5q3 11 9 29.5t11 36.5q5 18 5 28 0 17-7.5 25.5T557 1155zM58 580q163-4 268-15t167-46l21-74q1-5 1-9.5V426q0-36-7-72t-14-64l-7-35-3-27q-3-27 9-28t21-34q16-24 31.5-52T561 61q0-42-55-42-27 0-40 14.5T445 67q-3 8-5.5 23.5T434 122q-4 24-8.5 47T413 205q-7 9-26.5 26T339 271q-30 26-67.5 59T202 396q-58 60-92.5 107.5T58 580zm499 556q4 0 5.5-4t1.5-8q0-9-5-26t-10.5-35.5Q543 1044 540 1032q-3-13-7.5-40.5t-8-61.5q-3.5-34-6-67t-2.5-56q0-78 16-159.5T564 499L673 25h-15L534 448l-24 81q-36 35-156.5 53T13 601q8 57 14.5 116T35 837h15q31 0 77 2t83 17q34 14 56 51t28 80h63v-44q0-16 5-32.5t19.5-28Q396 871 423 871q26 0 38.5 14.5t17 35Q483 941 485 959q4 35 13 69t16 51q5 17 16 37t27 20z" fill="currentColor"/></svg>