<svg xmlns="http://www.w3.org/2000/svg" viewBox="-10 0 1057 1166"><path d="M519 1166q-94 0-171.5-22T208 1085q-62-37-107-82.5T28 910q-28-47-38-89h305q1-45-6.5-99T270 617.5Q259 567 249 530h31q15-33 36-64t63-74q14-14 31-29.5t32-28.5L305 183q-16-18-27.5-38.5T266 94q0-31 25-57.5T356 10q29 0 47.5 12t27 28.5Q439 67 439 80q0 29-17 46.5T378 144q-14 0-30-8.5T332 103q0-19 14.5-28.5T375 64l2 20q-8 1-16.5 5.5T352 103q0 13 9 17t17 4q18 0 29.5-11.5T419 80q0-14-14.5-32T356 30q-31 0-51 20.5T285 94q0 25 10 42.5t24 33.5l139 151 63-55q26-22 45.5-39.5T591 202q7-8 10.5-29.5T609 128q2-17 5-33t8-27q10-25 26.5-42T700 9q75 0 75 61 0 31-16.5 61T725 186q-10 17-18.5 30t-8.5 21q0 8 3 24t7 34q4 20 9.5 48.5T726 398L843 0h55L697 821h350q-10 42-37.5 89t-73 92.5q-45.5 45.5-107 82.5T690 1144q-78 22-171 22zM315 821h363L874 20h-16L720 488q-23 23-72 36t-139 19q-90 6-236 7 10 38 19.5 86.5t16 97.5q6.5 49 6.5 87zm-11-292q115-2 190-6t124-14q49-10 85-32l8-25q0-38-7.5-79.5T689 299q-4-20-7.5-35t-3.5-27q0-12 9-28t22-34q16-24 31-52t15-53q0-42-55-42-27 0-40 14.5T640 76q-4 8-6.5 23.5T629 131q-4 24-8.5 47T607 214q-7 9-26.5 26T534 280q-31 26-70.5 59.5T392 406q-35 36-55 65.5T304 529zm215 618q109 0 195-31t149-79q63-48 102.5-100.5T1020 841H17q15 43 54.5 95.5t103 100.5q63.5 48 149.5 79t195 31z" fill="currentColor"/></svg>