<svg xmlns="http://www.w3.org/2000/svg" viewBox="0 0 572.6 594.4"><path d="M285.4 566.6c102.8-2 181.6-40.1 236.4-114.3h-471c54.8 74.2 133.4 112.3 235.8 114.3h-1.2zm188-546c-8.1-6.9-19.1 1.6-33.3 25.4-12.9 23.8-24.6 40.2-35.1 49.3-10.5 9.1-24.8 19.7-42.9 31.7-18.1 12.1-40.1 32.3-65.9 60.8-25.8 28.4-44.9 55.7-57.4 81.9h138.5c19.3-47.6 31.4-81.9 36.3-103.1 4.8-21.2 9.2-38.4 13-51.7 3.8-13.3 14.6-30 32.3-50.2 17.4-22.2 22.2-36.9 14.5-44.1zM362.8 426.9L535.1 24.2l-3.6-1.8-128.8 273.3H185l21.2 130.6 156.6.6zm209.8-.6c-56 111.7-151.4 167.7-286 168.1C151.6 594 56 537.9 0 426.3h180.8l-23.6-156.6h48.4c14.5-27 25.2-45.3 32-55-36.3-27.8-62.9-52.8-79.8-75-16.9-22.2-24.4-44.3-22.4-66.5 2-22.2 9.2-36.5 21.5-42.9 12.3-6.4 26.7-8.6 43.2-6.3 16.5 2.2 28.2 12 35.1 29.3.8 22.2-3.1 35.9-11.8 41.1-8.7 5.2-18.3 7.6-29 7-10.7-.6-14.8-4.7-12.4-12.4 1.6-4.4 6.7-5 15.1-1.8 11.7-2 18.7-8.5 21.2-19.3.4-10.5-3.2-18-10.9-22.7-7.7-4.6-15.8-5.9-24.5-3.9-8.7 2-15.5 6.8-20.6 14.2-5 7.5-6.9 17.8-5.4 31.1 1.4 13.3 9.7 29.2 24.8 47.8 15.1 18.5 39.4 39.9 72.9 64.1 35.1-41.5 66.7-70.8 94.9-88 28.2-17.1 46.9-31.3 55.9-42.6 9.1-11.3 15-21.4 17.8-30.2 11.7-21 22.1-32.6 31.1-34.8 9.1-2.2 18-.3 26.9 5.7 9.3 6 14.5 13.7 15.7 23 1.2 9.3-5.4 23.2-20 41.7-6.9 5.6-14.2 14.6-22.1 26.9-7.9 12.3-15.4 38.4-22.7 78.3L523.6 0l36.9 18.7L390 426.9l182.6-.6z"/></svg>