<svg xmlns="http://www.w3.org/2000/svg" viewBox="-10 0 552 1245"><path d="M436 821q-19 0-32-17.5T386 772q-5-14-11.5-39t-9.5-51q-2-16-6-30.5T341 637q-21 0-27.5 12.5T307 675v45h-72q-2-32-16-58.5T182 626q-20-8-53.5-10.5T73 613H43q2-19-.5-52.5T36 492q-4-35-7.5-60T25 406q110-3 190-5t130-17L111 131q-10-11-18-26t-8-34q0-26 18-47.5T152 2q31 0 46.5 17.5T214 58q0 20-11.5 33.5T173 105q-18 0-27.5-10T136 72q0-18 13-23.5t20-4.5v20q-2-1-8 1t-6 9q0 4 5 7.5t12 3.5q23 0 23-27 0-14-11-25.5T152 21q-23 0-35.5 15.5T104 71q0 14 6.5 25.5T126 117l240 259q11-5 19-10L492 0h50l-82 356q-11 47-22.5 104T426 573q0 23 3 55.5t6.5 61.5q3.5 29 6.5 40 3 12 10.5 34t7.5 33q0 11-8 17.5t-16 6.5zm-1-19q5 0 5-9t-6.5-28q-6.5-19-10.5-32-2-13-6-42.5t-7-62.5q-3-33-3-55 0-56 11-114t23-107l77-333h-11L401 379q-25 24-111 34.5T48 425q5 41 10 83t5 86h10q23 0 56.5 1t60.5 12q24 11 41.5 37t22.5 57h33v-32q0-17 12.5-34t41.5-17q18 0 27 10.5t12 25q3 14.5 4 26.5 4 26 10.5 50t10.5 37q4 11 11.5 23t18.5 12zm-219 443q-63 0-114-30.5T20.5 1133Q-10 1082-10 1019t30.5-115Q51 852 102 821.5T216 791q63 0 114.5 30.5T413 904q31 52 31 115t-31 114q-31 51-82.5 81.5T216 1245zm0-309l100-99q-22-12-47-19t-53-7q-54 0-100 26zm-116 254l116-116 117 116q16-10 30-24t25-30l-116-117 116-117q-11-16-25-30t-30-25L216 964 100 847q-34 23-55 56l116 116-116 116q11 17 24.5 31t30.5 24zm299-72q25-45 25-99 0-53-25-100l-100 100zm-364 0l99-99-100-99q-25 45-25 99 0 27 7 52t19 47zm181 108q54 0 100-26l-100-99-99 99q46 26 99 26z" fill="currentColor"/></svg>