<svg xmlns="http://www.w3.org/2000/svg" viewBox="-10 0 1116 1162"><path d="M855 1162q-27-18-65.5-44.5t-75-61q-36.5-34.5-61-75.5T629 894q0-20 3-35t6-27q2-8 3.5-15.5T643 801q0-16-11.5-28.5T589 760q-19 0-35.5 15T529 804v125H419q-12-37-49.5-51T282 864q-12 0-31 .5t-38 1.5q-19 1-32.5 1.5t-14.5.5q-20 2-47-3t-41-20q-23-22-38.5-63T24 695q0-22 7.5-41.5T53 623H43q-14 0-33.5-9T-10 585q0-22 18.5-29t38.5-7q37 0 62 19t32 44q1-98 12-189t36.5-168Q215 178 259 121t112-89Q439 0 534 0q78 0 128 18t87 34l213 100q3 1 17 5t30 7.5q16 3.5 26 3.5 20 0 30.5-4.5t20.5-9.5l20-14v157q0 38-1.5 90t-6.5 106.5q-5 54.5-13.5 103T1063 676q-10 22-31 61.5t-47 86Q959 870 935 912q-29 49-48 83.5t-28.5 62.5q-9.5 28-9.5 57 0 6 1.5 16.5t4.5 30.5zM388 863q72-53 152.5-119.5t161-139.5q80.5-73 153-147.5T984 312q57-70 90-130-7 2-16.5 4t-22.5 2q-13 0-37-6t-43-12L741 70q-35-16-83-33T534 20q-92 0-157 32t-107.5 89.5Q227 199 203 276.5t-33.5 168Q160 535 160 633q0 37 3.5 77t8.5 76q5 36 9 61 12-1 31.5-1t39-.5q19.5-.5 30.5-.5 31 0 58 4t48 14zm442 259v-7q0-31 9-59t28.5-63q19.5-35 50.5-91 24-42 50.5-89t47.5-86q21-39 29-58 13-30 21-77t12.5-100.5q4.5-53.5 6.5-105t2-89.5v-98q-34 59-89 127T873.5 465.5Q804 537 727 607.5T573 742q4-1 8-1.5t8-.5q42 0 58 19t16 42q0 9-2 17.5t-4 18.5q-3 11-5.5 24t-2.5 33q0 39 18.5 73t46.5 63q28 29 59.5 52t56.5 40zM134 847q-11-11-19-28t-8-41q0-8 2-26.5t5-39.5q3-26 6.5-50t3.5-34q0-22-21.5-41T47 568q-14 0-26 3.5T9 585q0 10 12.5 14t21.5 4q28 0 41-3l6 17q-19 10-32.5 30.5T44 695q0 42 13.5 79.5T91 832q8 8 20 11t23 4zm26-2q-5-26-11-76.5T141 656l-8 59q-3 21-5 39t-2 24q0 27 12 43.5t22 23.5zm273 65h76V800q1-2 2.5-4t2.5-5q-28 23-55 43.5T406 874q19 16 27 36z" fill="currentColor"/></svg>