<svg xmlns="http://www.w3.org/2000/svg" viewBox="0 0 591.7 580.7"><path d="M322.7 0C398 0 452 28.5 484.5 85.6c32.7 57.1 68.4 93.8 106.9 110.1 3.9 84.4-25 155.6-86.6 213.5C443.3 467.4 393 524.5 354 580.7l-73.6-105.9c18.9-45 14.6-67.4-12.9-67.2-27.6.2-41.3 11.7-41.3 34.6H201c0-40.1-9.5-64.7-28.4-74-22.4-7.3-55.7-12.4-99.8-15.2v-21.6c-31.4 0-57.9-13.1-63.3-39.4s1.7-48.4 21.3-66.5c-19.6-.9-29.8-5-30.7-12.3 1.9-8 11.8-12.3 29.7-12.9 17.9-.9 28.9 5.4 32.9 18.7 4.1 13.1 2 30.3-6.1 51.4-8.4 21.3 2.7 32 17.1 32 .4-83.5 23.8-154.8 70.1-213.8C190.2 29.5 249.9 0 322.7 0zm-45.9 381.5c31.7 0 47.6 11.7 47.8 35.2.2 23.5-2.5 38.2-8.1 44.2l40.4 63.3c24.5-35.3 65.8-79.1 123.7-131.5 57.7-52.5 84.9-110.1 81.7-172.8-74.3 49.8-169.4 103.6-285.5 161.6zm-176-62.7c32.5-1.3 77.7 8.7 135.7 30l-12 41.7C361 322.9 471.2 261.4 555.2 206.1c-27.3-11.2-56.7-43.9-88.2-98.2-31.7-54.3-80.2-81.4-145.7-81.4-62.7 0-115 26.7-157 80.1s-63.1 124.1-63.5 212.2z"/></svg>