<svg xmlns="http://www.w3.org/2000/svg" viewBox="-10 0 1064 1169"><path d="M715 1169l-142-77q8-20 17-45.5t16.5-50Q614 972 616 957q-25 1-33 17.5t-11 30.5q0 1-.5 6t-.5 7h-98l-1-13q-3-14-10.5-31T426 957q-9 0-23.5 2.5T374 964q-14 2-27.5 3.5T322 969q-12 0-24.5-4.5T271 955q-13-5-25.5-9t-24.5-4q-12 0-32 4t-40 9q-18 4-34.5 7T87 965q-20 0-42.5-9.5T6 929.5Q-10 913-10 893q0-30 23-30 10 0 17.5 7.5L45 885l8 10q5 5 16.5 11t28.5 6q8 0 23-5t31-9q19-7 37.5-12t31.5-5q14 0 30 5t30 12l18 7q1-11 2-23.5t3-27.5q-10-20-33-44t-47-38q19-96 58.5-192t86-182.5Q415 311 457 244q-11-6-23.5-19.5T421 185q0-24 19-44t53-20q25 0 47 19-13-22-39.5-48T433 44q41-8 70.5-1T553 62.5Q573 75 585 85q7-16 19-34.5T628 18q12-14 19-18 10 6 18.5 23.5t14 38Q685 82 687 98q14-10 36-19.5t50-9.5q26 0 44 9t25 18l-26 12q-23 10-49 22t-48 28q-22 16-31 39 13-17 30.5-27t39.5-10q29 0 46.5 21t17.5 43q0 33-18.5 51T768 300q21 50 41.5 116.5t33.5 138Q856 626 856 690q0 24-1 53t-3.5 56.5Q849 827 846 846q-27 2-53 14t-43 31l-3 13 16-6q14-7 30-12t30-5q14 0 32 5t37 12q15 4 30.5 9t23.5 5q17 0 28.5-6t16.5-11l8-10 14.5-14.5 17.5-7.5q23 0 23 30 0 20-16 36.5t-38.5 26Q977 965 957 965q-11 0-27.5-3t-34.5-7q-20-5-40-9t-32-4q-12 0-24.5 4t-25.5 9q-10 5-19.5 8t-19.5 5q-5 28-13 75t-8 88q0 5 1 19t1 19zm-51-961q7-30 30.5-52t54.5-37q31-15 60-26-5-2-16-3.5T773 88q-32 0-60.5 19.5T667 143q2-13-1-37t-8-47q-5-23-12-32-8 7-19 24.5t-21 37Q596 108 592 123q-5-7-21-21.5t-37-27Q513 62 489 59q39 26 61 61.5t22 59.5q0 10-3 20zM308 824q7-44 18-96t28-104q19-63 53-131.5T473 364q29-56 51.5-101.5T552 190q-10-22-25.5-35.5T493 141q-25 0-38.5 13.5T441 185q0 22 17 34t27 17q-32 51-67.5 113t-69 131q-33.5 69-60 141T247 763q36 23 61 61zm448 34q33-27 72-30 3-17 5-43t3-53.5q1-27.5 0-48.5 0-59-13.5-129.5t-35-140Q766 344 742 285q10-1 24-8t25-20q11-13 11-33 0-16-12-30.5T758 179q-23 0-39.5 15T689 234l2 13q8 40 21.5 96t27 119.5Q753 526 762 589t9 117q0 42-5 82t-10 70zm-84-606v-1l-5-24-103-8q-1 6-4 12t-5 12zM318 910h4q12 0 25.5-2.5T374 902q15-3 27.5-5t25.5-2h4q-12-15-19-34t-7-40q0-33 16-59.5t43-42.5q27-16 59-16t58.5 16q26.5 16 42.5 42.5t16 59.5q0 21-7 40t-19 34h3q13 0 26.5 3t26.5 5 26.5 5q13.5 2 25.5 2h4q3-10 9-41t11-73.5q5-42.5 5-89.5 0-53-8-111.5t-20-117q-12-58.5-24.5-111L676 272l-129-10q-11 25-26 53.5T490 373q-31 61-65 128t-53 129q-17 54-29 108t-18 99q-6 45-7 73zm205 9q25 0 47.5-13t36.5-35.5q14-22.5 14-49.5 0-41-29-69.5T523 723q-41 0-70 28.5T424 821q0 41 29 69.5t70 28.5zm-32 79h62q2-12 7.5-26t18.5-24q13-10 39-10 12 0 26.5 2t28.5 4q14 2 27.5 4t21.5 2q10 0 21-4l22-8q14-6 28.5-10.5T823 923q14 0 35 3.5t41 8.5q18 5 34 8t24 3q16 0 34-7t31-19q13-12 13-27 0-11-4-11-3 0-7.5 5.5T1014 898l-9 9q-6 7-21 15.5t-38 8.5q-11 0-27-4.5T886 916q-18-6-35-11t-28-5q-12 0-25.5 5T771 915q-14 6-26 10.5t-23 4.5q-15 0-28.5-2.5T667 922q-14-3-26.5-5t-23.5-2q-27 0-51.5 17.5T531 977h-18q-7-26-33-44t-53-18q-11 0-23.5 2t-25.5 5q-13 3-27 5.5t-29 2.5q-11 0-23-4.5T274 915q-13-5-27-10t-26-5q-11 0-28 5t-35 11q-18 6-33.5 10.5T98 931q-23 0-38-8.5T39 907l-9-9q-5-5-9.5-10.5T13 882q-4 0-4 11 0 15 13 27t31 19q18 7 34 7 8 0 24-3t34-8q23-5 42.5-8.5T221 923q14 0 29 4.5t28 10.5q12 4 23 8t21 4q9 0 22-2t27-4q14-2 28.5-4t26.5-2q26 0 39 10t18.5 24q5.5 14 7.5 26zm31-48q3-6 8-11-13 0-16-1 2 3 4.5 5.5t3.5 6.5zm172 185q0-45 7-91t12-75q-9-1-20-2t-23-3l-34-6q-3 23-15 60t-23 65q28 14 47.5 25.5T694 1135z" fill="currentColor"/></svg>