<svg xmlns="http://www.w3.org/2000/svg" viewBox="0 0 587.2 562.9"><path d="M424.4 95.6c4.8-6 7.7-21.6 8.8-46.8 1-25.2 5.1-40.8 12.4-46.8 6-4 13.1-2 21.1 6 4.8 12.5 12.3 16.5 22.3 12.1C517.6 1.2 530.5 9 527.6 43.6c-2 8.5 4.4 12.7 19.3 12.7 10.1 2.8 14.9 7.8 14.5 15.1-.8 10.1-11.8 21.6-32.9 34.7-21.1 13.1-32.3 23.6-33.5 31.7v10.9c10.5-13.7 24.1-21.1 41.1-22.3 16.9-1.2 31 6.7 42.3 23.8 11.3 17.1 11.8 32.9 1.5 47.4S553 221.5 530.1 226L483 434.3c-2.4 15.3-10.1 20.9-22.9 16.9l-66.4-3-6.6 18.7c16.1 12.1 29.5 15.6 40.1 10.6 10.7-5 22.3-2.8 35 6.6 12.7 9.5 24.7 10.5 35.9 3 11.3-7.4 21.9-10.2 32-8.2 10.1 2 22.9 7.6 38.6 16.9-31 3.6-53.3 10.7-67 21.1-13.7 10.5-27.8 11.9-42.3 4.2-14.5-7.6-27-9.5-37.4-5.4-10.5 4-27.4-1-50.7-15.1l-68.8 62.2-47.1-39.2 27.2-44.7c-38.2-2.4-64.4-10.3-78.5-23.5-14.1-13.3-28.3-19.6-42.6-19-14.3.6-24.4-3.1-30.2-11.2-5.8-8-13.9-14.1-24.1-18.1-10.3-4-22.2-4.5-35.9-1.5s-25.4 0-35-9.1c-9.7-9.1-21.7-24.9-36.2-47.4 22.9 7.2 41.1 18.3 54.3 33.2 14.9-5.2 30-7.2 45.3-6 15.3 1.2 29.8 6.4 43.5 15.7l30.2-33.8-47.7-39.8c-10.9-12.9-6.8-25.4 12.1-37.4L325 102.9c-9.3-18.9-11.8-37.2-7.5-54.9 4.2-17.7 16.6-27.6 37.1-29.6s37 6.7 49.5 26.3c12.5 19.5 15.3 37.7 8.5 54.6l11.8-3.7zm33.2-12.7L486 99.8c14.5-.8 28-5.6 40.5-14.5s12.3-14.7-.6-17.5c-11.7-.8-16.8-8.4-15.4-22.6 1.4-14.3-3.8-17.3-15.7-9.1-11.9 8.3-21 7.1-27.5-3.3-8-10.1-13.1-7.6-15.1 7.2-2 14.9-.2 29.2 5.4 42.9zm-106.2 26.6l-204.1 195 42.3 35L387 121.6c7.6-51.5-.8-76.7-25.4-75.5-24.5 1.2-27.9 22.3-10.2 63.4zm92.9-19.3L434 107.1l41.7 24.8L486 115l-41.7-24.8zm-27.7 27.7L170.9 401.7c17.3-3.6 34.2 2 50.7 16.9-5.6-49.5 11.3-79.1 50.7-88.7 39.4-9.7 65.5 2.4 78.2 36.2 12.7 33.8 3.9 61.6-26.3 83.3 16.1-2.4 28.8 0 38 7.2l113.5-303.7c-16.5-17.3-36.2-28.9-59.1-35zm-14.5 304.9l54.3 3.6c27-108.7 46.9-181.7 59.8-219.2 41.9-11.7 55.5-27.1 41.1-46.2-14.5-19.1-38.4-12.6-71.8 19.6l-83.4 242.2zm-145.5-22.9c7.6 18.9 20.4 26.1 38.3 21.4 17.9-4.6 25.2-16.1 21.7-34.4s-14.3-26.5-32.6-24.5c-18.3 2.1-27.4 14.5-27.4 37.5zm45.3 84.5l-21.7 30.8.6 2.4 19.9 17.5h1.2l45.3-47.7-45.3-3z"/></svg>