<svg xmlns="http://www.w3.org/2000/svg" viewBox="-10 0 660.9 1175"><path d="M238 1175l-103-28-4-123-141-40 288-865q8-24 22.5-51.5T338 20q23-20 57-20 42 0 64 24t29 48q12-13 29-22.5t43-9.5q37 0 58 17.5t28 41q7 23.5 4 42.5l-190 974-164-45zm-27-149L472 97q-7-26-25-51.5T395 20q-28 0-47.5 17.5t-31.5 42Q304 104 297 125L15 971zm233 65l186-954q3-14-3-32.5t-22-32Q589 59 560 59q-22 0-39 12.5T490 101l-261 930q53 15 106.5 30t108.5 30zm-216 62l48-89-125-35 3 103q19 5 36.5 10t37.5 11z" fill="currentColor"/></svg>