<svg xmlns="http://www.w3.org/2000/svg" viewBox="0 0 403.2 594.7"><path d="M302.7 529.5c-2.2 13.5-10.4 19.6-24.8 18.3l-94.5-11.1c-1.7 32.6-19.1 51.9-52.2 58-22.2-22.2-29.8-44.8-22.8-67.8L9.3 513.2c-9.6-2.6-11.7-8.9-6.5-18.9 73.5-190.4 118.5-306.9 135-349.5 19.6-49.6 36.7-89.3 51.5-119.3 13.5-20.9 31.5-28.9 54.1-24.1 24.3 10 35.4 27.2 33.3 51.5-.9 14.8-10 50.6-27.4 107.6L169 436.2c2.2 10.4 7.2 12.2 15 5.2L264.2 165c17-56.9 29.3-92.8 37.2-107.6 20-35.6 43-49.1 69.1-40.4 25.2 7 35.9 27.6 31.9 61.9-3.4 22.2-36.7 172.4-99.7 450.6zm-8.5-27.4c19.6-84.3 51.5-224.5 95.8-420.6 1.7-29.6-5.7-47.4-22.2-53.5-19.1-5.7-36.5 4.6-52.2 30.6-11.7 22.6-25 59.1-39.8 109.5l-80.9 277.1c-8.3 9.1-16.1 12.8-23.5 11.1-9.1-2.6-14.1-10-15-22.2L237.3 157c15.6-50.4 24.3-86.3 26.1-107.6 1.7-17.4-6.1-29.8-23.5-37.2-15.6-2.2-28 3.7-37.2 17.6-10 16.5-19.8 36.9-29.3 61.3L19.1 484.5c-3 12.2 3.7 18 20.2 17.6l236 30c10-1.8 16.3-11.8 18.9-30zm-145.4 33.2c-13-.9-20.2 4.3-21.5 15.6-1.7 7 2 13.3 11.1 18.9 10.9.4 17.8-4.3 20.9-14.3 3-10.4-.5-17.1-10.5-20.2z"/></svg>