<svg xmlns="http://www.w3.org/2000/svg" viewBox="-10 0 1114 272"><path d="M69 272q-11 0-16.5-14T42 226q-3-12-6-23.5T29 183q-5-10-17.5-24T-10 136q9-9 21.5-23T29 89q4-8 7-19.5T42 46q5-18 10.5-32T69 0q8 0 17 8t29 28q23 25 43 37.5T205 86q6 0 26.5-1t45.5-2q25-1 45-2t25-1l650-25q5 0 16-.5t20-.5q14 0 30.5 5.5t28.5 23q12 17.5 12 53.5t-12 53.5q-12 17.5-28.5 23T1033 218q-9 0-20-.5t-16-.5l-650-25q-5 0-25-1t-45-2q-25-1-45.5-2t-26.5-1q-30 0-52 17t-38 33q-13 13-25.5 24.5T69 272zm1-22q3 0 9.5-5.5T101 222q23-26 48-41t56-15q11 0 32.5 1t45.5 2q24 1 42.5 2t22.5 1l650 25q5 1 16 1h18q9 0 21.5-4t22-17q9.5-13 9.5-41t-9.5-41q-9.5-13-22-17t-21.5-4h-18l-16 1-650 25q-4 0-22.5 1t-42.5 2q-24 1-45.5 2t-32.5 1q-31 0-56-15t-48-41Q86 33 79.5 27.5T70 22q-1 0-3.5 8T61 51q-4 13-7 25.5T46 98q-6 11-14.5 21.5T17 136q5 6 14 16.5T46 174q5 9 8 21.5t7 25.5q3 13 5.5 21t3.5 8z" fill="currentColor"/></svg>