<svg xmlns="http://www.w3.org/2000/svg" viewBox="-10 0 1101 158"><path d="M920 158q-27 0-50.5-9.5T832 124q-7-5-13-16H114l29 36-11 13-142-74L127 0l12 13-28 37h708q4-8 13-17 21-22 54.5-28.5t67 .5q33.5 7 54.5 28l6 7 59-22 18 27-32 20 28 7 1 23-28 8 31 20-17 26-68-23q-14 14-36.5 23t-49.5 9zm0-20q23 1 42-7t32-20q14-14 14.5-32T994 46q-17-17-45.5-22.5t-57 0Q863 29 845 46q-14 15-14 32.5t15 32.5q11 12 31 19.5t43 7.5zm144-13l-34-25 34-16-34-16 35-27-41 16q9 27-4 52zm-968-9q-7-7-12-14L74 88h738V69H75l18-26-64 39 22 11 17.5 9Q86 111 96 116z" fill="currentColor"/></svg>