<svg xmlns="http://www.w3.org/2000/svg" viewBox="0 0 595.3 120.6"><path d="M595.3 82.7c0 6.9-9 11-26.9 12.4-17.9 1.4-30.9 6-38.9 13.8s-22.6 11.7-43.7 11.7-38.8-6-53.1-17.9c-14.2-11.9-30.8-20-49.6-24.1-66.6 1.4-164.2.5-292.8-2.8-6.4 11-16.3 16.5-29.6 16.5s-25-7.1-35.1-21.4C15.8 71.4 7.3 68 0 60.6c7.3-7.8 15.8-11.5 25.5-11 10.1-14.2 21.8-21.4 35.1-21.4S83.8 34 90.3 45.5c128.6-3.7 226.2-4.8 292.8-3.4 18.8-4.1 35.4-12.2 49.6-24.1 14.2-12 31.9-18 53-18s35.8 3.9 44.1 11.7c8.3 7.8 21.2 12.4 38.9 13.8s26.5 5.7 26.5 13.1c0 7.3-6.2 11-18.6 11-12.4 0-18.4 3.7-17.9 11 0 6.9 6.1 10.3 18.3 10.3 12.2.1 18.3 4 18.3 11.8zm-65.5-33.1c-28.9-33.1-59.5-33.1-91.6 0h91.6zm0 21.4h-91.6c32.1 32.6 62.7 32.6 91.6 0z"/></svg>