<svg xmlns="http://www.w3.org/2000/svg" viewBox="-10 0 810 815"><path d="M-10 815l37-155 18 1 7 45 303-305-157-157q-9 3-20 3-21 0-44-10t-42-30q-19-19-28.5-41T54 123l-64-31 7-32 36 9-15-26 18-15 24 16-9-38 33-6 26 58q2 0 4.5-.5t4.5-.5q30 0 58.5 18.5t47 47Q243 151 243 182q0 12-3 21l155 157 155-157q-3-9-3-21 0-31 18.5-59.5t47-47Q641 57 671 57q2 0 4.5.5t4.5.5l26-58 32 6-8 38 24-16 18 15-15 26 36-9 7 32-64 31q-1 21-10.5 43T697 207q-19 20-41.5 30T612 247q-12 0-21-3L435 401l302 305 8-45 17-1 38 155-153-48 2-18 45-4-299-303L95 745l46 4 2 18zm66-713q9-28 35-40L73 22l5 44-35-13 13 35-42-6zm677 0l43-20-42 6 13-35-35 13 4-44-18 40q27 13 35 40zM612 227q38 0 72-34 16-16 24-35t8-36q0-20-12.5-33T670 76q-24 0-48 16.5T582 133q-16 24-16 49 0 20 13 32.5t33 12.5zm-435 0q21 0 34-12.5t13-32.5q0-25-16-49t-40.5-40.5Q143 76 119 76q-21 0-33.5 13T73 122q0 38 33 71 17 16 36 25t35 9zm244 160l151-152-13-12-150 151zm353 400l-19-73-5 32-519-523-13 12 519 525q-9 1-17.5 2t-17.5 2q19 5 29 8.5t19 6.5zm-758 0q15-5 23.5-8t19-6.5Q69 769 88 764q-10-1-18-2t-17-2l328-332-13-13L56 729l-16 17-6-32z" fill="currentColor"/></svg>