<svg xmlns="http://www.w3.org/2000/svg" viewBox="0 0 381.6 412.8"><path d="M154.9 170.8c-21.6 33-37.7 60.5-48.3 82.6-10.6 22-14.5 49-11.7 81 2.8 32 22.8 49.4 60 52.4 37.3-3.4 57.3-21 60-52.7 2.8-31.8-1.2-58.6-11.7-80.7-10.6-22.1-26.7-49.6-48.3-82.6zm-61-76.2c0-8-3.3-17.9-9.8-29.5-6.6-11.6-15.5-22.7-26.7-33C46.2 21.7 35.7 19.6 26 26c-6.8 9.7-5 20.3 5.4 31.8s21.5 20.3 33.3 26.7c11.9 6.3 21.6 9.7 29.2 10.1zm61 33c33.9-52.9 64.4-83 91.4-90.2 27.1-7.2 50.3-.5 69.5 20 19.3 20.5 32.2 39.3 38.7 56.2s6.9 47.4 1 91.4c.4 21.2 5.7 48.9 15.9 83.2l10.2 23.5c-8.5 11-19.1 13.8-31.8 8.3l-3.2-24.8c-8.5-34.7-18-61.4-28.6-80-37.7-39.4-52.4-77.4-44.1-114s-.2-48.8-25.4-36.5c-25.2 12.3-48.6 37-70.2 74.3 1.3 15.2 12 38.2 32.1 68.9 20.1 30.7 31.5 63.5 34.3 98.4 2.8 34.9-4.8 61.5-22.5 79.7-17.8 18.2-40.2 27.1-67.3 26.7-27.1.4-49.6-8.5-67.6-26.7s-25.5-44.8-22.5-79.7c3-34.9 14.5-67.7 34.6-98.4 20.1-30.7 30.2-49.9 30.2-57.5-12.3-17.8-26.7-29-43.2-33.7-19.1-7.2-33.7-14.4-43.8-21.6-10.3-7.1-19-15.1-26.4-24C8.7 62.2 3.7 52.7.9 42.5c-2.7-10.2.8-20.5 10.5-31.1C22 1.7 32.3-1.8 42.5.9c10.2 2.8 19.7 7.8 28.6 15.2C80 23.6 88 32.3 95.2 42.5c7.2 10.2 14.2 24.8 21 43.8 5.9 15.7 18.8 29.4 38.7 41.3zm149.9-32.4c-4.2 8.9-6.1 18.7-5.7 29.5.4 10.8 3.1 21.1 7.9 30.8 4.9 9.7 12.2 18.2 21.9 25.4 4.7-11 6.6-21.9 5.7-32.7-.8-10.8-3.8-21.1-8.9-30.8-5-9.7-12-17.1-20.9-22.2z"/></svg>