<svg xmlns="http://www.w3.org/2000/svg" viewBox="-10 0 796 802"><path d="M300 802q-13 0-35.5-3.5t-49-14.5Q189 773 165 750.5t-39.5-61Q110 651 110 592q0-51 21-103.5T187.5 385q35.5-51 77.5-98-22-25-39.5-43T198 216q-21 1-55.5-4.5T73 192q-35-14-59-40t-24-67q0-37 17.5-55T47 6q22-6 36-6 109 0 161 177 2 3 7.5 9t13.5 14l40 45q47-46 93.5-83.5t85.5-63Q523 73 545 64l43 80q12 8 32.5 23.5t41.5 41q21 25.5 35.5 62T712 357q0 16-.5 35t-4.5 37l79 176-57 23-77-174q-35-12-64.5-45t-48-77Q521 288 521 241q0-29 2.5-45.5T530 164l-10-21q-30 19-78.5 58T344 291q35 43 68 93.5t55 104Q489 542 489 592q0 59-15 97.5t-39 61Q411 773 384.5 784t-49 14.5Q313 802 300 802zm-22-529q4-4 7-7.5t7-6.5q-12-14-22.5-25.5T251 214q-8-9-14-16t-10-12q-25-85-59.5-126T83 19q-11 0-28.5 5T23 43Q9 57 9 85q0 35 23.5 57.5t57 35q33.5 12.5 66.5 17t51 3.5l8 9q10 9 26.5 26t36.5 40zm-84-86q-17 0-45.5-5t-58-16.5q-29.5-11.5-50-31T20 86q0-22 11-34.5T57 34q15-5 28-5 37 0 70.5 33.5T209 164l6 23zm-5-19q-20-62-47.5-90.5T85 49q-14 0-30 7.5T39 86q0 22 17.5 37T99 147.5q25 9.5 50 14.5t40 6zm111 614q11 0 31.5-3t44-13q23.5-10 45-30.5t35-55.5q13.5-35 13.5-88 0-50-21-101t-52.5-99Q364 344 331 304l-14 15q32 39 61.5 84.5t48.5 94q19 48.5 19 94.5 0 60-22 97t-55.5 54Q335 760 299 760t-70-17q-34-17-55.5-54T152 592q0-48 21-98t56.5-99q35.5-49 77.5-93.5t84.5-81.5q42.5-37 78.5-64t58-41l22 46q-4 16-6.5 33t-2.5 48q0 44 18 85t46.5 71q28.5 30 61.5 41l72 165 21-10-72-162q3-20 3.5-37t.5-38q0-46-14-80.5t-34.5-58Q623 195 603.5 180T573 158l-36-69q-24 12-62.5 39T390 193.5q-46 38.5-92 86T213.5 379Q175 431 152 485.5T129 592q0 53 14 88t35.5 55.5q21.5 20.5 45 30.5t44.5 13q21 3 32 3zm375-350q-46-16-73.5-51.5t-40-75Q549 266 549 239q0-25 4-43.5t8-32.5q48 26 75 60.5t37.5 71.5q10.5 37 10.5 69 0 13-1.5 33t-7.5 35zm-13-27q3-19 3-38 0-43-20.5-92T573 193q-2 7-3 16t-1 30q0 21 10 54t31 64q21 31 52 48zM299 740q30 0 59.5-15t49-48q19.5-33 19.5-85 0-43-18-88.5t-46-89Q335 371 304 333q-54 61-93 129t-39 130q0 52 19 85t48 48q29 15 60 15z" fill="currentColor"/></svg>