<svg xmlns="http://www.w3.org/2000/svg" viewBox="0 0 245 594.6"><path d="M31.4 47l68.1 97.6 22.2-19.8-66.8-94.7L31.4 47zm124.7 135.6v145.8c11.7 0 23.7-3.6 36-10.9l-36-134.9zm-54.2 17.5v374h32.4v-374h-32.4zm0-48.3v9.6l36.7-30.8-4.3-6-32.4 27.2zm0 17.5v8.9l44.6-36-4.3-5-40.3 32.1zm0 17.6v8.9l53.6-41-5.3-6.6-48.3 38.7zm20.5.6h24.1v-9.3h-8.6l-15.5 9.3zM61.5 0l81.4 116.4c5.5-20.9 15.7-38.4 30.4-52.3 15-13.9 29.9-19.4 44.6-16.5 15 2.9 23.8 11.5 26.5 25.8 2.6 14.1-4 29-19.8 44.6-15.9 15.7-35.5 26.3-58.9 32.1l49.9 180.6c-19.6 10.8-39.5 16.2-59.5 16.2v247.7H80.7V159.1L0 42.7 61.5 0zm93.3 134.3c13.7-.7 27.9-8 42.7-22.2 15-14.1 22.7-24.8 23.1-32.1.4-7.5-2.9-11.4-9.9-11.6-7.1-.2-17.6 7.4-31.7 22.8-14.2 15.5-22.2 29.8-24.2 43.1z"/></svg>