<svg xmlns="http://www.w3.org/2000/svg" viewBox="-10 0 586 1035"><path d="M207 1035V303L-10 71 76 0l257 297q10-39 40.5-71.5t67-51.5q36.5-19 65.5-19 22 0 46 15t24 49q0 18-7.5 40T541 301.5Q521 322 483 337t-99 20q3 24 9.5 60.5t14 78.5q7.5 42 15.5 83t15 75l-90 2v379zm27-732h77L74 27 18 72zm114 333l66-1-9.5-47.5-14-72.5q-14-72.5-14-79.5t-11-69.5q-11-62.5-4.5-42 0-17 12.5-39.5t33.5-44q21-21.5 46.5-35.5t50.5-14q22 0 29 11t7 26q0 15-14.5 35.5t-49.5 37Q441 317 381 321v8.5l1 7.5q63-5 98-21t51.5-35q16.5-19 20.5-36.5t4-25.5q0-23-17-33.5T506 175q-22 0-49 12.5t-52 34q-25 21.5-41 49T348 329zm38-335q58-4 87-19t38.5-31q9.5-16 9.5-23t-3.5-12q-3.5-5-16.5-5-23 0-46.5 14.5t-41.5 35Q395 281 386 301zm-159 38h102v-17H227zm0 676h102V359H227z" fill="currentColor"/></svg>