<svg xmlns="http://www.w3.org/2000/svg" viewBox="0 0 553.4 198.4"><path d="M522.3 42.7c3.2 12.2 3.2 24.3 0 36.5-62.5-7.3-127.4-10.5-194.7-9.7-51.9 69.8-105.5 104.7-160.7 104.7C102 174.1 55.8 134.7 28.2 56c37.3 53.6 83.6 80.3 138.8 80.3 55.2 0 108.7-28 160.7-84 67.2.9 132.1-2.3 194.6-9.6zM341 95c58.4-.8 118.9 3.2 181.3 12.2 16.2 8.1 26 4.1 29.2-12.2 2.4-22.7 2.4-45.4 0-68.2-3.2-12.2-13-16.2-29.2-12.2-62.5 9-131.8 13.4-208.1 13.4-43 56-92.1 84-147.3 84-55.2 0-103-34.5-143.6-103.5C16 1.3 10.1-1.4 5.7.7 1.2 2.7-.6 9 .2 19.5c21.9 119.3 77.5 178.9 166.7 178.9C222.1 198.4 280.1 164 341 95z"/></svg>