<svg xmlns="http://www.w3.org/2000/svg" viewBox="-10 0 1100 410"><path d="M415 410q-70 0-127.5-24t-103-60.5q-45.5-36.5-78-75t-52-69Q35 151 29 140q-8-14-17-35.5t-15.5-42Q-10 42-10 32q0-20 7.5-26T15 0q10 0 19 11t27 39q11 18 29.5 47t46 61.5q27.5 32.5 66 61.5t89.5 47.5Q343 286 409 286q56 0 101.5-17.5T591 224q35-27 59.5-55t39-49.5Q704 98 708 91q20 0 49-1.5t46-2.5q29-2 68.5-11t81-20.5Q994 44 1030 33t60-18v221q-28-8-66-17t-77.5-15q-39.5-6-69.5-6-32 0-66.5 6T755 216q-46 58-92.5 102t-106 68Q497 410 415 410zm0-19q70 0 120-18t87-46.5q37-28.5 66-62.5t56-65q21-7 58-13.5t75-6.5q24 0 59 5t71 12.5q36 7.5 64 13.5V41q-19 6-52 16t-71.5 20.5q-38.5 10.5-76 19T805 107q-18 1-43.5 2t-42.5 2q-11 18-35 50t-62 65.5Q584 260 531 283t-122 23q-69 0-123-19t-94.5-49Q151 208 122 174t-48-64Q55 80 45 61q-2-4-8.5-14T24 28q-6-9-9-9-6 0-6 13 0 8 6.5 27t15 39.5Q39 119 46 132q5 9 23 38t49.5 66.5q31.5 37.5 75 72.5t99 58.5Q348 391 415 391z" fill="currentColor"/></svg>