<svg xmlns="http://www.w3.org/2000/svg" viewBox="0 0 582 370.2"><path d="M299.4 178.6c-81.3-47.8-158.7-80-232.3-96.8-1.2 10.3-6.3 20.4-15.4 30.3 81.5 4.9 164.1 27 247.7 66.5zM50.9 161.2c71-8.8 153.2 1.6 246.5 31.1-89.1-40.6-171.4-62.1-247-64.4 4.3 10.2 4.5 21.4.5 33.3zm349.2 124.1c.5 15.9 7.5 30.8 20.9 44.8 13.6 13.6 28.4 20.6 44.3 20.9v-65.7h-65.2zm77.2 65.7c15.1 0 29.7-7 43.8-20.9 14.3-13.9 21.4-28.9 21.4-44.8h-65.2V351zm-12-143.8c-15.6 0-30.3 7.4-44.3 22.1 14.8 5.5 29.5 8.2 44.3 8.2v-30.3zm12 30.4c12.3 0 28-2 47.3-6-16.1-16.3-31.8-24.4-47.3-24.4v30.4zm0 36.5h65.2c0-12.8-3.1-22.6-9.2-29.4-20.2 4-38.9 6.1-56 6.5v22.9zm-12-22.8c-14.8 0-33.3-3.2-55.5-9.5-6.5 8-9.7 18.7-9.7 32.3h65.2v-22.8zm-95-38.9c-10.3-28.2-14-55.8-11.2-82.8-13.1 4-28.4 17.1-46 39.3 21.5 29.5 40.6 44 57.2 43.5zM489.2 50.3C560 70.5 590.3 104.4 580 152c-10.4 47.6-18.7 76.5-24.6 86.8 4.8 5.1 7.2 16.9 7.2 35.3 0 30.2-8.9 53.7-26.6 70.6-17.6 16.9-39 25.4-64.2 25.4-25.4 0-46.9-8.8-64.7-26.4-17.7-17.4-26.6-38.6-26.6-63.7 0-10.8 3.4-25 10.2-42.5-35.8.5-61.5-8-77.1-25.6-105.8-34.7-192.1-46.4-259-35.3 3.5 15.6.6 29.2-8.7 40.8-9.5 11.4-23.3 14.6-41.5 9.5-6.8-9.1-5.6-16.1 3.5-20.9 24.4 3.6 34.1-.8 29.1-13.4s-6.1-23.5-3.2-32.6c2.7-9.1 2.2-19.1-1.5-29.9-3.8-10.8-2-19.8 5.5-27.1 7.6-7.3 11.4-15.4 11.2-24.4-.2-9 3.6-19.2 11.2-30.8 7.8-11.6 1-20.6-20.4-26.9C32.9 11.3 34 4.3 43.2 0 61.6 5.1 73 15.4 77.5 30.8c4.6 15.3 2.6 26.9-6.2 34.8 84.4 22.7 160 54.1 226.9 94.3 16.3-22.2 30.3-36.1 42.3-41.5 11.9-5.3 19.7-17.5 23.4-36.6L343 55.4c-10-13.1-4.7-23 15.7-29.6 20.6-6.5 36.2-1.7 47 14.2 17.3-4.4 45.2-1 83.5 10.3zm-88.3 171.1c13.4-18.6 29.9-28.9 49.5-30.8L378 99c-4.3 47.8.3 88.4 13.9 121.9l9 .5zm142.5-.5c3.2-8 9.1-31.4 17.9-70.4 8.8-39-9-64.8-53.2-77.6-44.4-12.8-75-18.2-91.8-16.2l73.4 133.8c16.8 1.5 34.7 11.7 53.7 30.4zM382.2 80.6l83.6 107.5h7.2L389 44.3c-4.5-7.3-11.8-9.2-21.9-5.7-10.1 3.3-9.2 11.9 2.7 25.9l12.4 16.1z"/></svg>