<svg xmlns="http://www.w3.org/2000/svg" viewBox="-10 0 1352 1001"><path d="M1110 1001q-56 0-103.5-24t-80-66Q894 869 883 816l-160-46 17-64-528-143q-12 32-37.5 61.5T127 672L0 576l-10-46h49l82 47q19-20 27-50.5t8-59.5q0-7-2-16.5t-4-16.5l-42.5 8.5L65 451l-43-33 36-27 134-43q5 7 14.5 27.5t16.5 48q7 27.5 7 56.5v8l-1 9 528 142 50-190q4-14 15-40t34-53q-26-19-54.5-38.5T742 276q-68-46-101-84t-33-87q0-24 13.5-48T662 16.5Q689 0 728 0q37 0 63.5 10t48 33.5Q861 67 886 108l104 174q13-2 27-3.5t30-1.5q42 0 71.5 7.5T1182 305l131 51q-10 28-24.5 66.5t-29 78.5q-14.5 40-26.5 71 49 31 79 83t30 114q0 64-31.5 116.5t-84 84Q1174 1001 1110 1001zM870 342q18-18 43-32.5t57-22.5L869 118q-31-53-62-75.5T728 20q-49 0-74.5 28T628 105q0 43 31 77.5t96 79.5q31 20 59.5 39.5T870 342zm345 221q11-30 24.5-66t26-70q12.5-34 21.5-59l-115-45q-31-12-59.5-19t-65.5-7q-25 0-46 3l143 240q19 2 37 8t34 15zm-149-21q11-2 22-3.5t22-1.5h5l6 1-140-234q-32 7-55.5 20T885 354q32 25 64 54.5t65 69.5q11 13 24.5 29.5T1066 542zM879 795q0-6-.5-12.5T878 769q0-52 21.5-98t59.5-78.5q38-32.5 86-46.5-12-16-24-30.5T998 488q-29-35-60-64t-67-56q-20 23-31 47t-15 41l-78 300zM745 687l8-29-545-147q1-10 1.5-18t.5-13q0-37-9-67t-16-42L66 408l-12 10q4 3 7.5 5.5T69 430l95-19q4 11 7.5 27.5T175 467q0 35-11 71.5T124 601l-89-51H14q1 4 2 7.5t2 7.5q28 21 54.5 41t54.5 41q20-16 41-45t31-62zm365 294q59 0 107-28.5t76.5-77Q1322 827 1322 769t-28.5-106.5q-28.5-48.5-76.5-77T1110 557q-59 0-107 28.5t-76.5 77Q898 711 898 769t28.5 106.5q28.5 48.5 76.5 77t107 28.5zm0-23q-52 0-94.5-25.5t-68-68Q922 822 922 770t25.5-95q25.5-43 68-68.5T1110 581q52 0 94.5 25.5t68 68.5q25.5 43 25.5 95t-25.5 94.5q-25.5 42.5-68 68T1110 958zm43-301l17-37-6-11q-26-8-54-8 11 14 22 28.5t21 27.5zm-48 82h8l32-65-56-72q-24 3-45 12zm31 14l136-31q-18-65-78-99l38 63q-13 12-28.5 25t-18.5 14q-2-2-9.5-11t-17.5-23l-28 56zm-51 0q1-2 3-4l-61-126q-28 16-49 41.5T948 722zm101-52q-4 4 4.5-3.5T1208 682l-26-42-16 34 10 14 10 13zm64 163q13-20 21-44t8-50q0-15-3-30l-135 32q0 1-.5 2t-.5 2zm-279 1l110-88q-1-2-1-5l-136-31q-3 15-3 29 0 52 30 95zm139-85q11 0 11-10 0-12-11-12t-11 12q0 10 11 10zm10 158q35-2 65.5-17.5T1238 880l-109-87q-3 3-9 5zm-20 0V798q-3-1-9-5l-108 87q44 53 117 58z" fill="currentColor"/></svg>