<svg xmlns="http://www.w3.org/2000/svg" viewBox="0 0 182 596.3"><path d="M25.4 0v36.3h120.2V48H23.5v36.3h122.1v259.4c-20.2-29.2-44-55.6-64.9-84.2-6.6-10.1-11.8-23.5-6.9-35.2 2.8-11.9 21-12.1 18.8 2 2.2 6.5-8.5 14.8.1 17.5 4.1 2.5 8.2 5.1 12.3 7.6 10.2-15.7 10.8-41.4-6.8-52.2-11.7-7.2-27.7-3.8-35.8 7.3-6.3 2.9-12.4 29.2-10.4 23-2.5-14-18.3-25.6-32.1-18.9-16.5 8.3-19.6 28.9-20 45.5.3 15.6 1.5 34.4 15.3 44.5 28.5 25.3 63.9 42.4 89.3 71.3H33.2c26.9 74.8 53.7 149.6 80.6 224.3H180c.7-198.8 1.4-397.5 2-596.3C129.8 0 77.6 0 25.4 0zm3.3 228.2c10.8 4.9.1 19.3 5.6 24.5 2.7 4.7 5.5 9.4 8.2 14.1 9.7-3.8 11.6-28.3 10.9-24.8 4.3 26.5 24.9 45.5 40.4 66 16.6 20.7 33.1 41.6 47.3 64h-12c-24.7-37-65.8-56.7-99.1-84.3-10.5-7-10.2-21.3-10.4-32.6.8-9.1.7-21.9 9.1-26.9zm32.2 163.2h100.3l-.6 185.4h-33.1L60.9 391.4z"/></svg>