<svg xmlns="http://www.w3.org/2000/svg" viewBox="-10 0 288 1035"><path d="M211 1035L28 725h172q-10-7-19.5-13.5T157 695q-42-28-79.5-56.5t-61-57Q-7 553-7 524q0-36 21-55t49-19q34 0 47.5 20t13.5 38q0 18-12.5 33T73 556q-20 0-34-11t-14-36h20q0 14 8.5 20.5T74 536q15 0 22.5-8.5T104 508q0-12-9-25t-32-13q-20 0-35 13t-15 41q0 25 22 50t57.5 52q35.5 27 75.5 54 11 7 21.5 14t21.5 15V233H-10v-58h221v-53H-10V64h221V0h67v1035zm19-20h28V19h-28zM9 103h202V84H9zm0 110h202v-18H9zm202 783V745H63z" fill="currentColor"/></svg>