<svg xmlns="http://www.w3.org/2000/svg" viewBox="-10 0 779 780"><path d="M714 780q-25 0-48.5-22T605 695L256 313q-5 3-14 5t-23 2q-22 0-54.5-9t-70-29.5Q57 261 21 225 4 208-3 190t-7-35q0-17 5.5-33T9 92q-3-3-7.5-11.5T-3 60q0-20 16.5-36T51 8q10 0 18.5 4.5T82 19q13-7 29-13t34-6q16 0 34 7.5T214 32q55 54 75.5 110t20.5 93q0 20-7 32l381 348q41 37 63 61.5t22 48.5q0 18-18 36.5T714 780zM218 300q30 0 39-11l23-22q11-11 11-39 0-33-19.5-82T207 52q-18-18-34-25t-29-7q-25 0-51 15.5T54 66q-1 0-12 12.5t-22 33Q9 132 9 155q0 13 6 28t20 28q50 49 99.5 69t83.5 20zM21 74q14-18 20-22-1 0 5.5-6.5T64 31q-3-1-7-2.5T49 27q-10 0-21 11.5T17 60q0 8 4 14zm693 686q12 0 24-12t12-24q0-13-12-27.5T709 665q-9-9-38.5-36T599 563.5Q557 525 510 482t-91-83.5Q375 358 340.5 327T290 282l-19 19q14 16 45.5 50.5t72 78.5q40.5 44 83 91t81 89q38.5 42 65.5 71t36 38q17 17 32 29t28 12z" fill="currentColor"/></svg>