<svg xmlns="http://www.w3.org/2000/svg" viewBox="0 0 554.8 329.1"><path d="M0 53.2l24.7 12.3c-5.8 25.1 10.1 65.7 56.4 88.8 36.6 18.3 83.7 11.6 100.5-4.6L527.5 329l27.3-54.8-352.5-163c7-34.5-24.8-81.7-51.8-95.2-54.8-27.4-87.7-14.9-103 2.4l-24.1-12L0 53.2zm25.3-8.4l6.5-13 23.7 11.8c4-8.7 8.8-18.5 19.1-20.9 21.8-6.1 45.2.1 65 9.7 18.4 8.9 55 52.4 41.4 79.7-4.5 8.2-7.5 17.3-13.2 24.7-13.3 10.9-51.1 14.1-75.6 1.9-39.7-19.8-50.9-45-50-64.8.5-6.3 4.1-11.6 6.7-17.2L25.3 44.8zM200 135.3l185.7 81.6-7 12.5L200 135.3zm195.4 102.9l7.5-13.3 13.9 6.4-6.6 14.7-14.8-7.8zm38.6 1l10.7 5-7.3 16.2-10.4-5.5 7-15.7zm27.9 12.9l15.9 7.4-7.3 18.2-16.2-8.5 7.6-17.1zm33 15.3l34.3 15.9-10 20.1-32-16.8 7.7-19.2z"/></svg>