<svg xmlns="http://www.w3.org/2000/svg" viewBox="0 0 118.4 594.6"><path d="M13.6 204c0 26.2 5.4 45.7 16.2 58.5 11 13 27.9 19.5 50.6 19.5v-11.2c-17.9 0-31.6-5.8-41.3-17.5-9.7-11.7-14.6-28.1-14.6-49.3-3.3-11.9-7-11.9-10.9 0zm8.9-160.7v9.6h57.9v-9.6H22.5zm81.7-23.1c-3.5-7.5-6.7-7.5-9.6 0v555.9c3.5 4.4 6.7 4.4 9.6 0V20.2zM80.4 470.9c0-48.9-21.8-87.9-65.5-116.7C1 346.3-2.8 336.9 3.6 326.1c6.6-11 16.9-12.3 30.8-4 18.3 11 33.6 22.7 46 35.1v-62.5c-28.7 0-49.3-7.6-61.8-22.8C6.2 256.9 0 234.3 0 204c0-16.5 6.2-24.8 18.5-24.8 12.6 0 18.9 7.9 18.9 23.8 0 36.4 14.3 54.6 43 54.6V67.1H21.5C7.2 67.1 0 60.6 0 47.6c0-12.3 7.2-18.5 21.5-18.5h58.9l.7-8.9C81 6.7 87 0 98.9 0c13 0 19.5 6.7 19.5 20.2v554.3c0 13.4-6.2 20.2-18.5 20.2-13 0-19.5-6.5-19.5-19.5V470.9zm-53-137.5c-12.3-2.4-14.3.8-6 9.6 18.5 11 38.1 30.9 58.9 59.5v-20.8c-14.7-20.3-32.3-36.4-52.9-48.3z"/></svg>