<svg xmlns="http://www.w3.org/2000/svg" viewBox="-10 0 208 1035"><path d="M164 1035q-7 0-20.5-4.5T130 1001V704q-5-7-19.5-30T65 625q-29-26-42.5-36.5T9 563q0-14 10-22t22-8q13 0 27.5 10T95 565q10 10 18.5 19t16.5 18v-80q-32-11-62-34t-51-57Q1 405-2 384.5T-5 351q0-23 10.5-31t21.5-8q12 0 20 7.5T63 355q4 11 9.5 27.5t19 33.5q13.5 17 38.5 28V119H24q-25 0-29.5-13.5T-10 85q0-7 4.5-20.5T24 51h106V34q0-25 13.5-29.5T164 0q7 0 20.5 4.5T198 34v967q0 25-13.5 29.5T164 1035zm0-19q3 0 8.5-2.5t5.5-12.5V34q0-10-5.5-12.5T164 19q-3 0-8.5 2.5T150 34v967q0 10 5.5 12.5t8.5 2.5zM24 99h106V71H24q-11 0-13 5.5T9 85q0 3 2 8.5T24 99zm106 402v-37q-31-11-48-30t-25-39.5Q49 374 45 361q-2-7-5.5-18T27 332q-4 0-8.5 3.5T14 352q0 35 17 65t43.5 51.5Q101 490 130 501zm0 167v-38q-8-11-21-24l-29-29q-10-9-20.5-17T41 552q-12 0-12 11 0 6 12 15.5T78 610q17 15 30 30.5t22 27.5z" fill="currentColor"/></svg>