<svg xmlns="http://www.w3.org/2000/svg" viewBox="-10 0 1297 523"><path d="M185 523L19 402q-8-6-18.5-16T-10 359q0-15 12-26t35-11h258v-53h291l175-153q-5-6-9-15t-4-22q0-18 13-36.5T795.5 12Q817 0 843 0q8 0 23 3.5t27.5 15Q906 30 906 55q0 17-13 35.5t-34.5 31Q837 134 811 134q-5 0-14-1t-19-6L616 269h205v53h466v69H821v53H295v-53H113l85 120zm626-409q30 0 53-20t23-39q0-16-8.5-23.5t-19-10Q849 19 843 19q-29 0-52 20t-23 40q0 16 8.5 23.5T795 112q10 2 16 2zM147 472l-57-81 10-19h214v52h488v-52h465v-30H802v-53H314v53H37q-14 0-21 5t-7 12q0 9 8 16t13 11z" fill="currentColor"/></svg>