<svg xmlns="http://www.w3.org/2000/svg" viewBox="0 0 584 222.3"><path d="M204.4 137v35.4H376V137H204.4zm146.8-78.8c0 .7-.2.2-.7-1.3-.2-1.8.6-5.5 2.3-11.2 2-10.8 8-20.7 18.2-29.8 8.4-8.2 18.2-13.2 29.4-15.2s19.4.2 24.5 6.6c5.7 6.4 7.5 14.9 5.3 25.5s-8.2 20.4-17.9 29.4c-8.8 8.2-18.7 12.9-29.8 14.2-5.1 1.3-9.1 1.7-12.2 1L332 115.8h65.1V137H584v35.4H397.2v21.2h-214v-21.2H65.1l22.2 32.7v17.2h-9.6L0 169.4V137h183.2v-21.2h111.1l56.9-57.6zm49.6-9.5c5.7-5.1 9.5-10.7 11.2-16.9 1.5-6 1.3-9.6-.7-10.9-1.3-2.6-5.2-3.3-11.6-2-6.4 1.3-12.5 4.5-18.2 9.6-5.7 5.1-9.4 10.8-10.9 17.2-1.5 6.4-1.7 10.3-.3 11.6 1.8 2.6 5.8 3.3 12.2 2 6.5-1.4 12.6-4.9 18.3-10.6z"/></svg>