<svg xmlns="http://www.w3.org/2000/svg" viewBox="0 0 160.3 594.4"><path d="M85.5 573.1l2.7-.7c-.9-9.3-3.5-17.9-8-25.9-4.4 8-7.3 16.6-8.6 25.9 2.1.5 6.8.7 13.9.7zm-5.3-48.4c3.1 0 6.2-1.3 9.3-4 14.2-20.8 21.2-52.8 21.2-96.2 0-32.7-4-59.6-11.9-80.6-8-21-11.9-45-11.9-72 0-41.6 2.9-124.5 8.6-248.8-10.2-4.9-20.3-4.9-30.5 0 5.7 124.3 8.6 207.2 8.6 248.8 0 27-4 51-11.9 72s-11.9 47.9-11.9 80.6c0 43.3 7.1 75.4 21.2 96.2 3 2.7 6.1 4 9.2 4zM80.2 0c17.7 0 30.7 5.3 39.1 15.9-11.5 116.3-17.7 186.6-18.6 211-.9 24.3.4 47.3 4 69 5.7-.4 12.6-6.9 20.6-19.2 8-12.4 18.4-13.5 31.2-3.3 8.8 17.7 2.5 30.6-18.9 38.8-21.4 8.2-30 16.9-25.5 26.2 11.5 13.3 17.2 42 17.2 86.2 0 43.3-7.5 80.3-22.6 110.8 0 12.8 4.6 28.7 13.9 47.8-9.3 7.5-22.8 11.3-40.5 11.3s-31.2-3.8-40.5-11.3c9.3-19 13.9-34.9 13.9-47.8-15-30.5-22.6-67.4-22.6-110.8 0-44.2 5.7-73 17.2-86.2 4.4-9.3-4.1-18-25.5-26.2C1.3 303.9-5 291 3.9 273.3c12.8-10.2 23.2-9.1 31.2 3.3 8 12.4 14.8 18.8 20.6 19.2 3.1-21.7 4.3-44.7 3.6-69-.7-24.3-6.7-94.6-18.2-211C49.4 5.3 62.5 0 80.2 0z"/></svg>