<svg xmlns="http://www.w3.org/2000/svg" viewBox="-10 0 355 1001"><path d="M96 1001l33-100q-13-11-31.5-33.5t-33-59.5Q50 771 50 718q0-57 16.5-100t42.5-68l-85-59Q8 480-1 470.5t-9-22.5q0-7 6-17.5T20 420q14 0 26.5 7.5T72 445l57 39L59 0h217l-69 484 56-39q14-10 26-17.5t26-7.5q18 0 24 10.5t6 17.5q0 13-9 22.5T311 491l-85 59q25 25 42 68t17 100q0 53-14.5 90t-33 59.5Q219 890 206 901l33 100zm58-477q3-1 6.5-1H174l7 1 73-504H81q18 126 36.5 252T154 524zm-30 13q3-2 5.5-3t5.5-3l-3-20-71-51q-9-5-19.5-12.5T23 440q-8 0-11 3.5T9 450q0 5 7.5 11T35 475zm87 0l89-62q11-8 18.5-14t7.5-11q0-3-2.5-6.5T313 440q-8 0-19 7.5T274 460l-71 51-3 20q2 2 5 3t6 3zm-87 444h88l-29-87q12-9 31.5-30t35.5-57q16-36 16-89t-14.5-92Q237 587 214 565t-46-22q-24 0-46.5 22T84 626q-15 39-15 92t16 89q16 36 36 57t31 30z" fill="currentColor"/></svg>