<svg xmlns="http://www.w3.org/2000/svg" viewBox="0 0 568.9 523.9"><path d="M536 83.8c0-11-10.2-16.1-30.5-15.3-20.4.8-42 5.9-65 15.3 23 9.9 44.6 15.5 65 16.8 20.3 1.4 30.5-4.3 30.5-16.8zM144.5 261.6c4.2 64.7 21 109.6 50.5 134.7 29.5 25.1 77.4 37.6 143.7 37.6-53.8-31.3-88.9-59.1-105.3-83.4-16.4-24.3-26.8-53.6-30.9-88.1v-.8c4.2-34.5 14.5-63.9 30.9-88.5 16.4-24.5 51.5-52.2 105.3-83-66.3 0-114.2 12.5-143.7 37.6-29.5 25-46.3 69.7-50.5 133.9zM536 439.3c0-12-10.2-17.4-30.5-16.1-20.4 1.3-42 6.7-65 16.1 23 9.9 44.6 15.3 65 16.1 20.3.7 30.5-4.6 30.5-16.1zM202.4 70.5c-16.2-25.6-27.5-40.5-34.1-44.6-6.5-4.2-11.9-3.7-16.1 1.6-4.2 4.7-3.8 10 1.2 16.1 5 5.9 21.4 14.9 49 26.9zm-65 43.1c-21.4-21.4-35.8-33.4-43.1-36-7.3-2.6-12.5-.8-15.7 5.5-2.6 5.7-.9 10.8 5.1 15.3 6.1 4.3 24 9.4 53.7 15.2zm-32.1 67.3c-25.6-16.7-42.2-25.4-49.7-26.2-7.6-.8-12.1 2-13.7 8.2-1.6 6.3 1 11 7.8 14.1 6.8 3.1 25.4 4.4 55.6 3.9zm-10.2 79.9c-28.7-9.9-46.9-14.5-54.4-13.7-7.6.8-11.6 4.6-12.1 11.4 0 6.3 3.8 10.2 11.4 11.7 7.5 1.5 25.9-1.6 55.1-9.4zm106.5 191.8c-27.7 12.5-44 21.7-48.9 27.4-5 5.7-5.4 11.2-1.2 16.4 4.7 4.7 10.3 5.1 16.8 1.2 6.6-3.9 17.7-18.9 33.3-45zM138.2 408c-29.8 5.7-47.8 10.8-54 15.3-6.3 4.4-7.8 9.8-4.7 16.1 3.1 5.7 8.2 7.4 15.3 5.1 7-2.4 21.5-14.6 43.4-36.5zm54.8 28.2c-12.5-6.8-23-15.4-31.3-25.8-40.2 42.3-68.6 61.1-85.4 56.4-24-6.8-31.3-21.1-21.9-43.1 5.7-16.2 36-27.9 90.8-35.2-11.5-21.4-18.3-36.3-20.4-44.6-46.5 31.8-77.3 43.8-92.4 36-21.9-11-26.4-26.6-13.3-47 9.4-14.6 42.3-19.6 98.7-14.9-3.7-11-5.5-25.6-5.5-43.8 0 1.6 0 1.6 0 0-53.8 18.3-86.9 21.4-99.4 9.4-17.7-16.2-17.2-32.4 1.6-48.5 12.5-11.5 45.2-7 97.9 13.3 1-21.4 3.4-37.8 7-49.3-56.9 4.2-90-1-99.4-15.7-13.6-19.8-9.1-35.5 13.3-47 15.1-7.8 46.2 4.7 93.2 37.6 6.8-17.7 13.8-31.3 21.1-40.7-56.4-6.8-87.7-18.3-94-34.5-8.9-22.4-1.3-36.8 22.7-43.1 16.2-4.7 44.6 14.1 85.4 56.4 5.7-8.4 14.1-15.4 25.1-21.1l7.8-3.9c-44.9-16.2-68.4-32.9-70.5-50.1C120.4 13 130.9.7 155.4.2c17.2-1 40.5 23.8 69.7 74.4 4.7-1 19.2-3.8 43.5-8.2 24.3-4.4 71.1-2.5 140.6 5.9 32.4-16.7 60.2-26.4 83.4-29 23.2-2.6 41.8.1 55.6 8.2C562 59.6 569 70.4 569 84c0 14.1-6.9 25.2-20.8 33.3-13.8 8.1-32.4 10.8-55.6 8.2-23.2-2.6-51-12.3-83.4-29-44.9 9.9-85.7 32.2-122.5 66.9s-55.2 67.7-55.2 99.1v-.8c0 31.3 18.4 64.3 55.2 99.1 36.8 34.7 77.7 56.8 122.5 66.2 32.4-16.7 60.2-26.4 83.4-29 23.2-2.6 41.8.1 55.6 8.2 13.8 8.1 20.8 19.2 20.8 33.3 0 14.1-6.9 25.2-20.8 33.3-13.8 8.1-32.4 10.8-55.6 8.2-23.2-2.6-51-12.5-83.4-29.8-69.4 9.4-130.8 8.9-184-1.6-29.8 50.6-53 75.4-69.7 74.4-25.1-.5-35.8-12.8-32.1-36.8 2.5-17.4 25.8-34.3 69.6-51zm-88.5-101c-30.3-.5-48.8.8-55.6 3.9-6.8 3.1-9.4 7.8-7.8 14.1 1.6 6.8 6.1 9.8 13.7 9 7.6-.8 24.2-9.8 49.7-27z"/></svg>