<svg xmlns="http://www.w3.org/2000/svg" viewBox="-10 0 985 818"><path d="M244 818q-11 0-25.5-8.5T204 776q0-22 18-49.5t42-51.5l34-34q-7-5-14-11l-14-12-46 53q-21 24-43.5 46T132 739q-5 0-16-2.5t-20-11q-9-8.5-9-26.5 0-26 28.5-49t68.5-41l55-25q-5-6-9.5-13t-9.5-13l-54 36q-30 21-50 31.5T73 637q-17 0-32.5-10T25 597q0-30 35.5-48t82.5-25l56-9q-4-10-7-19.5t-6-19.5l-57 24q-28 13-47 20t-37 7q-20 0-37.5-10T-10 484q0-20 15.5-32T43 434.5q22-5.5 43.5-6.5t33.5-1l58 2q0-5-.5-10.5t-.5-9.5q0-4 .5-9t.5-10l-58 1q-12 0-33.5-1T43 383.5q-22-5.5-37.5-17T-10 334q0-22 17.5-32.5T45 291q18 0 37 7.5t47 19.5l57 24q3-9 6-18.5t7-19.5l-56-10q-47-7-82.5-25T25 222q0-20 15.5-30T73 182q23 0 43 11t50 31l54 37q5-7 9.5-13.5T239 234l-55-25q-40-18-68.5-41T87 119q0-18 9-26.5t20-11q11-2.5 16-2.5 26 0 48.5 22.5T224 147l46 53q13-11 28-22l-34-35q-24-24-42-51.5T204 42q0-25 14.5-33.5T244 0q23 0 38 15.5T306.5 54q9.5 23 17.5 47l19 51q31-14 70-22t86-8h25.5l24.5 1q61-22 121.5-33.5t107-16Q824 69 843 69q60 0 88 13t36 30q8 17 8 30 0 25-23.5 48.5T873 214q-36 0-66.5-9.5T746 185q-35-12-81-25t-114-18q-60 21-111 56t-82 86.5Q327 336 327 409t31 124.5q31 51.5 82 86.5t111 56q68-5 114-18t81-25q30-10 60.5-19.5T873 604q55 0 78.5 23.5T975 676q0 13-8 30t-36 30q-28 13-86 13-20 0-67-4.5t-107.5-16Q610 717 549 695q-12 1-24.5 1.5t-25.5.5q-47 0-86-8.5T343 666l-19 52q-8 23-17.5 46T282 802.5Q267 818 244 818zm71-651l10-6-19-55q-11-30-24-58t-35-28q-7 0-15.5 4.5T223 42q0 17 16.5 41.5T278 130zm558 27q45 0 64-17t19-35q0-9-7-21.5t-30.5-22Q895 89 845 89q-16 0-54 3.5t-88.5 12Q652 113 599 128q51 7 87 18t67 21q30 10 58 18.5t62 8.5zm-621 24l4-4-47-55q-18-21-38-40.5T132 99q-5 0-15 4t-10 18q0 18 26 36.5t58 33.5zm252 459q-54-24-98.5-59.5t-71.5-87Q307 479 307 409t27-121.5q27-51.5 71.5-87T504 141q-74 0-127 19.5T289 211q-35 31-55 67.5t-28.5 71Q197 384 197 409q0 26 8.5 60.5T234 540q20 36 55 67t88 50.5Q430 677 504 677zM208 286q1-2 1.5-4t1.5-4l-56-38q-28-19-43.5-27.5t-24-10Q79 201 72 201q-4 0-15.5 4T45 222q0 14 16 24.5t39.5 17.5q23.5 7 45.5 11zm-88 86l61-2 1-8-74-32q-31-14-44-16.5T44 311q-5 0-20 3.5T9 334q0 13 12.5 20.5t31 11.5q18.5 4 37 5t30.5 1zM44 507q7 0 20-2t44-16l74-32-1-8-61-2q-12 0-30.5.5t-37 4.5q-18.5 4-31 11.5T9 484q0 16 15 19.5t20 3.5zm28 110q7 0 15.5-1.5t24-9.5q15.5-8 43.5-27l56-39q-2-4-3-7l-62 10q-22 4-45.5 11T61 571.5Q45 582 45 596t11.5 17.5Q68 617 72 617zm60 103q19 0 39-20t38-41l47-55-4-4-61 27q-32 15-58 33.5T107 698q0 13 10 17.5t15 4.5zm713 9q50 0 73.5-9.5t30.5-22q7-12.5 7-21.5 0-18-19-35t-64-17q-34 0-62 8.5T753 651q-31 10-67 21t-87 18q53 15 103.5 23.5t88.5 12q38 3.5 54 3.5zm-598 69q22 0 35-28t24-58l19-54-10-7-37 37q-22 23-38.5 47T223 776q0 13 8.5 17.5T247 798z" fill="currentColor"/></svg>