<svg xmlns="http://www.w3.org/2000/svg" viewBox="0 0 341.3 594.6"><path d="M174.6 91.9c15-19 25.4-42.8 31.1-71.4h-69.1c5.5 28.7 15.9 52.5 31.1 71.4h6.9zM61.5 502.7c-14.6 18.7-24.7 42.8-30.4 72.1h69.4c-6.2-29.3-16.6-53.4-31.4-72.1h-7.6zM171 245.4c-5.1 35.7-16.2 77.7-33.4 126s-32.9 80.5-47 96.6h161.7c-15-15.4-30.6-46.7-47-93.9S177.6 284 171 245.4zm-14.9-127.3c-20.1 20.7-39 52.6-56.9 95.6-17.6 42.8-29.1 82.7-34.4 119.7-5.5 37-5.6 81.9-.3 134.6h6.3c17.4-24.9 34.3-59.9 50.6-104.8 16.1-45 29.7-102.6 40.7-173l8.9-62.8 9.3 62.8c10.8 69.7 24.3 126.9 40.3 171.6 16.1 45 33.3 80.4 51.6 106.2h5c5.7-53.1 5.8-98.2.3-135.3-5.5-37-17.2-77.1-35.1-120-17.9-42.8-36.7-74.3-56.6-94.6h-29.7zM34.7 479.2c-5.3 0-7.9 2.2-7.9 6.6 0 3.7 2.6 5.6 7.9 5.6h272.2c5.5 0 8.3-1.9 8.3-5.6 0-4.4-2.8-6.6-8.3-6.6H34.7zm237.5 23.5c-14.6 18.7-24.7 42.6-30.4 71.4h69.4c-6.2-28.9-16.5-52.7-31.1-71.4h-7.9zm-63.5-388.9c18.3 22.3 35.8 54.2 52.6 95.9 16.8 41.7 28.3 82.7 34.7 123 6.2 40.3 6.1 85.4-.3 135.3h11.9c12.1 0 18.2 5.6 18.2 16.9 0 11.9-6.3 17.9-18.9 17.9h-3c13.2 17.9 25.7 48.5 37.4 91.9H210.7c12.3-43.4 24.8-74.1 37.4-91.9H93.3c13.2 17.9 25.7 48.5 37.4 91.9H0c12.3-43.4 24.8-74.1 37.4-91.9h.6-3.3c-13.2 0-19.8-5.6-19.8-16.9 0-11.9 6.8-17.9 20.5-17.9h11.2c-6.6-49.4-6.7-94.3-.3-134.6s18-81.4 34.7-123 34.3-73.9 52.6-96.6h75.1zm-80.7-3.7c0 2.4 1.9 3.6 5.6 3.6h75.1c3.3 0 5-1.2 5-3.6 0-2.6-1.7-4-5-4h-75.1c-3.7.1-5.6 1.4-5.6 4zM9.9 68.5v-51c53.1 0 92.7 15.9 118.7 47.6C120.2 47 112.7 25.3 106.1 0h130c-11.7 43.4-25.1 75-40.3 94.6H210c11.7 0 17.5 5.5 17.5 16.5 0 10.8-3.7 16.2-11.2 16.2H126c-7.7 0-11.6-5.4-11.6-16.2 0-6.2 1.4-10.3 4.3-12.2C76.4 78.6 40.1 68.5 9.9 68.5zm123.7 14.8C100.1 50.5 64.5 34.1 26.8 34.1v18.2c29.3 0 68.9 15.5 118.7 46.6l-11.9-15.6z"/></svg>