<svg xmlns="http://www.w3.org/2000/svg" viewBox="-10 0 528 998"><path d="M-10 998l54-132H32q-4 0-16-5T4 835q0-20 12-25t16-5h23q-8-37-11.5-73T40 657q0-34 8.5-83T76 467.5Q95 410 126 351t77-113q-9-8-37.5-30.5T92 164q-45-21-102-26l5-84q36 2 71.5 18t66.5 38q31 22 51 40L152 0h205l-54 238q46 53 77.5 112t51 117q19.5 58 28 107t8.5 83q0 75-16 148h23q4 0 16.5 5t12.5 25q0 21-12.5 26t-16.5 5h-12l55 132H358l54-132H96l54 132zm231-766h64l48-212H176zm-25-26l-5-21q-12-13-40.5-37T86 103Q50 82 13 76l-3 45q45 7 81.5 22t63 33q26.5 18 41.5 30zM75 805h7q16-20 39.5-56.5t47-86.5Q192 612 209 550.5T229 419l5-167h-19q-44 50-74 108T93 475.5q-18 57.5-26 105T59 657q0 75 16 148zm31 0h295q-17-23-40.5-61T315 656q-22-50-38-110t-18-127l-5-167-6 167q-2 68-18 128t-38 109.5Q170 706 146.5 744T106 805zm319 0h7q16-71 16-148 0-29-8-76.5t-26.5-105Q395 418 365 360t-73-108h-19l6 167q2 70 19 131.5T339 662q24 50 47.5 86.5T425 805zM32 846h443q2 0 5.5-2t3.5-9q0-7-3.5-8.5T475 825H32q-1 0-4.5 1.5T24 835q0 7 3.5 9t4.5 2zM19 978h102L76 866H63zm368 0h101l-44-112h-13z" fill="currentColor"/></svg>