<svg xmlns="http://www.w3.org/2000/svg" viewBox="0 0 595.3 413.2"><path d="M457.8 114.6V141c-37.1 0-71.6 2.4-103.3 7.3 19.6-22.5 54-33.7 103.3-33.7zm-153.3 65.9c-43.9 49.5-77.9 98.7-102 147.7h-58.6c35.2-73.9 88.7-123.1 160.6-147.7zM514.3 23.4v304.8h-35V23.4h35zm-56.5 140.2v165.2l-224.3-.5c23-48.1 58.6-99 107.1-152.8 40.5-8 79.6-11.9 117.2-11.9zm114.6 187.2v39H22.9v-39h549.5zM457.8 0v92.5c-59.5 0-105.3 20.8-137.2 62.4-96.3 17-165.8 74.8-208.5 173.2H0v85h595.3v-85h-58.9V163.6h47.9V141h-47.9v-26.4h47.9V92.5h-47.9V0h-78.6z"/></svg>