<svg xmlns="http://www.w3.org/2000/svg" viewBox="-10 0 1024 675"><path d="M-10 675V557h153q5-11 19.5-36t41.5-57q27-32 68-64.5t98-60Q427 312 502 297q53-37 119-67.5T769 182V0h118v167q13-1 36.5-1.5t37.5-.5h53v19h-53q-14 0-37.5.5T887 186v120q48 8 81 16.5t46 13.5l-10 18q-16-5-45.5-13T887 325v232h127v118zm799-497q19-4 38.5-6.5T868 168V19h-79zm79 125V187q-21 2-40.5 4.5T789 198v94q21 2 40.5 5t38.5 6zm-321-13q22-2 46-4t50-2q34 0 65.5 2t60.5 4v-88q-65 13-120.5 36.5T547 290zM299 557h470V309q-28-2-60-3.5t-66-1.5q-37 0-70 3t-63 8q-65 46-108.5 95.5t-68.5 89Q308 539 299 557zm490 0h79V322q-18-3-38-6t-41-5zm-626 0h115q5-10 25.5-46t60-86Q403 375 464 326q-78 21-133 54.5T240.5 450q-35.5 36-54 65.5T163 557zM9 655h985v-79H9z" fill="currentColor"/></svg>