<svg xmlns="http://www.w3.org/2000/svg" viewBox="-10 0 1099 440"><path d="M58 440q-11 0-27-2T2.5 428Q-10 420-10 402q0-20 13.5-27.5t30-9Q50 364 60 364h81q1-14 7-35.5t24-43q18-21.5 53.5-36T321 235h94q16-36 41-69.5t60-55Q551 89 597 89h404l8-30q4-11 8.5-25t14-24Q1041 0 1058 0q18 0 24.5 13t6.5 26q0 11-3 22t-4 19l-87 323q-8 25-29.5 31t-39.5 6zm2-20h864q16 0 31.5-3t21.5-24l86-319q2-6 4-15.5t2-18.5q0-8-3-14t-10-6q-11 0-18 17t-10 27l-72 277q-5 19-9.5 28T931 381q-11 3-35 3H60q-7 0-19.5.5t-22 4Q9 392 9 402t9.5 13.5q9.5 3.5 22 4t19.5.5zm376-185h526l34-127H597q-40 0-70.5 18.5t-53 47.5Q451 203 436 235zM160 364h217q2-14 9-44t21-65h-86q-52 0-84 12t-48 29.5q-16 17.5-22 36t-7 31.5zm237 0h496q25 0 31.5-4t10.5-20l22-85H428q-14 35-21.5 65t-9.5 44z" fill="currentColor"/></svg>