<svg xmlns="http://www.w3.org/2000/svg" viewBox="0 0 439.1 376.7"><path d="M88.4 354h42.9l34.1-134.9-27.9-45.5L88.4 354zm178.2 0h42.9l-55.3-180.3-26.4 45.5L266.6 354zm-117.8 0H249l-39.3-134.9 38.2-67.7H143.1l40.3 67.7L148.8 354zm-32-228.4l-17.1-9.3C37.4 84.2 4.1 45.5 0 0l344.1 93c32.7 11.4 57.2 26.5 73.4 45.5 16.2 18.9 23.3 42.4 21.2 70.3l-52.2 1-18.6-42.9c-7.2-15.8-23.4-24.1-48.6-24.8l-43.9 7.8 69.2 226.8H54.8l67.7-248-5.7-3.1zm304.9 64c0-11.7-3.7-22.1-11.1-31.3-7.4-9.1-16.4-17.8-26.9-26.1s-25.6-15.7-45.2-22.2L27.9 26.9c28.2 39.6 68 67.4 119.4 83.5 51.3 16 108 21.1 170 15.2 39.3-2.8 66 18.6 80.1 64.1 3.8 3.1 8.2 4.2 13.2 3.4 4.9-1 8.6-2.1 11.1-3.5z"/></svg>