<svg xmlns="http://www.w3.org/2000/svg" viewBox="-10 0 1225 1066"><path d="M238 1066l177-628q-4-4-8.5-7.5T398 423L50 100Q32 83 11 64t-21-33q0-20 13-25.5T26 0q12 0 26 4.5T83 15l949 346q31 14 63.5 48t59.5 77.5q27 43.5 43.5 86.5t16.5 74q0 27-36 47-14 8-38.5 14.5T1103 715q-14-13-17.5-35t-4.5-50q-1-28-7.5-58t-26.5-60q-10-14-32-25t-33-14q-23 7-61 15t-86 14l159 564zm874-371q10-1 26-5.5t32-12.5q11-7 18.5-14.5t7.5-15.5q0-28-16-68.5t-42-82.5q-26-42-56-74.5t-57-42.5L74 33q-19-7-29-10t-20-3q-4 0-10 2t-6 9q0 7 19 22.5T64 85l340 317q31 29 79 49t105 30q57 10 114 10 79 0 154-11t127-27q30 8 51.5 22.5T1064 502q18 28 25.5 58t10 57q2.5 27 4.5 48t8 30zm-848 351h207l126-439-166-153zm352-447l96-88q-136 0-233-40zm145 447h207L815 504q-36 5-75 6l-105 97zm-270 0h250L616 613z" fill="currentColor"/></svg>