<svg xmlns="http://www.w3.org/2000/svg" viewBox="0 0 143.4 595.1"><path d="M43.8 0v27.6c-25 6-45.2 25.4-43.7 90.1 1 40.9 27 80 48.9 87.9l-6 389.5h61.2L92.8 206.9c34.1-9.1 49.5-58.6 50.5-88.9 2.1-65.4-24.8-85.1-47.1-91.1V0H43.8zm18.9 18.9h14.6v26.5c9.6-.3 15.6-.4 20.3 1.6 25.5 9.1 27.3 48.4 26.3 70.3-1.3 30.2-16.4 65.3-39.2 71-9.3 2.7-20.9 3-30.1-.8-15.7-7-35.4-42.4-35.4-69.8 0-44.4 6.9-62.7 25.1-70.7 5.9-2.4 12.2-1.5 18.4-1.7V18.9zm7.6 196.7l9.9 201.6-14.3-.1 4.4-201.5zm-4.9 220.8l15.3.1.5 16.6H65.1l.3-16.7zM81.7 472l.4 11.8H64.4l.3-11.8h17zm.9 31.1l.5 17.8-19.6.2.4-18.3 18.7.3zm1.1 36.7l1.1 36.4H62.3l.8-36.1 20.6-.3z"/></svg>