<svg xmlns="http://www.w3.org/2000/svg" viewBox="-10 0 1284 715"><path d="M1167 715q-15-3-20.5-24t-9-52q-3.5-31-10.5-63.5t-24-58.5q-10-15-31-28.5t-32-16.5q-18 6-54 14t-82.5 15.5q-46.5 7.5-96.5 13t-95 5.5q-91 0-162-23t-109-56L50 99Q32 83 11 63t-21-33q0-19 13-24.5T26 0q12 0 26 4.5T83 14l1007 347q31 13 63.5 47t60 77.5q27.5 43.5 44 86.5t16.5 74q0 14-9.5 26t-26.5 22q-15 8-37 14.5t-34 6.5zm2-20q10-1 27-6t32-13q11-6 18.5-13.5t7.5-16.5q0-27-16-68t-42-82.5q-26-41.5-55.5-74T1084 379L74 32q-19-6-29-9.5T25 19q-4 0-10 2.5T9 30q0 7 19 23.5T64 85l383 335q40 34 105.5 57.5T712 501q39 0 85-4.5t92.5-11.5q46.5-7 86.5-15.5t66-17.5q16 6 42 22.5t37 36.5q22 36 28 70.5t8 64q2 29.5 12 49.5z" fill="currentColor"/></svg>