<svg xmlns="http://www.w3.org/2000/svg" viewBox="0 0 593.1 283.7"><path d="M37.1 36.4l420 112.3c26.9 8.9 47.3 19 61.4 30.2 14.1 11.2 25.9 23 36.1 35.1 9.9 12.5 14.8 26.6 14.8 42.4-1 5.3-7.2 8.2-14.4 8.2-6.6 0-13.8-2.6-18.4-8.2-17.7-58.1-50.9-87-98.5-87-3 0-5.9 0-8.9.3-22.7 2.3-44.7 3.3-66.3 3.3-58.8 0-113.6-7.9-164.5-24C129 127.4 75.2 90 37.1 36.4zM0 0c5.3 61.4 49.9 113 134.3 154.7 57.8 28.6 122.8 43 195 43 33.2 0 67.6-3 103.8-8.9 33.2 3.3 54.5 15.4 64.4 36.8 9.2 14.8 13.1 38.7 15.4 58.1h79.8c2.6-57.1-6.9-70.9-28.9-96.5-21.7-25.6-54.8-46-99.2-61.4L0 0z"/></svg>