<svg xmlns="http://www.w3.org/2000/svg" viewBox="0 0 558.4 323.9"><path d="M59.7 44.7l388 156.5c-30.4 17.6-60.8 26.4-91.2 26.4-12.6 0-25.3-1.5-38.1-4.5-43.2-10.2-88.7-32.8-136.4-67.8-48-34.9-88.7-71.8-122.3-110.6zm416.2 168.2c49.4 44.6 65.6 72.4 48.6 83.4-2.4 1.6-4.8 2.4-7.2 2.4-14.4 0-28.2-28.6-41.4-85.8zM0 0c41.6 74.8 99.9 136.8 174.8 186.2 72.6 47.8 130.3 71.7 173.3 71.7h3.9c43.2-1.4 77.7-12 103.5-31.8 15.8 65.2 36.3 97.8 61.5 97.8 7.4 0 15.3-3 23.7-9 36.4-25.6 16.6-67.6-59.4-126L0 0z"/></svg>