<svg xmlns="http://www.w3.org/2000/svg" viewBox="-10 0 1294 715"><path d="M1217 715q-27 0-58-19t-58.5-58q-27.5-39-45.5-99-18 6-60 20.5T897.5 586Q842 598 782 598q-51 0-103-16.5T581 541q-46-24-80.5-47.5T450 456L50 99Q32 83 11 63t-21-33q0-19 13-24.5T26 0q12 0 23 2.5T83 14l1014 390q32 13 64.5 39.5T1222 503q28 33 45 67.5t17 65.5q0 30-12 54.5t-55 24.5zm-1-20q31 0 39.5-16.5t8.5-42.5q0-27-16.5-60t-43-64q-26.5-31-57-55t-57.5-34L74 32q-19-7-29-10t-20-3q-4 0-10 2.5T9 30q0 7 19 23.5T64 85l399 356q15 14 48.5 36.5t78 45.5q44.5 23 94.5 39t98 16q58 0 113.5-12T996 538.5q45-15.5 73-27.5 10 58 36.5 99.5t57 63Q1193 695 1216 695z" fill="currentColor"/></svg>