<svg xmlns="http://www.w3.org/2000/svg" viewBox="0 0 576.9 368.5"><path d="M63.4 34.2l394.8 93.6c-26.6 21.4-54.7 33.9-83.7 38.2-8.7 1.4-17.1 2-25.5 2-3.8 0-7.5 0-11.3-.3-42.9-3.5-89.8-19.1-140.8-45.5-50.9-26.6-95.5-55.9-133.5-88zm423.2 100.2c53.9 35.3 73.3 60.3 58.8 73.3-2 1.7-4.3 2.9-6.7 3.2h-1.4c-13.6 0-30.4-25.8-50.7-76.5zM0 0c50.7 65.5 115.6 116.7 194.7 152.9 24.6 11.6 48.1 20.6 68.9 27.8-40.6 50.1-73.9 93.9-99.1 130.1-18.5 10.1-32.4 18.5-40.8 24.6-8.1 5.8-20 10.1-36.5 13-20.9 1.4-31.9 5.2-31.9 10.4v7.5c-.3 1.4 7.2 2 22 2 7.5 0 16.5-.3 27.5-.6 11.6-2.9 21.1-4.3 29-4.3 4.3 0 7.8.3 11 1.2 9 2.3 16.2 3.2 22 3.2 5.8 0 10.4-1.7 13.9-4.9 3.5-2.9 5.5-11.9 7.2-27.5 0-4.3 15.6-22 45.5-51.3 30.1-29.5 47.2-51.6 51.6-66.9 0-3.8 4.9-8.4 16.2-14.5 3.8 0 12.7 7.2 26.6 22.6 27.5 33.3 46.3 56.8 56.2 71 10.1 13.9 11.3 23.5 4.1 27.5-7 4.3-13.9 9.3-21.1 16.5-6.4 6.4-13.3 9.8-20.6 9.8-.9 0-1.4 0-2-.3-15.9 2.6-24.6 6.7-24.6 12.2v5.8H376c10.4-5.5 19.7-8.4 27.8-8.4 3.8 0 7.2.6 10.4 2 10.1 4.1 17.4 6.4 22.9 6.4 8.4-1.2 12.2-4.6 12.2-10.4 0-6.4-3.2-12.5-9-20.6-9-14.2-19.7-40.3-33.3-76.5-10.1-26.6-25.5-47.5-45.5-63.4 3.2-.3 6.7-.3 9.6-.9 1.2 0 2.9-.6 4.1-.9 41.4-7.5 72.7-22 94.4-44.6 23.5 56.8 45.8 84.9 68.4 84.9 1.4 0 2.9 0 4.1-.3 7.2-1.2 15.1-5.2 22-12.2 31.3-29.8 5.8-67.5-75.6-112.4L0 0z"/></svg>