<svg xmlns="http://www.w3.org/2000/svg" viewBox="-10 0 1126 1001"><path d="M120 1001v-53q27-7 61-17t63-21q29-11 44-21 19-13 38.5-49t37-79.5Q381 717 394 681q5-17 11-33t11-27q11-26 25-55t29-58q-18-11-31.5-22T414 464L26 85Q9 68-.5 56.5T-10 31q0-20 13-25.5T26 0q12 0 23 3.5T83 17l846 357q33 14 66 41t60.5 61q27.5 34 44 69.5T1116 611q0 20-4.5 38t-19 29.5Q1078 690 1049 690q-26 0-57-19t-59-58q-28-39-46-99-15 6-40 14.5T787 544q24 46 38 76 10 22 23.5 53.5t27 64q13.5 32.5 24 58.5t15.5 38q11 28 18.5 57.5T949 944q0 15-9.5 31t-21.5 26h-47q-19 0-34.5-8t-27.5-8q-21 0-40.5 7t-42.5 9H609v-53q27-7 60-16.5t62.5-20Q761 901 775 891q14-9 18.5-17t4.5-15q0-11-12-33.5t-30-50q-18-27.5-35.5-54T693 676q-5-10-16.5-31.5t-24-46Q640 574 631 555l-19-1q-7 18-20 46.5T563 662q-16 33-32 63-8 13-23 35.5T476 808q-17 25-32 44-1 4-2 14t-1 20q0 9 3.5 27t7.5 31q0 30-32 57h-39q-19 0-34.5-8t-28.5-8q-19 0-38.5 7t-42.5 9zm928-331q31 0 40-16.5t9-42.5q0-27-15.5-59.5t-41-64Q1015 456 984 431t-62-38L74 35q-19-8-29-11.5T25 20q-4 0-10 2t-6 9q0 10 30 40l387 379q19 19 49.5 38.5t76 33.5Q597 536 661 536q87 0 143.5-16.5T902 487q11 58 37 99t56 62.5q30 21.5 53 21.5zM139 982l92-1q20 1 44.5-7t42.5-8q16 0 32.5 7.5T383 981h28q7-4 14.5-14t6.5-24q0-5-5.5-22.5T421 886q0-9 2-23t4-23q14-17 30.5-40t32-46q15.5-23 24.5-39 20-39 41.5-85t36.5-79q-32-5-58.5-13.5T486 518q-30 58-51 108-5 12-10.5 27.5T413 686q-14 39-33 84t-39 82.5Q321 890 301 904q-13 9-41 20.5T199 946q-33 10-60 17zm490-1h92q20 0 44-7.5t44-7.5q15 0 31.5 7.5T873 981h34q10-7 15-15.5t7-22.5q-7-19-15-47.5T896 842q-5-12-15-38.5t-23.5-59Q844 712 831 681t-23-51q-7-15-18-36t-24-46q-23 4-48.5 6t-56.5 2h-8q10 21 22 45t22 43.5q10 19.5 16 28.5 9 15 23 37t28 44.5q14 22.5 25 40.5t14 25q8 14 11 25.5t3 18.5q0 9-5 19t-25 23q-15 10-43 21t-59 20.5q-31 9.5-56 15.5z" fill="currentColor"/></svg>