<svg xmlns="http://www.w3.org/2000/svg" viewBox="-10 0 1119 1071"><path d="M435 1071V584L42 239q-22-19-37-34.5T-10 173q0-17 10.5-23t19.5-6q12 0 28 3.5T91 162l344 126V116q0-11 2.5-30T449 47.5Q458 28 477.5 14T532 0q35 0 55 12.5T616 44q9 19 11.5 40t2.5 39v237l309 113q42 16 81 49.5t64 75q25 41.5 25 82.5 0 20-5.5 40t-21 33.5Q1067 767 1036 768q-25 1-54-13t-53-46q-24-32-34-87-27 11-81.5 26.5T669 664h-20l-19-1v79h-19v-81q-54-8-92-25t-65-36v471zm176-718V123q0-20-4-44t-21-41.5Q569 20 532 20q-28 0-43.5 11.5t-23 27.5Q458 75 456 89.5t-2 20.5v185zM435 559V309L84 180q-24-9-35-12.5t-16-4q-5-.5-10-.5t-9.5 3Q9 169 9 173q0 10 11 21t33 31q107 94 176.5 155T340 476.5q41 35.5 60.5 52.5t26 22.5q6.5 5.5 8.5 7.5zm176 82V374l-157-58v260q25 19 63 38t94 27zm424 108q34-2 44-24t10-45q0-28-16.5-58t-41.5-56.5q-25-26.5-51.5-46.5T932 492L630 381v262q9 1 19 1.5t20 .5q87 0 143-16.5t97-32.5q10 58 32 91.5t47.5 47.5q25.5 14 46.5 14z" fill="currentColor"/></svg>