<svg xmlns="http://www.w3.org/2000/svg" viewBox="0 0 581.9 303.3"><path d="M545.6 118.1l13.6 23.7c24 46.7 29 85.2 14.8 115.6-14.2 30.6-34.3 45.9-60.4 45.9s-46.1-15.3-60.1-45.9c-14.2-30.4-8.8-68.9 16-115.6H300.6c-68.2 0-168.4-30.4-300.6-91.2V14.8c19.3 5.5 64.3 16.7 135 33.6 70.7 16.9 176.8 25.1 318.4 24.7 15.8 0 26.6-12 32.4-36.1C491.6 12.7 506 .4 529 0c29.6 0 44.4 16.7 44.4 50.2 0 33.8-9.3 56.4-27.8 67.9zm-89.7 0c53 0 83-14.5 90-43.5 7.2-28.8 3.6-44.8-10.8-48.1-14.4-3.1-24.5 7.1-30.2 30.5-5.8 23.6-22.3 35.5-49.6 35.5l.6 25.6zm57.7 22.5c-22.6 15.8-33.8 41.2-33.6 76.1.2 35.1 11.3 52.7 33.3 52.7s33.1-17.6 33.3-52.7c.4-34.9-10.6-60.3-33-76.1zm-112.2-22.5V92.5c-136.3 0-263.7-18-382.3-53.9 118.6 53.4 211.4 80 278.4 79.8 67.2-.2 101.8-.3 103.9-.3z"/></svg>