<svg xmlns="http://www.w3.org/2000/svg" viewBox="-10 0 1201 675"><path d="M1032 675q-83 0-122-43.5T871 518q0-31 7.5-65.5t17.5-64q10-29.5 17-46.5-44 7-95.5 10.5T705 356q-121 0-221.5-16T302 298.5Q221 273 159.5 244T55 190q-24-14-44.5-31.5T-10 121q0-17 9-25.5T20.5 84Q33 81 41 81q16 0 39 7t48 16q25 9 46 17 25 10 83.5 29t149 34.5Q497 200 620 200q103 0 161.5-8t89.5-19q23-9 34.5-19t18.5-18q15-18 26-41t24.5-44.5Q988 29 1010 14.5T1069 0q12 0 31.5 3.5t39.5 16q20 12.5 33.5 39T1187 131q0 45-20 82.5t-63 66.5q7 7 21 26t29 47q15 28 26 62t11 73q0 61-23 102.5t-59.5 63Q1072 675 1032 675zM705 336q171 0 272.5-25.5T1123 239q44-46 44-108 0-39-11.5-61.5t-28-33.5q-16.5-11-33-14t-25.5-3q-31 0-50 13.5t-31.5 34q-12.5 20.5-23 43T939 150q-8 9-21 19.5T879 190q-34 12-95 20.5T620 219q-123 0-215-16t-151.5-35Q194 149 169 140q-34-13-70.5-26.5T42 100q-8 0-20.5 3.5T9 121q0 13 18 27t38 26q57 33 147.5 71T426 309.5Q549 336 705 336zm267-78q-18 0-37.5-1t-23.5-1v-19l16-8 32-19.5q32-19.5 31-29.5t13-38v-11q0-40 19.5-58.5T1069 54q33 0 49 21.5t16 53.5q1 38-22 67t-60 45.5q-37 16.5-80 16.5zm-27-20q7 0 14.5.5t23.5-.5q31-1 61.5-14.5T1095 186q20-24 20-57 0-22-11-38.5T1068 74q-21 0-33.5 15.5T1022 131v10q0 26-15.5 47T972 222q-19 13-27 16zm84 417q36 0 68.5-19t53-56.5Q1171 542 1171 488q0-39-11.5-73t-27-61q-15.5-27-29-43.5T1087 290q-8 5-16.5 9t-18.5 8q11 12 29 36.5t31.5 61Q1126 441 1126 490q0 45-13 70t-31 35.5q-18 10.5-34.5 12.5t-22.5 2q-8 0-22.5-3t-30-12.5q-15.5-9.5-26-28.5T936 514q0-35 7.5-71.5t16.5-66q9-29.5 15-45.5l-20 4-20 4q-4 8-14.5 38T900 445q-10 38-10 73 0 37 15 68t45.5 50q30.5 19 78.5 19zm-4-65q3 0 15.5-1t28-9q15.5-8 26.5-29t11-61q0-51-15-87.5t-33-59q-18-22.5-26-29.5-7 3-16 5.5t-17 5.5q-2 4-9 22.5t-15 46q-8 27.5-14 59t-6 61.5q0 34 15 50t32 21q17 5 23 5z" fill="currentColor"/></svg>