<svg xmlns="http://www.w3.org/2000/svg" viewBox="-10 0 1201 1071"><path d="M448 1071V555q-137-25-234.5-66.5T55 412q-24-14-44.5-31.5T-10 343q0-17 9-25.5T20.5 306q12.5-3 20.5-3 16 0 39 7t48 16q25 9 46 17 29 11 97.5 33.5T448 412V116q0-11 2.5-30T462 47.5Q471 28 491 14t54-14q35 0 55 12.5T629.5 44q9.5 19 12 40t2.5 39v299q91-1 145-9t82-18q23-9 34.5-19t18.5-18q15-18 26-41t24.5-44.5q13.5-21.5 35.5-36t59-14.5q12 0 31.5 3.5t39.5 16q20 12.5 33.5 39T1187 353q0 45-20 82.5t-63 66.5q7 7 21 26t29 47q15 28 26 62t11 73q0 61-23 102.5t-59.5 63Q1072 897 1032 897q-83 0-122-43.5T871 740q0-31 7.5-65.5t17.5-64q10-29.5 17-46.5-44 7-95.5 10.5T705 578q-16 0-31-.5t-30-.5v165h-20V576q-42-2-81-6.5T467 559v512zm176-649V123q0-20-4-44t-20.5-41.5Q583 20 545 20q-28 0-43.5 11t-23 27Q471 74 469 88.5t-2 20.5v305q34 4 73 6t84 2zm81 136q171 0 272.5-25.5T1123 461q44-46 44-108 0-39-11.5-61.5t-28-33.5q-16.5-11-33-14t-25.5-3q-31 0-50 13.5t-31.5 34q-12.5 20.5-23 43T939 372q-8 9-21 19.5T879 412q-32 11-87.5 19.5T644 441v116q15 1 30 1zm267-78q-18 0-37.5-1t-23.5-1v-19l16-8 32-19.5q32-19.5 31-29.5t13-38v-11q0-40 19.5-58.5T1069 276q33 0 49 21.5t16 53.5q1 38-22 67t-60 45.5q-37 16.5-80 16.5zm-27-20q7 0 14.5.5t23.5-.5q31-1 61.5-14.5T1095 408q20-24 20-57 0-22-11-38.5t-36-16.5q-21 0-33.5 15.5T1022 353v10q0 26-15.5 47T972 444q-19 13-27 16zm-497 75V431q-110-14-180.5-36T169 362q-34-13-70.5-26.5T42 322q-8 0-20.5 3.5T9 343q0 13 18 27t38 26q59 35 155.5 74.5T448 535zm176 21V441q-45 0-84-2t-73-5v105q37 6 76 10.5t81 6.5zm405 321q36 0 68.5-19t53-56.5Q1171 764 1171 710q0-39-11.5-73t-27-61q-15.5-27-29-43.5T1087 512q-8 5-16.5 9t-18.5 8q11 12 29 36.5t31.5 61Q1126 663 1126 712q0 45-13 70t-31 35.5q-18 10.5-34.5 12.5t-22.5 2q-8 0-22.5-3t-30-12.5q-15.5-9.5-26-28.5T936 736q0-35 7.5-71.5t16.5-66q9-29.5 15-45.5l-20 4-20 4q-4 8-14.5 38T900 667q-10 38-10 73 0 37 15 68t45.5 50q30.5 19 78.5 19zm-4-65q3 0 15.5-1t28-9q15.5-8 26.5-29t11-61q0-51-15-87.5t-33-59q-18-22.5-26-29.5-8 4-17.5 6.5T995 548l3 1q-9 22-19 54.5t-17 67q-7 34.5-7 65.5 0 34 15 50t32 21q17 5 23 5z" fill="currentColor"/></svg>