<svg xmlns="http://www.w3.org/2000/svg" viewBox="-10 0 556 1066"><path d="M-10 1066V363q0-3 2-24t12-51q10-30 33-61.5t64.5-56Q143 146 208 137q4-10 14.5-32.5t27-46.5Q266 34 288 17t49-17q28 0 43.5 15.5T396 56q0 23-18.5 46T342 140q61 11 100 35.5t60.5 55.5q21.5 31 30.5 60.5t11 49.5q2 20 2 22v703zm327-930q9-7 23-20t25-29q11-16 11-31t-9.5-25.5Q357 20 337 20q-21 0-38 13t-31 32q-14 19-23.5 38T230 135q9-1 18-1.5t20-.5q27 0 49 3zM10 1046h516V363q0-3-2.5-25t-14-53q-11.5-31-39-61T394 173.5Q345 153 268 153t-126 20.5Q93 194 65.5 224t-39 61q-11.5 31-14 53T10 363z" fill="currentColor"/></svg>