<svg xmlns="http://www.w3.org/2000/svg" viewBox="-10 0 571 1003"><path d="M-10 1003V682q7-10 22.5-21T49 650q39 0 53 23.5t23 53.5l9 27 20.5 45.5q20.5 45.5 35 43.5t52.5 23V335q-12-9-33-30t-38-53q-17-32-17-72 0-58 25.5-83.5T237 64V36q0-8 8-22t30-14q22 0 30.5 14t8.5 22v28q32 7 57.5 32.5T397 180q0 40-17 72t-38 53q-21 21-33 30v531q31-4 52-23t35-43.5q14-24.5 21-45.5l9-27q7-20 14.5-37.5T462 661q14-11 40-11 21 0 36.5 11t22.5 21v321zM257 61q4-1 9-1h18l10 1V36q0-4-4-10t-15-6q-10 0-14 6t-4 10zM9 984h533V690q-4-7-14-13.5t-26-6.5q-27 0-39 19.5T444 733q-2 8-10.5 32T408 817q-17 28-44 48.5T298 886h-8V325q19-12 39.5-33.5T364 241q14-29 14-61 0-42-16-63.5t-40-29Q298 80 275 80q-22 0-46 7.5t-40 29Q173 138 173 180q0 33 13 59t29.5 45q16.5 19 30 29.5T261 325v561h-8q-39 0-66-20.5T143 817q-17-28-25.5-52T107 733q-8-24-19.5-43.5T49 670q-16 0-26 6.5T9 690z" fill="currentColor"/></svg>