<svg xmlns="http://www.w3.org/2000/svg" viewBox="-10 0 452 1014"><path d="M232 1014q-25 0-35-12t-11-34.5q-1-22.5-1-52.5 0-6 .5-19.5T187 863l6-201q-10 11-13 27.5t-3 35.5q0 17-2.5 42T163 816.5q-9 24.5-28 41T83 874q-36 0-56-18t-28.5-46q-8.5-28-8.5-57 0-70 35-132.5T127 527v-48l73-27 4-103q-19-5-42-32.5t-40-74Q105 196 105 135q0-31 12-50t30.5-29Q166 46 184 41q1-5 4-14.5t13-18Q211 0 232 0q19 0 29 8t14 18q4 10 4 15 18 5 36 15t30.5 29q12.5 19 12.5 50 0 61-17 107.5t-40.5 74Q277 344 259 349l3 109q13 1 25 6 17 7 31 15t21 13v45q28 19 46.5 45t29.5 51q11 25 17 41 7 24 8.5 36t1.5 16q0 19-11 22.5t-15 3.5q-13 0-21.5-8T376 704q-7-24-21.5-52T323 607q-11-11-24.5-20T266 573l1 15q36 12 57.5 43t31 71q9.5 40 9.5 80 0 30-9.5 41T333 834q-10 0-20.5-9T302 785q0-29-2-45t-5-25q0-1-5-20t-20-33l6 201q1 19 1.5 32.5t.5 19.5q0 30-1 52.5t-10.5 34.5q-9.5 12-34.5 12zM205 37q12-1 20-1.5t7-.5q4 0 11 .5t15 1.5q-1-6-7-12t-19-6q-13 0-19 6t-8 12zm11 294h30q15 0 36.5-24t38.5-67.5Q338 196 338 135q0-32-16-48.5t-36.5-23Q265 57 248.5 56L232 55l-16.5 1-37.5 7.5q-37.5 7.5-37 23T125 135q0 61 16.5 104.5t38 67.5q21.5 24 36.5 24zm27 123l-4-103h-16l-3 101q5 1 10.5 1t12.5 1zm77 72v-26q-4-2-13.5-7.5T283 482q-18-7-41-9t-38-2l-58 22v26q39-14 84-14 27 0 49 5.5t41 15.5zM83 854q26 0 41-14.5t22-35.5q7-21 9-42.5t2-36.5q0-39 14-68.5t61-29.5q27 0 43 12t24.5 28.5q8.5 16.5 12 29.5t3.5 14q2 9 4.5 26t2.5 48q0 19 3.5 24t7.5 5q4 0 8.5-6.5T346 782q0-41-10.5-82.5t-35.5-69Q275 603 231 603q-50 0-75.5 33.5T130 722q0 16-3 41.5t-12.5 45Q105 828 83 828q-50 0-50-76 0-60 28.5-106t73-71.5Q179 549 227 549q41 0 66.5 13t43.5 32q19 19 34 49.5t24 55.5q7 22 11.5 28t9.5 6q1 0 4-1.5t3-7.5q0-3-1.5-13t-8.5-31q-6-17-17.5-43t-32-51.5q-20.5-25.5-53-43T230 525q-71 0-120.5 33.5t-75 85.5Q9 696 9 753q0 25 6.5 48t23 38Q55 854 83 854zm132-270q4-1 8-1h16l9 1v-14q-5-1-10.5-1H215zM83 808q12 0 18-16t8-36q2-20 2-34 0-51 21-87.5t64-47.5v-15q-37 8-70 32t-53 62q-20 38-20 86 0 56 30 56zm149 186q17 0 22.5-10t4.5-27.5q-1-17.5-1-41.5 0-11-1-50.5t-3-96q-2-56.5-4-118.5-7-3-18-3t-20 3q-2 62-3.5 118t-2.5 96q-1 40-1 51 0 24-1 41.5t4.5 27.5q5.5 10 23.5 10z" fill="currentColor"/></svg>