<svg xmlns="http://www.w3.org/2000/svg" viewBox="0 0 176.2 595.1"><path d="M75.7 0v27.6c-25 6-54.3 38.3-54.3 90.1 0 40.9 27 80 48.9 87.9 4.8.7.8 81.5 0 116.7-31.2 7-61.3 29-69.1 61.2-2.2 9.2-2.4 21.5 7.2 26.7 14.7 9.4 33.1 1.8 45.1-8.5 5.1-2.4 13.3-15.1 15.3-12.9l-4.5 206.4h61.2c-1.9-65.5-3.9-130.9-5.8-196.4 8.4 28.2 13.9 57.4 15.9 86.8l18.9-.6c-2.4-36.1-9.8-72-21.2-106.3-3.3-11.7-10.5-22.2-15.1-32.8-1.4-46.3-2.7-92.6-4.1-138.9 34.1-9.1 62-58.6 62-88.9 0-61.3-25.8-85.1-48.1-91.1V0H75.7zm18.9 18.9h14.6v26.5c9.6-.3 20.4-.4 27.2 7.8 15.2 16.8 20.1 40.5 20.4 62.5.2 20.5-22.3 72.6-52.8 72.6-9.3-.4-18.8 1-28-.8-15.7-7-35.4-39.5-35.4-66.8C40.6 76.3 58.1 55 76.3 47c5.9-2.4 12.2-1.5 18.4-1.7V18.9zm-3 196.7l9.9 202.6-14.3-.7 4.4-201.9zM67.8 342.4c2.9 11.2-2.9 21.2-10.6 29-9.2 10.4-19.6 22.3-34 24.4-9.8-4.2.9-19.4 5-26.2 9.5-13.4 24.1-22.5 39.6-27.2zm18.9 94l15.3.8.5 15.3-16.1.7.3-16.8zm16.3 34.9l.4 11.8-17.7.7.3-11.8 17-.7zm.9 30.8l.5 17.5-19.6 1.6.4-18.3 18.7-.8zm1.1 36.4l1.1 37.7H83.6l.8-36.1 20.6-1.6z"/></svg>