<svg xmlns="http://www.w3.org/2000/svg" viewBox="0 0 436.8 596.7"><path d="M195.3 0v27.6c-25 6-54.3 38.3-54.3 90.1 0 40.9 27 80 48.9 87.9l-.1 6.2c-34.1 1.4-66.9 2.5-94.1-.4 5-17.8 14.6-33.4 12.4-52-1.8-14.7-17.8-20.2-30-23.5-11.7-3.2-19.6-14.5-32.2-13.8-13.9.7-27.9 5-40 12-12.6 7.3-2.5 21.5 6 27.8 9.4 6.9 20.1 13.2 32.4 10.5 8-1.8 25.7-6 26.5-.4 2.2 17.1-16 37.8-8.6 57.6 6 16.2 19.8 30.9 38.2 32.2 29.7 2.1 59.2-.2 88.7-2.8l-5.2 336.2h61.2l-10-339.6c5.5-.3 11.1-.5 16.6-.6 84.1-1.4 126.2 42 135.7 68.9 9 25.6 15.5 52.4 13.3 79.6-2.8 32.8-7.6 65.8-4.9 98.6 2.4 28.9 12.4 56.9 19.3 85 3.4 13.7 20 13.1 19.4-1.9-1.4-36.1-9.7-67-8.8-100.3.8-28.6 8.1-56.2 9.8-84.9 2-33.3 11.2-145.5-79.6-178.1-25.7-9.3-58.3-11.9-92.8-11.9-9.6 0-19.5.2-29.3.5l-.1-3.3c34.1-9.1 62-58.6 62-88.9 0-61.3-25.8-85.1-48.1-91.1V0h-52.3zm18.9 18.9h14.6v26.5c9.6-.3 20.4-.4 27.2 7.8 15.2 16.8 20.1 40.5 20.4 62.5.2 20.4-22.3 72.6-52.8 72.6-9.3-.4-18.8 1-28-.8-15.7-7-35.4-39.4-35.4-66.8 0-44.4 17.5-65.6 35.7-73.7 5.9-2.4 12.2-1.5 18.4-1.7V18.9zM45.9 137.5c9.6 2.2 17.2 10.3 27.1 13.1 8.4 2.3 22.2 5.4 19.3 17.7-3.8 16.4-14.9 32.3-11.4 49.4 2.5 12.5 18.4 11.7 28.4 11.6 29.9-.2 55.9-.9 80.3-1.6l-.2 15.2c-39.9 2.6-77 5.7-93 2.7-12.7-2.4-21.7-18-20.6-31 1.5-17.2 15-33.1 9.9-50.5-3.9-13.2-20.9-8.9-31.5-8.3-11.1.6-21.7 3.5-31.6-5.2-11.2-10 21.7-13.5 23.3-13.1zm-2.3 4.2c-5.3-.2-19 6.4-6.4 6.5 4.5 0 20.7 2.9 10.6-4-1.3-1-2.5-2.4-4.2-2.5zm167.6 73.9l9.9 202.6-14.3-.7 4.4-201.9zm52.7 10.6c65.2.1 104.4 7.4 130.5 42.7 43.6 59 28.7 118 17.8 192.5 3-44 17.6-113.2-27.6-173-19.1-25.3-51.5-35.9-81.2-43.4-17.3-4.4-42.1-5.1-68.7-4.4l-.4-14.1c10.4-.2 20.3-.4 29.6-.3zm-57.6 210.1l15.3.8.5 15.3-16.1.7.3-16.8zm16.3 35l.4 11.8-17.7.7.3-11.8 17-.7zm.9 30.7l.5 17.5-19.6 1.6.4-18.3 18.7-.8zm1.1 36.4l1.1 37.7h-22.5l.8-36.1 20.6-1.6z"/></svg>