<svg xmlns="http://www.w3.org/2000/svg" viewBox="-10 0 789 1014"><path d="M461 1014q-38 0-48-27t-10-72v-19.5l1-32.5 19-429h-10q-30 0-67 3t-74 7.5q-37 4.5-67 7.5t-45 3q-25 0-39.5-21T106 376q0-14 2-34t7-38q-11 3-25.5 6T60 313q-11 0-28-3T2.5 297Q-10 287-10 267q0-25 18.5-40T52 205.5q25-6.5 45-6.5 38 0 65 12.5t27 43.5q0 21-6 37.5t-6 31.5q0 23 7 30t18 7q14 0 46.5-5.5t74.5-12q42-6.5 84-10.5-24-23-48.5-74T334 135q0-31 12.5-50T377 56q18-10 36-15 0-5 3.5-14.5t14-18Q441 0 461 0t29.5 8q9.5 8 13 18t4.5 15q18 5 36.5 15T575 85q12 19 12 50 0 73-24.5 124T514 333q63 5 113 27t79.5 68Q736 474 736 555q0 47-12 95.5T712 758q0 78 18.5 133t48.5 99l-32 24q-52-25-84.5-83T630 796q0-18 4-46.5t8-58.5q4-30 4-52 0-101-34.5-145.5T498 438l19 425q1 19 1 32.5V915q0 45-9.5 72t-47.5 27zM434 37q12-1 20-1.5t7-.5q4 0 11 .5t15 1.5q-2-6-7-12t-19-6q-14 0-20 6t-7 12zm11 294h30q14 0 36-24t39-67.5Q567 196 567 135q0-32-16-48.5t-36.5-23Q494 57 477.5 56L461 55l-16.5 1-37.5 7.5q-37.5 7.5-37 23T354 135q0 61 16.5 104.5T409 307q22 24 36 24zM164 436q22 0 62.5-5.5t89.5-11q49-5.5 97-5.5h11l3-62q-42 3-88.5 10t-84 13q-37.5 6-51.5 6-25 0-35.5-14.5T157 324q0-7 3-21l6-28 3-20q0-13-17.5-25T97 218q-37 0-62 14.5T10 268q0 14 18.5 19.5T60 293q14 0 33.5-3.5T127 281l10 17q-11 43-11 79 0 23 8.5 41t29.5 18zM92 260q-16 0-16-14 0-16 16-16 15 0 15 16 0 14-15 14zm369 734q26 0 32-21.5t6-57.5q0-12-1.5-51.5t-4-95q-2.5-55.5-5-118.5T483 527.5q-3-59.5-5.5-106.5t-3.5-70h-27q-1 22-3.5 68.5t-5.5 106q-3 59.5-5.5 122.5t-5 119.5q-2.5 56.5-4 96T422 915q0 36 6 57.5t33 21.5zm285-3l6-5q-35-56-47-109t-12-115q0-61 11.5-113t11.5-94q0-73-27.5-116.5T611 375q-50-20-117-23l3 67q88 11 128 59.5T665 638q0 24-4 54.5t-7.5 59.5q-3.5 29-3.5 48 0 58 24.5 110t71.5 81z" fill="currentColor"/></svg>