<svg xmlns="http://www.w3.org/2000/svg" viewBox="0 0 473.6 623.4"><path d="M47 130.2c-5.9 0-20.2 6.9-6.7 7 2.2 0 7.1.7 10.7.7 4.3 0 6.8-.9.9-5-1.4-1-2.7-2.6-4.6-2.6-.1-.1-.2-.1-.3-.1zM277.9 18.9v26.5c2.8-.1 5.4-.1 7.6-.1 5.4 0 9.3.4 12.6 1.8 25.5 9.1 27.3 48.4 26.3 70.3-1.3 30.2-16.4 65.3-39.2 71-4.5 1.3-9.5 2.1-14.5 2.1-5.4 0-10.8-.9-15.5-2.8-15.7-7-35.4-42.4-35.4-69.8 0-44.4 6.9-62.7 25.1-70.7 3.6-1.5 7.4-1.7 11.2-1.7h7.1V18.9h14.7zM49.3 125.5h.5c10.4 2.4 18.6 11.2 29.4 14.2 9.1 2.5 24 5.9 20.9 19.2-4.2 17.8-16.1 35-12.4 53.6 2.3 11.6 15.3 12.7 25.8 12.7h5c51-.4 94.2-2.1 130.9-2.9l-.2 15.3c-45 1.5-93.8 6.5-124.1 6.5-8.5 0-15.5-.4-20.6-1.4-13.7-2.7-23.5-19.6-22.3-33.6 1.6-18.6 16.3-35.9 10.8-54.7-2.5-8.4-9.7-10.2-17.7-10.2-5.7 0-11.7 1-16.5 1.2-5.2.3-10.3 1-15.2 1-6.6 0-12.9-1.3-19-6.7-11.7-10.3 20-14.2 24.7-14.2zM66 267.2c-4.7 0-16.1 5-5.4 5.1 1.8 0 5.6.5 8.5.5 3.4 0 5.4-.7.7-3.6-1.1-.7-2.2-1.9-3.6-1.9-.1-.1-.2-.1-.2-.1zm181.6 77.2zM67.8 263.9h.4c8.3 1.7 14.8 8.1 23.4 10.2 7.2 1.8 19.1 4.3 16.6 13.9-3.3 12.8-12.8 25.2-9.8 38.7 1.9 8.4 12.2 9.1 20.5 9.1h3.9c50.7-.4 91.6-2.2 125-2.4l-.2 11.1h-2.4c-40.1 0-88.8 5-117.1 5-6.7 0-12.3-.3-16.4-1-10.9-1.9-18.7-14.1-17.7-24.3 1.3-13.4 12.9-25.9 8.6-39.5-1.9-6-7.7-7.4-14-7.4-4.5 0-9.3.7-13.1.9-4.1.2-8.2.7-12.1.7-5.2 0-10.3-.9-15.1-4.8-9.5-7.4 15.8-10.2 19.5-10.2zm203.9-53.5l8.1 225.4h-14.1l6-225.4zM266 446.3l15.3.1.5 16.6h-16.1l.3-16.7zm27.9-224.6c66.2.7 106.4 9.3 133.7 46.3 47.3 64 31.1 128 19.3 208.7C450.2 429 466 354 417 289.1c-20.7-27.4-55.8-38.9-88.1-47-9.7-2.4-21.5-3.8-34.6-4.5l-.4-15.9zM282.4 482l.3 11.8H265l.3-11.8h17.1zm14.7-147.1c32.6 3.2 54.9 11.7 71.3 31.8 37.6 46.2 24.7 92.4 15.4 150.7 2.6-34.4 15.2-88.6-23.8-135.5-14.9-17.9-39-26.4-62.5-32.2l-.4-14.8zm-32.5 177.9l18.7.3.5 17.8-19.6.2.4-18.3zm19.7 37l1.1 36.4H263l.8-36.1 20.5-.3zM244.5 0v27.6c-25 6-45.2 25.4-43.7 90.1.9 39.3 25 77 46.3 86.8-33.8 1.1-68 3.2-98.9 3.2-15.8 0-30.7-.5-44.3-2 5.4-19.3 15.8-36.2 13.4-56.3-1.9-15.9-19.3-21.9-32.6-25.5-12.4-3.4-20.7-15-33.8-15h-1.1c-15.1.7-30.3 5.4-43.4 13-13.7 7.9-2.7 23.3 6.6 30.1 8.5 6.2 18 12 28.8 12 2.1 0 4.2-.2 6.3-.7 5.5-1.2 15.1-3.5 21.7-3.5 3.9 0 6.7.8 7 3 2.4 18.5-17.3 41-9.4 62.4 6.5 17.6 21.5 33.5 41.5 34.9 8.7.6 17.5.9 26.2.9 38 0 75.9-5.1 113.9-7.3l-1 66.6c-34.1.3-70 2.8-101.6 2.8-12.5 0-24.4-.4-35.2-1.5 4.3-14 12.6-26.1 10.6-40.7-1.5-11.5-15.4-15.8-25.9-18.4-9.8-2.4-16.5-10.9-26.9-10.9h-.9c-12 .5-24.1 3.9-34.5 9.4-10.9 5.7-2.1 16.8 5.2 21.8 6.8 4.5 14.4 8.7 22.9 8.7 1.6 0 3.3-.2 5-.5 4.3-.9 12-2.5 17.2-2.5 3.1 0 5.3.6 5.6 2.2 1.9 13.4-13.8 29.6-7.4 45.1C87.3 348.5 99.2 360 115 361c7 .5 13.9.6 20.8.6 36.6 0 73-5.4 109.6-5.9h1.9L243.5 605h61.2l-7-243c38.1 10.6 58.6 32.5 64.5 47.7 7.8 20 13.4 41 11.4 62.3-2.4 25.6-6.5 51.5-4.2 77.2 2 22.6 10.7 44.6 16.6 66.5 1.4 5.1 5.4 7.7 9.1 7.7 4.1 0 7.9-3.1 7.6-9.2-1.2-28.3-8.4-52.5-7.6-78.5.7-22.4 7-44 8.5-66.5 1.7-26.1 9.7-113.9-68.6-139.5-11.5-3.7-24.5-6.1-38.5-7.5l-2-68.8c76.7 5.6 115.9 47.4 125.3 74.1 9.8 27.7 16.9 56.8 14.4 86.3-3 35.5-8.2 71.3-5.3 106.9 2.6 31.3 13.5 61.7 20.9 92.1 1.7 7.1 6.8 10.7 11.5 10.7 5.1 0 9.9-4.2 9.6-12.7-1.5-39.2-10.6-72.6-9.5-108.8.9-31 8.8-60.9 10.7-92.1 2.1-36.1 12.2-157.7-86.3-193.1-23.9-8.6-53.3-11.9-84.8-12.7 28.8-13.9 42-58.2 42.8-86C345.9 52.7 319 33 296.7 27V0h-52.2z"/></svg>