<svg xmlns="http://www.w3.org/2000/svg" viewBox="-10 0 908 1023"><path d="M865 1023q-35-16-61-58.5T763.5 868Q749 814 749 762q0-18 4-46.5t7.5-58.5q3.5-30 3.5-52 0-56-25.5-90.5t-67-53.5q-41.5-19-91-27t-97.5-9l6 141q64 4 115.5 22.5t82 59Q717 688 717 758q0 24-1.5 60.5t9 82.5q10.5 46 46.5 99l-33 22q-41-31-63-62.5T643.5 899q-9.5-29-11-51.5T631 812q0-56-13.5-88T574 677.5Q544 663 494 659l9 204q1 19 1 32.5V915q0 45-9.5 72t-47.5 27q-38 0-48-27t-10-72q0-6 .5-19.5T391 863l9-207q-39 1-85.5 6t-87 10q-40.5 5-59.5 5-24 0-45-16.5T102 609q0-13 1.5-36t6.5-40q-11 2-24 5t-27 3q-11 0-27-3.5T4 524q-12-10-12-29 0-23 16.5-37.5T49 437q24-6 45-6 35 0 61 15t26 44q0 21-5.5 33.5T170 550q0 22 11 33t28 11q13 0 44-5t71-11q40-6 80-10l6-144q-91 1-154 5.5t-91 4.5q-26 0-47-15.5T97 366q0-14 2-30t8-33q-12 3-22 4.5T60 309q-11 0-28-3.5T2.5 292Q-10 282-10 262q0-25 16-40t39-21.5q23-6.5 43-6.5 37 0 64 14t27 46q0 21-8 39t-8 39q0 17 7.5 23t18.5 6q14 0 44.5-5t72-11.5Q347 338 394 334q-25-22-49.5-74T320 135q0-31 12.5-50T363 56q18-10 36-15 0-5 4-14.5t14-18Q427 0 447 0t29.5 8q9.5 8 13 18t4.5 15q18 5 36.5 15T561 85q12 19 12 50 0 71-23 122t-47 75q42 0 90 4t94.5 14.5Q734 361 772 382t60.5 55q22.5 34 22.5 84 0 47-12 95.5T831 724q0 52 8.5 104.5T863 926q15 45 35 74zM420 37q12-1 20-1.5t7-.5q4 0 11 .5t16 1.5q-2-6-7.5-12T447 19q-14 0-20 6t-7 12zm12 294h30q15 0 36.5-24t38.5-67.5Q554 196 554 135q0-32-16-48.5t-37-23Q480 57 464 56t-17-1l-16.5 1-37.5 7.5q-37.5 7.5-37 23T340 135q0 61 16.5 104.5T395 307q22 24 37 24zm-263 83q31 0 91.5-4t150.5-6l3-51q-53 3-99 9.5T236 375q-33 6-46 6-25 0-35.5-13.5T144 332q0-11 4-27t8-30.5q4-14.5 4-20.5 0-14-17.5-27.5T88 213q-37 0-57.5 14.5T10 263q0 14 18.5 20t31.5 6q14 0 29.5-2.5T118 279l11 17q-7 24-9.5 38t-2.5 33q0 23 15.5 35t36.5 12zM76 257q-16 0-16-14 0-15 16-15 15 0 15 15 0 14-15 14zm371 737q27 0 32.5-21.5T485 915q0-12-1.5-51.5t-4-95q-2.5-55.5-5-118.5T469 527.5q-3-59.5-5-106.5t-3-70h-28q-1 22-3 68.5t-5 106q-3 59.5-5.5 122.5t-5 119.5q-2.5 56.5-4 96T409 915q0 36 5.5 57.5T447 994zm417 6l6-4q-23-38-36-84.5t-18-94q-5-47.5-5-89.5 0-61 12-113t12-94q0-46-23-76.5t-61.5-49Q712 377 665 367.5t-95-13q-48-3.5-90-3.5l2 54q54 1 107.5 9.5t97 29.5q43.5 21 70 59.5T783 604q0 24-4 54.5t-7.5 59.5q-3.5 29-3.5 48 0 39 11 86.5t32.5 88Q833 981 864 1000zM172 657q20 0 57.5-5t82.5-9.5q45-4.5 89-5.5l2-49q-38 4-78.5 10T253 609q-31 5-43 5-32 0-45.5-18.5T151 550q0-10 5.5-30.5T162 490q0-12-16.5-26T94 450q-35 0-58.5 13T12 496q0 14 16.5 19.5T59 521q14 0 32-3.5t31-8.5l10 16q-6 23-8.5 44.5T121 610q0 22 16 34.5t35 12.5zM81 491q-15 0-15-14t15-14q14 0 14 14t-14 14zm657 509l7-4q-33-45-42-90t-7-80.5q2-35.5 2-53.5 0-70-25.5-109T600 606.5Q553 589 490 586l3 54q68 6 101.5 25t44.5 55q11 36 11 91 0 16 3.5 45t21.5 66.5q18 37.5 63 77.5z" fill="currentColor"/></svg>