<svg xmlns="http://www.w3.org/2000/svg" viewBox="-10 0 1060 416"><path d="M1019 416q-16 0-38-9.5T937 383q-2-1-26-16t-64-39q-40-24-90-52t-103.5-55q-53.5-27-104-49.5T457 138q-10 20-29.5 46T380 234.5Q352 259 318 275t-72 16q-45 0-76.5-16t-52-41.5Q97 208 85 180t-17-52.5Q63 103 61 89q-6 1-12 1.5T35 91Q14 91 2 80t-12-28q0-26 34.5-39T136 0q114 0 225.5 28.5T579 103q106 46 202 100.5T959 309q39 25 65 45t26 37q0 16-11.5 20.5T1019 416zm-1-20q12 0 12-5 0-9-20.5-24.5T948 326q-84-52-177-106t-195.5-99.5Q473 75 363 47T136 19q-66 0-96.5 8T9 52q0 6 7 13t19 7q4 0 11.5-.5T60 69q6-7 22.5-10.5T146 55q42 0 91.5 5.5T333 75q46 9 81 20.5t48 24.5q57 17 122.5 46T713 229q63 34 115.5 65t85 51.5Q946 366 948 367q19 13 38.5 21t31.5 8zM246 271q35 0 66.5-15t57.5-38q26-23 44.5-47t25.5-42q-25-13-63-23t-80.5-17q-42.5-7-82-10.5T146 75q-53 0-65 4 0 2 2 19.5t9.5 43Q100 167 115 193l2 4q18 30 49 52t80 22z" fill="currentColor"/></svg>