<svg xmlns="http://www.w3.org/2000/svg" viewBox="0 0 270.9 594.6"><path d="M231.5 149.2V35.7c-25.4 17.4-48.2 27.2-68.5 29.4-20.1 2.2-38.4 2.2-54.9 0-16.8-2.2-38-12-63.8-29.4-9.9 7.9-17 19.4-21.2 34.4-4.2 14.8-4.2 29.7 0 44.6 4.2 15 11.2 26.5 21.2 34.4 25.8-17.4 47.1-27.2 63.8-29.4 16.5-2.4 34.8-2.4 54.9 0 20.3 2.2 43.1 12 68.5 29.5zM256 445.5l14.9 149.2h-55.2l15.9-149.2V172c-25.4-19.8-48.2-31.4-68.5-34.7-20.1-3.5-39.7-3.5-58.9 0-19 3.3-38.9 15.2-59.9 35.7-19.8-6-33-20.9-39.4-45-6.6-23.8-6.6-47.6 0-71.4C11.3 32.8 24.4 17.9 44.3 12c20.9 20.3 40.9 32.2 59.9 35.7 19.2 3.5 38.8 3.5 58.9 0 20.3-3.5 43.1-15.2 68.5-35.1V8.3c0-5.5 4-8.3 11.9-8.3 8.4 0 12.6 2.8 12.6 8.3v437.2z"/></svg>