<svg xmlns="http://www.w3.org/2000/svg" viewBox="-10 0 426 1015"><path d="M361 1015q-22 0-38-16t-16-39q0-27 21-43V292q-7-7-25-18t-48-20.5q-30-9.5-73-9.5-47 0-80.5 13.5t-53.5 29Q28 302 23 307q-7-9-20-45t-13-95q0-59 13-95t20-45q5 5 25 20.5t53.5 29Q135 90 182 90q41 0 71-9t49-20.5Q321 49 328 43v-9q0-25 13.5-29.5T361 0q7 0 20.5 4.5T395 34v883q21 16 21 43 0 23-16 39t-39 16zm0-20q15 0 25.5-10t10.5-25q0-23-21-32V34q0-10-6-12.5t-9-2.5q-2 0-8 2.5T347 34v894q-21 9-21 32 0 15 10.5 25t24.5 10zM29 276q10-9 31-21t52-21.5q31-9.5 70-9.5 55 0 91.5 15.5T328 268V67q-18 13-54 28t-92 15q-39 0-70-9.5T60 79Q39 67 29 58q-5 12-12.5 39T9 167q0 43 7.5 70T29 276z" fill="currentColor"/></svg>