<svg xmlns="http://www.w3.org/2000/svg" viewBox="-10 0 236 1015"><path d="M108 1015q-12 0-27.5-6.5t-27-31.5Q42 952 42 898q0-43 7-86t7-92q0-14-4-46.5t-9.5-76Q37 554 30 507q-7-50-13.5-97.5T6 324.5Q2 287 2 270q0-47 12.5-74.5T71 168h3v-22h-84v-38q0-19 11-44.5T38 19Q64 0 108 0t70 19q26 19 37 44.5t11 44.5v38h-84v22h3q44 0 56.5 27.5T214 270q0 17-4 54.5t-10.5 85Q193 457 186 507q-7 47-12.5 90.5t-9.5 76q-4 32.5-4 46.5 0 35 3.5 59.5t7 51.5q3.5 27 3.5 67 0 54-11.5 79t-27 31.5Q120 1015 108 1015zM9 126h198v-18q0-16-9.5-36.5t-31-36Q145 20 108 20T49.5 35.5Q28 51 18.5 71.5T9 108zm85 42h28v-22H94zm14 827q8 0 19-5.5t19.5-26Q155 943 155 898q0-39-3.5-65.5t-7-52Q141 755 141 720q0-15 3.5-48.5t9.5-77q6-43.5 13-90.5 6-48 12.5-96t11-85.5Q195 285 195 270q0-37-7.5-59.5T144 188H72q-36 0-43.5 22.5T21 270q0 15 4.5 52.5t11 85.5Q43 456 49 504q7 47 13 90.5t9.5 77Q75 705 75 720q0 35-3.5 60.5t-7 52Q61 859 61 898q0 45 8.5 65.5t19.5 26q11 5.5 19 5.5z" fill="currentColor"/></svg>