<svg xmlns="http://www.w3.org/2000/svg" viewBox="0 0 132.4 594.4"><path d="M65.9 573.3c18 0 27-13.2 27-39.5 0-11.9-3.7-24.4-11.2-37.6 7.5-168.7 13.4-290.4 17.8-365.1-7.5-2.6-18.7-4-33.6-4s-26.1 1.3-33.6 4c4.8 74.7 10.8 196.4 17.8 365.1-7.5 13.2-11.2 25.7-11.2 37.6 0 26.3 9 39.5 27 39.5zm10.5-465.2V74.5h-21v33.6h21zM110 56.7c0-9.7-4-18.3-11.9-26-7.8-7.7-18.6-11.6-32.2-11.6-13.2 0-23.7 3.8-31.6 11.5-7.9 7.7-11.9 16.4-11.9 26H110zM65.9 0c20.6 0 36.9 6.3 48.8 18.8 11.9 12.5 17.8 31.1 17.8 55.7H94.2v33.6c9.7 1.3 18.7 4.4 27 9.2-6.2 106.3-10.3 186-12.5 239.2-2.2 53.2-3.5 99.7-4 139.7 7 14.5 10.5 30.1 10.5 46.8-1.8 34.3-18.2 51.4-49.4 51.4S18.4 577.3 17 543c0-16.7 3.3-32.3 9.9-46.8-.4-40-1.8-86.5-4-139.7-2.2-53.2-6.4-132.9-12.5-239.2 8.8-4.8 17.8-7.9 27-9.2V74.5H0c0-24.6 5.9-43.2 17.8-55.7S45.7 0 65.9 0z"/></svg>