<svg xmlns="http://www.w3.org/2000/svg" viewBox="0 0 169.4 594.4"><path d="M169.4 74.8h-57.5c-.9 18.7 11.9 59 38.3 120.8-3.4 14.1-6.4 34.6-8.9 61.7-2.6 27.1-4.2 50.2-4.8 69.3-.6 19.2-2.1 65.4-4.5 138.7-2.3 73.3-18.9 116.3-49.5 129.1-30.7-12.8-47.3-55.8-49.9-129.1-2.6-73.3-4-119.5-4.5-138.7-.4-19.2-2-42.3-4.8-69.3-2.8-27.1-5.6-47.6-8.6-61.7 26.4-61.8 39-102 37.7-120.8H0C0 25.8 27.5.9 82.4 0c58.4.9 87.4 25.8 87 74.8zm-42.2-28.1c0-12.8-14.9-19.2-44.7-19.2-31.1 0-46.7 6.4-46.7 19.2h91.4zm-7.7 131C105 155.1 96.3 120.8 93.3 74.8H71.6c-3 46-11.7 80.3-26.2 102.9h74.1zm0 35.1H45.4c5.1 24.3 8.4 83.5 9.9 177.7 1.5 94.2 10.5 152.7 27.2 175.8 16.2-23 25.1-81.6 26.8-175.8 1.7-94.2 5.1-153.4 10.2-177.7z"/></svg>