<svg xmlns="http://www.w3.org/2000/svg" viewBox="-10 0 344 1015"><path d="M162 1015q-52 0-52-114 0-6-1-32t-3-65q-2-39-5.5-82.5t-8-84.5Q88 596 81 566 56 457 40 394t-16-94q0-30 20-40.5T88 249h4q3-10 10-32t12.5-45q5.5-23 5.5-35 0-34-34-34-11 0-32.5 6T13 121q-19 6-23 8 5-28 25-57.5T71 21q36-21 91-21t91 21q36 21 56 50.5t25 57.5q-4-2-23-8t-40.5-12q-21.5-6-32.5-6-16 0-25.5 8.5T203 137q0 12 6 36t13 46q7 22 9 30h5q25 0 44.5 12t19.5 42q0 32-15.5 93T244 567q-7 31-12.5 72t-8.5 84.5q-3 43.5-5 81.5t-3 64q-1 26-1 32 0 114-52 114zm-49-766h97q-4-13-10-34.5T189 171q-5-22-5-34 0-27 16.5-40T238 84q12 0 30 4.5t33 9.5q-4-8-18-27t-43-35q-29-16-78-16T83.5 36Q54 52 40.5 71T23 98q15-5 32.5-9.5T86 84q20 0 37 13t17 40q0 12-5 34t-11.5 43.5Q117 236 113 249zm49 746q12 0 22.5-22t10.5-75q0-6 1-32.5t3.5-65.5q2.5-39 6-83t8.5-85q5-41 11-71 7-31 16-71t18-79q9-39 15-68t6-37q0-19-12-28.5t-32-9.5H88q-19 0-31.5 10T44 307q0 9 6 37.5T65 411q9 38 18 78t16 71q7 30 12 71.5t8.5 86q3.5 44.5 5.5 84t3 66q1 26.5 1 30.5 0 53 11 75t22 22z" fill="currentColor"/></svg>