<svg xmlns="http://www.w3.org/2000/svg" viewBox="0 0 587.4 95.3"><path d="M473.9 69.8l-12-51.5H124.8l-12 51.5c77.6-8 137.7-12 180.5-12 42.8 0 103 4 180.6 12zm21.1-4.9c23.5 9.4 40.2 9.8 50.1 1.1 9.9-8.7 15-23.9 15.5-45.5C560.2 6.8 564.4 0 573.3 0c9.4 0 14.1 8.2 14.1 24.7 0 17.4-2.6 32-7.8 43.7-9.9 23-38.1 31.3-84.6 24.7-15.5-6.6-82.7-12.2-201.7-16.9-118.9 4.7-185.9 10.3-201 16.9-47 6.6-75.2-1.6-84.6-24.7C2.6 56.7 0 42.1 0 24.7 0 8.2 4.5 0 13.4 0 22.8 0 27 6.8 26.1 20.5 27 42.1 32.3 57.2 42 65.9c9.6 8.7 26.4 8.3 50.4-1.1 7.1-8 12-29.6 14.8-64.9h372.3c1.4 35.4 6.6 57 15.5 65z"/></svg>