<svg xmlns="http://www.w3.org/2000/svg" viewBox="-10 0 805 152"><path d="M133 152q-46 0-78.5-20.5T8 95q-18-20-18-42 0-13 8.5-28T28 10q17 0 28 7t23 19q5 4 17.5 12.5T125 57q23 0 42-12.5T198 18q12-14 14-18h362q2 4 13.5 18T618 44.5Q637 57 660 57q16 0 28.5-8.5T706 36q13-12 24-19t27-7q21 0 29.5 15t8.5 28q0 22-18 42-14 16-46 36.5T652 152q-27 0-54.5-15.5T554 106H231q-4 5-17.5 16t-34 20.5Q159 152 133 152zm0-20q28 0 52.5-15.5T222 86h52V19h-51q-6 8-19.5 22T170 66q-20 11-45 11-22 0-37-10.5T66 50Q46 30 31 30q-12 0-17 8.5T9 53q0 13 14 29 13 14 41.5 32t68.5 18zm161-46h89V19h-89zm108 0h89V19h-89zm250 46q41 0 69.5-18T763 82q13-15 13-29 0-6-4.5-14.5T755 30q-10 0-18 5t-18 15q-6 6-21 16.5T660 77q-24 0-44-11t-34-24.5Q568 28 562 19h-51v67h52q13 15 37.5 30.5T652 132z" fill="currentColor"/></svg>