<svg xmlns="http://www.w3.org/2000/svg" viewBox="0 0 595.3 97.3"><path d="M203.3 0c-26.5 0-44.1 5.2-54.5 15.6-22.9 15.3-42.1 23.3-57.4 23.3-21.1 0-38.4-7.5-50.6-21.4-4.5-4-11.4-4.6-20.4-1.9C6.9 20.1.4 28.1 0 38.9.4 58.7 8.4 73 24.3 82.7c16 9.7 38.8 14.6 67.1 14.6 28.3 0 60.3-10.5 96.3-32.1h219.8c36.4 21.6 68.9 32.1 97.3 32.1 28.3 0 50.2-4.9 66.1-14.6 16-9.7 23.9-24 24.3-43.8-.4-10.8-6.9-18.8-20.4-23.3-9-2.7-16.5-2.1-21.4 1.9-12.1 13.9-28 21.4-48.6 21.4-15.3 0-34.5-8.1-57.4-23.3C436.6 5.2 418.1 0 392 0H203.3zm13.6 17.5h72v30.2h-61.3c-9-11.3-12-21.6-10.7-30.2zm90.5 0h71c1.8 8.5-2.2 18.9-11.7 30.2h-59.3V17.5zM34 36c16.2 13.9 35.4 21.4 57.4 21.4S135 49.9 156.6 36c4.5 2.7 5.6 7.8 2.9 14.6-18 18.4-40.7 27.2-68.1 27.2-35.5-.4-60.4-9.3-73-27.2C18 40.7 23.7 35.5 34 36zm404.7 0c21.6 13.9 44.1 21.4 66.1 21.4 22 0 41.2-7.5 57.4-21.4 10.3-.4 14.5 4.7 13.6 14.6-12.1 18-35.5 26.8-71 27.2-27.4 0-50.1-8.8-68.1-27.2-2.7-6.8-2.5-11.9 2-14.6z"/></svg>