<svg xmlns="http://www.w3.org/2000/svg" viewBox="-10 0 1062 1073"><path d="M26 1073q-20 0-28-4t-8-18q0-15 31-30.5t97-44.5q89-39 156-78t127-82.5Q461 772 526 721q34-26 75.5-61t80.5-75.5q39-40.5 65.5-82.5t29.5-81q-16-1-42-2t-54.5-5q-28.5-4-52-11T593 383q0-10 5.5-44.5T612 262q6-31 14-73.5t14.5-88Q647 55 649 14q12-5 32.5-9.5T732 0q24 0 49.5 5T821 16q-8 32-16 69.5t-15.5 75q-7.5 37.5-13 67.5t-6.5 47q41 14 84 16t77 2h59q23 0 42.5 6.5T1052 331q0 32-20 73t-53.5 85.5Q945 534 904.5 579t-82 85.5Q781 705 745 737t-61 50q-63 47-144 96t-185 95q-45 20-96 37t-98.5 30q-47.5 13-83.5 20.5t-51 7.5zm0-19q14 0 49.5-7.5t82-20.5q46.5-13 96-30t93.5-37q94-42 176.5-90T661 780q22-16 57-46.5t77-71q42-40.5 83.5-86T955 486q35-45 56-85t21-70q0-12-12-15t-29-3h-61q-37 0-89-4t-95-20q1-12 7-43.5t14-72q8-40.5 16-79T797 29q-8-4-26.5-6.5T732 20q-25 0-39 2t-24 5q-2 40-9 84.5T645 197q-8 41-14 71-8 41-12.5 69t-5.5 36q12 10 43 16.5t69 9q38 2.5 72 2.5 0 46-26.5 93.5T703 587q-41 45-85 83.5T538 737q-65 50-125 93.5t-128 83Q217 953 126 993q-61 26-89 39.5T9 1051q0 3 17 3z" fill="currentColor"/></svg>