<svg xmlns="http://www.w3.org/2000/svg" viewBox="0 0 596.5 533.8"><path d="M346.9 0c6.9 62.8-8.5 124.2-27 183.7 37.1-7 69.8-5.9 106.3 4.4 12.6 4.5 22.4 10.5 28.1 17.2 5.7 6.7 7.9 13.4 5.9 22.8-15.4 73.4-87.1 169.6-167.7 209.4C259 454 197.8 473.6 140.9 487c-33.1 7.7-64.7 11.2-89 13.8-15.8 3-51.5-1.3-51.8 21 4.7 14.2 30.7 12 42.4 11.9 23.6-.2 56.4-2.9 91.9-8.7 74.8-12.2 164.2-36.4 214.6-67.6 119.9-74.7 208.1-182 247.5-318.5-67.9 14.6-135 14.3-201.2-6.6-1.6-43.1 9.9-82.9 24.8-122.7-26.9 2.7-47.9-1.7-73.2-9.6zm19.4 24.3c9.7 2.4 18.1 3.3 28.2 3.5-12.9 37.5-18.9 76.7-16.4 116.3 63.2 29.7 126.2 24.8 193.2 16.8C530 289.2 438.7 380.7 339.6 442.2c-45.7 28.4-134.8 53.2-208.1 65.2-1.4.2-2.7.4-4.1.6 5.8-1.1 11.6-2.3 17.5-3.7 57.9-13.6 119.3-33 155.5-50.9 86.9-42.9 160.3-140.7 177.2-221.7 3-14.3-1.2-27.9-9.8-38-8.6-10.1-21.2-17.2-35.7-22.4-25.2-8.9-56.9-11.9-87.3-9 14-47.2 23.1-91.6 21.5-138z"/></svg>