<svg xmlns="http://www.w3.org/2000/svg" viewBox="-10 0 1181 963"><path d="M882 653q-71 0-131.5-12t-102-26Q607 601 594 596V265q13-5 54.5-19.5t102.5-28Q812 204 882 204h6q-19-11-44-30.5T801 132q-25-32-37.5-64T748 11l17-11q24 12 57 36t53 49q25 32 37.5 63.5T928 206q61 4 112 17t85.5 25.5Q1160 261 1171 265v331q-12 5-54 19t-103 26q-61 12-132 12zM742 217q-23-12-56-35.5T632 132q-24-32-36.5-64T580 11l17-11q23 12 56.5 36T707 85q25 32 37.5 63.5T759 206zm337 0q-23-12-56.5-35.5T969 132q-24-32-37-64t-15-57l17-11q23 12 56.5 36t53.5 49q25 32 37.5 63.5T1096 206zm-343-24q-2-20-12.5-42.5T690 99q-22-29-46-46.5T603 24q2 20 13 43t33 51q27 34 49.5 49t37.5 26zm169 0q-3-20-13.5-42.5T858 99q-22-29-45.5-46.5T772 24q3 39 45 94 27 34 50 49t38 26zm168 0q-2-20-13-42.5T1027 99q-22-29-46-46.5T940 24q2 20 12.5 43t33.5 51q27 34 49.5 49t37.5 26zM871 629V227q-60 1-112 12t-89 24q-37 13-52 19v297q18 7 56 18.5t88.5 21Q813 628 871 629zm23 0q59-1 110.5-10.5t89-21Q1131 586 1148 580V282q-16-6-53-19t-88.5-24Q955 228 894 227zm-359-68q-29-5-72-18.5T390 509q-37-25-61.5-54T293 400l14-18q20 3 46.5 10t53 18q26.5 11 46.5 25 38 25 62 54t34 55zm-14-23q-10-20-29-40t-52-43q-34-23-65-33t-53-16q9 20 28 40t53 43q40 27 69 35t49 14zm-88 158q-19-4-45-11t-52.5-18Q309 656 289 643q-38-25-62-54t-35-55l14-18q29 5 72 19t73 34q38 25 62 54.5t35 55.5zm-13-24q-10-20-29-40t-53-43q-33-23-64-33t-53-17q9 21 28 41t52 43q40 27 70 35t49 14zm-88 157q-19-3-45-10t-52.5-18Q208 790 188 777q-37-25-61.5-54T91 668l14-18q29 4 72 18t73 35q37 25 61.5 54t35.5 55zm-14-23q-9-20-28-40t-53-43q-33-23-64-33t-53-16q9 20 28 40t52 43q41 27 70 35t48 14zm-87 157q-19-3-45-10t-52.5-18Q107 924 87 911q-38-26-62-55t-35-54l14-18q29 4 72 18t73 35q38 25 62 54t35 55zm-14-23q-9-20-28-40.5T136 856q-33-22-64-32.5T19 807q9 20 28 40.5T99 891q40 27 69 35t49 14z" fill="currentColor"/></svg>