<svg xmlns="http://www.w3.org/2000/svg" viewBox="0 0 578.1 516.1"><path d="M295.3 185.2V352c37.1 13 74.6 21.1 112.6 24.3V160.1c-38 3.3-75.6 11.6-112.6 25.1zm253.6 0c-37.1-13.4-74.6-21.8-112.6-25v216.1c38-3.2 75.5-11.3 112.6-24.3V185.2zm-126.5-53.6c47.3 0 93.3 9.5 138.3 28.5 11.6 3.7 17.4 14.4 17.4 32v152.2c0 17.6-6 28.3-18.1 32-44.5 19.5-90.3 29.2-137.6 29.2h-.7c-47.3 0-93.3-9.7-138.3-29.2-11.6-3.7-17.4-14.4-17.4-32V192.1c0-17.6 5.8-28.3 17.4-32 44.9-19 91-28.5 138.3-28.5h.7zm-275.1 91.1c15.3 2.8 31 14.1 47.3 34 16.2 19.9 23.9 37.8 22.9 53.5-1.4 8.8-6.5 13.2-15.3 13.2-15.8-.9-32.3-11-49.7-30.2-17.4-19.2-26.1-36.7-26.1-52.5 1.4-12.5 8.4-18.5 20.9-18zm.7 22.2c-2.3 10.7 4.1 23.9 19.1 39.6 15.1 15.8 26.1 22.9 33 21.5 2.8-6.9-2.5-19.1-16-36.5-13.4-17.3-25.5-25.5-36.1-24.6zm-63.3 51.4c15.8-1.4 33.9 5.4 54.5 20.5s32.3 30.5 35.1 46.2c.9 9.3-3 15.1-11.8 17.4-15.3 2.8-33.7-2.9-55.2-17s-34.4-28.8-38.6-44.1c-1.8-12.5 3.5-20.2 16-23zm5.6 20.9c.5 11.1 10 22.5 28.5 34 18.5 11.6 31.3 15.8 38.2 12.5.9-7.9-7.3-18.4-24.7-31.6-17.3-13.2-31.4-18.2-42-14.9zm-52.8 59c15.3-4.2 34.4-.5 57.3 11.1s37.2 24.8 42.7 39.6c2.3 8.8-.5 15.1-8.3 18.8-14.8 5.6-34 3.2-57.7-6.9-23.6-10.2-38.9-22.5-45.9-36.8-3.6-12.6.3-21.1 11.9-25.8zm9.7 19.5c2.3 11.1 13.5 20.7 33.7 28.8 20.2 8.1 33.2 10.1 39.3 5.9-.5-7.9-10.4-16.9-29.9-27.1-19.5-10.1-33.8-12.7-43.1-7.6zm-35.4 54.2c14.8-5.1 34.2-2.9 58 6.6 23.9 9.5 39 21.4 45.5 35.8 3.7 8.3 1.6 14.8-6.3 19.5-14.4 6.5-33.7 5.7-58-2.4-24.3-8.1-40.7-19.1-49-33-4.6-11.7-1.3-20.5 9.8-26.5zm11.1 18.8c3.2 10.7 15.3 19.3 36.1 26.1 20.8 6.7 34.3 7.5 40.3 2.4-1.4-7.9-12.2-16-32.3-24.3-20.1-8.4-34.8-9.8-44.1-4.2zM310.6 2.4c13.4 8.3 23.9 24.8 31.3 49.3 7.4 24.6 7.6 43.8.7 57.7-4.6 8.3-11.1 10.7-19.5 6.9-13.9-6.9-25.4-22.5-34.4-46.6s-10.5-43.5-4.5-58.4c6-11 14.8-14 26.4-8.9zm-7.7 20.8c-6 8.8-5.1 23.4 2.8 43.8s15.5 31.3 22.9 32.7c5.1-5.6 4.6-18.9-1.4-40-6-21-14.1-33.2-24.3-36.5zM408.5 3.1c13 7.9 23.3 24.2 30.9 49 7.6 24.8 7.8 43.9.3 57.3-4.2 8.3-10.4 10.9-18.8 7.6-14.4-7.4-25.9-23.2-34.7-47.3-8.8-24.1-10.4-43.5-4.9-58.4 6.6-11 15.7-13.8 27.2-8.2zm-8.3 20.1c-6 8.8-5.1 23.5 2.8 44.1 7.9 20.6 15.5 31.4 22.9 32.3 5.1-5.6 4.6-18.9-1.4-40-6-20.9-14.1-33.1-24.3-36.4zM505.8 3.1c13.4 8.3 23.9 24.8 31.3 49.3 7.4 24.6 7.6 43.8.7 57.7-4.6 8.3-11.1 10.7-19.5 6.9-13.9-6.9-25.4-22.5-34.4-46.6s-10.5-43.5-4.5-58.4c6-11 14.8-14 26.4-8.9zm-7.6 20.1c-6.5 9.3-5.7 24.1 2.4 44.5s15.9 31.3 23.3 32.7c5.1-6 4.6-19.5-1.4-40.3S508.4 27 498.2 23.2z"/></svg>