<svg xmlns="http://www.w3.org/2000/svg" viewBox="0 0 479.3 595.3"><path d="M386.7 20.8l71.8 43.7-174 205.4L386.7 20.8zm-7-20.8L267.6 273.2c-30-4.9-54.5-7.3-73.4-7.3-7.1 0-13.3.3-18.9 1-20.1 2.4-33.8 7.2-41.3 14.2C126.7 287.9 82.1 335.9.1 425c-.4 5.7 1.8 8.6 6.6 8.6.7 0 1.4-.1 2.3-.3 80.7-87.7 124.5-134.9 131.3-141.5 7.1-6.6 19.3-11.1 36.7-13.6 7.5-1.1 16.2-1.7 26.1-1.7 13.4 0 29.2 1 47.3 3l-2 6.3c-38.1 6-63.5 12-76.1 18.2-12.8 6.4-57.7 55.2-134.6 146.5-.2 4.9 1.9 7.3 6.3 7.3 1.1 0 2.2-.1 3.3-.3 72.8-85.8 116-132.9 129.6-141.5 13.7-8.4 37.2-14.9 70.4-19.5l-.7 6.9c-21.6 7.7-39.1 16.6-52.6 26.8-13.4 10.4-50.6 58.9-111.4 145.5-.4 5.3 1.5 7.9 6 7.9.9 0 1.9-.1 3-.3 50.7-71.9 83.8-116.2 99.2-132.9 15.2-16.5 33.8-28.6 55.9-36l2.3 1L132.3 507c1.1 4.9 3.9 7.3 8.3 7.3 1.1 0 2.2-.1 3.3-.3l116.7-191.8 2.3 2c3.1 22.3.7 44.2-7.3 65.8-7.7 21.4-31.7 71.1-72.1 149.2 1.1 4.2 3.1 6.3 6 6.3 1.5 0 3.3-.6 5.3-1.7 48.5-94.1 74.3-149.7 77.4-166.7 3.1-16.8 3-36-.3-57.9l6.3-4.3c11 32 15.9 55.9 14.6 71.8-1.3 15.9-23.2 75.7-65.5 179.6 1.1 4.6 3 6.9 5.6 6.9 1.5 0 3.2-.6 5-1.7 45.4-110.2 68-172.4 67.8-186.5-.2-14.1-6.2-39.5-17.9-76.1l4.3-4.3c17.2 26 28.7 47.4 34.4 64.2 5.7 16.5 7.3 29.3 4.6 38.4-2.4 9-24 69.9-64.8 182.6 1.1 3.7 3 5.6 5.6 5.6 1.5 0 3.4-.7 5.6-2 41.2-113.3 63.2-174.9 65.8-184.9 2.9-9.9.8-24.4-6.3-43.3-6.8-19-22.9-45.2-48.3-78.7l190.6-226L379.7 0z"/></svg>