<svg xmlns="http://www.w3.org/2000/svg" viewBox="-10 0 888 1179"><path d="M643 993q-59 0-108.5-10T451 961q-34-12-44-16V675q10-4 38-14.5t70-21q42-10.5 93-14.5V205q18-8 37.5-22t33-31.5Q692 134 692 115t-9-33q-9-14-31-14-21 0-31.5 10.5T610 103q0 11 3 22.5t6 18.5l-90 45-32-59 47-23q-2-2-1-18 2-34 31-61.5T652 0q47 0 77.5 31.5T760 115q0 42-16.5 69T707 225.5Q687 240 676 245v380q51 4 93.5 14.5t71 21Q869 671 878 675v270q-10 4-43.5 16T751 983q-50 10-108 10zm-15-369h29V231q3-1 16-8.5t29-22.5q16-15 27.5-36t11.5-49q0-41-26-68t-63-27q-40 0-65 22t-25 47q0 18 3 29l-41 21q3 6 6 11t7 13l59-30q-6-14-6-30 0-26 18.5-40.5T652 48q26 0 43 17.5t17 49.5q0 24-13.5 44t-33 36Q646 211 628 219zm5 349V643q-50 1-92 10t-71.5 19.5Q440 683 427 688v244q16 6 46 15t71 17q41 8 89 9zm19 0q49 0 91-8t71.5-17.5Q844 938 858 932V688q-13-5-42.5-15.5t-71-19.5q-41.5-9-92.5-10zm-299-56q-24-4-60-15.5T232 873q-31-22-51-46t-30-45l12-15q24 4 60 15.5t61 28.5q31 21 51.5 45.5T365 902zm-12-20q-8-16-23.5-33T274 828q-29-19-54.5-28T175 787q8 16 24 33t44 36q33 23 57.5 29.5T341 897zm-89 147q-24-4-59.5-15t-61.5-28q-31-22-51-46t-29-45l12-15q24 4 60 15.5t61 28.5q31 21 51 45t29 46zm-12-19q-7-17-23-34t-44-35q-28-19-54-28t-44-13q8 16 23.5 33t43.5 36q34 23 58 29.5t40 11.5zm-49 154q-24-4-60-15.5T70 1135q-31-21-51-45t-29-46l12-14q24 5 59.5 16t61.5 28q31 21 51 45t29 46zm-12-19q-8-17-23.5-34t-43.5-36q-28-19-54-27.5T14 1049q7 17 23 34t44 36q34 22 58 29t40 12z" fill="currentColor"/></svg>