<svg xmlns="http://www.w3.org/2000/svg" viewBox="0 0 477.7 594.5"><path d="M233.9 367.3v143.8c31.6 11.6 63.7 18.8 96.5 21.6V346.3c-32.8 2.8-65 9.8-96.5 21zm218.1 0c-32-11.2-64.1-18.2-96.5-21v186.4c32.4-2.8 64.5-10 96.5-21.6V367.3zm-345.8 33c13.2 2 26.8 11.6 40.7 28.8 14 17.2 20.4 32.6 19.2 46.1-.8 8-5.2 12-13.2 12-13.6-1.2-27.9-10-42.8-26.4-15-16.4-22.5-31.4-22.5-44.9 1.3-10.8 7.5-16 18.6-15.6zm0 18.5c-2 9.2 3.5 20.7 16.5 34.5s22.7 19.9 29.1 18.3c2.4-6-2.2-16.4-13.8-31.2-11.6-14.8-22.2-22-31.8-21.6zm-54.5 44.4c13.6-1.2 29.3 4.8 47 18 17.8 13.2 27.9 26.4 30.3 39.5 1.2 8-2 13-9.6 15-13.2 2.4-29.2-2.4-47.9-14.4-18.8-12-30-24.6-33.6-37.7-1.6-11.2 3-18 13.8-20.4zm5.4 18.6c.4 9.2 8.6 18.9 24.6 29.1 16 10.2 26.8 13.7 32.4 10.5.8-6.4-6.3-15.4-21.3-27s-26.9-15.8-35.7-12.6zm-45.5 50.9c12.8-3.6 29.2-.5 49.1 9.3 20 9.8 32.2 21.1 36.6 33.9 2.4 7.6 0 13-7.2 16.2-12.8 4.8-29.4 2.8-49.7-6-20.4-8.9-33.4-19.5-39-31.8-3.6-10.4-.2-17.6 10.2-21.6zm7.8 16.8c2 9.2 11.8 17.4 29.4 24.6 17.6 7.2 29 8.8 34.2 4.8-.4-6.8-9-14.5-25.8-23.1-16.9-8.6-29.4-10.7-37.8-6.3zm307.9-227.7l1.8-178.6c0-21.6 4.8-35.2 14.4-40.7 25.2-14 37.7-30.8 37.7-50.3 0-20-12.6-29.8-37.7-29.4-19.6 0-30.7 7.1-33.3 21.3-2.6 14.2-1.3 26.3 3.9 36.3 5.6 12 4.8 19.6-2.4 22.8-6.8 3.2-13.8-1.8-21-15-4-8.4-6-19.2-6-32.4 0-37.2 19.6-55.7 58.7-55.7 39.9 0 59.9 18.4 59.9 55.1.4 23.2-12.6 43.1-38.9 59.9-8 7.2-11.4 16.6-10.2 28.2l2.4 178.6c31.6-.4 66.7 7.8 105.5 24.6 10.4 3.2 15.6 12.2 15.6 27v131.8c0 15.2-5.4 24.4-16.2 27.6-38.3 16.4-77.9 24.6-118.6 24.6-41.1 0-80.9-8.2-119.2-24.6-10.4-3.2-15.6-12.4-15.6-27.6v-132c0-14.8 5.2-23.8 15.6-27 37.1-15.9 71.7-24.1 103.6-24.5z"/></svg>