<svg xmlns="http://www.w3.org/2000/svg" viewBox="-10 0 893 1161"><path d="M643 975q-59 0-110-10t-85.5-22Q413 931 402 927V652q9-3 37.5-13.5t71-21Q553 607 603 603q1-13 2.5-44.5t3.5-73q2-41.5 3-84t1-78.5q0-47-7-87.5T592 163q-5-20-8-37t-3-31q0-35 22-61.5T669 7l15-7 9 3q-3 18-4.5 31T687 67q0 31 4 61t9 62q5 35 8.5 68t3.5 53q0 19-2 50.5t-5.5 68q-3.5 36.5-7 71.5t-7 62.5Q687 591 686 603q49 4 90.5 14.5t69.5 21q28 10.5 37 13.5v275q-10 4-45 16t-86 22q-51 10-109 10zm26-870q-1-10-1.5-19t-.5-19q0-4 1.5-17.5T672 25q-11 0-22 3-1 6-1.5 19.5T648 68q0 13 4 24.5t17 12.5zm-46 496h44q1-12 4-39t7-62.5q4-35.5 7-72t5.5-67.5q2.5-31 2.5-49 0-16-4-52t-9-66q-2-17-5-34t-5-34q-22-2-32-17t-10-39q0-6 .5-15t1.5-16q-29 20-29 57 0 10 3 27.5t7 36.5q8 32 14.5 73.5T632 323q0 36-1 78.5t-2.5 83.5q-1.5 41-3 72.5T623 601zm10 354V620q-50 1-93.5 10t-74 20Q435 661 422 666v248q15 6 46.5 15.5t74 17.5q42.5 8 90.5 8zm19 0q49 0 92-8t74-17.5q31-9.5 45-15.5V666q-13-5-43.5-16T746 630q-43-9-94-10zm-299-56q-24-4-60-15.5T232 855q-31-22-51-46t-30-45l12-15q24 4 60 15.5t61 28.5q31 21 51.5 45.5T365 884zm-12-20q-8-16-23.5-33T274 810q-29-19-54.5-28T175 769q8 16 24 33t44 36q33 23 57.5 29.5T341 879zm-89 147q-24-4-59.5-15T131 983q-31-22-51-46t-29-45l12-15q24 4 60 15.5t61 28.5q31 21 51 45t29 46zm-12-19q-7-17-23-34t-44-35q-28-19-54-28t-44-13q8 16 23.5 33t43.5 36q34 23 58 29.5t40 11.5zm-49 154q-24-4-60-15.5T70 1117q-31-21-51-45t-29-46l12-14q24 5 59.5 16t61.5 28q31 21 51 45t29 46zm-12-19q-8-17-23.5-34t-43.5-36q-28-19-54-27.5T14 1031q7 17 23 34t44 36q34 22 58 29t40 12z" fill="currentColor"/></svg>