<svg xmlns="http://www.w3.org/2000/svg" viewBox="0 0 587.7 404.9"><path d="M474.5 379.8v-18.9L386 299.8 353 359c-1.6 11 2 18.3 11 22l110.5-1.2zM65.9 54.8C54.5 37.7 44.3 26.9 35.4 22.5c-7.7 2-11.4 7.9-11 17.7 3.2 6.1 17.1 11 41.5 14.6zM434.2 304l62.3-153.3c4.5-13 14.6-23.8 30.2-32.4 15.7-8.6 23.7-9.2 24.1-1.8 1.2 6.9-3.6 12.7-14.4 17.4s-18.2 12.9-22.3 24.7l-63.5 154.5 26.3 18.3 56.2-136.2c4.5-12.6 14.6-23.2 30.2-31.8 15.7-8.6 23.7-9.2 24.1-1.8 1.2 6.5-3.6 12.1-14.4 16.8-10.8 4.7-18.2 12.9-22.3 24.7l-58 139.3c9 4.9 16.1 14.3 21.4 28.1 2.4 16.3-2 27.7-13.4 34.2H282.1c-50.1.8-75.7-6.1-77-20.8-2-8.6 3.5-12.4 16.5-11.6 61.5-2.4 96.9-11 106.3-25.7l34.8-59.2C190.1 156 94.6 85.6 76.3 76.2c-67.2-15.1-90-36-68.4-62.9C28.7-13.6 54.7.3 86.1 54.8c17.5 16.7 66.6 54 147.2 111.8 67.6 44 134.5 89.8 200.9 137.4z"/></svg>