<svg xmlns="http://www.w3.org/2000/svg" viewBox="-10 0 1141 891"><path d="M595 891q-64 0-122-5.5t-103-13q-45-7.5-71-14.5l19-79q26 8 86.5 18T545 810l108-223-526-404q-54 0-84-15T1.5 132Q-10 111-10 89q0-20 9.5-41T28 13.5Q47 0 77 0q36 0 56.5 15.5t30.5 37q10 21.5 13 41t3 28.5l665 510 148-301 58 30-152 312 19 15 155-317 58 30-160 328 80 61q-46 29-119 52t-160.5 36Q684 891 595 891zm0-19q82 0 162.5-11t148-30q67.5-19 110.5-43L160 131q0-6-2-23.5T148.5 70Q141 50 124 35T77 20q-28 0-48 19.5T9 89q0 26 27.5 50t96.5 24l800 614q-19 7-63.5 20T757 820.5Q689 831 599 831q-54 0-105.5-4t-94-10.5Q357 810 332 804q-6 25-7.5 30t-2.5 10q20 5 91 16.5T595 872zm287-211l143-291-23-12-141 287zm73 56l150-307-23-12-148 302zm-388 94h40l91-190-28-22zm62 0q102-2 167.5-16t96.5-24L714 633z" fill="currentColor"/></svg>