<svg xmlns="http://www.w3.org/2000/svg" viewBox="-10 0 1151 421"><path d="M1093 421q-42-20-122-41.5T780 343q-111-15-244-15t-230 13.5Q209 355 142 373T34 404l-44-74q15-5 50.5-17.5T129 287l-6-28q-31 9-60.5 18T11 295l-21-66q23-8 51-16t66-18l-21-79-71-47L70 0q43 30 116.5 67.5T351 138q58-13 125-27.5t133.5-28q66.5-13.5 126-25t104.5-18q45-6.5 68-6.5 27 0 69 4t86 9.5q44 5.5 78 10.5l-18 91q-26-6-64-12.5T981.5 125q-39.5-4-72.5-4t-77 5.5q-44 5.5-90 13.5t-86 16.5q-40 8.5-66.5 14T559 177l-50 9q44 11 94 19.5T708 222q37 7 79 13.5t86 15.5q46 9 91 21t81 23.5q36 11.5 57.5 19.5l21.5 8q-1 4-6 20t-12 37.5q-7 21.5-13 40.5zm-12-27l19-59q-3-1-36-12.5T979 296q-52-15-110-26-44-8-85-15t-79-13q-55-9-116.5-20T479 198q-88-23-165.5-53.5t-139-62Q113 51 74 25L44 64q114 76 218.5 117T468 247l-2 18q-121 2-212 16.5t-150 32Q45 331 19 341l24 41q35-11 99.5-29T304 321.5Q401 308 536 308q161 0 275.5 17.5t182 38.5q67.5 21 87.5 30zM463 174l92-16q10-2 38-8t67.5-14.5q39.5-8.5 84-16.5t87.5-13q43-5 77-5 28 0 64.5 4t73 9.5Q1083 120 1109 125l8-53q-13-2-38-5t-56-6.5Q992 57 961.5 55T908 53q-26 0-83 9T693.5 85.5Q619 100 538.5 117T386 150q36 13 77 24zm-338 16l28-6-9-36-35-19zm46-11l24-5-28-14zm12 46l35-7-7-28-35 8zm54-11l38-6q-11-5-22-9t-22-9zm-101 22l29-7-7-26-14 4-14 3zM23 270q46-16 95-29l-7-27q-38 11-64 18.5T14 242zm226-7q66-10 147-15-42-12-84-27-25 4-43.5 7.5T242 233zm-54 9l35-6-7-30-35 8zm-46 10q6-1 13-3t14-3l-6-28q-7 1-14 3t-15 3z" fill="currentColor"/></svg>