<svg xmlns="http://www.w3.org/2000/svg" viewBox="0 0 591.8 240.5"><path d="M585.9 179.8c6.3 0 7.6 8.9 3.8 26.8-3.7 17.7-10.5 25.3-20.3 23l-269.1-51c-41.1-2-73.3 1.6-96.7 10.6l-164.4 51c-6.3 2-12-6.2-17.1-24.5-5.1-18.1-3.9-27.9 3.5-29.5l103.1-29.5c5.1-.4 7.2-2.7 6.2-6.8s-4.2-5.2-9.7-3.2L13.9 173.9c-3.9.8-7.7-6.6-11.2-22.1s-3.5-23.3 0-23.3L91.4 107 26.2 67c-6.3-5.5-4.6-16.2 5-32.1 9.4-16.1 17.5-22 24.2-17.7l121.7 69.3L535.5.1c5.3-.8 9.5 6.4 12.7 21.5 3.1 14.9 2.6 23-1.8 24.2l-293.5 70.7 333 63.3zm-58.7-145c3.5-1.2 4.7-4.3 3.5-9.4-1.2-5.1-3.7-7.1-7.7-5.9L199.5 97c25 7.9 43.5 8.8 55.7 2.9l272-65.1zm39.8 158l-312.4-59.5c-33.2-6.5-59.4-14.6-78.7-24.5L57.8 40.1c-3.9-2.8-8-.8-12.1 5.9-3.9 6.9-3.4 11.9 1.5 15l60.1 34.8c28.5 17.7 44 33.8 46.6 48.3 2.6 14.7-4.6 24.5-21.5 29.2L43.6 201c-5.7 1.2-7.5 4.5-5.3 10 2.2 5.7 5.5 7.8 10 6.2L193 173.9c26.9-12.2 64-15.9 111.4-11.2l257.9 48.6c6.3.8 10-1.7 11.2-7.4 1.2-5.8-1-9.5-6.5-11.1zm-444.4-60.7l-14.7-13.3-88.7 20.9 3.5 15.9 99.9-23.5z"/></svg>