<svg xmlns="http://www.w3.org/2000/svg" viewBox="0 0 595.2 335.2"><path d="M226.5 110l-61.9 1 1 54.1 61.9 1-1-56.1zm211.4 2v55l48.2 1v-56h-48.2zM256 109l-1 57 159.3 2 1-57-159.3-2zM96.4 212.6c-51.2 46.4-49.1 70.7-57 91.8-1.6 9.7 2.6 14.3 7.1 14.3 4 0 8.3-3.7 8.8-10.8.1-.1 11.9-42.5 41.1-95.3zM60.2 0c.8 0 1.7.1 2.6.2C67 .9 72 3.3 77.3 8c8.6 9.2 19 24.1 31.7 38.4 12.6 14.2 27.4 27.8 44.8 34.4 146.5 2 293 1 439.4 2.9h.6v.6c-.3 9.8.3 17.7 0 27.5v.6h-.6c-25.4-.3-51.7-.7-77.1-1v54.8h75.1c.4 0 .9.2 1.2.5.3.3.6.6.8 1.1.4.8.8 2 1.1 3.4.5 2.7.7 6.3.8 9.9.1 7.1-.4 14.3-.4 14.3v.6h-.6c-37.3-.8-75.1-1.1-113.2-1.1-78.9 0-158.9 1.2-237.8 1.2-38 0-75.8-.3-113.2-1.1h-.4c-.5.4-1.2 1.1-2.1 2.1-1.9 2.1-4.5 5.3-7.4 9.1-5.8 7.6-13 17.4-18 24.9-.6 1-16.8 31.9-27.5 70.6-5.4 19.5-15.8 27.8-25 31.1-4.7 1.7-9 2.1-12.1 2.1-2.9 0-4.8-.4-4.9-.4h-.2l-.1-.2c-8.5-10.6-9.5-24.7-5.1-41.7 4.4-16.8 14.3-36.4 27.7-58.3 4.9-8.1 17.7-20.4 29.2-30.7 9.7-8.7 18.5-16 21.1-18-34.6-17.5-58.9-32.6-75.2-45.2-16.6-12.7-25.1-23-28.4-30.8-3.3-8-1.1-13.6 4-16.6 2.9-1.7 6.8-2.6 11.1-2.6 3 0 6.1.4 9.2 1.2h.2l.1.1c36.5 43 57 52.9 109.3 69.8 1.1-17.4-2.3-49.1-1.1-66.3-25.6-15-58-40.3-82.9-70.5-5.2-8.9-4.1-17.9.9-22.3C54.4 1 57.1 0 60.2 0z"/></svg>