<svg xmlns="http://www.w3.org/2000/svg" viewBox="-10 0 1147 548"><path d="M212 548q-2 0-13.5-1.5t-25-9.5q-13.5-8-23.5-25t-10-49q0-17 5.5-38.5T158 380q-40-9-70.5-34.5T23 274l-33-44 57-44 33 43q29 40 52 59.5t54 25.5q18-39 35.5-70.5T248 198q-47-7-80.5-33T96 88L63 45l58-45 32 43q25 34 45 53.5t43.5 27.5q23.5 8 58.5 8h837v70h-109v115h109v72l-835-2v15q0 51-11 80.5T264.5 526q-15.5 14-30 18t-22.5 4zm905-364v-33H295q-40 0-66.5-11t-47-32Q161 87 138 57l-23-30-25 20 21 29q29 39 53.5 62t54.5 33q30 10 73 11zM206 317h74q-1-43-3.5-72.5T273 201h-4q-4 8-23.5 40.5T206 317zm94 0h147V202H293q2 14 4 43.5t3 71.5zm167 0h63V202h-63zm83 0h376V202H550zm395 0h64V202h-64zm-780 45q3-7 6-14.5t6-14.5q-37-9-60.5-32T65 242l-23-30-25 21 21 29q33 44 61 68t66 32zm117 6q0-8-.5-15.5T281 337h-60q-7 0-12.5-.5T197 336l-6 14-6 15q15 3 33 3zm835 2v-33H301v31zM212 529q6 0 17.5-3.5T253 510q12-12 20.5-38t8.5-70v-15h-64q-21 0-41-3-8 23-12.5 43t-4.5 36q0 32 12 46t25 17q13 3 15 3z" fill="currentColor"/></svg>