<svg xmlns="http://www.w3.org/2000/svg" viewBox="-10 0 1406 1151.333"><path d="M302 1150q-2 0-12.5-4t-22.5-14q-12-10-18-29t0-50q6-30 28.5-71.5T326 900q-28-48-41-108t-16.5-122.5Q265 607 265 552V408h-11q-33 0-76.5-4t-92-18.5Q37 371-10 339l16-54q7 1 22 3t31 2q34 0 60-6.5t47-23.5q19-15 41.5-30.5T264 207q-1-14-1.5-32.5T262 143q0-36 11.5-70.5T295 0q12 23 28.5 59.5T348 125q5-11 8.5-22.5T360 78q0-23-4-40.5T348 13q13 10 30.5 31.5t31 48.5q13.5 27 13.5 54 0 22-8.5 44.5T397 231q9 10 14.5 25t5.5 36q0 46-22 72t-64 36v78q0 79 23 131.5t61 83q38 30.5 84.5 43.5t93.5 13h66V496h467v253h270v70h-109v115h109v72l-885-2q-24 0-45-4t-40-11q-1 9-3 18t-3 18q-11 50-27.5 77t-34.5 37.5q-18 10.5-33 11.5t-23-1zm-19-946q5-1 10.5-1H316q1-8 4-16t5-15l4.5-9 4.5-10q-3-17-14-47t-20-52q-5 22-11.5 43t-6.5 46v30l1 31zm98 15q9-16 16-35t7-37q0-14-9-37.5T378 70q5 29-24 86-11 20-19 48 11 2 23.5 5t22.5 10zM254 389q71 0 107.5-22.5T398 292q0-26-13-42-3 5-5.5 8.5T376 264l-16-11q1-2 4.5-6.5t6.5-9.5q-10-6-21-9.5t-21-4.5l-5 18-17-6q0-1 1-5l2-8h-5q-46 0-74.5 17T186 269q-29 23-58 32t-67 9q-6 0-12-.5T38 308l-2 6q7 4 23 7.5t43 3.5q19 0 42.5-3t38.5-6l4 19q-15 3-39.5 6t-45.5 3q-27 0-45-4t-28-8l-2 6q36 21 77 32t80 15q39 4 70 4zm-9-84q-10 0-18-7.5t-8-18.5q0-11 8-19t18-8q11 0 19 8t8 19q0 11-8 18.5t-19 7.5zm93 577l20-28q-25-49-34-105t-10-100q10 15 25.5 39.5t42.5 50q27 25.5 72.5 43T570 799l806 2v-33H587q-128 0-202-75t-74-211v-78q-14 3-27 3v155q0 55 4 112.5T303.5 786q11.5 54 34.5 96zm341-133h428V516H679zm-307 86q13-19 24-32.5t15-19.5q-39-24-74-67 7 38 15.5 67t19.5 52zm48 65q5-38 7.5-66.5T431 793q-1 0-1-.5t-1-.5q-3 3-16 20t-31 42q9 15 18.5 26.5T420 900zm122 34h189V819H581q-31 0-64-3t-67-15q-2 32-11 112 25 15 51.5 18t51.5 3zm208 0h64V819h-64zm83 0h352V819H833zm371 0h64V819h-64zm-792 26q1-9 2.5-18t2.5-17q-28-21-48-53-5 7-9.5 14.5T350 901q12 18 27.5 33.5T412 960zm-106 171q6 1 18 .5t26.5-10.5q14.5-10 27.5-33.5t22-66.5q2-10 4.5-20t3.5-20q-22-11-39-27t-31-36q-24 38-44.5 75t-25.5 63q-7 32 2.5 47.5t21.5 21q12 5.5 14 6.5zm1070-144v-33H514q-23 0-42.5-5T435 936q-1 8-2.5 16t-2.5 17q35 15 81 15z" fill="currentColor"/></svg>