<svg xmlns="http://www.w3.org/2000/svg" viewBox="0 0 595.3 403.7"><path d="M595.3 351h-385c-12.5 26.9-25.6 43.4-39.3 49.4-13.7 6-28.4 3.7-44.2-7-13.9-13.9-19-28.1-15.3-42.5 3.7-14.4 16.2-29.2 37.6-44.6l-26.5-110c-5.6-9.3-15.6-13-29.9-11.1H31.3C13.7 175.5 3.2 160.7 0 140.7l125.3-34.1c7.9-6 12.8-22.4 14.6-49.1 1.9-26.7 7-44.4 15.3-53.3 13.5-1.4 21.8 26.2 25.1 82.9 6-23.7 9.5-43.2 10.4-58.5.9-15.3 3.7-24.8 8.4-28.5 5.6-.5 10.3 2.2 14.3 8 3.9 5.8 7.9 14.2 11.8 25.1 3.9 10.9 5.1 28.9 3.5 54-1.6 25.1-9.6 53.1-24 84.2l25.8 81.5H282v-58.5h209.6v58.5h103.7v23h-71v52.9h71V351zm-94.7-22.3v-52.9h-71v52.9h71zm-32-75.2v-36.2H304.3v35.5l164.3.7zM157.4 22.3l-6.3 78 15.3-7c.9-13.9-2.1-37.5-9-71zm249.9 306.4v-52.9h-72.4v52.9h72.4zm-94.7 0v-52.9h-42.5v52.9h42.5zm-110-307.1c.5 33.4-2.1 57.3-7.7 71.7-3.7 9.3-14.5 16.7-32.4 22.3-17.9 5.6-63 18.3-135.4 38.3l14.6 12.5h52.9c20.4-.5 36 5.1 46.6 16.7l25.1 100.3 44.6-19.5-32.7-105.8c33.5-43.2 41.6-88.7 24.4-136.5zm44.6 254.9l-24.4 52.2h24.4v-52.2zm-21.6-1.4l-46.6 32 21.6 18.1 25-50.1zm-84.3 100.2c19.5 4.2 34.8-7 46-33.4l-21.6-18.1c-24.6 15.3-32.7 32.5-24.4 51.5zm34.2-240.9c-17.2 13.5-30.6 19-40.4 16.7-13.9-6-14.2-12.3-.7-18.8 4.2-4.1 17.8-3.4 41.1 2.1z"/></svg>