<svg xmlns="http://www.w3.org/2000/svg" viewBox="-10 0 982 607"><path d="M933 607q-20 0-35-16t-26.5-37Q860 533 851 518q-16-27-37-57t-57-51q-33-19-76-28t-87.5-14.5Q549 362 512 355q-92-15-151-37.5T267.5 263Q233 231 216 187.5T190 88H78v109q0 35-15.5 44.5T34 251q-14 0-29-9.5T-10 197V0h278q6 77 20.5 125t44 75.5q29.5 27.5 80 43T542 271q75 12 121 20t77 17.5q31 9.5 60 24.5 29 14 56.5 41t50 57q22.5 30 35.5 54 12 22 21 44t9 41q0 11-8.5 24T933 607zm0-20q11 0 15.5-6t4.5-11q0-16-8.5-35T924 494q-11-22-31.5-50t-47-53.5Q819 365 791 350q-27-13-58.5-22.5t-77.5-18Q609 301 539 290q-78-12-131-27.5t-85-43Q291 192 274 144T250 19H9v178q0 22 8.5 28t16.5 6q8 0 16-6t8-28V68h148q9 57 24.5 100.5t47.5 76q32 32.5 88.5 55T515 336q42 7 85 11.5t86 14q43 9.5 82 31.5 37 21 61 54.5t40 60.5q6 10 16 29t22 34.5q12 15.5 26 15.5z" fill="currentColor"/></svg>