<svg xmlns="http://www.w3.org/2000/svg" viewBox="0 0 590.5 307.4"><path d="M480.1 0c0 36.8-6.9 68.6-19.8 103.1-3.2 25.8 22.7 40.4 33.2 61.3-31.9 33.7-117.9 73.8-182.3 88.6-86.9 16-176.2 8.7-264.1 6.6-13.9 1.3-37.5-5.3-46.2 9.2-6.8 21 25.1 23.4 38.7 25.6 20.2 3.4 48.2 6.7 79.3 9.2 164.7 17.1 329.6-22.3 464.8-119.3 4-3.6 6.9-9.5 6.8-15-.1-5.5-2.3-9.8-4.8-13.4-16.7-20.4-41.4-33.5-62.4-49.2 3.5-32.3 16.2-61.9 30.4-90.7L480.1 0zm21.7 28.4l18.4 4c-11.1 25.6-17.7 50.9-20.8 77.8 10.8 30.4 47.2 34.8 66.9 58.5-38.6 33.2-122.8 70.3-202.3 93.5 57.3-18.9 116.9-48.5 147.5-81.2 12.2-15.5 1-31.8-9.2-44.7-8.4-10.6-16.8-22-19.2-28 10.5-26.5 16.4-51.9 18.7-79.9z"/></svg>