<svg xmlns="http://www.w3.org/2000/svg" viewBox="-10 0 1222 735"><path d="M117 735q-54 0-90.5-6T-10 697q0-16 14.5-25t51.5-9q57 0 124-11t136.5-28.5Q386 606 449.5 586t114-39q50.5-19 79.5-33 32-15 75.5-39t85-53q41.5-29 69-58t27.5-54q0-24-17.5-40T841 245.5q-24-8.5-44-12.5t-24-4q8-21 17-56.5t9-68.5q0-28-3-53.5T790 12q13-4 37-8t47-4q23 0 46.5 3.5T957 11q-4 15-7.5 41.5T946 104q0 47 24.5 70.5t69 32Q1084 215 1143 215q46 0 57.5 8.5T1212 249q0 9-5 19.5t-13 24.5q-34 57-90.5 109.5t-126 97.5q-69.5 45-142 79.5T697 635q-142 44-291.5 72T117 735zm0-20q83 0 180.5-12T496 669q101-22 195-52 75-24 150-61t141.5-82.5q66.5-45.5 117-94.5t77.5-96q7-11 11-19.5t4-14.5q0-8-8.5-11t-40.5-3q-65 0-114-10t-76-38q-27-28-27-83 0-19 3-41.5t5-36.5q-5-1-21-3.5T874 20q-24 0-40 2.5T814 26q1 10 3 29.5t2 48.5q0 27-7 59t-14 52q12 3 32 9t41 16.5q21 10.5 35 27.5t14 42q0 28-24.5 58.5t-65 60Q790 458 743 484.5T651 532q-30 14-81 33.5T455 605q-64 20-133.5 37.5T185 671q-67 11-124 11-34 0-43 4.5T9 698q0 7 16 11t40.5 5q24.5 1 51.5 1z" fill="currentColor"/></svg>