<svg xmlns="http://www.w3.org/2000/svg" viewBox="-10 0 802 207"><path d="M80 207q-19 0-28-12t-17-40L-10 0h93q48 0 83 5t64 13.5Q259 27 289 37l82 27q32 10 62 19t66 14.5q36 5.5 85 5.5h156q29 0 40.5 9.5T792 138q0 15-11.5 26T740 175H590q-55 0-96.5-6t-78-17Q379 141 337 128l-58-19q-38-12-66-20.5T159 76q-26-4-59-4H87l14 42q2 6 9.5 26.5T118 173q0 14-11 24t-27 10zm0-20q18 0 18-14 0-9-6-27.5T84 120L62 53h38q35 0 62.5 4t56 12.5Q247 78 285 91l58 19q42 13 77 23.5t75 16q40 5.5 95 5.5h150q18 0 25-5t7-12q0-7-7-11.5t-25-4.5H584q-73 0-122.5-12T365 82l-82-27q-30-10-58-18t-61.5-12.5Q130 20 83 20H16l38 129q6 20 11 29t15 9z" fill="currentColor"/></svg>