<svg xmlns="http://www.w3.org/2000/svg" viewBox="-10 0 794 268"><path d="M754 262q-13 0-24-7.5T706 237q-21-15-51-33t-61-23q-31-4-65-6.5t-67-3.5q-35-2-68.5-4t-69.5-7q-40-5-76-26t-49-64h-35v48h-28v38q0 28-11.5 38.5T102 205q-24 0-30-14.5T66 162V57h26V0h164q2 13 8 34t26.5 38.5Q311 90 356 92q33 2 80 5t94 7q47 4 79 9 32 4 63 17.5t56.5 31q25.5 17.5 40.5 36t15 33.5q0 12-6.5 21.5T754 262zm-2-20q13 0 13-11 0-15-24-36t-61-39q-37-18-74-24-33-5-79.5-8.5t-93-6.5q-46.5-3-78.5-5-45-4-69-20t-33.5-36Q243 36 240 19H112v58H86v85q0 8 2.5 15.5T102 185q5 0 10-6.5t5-22.5V98h28V50h68q9 44 42 65.5t86 27.5q27 4 57.5 5t65.5 3q42 3 79.5 5.5T597 162q38 5 68 24t53 35q26 21 34 21zm-762 26v-93q0-17 6-23t13-6q11 0 16 7.5T38 177q6 14 18 28.5T98 220q31 0 42.5-14.5T159 177q8-16 13-23.5t15-7.5q7 0 13.5 6t6.5 23v93zm19-20h178v-83q-1 1-3.5 5t-7.5 15q-8 18-23 36.5T98 240q-40 0-55-18.5T20 185q-9-18-11-20z" fill="currentColor"/></svg>