<svg xmlns="http://www.w3.org/2000/svg" viewBox="0 0 195.7 388.9"><path d="M195.7 211.8H120c38.5 53.9 31 113-22.5 177.1-51.3-64.2-58.4-123.2-21.2-177.1H0C20.1 141.2 33.6 88.2 40.4 52.9 47.3 17.6 66.5 0 98.2 0c31.2 0 50.3 17.6 57.1 52.9 6.9 35.3 20.3 88.3 40.4 158.9zm-30.1-23.1c-18.4-55.2-29-96.8-31.8-124.8-2.8-28-14.7-42-35.6-42-21 0-33.2 14-36.6 42-3.4 28-13 69.4-28.9 124.2l132.9.6zm-67.4 50c-11.6 17.1-17.8 35.1-18.6 53.9.4 18.8 6.6 36.8 18.6 53.9 11.6-17.1 17.5-35.1 18-53.9-.9-18.8-6.9-36.7-18-53.9z"/></svg>