<svg xmlns="http://www.w3.org/2000/svg" viewBox="-10 0 362 650"><path d="M171 650q-13 0-29-8.5t-27.5-29Q103 592 103 557q0-19 5-49.5t12-64q7-33.5 14-61.5t11-43H-10q29-39 47-89t31-99q9-34 18.5-69t28-58.5Q133 0 171 0t56.5 23.5Q246 47 255.5 82t18.5 69q13 49 31 99t47 89H197q4 15 11 43t14 61.5q7 33.5 12 64t5 49.5q0 35-11.5 55.5t-27.5 29q-16 8.5-29 8.5zM26 320h290q-19-32-34-74.5T254 156q-8-32-16-63.5T214.5 40Q199 19 171 19t-43.5 21q-15.5 21-24 52.5T87 156q-13 47-27.5 89.5T26 320zm145 310q14 0 31.5-16t17.5-57q0-20-5.5-51.5t-13-65q-7.5-33.5-14.5-61T177 339h-13q-3 13-10 40.5t-14.5 61q-7.5 33.5-12.5 65t-5 51.5q0 41 17.5 57t31.5 16z" fill="currentColor"/></svg>