<svg xmlns="http://www.w3.org/2000/svg" viewBox="0 0 132.9 594.4"><path d="M66.8 570.3c20.5-64.6 26.9-133.5 19.4-206.7-7.6-73.2-14-123.9-19.4-151.9-5.8 28-12.5 78.7-20 151.9-7.6 73.3-.9 142.2 20 206.7zM77.5 177c19.1-23.2 28.7-48.5 28.7-76.1 0-11.1-3.2-26-9.7-44.7C90 37.4 80.1 28 66.8 28 53 28 43 37.4 36.7 56.1c-6.2 18.7-9.3 33.6-9.3 44.7 0 27.6 9.6 53 28.7 76.1h21.4zM125.6 0v28c-10.2.9-16.7 4.5-19.4 10.7 12.9 20 19.4 41 19.4 62.8 0 21.8-7.8 47-23.4 75.5h30.7v21.4c-22.3.4-38.1 4.2-47.4 11.4 14.7 72.6 23.2 140.8 25.4 204.7 2.2 63.9-9.6 123.9-35.4 180h-18c-25.8-56.1-37.5-116.1-35.1-180 2.4-63.9 10.8-132.1 25-204.7-9.3-7.1-25.2-10.9-47.4-11.4V177h30.7c-15.6-28.5-23.4-53.7-23.4-75.5 0-21.8 6.7-42.7 20-62.8-3.1-6.2-9.8-9.8-20-10.7V0h118.3z"/></svg>