<svg xmlns="http://www.w3.org/2000/svg" viewBox="-10 0 317 1006"><path d="M149 1006q-8 0-13.5-8.5T123 954q-4-23-13-65.5T91.5 789q-9.5-57-16-121T69 539q0-71 13-112.5t24-59.5H-10q1-1 13.5-10t28-22.5Q47 321 58.5 307T70 281q0-10-5.5-22T50 229q-7-17-17-45t-10-65q0-36 14-60Q5 56 5 30 5 11 21 5.5T66 0h167q29 0 45 5.5T294 30q0 15-9.5 21.5T259 60q15 25 15 59 0 37-9.5 65T247 229q-9 18-14.5 30t-5.5 22q0 12 11.5 26t27 27.5Q281 348 293 357t14 10H191q11 18 24 58t13 114q0 65-6.5 129.5t-16 121q-9.5 56.5-18 99T174 954q-7 35-12 43.5t-13 8.5zM66 41h167q20 0 30.5-2t10.5-9q0-7-10.5-8.5T233 20H66q-20 0-31 1.5T24 30q0 7 11 9t31 2zM47 347h203q-13-10-28-28t-15-37q0-15 6-28t16-33q8-18 17-43t9-60q0-17-5-31.5T237 61H59q-17 23-17 57 0 35 9.5 60T68 221q10 20 16 33t6 28q0 19-14.5 37T47 347zm102 640l7-40q3-17 11.5-59t17.5-99.5q9-57.5 16-122t7-127.5q0-75-16-116.5T168 367h-39q-8 13-24 54T89 539q0 63 7 127.5t16 122q9 57.5 17.5 99.5t11.5 59z" fill="currentColor"/></svg>