<svg xmlns="http://www.w3.org/2000/svg" viewBox="-10 0 317 1006"><path d="M149 1006q-8 0-13.5-8.5T123 954q-4-23-11.5-69.5t-15-108Q89 715 84 647t-5-133q0-73 12-117t22-64H-10q1-1 13.5-9.5t28-20.5q15.5-12 27-25T70 255q0-9-5.5-20T50 207q-7-15-17-40.5T23 108q0-50 36.5-79T149 0q52 0 88.5 29t36.5 79q0 33-9.5 58.5T247 207q-9 17-14.5 28t-5.5 20q0 10 11.5 23t27 25q15.5 12 27.5 20.5t14 9.5H184q10 19 22 62.5T218 514q0 65-5 133t-12.5 129.5Q193 838 186 884.5T174 954q-7 35-12 43.5t-13 8.5zM47 313h203q-13-9-28-25t-15-33q0-14 6-25.5t16-29.5q8-16 17-39t9-53q0-41-31-64.5T149 20q-45 0-76 23.5T42 108q0 30 9.5 53T68 200q10 18 16 29.5t6 25.5q0 17-14.5 33T47 313zm102 674l7-40q3-17 10-63t14-108.5q7-62.5 12.5-130.5t5.5-131q0-76-14.5-121.5T161 333h-26q-7 14-21.5 58.5T99 514q0 63 5.5 131T117 775.5q7 62.5 14 108.5t10 63z" fill="currentColor"/></svg>