<svg xmlns="http://www.w3.org/2000/svg" viewBox="0 0 196.4 594.6"><path d="M160 175.9H28.2C40 152 61.9 140 94.1 140c32.1 0 54.1 12 65.9 35.9zm-35.9 335.2c9.4 3.9 14.1 11.2 14.1 21.8H110c0-10.6 4.7-17.9 14.1-21.8zm14.1 40.6c0 7.4-4.7 14.7-14.1 21.8-9.4-7.4-14.1-14.7-14.1-21.8h28.2zm-26.5-61.8c-15.3 13.3-22.7 27.6-22.3 42.9H50.6v18.8h38.8c0 22.3 11.6 36.7 34.7 42.9 23.1-6.3 34.7-20.6 34.7-42.9h37.6v-18.8h-37.6c0-15.3-7.6-29.6-22.9-42.9V194.1h52.3c-15.3-47.4-41.6-71.9-78.8-73.5 1.2-8.2 4.2-16.4 9.1-24.4 4.9-8 11.3-16.7 19.1-25.9 7.8-9.2 11.9-19.4 12.1-30.6.2-11.2-2-20-6.5-26.5S134.5 2.5 130.6.6c-11-2.4-14.5 2-10.6 12.9 7.1 5.9 10.9 13.5 11.5 22.9.6 9.4-5 20.6-16.8 33.5-11.8 13.1-19.2 23.9-22.4 32.8s-4.7 14.8-4.7 17.9c-45.9 1.6-75.1 26.1-87.6 73.5h52.9v107.6h23.5V194.1h35.3v295.8z"/></svg>