<svg xmlns="http://www.w3.org/2000/svg" viewBox="-10 0 366 1003"><path d="M161 1003q-22-7-45.5-33T85 912H7v-19h76v-1q0-31 17-54.5t44-32.5V505H85q8-29 15.5-83.5T109 306H-10v-23q0-19 8.5-43t28-47.5q19.5-23.5 51-40T155 133q15-5 37-19t44.5-33.5Q259 61 276.5 40T300 0l19 6q-6 21-26.5 45t-47 45.5Q219 118 196 133q61 5 96 32t49.5 60q14.5 33 14.5 58v23H202v499q26 9 43.5 32.5T263 892v1h75v19h-77q-7 32-30.5 58t-45.5 33q14-29 18.5-53t5.5-38h-72q1 14 5 38t19 53zM9 286h328v-9q0-13-8.5-34t-27-42Q283 180 251 166t-78-14q-47 0-78.5 14T44 201q-19 21-27 42t-8 34zm155 515q2 0 4.5-.5t4.5-.5q2 0 4.5.5t4.5.5V306h-18zm-55-316h35V306h-15q-1 49-7.5 99.5T109 485zm-7 408h15q2-29 19-42.5t37-13.5q20 0 37 13.5t19 42.5h15v-1q0-30-21-51t-50-21q-30 0-50.5 21T102 892zm35 0h72q-2-18-12-27t-24-9q-14 0-24 9t-12 27zm-8 66q-4-12-7-23.5t-4-23.5h-14q3 14 10 26.5t15 20.5zm87 0q19-17 25-47h-13q-3 22-12 47z" fill="currentColor"/></svg>