<svg xmlns="http://www.w3.org/2000/svg" viewBox="0 0 200.8 594.6"><path d="M141.9 168.6l-19.8 21.2c20.9 11.7 38 13.7 51.3 6l-31.5-27.2zm-28.7-26.1v37.4l18.2-20.8-18.2-16.6zm69.4 44c9.9-19.6 7.3-37.8-7.9-54.6l-24.1 25.8 32 28.8zm-17.8-64.1c-14.3-10.6-31.5-16.1-51.6-16.5v18.5l27.4 24.1 24.2-26.1zm-128.4 0l23.5 26.1 26.8-24.1v-18.5c-19.6.4-36.4 5.9-50.3 16.5zm-18.5 64.1L50 157.7l-24.1-25.8c-14.8 16.8-17.5 35-8 54.6zm51.3-27.4l17.5 20.8v-37.4l-17.5 16.6zm-41.4 36.7c12.8 7.7 29.7 5.7 50.6-6l-19.2-21.2-31.4 27.2zm95 335.3c-.4-17.4-8-26.1-22.8-26.1s-22.6 8.7-23.5 26.1h46.3zm-43.7 26.1c.9 4 4.1 16.4 9.6 37.4-12.1 0-20.4-6.9-24.8-20.8l-6-16.5H10.3v-26.1H56c.9-23.6 11.1-38.5 30.8-44.6V202.1c-12.1 9.7-28.7 13.4-49.6 11.2C16.2 211.1 4 198 .7 173.9c-3.3-24 4.7-43.9 24.1-59.5 19.4-15.7 40-23.7 61.8-24.1V67.1c8.8-10.8 17.6-10.8 26.5 0v23.1c29.1-26.2 38.9-52.3 29.4-78 2.2-13.7 9.6-15.9 22.2-6.6 6.6 13.4 6.6 28 0 43.7-6.6 15.9-18 30.2-34.1 43 14.1 2.4 30 10.6 47.6 24.5 17.6 14.1 24.9 33.2 21.8 57.2-3.1 24-15.2 37.2-36.4 39.4-21.2 2.2-38-1.5-50.6-11.2v284.4c19.6 6.2 29.9 21.1 30.8 44.6h45v26.1h-48.3l-4.6 16.5c-4.4 13.9-12.7 20.8-24.8 20.8 5.5-22.3 8.5-34.7 8.9-37.4H79.1z"/></svg>