<svg xmlns="http://www.w3.org/2000/svg" viewBox="-10 0 409 993"><path d="M183 993q-22-8-45-34t-31-58H30v-19h75v-1q0-32 18-54.5t44-31.5V351q-11 7-30.5 14.5T92 373q-45 0-73.5-25T-10 289q0-19 10.5-44.5T34 194q23-25 61-41.5t93-17.5v-1q13-3 35.5-17T270 83q24-20 42.5-41.5T337 0l19 6q-7 22-28.5 47T279 100q-27 22-51 36 63 7 100.5 35t54 61.5Q399 266 399 289q0 34-28.5 59T296 373q-23 0-42-7t-30-14v443q27 9 44.5 31.5T286 881v1h75v19h-78q-7 32-30 58t-45 34q14-30 18.5-54t4.5-38h-72q1 14 5.5 38t18.5 54zm-64-749l67-53v-37q-43 2-74.5 14T60 197zm152-1l58-46q-21-17-51.5-29T205 154v37zM21 322l82-66-58-46q-19 20-27.5 41.5T9 289q0 18 12 33zm348-1q10-13 10-32 0-16-8-37.5T343 210l-56 46zm-183-24v-81l-52 40zm19-1l50-40-50-40zm91 57q34 0 59-18l-84-67-61 49 15 12q6 5 24.5 14.5T296 353zm-204 0q28 0 46.5-9.5T164 329l15-12-60-48-84 67q22 17 57 17zm60 596q-5-17-8.5-32t-3.5-31q0-31 17.5-45t37.5-14q21 0 38.5 14t17.5 45q0 16-3.5 31t-8.5 32q11-12 19-30.5t8-37.5q0-29-18.5-49T205 810V337l-11-8-8 7v474q-25 2-43 22t-18 49q0 19 7.5 37.5T152 949zm8-67h71q-2-18-12-27t-24-9q-14 0-24 9t-11 27z" fill="currentColor"/></svg>