<svg xmlns="http://www.w3.org/2000/svg" viewBox="-10 0 404 963"><path d="M192 867q-29 0-57.5-13.5t-46-39Q71 789 75 753l74-640q6-49 11.5-81T192 0q26 0 31.5 32t10.5 81l75 639q4 36-13.5 62t-46 39.5Q221 867 192 867zm0-19q23 0 47-11.5t39-33q15-21.5 11-51.5l-74-636q-5-47-8-72t-15-25q-12 0-15 25t-8 72L95 752q-4 30 11 51.5t39 33q24 11.5 47 11.5zM-10 963V806q0-20 8.5-29t22.5-9q16 0 22 11t8 20q4 17 19 40t44.5 40.5Q144 897 192 897t77.5-17q29.5-17 44.5-40.5t19-40.5q2-9 8-20t22-11q14 0 22.5 9t8.5 29v157zm19-19h366V806q0-18-11-18-8 0-13 16-5 19-21 45.5t-49.5 47Q247 917 192 917t-88.5-20.5Q70 876 54 849t-21-45q-5-16-13-16-11 0-11 18z" fill="currentColor"/></svg>