<svg xmlns="http://www.w3.org/2000/svg" viewBox="0 0 239.8 621.4"><path d="M110.6.3c-1.2.5-2.2 1.2-3.1 2.1-.8.6-1.5 1.3-2.1 2.1-1 1.2-1.7 2.6-2.1 4.1-.1.9.1 2.2 0 3.1-11.8 76.7-24.1 175.5-33 262.4-4.5 44-8.2 84.6-10.3 117.8-2.1 33.2-3.5 58.7-2.1 73.4 2.6 27.2 10.9 45.5 21.7 56.8 10.8 11.3 23.6 15.5 34.1 15.5 10 0 23.6-4.2 34.1-15.5s18.1-29.7 20.7-56.8c1.4-14.7 1.1-40.2-1-73.4s-5.8-73.8-10.3-117.8C148.3 187.2 135 88.4 123 11.6c-.1-.9.1-2.2 0-3.1-.2-1.1-.5-2.1-1-3.1-.9-1.8-2.4-3.2-4.1-4.1-2.2-1.2-4.8-1.6-7.3-1zm3.1 88.9c8.5 61.8 17.4 125.1 23.8 187.1 4.5 43.8 7.2 85 9.3 117.8 2.1 32.8 3.2 57.7 2.1 69.2-2.3 24.2-8.7 38.2-15.5 45.5-6.8 7.3-14.7 8.3-19.6 8.3-6 0-12.7-1-19.6-8.3-6.9-7.2-14.2-21.3-16.5-45.5-1.1-11.6-.1-36.4 2.1-69.2 2.1-32.8 5.9-74 10.3-117.8 6.2-62 15.2-125.4 23.6-187.1zM6.3 476.7c-1.2.5-2.2 1.2-3.1 2.1-1.7 1.6-2.8 3.8-3.1 6.2v127.1c-.1.7-.1 1.4 0 2.1 1.2 4.2 4.9 7.1 9.3 7.2h221.2c.7.1 1.4.1 2.1 0 4.2-1.2 7.1-4.9 7.2-9.3V486c0-1.4-.4-2.8-1-4.1-.5-1.2-1.2-2.2-2.1-3.1-1.8-1.4-4-2.1-6.2-2.1-13.3 0-24.6 5.4-32 13.4-7.5 8-12.4 17.9-15.5 27.9-3.2 10-4.2 19.2-6.2 27.9s-4.3 16.6-6.2 19.6c-.1.1-2.7 2.9-6.2 5.2-3.5 2.3-8.2 4-13.4 6.2-10.4 4.3-23 7.2-31 7.2s-20.6-2.9-31-7.2c-5.2-2.2-9.9-3.9-13.4-6.2-3.5-2.3-6.1-5.1-6.2-5.2-1.9-3.1-3.2-10.9-5.2-19.6-2-8.7-4.1-17.9-7.2-27.9-3.2-10-8-19.9-15.5-27.9s-18.8-13.4-32-13.4c-1.3-.2-2.3-.2-3.3 0zm13.4 23.8c2.1 1.2 5.5 1.2 7.2 3.1 4.3 4.6 7.6 11.1 10.3 19.6 2.7 8.5 5.2 18.8 7.2 27.9 2.1 9.1 3.8 17.5 8.3 24.8 3 5 7.5 8.2 12.4 11.4 4.9 3.2 10.4 5.7 16.5 8.3 8.3 3.4 17 4.7 25.8 6.2H19.7V500.5zm200.5 0v101.3h-87.8c8.8-1.5 17.5-2.8 25.8-6.2 6.1-2.6 12.7-5.1 17.6-8.3 4.9-3.2 8.4-6.4 11.4-11.4 4.4-7.3 6.2-15.7 8.3-24.8 2.1-9.1 4.5-19.4 7.2-27.9s6.1-15 10.3-19.6c1.7-1.9 5.1-2 7.2-3.1z"/></svg>