<svg xmlns="http://www.w3.org/2000/svg" viewBox="0 0 209.7 594.5"><path d="M104.8 504.3c-21.7 0-37.6-12.4-47.8-37.2-10.2-24.8-15.3-64.4-15.3-118.8 3.1-55.3 8.2-113 15.3-173.2L81 12.6C83.6 4.2 91.6 0 104.8 0s21.2 4.2 23.9 12.6l23.9 162.6c7.1 60.2 12.2 117.9 15.3 173.2 0 54.4-5.1 94-15.3 118.8-10.2 24.7-26.1 37.1-47.8 37.1zm104.9-.7v90.9H0v-90.9h209.7zm-106.9-30.5c13.7 0 23.8-11.3 30.2-33.8 6.4-22.6 9.6-52.9 9.6-90.9-1.3-55.3-5.8-113-13.3-173.2L114.8 42.5c-.9-6.6-4.2-10-10-10s-9.1 3.3-10 10L80.3 175.2c-7.5 60.2-11.7 117.9-12.6 173.2-.4 38 1.9 68.3 7 90.9 5 22.5 14.4 33.8 28.1 33.8zm83.7 101.5v-48.4H23.2v48.4h163.3z"/></svg>