<svg xmlns="http://www.w3.org/2000/svg" viewBox="-10 0 588 963"><path d="M281 867q-29 0-57.5-13.5t-45.5-39Q161 789 165 753l24-207-99-36q-15-6-38.5-19.5T9 453.5Q-10 430-10 396q0-27 13-45.5T35.5 323q19.5-9 37.5-9 26 0 49.5 15t23.5 49q0 24-9.5 36.5t-21.5 17q-12 4.5-21 4.5-17 0-27-10t-13-19l18-7q2 5 7.5 10.5T94 416q8 0 20.5-7t12.5-31q0-24-17-34.5T74 333q-22 0-43.5 15.5T9 396q0 23 11 40t26.5 28.5q15.5 11.5 29 18T94 491q5 2 34 12.5t63 22.5l48-413q5-49 10.5-81T281 0q26 0 31.5 32t11.5 81l56 484q23 9 46 20t41 22q40 24 69 55.5t42 51.5l-16 11q-13-21-42-51.5T457 655q-33-19-75-36l16 133q4 36-13.5 62t-46 39.5Q310 867 281 867zm0-19q24 0 48-11.5t38.5-33Q382 782 379 752l-75-636q-5-47-8-72t-15-25q-11 0-14 25t-9 72l-74 636q-3 30 11.5 51.5t38 33Q257 848 281 848zM79 963V806q0-20 9-29t22-9q16 0 22.5 11t8.5 20q4 17 18.5 40t44 40.5Q233 897 281 897t77.5-17q29.5-17 44-40.5T422 799q2-9 8.5-20t22.5-11q30 0 30 38v157zm20-19h365V806q0-18-11-18-9 0-12 16-5 19-21.5 45.5t-49.5 47Q337 917 281 917t-89-20.5Q159 876 143 849t-21-45q-3-16-13-16t-10 18z" fill="currentColor"/></svg>