<svg xmlns="http://www.w3.org/2000/svg" viewBox="-10 0 1062 1073"><path d="M26 1073q-20 0-28-4t-8-18q0-15 31-30.5t97-44.5q89-39 156-78t127-82.5Q461 772 526 721q29-22 65.5-52t72-64.5Q699 570 726 534q-13-4-26-9.5T673 509q-4 2-29.5 9.5t-63 17.5Q543 546 501 555.5t-80 16q-38 6.5-64 6.5-23 0-60.5-5.5t-80-13.5q-42.5-8-82-16.5t-67.5-15Q39 521 32 520q-21 18-27 24l-14-14q2-1 22-19.5t54.5-45q34.5-26.5 80-52.5t97.5-43.5Q297 352 352 352q63 0 115 18t95 43.5q43 25.5 80 50.5 28 19 47.5 32t47.5 22q16-25 27-49.5t13-47.5q-16-1-42-2t-54.5-5q-28.5-4-52-11T593 383q0-10 5.5-44.5T612 262q6-31 14-73.5t14.5-88Q647 55 649 14q12-5 32.5-9.5T732 0q24 0 49.5 5T821 16q-8 32-16 69.5t-15.5 75q-7.5 37.5-13 67.5t-6.5 47q41 14 84 16t77 2h59q23 0 42.5 6.5T1052 331q0 32-20 73t-53.5 85.5Q945 534 904.5 579t-82 85.5Q781 705 745 737t-61 50q-63 47-144 96t-185 95q-45 20-96 37t-98.5 30q-47.5 13-83.5 20.5t-51 7.5zm0-19q14 0 49.5-7.5t82-20.5q46.5-13 96-30t93.5-37q94-42 176.5-90T661 780q22-16 57-46.5t77-71q42-40.5 83.5-86T955 486q35-45 56-85t21-70q0-12-12-15t-29-3h-61q-37 0-89-4t-95-20q1-12 7-43.5t14-72q8-40.5 16-79T797 29q-8-4-26.5-6.5T732 20q-25 0-39 2t-24 5q-2 40-9 84.5T645 197q-8 41-14 71-8 41-12.5 69t-5.5 36q12 10 43 16.5t69 9q38 2.5 72 2.5 0 46-26.5 93.5T703 587q-41 45-85 83.5T538 737q-65 50-125 93.5t-128 83Q217 953 126 993q-61 26-89 39.5T9 1051q0 3 17 3zm325-495q39 0 67-27.5t28-66.5q0-38-28-65.5T351 372q-39 0-66 27.5T258 465q0 39 27 66.5t66 27.5zm70-7q88-15 150.5-33t82.5-23q-28-19-64.5-43T510 408q-43-21-90-31 19 14 32 36.5t13 51.5q0 28-12 50.5T421 552zm-139-1q-21-16-32-37t-11-49q0-28 12-50t30-36q-77 20-132.5 56T52 503q13 4 50.5 13t86 19q48.5 10 93.5 16z" fill="currentColor"/></svg>