<svg xmlns="http://www.w3.org/2000/svg" viewBox="0 0 598.1 533.8"><path d="M348.6 0c6.9 62.8-8.5 124.2-27 183.7 37.1-7 69.8-5.9 106.3 4.4 12.6 4.5 22.4 10.5 28.1 17.2 5.7 6.7 7.9 13.4 5.9 22.8-15.4 73.4-87.1 169.6-167.7 209.4-33.6 16.6-94.8 36.2-151.7 49.5-33.1 7.7-64.7 11.2-89 13.8-15.8 3-51.5-1.3-51.8 21 4.7 14.2 30.7 12 42.4 11.9 23.6-.2 56.4-2.9 91.9-8.7 74.8-12.2 164.2-36.4 214.6-67.6 119.9-74.7 208.1-182 247.5-318.5-67.9 14.6-135 14.3-201.2-6.6-1.6-43.1 9.9-82.9 24.8-122.7-26.8 2.7-47.9-1.7-73.1-9.6zM368 24.3c9.7 2.4 18.1 3.3 28.2 3.5-12.9 37.5-18.9 76.7-16.4 116.3C443 173.8 506 168.9 573 160.9c-41.3 128.3-132.6 219.8-231.8 281.3-45.7 28.4-134.8 53.2-208.1 65.2-1.4.2-2.7.4-4.1.6 5.8-1.1 11.6-2.3 17.5-3.7 57.9-13.6 119.3-33 155.5-50.9 86.9-42.9 160.3-140.7 177.2-221.7 3-14.3-1.2-27.9-9.8-38-8.6-10.1-21.2-17.2-35.7-22.4-25.2-8.9-56.9-11.9-87.3-9 14.1-47.2 23.2-91.6 21.6-138zM185.2 199h-1.7c-40.6.9-80.2 17.8-109.9 45.4-7 6.4-13.2 13.6-19.1 21-8.8 8.9-21.1 12.6-32.9 15.8-2.8.6-5.6 1.8-8.5 2-7-1-13 5.7-13.1 12.3-.4 4.6 3 9 7.5 9.9 10.7 2.1 21.5-.8 32.2.1 30.8-.4 61.9 2.7 91.4 11.6 28.2 6.9 58 10.4 86.7 4.3 20.8-4.9 41.5-10.1 62.1-15.8 42.8-11.6 85.8-23.6 130.1-28 6.5-.8 13-1 19.4-1.8 5.4-1.5 7.9-7.8 6.6-13-.8-4.9-5.1-9.4-10.3-8.8-5.3.5-10.7-.1-16.1-.4-38.1-2.8-74.9-14.3-110.3-28.1-28.6-11.1-58.1-21-88.7-24.8-8.4-1.2-16.9-1.7-25.4-1.7zm-29.6 29c.1 0 .1.1-.2.4-10.3 12.3-15.4 29.7-10.7 45.3 2.9 10 9.8 18.4 18.2 24.3-23.4-3-46.4-8.6-69.8-11.5-10.4-.7-20.8.1-31.2.2 8.6-5.2 15.1-12.9 21.5-20.5 19.3-19.4 44.9-31.6 71.3-38 .2 0 .7-.2.9-.2zm67.7 2l2.1.3c26.3 3.4 52.6 8.8 76.9 19.8 17.5 6.6 35.4 12.3 53.6 16.8-30.2 5.2-60.6 10.1-90.2 18.6-11.8 2.8-23.7 5.2-35.6 7.8 8-8.9 13.8-20.8 12.4-33-1.2-12.5-9.4-23.1-19.2-30.3z"/></svg>