<svg xmlns="http://www.w3.org/2000/svg" viewBox="-10 0 547 650"><path d="M-6 650l-4-21q32-19 60.5-47.5t46.5-68q18-39.5 18-90.5 0-26-3.5-58.5t-8-64.5Q99 268 94 242l-16-84q3-10 14.5-35.5t36.5-54Q154 40 198 20T309 0q67 0 110.5 20t68 48.5Q512 97 523 122.5t14 35.5l-55 492zM99 158h417q-3-12-14.5-34.5t-34.5-47q-23-24.5-61.5-41T309 19q-58 0-97.5 16.5t-63 41q-23.5 24.5-35 47T99 158zM25 630h437l53-453H103l10 61q4 26 9.5 58.5t9 66Q135 396 135 423q0 53-17.5 93.5t-43 69Q49 614 25 630z" fill="currentColor"/></svg>