<svg xmlns="http://www.w3.org/2000/svg" viewBox="0 0 254.6 390.6"><path d="M150.1 21.5c18.2 0 32.1 7.3 48 14.6 10.9 7.9 20.2 19.5 29.1 35.4l-162 .3C74.1 55.6 83.3 44 94.3 36c16.2-12.9 34.7-12.9 53.9-14.2v-.3h1.9zM231.2 82c-17.9 80.7-29.8 209-34.4 285.1H34.4c15.9-21.8 40-35.4 62.8-48-2.6-80-18.5-158.7-35.7-236.5l169.7-.6zM146.5 0c-36 .3-44 7.3-64.8 18.5-18.2 13.6-32.1 33.4-44 59.9h.7c20.2 82.7 32.4 157.1 36.4 228.5C36.8 322.8 7 356.2.1 388.6l217.3 2c3.6-73.7 16.9-228.2 37.4-312.2h-.8.7C233.5 27.1 199.4.7 146.5 0z"/></svg>