<svg xmlns="http://www.w3.org/2000/svg" viewBox="-10 0 404 1034"><path d="M207 928q-29 0-54.5-13.5t-39.5-39Q99 850 102 814l67-634q1-10 2-23.5t1-24.5q0-26-12.5-46T107 66q-20 0-32 4.5T54 80q-8 4-15.5 7.5T21 91q-8 0-19.5-6T-10 62q0-18 17-32T51 8q27-8 57-8 49 0 77.5 16t42 40.5q13.5 24.5 18 52T252 159l59 654q3 36-11.5 61.5T260 914q-25 14-53 14zm0-20q35 0 62-25t23-70l-60-651q-2-24-6-48.5t-15.5-46Q199 46 175 33t-67-13q-21 0-44 5.5t-39 15Q9 50 9 62q0 5 4.5 7t7.5 2q5 0 10.5-2.5T44 63q11-5 25.5-11t37.5-6q36 0 54 12t24.5 31q6.5 19 6.5 41 0 14-1.5 26t-2.5 23l-66 634q-5 44 22 69.5t63 25.5zm0 126q-64 0-106-24t-62-60q-20-36-20-74 0-20 9-29t22-9q16 0 22.5 11t8.5 20q4 17 15 40.5t37 41q26 17.5 74 17.5t73.5-17.5q25.5-17.5 37-41T333 869q2-9 8-20t22-11q14 0 22.5 9t8.5 29q0 38-20 74t-61.5 60q-41.5 24-105.5 24zm0-20q57 0 94.5-21t55.5-53q18-32 18-64 0-18-11-18-8 0-13 16-4 14-11.5 33.5T317 945q-15 18-41.5 30T207 987q-42 0-68.5-12t-42-30.5Q81 926 73.5 907T62 874q-4-16-13-16-10 0-10 18 0 32 18 64t55 53q37 21 95 21z" fill="currentColor"/></svg>