<svg xmlns="http://www.w3.org/2000/svg" viewBox="0 0 208 594.5"><path d="M105.9 540.2c-20 0-34.6-11.5-44-34.5-9.4-23-14.1-59.4-14.1-109.1 2.9-50.9 7.5-104.3 14.1-160.1L76 119.2c6.1-32.6-15.7-63.3-65.4-92.3C-4.5 17.5-3.5 8.6 13.6 0 82.9 15.9 124 57.2 137.1 124l12.8 112.4c6.5 55.8 11.2 109.2 14.1 160.1 0 49.7-4.7 86.1-14.1 109.1-9.4 23-24 34.6-44 34.6zm.6-29.4c12.6 0 21.5-10.3 26.6-30.9 5.1-20.6 7.6-48.4 7.6-83.4-1.2-50.9-5.3-104.3-12.2-160.1l-13.4-121.6c-.8-6.5-3.9-9.8-9.2-9.8s-8.4 3.3-9.2 9.8L83.3 236.5c-6.9 55.8-10.8 109.2-11.6 160.1-.4 35 2.1 62.8 7.6 83.4 5.5 20.5 14.6 30.8 27.2 30.8zm0 83.7C45.4 590.1 10.6 572.7 2 542.6c2-15.5 11.2-18.7 27.5-9.8 12.2 14.3 37.9 24.6 77 31.2 39.1-6.5 64.8-16.7 77-30.6 16.3-9.4 24.4-6.3 24.4 9.2-6.5 30.1-40.3 47.5-101.4 51.9z"/></svg>