<svg xmlns="http://www.w3.org/2000/svg" viewBox="-10 0 283 1035"><path d="M170 1035q-43 0-74-26t-31-91V716l-2-28q-2-8-5.5-20.5T51 648L14 534q-7-25-12-44t-5-26q0-19 10.5-26.5T29 430q9 0 18.5 4.5T70 452l132 139V188q0-32-4-60t-19.5-45.5Q163 65 127 65q-25 0-42 5T53.5 80.5Q39 86 21 86q-8 0-19.5-6T-10 57q0-18 23-31T69 6.5Q102 0 132 0q50 0 78.5 17.5t42 46Q266 92 269.5 125t3.5 63v730q0 47-13.5 72.5t-37 35Q199 1035 170 1035zm0-20q36 0 60-18.5t24-76.5V188q0-28-3.5-57.5t-15-54.5q-11.5-25-36-40.5T132 20q-23 0-52 5.5T30 40Q9 49 9 57q0 5 4.5 7t8.5 2q22 0 45.5-10T127 46q34 0 53.5 13T208 93.5q8 21.5 10 46.5t2 48v451L57 467q-10-10-15.5-13.5T29 450q-4 0-8.5 3T16 464q0 5 4.5 23T33 528l37 114q3 11 6.5 22t4.5 19q4 24 4 55v182q0 51 25 73t60 22z" fill="currentColor"/></svg>