<svg xmlns="http://www.w3.org/2000/svg" viewBox="-10 0 322.514 1035"><path d="M207 1035q-29 0-54.5-12.5t-40.5-38Q97 959 101 918l68-724q1-12 2-26.5t1-26.5q0-29-12.5-52.5T107 65q-20 0-32 5T54 80q-8 5-15.5 8T21 91q-8 0-19.5-6T-10 62q0-19 17-32.5T51 8q27-8 57-8 49 0 77.5 17.5t42 45.5q13.5 28 18 58t6.5 56l60 741q3 41-11.5 66.5t-40 38Q235 1035 207 1035zm0-20q35 0 62.5-22.5T293 920l-61-741q-2-27-6-54.5T210.5 73Q199 49 175 34.5T108 20q-21 0-44 5.5t-39 15Q9 50 9 62q0 5 4.5 7t7.5 2q5 0 10.5-2.5T44 63q11-5 25.5-11t37.5-6q36 0 54 13.5T185.5 95q6.5 22 6.5 46 0 15-1.5 28.5T188 196l-67 724q-5 49 22.5 72t63.5 23z" fill="currentColor"/></svg>