<svg xmlns="http://www.w3.org/2000/svg" viewBox="0 0 180.5 594.5"><path d="M116.6 594.5c-22 0-38.1-12.7-48.4-38-10.3-25.3-15.5-65.3-15.5-120 3.1-56 8.3-114.8 15.5-176.2l15.5-129.1c6.7-35.9-17.3-69.7-72-101.6C-4.9 19.3-3.8 9.4 15 0c76.2 17.5 121.5 63 135.9 136.5L165 260.3c7.2 61.4 12.3 120.2 15.5 176.2 0 54.7-5.2 94.7-15.5 120-10.3 25.4-26.5 38-48.4 38zm-2-32.2c13.9 0 24.1-11.3 30.6-34 6.5-22.6 9.8-53.2 9.8-91.8-1.3-56-5.8-114.8-13.5-176.2l-14.8-133.8c-.9-7.2-4.3-10.8-10.1-10.8s-9.2 3.6-10.1 10.8L91.7 260.3c-7.6 61.4-11.9 120.2-12.8 176.2-.4 38.6 1.9 69.2 7.1 91.8 5.1 22.6 14.7 34 28.6 34z"/></svg>