<svg xmlns="http://www.w3.org/2000/svg" viewBox="-10 0 294 1035"><path d="M137 1035q-7 0-20.5-4.5T103 1001V379q-26-9-43-29.5T34 305q-9-24-13-45t-5-31h-26v-9q0-14 5.5-35T16 142q15-22 42-37t69-17V49H91V29h36V0h20v29h36v20h-36v39q42 2 69 17t41.5 37q14.5 22 20.5 43t6 35v9h-26q-1 10-5 31t-13.5 45q-9.5 24-26.5 44.5T170 379v622q0 25-13 29.5t-20 4.5zM10 209h253q-2-9-7.5-26T237 148.5Q224 131 200 119t-63-12q-39 0-63 12t-37.5 29.5Q23 166 17 183t-7 26zm127 156q30 0 49.5-16.5t30.5-40q11-23.5 15.5-46T238 229H35q2 11 6.5 33.5t15.5 46q11 23.5 30 40t50 16.5zm0 651q3 0 8.5-2.5t5.5-12.5V384q-4 0-7 .5t-7 .5q-4 0-7.5-.5t-6.5-.5v617q0 10 5.5 12.5t8.5 2.5z" fill="currentColor"/></svg>