<svg xmlns="http://www.w3.org/2000/svg" viewBox="0 0 173.6 594.5"><path d="M75.4 0h24.3v39.7h30.8v22.7H99.8v13c21.6 3.2 38 9.9 49.1 19.9 11.1 10 19.3 30.4 24.7 61.2h-18.7c0 36.2-6.4 68-19.1 95.3-12.7 27.3-24.7 52.6-36.1 75.8v266.9H74.6V327.7c-12.4-23.3-24.9-48.5-37.3-75.8-12.4-27.3-18.7-59.1-18.7-95.3H0c5.9-30.8 14.3-51.2 25.1-61.2s27.6-16.6 50.3-19.9v-13H43.8V39.7h31.6V0zM33.3 132.2h107.9c-8.7-21.1-26.8-31.6-54.3-31.6-27.1 0-45 10.5-53.6 31.6zm9.7 24.3c0 45.4 14.6 91.7 43.8 138.7 29.7-47 44.3-93.3 43.8-138.7H43z"/></svg>