<svg xmlns="http://www.w3.org/2000/svg" viewBox="-10 0 1062 1035"><path d="M511 1035q-7 0-20.5-4.5T477 1001V544q-19 3-36.5 6.5T404 558q-31 5-52.5 8t-50.5 3q-38 0-66-25t-50-50q-14-15-24-25.5T142 458q-7 0-24 3.5T81 465q-19 0-39.5-5t-35-17Q-8 431-8 411q0-12 11.5-30T45 353l-14-17-33-37q-10-10-7.5-25.5T13 256q16-2 26 11l31 34 36 41 61-69q15-17 31-15 20 2 22.5 17t-7.5 26l-50 56q20 10 37 26t31 32q16 16 29 27.5t24 11.5q11 0 25-3.5t31-9.5q25-8 58.5-16t78.5-11v-35q-26-9-43-29.5T407.5 305q-9.5-24-13.5-45t-5-31h-25v-9q0-14 5.5-35t20.5-43q15-22 42-37t69-17V49h-36V29h36V0h19v29h36v20h-36v39q42 2 69 17t42 37q15 22 21 43t6 35v9h-26q-1 10-5 31t-13.5 45q-9.5 24-26.5 44.5T544 379v37q40 5 74 19t65 28q32 14 56 21.5t48 8.5q34 2 76-5t80-7q24 0 49.5 3.5t42.5 11q17 7.5 17 18.5 0 23-24.5 32.5t-65.5 12q-41 2.5-92 2.5-19 0-51-2.5t-68-6.5q-29-3-67-5.5t-75.5-5Q571 539 544 539v462q0 25-13.5 29.5T511 1035zM384 209h253q-2-9-7.5-26T611 148.5Q598 131 574 119t-63-12q-39 0-63 12t-37.5 29.5Q397 166 391 183t-7 26zm127 156q30 0 49.5-16.5t30.5-40q11-23.5 15.5-46T612 229H409q1 11 5.5 33.5t15.5 46q11 23.5 30.5 40T511 365zM66 347l16-3-26-30-27-30q-7-7-11-8t-6 0q-5 5 6 17l27 30zm78 2l49-55q10-12 6-16-5-5-17 8l-52 59q9 2 14 4zm157 200q26 0 48.5-3t51.5-8q19-3 37.5-7t38.5-7v-90q-43 2-75 10t-56 16q-19 6-34 10t-28 4q-17 0-33-14.5T218 428q-22-23-48.5-44.5T110 362q-37 0-59 8.5T20 391q-9 12-9 20 0 14 11.5 21.5t28 10.5q16.5 3 30.5 3 22 0 38-4t24-4q14 0 27.5 13t29.5 30q19 23 44 45.5t57 22.5zM103 403q-9 0-15.5-4t-6.5-9q0-5 6.5-9.5T103 376q9 0 15.5 4.5t6.5 9.5q0 5-6.5 9t-15.5 4zm408 613q2 0 8-2.5t6-12.5V384q-4 0-7.5.5t-6.5.5q-4 0-7.5-.5t-7.5-.5v617q0 10 6 12.5t9 2.5zm359-474q21 0 48-.5t52-3.5q25-3 41-8t16-14q0-5-24-10t-60-5q-34 0-76 6t-79 6q-26 0-53.5-9.5T676 480q-29-13-62-26.5T544 435v84q28 0 65.5 2.5T685 527q38 3 68 6 37 4 67.5 6.5T870 542z" fill="currentColor"/></svg>