<svg xmlns="http://www.w3.org/2000/svg" viewBox="0 0 595.3 537.6"><path d="M298.1 90.9c24.8 0 41 9.9 49 28.7H250c7.7-18.8 23.6-28.7 48.1-28.7zm39.2 50.8c.6 41-12.3 83.1-39.2 125.6-26.3-42.5-39.5-84.6-39.5-125.6h78.7zm27.2 167.5c19.4 0 38.6 2.7 57.7 8.1 28.7 8.1 50.2 12.9 66.4 14.9 16.1 2.1 41.6 4.8 75.9 6.9-22.4 2.4-44.8 3.6-66.4 3.6-21.5 0-48.7-2.1-82.2-6.9-16.7-2.7-32.3-3.9-46.6-3.9-14.7 0-28.1 1.2-40.7 3.9-5.7.9-12.9 1.5-19.1 2.4v-22.7c8.4-1.2 15.8-3 24.5-4.2 7.5-1.2 15.2-1.5 22.7-1.8 2.4-.3 5.1-.3 7.8-.3zM56.2 285.8c16.4 0 42.2 8.7 76.5 26.3 22.1 10.8 48.7 16.4 79.2 16.4 11.7 0 24.2-.9 37.1-2.7 12-2.4 25.1-4.8 37.7-6.9v22.7c-16.1 2.4-33.8 4.8-53.5 6.9-8.7 1.2-17.3 1.5-26 1.5-27.8 0-52.6-5.1-74.4-15.2-23-12.9-45.4-19.1-67.6-19.1-10.5 0-20.9 1.5-31.1 4.2-8.7-.9-13.2-6.3-12.3-14.9 5.1-12.3 15.8-18.5 32.3-19.1.6-.1 1.2-.1 2.1-.1zM287.6 0v36.8h-28.1v20h28.1v11.4c-20.6 3-35.9 9.3-45.4 18.2-9.9 9.3-17.3 27.2-22.7 55.3h17.3c0 32.6 5.4 61.6 16.7 86.4 11.1 24.5 21.8 47.2 33.2 68.2v4.5c-2.4.3-4.5.3-7.2.6-24.5 5.1-47.2 7.5-67.9 7.5-31.1 0-57.4-5.7-78.9-17-22.4-9.6-44.8-17.9-67.3-26 18.5-14.4 26.6-26 25.4-35-1.2-9.3-6.6-14.4-16.7-14.9h-.6c-9.9 0-18.8 14.9-27.2 45.4-7.1-27-16.4-40.4-27.8-40.4-1.8 0-3.6.3-5.4.9-13.5 8.4-8.7 25.7 14.1 50.8C9.3 283.1 0 296 0 312.1c0 15.5 13.8 24.8 40.1 26.9 7.5-1.8 14.9-2.7 22.4-2.7 21.8 0 45.1 7.5 70.3 22.7 10.5 7.5 29.6 11.1 58 11.1 24.5 0 56.2-2.7 95.1-8.4H286.8v175.8h22.7V356.7c27.2-6 54.7-9 82.2-9 12.3 0 24.5.6 36.5 1.8 33.5 3.6 61.3 5.4 83.4 5.4 9.3 0 17.6-.3 25.1-.9 38.9-.9 58.6-4.2 58.6-10.5-10.8-9.6-25.4-16.4-44.5-20-41 0-80.4-7.5-118.1-21.2-18.5-6.6-40.4-9.9-65.5-9.9-17.6 0-37.1 1.8-57.7 4.8v-.9c10.2-20.9 21.8-43.7 33.2-68.2 11.4-24.8 16.4-53.8 16.4-86.4h17.6c-4.8-28.1-12.9-46-22.7-55.3-10.2-9-25.1-15.2-44.5-18.2V56.8h27.8v-20h-27.8V0h-21.9z"/></svg>