<svg xmlns="http://www.w3.org/2000/svg" viewBox="0 0 108.6 603.2"><path d="M106.6 140.5C94.3 311.6 88.4 413.7 88.8 447c-.4 47.7 4.8 94.7 15.8 141.1 1.3 9.6-2.8 14.7-12.5 15.1H17.9c-10.1 0-14.4-5-13.1-15.1 11-46.4 16.2-93.4 15.8-141.1-.9-33.3-7.4-135.4-19.7-306.5-1.8-30.7-.9-62.6 2.6-95.9C8.8 14.9 26.7 0 57.3 0s46.6 14.9 47.9 44.6c4 33.3 4.4 65.2 1.4 95.9zm-23.7-88c-.4-13.1-9.8-22.5-28.2-28.2C35.9 30 26.5 39.4 26.5 52.5c-3.5 28-4.4 57.3-2.6 88C36.1 311.6 42.7 413.7 43.5 447c.4 47.7-4.2 92.1-13.8 133.2h49.9C70 539.1 65.4 494.7 65.9 447c.4-33.3 6.6-135.4 18.4-306.5 2.6-30.7 2.1-60-1.4-88z"/></svg>