<svg xmlns="http://www.w3.org/2000/svg" viewBox="-10 0 248 1029"><path d="M21 1029q11-28 23-67t20-80q8-41 8-74 0-29-9.5-82T39 611q-11-54-22.5-111.5t-19-112Q-10 333-10 288q0-61 12-113t30.5-91.5Q51 44 73 22t41-22q19 0 41 22t40.5 61.5Q214 123 226 175t12 113q0 45-7.5 99.5t-19 112Q200 557 189 611q-14 62-24 115t-10 82q0 33 8.5 74t20.5 80q12 39 23 67zm29-20h128q-5-16-15.5-48.5t-18.5-73q-8-40.5-8-79.5 0-31 9.5-84.5T169 607q12-54 23-111t18.5-111q7.5-54 7.5-97 0-71-17-132.5T159 58q-26-38-45-38T69 58q-25 36-42.5 98T9 288q0 43 7.5 97t19 111Q47 553 59 607q13 63 23 116.5T92 808q0 29-6.5 66T69 947q-10 36-19 62z" fill="currentColor"/></svg>