<svg xmlns="http://www.w3.org/2000/svg" viewBox="0 0 511.2 412.8"><path d="M491.1 6c13.4 20.6 20.1 55.6 20.1 105 0 59.9-7.2 99-21.6 117.2-24 2.4-50.1-.7-78.4-9.3-78.1-16.3-149.3-18.7-213.5-7.2-1 29.2 3.7 54.3 14 75.1 10.3 20.9 20.3 40.5 29.8 59 9.6 18.5 26.1 27.2 49.6 26.2 13.4 4.3 18.7 12.7 15.8 25.2-2.9 12.5-12.7 17.5-29.5 15.1-27.3-19.7-53.2-46.7-77.7-81.2-24.4-34.5-41-73.6-49.6-117.2-3.4-12.5-49.1-26.6-137.3-42.4C4.3 169.9 0 151.2 0 115.3c0-36 2.6-54.9 7.9-56.8 13.4-7.7 34.4-14.9 62.9-21.6s57.4-15.1 86.6-25.2c67.1 11 119.1 16.5 156 16.5 49.9 0 82.2-5.5 97.1-16.5 25-13.4 51.8-15.3 80.6-5.7zM194.9 179.3c103.5-6.7 193.2 1.4 268.9 24.4 12.5 0 18.7-7.9 18.7-23.7V50.6c-1-14.9-7-23.2-18-25.2-15.8-.5-33.6 3.7-53.2 12.6-19.7 8.9-56.6 13.8-110.7 14.7-15.8 0-34.3-1.6-55.4-4.7s-50.6-7.1-88.4-11.9c-22 9.1-58.2 20.6-108.6 34.5-10.6 2.5-16.1 8.3-16.6 17.4v49.6c0 7.7 3.8 12.2 11.5 13.7l106.4 25.9v-49.6c0-14.4 7.5-21.6 22.6-21.6 15.1 0 22.6 6.7 22.6 20.1v53.2z"/></svg>