<svg xmlns="http://www.w3.org/2000/svg" viewBox="-10 0 977 856"><path d="M524 856q-25 0-43.5-18.5T462 794q0-17 9-31-12-10-33.5-30T392 687q-24-26-44-54-33-48-55-107t-32-111q-44-2-95.5-12T67 377q-47-16-77-35V128q20-3 63.5-13.5t99-33Q208 59 263 20q27 9 75.5 24t107 26.5Q504 82 560 82q35 0 80.5-7.5t94-20Q783 42 829 27.5T911 0q12 21 25 56t22 80q9 45 9 94 0 51-11.5 101t-28 90.5Q911 462 895 487q-44-16-107.5-32.5t-134-28Q583 415 520 415H280q9 50 30.5 105T364 621q32 46 66.5 80t51.5 48q19-17 42-17 25 0 43.5 18.5T586 794q0 25-18.5 43.5T524 856zm362-392q7-12 21.5-46t27.5-82.5Q948 287 948 230q0-41-7.5-80.5T923 77q-10-33-20-53-13 5-51.5 17t-90 26.5Q710 82 656.5 92T560 102q-74 0-149.5-17.5T265 42q-52 37-103 58.5t-91.5 32Q30 143 9 145v186q38 20 83.5 33.5t88.5 21q43 7.5 76 9.5-3-22-3-42 0-48 9-88t18-59l18 7q-8 16-16.5 53t-8.5 88q0 19 3 42h243q64 0 133 11t130.5 26.5Q845 449 886 464zM524 836q17 0 29.5-12.5T566 794q0-17-12.5-29.5T524 752q-17 0-29.5 12.5T482 794q0 17 12.5 29.5T524 836z" fill="currentColor"/></svg>