<svg xmlns="http://www.w3.org/2000/svg" viewBox="-10 0 1003 1001"><path d="M270 1001v-59h38q13-21 32-55t35-76.5q16-42.5 22-91.5h61V246H104l73 411H-10l84-470h384V34q0-25 13.5-29.5T491 0q7 0 20.5 4.5T525 34v97h24q6-6 23-27.5T603 64q20 5 45.5 13t50 15q24.5 7 42.5 13 9-19 18.5-23.5T776 77q13 0 29.5 12t16.5 32q0 20-12.5 29.5T794 160H679v27h229l85 470H805l74-411H679v106h34l10 19-14 24q2 2 4 5t3 6l14-12 14 24-21 15q1 3 1 8t-1 18.5q-1 13.5-6 28t-17 25Q688 523 667 523t-33-10.5q-12-10.5-17-25t-6-28q-1-13.5-1-18.5v-8l-20-15 15-24 12 12q2-3 4.5-6t4.5-5l-15-24 10-19h38V246H525v473h61q6 49 22 91.5t34.5 76.5q18.5 34 32.5 55h37v59zm207-814h28V34q0-10-5.5-12.5T491 19q-3 0-8.5 2.5T477 34zm90-47h217q2 1 10-3t8-16q0-8-8-16.5T777 96q-8 0-14.5 8.5T753 125h-14L610 87q-5 6-13.5 16.5l-17 21L567 140zm-42 47h134v-27H525zm-425 40h559v-20H96zm579 0h203l4-20H679zM13 637h141L84 246h-1zm464 305h28V246h-28zm352-305h140l-70-391zM641 385q6-3 13-4t13-1q6 0 13 1t13 4l10-14h-72zm63 48q-2-20-13-27t-24-7q-13 0-24 7t-13 26q7-11 17-15t20-4q10 0 20 4.5t17 15.5zm-67 49q5-19 15-24t15-5q5 0 15 5t15 24q5-11 6-24t1-17v-6l-13 9q-4-8-11.5-10.5T667 431q-5 0-12 2.5T644 444l-14-8v5q0 4 1 17t6 24zm30 22q8 0 14-3-1-21-6.5-24.5T667 473q-2 0-8 3.5t-7 24.5q7 3 15 3zM331 942h22q20-32 43.5-78.5T426 763h32v-25h-44q-11 65-36 117.5T331 942zm299 0h21q-22-34-47-86.5T569 738h-44v25h32q5 54 29 100.5t44 78.5zm-105 0h82q-20-32-39.5-72.5T540 782h-15zm-149 0h82V782h-15q-9 47-28.5 87.5T376 942zm-86 39h403v-20H290z" fill="currentColor"/></svg>