<svg xmlns="http://www.w3.org/2000/svg" viewBox="0 0 595.3 583.6"><path d="M368.1 15.9L459 31.8c3.2-9.4 8.4-14 14.9-14 5.8 0 10.1 1.3 11.7 5.8 1.6 4.5.3 9.4-1.9 14.9-2.3 5.5-11 8.8-26.6 8.8H352.2c9.4-8 14.6-18.7 15.9-31.4zm-27.9 43.5V85h-30.5V59.4h30.5zm8.1 115.5c3.2 0 7.5.3 13.6 1-.3 1.9-3.6 3.2-10.7 3.2h-6.1c-6.8 0-11-1.3-11.7-3.2 5.8-.6 11-1 14.9-1zm0 16c3.2 0 6.2 2.6 9.7 7.8-3.6-3.2-6.8-4.9-10.4-4.9-3.6 0-6.8 1.6-10.4 4.9 3.6-5.3 7.5-7.8 11.1-7.8zm-25.3-2h.3c1.9.3 1.9 1.9 1 4.9.6 3.2 0 5.2-1.6 5.2 0 0 0-.3-.3-.3-1.6 0-1.9-1.3-2.9-2.9-.6-1.3-.6-2.3 0-3.9.9-1.7 1.8-3 3.5-3zm50.3 0c1.6 0 2.9 1.3 3.6 2.9.6 1.6.6 2.6 0 3.9-1 1.6-2.3 2.9-3.9 2.9-.3 0-.3.3-.3.3-1.3 0-1.3-1.9-.6-5.2-1-2.9-1-4.5 1-4.9-.2.1-.2.1.2.1zm-25-1c-4.5 0-9.4 2.6-14 8.8v7.1c4.5-3.9 9.1-5.8 14-5.8 4.5 0 9.1 1.9 13.6 5.8v-7.1c-4.5-6.2-9.4-8.8-13.6-8.8zm0 14c-1.6 0-3.6 0-5.2 1-3.2 1.9-4.9 5.5-4.9 10.7l2.9 15.9 1.9-1-1-9.1c-.6-6.2-.3-10.7 1.9-12.7 1.3-1 2.6-1.6 4.2-1.6 1.3 0 2.6.6 3.9 1.6 2.3 1.9 2.6 6.5 1.9 12.7l-1 9.1 1.9 1 1.9-15.9c0-5.2-1-8.8-3.9-10.7-1.3-1-3.2-1-4.5-1zm4.2-20.1c.6 0 1.6 0 2.6.3 7.5 4.5 11.4 13 10.7 24.7-.3 11.4-2.3 18.8-5.8 22.7-3.6 3.9-7.5 5.8-11.7 5.8-4.2 0-8.4-1.6-12-5.8-3.6-4.2-5.2-12.3-5.8-23.7-1-11.4 1.9-19.2 9.7-23.7 1-.3 1.9-.3 2.9-.3 1.9 0 3.6.3 5.2.3 1.3 0 2.6-.3 4.2-.3zM81.1 172l44.5 164.2H35.7L81.1 172zm433 0l44.8 164.2h-89.3L514.1 172zM286 437.2v120.7h-45.8c10.7-39.6 17.2-79.5 19.8-120.7h26zm49.3 0c2.6 41.2 8.8 81.1 19.8 120.7h-45.4V437.2h25.6zM357 0c-2.3 19.8-7.5 32.1-14.9 36.7-3.6 2.3-8.1 3.6-14.6 4.9h-17.9V14.9c0-8.8-4.2-13-12-13s-11.7 3.6-11.7 12V85H39.6c-10.7 9.4-10.7 18.5 0 27.6h31.5v27.9c0 3.9-.3 8.4-1.9 13.6L18.8 329.4c-1 1.9-4.2 5.2-10.1 8.8-5.5 3.6-8.8 7.1-8.8 11 0 3.9 3.6 6.8 11 9.7h139.2c7.5-2.9 11-5.8 11-9.7 0-3.9-3.9-7.8-10.1-11-6.2-3.2-8.8-6.5-8.8-8.8L91.9 154.2c-1.6-5.2-2.9-9.7-2.9-13.6v-27.9h197v293.7c0 4.5-6.8 7.5-19.8 10.1-13.3 2.3-20.8 5.5-21.7 7.8-2.3 18.8-5.8 45.8-12 81.1-4.5 18.2-13.3 44.1-24.7 78.2h179.8c-11.4-34.7-20.1-60.4-24.7-78.2-6.5-35.1-10.7-61.7-12.7-81.1-1-2.3-7.5-5.5-20.8-7.8-13.6-2.6-19.8-5.5-19.8-10.1V112.6h31.5V171c-5.8 0-10.7 1.6-14.6 3.9 1 2.6 3.2 4.2 5.8 5.2v1.9l-4.9 4.9c-1.9-.6-3.6-.6-4.9-.6-4.5 0-6.8 2.6-7.1 7.5 0 5.5 1.3 8.4 5.2 8.4.6 0 1.6 0 2.6-.3l1.9 12.7c.6 6.5 2.3 12.7 6.2 17.9 3.9 5.2 9.4 7.8 16.9 7.8 7.1 0 13-2.6 16.6-7.8 3.9-5.2 5.5-11.4 6.2-17.9l1-12.7c1 .3 1.9.3 2.9.3 3.9 0 5.8-2.9 5.8-8.4 0-4.9-2.6-7.5-7.8-7.5-1.3 0-3.2 0-4.9.6l-4.2-4.9v-1.9c2.6-1 4.9-2.6 6.2-5.2-4.5-2.3-9.7-3.9-14.9-3.9v-58.4h150.3v27.9c0 3.9-1.3 8.4-2.9 13.6l-49.3 175.3c-1.3 1.9-5.2 5.2-11 8.8-5.8 3.6-7.8 7.1-7.8 11 0 3.9 3.2 6.8 10.7 9.7h139.6c7.5-2.9 10.7-5.8 10.7-9.7 0-3.9-2.6-7.8-8.8-11-6.2-3.2-9.4-6.5-10.1-8.8l-50.3-175.3c-1.6-5.2-1.9-9.7-1.9-13.6v-27.9h31.5c10.7-9.1 10.7-18.2 0-27.6H355.1V59.4H457c21.4 0 33.8-4.9 37.7-14 3.9-9.1 4.9-18.2 1.9-26.6-2.9-8.1-11-12-22.7-12s-18.8 3.9-21.7 13L357 0z"/></svg>