<svg xmlns="http://www.w3.org/2000/svg" viewBox="-10 0 442 1001"><path d="M-10 1001v-59h37q14-21 33-55t35-76.5q16-42.5 21-91.5h61V229q-46-12-75.5-42.5t-44.5-67Q42 83 42 53q0-12 5.5-25T70 15q22 0 30 32 3 13 11 36t23.5 45.5Q150 151 177 163V34q0-25 13.5-29.5T211 0q7 0 20.5 4.5T245 34v685h61q5 49 21 91.5t35 76.5q19 34 33 55h37v59zm207-59h28V34q0-10-5.5-12.5T211 19q-3 0-8.5 2.5T197 34zm-20-733v-26q-34-11-53-35.5t-28.5-51Q86 70 82 52q-2-7-4.5-12T70 35q-5 0-6.5 6.5T62 53q0 26 13 58.5t38.5 60Q139 199 177 209zM50 942h22q21-32 44.5-78.5T146 763h31v-25h-44q-10 65-35 117.5T50 942zm300 0h21q-22-34-47-86.5T289 738h-44v25h31q6 54 29.5 100.5T350 942zm-255 0h82V782h-14q-9 47-28.5 87.5T95 942zm150 0h81q-20-32-39-72.5T259 782h-14zM9 981h404v-20H9z" fill="currentColor"/></svg>