<svg xmlns="http://www.w3.org/2000/svg" viewBox="0 0 201.7 594.6"><path d="M201.7 594L0 594.6c12.2-9.9 22.8-25.5 31.8-46.7 7.2-18.1 14.4-36.6 21.7-55.5 1.8-15.8 6.5-27.1 14.2-33.8 7.2-4.5 14.2-9 21-13.5V160.7c0-10.4-7.2-19.6-21.7-27.8-18.5-9.5-29.6-17.4-33.2-23.7-14.8-14.4-22.3-34-22.3-58.8 0-11.3 2-21.4 6.1-30.5 10.4 0 16 5.9 16.9 17.6-.5 10.8-.7 21.9-.7 33.2 11.3 28.4 30.2 42.6 56.9 42.6L90 3.7c8.1-4.1 14.7-4.7 19.6-2l.7 443.4c.5 1.4 8.3 5.9 23.7 13.5 8.1 4.5 15.3 14.9 21.7 31.1 1.8 18.5 8.1 37.5 19 56.9l27 47.4zm-35.2-17c-5.9-5.4-13.1-22.1-21.7-50.1-7.2-23.9-16.7-37.7-28.4-41.3v90.7l50.1.7zm-79.8-.6c0-60.5-2.7-89.8-8.1-88-5.4 1.8-12.2 14.7-20.3 38.6-8.1 28-15.1 44.7-21 50.1l49.4-.7z"/></svg>