<svg xmlns="http://www.w3.org/2000/svg" viewBox="-10 0 1071 1073"><path d="M35 1073q-20 0-28-4t-8-18q0-15 31-30.5t97-44.5q89-39 156.5-78T410 815.5Q469 772 535 721q34-26 75.5-61t80.5-75.5q39-40.5 66-82.5t30-81q-17-1-43-2t-54.5-5q-28.5-4-52-11T602 383q0-10 5.5-44.5T621 262q6-31 14-73.5t14.5-88Q656 55 658 14q12-5 32.5-9.5T741 0q25 0 50.5 5T830 16q-7 32-15.5 69.5t-16 75Q791 198 786 228t-7 47q40 14 84 16t77 2h59q22 0 42 6.5t20 31.5q0 32-20 73t-53.5 85.5Q954 534 913.5 579t-82 85.5Q790 705 753.5 737T693 787q-63 47-144 96t-185 95q-45 20-96 37t-98.5 30q-47.5 13-83.5 20.5t-51 7.5zm0-19q14 0 49.5-7.5t82-20.5q46.5-13 96.5-30t94-37q94-42 176.5-90T670 780q21-16 56.5-46.5t77.5-71q42-40.5 84-86t77-90.5q35-45 56-85t21-70q0-12-12-15t-30-3h-60q-25 0-57-1.5t-66-6.5q-34-5-62-16 1-12 7-43.5t14-72q8-40.5 16.5-79T807 29q-22-9-66-9-25 0-39 2t-24 5q-3 40-9.5 84.5t-14 85.5q-7.5 41-13.5 71-9 41-13.5 69t-4.5 36q12 10 42.5 16.5t69 9Q773 401 807 401q0 46-26.5 93.5T713 587q-41 45-85.5 83.5T547 737q-65 50-124.5 93.5t-128 83Q226 953 135 993q-60 26-88 39.5T19 1051q0 3 16 3zm-45-454l96-124h511v124zm40-19h548v-85H96z" fill="currentColor"/></svg>