<svg xmlns="http://www.w3.org/2000/svg" viewBox="-10 0 741 1000"><path d="M166 1000V583L-5 612l-3-18 174-31v-70l-176-58 6-18 170 55v-28q13-20 39-41t63-36q37-15 83-17V175H216q0-9 2-29t9-45q7-25 22.5-48t42-38Q318 0 360 0t69.5 15q27.5 15 44 37.5T498 100q8 25 10.5 45.5T511 175H370v175q55 2 93.5 21t61 41q22.5 22 30.5 32v16l171-43 5 18-176 45v94l176 32-3 18-173-30v406zm70-844h255q0-15-6.5-38t-21-46Q449 49 424 34t-64-15q-38 0-62.5 15t-38 38Q246 95 241 118t-5 38zm-51 824h351V452q-2-3-14.5-16T487 407.5q-22-15.5-53.5-27T360 369q-41 0-75.5 13.5t-60 32.5Q199 434 185 452z" fill="currentColor"/></svg>