<svg xmlns="http://www.w3.org/2000/svg" viewBox="0 0 331.4 594.6"><path d="M61.2 324.1c-.9 12.1-.9 25.8 0 41H10.9c-14.1 11-14.6 21.9-1.3 32.7h55.9l31.4 196.8h138.6l31.1-196.8h56.2c9.3-13.2 8.8-24.1-1.3-32.7h-51.3c1.5-15.2 1.9-28.9 1-41h51.6c11.7-10.6 11.5-21.3-.7-32.1h-50.9c-1.5-33.5-18.9-58.2-51.9-74.1l-38.7-19.2V80h78c-4.4-21.4-13.9-40-28.4-55.9C215.6 8 194.2 0 166 0c-28 0-49.4 8-64.2 24.1-14.5 15.9-23.9 34.3-28 55.3h77.7v119.4L112.8 218c-32.9 15.9-50 40.6-51.6 74.1H10.3c-13.2 10.8-13.2 21.5 0 32.1h50.9zm39.3-260.6c15-29.3 36.8-44 65.5-44s51 14.7 67.1 44H100.5zM166 228.2c18.1.4 35.9 6.8 53.6 19.2 17.9 12.3 26.8 41.3 26.8 87 0 25.4-10 104.8-30.1 238.4h-99.5C96.2 439.2 86 359.5 86 333.7c0-45.2 8.8-74 26.5-86.3 17.8-12.4 35.7-18.8 53.5-19.2z"/></svg>