<svg xmlns="http://www.w3.org/2000/svg" viewBox="0 0 585 365"><path d="M338.6 159.4v65.5H2.6l35.3-65.5h300.7zm-25 25H55.1l-8.6 15.5h267.1v-15.5zM338.6 0h89.6c1.7 44.8 6.5 73.1 14.2 84.9 7.8 11.8 33.2 22.3 76.2 31.4 43.1 9.2 64.6 15.5 64.6 19 8 25.3-10.9 60.9-56.9 106.8-45.9 45.9-111.7 78.5-197.3 97.8-85.6 19.2-187.8 27.4-306.7 24.6-10.3 0-17.8-8.9-22.4-26.7 1.1-4.6 36.2-12.3 105.1-23.3 68.9-10.9 131.9-25.8 189.1-44.8 57.1-19 93.6-35.6 109.4-50 15.8-14.4 24.4-29.1 25.8-44.4 1.4-15.2-28.6-29.7-90-43.5L338.6 0zm23.2 25v82.7c65.5 19 98.2 41.6 98.2 68.1 0 48.2-46.5 85.4-139.6 111.6-93 26.1-188.4 45.2-286 57.3-6.3 4.6-2 6.6 12.9 6 168.3-8 290.9-31.2 367.8-69.3 77-38.2 124.6-82.3 143-132.2-91.3-17.8-140.1-36.9-146.4-57.3-6.3-20.4-9.5-42.6-9.5-66.8h-40.4z"/></svg>