<svg xmlns="http://www.w3.org/2000/svg" viewBox="-10 0 1237 735"><path d="M132 735q-53 0-90-6T5 697q0-16 14.5-25t51.5-9q57 0 124.5-11T332 623.5Q401 606 464.5 586t114-39q50.5-19 79.5-33 26-12 59.5-30t68.5-39.5q35-21.5 64.5-45T898 353q18-23 18-43 0-24-18-40t-42-24.5q-24-8.5-44-12.5t-24-4q9-21 18-56.5t9-68.5q0-28-3.5-53.5T805 12q14-4 37.5-8T889 0q23 0 46.5 3.5T972 11q-4 15-7.5 41.5T961 104q0 47 24.5 70.5t69 32Q1099 215 1158 215q46 0 57.5 8.5T1227 249q0 9-5 19.5t-12 24.5q-34 57-91 109.5T993 500q-69 45-142 79.5T712 635q-141 44-291 72t-289 28zm0-20q83 0 181-12t199-34q101-22 194-52 75-24 150-61t141.5-82.5q66.5-45.5 117-94.5t77.5-96q7-11 11-19.5t4-14.5q0-8-8.5-11t-40.5-3q-65 0-114-10t-76-38q-27-28-27-83 0-19 3-41.5t5-36.5q-4-1-20.5-3.5T889 20q-24 0-40 2.5T829 26q2 10 3.5 29.5T834 104q0 27-6.5 59T814 215q12 3 32 9t40.5 16.5Q907 251 921 268t14 42q0 28-24.5 58.5t-64.5 60q-40 29.5-87 56T667 532q-30 14-81.5 33.5T470 605q-64 20-133.5 37.5T200 671q-67 11-124 11-35 0-43.5 4.5T24 698q0 7 15.5 11t40.5 5q25 1 52 1zM-10 440l120-150h590v150zm41-20h649V309H120z" fill="currentColor"/></svg>