<svg xmlns="http://www.w3.org/2000/svg" viewBox="0 0 366.2 555.7"><path d="M364.9 275c5.3 32.5-5.5 42.8-32.3 30.9L189.8 177.3c-31.1 27.3-55.3 59.1-72.5 95.5C176.1 381 231.4 459.2 283.1 507.6l4.3 48.1h-17.2C205.6 482.5 146.5 396.6 92.9 298c-22 1.4-28.2-14.1-18.7-46.7-30.2-79-47.4-129-51.7-150-4.3-21.1-5.3-36.1-2.9-45.2C22 46.9 15.8 38.8 1 31.6-4.3-.5 12.2-8.1 50.5 8.6l129.2 112.7c28.2-6.2 42.1 4.1 41.6 30.9L364.9 275zM169.7 156.5L50.5 51.7c8.6 59.8 26.1 120.8 52.4 183.1 27.8-26.4 50-52.4 66.8-78.3z"/></svg>