<svg xmlns="http://www.w3.org/2000/svg" viewBox="-10 0 372 1050"><path d="M110 1050q-16 0-25.5-15T66 989q-11-38-21-90T28 790.5q-7-56.5-11.5-110T12 585q-9-4-15.5-11t-6.5-18q0-12 9-20t14-12q4-101 25.5-200T110 140L90 67q-1-6-3.5-15.5T84 32q0-11 6.5-21.5T117 0q19 0 27 15.5T158 50l5 18q19-20 34-20 13 0 22 9.5t9 20.5q0 17-28 54-4 5-7 10t-7 10l84 299q7 1 19.5 6.5T302 482q0 16-15 28l69 248q1 6 3.5 16t2.5 19q0 14-7 24t-25 10q-13 0-21.5-9.5t-13-21.5q-4.5-12-6.5-20l-70-248q-18-3-26-13l-90 28q-2 17-22 31v2q0 106 11.5 189.5t24.5 137q13 53.5 17 68.5 9 32 9 48t-9.5 23.5q-9.5 7.5-23.5 7.5zm15-932q8-15 18-26l5-8-8-30q-2-8-7.5-21T117 20q-13 0-13 13 0 8 2 16.5t3 13.5zM31 568h3q4 0 11.5-1t15.5-4v-8.5l1-11.5q3-100 17.5-174.5t40-134Q145 175 184 121q15-20 20-29.5t5-14.5q0-3-2.5-6.5T199 67q-6 0-15 7.5T159 103q-51 68-78.5 147T42 410.5Q31 492 31 568zm203-59q15-2 30-8l-91-328q-6 10-11.5 19.5T151 212zM99 526l88-27v-2q0-9 5.5-15t10.5-10l-64-231q-28 67-40.5 137.5T82 514q5 1 9.5 4t7.5 8zm182-37q2-4 2-6 0-9-7-11zm-68 18l-4-15q-2 4-2 6 0 6 6 9zm119 303q6 0 8.5-5t2.5-12q0-8-2-16t-4-13l-67-244q-7 3-15 4.5t-16 2.5l69 245q4 12 8.5 25t15.5 13zM81 549q3-4 3-10-2-5-3-6zm-69 13v-15q-3 2-3 7t3 8zm99 468q12 0 12-13 0-7-2-17t-6-24q-4-16-17-70.5T73 768q-12-83-12-184-7 1-14 2.5T31 588q0 51 6 118.5t18 140Q67 919 85 984q8 29 13 37.5t13 8.5z" fill="currentColor"/></svg>