<svg version="1" xmlns="http://www.w3.org/2000/svg" width="157.3" height="442.7" viewBox="0 0 118 332"><path d="M34.2 1.7c-1.9.8-4.2 5.8-4.2 9.4 0 1.8 1.8 10.1 4 18.5l4 15.2-3.9 7.4C24.6 69.8 17.2 92.2 13 116c-2.6 14.9-5 35.8-5 43.7 0 5.7-.3 6.4-2.6 8-5.8 3.8-6.3 12.2-.9 15.7 2.1 1.4 2.3 2.5 2.9 12.8 3.7 60.6 14.5 120.8 23.8 131.3 2.6 3 3.6 3.5 7.4 3.5 3.4 0 5.1-.6 6.9-2.5 3.7-3.6 3.3-9.2-2.5-32.6a456.2 456.2 0 0 1-13.7-96.8c-.6-17.1-.5-17.8 1.4-19.2 1.2-.8 2.9-3 4-4.9 1.8-3.2 2.9-3.7 15.4-7.7l13.4-4.2 4.5 2.2 4.5 2.2L84 208a896.2 896.2 0 0 0 13.6 45.1c2.6 5.6 5.7 7.9 10.4 7.9 7.6 0 11-5.9 9-15.7-.7-3.2-6.1-23.2-12.2-44.6L93.9 162l2-2.9c2.3-3.1 2.8-9 1.1-12.1-.6-1.1-2.7-2.4-4.8-3.1l-3.8-1.1-13.2-47.1-13.3-47.1 4.9-7.1c9.3-13.3 10.3-17.6 5.3-22.6-3.8-3.7-8.4-3.9-13.1-.4a19.5 19.5 0 0 1-4 2.5 30 30 0 0 1-2.9-7.2C49 4.4 45.7 1 39.8 1.1a21 21 0 0 0-5.6.6zm8.4 6.1c1.7 1.1 3.9 6 5.8 13l1.7 6.3-3.3 4.9c-1.8 2.7-3.6 5-3.9 5-.4 0-.9-1-1.2-2.3-.2-1.2-1.7-6.9-3.2-12.6-2.2-8.2-2.5-10.8-1.6-12.7 1-2.4 3.5-3.1 5.7-1.6zM68.8 25c.2 1.8-2.4 6.6-9.4 17-23.7 35.7-33.5 68.8-36 121.8-.8 15.6-.4 14.8-7.4 15.5l-2.5.2.3-12.5c.8-39.6 9.8-80.3 23.7-108.1a172.3 172.3 0 0 1 21.3-31.8c3.7-4 5.5-5.2 7.3-4.9 1.7.2 2.5 1 2.7 2.8zm3.6 82.6c7.5 27 13.6 49.5 13.6 50.2 0 1.1-7.8 3.7-8.7 2.8-.3-.2-6.3-21.2-13.4-46.6L51 67.7l3.2-5.9c2.1-3.9 3.4-5.5 3.9-4.6.4.7 6.8 23.4 14.3 50.4zm-15 6l9.8 35.6-2 2.1a12.7 12.7 0 0 0-2.6 4.4c-.6 1.9-3 3-13.5 6.3a262 262 0 0 1-13.6 4 11 11 0 0 1-3.3-2c-2.3-1.8-2.5-2.7-2.3-7.3.4-8.5 4-34.5 6.2-44.7 2.3-10.5 9.8-34 10.9-34 .4 0 5.1 16 10.4 35.6zm34.3 39.6c-.3.7-.5.2-.5-1.2s.2-1.9.5-1.3c.2.7.2 1.9 0 2.5zm-22 6c-.3.8-.6.5-.6-.6-.1-1.1.2-1.7.5-1.3.3.3.4 1.2.1 1.9zm19.5 8l11.7 42.3c12 42.9 12.5 46 7.1 46-1.6 0-3-1-4.1-3-2.5-4.2-25.2-84.6-24.2-85.6.7-.6 2.4-1 7.9-1.8.7 0 1.4.9 1.6 2.1zm-65.9 36.5a448 448 0 0 0 14.3 95.4c2.5 10.3 4.4 20.2 4.2 22.1-.3 2.9-.6 3.3-3.3 3.3-3.9 0-5.4-3.1-9.4-18.5a548 548 0 0 1-15.6-107.2l-.7-12.6 2.9-.5c7.6-1.1 6.9-2.8 7.6 18z"/></svg>