<svg xmlns="http://www.w3.org/2000/svg" viewBox="-10 0 372 1050"><path d="M242 1050q-14 0-23.5-7.5T209 1019q0-16 9-48 4-15 17-68.5t24.5-137Q271 682 271 576v-2q-10-7-15.5-15t-6.5-16l-91-28q-7 10-26 13L63 776q-2 8-7 20t-13 21.5q-8 9.5-21 9.5-18 0-25-10t-7-24q0-9 2-19t4-16l69-248q-7-5-11.5-12T49 482q0-19 12.5-24.5T82 451l83-299q-3-5-6.5-10t-7.5-10q-27-36-27-54 0-11 9-20.5t21-9.5q15 0 35 20l5-18q5-19 13.5-34.5T235 0q20 0 26.5 10.5T268 32q0 10-2.5 19.5T261 67l-20 73q50 85 72 184t26 200q5 4 14 12t9 20q0 11-6.5 18T340 585q-1 42-5 95.5t-11.5 110Q316 847 306.5 899T286 989q-9 31-18.5 46t-25.5 15zm-15-932l15-55q1-5 3.5-13.5T248 33q0-13-14-13-10 0-15 13t-7 21l-9 30 6 8q4 6 9 12.5t9 13.5zm90 450h3q-1-76-11.5-157.5t-38-160.5Q243 171 192 103q-16-21-24.5-28.5T153 67q-5 0-7.5 3.5T143 77q0 5 5 14.5t20 29.5q39 54 64.5 113.5t40 134Q287 443 290 543q0 7 .5 11.5t.5 8.5q8 3 15.5 4t10.5 1zm-200-59l83-296-10-20-11-20-92 328q14 6 30 8zm136 17q5-9 17-12-4-65-16.5-135.5T213 241l-64 231 10 10 6 15v2zM71 489l5-17q-7 2-7 11 0 4 2 6zm67 18q7-4 7-9 0-2-2-6zM20 810q11 0 15.5-13t8.5-25l68-245q-7-1-15-3t-15-4L14 764q-1 5-3 13t-2 16q0 7 2 12t9 5zm251-261v-8l-1-8q-2 2-2 6 0 6 3 10zm69 13q2-4 2-8 0-5-3-7 0 4 .5 7.5t.5 7.5zm-99 468q8 0 13-8.5t13-37.5q18-65 29.5-137.5t17-140Q319 639 320 588q-8 0-15.5-1.5T291 584q0 101-12 184t-25 137.5Q241 960 236 976q-7 27-7 41 0 13 12 13z" fill="currentColor"/></svg>