<svg xmlns="http://www.w3.org/2000/svg" viewBox="0 0 558.4 300.8"><path d="M446.8 23.4c24.1 22.2 22 36.8-6.3 43.9L250.1 54.6c-7.6 40.4-6.9 80.1 1.9 119.1 112.3 48.4 203.5 75.6 273.5 81.7l32.9 34.9-13.4 10.5c-95.4-17.6-194.2-48.4-296.6-92.6-16.3 14.6-30.7 6.3-43.2-25-72-43.2-116.1-71.7-132.4-85.5-16.3-13.8-26.3-25-30-33.6-3.7-8.6-13.6-11.1-29.6-7.6C-10.5 34.7-2.3 18.6 37.9 8.2l170 8.8c18.2-22.2 35.4-22.7 51.5-1.4l187.4 7.8zM221.7 50.6L64.3 41.9c43.4 41.4 94.5 78.4 153.2 110.9 5.5-37.7 6.9-71.7 4.2-102.2z"/></svg>