<svg xmlns="http://www.w3.org/2000/svg" viewBox="-10 0 1149 466"><path d="M1056 466q-74 0-157-8.5t-163-23Q656 420 592 403q-8 15-27 15-17 0-25.5-13T529 385l-4-2q-38-13-88.5-31.5t-107-46Q273 278 216 239t-108-92H60q-10 0-26.5-1.5t-30-9.5Q-10 128-10 109q0-23 20-29.5T47 72Q30 45 30 30q0-12 10-21t21-9q16 0 30 11t35 38q4 6 8.5 11.5T143 71h389q2-5 9.5-14.5T565 47q13 0 20.5 7T598 71h288q10 0 26.5 1.5t30 9.5q13.5 8 13.5 27t-13.5 27q-13.5 8-30 9.5T886 147H597q-8 19-22 23v124q17 6 25 32 84 24 160.5 37.5t138 19q61.5 5.5 102.5 7t55 1.5q50 0 66.5 9t16.5 29q0 20-16.5 28.5T1056 466zm-474-86q1-5 1.5-10.5t.5-10.5v-8l-1-9q-8-2-16.5-5t-17.5-5q-112-36-192-75.5T217.5 170Q158 123 109 62 87 33 78 26t-16-7q-4 0-8.5 3T49 30q0 7 7 19t24 35q59 77 135 130.5t160 90Q459 341 542 368q8 3 18.5 6t21.5 6zM554 71h22q-5-5-11-5-4 0-7 1.5t-4 3.5zM60 127h30q-13-15-25-31l-4-5h-1q-7 0-19.5 1t-22 4.5Q9 100 9 109t9.5 13q9.5 4 22 4.5t19.5.5zm138 0h384q1-4 1.5-10t.5-11v-7.5l-1-7.5H161q9 10 18.5 19t18.5 17zm404 0h284q7 0 19-.5t22-4.5q10-4 10-13t-10-12.5Q917 93 905 92t-19-1H603q0 4 .5 7.5t.5 7.5q0 6-.5 11.5T602 127zm-63 181q5-11 17-15V171q-10-2-14.5-10t-6.5-14H222q70 56 152 95t165 66zm25-155q5 0 10-6h-18q2 6 8 6zm11 166q-4-7-11-7-3 0-5 2zm481 128q39 0 51.5-4.5T1120 429q0-10-12.5-14.5T1056 410q-19 0-83-2t-159-14.5Q719 381 603 348q0 3 .5 5.5t.5 5.5q0 14-3 26 58 15 134.5 29.5t160 23.5q83.5 9 160.5 9zm-491-49q3 0 5-1-5-1-9-2.5t-8-2.5q3 6 12 6z" fill="currentColor"/></svg>