<svg xmlns="http://www.w3.org/2000/svg" viewBox="-10 0 1099 444"><path d="M1006 444q-68 0-142-8t-145-21q-71-13-131.5-28T486 359q-36-12-90-33t-115-51.5q-61-30.5-119.5-71t-104-91Q12 62-10 0h812q10 0 26.5 1.5t30 9.5Q872 19 872 38t-13.5 27q-13.5 8-30 9.5T802 76H141q14 18 59.5 54.5t122 78Q399 250 505 284q92 29 175.5 46T832 355q68 8 113.5 10.5t60.5 2.5q50 0 66.5 9t16.5 29q0 20-16.5 29t-66.5 9zm0-20q39 0 51.5-4t12.5-14q0-10-12.5-14t-51.5-4q-16 0-60.5-2t-112-10Q766 368 681 351t-181-48q-104-33-178.5-72t-123-76q-48.5-37-73-64T97 56h705q7 0 19-.5t22-4.5q10-4 10-13 0-10-10-13.5T821 20q-12-1-19-1H21q28 56 74.5 102t103 82.5q56.5 36.5 113 64t104 45.5q47.5 18 76.5 27 39 13 98 27.5T719 395q70 13 144 21t143 8z" fill="currentColor"/></svg>