<svg xmlns="http://www.w3.org/2000/svg" viewBox="0 0 585 389"><path d="M298.8 54.1v168.7c37.5 13.1 75.5 21.3 113.9 24.6V28.8c-38.4 3.3-76.4 11.7-113.9 25.3zm256.6 0c-37.5-13.6-75.5-22-113.9-25.3v218.7c38.4-3.3 76.4-11.5 113.9-24.6V54.1zM427.5 0c47.8 0 94.5 9.6 139.9 28.8 11.7 3.7 17.6 14.5 17.6 32.3v154c0 17.8-6.1 28.6-18.3 32.3-45 19.7-91.4 29.5-139.2 29.5h-.7c-47.8 0-94.5-9.8-139.9-29.5-11.7-3.7-17.6-14.5-17.6-32.3v-154c0-17.8 5.9-28.6 17.6-32.3C332.3 9.6 378.9 0 426.8 0h.7zM149 92.1c15.5 2.8 31.4 14.3 47.8 34.5s24.1 38.2 23.2 54.1c-1.4 8.9-6.6 13.4-15.5 13.4-15.9-.9-32.7-11.1-50.3-30.6-17.6-19.5-26.4-37.1-26.4-53.1 1.5-12.7 8.6-18.8 21.2-18.3zm.7 22.5c-2.3 10.8 4.1 24.1 19.3 40.1s26.4 23.2 33.4 21.8c2.8-7-2.6-19.3-16.2-36.9-13.5-17.6-25.7-25.9-36.5-25zm-64 52c15.9-1.4 34.3 5.5 55.2 20.7 20.9 15.2 32.7 30.8 35.5 46.8.9 9.4-3 15.2-12 17.6-15.5 2.8-34.1-2.9-55.9-17.2-21.8-14.3-34.8-29.2-39-44.6-1.8-12.7 3.6-20.4 16.2-23.3zm5.7 21.1c.5 11.2 10.1 22.7 28.8 34.5s31.6 15.9 38.7 12.7c.9-8-7.4-18.6-25-32-17.6-13.4-31.8-18.4-42.5-15.2zm-53.5 59.8c15.5-4.2 34.8-.5 58 11.3 23.2 11.7 37.6 25.1 43.2 40.1 2.3 8.9-.5 15.2-8.4 19-15 5.6-34.5 3.3-58.4-7C48.5 300.5 33 288 26 273.5c-3.8-12.6.2-21.3 11.9-26zm9.9 19.7c2.3 11.2 13.7 21 34.1 29.2 20.4 8.2 33.6 10.2 39.7 6-.5-8-10.5-17.1-30.2-27.4-19.7-10.4-34.3-13-43.6-7.8zM11.9 322c15-5.2 34.6-2.9 58.7 6.7s39.5 21.7 46.1 36.2c3.8 8.4 1.6 15-6.3 19.7-14.5 6.6-34.1 5.7-58.7-2.5s-41.1-19.3-49.6-33.4C-2.6 337 .7 328.1 11.9 322zm11.3 19c3.3 10.8 15.5 19.6 36.6 26.4 21.1 6.8 34.7 7.6 40.8 2.5-1.4-8-12.3-16.2-32.7-24.6s-35.4-9.9-44.7-4.3z"/></svg>