<svg xmlns="http://www.w3.org/2000/svg" viewBox="-10 0 1080 675"><path d="M781 449q-70 0-131-12t-103-26l-54-18V62q12-5 54-20t103-28.5Q711 0 781 0q71 0 132 13.5T1015.5 42q41.5 15 54.5 20v331q-13 4-54.5 18T913 437q-61 12-132 12zm-11-23V24q-61 1-112.5 12t-88 23.5Q533 72 517 79v297q18 7 56 18.5t89 21q51 9.5 108 10.5zm23 0q59-1 110-10.5t88.5-21Q1029 383 1046 377V79q-15-7-52-19.5T905 36q-52-11-112-12zm-359-68q-29-5-72-18.5T289 305q-38-26-62-55t-35-54l14-17q29 4 72 18t74 34q37 26 61 55t35 55zm-14-24q-10-19-29-40t-53-43q-33-22-64-32.5T221 202q9 20 28 40.5t53 42.5q40 28 69.5 35.5T420 334zm-88 183q-19-4-45-11t-52.5-18Q208 477 188 464q-37-25-61.5-54.5T91 354l14-17q29 5 72 19t73 34q37 25 61.5 54t35.5 55zm-14-24q-9-20-28-40.5T237 410q-33-23-64-33t-53-17q9 21 28 41t52 43q41 27 70 35t48 14zm-87 182q-19-3-45-10t-52.5-18Q107 636 87 622q-38-25-62-54t-35-55l14-17q29 5 72 18.5t73 33.5q38 25 62 54.5t35 55.5zm-14-24q-9-20-28-40t-53-43q-33-23-64-33t-53-16q9 20 28 40t52 43q40 27 69 35t49 14z" fill="currentColor"/></svg>