<svg xmlns="http://www.w3.org/2000/svg" viewBox="0 0 170.8 349.9"><path d="M67.5 55.2l14.8 28.3c-4 18.9 2.9 29.9 20.9 33.1 18 3.1 29.9-4.2 35.7-21.9 5.8-17.8 3.7-33.7-6.4-47.9-10.1-14.2-28.3-19.8-54.6-16.9-26.3 2.9-42 18.7-47.2 47.2s3.9 61.5 27.3 98.8c22 25.6 42.7 51.3 62.1 76.9 22 31.5 35.3 63.9 39.8 97.1h-29c-3.1-23.4-13-47.4-29.7-72.2-6.3-9.9-22.7-31.3-49.2-64.1-33.3-37.7-50.7-78-52-120.7C3.1 48 19.8 19.7 49.9 8.3c30.1-11.5 57.2-11 81.3 1.3s37.1 30.6 39.1 54.6c2 24.1-2 43.3-12.1 57.7-10.1 14.4-24.5 22.4-43.2 23.9-18.7 1.6-33.6-3-44.9-13.8-11.2-10.7-17.4-23.1-18.5-37-1.1-14 4.2-27.3 15.9-39.8z"/></svg>