<svg xmlns="http://www.w3.org/2000/svg" viewBox="-10 0 841 419"><path d="M181 419q-60 0-98-20t-58-52Q5 315-2.5 279t-7.5-69q0-33 7.5-69.5T25 72q20-32 58-52t98-20h440q46 0 78 6t54 26V0h78v419h-78v-32q-22 20-54 26t-78 6zm0-20h440q28 0 57-3.5t53.5-16.5q24.5-13 41.5-43v63h38V20h-38v63q-17-29-41.5-42.5t-52.5-17Q651 20 621 20H181q-54 0-88 18T40.5 85q-18.5 29-25 62T9 210q0 30 6.5 62.5t25 61.5Q59 363 93 381t88 18zm7-24q-47 0-76-16t-44.5-41Q52 293 46 264.5T40 210q0-26 6-55t21.5-54Q83 76 112 60t76-16h450q47 0 76 16t44.5 41q15.5 25 21.5 54t6 55q0 26-6 54.5T758.5 318Q743 343 714 359t-76 16zm0-19h450q41 0 66-14t38.5-36q13.5-22 18.5-47.5t5-48.5q0-31-9.5-65T720 87.5Q693 64 638 64H188q-55 0-82 23.5T69.5 145Q60 179 60 210q0 23 5 48.5T83.5 306Q97 328 122 342t66 14z" fill="currentColor"/></svg>