<svg xmlns="http://www.w3.org/2000/svg" viewBox="0 0 595.3 283"><path d="M474.9 40c26.6 0 57.3 22.2 69.9 40.3 12.9 17.3 19.7 40 19.7 59.5v2.1c0 19.2-6.9 42-19.7 59.2-12.6 18.4-43.3 41.7-69.9 41.7H112.7c-50.2 0-85-53.7-85-99.8v-1.6-3.6C27.7 88 65 40.9 114.3 40h360.6zM579.1 0c-8 0-15.4 4.1-15.4 11.8v40c-4.1-4.1-13.2-13.7-18.9-17.3-17.5-12.9-41.7-22.8-69.4-22.8H114.1C37.3 11.8.8 85.3 0 141.5c.5 59 37.3 129.7 114.3 130.5h361.1c33.2-.3 63.6-20.3 88.3-40.6V272c0 7.4 8 11 15.6 11 8 0 15.9-3.6 15.9-11V11.8c.1-7.7-8.1-11.8-16.1-11.8z"/></svg>