<svg xmlns="http://www.w3.org/2000/svg" viewBox="0 0 595.3 355.2"><path d="M565.2 229.1C523.4 137.5 479.6 89 433.8 83.6c-45.8-5.4-76-5.2-90.7.8 57 53.1 106.9 139.3 149.7 258.6l-31.7 12.2c-27.6-94.9-77.3-179.7-148.8-254.5-20.1-14.6-39.8-17.1-59.4-7.3-40.7 29.8-77.8 46.6-111.4 50.4-33.6 3.8-65.6 2.3-96-4.5C15.2 132.5 0 110.4 0 73 0 35.1 15.2 12.8 45.5 6.3c30.4-6.5 62.3-8 96-4.5s70.7 20.2 111.4 50c20.6 4.9 42.3 6.2 65.1 4.1 94.3-13.5 157-4.2 188.2 28.1 31.2 32.3 60.9 74.7 89 127.3l-30 17.8zM226.1 73c-20.6-18.4-45.5-30.9-74.8-37.4-29.3-6.5-56.4-7.5-81.3-2.8S32.5 50.8 32.5 73c0 21.7 12.5 34.8 37.4 39.4 24.9 4.6 52 3.7 81.3-2.8 29.3-6.5 54.3-18.7 74.9-36.6z"/></svg>