<svg xmlns="http://www.w3.org/2000/svg" viewBox="-10 0 793 423"><path d="M640 423q-37-148-95-235.5T404 60q-32 13-59.5 30.5T293 125q-45 31-90.5 56T101 206q-40 0-64-13T1.5 161Q-10 142-10 123q0-15 8-36t30.5-40.5q22.5-19.5 64-33T201 0q59 0 110.5 9.5T407 39q25-10 51.5-16t56.5-6q68 0 120 20t89 50.5q37 30.5 59 59.5l-15 12q-21-27-55.5-55.5t-83-47.5Q581 37 516 37q-24 0-45.5 3.5T430 50q79 44 135 133t94 235zM101 187q48 0 90-22t91-56q23-15 47.5-31T381 49q-39-16-84-23t-96-7q-61 0-98.5 11t-58 28Q24 75 16.5 92.5T9 123q0 21 21 42.5t71 21.5z" fill="currentColor"/></svg>