<svg xmlns="http://www.w3.org/2000/svg" viewBox="-10 0 707 437"><path d="M670 437q-14 0-28.5-11.5T607 395q-27-25-67-59.5T450.5 268q-49.5-33-106-54.5T227 192q-22 0-45 4t-48 4q-35 0-68.5-13.5t-54.5-40Q-10 120-10 82q0-31 20.5-56.5T62 0q23 0 41 10t29.5 23Q144 46 150 55q13-5 49-13t89-8q81 0 135 15.5t87.5 35Q544 104 562 117q21 14 39.5 32.5t32.5 35q14 16.5 19 24.5-40 21-67.5 45T543 297q40 21 75 39.5t56.5 36.5q21.5 18 22.5 36 0 28-27 28zM519 293q26-31 51-52t54-38q-7-9-27-30.5T552 133q-16-11-48.5-30T418 68.5Q365 53 288 53q-53 0-91 9t-54 17q-10-19-31.5-39.5T62 19q-23 0-38 20.5T9 82q0 32 18.5 54t47 33q28.5 11 59.5 11 23 0 45-4t48-4q55 0 107 17.5t98.5 45Q479 262 519 293zm153 125q5 0 5-7 0-11-19-25.5t-45.5-30Q586 340 562 328q17 14 31.5 27.5T621 381q17 16 31 26.5t20 10.5z" fill="currentColor"/></svg>