<svg xmlns="http://www.w3.org/2000/svg" viewBox="-10 0 688.045 524.185"><path d="M611 523q-40-107-88-178.5T417 242q-57-29-101-37t-89-13q-36-4-77-7.5t-77.5-12Q36 164 13 143t-23-61q0-20 11.5-39T32 12Q51 0 72 0q23 0 35.5 10t18 24.5q5.5 14.5 7 28T134 81q9-3 35.5-8.5t62-10Q267 58 302 58q73 0 134 21t105.5 51q44.5 30 68.5 59t24 46q0 17-13.5 27T600 276q17 31 33.5 69t28.5 77q12 39 16 73 1 13-20 22.5t-47 5.5zm14-19q14 1 22.5-4.5t8.5-6.5q0-15-9-47.5t-24-71Q608 336 591 301t-32-54q-30-39-74-60.5t-89.5-30q-45.5-8.5-83.5-10t-56-1.5q-61 0-94-11t-41-30q-3-8-4.5-22t-5-28.5Q108 39 99 29T71 19q-22 0-42 20.5T9 82q0 30 19.5 47T80 153.5q32 7.5 70.5 11T227 172q86 9 150 30.5T493 275q41 41 73.5 98T625 504zm-35-245q8-5 16.5-11t8.5-13q0-11-15-30t-41-40q-26-21-60-38-40-20-89-34.5T302 78q-48 0-90.5 7T144 98q0 4 8 10.5t32.5 12Q209 126 259 126q83 0 139.5 11.5t92 29Q526 184 546 203t30 33q8 12 14 23z" fill="currentColor"/></svg>