<svg xmlns="http://www.w3.org/2000/svg" viewBox="0 0 591.5 214.7"><path d="M108.3 171.3c-21.6-12.5-41.5-19.5-59.7-20.7-18.2-1.3-27 5.6-26.6 20.7-.4 15.6 8.4 22.8 26.6 21.7 18.2-1.1 38.1-8.3 59.7-21.7zm21.4-109C90.3 77.4 59.8 85.2 37.9 85.7 16.1 86.1 3.5 71.6 0 42.2 2.6 15 15.5.9 38.6.1 61.7-.8 92.1 7 129.7 23.4h354c46.3-1.3 77.9 12.3 95 40.9 17.1 28.5 17.1 57.1 0 85.6-17.1 28.5-48.7 42.4-95 41.5h-354c-39.3 15.1-69.9 22.9-91.8 23.3-21.8.4-34.5-14-37.9-43.4C2.6 144 15.5 130 38.6 129.1c23.1-.9 53.5 6.9 91.1 23.3h374.8c31.1-5.6 46.6-21.4 46.4-47.3-.2-25.9-15.7-40.2-46.4-42.8H129.7zm-21.4-20.1C86.7 29.7 66.8 22.8 48.6 21.5c-18.2-1.3-27 5.6-26.6 20.7-.4 15.6 8.5 22.8 26.6 21.7 18.2-1 38.1-8.3 59.7-21.7z"/></svg>