<svg xmlns="http://www.w3.org/2000/svg" viewBox="-10 0 822 236"><path d="M54 236q-29 0-46.5-14.5T-10 181q0-26 18-40.5T54 126q23 0 43.5 12.5T123 171h547q55 0 81.5-7.5t34-19.5q7.5-12 7.5-26t-7.5-26q-7.5-12-34-19.5T670 65H123q-5 20-25.5 32.5T54 110q-29 0-46.5-14.5T-10 55q0-26 18-40.5T54 0q23 0 43.5 12.5T123 45h547q64 0 94 9.5t39 26q9 16.5 9 37.5t-9 37.5q-9 16.5-39 26t-94 9.5H123q-5 20-25.5 32.5T54 236zm0-146q18 0 33.5-10.5T103 55q0-14-15.5-25T54 19q-18 0-30.5 9T11 55q0 17 12.5 26T54 90zm0 126q18 0 33.5-10.5T103 181q0-14-15.5-25T54 145q-18 0-31.5 9T9 181q0 17 13.5 26t31.5 9z" fill="currentColor"/></svg>