<svg xmlns="http://www.w3.org/2000/svg" viewBox="0 0 588.3 255.5"><path d="M106.7 212.7c-21.3-12.3-40.9-19.2-58.8-20.4-17.9-1.3-26.6 5.5-26.2 20.4-.4 15.3 8.3 22.5 26.2 21.4s37.5-8.2 58.8-21.4zm0-127.1C85.4 73.2 65.8 66.4 47.9 65.1 30 63.9 21.3 70.7 21.7 85.6 21.3 100.9 30 108 47.9 107c17.9-1.1 37.5-8.2 58.8-21.4zm408.7-19.2L555.7 0l32.6 16.6-34.5 63.9c10.6 8.9 20.2 22.7 28.7 41.2s4.4 41.8-12.5 69.9c-16.8 28.1-48 41.7-93.6 40.9H127.7c-38.7 14.9-68.9 22.6-90.4 23-21.5.4-34-13.8-37.4-42.8 2.6-26.8 15.2-40.7 38-41.5 22.8-.9 52.7 6.8 89.7 23h369.2c30.7-5.5 45.9-21.1 45.7-46.6-.2-25.5-15.4-39.6-45.7-42.2H127.7c-38.7 14.9-68.9 22.6-90.4 23S3.4 114.5 0 85.6c2.6-26.8 15.2-40.7 38-41.5 22.8-.9 52.7 6.8 89.7 23h348.7c23.1-.5 36.1-.7 39-.7z"/></svg>