<svg xmlns="http://www.w3.org/2000/svg" viewBox="-10 0 822 671"><path d="M38 671v-39q21-5 46.5-12t48-15.5Q155 596 167 589q14-9 29-35.5t28-58q13-31.5 23-58.5l17-44q15-35 37-74t43-74q21-35 33-54H123q-5 20-25.5 32.5T54 236q-29 0-46.5-15T-10 181q0-26 18-40.5T54 126q23 0 43.5 13t25.5 32h547q55 0 81.5-7.5t34-19.5q7.5-12 7.5-26t-7.5-26q-7.5-12-34-19.5T670 65H123q-5 20-25.5 32.5T54 110q-29 0-46.5-14.5T-10 55q0-26 18-40.5T54 0q23 0 43.5 13T123 46h547q64 0 94 9.5t39 26q9 16.5 9 36.5 0 21-9 37.5t-39 26q-30 9.5-94 9.5H457q21 28 44.5 66.5t44.5 75q21 36.5 32 59.5 11 22 25 54.5t26 62q12 29.5 17 40.5 8 20 14 42t11 39q1 10-6 22t-17 19h-36q-14 0-26-6t-21-6q-16 0-30.5 5.5T502 671h-89v-39q20-4 45.5-11t48-15q22.5-8 33.5-16 17-11 17-23 0-8-9.5-24t-23-36q-13.5-20-26-38.5T479 438q-7-12-19.5-35t-24-45Q424 336 421 328q-2 4-11 27t-24 54q-15 31-31 60-9 15-30.5 43.5T286 562q-2 8-2 25 0 7 3 20t5 23q-1 10-6.5 20T268 671h-30q-14 0-26-6t-22-6q-15 0-30 5.5t-32 6.5zM54 90q18 0 33.5-11T103 55q0-13-15.5-24T54 20q-18 0-30.5 9T11 55q0 18 12.5 26.5T54 90zm0 126q18 0 33.5-11t15.5-24q0-13-15.5-24T54 146q-18 0-31.5 9T9 181q0 18 13.5 26.5T54 216zm3 436l65-1q16 0 34.5-5.5T189 640q12 0 24 5.5t26 5.5h22q5-4 7.5-7.5T272 629q-1-4-4.5-18.5T264 587q0-16 2-30 13-16 27.5-35.5t27-37.5q12.5-18 17.5-28 13-22 26.5-49.5t25.5-54q12-26.5 20-46.5h22q3 6 11.5 23.5T463 368q11 21 21 38.5t15 25.5q8 14 23.5 37t28.5 43q13 20 16 27 10 19 10 32 0 6-8.5 17T545 609q-10 7-31.5 15t-46 15q-24.5 7-44.5 11v1h75q16 0 34-5.5t33-5.5q12 0 24 5.5t25 5.5h29q7-5 7.5-8t1.5-14q-5-14-11.5-35.5T627 553q-4-9-12-28.5T596.5 481Q586 457 576 434.5T559 397q-8-16-22.5-42T504 298.5Q486 268 467.5 240T434 191h-35q-10 16-31 51t-44.5 77Q300 361 284 397l-16 44q-11 28-25 62t-31 62.5Q195 594 178 606q-10 7-31 15t-45.5 14.5Q77 642 57 647z" fill="currentColor"/></svg>