<svg xmlns="http://www.w3.org/2000/svg" viewBox="0 0 559.2 412.8"><path d="M102.3 162.3c-20-12.2-38.6-19-55.7-20.2-17.1-1.2-25.5 5.5-25.1 20.2-.4 14.3 7.9 20.9 24.8 19.9s35.6-7.6 56-19.9zm0-122.4C82.3 28 63.7 21.5 46.5 20.3S21 25.6 21.4 39.9c-.4 14.7 7.9 21.5 24.8 20.5 17-1 35.7-7.9 56.1-20.5zm210.6 140.8c6.1.8 15.1 8 26.9 21.4 28.6 13.5 57.4 50.4 86.3 110.8 13.5 26.5 26.7 48 39.8 64.3 6.5 9 9.8 16.9 9.8 23.9 0 6.5-4.7 10.4-14.1 11.6l-42.3-3.7-40.4 3.7c-35.9-.8-53.9-2.4-53.9-4.9v-1.2c0-6.5 15.7-12.5 47.2-17.8 9.4-1.2 21.4-6.7 36.1-16.5 6.1-.8 9.2-2 9.2-3.7-24.5-40.4-48.5-74.4-72-102-23.5-27.6-37.5-41.3-41.9-41.3-17.6 2-26.3 5.3-26.3 9.8-4.5 17.1-22.6 43.6-54.2 79.3-31.6 35.7-47.5 56-47.5 60.9-2 19.2-5.1 28.8-9.2 28.8-4.1 4.9-10.4 7.3-19 7.3h-.4c-4.1 0-13.7-1-28.8-3.1-9.4 0-17.1 1.2-23.3 3.7-51.8-1.6-77.8-4.7-77.8-9.2l-.6-.6c0-6.5 11.8-10.6 35.5-12.2 27.4-2 43.5-4.5 48.4-7.3 11.4-2.9 25.5-10.8 42.3-23.9 34.3-51 76.7-110.2 127.4-177.6H122.5c-37.1 14.3-65.9 21.5-86.3 21.7-20.5.4-32.5-13.2-36.2-40.6 2.9-26.1 15.2-39.5 37-40.1 21.8-.6 50.5 6.6 86 21.7h354c29.4-4.9 44-19.7 43.8-44.4-.2-24.6-14.8-38.2-43.8-40.7H122.5C85.3 73.5 56.5 81 36.1 81.2 15.7 81.4 3.7 67.6 0 39.9 2.9 14.2 15.2.9 37 .1c21.8-.8 50.5 6.5 86 22h334.3c43.7-1.2 73.6 11.6 89.7 38.6 16.1 26.9 16.1 53.8 0 80.5-16.1 26.7-46 39.9-89.7 39.5H312.9z"/></svg>