<svg xmlns="http://www.w3.org/2000/svg" viewBox="0 0 587.3 261.9"><path d="M240.8 14.6c11 0 17.9 8.8 20.5 26.5.4 11.5-.6 21.6-3 30.4-2.4 8.8-8.3 23.8-17.5 45-9.7-20.7-15.8-35.6-18.2-44.6-2.4-9-3.6-19.3-3.6-30.8 3-17.7 10.3-26.5 21.8-26.5zm-.7 232.1c-11 0-18.3-8.6-21.8-25.8.4-11.9 1.9-22.4 4.3-31.4s8.3-23.9 17.5-44.6c9.3 21.2 15.2 36.2 17.9 45 2.6 8.8 3.5 19.2 2.6 31.1-2.2 17.1-9 25.7-20.5 25.7zm106.5 0c-11 0-18.3-8.6-21.8-25.8.4-11.9 1.9-22.4 4.3-31.4s8.3-23.9 17.5-44.6c9.3 21.2 15.2 36.2 17.9 45 2.6 8.8 3.5 19.2 2.6 31.1-2.2 17.1-9.1 25.7-20.5 25.7zm0-232.1c11.5 0 18.3 8.8 20.5 26.5.9 11.5 0 21.6-2.6 30.4-2.6 8.8-8.6 23.8-17.9 45-9.3-20.7-15.1-35.6-17.5-44.6-2.4-9-3.9-19.3-4.3-30.8 3.5-17.7 10.8-26.5 21.8-26.5zm106.5 0c11 0 17.9 8.8 20.5 26.5.4 11.5-.6 21.6-3 30.4-2.4 8.8-8.3 23.8-17.5 45-9.7-20.7-15.8-35.6-18.2-44.6-2.4-9-3.6-19.3-3.6-30.8 3-17.7 10.3-26.5 21.8-26.5zm0 232.8c-11.5 0-18.7-8.6-21.8-25.8 0-11.9 1.2-22.4 3.6-31.4 2.4-9 8.5-23.9 18.2-44.6 9.3 21.2 15.1 36.2 17.5 45 2.4 8.8 3.4 19.2 3 31.1-2.7 17.1-9.5 25.7-20.5 25.7zM572.8 131c0 11-8.6 18.1-25.8 21.2-11.5 0-21.7-1.2-30.8-3.6-9-2.4-24.1-8.3-45.3-17.5 21.2-9.3 36.3-15.2 45.3-17.9 9-2.6 19.3-3.5 30.8-2.6 17.2 2.1 25.8 8.9 25.8 20.4zM134.3 14.6c11 0 18.1 8.8 21.2 26.5 0 11.5-1.2 21.7-3.6 30.8-2.4 9-8.3 23.9-17.5 44.6-9.3-21.2-15.2-36.2-17.9-45-2.6-8.8-3.5-19-2.6-30.4 2.1-17.7 8.9-26.5 20.4-26.5zm0 232.1c-11.5 0-18.7-8.6-21.8-25.8 0-11.9 1.2-22.4 3.6-31.4 2.4-9 8.5-23.9 18.2-44.6 9.3 21.2 15.1 36.2 17.5 45s3.4 19.2 3 31.1c-2.7 17.1-9.5 25.7-20.5 25.7zM14.6 131c0-11.5 8.6-18.7 25.8-21.8 11.5 0 21.7 1.2 30.8 3.6 9 2.4 24.1 8.5 45.3 18.2-21.6 9.3-36.8 15.1-45.6 17.5-8.8 2.4-19 3.4-30.4 3-17.4-2.7-25.9-9.5-25.9-20.5zm100.5-18.6l-35.7-11.2c-14.6-4.4-27.6-6.6-39-6.6C13.4 97.2 0 109.4 0 131c0 21.2 13.4 32.9 40.3 35.1 11.5.4 24.3-1.3 38.4-5.3l35.7-11.9-9.9 33.1c-4.4 14.6-6.6 27.6-6.6 39 2.6 26.9 14.8 40.3 36.4 40.3 21.2 0 32.9-13.4 35.1-40.3.4-11.9-1.3-24.7-5.3-38.4l-11.9-37.7h70.1l-11.9 37c-4 14.6-6 27.6-6 39 2.6 26.9 14.6 40.3 35.7 40.3 21.6 0 33.3-13.4 35.1-40.3.9-11.9-.9-24.7-5.3-38.4L258 144.9h70.8l-11.9 37c-4 14.6-6 27.6-6 39 2.6 26.9 14.6 40.3 35.7 40.3 21.6 0 33.3-13.4 35.1-40.3.9-11.9-.9-24.7-5.3-38.4l-11.9-37.7 70.8.7-11.9 37c-4.4 14.6-6.6 27.6-6.6 39 2.6 26.9 14.8 40.3 36.4 40.3 21.2 0 32.9-13.4 35.1-40.3.4-11.9-1.3-24.9-5.3-39l-10.6-33.7 35.7 11.9c14.6 4 27.6 6 39 6 26.9-2.6 40.3-14.6 40.3-35.7 0-21.6-13.4-33.3-40.3-35.1-11.5-.9-24.3.9-38.4 5.3l-36.4 11.2 10.6-33.1c4-14.1 5.7-26.9 5.3-38.4-2.2-27.3-13.9-41-35.1-41-21.6 0-33.7 13.7-36.4 41 0 11 2.2 23.8 6.6 38.4l11.9 37h-70.8l11.9-37c4.4-14.1 6.2-26.9 5.3-38.4-1.8-27.3-13.4-41-35.1-41-21.2 0-33.1 13.7-35.7 41 0 11 2 23.8 6 38.4l11.9 37h-70.1l11.9-37c4-14.1 5.7-26.9 5.3-38.4-2.2-27.3-13.9-41-35.1-41-21.6 0-33.7 13.7-36.4 41 0 11 2.2 23.8 6.6 38.4l11.9 37H152l11.9-37c4-14.6 6-27.3 6-38.4-2.6-27.3-14.6-41-35.7-41-21.5.1-33.2 13.8-35 41.1-.9 11.5.9 24.3 5.3 38.4l10.6 33z"/></svg>