<svg xmlns="http://www.w3.org/2000/svg" viewBox="-10 0 865 363"><path d="M216 363q-17 0-36.5-14T160 294q0-31 13-59t24-44h-17q-5 5-18.5 16.5t-34.5 21q-21 9.5-48 9.5-48 0-68.5-18.5T-10 181q0-20 20.5-36.5T79 128q34 0 61.5 14.5T180 171h17q-10-16-23.5-43T160 69q0-42 19.5-55.5T216 0q11 0 24.5 5.5t23 20.5q9.5 15 9.5 43 0 30-13 58t-24 44h98q-11-16-24.5-43T296 69q0-28 9.5-43T328 5.5Q341 0 353 0t25 5.5Q391 11 400.5 26t9.5 43q0 30-13.5 58T373 171h97q-11-16-24-43t-13-59q0-28 9.5-43t23-20.5Q479 0 490 0q17 0 36.5 13.5T546 69q0 30-13 58t-24 44h98q-10-16-23.5-43T570 69q0-28 9.5-43T602 5.5Q615 0 627 0q11 0 24 5.5T673.5 26q9.5 15 9.5 43 0 30-13 58t-24 44h19q12-14 39-28.5t62-14.5q48 0 68.5 16.5T855 181q0 20-20.5 38.5T766 238q-27 0-48-9.5t-35-21Q669 196 665 191h-19q11 16 24 44t13 59q0 41-20 55t-36 14q-17 0-37-14t-20-55q0-31 13-59t24-44h-98q11 16 24 44t13 59q0 41-19.5 55T490 363q-17 0-37-14t-20-55q0-31 13-59t24-44h-97q10 16 23.5 44t13.5 59q0 41-20 55t-37 14q-17 0-37-14t-20-55q0-31 13.5-59t24.5-44h-98q11 16 24 44t13 59q0 41-20 55t-37 14zm411-198q9-13 23-39t14-57q0-29-11.5-39.5T627 19q-14 0-26 10.5T589 69q0 28 14 55t24 41zm-137 0q9-13 23-39t14-57q0-29-12-39.5T490 19q-14 0-25.5 10.5T453 69q0 28 13.5 55t23.5 41zm-137 0q9-13 23-39t14-57q0-29-11.5-39.5T353 19q-14 0-25.5 10.5T316 69q0 28 13.5 55t23.5 41zm-137 0q10-13 24-39t14-57q0-29-12-39.5T216 19q-13 0-25 10.5T179 69q0 28 14 55t23 41zm550 54q43 0 56.5-12.5T836 181q0-13-19.5-23T766 148q-31 0-52.5 12T683 181q8 9 29 23.5t54 14.5zm-687 0q33 0 54-14.5t29-23.5q-10-9-30.5-21T79 148q-31 0-50.5 10T9 181q0 13 13.5 25.5T79 219zm274 124q14 0 25.5-10t11.5-39q0-29-13.5-56T353 198q-10 13-23.5 39.5T316 294q0 29 11.5 39t25.5 10zm-137 0q14 0 26-10t12-39q0-29-14-56t-24-40q-9 13-23 39.5T179 294q0 29 12 39t25 10zm274 0q13 0 25-10t12-39q0-29-13.5-56T490 198q-10 13-23.5 39.5T453 294q0 29 11.5 39t25.5 10zm137 0q14 0 25.5-10t11.5-39q0-29-14-56t-23-40q-10 13-24 39.5T589 294q0 29 12 39t26 10z" fill="currentColor"/></svg>