<svg xmlns="http://www.w3.org/2000/svg" viewBox="0 0 595.3 265.5"><path d="M297 14.7c11.2 0 18.1 8.9 20.8 26.8.4 11.6-.6 21.9-3 30.8S306.3 96.5 297 118c-9.8-21-16-36.1-18.4-45.2-2.5-9.2-3.7-19.6-3.7-31.2 3.1-17.9 10.4-26.9 22.1-26.9zm-.7 235.3c-11.2 0-18.3-8.7-21.5-26.1 0-12.1 1.2-22.7 3.7-31.8 2.5-9.2 8.4-24.2 17.8-45.2 9.4 21.5 15.4 36.6 18.1 45.6 2.7 8.9 3.6 19.4 2.7 31.5-2.3 17.3-9.2 26-20.8 26zM459.2 14.7c11.2 0 18.1 8.9 20.8 26.8.4 11.6-.6 21.9-3 30.8-2.5 8.9-8.4 24.1-17.8 45.6-9.8-21-16-36.1-18.4-45.2-2.5-9.2-3.7-19.6-3.7-31.2 3.1-17.8 10.5-26.8 22.1-26.8zm0 236c-11.6 0-19-8.7-22.1-26.1 0-12.1 1.2-22.7 3.7-31.8 2.5-9.2 8.6-24.2 18.4-45.2 9.4 21.5 15.3 36.6 17.8 45.6 2.5 8.9 3.5 19.4 3 31.5-2.7 17.3-9.6 26-20.8 26zm121.3-118c0 11.2-8.7 18.3-26.1 21.5-11.6 0-22-1.2-31.2-3.7s-24.5-8.4-45.9-17.8c21.5-9.4 36.8-15.4 45.9-18.1 9.2-2.7 19.6-3.6 31.2-2.7 17.4 2.3 26.1 9.2 26.1 20.8zm-444.4-118c11.2 0 18.3 8.9 21.5 26.8 0 11.6-1.2 22-3.7 31.2s-8.4 24.2-17.8 45.2c-9.4-21.5-15.4-36.6-18.1-45.6-2.7-8.9-3.6-19.2-2.7-30.8 2.2-17.8 9.2-26.8 20.8-26.8zm0 235.3c-11.6 0-19-8.7-22.1-26.1 0-12.1 1.2-22.7 3.7-31.8 2.5-9.2 8.6-24.2 18.4-45.2 9.4 21.5 15.3 36.6 17.8 45.6 2.5 8.9 3.5 19.4 3 31.5-2.7 17.3-9.6 26-20.8 26zM14.7 132.7c0-11.6 8.7-19 26.1-22.1 11.6 0 22 1.2 31.2 3.7s24.5 8.6 45.9 18.4C96 142.1 80.6 148 71.6 150.5c-8.9 2.5-19.2 3.5-30.8 3-17.3-2.7-26.1-9.6-26.1-20.8zM116.6 114l-36.2-11.4c-14.7-4.5-27.9-6.7-39.5-6.7C13.6 98.5 0 110.8 0 132.7c0 21.5 13.6 33.3 40.9 35.5 11.6.4 24.6-1.3 38.9-5.4l36.2-12.1-10.1 33.5c-4.5 14.7-6.7 27.9-6.7 39.6 2.7 27.3 15 40.9 36.9 40.9 21.5 0 33.3-13.6 35.5-40.9.4-12.1-1.3-25-5.4-38.9l-12.1-38.2h124L266 184.2c-4 14.7-6 27.9-6 39.6 2.7 27.3 14.7 40.9 36.2 40.9 21.9 0 33.7-13.6 35.5-40.9.9-12.1-.9-25-5.4-38.9l-11.4-38.2h126L429 185c-4.5 14.7-6.7 27.9-6.7 39.5 2.7 27.3 15 40.9 36.9 40.9 21.5 0 33.3-13.6 35.5-40.9.4-12.1-1.3-25.2-5.4-39.5l-10.7-34.2 36.2 12.1c14.7 4 27.9 6 39.6 6 27.3-2.7 40.9-14.7 40.9-36.2 0-21.9-13.6-33.7-40.9-35.5-11.6-.9-24.6.9-38.9 5.4L478.6 114l10.7-33.5c4-14.3 5.8-27.3 5.4-38.9C492.5 13.9 480.6 0 459.2 0c-21.9 0-34.2 13.9-36.9 41.6 0 11.2 2.2 24.1 6.7 38.9l12.1 37.5h-126l12.1-37.5c4.5-14.3 6.3-27.3 5.4-38.9C330.3 13.9 318.4 0 297 0c-21.9 0-34.2 13.9-36.9 41.6 0 11.2 2.2 24.1 6.7 38.9l12.1 37.5H154.2l12.1-37.5c4-14.7 6-27.7 6-38.9C169.6 13.9 157.5 0 136.1 0c-21.9 0-33.7 13.9-35.5 41.6-.9 11.6.9 24.6 5.4 38.9l10.6 33.5z"/></svg>