<svg xmlns="http://www.w3.org/2000/svg" viewBox="-10 0 472 1019"><path d="M81 1019l-17-8q17-38 35.5-86t34.5-99.5q16-51.5 26-100t10-85.5q0-40-12.5-93.5T130 434H27q-6-34-12.5-72.5T2.5 288q-5.5-35-9-60t-3.5-33q0-15 4.5-43.5T4 102h84q11-42 34-64t51-30q28-8 53-8t52.5 8q27.5 8 50 30t34.5 64h34l35.5.5q35.5.5 16.5-.5 4 21 8.5 49.5T462 195q0 8-3.5 33t-9 60q-5.5 35-12 73.5T425 434H322q-16 59-28.5 112.5T281 640q0 37 10 85.5t26 100q16 51.5 35 99.5t36 86l-17 8q-16-36-36.5-88.5T296 821q-18-57-27-107h-87q-9 50-26.5 107t-38 109.5Q97 983 81 1019zm105-424h79q5-37 16-80.5t23-87.5q17-65 32.5-132T352 174q0-65-20-98t-49.5-44.5Q253 20 226 20t-56.5 11.5Q140 43 120 76t-20 98q0 54 15.5 121T148 427q12 44 22.5 87.5T186 595zM44 414h81q-16-63-30.5-125.5T80 174q0-14 1.5-27.5T85 122H18q-3 11-6 35t-3 38q0 6 3.5 28.5t8.5 55q5 32.5 11 68T44 414zm283 0h82q6-32 12-67.5t11-68q5-32.5 8-55t3-28.5q0-14-2.5-38t-6.5-35h-67q2 12 3.5 25t1.5 27q0 52-14.5 114.5T327 414zM190 645h72v-17.5l1-13.5h-74q1 7 1 13.5V640zm-4 49h80q-3-15-3-30h-74q-1 7-1.5 15t-1.5 15z" fill="currentColor"/></svg>