<svg xmlns="http://www.w3.org/2000/svg" viewBox="0 0 160.4 594.6"><path d="M41.7 162H22.5v12.2h19.2V162zM80.4 0c48.5 0 72.8 52 72.8 156.1 0 51.2-5.7 101.2-17.2 150.1-11.2 49.2-16.9 96.1-16.9 140.9s13.8 93.9 41.3 147.5H0C27.8 541 41.6 491.9 41.3 447.1c-.2-44.8-6-91.7-17.2-140.9-11.2-48.9-16.9-99-16.9-150.1C7.3 52 31.6 0 80.4 0zm0 50.9c-15.7 0-23.7 35.1-24.1 105.2 0 70.6 8 128 24.1 172.3 15.4-44.3 23.1-101.7 23.1-172.3 0-70.1-7.7-105.2-23.1-105.2zm0-14.5c25.8 0 38.7 38.7 38.7 116.1h18.2c0-91.5-19-137.2-56.9-137.2-38.6 0-57.9 45.7-57.9 137.2H41C41 75.1 54.1 36.4 80.4 36.4zm0 346.6C54.1 304.3 41 237.9 41 183.9H22.5c0 32.6 5.6 73.4 16.9 122.4 11.2 49.2 16.9 89.1 16.9 119.7h47.3c0-30.6 5.6-70.6 16.9-119.7 11.2-48.9 16.9-89.7 16.9-122.4h-18.2c-.1 54-13 120.4-38.8 199.1zm-24.2 81c0 26.2-9.5 63.9-28.4 113.1H132c-19-49.2-28.4-86.9-28.4-113.1H56.2zm47.3-11.6v-13.9H56.2v13.9h47.3zm15.6-278.1h18.2V162h-18.2v12.3z"/></svg>