<svg xmlns="http://www.w3.org/2000/svg" viewBox="-10 0 998 624"><path d="M883 624q-2-10-10.5-48t-29-89Q823 436 784 387q-43-55-65-95.5t-29-72q-7-31.5-7-56.5 0-76 46-119.5T850 0q60 0 99 34t39 90q0 52-34.5 87.5T867 247q-27 0-54.5-12.5T769 191l16-10q14 27 37 36.5t45 9.5q44 0 73-29.5t29-73.5q0-44-32.5-74.5T850 19q-65 0-106 38t-41 106q0 29 8 58.5t29 67q21 37.5 60 88.5 52 67 73.5 133T902 621zm-693 0q-2-10-10.5-48T150 487q-21-51-60-100-43-55-64.5-95.5t-28.5-72q-7-31.5-7-56.5 0-76 46-119.5T156 0q61 0 100 34t39 90q0 34-16 62t-43.5 44.5Q208 247 174 247q-28 0-55.5-12.5T75 191l17-10q13 27 36 36.5t46 9.5q43 0 72-29.5t29-73.5q0-44-32-74.5T156 19Q91 19 50 57T9 163q0 29 8 58.5t29 67Q67 326 107 377q34 45 54.5 89.5t31 84.5q10.5 40 16.5 70zm346 0q-2-10-10.5-48t-29-89Q476 436 437 387q-43-55-64.5-95.5t-28.5-72q-7-31.5-7-56.5 0-76 45.5-119.5T503 0q61 0 100 34t39 90q0 34-16 62t-43.5 44.5Q555 247 521 247q-28 0-55.5-12.5T422 191l17-10q13 27 36.5 36.5T521 227q43 0 72-29.5t29-73.5q0-44-32.5-74.5T503 19q-65 0-106 38t-41 106q0 29 8 58.5t29 67q21 37.5 61 88.5 35 45 55 89.5t31 84.5q11 40 16 70z" fill="currentColor"/></svg>