<svg xmlns="http://www.w3.org/2000/svg" viewBox="-10 0 1148 1026"><path d="M752 489q-13-58-33-103.5T666 294q-35-47-49.5-76t-18-49.5Q595 148 595 128q0-59 37.5-93.5T729 0q47 0 77 27.5T836 98q0 39-27 68t-64 29q-26 0-49-10t-35-36l15-9q11 22 29.5 29t39.5 7q28 0 49.5-23.5T816 98q0-31-23.5-55T729 19q-52 0-83 28.5T615 128q0 33 13 68t55 91q45 58 62.5 111t23.5 88zm302 0q-12-58-32-103.5T969 294q-34-47-49-76t-18.5-49.5Q898 148 898 128q0-59 37.5-93.5T1031 0q48 0 77.5 27.5T1138 98q0 39-26.5 68t-64.5 29q-26 0-48.5-10T963 149l16-9q10 22 29 29t39 7q29 0 50.5-23.5T1119 98q0-31-23.5-55T1031 19q-51 0-82 28.5T918 128q0 33 12.5 68t55.5 91q44 58 62 111t23 88zm-605 0q-13-58-33-103.5T363 294q-34-47-48.5-76t-18-49.5Q293 148 293 128q0-59 37-93.5T426 0q47 0 77 27.5T533 98q0 39-27 68t-64 29q-26 0-48.5-10T358 149l16-9q10 22 29 29t39 7q29 0 50-23.5T513 98q0-31-23-55t-64-24q-51 0-82.5 28.5T312 128q0 33 13 68t55 91q45 58 62.5 111t23.5 88zm-303 0q-13-58-32.5-103.5T61 294q-34-47-49-76t-18.5-49.5Q-10 148-10 128q0-59 37.5-93.5T123 0q48 0 77.5 27.5T230 98q0 39-26.5 68T139 195q-26 0-48.5-10T55 149l16-9q10 22 29 29t39 7q29 0 50.5-23.5T211 98q0-31-23.5-55T123 19q-51 0-82.5 28.5T9 128q0 33 13 68t56 91q44 58 61.5 111t23.5 88zm606 537q-13-59-33-104t-53-90q-35-47-49.5-76.5t-18-50Q595 685 595 665q0-59 37.5-93.5T729 537q47 0 77 27t30 71q0 39-27 68t-64 29q-26 0-49-9.5T661 687l15-10q11 22 29.5 29t39.5 7q28 0 49.5-23.5T816 635q0-31-23.5-55T729 556q-52 0-83 28.5T615 665q0 33 13 68.5t55 90.5q45 58 62.5 111.5T769 1023zm-303 0q-13-59-33-104t-53-90q-34-47-48.5-76.5t-18-50Q293 685 293 665q0-59 37-93.5t96-34.5q47 0 77 27t30 71q0 39-27 68t-64 29q-26 0-48.5-9.5T358 687l16-10q10 22 29 29t39 7q29 0 50-23.5t21-54.5q0-31-23-55t-64-24q-51 0-82.5 28.5T312 665q0 33 13 68.5t55 90.5q45 58 62.5 111.5T466 1023zm605 0q-12-59-32-104t-53-90q-34-47-49-76.5t-18.5-50Q898 685 898 665q0-59 37.5-93.5T1031 537q48 0 77.5 27t29.5 71q0 39-26.5 68t-64.5 29q-26 0-48.5-9.5T963 687l16-10q10 22 29 29t39 7q29 0 50.5-23.5T1119 635q0-31-23.5-55t-64.5-24q-51 0-82 28.5T918 665q0 33 12.5 68.5T986 824q44 58 62 111.5t23 87.5zm-908 0q-13-59-32.5-104T61 832q-34-47-49-76.5t-18.5-50Q-10 685-10 665q0-59 37.5-93.5T123 537q48 0 77.5 27t29.5 71q0 39-26.5 68T139 732q-26 0-48.5-9.5T55 687l16-10q10 22 29 29t39 7q29 0 50.5-23.5T211 635q0-31-23.5-55T123 556q-51 0-82.5 28.5T9 665q0 33 13 68.5T78 824q44 58 61.5 111.5T163 1023z" fill="currentColor"/></svg>