<svg xmlns="http://www.w3.org/2000/svg" viewBox="-10 0 1451 1026"><path d="M752 489q-13-58-33-103.5T666 294q-35-47-49.5-76t-18-49.5Q595 148 595 128q0-59 37.5-93.5T729 0q47 0 77 27.5T836 98q0 39-27 68t-64 29q-26 0-49-10t-35-36l15-9q11 22 29.5 29t39.5 7q28 0 49.5-23.5T816 98q0-31-23.5-55T729 19q-52 0-83 28.5T615 128q0 33 13 68t55 91q45 58 62.5 111t23.5 88zm605 0q-13-58-32.5-103.5T1272 294q-35-47-49.5-76t-18-49.5Q1201 148 1201 128q0-59 37-93.5T1334 0q48 0 77.5 27.5T1441 98q0 39-27 68t-64 29q-25 0-48-10t-36-36l16-9q10 22 29 29t39 7q29 0 50-23.5t21-54.5q0-31-23-55t-64-24q-51 0-82.5 28.5T1220 128q0 33 13 68t56 91q44 58 61.5 111t23.5 88zm-303 0q-12-58-32-103.5T969 294q-34-47-49-76t-18.5-49.5Q898 148 898 128q0-59 37.5-93.5T1031 0q48 0 77.5 27.5T1138 98q0 39-26.5 68t-64.5 29q-26 0-48.5-10T963 149l16-9q10 22 29 29t39 7q29 0 50.5-23.5T1119 98q0-31-23.5-55T1031 19q-51 0-82 28.5T918 128q0 33 12.5 68t55.5 91q44 58 62 111t23 88zm-605 0q-13-58-33-103.5T363 294q-34-47-48.5-76t-18-49.5Q293 148 293 128q0-59 37-93.5T426 0q47 0 77 27.5T533 98q0 39-27 68t-64 29q-26 0-48.5-10T358 149l16-9q10 22 29 29t39 7q29 0 50-23.5T513 98q0-31-23-55t-64-24q-51 0-82.5 28.5T312 128q0 33 13 68t55 91q45 58 62.5 111t23.5 88zm-303 0q-13-58-32.5-103.5T61 294q-34-47-49-76t-18.5-49.5Q-10 148-10 128q0-59 37.5-93.5T123 0q48 0 77.5 27.5T230 98q0 39-26.5 68T139 195q-26 0-48.5-10T55 149l16-9q10 22 29 29t39 7q29 0 50.5-23.5T211 98q0-31-23.5-55T123 19q-51 0-82.5 28.5T9 128q0 33 13 68t56 91q44 58 61.5 111t23.5 88zm737 537q-12-59-32-104t-53-90q-35-47-49.5-76.5t-18-50Q727 685 727 665q0-59 37-93.5t96-34.5q48 0 77.5 27t29.5 71q0 39-26.5 68T877 732q-26 0-49-9.5T793 687l15-10q10 22 29 29t40 7q28 0 49.5-23.5T948 635q0-31-23.5-55T860 556q-51 0-82 28.5T747 665q0 33 12.5 68.5T815 824q45 58 62.5 111.5T900 1023zm303 0q-12-59-32-104t-53-90q-34-47-49-76.5t-18.5-50Q1030 685 1030 665q0-59 37.5-93.5T1163 537q48 0 77.5 27t29.5 71q0 39-26.5 68t-64.5 29q-26 0-48.5-9.5T1095 687l16-10q10 22 29 29t39 7q29 0 50.5-23.5T1251 635q0-31-23.5-55t-64.5-24q-51 0-82.5 28.5T1049 665q0 33 13 68.5t56 90.5q44 58 61.5 111.5t23.5 87.5zm-605 0q-13-59-33-104t-53-90q-34-47-49-76.5t-18.5-50Q424 685 424 665q0-59 37.5-93.5T558 537q47 0 77 27t30 71q0 39-27 68t-64 29q-26 0-49-9.5T490 687l15-10q10 22 29 29t40 7q29 0 50-23.5t21-54.5q0-31-23-55t-64-24q-52 0-83 28.5T444 665q0 33 13 68.5t55 90.5q45 58 62.5 111.5T598 1023zm-303 0q-13-59-33-104t-53-90q-34-47-48.5-76.5t-18-50Q122 685 122 665q0-59 37.5-93.5T255 537q47 0 77 27t30 71q0 39-27 68t-64 29q-26 0-48.5-9.5T187 687l16-10q10 22 29 29t39 7q29 0 50-23.5t21-54.5q0-31-23-55t-64-24q-51 0-82.5 28.5T141 665q0 33 13 68.5t56 90.5q44 58 61.5 111.5T295 1023z" fill="currentColor"/></svg>