<svg xmlns="http://www.w3.org/2000/svg" viewBox="-10 0 1451 488"><path d="M752 488q-13-58-33-103.5T666 294q-35-47-49.5-76.5t-18-50Q595 147 595 128q0-60 37.5-94T729 0q47 0 77 26.5T836 97q0 40-27 68.5T745 194q-26 0-49-9.5T661 149l15-9q11 22 29.5 29t39.5 7q28 0 49.5-24T816 97q0-31-23.5-55T729 18q-52 0-83 28.5T615 128q0 33 13 68t55 90q45 58 62.5 111.5T769 485zm-606 0q-13-58-32.5-103.5T61 294q-34-47-49-76.5t-18.5-50Q-10 147-10 128q0-60 37.5-94T123 0q48 0 77.5 26.5T230 97q0 40-26.5 68.5T139 194q-26 0-48.5-9.5T55 149l16-9q10 22 29 29t39 7q29 0 50.5-24T211 97q0-31-23.5-55T123 18q-51 0-82.5 28.5T9 128q0 33 13 68t56 90q44 58 61.5 111.5T163 485zm303 0q-13-58-33-103.5T363 294q-34-47-48.5-76.5t-18-50Q293 147 293 128q0-60 37-94t96-34q47 0 77 26.5T533 97q0 40-27 68.5T442 194q-26 0-48.5-9.5T358 149l16-9q10 22 29 29t39 7q29 0 50-24t21-55q0-31-23-55t-64-24q-51 0-82.5 28.5T312 128q0 33 13 68t55 90q45 58 62.5 111.5T466 485zm605 0q-12-58-32-103.5T969 294q-34-47-49-76.5t-18.5-50Q898 147 898 128q0-60 37.5-94T1031 0q48 0 77.5 26.5T1138 97q0 40-26.5 68.5T1047 194q-26 0-48.5-9.5T963 149l16-9q10 22 29 29t39 7q29 0 50.5-24t21.5-55q0-31-23.5-55T1031 18q-51 0-82 28.5T918 128q0 33 12.5 68t55.5 90q44 58 62 111.5t23 87.5zm303 0q-13-58-32.5-103.5T1272 294q-35-47-49.5-76.5t-18-50Q1201 147 1201 128q0-60 37-94t96-34q48 0 77.5 26.5T1441 97q0 40-27 68.5t-64 28.5q-25 0-48-9.5t-36-35.5l16-9q10 22 29 29t39 7q29 0 50-24t21-55q0-31-23-55t-64-24q-51 0-82.5 28.5T1220 128q0 33 13 68t56 90q44 58 61.5 111.5T1374 485z" fill="currentColor"/></svg>