<svg xmlns="http://www.w3.org/2000/svg" viewBox="-10 0 529 624"><path d="M321 624q-2-10-10.5-48t-29-89Q261 436 222 387l-10-13H-10v-69h175q-27-47-35-80.5t-8-61.5q0-76 46-119.5T288 0q61 0 100 34t39 90q0 34-16 62t-43.5 44.5Q340 247 306 247q-28 0-55.5-12.5T207 191l17-10q13 27 36 36.5t46 9.5q43 0 72-29.5t29-73.5q0-44-32.5-74.5T288 19q-65 0-106 38t-41 106q0 31 9.5 64.5T188 305h331v69H236q36 46 57 91.5t31.5 85.5q10.5 40 16.5 70zM9 355h188q-5-8-10.5-15.5T177 325H9zm213 0h277v-30H201q4 7 9.5 14.5T222 355z" fill="currentColor"/></svg>