<svg xmlns="http://www.w3.org/2000/svg" viewBox="0 0 557.5 301.6"><path d="M320.4 94c-2.7 13.4-11.4 20.2-26.2 20.2-14.3 0-24-6.7-28.9-20.2h55.1zm1.4-28.8H216.3c9.9-26 27.9-39 54.1-39 26.2 0 43.3 13 51.4 39zm28.8 0C340.3 21.7 313.4 0 269.7 0s-71.5 21.7-83.6 65.2H0V94h185.4c.9 6.7 2.2 14.3 4 22.8 13.9 40.8 41.6 74.6 83.3 101.4 53.3 33.1 83.7 60.9 91.4 83.3l30.9-1.3c-9-29.1-51.1-68.3-126.3-117.6-33.1-28.2-51.3-57.8-54.4-88.7h22.8c6.7 30.9 25.6 46.3 56.8 46.3S343.7 124.9 350 94h207.6V65.2h-207z"/></svg>