<svg xmlns="http://www.w3.org/2000/svg" viewBox="-10 0 1292 835"><path d="M673 347V119q0-49 36.5-84T807 0q59 0 96.5 34t37.5 85v228h-20V119q0-42-33-70.5T807 20q-48 0-81 29t-33 70v228zm-683 0V119q0-49 36.5-84T124 0q59 0 96 34t37 85v228h-20V119q0-42-33-70.5T124 20q-49 0-82 29T9 119v228zm342 0V119q0-49 36-84t97-35q59 0 96.5 34t37.5 85v228h-20V119q0-42-33-70.5T465 20q-48 0-81 29t-33 70v228zm683 0V119q0-49 36.5-84T1149 0q59 0 96 34t37 85v228h-19V119q0-42-33.5-70.5T1149 20q-48 0-81 29t-33 70v228zM161 835V607q0-49 36-84t98-35q58 0 95.5 34t37.5 85v228h-20V607q0-41-33-70t-80-29q-49 0-82 29.5T180 607v228zm342 0V607q0-49 36-84t97-35q59 0 96.5 34t37.5 85v228h-20V607q0-41-33-70t-81-29q-48 0-81 29.5T522 607v228zm341 0V607q0-49 36.5-84t97.5-35q59 0 96 34t37 85v228h-19V607q0-41-33-70t-81-29q-48 0-81 29.5T864 607v228z" fill="currentColor"/></svg>