<svg xmlns="http://www.w3.org/2000/svg" viewBox="-10 0 951 1070"><path d="M673 347V119q0-49 36.5-84T807 0q59 0 96.5 34t37.5 85v228h-20V119q0-41-33-70t-81-29q-48 0-81 29.5T693 119v228zm-341 0V119q0-49 36-84t97-35q59 0 96.5 34t37.5 85v228h-20V119q0-41-33-70t-81-29q-48 0-81 29.5T351 119v228zm-342 0V119q0-49 36.5-84T124 0q59 0 96 34t37 85v228h-20V119q0-41-33-70t-80-29q-49 0-82 29.5T9 119v228zm0 361V481q0-50 36.5-84.5T124 362q59 0 96 33.5t37 85.5v227h-20V481q0-42-33-71t-80-29q-49 0-82 29.5T9 481v227zm342 0V481q0-50 36-84.5t97-34.5q59 0 96.5 33.5T599 481v227h-20V481q0-42-33-71t-81-29q-48 0-81 29.5T351 481v227zm341 0V481q0-50 36.5-84.5T807 362q59 0 96.5 33.5T941 481v227h-20V481q0-42-33-71t-81-29q-48 0-81 29.5T693 481v227zm-683 362V842q0-49 36.5-84t97.5-35q59 0 96 34t37 85v228h-20V842q0-42-33-71t-80-29q-49 0-82 29.5T9 842v228zm342 0V842q0-49 36-84t97-35q59 0 96.5 34t37.5 85v228h-20V842q0-42-33-71t-81-29q-48 0-81 29.5T351 842v228zm341 0V842q0-49 36.5-84t97.5-35q59 0 96.5 34t37.5 85v228h-20V842q0-42-33-71t-81-29q-48 0-81 29.5T693 842v228z" fill="currentColor"/></svg>