<svg xmlns="http://www.w3.org/2000/svg" viewBox="-10 0 1634 347"><path d="M673 347V119q0-49 36.5-84T807 0q59 0 96.5 34t37.5 85v228h-20V119q0-41-33-70t-81-29q-48 0-81 29.5T693 119v228zm-683 0V119q0-49 36.5-84T124 0q59 0 96 34t37 85v228h-20V119q0-41-33-70t-80-29q-49 0-82 29.5T9 119v228zm342 0V119q0-49 36-84t97-35q59 0 96.5 34t37.5 85v228h-20V119q0-41-33-70t-81-29q-48 0-81 29.5T351 119v228zm683 0V119q0-49 36.5-84T1149 0q59 0 96 34t37 85v228h-19V119q0-41-33.5-70T1149 20q-48 0-81 29.5t-33 69.5v228zm342 0V119q0-49 36.5-84T1491 0q58 0 95.5 34t37.5 85v228h-19V119q0-41-33.5-70T1491 20q-49 0-81.5 29.5T1377 119v228z" fill="currentColor"/></svg>