<svg xmlns="http://www.w3.org/2000/svg" viewBox="0 0 558.2 594.6"><path d="M46 67.1c-7.3.3-10.9 2-10.6 4.6.3 2.6 3 4 8.9 4H46c6.9-.3 11.2-1.3 12.6-3 .9-1.6-2.7-3.3-12.6-5.6zm477.2-51.9c1.7 0 4 .3 5.3 1 6.9 3.3 10.9 7.9 13.6 13.6 2 5.6.7 10.3-5 15.2-3 2.6-6.3 4-10.3 4-4.6 0-9.9-1.7-15.5-5l-72.8 92.9c-11.6-10.6-25.1-16.2-40.7-16.2h-1.7l99.9-89c10.9-9.9 19.2-15.5 25.8-16.5h1.4zM45 60.2c10.6 0 19.8 4 28.8 12.6C96 79.1 107.2 85.4 107.2 93c0 7.3-2 19.5-6.6 36.4-4.6 16.5-2.6 28.8 6.6 35.4 5.6 3.6 23.1 5.6 53.2 5.6 21.5 0 49.6-1 83.7-2.6 20.8-1.3 40.3-1.7 57.9-1.7 51.3 0 89 4.3 112.4 12.9 32.1 11.6 55.6 37.7 69.1 77.7s11.6 96.2-5.6 169.3c10.6-92.6 3-155.4-23.1-188.5-26.1-33.1-61.8-51.3-107.2-54.6-14.9-1-32.4-1.7-52.9-1.7-42.7 0-97.2 2.3-164.4 6.3-29.4-2-44-11.2-44-26.8 0-15.2 3.3-33.7 10.3-55.6C98.9 91.9 80.7 84.3 42 83.3c-12.2-2-19.2-5.3-19.2-11.6.7-6.6 7.6-10.6 19.2-11.6 1 .1 2 .1 3 .1zM524.5 0h-1c-9.9.3-22.8 7.3-38 21.2L342.6 149.5c-6-.3-11.9-1-18.2-1h-27.8c-67.1 0-113.8.7-139.6 2.6-4.3.3-8.3.7-11.9.7-21.2 0-30.4-6-27.4-16.9 3.6-12.9 6.3-27.1 7.6-43 1.3-15.9-10.6-26.5-35.4-32.4-2.6-10.9-14.6-16.9-36.4-16.9-3.3 0-6.9 0-10.6.3C14.6 45.3 0 54.6 0 69.8c0 12.6 9.9 22.5 30.8 29.8 13.2 4.6 23.5 6.9 31.4 6.9 4.3 0 7.9-.7 10.6-2 1.7-1 2.6-1.3 3.6-1.3 3.6 0 3.3 6-1.7 18.5-6.3 15.5-8.6 30.1-7.6 43 1 12.9 5.6 22.8 14.2 30.8 8.6 7.6 27.4 12.2 57.5 12.2 48-3.3 88.6-5 125.3-5.6-48.6 9.3-83.7 39-84.3 90v302.6h31.7l-1-302.6c0-45 38.7-62.5 84.3-63.2h1.6c45.6.7 84.7 18.2 84.3 63.2l-1 302.6h31.7V292c-.7-51.9-37-82.3-87.3-90.9H330c48 1.7 83.7 19.8 107.2 52.6 23.5 33.1 31.7 79.4 24.8 138.9-6.9 59.5-5.3 105.8 5 139.9 8.6 40 16.2 60.2 21.8 60.2 2 .7 3.6 1 5.3 1 6 0 8.6-5 8.3-14.6-9.3-75.1-10.3-130.6-3-167.3 7.6-37 11.9-72.4 11.6-106.2-.3-33.7-10.9-68.1-31.7-103.5-16.5-28.1-52.9-45.6-108.1-51.6 9.3-6.6 18.2-11.6 24.8-12.6 1-.3 2.3-.3 3.3-.3 10.3 0 23.8 7.9 41 23.1L514 61.2c4 2.3 7.9 3.3 11.9 3.3 6.9 0 13.9-3 20.5-8.9 11.2-9.9 13.9-20.5 9.6-30.8-4-10.2-11.3-17.5-22.9-22.8-2.3-1.3-5.6-2-8.6-2z"/></svg>