<svg xmlns="http://www.w3.org/2000/svg" viewBox="-10 0 873 1004"><path d="M846 1004q-8 0-29.5-17t-46-48q-24.5-31-42-73T711 774q0-19 2-38.5t5-40.5q3-26 6.5-55t3.5-61q0-24-3-55t-15-63q-12-32-39-58v598h-20V387q-26-19-65-30t-94-11q-67 0-133 8.5T226 366v635h-20V367h-18q-50 0-66-22.5T106 289q0-17 4-40t8-38q-9 2-22.5 3T65 215q-36 0-55.5-13.5T-10 168q0-11 7.5-31T29 101q24-16 72-16 43 0 72.5 17t29.5 54q0 17-6.5 30.5t-13 26Q177 225 177 239q0 12 8 22.5t21 13.5v-24q0-41 13.5-85t42-81.5Q290 47 334 23.5T439 0q61 0 105 23.5t72 61q28 37.5 41.5 81.5t13.5 85v12q42 15 77 42.5t55.5 71.5Q824 421 824 484q0 32-3 54.5t-7 43.5q-5 25-9 53.5t-4 73.5q0 92 18 147t28 77q16 34 16 53 0 18-17 18zM226 277q8-1 23.5-3.5T284 268q46-8 110.5-17.5T525 241q31 0 63 3.5t63 12.5v-4q0-30-10-69.5t-34-77q-24-37.5-65-62T439 20q-62 0-103.5 24.5t-65.5 62q-24 37.5-34 77T226 253zm-38 70h18v-52q-23-4-35.5-20T158 239q0-19 6.5-32.5T177 181q6-12 6-25 0-26-24-38.5T101 105q-40 0-59.5 12.5t-26 27.5Q9 160 9 168q0 7 17 17t55 10q14 0 32.5-3.5T144 185q-4 18-8 39t-7 38q-3 17-3 24 0 29 12 45t50 16zM97 155q-18 4-21-12-2-16 16-18 7-2 13 1.5t7 10.5q2 15-15 18zm554 207v-84q-31-10-63-14t-63-4q-64 0-128 9.5T287 287q-40 7-61 9v50q65-3 131-11t135-8q53 0 92 9t67 26zm192 624q2 0 2-3 0-5-5.5-18.5T827 935q-6-12-17-41.5t-20-76q-9-46.5-9-108.5 0-45 4-76.5t9-54.5q4-20 7.5-42.5T805 484q0-83-39-130.5T671 284v91q37 28 53 65t19.5 74q3.5 37 3.5 65 0 35-3 64.5t-7 54.5q-6 42-6 76 0 47 16.5 86t38 67q21.5 28 38.5 43.5t19 15.5z" fill="currentColor"/></svg>