<svg xmlns="http://www.w3.org/2000/svg" viewBox="0 0 587.8 369.4"><path d="M584.1 353c7.5 14.5 3.5 19.4-11.9 14.7-12.6-7-27.6-22.7-45.1-47.2-17.5-24.5-29-64.6-34.6-120.3-5.6-55.7-18-86.9-37.1-93.4-21-9.3-74.1-13.1-159.5-11.2-68.6 0-119.9-3.5-153.9-10.5-23.8 8.4-50.1 8.6-79 .7-9.8-.9-17.7 1.2-23.8 6.3-9.8 6.1-19.1 6.1-28 0-14.9-28-14.9-56 0-83.9 8.9-6.1 18.2-6.1 28 0 6.1 4.7 14 6.8 23.8 6.3 28.9-8.4 55.3-8.4 79 0C176 8 227.3 3.3 295.9.5c55.5-3.7 140.1 14 253.9 53.2 3.7 7 3 13.8-2.1 20.3-12.6 0-24.7-1.9-36.4-5.6 11.7 20.5 20.1 68.6 25.2 144.1 2.8 28.9 18.7 75.7 47.6 140.5zm-32.9-30c-8.9-28.4-15.7-49.3-20.6-62.6-4.9-13.3-10.4-55.1-16.4-125.6-7-51.8-34.5-83.9-82.5-96.5-42.4-11.2-87.9-16.6-136.4-16.1-95.6 2.8-143.4 12.1-143.4 28 0 14 48 21.9 144.1 23.8 98.4-.5 156.9 6.8 175.6 21.7 17.7 11.2 30.3 50.4 37.8 117.5 7.3 46.1 21.3 82.7 41.8 109.8zM125.9 32.7c-11.2-2.3-22.6-2.3-34.3 0-7.5 11.7-7.5 23.1 0 34.3 11.7 2.8 23.1 2.6 34.3-.7V32.7zM62.3 67.6C69.7 56 70 44.3 63 32.7H39.2c-9.8 11.7-9.8 23.3 0 35h23.1z"/></svg>