<svg xmlns="http://www.w3.org/2000/svg" viewBox="-10 0 959 624"><path d="M879 624q-41-57-59.5-127.5T801 355v-33q0-37-9.5-85T740 140q-36 16-76.5 31.5t-91.5 26Q521 208 454 208q-63 0-109.5-10t-76-23Q239 162 226 155q-8 17-22.5 27T172 192q-18 0-33.5-12T115 149l-92 48-33-169 132 36q20-31 50-31 14 0 26.5 7.5T220 60q13-6 49-20.5t92-27Q417 0 489 0q52 0 106.5 7.5t104 19Q749 38 784.5 50T835 70q8 5 8 11 0 5-12.5 8.5T806 93h-19q13 15 31.5 46.5t32.5 81Q865 270 865 338q0 75 14.5 129.5t34 92.5q19.5 38 35.5 64zM454 188q69 0 121.5-12t90.5-27q38-15 61-26-9-11-25-27.5T668 62q-18-17-33-29-34-6-71-10t-75-4q-70 0-124 12t-88.5 25.5Q242 70 230 77q6 17 6 35 0 14-3 24 10 6 37.5 19t73 23.5Q389 189 454 188zm438 417h24q-9-17-26-52.5t-31-89Q845 410 845 338q0-70-15.5-120.5t-38.5-84q-23-33.5-46-53t-38-28Q692 44 693 44l-24-5q70 56 102 105t41 90q9 41 9 72 0 10-.5 19t-.5 16q0 71 16.5 138.5T892 605zM172 172q19 0 32-17.5t13-42.5q0-24-13-41.5T172 53q-18 0-31 17.5T128 112q0 25 13 42.5t31 17.5zm-135-4q13-6 34.5-17.5T109 131q0-1-.5-6t-.5-13q0-14 5-31L14 55zm737-92q2 0 7.5.5t10.5.5q6 0 11-.5t7-.5q-6-2-27.5-9T741 55q5 2 16.5 10T774 76z" fill="currentColor"/></svg>