<svg xmlns="http://www.w3.org/2000/svg" viewBox="0 0 592.2 413.3"><path d="M542.3 285.5c5.1-11.6 1.7-37-10.1-76.1-11.9-39.1-27.9-72.5-48.2-100.1-20.2-27.7-23-44.7-8.4-50.9 14.7-6.3 24.5-10.1 29.7-11.5 5.6-2.3 7.9-5.8 7-10.5-2.3-6-6.2-8.4-11.5-7-5.4 1.4-15.4 4.7-30 9.8-14.7 5.1-27.3 6.5-38 4.2-87.5-15.8-147.3-23-179.4-21.6-32.6 1.4-60.4 6-83.4 14-23 7.9-44.8 11.9-65.3 11.9-37.2 0-59.6.2-67 .7-11.6.9-17.2 7-16.7 18.1-.5 11.5 4.6 17.3 15.3 17.3 8.8.5 31.9.7 69.1.7 25.1 0 48.7 3.1 70.8 9.4 22.1 6.3 45.9 11.3 71.5 15 25.1 0 82.4-7 171.7-20.9 32.1 2.3 52.5 21.2 61.1 56.5 8.6 35.4 18.5 66.1 29.7 92.1 11.1 26.1 21.8 42.4 32.1 48.9zm40.5 127c-8.4 2.3-14-.5-16.7-8.4-16.7-48.9-27.5-78.9-32.1-90-24.2-31.6-42.3-62.5-54.4-92.5-12.1-30-19.2-56.6-21.3-79.9-2.1-23.3-15-34.2-38.7-32.8-89.3 13-143.1 19.5-161.2 19.5-21.9 1.4-47-2.8-75.4-12.6s-82-14.6-160.6-14.6C7 101.2-.4 89.6 0 66.3 0 43 7.4 31.4 22.3 31.4c7.4-.9 17.9-1.6 31.4-2.1h50.9c27-2.8 50.4-7.8 70.1-15C194.5 7.1 219 2.3 248.3 0c31.6-.5 63.9 3.4 96.7 11.5 32.8 8.1 63.4 11.7 91.8 10.8 12.1 1.4 26.1-.6 41.9-5.9 15.8-5.4 26.9-8.5 33.1-9.4 6.3-.9 12 7 17.1 23.7 6 16.7 3 26.8-9.1 30-21.4 4.2-31.4 10.7-30 19.5 1.4 8.8 9.1 21.1 23 36.6 14 15.6 26.6 40.6 38 75 11.4 34.4 15.7 72.1 12.9 113.1 3.3 11.6 12.3 42.1 27.2 91.4 3 8.1.2 13.4-8.1 16.2z"/></svg>