<svg xmlns="http://www.w3.org/2000/svg" viewBox="-10 0 851 626"><path d="M804 626q-25-32-48.5-75.5T717 459q-15-48-15-94 0-37 1.5-73.5t-5-69.5q-6.5-33-30-58.5T595 122q-56 22-115 37.5T360 175q-53 0-88.5-7T206 154q-30-7-64-7-17 0-39.5 7T56 161q-32 0-49-23t-17-50q0-11 5.5-28t20-29.5Q30 18 56 18q31 0 49 10t34 10q26 0 60.5-9.5t82-19Q329 0 393 0q52 0 115.5 8.5T630 40l131-30 15 19-3 22q-13 8-33.5 17T703 82q33 27 53.5 66t20.5 93q0 23-2.5 51t-5 53.5Q767 371 767 385q0 26 12 65t29 80q17 41 33 72zm4-25l8-6q-6-12-17.5-37.5t-23-57Q764 469 756 438t-8-53q0-22 4-64t4-77q0-58-25.5-97.5t-67-64.5q-41.5-25-90-38.5t-96-18.5Q430 20 394 20q-63 0-110.5 9.5t-83 19Q165 58 139 58q-14 0-24-5T92 43q-13-5-36-5-27 0-37 19T9 88q0 20 12 37t35 17q23 0 45-7.5t41-7.5q35 0 64 7t64.5 14q35.5 7 89.5 7 59 0 113.5-14.5T595 102q56 18 83.5 44.5t36 60q8.5 33.5 8 73.5t-.5 85q0 43 14 87t34 82.5q20 38.5 38 66.5zM682 68q17-3 38-12t35-17l-1-8-96 23q7 3 12.5 6.5T682 68z" fill="currentColor"/></svg>