<svg xmlns="http://www.w3.org/2000/svg" viewBox="-10 0 944 325"><path d="M918 325q-9-15-35.5-50t-70-78Q769 154 708 117l-8-4q-46 24-110 42t-149 18q-88 0-141-18.5T210 113l-2 2q-32 19-61.5 33T81 162q-12 0-34-3.5T7.5 142Q-10 129-10 101q0-25 21.5-45T81 36q34 0 62 14t58 34l9 7q42-25 96.5-47.5T434 21q79 0 146 19.5T700 89q54-30 81-58.5T812 0l16 12q-5 4-31 31.5T720 101q65 39 110 85t71 82q26 36 33 46zM441 154q76 0 135-15.5T678 101q-50-26-111.5-43T434 41q-68 0-117 19.5T229 102q33 20 81.5 36T441 154zM80 142q31 0 57.5-12t54.5-29q-4-1-20.5-12.5T131 66q-24-11-50-11-34 0-53 13.5T9 101q0 15 12.5 24t29 13q16.5 4 29.5 4z" fill="currentColor"/></svg>