<svg xmlns="http://www.w3.org/2000/svg" viewBox="-10 0 1157 305"><path d="M568 305q-105 0-178-16.5T273 252q-44-20-63-31-18 23-51.5 29.5T78 257h-88v-20h88q41 0 70-5t45-22.5q16-17.5 16-56.5 0-37-17-54.5T145 76q-30-5-67-5h-88V52h88q43 0 76.5 5.5T207 85q17-10 61-30.5T386.5 17Q461 0 568 0t181.5 17Q824 34 868 54.5T929 85q20-22 53.5-27.5T1059 52h88v19h-88q-38 0-67.5 5T945 98.5Q928 116 928 153q0 39 16 56.5t45.5 22.5q29.5 5 69.5 5h88v20h-88q-46 0-80-6.5T927 221q-18 11-62.5 31t-118 36.5Q673 305 568 305zm0-20q99 0 171-16t116.5-35.5Q900 214 917 204q-8-21-8-51 0-32 10-51-16-10-60.5-30t-117-36.5Q669 19 568 19T395 35.5Q323 52 278.5 72T218 102q10 19 10 51 0 31-9 51 17 10 61.5 29.5T397 269q72 16 171 16z" fill="currentColor"/></svg>