<svg xmlns="http://www.w3.org/2000/svg" viewBox="0 0 589.1 142.2"><path d="M464.7 71.1c0-14.1-15.6-24.1-46.8-30.1-31.2-5.9-72.3-9.1-123.4-9.6-51 .5-92.2 3.6-123.4 9.6-31.1 5.9-46.7 16-46.7 30.1s15.5 24.1 46.5 30.1c31 5.9 72.2 9.1 123.7 9.6 51.5-.5 92.7-3.6 123.7-9.6s46.4-16 46.4-30.1zM6.2 25.3c8.2-2.7 19.5-4.2 33.8-4.4 14.3-.3 29.5 2.1 45.4 7.1 33.7-2.7 67.1-8 100.1-15.7 33-7.7 69.4-11.8 109-12.3 39.6.5 76 4.6 109 12.3 33 7.7 66.4 13 100.1 15.7 15.9-5 31.1-7.4 45.4-7.2 14.4.2 25.6 1.7 33.8 4.4 8.2 8.7 8.2 17.5 0 26.7-25.5-4.6-48.8-5.2-69.7-2.1-15.9 3.2-23.9 10.3-23.9 21.2s8 18.5 23.9 22.6c21 2.3 44.2 1.4 69.7-2.7 8.2 8.7 8.2 17.3 0 26-8.2 3.2-19.5 4.8-33.8 4.8-14.4 0-29.5-2.3-45.4-6.8-33.7 2.3-67.2 7.3-100.5 15s-69.5 11.8-108.7 12.3c-39.2-.5-75.4-4.6-108.7-12.3-33.3-7.7-66.7-12.8-100.5-15-15.9 4.6-31.1 6.8-45.4 6.8-14.4 0-25.6-1.6-33.8-4.8-8.2-8.7-8.2-17.3 0-26 25.5 4.1 48.8 5 69.7 2.7C91.8 89.5 99.8 82 99.8 71.1s-8-18-23.9-21.2c-21-3.2-44.2-2.5-69.7 2.1-8.3-9.2-8.3-18.1 0-26.7z"/></svg>