<svg xmlns="http://www.w3.org/2000/svg" viewBox="-10 0 1159 211"><path d="M108 211q-37 0-69.5-15T-10 167q13-17 18.5-24.5t9-12Q21 126 28 118q9 7 33.5 17.5T107 146q22 0 41-8.5t19-32.5q0-24-19-32t-41-8q-21 0-45.5 10.5T28 92l-38-48Q6 30 38.5 15T108 0q35 0 67.5 16.5T222 65h695q14-32 46.5-48.5T1031 0q38 0 70 15t48 29l-38 48q-9-6-33-16.5T1033 65q-22 0-41 8t-19 32q0 24 19 32.5t41 8.5q21 0 45-10.5t33-17.5q6 8 10 12.5t10 12q6 7.5 18 24.5-16 14-48 29t-70 15q-35 0-67.5-16.5T917 145H222q-14 33-46.5 49.5T108 211zm1-20q33 0 62.5-17.5T208 126h724q7 30 36 47.5t62 17.5q30 0 54.5-9.5T1122 163l-15-19q-14 7-33.5 14t-40.5 7q-18 0-36.5-5t-31-18.5Q953 128 953 105t12.5-36.5Q978 55 996.5 50t36.5-5q22 0 41 7.5t33 14.5l15-19q-13-9-37.5-19T1030 19q-33 0-62 18t-37 48H208q-7-30-36.5-48T109 19q-30 0-54 10T17 48l15 19q13-7 33-14.5t42-7.5q18 0 36 5t30.5 18.5Q186 82 186 105t-12.5 36.5Q161 155 143 160t-36 5q-22 0-42-7t-33-14l-15 19q14 9 38 18.5t54 9.5z" fill="currentColor"/></svg>