<svg xmlns="http://www.w3.org/2000/svg" viewBox="-10 0 340 1004"><path d="M9 1004l-19-14 157-237-74-114q-13-20-22.5-41T41 552q0-37 20-66t52-42q-32-13-52-43t-20-67q0-37 20-65.5t52-41.5q-32-14-52-43t-20-67q0-50 34.5-83.5T160 0q32 0 59 15.5T262 58q16 27 16 60 0 37-20.5 66T206 227q31 14 51.5 42.5T278 335q0 38-20.5 67T206 444q31 13 51.5 42t20.5 66q0 23-8.5 44.5T247 639l-75 114 158 237-20 14-150-231zm151-787q41 0 70-30t29-70q0-26-13.5-48t-36-36Q187 19 160 19q-41 0-70 29t-29 69q0 42 29.5 71t69.5 29zm0 218q27 0 49.5-14t36-37q13.5-23 13.5-50 0-25-13.5-47.5t-36-36.5Q187 236 160 236q-43 0-71 30t-28 68q0 42 29.5 71.5T160 435zm0 298l69-104q11-17 20.5-35.5T259 552q0-25-13.5-48t-36-37Q187 453 160 453q-41 0-70 29.5T61 551q0 21 7.5 38.5T88 625z" fill="currentColor"/></svg>