<svg xmlns="http://www.w3.org/2000/svg" viewBox="0 0 166.3 594.4"><path d="M66.8 296.5c-19-25.5-28.5-49.4-28.5-71.7 0-26.9 8.1-49.9 24.4-68.9 1.4-5.1-4.3-15.2-17.1-30.3-12.8-15.1-18.9-35.8-18.4-62.3C27.1 21.1 45.7 0 82.8 0c37.6 0 56.4 21.1 56.4 63.3 0 26.4-6.3 47.2-18.8 62.3-12.5 15.1-18.1 25.2-16.7 30.3 15.8 19 23.7 42 23.7 68.9 0 22.3-8.8 46.2-26.4 71.7H66.8zm16-162.9c20.4-23.2 30.6-46.6 30.6-70.3 0-26.9-10.2-40.4-30.6-40.4S52.2 36.4 52.2 63.3c0 23.7 10.2 47.1 30.6 70.3zm0 139.9c14.4-14.8 21.6-31.1 21.6-48.7 0-31.1-7.2-46.6-21.6-46.6s-21.6 15.5-21.6 46.6c0 17.6 7.2 33.9 21.6 48.7zm18.1 23c17.6 19 26.4 42 26.4 68.9 0 22.3-9.3 45.9-27.8 71-2.8 6 3.8 20.2 19.8 42.5s31.7 60.8 47 115.5H135c-10.2-36.2-19.1-62.1-26.8-77.6-7.7-15.5-16.1-28.2-25.4-37.9-8.8 9.7-17.2 22.4-25.1 37.9-7.9 15.5-16.9 41.4-27.1 77.6H0c16.2-54.8 32-93.3 47.3-115.5 15.3-22.3 21.8-36.4 19.5-42.5-19-25.1-28.5-48.7-28.5-71 0-26.9 9.5-49.9 28.5-68.9h34.1zM82.8 414.1c14.4-14.8 21.6-31.1 21.6-48.7 0-31.1-7.2-46.6-21.6-46.6s-21.6 15.5-21.6 46.6c0 17.6 7.2 33.9 21.6 48.7z"/></svg>