<svg xmlns="http://www.w3.org/2000/svg" viewBox="-356 0 1051 1004"><path d="M58 1004l-19-14 157-237-74-114q-13-20-22.5-41T90 552v-7H8l-115 34h-99l-99-46-51-56 33-29 81 47q11 7 35.5 12t46.5 5q42 0 69-11l-3-11q-6 1-19 2t-26 1.5q-13 .5-19 .5-40 0-72-27l19-37q11 4 24 8.5t24 4.5q21 0 43-5t36-7l83 35 160-23q-31-14-50-43t-19-66q0-37 20-65.5t52-41.5q-32-14-52-43t-20-67q0-50 34.5-83.5T209 0q32 0 59 15.5T311 58q16 27 16 60 0 37-20.5 66T255 227q31 14 51.5 42.5T327 335q0 27-10.5 49.5T288 424l7-1h226l25-297h125l24 419H327v7q0 23-8.5 44.5T296 639l-75 114 158 237-20 14-150-231zm155-787q38-2 66.5-31t28.5-69q0-26-13.5-48t-36-36Q236 19 209 19q-41 0-70 29t-29 69q0 42 30 71t73 29zm-414 345h92L4 528h671l-24-384h-87l-23 296H294q-24 4-42 6.5t-36.5 5.5q-18.5 3-45.5 7t-68.5 10Q60 475-4 485l-81-37q-13 2-35.5 7t-45.5 5q-8 0-18-3t-18-5l-5 10q18 15 50 15 7 0 22-1l30-2 22-1q3 7 6 17t5 20q-16 10-42 14.5t-49 4.5q-24 0-48.5-5.5T-259 504l-64-39-13 11 44 45zm417-127q28 0 48.5-15t32-38q11.5-23 11.5-48t-13.5-47.5Q281 264 258.5 250T209 236q-43 0-71 30t-28 68q0 42 30.5 71.5T216 435zm-7 298l69-104q11-17 20.5-35.5T308 552q0-5-1-7H110v6q0 21 7.5 38.5T137 625z" fill="currentColor"/></svg>