<svg xmlns="http://www.w3.org/2000/svg" viewBox="-10 0 490 1003"><path d="M73 1003l-17-14 167-254-82-127q-8-12-20.5-37T108 515q0-41 21.5-72t56.5-44q-35-14-56.5-46T108 280q0-8 .5-15.5T111 250l-121-76q13-38 44.5-78t82-68Q167 0 235 0t118.5 28q50.5 28 82 68t44.5 78l-121 75q4 13 4 32 0 41-22 72.5T284 399q34 13 56.5 43t22.5 73q0 31-13 56t-20 37l-83 127 168 254-17 14-163-250zm44-773q14-34 46-55t72-21q39 0 71 21t47 55l102-63q-12-32-40.5-66.5t-74-58Q295 19 235 19q-61 0-106 23.5t-73.5 58Q27 135 15 167q8 5 28 17t41 25q21 13 33 21zm118 160q31 0 55.5-15.5t39-40.5q14.5-25 14.5-54 0-28-14.5-52.5t-39.5-40Q265 172 235 172t-54.5 15q-24.5 15-39 39.5T127 280q0 45 31.5 77.5T235 390zm0 327l81-121q7-11 17.5-34t10.5-47q0-28-15-52t-39.5-39Q265 409 235 409q-28 0-53 14t-40 38.5Q127 486 127 515q0 24 10 47t18 34z" fill="currentColor"/></svg>