<svg xmlns="http://www.w3.org/2000/svg" viewBox="0 0 267.7 594.2"><path d="M134.4 0c-29.2 0-56 8.8-80.6 25.8S10.9 70 0 107.5l63 4.1c-1.3 7-2.1 14.6-2.1 23.8 0 28.3 15.7 60.4 47.5 96.1-12.6 24.4-22.2 45.8-21.7 74.4-1 43.3 10.4 57.6 24.8 98.2L27.9 594.2h43.4l63-157.1 62 157.1h44.4L157 404c14.4-40.6 24.3-53.8 23.8-98.2.5-28.6-8.6-50-21.7-74.4 32.3-35.8 48.6-67.8 48.6-96.1 0-9.2-1.4-16.8-3.1-23.8l63-4.1C256.8 70 239.8 42.8 215 25.8S163.1 0 134.4 0zm.2 14.3c52.4-.3 97 38.8 112.8 77.6l-47.6 7c-12-23.8-36.3-37.1-68.5-36.9-30.7.2-54.8 15.9-63.4 36.9L21 88.2c20.3-43.3 67.2-73.6 113.6-73.9zm-.2 85.9c19.2 0 28.9 12 28.9 35.1 0 20.9-9.8 43.4-28.9 68.2-19.2-24.9-28.9-47.3-28.9-68.2-.1-23 9.7-35.1 28.9-35.1zm0 163.3c15.8 23.2 20.9 61.5 0 100.2-13.6-30-18.1-66.9 0-100.2z"/></svg>