<svg xmlns="http://www.w3.org/2000/svg" viewBox="-10 0 981 1003"><path d="M285 1003l-17-14 167-254q-18-29-38.5-60t-35-53Q347 600 347 599q-83-11-143.5-40T102 492.5Q61 455 36.5 418T1 354.5Q-10 328-10 322h336q-7-18-7-42 0-8 1-15.5t3-14.5l-121-76q13-38 44.5-78t82-68Q379 0 447 0t118.5 28q50.5 28 82 68t44.5 78l-121 75q4 13 4 32 0 23-7 41h255q14 0 36 1.5t39 9.5q9 4 26.5 17t32 36.5Q971 410 971 445q0 36-10 53.5T938 521q-13 5-21 5t-21.5-4q-13.5-4-25-20T859 452q0-22 4.5-39t4.5-31q0-12-6-23.5t-9-17.5q-7 21-27 55t-55.5 72.5q-35.5 38.5-89 71T553 590q-2 2-17 26t-36 57q-21 33-41 62l168 254-17 14-163-250zm44-773q14-34 46-55t72-21q39 0 71 21t47 55l102-63q-12-32-40.5-66.5t-74-58Q507 19 447 19q-61 0-106 23.5t-73.5 58Q239 135 227 167q8 5 28 17t41 25q21 13 33 21zm18 92h200q9-20 9-42 0-28-15-52.5t-39.5-40Q477 172 447 172t-54.5 15q-24.5 15-39 39.5T339 280q0 21 8 42zm77 262q92 0 160-23t115-57q47-34 75.5-69.5T816 373q13-26 15-32H17q2 6 15 32t41.5 61.5Q102 470 149 504t115 57q68 23 160 23zm493-77q9 0 22-10.5t13-51.5q0-27-12.5-48T909 363q-18-13-32-17 4 8 7.5 16.5T888 384q0 16-4.5 30.5T879 451q0 25 8 37t17 15.5q9 3.5 13 3.5zM447 717l81-121v-1q-48 9-104 9-14 0-27-.5t-26-1.5z" fill="currentColor"/></svg>