<svg xmlns="http://www.w3.org/2000/svg" viewBox="-10 0 775.111 848"><path d="M687.111 848q-94-79-176-172t-151-197l-265 221-38-46 273-227q-25-41-48-81.5t-52-102.5q-13 2-42.5 7t-63 9q-33.5 4-55.5 4-32 0-55-9t-24-37q-1-24 7-35.5t17-15q9-3.5 12-3.5 7 0 20.5 4.5t19.5 4.5q11 0 31-5t39.5-12.5q19.5-7.5 29.5-13.5 5-2 9-8t4-15q0-6-8.5-26.5t-8.5-40.5q0-16 10-33.5t43-17.5q33 0 51.5 14.5t26 35q7.5 20.5 9.5 40.5t2 31q0 19-8 43.5t-13 34.5q1 12 16.5 41.5t38.5 67q23 37.5 45 74.5l261-217 38 45-267 223q66 91 128 154t118 106.5q56 43.5 104 75.5zm-1-29l46-46q-31-22-73.5-56.5t-90.5-78.5q-48-44-94.5-97t-83.5-112l265-221-13-16-264 219q-18-28-38-61.5t-37.5-64.5q-17.5-31-28.5-54t-11-32q4-7 13-32t9-46q0-10-2-27t-9-34q-7-17-21-29t-38-12q-13 0-23.5 7.5t-10.5 24.5q0 23 8.5 38.5t8.5 28.5q0 15-4.5 24t-9.5 11q-11 7-34 16t-47 15.5q-24 6.5-37 6.5t-23-4q-10-4-18-4-2 0-9 7.5t-6 26.5q0 16 18 21t41 5q18 0 49-3.5t64-9q33-5.5 59-10.5 34 69 59 116.5t55 94.5l-270 226 12 15 268-223q36 54 69 99.5t69 88.5q36 43 80.5 87t102.5 95z" fill="currentColor"/></svg>