<svg xmlns="http://www.w3.org/2000/svg" viewBox="0 0 591.6 269.9"><path d="M166.6 84.5c-2.4 12.1-10.3 18.1-23.5 18.1-13.3 0-21.9-6-26-18.1h49.5zm1.2-25.9H72.4c8.9-23.3 25.2-35 48.9-35s39.3 11.6 46.5 35zm174.5 25.9c-2.4 12.5-10.3 18.7-23.5 18.7-12.9 0-21.5-6.2-26-18.7h49.5zm1.2-25.9h-95.4c9.3-23.3 25.6-35 48.9-35 23.8-.1 39.3 11.6 46.5 35zm176.3 25.9c-2.4 12.5-10.3 18.7-23.5 18.7-13.3 0-22.1-6.2-26.6-18.7h50.1zm.6-25.9h-94.8c8.9-23.3 25.2-35 48.9-35 23.8-.1 39.1 11.6 45.9 35zM397.8 85.1c8.5 47.5 34.8 84.5 79.1 111.1 47.9 30.2 75.1 54.7 81.5 73.7h28.4c-8-26.2-46.1-61.4-114.1-105.6-29.8-25.4-45.9-51.9-48.3-79.7h20.5c5.6 27.8 22.4 41.7 50.4 41.7s45-13.7 51-41.1h45.3V58.6h-45.3C537 20 512.9.6 473.9.6c-39 0-64.4 19.3-76.1 58h-28.4c-9.3-38.6-33.6-58-73-58-39 0-64.4 19.3-76.1 58h-27.2C183.9 19.5 159.8 0 120.7 0c-39 0-64.4 19.5-76.1 58.6H0v26h44.7c8.5 47.9 34.8 85.1 79.1 111.7 47.9 29.8 75.1 54.3 81.5 73.7h28.4c-8-26.6-46.1-61.8-114.1-105.6-29.8-25.4-45.9-51.9-48.3-79.7h20.5c5.6 27.8 22.4 41.7 50.4 41.7s45-13.9 51-41.7h27.2c8.5 47.9 34.8 85.1 79.1 111.7 47.9 30.2 75.1 54.7 81.5 73.7h28.4c-8-26.2-45.9-61.4-113.5-105.6-29.8-25.4-46.1-51.9-48.9-79.7h20.5c6 27.8 22.9 41.7 50.7 41.7 27.8 0 44.7-13.7 50.7-41.1h28.9z"/></svg>