<svg xmlns="http://www.w3.org/2000/svg" viewBox="-10 0 981 282"><path d="M424 282q-65 0-131.5-16t-127-49.5Q105 183 59 129.5T-10 0h833q14 0 36 1.5t39 9.5q9 4 26.5 17.5t32 37Q971 89 971 123q0 36-10 53.5t-23 23q-13 5.5-21 5.5t-21.5-4.5q-13.5-4.5-25-20T859 131q0-22 4.5-39.5T868 61q0-12-6-24t-9-17q-24 65-68.5 114T682 216q-58 33-124.5 49.5T424 282zm0-19q92 0 160-23t115-57q47-34 75.5-69.5t41.5-62Q829 25 831 20H17q2 5 15 31.5t41.5 62Q102 149 149 183t115 57q68 23 160 23zm493-78q9 0 22-10.5t13-51.5q0-26-12.5-47T909 41q-18-14-32-17 4 8 7.5 16.5T888 62q0 16-4.5 30.5T879 129q0 26 8 38t17 15q9 3 13 3z" fill="currentColor"/></svg>