<svg xmlns="http://www.w3.org/2000/svg" viewBox="0 0 594.6 139.3"><path d="M9.7 0C5.9 0 2.5 2.2.9 5.7s-1 7.5 1.5 10.4c70.3 82.1 145 123.2 264.7 123.2 116.5 0 196.1-39.5 272.9-115.8 2.6 7.3 4 18.8 4 39 .5 22.5.3 59.7 29.8 62.3 20.7-4.3 20.7-26.4 20.9-43.7 0-21.2-5.2-40.5-13.9-55.1-8.7-14.6-21.5-25.5-37-25.5L9.7 0zm21.8 19.5l484 .5c-70.7 67-141.6 99.8-248.5 99.8-107.3 0-172.2-31.9-235.5-100.3zm530.4 13.3c10 14.1 12.4 31.5 13.2 48.3-.4 7.9.2 16.5-3.1 24-9.3-9.3-8.5-30.6-8.7-42.6.1-11.8-.3-21.5-1.4-29.7z"/></svg>