<svg xmlns="http://www.w3.org/2000/svg" viewBox="-10 0 1071 311"><path d="M584 311q-98 0-172.5-23T283 229.5q-54-35.5-89.5-76t-55.5-76Q118 42 111 21q-3 6-9.5 17.5T95 61q0 14 5 31.5t5 40.5q0 35-11.5 51t-26 20Q53 208 45 208t-21.5-5.5Q10 197 0 179t-10-54q0-36 15-59.5t33.5-37Q57 15 66 10q8-4 22-7t43-3h930q0 7-10 32.5T1019 93q-22 35-58 73t-88.5 71q-52.5 33-124 53.5T584 311zm0-20q103 0 178-25.5T889 202q52-38 83.5-77.5t46.5-69q15-29.5 17-35.5H131q2 6 17 35.5t46.5 69Q226 164 278 202t127.5 63.5Q481 291 584 291zM45 188q4 0 13.5-3t18-15.5Q85 157 85 131q0-22-5-37t-5-31q0-13 4-22t8-17q-15 3-33 17T23 77q-13 22-13 48 0 28 6.5 41.5T31 184q8 4 14 4z" fill="currentColor"/></svg>