<svg xmlns="http://www.w3.org/2000/svg" viewBox="0 0 582.9 187.7"><path d="M230 163.9V95.2c-29.9.9-63 6.6-99.3 17v39.4c36.3 10 69.4 14.1 99.3 12.3zm-201.3-8.8c20.9 0 46.7-1.1 77.5-3.4v-39.4c-30.8-2.7-56.7-4.3-77.5-4.8-9 15.8-9 31.7 0 47.6zm525.1 0c9.1-15.9 9.1-31.7 0-47.6-20.4.5-46.2 2-77.5 4.8v39.4c31.2 2.2 57.1 3.4 77.5 3.4zm-201.3 8.8c29.9 1.8 63.2-2.3 100-12.2v-39.4c-36.7-10.4-70.1-16.1-100-17v68.6zm-23.8 0V95.2h-74.1v68.7h74.1zm0-92.5c-2.7-21.3-15.2-32-37.4-32s-34.5 10.7-36.7 32h74.1zm-37.4-53.7c22.7 0 39.7 10.2 51 30.6.5 0 15.9-16.1 46.2-48.3 9.1 5 14.7 12.2 17 21.8-28.6 24.5-43.1 41-43.5 49.6 38.1 6.8 72.1 14.7 102 23.8 39.4-6.8 74.8-10.4 106.1-10.9 16.8 31.3 17 62.8.7 94.5-31.7-.5-67.3-4.3-106.8-11.6-29.9 9.1-63.1 14.7-99.6 17-36.5 2.3-60.9 3.4-73.1 3.4-11.8 0-36-1.1-72.8-3.4-36.7-2.3-70.1-7.9-100-17-39 7.3-74.6 11.1-106.8 11.6-15.9-31.7-15.6-63.2.7-94.5 31.7.5 67.1 4.1 106.1 10.9 29.9-9.1 63.9-17 102-23.8 0-8.6-14.5-25.2-43.5-49.6 2.7-9.5 8.4-16.8 17-21.8l46.2 48.3c11.4-20.4 28.4-30.6 51.1-30.6z"/></svg>