<svg xmlns="http://www.w3.org/2000/svg" viewBox="-10 0 1151 408"><path d="M566 408q-20 0-56.5-6.5T429 385q-44-10-86-20.5T267.5 345q-33.5-9-48.5-13h-64l-165 39V137l165 46h67q17-4 49.5-13.5t73-20.5q40.5-11 81.5-21L327 0h72l85 105q7-24 27-49t54-25q33 0 52.5 25t27.5 49L730 0h72l-98 128q41 10 82 21t73.5 20.5Q892 179 909 183h67l165-46v234l-165-39h-64q-17 5-50.5 14t-76 19.5Q743 376 700 385.5t-79 16q-36 6.5-55 6.5zm117-285l81-105h-23l-80 100q5 1 10.5 2t11.5 3zm-237 0l23-5-81-100h-23zm55-11q39-9 65-9 20 0 62 8-9-24-24-42t-39-18q-26 0-41 18t-23 43zm65 276q10 0 24-1.5t31-3.5V129q-17-3-31-5t-24-2q-11 0-25 2t-31 5v254q17 2 31 3.5t25 1.5zm74-9q35-7 75-16t78.5-19q38.5-10 68-17.5T904 315V201q-13-4-42-12t-67.5-18.5Q756 160 715.5 150T640 133zm-149 0V133q-37 8-78.5 18t-80 20.5Q294 182 265.5 190T227 201v114q14 4 43 11.5t67.5 17.5q38.5 10 78.5 19t75 16zM9 344l136-29V200L9 162zm1113 0V162l-136 38v115zm-958-31h43V203h-43zm760 0h43V203h-43z" fill="currentColor"/></svg>