<svg xmlns="http://www.w3.org/2000/svg" viewBox="-10 0 558 817"><path d="M300 817q-33 0-71-6.5t-75-23q-37-16.5-67.5-47t-49-78Q19 615 19 547q0-56 20.5-105T93 351q33-42 70-74.5t70-56q33-23.5 53-35.5-37-10-79.5-24T124 132.5Q84 118 53 106T7 86l-17-9L30 0l10 4q63 22 116 53t93 60.5q40 29.5 62 48.5 4-8 14.5-22.5t26-26Q367 106 387 106q26 0 38.5 14.5T438 154q0 19-16 34t-48 15q-5 0-12-.5t-15-1.5q13 13 37.5 39.5t52.5 63q28 36.5 53 80t41.5 90Q548 520 548 567q0 69-23 117t-60 77q-37 29-80.5 42.5T300 817zm-20-652q-25-20-62-46t-82.5-51Q90 43 40 25L17 68q13 7 42 19t67 26q38 14 78 27.5t76 24.5zm94 19q23 0 34-9.5t11-20.5q0-11-8-20t-24-9q-19 0-36 19.5T326 177q15 4 28 5.5t20 1.5zm-74 614q38 0 78-12t74.5-39q34.5-27 55.5-71.5T529 567q0-47-20.5-99.5t-53-103.5q-32.5-51-70-95.5T314 193h-1q-12 7-43.5 27T199 271.5Q160 303 123.5 345T63 438q-24 51-24 109 0 79 25.5 128.5t66 76Q171 778 216 788t84 10z" fill="currentColor"/></svg>