<svg xmlns="http://www.w3.org/2000/svg" viewBox="0 0 338.3 428.6"><path d="M260.8 428.6H157.2c-29.2-8.1-51-23.1-65.4-45-14.4-21.9-17.9-50.9-10.6-86.9 7.3-36 33.4-79.5 78.2-130.4 2-7.1-1-11.6-9.1-13.6L0 92.2 62 0l119.4 118.7c7.1 10.6 16.4 18.1 28 22.7 32.3-17.6 49.4-9.1 51.4 25.7 43.3 50.4 68.2 93.5 74.5 129.3 6.3 35.8 2.8 64.8-10.6 86.9-13.4 22.1-34.7 37.2-63.9 45.3zM160.3 132.3L65.8 43.8 43.1 80.1l117.2 52.2zm49.1 264.6c37.3 0 62.9-7.7 76.7-23.1 13.9-15.4 21-33.4 21.5-54 .5-20.7-8.1-46.4-25.7-77.1-17.6-30.7-41.8-54.4-72.6-71.1-30.7 16.6-54.9 40.2-72.6 70.7-17.6 30.5-26.3 56.1-26.1 76.7.3 20.7 6.8 38.8 19.7 54.4s39.3 23.5 79.1 23.5z"/></svg>