<svg xmlns="http://www.w3.org/2000/svg" viewBox="-10 0 526 707"><path d="M253 707q-54 0-102-27.5t-84-76Q31 555 10.5 491T-10 354q0-74 20.5-138T67 103.5q36-48.5 84-76T253 0q54 0 102 27.5t84 76Q475 152 495.5 216T516 354q0 73-20.5 137T439 603.5q-36 48.5-84 76T253 707zM27 229h452q-18-61-52-108.5T348.5 46Q304 19 253 19q-52 0-96.5 27t-78 74.5Q45 168 27 229zM9 344h487q-2-50-12-95H22q-6 23-9 46.5T9 344zm13 115h461q6-23 9-47t4-49H9q1 25 4 49t9 47zm231 229q51 0 95.5-27t78.5-74q34-47 52-109H27q18 62 51.5 109t78 74q44.5 27 96.5 27z" fill="currentColor"/></svg>