<svg xmlns="http://www.w3.org/2000/svg" viewBox="0 0 375.8 523.8"><path d="M218 523.8c-65.1 0-108-21.9-128.5-65.8-20.5-43.8-30.3-92.3-29.3-145.4-.5-72.2 32.6-125.5 99.2-160.1L0 74.4 54.9 0 218 136c10.5-1.5 20.4-8.3 29.7-20.3s20.4-15.3 33.4-9.8c9 6.5 12.5 13.5 10.5 21s-7.3 16-15.8 25.6c66.6 34.6 100 87.9 100 160.1.5 53.1-9.5 101.6-30.1 145.4-20.5 43.9-63.1 65.8-127.7 65.8zm-31.6-384L58.6 31.6 33.1 66.9l153.3 72.9zm154.1 150.3c-19-69.6-59.9-104.7-122.5-105.2-63.1 0-102.2 35.1-117.2 105.2h239.7zm0 37.6H100c.5 43.1 7.9 81 22.2 113.9 14.3 32.8 46.2 49.2 95.8 49.2 49.1 0 81.8-16.4 98.1-49.2 16.2-32.9 24.4-70.8 24.4-113.9z"/></svg>