<svg xmlns="http://www.w3.org/2000/svg" viewBox="-10 0 583 818"><path d="M292 818q-82 0-137.5-36t-89-94q-33.5-58-48-127T3 426h44q21-46 53.5-85t67.5-69.5q35-30.5 66.5-52.5t51.5-34q-37-10-79.5-24T124 132.5q-40-14.5-71-27T7 86l-17-9L30 0l10 4q63 22 116 53t93 60.5q40 29.5 62 48.5 4-9 14.5-23t26-25.5Q367 106 387 106q26 0 38.5 14.5T438 154q0 19-16 34t-48 15h-12l-15-2q16 15 45.5 48.5t62.5 79q33 45.5 58 97.5h60q0 68-13.5 137.5t-45 127Q483 748 428.5 783T292 818zm-12-653q-25-20-62-46t-82.5-51Q90 43 40 25L17 68q13 7 42 19t67 26q38 14 78 28t76 24zm94 19q23 0 34-9.5t11-20.5q0-11-8-20t-24-9q-19 0-36 19t-25 33q15 4 28 5.5t20 1.5zM69 426h421q-34-67-83.5-129.5T314 193h-1q-12 6-42 25t-68 49.5Q165 298 129 338t-60 88zm223 373q64 0 108.5-24t73-62q28.5-38 45-81.5t24-83.5q7.5-40 9.5-68t2-34H23q0 6 2.5 34T36 548q8 40 25.5 83.5t47 81.5q29.5 38 74.5 62t109 24z" fill="currentColor"/></svg>