<svg xmlns="http://www.w3.org/2000/svg" viewBox="-10 0 646 732"><path d="M46 732q1-15 5.5-52T66 596.5Q76 550 93 506q12-28 27-62.5t30-66.5q15-32 27-55-11-14-30.5-38.5T104 229q-23-30-45.5-60.5T18 113Q0 88-10 74L86 0l314 263 236 469H512q-11-31-37-64.5T411 611q-38-23-88-23-49 0-85 23t-59 56.5Q156 701 147 732zm20-19h66q5-12 17-35.5t34.5-48.5q22.5-25 57-43t82.5-18q53 0 94 23.5t68 57q27 33.5 39 64.5h80q-11-22-35-70.5T513 530q-32-64-65.5-130.5T385 275L86 25Q68 39 51.5 51.5T16 78q14 20 39.5 54l54 72 53.5 69.5q53.5 69.5 38 46.5-12 23-28 56.5T140.5 446Q124 482 112 513q-16 41-25.5 80.5t-14.5 71Q67 696 66 713z" fill="currentColor"/></svg>