<svg xmlns="http://www.w3.org/2000/svg" viewBox="0 0 367.2 492.1"><path d="M357.9 492.1c-45.6-65.3-97.1-97.6-154.5-97.1-54.6 0-106.6 32.4-156.2 97.1-5.6-15.8-8.4-32.6-8.4-50.6 0-27.6 8.7-67.2 26.2-119l41.4-133.4L0 78.5C12.4 44.7 35.5 18.6 69.2 0l134.2 122.4c52.3 32.1 98.2 98.8 137.6 200 17.4 51.8 26.2 90.9 26.2 117.3 0 19.2-3.1 36.6-9.3 52.4zm-25.3-80.2c-41.1-142.9-92-230.7-152.8-263.4L65.8 37.1c-16.9 7.3-27.3 20-31.2 38l107.2 99.6-68.4 237.2c41.6-34.9 85-52.3 130-52.3 52.9-1.1 96 16.3 129.2 52.3z"/></svg>