<svg xmlns="http://www.w3.org/2000/svg" viewBox="-10 0 855 753"><path d="M423 753q-98 0-170-35.5T130.5 621Q80 560 49 483.5T4 325q-14-82-14-160h307q2-9 8-26.5t19.5-36Q338 84 361 71.5T420 59q49 0 75 23.5t37 47.5l97-94q15-14 29.5-25T693 0q25 0 33.5 14.5T735 39q0 18-12.5 31.5T704 89l-76 76h217q0 80-13 163.5T790 488q-29 76-77.5 135.5t-120 94.5Q521 753 423 753zm120-588h57l95-94q2-2 11.5-12t9.5-19q0-8-6.5-14.5T691 19q-14 0-26 10.5T643 50L539 150q2 5 3 8.5t1 6.5zm-226 0h206q-2-12-12-33t-31.5-37.5Q458 78 420 78q-39 0-60 16.5T329 132q-10 21-12 33zm106 569q85 0 147-27t105.5-72.5Q719 589 747.5 534T792 422.5Q808 366 815 316t9-85q2-35 2-46H10q0 11 2.5 46T23 316q8 50 25.5 106.5T95 534q29 55 73.5 100.5T276 707q63 27 147 27z" fill="currentColor"/></svg>