<svg xmlns="http://www.w3.org/2000/svg" viewBox="0 0 419.9 428.7"><path d="M419.9 140.7c0 75.8-7.8 132.5-23.3 170.2-15.5 37.7-42.4 66.9-80.5 87.8-38.1 20.9-73.5 30.9-106.1 29.9-32.6 1-68-9-106.4-29.9-38.4-20.9-65.4-50.2-80.9-87.8S-.5 216.5 0 140.7h142.1c8.7-36 31.3-53.9 67.8-53.9 23.8 0 43.7 10.4 59.8 31.3L368.9 0l31.3 30.6-92.6 110.1h112.3zm-27.7 26.2H27.7c2.4 34.5 6.4 68.2 12 101s22.6 62 51 87.5 68.2 40.9 119.2 46.3c51-5.3 90.6-20.8 118.8-46.3 28.2-25.5 45.2-54.7 51-87.5 5.9-32.8 10-66.5 12.5-101z"/></svg>