<svg xmlns="http://www.w3.org/2000/svg" viewBox="-10 0 1195 722"><path d="M747 722q-95 0-164.5-23.5t-118-61Q416 600 386 558t-46-80q-16-38-22-63-2-11-6.5-25T300 370q-2-2-26-19.5T213 306q-37-27-79-57t-81-58q-6-4-21-17T3.5 139Q-10 117-10 86q0-15 8-35t27.5-35.5Q45 0 79 0q35 0 60.5 15t43 37q17.5 22 28 44.5T227 133l84 210q4 10 11 20t14 15q13 9 43 9h806q0 7-7 34t-24.5 65q-17.5 38-48.5 79t-79.5 76.5q-48.5 35.5-117 58T747 722zM286 335l-77-195q-2-4-10.5-22.5t-24.5-41Q158 54 134.5 37T79 20q-27 0-42.5 12T15 59.5Q9 75 9 86q0 26 11 44.5T44.5 160Q58 171 64 175zm461 368q86 0 149.5-20t108.5-52q45-32 75-68.5t47-70q17-33.5 24.5-57t8.5-28.5H339q1 5 8.5 28.5t24 57q16.5 33.5 45.5 70t73.5 68.5Q535 663 598 683t149 20z" fill="currentColor"/></svg>