<svg xmlns="http://www.w3.org/2000/svg" viewBox="-10 0 250 1023"><path d="M115 1023q-5 0-9-2.5t-7-4.5q-14-14-31-48t-33-84q-16-50-25-111Q0 706-5 644.5T-10 512q0-72 5-133.5T10 250q9-61 25-111t33-83.5Q85 22 99 8q3-3 7-5.5t9-2.5q9 0 15 8 22 22 48 86t40 156q11 67 16.5 128.5T240 512q0 71-5.5 132.5T218 773q-14 91-40 156t-48 87q-2 2-6 4.5t-9 2.5zm-1-26q11 0 28-32.5t32.5-84.5Q190 828 198 772q7-50 12-91t7.5-81q2.5-40 2.5-88t-2.5-88q-2.5-40-7.5-81t-12-92q-8-57-23.5-108.5t-32.5-84Q125 26 114 26T86.5 58.5q-16.5 32.5-32 84T30 251q-7 51-12 92t-7 81q-2 40-2 88t2 88q2 40 7 81t12 91q9 56 24.5 108t32 84.5Q103 997 114 997z" fill="currentColor"/></svg>