<svg xmlns="http://www.w3.org/2000/svg" viewBox="-10 0 435 1001"><path d="M60 1001l2-20q12-22 22.5-45t19.5-48q-16 13-42 13-27 0-42.5-14T-3 835q-7-38-7-110V546q0-87 20-130t55.5-58q35.5-15 84.5-15-4-10-12-26t-18-34q-19-34-37.5-74T64 135q0-65 38.5-100T210 0q69 0 107.5 35T356 135q0 34-18.5 74T300 283q-10 18-18 34t-12 26q47 1 82 16.5t54 58.5q19 43 19 128v179q0 72-7 110t-23 52q-16 14-42 14-21 0-35-8 8 22 18.5 44t21.5 44l2 20zm104-676h22q-11-16-26.5-44.5t-27-62Q121 185 121 152t10.5-51.5Q142 82 157.5 74t30-9.5Q202 63 210 63t22.5 1.5q14.5 1.5 30 9.5t26 26.5Q299 119 299 152t-12 66.5q-12 33.5-27.5 62T233 325h22q5-11 12.5-24t14.5-28q19-34 37-71t18-67q0-56-34-85.5T210 20q-59 0-92.5 29.5T84 135q0 30 17.5 67t36.5 71q7 15 14 28t12 24zm46 0q8-12 24.5-39.5t30.5-63q14-35.5 14-70.5t-14-49.5Q251 88 234.5 85T210 82q-8 0-24.5 3T155 102.5Q141 117 141 152t14 70.5q14 35.5 30.5 63T210 325zm-38 70q9-1 18-1h39.5l18.5 1v-44.5l1-5.5h-78q1 3 1 5.5v4.5zM62 882q23 0 35-15t16.5-37q4.5-22 4.5-44.5V747q-7-76-10.5-118.5t-5-61.5q-1.5-19-2-25t-.5-8q0-43 10.5-61t42.5-22v-35q-44 4-62.5 19.5T72 489v322H53V489q0-50 23-69.5t77-23.5v-33q-46 0-78 13.5T26 429Q9 468 9 546v179q0 64 6 98t18 46.5Q45 882 62 882zm291 0q18 0 29.5-12.5T400 823q6-34 6-98V546q0-77-16-116t-47.5-53Q311 363 267 363v33q54 4 77 23.5t23 69.5v322h-19V489q0-38-19-53.5T267 416v35q28 5 38 23t10 60q0 2-.5 8t-2 25q-1.5 19-5 61.5T297 747v38.5l4.5 44.5q4.5 44.5 16.5 37t35 15zM172 449q8-1 16.5-1H229l19 1v-35q-9 0-18-.5t-20-.5q-11 0-20 .5t-18 .5zM85 981h115V467q-7 0-14.5.5t-13.5.5v10q0 115-6.5 194.5t-18 134.5Q136 862 120 902.5T85 981zm135 0h115q-19-38-35-78.5T272.5 807q-11.5-55-18-134.5T248 478v-9q-7-1-14-1t-14-1zm-83-235q8-49 12-114t4-154v-7q-20 5-26.5 18.5T120 534q0 2 .5 7.5t2 25q1.5 19.5 5 61.5t9.5 118zm142-18q6-69 9.5-107.5t4.5-56q1-17.5 1.5-23t.5-7.5q0-29-6-42.5T267 473v5q0 79 3.5 140t8.5 110z" fill="currentColor"/></svg>