<svg xmlns="http://www.w3.org/2000/svg" viewBox="0 0 264.5 600.3"><path d="M123.4.9c-41.2.6-65.6 41.7-64.7 80-2.7 29.6 6.7 58.2 14.1 86.4-49.9 5.6-76.7 58-72.3 104.8 0 48.9-.9 102.8.7 155.4 9.1 29.1 49.6 34.1 74.7 24-7.4 51.5-27.3 100.4-45.5 148.8h201.5c-15.7-49.3-34.9-97.8-44.4-148.8 25.9 10.4 65.8 8.3 72.3-23.8 8.9-50.6 1.9-102.9 4.1-154.2 4.5-47-20.7-102.8-72.3-106.2 13.5-45.6 24.6-101.6-4.1-142.6C172.7 5.1 147.8-2.9 123.4.9zm9.3 15.5c29.1-.8 46.8 16.7 52.7 43.4 13.5 57.3-16 112.8-31.2 166.9-23.1 12.1-2.3-29.3-2.6-42.7 4.5-41.7 25.7-87.1 5.9-127.3-12.9-20.7-48.3-15-54.8 8.3-12.5 44.9 6.6 90.7 13.4 135.2 12.7 20.6-2.1 45.5-10.4 13.5C88.9 160.3 61 100.9 84.2 45.3 90.6 27 111 14.6 132.7 16.4zm0 42.4c24.9 11.2 16.5 46.9 12.7 69-4.1 23.2-8.4 46.3-12.7 69.5-6.7-39.2-20.8-78.9-16.5-118.8 2.7-8.3 6.2-19.4 16.5-19.7zm57.9 125c25.3 4.6 44.1 21.1 51.1 44.3 12 36.6 2.9 76.5 5.7 114.4-3 30 7.7 65.4-10.3 91.4-13.3 12.6-36.1 4.8-51.7-2.1-7.2-73-6.1-117 4.5-173.1 17-38.9-13.2-25.6-15.2-31.8-.3-1 2.1-14.4 12.8-9 30.7 15.7 16.3 56.2 19.6 83.9v96.9c23.5 12.7 15.5-21.9 16.5-35.1-1.9-44 3.9-89-3.1-132.4-5.4-17.1-19.6-31.4-38.2-34 3.1-3.7.7-17.9 8.3-13.4zM82.1 197.3c-36.6 7.2-46.7 48.4-42.4 81.4v120.1c24.2 13 16.9-21.2 17.6-35.1 1.9-42.6-4-86.3 3.1-128.2 3.4-13 30-33.1 31.8-9.4-15.4 1.2-27.3 7.3-16.6 32.5 9.6 57.2 12 115.8 3.4 173.3-19 10.2-51.8 14.8-60.2-10.3-3.6-57.6.1-115.1-1.8-172.6 7.5-29.8 22.4-57.7 55-64.4 9.6-4.2 6.8 7.3 10.1 12.7zm92 49.6C157.4 338 159.5 433 188.4 521.5c5.8 21.1 12.4 42.1 20.9 62.3h-154c37.9-96.8 56.9-202.7 39.9-306.2-1.9-17.4-3.8-30.5-2.9-30.5-.1-.1 63.8-.2 81.8-.2zm-50.7 9.4v288.2l17.6.2V256.2l-17.6.1z"/></svg>