<svg xmlns="http://www.w3.org/2000/svg" viewBox="0 0 536.6 594.6"><path d="M275.2 324c0-21.1-27.9-21.1-83.6 0 55.3 21.9 83.2 21.9 83.6 0zm-109.3 23c14 29 24.9 54 32.6 75.1 7.7 21.1 12.4 42.4 14.2 63.9.4 26.8-4.5 47.1-14.8 60.9-10.3 13.8-28.4 20.7-54.3 20.7-26.3 0-44.7-6.9-55-20.7-10.3-13.8-15.3-34.1-14.8-60.9 1.8-21.5 6.5-42.8 14.2-63.9 7.7-21.1 21.4-48.5 41.2-82.3h.7C100.3 321.8 57.1 315.9 0 322v-30.3c55.7-4.4 99.2-2 130.4 7.2v-89.5c4-58.4 12.6-102.2 26-131.4 13.4-29.2 34.6-50 63.5-62.6C248.9 2.9 280.1-2 313.7.6c33.6 2.6 61.9 12 84.9 28s40.9 44 53.7 83.9c12.7 39.9 19.5 95.5 20.4 166.6.9 71.1 2.4 124.7 4.6 160.7 7 47.8 26.8 92.6 59.3 134.3l-23 20.4c-33.8-39.9-55.5-92-65.2-156-.9-66.7-2.7-134.5-5.6-203.5-2.9-68.9-14.3-119.6-34.2-152.1-20-32.5-46.7-50.8-80.3-55s-68.5 3-104.7 21.4-55.6 72.6-58.3 162.6v89.5c90.4-34.7 138.1-27.2 142.9 22.4-4.9 49.8-52.3 57.5-142.3 23.2zm-22.4 185.7c28.5 0 40.8-18.9 36.9-56.6-8.3-48.3-20.6-76.8-36.9-85.6-16.7 8.8-29.2 37.3-37.5 85.6-3.9 37.7 8.6 56.6 37.5 56.6z"/></svg>