<svg xmlns="http://www.w3.org/2000/svg" viewBox="-10 0 1035 1019"><path d="M1011 1019q-62-55-101-134t-57-155q-6-26-12.5-73T829 552.5q-5-57.5-9-115.5t-6.5-107.5Q811 280 811 250q0-39-12-79.5t-41.5-75Q728 61 675.5 40T541 19q-68 0-116.5 22T345 97.5Q314 132 299.5 171T285 244l3 347q45-41 96-66t100-25q21 0 46 5.5t43 20q18 14.5 18 42.5 0 26-13.5 41.5t-33 23.5q-19.5 8-39 10.5T473 646q-35 0-76.5-6T313 623q16 23 35.5 58t33.5 73.5q14 38.5 14 74.5 0 53-20.5 84T325 957q-30 13-59 13-41 0-68-19t-40.5-50Q144 870 144 836q0-53 33.5-111T260 617l6-7q-14-4-27.5-8t-26.5-9q-83-28-140-54t-82-39l11-17q9 6 42.5 21.5T123 539q46 19 92 35 14 4 27 8.5t26 8.5l-2-347q0-35 14.5-77T328 87q33-38 85.5-62.5T541 0q87 0 144 23.5T774 85q32 38 44.5 82t11.5 85q0 29 2 78t6 106.5q4 57.5 9.5 114.5t12 104q6.5 47 12.5 74 18 76 56.5 150.5T1025 1005zM473 626q2 0 17.5-1t34-5.5q18.5-4.5 32.5-17t14-34.5q0-18-14-28.5t-34-15q-20-4.5-39-4.5-41 0-87 21.5T305 602q44 11 87.5 17.5T473 626zM266 950q19 0 45.5-10t46-36q19.5-26 19.5-75 0-38-16-78.5T324 675q-21-35-37-57l-8 7q-30 29-56.5 65t-43 73.5Q163 801 163 836q0 48 27 81t76 33z" fill="currentColor"/></svg>