<svg xmlns="http://www.w3.org/2000/svg" viewBox="0 0 131.4 597.9"><path d="M9.2.2c-1.3.3-2.6 1.4-4 2.3-5.7 3.7-6.8 8.3-2.9 14.3l50.3 68C23.7 124 9.2 160.3 9.2 193.9c0 25.5 5.1 44.3 14.9 57.7-3.2 4.5-5.1 9.9-5.1 16.6v212.6c0 3.6 4.4 5.1 12.6 5.1 7.7 0 11.4-1.6 11.4-5.1V273.3c.2-1.1.9-1.8 1.1-2.9 7 4 14.1 6.3 21.7 6.3 8.4 0 16.4-2.6 24-7.4.4 1.3.9 2.5 1.1 4V591c0 4.9 4.4 6.9 12.6 6.9 7.7 0 11.4-2.2 11.4-7.4V267.6c0-7.1-2.3-13.1-6.3-17.7 8.8-13.4 13.7-31.6 13.7-56 0-33.6-14.5-69.9-43.4-109.1l49.7-68c4.3-6 3.5-10.6-2.3-14.3C120.5-1.2 116-.1 112 5.9L65.8 68.2 20.1 5.9C16.8 1.4 13.2-.7 9.2.2zm56.6 101.2c19.3 21 32.3 51.4 38.3 92 0 34.6-21.5 62.1-38.3 63.4-18.8-1.3-38.3-28.8-38.3-63.4 6-40.6 18.7-71.1 38.3-92z"/></svg>