<svg xmlns="http://www.w3.org/2000/svg" viewBox="-10 0 537 1005"><path d="M160 1005q-17 0-38-7t-36.5-33.5Q70 938 70 881q0-46 25-99t55-100q-16-29-32.5-55T88 580q-25-41-47.5-82.5T4 404.5Q-10 353-10 282q0-78 24.5-142T97 38Q155 0 257 0t161 38q59 38 84 102.5T527 282q0 74-16 129t-39 95.5Q449 547 429 580q-2 3-20 31.5T368 681q19 28 37.5 62t31 70q12.5 36 12.5 68 0 42-10 67t-24.5 37.5q-14.5 12.5-30 16T357 1005q-18 0-37.5-7T286 966q-14-25-14-79 0-45 22.5-99.5T345 682q-16-25-29-43t-17-24q-8-10-18-24t-22-30q-10 14-20 27t-19 26q-11 14-22.5 31T173 681q29 50 52.5 104.5T249 887q0 26-7.5 53.5t-27 46Q195 1005 160 1005zm197-342q16-28 31-53.5t26-43.5q17-28 38.5-65.5t38-90.5Q507 357 507 282t-23-134q-23-59-78-93.5T257 20q-92 0-146 33t-78 90.5Q9 201 9 275q0 72 16 126t38 94q22 40 41 71 10 17 25.5 42t33.5 54q10-15 19.5-28.5T200 608l47-64q-24-35-48-77t-40-88q-16-46-16-92 0-43 14-67.5t33.5-36.5q19.5-12 38-15.5T257 164q11 0 30.5 3t39.5 15q20 12 34 36.5t14 68.5q0 73-32 137t-71 119q30 41 45 65 3 5 14 19t26 36zm-97-137q36-52 66-112t30-127q0-39-12.5-60T313 196.5q-18-9.5-34-11.5t-22-2q-4 0-19.5 2T205 196q-17 9-30 30.5T162 287q0 42 15 84.5t37.5 82Q237 493 260 526zM160 986q11 0 27.5-7t29-28.5Q229 929 229 887q0-40-20.5-89.5T161 700q-28 44-49.5 92.5T90 881q0 39 8.5 60.5t21 31q12.5 9.5 24 11.5t16.5 2zm197 0q4 0 16-2t24.5-11.5q12.5-9.5 22-31T429 881q0-26-10.5-56.5t-27-62.5Q375 730 358 702q-25 47-45.5 97.5T292 887q0 37 8 57t19.5 29q11.5 9 22 11t15.5 2z" fill="currentColor"/></svg>