<svg xmlns="http://www.w3.org/2000/svg" viewBox="0 0 339.2 594.4"><path d="M107.1 448c-29.9 74.1-29.9 115 0 122.8 29.4-7.8 29.4-48.8 0-122.8zM169.6 0c196.2 11.3 222.2 155.5 78 432.5 17.2 28.4 27.2 61.8 30.2 100 2.9 38.3-12.3 58.8-45.6 61.8-32.9-2.9-47.9-23.4-45.2-61.4 2.7-38 12.6-71.5 29.8-100.4l-47.1-72.1-47.1 72.1c17.2 28.9 27.2 62.4 30.2 100.4 2.9 38-12.3 58.5-45.6 61.4-33.3-2.9-48.6-23.5-45.6-61.8 2.9-38.3 13-71.6 30.2-100C-52.6 155.5-26.6 11.3 169.6 0zm0 80.2c53 0 79.4 28.2 79.4 84.6-2 43.2-22.1 105.2-60.3 186.1l42.7 60.3C358.9 158.6 338.3 29.4 169.6 23.5.9 29.4-19.7 158.6 107.8 411.2l42.7-60.3c-38.3-80.9-58.4-143-60.3-186.1-.1-56.4 26.4-84.6 79.4-84.6zm0 258.9c34.8-63.3 54.4-121.4 58.8-174.3 0-43.2-19.6-64.7-58.8-64.7-39.2 0-58.8 21.6-58.8 64.7 4.4 52.9 24 111.1 58.8 174.3zM232.1 448c-29.4 74.1-29.4 115 0 122.8C262 563 262 522 232.1 448z"/></svg>