<svg xmlns="http://www.w3.org/2000/svg" viewBox="-10 0 315 690"><path d="M148 690q-73 0-108.5-52.5T4 501q0-41 10.5-79t26-70.5Q56 319 70 296t21-33q4-5 16-21t28-38q-24-32-52.5-69.5T29 63.5Q4 30-10 12L5 0q18 24 43 56.5t51.5 67Q126 158 148 187q21-29 47.5-63.5t51.5-67Q272 24 290 0l15 12q-14 18-39.5 51.5t-53.5 71Q184 172 160 204q13 16 27 35.5t17 23.5q7 10 21 33t29.5 55.5q15.5 32.5 26 70.5t10.5 79q0 84-33 136.5T148 690zm0-19q61 0 92.5-45.5T272 501q0-39-11.5-78t-28-71.5q-16.5-32.5-31-55T182 266q-8-10-34-45-13 17-22 28.5T113 266q-5 8-19.5 30.5t-30.5 55Q47 384 35.5 423T24 501q0 79 31.5 124.5T148 671z" fill="currentColor"/></svg>