<svg xmlns="http://www.w3.org/2000/svg" viewBox="-10 0 317 690"><path d="M6 690l-16-10q11-19 28-49.5T56 564q21-36 41.5-71t38.5-64q-7-11-15-24.5T111 388q-12-20-31.5-56t-35-81Q29 206 29 160q0-73 31-116.5T149 0q39 0 62.5 15.5T247 56q12 25 16.5 52.5T268 160q0 46-15.5 91T217 332q-20 36-32 56-3 4-9.5 15T160 429q17 28 38 63t42 71q21 36 39 67t28 50l-16 10q-20-32-46-76l-52-88-45-77q-19 33-45 77l-52 88-45 76zm142-282q4-7 7.5-13t6.5-10q8-13 22.5-37.5t29-55.5q14.5-31 24.5-65.5t10-66.5q0-79-30-110t-69-31q-46 0-73 36.5T49 160q0 32 10 66.5T84 292q15 31 29 55.5t21 37.5z" fill="currentColor"/></svg>