<svg xmlns="http://www.w3.org/2000/svg" viewBox="-10 0 423 1018"><path d="M71 1018L4 979q8-14 23-41.5T60 875q18-35 34-71.5t26.5-68Q131 704 131 683q0-23-10-55.5T96 559q-15-36-30-69-28-60-52-124t-24-116q0-69 27.5-125.5t75-90.5Q140 0 201 0q62 0 109.5 34t75 90.5Q413 181 413 250q0 35-11.5 75t-29 82.5Q355 450 337 490q-16 33-31 69t-25 68.5Q271 660 271 683q0 21 10.5 52.5t27 68q16.5 36.5 34 71.5t33 62.5Q391 965 398 979l-66 39q-10-17-27.5-49.5t-38-72.5q-20.5-40-38-82T201 735q-12 44-35.5 97t-49 102Q91 983 71 1018zm-7-27q13-24 34-63.5t42-85.5q21-46 35.5-88.5T190 683q0-46-22.5-103T120 465q-26-56-49-113T48 248q0-51 19.5-94T121 85q34-26 80-26t80 26q34 26 53.5 69t19.5 94q0 47-22.5 104T283 465q-26 58-48.5 115T212 683q0 29 14.5 71.5t35.5 88q21 45.5 42 85t34 63.5l34-20q-13-24-33.5-62t-40-80.5q-19.5-42.5-33-81T252 683q0-39 19.5-89T319 482q27-59 50.5-120.5T393 250q0-63-25-115t-68-83.5Q257 20 201 20t-99 31.5Q59 83 34 135T9 250q0 50 24 111.5T84 482q28 62 47.5 112t19.5 89q0 26-13.5 64.5t-33.5 81Q84 871 64 909t-33 62zm137-371q10-39 27.5-79t36.5-83q25-57 47.5-112t22.5-98q0-46-17.5-84.5t-48-62Q239 78 201 78t-68 23.5q-30 23.5-47.5 62T68 248q0 43 22 98t47 112q19 43 36.5 83t27.5 79z" fill="currentColor"/></svg>