<svg xmlns="http://www.w3.org/2000/svg" viewBox="-10 0 401 1001"><path d="M-10 1001v-20h191V439q-34 35-70 69t-69 61l-13-16q36-28 72.5-63t72.5-72q-33-41-62-83.5t-47-85Q47 207 47 165q0-56 23-93t56-54.5Q159 0 191 0q31 0 64 17t56 53.5q23 36.5 23 94.5 0 42-18 84.5t-47.5 85Q239 377 207 418q36 38 75 72.5t75 62.5l-13 16q-35-28-72-60.5T200 439v542h191v20zm201-596q32-36 60-77.5t45.5-84Q314 201 314 165q0-52-19.5-83.5t-48-46.5Q218 20 191 20q-28 0-56.5 15.5t-48 47Q67 114 67 163q0 37 18 79.5t46 84.5q28 42 60 78z" fill="currentColor"/></svg>