<svg xmlns="http://www.w3.org/2000/svg" viewBox="-10 0 462 1002"><path d="M6 1002l-16-9q56-95 110.5-191.5T210 608q-5-9-11-18t-10-19q-36-62-65-115.5t-46.5-107Q60 295 60 233q0-68 18-120.5T131.5 30Q167 0 221 0t89.5 30q35.5 30 53 82.5T381 233q0 62-17 115.5t-46 107Q289 509 253 571l-21 37q55 97 109.5 193.5T452 993l-17 9q-56-94-109-187.5T221 628q-53 93-106 186.5T6 1002zm215-413l15-27q34-60 62.5-113t46-105.5Q362 291 362 233q0-62-16-110t-47.5-75.5Q267 20 221 20t-77.5 27.5Q112 75 96 123T80 233q0 58 17.5 110.5T143 449q28 53 62 113 4 7 8 13.5t8 13.5zM107 165q0-9 5-26.5t17-37q12-19.5 34.5-33T222 55q36 0 59 13.5t35.5 33q12.5 19.5 17 37T338 165zm23-19h185q-4-12-13.5-28.5T273 88q-19-13-51-13-33 0-51.5 13t-28 29.5Q133 134 130 146z" fill="currentColor"/></svg>