<svg xmlns="http://www.w3.org/2000/svg" viewBox="0 0 303.3 594.6"><path d="M151.8 395.5C215.3 317 247 242 247 170.3c0-88-31.7-132-95.2-132-63.7 0-95.6 44-95.6 132 0 71.7 31.9 146.7 95.6 225.2zm-1 51.3h1L27.1 594.6c-13-4.6-22-13.4-27.1-26.5l120.7-145.5C52.8 337.5 18.9 253.4 18.9 170.3 18.9 56.8 63.2 0 151.8 0c88.4.4 132.6 57.2 132.6 170.3 0 83.1-34 167.2-101.9 252.3l120.7 145.5c-5.5 13-14.6 21.8-27.1 26.5L150.8 446.8zm1-291.4H72.1c0-63.5 26.6-95.2 79.7-95.2 52.5 0 78.7 31.7 78.7 95.2h-79.7 1zm0-23.1h50.3c0-29.1-16.8-45.4-50.3-48.9-33.7 3.5-50.6 19.8-50.6 48.9h50.6z"/></svg>