<svg xmlns="http://www.w3.org/2000/svg" viewBox="-10 0 583 628"><path d="M10 628v-85h125Q70 505 30 438.5T-10 291q0-60 22.5-113T75 85q40-40 93-62.5T281 0q60 0 113 22.5T487.5 85q40.5 40 63 93T573 291q0 81-40.5 147.5T427 543h125v85zm20-19h503v-46H324v-3q64-11 116-49.5t82.5-95.5Q553 358 553 291q0-56-21.5-105t-59-86.5Q435 62 386 40.5T281 19q-56 0-105 21.5t-86.5 59Q52 137 30.5 186T9 291q0 67 30.5 124.5T122 511q52 38 116 49v3H30zm251-99q-60 0-110-29.5T91.5 401Q62 351 62 291t29.5-110q29.5-50 79.5-79.5T281 72q60 0 110 29.5t80 79.5q30 50 30 110t-30 110q-30 50-80 79.5T281 510zm0-19q55 0 100.5-27t73-72.5Q482 346 482 291t-27.5-100.5Q427 145 381.5 118T281 91q-55 0-100.5 27T108 190.5Q81 236 81 291t27 100.5q27 45.5 72.5 72.5T281 491z" fill="currentColor"/></svg>