<svg xmlns="http://www.w3.org/2000/svg" viewBox="0 0 595.3 329.8"><path d="M507.3 26.1C454 98.1 377.4 140.8 277.6 143c-99-2.2-175-44.9-228.3-116.9h458zm41.5 236.4c12.9 0 22.7 9.8 22.7 21.6 0 12.1-9.8 21.9-22.7 21.9-12.9 0-23-9.8-23-21.9 0-11.8 10.1-21.6 23-21.6zM553 0h-9.5v.3H0c54.4 108.8 147.2 169.1 277.9 169.6 121.4-.3 210-52.7 265.5-145.8.6 101.2.6 156.7.6 184.8 0 15.4 0 23-.3 27.2v2.8c-23 2.5-41.5 21.6-41.5 45.1 0 25.2 21 45.7 46.5 45.7s46.5-20.5 46.5-45.7c0-23.6-18.8-42.9-42.1-45.1v-2.8c.3-3.9.3-11.8.3-27.2 0-29.7 0-88.6-.6-201.9V.3l.2-.3z"/></svg>