<svg xmlns="http://www.w3.org/2000/svg" viewBox="-10 0 703 1001"><path d="M203 1001q-37 0-50-9.5T140 959q0-15 10-31.5t20-26.5q1-3 3.5-25t2.5-84q0-37-6.5-88.5t-17-106.5q-10.5-55-21-102.5T112 419q-17-57-31-93t-30-56q-8-11-22.5-21.5T2 222q-12-16-12-44 0-23 15.5-34T43 133h135l-75-98 44-35 77 99q9-18 24-37t38-31.5Q309 18 341 18t55 12.5Q419 43 434 62t24 37l77-99 44 35-76 98h137q22 0 37.5 11t15.5 34q0 28-12.5 42.5T653 245q-15 10-22 25-10 20-22 49.5T586 377q-11 28-15 42-9 28-20 75.5T529.5 597q-10.5 55-17 106.5T506 792q0 62 2.5 84t3.5 25q10 10 20.5 26.5T543 959q0 23-13 32.5t-50 9.5zm0-868h8l4-13-72-93-14 11zm269 0h7l73-95-14-11-71 93zm-240 0h218q-6-16-19.5-37.5t-35.5-38Q373 41 341 41t-54 16.5q-22 16.5-35 38T232 133zM12 194h659q1-4 1.5-7.5t.5-8.5q0-16-10.5-20.5T640 153H43q-12 0-23 4.5T9 178q0 9 3 16zm124 238h411l5-19q3-12 12.5-35.5t20.5-50q11-26.5 21-47.5t15-28q7-11 20-19t18-19H24q5 11 16 21t22 17q7 5 17 26t20.5 48q10.5 27 19 51t11.5 36zm64 549h283q22 0 29.5-6t7.5-16q0-10-7.5-23T497 916q-3-7-6.5-38t-3.5-86q0-32 5-76t13.5-92q8.5-48 18-92.5T542 452H141q9 35 18.5 79.5t18 92.5q8.5 48 13.5 92t5 76q0 55-3.5 86t-6.5 38q-7 7-15 20t-8 23q0 10 7 16t30 6z" fill="currentColor"/></svg>