<svg xmlns="http://www.w3.org/2000/svg" viewBox="0 0 326.5 594.5"><path d="M67.4 2.7l63 49.7c4.1-17.7 14.6-26.6 31.5-26.6s28.5 8.9 35.1 26.6L273.3 0l12.4 24.8-46.1 31.1h87V87h-32.8c-52.1 185.2-79.3 308.2-81.6 369.1-4.1 50.3 10.1 92.6 42.6 126.9v11.5H67.4V583c33.1-34.3 47.9-76.3 44.4-126 1.2-61.5-25.1-184.9-79-370H0V55.9h86.1L47 25.7l20.4-23zm78.1 53.2h32.8c-4.1-10.6-9.8-16-16.9-16-6.4 0-11.7 5.4-15.9 16zM315 75.4v-8H11.5v8H315zm-55 70.1L278.6 87H47.9l16.9 58.6H260zM71 165l10.6 33.7h163.3l10.6-32.8L71 165zm15.1 53.3c26 98.2 39.9 177.8 41.7 238.7 3 49.7-10.6 91.1-40.8 124.2h148.2c-27.2-33.1-40.2-74.5-39-124.2 5.3-61.5 20.4-141.1 45.3-238.7H86.1z"/></svg>