<svg xmlns="http://www.w3.org/2000/svg" viewBox="-10 0 500 439"><path d="M240 439q-52 0-96.5-12T65 398.5q-34-16.5-53.5-30T-10 353q14-31 29-68t28-72.5Q60 177 68 149t8-42q0-17-8.5-24T50 72q-11-5-20-12t-9-23q0-24 17-30.5T77 0h326q22 0 39 6.5T459 37q0 16-9 23t-20 12q-9 4-17.5 11t-8.5 24q0 14 8 42t21 63.5q13 35.5 28 72.5t29 68q-2 2-22 15.5t-53.5 30Q381 415 336.5 427T240 439zM58 55h364q7-3 12-7t5-11q0-12-11-15t-22-3H74q-11 0-22 3T41 37q0 11 17 18zm182 364q57 0 103.5-14.5t78-31.5q31.5-17 44.5-27-13-30-27.5-65.5t-27-70q-12.5-34.5-20-62T384 107q0-11 2.5-19t6.5-13H87q8 11 8 32 0 14-7.5 41.5t-20 62Q55 245 41 280.5T14 346q13 10 44.5 27t78 31.5Q183 419 240 419zm3-75q-32 0-52-7.5T164 322l79-189 79 189q-7 7-27 14.5t-52 7.5zm0-19q18 0 33-3.5t22-7.5l-55-132-55 132q7 4 21.5 7.5T243 325z" fill="currentColor"/></svg>