<svg xmlns="http://www.w3.org/2000/svg" viewBox="-10 0 575 434"><path d="M47 434q-34 0-45.5-17T-10 383q0-21 13.5-35T31 330q3-4 12.5-20t21-39q11.5-23 20-49.5T93 169q0-35-8-52.5T67 89Q56 78 46.5 70.5T37 41q0-21 13.5-31T95 0h364q32 0 45 10t13 31q0 20-8.5 28.5t-19 17q-10.5 8.5-19 26T462 169q0 26 8.5 52.5T490 271q11 23 21 39t13 20q13 4 27 18t14 35q0 17-11.5 34T507 434zM75 70h405q7-7 12.5-13t5.5-16q0-22-39-22H95q-21 0-29.5 5.5T57 41q0 10 5 16t13 13zM53 333h131l93-182 93 182h132q-10-15-24-41.5t-25-59Q442 200 442 169t6-49.5q6-18.5 14-29.5H93q8 11 13.5 30t5.5 49q0 31-11 63.5t-24.5 59Q63 318 53 333zm153 0h17l54-102 54 102h17l-71-139zm40 0h63l-32-60zM47 414h460q23 0 30.5-10.5T545 383q0-13-6-20t-13-11H28q-7 4-13 11t-6 20q0 10 7.5 20.5T47 414z" fill="currentColor"/></svg>