<svg xmlns="http://www.w3.org/2000/svg" viewBox="0 0 399.7 333.4"><path d="M356.5 313.2c7 0 10.4-4.7 10.4-14.2 0-9.9-3.5-14.9-10.4-14.9H43.3c-7 0-10.4 5-10.4 14.9 0 9.4 3.5 14.2 10.4 14.2h313.2zm-117.9-49.9L199.9 182l-38.8 81.3h77.5zm-38.7-132.8L267 263.3h71.6c-23.9-35.3-35.8-68.1-35.8-98.4 0-19.4 5-50 14.9-91.7H82c9.9 41.8 14.9 72.3 14.9 91.7 0 30.3-11.9 63.1-35.8 98.4H132l67.9-132.8zm123.8-82l6.7-23.1h-261l6.7 23.1h247.6zM363.9 0c-.5 16.9-6 42.5-16.4 76.8s-15.7 63.6-15.7 88c4 41.8 19.1 74.6 45.5 98.4h9.7c8.5 0 12.7 11.7 12.7 35.1 0 23.4-4.5 35.1-13.4 35.1H13.4C4.5 333.4 0 321.7 0 298.3c0-23.4 4.2-35.1 12.7-35.1h9.7c26.4-23.9 41.5-56.7 45.5-98.4 0-24.4-5.2-53.7-15.7-88C41.8 42.5 36.3 16.9 35.8 0h328.1z"/></svg>