<svg xmlns="http://www.w3.org/2000/svg" viewBox="0 0 260.1 599.4"><path d="M38 0c-5.4 0-9.8 4.4-9.8 9.8v16.6c0 5.3 4.1 9.6 9.4 9.8l62.1 2.9v36.1c-15.2 13.4-38.6 25.6-49 48.4-11.2 24.7-11.7 55.6-7.4 82.1 13.3 81.6 43.3 160.3 58.2 239.4 4.7 25.1 6.2 52.6 1.7 76-3.1 15.7-12.5 35.5-22.3 41.8-16.2 10.5-46 10.4-73.4 17-4.8 1.2-8 5.8-7.4 10.7s4.8 8.7 9.7 8.7h240.5c5 0 9.1-3.7 9.7-8.7.6-4.9-2.6-9.5-7.4-10.7-27.4-6.6-57.2-6.5-73.4-17-9.8-6.3-19.2-26.1-22.3-41.8-4.6-23.4-3-50.9 1.7-76 14.8-79.1 44.9-157.9 58.2-239.4 4.3-26.4 3.8-57.4-7.4-82.1-10.4-22.8-33.7-35.1-49-48.4v-36l64.1-2.9c5.3-.2 9.4-4.6 9.4-9.8V9.8c0-5.4-4.4-9.8-9.8-9.8H38zm102.8 38.2c0 2.7 1.1 46.6 3 48.5 18.2 17.6 40.9 30.1 47.7 45.2 8.6 19 9.7 47.2 5.9 70.8-12.9 78.9-42.8 157.5-58.1 239-5 26.9-6.9 56.4-1.6 83.4 3.7 19.1 12.4 42.6 30.9 54.6.1.1.2.1.3.2H91.3c.1-.1.2-.1.3-.2 18.5-11.9 27.2-35.4 30.9-54.6 5.3-27 3.4-56.5-1.6-83.4-15.3-81.5-45.2-160.1-58.1-239-3.8-23.6-2.7-51.8 5.9-70.8 6.8-15 29.5-27.5 47.7-45.2 1.9-1.9 3-45.8 3-48.5h21.4z"/></svg>