<svg xmlns="http://www.w3.org/2000/svg" viewBox="-10 0 304 1001"><path d="M15 1001v-24q21-20 43.5-49t38-60q15.5-31 15.5-56 0-19-7.5-56.5t-18.5-86Q75 621 63 569q-14-56-26-111t-20-99q-8-44-8-68 0-57 24-91.5t77-41.5v-39q0-20-6.5-35T92 63H41q-9 0-21-1.5T-1 53q-9-7-9-22t9-21.5q9-6.5 21-8T41 0h202q9 0 21 1.5t21 8q9 6.5 9 21.5t-9 22q-9 7-21 8.5T243 63h-52q-4 6-11 21t-7 35v39q54 7 77.5 41.5T274 291q0 24-8 68t-20.5 99Q233 513 220 569q-12 52-23.5 100.5t-18.5 86q-7 37.5-7 56.5 0 25 16 56t38.5 60q22.5 29 43.5 49v24zM41 43h202q8 0 19.5-1.5T274 31q0-8-11.5-9.5T243 20H41q-9 0-20.5 1.5T9 31q0 9 11.5 10.5T41 43zm88 113q4-1 13-1h6l6 1v-37q0-17 5-31.5T169 63h-55q6 10 10.5 24t4.5 32zM37 981h209q-17-20-39-47t-38.5-58Q152 845 152 812q0-25 7.5-65t19.5-87.5q12-47.5 23-95.5 9-36 18-77t17-79.5q8-38.5 13-69.5t5-47q0-56-26.5-86T142 175q-61 0-87.5 30T28 291q0 16 5 47t13.5 69.5Q55 446 64 487t18 77q11 48 22.5 95.5t19 87.5q7.5 40 7.5 65 0 33-16 64t-38 58q-22 27-40 47z" fill="currentColor"/></svg>