<svg xmlns="http://www.w3.org/2000/svg" viewBox="-10 0 843 1009"><path d="M19 883L3 871l123-187-67-103q-14-22-21.5-39T30 502q0-34 18.5-60.5T96 403q-29-12-47.5-38T30 304q0-34 18.5-60.5T96 206q-29-13-47.5-39T30 107q0-46 31.5-76.5T138 0q44 0 76 31.5t32 75.5q0 34-18.5 60.5T180 207q29 11 47.5 37.5T246 305q0 34-18.5 60.5T180 404q29 12 47.5 38.5T246 502q0 21-7.5 39T217 581l-67 103 124 187-17 12-119-181zm555-7v-23q18-18 37.5-42.5t32.5-51q13-26.5 13-49.5 0-16-6-48.5T635 586q-10-43-21-88-11-49-22-97t-18-87q-7-39-7-60 0-49 21-79.5t68-37.5v-28q0-18-5.5-31T641 60h-45q-11 0-27.5-5.5T552 30q0-19 16.5-24.5T596 0h178q11 0 27.5 5.5T818 30q0 19-16.5 24.5T774 60h-46q-4 5-9 18t-5 31v28q47 7 68 37.5t21 79.5q0 21-7 60t-18 87q-11 48-23 97-10 45-20 88t-16.5 75.5Q712 694 712 710q0 23 13.5 49.5t33 51Q778 835 796 853v23zM138 196q37 0 63-27t26-62q0-34-26-61t-63-27q-36 0-62 26t-26 61q0 37 26.5 63.5T138 196zM598 40h174q7 0 16.5-1.5T798 30q0-7-9.5-8.5T772 20H598q-7 0-17 1.5T571 30q0 7 10 8.5t17 1.5zm78 95h18v-26q0-16 5-28.5T709 60h-48q5 8 10 20.5t5 28.5zm-79 722h176q-14-17-33-40.5T707 766q-14-27-14-56 0-21 7-56t17-76.5q10-41.5 19-83.5 10-43 21-91.5t18.5-89Q783 273 783 254q0-49-23-74.5T685 154q-53 0-75.5 25.5T587 254q0 19 7.5 59.5t18 89Q623 451 633 494q10 42 20 83.5t17 76.5q7 35 7 56 0 29-14 56t-33 50.5Q611 840 597 857zM138 395q36 0 62.5-27.5T227 304q0-34-26-61t-63-27q-37 0-62.5 26.5T50 304q0 37 26.5 64t61.5 27zm0 272l62-94q10-15 18.5-33t8.5-37q0-35-26-62t-63-27q-36 0-62 26.5T50 502q0 19 7.5 35T75 569zm202 342q-23 0-43.5-12.5T266 973H-10v-56h276q6-8 24-22.5t50-14.5q29 0 46 11t25 27q8-16 25.5-27t46.5-11q32 0 50 14.5t24 22.5h276v56H557q-10 11-30.5 23.5T483 1009q-29 0-46.5-11T411 972q-8 15-25 26t-46 11zm0-19q32 0 45.5-16.5T399 944q0-13-13.5-29T340 899q-23 1-40 13.5T276 936H9v17h267q7 11 24 23.5t40 13.5zm143 0q22-1 39-13.5t24-23.5h268v-17H546q-7-11-24-23.5T483 899q-32 0-45.5 16T424 944q0 13 13.5 29.5T483 990z" fill="currentColor"/></svg>