<svg xmlns="http://www.w3.org/2000/svg" viewBox="-10 0 483 1001"><path d="M49 1001l-2-29-55-29 69-55-70-43 69-43-70-43 62-40q-13-10-30-23t-28-22l57-37-61-41 57-42-53-40 55-47q-14-10-30-23t-28-23l54-47q-11-12-25-25t-24-23l65-46q-14-11-31-23T1 235l72-42-33-41q5-23 21.5-49t43-45.5Q131 38 169 33v-2q0-15 9-21.5t21-8Q211 0 220 0h202q9 0 21 1.5t21 8q9 6.5 9 21.5t-9 22q-9 7-21 8.5T422 63h-52q-4 6-10.5 21t-6.5 35v39q53 7 77 41.5t24 91.5q0 24-8 68t-20.5 99Q413 513 399 569q-12 52-23 100.5t-18 86q-7 37.5-7 56.5 0 25 15.5 56t38 60q22.5 29 43.5 49v24H194v-24q21-20 43.5-49t38-60q15.5-31 15.5-56 0-19-7-56.5t-18-86Q255 621 242 569q-13-56-25.5-111T196 359q-8-44-8-68 0-57 24-91.5t77-41.5v-39q0-20-7-35t-11-21h-51q-10 0-23-2t-21-10q-31 2-56 20t-40.5 40Q64 133 62 149l42 51-68 37 58 43-68 48 48 47-52 45 57 46-54 47 56 41-57 41q16 10 33 22t30 20l-59 39 57 45-58 38q17 10 36.5 22.5T97 802l-69 43q17 10 35 21t32 20l-68 54 40 20 2 40zM220 43h202q8 0 19.5-1.5T453 31q0-8-11.5-9.5T422 20H220q-8 0-19.5 1.5T189 31q0 9 11.5 10.5T220 43zm89 113q4-1 12-1h6l6 1v-37q0-17 5-31.5T348 63h-54q5 10 10 24t5 32zm-93 825h209q-17-20-39-47t-38.5-58Q331 845 331 812q0-25 7.5-65t19-87.5Q369 612 381 564q9-36 18-77t17-79.5q8-38.5 13-69.5t5-47q0-56-26.5-86T321 175q-61 0-87 30t-26 86q0 16 5 47t13 69.5q8 38.5 17 79.5t18 77q11 48 22.5 95.5T303 747q8 40 8 65 0 33-16.5 64t-39 58Q233 961 216 981z" fill="currentColor"/></svg>