<svg xmlns="http://www.w3.org/2000/svg" viewBox="0 0 431 599.4"><path d="M209 0c-3.4 0-6.4 1.7-8.1 4.3-19.4.9-44.1 4.1-60.7 9.9-11.8 4.1-25.3 11.3-36.3 23.1C92.8 49.1 84.7 66 84.7 86.8c0 5.2-1.5 8.2-4.9 12-3.4 3.8-9 7.7-15.4 11.7-6.4 3.9-13.5 7.8-19.9 13.4-6.5 5.5-12.9 14.2-12.9 25.1 0 17.2 9.6 29.5 16.7 39.3 7.1 9.8 11.6 17 11.6 22.8 0 2.1-.7 4-3.2 7.3s-6.8 7.3-11.6 12c-9.7 9.3-23 22.6-23 42.8 0 17.4 6.3 29.3 11 37.5 4.6 8.2 7.6 12.8 7.6 24.6 0 9.5-3.8 13.7-10.6 22.2s-16.4 21.3-16.4 39.9c0 19.7 11.9 33 20 42.1 4.1 4.5 7.4 8.3 9 11.2 1.7 2.9 2 4.2 1.6 6.7-.8 4.8-8.8 14.1-19.4 24.1-5.3 5-11 10.2-15.7 16.5-4.9 6.1-9.2 14-9.2 23.5 0 15.1 6.5 27.4 11.2 37.6 4.7 10.3 7.3 34.7 6.6 38.8H44c2.4-14.9-3.9-39.3-8.7-49.9-4.9-10.6-8.8-19.9-8.8-26.6 0-1.4.8-3.8 3.6-7.6 2.9-3.8 7.6-8.3 12.8-13.2 10.5-9.8 24.5-20.7 27.5-39.2 1.5-9.1-1.1-17.8-4.8-24.2-3.7-6.4-8.3-11.2-12.3-15.7-8-8.9-13.2-15-13.2-24.3 0-10.4 3.9-15 10.6-23.4 6.7-8.4 16.4-20.6 16.4-38.7 0-17.4-6.4-29.3-11-37.5s-7.6-12.8-7.6-24.5c0-8.7 5.6-14.9 14.8-23.7 4.6-4.4 9.8-9 14.4-15s8.6-14 8.6-23.4c0-16.9-9.7-28.8-16.7-38.4-7-9.7-11.6-17-11.6-23.7 0-1.1.2-1.9 3.7-5 3.5-3 9.7-6.7 16.6-11s14.6-9.2 21.2-16.5c6.6-7.3 11.7-17.7 11.7-29.7 0-14.2 4.9-23.8 12.1-31.5 7.2-7.7 17-13.1 25.7-16.1 10.3-3.6 33.9-7 51.4-8.2 1.6 3 4.7 5.1 8.3 5.3l62.1 2.9v36.1c-15.2 13.4-38.6 25.6-49 48.4-11.2 24.7-11.7 55.6-7.4 82.1 13.3 81.6 43.3 160.3 58.2 239.4 4.7 25.1 6.3 52.6 1.7 76-3.1 15.7-12.5 35.5-22.3 41.8-16.2 10.5-45.9 10.4-73.4 17-4.8 1.2-8 5.8-7.5 10.7.6 4.9 4.8 8.7 9.7 8.7h240.5c5 0 9.1-3.7 9.7-8.7.6-4.9-2.6-9.5-7.4-10.7-27.4-6.6-57.2-6.5-73.4-17-9.8-6.3-19.2-26.1-22.3-41.8-4.6-23.4-3-50.9 1.7-76 14.8-79.1 44.9-157.9 58.2-239.4 4.3-26.4 3.8-57.4-7.4-82.1-10.4-22.8-33.7-35.1-49-48.4v-36l64.1-2.9c5.3-.2 9.4-4.6 9.4-9.8V9.8c0-5.4-4.4-9.8-9.8-9.8H209zm81.2 38.2h21.5c0 2.7 1.1 46.6 3 48.5 18.2 17.6 40.9 30.1 47.7 45.2 8.6 19 9.7 47.2 5.9 70.8-12.9 78.9-42.8 157.5-58.1 239-5 26.9-6.9 56.4-1.7 83.4 3.7 19.1 12.4 42.6 30.9 54.6.1.1.2.1.3.2h-77.6c.1-.1.2-.1.3-.2 18.5-11.9 27.2-35.4 30.9-54.6 5.3-27 3.4-56.5-1.6-83.4-15.3-81.5-45.2-160.1-58.1-239-3.8-23.6-2.7-51.8 5.9-70.8 6.8-15 29.5-27.5 47.7-45.2 1.9-1.9 3-45.8 3-48.5z"/></svg>