<svg xmlns="http://www.w3.org/2000/svg" viewBox="-10 0 565 1001"><path d="M49 1001l-2-29-55-29 69-55-70-43 69-43-70-43 62-40q-13-10-30-23t-28-22l57-37-61-41 57-42-53-40 55-47q-14-10-30-23t-28-23l54-47q-11-12-25-25t-24-23l65-46q-14-11-31-23T1 235l72-42-33-41q5-23 21.5-49t43-45.5Q131 38 169 33v-2q0-15 9-21.5t21-8Q211 0 220 0h202q9 0 21 1.5t21 8q9 6.5 9 21.5t-9 22q-9 7-21 8.5T422 63h-52q-4 6-10.5 21t-6.5 35v39q67 10 90 66 15-3 24-14 5-5 8.5-19.5T483 168q16-33 57-33h15v61h-10q-11 0-14 8t-3 14q0 12-1.5 23t-9.5 22q-10 15-25.5 23T453 299q-1 26-9 69t-20 95q-12 52-25 106l-25 112h84l57 320H125l57-320h86q-6-26-12.5-54.5T242 569q-13-56-25.5-111T196 359q-8-44-8-68 0-57 24-91.5t77-41.5v-39q0-20-7-35t-11-21h-51q-10 0-23-2t-21-10q-31 2-56 20t-40.5 40Q64 133 62 149l42 51-68 37 58 43-68 48 48 47-52 45 57 46-54 47 56 41-57 41q16 10 33 22t30 20l-59 39 57 45-58 38q17 10 36.5 22.5T97 802l-69 43q17 10 35 21t32 20l-68 54 40 20 2 40zM220 43h202q8 0 19.5-1.5T453 31q0-8-11.5-9.5T422 20H220q-8 0-19.5 1.5T189 31q0 9 11.5 10.5T220 43zm89 113q4-1 12-1h6l6 1v-37q0-17 5-31.5T348 63h-54q5 10 10 24t5 32zm144 122q18-5 29-10t18-15q10-14 10-36 0-12 5-24t20-14v-26q-13 2-21.5 7T500 177q-5 10-8 22.5T481 222q-10 15-33 19 5 18 5 37zM216 981h209q-17-20-39-47t-38.5-58Q331 845 331 812q0-25 7.5-65t19-87.5Q369 612 381 564q9-36 18-77t17-79.5q8-38.5 13-69.5t5-47q0-56-26.5-86T321 175q-61 0-87 30t-26 86q0 16 5 47t13 69.5q8 38.5 17 79.5t18 77q11 48 22.5 95.5T303 747q8 40 8 65 0 33-16.5 64t-39 58Q233 961 216 981zm-67 0h38q22-22 46.5-51.5t41-61Q291 837 291 812q0-16-5-45.5T273 700h-74q-13 71-25 140.5T149 981zm304 0h38q-13-71-25-140.5T441 700h-72q-8 38-13 67t-5 45q0 25 16.5 56.5t40 61Q431 959 453 981z" fill="currentColor"/></svg>