<svg xmlns="http://www.w3.org/2000/svg" viewBox="0 0 531.7 611.2"><path d="M159.6 58h28.7c0-23-4.8-34.7-14.3-35.2-9.6.4-14.4 12.2-14.4 35.2zM174 199.4c-19.1 0-25 33-17.6 99 5.2 40.4 10.6 95.3 16.3 164.8h3.3c4.8-69.9 10-124.9 15.6-164.8 7.8-66 1.9-99-17.6-99zm-16.3 393.5h33.2c-7.8-25.2-13.2-58-16.3-98.4h-1.3c-3 40.4-8.2 73.2-15.6 98.4zm216.3 0c-7.4-25.2-12.6-58-15.6-98.4H357c-3 40.4-8.3 73.2-15.6 98.4H374zm-16.3-393.5c-19.5 0-25.4 33-17.6 99 5.6 39.5 10.9 94.5 15.6 164.8h3.9c5.2-69.5 10.4-124.4 15.6-164.8 7.9-66 2-99-17.5-99zM372 58c0-23.5-4.8-35.2-14.3-35.2-9.6 0-14.3 11.7-14.3 35.2H372zm-89.2 534.9c-7.4-25.2-12.8-58-16.3-98.4h-.7c-3.5 40.4-8.9 73.2-16.3 98.4h33.3zm-17-393.5c-19.1 0-25 33-17.6 99 5.6 39.5 11.1 94.5 16.3 164.8h3.3c5.2-69.5 10.6-124.4 16.3-164.8 7.4-66 1.3-99-18.3-99zM322.5 58c0-38.2 11.7-57.6 35.2-58 23.5.4 35.2 19.8 35.2 58h47.6v28.7H372v88h38.4c80.8-.4 121.2 57.3 121.2 173.3v263.2H503V346c0-99.9-32.1-148.8-96.4-146.6h-12.4c7.4 14.8 10.3 35 8.8 60.6s-6.8 75.1-16 148.6l-7.8 75.6c-.4 39.5 6.7 77.3 21.5 113.4 3 9.1 1.7 13.7-3.9 13.7h-78.2c-6.1 0-7.6-4.6-4.6-13.7 15.2-36.1 22.6-73.8 22.2-113.4l-7.8-75.6c-9.1-73.4-14.4-122.9-16-148.6-1.5-25.6 1.2-45.8 8.1-60.6 5.6-13 13.2-21.1 22.8-24.1V86.7h-62.5v88c9.1 3.5 16.5 11.7 22.2 24.8 7 14.8 9.8 35 8.5 60.6s-6.7 75.1-16.3 148.6l-7.8 75.6c0 39.5 7.2 77.3 21.5 113.4-2.2 9.1-3.3 13.7-3.3 13.7h-78.8c-6.1 0-7.4-4.6-3.9-13.7 14.8-36.1 22.2-73.8 22.2-113.4l-7.8-75.6c-9.1-73.4-14.4-122.9-16-148.6-1.5-25.6 1.2-45.8 8.1-60.6 5.6-13 13.2-21.1 22.8-24.1V86.7h-63.9v88.6c9.6 3.5 17.2 11.5 22.8 24.1 6.9 15.2 9.7 35.5 8.1 60.9-1.5 25.4-6.8 74.8-16 148.2l-7.8 75.6c0 39.5 7.4 77.5 22.2 114 3.5 8.7 2.2 13-3.9 13h-78.8c-5.6 0-6.7-4.3-3.3-13 14.3-36.5 21.3-74.5 20.8-114l-7.2-75.6c-9.6-73.4-15-122.8-16.3-148.2-1.3-25.4 1.5-45.7 8.5-60.9H125c-64.3-2.2-96.4 46.7-96.4 146.6v265.2H0V348.6c0-116 40.4-174 121.2-174h38.4v-88H91.2V58h47.6C138.8 19.8 150.5.7 174 .7c23.5 0 35.2 19.1 35.2 57.3h22.2c0-38.2 11.5-57.6 34.5-58C289.3.4 301 19.8 301 58h21.5zm-41.7 0c0-23.5-5-35.2-15-35.2-9.6 0-14.3 11.7-14.3 35.2h29.3zM130.3 265.8V241h263.2v24.8H130.3z"/></svg>