<svg xmlns="http://www.w3.org/2000/svg" viewBox="-10 0 1168 992"><path d="M100 992v-24q18-17 37.5-41.5T170 875q13-27 13-49 0-16-6-49t-16-75q-10-42-21-88-9-38-18-80.5t-16.5-83Q98 410 93.5 378T89 330q0-20 3-37H71q-30 0-43 13.5T12.5 336Q10 352 10 359v626h-20V359q0-7 1.5-21T0 309q7-15 24-25.5T71 273h27q10-28 31-46.5t53-23.5v-27q0-18-5.5-33.5T167 121h-15q-12 0-28-4.5T108 92q0-20 16-25t28-5l59-62 58 62q12 0 28.5 5T314 92q0 20-16.5 24.5T269 121h-15q-4 6-9 21.5t-5 33.5v27q43 7 65.5 37t26.5 73q4-43 26.5-73t65.5-37v-27q0-18-5.5-33.5T409 121h-15q-11 0-27.5-4.5T350 92q0-20 16.5-25t27.5-5l59-62 58 62q12 0 28.5 5T556 92q0 20-16.5 24.5T511 121h-15q-4 6-8.5 21.5T483 176v27q43 7 65 37t26 73q4-43 26.5-73t66.5-37v-27q0-18-6-33.5T651 121h-15q-11 0-27.5-4.5T592 92q0-20 16.5-25t27.5-5l59-62 59 62q11 0 27.5 5T798 92q0 20-16.5 24.5T754 121h-16q-4 6-8.5 21.5T725 176v27q43 7 65 37t26 73q4-43 27-73t66-37v-27q0-18-5.5-33.5T894 121h-15q-12 0-28.5-4.5T834 92q0-20 16.5-25t28.5-5l58-62 59 62q11 0 27.5 5t16.5 25q0 20-16.5 24.5T996 121h-15q-4 6-9 21.5t-5 33.5v27q32 5 52.5 23.5T1050 273h27q30 0 47 10.5t24 26q7 15.5 8.5 29.5t1.5 20v626h-20V359q0-7-2.5-23t-15.5-29.5q-13-13.5-43-13.5h-22q2 8 3 17.5t1 19.5q0 16-4.5 48t-12 72.5q-7.5 40.5-16.5 83t-18 80.5q-11 46-21 88t-16 75q-6 33-6 49 0 22 13 49t32.5 51.5Q1030 951 1048 968v24H826v-24q18-17 37.5-41.5t33-51.5q13.5-27 13.5-49 0-16-6.5-49T887 702q-10-42-20-88-10-44-21-96t-19-98q-8-46-11-74-2 28-10 74t-18.5 98Q777 570 766 614q-11 46-21 88t-16 75q-6 33-6 49 0 22 13 49t32.5 51.5Q788 951 806 968v24H584v-24q18-17 37.5-41.5t33-51.5q13.5-27 13.5-49 0-16-6.5-49T645 702q-10-42-20-88-10-44-21-96t-19-98q-8-46-11-74-3 28-10.5 74t-18 98Q535 570 524 614q-11 46-21 88t-16 75q-6 33-6 49 0 22 13 49t32.5 51.5Q546 951 564 968v24H342v-24q18-17 37.5-41.5T412 875q13-27 13-49 0-16-6-49t-16-75q-10-42-21-88-11-44-21.5-96t-18-98q-7.5-46-10.5-74-3 28-11 74t-19 98q-11 52-21 96-10 46-20 88t-16.5 75q-6.5 33-6.5 49 0 22 13.5 49t33 51.5Q304 951 322 968v24zm780-890h114q7 0 17-1.5t10-8.5q0-5-11-8t-22-3l-50-55-54 55q-7 0-18.5 1.5T854 92q0 7 9.5 8.5T880 102zm-242 0h114q7 0 16.5-1.5T778 92q0-5-10.5-8T746 81l-50-55-54 55q-7 0-19 1.5T611 92q0 7 10 8.5t17 1.5zm-242 0h113q8 0 17.5-1.5T536 92q0-5-10.5-8T504 81l-50-55-54 55q-7 0-19 1.5T369 92q0 7 10 8.5t17 1.5zm-242 0h113q8 0 17.5-1.5T294 92q0-5-11.5-8T261 81l-49-55-54 55q-7 0-19 1.5T127 92q0 7 10 8.5t17 1.5zm774 99h19v-25q0-16 5-31t9-24h-48q5 9 10 24t5 31zm-242 0h19v-25q0-16 4.5-31t9.5-24h-48q5 9 10 24t5 31zm-484 0h18v-25q0-16 4.5-31t9.5-24h-47q4 9 9.5 24t5.5 31zm242 0h18v-25q0-16 5-31t10-24h-48q5 9 10 24t5 31zm-79 771h176q-14-17-33-40t-33-50q-14-27-14-56 0-22 7-56.5t17-76.5q10-42 19-84 7-32 16-73.5t17-83.5q8-42 13-75t5-47q0-49-24.5-79T453 221q-53 0-77.5 30T351 330q0 14 5 47t12.5 75q7.5 42 16 83.5T401 609l20 84 17 76.5q17 76.5 7 56.5 0 29-14 56t-33 50q-19 23-33 40zm484 0h176q-14-17-32.5-40t-33-50Q945 855 945 826q0-22 7-56.5t17-76.5l20-84q8-32 16.5-73.5T1022 452q8-42 13-75t5-47q0-49-25-79t-78-30q-52 0-77 30t-25 79q0 14 5 47t13 75q8 42 17 83.5t16 73.5q9 42 19 84t17 76.5q7 34.5 7 56.5 0 29-14 56t-33 50q-19 23-33 40zm-242 0h176q-14-17-33-40t-33-50q-14-27-14-56 0-22 7-56.5t17-76.5l20-84q8-32 16.5-73.5t16-83.5q7.5-42 12.5-75t5-47q0-49-24.5-79T695 221q-52 0-77 30t-25 79q0 14 5 47t13 75q8 42 17 83.5t16 73.5q9 42 19 84t17 76.5q7 34.5 7 56.5 0 29-14 56t-33 50q-19 23-33 40zm-484 0h176q-14-17-33-40t-33-50q-14-27-14-56 0-22 7-56.5t17-76.5q10-42 19-84 7-32 16-73.5t17-83.5q8-42 13-75t5-47q0-49-25-79t-77-30q-53 0-78 30t-25 79q0 14 5 47t13 75q8 42 16.5 83.5T159 609l20 84 17 76.5q17 76.5 7 56.5 0 29-14.5 56t-33 50Q137 955 123 972z" fill="currentColor"/></svg>