<svg xmlns="http://www.w3.org/2000/svg" viewBox="0 0 595.3 583.4"><path d="M152.4 55.4h27.4c0-22-4.6-33.2-13.7-33.6-9.1.4-13.7 11.6-13.7 33.6zm13.7 134.9c-18.2 0-23.8 31.5-16.8 94.5 5 38.6 10.2 91 15.6 157.4h3.1c4.6-66.8 9.5-119.2 14.9-157.4 7.4-63 1.8-94.5-16.8-94.5zM150.5 566h31.7c-7.5-24.1-12.6-55.4-15.6-93.9h-1.2c-2.8 38.6-7.8 69.9-14.9 93.9zm206.5 0c-7-24.1-12-55.4-14.9-93.9h-1.2c-2.9 38.6-7.9 69.9-15 93.9H357zm-15.5-375.7c-18.7 0-24.3 31.5-16.8 94.5 5.4 37.7 10.4 90.2 14.9 157.4h3.7c5-66.3 10-118.8 14.9-157.4 7.5-63 1.9-94.5-16.7-94.5zm13.7-134.9c0-22.4-4.6-33.6-13.7-33.6S327.8 33 327.8 55.4h27.4zM270 566c-7-24.1-12.2-55.4-15.6-93.9h-.6c-3.3 38.6-8.5 69.9-15.6 93.9H270zm-16.2-375.7c-18.2 0-23.8 31.5-16.8 94.5 5.4 37.7 10.6 90.2 15.6 157.4h3.1c5-66.3 10.2-118.8 15.6-157.4 6.9-63 1.1-94.5-17.5-94.5zm14.3-134.9c0-22.4-4.8-33.6-14.3-33.6-9.1 0-13.7 11.2-13.7 33.6h28zM445.4 566c-7-24.1-12.2-55.4-15.6-93.9h-1.2c-2.9 38.6-7.9 69.9-14.9 93.9h31.7zm-16.2-375.7c-18.2 0-23.8 31.5-16.8 94.5 5.4 37.7 10.6 90.2 15.6 157.4h3.1c5-66.3 10-118.8 14.9-157.4 7.4-63 1.8-94.5-16.8-94.5zm14.3-134.9c0-22.4-4.8-33.6-14.3-33.6-9.1 0-13.7 11.2-13.7 33.6h28zm36.7 111.3c76.7 0 115.1 55.4 115.1 166.1v250.7h-27.4V330.3c0-95.4-30.7-142-92.1-140h-11.2c6.6 14.1 9.2 33.4 7.8 57.8-1.5 24.5-6.5 71.7-15.2 141.8l-7.5 72.2c0 37.7 6.8 73.8 20.5 108.2 3.3 8.7 2.3 13.1-3.1 13.1h-75.3c-5.8 0-7.3-4.4-4.4-13.1 14.5-34.4 21.6-70.5 21.1-108.2l-6.8-72.2c-8.7-70.1-13.8-117.4-15.2-141.8-1.5-24.5 1.1-43.7 7.8-57.8 5-12.4 12.2-20.1 21.8-23V82.7h-61v84c9.1 3.3 16.2 11.2 21.1 23.6 7 14.1 9.8 33.4 8.4 57.8-1.5 24.5-6.5 71.7-15.2 141.8l-7.5 72.2c-.4 37.7 6.4 73.8 20.5 108.2 2.9 8.7 1.7 13.1-3.7 13.1h-74.6c-5.8 0-7.3-4.4-4.4-13.1 14.5-34.4 21.6-70.5 21.1-108.2l-7.5-72.2c-8.7-70.1-13.8-117.4-15.2-141.8s1.1-43.7 7.8-57.8c5.4-12.4 12.6-20.1 21.8-23V82.7H268v84c8.7 3.3 15.8 11.2 21.1 23.6 6.6 14.1 9.3 33.4 8.1 57.8-1.2 24.5-6.4 71.7-15.6 141.8l-7.5 72.2c0 37.7 6.8 73.8 20.5 108.2-2.1 8.7-3.1 13.1-3.1 13.1h-75.3c-5.8 0-7-4.4-3.7-13.1 14.1-34.4 21.1-70.5 21.1-108.2l-7.5-72.2c-8.7-70.1-13.8-117.4-15.2-141.8s1.1-43.7 7.8-57.8c5.4-12.4 12.6-20.1 21.8-23V82.7h-61v84.6c9.1 3.3 16.4 11 21.8 23 6.6 14.5 9.2 33.9 7.8 58.2-1.5 24.3-6.5 71.4-15.2 141.5l-7.5 72.2c0 37.7 7 74 21.1 108.9 3.3 8.3 2.1 12.4-3.7 12.4h-75.3c-5.4 0-6.4-4.1-3.1-12.4 13.7-34.8 20.3-71.1 19.9-108.9l-6.8-72.2c-9.1-70.1-14.3-117.2-15.6-141.5-1.2-24.3 1.5-43.6 8.1-58.2h-11.8c-61.4-2.1-92.1 44.6-92.1 140v253.2H0V332.8c0-110.7 38.6-166.1 115.7-166.1h36.7v-84H87.1V55.4h45.4c0-36.5 11.2-54.7 33.6-54.7 22.4 0 33.6 18.2 33.6 54.7h21.1c0-36.5 11-54.9 33-55.4 22.4.4 33.6 18.9 33.6 55.4h20.5c0-36.5 11.2-54.9 33.6-55.4 22.4.4 33.6 18.9 33.6 55.4h20.5c0-36.5 11.2-54.9 33.6-55.4 22.4.4 33.6 18.9 33.6 55.4h46v27.4h-65.3v84h36.7zm-346.5 87.1v-23.6h327.8v23.6H133.7z"/></svg>