<svg xmlns="http://www.w3.org/2000/svg" viewBox="0 0 584.8 555.4"><path d="M44.2 0v36h67.2v162.2c-44.2 1.6-86.8-9.8-111.4 31.1V434l42-.5V245.8l67.7-.1v267l-88.6.4.3 42.3 545.3-.1v-47.5h-80.3V244.1h54.1v178.5h44.2V224.4c0-39.3-59-22.9-99.9-26.2V39.3h50.8V0H44.2m331.2 41.3l65-.1v155.3l-66.7.4 1.7-155.6m-.4 199.6l64.2.6v267l-64.1.1-.1-267.7m-216.4 3.3h60.7l-.6 267.7h-60l-.1-267.7m-3.5-205.9l65.3-.3-.9 158.6h-63.9l-.5-158.3m114.8 3h62.7L331 193.7h-62l.9-152.4m.2 199.6h60.7l-.5 267.6h-60l-.2-267.6z"/></svg>