<svg xmlns="http://www.w3.org/2000/svg" viewBox="-10 0 459 1034"><path d="M219 1034q-52 0-94-26t-63-68h-72v-19h64q-9-24-9-52 0-17 3-32h-58v-20h63q20-58 77-90-7-3-14-9t-7-18q0-13 9-22t31-9h26q-5-16-17-56.5t-27-95Q116 463 102 405T79 295q-9-52-9-88 0-68 22-114.5T148.5 23Q183 0 221 0t72.5 23Q328 46 350 92.5T372 207q0 36-9 88t-23 109.5Q326 462 311 516t-27 95q-12 41-17 58h26q22 0 30.5 9t8.5 22q0 13-7.5 19t-14.5 8q26 16 45.5 39t29.5 51h64v20h-58q3 15 3 32 0 28-9 52h64v19h-72q-22 42-64 68t-94 26zm-24-365h51q4-12 16-51.5t27-94q15-54.5 29.5-114t24-113Q352 243 352 207q0-62-19-103.5T283.5 41Q253 20 221 20q-33 0-63.5 21T108 103.5Q89 145 89 207q0 36 9.5 89.5t24 113Q137 469 152 523.5t27 94q12 39.5 16 51.5zm95 48l-1-1q8-2 16-6.5t8-9.5q0-11-19-11H148q-19 0-19 11 0 7 9.5 11t12.5 5q16-6 33-9.5t35-3.5q19 0 36.5 4t34.5 10zM74 817h290q-17-41-56-67.5T219 723q-50 0-89 26.5T74 817zm0 104h290q11-25 11-52 0-8-1-16t-3-16H68q-3 15-3 32 0 28 9 52zm145 93q44 0 80-20t56-54H84q19 34 55 54t80 20z" fill="currentColor"/></svg>