<svg xmlns="http://www.w3.org/2000/svg" viewBox="0 0 227.6 599.8"><path d="M118 0C75.5 0 26.8 24.5 26.8 74.8c-2.4 30.7.6 61.7 3.8 92.3 9.6 76.1 38.3 147.8 62 220.4-1.9 0-15.4-.4-15.4 9.8v26.1c-13.4 6.6-22.7 16.7-31.8 24.1H16.2c-5.4 0-9.8 4.4-9.8 9.8v26.4c0 5.2 6.1 9.6 11.4 9.8 2.4 4.4 2.8 8.4 3.4 12.5l-11-.3c-5.5-.2-10.2 4.6-10.2 9.7v25.4c0 5.4 4.4 9.8 9.8 9.8 7.3 0 24.6.4 25.6.3 12.2 28.1 45.1 48.9 80.8 48.9 34.7 0 64.8-22.3 76.1-49.3h25.5c9.2 0 9.8-6.4 9.8-9.8v-25.4c0-4.3 1.9-9.5-19.6-9.5.3-3.9.2-8.1-.5-12.2 9.4-.6 13.8-4.7 13.8-10v-26.4c0-5.4-4.4-9.8-9.8-9.8h-29.2c-9.1-7.4-18.4-17.5-31.8-24.1v-26.1c0-5.3-4.3-9.6-9.6-9.8.2-1.2 61.3-169.3 64.3-257.6 2.3-33.2 5.6-70.7-16.6-98.5C174.6 12.2 160.1 0 118 0zm-1 19.7c22.4 0 37.6 3.3 50.3 17.6 17.4 17.3 20.7 43 19.1 66.4-.3 53.7-9.8 107-25.5 158.3-12.3 42.2-27 83.7-40.5 125.5h-6.5c-.6-2.1-64.2-176.2-67-266.6-.5-26.3-4.3-56.1 13.7-78 11-15.3 33.5-23.2 56.4-23.2zM96.7 407h34.1v22.8c0 4.1 2.6 7.8 6.5 9.2 5.7 2.1 10.9 5.7 16.3 10.1H73.9c5.4-4.4 10.6-8.1 16.3-10.1 3.9-1.4 6.5-5.1 6.5-9.2V407zm-55.9 82.6h144.8c2 4.1 2.3 12.2 1.8 18H41.6c-1.1-6.5-1.3-13.9-.8-18zm16.7 60.6h112.6c-10.6 15.7-31.7 30-53.9 30-24.1 0-47.4-13.9-58.7-30z"/></svg>