<svg xmlns="http://www.w3.org/2000/svg" viewBox="0 0 371.2 594.4"><path d="M170 83.7H85.7c-5.8 0-4.2 17.9 4.6 53.8H170V83.7zm83 479.5c-7.1-33.2-11.4-70.2-12.9-110.9s1.4-86.7 9-137.8c7.5-51.1 16.2-100.6 25.9-148.4H96.3c9.7 47.8 18.4 97.3 25.9 148.4 7.5 51.1 10.5 97.1 9 137.8-1.5 40.7-5.9 77.7-13 110.9H253zm-51.8-425.7h79.7c8.9-35.9 10.4-53.8 4.6-53.8h-84.3v53.8zm22.6-87c-7.5-16.4-20.4-24.6-38.5-24.6-17.7 0-30.3 8.2-37.9 24.6h76.4zM185.3 0c33.6 0 58 16.8 73.1 50.5h100.3c8.4 0 12.6 5.5 12.6 16.6 0 11.1-4.2 16.6-12.6 16.6h-19.3c-9.3 0-14.4 2.4-15.3 7.3-18.6 80.6-31 138.1-37.2 172.7-12 66-17.9 121.3-17.9 166 0 44.3 3.8 79.1 11.3 104.6 7.5 25.5 11.3 40 11.3 43.5.4 11.5-2.7 17-9.3 16.6H89c-6.6.4-9.7-5.1-9.3-16.6 0-3.5 3.8-18 11.3-43.5 7.5-25.5 11.3-60.3 11.3-104.6 0-44.7-6-100.1-17.9-166-6.3-34.6-18.7-92.1-37.2-172.7-.9-4.9-6.4-7.3-16.6-7.3H12.7C4.2 83.7 0 78.1 0 67.1 0 56 4.2 50.5 12.6 50.5h100.3C128 16.8 152.1 0 185.3 0z"/></svg>