<svg xmlns="http://www.w3.org/2000/svg" viewBox="-10 0 422 1001"><path d="M123 1001q-10-26-24-66t-28-85q-14-45-25-87h-56v-19h51q-9-34-14-64.5T22 626h-32v-19h32q3-50 22-81.5T86 477q23-17 38-24v-44H96q-4 0-16-5t-12-26q0-20 12-25t16-5h71V131q0-40-8.5-50.5T133 67q-8-1-21-3.5t-23.5-10Q78 46 78 31q0-20 13.5-25.5T124 0q8 0 26 4t37.5 15.5Q207 31 221 55t14 64v229h70q4 0 16.5 5t12.5 25q0 21-12.5 26t-16.5 5h-28v44q16 7 38.5 24t41.5 48.5q19 31.5 22 81.5h33v19h-32q-2 49-20 118h52v19h-56q-11 42-25 87t-28 85q-14 40-24 66zm63-653h30V119q0-34-11.5-54T177 35q-16-10-31-13.5T124 18q-11 0-19 2.5T97 31q0 7 9 11t20 6.5q11 2.5 18 3.5 8 1 18 6.5t17 22q7 16.5 7 50.5zm-90 41h209q2 0 5.5-2t3.5-9q0-7-3.5-8.5T305 368H96q-1 0-5 1.5t-4 8.5q0 7 4 9t5 2zM42 607h317q-3-48-21.5-76.5T296 487q-23-15-38-21v-57H144v57q-15 6-38 21t-42 43.5Q45 559 42 607zm19 137h279q9-34 14.5-64.5T360 626H41q0 23 5.5 53.5T61 744zm76 237h128q4-12 16.5-46.5t27-80Q323 809 336 763H66q13 46 27.5 91.5t26.5 80q12 34.5 17 46.5z" fill="currentColor"/></svg>