<svg xmlns="http://www.w3.org/2000/svg" viewBox="0 0 283.8 594.4"><path d="M160.5 567.5c21.1-33.5 37.7-70.3 49.6-110.2H73.7c11.9 39.9 28.5 76.7 49.6 110.2h37.2zm53-139.8c2.8-31.2 2.8-49.8 0-55.8H70.3c-2.3 6-2.3 24.6 0 55.8h143.2zm0-86.1c-5.1-11.5-15.5-28.9-31.3-52.3s-24.9-44.5-27.2-63.4h-25.5c-2.3 18.8-11.5 39.9-27.5 63.4-16.1 23.4-26.6 40.9-31.7 52.3h143.2zM166 194.9c3.7 4.6 8.5 6.9 14.5 6.9h19.3c15.2 0 22.7 3.9 22.7 11.7 0 8.3-7.3 12.4-22 12.4-6 2.3-9 8-9 17.2 1.4 12.4 10.1 28.1 26.2 47.2s25 36.2 26.9 51.3h26.9c8.3 0 12.4 5.1 12.4 15.2s-4.1 15.2-12.4 15.2h-26.2c2.3 6 2.1 24.6-.7 55.8h26.2c8.7 0 13.1 5.1 13.1 15.2 0 9.6-4.1 14.5-12.4 14.5h-26.9c-17.4 51-39.9 96.7-67.5 137.1h-69.6c-28-40.4-50.7-86.1-68.2-137.1H13.1C4.4 457.5 0 452.7 0 443c0-10.1 4.4-15.2 13.1-15.2h26.2C37 396.6 37 378 39.3 372H13.1C4.4 372 0 366.9 0 356.8s4.4-15.2 13.1-15.2h26.2c1.8-15.2 10.8-32.3 26.9-51.3 16.1-19.1 25-34.8 26.9-47.2 0-9.2-3-14.9-9-17.2-14.7 0-22-4.1-22-12.4 0-7.8 7.3-11.7 22-11.7h19.3c6.4 0 11.2-2.3 14.5-6.9l.7-.7c5.5-79 7.5-127.3 5.9-145C122.7 31.6 105.6 20 73 14.5c-5.1-4.1-4.8-8.3.7-12.4 29.4-5.5 52.1 0 68.2 16.5s23.9 75.1 23.4 175.6l.7.7z"/></svg>