<svg xmlns="http://www.w3.org/2000/svg" viewBox="0 0 321.8 301.6"><path d="M138.1 140.8c-5.4-37.1-18.1-73.5-38.2-109.2C80.2 67.2 67.3 103.7 61 140.8h77.1zm0 18.7H61V197h77.1v-37.5zm2 57H61c-.4 37.5 12.5 58.1 38.9 61.7 26.8-3.6 40.2-24.2 40.2-61.7zm40.9 0c.4 37.5 13.9 58.1 40.2 61.7 26.8-3.6 40-24.1 39.5-61.7H181zm2-19.4h77.7v-37.5H183v37.5zm77.8-56.3c-6.3-37.1-19.4-73.5-39.5-109.2-19.7 35.7-32.4 72.2-38.2 109.2h77.7zm-99.9-6.8c7.6-54.5 27.7-99.2 60.3-134 32.6 35.3 53.2 82.2 61.7 140.8h33.5c6.3 7.1 6.3 13.6 0 19.4h-33.5v36.9h35.5c4.9 7.6 4.5 14.1-1.3 19.4h-34.2c0 29-4.6 49.3-13.7 60.7-9.2 11.4-25.1 19.5-47.9 24.5-22.8-4.5-42.9-17-60.3-37.5-17.4 20.6-37.8 33.1-61 37.5-22.8-4.9-38.8-13.1-47.9-24.5-9.2-11.4-13.7-31.6-13.7-60.7H4.7c-5.8-5.4-6.3-11.8-1.3-19.4h34.9v-36.9H4.7c-5.8-5.8-5.8-12.3 0-19.4h33.5C46.7 82.2 67.3 35.3 99.9 0c33.1 34.9 53.4 79.5 61 134z"/></svg>