<svg xmlns="http://www.w3.org/2000/svg" viewBox="-10 0 421 633"><path d="M80 633q-15-30-30.5-68t-29-78Q7 447-1.5 411t-8.5-62q0-51 27.5-87T75 195q23-23 41-45t18-46q0-21-9-31t-16-13H93q-4 0-16-5T65 30q0-20 12-25t16-5h214q4 0 16.5 5T336 30q0 20-12.5 25T307 60h-16q-7 3-16 12.5t-9 31.5q0 24 18.5 46t40.5 45q31 31 58.5 67t27.5 87q0 26-8.5 62t-22 76q-13.5 40-29 78T321 633zM93 41h214q2 0 5.5-2t3.5-9q0-7-3.5-9t-5.5-2H93q-1 0-4.5 2T85 30q0 7 3.5 9t4.5 2zM27 283h346q-11-20-27.5-38.5T312 209q-25-26-45-50.5T247 104q0-16 4-26.5t9-17.5H140q6 7 10 17.5t4 26.5q0 30-19.5 54.5T89 209q-17 17-33.5 35.5T27 283zm65 331h217q18-39 37-89.5t32-98q13-47.5 13-77.5 0-25-9-46H18q-9 21-9 46 0 30 13 77.5t32.5 98Q74 575 92 614z" fill="currentColor"/></svg>