<svg xmlns="http://www.w3.org/2000/svg" viewBox="0 0 210 333.4"><path d="M140.2 333.4H72.4c-16.9 0-29.9-9.2-39.1-27.6C16.5 251.4 5.4 201.5 0 156.3c0-17.6 9.6-36.4 28.7-56.3s28.4-42.5 27.6-67.8c-3.8-4.6-14.2-6.9-31-6.9-11.5-8.4-11.5-16.9 0-25.3h158.6c11.5 8.4 11.5 16.9 0 25.3-17.6 0-28.4 1.9-32.2 5.7-3.1 26.1 7.1 47.9 30.5 65.5s32 41.4 25.9 71.3c-.8 36-11.5 82.4-32.2 139.1-9.2 17.6-21.1 26.5-35.7 26.5zm40.3-203.5c-33.7-18.4-51.3-48.3-52.9-89.7l1.1-14.9H80.5v14.9c-3.1 41.4-18.8 70.5-47.1 87.4l147.1 2.3zm-46 175.9c15.3 0 31.8-49.4 49.4-148.3h-154c18.4 98.9 33.7 148.3 46 148.3h58.6z"/></svg>