<svg xmlns="http://www.w3.org/2000/svg" viewBox="-10 0 659 635"><path d="M158 635q-14-42-29.5-90.5t-29-95.5Q86 402 78 365t-8-55v-1q-11-3-30-11T5.5 275.5Q-10 261-10 238q0-19 10-28t21.5-12.5Q33 194 40 194q20 0 38.5 7.5T108 217q12-14 26.5-27t29.5-25q20-16 34.5-32t14.5-33q0-17-9-27t-17-13h-12q-4 0-16-5t-12-25q0-20 12-25t16-5h289q5 0 17 5t12 25q0 20-12 25t-17 5h-11q-9 3-18 13t-9 27q0 17 14.5 33t34.5 32q15 12 29.5 25t26.5 27q10-8 29-15.5t39-7.5q6 0 18 3.5t22 12.5q10 9 10 28 0 23-15.5 37.5T599 298q-19 8-30 11v1q0 18-8 55t-21.5 84Q526 496 511 544.5T482 635zm17-594h289q1 0 5-2t4-9q0-7-4-9t-5-2H175q-2 0-5.5 2t-3.5 9q0 7 3.5 9t5.5 2zm-4 574h297q13-40 27.5-86t27-90.5q12.5-44.5 20-78.5t7.5-50q0-42-28-73.5T462 180q-23-19-39.5-37.5T406 100q0-13 4-23t10-17H219q6 7 10 17t4 23q0 24-16.5 42.5T177 180q-32 25-60 56.5T89 310q0 16 7.5 50t20 78.5q12.5 44.5 27 90.5t27.5 86zM72 289q2-16 8.5-29.5T96 233q-7-6-24-13t-31-7q-8 0-20 4.5T9 238q0 15 11.5 25.5T47 280q15 6 25 9zm495 0q10-3 25-9t26.5-16.5Q630 253 630 238q0-16-12-20.5t-20-4.5q-13 0-30 7t-25 13q9 13 15.5 26.5T567 289z" fill="currentColor"/></svg>