<svg xmlns="http://www.w3.org/2000/svg" viewBox="0 0 296 388.9"><path d="M214.4 159.2c-12.9-27.9-35-47.3-66.4-58.2-31.3 10.9-53.1 30.3-65.3 58.2h131.7zm-1 26.6H82.7c-.7 30.6 3.9 62.6 13.8 96 9.9 33.3 17.2 58.2 21.9 74.5h57.2c10.9-33.3 20.1-62.4 27.6-87.3 7.4-24.9 10.8-52.6 10.2-83.2zM83.7 388.9c-14.3-63.3-28.2-119.4-41.9-168.4C14 219.8 0 208.9 0 187.8c-.7-19.1 13.3-28.6 41.9-28.6 2.7-15 16-35 39.8-60.2 16.3-15.7 24.5-30.6 24.5-44.9 0-11.6-7.7-18.7-23-21.4-15.3-2.7-24-8.2-26-16.3C77.6 5.4 107.9 0 148 0s70.4 5.1 90.8 15.3c-2 8.8-10.7 14.6-26 17.4-15.3 2.7-23 9.9-23 21.4 0 15 8.5 29.9 25.5 44.9 23.1 25.2 36.1 45.3 38.8 60.2 27.9 0 41.9 9.5 41.9 28.6 0 21.1-14 31.6-41.9 31.6-10.2 43.6-24.5 100-42.9 169.4H83.7z"/></svg>