<svg xmlns="http://www.w3.org/2000/svg" viewBox="-10 0 376 408"><path d="M178 408q-52 0-94.5-25.5t-68-68Q-10 272-10 220q0-47 21.5-87T68 67q-8-3-14.5-10.5T47 35q0-23 14-29t29-6h175q15 0 29 6t14 29q0 14-6.5 21.5T287 66q36 26 57.5 66.5T366 220q0 52-25.5 94.5t-68 68Q230 408 178 408zM92 52q19-10 41-15.5t45-5.5q47 0 86 21l6-1q18-2 18-16 0-10-5.5-13T264 19H91q-13 0-18.5 3T67 35q0 14 18 16zm86 336q47 0 85.5-22.5t61-60.5q22.5-38 22.5-85t-22.5-85.5q-22.5-38.5-61-61T178 51q-47 0-85.5 22.5t-61 61Q9 173 9 220t22.5 85q22.5 38 61 60.5T178 388z" fill="currentColor"/></svg>