<svg xmlns="http://www.w3.org/2000/svg" viewBox="0 0 263.1 261.9"><path d="M206.8 42.5c14.2 8 27 21.2 38.5 39.3 11.5 18.2 17.4 38.4 17.8 60.6 0 25.3-10.7 51-32.2 77.3-21.4 26.2-54.6 40.3-99.4 42.2-45.2-1.9-78.4-16-99.7-42.2C10.6 193.5 0 167.5 0 141.9c.4-21.8 6.3-41.7 17.8-59.7s24.1-31 37.9-39.1V0h151.1v42.5zm-26.4-5.2V19H83.3v18.4h97.1zm-48.9 17.8c-46.3 0-75.8 10.3-88.5 31-12.6 20.7-19 39.4-19 56.3 0 25.3 10.5 47.5 31.6 66.6 21.1 19.1 46.3 28.7 75.8 28.7 29.1 0 54.2-9.6 75.2-28.7 21.1-19.1 31.8-41.5 32.2-67.2 0-16.5-7.8-35-23.3-55.7s-43.4-31-84-31z"/></svg>