<svg xmlns="http://www.w3.org/2000/svg" viewBox="-10 0 1228 408"><path d="M1029 408q-52 0-94.5-25.5t-68-68Q841 272 841 220q0-47 21.5-87T920 67q-9-3-15-10.5T899 35q0-23 14-29t29-6h174q15 0 29 6t14 29q0 14-6 21.5t-14 9.5q36 26 57.5 66.5T1218 220q0 52-25.5 94.5t-68.5 68q-43 25.5-95 25.5zm-851 0q-52 0-94.5-25.5t-68-68Q-10 272-10 220q0-47 21.5-87T68 67q-8-3-14.5-10.5T47 35q0-23 14-29t29-6h175q15 0 29 6t14 29q0 14-6.5 21.5T287 66q36 26 57.5 66.5T366 220q0 52-25.5 94.5t-68 68Q230 408 178 408zm426 0q-52 0-94.5-25.5t-68-68Q416 272 416 220q0-47 21-87t57-66q-8-3-14.5-10.5T473 35q0-23 14-29t29-6h175q15 0 28.5 6T733 35q0 14-6 21.5T713 66q36 26 57.5 66.5T792 220q0 52-25.5 94.5t-68 68Q656 408 604 408zM92 52q19-10 41-15.5t45-5.5q47 0 86 21l6-1q18-2 18-16 0-10-5.5-13T264 19H91q-13 0-18.5 3T67 35q0 14 18 16zm426 0q19-10 40.5-15.5T604 31q47 0 86 21l6-1q18-2 18-16 0-10-5.5-13T690 19H517q-13 0-18.5 3T493 35q0 14 18 16zm425 0q20-10 41.5-15.5T1029 31q47 0 86 21l7-1q7-1 12.5-4.5T1140 35q0-10-6-13t-19-3H943q-13 0-18.5 3T919 35q0 14 18 16zM178 388q47 0 85.5-22.5t61-60.5q22.5-38 22.5-85t-22.5-85.5q-22.5-38.5-61-61T178 51q-47 0-85.5 22.5t-61 61Q9 173 9 220t22.5 85q22.5 38 61 60.5T178 388zm426 0q47 0 85-22.5t61-60.5q23-38 23-85t-23-85.5q-23-38.5-61-61T604 51q-47 0-85.5 22.5t-61 61Q435 173 435 220t22.5 85q22.5 38 61 60.5T604 388zm425 0q47 0 85.5-22.5t61-60.5q22.5-38 22.5-85t-22.5-85.5q-22.5-38.5-61-61T1029 51q-46 0-84.5 22.5t-61 61Q861 173 861 220t22.5 85q22.5 38 61 60.5T1029 388z" fill="currentColor"/></svg>