<svg xmlns="http://www.w3.org/2000/svg" viewBox="0 0 17.2 5.6"><path d="M4.4.9l.8.8c.2.4.4.9.4 1.3 0 .5-.2 1.1-.7 1.6-.5.6-1.2.9-2.1.9-1 0-1.7-.3-2.1-.9S0 3.6 0 3c0-.5.1-.9.4-1.3.2-.4.5-.7.8-.8V0h3.2v.9zM3.8.8V.4h-2v.4h2zm-1 .4c-1 0-1.6.2-1.9.7-.3.4-.4.8-.4 1.1 0 .5.2 1 .7 1.4.4.4 1 .6 1.6.6s1.2-.2 1.6-.6c.4-.4.7-.8.7-1.4a2 2 0 0 0-.5-1.2c-.4-.4-1-.6-1.8-.6zm7.4-.3l.8.8c.2.4.4.8.4 1.3s-.2 1.1-.7 1.6-1.1.9-2.1.9-1.7-.3-2.1-.9-.7-1.1-.7-1.6.1-.9.4-1.3L7 .9V0h3.2v.9zM9.6.8V.4h-2v.4h2zm-1 .4c-1 0-1.6.2-1.9.7-.2.4-.4.8-.4 1.1 0 .5.2 1 .7 1.4a2.5 2.5 0 0 0 3.2 0c.4-.4.7-.9.7-1.4 0-.3-.2-.7-.5-1.2-.3-.4-.9-.6-1.8-.6zM16 .9l.8.8c.2.4.4.8.4 1.3s-.2 1.1-.7 1.6c-.4.6-1.1.8-2.1.9-1 0-1.7-.3-2.1-.9s-.7-1.1-.7-1.6.1-.9.4-1.3c.2-.4.5-.7.8-.8V0H16v.9zm-.6-.1V.4h-2v.4h2zm-1 .4c-1 0-1.6.2-1.9.7a2 2 0 0 0-.4 1.2c0 .5.2 1 .7 1.4.4.4 1 .6 1.6.6a3 3 0 0 0 1.6-.7c.5-.4.7-.9.7-1.4a2 2 0 0 0-.5-1.2c-.3-.4-.9-.6-1.8-.6z"/></svg>