<svg xmlns="http://www.w3.org/2000/svg" viewBox="0 0 364.9 598.6"><path d="M189.9 0v40.6c-14.3 2.9-26.3 10.3-34.9 19.9-11.5 12.9-17.6 29.7-17.5 46.1.1 30.3 15.1 59.6 34.6 74.3-9.6 88.7-20.5 177.2-34.7 265.2-4.7 28.1-9.7 56.4-17.3 83.8-1.8 5.8-3.6 12-7.6 16.6-6.3 6.5-14.7 10.8-22.7 14.8-16.9 7.8-35.1 12.5-53.5 15.4-7.2.9-14.3 0-21.3-1.7-3.9-.7-8.5-1.8-12.1.4-3.8 2.8-3.6 8.8-.6 12.2 4 5.2 11.1 6.1 17.2 6.6 17.2 1.5 34.3-2.6 51.4-1.1 17.7.8 35.4 1.4 53 2.5 7.7.8 16.2 2.8 23.5-.8 4.5-2.8 4.8-8.7 5.8-13.4 2.9-15.7 3-32.1 8.8-47.1 12.1-40.2 20.6-81.3 29.4-122.3 12.3-59.6 22.9-119.7 29.6-180.2 1.1-11.5 2.1-22.9 2.4-34.4 6.9.6 13.6.8 19.6.8 4.1 0 8.4-.2 12.7-.7 20.3 97.4 41.3 194.8 54.5 293.4 2.4 20.2 4.8 40.7 3.7 61.1-20.5 11.9-42.4 21.6-65.4 27.4-8.4 1.1-16.7-2-25.1-.9-5.8 1.7-9.5 9.3-5.8 14.4 3.6 5 10.5 5.3 16.1 5.3 12.5-.2 25-1.7 37.6-1.4 19.9-.4 39.9-1.8 59.8 0 8.9 1.2 18.7 2.8 27.2-1.2 5.4-3.3 6.7-10.3 6.4-16.2-.2-13-5.1-25.6-4.8-38.7-3.5-68.3-13.1-136.1-23.8-203.6-8.4-52.9-18.1-105.6-29.2-158l3-2.4c17.5-14.6 30.5-38.4 30.3-67.8-.1-15.7-6.4-32.1-15.9-45.5-8.1-11.4-19-21.1-32.1-23.8V0H189.9zm19.9 19.8h62.7v21.7h-62.7V19.8zm-19.9 41.1v.4H292.2V61c5.3 2.5 11.1 7.4 16 14.3 7.3 10.2 12.2 24 12.2 34.1.2 23.4-10.1 41.4-23.2 52.4-12.5 10.5-35.9 16.8-54.3 16.8-18.9 0-45.4-3.8-58.2-12.9-12.7-9.1-27.5-35.5-27.6-59.2 0-11.4 4.4-23.8 12.5-32.8 5.5-5.8 12.1-10.4 20.3-12.8z"/></svg>