<svg xmlns="http://www.w3.org/2000/svg" viewBox="-10 0 561 1004"><path d="M64 1004q-19 0-37-1.5T0 1000l-10-38q1 0 16.5-4.5t39-12q23.5-7.5 48-17t43-18.5q18.5-9 23.5-17 9-14 13.5-45t6-65.5Q181 748 181 724q0-23 4-45.5t8-40.5q2-11 4-20.5t2-14.5q0-12-3-23-1-6-1.5-13.5T194 549q0-8 4.5-22t10.5-27q6-13 8-19 4-10 12-37t15-59q7-32 8-58-26-22-41.5-54T195 203q0-44 20-79.5T269 66q-8-2-14-9.5T249 35q0-23 14-29t29-6h155q15 0 29 6t14 29q0 14-6 21.5T470 66q34 22 54.5 57.5T545 203q0 44-20 79t-53 57l2 29q1 15 3.5 26t2.5 43q0 10-.5 21t-.5 24q0 28 3 43 13 46 22 89.5t15 77q6 33.5 6 49.5l7 148q1 17 10 36 3 10 6 19.5t3 19.5q0 24-17 31.5t-30 7.5q-8 0-15.5-3t-13.5-7q-7-4-13-7t-13-3q-6 0-17 3t-23 6q-18 5-37.5 8.5T338 1004q-19 0-37-1.5t-27-2.5l-1-10q-10 7-22.5 10t-20.5 3q-9 0-16-3t-14-7q-6-4-12-7t-13-3q-7 0-17.5 3t-23.5 6q-18 5-37 8.5t-33 3.5zM295 52q36-14 75-14 37 0 73 14l5-1q8-1 15.5-4.5T471 35q0-10-6-12.5T446 20H293q-13 0-18.5 2.5T269 35q0 14 18 16zm75 297q43 0 78-18.5t56-51q21-32.5 21-76.5 0-43-21-76t-56-51.5Q413 57 370 57t-78.5 18.5Q256 94 235 127t-21 76q0 44 21 76.5t56.5 51Q327 349 370 349zM60 986q14 0 33.5-4.5T129 973q15-4 26.5-6.5T175 964q8 0 18.5 4.5T210 976q11 7 21 7 8 0 22-3.5t14-15.5q0-7-3-15.5t-6-16.5q-4-11-7.5-24t-3.5-26q0-11 5-36.5t12-56.5q7-31 13.5-59t10.5-44q4-13 5-43.5t1-52.5q0-9 5.5-29t13.5-46q10-37 19.5-74t12.5-74q-20-3-39-9.5T271 341q-2 22-8.5 51.5t-14 56Q241 475 235 489q-6 16-14 32.5t-8 30.5q0 7 1 13t2 11q1 6 1.5 11.5t.5 15.5q0 16-6 39-3 18-7 40t-4 42q0 25-2 61.5t-7 69.5q-5 33-15 48-8 12-33.5 24.5t-55.5 23Q58 961 36 968t-23 7v9q7 1 18.5 1.5t28.5.5zm275 0q14 0 33-4.5t36-8.5q14-4 26-6.5t19-2.5q8 0 19 4.5t16 7.5q11 7 21 7 8 0 17-3.5t9-15.5q0-7-2.5-15.5T523 932q-4-11-7.5-24t-3.5-26l-6-140q-1-17-6.5-51t-15-76q-9.5-42-21.5-85-2-10-3-22.5t-1-25.5q0-11 .5-21.5t.5-23.5q0-30-2.5-40t-2.5-25l-1-23q-38 19-81 19 2 7 4 15t2 16v32q0 10 1 31t1.5 43q.5 22 1.5 38 1 15 8.5 36.5T404 626q12 46 18.5 77.5T431 742q1 3 5 18t9 35q5 20 9 38.5t4 29.5q0 25-6 34.5T442 911q-14 14-39.5 25.5T350 956q-27 8-45.5 12t-19.5 4v1l2 10q6 1 19 2t29 1zm-50-32q17-3 42.5-10t50.5-17q25-10 42-21 9-6 14-15.5t5-27.5q0-14-6.5-40t-13-48q-6.5-22-7.5-26-2-10-8-38.5T387 636q-7-28-15.5-53.5T363 543v-32.5l-1-42.5q-1-42.5-1.5-33t-.5-4q-1-8-1-15.5V402q-5 32-12.5 60.5T331 521q-7 24-12 43t-5 26q0 22-1.5 53.5T307 691q-4 15-10.5 42.5t-13.5 58q-7 30.5-11.5 55T267 882q0 11 3 22t7 21q2 8 4.5 15t3.5 14z" fill="currentColor"/></svg>