<svg xmlns="http://www.w3.org/2000/svg" viewBox="-10 0 1082 350"><path d="M531 350q-109 0-191.5-23.5t-142.5-61q-60-37.5-100-80T33.5 103Q10 63 0 35T-10 0h1082q0 7-11 35t-35 68q-24 40-65 82.5t-100.5 80Q801 303 719 326.5T531 350zm-11-19L390 176 521 20H15q2 5 12.5 29.5t33.5 59Q84 143 121.5 181t93 71.5q55.5 33.5 131 55T520 331zm22 0q99-2 174.5-23.5t131-55Q903 219 941 181t60.5-72.5q22.5-34.5 33.5-59t12-29.5H541l131 156zm-11-17q10-11 30-34.5t43-52q23-28.5 43-51.5L531 37 415 176q19 23 42 51.5t43.5 52Q521 303 531 314z" fill="currentColor"/></svg>