<svg xmlns="http://www.w3.org/2000/svg" viewBox="-10 0 954 310"><path d="M467 310q-93 0-164.5-20.5t-124-53.5q-52.5-33-89-71T31 92Q9 57-.5 32T-10 0h954q0 7-10 32t-32 60q-22 35-58 73t-88.5 71q-52.5 33-124 53.5T467 310zm-15-19L342 156 453 19H15q2 6 16.5 34.5t45 67.5q30.5 39 80.5 77t123 64.5Q353 289 452 291zm31 0q99-2 172-28.5T778 198q50-38 80.5-77t45-67.5Q918 25 920 19H481l111 137zm-16-12l99-123-99-123q-17 20-37 45t-37.5 47Q375 147 368 157q7 10 24.5 31t37.5 46q20 25 37 45z" fill="currentColor"/></svg>