<svg xmlns="http://www.w3.org/2000/svg" viewBox="-10 0 971 1015"><path d="M475 1015q-126 0-216-23t-147.5-56q-57.5-33-87-65.5T-10 819V179q0-2 28-20.5T95 114q49-26 111.5-52.5t131.5-44Q407 0 475 0q63 0 130.5 17t133 44Q804 88 861 119t100 60v640h-1q-5 19-34.5 51.5t-87 65.5Q781 969 691 992t-216 23zM9 816h30V208q0-1 23.5-17t64.5-39q41-23 96.5-45.5t119.5-38Q407 53 475 53q64 0 127.5 15T724 106.5Q782 130 830 157t82 51v608h29V188q-2-1-31-18t-77-42q-48-25-108-49.5T600.5 37Q536 20 475 20T349.5 36.5Q285 53 224 77t-109.5 49q-48.5 25-77 42.5T9 188zm473 0q7-6 18.5-23.5t20-58.5q8.5-41 8.5-117 0-100-16-196t-24-187q26-5 41.5-20t15.5-43q0-36 21-54t42-26q-32-8-66-13.5T475 72q-33 0-66.5 4.5T343 89q22 8 44 26.5t22 55.5q0 28 16 43t41 20q-7 91-23.5 187T426 617q0 76 8.5 117t20 58.5Q466 810 474 816zm-424 0h389q-14-17-27.5-61.5T406 617q0-98 15.5-192T446 246q-24-5-40-26t-16-49q0-25-14-39.5T343 110q-19-7-34-11-52 15-97.5 34.5t-80 38q-34.5 18.5-54 31T58 217zm450 0h384V217q-1 0-21-12.5t-54-31q-34-18.5-78.5-38T643 100q-16 3-33.5 11T579 133q-13 14-13 38 0 28-16 49t-41 26q9 85 24.5 179T549 617q0 93-13.5 137.5T508 816zm-52 180l-78-81 77-79H20q6 9 32.5 33.5t78 53Q182 951 262 972.5T456 996zm38 0q114-2 194-23.5t131.5-50q51.5-28.5 78-53T931 836H495l77 79zm-19-8l70-73-70-73-70 73z" fill="currentColor"/></svg>