<svg xmlns="http://www.w3.org/2000/svg" viewBox="0 0 579.7 636.1"><path d="M290.5 146.5c-8.3 48-13.8 82.6-16.3 103.9-1.3 14.2-1.9 38.2-1.9 72 0 22.5.8 43 2.5 61.4 2.9 18.8 8.1 37.1 15.7 55.1v.6c7.5-17.9 12.7-36.3 15.7-55.1 1.7-18.8 2.5-39.4 2.5-62 0-33.8-.8-57.8-2.5-72-2.1-20.9-7.3-55.3-15.7-103.3v-.6zm-.6-128.3c-33-1.7-75.8 3.7-128.3 16S66.4 60.8 33.8 77v390h24.4V90.2c42.2-20 83-34.4 122.4-43.2 39.4-8.8 75.9-12.9 109.3-12.5l.6.6c33.8-.4 70.4 3.7 109.9 12.2 39.4 8.6 80.2 23.1 122.4 43.5v376.3h23.8V77C514.4 60.8 472 46.5 419.2 34.1c-52.8-12.3-95.7-17.6-128.7-16h-.6zm.6 32.5c-24.2 0-43.8 2.3-58.9 6.9 15.4 27.1 35.1 47.6 58.9 61.4 23.4-13.8 43-34.2 58.9-61.4-15-4.2-34.6-6.3-58.9-6.3v-.6zM16.9 467.1V60.8c59.7-23.4 112-39.4 156.8-48.2C218.6 3.8 257.5-.4 290.5 0v.6c33-.8 71.9 3.2 116.8 12.2 44.9 9 96.9 24.9 156.2 47.9V467h16.3v25H0v-25h16.9zm489.6 0V105.2C493.1 91 448.9 75.8 373.8 59.5l-16.9 11.3c-12.9 23.8-29.6 43.4-50.1 58.9 14.6 79.3 21.1 143.6 19.4 192.8-.4 59.7-8.1 106-23.2 139-3.3 3.8-7.5 5.6-12.5 5.6v-.6c-5 0-9.2-1.7-12.5-5-15.4-33-23.2-79.3-23.2-139-1.7-49.3 4.6-113.5 18.8-192.8-20.5-15.4-37.1-35.3-50.1-59.5l-16.9-11.3C131.5 75.6 87.4 90.8 74.5 104.6v362.5h432z"/><path d="M287.6 608.3c102.8-2 181.6-40.1 236.4-114.3H53.1c54.8 74.2 133.2 112.2 235.2 114.3h-.7zm.6 27.8c-134.6-.4-229.9-56.6-285.9-168.7h572.5c-56 112.1-151.6 168.3-286.6 168.7zm0-140.9l61.7 52.6-61.7 58-61.1-58 61.1-52.6zm0 14.5l-46.5 38.1 46.5 43.5 46.5-43.5-46.5-38.1z"/></svg>