<svg xmlns="http://www.w3.org/2000/svg" viewBox="-10 0 1082 851"><path d="M531 851q-109 0-191.5-23.5t-142.5-61q-60-37.5-100-80T33.5 604Q10 564 0 536t-10-35h224L362 0h338l149 501h223q0 7-11 35t-35 68q-24 40-65 82.5t-100.5 80Q801 804 719 827.5T531 851zm0-651L684 20H379zM234 501h196l87-287L371 40q-6 19-16.5 55.5T330 179q-14 47-28.5 97T273 371.5q-14 45.5-24 80T234 501zm398 0h196q-5-15-15-49.5t-23.5-80Q776 326 761 276t-29-97q-14-47-24.5-83.5T691 40L546 214zm-182 0h162l-81-268zm70 331L390 677l131-156H15q2 5 12.5 29.5t33.5 59Q84 644 121.5 682t93 71.5q55.5 33.5 131 55T520 832zm22 0q99-2 174.5-23.5t131-55Q903 720 941 682t60.5-72.5q22.5-34.5 33.5-59t12-29.5H541l131 156zm-11-17q10-11 30-34.5t43-52q23-28.5 43-51.5L531 538 415 677q19 23 42 51.5t43.5 52Q521 804 531 815z" fill="currentColor"/></svg>