<svg xmlns="http://www.w3.org/2000/svg" viewBox="0 0 572.5 409"><path d="M137.1 261.9L208.6 0h153.9l80.8 261.9H137.1zm35.5-24h45.3l36-142.4-29.5-48-51.8 190.4zm188.3 0h45.3L347.8 47.5l-27.8 48 40.9 142.4zm-124.5 0h105.9L300.8 95.5 341.2 24H230.4L273 95.5l-36.6 142.4z"/><path d="M285.3 381.2c102.8-2 181.6-40.1 236.4-114.3H50.8C105.6 341.1 184 379.1 286 381.2h-.7zm.6 27.8C151.3 408.6 56 352.4 0 240.3h572.5C516.5 352.4 421 408.6 285.9 409zm0-140.9l61.7 52.6-61.7 58-61.1-58 61.1-52.6zm0 14.5l-46.5 38.1 46.5 43.5 46.5-43.5-46.5-38.1z"/></svg>