<svg xmlns="http://www.w3.org/2000/svg" viewBox="0 0 513.6 594.6"><path d="M402.2 0c-28.4 0-55.7.9-77 11.1-9.7 4.7-17.9 11.6-24 20.8V27c0-6.9-20.6-6.9-20.6 0v29c-.7-.6-1.4-1.1-2-2.3-3.8-7.6-9.8-12.2-14.2-14.2-4.4-2-8-2.5-9.1-3-4.9-2.4-11-3.1-16.2-2-5.2 1.1-8.5 3.8-11.1 6-5.4 4.5-9.3 9.3-7.1 7.1-4.8 4.8-5.5 9.5-6 13.2-.5 3.7-.2 7.3 0 10.1.5 5.8 1.4 10.6 2 13.2-.1.1.1.9 0 1h-1c-3.3-.4-7.3-1.8-8.1-2-7.4-1.9-15.3-4.6-22.3-8.1-5.5-2.7-11.8-5.3-20.3-4.1-4.2.6-9 2.6-13.2 7.1-4.1 4.5-6.1 11-6.1 16.2 0 12.4 3.4 21 6.1 26.3 2.4 4.9 4.2 8.4 6.1 12.1-3.4-.2-7.5-.9-8.1-1-6.9-1.7-18.2-5.3-25.3-7.1-6.7-1.7-17.4 2.9-21.3 8.1-3.8 5.2-4.7 9.6-5 13.2-.7 7.1-.2 11.4 1 16.2 2.3 9.3 6.2 15.8 8.1 19.2-4.7 0-10-1-13.2-1-8.2 0-15.7 2.3-21.3 6-5.5 3.7-7.6 6.6-9.1 8.1-6 6-6.5 15.5-5.1 20.3 1.4 4.7 3.3 7.6 5.1 10.1 3.6 5 8.7 9.7 8.1 9.1 2.2 2.2 3.1 3.4 5 5.1-4.4 1.3-9.4 2-11.1 3-2.7 1.6-2 1-2 1-16.6 0-25.2 14.1-25.3 14.2-3.8 3.8-7 9.8-7.1 16.2-.1 6.3 2.5 11.1 5 14.2 5 6.3 9.4 8.7 12.1 10.1 1.5.8 3.6 3.4 5.1 5.1-4.2 1.1-7.4 1.4-12.1 3-4.8 1.6-10 4.9-14.2 9.1-1.5 1.5-.6-.7-7.1 5-3.2 2.9-6.3 8.4-7.1 12.2-.8 3.8-1 6.1-1 10.1 0 11.9 6.7 16.1 10.1 19.2 3.5 3.2 6.8 5.8 6 5 3.9 3.9 6.1 7.1 9.1 10.1-11.1 2.8-18.1 9-23.3 14.2-2.8 2.8-6 4.9-9.1 11.1-3.1 6.2-3.5 14.4-2 20.3 2.1 8.3 5.9 9.3 8.1 11.1 2.2 1.9 4.2 2.8 6.1 4.1 1.9 1.3 3.9 2.2 5.1 3 6.1 6.1 7.9 6.3 10.1 7.1-2.3.8-5 2-9.1 4-4.8 2.4-9.9 4.3-14.2 10.1-4.3 5.8-4.9 10.6-6 15.2-1.4 5.4-2.2 9.8-1 16.2 1.1 6.3 5.4 12.5 9.1 16.2 4.4 4.4 8.5 6.6 11.2 8.1 2.3 1.3 3.3 2.4 4 3-5.5 2.6-11.7 5.4-13.2 6.1C4.9 530.9-.7 543.4.1 551c.7 7.6 3.9 11.9 5.1 14.2 3.3 6.6 8 9.9 11.1 12.1 3.2 2.2 4.7 3.6 4 3 3.4 3.4 4.2 4.3 7.1 8.1 5.6 7 15.8 8.1 22.8 2.5s8.1-15.8 2.5-22.8c-2.3-3.1-4.3-6.4-9.1-11.1-3.3-3.3-5.3-5-7.1-6.1 1-.6 3.4-1.9 4.1-2 2.4-.6 7.3-1.6 13.2-5 2.9-1.7 7.1-4 10.1-9.1s2.9-14.4 0-20.3c-2.2-4.4-4.5-7.6-7.1-10.2-2.6-2.6-5-3.9-7.1-6-4.4-4.4-8.5-7.7-11.1-9.1-2-1.1-3.2-1.3-4-2 0-.1-.6-.5 0-3.1.4-1.6.7-2 1-2.7.5-.4.7-.6 2-1.3.9-.5 4.6-1.2 9.1-3s11.9-4.6 16.2-13.2c1.6-3.1 3.3-7.6 4-14.2.7-6.6-.9-16.2-7.1-22.3-8.6-8.6-14.8-10.7-14.2-10.1-3.5-3.5-4.6-3.1-6.1-4-.4-.3-.6-.7-1-1 2.1-1.7 5.7-3.7 7.1-4.1 5.8-1.4 18.9-3.2 26.3-18.2 1.2-2.4 2.1-4.5 3-8.1.9-3.6 1.2-9.9-1-14.2-4.4-8.7-7.4-8.4-10.1-11.1l-12.1-12.1c-2.5-2.5-3.7-3-5.1-4.1 1.7-1.3 1 0 3-2 1.8-1.8 1.2-1.7 2.1-2s4.6-.6 10.1-2c-2.4.6 3.4.1 9.1-1 2.9-.5 5.9-1.5 10.1-4.1 4.3-2.6 10.1-9.7 10.1-17.2 0-10.4-4.2-21.3-11.1-28.3-1.6-1.6-7.2-5.7-11.2-9.1 5.3-1.2 11.1-2.9 13.2-4.1 1.4-.8 1.6-1 1.6-1.1 4.1-.1 8.4-1 13.6-2 2.7-.5 4.9-.8 8.1-2 1.6-.6 3.9-1.5 6.1-3.1 2.2-1.6 5.6-4 7.1-10.1.3-1.4.6-2.6 1-5s.3-7.3-1-11.1c-2.7-7.6-5.7-8.8-9.1-12.2-4.9-4.9-9-8.2-12.2-11.1 2.5.1 6.8 1.1 12.2 1 3.4 0 6.7-.6 10.1-1 1.7-.2 3.7-.2 6-1 2.4-.8 7.2-1.1 11.2-9.1 3.3-6.6 8.2-19 1-33.4-1.6-3.1-2.8-5.4-4.1-8.1 2.8.7 5.9 1.5 8.1 2 3.7.9 8.3 1.6 14.2 2 3 .2 6.6.4 10.1 0 3.6-.4 7.5-.4 13.2-6-.3.3 5.3-4.1 9.1-10.1 3.8-6.1 5.7-17 1-26.3l-7.1-14.2c5.6 2.3 11.3 4.6 17.2 6.1 3.3.8 9 2.5 15.2 3 3.1.2 6.2-.4 10.1-1 4-.6 10.5-.7 15.2-10.1.3-.6 2.4-2.9 5.1-8.1 2.7-5.2 5.1-14.1 3-22.3-.4-1.7-.8-5.5-1-8.1 1.2.5 3.4 1.7 4 2 .4.2.2 0 .2 0 4.8 8.6 12.5 16.3 23.1 19.2 2 .6 4.1.7 6 .5V124c0 6.9 20.6 6.9 20.6 0v-5.6c6.1 9.6 14.2 16.9 24 21.7 21.2 10.3 48.5 11.1 77 11.1s54.8-1.6 76-12.1 35.5-32.1 35.5-63.8c0-32.3-14.3-53.5-35.5-63.8C457 .8 430.7 0 402.2 0zm0 19.2c27.8 0 51.2 1.5 66.9 9.1s25.3 19.2 25.3 46.6c0 26.7-9.6 38.8-25.3 46.6-15.7 7.8-39.2 10.1-66.9 10.1-27.8 0-52.2-2.5-67.9-10.1-15.6-7.6-24.3-19.1-24.3-46.5 0-28.1 8.7-39.1 24.3-46.6 15.6-7.5 40.1-9.2 67.9-9.2z"/></svg>