<svg xmlns="http://www.w3.org/2000/svg" viewBox="0 0 293.6 389.6"><path d="M181 389.6h-67.8c-16.9 0-29.9-9.2-39.1-27.6-7.4-21.2-14.9-76.7-22.3-114.9l-49.1-.2c-2.7-5.8-4.6-18.8.7-30.4L46 216l-5.1-34.6-37.6.3c-3.8-8.9-4-18.6-.5-31.1l38.7 1.5c.7 0 18.6-18.4 28.2-28.4 19.2-19.9 28.4-71.9 27.6-97.2-3.8-4.6-14.2-1.3-31-1.3C54.6 16.9 54.6 8.4 66.1 0h158.6c11.5 8.4 11.5 16.9 0 25.3-17.6 0-28.4-3.4-32.2.5-3.1 26.1 4.3 74.3 26.9 97.3 11.8 12 26.7 28.4 27.6 28.4l41.8-.3c7.3 10.4 5.3 22.9.3 31.2l-36-.4-3.7 33.8 39.2-1c6.7 11 5.4 24.2.5 33l-45.3.9c-9.7 27.4-17.4 87.2-27.2 114.6-9.1 17.5-21 26.3-35.6 26.3zm40.3-239.2C187.6 132 170 81.6 168.4 40.2l1.2-14.9h-48.3v14.9c-3.1 41.4-18.8 94.3-47.1 111.2l147.1-1zm-46 211.6c21.6 0 31.8-81.2 49.4-180h-154l5.5 32.6 165.5.7-2.5 32.5H81.3c9.7 37 9.6 76.6 26.5 110.9 2.1 1.1 6.8 2.3 8.8 3.4h58.7z"/></svg>