<svg xmlns="http://www.w3.org/2000/svg" viewBox="0 0 388.4 254"><path d="M52.4 94.1c0-11.8-6.4-17.7-19.1-17.7-12.3 0-18.4 6.1-18.4 18.4 0 12.3 6.1 18.4 18.4 18.4 12.7 0 19.1-6.4 19.1-19.1zm283.7 0c0 12.7 6.1 19.1 18.4 19.1 12.3 0 18.4-6.1 18.4-18.4 0-12.3-6.1-18.4-18.4-18.4-12.3 0-18.4 5.9-18.4 17.7zm-78.6 135.1c15.1-15.1 29.6-41.4 43.5-78.9 13.9-37.5 16.9-63.1 8.8-76.8-6.6-13.2-13.2-19.8-19.8-19.8H98.3c-6.6 0-13.4 6.6-20.5 19.8-7.5 13.7-4.4 39.3 9.6 76.8 13.9 37.5 28.2 63.8 42.8 78.9h127.3zm32.6-192.4V17H98.3v19.8h191.8zM307.8 0c2.8 3.3 6.1 14.4 9.9 33.3 3.8 13.2 10.6 21.7 20.5 25.5 33.5 0 50.2 11.3 50.2 34 0 25-16.7 37.5-50.2 37.5-3.8 10.4-10.6 27.4-20.5 50.9-9 25.9-23.1 50.2-42.4 72.9h-162c-19.3-22.6-33.5-46.9-42.4-72.9-9.9-23.6-17-40.6-21.2-50.9-33 0-49.5-12.5-49.5-37.5 0-22.6 16.5-34 49.5-34 10.2-3.9 17-12.3 20.3-25.5 4.2-18.9 7.8-30 10.6-33.3h227.2z"/></svg>