<svg xmlns="http://www.w3.org/2000/svg" viewBox="-10 0 1074 716"><path d="M253 716q-17-34-40.5-84t-48-106.5Q140 469 121 418q-10-5-31.5-17T45 369q-23-20-39-48t-16-63q0-47 17-69.5T46.5 159q22.5-7 39.5-7h15v1q16-23 36-34t38-14q18-3 27-3h33V66q0-31 15.5-48.5T305 0h444q39 0 54.5 17.5T819 66v36h33q9 0 26.5 3t38 13.5Q937 129 952 152h16q17 0 39.5 7t39.5 29.5q17 22.5 17 69.5 0 35-16 63t-39 48q-23 20-44.5 32T933 418q-19 51-43.5 107.5t-48 106.5Q818 682 801 716zm1-614h545V66q0-22-11-34.5T749 19H305q-28 0-39.5 12.5T254 66zm11 594h524q27-54 56.5-119.5t55-130Q926 382 942 329t16-84q0-32-10.5-60t-34-45.5Q890 122 852 122H202q-38 0-61.5 17.5t-34 45.5Q96 213 96 245q0 31 16 84t41.5 117.5q25.5 64.5 55 130T265 696zM111 392q-15-43-24.5-82T77 245q0-23 3.5-41t9.5-32H77q-9 0-25.5 6T22 202Q9 220 9 257q0 36 19 63t43 45q24 18 40 27zm831 0q17-9 41-27t43-45q19-27 19-63 0-37-13-55t-29.5-24q-16.5-6-25.5-6h-14q7 14 10.5 32t3.5 41q0 26-10 65t-25 82z" fill="currentColor"/></svg>