<svg xmlns="http://www.w3.org/2000/svg" viewBox="0 0 426.8 341.3"><path d="M248.7 306c36.6-29.3 68.3-75.3 94.9-138.1 4.7-7.3 7.1-16.2 7.1-26.7s-2.4-18.8-7.1-25.1c-12.6-20.4-25.4-44.5-38.4-72.2H121.6c-13.1 27.7-25.9 51.8-38.4 72.2-5.2 6.3-7.8 14.6-7.8 25.1 0 11 2.6 20.1 7.8 27.5 26.7 62.2 58.3 108 94.9 137.3h70.6zm91-306c5.8 3.7 8.6 11 8.6 22 0 10.5-3.1 17.8-9.4 22 2.1 16.2 9.9 34.5 23.5 54.9 11 13.1 29.8 22 56.5 26.7 5.2 4.7 7.8 9.9 7.8 15.7 0 5.8-2.6 11.2-7.8 16.5-26.7 1.6-45.2 9.2-55.7 22.8-19.9 51.8-40.8 88.1-62.8 109.1-5.2 11-3.9 19.4 3.9 25.1 5.2 2.1 7.8 7.1 7.8 14.9s-5 11.8-14.9 11.8H129.5c-10.5.5-15.7-3.1-15.7-11 0-7.8 2.6-12.8 7.8-14.9 8.4-6.3 9.9-14.9 4.7-25.9-22-20.9-42.9-57-62.8-108.3-10.5-14.1-29-22-55.7-23.5C2.6 153 0 147.8 0 142c0-6.3 2.6-11.8 7.8-16.5 26.7-4.7 45.5-13.3 56.5-25.9 13.1-20.9 20.9-39.5 23.5-55.7-6.8-3.7-10.2-11-10.2-22S80.7 3.6 87-.1h252.7z"/></svg>