<svg xmlns="http://www.w3.org/2000/svg" viewBox="-10 0 881 711"><path d="M242 711q-11-2-21.5-13T210 666q0-22 13.5-32.5T254 623q-9-13-27.5-40T185 522q-23-34-45.5-70T100 384H68q-13 0-31-8.5T4.5 347Q-10 327-10 293q0-33 14.5-50.5T37 219q18-6 31-6h38q23-40 50-78.5T196 77q-9-4-14.5-12T176 42q0-29 20.5-35.5T236 0h388q13 0 27 2.5t24 11Q685 22 685 42q0 14-6 22.5T664 77q13 18 40 56.5t50 79.5h38q13 0 31.5 6t33 23.5Q871 260 871 293q0 34-14.5 54t-33 28.5Q805 384 792 384h-32q-17 32-39.5 68T675 522q-23 34-41.5 61T606 623q17 1 30.5 11t13.5 32q0 21-10.5 32T619 711zm-6-647h388q17 0 29-3t12-19q0-16-12-19t-29-3H236q-17 0-29 3t-12 19q0 16 12 19t29 3zm42 558h305q30-42 63-90.5t61.5-94.5q28.5-46 46.5-81t18-50q0-15-11-39.5T733.5 214q-16.5-28-35-55t-33-47.5Q651 91 644 83q-5 1-10 1H226l-10-1q-7 9-21.5 29.5t-32.5 47Q144 186 127.5 214T100 266.5Q89 291 89 306t18 50q18 35 46.5 81t61.5 94.5q33 48.5 63 90.5zM69 364h21q-10-19-15.5-34T69 306q0-14 7.5-33T95 232H69q-23 0-41.5 15.5T9 293q0 30 18.5 50.5T69 364zm702 0h20q23 0 41.5-20.5T851 293q0-30-18.5-45.5T791 232h-26q11 22 18.5 41t7.5 33q0 9-5.5 24T771 364zM246 691h368q5-2 11-8.5t6-16.5q0-17-12-20.5t-29-3.5H266q-13 0-24.5 3.5T230 666q0 10 5.5 16.5T246 691z" fill="currentColor"/></svg>