<svg xmlns="http://www.w3.org/2000/svg" viewBox="-10 0 1163 396"><path d="M571 396q-56 0-105.5-17.5T377 337q-39-24-64-45t-32-28l-291 33V99l291 33q7-7 32-28t64-45q39-24 88.5-41.5T571 0q56 0 105.5 17.5T765 59q39 24 64.5 45t32.5 28l291-33v198l-291-33q-7 7-32.5 28T765 337q-39 24-88.5 41.5T571 396zm0-20q58 0 112.5-21.5t100-52Q829 272 856 243l277 31V122l-277 31q-27-29-72.5-59.5t-100-52Q629 20 571 20q-57 0-112 21.5t-99.5 52Q315 124 287 153L9 122v152l278-31q28 29 72.5 59.5t99.5 52Q514 376 571 376z" fill="currentColor"/></svg>