<svg xmlns="http://www.w3.org/2000/svg" viewBox="0 0 251.3 373"><path d="M192.5 32.9c-15 19.1-23.6 44.1-25.9 74.9 3.7 17.3 12.1 33.1 25.2 47.6 3.7 4.2 12.5 7.5 26.2 9.8 13.8 2.3 22.7 7.2 26.9 14.7 4.2 7.5 6.3 16.6 6.3 27.3-.5 21.5-12.6 37.6-36.4 48.3-2.3 10.3-9.6 37.1-21.7 80.5-6.1 24.7-12.8 37.1-20.3 37.1H79.1c-7 0-13.8-12.4-20.3-37.1L25.2 212.8C8.4 182 0 147 0 107.8S11.2 32.7 33.6 0h159.6c13.1 0 19.6 5.4 19.6 16.1 0 11.2-6.8 16.8-20.3 16.8zm39.9 174.3c0-15.9-8.6-23.6-25.9-23.1 4.7 15.4 6.3 31 4.9 46.9 13 .4 20-7.5 21-23.8zM47.6 168.7c20.1-17.7 32.7-38 37.8-60.9-2.3-30.8-8.9-53.9-19.6-69.3-9.3-8.4-18-6.8-25.9 4.9-8.9 21.9-13.3 45.7-13.3 71.4 0 25.6 7 43.6 21 53.9zM154 32.9H98c-.9 10.3 2.1 26.4 9.1 48.3 3.3 17.7 4.4 36.2 3.5 55.3-1.4 5.6-5.1 11.3-11.2 17.1-6.1 5.8-14 15-23.8 27.6-6.5 11.7-9.8 25.7-9.8 42 0 10.7 6.1 46.4 18.2 107.1 2.3 13.1 5.8 19.6 10.5 19.6h63c5.1 0 8.6-6.8 10.5-20.3 12.1-60.2 18.2-95.9 18.2-107.1 0-15.9-3.3-29.6-9.8-41.3-9.8-12.6-17.7-21.8-23.8-27.6-6.1-5.8-9.8-11.8-11.2-17.8-.9-18.7.2-36.9 3.5-54.6 7-21.5 10-37.6 9.1-48.3z"/></svg>