<svg xmlns="http://www.w3.org/2000/svg" viewBox="-10 0 513 715"><path d="M138 715q-17-39-35-90t-30.5-99Q60 478 60 448q0-20 3.5-37t5.5-25q-9-6-28-26T6 301q-16-39-16-102 0-28 5-62t18.5-65.5Q27 40 51 20t62-20h361v58q-18 4-41.5 22T391 130q-18 32-18 76 0 35 14 61.5t30 49.5q6 11 12.5 20t11.5 20q8-5 22-5 17 0 28.5 12t11.5 28q0 14-13.5 28T455 453q-4 35-14.5 82.5t-23 95.5Q405 679 395 715zM74 367q2-6 6.5-14.5T88 339q-17-22-33.5-56T38 185q0-41 11.5-70T76 69.5Q91 53 101 51h337q8-5 16-8V20H114q-48 0-76.5 48T9 199q0 49 11 82.5t26 54Q61 356 74 367zm79 328h227q4-14 13.5-48.5T413 569q10-43 17.5-83.5T438 419q0-25-12-47.5T400 328q-17-25-31.5-54T354 206q0-47 17.5-81T411 70H125q11 19 26 56t15 83q0 35-9 57.5T135.5 306q-12.5 17-25 33.5T91 379q-4 11-8 30t-4 39q0 32 12 77t29 90.5q17 45.5 33 79.5zM99 322q4-6 16-21.5t22-39q10-23.5 10-52.5 0-39-16-76.5T102 73q-15 10-29.5 37.5T58 185q0 54 13.5 89T99 322zm359 103q13-11 19-18t6-15q0-8-5.5-14t-14.5-6q-5 0-8.5.5T449 374q4 10 6.5 21.5T458 419z" fill="currentColor"/></svg>