<svg xmlns="http://www.w3.org/2000/svg" viewBox="-10 0 513 715"><path d="M98 715q-11-36-23-84t-23-95.5Q41 488 37 453q-21-19-34-33t-13-28q0-16 11-28t28-12q14 0 22 5 6-11 12-20t13-20q16-23 29.5-49.5T119 206q0-44-17.5-76t-41-50Q37 62 19 58V0h360q38 0 62 20t37.5 51.5q13.5 31.5 19 65.5t5.5 62q0 63-16 102t-35.5 59Q432 380 423 386q3 8 6.5 25t3.5 37q0 30-12.5 78T390 625q-18 51-35 90zm320-348q13-11 28-31.5t26-54q11-33.5 11-82.5 0-83-28.5-131T378 20H38v23q5 1 9 3.5t8 4.5h337q11 2 25.5 18.5T443 115q11 29 11 70 0 64-16.5 98T404 339q4 5 8.5 13.5T418 367zM112 695h227q16-34 33-79.5t29-90.5q12-45 12-77 0-20-4-39t-8-30q-7-23-19.5-39.5t-25-33.5Q344 289 335 266.5t-9-57.5q0-46 15.5-83T367 70H82q22 21 39.5 55t17.5 81q0 39-15 68t-32 54q-13 21-25.5 43.5T54 419q0 26 7.5 66.5t18 83.5Q90 612 99 646.5t13 48.5zm281-373q14-13 28-48t14-89q0-47-15-74.5T390 73q-13 22-28.5 59.5T346 209q0 29 10 52.5t21.5 39Q389 316 393 322zM35 425v-6q0-24 9-45-6-2-15-2t-14.5 6Q9 384 9 392q0 11 26 33z" fill="currentColor"/></svg>