<svg xmlns="http://www.w3.org/2000/svg" viewBox="0 0 200.5 296.1"><path d="M101.3 0c25.5-.3 43.2 12.1 53.2 37.2 18.9 73.4 34.3 120.2 46 140.6v25.8c-11.7 30-23.7 52.3-35.9 66.9s-25.9 23.2-41.1 25.6H79.6c-15.5-2.8-29.4-11.4-41.6-25.8-12.2-14.5-24.9-36.7-38-66.7v-25.3c13.1-20.7 23.5-47.1 31.3-79.3C39 66.8 44.6 46.3 48.1 37.7 57.7 12.6 75.4 0 101.3 0zm65.1 177.8L135.9 51.2c-5.5-21.4-17.1-32-34.6-32-17.9 0-29.5 10.7-34.6 32L35.1 177.8h131.3zm0 25.8H35.1c6.9 31 23.8 55.3 50.6 72.9h32c26.3-17.6 42.5-41.9 48.7-72.9z"/></svg>