<svg xmlns="http://www.w3.org/2000/svg" viewBox="-10 0 483 789"><path d="M232 789q-11 0-38.5-2.5t-62-14Q97 761 64.5 736T11 666q-21-45-21-115 0-47 9-92.5T21 369q11-43 22-83.5T67 202q15-51 29.5-100T139 29q17-14 37.5-21.5T232 0q34 0 54.5 7.5T324 29q28 24 43 73t29 100q13 43 24 83.5t22 83.5q13 44 22 89.5t9 92.5q0 70-21 115t-53.5 70q-32.5 25-67 36.5t-61.5 14q-27 2.5-38 2.5zm0-22q10 0 35-2.5t56-12.5q31-10 60.5-33t48.5-63.5Q451 615 451 551q0-40-9-85t-21-89q-14-51-26.5-95.5T374 203q-7-30-17-63t-23-60q-13-27-31-39-15-10-30-14.5T232 22q-27 0-42 4.5T160 41q-17 12-30.5 39t-23 60Q97 173 89 203q-8 34-20.5 78.5T42 377q-12 44-21 89t-9 85q0 64 19.5 104.5t49 63.5q29.5 23 60.5 33t56 12.5q25 2.5 35 2.5z" fill="currentColor"/></svg>