<svg xmlns="http://www.w3.org/2000/svg" viewBox="0 0 202.2 270"><path d="M2.8 155.7c6.3-51 19.7-89.7 40.3-116.1S83.4 0 102.2 0c18.8 0 38.3 13.9 58.4 41.6 20.1 27.7 33.6 65.6 40.3 113.4 4.9 37.6-3.4 66.3-24.8 86.3-21.5 19.9-46.1 29.4-73.8 28.5-27.7 1.3-53.1-8.1-76.2-28.2s-30.9-48.7-23.3-85.9zm31.6-.6c-8.1 28.6-3.6 50.3 13.4 65.1 17 14.8 35.1 21.5 54.4 20.1 19.2 1.3 37.4-5.4 54.4-20.1 17-14.8 21.9-36.5 14.8-65.1-7.6-42.1-18.5-73.3-32.6-93.6C124.7 41.1 112.7 31 102.9 31 94.4 31 82.4 41.2 67 61.5 51.5 81.8 40.6 113 34.4 155.1z"/></svg>