<svg xmlns="http://www.w3.org/2000/svg" viewBox="0 0 595.3 166.3"><path d="M269.6 142.1c-20.1-39.1-20.1-78.4 0-118H118.9c-60.9 0-91.3 19.5-91.3 58.6 0 39.6 30.4 59.4 91.3 59.4h150.7zm27.6-102.5c-9.8 12.6-14.6 27.3-14.6 43.9 0 15.5 4.9 29.9 14.6 43.1 10.9-13.2 16.4-27.6 16.4-43.1 0-16.6-5.5-31.2-16.4-43.9zm179.2 102.5c60.9 0 91.3-19.8 91.3-59.4 0-39.1-30.4-58.6-91.3-58.6H325.6c19.5 39.6 19.5 79 0 118h150.8zm0-142.1c79.3.6 118.9 28.4 118.9 83.6s-39.6 82.7-118.9 82.7H118.9C39.6 166.3 0 138.7 0 83.6S39.6.6 118.9 0h357.5z"/></svg>