<svg xmlns="http://www.w3.org/2000/svg" viewBox="-10 0 1118 301"><path d="M120 301q-15 0-37-4.5T40 277q-21-15-35.5-45T-10 150q0-51 14.5-81.5t35.5-45Q61 9 83 4.5T120 0h858q15 0 37 4.5t43 19q21 14.5 35.5 45T1108 150q0 52-14.5 82t-35.5 45q-21 15-43 19.5t-37 4.5zm0-20h402L395 149 522 19H120q-13 0-31.5 4t-37 16.5Q33 52 21 78.5T9 150q0 45 12 71.5T51.5 261q18.5 13 37 16.5T120 281zm429 0l126-132L549 19 422 149q30 32 63 66.5t64 65.5zm27 0h402q13 0 31.5-3.5T1046 261q18-13 30-39.5t12-71.5q0-45-12-71.5t-30-39Q1028 27 1009.5 23T978 19H576l127 130z" fill="currentColor"/></svg>