<svg xmlns="http://www.w3.org/2000/svg" viewBox="-10 0 1108 403"><path d="M544 403q-68 0-144.5-2.5t-149-12Q178 379 119 357.5t-94-59Q-10 261-10 203t35-96q35-38 94-60t131.5-32Q323 5 399.5 2.5T544 0q68 0 144.5 2.5t149 12.5Q910 25 969 47t94 60q35 38 35 96t-35 95.5q-35 37.5-94 59t-131.5 31q-72.5 9.5-149 12T544 403zm0-312q43 0 74.5-11.5t52-27.5Q691 36 703 23q-40-2-81-3t-78-1q-37 0-77.5 1T384 23q13 13 33.5 29T469 79.5Q500 91 544 91zM359 379q12-14 34.5-34.5T453 308q37-16 91-16t90.5 16q36.5 16 59.5 36.5t35 34.5q68-4 133-14.5T976 332q-8-12-24-47t-16-82q0-48 16.5-83T977 73q-50-22-115-33T728 24q-12 14-34.5 34.5T634 95q-37 16-90 16t-90-16q-37-16-60-36.5T360 24q-69 5-134 16T111 73q5 8 15 26.5t18 45q8 26.5 8 58.5 0 47-16.5 82T111 332q50 22 114.5 32.5T359 379zM94 324q10-16 24-47.5t14-73.5q0-42-14-74T94 81q-39 20-62 50T9 203q0 42 23 72t62 49zm900 0q39-19 62-49t23-72q0-42-23-72t-62-50q-10 16-24 48t-14 74q0 42 14 73.5t24 47.5zm-450 60q37 0 78-.5t82-2.5q-13-14-33.5-30T619 323.5Q588 312 544 312t-75.5 11.5Q437 335 416.5 351T384 381q41 2 82 2.5t78 .5z" fill="currentColor"/></svg>