<svg xmlns="http://www.w3.org/2000/svg" viewBox="0 0 591.1 206.4"><path d="M374 25.9c-30.3 14.4-55.2 21.3-74.4 20.9-21.7.4-46.1-6.6-73.2-20.9 48.8-7 98-7 147.6 0zM62.7 103.4c0 16.8 4.1 35.7 12.3 56.6-15.2-5.7-28-13.3-38.4-22.8-10.5-9.4-15.7-20.7-15.7-33.8S26.1 79 36.6 69.6c10.5-9.4 23.3-17.4 38.4-24-8.2 20.9-12.3 40.2-12.3 57.8zm163.7 76.9c27.1-14.4 51.5-21.3 73.2-20.9 19.3 0 44.1 7 74.4 20.9-49.2 7-98.4 7-147.6 0zM415.8 29.6c24.6-.8 50.6 2.9 78.1 11.1 8.2 21.7 12.3 42.9 12.3 63.4 0 20.9-4.1 42-12.3 63.4-27.5 7.8-53.5 11.5-78.1 11.1v-.6c-41.8-27.5-80.6-41-116.3-40.6-37.3 0-78.7 13.5-124.2 40.6-24.6.4-50.6-3.5-78.1-11.7-8.2-21.3-12.3-42.2-12.3-62.7S89 61.8 97.2 40.1c27.9-7.8 53.9-11.5 78.1-11.1 45.5 27.1 86.9 40.4 124.2 40 35.7.8 74.5-12.3 116.3-39.4zm175.3 73.8c0-41-23.1-67-69.2-78.1-46.1-11.1-94.7-18.6-145.8-22.5s-103.3-3.7-156.8.4C165.8 7.3 115.8 14.5 69.5 25S0 61.4 0 102.8s23.2 67.6 69.5 78.4c46.3 10.9 96.3 18.2 149.8 22.1 53.5 3.9 105.8 4 156.8.3 51.1-3.7 99.6-11 145.8-21.8 46.1-10.8 69.2-37 69.2-78.4zm-62.1.6c0-17.6-4.1-36.9-12.3-57.8 15.2 6.6 28 14.6 38.4 24 10.5 9.4 15.7 20.7 15.7 33.8 0 13.5-5.2 24.9-15.7 34.1-10.5 9.2-23.3 16.9-38.4 23.1 8.2-20.9 12.3-39.9 12.3-57.2z"/></svg>