<svg xmlns="http://www.w3.org/2000/svg" viewBox="-10 0 1169 361"><path d="M279 361q-17 0-41-2.5T191.5 344Q169 332 154 304.5T139 227q0-34 8-58-53-14-92.5-42.5T-10 60L6 49q24 36 61 62.5t87 39.5q12-24 30-36-47-15-83-42T42 11L59 0q24 36 61.5 62.5T209 102q20-6 38.5-7t31.5-1h740q17 0 40.5 2.5t46.5 14q23 11.5 38 39t15 77.5q0 50-15 77.5t-37.5 39.5q-22.5 12-46.5 14.5t-41 2.5zm0-20h740q17 0 38-2t40-12q19-10 31-33.5t12-66.5q0-43-12.5-66.5T1096 127q-19-10-40-12t-37-2H279q-16 0-36.5 2t-40 12q-19.5 10-32 33.5T158 227q0 43 12.5 66.5T202 327q19 10 39.5 12t37.5 2z" fill="currentColor"/></svg>