<svg xmlns="http://www.w3.org/2000/svg" viewBox="0 0 482.8 182.6"><path d="M60 137.9L.4 64.3c-2.2-17.7 5.2-24 22.3-19l41.4 50.5c1.7-7.2 4.1-13.5 7.4-19L25.2 19.6C23.5 3 31.3-3 48.4 1.4l43.9 53.8c11.6-6.6 44.8-11.4 99.7-14.5s111.3-3 169.2 0 92.7 13 104.3 29.8c11.6 16.8 17.4 33.4 17.4 49.6 0 16.3-5.8 30.8-17.4 43.4-11.6 12.7-27 19-46.3 19H122c-32 .1-52.7-14.8-62-44.6zm397.9-18.2c0-33.1-30.5-51.4-91.4-55-61-3.6-119.4-3.7-175.4-.4-56 3.3-86.9 9.2-92.7 17.8-5.8 8.6-8.7 19.6-8.7 33.1s2.9 24.3 8.7 32.3c5.8 8 14.5 12 26.1 12h295.4c25.4-3.9 38-17.2 38-39.8z"/></svg>