<svg xmlns="http://www.w3.org/2000/svg" viewBox="-10 0 583 583"><path d="M281 583q-60 0-113-22.5T75 498q-40-40-62.5-93T-10 292q0-61 22.5-114T75 85q40-40 93-62.5T281 0q60 0 113 22.5T487.5 85q40.5 40 63 93T573 292q0 60-22.5 113t-63 93Q447 538 394 560.5T281 583zm-143-60l45-177h197l44 177q59-36 94-97t35-134q0-56-21-105.5t-58.5-87Q436 62 386.5 41T281 20q-56 0-105.5 21t-87 58.5Q51 137 30 186.5T9 292q0 73 35.5 134t93.5 97zm143 41q34 0 65.5-8.5T406 533l-41-167H198l-42 167q28 14 59.5 22.5T281 564z" fill="currentColor"/></svg>