<svg xmlns="http://www.w3.org/2000/svg" viewBox="0 0 470.9 594.6"><path d="M407.4 97.9h-33.8c3.3 16.9 9.1 25.1 17.6 24.6 8 .5 13.4-7.7 16.2-24.6zm-5.7 169.5c10.8-4.7 16.2-12.9 16.2-24.6-.9-9.4-6.3-14.3-16.2-14.8v39.4zM379.9 228c-45 15.9-82.6 58.6-112.6 128.1 15.9-16.9 32.7-32.6 50.3-47.1 17.6-14.5 38.3-26.5 62.3-35.9V228zM267.4 457.4c15-1.4 24.2-11.4 27.4-29.9 3.3-18.5 0-33.9-9.9-46.1h-35.2c-9.9 12.2-13.1 27.7-9.9 46.4s12.6 28.7 27.6 29.6zM149.9 573.5V311.8H21.8v261l128.1.7zm-33.1-206.2c5.6 7 8.4 15 8.4 23.9 0 12.7-5.2 23-15.5 31-7 5.6-15 8.4-23.9 8.4-14.1 0-24.9-4.7-32.4-14.1-5.2-7.5-7.7-15.7-7.7-24.6 0-13.1 4.9-23.7 14.8-31.7 7-6.1 15.5-9.1 25.3-9.1 12.7.1 23 5.5 31 16.2zm7.7 127.4c0 11.3-4 20.5-12 27.8-8 7.3-16.9 10.9-26.7 10.9-11.7 0-21.2-4-28.5-12-7.3-8-10.9-16.9-10.9-26.7 0-11.3 4-20.6 12-28.1s17.1-11.3 27.4-11.3c10.8 0 19.9 4 27.4 12 7.6 7.9 11.3 17.1 11.3 27.4zm-38.7-121c-12.2 0-18.3 6.1-18.3 18.3 0 12.2 6.1 18.3 18.3 18.3 12.7 0 19-6.1 19-18.3 0-12.2-6.3-18.3-19-18.3zm323-293.4l17.6-17.6c-7-7.5-5.4-16.4 4.9-26.7 10.8-10.3 21.6-10.6 32.4-.7 9.9 11.3 9.6 22-.7 32.4-10.3 10.3-19.2 12-26.7 4.9l-7.7 8.4c-3.3 30.5-11 49-23.2 55.6l-3.5 12.7v57c22 2.8 34.7 15.2 38 37.3 0 22-12.7 37.3-38 45.7v303.2h-21.8V294.2c-23.5 13.1-51.8 33.8-85.1 61.9h36.6v10.6c-9.9 3.8-17.8 8.7-23.9 14.8 9.4 8.9 14.3 23.7 14.8 44.3-8 36.1-26.3 53.9-54.9 53.5-29.1 0-47.6-17.6-55.6-52.8.9-21.1 5.6-36.1 14.1-45-5.6-6.1-13.4-11-23.2-14.8v-10.6h42.9v-254c-1.4-50.7-26.3-77.4-74.6-80.2-46 .9-70.8 28.4-74.6 82.3v182.2h75.3v308.2H0V286.4h75.3V104.2C78.1 32.9 110.2-1.8 171.7.1c61.4-.9 93.3 33.1 95.7 102V316c18.3-52.1 55.8-88.7 112.6-109.8v-56.3l-4.2-13.4c-11.7-6.1-19-24.6-21.8-55.6l-7.7-7.7c-8 7-17.1 5.4-27.4-4.9S308.2 47.2 318 36c11.3-9.9 22.3-9.6 33.1.7 9.9 10.3 11.3 19.2 4.2 26.7l17.6 16.9h11.3V67.6c-10.3-.5-15.7-7.7-16.2-21.8.5-15 8.2-23 23.2-23.9 14.5.9 22 8.9 22.5 23.9-.5 14.1-5.9 21.3-16.2 21.8v12.7h11.3z"/></svg>