<svg xmlns="http://www.w3.org/2000/svg" viewBox="-10 0 775 1001"><path d="M-10 1001V504h97V132q0-6 7-27t25-45.5q18-24.5 52.5-42T261 0q55 0 89 17.5T402.5 59Q421 83 428 104t7 28v335q5-7 13-17 34-40 78-70t83-30h2v-77q-3 0-6-.5t-7-1.5q-22-7-32.5-21.5T544 215q-9-16-11.5-34t-8.5-35q-4-13-16-20.5t-27-8.5l-3-21q5-7 19.5-18.5T535 66q19 0 34 9 8-19 21-39.5T621 1q19 14 32 34.5T673 75q15-9 35-9 23 0 37.5 11.5T765 96l-4 21q-14 1-26 8.5T718 146q-6 17-8.5 35T699 215q-10 19-21.5 34T644 271q-4 1-7 1t-6 1v80q20 4 29 15t12 23q3 12 3 18 0 16-12 32t-32 31v524h-20V486q-1 0-3 2-24 15-51 28t-50 23q-22 10-40 20t-32 19v10h38q2 3 3.5 8t1.5 11q0 14-14 33 15 10 24 26.5t9 42.5q0 22-12.5 43.5t-34 35.5Q429 802 404 802t-46-14q-21-14-33.5-35.5T312 709q0-26 9-42.5t24-26.5q-7-9-10-18t-3-15q0-6 1.5-11t3.5-8h38V150q0-5-4-19.5T355.5 100q-11.5-16-34-27.5T261 61q-38 0-60.5 11.5t-34 27.5Q155 116 151 130.5t-4 19.5v354h125v497zm404-463q5-10 10-20.5t12-20.5V132q0-5-5.5-23T389 70.5Q373 50 342 35t-81-15q-50 0-81 15t-47 35.5Q117 91 111.5 109t-5.5 23v372h22V150q0-6 4-23.5T148.5 89Q161 69 188 55t73-14q46 0 72.5 14T373 89q13 20 17 37.5t4 23.5zm227-407q6-10 14-21.5T655 86q-4-15-13.5-31.5T621 27q-24 26-34 59 23 23 34 45zm0 125q24 0 38-16.5t23-33.5q9-18 11-35t7-34q5-15 17-23.5t26-13.5q-4-3-11-9t-21-6q-27 0-45.5 18.5t-29.5 41Q625 167 621 177q-4-10-14.5-32.5t-29-41Q559 85 532 85q-14 0-21.5 6t-11.5 9q14 5 26 13.5t17 23.5q5 17 7 34t12 35q8 17 22 33.5t38 16.5zM435 555q13-8 28-16t34-17q26-11 50-23t46-25q9-4 18-11v-93h-2q-24 0-50.5 14T507 419.5Q482 441 462 464q-15 18-27 39zm196-107q24-21 24-39 0-11-5-21.5T631 373zM9 981h244V523H9zm386-397l21-16v-29q-7 14-12.5 26t-8.5 19zM131 726q-28 0-47.5-19.5T64 659q0-28 19.5-47.5T131 592q28 0 47.5 19.5T198 659q0 28-19.5 47.5T131 726zm231-95q19-6 43-6 11 0 21.5 1t20.5 5q11-11 11-23H352q0 6 3 12.5t7 10.5zm-231 76q20 0 34-14t14-34q0-20-14-34t-34-14q-20 0-33.5 14T84 659q0 20 13.5 34t33.5 14zm273 76q21 0 37.5-11.5t26.5-29q10-17.5 10-33.5 0-34-21.5-49.5T404 644q-30 0-51.5 15.5T331 709q0 16 10 33.5t26.5 29Q384 783 404 783zM131 913q-28 0-47.5-19.5T64 846q0-28 19.5-48t47.5-20q28 0 47.5 20t19.5 48q0 28-19.5 47.5T131 913z" fill="currentColor"/></svg>