<svg xmlns="http://www.w3.org/2000/svg" viewBox="0 0 470.9 594.6"><path d="M63.5 97.9h33.8c-3.3 16.9-9.1 25.1-17.6 24.6-8 .5-13.4-7.7-16.2-24.6zm5.6 169.5c-10.8-4.7-16.2-12.9-16.2-24.6.9-9.4 6.3-14.3 16.2-14.8v39.4zM90.9 228c45 15.9 82.6 58.6 112.6 128.1a543.75 543.75 0 0 0-50.3-47.1c-17.6-14.5-38.3-26.5-62.3-35.9V228zm112.6 229.4c-15-1.4-24.2-11.4-27.4-29.9-3.3-18.5 0-33.9 9.9-46.1h35.2c9.9 12.2 13.1 27.7 9.9 46.4-3.4 18.8-12.6 28.7-27.6 29.6zM321 573.5V311.8h128.1v261l-128.1.7zm33.1-206.2c-5.6 7-8.4 15-8.4 23.9 0 12.7 5.2 23 15.5 31 7 5.6 15 8.4 23.9 8.4 14.1 0 24.9-4.7 32.4-14.1 5.2-7.5 7.7-15.7 7.7-24.6 0-13.1-4.9-23.7-14.8-31.7-7-6.1-15.5-9.1-25.3-9.1-12.7.1-23 5.5-31 16.2zm-7.8 127.4c0 11.3 4 20.5 12 27.8 8 7.3 16.9 10.9 26.7 10.9 11.7 0 21.2-4 28.5-12 7.3-8 10.9-16.9 10.9-26.7 0-11.3-4-20.6-12-28.1s-17.1-11.3-27.4-11.3c-10.8 0-19.9 4-27.4 12-7.5 7.9-11.3 17.1-11.3 27.4zm38.7-121c12.2 0 18.3 6.1 18.3 18.3 0 12.2-6.1 18.3-18.3 18.3-12.7 0-19-6.1-19-18.3 0-12.2 6.4-18.3 19-18.3zM62.1 80.3L44.5 62.7c7-7.5 5.4-16.4-4.9-26.7C28.8 25.6 18 25.4 7.2 35.3c-9.9 11.3-9.6 22 .7 32.4s19.2 12 26.7 4.9l7.7 8.4c3.3 30.5 11 49 23.2 55.6l3.5 12.7v57c-22 2.8-34.7 15.2-38 37.3 0 22 12.7 37.3 38 45.7v303.2h21.8V294.2c23.5 13.1 51.8 33.8 85.1 61.9h-36.6v10.6c9.9 3.8 17.8 8.7 23.9 14.8-9.4 8.9-14.3 23.7-14.8 44.3 8 36.1 26.3 53.9 54.9 53.5 29.1 0 47.6-17.6 55.6-52.8-.9-21.1-5.6-36.1-14.1-45 5.6-6.1 13.4-11 23.2-14.8v-10.6h-42.9v-254c1.4-50.7 26.3-77.4 74.6-80.2 46 .9 70.8 28.4 74.6 82.3v182.2H299v308.2h171.7V286.4h-75.3V104.2C392.6 32.9 360.5-1.8 299 .1c-61.4-.9-93.3 33.1-95.7 102V316c-18.3-52.1-55.8-88.7-112.6-109.8v-56.3l4.2-13.4c11.7-6.1 19-24.6 21.8-55.6l7.7-7.7c8 7 17.1 5.4 27.4-4.9 10.3-10.3 10.6-21.1.7-32.4-11.3-9.9-22.3-9.6-33.1.7-9.9 10.3-11.3 19.2-4.2 26.7L98 80.3H86.7V67.6c10.3-.5 15.7-7.7 16.2-21.8-.5-15-8.2-23-23.2-23.9-14.5.9-22 8.9-22.5 23.9.5 14.1 5.9 21.3 16.2 21.8v12.7H62.1z"/></svg>