<svg xmlns="http://www.w3.org/2000/svg" viewBox="-10 0 775 1001"><path d="M483 1001V504h125V150q0-5-4-19.5T588.5 100q-11.5-16-34-27.5T494 61q-38 0-60.5 11.5t-34 27.5Q388 116 384 130.5t-4 19.5v438h38q4 8 4 19 0 6-2.5 15t-9.5 18q15 10 24 26.5t9 42.5q0 22-12.5 43.5t-34 35.5Q375 802 350 802t-46.5-14q-21.5-14-34-35.5T257 709q0-26 9-42.5t24-26.5q-13-17-13-33 0-11 4-19h38v-10q-14-9-32-19t-40-20q-23-10-50-23t-50-28q-2-2-4-2v510h-19V472q-19-15-31.5-31T80 409q0-6 2.5-18t12-23q9.5-11 29.5-15v-80q-3-1-6.5-1t-7.5-1q-22-7-33-22t-21-34q-8-16-10.5-34T37 146q-4-13-16.5-20.5T-7 117l-3-21q5-7 19.5-18.5T47 66q18 0 35 9 7-19 20-39.5T133 1q19 14 32 34.5T185 75q15-9 35-9 23 0 38 11.5T277 96l-3 21q-15 1-27 8.5T230 146q-6 17-8.5 35T211 215q-10 20-21 34.5T156 271q-3 1-6 1.5t-7 .5v77h2q40 0 84 30t78 70q3 5 6.5 9t5.5 8V132q0-7 7-28t25.5-45q18.5-24 53-41.5T494 0q55 0 89.5 17.5t52.5 42Q654 84 661 105t7 27v372h97v497zM360 538V150q0-6 4-23.5T381 89q13-20 40-34t73-14q46 0 72.5 14T606 89q13 20 17 37.5t4 23.5v354h22V132q0-5-5.5-23T622 70.5Q606 50 575 35t-81-15q-51 0-81.5 15T366 70.5Q350 91 344.5 109t-5.5 23v365q13 20 21 41zM133 131q6-10 14-21.5T168 86q-5-15-14.5-31.5T133 27q-24 26-34 59 23 23 34 45zm0 125q24 0 38.5-16.5T194 206q9-18 11-35t7-34q5-15 17-23.5t26-13.5q-4-3-11-9t-21-6q-27 0-45.5 18.5t-29.5 41Q137 167 133 177q-4-10-14.5-32.5t-29-41Q71 85 44 85q-14 0-21.5 6T11 100q14 5 26 13.5T54 137q5 17 7.5 34T73 206q8 17 22.5 33.5T133 256zm186 299v-52q-6-10-12.5-20T293 464q-20-23-45-44.5T196.5 384Q170 370 145 370h-2v93q4 3 9 6t9 5q22 13 47 25t50 23q19 9 34 17t27 16zM124 448v-75q-13 4-19 14.5T99 409q0 10 7 19.5t18 19.5zm378 533h243V523H502zM360 584q-6-15-21-45v29zm264 142q-28 0-48-19.5T556 659q0-28 20-47.5t48-19.5q28 0 47.5 19.5T691 659q0 28-19.5 47.5T624 726zm-316-95q9-4 20-5t22-1q23 0 42 6 11-11 11-23H296q0 6 3.5 12.5T308 631zm316 76q19 0 33-14t14-34q0-20-14-34t-33-14q-19 0-33.5 14T576 659q0 20 14.5 34t33.5 14zm-274 76q21 0 37.5-11.5t26.5-29q10-17.5 10-33.5 0-34-21.5-49.5T350 644q-31 0-52 15.5T277 709q0 16 10 33.5t26.5 29Q330 783 350 783zm274 130q-28 0-48-19.5T556 846q0-28 20-48t48-20q28 0 47.5 20t19.5 48q0 28-19.5 47.5T624 913z" fill="currentColor"/></svg>