<svg xmlns="http://www.w3.org/2000/svg" viewBox="-10 0 534 1001"><path d="M160 1001L-10 878q17-22 51-64.5t73-90.5V96q-25 3-47 7t-32 6V62q11-3 32.5-8t46.5-9V0h19v42l39-4V0h20v36q7 0 13.5-.5T219 35h12V0h20v36q18 0 39 3V0h19v41q55 7 104 27.5t80 60.5q31 40 31 107t-21.5 129q-21.5 62-54 123.5T382 614q-37 69-75.5 136.5t-71 123q-32.5 55.5-53 90T160 1001zm-5-28l209-368q37-70 69-132t51.5-118Q504 299 504 247q0-61-24.5-98.5t-66-58q-41.5-20.5-92-28T219 55q-41 0-88.5 7.5T55 77v7q17-3 57.5-8.5T205 70q44 0 91 6t88.5 22q41.5 16 67 45.5T477 219q0 28-21.5 72t-57 96.5Q363 440 320 496t-86 109q-37 46-77 96.5t-77 96Q43 843 19 874q12 9 32 23.5t41.5 30q21.5 15.5 39 28T155 973zm37-347l27-34q3-4 6-7t6-7V90h-39zm-59 72q10-11 19.5-23.5T172 649V91q-19 0-39 3zm118-145l39-50V95q-11-2-20.5-2.5T251 91zm58-75q41-54 75-104t54-90.5q20-40.5 20-64.5 0-37-21-61.5T382.5 119Q349 105 309 98z" fill="currentColor"/></svg>