<svg xmlns="http://www.w3.org/2000/svg" viewBox="0 0 297.1 594.5"><path d="M153.8 25c46.5 0 77.2 4.6 92 13.8 14.8 9.2 26.1 21.2 33.9 36s13.3 35.7 16.6 62.8c3.3 27-2.8 73.7-18.3 140L162.9 573c-4.7 19.3-19.3 25.6-43.7 19L6.4 528.6l36.7-55V74.4H14.8C4.5 74.9-.4 66.6 0 49.7 0 33.3 5.2 25 15.5 25h33.8c0-10.3 1.8-17.6 5.3-21.9s7.2-4.2 10.9 0C69.3 7.3 70.4 14.6 69 25h22.6c0-10.3 1.6-17.6 4.9-21.9 3.3-4.2 6.6-4.2 9.9 0 3.3 4.2 4.9 11.5 4.9 21.9h21.9c0-10.3 1.8-17.6 5.3-21.9 3.5-4.2 7.2-4.2 10.9 0 3.9 4.3 5.3 11.6 4.4 21.9zm74.7 166.5c8.9-24.4 12.6-44.1 10.9-58.9-1.6-14.8-8.5-28.1-20.5-39.8-12-11.8-33.7-17.6-65.2-17.6v231.3l74.8-115zm-95.2 145.2V74.4h-24.7v299l24.7-36.7zm-45.1 68.4V74.4H62.8v368.1l25.4-37.4zm170.6-208.7L54.3 525.7l57.8 33.1c10.8 3.3 19.3-2.6 25.4-17.6l103.7-262.3c10.8-31.5 16.7-59 17.6-82.5z"/></svg>