<svg xmlns="http://www.w3.org/2000/svg" viewBox="-10 0 424 1001"><path d="M201 1001q-21 0-32-12t-14-28q-3-16-2-28l22-355q-24-12-41-35.5T106 492q-11-27-16-48-11-1-24-5t-23-16q-10-12-10-36 0-17 20-15.5t39 9.5q4-7 19-20l-16-27q-4-8-11-11t-14-3h-3v-50h8q-9-17-23-44.5T23.5 167Q9 136-.5 108.5T-10 64q0-28 17-46T50 0q17 0 27 5.5T92 18V4h221v14q5-7 14.5-12.5T354 0q27 0 43.5 18T414 64q0 17-9.5 44.5t-24 58.5Q366 198 352 225.5T329 270h9v50h-3q-7 0-13.5 3T310 334l-16 27 11 11 8 9q19-8 39-9.5t20 15.5q0 24-10 36t-23.5 16q-13.5 4-23.5 5-4 23-16 50t-30 50q-18 23-42 35l23 354q1 12-2.5 28t-14 28q-10.5 12-32.5 12zm107-732q7-13 21-41t29-60.5q15-32.5 26-61T395 64q0-19-11.5-31.5T354 20q-19 0-24.5 9T324 45q0 26 18 26 3 0 8-3t5-10v-4h19v4q0 19-11.5 25.5T342 90q-16 0-27-11.5T304 45v-2q-3 3-5.5 6.5T294 57q5 1 5 9v11q0 7-2 8t-8 1h-3zm-212 0l22-183h-3q-5 0-7-1t-2-8V66q0-8 5-9-4-8-11-14v2q0 22-11 33.5T63 90q-10 0-21.5-6.5T30 58v-4h20v4q0 7 4.5 10t8.5 3q7 0 12.5-6T81 45q0-7-6-16t-25-9q-17 0-28.5 12.5T10 64q0 15 10.5 43.5t25.5 61q15 32.5 29 60T96 269zm37-212h138q9-20 23-32v-1H111v1q6 5 12 14.5T133 57zm-17 213h12l22-176h105l21 176h12L266 86H137zm32 0h108q-5-43-10-78t-9-79h-69zm-62 31h233v-12H86zm41 48q14-9 32.5-16t42.5-7q25 0 43.5 7t32.5 16l16-29H110zm75 219q18 0 35-14.5t30.5-37q13.5-22.5 22.5-47t10-45.5q17 2 34-4t17-27q0-4-15.5 1.5T306 407q-12-20-39.5-40.5T202 346q-37 0-64.5 20.5T98 407q-14-7-29-12.5T54 393q0 21 17 27t33 4q2 21 11 45.5t23 47q14 22.5 30.5 37T202 568zm1-60q-12 0-24-5t-12-11q0-7 4.5-22t10.5-27q-1 0-7.5.5t-17.5.5q-33 0-33-14 0-7 8-13.5t26-6.5q18 0 30.5 10.5T201 444q0 12-4 21.5t-4 15.5q0 6 4.5 6.5t5.5.5q2 0 6.5-.5t4.5-6.5q0-6-4.5-15.5T205 444q0-13 13-23.5t31-10.5q18 0 26 6.5t8 13.5q0 14-33 14-11 0-17.5-.5t-8.5-.5q7 12 11 27t4 22q0 6-12 11t-24 5zm0 34q-11 0-21.5-3.5T166 531l9-15q12 6 28 6 17 0 29-6l9 15q-5 4-15.5 7.5T203 542zm-2 439q14 0 20.5-9t8-20q1.5-11 1.5-18l-23-347h-13l-23 347q-1 7 .5 18t8 20q6.5 9 20.5 9z" fill="currentColor"/></svg>