<svg xmlns="http://www.w3.org/2000/svg" viewBox="-10 0 341 429"><path d="M289 429q-18 0-51-17t-74-47.5Q123 334 83 294q-30-30-48.5-66t-28-69q-9.5-33-13-57T-10 72V39l6-27Q0 6 8 3t15-3q8 0 15 2.5T50 15q5 10 8.5 25T67 78q12 48 33.5 96.5T152 253q29 28 60 50.5t58 38.5q25 15 43 27t18 26q0 16-11.5 25t-30.5 9zm0-19q22 0 22-11 0-8-14-17t-37-23q-28-16-59.5-39T138 266q-33-33-54-82T51 92q-9-31-13-52T23 19q-9 0-11 9.5T10 57q0 11 3 36.5t12 58Q34 184 51.5 218T97 280q38 38 77 67.5t70 46q31 16.5 45 16.5z" fill="currentColor"/></svg>