<svg xmlns="http://www.w3.org/2000/svg" viewBox="-10 0 691 164"><path d="M599 164q-34 0-58-24t-24-58q0-34 24-58t58-24q34 0 58 24t24 58q0 34-24 58t-58 24zm-527 0q-35 0-58.5-24T-10 82q0-34 23.5-58T72 0q34 0 58 24t24 58q0 34-24 58t-58 24zm264 0q-35 0-58.5-24T254 82q0-34 23.5-58T336 0q34 0 58 24t24 58q0 34-24 58t-58 24zM72 144q26 0 44-18t18-44q0-26-18-44.5T72 19q-26 0-44.5 18.5T9 82q0 26 18.5 44T72 144zm264 0q26 0 44-18t18-44q0-26-18-44.5T336 19q-27 0-45 18.5T273 82q0 26 18 44t45 18zm263 0q26 0 44.5-18T662 82q0-26-18.5-44.5T599 19q-26 0-44 18.5T537 82q0 26 18 44t44 18z" fill="currentColor"/></svg>