<svg version="1" xmlns="http://www.w3.org/2000/svg" width="21.3" height="420" viewBox="0 0 16 315"><path d="M3.2 2.6L1 4.1v44.4C1 98 .7 96 7.9 96c7.4 0 7.1 1.7 7.1-47.3C15 6.3 14.9 4.9 13 3 10.6.6 6.3.4 3.2 2.6zM2 112c-1.9 1.9-2 3.3-2 44.2 0 23.3.3 43.3.6 44.4 1.2 4.3 8.6 5.7 12.2 2.4 2.2-2.1 2.2-2.1 2.2-45.5 0-42.2-.1-43.6-2-45.5a8 8 0 0 0-5.5-2 8 8 0 0 0-5.5 2zM1.7 221.8C.2 223.5 0 228.1 0 267.3c0 42.4.1 43.8 2 45.7 2.5 2.5 7.1 2.6 9.9.2 2.2-1.7 2.2-1.7 2.1-46.2 0-40.4-.2-44.6-1.7-45.8-2.5-1.8-8.7-1.5-10.6.6z"/></svg>