<svg xmlns="http://www.w3.org/2000/svg" viewBox="-10 0 164 691"><path d="M72 164q-35 0-58.5-24T-10 82q0-34 23.5-58T72 0q34 0 58 24t24 58q0 34-24 58t-58 24zm0-19q26 0 44-18.5T134 82q0-26-18-44T72 20q-26 0-44.5 18T9 82q0 26 18.5 44.5T72 145zm0 283q-35 0-58.5-24T-10 346q0-35 23.5-58.5T72 264q34 0 58 23.5t24 58.5q0 34-24 58t-58 24zm0-20q26 0 44-18t18-44q0-26-18-44.5T72 283q-26 0-44.5 18.5T9 346q0 26 18.5 44T72 408zm0 283q-35 0-58.5-24T-10 609q0-34 23.5-58T72 527q34 0 58 24t24 58q0 34-24 58t-58 24zm0-19q26 0 44-18t18-45q0-26-18-44t-44-18q-26 0-44.5 18T9 609q0 27 18.5 45T72 672z" fill="currentColor"/></svg>