<svg xmlns="http://www.w3.org/2000/svg" viewBox="-10 0 290 415"><path d="M170 415q-5-20-9-37.5T135 331q-18-26-29-43.5T88.5 254Q82 238 77 219q-4-15-10-40t-13-52q-7-27-14-47-10-28-23-47T-10 0h110q9 7 23 25.5T146 72q10 27 19 66.5t18 73.5q8 30 20.5 53t35.5 54q20 26 30 53t11 43zm18-20h66q-2-6-5.5-20.5T223 331q-18-26-29-43.5T176.5 254q-6.5-16-11.5-35-4-15-10-40t-13-52q-7-27-14-47-7-21-18-37.5T91 19H32q6 9 12.5 22T58 72q10 27 19.5 66.5T95 212q8 30 20.5 53t35.5 54q16 22 24.5 42.5T188 395z" fill="currentColor"/></svg>