<svg xmlns="http://www.w3.org/2000/svg" viewBox="-10 0 438 696"><path d="M420 696q-55-24-115-59t-116-79q-56-44-101-95T16.5 355.5Q-10 299-10 239q0-44 14-86.5t40-77q26-34.5 63.5-55T192 0q61 0 96.5 22T340 78.5q16 34.5 16 71.5t-18.5 73Q319 259 286 283t-75 24q-52 0-78.5-28T106 207q0-32 23.5-60.5T175 103l11 16q-19 14-40 38t-21 50q0 34 21.5 57.5T211 288q36 0 64.5-21t44.5-52.5q16-31.5 16-64.5t-14-62.5Q308 58 276.5 39T192 20q-49 0-90.5 28.5t-67 78.5Q9 177 9 239q0 56 26 109t69.5 102.5Q148 500 203 543t113 77.5Q374 655 428 679z" fill="currentColor"/></svg>