<svg version="1" xmlns="http://www.w3.org/2000/svg" width="470.7" height="128" viewBox="0 0 353 96"><path d="M30.4 2a46.3 46.3 0 0 0-17.7 8.9c-4 3.6-7.9 10.6-10.3 18.6a91.9 91.9 0 0 0 .1 37.3 38.4 38.4 0 0 0 15 21.7c10.7 6.9 1.6 6.6 161.6 6.3l144.4-.3 6.2-2.9a39.5 39.5 0 0 0 21.2-27.4c1.4-6.8 1.4-25.6 0-32.4a36.7 36.7 0 0 0-28.7-29.7C315.9.8 37.1.7 30.4 2zM327 10.1c13.1 6.1 19 17.9 19 37.9 0 19.7-6.1 31.8-19 37.9l-5.5 2.6h-291l-5.7-2.8C15.1 81 9.1 71.9 7.1 59 3 33.9 11.3 14.5 28.4 9c5.9-1.9 10-1.9 149.6-1.7l143.5.2 5.5 2.6z"/></svg>